<svg xmlns="http://www.w3.org/2000/svg" viewBox="0 0 1366.25 768.26"><defs><style>.a{fill:#ffffff;}.b{fill:#41c7f6;}</style></defs><title>1800f_00065</title><path class="a" d="M1367.52,470.51V546.4c-2.35-.6-4.47.33-6.65,1-37.89,10.8-75.44,22.77-114.4,29.57a117.46,117.46,0,0,0-49,21.24c-25,18.22-26.32,48.14-1.83,64.42,11.55,7.68,16.34,18.11,18.62,30.57,4.65,25.35,3,50.87,1.51,76.37H179.1c-13-3.37-26.43-3.38-39.5-6-11.15-2.27-22.49-3.94-32.42-10-7.75-4.7-8.37-10-2.18-16.69,4.17-4.49,9.36-7.66,14.72-10.58,15.65-8.52,32.62-13.65,49.46-19,44-14.09,85.29-33.15,119.4-65.35,32.07-30.26,55.06-65.24,57.77-110.76,1.52-25.48,2.65-51,4.39-76.45,1.22-17.89,4.19-35.67,3-53.7-1.8-27.8-17.79-37.54-41.84-24C290.59,389,269.64,401.89,251,418c-7.45,6.44-13.93,14-21.93,19.82-12.23,8.91-23.31,7.3-31.82-5.25-12.06-17.78-14.75-37.77-13-58.73,1.79-21.59,9-41.94,13.95-62.8,8.25-34.93,3.1-66.74-20.65-94.61a175.45,175.45,0,0,1-11.34-14.23c-19-27.73-37.86-55.58-56.78-83.38C101.33,106.92,92.1,95.75,85.33,83,77.79,68.72,82.09,61.41,98.2,60.73c13.23-.57,26.22,1.5,39.12,4,18.85,3.71,37.64,8.1,57,7.55,35-1,65.4-14.09,92.16-36.12,12.26-10.11,24.13-20.69,32.27-34.68h595c-.15,3,2.4,4.34,4.16,5.93,9.2,8.28,18.21,16.81,27.89,24.49,56.68,44.92,109.66,93.34,149.35,154.66,20.86,32.22,43.07,63.64,56.8,99.92,7.42,19.61,13.77,39.58,19.82,59.65,6.34,21,12.68,42,23.2,61.53,13.23,24.54,32.2,40.39,60.77,43.26,7,.71,13.91,2.47,20.87,3.69Q1322,462.6,1367.52,470.51ZM767.45,699.7c20.88-.76,42.89-3.53,61.6-17.55,13-9.72,13.59-23.77,2-35.17-7.22-7.09-16.15-11.43-25.82-13.78-33.55-8.14-64.67-1.78-93.47,16.75a38.33,38.33,0,0,0-12.2,12.3c-6.56,10.85-4,20.62,7,26.89a53.92,53.92,0,0,0,15.64,5.65A249.58,249.58,0,0,0,767.45,699.7ZM872.1,503.92c-1.37-9.82-5.83-19-16.4-24.22-9.51-4.69-17.72-1.17-25.32,4.51a40.58,40.58,0,0,0-11.81,14.63c-3.24,6.45-2.7,12.22,3.3,16.84,7.74,6,16.28,10.12,26.09,11.31C861.5,528.65,872.35,518.86,872.1,503.92Z" transform="translate(-1.39 -1.39)"/><path class="b" d="M318.73,1.52c-8.14,14-20,24.57-32.27,34.68-26.76,22-57.18,35.13-92.16,36.12-19.34.55-38.13-3.84-57-7.55-12.9-2.54-25.89-4.61-39.12-4-16.11.68-20.41,8-12.87,22.23,6.77,12.79,16,24,24.1,35.87,18.92,27.8,37.76,55.65,56.78,83.38a175.45,175.45,0,0,0,11.34,14.23c23.75,27.87,28.9,59.68,20.65,94.61-4.92,20.86-12.16,41.21-13.95,62.8-1.74,21,.95,40.95,13,58.73,8.51,12.55,19.59,14.16,31.82,5.25,8-5.84,14.48-13.38,21.93-19.82,18.63-16.12,39.58-29,60.9-41.05,24-13.55,40-3.81,41.84,24,1.18,18-1.79,35.81-3,53.7-1.74,25.46-2.87,51-4.39,76.45-2.71,45.52-25.7,80.5-57.77,110.76-34.11,32.2-75.37,51.26-119.4,65.35-16.84,5.39-33.81,10.52-49.46,19-5.36,2.92-10.55,6.09-14.72,10.58-6.19,6.66-5.57,12,2.18,16.69,9.93,6,21.27,7.7,32.42,10,13.07,2.65,26.54,2.66,39.5,6-57.3,0-114.6-.07-171.89.12-4.71,0-5.83-1-5.82-5.79.2-54.27.13-108.54.13-162.81C13.25,589.85,22.29,576.57,31,563c14.43-22.55,18-46.84,10.61-72.49S26,439.39,16.78,414.32c-3.48-9.41-7.94-18.5-15.26-25.77V229.19c6.16-13.16,5.67-26.31,0-39.47,0-61,.06-121.92-.13-182.89,0-4.53.91-5.44,5.44-5.43Q162.79,1.64,318.73,1.52Z" transform="translate(-1.39 -1.39)"/><path class="b" d="M1367.52,470.51q-45.48-7.92-91-15.86c-7-1.22-13.86-3-20.87-3.69-28.57-2.87-47.54-18.72-60.77-43.26-10.52-19.52-16.86-40.49-23.2-61.53-6-20.07-12.4-40-19.82-59.65-13.73-36.28-35.94-67.7-56.8-99.92-39.69-61.32-92.67-109.74-149.35-154.66-9.68-7.68-18.69-16.21-27.89-24.49-1.76-1.59-4.31-2.89-4.16-5.93h344.54c-.15,2.8,1.85,4.61,3.19,6.67,6.07,9.35,13.56,17.56,20.88,25.92,12.64,14.46,25.65,28.73,28.37,49,2.41,17.91-3.07,34.48-8.57,51-3.22,9.65-4.26,19.2-1.46,29,7.24,25.29,22.23,45.61,41.38,63,7.26,6.61,15,12.85,25.49,13.73Z" transform="translate(-1.39 -1.39)"/><path class="b" d="M1215.74,769.52c1.49-25.5,3.14-51-1.51-76.37-2.28-12.46-7.07-22.89-18.62-30.57-24.49-16.28-23.2-46.2,1.83-64.42a117.46,117.46,0,0,1,49-21.24c39-6.8,76.51-18.77,114.4-29.57,2.18-.62,4.3-1.55,6.65-1q0,108.9.12,217.8c0,4.53-.91,5.46-5.44,5.44C1313.38,769.44,1264.56,769.52,1215.74,769.52Z" transform="translate(-1.39 -1.39)"/><path class="a" d="M1367.52,239.81c-10.48-.88-18.23-7.12-25.49-13.73-19.15-17.42-34.14-37.74-41.38-63-2.8-9.77-1.76-19.32,1.46-29,5.5-16.5,11-33.07,8.57-51-2.72-20.26-15.73-34.53-28.37-49-7.32-8.36-14.81-16.57-20.88-25.92-1.34-2.06-3.34-3.87-3.19-6.67,34.65,0,69.31.11,104-.13,4.54,0,5.45.92,5.44,5.44Q1367.39,123.32,1367.52,239.81Z" transform="translate(-1.39 -1.39)"/><path class="a" d="M1.52,388.55c7.32,7.27,11.78,16.36,15.26,25.77,9.25,25.07,17.38,50.54,24.8,76.21S45.4,540.47,31,563c-8.68,13.55-17.72,26.83-29.45,38Z" transform="translate(-1.39 -1.39)"/><path class="a" d="M1.52,189.72c5.67,13.16,6.16,26.31,0,39.47Z" transform="translate(-1.39 -1.39)"/><path class="b" d="M767.45,699.7a249.58,249.58,0,0,1-45.27-4.91,53.92,53.92,0,0,1-15.64-5.65c-11-6.27-13.55-16-7-26.89a38.33,38.33,0,0,1,12.2-12.3c28.8-18.53,59.92-24.89,93.47-16.75,9.67,2.35,18.6,6.69,25.82,13.78,11.6,11.4,11,25.45-2,35.17C810.34,696.17,788.33,698.94,767.45,699.7Z" transform="translate(-1.39 -1.39)"/><path class="b" d="M872.1,503.92c.25,14.94-10.6,24.73-24.14,23.07-9.81-1.19-18.35-5.35-26.09-11.31-6-4.62-6.54-10.39-3.3-16.84a40.58,40.58,0,0,1,11.81-14.63c7.6-5.68,15.81-9.2,25.32-4.51C866.27,484.91,870.73,494.1,872.1,503.92Z" transform="translate(-1.39 -1.39)"/></svg>