<svg xmlns="http://www.w3.org/2000/svg" viewBox="0 0 1943.05 1093.14"><defs><style>.a{fill:#ffffff;}.b{fill:#41c7f6;}</style></defs><title>1800f_00320</title><path class="a" d="M-286.86,256.51V226.15c5-11,9.46-22.23,15.21-32.93,20.46-38.11,47.08-71.87,74-105.38C-171.48,55.28-151,20.13-142.09-21.24a152.82,152.82,0,0,1,14.42-40.63c9.7-18,22.18-24.49,41.38-18.22C-50.2-68.32-19.53-48.79-1.41-13.71,7,2.65,19.81,13.63,37.53,18.93c13.94,4.17,28.22,5.67,42.68,5.7,62.79.11,125-6.39,187.11-15.26C384.65-7.39,489.4-55,587-120.28c12.63-8.44,24.71-17.54,40.3-19.94,12.27-1.88,19.52,5.25,17.47,17.56-1.33,8-4.25,15.56-6.66,23.27-4.91,15.67,1.39,24.24,18,24.74a50.81,50.81,0,0,0,9-.66c20.39-3.09,37.36-13.6,53.68-25.27,18.17-13,33.83-28.87,49.23-44.93,5-5.19,11.4-9,15.13-15.37h364.27c7.17,4.24,15.48,3.63,23.23,5.36,53.69,12,107.32,24.32,161,36.3,59.71,13.32,111.71,40.26,148.41,92,10.22,14.4,25.55,23.06,43.73,26,15.56,2.54,30.66.39,45.71-2.82,21.84-4.66,42.19-3.13,59.55,12.72a278.91,278.91,0,0,1,26.81,27.76V535.78c-3.43,1.9-5.5,5.11-7.83,8.08-16.26,20.77-28.59,44.09-42.9,66.12s-29.34,43.65-49.88,60.67c-20.89,17.32-43.25,23.11-68.7,10a794.61,794.61,0,0,1-89.66-53.79,174.37,174.37,0,0,1-31.2-27.52c-39.85-45-60.18-98.05-66.7-157.19-2.1-19-4.17-38.27-13.65-55.59-7.57-13.82-18.9-21.13-35-21.1-11.44,0-21.9,3.35-32.05,8.1-23.08,10.82-42.73,26.89-63.31,41.54-12.76,9.09-25.44,18.28-40.28,24-16.86,6.47-31.7,3.75-44.71-8.72-5.47-5.25-10.81-10.64-16.14-16.05a164.23,164.23,0,0,0-72.22-42.85c-33-9.63-64.44-7.18-93.85,11.76-17.46,11.24-33.52,24.39-49.49,37.54-14.14,11.64-16.54,27.25-8.77,43.83,5.37,11.46,13.68,20.57,23.28,28.58,22,18.37,47.41,30.94,73.35,42.31,34.16,15,60.81,37.57,77.75,71.17,5.11,10.15,10.79,20,16.31,30,20.44,36.86,44.48,70.81,80.65,94,22.34,14.32,45.76,26.89,69.6,38.62,30.25,14.88,62,22.6,95.86,21.75,39.45-1,78.87.62,118.24,3.09,9.31.58,18.72,1.24,27.55,4.69,7.63,3,9.33,7.84,5.42,15-3.32,6.13-8.48,10.67-13.82,14.93-21.83,17.43-46.71,29-73,37.81-33,11.06-67.47,15.25-101.54,21.21-43.07,7.54-82.36,25.28-121.26,44.19H-4.55c-.4-2.5-.83-5-1.17-7.49-12.43-91-35.69-178.81-74.94-262.13-19.17-40.69-39.12-81.08-52.43-124.27-10.12-32.88-17.11-66.57-26.2-99.72-13.6-49.64-37.13-93.29-76.22-127.74C-254.22,294.08-273.86,278.44-286.86,256.51Z" transform="translate(287.01 161.03)"/><path class="b" d="M1108,931.92c38.9-18.91,78.19-36.65,121.26-44.19,34.07-6,68.52-10.15,101.54-21.21,26.3-8.82,51.18-20.38,73-37.81,5.34-4.26,10.5-8.8,13.82-14.93,3.91-7.2,2.21-12-5.42-15-8.83-3.45-18.24-4.11-27.55-4.69-39.37-2.47-78.79-4.08-118.24-3.09-33.91.85-65.61-6.87-95.86-21.75-23.84-11.73-47.26-24.3-69.6-38.62-36.17-23.17-60.21-57.12-80.65-94-5.52-9.94-11.2-19.82-16.31-30-16.94-33.6-43.59-56.2-77.75-71.17-25.94-11.37-51.37-23.94-73.35-42.31-9.6-8-17.91-17.12-23.28-28.58-7.77-16.58-5.37-32.19,8.77-43.83,16-13.15,32-26.3,49.49-37.54,29.41-18.94,60.84-21.39,93.85-11.76a164.23,164.23,0,0,1,72.22,42.85c5.33,5.41,10.67,10.8,16.14,16.05,13,12.47,27.85,15.19,44.71,8.72,14.84-5.7,27.52-14.89,40.28-24,20.58-14.65,40.23-30.72,63.31-41.54,10.15-4.75,20.61-8.08,32.05-8.1,16.06,0,27.39,7.28,35,21.1,9.48,17.32,11.55,36.56,13.65,55.59,6.52,59.14,26.85,112.23,66.7,157.19a174.37,174.37,0,0,0,31.2,27.52,794.61,794.61,0,0,0,89.66,53.79c25.45,13.12,47.81,7.33,68.7-10,20.54-17,35.54-38.59,49.88-60.67s26.64-45.35,42.9-66.12c2.33-3,4.4-6.18,7.83-8.08q0,195,.14,390.07c0,5.19-1,6.22-6.22,6.21Q1378.91,931.81,1108,931.92Z" transform="translate(287.01 161.03)"/><path class="b" d="M783.17-160.88c-3.73,6.4-10.15,10.18-15.13,15.37-15.4,16.06-31.06,31.93-49.23,44.93-16.32,11.67-33.29,22.18-53.68,25.27a50.81,50.81,0,0,1-9,.66c-16.6-.5-22.9-9.07-18-24.74,2.41-7.71,5.33-15.26,6.66-23.27,2-12.31-5.2-19.44-17.47-17.56-15.59,2.4-27.67,11.5-40.3,19.94C489.4-55,384.65-7.39,267.32,9.37,205.24,18.24,143,24.74,80.21,24.63c-14.46,0-28.74-1.53-42.68-5.7C19.81,13.63,7,2.65-1.41-13.71-19.53-48.79-50.2-68.32-86.29-80.09c-19.2-6.27-31.68.2-41.38,18.22a152.82,152.82,0,0,0-14.42,40.63C-151,20.13-171.48,55.28-197.65,87.84c-26.92,33.51-53.54,67.27-74,105.38-5.75,10.7-10.23,21.91-15.21,32.93q0-190.48-.15-381c0-5.2,1-6.22,6.22-6.22Q251.2-160.79,783.17-160.88Z" transform="translate(287.01 161.03)"/><path class="b" d="M-286.86,256.51c13,21.93,32.64,37.57,51.35,54.06,39.09,34.45,62.62,78.1,76.22,127.74,9.09,33.15,16.08,66.84,26.2,99.72,13.31,43.19,33.26,83.58,52.43,124.27,39.25,83.32,62.51,171.17,74.94,262.13.34,2.5.77,5,1.17,7.49-91.76,0-183.51-.09-275.26.19-6.49,0-7.2-1.73-7.2-7.55Q-286.74,590.53-286.86,256.51Z" transform="translate(287.01 161.03)"/><path class="b" d="M1655.9,36.43a278.91,278.91,0,0,0-26.81-27.76C1611.73-7.18,1591.38-8.71,1569.54-4c-15,3.21-30.15,5.36-45.71,2.82-18.18-3-33.51-11.62-43.73-26-36.7-51.71-88.7-78.65-148.41-92-53.7-12-107.33-24.31-161-36.3-7.75-1.73-16.06-1.12-23.23-5.36q251.19,0,502.38-.15c5.2,0,6.24,1,6.22,6.22C1655.82-91.06,1655.9-27.32,1655.9,36.43Z" transform="translate(287.01 161.03)"/></svg>