<svg xmlns="http://www.w3.org/2000/svg" viewBox="0 0 1366.28 768.29"><defs><style>.a{fill:#ffffff;}.b{fill:#41c7f6;}</style></defs><title>1800f_00063</title><path class="a" d="M1367.52,462.92v75.89c-35.07,9.47-70,19.31-105.45,27.5-20.71,4.79-40.94,11.45-58.35,24.25-10.28,7.56-19,16.44-21.56,29.93-2.74,14.56,1.53,27.53,10.47,38.11,12.36,14.64,15.95,31.39,17.4,49.63,1.62,20.49-.35,40.86-.36,61.29H253.47c-1.05-1.35-2.62-1.33-4.1-1.61-27.58-5.27-55.56-7.37-83.4-10.59-17.8-2.06-35.79-3.43-52.76-9.76C100,742.63,99,735.87,109.77,727a48.48,48.48,0,0,1,6.25-4.26c14.26-8.45,30-13.37,45.62-18.34,41.86-13.29,80.62-32.33,114.42-60.78,23.85-20.06,44.75-42.53,57.2-71.59,8.69-20.32,10.54-42,11.25-63.83.76-23.24,1.27-46.48,2.83-69.68,1.05-15.59,3.3-31.23-1.17-46.71C342,377.3,332,371.36,317.38,374.73a65.33,65.33,0,0,0-14.92,5.43,176.8,176.8,0,0,1-35.4,13.34,103.77,103.77,0,0,0-35.43,16.76c-4.46,3.28-8.75,6.85-13.4,9.84-6.82,4.38-13.19,2.72-17.22-4.18-8.86-15.16-8.93-31.74-7.53-48.49,1.81-21.65,7.71-42.7,9.33-64.4,1.77-23.76-.32-47-14.27-66.88-22.79-32.5-44.68-65.53-65.11-99.56-11.7-19.5-24.73-38.21-36.28-57.79C79.1,65.14,83.74,58.2,99.8,57.64c10.41-.36,20.7.9,30.94,2.44,22.24,3.32,44.43,7.27,67.07,5.24C245.15,61.07,282.46,39,311.14,1.52h598c4.09,8.41,11.63,13.7,18.26,19.7,26.45,23.91,56.35,43.57,82.72,67.66,72,65.77,126.23,142.72,152.73,237.75,7.52,27,15.32,54,29.4,78.6,12.65,22.13,29.54,38.18,56,42,26.23,3.85,52.37,8.33,78.77,10.88C1340.54,459.46,1353.84,462.79,1367.52,462.92ZM772.05,695.4c18,.57,36.2-2.63,52.4-13.28,17-11.18,17.94-27.21,2.69-40.75a46.87,46.87,0,0,0-6.71-4.9c-29.17-17.79-75.7-13.94-105,8.68-7.81,6-15.22,12.83-13.56,23.67s10.77,15.31,20,18.57A145,145,0,0,0,772.05,695.4Zm78.72-162.71c12.74.12,22.13-6,26.64-17.41,5.06-12.79.25-30.21-11.24-40.67-12.51-11.4-26.5-13.67-40.4-6.41-10,5.22-17.94,13-26,20.69-10,9.5-21.33,14.95-35.42,14.16-7.32-.41-14.69-.18-21.55,2.9-3.38,1.52-7.9,2.8-7.27,7.53.7,5.25,5.46,6,9.82,6.5,8.76,1,17.09-1.24,25.26-3.86a42.34,42.34,0,0,1,28.19.72c10.68,3.85,21.4,7.64,32.09,11.47C837.35,530.62,843.83,532.67,850.77,532.69Z" transform="translate(-1.37 -1.37)"/><path class="b" d="M311.14,1.52c-28.68,37.43-66,59.55-113.33,63.8-22.64,2-44.83-1.92-67.07-5.24-10.24-1.54-20.53-2.8-30.94-2.44-16.06.56-20.7,7.5-12.65,21.16,11.55,19.58,24.58,38.29,36.28,57.79,20.43,34,42.32,67.06,65.11,99.56,14,19.91,16,43.12,14.27,66.88-1.62,21.7-7.52,42.75-9.33,64.4-1.4,16.75-1.33,33.33,7.53,48.49,4,6.9,10.4,8.56,17.22,4.18,4.65-3,8.94-6.56,13.4-9.84a103.77,103.77,0,0,1,35.43-16.76,176.8,176.8,0,0,0,35.4-13.34,65.33,65.33,0,0,1,14.92-5.43c14.65-3.37,24.58,2.57,28.79,17.1,4.47,15.48,2.22,31.12,1.17,46.71-1.56,23.2-2.07,46.44-2.83,69.68-.71,21.78-2.56,43.51-11.25,63.83-12.45,29.06-33.35,51.53-57.2,71.59-33.8,28.45-72.56,47.49-114.42,60.78-15.64,5-31.36,9.89-45.62,18.34a48.48,48.48,0,0,0-6.25,4.26c-10.74,8.85-9.78,15.61,3.44,20.54,17,6.33,35,7.7,52.76,9.76,27.84,3.22,55.82,5.32,83.4,10.59,1.48.28,3,.26,4.1,1.61q-122.94,0-245.88.14c-5.2,0-6.24-1-6.22-6.22.24-56.15.15-112.31.15-168.47,6.85-5.08,10.54-12.67,15.21-19.43,17.28-25.07,24.05-52.62,18.12-82.7A743.43,743.43,0,0,0,15.28,415.9c-2.91-9.37-7-18.36-13.76-25.83q0-191.23-.15-382.48c0-5.2,1-6.23,6.22-6.22Q159.36,1.67,311.14,1.52Z" transform="translate(-1.37 -1.37)"/><path class="b" d="M1367.52,462.92c-13.68-.13-27-3.46-40.53-4.76-26.4-2.55-52.54-7-78.77-10.88-26.42-3.87-43.31-19.92-56-42-14.08-24.62-21.88-51.63-29.4-78.6-26.5-95-80.72-172-152.73-237.75-26.37-24.09-56.27-43.75-82.72-67.66-6.63-6-14.17-11.29-18.26-19.7h347.57c.07,3.35,2.69,5.32,4.36,7.74,7.62,11,16.63,21,25.81,30.67,19.22,20.32,24.69,43.88,17.83,70.66-2.13,8.31-4.16,16.64-6.37,24.92A51.26,51.26,0,0,0,1297,158c5.45,30.48,21.94,54.41,44.73,74.37,7.16,6.26,15.77,10,25.75,9Z" transform="translate(-1.37 -1.37)"/><path class="b" d="M1209.67,769.52c0-20.43,2-40.8.36-61.29-1.45-18.24-5-35-17.4-49.63-8.94-10.58-13.21-23.55-10.47-38.11,2.54-13.49,11.28-22.37,21.56-29.93,17.41-12.8,37.64-19.46,58.35-24.25,35.42-8.19,70.38-18,105.45-27.5q0,112.7.12,225.39c0,4.53-.91,5.46-5.44,5.44C1311.36,769.44,1260.51,769.52,1209.67,769.52Z" transform="translate(-1.37 -1.37)"/><path class="a" d="M1367.52,241.33c-10,1-18.59-2.72-25.75-9-22.79-20-39.28-43.89-44.73-74.37a51.26,51.26,0,0,1,1.31-22.47c2.21-8.28,4.24-16.61,6.37-24.92,6.86-26.78,1.39-50.34-17.83-70.66-9.18-9.71-18.19-19.64-25.81-30.67-1.67-2.42-4.29-4.39-4.36-7.74,35.16,0,70.32.11,105.48-.13,4.54,0,5.45.92,5.44,5.44Q1367.39,124.09,1367.52,241.33Z" transform="translate(-1.37 -1.37)"/><path class="a" d="M1.52,390.07c6.71,7.47,10.85,16.46,13.76,25.83a743.43,743.43,0,0,1,19.57,76.94c5.93,30.08-.84,57.63-18.12,82.7C12.06,582.3,8.37,589.89,1.52,595Z" transform="translate(-1.37 -1.37)"/><path class="b" d="M772.05,695.4a145,145,0,0,1-50.17-8c-9.28-3.26-18.39-7.72-20-18.57s5.75-17.66,13.56-23.67c29.34-22.62,75.87-26.47,105-8.68a46.87,46.87,0,0,1,6.71,4.9c15.25,13.54,14.32,29.57-2.69,40.75C808.25,692.77,790,696,772.05,695.4Z" transform="translate(-1.37 -1.37)"/><path class="b" d="M850.77,532.69c-6.94,0-13.42-2.07-19.86-4.38-10.69-3.83-21.41-7.62-32.09-11.47a42.34,42.34,0,0,0-28.19-.72c-8.17,2.62-16.5,4.86-25.26,3.86-4.36-.5-9.12-1.25-9.82-6.5-.63-4.73,3.89-6,7.27-7.53,6.86-3.08,14.23-3.31,21.55-2.9,14.09.79,25.46-4.66,35.42-14.16,8-7.65,16-15.47,26-20.69,13.9-7.26,27.89-5,40.4,6.41,11.49,10.46,16.3,27.88,11.24,40.67C872.9,526.68,863.51,532.81,850.77,532.69Z" transform="translate(-1.37 -1.37)"/></svg>