<svg xmlns="http://www.w3.org/2000/svg" viewBox="0 0 1943.07 1093.09"><defs><style>.a{fill:#ffffff;}.b{fill:#41c7f6;}</style></defs><title>1800f_00331</title><path class="a" d="M-286.86,551V376.41c3.06,1,6-.07,8.94-.59,15.93-2.77,31.68-6.4,47.73-8.59,23.1-3.15,46.41-2.42,69.58-4.38,21.71-1.83,40.74-9.21,56-25.3,13-13.67,23-29.41,33.19-45.12C-38.58,241.78-15,188.19-14.61,126.25c.12-17.34,4.15-34.69,14.2-49.71,5-7.5,11-13.91,20.33-16,13.19-2.95,23.19,3.54,31.9,12,22.76,22,32.81,49.88,36,80.64,2.46,23.86,13,36.54,36.25,42.62,18.66,4.88,37.63,4.4,56.52,2.26,34.87-3.94,69.49-9.9,104.45-13.28C323.42,181,361.17,174,396.5,157.88c55.7-25.39,106-59.29,149.29-102.47C577,24.29,591.63-15.23,591.59-59.2c0-36.79-22.68-64-55.77-69.26-18-2.85-35.79,1.32-53.31,4.92-66,13.56-130.07,33.75-193.19,57.05C259.15-55.35,228.66-49,196.53-56.16c-19.26-4.26-37.17-11.7-53-23.4-27.76-20.45-35.13-48.61-29.66-81.32H850c-.1,4-2.65,7-4.7,10.14-16.51,25.15-33.4,50.06-49.6,75.41C781.36-53,766.88-30.67,755.22-6.75a130,130,0,0,0-7,16.79c-6.38,19.67.45,32.35,20.51,36.81,27.52,6.11,52.5-2.14,76.34-15.17C867.85,19.24,887.46,2.32,908.16-13c12.19-9,24.66-17.79,40.53-19.36,11.94-1.18,23,2.28,34,6,12.68,4.31,25.25,9.53,38.82,9.75,51.09.84,100.94,10.52,150.76,20.5,73.81,14.78,147.18,31.82,222.09,40.69,25.14,3,49.68,9,72.23,21.55,23.95,13.32,38.35,32.7,42.19,60.22,4.15,29.84,10.09,59.35,22.66,87,10.89,24,23.23,47.26,48.27,59.33s50.73,22.65,76.15,33.88V825.67c-14.91,5.54-29.73,11.27-45.43,14.41-23.49,4.69-45.54,2.3-66.29-10.74a461.84,461.84,0,0,1-44.3-31.83c-25.16-20.31-44.6-44.58-52.75-76.69-3.61-14.21-7.29-28.37-9.26-42.93-5.69-41.88-.16-81.39,22.55-118,15.44-24.94,33.51-48.13,48.21-73.52,9.66-16.69,18.46-33.82,18-53.91-.38-18.78-13.26-28-31.09-22.55-11.55,3.56-21.58,9.91-30.82,17.44-26.22,21.37-52,43.3-78.42,64.42-23.46,18.76-49.31,34.6-71.2,55.24-35.93,33.86-73.22,65.94-113.82,94.09-16.79,11.65-28.73,27-34.87,46.46-18.66,59.2-6.67,110.89,39.37,153.34,21.76,20.07,46.35,36.72,69.85,54.67,17.26,13.18,35.9,24.32,53.9,36.4H71.34a7.28,7.28,0,0,0-.37-2.19C51.9,893.76,32,858.27,7.63,825.56c-10.29-13.8-22.42-25.3-40.71-27.89-13.05-1.86-25.58,1-38.26,3-10.2,1.54-20.36,3.62-30.79,1.51-20.11-4.07-34.09-17.23-46.24-32.31-13.14-16.31-25.1-33.56-37.67-50.33-34.62-46.23-66-94.4-89.18-147.56C-278.39,564.64-281.09,556.89-286.86,551Zm273.38,39.73c-3.26-38.13-19.23-68.94-52.73-89.23-12.07-7.32-27.65-2-31.57,10.06a44.24,44.24,0,0,0-1,24.64c5.14,20.72,18.26,36.91,30.87,53.29,8.32,10.8,17.19,21.2,29.46,27.91,9.74,5.33,17.17,2.35,21.84-7.92C-13.81,603.38-14.06,597.18-13.48,590.69ZM1003.23,61.55c-.19-3.23,0-6.55-.62-9.75-2.23-12.21-10.34-16.43-21.65-11.35A40.24,40.24,0,0,0,966.17,52c-13,16.13-21.41,33.75-15.25,55.09,2.62,9,8.93,12.87,18.35,12.38,7.26-.39,12.77-4.18,17.38-9.48C998.72,96.11,1002.21,79.3,1003.23,61.55Z" transform="translate(287.01 161.03)"/><path class="b" d="M113.83-160.88c-5.47,32.71,1.9,60.87,29.66,81.32,15.87,11.7,33.78,19.14,53,23.4,32.13,7.11,62.62.81,92.79-10.33,63.12-23.3,127.2-43.49,193.19-57.05,17.52-3.6,35.28-7.77,53.31-4.92,33.09,5.23,55.74,32.47,55.77,69.26,0,44-14.59,83.49-45.8,114.61-43.3,43.18-93.59,77.08-149.29,102.47C361.17,174,323.42,181,285,184.74c-35,3.38-69.58,9.34-104.45,13.28-18.89,2.14-37.86,2.62-56.52-2.26C100.77,189.68,90.26,177,87.8,153.14c-3.17-30.76-13.22-58.67-36-80.64-8.71-8.41-18.71-14.9-31.9-12C10.63,62.63,4.6,69-.41,76.54c-10,15-14.08,32.37-14.2,49.71-.41,61.94-24,115.53-56.84,166.18-10.19,15.71-20.24,31.45-33.19,45.12-15.23,16.09-34.26,23.47-56,25.3-23.17,2-46.48,1.23-69.58,4.38-16.05,2.19-31.8,5.82-47.73,8.59-3,.52-5.88,1.56-8.94.59q0-265.6-.14-531.22c0-5.2,1-6.23,6.21-6.22Q-83.48-160.74,113.83-160.88Z" transform="translate(287.01 161.03)"/><path class="b" d="M1655.9,306.59c-25.42-11.23-51.14-21.83-76.15-33.88s-37.38-35.34-48.27-59.33c-12.57-27.69-18.51-57.2-22.66-87-3.84-27.52-18.24-46.9-42.19-60.22-22.55-12.54-47.09-18.57-72.23-21.55-74.91-8.87-148.28-25.91-222.09-40.69-49.82-10-99.67-19.66-150.76-20.5-13.57-.22-26.14-5.44-38.82-9.75-11-3.75-22.1-7.21-34-6C932.82-30.83,920.35-22.09,908.16-13c-20.7,15.36-40.31,32.28-63.06,44.72-23.84,13-48.82,21.28-76.34,15.17C748.7,42.39,741.87,29.71,748.25,10a130,130,0,0,1,7-16.79C766.88-30.67,781.36-53,795.66-75.33c16.2-25.35,33.09-50.26,49.6-75.41,2-3.11,4.6-6.09,4.7-10.14q399.69,0,799.39-.13c5.19,0,6.72.73,6.71,6.47Q1655.75,76,1655.9,306.59Z" transform="translate(287.01 161.03)"/><path class="b" d="M1329.57,931.92c-18-12.08-36.64-23.22-53.9-36.4-23.5-17.95-48.09-34.6-69.85-54.67-46-42.45-58-94.14-39.37-153.34,6.14-19.44,18.08-34.81,34.87-46.46,40.6-28.15,77.89-60.23,113.82-94.09,21.89-20.64,47.74-36.48,71.2-55.24,26.42-21.12,52.2-43.05,78.42-64.42,9.24-7.53,19.27-13.88,30.82-17.44,17.83-5.49,30.71,3.77,31.09,22.55.42,20.09-8.38,37.22-18,53.91-14.7,25.39-32.77,48.58-48.21,73.52-22.71,36.66-28.24,76.17-22.55,118,2,14.56,5.65,28.72,9.26,42.93,8.15,32.11,27.59,56.38,52.75,76.69a461.84,461.84,0,0,0,44.3,31.83c20.75,13,42.8,15.43,66.29,10.74,15.7-3.14,30.52-8.87,45.43-14.41,0,33.65-.11,67.29.13,100.93,0,4.54-.92,5.45-5.45,5.44Q1490.08,931.8,1329.57,931.92Z" transform="translate(287.01 161.03)"/><path class="b" d="M-286.86,551c5.77,5.93,8.47,13.68,11.64,21C-252,625.09-220.66,673.26-186,719.49c12.57,16.77,24.53,34,37.67,50.33,12.15,15.08,26.13,28.24,46.24,32.31,10.43,2.11,20.59,0,30.79-1.51,12.68-1.91,25.21-4.81,38.26-3,18.29,2.59,30.42,14.09,40.71,27.89C32,858.27,51.9,893.76,71,929.73a7.28,7.28,0,0,1,.37,2.19q-176.07,0-352.13.14c-5.2,0-6.22-1-6.22-6.21Q-286.73,738.4-286.86,551Z" transform="translate(287.01 161.03)"/><path class="b" d="M-13.48,590.69c-.58,6.49-.33,12.69-3.09,18.75-4.67,10.27-12.1,13.25-21.84,7.92-12.27-6.71-21.14-17.11-29.46-27.91-12.61-16.38-25.73-32.57-30.87-53.29a44.24,44.24,0,0,1,1-24.64c3.92-12.07,19.5-17.38,31.57-10.06C-32.71,521.75-16.74,552.56-13.48,590.69Z" transform="translate(287.01 161.03)"/><path class="b" d="M1003.23,61.55c-1,17.75-4.51,34.56-16.58,48.44-4.61,5.3-10.12,9.09-17.38,9.48-9.42.49-15.73-3.34-18.35-12.38-6.16-21.34,2.23-39,15.25-55.09A40.24,40.24,0,0,1,981,40.45c11.31-5.08,19.42-.86,21.65,11.35C1003.19,55,1003,58.32,1003.23,61.55Z" transform="translate(287.01 161.03)"/></svg>