<svg xmlns="http://www.w3.org/2000/svg" viewBox="0 0 1367 768.93"><defs><style>.a{fill:#ffffff;}.b{fill:#41c7f6;}</style></defs><title>1800f_00023</title><path class="a" d="M1367.52,361.23v80.45c-2.53-.9-4.4.79-6.31,1.82-35.87,19.27-70.71,40.21-103.94,63.78-24.92,17.69-46.86,38.33-57.81,67.55-14.26,38-29.91,75.73-36.13,116.25-4,26-6.82,52.09-3.75,78.44h-812a3.52,3.52,0,0,0-.52-3.56c-11.14-18.17-23.39-35.44-39.28-49.89-34.45-31.33-75.31-50.54-119.52-63.44-12.37-3.61-24.84-6.91-37.14-10.74-4.7-1.46-10.52-2.73-11.68-8.48-1.24-6.14,3.87-9.43,8-12.74,8.28-6.69,17.32-12.28,26.36-17.87,16.55-10.24,33.51-19.86,48.44-32.51,17.49-14.82,28.91-32.62,30.31-56.35,1.14-19.26-1.26-38.38-.63-57.6,1-30.82,7.14-60.32,22.94-87.06,17.74-30,30.7-62,42-94.83,4.12-11.92,8.17-24,7.85-36.89-.31-12.72-7.87-17.82-19.84-13.35-8.61,3.21-16.23,8.25-23.25,14.09-13,10.83-25.78,22-38.89,32.72-14.47,11.84-28.86,23.92-46,32-16.29,7.69-29.92,5.06-42.15-7.52-13.26-13.64-14.24-30.5-11.14-47.55,6.47-35.57,5.13-70.42-6.37-104.78-10.84-32.36-18.36-65.73-29.71-97.94-3.33-9.47-2.16-11.92,7-15.89,6.72-2.91,13.74-5.11,20.52-7.89C148.64,15.82,162.75,11,174.54,1.52H930.4c-.13,2.24,1.49,3.68,2.49,5.39,20.37,34.45,43.56,66.94,68.39,98.3,29,36.69,58.78,72.89,77.36,116.54,2.91,6.85,8.07,12.35,14,16.7,14.95,10.91,21.12,25.88,21.47,43.86q.73,37.92,1.65,75.83c.16,6.83.8,13.66,3.23,20.12,2.35,6.27,6.94,8.54,13.29,6.26a76.09,76.09,0,0,0,10.29-4.77c7.55-4.09,14.83-8.72,22.54-12.49,24.55-12,51-17.67,77.69-22.29,36.07-6.24,71.44-6.16,105.51,9.61C1354.45,357.41,1360.57,360.65,1367.52,361.23ZM829.32,495.06c7.71.29,17.24-.42,26.32-4.16,17.51-7.23,21.61-20.63,9.82-35.31-14.72-18.31-29.92-36.28-47.2-52.3-19.14-17.76-41.5-25.08-67.61-21.24-20.13,3-38.9,10.74-58.5,15.59-18.32,4.54-32.74,15.36-44.41,30-12,15.14-8.94,29.55,8.36,38.62,12,6.32,25.09,8,38.3,7,26.44-1.87,51.71,2.44,76.59,11.34C789.1,491.11,807.9,495.16,829.32,495.06ZM723.55,538.59c-21.16-1.36-35.18,14.09-47.31,31.37-11.71,16.68-5.42,31.45,14.75,35.14,26.65,4.87,50.78-2,71.49-19.28,12.54-10.49,11.4-27.2-1.67-37.08C750.67,541.08,738.93,538.72,723.55,538.59Zm335.06,43.85c21-.11,48.77-20.57,55.08-40.53,2.63-8.35.56-15.17-6.26-20.07a23.18,23.18,0,0,0-21.76-3c-21.51,7.59-35,23.68-42,44.74C1039.64,575.92,1045.78,582.51,1058.61,582.44Zm-58-247.75c-.48,10.13,3.64,13.15,11.08,8.86,17.13-9.87,27.17-25.23,31.45-44.24,1.7-7.57-3.2-10.83-10.47-7.69s-12.32,8.82-17.14,14.6C1008.25,315,1002.21,324.57,1000.63,334.69Z" transform="translate(-0.66 -0.74)"/><path class="b" d="M174.54,1.52c-11.79,9.43-25.9,14.3-39.61,19.92-6.78,2.78-13.8,5-20.52,7.89-9.18,4-10.35,6.42-7,15.89,11.35,32.21,18.87,65.58,29.71,97.94,11.5,34.36,12.84,69.21,6.37,104.78-3.1,17.05-2.12,33.91,11.14,47.55,12.23,12.58,25.86,15.21,42.15,7.52,17.09-8.07,31.48-20.15,46-32,13.11-10.73,25.86-21.89,38.89-32.72,7-5.84,14.64-10.88,23.25-14.09,12-4.47,19.53.63,19.84,13.35.32,12.89-3.73,25-7.85,36.89-11.31,32.78-24.27,64.82-42,94.83C259,396,252.9,425.52,251.89,456.34c-.63,19.22,1.77,38.34.63,57.6-1.4,23.73-12.82,41.53-30.31,56.35-14.93,12.65-31.89,22.27-48.44,32.51-9,5.59-18.08,11.18-26.36,17.87-4.11,3.31-9.22,6.6-8,12.74,1.16,5.75,7,7,11.68,8.48,12.3,3.83,24.77,7.13,37.14,10.74,44.21,12.9,85.07,32.11,119.52,63.44,15.89,14.45,28.14,31.72,39.28,49.89a3.52,3.52,0,0,1,.52,3.56q-170,0-340,.14c-5.2,0-6.22-1-6.22-6.22q.25-371.85.15-743.71l9.55,7.15c5.48,4.13,11.18,8.05,18,9.27C46.68,39.31,64.23,39.08,81.5,34c8.82-2.59,9.67-5.73,4.68-13.76C81.73,13.09,74.79,8.18,69.82,1.52Z" transform="translate(-0.66 -0.74)"/><path class="b" d="M1367.52,361.23c-7-.58-13.07-3.82-19.18-6.65-34.07-15.77-69.44-15.85-105.51-9.61-26.72,4.62-53.14,10.27-77.69,22.29-7.71,3.77-15,8.4-22.54,12.49a76.09,76.09,0,0,1-10.29,4.77c-6.35,2.28-10.94,0-13.29-6.26-2.43-6.46-3.07-13.29-3.23-20.12q-.93-37.92-1.65-75.83c-.35-18-6.52-32.95-21.47-43.86-6-4.35-11.12-9.85-14-16.7-18.58-43.65-48.33-79.85-77.36-116.54-24.83-31.36-48-63.85-68.39-98.3-1-1.71-2.62-3.15-2.49-5.39h85c1.55,27.62,26.59,42.65,50.22,29.77,11.78-6.43,19.11-16.79,22.64-29.77H1246.1c4.16,5.59,10.58,8.33,15.93,12.4,15.54,11.83,27.86,25.67,30.56,45.91,1,7.24,1.6,14.54,2.05,21.83,2,33.17,16.07,60.64,40.06,83.05,9.33,8.73,19.79,16.26,32.82,18.94Z" transform="translate(-0.66 -0.74)"/><path class="b" d="M1159.58,769.52c-3.07-26.35-.24-52.46,3.75-78.44,6.22-40.52,21.87-78.23,36.13-116.25,11-29.22,32.89-49.86,57.81-67.55,33.23-23.57,68.07-44.51,103.94-63.78,1.91-1,3.78-2.72,6.31-1.82q0,160.87.14,321.76c0,5.2-1,6.24-6.21,6.22C1294.16,769.44,1226.87,769.52,1159.58,769.52Z" transform="translate(-0.66 -0.74)"/><path class="a" d="M1367.52,183.65c-13-2.68-23.49-10.21-32.82-18.94-24-22.41-38-49.88-40.06-83.05-.45-7.29-1.09-14.59-2.05-21.83-2.7-20.24-15-34.08-30.56-45.91-5.35-4.07-11.77-6.81-15.93-12.4,38.7,0,77.4.1,116.1-.13,4.54,0,5.46.91,5.45,5.44C1367.45,65.77,1367.52,124.71,1367.52,183.65Z" transform="translate(-0.66 -0.74)"/><path class="a" d="M69.82,1.52c5,6.66,11.91,11.57,16.36,18.72,5,8,4.14,11.17-4.68,13.76-17.27,5.08-34.82,5.31-52.42,2.15-6.83-1.22-12.53-5.14-18-9.27L1.52,19.73c0-6-2.32-14.19.68-17.42C5-.7,13.45,1.53,19.41,1.53Q44.63,1.5,69.82,1.52Z" transform="translate(-0.66 -0.74)"/><path class="a" d="M1088.25,1.52c-3.53,13-10.86,23.34-22.64,29.77-23.63,12.88-48.67-2.15-50.22-29.77Z" transform="translate(-0.66 -0.74)"/><path class="b" d="M829.32,495.06c-21.42.1-40.22-3.95-58.33-10.42-24.88-8.9-50.15-13.21-76.59-11.34-13.21.93-26.26-.7-38.3-7-17.3-9.07-20.4-23.48-8.36-38.62,11.67-14.66,26.09-25.48,44.41-30,19.6-4.85,38.37-12.63,58.5-15.59,26.11-3.84,48.47,3.48,67.61,21.24,17.28,16,32.48,34,47.2,52.3,11.79,14.68,7.69,28.08-9.82,35.31C846.56,494.64,837,495.35,829.32,495.06Z" transform="translate(-0.66 -0.74)"/><path class="b" d="M723.55,538.59c15.38.13,27.12,2.49,37.26,10.15,13.07,9.88,14.21,26.59,1.67,37.08C741.77,603.14,717.64,610,691,605.1c-20.17-3.69-26.46-18.46-14.75-35.14C688.37,552.68,702.39,537.23,723.55,538.59Z" transform="translate(-0.66 -0.74)"/><path class="b" d="M1058.61,582.44c-12.83.07-19-6.52-14.91-18.84,6.94-21.06,20.46-37.15,42-44.74a23.18,23.18,0,0,1,21.76,3c6.82,4.9,8.89,11.72,6.26,20.07C1107.38,561.87,1079.58,582.33,1058.61,582.44Z" transform="translate(-0.66 -0.74)"/><path class="b" d="M1000.63,334.69c1.58-10.12,7.62-19.7,14.92-28.47,4.82-5.78,10-11.49,17.14-14.6s12.17.12,10.47,7.69c-4.28,19-14.32,34.37-31.45,44.24C1004.27,347.84,1000.15,344.82,1000.63,334.69Z" transform="translate(-0.66 -0.74)"/></svg>