<svg xmlns="http://www.w3.org/2000/svg" viewBox="0 0 1942.91 1093.09"><defs><style>.a{fill:#ffffff;}.b{fill:#41c7f6;}</style></defs><title>1800f_00296</title><path class="a" d="M-286.86,233.74V-160.88H1435.82c5.25,26.75,6.83,53.64,2.14,80.61-4.2,24.14-17.35,44.61-28.12,66-10.45,20.76-22.57,40.67-31.53,62.22-7.65,18.42-5.07,34.36,9.8,48.21,6.66,6.22,13.42,12.27,20.61,17.87,19.73,15.37,40.36,29.7,57.6,48,17.4,18.52,28.77,39.55,27.13,66-1.71,27.51-18.54,43.3-43.88,40.43a51.85,51.85,0,0,1-14.64-3.72c-52.17-22.55-93.65-56.63-113-111.76-12.19-34.77-30.53-64.57-57.92-89.13-10.34-9.27-19.31-20-27.55-31.25C1210.27-3,1184.32-38.84,1154.69-71.8c-15.21-16.91-29.55-34.74-47.88-48.52-29-21.85-54.74-21.31-82.87,1.42-5.31,4.29-10.74,8.47-15.72,13.12-13.38,12.47-28,15.88-45.2,8.24a87.33,87.33,0,0,0-34.55-7.76c-20.51-.26-37.59,9-54.56,18.62-17.58,10-34.33,21.42-52.83,29.81-19.1,8.66-38.71,13.34-59.67,8.11-11.85-3-22.87-8-33.7-13.53-15.76-8-30.79-17.56-47.34-24C667.29-91.33,654-95.68,640-89.6,628-84.43,620.25-75,614-64c-14.33,24.95-20.89,52.49-26.49,80.28-4.1,20.34-6.79,40.8-5.37,61.73,3,43.69,14.69,85.56,25.48,127.65,4.08,15.91,14.45,24.18,30.27,26.77,30.82,5,61.65,2.44,92.25-1,47.42-5.28,94.69-12,142-18.37,28.82-3.87,56.3-1.34,82.17,13.44A272.44,272.44,0,0,0,1004.77,249c45,14.71,85.34,37.76,123.12,66,31.22,23.29,63.28,45.41,97.39,64.4,27,15,55.12,27.67,82.71,41.46,9.75,4.88,19.3,10.14,26.89,18.18,12.1,12.81,11.65,27.93-.87,40.29-7.7,7.6-17.49,10.88-27.5,13.76-16.27,4.68-32.93,7.81-49.18,12.64-25.42,7.56-42.71,23.14-51.13,48.45-8.32,25-22.11,47-37.74,68-15.39,20.68-31.43,41-43.4,64-11,21.11-17.76,42.92-11.34,67.06,7.73,29.11,32.17,42.63,60.66,33.48,12.41-4,23.7-10.27,34.53-17.23,32.75-21.07,67.36-37.89,105-48.43,28.72-8,57.3-16.6,85.12-27.47,42.56-16.62,83.77-35.66,119.16-65.37,12.18-10.22,23.67-21.43,37.93-28.89s25.82-5.68,37.35,5.44c10.22,9.84,16.81,22.1,22.58,34.8,16.17,35.59,23.58,73.46,29.23,111.84,2.35,15.89,4.59,31.9,10.66,47,0,42.5-.12,85,.15,127.5,0,5.2-1,6.21-6.23,6.21q-534.25-.24-1068.51-.14c2.65-1.87,5.46-3.56,7.93-5.65,24.54-20.82,33.81-49.16,37.38-79.57,3-25.32-5.52-48.48-18.27-70-16.31-27.52-37-50.68-67.48-63-14.7-5.94-30.28-7.72-46.06-8.06-33.2-.72-66.05,4.28-99.1,5.89-66.81,3.27-130.62-11-192.59-34.75-29.68-11.37-58.19-25-79.35-50a241.31,241.31,0,0,0-21.83-23.14C79.16,583,52.48,577.34,23.1,584.74,7,588.81-2,601.79-1.32,618.62c.42,11,3.57,21.51,7.54,31.57,10.57,26.79,6,51.58-8.73,75.23-5.88,9.44-12.16,18.62-18.35,27.86C-31,768.39-42.49,782.67-48.61,800.11c-6.32,18-4.27,34.12,10.39,47.84,8.79,8.24,18.85,14.39,29.18,20.26,18.89,10.73,39,19.47,56,33.31,10.11,8.22,18.86,17.55,22.89,30.4H-286.86V537.3c1.14-2.23,2.45-4.38,3.38-6.69,11.57-28.68,31.66-46.84,62.92-51.48,11.47-1.71,22.83-4.16,34.31-5.66,39.74-5.19,70.65-24.08,91.94-58.3,10.46-16.8,16.74-34.82,13.39-54.7-4.14-24.65-20.7-38.83-42.89-47.74-17-6.82-35-6.89-52.76-8.93-33.42-3.85-62.72-16.25-86.55-40.69C-272,254-278.71,243.33-286.86,233.74ZM534.58,275c.44-9.3-1.47-21.32-4.11-33.15-10.26-46-18.94-92.09-17.93-139.54a111.79,111.79,0,0,0-4.26-31.49c-9.71-35.92-30.49-61.24-68.87-67A462.61,462.61,0,0,0,359.3-1c-26,.64-39.07,11.51-47.5,36-.91,2.62-1.68,5.3-2.37,8-6.18,24.21-7.12,49-7.56,73.75-.68,38.18-9.09,74-29.44,106.82q-15.58,25.16-31.72,49.93c-30.77,47-63.33,92.65-101.73,133.92-12.06,13-25.73,24.21-37.24,37.78-36.07,42.55-17.57,90.31,11.37,113.56,15.18,12.19,33.23,17.94,51.38,23.46,54.48,16.56,107.35,12.49,156.86-15.87,87-49.83,152.4-120.11,193.94-211.8C526.29,330.29,534.78,305.18,534.58,275Z" transform="translate(286.86 161.03)"/><path class="b" d="M1655.9,798.35c-6.07-15.09-8.31-31.1-10.66-47-5.65-38.38-13.06-76.25-29.23-111.84-5.77-12.7-12.36-25-22.58-34.8-11.53-11.12-23.1-12.9-37.35-5.44s-25.75,18.67-37.93,28.89c-35.39,29.71-76.6,48.75-119.16,65.37-27.82,10.87-56.4,19.42-85.12,27.47-37.6,10.54-72.21,27.36-105,48.43-10.83,7-22.12,13.24-34.53,17.23-28.49,9.15-52.93-4.37-60.66-33.48-6.42-24.14.35-46,11.34-67.06,12-23,28-43.28,43.4-64,15.63-21,29.42-43,37.74-68,8.42-25.31,25.71-40.89,51.13-48.45,16.25-4.83,32.91-8,49.18-12.64,10-2.88,19.8-6.16,27.5-13.76,12.52-12.36,13-27.48.87-40.29-7.59-8-17.14-13.3-26.89-18.18-27.59-13.79-55.74-26.44-82.71-41.46-34.11-19-66.17-41.11-97.39-64.4-37.78-28.19-78.12-51.24-123.12-66a272.44,272.44,0,0,1-50.51-22.52c-25.87-14.78-53.35-17.31-82.17-13.44-47.3,6.37-94.57,13.09-142,18.37-30.6,3.41-61.43,6-92.25,1-15.82-2.59-26.19-10.86-30.27-26.77-10.79-42.09-22.52-84-25.48-127.65-1.42-20.93,1.27-41.39,5.37-61.73C593.07-11.53,599.63-39.07,614-64,620.25-75,628-84.43,640-89.6c14-6.08,27.33-1.73,40.41,3.33,16.55,6.42,31.58,15.94,47.34,24,10.83,5.52,21.85,10.58,33.7,13.53,21,5.23,40.57.55,59.67-8.11,18.5-8.39,35.25-19.82,52.83-29.81,17-9.64,34.05-18.88,54.56-18.62A87.33,87.33,0,0,1,963-97.54c17.25,7.64,31.82,4.23,45.2-8.24,5-4.65,10.41-8.83,15.72-13.12,28.13-22.73,53.82-23.27,82.87-1.42,18.33,13.78,32.67,31.61,47.88,48.52,29.63,33,55.58,68.82,81.79,104.47,8.24,11.22,17.21,22,27.55,31.25,27.39,24.56,45.73,54.36,57.92,89.13,19.33,55.13,60.81,89.21,113,111.76a51.85,51.85,0,0,0,14.64,3.72c25.34,2.87,42.17-12.92,43.88-40.43,1.64-26.46-9.73-47.49-27.13-66-17.24-18.34-37.87-32.67-57.6-48-7.19-5.6-14-11.65-20.61-17.87-14.87-13.85-17.45-29.79-9.8-48.21,9-21.55,21.08-41.46,31.53-62.22,10.77-21.41,23.92-41.88,28.12-66,4.69-27,3.11-53.86-2.14-80.61,71.33,0,142.67.07,214-.15,5.2,0,6.22,1,6.22,6.22Q1655.8,321.77,1655.9,798.35Z" transform="translate(286.86 161.03)"/><path class="b" d="M69.82,931.92c-4-12.85-12.78-22.18-22.89-30.4-17-13.84-37.08-22.58-56-33.31-10.33-5.87-20.39-12-29.18-20.26-14.66-13.72-16.71-29.83-10.39-47.84,6.12-17.44,17.64-31.72,27.75-46.83,6.19-9.24,12.47-18.42,18.35-27.86,14.74-23.65,19.3-48.44,8.73-75.23-4-10.06-7.12-20.61-7.54-31.57C-2,601.79,7,588.81,23.1,584.74c29.38-7.4,56.06-1.74,78.84,18.93a241.31,241.31,0,0,1,21.83,23.14c21.16,25,49.67,38.61,79.35,50,62,23.73,125.78,38,192.59,34.75,33.05-1.61,65.9-6.61,99.1-5.89,15.78.34,31.36,2.12,46.06,8.06,30.49,12.33,51.17,35.49,67.48,63,12.75,21.5,21.23,44.66,18.27,70-3.57,30.41-12.84,58.75-37.38,79.57-2.47,2.09-5.28,3.78-7.93,5.65H549.44c-16.37-6.78-31.63-15.65-46.6-25-23.07-14.43-47.42-25.78-73.87-32.62a771.82,771.82,0,0,1-76.48-24.46c-13-4.87-26.08-9.59-39.68-12.61-29.78-6.61-51.72,2-68.8,27.28-13.89,20.58-21.71,43.79-28.49,67.42Z" transform="translate(286.86 161.03)"/><path class="b" d="M-286.86,233.74c8.15,9.59,14.87,20.28,23.74,29.37C-239.29,287.55-210,300-176.57,303.8c17.74,2,35.79,2.11,52.76,8.93,22.19,8.91,38.75,23.09,42.89,47.74,3.35,19.88-2.93,37.9-13.39,54.7-21.29,34.22-52.2,53.11-91.94,58.3-11.48,1.5-22.84,3.95-34.31,5.66-31.26,4.64-51.35,22.8-62.92,51.48-.93,2.31-2.24,4.46-3.38,6.69Z" transform="translate(286.86 161.03)"/><path class="a" d="M215.52,931.92c6.78-23.63,14.6-46.84,28.49-67.42,17.08-25.32,39-33.89,68.8-27.28,13.6,3,26.66,7.74,39.68,12.61A771.82,771.82,0,0,0,429,874.29c26.45,6.84,50.8,18.19,73.87,32.62,15,9.36,30.23,18.23,46.6,25Z" transform="translate(286.86 161.03)"/><path class="b" d="M534.58,275c.2,30.15-8.29,55.26-19.29,79.55-41.54,91.69-106.9,162-193.94,211.8C271.84,594.74,219,598.81,164.49,582.25c-18.15-5.52-36.2-11.27-51.38-23.46-28.94-23.25-47.44-71-11.37-113.56,11.51-13.57,25.18-24.82,37.24-37.78,38.4-41.27,71-86.89,101.73-133.92q16.18-24.75,31.72-49.93c20.35-32.81,28.76-68.64,29.44-106.82.44-24.77,1.38-49.54,7.56-73.75.69-2.69,1.46-5.37,2.37-8,8.43-24.5,21.51-35.37,47.5-36a462.61,462.61,0,0,1,80.11,4.81c38.38,5.77,59.16,31.09,68.87,67a111.79,111.79,0,0,1,4.26,31.49c-1,47.45,7.67,93.56,17.93,139.54C533.11,253.71,535,265.73,534.58,275Z" transform="translate(286.86 161.03)"/></svg>