<svg xmlns="http://www.w3.org/2000/svg" viewBox="0 0 1943.05 1093.09"><defs><style>.a{fill:#ffffff;}.b{fill:#41c7f6;}</style></defs><title>1800f_00343</title><path class="a" d="M1655.9,676.93q0,124.08.14,248.16c0,5.69-1.28,7-7,7q-869.31-.22-1738.62-.14a18.14,18.14,0,0,0-1.19-2.74c-26-40.2-48.2-82.47-68-125.94-19.63-43-50.78-74.94-91.15-98.47-11.93-6.95-23.55-14.61-36.94-18.73v-94.1a32.89,32.89,0,0,0,5.07-1.23c20.29-8.47,41.13-15.87,60.71-25.75,55-27.71,113-40,174.36-38.45,27.31.7,54.53-1.8,81.72-4.37,32.23-3.06,57.05-17.22,73.34-45.71,8.55-14.95,16.34-30.25,23.61-45.84a449.68,449.68,0,0,1,22.6-42c15.59-25.82,37.88-37.82,68.2-36.62,29.33,1.15,58.48,4.29,87.66,6.9,51.15,4.58,99.66-2.42,145.18-27.57,28.11-15.53,57.52-28.48,87.31-40.52,13.15-5.31,25.92-11.42,37.38-19.94,15.73-11.7,26.29-26.41,27.47-46.71.42-7.31,1.29-14.6,1.81-21.9,1.44-20.1,5.8-40,2.24-60.39-4.62-26.43-20.47-42.55-46.72-46.58-18.43-2.83-36.2,1.24-54,4.91-40.87,8.41-81.6,17.25-120.18,33.86-30.23,13-59,29-88.48,43.5-26.9,13.29-55.25,17.52-84.77,15.14-28.08-2.27-43.88-19.33-45-47.53-.71-17.67,2.46-34.76,7.45-51.55C197.77,34,216.8-25.25,230.37-86c5.57-24.89,11.75-49.65,15.51-74.9h784.69c-17.88,37-27.76,76.94-42.48,115.09a177.92,177.92,0,0,1-33,54.12c-20.08,22.75-39.51,46.08-57.3,70.7-8.59,11.89-16.61,24.16-19.48,39-2.12,11,1.92,19.34,10.53,25.74,6.58,4.91,14.26,7.56,22.13,9.6,32.86,8.53,64.85,5,95.69-8.19,28.44-12.16,54.58-8.33,79.88,8.32a377.54,377.54,0,0,1,46,35.92c26.84,24.37,58.15,37.41,94.08,41.35,83.64,9.17,166.75,22.26,249.88,35.14,21.46,3.32,42.8,8,62.42,18,18.92,9.64,25.68,22.9,23.39,44a338.4,338.4,0,0,0-2.07,50.73c.44,10.6,1,21.21,1.1,31.83.4,34-12.25,61.49-40.76,81-9.19,6.27-18.29,12.67-27.59,18.76-17.57,11.52-35.21,23-50.17,37.87-41.24,41.08-66.39,90.66-76.37,147.83-3.5,20-4.17,40.29,2.41,60,5.41,16.21,15.85,27.09,33.52,28.67a119.75,119.75,0,0,0,37.66-2.52c26.19-6,51.36-15.19,76.42-24.66,33.13-12.52,65.93-25.74,95.62-45.58C1627.7,701.43,1641.33,688.61,1655.9,676.93ZM439.05,698.8c11.61.09,21.76-4.33,30.94-10.87,30.61-21.79,38.45-55,43.35-89.21,1.57-11-5.44-15.22-15.18-9.74-23.37,13.15-46.24,27.16-64.47,47.34-8,8.86-15.06,18.4-18.72,30C408.86,685.69,418.61,698.81,439.05,698.8Zm591.29-329c27.6-.08,52.87-19.82,58-45.28,1.59-7.94-1.61-16.2-7.24-17-5.16-.73-10.55-1.18-15.61,1.33a138.67,138.67,0,0,0-48.47,39c-4,5.18-5.91,11.19-3.11,16.91,2.63,5.34,8.86,4.93,14.19,5C1028.83,369.79,1029.59,369.78,1030.34,369.78Z" transform="translate(287.01 161.03)"/><path class="b" d="M245.88-160.88c-3.76,25.25-9.94,50-15.51,74.9C216.8-25.25,197.77,34,180.07,93.54c-5,16.79-8.16,33.88-7.45,51.55,1.13,28.2,16.93,45.26,45,47.53,29.52,2.38,57.87-1.85,84.77-15.14,29.46-14.55,58.25-30.49,88.48-43.5,38.58-16.61,79.31-25.45,120.18-33.86,17.82-3.67,35.59-7.74,54-4.91,26.25,4,42.1,20.15,46.72,46.58,3.56,20.37-.8,40.29-2.24,60.39-.52,7.3-1.39,14.59-1.81,21.9-1.18,20.3-11.74,35-27.47,46.71-11.46,8.52-24.23,14.63-37.38,19.94-29.79,12-59.2,25-87.31,40.52-45.52,25.15-94,32.15-145.18,27.57-29.18-2.61-58.33-5.75-87.66-6.9-30.32-1.2-52.61,10.8-68.2,36.62a449.68,449.68,0,0,0-22.6,42c-7.27,15.59-15.06,30.89-23.61,45.84C92.05,504.92,67.23,519.08,35,522.14c-27.19,2.57-54.41,5.07-81.72,4.37-61.36-1.57-119.39,10.74-174.36,38.45-19.58,9.88-40.42,17.28-60.71,25.75a32.89,32.89,0,0,1-5.07,1.23V-44c.71-.25,1.62-.29,2.12-.77C-268.61-60.39-248.4-66.87-227-70.61c27.14-4.75,53.84-11,79.19-22.21,31.62-14,54.7-36.48,68.86-68.06Z" transform="translate(287.01 161.03)"/><path class="b" d="M1655.9,676.93c-14.57,11.68-28.2,24.5-43.8,34.92-29.69,19.84-62.49,33.06-95.62,45.58-25.06,9.47-50.23,18.63-76.42,24.66a119.75,119.75,0,0,1-37.66,2.52c-17.67-1.58-28.11-12.46-33.52-28.67-6.58-19.75-5.91-40-2.41-60,10-57.17,35.13-106.75,76.37-147.83,15-14.89,32.6-26.35,50.17-37.87,9.3-6.09,18.4-12.49,27.59-18.76,28.51-19.47,41.16-47,40.76-81-.13-10.62-.66-21.23-1.1-31.83a338.4,338.4,0,0,1,2.07-50.73c2.29-21.1-4.47-34.36-23.39-44-19.62-10-41-14.67-62.42-18-83.13-12.88-166.24-26-249.88-35.14-35.93-3.94-67.24-17-94.08-41.35a377.54,377.54,0,0,0-46-35.92c-25.3-16.65-51.44-20.48-79.88-8.32-30.84,13.17-62.83,16.72-95.69,8.19-7.87-2-15.55-4.69-22.13-9.6-8.61-6.4-12.65-14.74-10.53-25.74,2.87-14.86,10.89-27.13,19.48-39,17.79-24.62,37.22-47.95,57.3-70.7a177.92,177.92,0,0,0,33-54.12c14.72-38.15,24.6-78.1,42.48-115.09h341.5c-1.33,8.37.59,16.65,1.67,24.78,3.72,27.91,6.57,55.81,7.63,84,.69,18.49,10.25,33.32,27.56,42.16,5,2.58,9.81,4.13,14.72.32,5.29-4.12,7.11-9.83,5.86-16.19-2.57-13.07-5.3-26.12-8.36-39.08-7.58-32.05-14.53-64.24-23.28-96q126,0,252-.15c5.2,0,6.22,1,6.22,6.22Q1655.8,261.07,1655.9,676.93Z" transform="translate(287.01 161.03)"/><path class="b" d="M-286.86,686c13.39,4.12,25,11.78,36.94,18.73,40.37,23.53,71.52,55.44,91.15,98.47,19.83,43.47,42.07,85.74,68,125.94a18.14,18.14,0,0,1,1.19,2.74q-96,0-192,.12c-4.53,0-5.45-.91-5.44-5.43Q-286.72,806.33-286.86,686Z" transform="translate(287.01 161.03)"/><path class="a" d="M-78.92-160.88c-14.16,31.58-37.24,54.05-68.86,68.06C-173.13-81.58-199.83-75.36-227-70.61c-21.43,3.74-41.64,10.22-57.77,25.83-.5.48-1.41.52-2.12.77,0-37.1.12-74.2-.15-111.3,0-5,1.46-5.68,5.93-5.67Q-180-160.77-78.92-160.88Z" transform="translate(287.01 161.03)"/><path class="a" d="M1397.87-160.88c8.75,31.76,15.7,63.95,23.28,96,3.06,13,5.79,26,8.36,39.08,1.25,6.36-.57,12.07-5.86,16.19-4.91,3.81-9.67,2.26-14.72-.32-17.31-8.84-26.87-23.67-27.56-42.16-1.06-28.2-3.91-56.1-7.63-84-1.08-8.13-3-16.41-1.67-24.78Z" transform="translate(287.01 161.03)"/><path class="b" d="M439.05,698.8c-20.44,0-30.19-13.11-24.08-32.49,3.66-11.59,10.72-21.13,18.72-30,18.23-20.18,41.1-34.19,64.47-47.34,9.74-5.48,16.75-1.23,15.18,9.74-4.9,34.22-12.74,67.42-43.35,89.21C460.81,694.47,450.66,698.89,439.05,698.8Z" transform="translate(287.01 161.03)"/><path class="b" d="M1030.34,369.78c-.75,0-1.51,0-2.27,0-5.33-.07-11.56.34-14.19-5-2.8-5.72-.94-11.73,3.11-16.91a138.67,138.67,0,0,1,48.47-39c5.06-2.51,10.45-2.06,15.61-1.33,5.63.8,8.83,9.06,7.24,17C1083.21,350,1057.94,369.7,1030.34,369.78Z" transform="translate(287.01 161.03)"/></svg>