<svg xmlns="http://www.w3.org/2000/svg" viewBox="0 0 1943.03 1093.09"><defs><style>.a{fill:#ffffff;}.b{fill:#41c7f6;}</style></defs><title>1800f_00344</title><path class="a" d="M1655.9,692.11q0,116.49.14,233c0,5.69-1.28,7-7,7q-873.1-.22-1746.21-.14a11.4,11.4,0,0,0-1-2.75c-28.11-40.28-52.42-82.73-74-126.86-9.33-19.13-20.93-36.88-36.21-52-22.77-22.54-50.06-38.22-78.54-52.13V605.6c25.51-9.73,50.87-20,75.16-32.35,54.69-27.86,112.41-40,173.63-37.43,34.08,1.41,68.15,3,102.2,5.09,21.2,1.3,38.62-5.74,51-23.78,8.2-12,14.16-25.07,20-38.27,9.72-22.2,17.68-45.19,30.94-65.76,13.95-21.66,33-35.09,58.89-38.33a339,339,0,0,1,34-2.76c32.1-.76,64.21-.22,96.32-1.21,39.93-1.23,77.45-10.23,112.16-30.42a1002.78,1002.78,0,0,1,92.46-47.27c13.16-5.92,26-12.49,37.18-21.82,12.46-10.4,21-23.08,22.92-39.65,2.87-24.93,4.08-50,2.16-74.94-2.63-34.32-26-55-60.36-55.3A116,116,0,0,0,528,105.75c-63.06,18.58-125.77,38.11-185.08,67.14-31.64,15.49-64.12,28.77-99.63,32.69a136.24,136.24,0,0,1-29.52.46c-28.32-3.09-42.82-19.39-43.54-48.61-.68-27.57,7.6-53.41,16-79.12C211.78-.3,235-79.53,250.43-160.88h795.32c-5.68,20.17-12,40.19-16.9,60.55C1017.4-53,997.55-10.87,958.75,20.76,940.09,36,924.48,54.39,909.61,73.33c-8.93,11.38-17,23.33-21.76,37.13-5.85,17-.76,29.65,14.94,38.2a92.6,92.6,0,0,0,19.73,7.72c28.16,7.74,56.5,8.32,84.7.82,34.87-9.27,66.44-2.51,95.93,17.44,18.1,12.24,34.16,26.9,50.24,41.52,16.33,14.84,34.91,24.92,56.71,28.74,48.53,8.51,97.51,13.92,146.29,20.75,41.52,5.81,83.38,9.38,124.43,18.33,20.54,4.48,40.83,9.84,58.86,21.34,11.86,7.58,19,18.08,19.38,32.43.91,31.83,2.3,63.67,2.29,95.51,0,24.54-9.48,45.59-27.21,63-16.69,16.41-35.85,29.63-54.26,43.81-41.51,32-71.81,71.73-85.5,122.85-9.74,36.38-8.8,72.07,10,105.94,9.38,16.93,21.86,29.83,42.25,32.06,14.22,1.55,27.75-2.36,40.62-7.59C1548.68,768.4,1607.43,738.78,1655.9,692.11ZM435.48,726a71.12,71.12,0,0,0,35.93-10.6c25.6-15.7,40-39.34,47.86-67.58,3.75-13.39,7.48-26.83,13.16-39.53,12-26.77,26.6-52.12,42.22-76.91,1.58-2.52,3.12-5.22,3.2-8.41.12-4.66-1-7.86-6.54-5.31-5.22,2.39-10.58,4.49-15.16,8.12-12.33,9.78-22.6,21.59-33.32,33-20.16,21.46-43.29,39.4-67.45,56.13-22.91,15.85-43.05,34.45-55,60.34-7.3,15.83-5.72,31.27,4.27,40.09C413.4,723,424,726,435.48,726ZM993,409.89c30.37-.19,57-7,81.64-21,32.44-18.47,48.72-46.54,48.34-83.95-.12-12-8.87-18.71-20.68-17.09-10.68,1.47-19.57,6.46-27.8,12.89-23.26,18.18-46.56,36.32-69.6,54.78-12.39,9.92-24.44,20.28-34.74,32.52-8.44,10-6.1,18.12,6.74,20.7C982.74,409.91,988.91,409.64,993,409.89Z" transform="translate(286.99 161.03)"/><path class="b" d="M250.43-160.88C235-79.53,211.78-.3,186.17,78.31c-8.37,25.71-16.65,51.55-16,79.12.72,29.22,15.22,45.52,43.54,48.61a136.24,136.24,0,0,0,29.52-.46c35.51-3.92,68-17.2,99.63-32.69,59.31-29,122-48.56,185.08-67.14a116,116,0,0,1,33.73-4.35c34.36.25,57.73,21,60.36,55.3,1.92,25,.71,50-2.16,74.94-1.9,16.57-10.46,29.25-22.92,39.65-11.17,9.33-24,15.9-37.18,21.82a1002.78,1002.78,0,0,0-92.46,47.27c-34.71,20.19-72.23,29.19-112.16,30.42-32.11,1-64.22.45-96.32,1.21a339,339,0,0,0-34,2.76C199,378,179.94,391.44,166,413.1c-13.26,20.57-21.22,43.56-30.94,65.76-5.79,13.2-11.75,26.3-20,38.27-12.35,18-29.77,25.08-51,23.78-34-2.1-68.12-3.68-102.2-5.09C-99.29,533.3-157,545.39-211.7,573.25c-24.29,12.37-49.65,22.62-75.16,32.35V36.43c4.43-1.15,6.68,2.69,9.7,4.48,19.29,11.42,34.87,7.08,44.89-13a61.63,61.63,0,0,0,5.36-14.08C-220.1-17-202.85-39.83-175.78-56c15.14-9,29.55-19.32,44.12-29.28,28.19-19.25,48.93-44.81,63.36-75.62Z" transform="translate(286.99 161.03)"/><path class="b" d="M1655.9,692.11c-48.47,46.67-107.22,76.29-168.68,101.25-12.87,5.23-26.4,9.14-40.62,7.59-20.39-2.23-32.87-15.13-42.25-32.06-18.77-33.87-19.71-69.56-10-105.94,13.69-51.12,44-90.88,85.5-122.85,18.41-14.18,37.57-27.4,54.26-43.81,17.73-17.44,27.21-38.49,27.21-63,0-31.84-1.38-63.68-2.29-95.51-.41-14.35-7.52-24.85-19.38-32.43-18-11.5-38.32-16.86-58.86-21.34-41-9-82.91-12.52-124.43-18.33-48.78-6.83-97.76-12.24-146.29-20.75-21.8-3.82-40.38-13.9-56.71-28.74-16.08-14.62-32.14-29.28-50.24-41.52-29.49-19.95-61.06-26.71-95.93-17.44-28.2,7.5-56.54,6.92-84.7-.82a92.6,92.6,0,0,1-19.73-7.72c-15.7-8.55-20.79-21.22-14.94-38.2,4.75-13.8,12.83-25.75,21.76-37.13C924.48,54.39,940.09,36,958.75,20.76c38.8-31.63,58.65-73.72,70.1-121.09,4.92-20.36,11.22-40.38,16.9-60.55H1325c3.44,28.2,11.48,55.33,19.52,82.44,8.28,28,18.11,55.29,36.9,78.33,8.81,10.8,19.54,19,33,23.24,20.9,6.58,44.23-4.74,46-29.73.59-8.56.87-17.14,1.45-25.7a479.46,479.46,0,0,0-1.16-81.7c-1.66-15.84-5.27-31.29-8.18-46.88,65.77,0,131.54.08,197.31-.15,5.2,0,6.22,1,6.22,6.22Q1655.8,268.66,1655.9,692.11Z" transform="translate(286.99 161.03)"/><path class="b" d="M-286.86,698.18c28.48,13.91,55.77,29.59,78.54,52.13,15.28,15.12,26.88,32.87,36.21,52,21.53,44.13,45.84,86.58,74,126.86a11.4,11.4,0,0,1,1,2.75q-92.21,0-184.41.12c-4.53,0-5.45-.91-5.44-5.43Q-286.72,812.39-286.86,698.18Z" transform="translate(286.99 161.03)"/><path class="a" d="M-68.3-160.88c-14.43,30.81-35.17,56.37-63.36,75.62-14.57,10-29,20.24-44.12,29.28-27.07,16.15-44.32,39-51.13,69.83a61.63,61.63,0,0,1-5.36,14.08c-10,20.06-25.6,24.4-44.89,13-3-1.79-5.27-5.63-9.7-4.48q0-96-.13-192c0-4.53.91-5.45,5.44-5.44Q-174.93-160.74-68.3-160.88Z" transform="translate(286.99 161.03)"/><path class="a" d="M1452.51-160.88c2.91,15.59,6.52,31,8.18,46.88a479.46,479.46,0,0,1,1.16,81.7c-.58,8.56-.86,17.14-1.45,25.7-1.75,25-25.08,36.31-46,29.73-13.44-4.23-24.17-12.44-33-23.24-18.79-23-28.62-50.37-36.9-78.33-8-27.11-16.08-54.24-19.52-82.44Z" transform="translate(286.99 161.03)"/><path class="b" d="M435.48,726c-11.49,0-22.08-3-30.82-10.66-10-8.82-11.57-24.26-4.27-40.09,11.94-25.89,32.08-44.49,55-60.34,24.16-16.73,47.29-34.67,67.45-56.13,10.72-11.41,21-23.22,33.32-33,4.58-3.63,9.94-5.73,15.16-8.12,5.59-2.55,6.66.65,6.54,5.31-.08,3.19-1.62,5.89-3.2,8.41-15.62,24.79-30.26,50.14-42.22,76.91-5.68,12.7-9.41,26.14-13.16,39.53-7.9,28.24-22.26,51.88-47.86,67.58A71.12,71.12,0,0,1,435.48,726Z" transform="translate(286.99 161.03)"/><path class="b" d="M993,409.89c-4.05-.25-10.22,0-16.1-1.16-12.84-2.58-15.18-10.67-6.74-20.7,10.3-12.24,22.35-22.6,34.74-32.52,23-18.46,46.34-36.6,69.6-54.78,8.23-6.43,17.12-11.42,27.8-12.89,11.81-1.62,20.56,5.11,20.68,17.09.38,37.41-15.9,65.48-48.34,83.95C1050,402.9,1023.33,409.7,993,409.89Z" transform="translate(286.99 161.03)"/></svg>