<svg xmlns="http://www.w3.org/2000/svg" viewBox="0 0 1366.3 768.26"><defs><style>.a{fill:#ffffff;}.b{fill:#41c7f6;}</style></defs><title>1800f_00067</title><path class="a" d="M1367.52,478.1v74.37c-2.69.64-5.42,1.14-8.06,1.92-39.08,11.67-76.92,27.29-118.32,31a86.31,86.31,0,0,0-57.1,28.51c-17.28,19.14-11.42,41.79,13,49.85,1,.31,1.91.66,2.89.91,9.15,2.28,14.62,8.38,17.79,17,3.45,9.32,4.7,19,5.77,28.85,2.17,19.69-.2,39.34-.17,59H121.42c-4.58-2.07-9.36-3.79-13.7-6.28-9.49-5.43-10.33-12.46-2.48-20.17a62.18,62.18,0,0,1,9.58-7.39c12.17-7.91,25.55-13.22,39.21-17.92,26.51-9.12,53.92-16.07,79-28.85,71.31-36.37,116.77-90.39,118-174.52A733.47,733.47,0,0,1,357.53,429c1.82-13.74,2.48-27.8-1.16-41.48-4.68-17.58-16.87-23.31-33.63-16.12-7.5,3.22-14.11,7.86-20.46,12.92-16.65,13.28-31.83,28.09-46.43,43.56-6.23,6.61-12.24,13.5-19.91,18.59-12.84,8.52-24.05,7.72-34.81-3.33-20.16-20.73-24.26-46.37-21.35-73.82,2.09-19.75,9.19-38.27,14.83-57.13,10.67-35.69,7.64-68.67-17.11-98.42-30.25-36.36-55-76.86-85.12-113.38a82.48,82.48,0,0,1-10-16.05C77.26,74,80.88,67.3,92.14,65.07a53,53,0,0,1,15.84-.8,252,252,0,0,1,41.6,8.07c23.39,6.49,47.11,9.52,71.17,4.07,37.2-8.43,66.35-30.08,92.06-57C317.94,14,323.82,9,326.32,1.52H919.77c5,8.05,12.63,13.55,19.66,19.49C997.9,70.48,1051.8,124,1095.12,187.8c35,51.51,66.69,104.27,81.82,165.46,4.92,19.9,11.46,39.25,21.11,57.47,12,22.74,29.31,37.28,55.59,42.26C1291.82,460.22,1329.58,469.62,1367.52,478.1ZM780,634.27c-27.55.93-53.62,6.83-76.07,23.85-8.21,6.23-16,14-13.81,25.22s12.89,14.28,22.6,16.21a214.56,214.56,0,0,0,70.87,2.17c15.13-2,29.78-6.05,42.92-14.13,17.16-10.57,17.84-28,1.75-40.13a53.28,53.28,0,0,0-13.3-7.19A94.86,94.86,0,0,0,780,634.27Z" transform="translate(-1.34 -1.39)"/><path class="b" d="M326.32,1.52C323.82,9,317.94,14,312.81,19.36,287.1,46.33,258,68,220.75,76.41c-24.06,5.45-47.78,2.42-71.17-4.07A252,252,0,0,0,108,64.27a53,53,0,0,0-15.84.8C80.88,67.3,77.26,74,82.38,84.38a82.48,82.48,0,0,0,10,16.05c30.09,36.52,54.87,77,85.12,113.38,24.75,29.75,27.78,62.73,17.11,98.42-5.64,18.86-12.74,37.38-14.83,57.13-2.91,27.45,1.19,53.09,21.35,73.82,10.76,11.05,22,11.85,34.81,3.33,7.67-5.09,13.68-12,19.91-18.59,14.6-15.47,29.78-30.28,46.43-43.56,6.35-5.06,13-9.7,20.46-12.92,16.76-7.19,28.95-1.46,33.63,16.12,3.64,13.68,3,27.74,1.16,41.48A733.47,733.47,0,0,0,351,514.39c-1.26,84.13-46.72,138.15-118,174.52-25.06,12.78-52.47,19.73-79,28.85-13.66,4.7-27,10-39.21,17.92a62.18,62.18,0,0,0-9.58,7.39c-7.85,7.71-7,14.74,2.48,20.17,4.34,2.49,9.12,4.21,13.7,6.28-38.35,0-76.69-.1-115,.12-4.32,0-5-1-5-5.1q.24-78.72.11-157.43c13.9-14,26.13-29.39,37.82-45.25q24.75-33.6,9.72-72.4c-9.9-25.43-19.79-50.88-30.35-76C14.65,403.75,9.59,394.3,1.52,387V239.81c13.12-19.73,12.85-39.46,0-59.19,0-57.59.11-115.18-.18-172.77,0-5.77,1.56-6.46,6.73-6.45Q167.19,1.64,326.32,1.52Z" transform="translate(-1.34 -1.39)"/><path class="b" d="M1367.52,478.1c-37.94-8.48-75.7-17.88-113.88-25.11-26.28-5-43.55-19.52-55.59-42.26-9.65-18.22-16.19-37.57-21.11-57.47-15.13-61.19-46.85-113.95-81.82-165.46C1051.8,124,997.9,70.48,939.43,21c-7-5.94-14.65-11.44-19.66-19.49h340c0,3,2,5.07,3.48,7.39,6.8,11,15.87,20.24,24.36,29.91,4.66,5.31,9.44,10.53,13.86,16,20.81,26,21.51,54.28,7.59,83.11-5.68,11.77-5.15,22.12,0,33.21a126.19,126.19,0,0,0,15.14,25.28c12.36,15.67,24.92,31.14,43.33,40.32Z" transform="translate(-1.34 -1.39)"/><path class="b" d="M1223.33,769.52c0-19.67,2.34-39.32.17-59-1.07-9.82-2.32-19.53-5.77-28.85-3.17-8.59-8.64-14.69-17.79-17-1-.25-1.93-.6-2.89-.91-24.43-8.06-30.29-30.71-13-49.85a86.31,86.31,0,0,1,57.1-28.51c41.4-3.74,79.24-19.36,118.32-31,2.64-.78,5.37-1.28,8.06-1.92q0,105.87.12,211.73c0,4.53-.91,5.46-5.44,5.44C1315.91,769.43,1269.62,769.52,1223.33,769.52Z" transform="translate(-1.34 -1.39)"/><path class="a" d="M1367.52,236.78c-18.41-9.18-31-24.65-43.33-40.32a126.19,126.19,0,0,1-15.14-25.28c-5.15-11.09-5.68-21.44,0-33.21,13.92-28.83,13.22-57.12-7.59-83.11-4.42-5.51-9.2-10.73-13.86-16C1279.11,29.15,1270,20,1263.24,8.91c-1.43-2.32-3.5-4.37-3.48-7.39,34.15,0,68.3.11,102.44-.13,4.54,0,5.45.92,5.44,5.44Q1367.39,121.81,1367.52,236.78Z" transform="translate(-1.34 -1.39)"/><path class="a" d="M1.52,387c8.07,7.26,13.13,16.71,17.19,26.38,10.56,25.16,20.45,50.61,30.35,76q15.11,38.76-9.72,72.4c-11.69,15.86-23.92,31.25-37.82,45.25Z" transform="translate(-1.34 -1.39)"/><path class="a" d="M1.52,180.62c12.85,19.73,13.12,39.46,0,59.19Z" transform="translate(-1.34 -1.39)"/><path class="b" d="M780,634.27a94.86,94.86,0,0,1,35,6,53.28,53.28,0,0,1,13.3,7.19c16.09,12.13,15.41,29.56-1.75,40.13-13.14,8.08-27.79,12.09-42.92,14.13a214.56,214.56,0,0,1-70.87-2.17c-9.71-1.93-20.39-4.81-22.6-16.21s5.6-19,13.81-25.22C726.37,641.1,752.44,635.2,780,634.27Z" transform="translate(-1.34 -1.39)"/></svg>