<svg xmlns="http://www.w3.org/2000/svg" viewBox="0 0 1943.05 1093.11"><defs><style>.a{fill:#ffffff;}.b{fill:#41c7f6;}</style></defs><title>1800f_00146</title><path class="a" d="M-286.86,116.87q0-135.84-.15-271.68c0-5.2,1-6.22,6.22-6.22q321,.25,642,.15c-2.12,14.14,2.3,26.46,11.28,37.06,8.57,10.12,15.78,12,28.21,6.57,21.76-9.44,38.76-25,53.1-43.63H1340.2c-1.41,9.84,4.27,15.62,11.78,20.18,6.53,4,13.76,6.37,21,8.66a75.06,75.06,0,0,1,28.74,16.4c11.91,11,23.91,21.82,35.69,32.92,28.28,26.64,59.94,47.9,96.21,62.25,13.85,5.48,27.31,12,40.68,18.62,14.29,7.06,26.77,16.38,33.83,31.37,5.14,10.92,6.85,22.68,8.43,34.47,3.58,26.88,16,41.22,39.34,45.29V500.87c-5.07,7.24-10.17,14.45-15.2,21.71-28.1,40.58-50.55,83.88-64.65,131.4-8.48,28.58-17.62,56.93-31.32,83.65-8.19,16-11.07,33.44-10.33,51.48,1,24.49,7.55,47.81,14.27,71.13,7.15,24.8,16.16,48.86,28.3,71.68H-212.49c15.55-18.11,33.83-32.59,56.1-41.57,37.51-15.12,74.72-30.93,111.34-48.13,25-11.74,50.78-14,77.51-6.28,15.6,4.53,30.51,10.65,45.34,17.15,20.34,8.91,39.78,20.22,61.8,24.77,12.4,2.56,24.93,2.42,35.29-6.39,15.24-13,20-30,16.86-49.2-3.29-20.26-14.8-35.88-30.27-48.44-32.56-26.44-68.91-43.11-112-40.86-21,1.1-39.62,9.78-58,18.85-22.27,11-45.15,16.21-70.32,13.53-35.93-3.83-57.83-21.08-67-55.87-7.33-28-10-56.72-13-85.35-3.29-31.14-6.81-62.33-3.43-93.78a68.75,68.75,0,0,0-6.8-37.65c-21.34-44-47.08-84.9-84.15-117.69-9.46-8.37-19.26-16.53-26-27.42-6-9.59-4.13-17.12,5.37-23.26a53.45,53.45,0,0,1,8.07-4.15c14-6,28.79-9.51,43.46-13.27C-146.66,287.5-70.09,272.3,7,259.91c31.28-5,62.76-6.22,94.4-2.12,28.9,3.74,57.19,10.28,85.26,17.75a129.2,129.2,0,0,0,65.14.92C278.23,270,303.3,260,328,249c25-11.16,48.55-25,72.86-37.43,34.07-17.42,66.49-17.34,98.39,5.73,24.37,17.63,49.74,33.88,74.6,50.83,70.67,48.21,147.83,69.62,233.46,57.48,24-3.41,48.34-4.86,72.39.78,22,5.16,43.64,3.51,65.18-2.58,5.83-1.65,11.75-3,17.65-4.39,26.63-6.29,53.58-11.85,81-10.44,29.5,1.52,58.66,7.2,87.87,11.7,17.68,2.73,24.79,10.73,27.44,28.47a45.89,45.89,0,0,1,.48,9.07c-1.3,26.82-5.7,53.23-11.26,79.44-4.17,19.7-4.8,39.15,3.07,58.12,11.71,28.26,21.85,57.13,33.16,85.53,19.29,48.47,51.42,85.6,101,105.25,28,11.11,56.6,20.49,87.55,17.91,20.55-1.72,33.19-12.28,37.55-32.38a98.29,98.29,0,0,0,1.86-27.85c-1.46-21.18-2.91-42.38-3.31-63.59-.77-40,1.26-79.87,4.43-119.71,2.2-27.72,4.81-55.34,11.28-82.51,9.27-38.93,23-76.46,34.75-114.62,6.39-20.79,12.29-41.67,11.47-63.83-.94-25.55-15.47-43.58-40.33-49a82.1,82.1,0,0,0-18-2.08c-32.25.16-61.45,10.86-89.44,25.75-25.6,13.63-47.74,32.23-71,49.22-9.39,6.86-18.67,14-29.52,18.47-12.49,5.18-18.51.72-17.34-12.85.68-7.9,3.71-15.19,7-22.3,10.47-22.3,26.24-40.65,43.24-58.13,18.93-19.48,36.31-40.17,47.47-65.3,9-20.24,8.15-39.69-4.81-58.24-7.26-10.39-15.63-19.87-24-29.32-13.21-14.93-25.89-30.59-43.4-40.91-32.82-19.35-68.54-23.35-105.48-18.17-42,5.89-79.93,23.41-116.67,43.4A1007.32,1007.32,0,0,1,914.4,25.92c-34.62,14.42-70.1,12.54-105.94,6.4-29.16-5-58.39-9.73-88.15-8.26-46.21,2.28-92.08,8.39-138.13,12.38-33.86,2.93-67.23,1.37-99.45-10.56C455,15.63,430.28,1.13,412.31-23.28a314.13,314.13,0,0,0-23.63-28.59c-11.17-11.91-27.09-10.71-35.67.17-3.46,4.39-6.86,8.71-9.36,13.7-11,21.9-15.06,45.68-16.26,69.62-1.63,32.65-16.55,54.31-47.37,65a166.76,166.76,0,0,1-19.56,5.94,690.54,690.54,0,0,0-139.38,46C98.23,158.78,73.89,163,48.55,159.12c-30-4.54-57.23-16.42-83.53-30.67C-48.7,121-62.71,115-78.28,113.18c-40-4.54-79.74-1.12-119.41,4-21.78,2.79-43.38,7.39-65.58,4C-271.19,119.92-278.75,116.85-286.86,116.87ZM982.67,554.37c.46-9.92-5.23-26.71-15.44-42-14.61-21.91-33.37-39.83-54.64-55.13-9.76-7-12.57-6.22-19.75,3.59-.74,1-1.43,2.08-2.1,3.15-15.62,24.94-34.09,47.6-53.83,69.39-35.56,39.26-59.56,84-62.13,138.19-1.06,22.26.87,44,11.93,64,9.34,16.84,23.75,21.33,41.08,13.28a79,79,0,0,0,19.69-12.7c33.29-29.89,66.2-60.19,99.74-89.8C972.44,624,981.59,595.44,982.67,554.37Z" transform="translate(287.01 161.03)"/><path class="b" d="M-286.86,116.87c8.11,0,15.67,3,23.59,4.26,22.2,3.41,43.8-1.19,65.58-4,39.67-5.09,79.42-8.51,119.41-4C-62.71,115-48.7,121-35,128.45c26.3,14.25,53.54,26.13,83.53,30.67,25.34,3.83,49.68-.34,72.53-10.63a690.54,690.54,0,0,1,139.38-45.95A166.76,166.76,0,0,0,280,96.6c30.82-10.67,45.74-32.33,47.37-65,1.2-23.94,5.29-47.72,16.26-69.62,2.5-5,5.9-9.31,9.36-13.7,8.58-10.88,24.5-12.08,35.67-.17a314.13,314.13,0,0,1,23.63,28.59c18,24.41,42.72,38.91,70.42,49.16C515,37.81,548.32,39.37,582.18,36.44c46.05-4,91.92-10.1,138.13-12.38,29.76-1.47,59,3.27,88.15,8.26,35.84,6.14,71.32,8,105.94-6.4a1007.32,1007.32,0,0,0,94.21-45.45c36.74-20,74.7-37.51,116.67-43.4,36.94-5.18,72.66-1.18,105.48,18.17,17.51,10.32,30.19,26,43.4,40.91,8.36,9.45,16.73,18.93,24,29.32,13,18.55,13.81,38,4.81,58.24-11.16,25.13-28.54,45.82-47.47,65.3-17,17.48-32.77,35.83-43.24,58.13-3.34,7.11-6.37,14.4-7,22.3-1.17,13.57,4.85,18,17.34,12.85,10.85-4.49,20.13-11.61,29.52-18.47,23.26-17,45.4-35.59,71-49.22,28-14.89,57.19-25.59,89.44-25.75a82.1,82.1,0,0,1,18,2.08c24.86,5.45,39.39,23.48,40.33,49,.82,22.16-5.08,43-11.47,63.83-11.73,38.16-25.48,75.69-34.75,114.62-6.47,27.17-9.08,54.79-11.28,82.51-3.17,39.84-5.2,79.74-4.43,119.71.4,21.21,1.85,42.41,3.31,63.59a98.29,98.29,0,0,1-1.86,27.85c-4.36,20.1-17,30.66-37.55,32.38-30.95,2.58-59.5-6.8-87.55-17.91-49.58-19.65-81.71-56.78-101-105.25-11.31-28.4-21.45-57.27-33.16-85.53-7.87-19-7.24-38.42-3.07-58.12,5.56-26.21,10-52.62,11.26-79.44a45.89,45.89,0,0,0-.48-9.07c-2.65-17.74-9.76-25.74-27.44-28.47-29.21-4.5-58.37-10.18-87.87-11.7-27.39-1.41-54.34,4.15-81,10.44-5.9,1.39-11.82,2.74-17.65,4.39-21.54,6.09-43.18,7.74-65.18,2.58-24.05-5.64-48.35-4.19-72.39-.78-85.63,12.14-162.79-9.27-233.46-57.48-24.86-17-50.23-33.2-74.6-50.83-31.9-23.07-64.32-23.15-98.39-5.73C376.58,224,353,237.82,328,249c-24.73,11.06-49.8,21-76.21,27.48a129.2,129.2,0,0,1-65.14-.92c-28.07-7.47-56.36-14-85.26-17.75-31.64-4.1-63.12-2.9-94.4,2.12-77.11,12.39-153.68,27.59-229.37,47-14.67,3.76-29.47,7.26-43.46,13.27a53.45,53.45,0,0,0-8.07,4.15c-9.5,6.14-11.33,13.67-5.37,23.26,6.77,10.89,16.57,19.05,26,27.42,37.07,32.79,62.81,73.69,84.15,117.69a68.75,68.75,0,0,1,6.8,37.65c-3.38,31.45.14,62.64,3.43,93.78,3,28.63,5.71,57.37,13,85.35,9.13,34.79,31,52,67,55.87,25.17,2.68,48.05-2.53,70.32-13.53,18.38-9.07,37-17.75,58-18.85,43.09-2.25,79.44,14.42,112,40.86,15.47,12.56,27,28.18,30.27,48.44,3.14,19.25-1.62,36.24-16.86,49.2-10.36,8.81-22.89,8.95-35.29,6.39-22-4.55-41.46-15.86-61.8-24.77-14.83-6.5-29.74-12.62-45.34-17.15-26.73-7.76-52.53-5.46-77.51,6.28-36.62,17.2-73.83,33-111.34,48.13-22.27,9-40.55,23.46-56.1,41.57h-74.37Z" transform="translate(287.01 161.03)"/><path class="b" d="M1655.9,109.28c-23.3-4.07-35.76-18.41-39.34-45.29-1.58-11.79-3.29-23.55-8.43-34.47-7.06-15-19.54-24.31-33.83-31.37-13.37-6.6-26.83-13.14-40.68-18.62-36.27-14.35-67.93-35.61-96.21-62.25-11.78-11.1-23.78-22-35.69-32.92A75.06,75.06,0,0,0,1373-132c-7.24-2.29-14.47-4.69-21-8.66-7.51-4.56-13.19-10.34-11.78-20.18q154.82,0,309.62-.15c5.2,0,6.24,1,6.22,6.22Q1655.74-22.76,1655.9,109.28Z" transform="translate(287.01 161.03)"/><path class="b" d="M1577,931.92c-12.14-22.82-21.15-46.88-28.3-71.68-6.72-23.32-13.26-46.64-14.27-71.13-.74-18,2.14-35.51,10.33-51.48,13.7-26.72,22.84-55.07,31.32-83.65,14.1-47.52,36.55-90.82,64.65-131.4,5-7.26,10.13-14.47,15.2-21.71q0,212.49.14,425c0,5.19-1,6.3-6.22,6.22C1625.54,931.72,1601.26,931.92,1577,931.92Z" transform="translate(287.01 161.03)"/><path class="b" d="M453.82-160.88c-14.34,18.63-31.34,34.19-53.1,43.63-12.43,5.39-19.64,3.55-28.21-6.57-9-10.6-13.4-22.92-11.28-37.06Z" transform="translate(287.01 161.03)"/><path class="b" d="M982.67,554.37c-1.08,41.07-10.23,69.63-35.45,91.91-33.54,29.61-66.45,59.91-99.74,89.8a79,79,0,0,1-19.69,12.7c-17.33,8.05-31.74,3.56-41.08-13.28-11.06-19.94-13-41.69-11.93-64,2.57-54.22,26.57-98.93,62.13-138.19,19.74-21.79,38.21-44.45,53.83-69.39.67-1.07,1.36-2.13,2.1-3.15,7.18-9.81,10-10.6,19.75-3.59,21.27,15.3,40,33.22,54.64,55.13C977.44,527.66,983.13,544.45,982.67,554.37Z" transform="translate(287.01 161.03)"/></svg>