<svg xmlns="http://www.w3.org/2000/svg" viewBox="0 0 1366.29 768.32"><defs><style>.a{fill:#ffffff;}.b{fill:#41c7f6;}</style></defs><title>1800f_00049</title><path class="a" d="M1367.52,423.46v69.82c-13.47,5.09-27.08,9.83-40.37,15.35-31.72,13.17-64,25.31-92.54,45-21.81,15-36.21,34.57-40.71,61.29-3.14,18.69-6,37.39-7.84,56.24-3.23,32.72-5,65.5-3.71,98.39h-856c-1-2.94-3.84-3.87-6-5.46-41.5-30.2-89.15-45.87-138.16-58.24-13.23-3.34-26.54-6.31-39.77-9.66-2.57-.65-5.67-1.61-5.9-5.06-.2-3,2.14-4.49,4.32-5.76,6.76-4,13.53-7.91,20.44-11.59,39.43-21,76-46.27,110.7-74.26,27.28-22,41.48-50,39.77-85.87-.94-20-1.57-39.95-5.37-59.58A352.26,352.26,0,0,1,300,372.68a116,116,0,0,0-13.49-59.26C275.75,293,258.59,285,236,289.67c-5.93,1.24-11.8,2.79-17.7,4.16-27.47,6.35-39,.28-45.27-27.43-12.82-56.38-34.29-110-51.79-164.81-4.4-13.77-11.11-26.58-16.62-39.88-4.06-9.78-1.57-14.37,8.66-16.22a123,123,0,0,1,15.81-1.67c23.63-1.19,46.72-5.17,68.86-13.63C216,23.31,233.22,15,247.4,1.52H901.56c1.16,5.4,5.1,9.16,8.19,13.35,20.91,28.41,47.75,50.67,75.54,71.86,44.37,33.83,86.08,70.05,118,116.76,17.1,25.07,31.39,50.41,34.29,81.25a409.06,409.06,0,0,0,7,44.1c9.94,48.16,37.72,80.15,86.1,92.53,21.31,5.45,43.17,4.07,64.89,3.68C1319.54,424.62,1343.49,422.36,1367.52,423.46Zm-566.7,3.1c-13.93,0-24.32,3.91-34.47,8.6a157.7,157.7,0,0,1-47.28,13c-22,2.74-44.37,3.5-66,8.79-5.38,1.32-12.82,1.66-13.44,8.91-.6,6.9,6.22,9.27,11.23,11.92,16.07,8.51,33.55,13.16,51.39,15.15a425.23,425.23,0,0,1,107.87,26.5,155.67,155.67,0,0,0,35.86,9.38c18,2.42,35-5.61,42.31-20.26,7.48-15,4.12-30.12-9.81-43.92a60.64,60.64,0,0,0-6.2-5.59c-16.5-12.35-34.23-22.46-53.83-29C811.93,427.86,805.23,426.49,800.82,426.56ZM810.57,641c-.07-10.72-6.9-25.36-16.59-35.55-16.06-16.9-34.92-19.33-54.63-7-9.89,6.16-13.91,14.9-8.88,23.47,13.28,22.61,33.27,36.31,59.41,39.27C803.11,662.62,810.65,654.2,810.57,641Z" transform="translate(-1.37 -1.35)"/><path class="b" d="M247.4,1.52C233.22,15,216,23.31,198,30.19c-22.14,8.46-45.23,12.44-68.86,13.63a123,123,0,0,0-15.81,1.67c-10.23,1.85-12.72,6.44-8.66,16.22,5.51,13.3,12.22,26.11,16.62,39.88,17.5,54.85,39,108.43,51.79,164.81,6.3,27.71,17.8,33.78,45.27,27.43,5.9-1.37,11.77-2.92,17.7-4.16,22.57-4.72,39.73,3.34,50.5,23.75A116,116,0,0,1,300,372.68,352.26,352.26,0,0,0,306.33,454c3.8,19.63,4.43,39.6,5.37,59.58,1.71,35.89-12.49,63.88-39.77,85.87-34.71,28-71.27,53.28-110.7,74.26-6.91,3.68-13.68,7.64-20.44,11.59-2.18,1.27-4.52,2.81-4.32,5.76.23,3.45,3.33,4.41,5.9,5.06,13.23,3.35,26.54,6.32,39.77,9.66,49,12.37,96.66,28,138.16,58.24,2.18,1.59,5,2.52,6,5.46q-159.36,0-318.73.14c-5.2,0-6.23-1-6.22-6.22q.3-151,.15-302a95.62,95.62,0,0,0,0-39.47Q1.52,215,1.39,8.06c0-5.2.73-6.73,6.47-6.71C87.71,1.6,167.55,1.52,247.4,1.52Z" transform="translate(-1.37 -1.35)"/><path class="b" d="M1367.52,423.46c-24-1.1-48,1.16-72,1.59-21.72.39-43.58,1.77-64.89-3.68-48.38-12.38-76.16-44.37-86.1-92.53a409.06,409.06,0,0,1-7-44.1c-2.9-30.84-17.19-56.18-34.29-81.25-31.89-46.71-73.6-82.93-118-116.76-27.79-21.19-54.63-43.45-75.54-71.86-3.09-4.19-7-7.95-8.19-13.35H1246.1c14,13.46,29.6,25.23,43.25,39.13,13,13.19,18,28.6,15.19,47-3.52,23.19-7.44,46.36-3.81,70.05,3.21,20.92,7.6,41.26,20.88,58.51,9.76,12.69,19.7,15.48,34.63,10.42,3.71-1.26,6.84-4.59,11.28-3.53Z" transform="translate(-1.37 -1.35)"/><path class="b" d="M1182.35,769.52c-1.26-32.89.48-65.67,3.71-98.39,1.85-18.85,4.7-37.55,7.84-56.24,4.5-26.72,18.9-46.28,40.71-61.29,28.58-19.66,60.82-31.8,92.54-45,13.29-5.52,26.9-10.26,40.37-15.35q0,135.08.14,270.16c0,5.2-1,6.25-6.21,6.23C1301.75,769.43,1242.05,769.52,1182.35,769.52Z" transform="translate(-1.37 -1.35)"/><path class="a" d="M1367.52,223.12c-4.44-1.06-7.57,2.27-11.28,3.53-14.93,5.06-24.87,2.27-34.63-10.42-13.28-17.25-17.67-37.59-20.88-58.51-3.63-23.69.29-46.86,3.81-70,2.79-18.42-2.24-33.83-15.19-47C1275.7,26.75,1260.13,15,1246.1,1.52c38.7,0,77.4.1,116.1-.13,4.54,0,5.46.91,5.44,5.44Q1367.37,115,1367.52,223.12Z" transform="translate(-1.37 -1.35)"/><path class="a" d="M1.52,421.94a95.62,95.62,0,0,1,0,39.47Z" transform="translate(-1.37 -1.35)"/><path class="b" d="M800.82,426.56c4.41-.07,11.11,1.3,17.59,3.48,19.6,6.59,37.33,16.7,53.83,29a60.64,60.64,0,0,1,6.2,5.59c13.93,13.8,17.29,28.91,9.81,43.92-7.31,14.65-24.28,22.68-42.31,20.26a155.67,155.67,0,0,1-35.86-9.38A425.23,425.23,0,0,0,702.21,493c-17.84-2-35.32-6.64-51.39-15.15-5-2.65-11.83-5-11.23-11.92.62-7.25,8.06-7.59,13.44-8.91,21.67-5.29,44-6.05,66-8.79a157.7,157.7,0,0,0,47.28-13C776.5,430.47,786.89,426.58,800.82,426.56Z" transform="translate(-1.37 -1.35)"/><path class="b" d="M810.57,641c.08,13.22-7.46,21.64-20.69,20.14-26.14-3-46.13-16.66-59.41-39.27-5-8.57-1-17.31,8.88-23.47,19.71-12.28,38.57-9.85,54.63,7C803.67,615.62,810.5,630.26,810.57,641Z" transform="translate(-1.37 -1.35)"/></svg>