<svg xmlns="http://www.w3.org/2000/svg" viewBox="0 0 1943.86 1093.93"><defs><style>.a{fill:#ffffff;}.b{fill:#41c7f6;}</style></defs><title>1800f_00300</title><path class="a" d="M-7.59,931.92H-267.13c-3.53-16.5-9.74-31.84-19.73-45.54V730.05c1.24-1.88,2.55-3.73,3.7-5.67,27.46-46.58,48.1-96.3,65.4-147.29,13.11-38.64,34.29-70.38,67.48-94.44,15.07-10.94,29.36-23.08,41.44-37.58,25.83-31,29.6-70,9.35-103.52-15-24.82-42.42-40.91-73-35.05-9.91,1.89-19.84,3.68-29.74,5.64-29.69,5.86-57.34,2.6-81.24-17.88-.86-.75-2.23-.9-3.37-1.33q0-223.62-.12-447.26c0-5.17.68-6.75,6.45-6.73,80.86.26,161.72.18,242.59.18,4.59,7.75,12.2,11.45,20.34,13.1,26.68,5.39,51.3-2.3,75.28-13.1H1487.42c6.74,19.3,14.26,38.35,17.48,58.72,5.13,32.43,4.29,63.91-12.21,93.62-6.38,11.49-10.4,24.11-14.45,36.64-9.84,30.42-8.34,59.75,7.83,87.83q14.57,25.32,29,50.73c14.57,25.57,23.79,52.25,19.53,82.46-5,35.59-33.63,58.1-69.41,55.19-39.27-3.19-73.92-18.18-106.11-39.57-24.56-16.33-44-37.17-52.29-66.57-4.37-15.43-6.09-31.26-7.23-47.11-2-28.59-10.82-54.4-29.36-76.54-22.58-27-44.62-54.28-61.34-85.51a428.32,428.32,0,0,0-29.62-46.76c-9.88-13.83-20.38-27.19-34.73-36.75-16.27-10.83-31.91-9.55-46.49,3.36a99.09,99.09,0,0,0-12.91,13.86c-8.81,11.46-15.92,24-23.41,36.33s-14.34,25-24.67,35.37c-7.24,7.25-15.55,9.13-25,5.19-5.36-2.25-10.53-4.94-15.77-7.46-11-5.27-22.11-10-34.22-12-24.9-4.19-49.36-.49-73.81,3.85C854.88-10.1,821.68-3.61,787.5-4.21c-31.64-.55-56.74-12.3-74.66-38.85-7.62-11.3-15.68-22.35-24.05-33.11C674.93-94,659.56-93.85,645.84-76c-8.29,10.78-13.53,23.15-17.48,36-14.31,46.47-22.75,94.29-32,141.92-4.6,23.8-7.3,48-14.81,71.19-4,12.34-10,13.76-20,5.28-1.35-1.14-2.6-2.4-3.86-3.64-17.51-17.34-30-38-40.21-60.23C512.14,102.74,507,91,499.46,80.33c-29.57-41.82-87.83-47-120.87-10.57C369.46,79.81,363,91.61,358,104.1c-19.42,49-30.4,100-34.93,152.4-2.27,26.24-.35,52.58-2.55,78.83-5.46,65-34.89,117.94-81.5,162.09-9.69,9.17-21.21,16.37-31.43,25-12.62,10.69-22.78,23.22-24.05,40.63-1.85,25.41,10.54,43.13,37.37,53.09,36.31,13.49,72.08,9.9,105.81-7.43C370.91,586,411.24,557,451,527.34a281,281,0,0,0,60.64-61.22c28.95-40.32,47.39-85.67,63.81-132,8.71-24.61,13.66-50.19,19.41-75.57,4.19-18.48,8.69-20.91,26.57-14.15,13.48,5.1,26.71,10.84,40,16.48C704,279,747.82,290.27,794.83,285.09c33.76-3.72,66.68-11.61,99.78-18.62,23.31-4.94,45.95-3.92,66.93,8.16,40.29,23.2,81.51,44.86,118.86,73,44.1,33.18,89.52,64.3,140,87.34,40.36,18.41,82.33,32.27,124.35,46.12,12.74,4.2,25.34,8.86,36.37,16.77,7.64,5.48,14.17,12.13,13.15,22.42-1.08,11-8.5,17.35-18.11,21.5-10.09,4.35-20.82,6.06-31.6,7.59-23,3.26-46.38,3.8-69.1,9.21-16.35,3.89-31.91,10.05-41.49,24.51-17.87,27-42.19,47.59-65.24,69.53-29.53,28.1-58.54,56.71-80.2,91.65-13.78,22.24-23.54,45.69-21.83,72.83,1.94,31,28,57.49,59,58.74,24.88,1,49.45-1.91,73.72-7.07,39.42-8.37,74.64-26.72,108.33-47.9,48.58-30.55,96.49-62.18,144.79-93.17,19.19-12.31,38.9-23.6,61.1-29.9,40.41-11.46,73.7.87,96.5,36,5.94,9.15,10.65,18.94,15.35,28.75,9.72,20.25,18.83,40.8,30.39,60.12,0,34.4-.15,68.8.15,103.21,0,5.2-1,6.22-6.23,6.21q-275.85-.25-551.71-.14H713.36c5.27-11.2,13-21,18-32.4,6.29-14.26,10.79-28.85,10.11-44.63s-8.74-23.53-24.38-24c-5.05-.13-10.11-.07-15.17.06a200.53,200.53,0,0,1-85.65-16.52c-22.52-9.73-45.49-18.21-69.45-23.94-55.13-13.18-111.56-19-167.06-30.14-66.65-13.34-130-33.46-182.21-80.29a171.34,171.34,0,0,0-98.24-43.66c-26-2.76-45.48,6.28-53.79,26.82-3,7.38-4,15.22-4.25,23-.8,29-9.9,55.51-23.81,80.64-11.91,21.5-26.4,41.33-39.66,62-7.65,11.9-15.78,23.52-20.91,36.88-8.27,21.52-3.85,37.32,14.72,51.27C-21.56,922.13-14.53,927-7.59,931.92Z" transform="translate(287.81 161.06)"/><path class="b" d="M1655.9,822.64c-11.56-19.32-20.67-39.87-30.39-60.12-4.7-9.81-9.41-19.6-15.35-28.75-22.8-35.13-56.09-47.46-96.5-36-22.2,6.3-41.91,17.59-61.1,29.9-48.3,31-96.21,62.62-144.79,93.17-33.69,21.18-68.91,39.53-108.33,47.9-24.27,5.16-48.84,8.07-73.72,7.07-31-1.25-57-27.78-59-58.74-1.71-27.14,8-50.59,21.83-72.83,21.66-34.94,50.67-63.55,80.2-91.65,23-21.94,47.37-42.58,65.24-69.53,9.58-14.46,25.14-20.62,41.49-24.51,22.72-5.41,46.09-5.95,69.1-9.21,10.78-1.53,21.51-3.24,31.6-7.59,9.61-4.15,17-10.52,18.11-21.5,1-10.29-5.51-16.94-13.15-22.42-11-7.91-23.63-12.57-36.37-16.77-42-13.85-84-27.71-124.35-46.12-50.53-23-96-54.16-140-87.34-37.35-28.11-78.57-49.77-118.86-73-21-12.08-43.62-13.1-66.93-8.16-33.1,7-66,14.9-99.78,18.62-47,5.18-90.8-6.1-133.47-24.24-13.26-5.64-26.49-11.38-40-16.48-17.88-6.76-22.38-4.33-26.57,14.15-5.75,25.38-10.7,51-19.41,75.57-16.42,46.36-34.86,91.71-63.81,132A281,281,0,0,1,451,527.34c-39.72,29.69-80,58.68-124.22,81.39-33.73,17.33-69.5,20.92-105.81,7.43-26.83-10-39.22-27.68-37.37-53.09,1.27-17.41,11.43-29.94,24.05-40.63,10.22-8.65,21.74-15.85,31.43-25,46.61-44.15,76-97.08,81.5-162.09,2.2-26.25.28-52.59,2.55-78.83,4.53-52.45,15.51-103.41,34.93-152.4,5-12.49,11.44-24.29,20.57-34.34,33-36.41,91.3-31.25,120.87,10.57,7.5,10.62,12.68,22.41,18.07,34.14,10.19,22.2,22.7,42.89,40.21,60.23,1.26,1.24,2.51,2.5,3.86,3.64,10,8.48,16,7.06,20-5.28,7.51-23.18,10.21-47.39,14.81-71.19,9.21-47.63,17.65-95.45,32-141.92,3.95-12.84,9.19-25.21,17.48-36,13.72-17.81,29.09-18,42.95-.13,8.37,10.76,16.43,21.81,24.05,33.11,17.92,26.55,43,38.3,74.66,38.85,34.18.6,67.38-5.89,100.71-11.82,24.45-4.34,48.91-8,73.81-3.85,12.11,2,23.25,6.76,34.22,12,5.24,2.52,10.41,5.21,15.77,7.46,9.42,3.94,17.73,2.06,25-5.19,10.33-10.33,17.19-23.08,24.67-35.37s14.6-24.87,23.41-36.33A99.09,99.09,0,0,1,1098-91.14c14.58-12.91,30.22-14.19,46.49-3.36,14.35,9.56,24.85,22.92,34.73,36.75A428.32,428.32,0,0,1,1208.81-11c16.72,31.23,38.76,58.54,61.34,85.51,18.54,22.14,27.31,48,29.36,76.54,1.14,15.85,2.86,31.68,7.23,47.11,8.33,29.4,27.73,50.24,52.29,66.57,32.19,21.39,66.84,36.38,106.11,39.57,35.78,2.91,64.4-19.6,69.41-55.19,4.26-30.21-5-56.89-19.53-82.46q-14.44-25.38-29-50.73c-16.17-28.08-17.67-57.41-7.83-87.83,4-12.53,8.07-25.15,14.45-36.64,16.5-29.71,17.34-61.19,12.21-93.62-3.22-20.37-10.74-39.42-17.48-58.72,54.14,0,108.27.09,162.4-.15,5.2,0,6.22,1,6.22,6.22Q1655.8,333.92,1655.9,822.64Z" transform="translate(287.81 161.06)"/><path class="b" d="M-7.59,931.92c-6.94-5-14-9.79-20.79-14.91-18.57-14-23-29.75-14.72-51.27,5.13-13.36,13.26-25,20.91-36.88,13.26-20.62,27.75-40.45,39.66-62,13.91-25.13,23-51.6,23.81-80.64.21-7.79,1.27-15.63,4.25-23,8.31-20.54,27.78-29.58,53.79-26.82a171.34,171.34,0,0,1,98.24,43.66c52.2,46.83,115.56,66.95,182.21,80.29,55.5,11.11,111.93,17,167.06,30.14,24,5.73,46.93,14.21,69.45,23.94A200.53,200.53,0,0,0,701.93,831c5.06-.13,10.12-.19,15.17-.06,15.64.43,23.7,8.33,24.38,24s-3.82,30.37-10.11,44.63c-5,11.37-12.74,21.2-18,32.4H412.84A133.22,133.22,0,0,0,394,919.23c-32.37-18.22-66.89-13.38-90.42,12.69Z" transform="translate(287.81 161.06)"/><path class="b" d="M-286.86,292.93c1.14.43,2.51.58,3.37,1.33,23.9,20.48,51.55,23.74,81.24,17.88,9.9-2,19.83-3.75,29.74-5.64,30.6-5.86,58,10.23,73,35.05,20.25,33.54,16.48,72.54-9.35,103.52-12.08,14.5-26.37,26.64-41.44,37.58-33.19,24.06-54.37,55.8-67.48,94.44-17.3,51-37.94,100.71-65.4,147.29-1.15,1.94-2.46,3.79-3.7,5.67Z" transform="translate(287.81 161.06)"/><path class="a" d="M303.56,931.92C327.09,905.85,361.61,901,394,919.23a133.22,133.22,0,0,1,18.86,12.69Z" transform="translate(287.81 161.06)"/><path class="b" d="M57.68-160.88c-24,10.8-48.6,18.49-75.28,13.1-8.14-1.65-15.75-5.35-20.34-13.1Z" transform="translate(287.81 161.06)"/><path class="b" d="M-286.86,886.38c10,13.7,16.2,29,19.73,45.54-6.58,0-15.72,2.56-19-.72s-.72-12.44-.72-19Z" transform="translate(287.81 161.06)"/></svg>