<svg xmlns="http://www.w3.org/2000/svg" viewBox="0 0 1943.06 1093.22"><defs><style>.a{fill:#ffffff;}.b{fill:#41c7f6;}</style></defs><title>1800f_00284</title><path class="a" d="M1655.9,754.34V887.9a29.88,29.88,0,0,0-12.69,1.58c-22.32,7-37.4,22.2-48,42.44H34.91a19.05,19.05,0,0,1-.65-3.69c.6-36.42-1.29-72.79-2.66-109.17-1.39-36.72,2.76-73.08,6.55-109.55,4-38.08,4.6-76.46,10.08-114.46,1.51-10.47-.46-20.63-9.82-28.48a129,129,0,0,1-21-21.74C1.52,523.37-13,501-29.66,480.09c-9.26-11.64-18.61-23.29-25.26-36.73-8-16.12-3-28.06,13.89-33.88,7.69-2.64,15.65-3.45,23.74-4.15,18.41-1.6,35.77,1.53,51.54,11.13,25.65,15.61,32.23,41.35,31.93,68.43-.26,22.94-4.54,45.86-7.42,68.75-1.61,12.78.62,23.07,12.53,30.64a357.43,357.43,0,0,0,39,21.35c23.14,10.93,47.84,17.75,72.75,23.17,44.7,9.71,89.27,19.53,131.32,38.31,18.2,8.13,36.66,15.8,56.22,20.2,16.62,3.74,27-1.36,30-14.49a33.89,33.89,0,0,0-.21-14.28c-4.76-23.34-19.12-40.59-36.67-55.08-26.67-22-55.28-41.65-78.9-67.3-5.91-6.42-13.22-11.65-20.68-16.5-12.29-8-24.48-16.19-36.27-24.89C213.6,484.24,211,473,218.5,457a81.16,81.16,0,0,1,6.05-10.5,226.84,226.84,0,0,1,20.8-26.07C285.94,375.3,320,326,341.82,269,355.26,234,371.5,200.36,391.6,168.64c18.31-28.89,34.62-58.61,45.3-91.46a144.3,144.3,0,0,1,39.45-61.27c9.48-8.83,18.88-9.74,29.54-2.53a125.34,125.34,0,0,1,26.76,24.51C542.5,50,555,56.66,569.89,59.32c43.56,7.76,87.13,5.7,130.58-.81,32.5-4.88,62.9-17,93.14-29.16,25.45-10.24,48.43-7.55,71,8.13,49.17,34.23,102.72,60.54,157,85.39,36.7,16.8,74.54,29.93,114.61,36,23.72,3.61,48,5.18,70.72,13.08,50.75,17.64,98.61,41.75,145.24,68.25a84,84,0,0,1,28.89,27.46c13.47,20.61,10.37,56-21.25,68.1-15.58,5.95-31.3,11.59-46.64,18.11-26,11-46.49,27.58-53.8,56.54-3.46,13.71-2.85,27.48-1.2,41.38,2.73,23.1,17,36.43,40.36,37,25.87.6,49-8.7,71.52-20,19.28-9.66,36.48-22.64,54.37-34.52,34.7-23.06,66.45-19.67,95.37,10.5,22.19,23.14,35.47,51.42,45,81.66,8.57,27.3,12.49,55.71,19.71,83.33,9.22,35.25,18.55,70.48,36.19,102.71C1629.53,728.75,1639.91,744,1655.9,754.34Z" transform="translate(287.02 161.15)"/><path class="b" d="M1655.9,754.34c-16-10.37-26.37-25.59-35.26-41.84-17.64-32.23-27-67.46-36.19-102.71-7.22-27.62-11.14-56-19.71-83.33-9.48-30.24-22.76-58.52-45-81.66-28.92-30.17-60.67-33.56-95.37-10.5-17.89,11.88-35.09,24.86-54.37,34.52-22.53,11.28-45.65,20.58-71.52,20-23.32-.54-37.63-13.87-40.36-37-1.65-13.9-2.26-27.67,1.2-41.38,7.31-29,27.85-45.49,53.8-56.54,15.34-6.52,31.06-12.16,46.64-18.11,31.62-12.08,34.72-47.49,21.25-68.1a84,84,0,0,0-28.89-27.46c-46.63-26.5-94.49-50.61-145.24-68.25-22.74-7.9-47-9.47-70.72-13.08-40.07-6.11-77.91-19.24-114.61-36C967.29,98,913.74,71.71,864.57,37.48c-22.53-15.68-45.51-18.37-71-8.13C763.37,41.51,733,53.63,700.47,58.51c-43.45,6.51-87,8.57-130.58.81C555,56.66,542.5,50,532.65,37.89a125.34,125.34,0,0,0-26.76-24.51c-10.66-7.21-20.06-6.3-29.54,2.53A144.3,144.3,0,0,0,436.9,77.18c-10.68,32.85-27,62.57-45.3,91.46C371.5,200.36,355.26,234,341.82,269,320,326,285.94,375.3,245.35,420.4a226.84,226.84,0,0,0-20.8,26.07A81.16,81.16,0,0,0,218.5,457c-7.46,16.06-4.9,27.27,9.37,37.8,11.79,8.7,24,16.89,36.27,24.89,7.46,4.85,14.77,10.08,20.68,16.5,23.62,25.65,52.23,45.29,78.9,67.3,17.55,14.49,31.91,31.74,36.67,55.08a33.89,33.89,0,0,1,.21,14.28c-2.94,13.13-13.36,18.23-30,14.49-19.56-4.4-38-12.07-56.22-20.2-42-18.78-86.62-28.6-131.32-38.31-24.91-5.42-49.61-12.24-72.75-23.17a357.43,357.43,0,0,1-39-21.35c-11.91-7.57-14.14-17.86-12.53-30.64,2.88-22.89,7.16-45.81,7.42-68.75.3-27.08-6.28-52.82-31.93-68.43-15.77-9.6-33.13-12.73-51.54-11.13-8.09.7-16.05,1.51-23.74,4.15-16.92,5.82-21.88,17.76-13.89,33.88,6.65,13.44,16,25.09,25.26,36.73C-13,501,1.52,523.37,17.36,544.83a129,129,0,0,0,21,21.74c9.36,7.85,11.33,18,9.82,28.48-5.48,38-6.12,76.38-10.08,114.46C34.36,746,30.21,782.34,31.6,819.06c1.37,36.38,3.26,72.75,2.66,109.17a19.05,19.05,0,0,0,.65,3.69h-126a365.16,365.16,0,0,0,30.67-65c10.38-29.59,8.15-58-5.81-85.89A430.68,430.68,0,0,0-97,729.64c-23.71-34.46-40.9-71.47-45.64-113.48-4-35.19-19.42-64.23-45-88.55-20.24-19.22-42.23-36.15-64.68-52.53-11.36-8.29-21.9-17.8-34.53-24.3V6.07C-269.61-18-257.74-44-258.27-74.47c-.3-17.33-4.77-33.91-8.14-50.71-2.37-11.8-6.22-23.4-5.27-35.7H-28.84c1.18,3-1.18,4.7-2.48,6.72-4.64,7.23-9.47,14.34-14.13,21.57C-58.95-111.67-71.17-90.09-75-65c-4.2,27.34-4.77,54.33,9.44,79.68A81.67,81.67,0,0,0,14.33,56.31C34,54.22,51,45.61,66.77,34.16,87.93,18.82,103.87-1.52,120-21.68c21.94-27.47,43.84-54.93,71-77.65,23.92-20,50-36.86,75.93-54.07,3.31-2.2,7.3-3.65,9.34-7.48H432.57c.06.49,0,1.1.22,1.46,15.92,22.69,31.55,45.52,45.38,69.62C485.83-76.47,497-76.32,507-88.32c17.88-21.37,29-46.42,37.88-72.56q552.09,0,1104.19-.14c5.69,0,7,1.28,7,7Q1655.8,300.14,1655.9,754.34Z" transform="translate(287.02 161.15)"/><path class="a" d="M-286.86,450.78c12.63,6.5,23.17,16,34.53,24.3,22.45,16.38,44.44,33.31,64.68,52.53,25.62,24.32,41.08,53.36,45,88.55,4.74,42,21.93,79,45.64,113.48A430.68,430.68,0,0,1-66.21,781c14,27.93,16.19,56.3,5.81,85.89a365.16,365.16,0,0,1-30.67,65c-63.24,0-126.48-.08-189.72.15-5.2,0-6.22-1-6.21-6.22Q-286.74,688.31-286.86,450.78Z" transform="translate(287.02 161.15)"/><path class="a" d="M276.24-160.88c-2,3.83-6,5.28-9.34,7.48-25.89,17.21-52,34.06-75.93,54.07C163.8-76.61,141.9-49.15,120-21.68c-16.09,20.16-32,40.5-53.19,55.84C51,45.61,34,54.22,14.33,56.31A81.67,81.67,0,0,1-65.59,14.66C-79.8-10.69-79.23-37.68-75-65c3.86-25.07,16.08-46.65,29.58-67.57,4.66-7.23,9.49-14.34,14.13-21.57,1.3-2,3.66-3.75,2.48-6.72Z" transform="translate(287.02 161.15)"/><path class="a" d="M544.88-160.88c-8.88,26.14-20,51.19-37.88,72.56-10,12-21.17,11.85-28.83-1.48-13.83-24.1-29.46-46.93-45.38-69.62-.25-.36-.16-1-.22-1.46Z" transform="translate(287.02 161.15)"/><path class="a" d="M-271.68-160.88c-.95,12.3,2.9,23.9,5.27,35.7,3.37,16.8,7.84,33.38,8.14,50.71C-257.74-44-269.61-18-286.86,6.07c0-53.4.11-106.81-.16-160.21,0-5.83,1.44-7.66,7-6.81C-277.28-160.54-274.45-160.88-271.68-160.88Z" transform="translate(287.02 161.15)"/><path class="b" d="M1595.18,931.92c10.63-20.24,25.71-35.44,48-42.44a29.88,29.88,0,0,1,12.69-1.58c0,13.41-.14,26.82.1,40.22,0,3.27-.64,3.93-3.9,3.9C1633.13,931.82,1614.16,931.92,1595.18,931.92Z" transform="translate(287.02 161.15)"/></svg>