<svg xmlns="http://www.w3.org/2000/svg" viewBox="0 0 1366.3 768.29"><defs><style>.a{fill:#ffffff;}.b{fill:#41c7f6;}</style></defs><title>1800f_00060</title><path class="a" d="M1367.52,453.82v75.89a31.49,31.49,0,0,0-5.94.45c-27.07,7.22-54.18,14.29-81.15,21.88-26.81,7.54-53.24,16.2-75.42,34-9.94,8-16.52,18-18.49,31-2.08,13.75.86,26.76,5.55,39.24,7.6,20.23,10.21,41,10.12,62.41-.07,16.92-.07,33.83-.11,50.75H285.34c-2.08-2.08-5-2.35-7.55-3.24-39.94-13.73-81.39-19.73-123.17-24.13-13.54-1.42-27.22-2.45-40.15-7.32-3.52-1.33-7.52-2.77-8.2-7.09-.73-4.65,2.75-7.37,6.07-9.74,8.73-6.24,18.52-10.44,28.69-13.56,49.94-15.34,94.73-39.83,135.32-72.85,41.21-33.53,64.7-74.58,62.63-129-1.1-29-.32-58.16-.35-87.24a75.55,75.55,0,0,0-1.72-15.8c-3.69-17.19-15.44-25.77-32.65-22.48-32.81,6.28-84.18-12.73-93.14-62-7.39-40.64-22.08-77.57-47.2-110.33a12.16,12.16,0,0,1-.79-1.3C143.73,172,128,138.51,109.51,106.57,103,95.42,96,84.58,89.91,73.24,83,60.46,86.43,54.82,100.79,54.3a194.94,194.94,0,0,1,28.77,1.17c25.94,2.91,51.89,4.71,77.74-.78,36-7.65,66.82-24.09,90.18-53.17H904.6c1.65,5.33,6.19,8.43,9.68,12.29,22,24.44,49.87,41.89,75.37,62.16,31.71,25.2,63,51,87.31,83.8,23.22,31.27,45.78,63.11,61,99.25,9.75,23.11,14.5,47.84,21.63,71.81,8.3,27.91,17.28,55.53,34.62,79.54,12.56,17.4,28.89,29,50.29,32.26,14.23,2.19,28.57,3.64,42.88,5.17C1314.06,450.65,1340.94,450.23,1367.52,453.82ZM885.14,500.49a40.49,40.49,0,0,0-1.54-10.84c-10.23-33-49.71-47.65-78.54-29.09-4.24,2.74-8.42,5.6-12.48,8.6a104.65,104.65,0,0,1-33.75,16.69c-8,2.29-16.07,4.52-23.34,8.81-3.81,2.25-7.27,4.82-6.89,9.94s4.13,7,8.25,8.78c7,2.92,14.32,3.08,21.63,2.77,18.46-.79,36.1,2.93,53.53,8.6,11.26,3.66,22.22,8.27,34.09,10.06C868.17,538.15,885.09,523.94,885.14,500.49ZM775.38,619c-20,.12-39.52,6.79-54.21,18.58-17,13.62-15.71,29.43,3.43,39.5,18.8,9.89,39.18,13.32,60.15,12.82,13.54-.33,26.56-3.54,37.86-11.66,15-10.8,16.56-26.27,3.57-39.4C812.24,624.75,794.92,618.92,775.38,619Z" transform="translate(-1.37 -1.37)"/><path class="b" d="M297.48,1.52C274.12,30.6,243.3,47,207.3,54.69c-25.85,5.49-51.8,3.69-77.74.78a194.94,194.94,0,0,0-28.77-1.17C86.43,54.82,83,60.46,89.91,73.24,96,84.58,103,95.42,109.51,106.57,128,138.51,143.73,172,163.13,203.44a12.16,12.16,0,0,0,.79,1.3c25.12,32.76,39.81,69.69,47.2,110.33,9,49.27,60.33,68.28,93.14,62,17.21-3.29,29,5.29,32.65,22.48a75.55,75.55,0,0,1,1.72,15.8c0,29.08-.75,58.2.35,87.24,2.07,54.42-21.42,95.47-62.63,129C235.76,664.61,191,689.1,141,704.44c-10.17,3.12-20,7.32-28.69,13.56-3.32,2.37-6.8,5.09-6.07,9.74.68,4.32,4.68,5.76,8.2,7.09,12.93,4.87,26.61,5.9,40.15,7.32,41.78,4.4,83.23,10.4,123.17,24.13,2.59.89,5.47,1.16,7.55,3.24q-138.87,0-277.75.14c-5.2,0-6.24-1-6.22-6.22.23-59.19.15-118.38.15-177.58C17,564.12,25.37,540.1,26,513.25c.63-26.2-5.36-51.55-8.94-77.21-2.15-15.39-6.65-30-15.56-42.93q0-192.76-.15-385.52c0-5.2,1-6.23,6.22-6.22Q152.54,1.67,297.48,1.52Z" transform="translate(-1.37 -1.37)"/><path class="b" d="M1367.52,453.82c-26.58-3.59-53.46-3.17-80.1-6-14.31-1.53-28.65-3-42.88-5.17-21.4-3.3-37.73-14.86-50.29-32.26-17.34-24-26.32-51.63-34.62-79.54-7.13-24-11.88-48.7-21.63-71.81-15.26-36.14-37.82-68-61-99.25-24.35-32.78-55.6-58.6-87.31-83.8-25.5-20.27-53.33-37.72-75.37-62.16-3.49-3.86-8-7-9.68-12.29h349.08c9.29,13.28,20.49,24.92,31.48,36.74,14,15.08,22.78,32.13,19.92,53.37-1.21,9-3.17,17.86-4.93,26.75-2.24,11.36-5.42,22.61-4.69,34.34,1.68,26.68,12.47,49.77,29.22,70,10.89,13.19,23.44,24.21,42.84,18.57Z" transform="translate(-1.37 -1.37)"/><path class="b" d="M1202.08,769.52c0-16.92,0-33.83.11-50.75.09-21.36-2.52-42.18-10.12-62.41-4.69-12.48-7.63-25.49-5.55-39.24,2-13,8.55-23.07,18.49-31,22.18-17.83,48.61-26.49,75.42-34,27-7.59,54.08-14.66,81.15-21.88a31.49,31.49,0,0,1,5.94-.45q0,116.87.15,233.73c0,5.2-1,6.25-6.22,6.23C1308.32,769.42,1255.2,769.52,1202.08,769.52Z" transform="translate(-1.37 -1.37)"/><path class="a" d="M1367.52,241.33c-19.4,5.64-32-5.38-42.84-18.57-16.75-20.27-27.54-43.36-29.22-70-.73-11.73,2.45-23,4.69-34.34,1.76-8.89,3.72-17.77,4.93-26.75,2.86-21.24-5.91-38.29-19.92-53.37-11-11.82-22.19-23.46-31.48-36.74,36.18,0,72.35.1,108.52-.13,4.54,0,5.45.92,5.44,5.44Q1367.39,124.09,1367.52,241.33Z" transform="translate(-1.37 -1.37)"/><path class="a" d="M1.52,393.11c8.91,13,13.41,27.54,15.56,42.93,3.58,25.66,9.57,51,8.94,77.21-.65,26.85-9,50.87-24.5,72.61Z" transform="translate(-1.37 -1.37)"/><path class="b" d="M885.14,500.49c0,23.45-17,37.66-39,34.32-11.87-1.79-22.83-6.4-34.09-10.06-17.43-5.67-35.07-9.39-53.53-8.6-7.31.31-14.65.15-21.63-2.77-4.12-1.73-7.88-3.67-8.25-8.78s3.08-7.69,6.89-9.94c7.27-4.29,15.35-6.52,23.34-8.81a104.65,104.65,0,0,0,33.75-16.69c4.06-3,8.24-5.86,12.48-8.6,28.83-18.56,68.31-3.88,78.54,29.09A40.49,40.49,0,0,1,885.14,500.49Z" transform="translate(-1.37 -1.37)"/><path class="b" d="M775.38,619c19.54-.07,36.86,5.76,50.8,19.84,13,13.13,11.47,28.6-3.57,39.4-11.3,8.12-24.32,11.33-37.86,11.66-21,.5-41.35-2.93-60.15-12.82-19.14-10.07-20.4-25.88-3.43-39.5C735.86,625.78,755.38,619.11,775.38,619Z" transform="translate(-1.37 -1.37)"/></svg>