<svg xmlns="http://www.w3.org/2000/svg" viewBox="0 0 1943.05 1093.09"><defs><style>.a{fill:#ffffff;}.b{fill:#41c7f6;}</style></defs><title>1800f_00384</title><path class="a" d="M-286.86,531.22V393.11c3-.69,3.27-3.61,4.54-5.62,32.78-52.06,76-92.27,132.87-116.88,23.23-10.05,47.68-16.75,71.31-25.71,29.56-11.21,57.43-25.16,79.75-48.31,13.47-14,23.34-30.5,33-47.09,22.75-39,55.76-62.81,100.57-70.93,32.29-5.85,64.69-7.47,97.35-7.29,14.63.08,29.29,1,43.87-1.39,21.07-3.48,36.55-13.15,42.76-35.06,5.31-18.73,4.67-37.45,1.8-56.26-5.64-37-11.74-73.86-9.8-111.54.48-9.26.82-18.71-1.54-27.91H1026c15.27,9.81,31.1,18.72,45.68,29.63,39.28,29.39,76.55,61.32,115.45,91.18,33,25.35,68.07,45.93,110.2,52.83,56.85,9.31,114,12.64,171.45,11.3,37.39-.88,74.77-2.48,112.18.23,32,2.31,56.16,15.14,68.09,46.59,1.83,4.83,3.11,10.12,6.83,14.12V256.51c-.51.54-1.21,1-1.48,1.64-12.58,29.37-29,56.7-44.9,84.29-11.6,20.06-19.76,41.43-22.53,64.72-2.37,19.93-1.16,39.86-1.41,59.8-.27,20.69-.75,41.44-8.49,61.21-14.38,36.75-39.2,64.93-70.61,88.06s-65.44,30.21-103.24,20.09c-29.67-7.94-58.41-18.28-85.36-33-17.43-9.51-32.88-21.93-44.84-38-23.45-31.47-25.42-67.43-19.77-104.3,4.53-29.61,16.11-57.36,25.4-85.67,9.1-27.73,13.41-56.06,10.86-85.16-3.22-36.74-9-73.21-11.86-110-1.17-15-5.58-29.27-14.71-41.68-15.09-20.52-38-22.41-56.1-4.67A96.19,96.19,0,0,0,1188,160.31c-20.86,42.45-44,83.66-67.23,124.82-17.22,30.46-24.84,63.42-21.53,98.5a664.24,664.24,0,0,0,11.82,78.66c11.8,54.42,28.11,107.45,59,154.25a282.43,282.43,0,0,1,37.64,84.72c10.24,38.89,21.69,77.35,35.88,115,14,37.18,20.92,75.91,22.22,115.63H85c-2-7.69-6.61-14.14-10.7-20.73C38.81,854-1.77,800.37-43.61,747.73c-31.15-39.19-65.69-74.94-108.94-101.05-21-12.66-42.46-24.49-64-36.16-31.17-16.89-54.37-40.79-67.44-74A48.67,48.67,0,0,0-286.86,531.22ZM521.69,310.86c16.52-.16,34.2-1,51.63-4.21,46.6-8.5,90.09-24.89,128.2-53.54,24.53-18.45,36.85-42.93,30.58-74.1C717.27,105.25,647,69,581.85,81.17c-28.85,5.41-55.18,18-81.55,30.08-32.23,14.83-65.61,20.92-101,16.8a252.9,252.9,0,0,0-41.57-1.9c-15.94.77-29.08,9.06-32.43,21.56a65.17,65.17,0,0,0-.93,30c3.88,19.13,13.9,35.53,22.89,52.54,21.18,40.08,55.1,61.89,98.14,71.86A349,349,0,0,0,521.69,310.86Zm-35.27,198.8c12.54-.27,22.26-2,27-12.58,3.46-7.77.41-17.33-8.63-24-20.76-15.27-44-21.07-69.39-14.72-12.94,3.23-15.93,14.36-6.63,24.08C445,499.44,465.38,507.85,486.42,509.66Z" transform="translate(287.01 161.03)"/><path class="b" d="M1265.83,931.92c-1.3-39.72-8.22-78.45-22.22-115.63-14.19-37.68-25.64-76.14-35.88-115a282.43,282.43,0,0,0-37.64-84.72c-30.91-46.8-47.22-99.83-59-154.25a664.24,664.24,0,0,1-11.82-78.66c-3.31-35.08,4.31-68,21.53-98.5C1144,244,1167.15,202.76,1188,160.31a96.19,96.19,0,0,1,18.85-26.46c18.1-17.74,41-15.85,56.1,4.67,9.13,12.41,13.54,26.67,14.71,41.68,2.87,36.8,8.64,73.27,11.86,110,2.55,29.1-1.76,57.43-10.86,85.16-9.29,28.31-20.87,56.06-25.4,85.67-5.65,36.87-3.68,72.83,19.77,104.3,12,16,27.41,28.47,44.84,38,26.95,14.72,55.69,25.06,85.36,33,37.8,10.12,71.9,3,103.24-20.09s56.23-51.31,70.61-88.06c7.74-19.77,8.22-40.52,8.49-61.21.25-19.94-1-39.87,1.41-59.8,2.77-23.29,10.93-44.66,22.53-64.72,15.94-27.59,32.32-54.92,44.9-84.29.27-.64,1-1.1,1.48-1.64q0,334.29.14,668.58c0,5.69-1.28,7-7,7Q1457.45,931.78,1265.83,931.92Z" transform="translate(287.01 161.03)"/><path class="b" d="M309.63-160.88c2.36,9.2,2,18.65,1.54,27.91-1.94,37.68,4.16,74.56,9.8,111.54,2.87,18.81,3.51,37.53-1.8,56.26C313,56.74,297.48,66.41,276.41,69.89c-14.58,2.41-29.24,1.47-43.87,1.39-32.66-.18-65.06,1.44-97.35,7.29C90.38,86.69,57.37,110.46,34.62,149.5c-9.67,16.59-19.54,33.11-33,47.09-22.32,23.15-50.19,37.1-79.75,48.31-23.63,9-48.08,15.66-71.31,25.71-56.9,24.61-100.09,64.82-132.87,116.88-1.27,2-1.58,4.93-4.54,5.62q0-273.78-.15-547.56c0-5.51,1.18-6.58,6.61-6.58Q14.62-160.76,309.63-160.88Z" transform="translate(287.01 161.03)"/><path class="b" d="M1655.9,85c-3.72-4-5-9.29-6.83-14.12-11.93-31.45-36.13-44.28-68.09-46.59-37.41-2.71-74.79-1.11-112.18-.23-57.49,1.34-114.6-2-171.45-11.3-42.13-6.9-77.17-27.48-110.2-52.83-38.9-29.86-76.17-61.79-115.45-91.18-14.58-10.91-30.41-19.82-45.68-29.63q311.52,0,623.05-.15c5.69,0,7,1.28,7,7Q1655.73-34.53,1655.9,85Z" transform="translate(287.01 161.03)"/><path class="b" d="M-286.86,531.22a48.67,48.67,0,0,1,2.86,5.25c13.07,33.26,36.27,57.16,67.44,74,21.55,11.67,43,23.5,64,36.16,43.25,26.11,77.79,61.86,108.94,101.05C-1.77,800.37,38.81,854,74.3,911.19c4.09,6.59,8.65,13,10.7,20.73q-182.89,0-365.79.14c-5.2,0-6.22-1-6.22-6.21Q-286.73,728.54-286.86,531.22Z" transform="translate(287.01 161.03)"/><path class="b" d="M521.69,310.86a349,349,0,0,1-76.3-8.74c-43-10-77-31.78-98.14-71.86-9-17-19-33.41-22.89-52.54a65.17,65.17,0,0,1,.93-30c3.35-12.5,16.49-20.79,32.43-21.56a252.9,252.9,0,0,1,41.57,1.9c35.4,4.12,68.78-2,101-16.8,26.37-12.13,52.7-24.67,81.55-30.08C647,69,717.27,105.25,732.1,179c6.27,31.17-6.05,55.65-30.58,74.1-38.11,28.65-81.6,45-128.2,53.54C555.89,309.82,538.21,310.7,521.69,310.86Z" transform="translate(287.01 161.03)"/><path class="b" d="M486.42,509.66c-21-1.81-41.42-10.22-57.67-27.2-9.3-9.72-6.31-20.85,6.63-24.08,25.34-6.35,48.63-.55,69.39,14.72,9,6.65,12.09,16.21,8.63,24C508.68,507.66,499,509.39,486.42,509.66Z" transform="translate(287.01 161.03)"/></svg>