<svg xmlns="http://www.w3.org/2000/svg" viewBox="0 0 1366.31 768.41"><defs><style>.a{fill:#ffffff;}.b{fill:#41c7f6;}</style></defs><title>1800f_00035</title><path class="a" d="M1167.17,769.52H343a14.43,14.43,0,0,0-1.45-3.35c-13.5-17.54-28.9-33.1-47.35-45.55-35.42-23.89-75-38.41-115.27-51.38a191.43,191.43,0,0,1-21.32-7.86c-8.9-4.1-9.61-9-2.41-15.47a152.15,152.15,0,0,1,15.6-12c18.9-13.11,38.2-25.67,56.84-39.15,22.79-16.48,40.51-36.72,43.79-66.26,2.26-20.42,1.8-40.89.94-61.36-1.35-32-.57-63.66,13.92-93.46,6.95-14.31,13-29.18,16.49-44.76,6.16-27.85,15.51-54.35,29.59-79.24a89,89,0,0,0,10.09-26.09c.92-4.52,1.57-9.52-2.47-12.72s-8.67-1.53-12.86.55a71.54,71.54,0,0,0-15.08,10.11c-19.1,16.57-38.31,33-59.39,47.06C234.63,280.64,218,295,198.31,304.47c-20.2,9.72-36.54,2.63-43.66-18.64-4.24-12.68-4.86-25.89-3.78-39,1.38-16.8,0-33.34-3-49.79-8.28-45.54-20.09-90.26-31.83-135C110.8,42,113,38,132.94,31.81c11.83-3.69,23.82-7,35.07-12.2,11.6-5.4,23.82-9.73,33.85-18.09H913.7c-.77,3.2,1.66,5.16,3,7.45,14.93,25.15,33.44,47.44,53.92,68.23,28.72,29.17,59.31,56.55,85.92,87.75,17.21,20.17,30.36,43.52,48.57,63a67.11,67.11,0,0,1,18.47,43c.84,13.86,1.84,27.71,2.87,41.56,1.23,16.64,2.9,33.19,8.7,49.05,4,10.88,11.4,16.85,23,17.87a167.3,167.3,0,0,1,17.24,2.52c34,6.62,68,8.29,102.52,4,19.25-2.37,38.63-4.9,58.14-1.94,10.47,1.59,21,3,31.44,4.51v72.86c-44.41,21.81-88.72,43.82-128.19,74.13a121.52,121.52,0,0,0-41.45,57.59C1178,650.24,1164.12,708.41,1167.17,769.52ZM841.72,511.62a58.1,58.1,0,0,0,23.8-3.71c23.06-9.07,27.82-31.52,9.19-47.71-21.54-18.71-44.09-36.3-69.25-50.09-18.88-10.34-38.56-12.95-59.15-5.43-16.46,6-33.65,8.71-50.91,11.28-20.46,3-38.45,12.3-54.93,24.25C629,448.56,629.25,458.55,640,468a47.51,47.51,0,0,0,14.37,8.29c15.31,6,31.3,7.46,47.6,7,11.09-.32,22.17-1.17,33.27.41,20.22,2.89,38.55,11.83,57.79,17.84C808.92,506.47,824.86,511.2,841.72,511.62ZM717.3,611.41c5.41-.49,11.52-.62,17.46-1.66,12.84-2.24,26.31-2.22,37.78-9.78,9.41-6.2,11.92-14.65,7.25-24.92a35,35,0,0,0-17-17.6c-32.81-15.87-66.19,3.52-82,27.75-5.21,8-2.11,15.47,6.46,20.21C696.44,610.49,706.57,610.76,717.3,611.41Zm337.19-302.57c0-9.66-6.53-15.09-14.56-11-20.71,10.41-32.73,28-37.54,50.23-1.84,8.55,4.55,13.2,13.1,11C1032.8,354.44,1054.53,326.51,1054.49,308.84Z" transform="translate(-1.36 -1.25)"/><path class="b" d="M201.86,1.52c-10,8.36-22.25,12.69-33.85,18.09-11.25,5.24-23.24,8.51-35.07,12.2C113,38,110.8,42,116.06,62c11.74,44.73,23.55,89.45,31.83,135,3,16.45,4.36,33,3,49.79-1.08,13.12-.46,26.33,3.78,39,7.12,21.27,23.46,28.36,43.66,18.64,19.72-9.49,36.32-23.83,54.37-35.9,21.08-14.11,40.29-30.49,59.39-47.06a71.54,71.54,0,0,1,15.08-10.11c4.19-2.08,8.84-3.74,12.86-.55s3.39,8.2,2.47,12.72a89,89,0,0,1-10.09,26.09C318.31,274.55,309,301.05,302.8,328.9c-3.45,15.58-9.54,30.45-16.49,44.76-14.49,29.8-15.27,61.43-13.92,93.46.86,20.47,1.32,40.94-.94,61.36-3.28,29.54-21,49.78-43.79,66.26-18.64,13.48-37.94,26-56.84,39.15a152.15,152.15,0,0,0-15.6,12c-7.2,6.51-6.49,11.37,2.41,15.47A191.43,191.43,0,0,0,179,669.24c40.28,13,79.85,27.49,115.27,51.38,18.45,12.45,33.85,28,47.35,45.55a14.43,14.43,0,0,1,1.45,3.35q-167.71,0-335.43.14c-5.2,0-6.22-1-6.22-6.22q.25-377.93.16-755.85C1.53,4.53,0,.11,6.07,1.52,3.74,5.67,4.94,9.21,7.82,12.59c8.3,9.77,26.53,14.32,38.28,9.48,6.08-2.5,7.11-6.35,3.58-11.94-2.54-4-7.42-5-10.22-8.61Z" transform="translate(-1.36 -1.25)"/><path class="b" d="M1367.52,388.55c-10.48-1.5-21-2.92-31.44-4.51-19.51-3-38.89-.43-58.14,1.94-34.47,4.25-68.55,2.58-102.52-4a167.3,167.3,0,0,0-17.24-2.52c-11.61-1-19-7-23-17.87-5.8-15.86-7.47-32.41-8.7-49.05-1-13.85-2-27.7-2.87-41.56a67.11,67.11,0,0,0-18.47-43c-18.21-19.47-31.36-42.82-48.57-63-26.61-31.2-57.2-58.58-85.92-87.75-20.48-20.79-39-43.08-53.92-68.23-1.36-2.29-3.79-4.25-3-7.45h101.69a36.33,36.33,0,0,0,7,15.77c14.72,19.63,40.6,16.7,50.32-5.74,1.4-3.22,2.26-6.68,3.36-10h167c11.35,8.74,22.82,17.34,34,26.27,16.57,13.2,26.2,29.74,24.23,51.73-.44,5-.08,10.09-.39,15.13-1.43,23.33,4.69,44.8,15.11,65.49,10.79,21.42,27.62,33.45,51.49,35.66Z" transform="translate(-1.36 -1.25)"/><path class="b" d="M1167.17,769.52c-3.05-61.11,10.85-119.28,30.71-176.39a121.52,121.52,0,0,1,41.45-57.59c39.47-30.31,83.78-52.32,128.19-74.13q0,151,.14,302c0,5.2-1,6.24-6.21,6.22C1296.69,769.44,1231.93,769.52,1167.17,769.52Z" transform="translate(-1.36 -1.25)"/><path class="a" d="M1367.52,195.8c-23.87-2.21-40.7-14.24-51.49-35.66-10.42-20.69-16.54-42.16-15.11-65.49.31-5-.05-10.12.39-15.13,2-22-7.66-38.53-24.23-51.73-11.2-8.93-22.67-17.53-34-26.27,39.72,0,79.43.09,119.14-.13,4.54,0,5.46.91,5.44,5.44Q1367.37,101.31,1367.52,195.8Z" transform="translate(-1.36 -1.25)"/><path class="a" d="M1076.1,1.52c-1.1,3.35-2,6.81-3.36,10-9.72,22.44-35.6,25.37-50.32,5.74a36.33,36.33,0,0,1-7-15.77Z" transform="translate(-1.36 -1.25)"/><path class="a" d="M39.46,1.52c2.8,3.58,7.68,4.59,10.22,8.61,3.53,5.59,2.5,9.44-3.58,11.94-11.75,4.84-30,.29-38.28-9.48C4.94,9.21,3.74,5.67,6.07,1.52Z" transform="translate(-1.36 -1.25)"/><path class="b" d="M841.72,511.62c-16.86-.42-32.8-5.15-48.73-10.14-19.24-6-37.57-15-57.79-17.84-11.1-1.58-22.18-.73-33.27-.41-16.3.47-32.29-1-47.6-7A47.51,47.51,0,0,1,640,468c-10.71-9.4-11-19.39.51-27.74C657,428.26,674.94,419,695.4,416c17.26-2.57,34.45-5.27,50.91-11.28,20.59-7.52,40.27-4.91,59.15,5.43,25.16,13.79,47.71,31.38,69.25,50.09,18.63,16.19,13.87,38.64-9.19,47.71A58.1,58.1,0,0,1,841.72,511.62Z" transform="translate(-1.36 -1.25)"/><path class="b" d="M717.3,611.41c-10.73-.65-20.86-.92-30-6-8.57-4.74-11.67-12.21-6.46-20.21,15.78-24.23,49.16-43.62,82-27.75a35,35,0,0,1,17,17.6c4.67,10.27,2.16,18.72-7.25,24.92-11.47,7.56-24.94,7.54-37.78,9.78C728.82,610.79,722.71,610.92,717.3,611.41Z" transform="translate(-1.36 -1.25)"/><path class="b" d="M1054.49,308.84c0,17.67-21.69,45.6-39,50.14-8.55,2.24-14.94-2.41-13.1-11,4.81-22.26,16.83-39.82,37.54-50.23C1048,293.75,1054.47,299.18,1054.49,308.84Z" transform="translate(-1.36 -1.25)"/></svg>