<svg xmlns="http://www.w3.org/2000/svg" viewBox="0 0 1943.07 1093.11"><defs><style>.a{fill:#ffffff;}.b{fill:#41c7f6;}</style></defs><title>1800f_00328</title><path class="a" d="M1378.14,931.92H66.78a47.11,47.11,0,0,0-1.89-5.67C52.41,900,40.18,873.68,27.27,847.67c-13.36-26.93-27.6-53.32-47-76.69C-36,751.29-50.25,747.71-73.33,759.21c-10.15,5.06-20.14,10.46-31.42,12.74-10.54,2.13-19.87.67-27.71-7.64a81.68,81.68,0,0,1-13.66-19.86c-28.27-56.73-57.68-112.91-84.56-170.34-8.56-18.28-16.65-36.88-28.92-53.11-7.86-10.39-15.66-21-27.26-27.72V338.47c14.84.73,28.64,5.69,42.43,10.6,17.62,6.27,34.45,14.56,52.33,20.23,14.87,4.72,27.4,2,37.42-10.26,2.54-3.13,5.09-6.29,7.33-9.64,9.16-13.69,16.72-28.31,23.86-43.1,19.75-40.93,46.62-76.11,81.83-105,14-11.53,27.88-23.4,39.72-37.38s16-29.59,9.65-47.22c-2.66-7.36-5.79-14.56-8.78-21.79C-6.76,81.11-13.95,67.8-13.75,52.33-13.58,38.85-5,32.59,8,36.3c10.73,3.08,19.4,9.58,27.7,16.7C54,68.73,67,88.68,79.41,109c9.57,15.61,21.48,27.87,40.06,32.47a199.08,199.08,0,0,0,41.15,6.06c36.77,1.28,73.13-3.29,109.5-7.65,88.35-10.61,167.32-45.2,240.23-94.8,25.53-17.37,43-41,50.58-71.44,5.92-23.72,2.14-47.17-1.48-70.69-3.27-21.2-7.35-42.31-8.5-63.79H790.76c-4.3,12.62-9.58,24.9-12.33,38.07C772.75-95.59,770-67.9,764.94-40.58c-2.68,14.39-6.17,28.73-7.56,43.26-1.87,19.43,8.46,27.66,27.5,23.58,13.94-3,25.71-10.32,37.07-18.44C839.69-4.86,855.36-20,871.35-34.71c5.39-5,11-9.73,16.36-14.7,22.75-21,48.75-26.34,78-16.35,24.76,8.46,50.23,11.08,76.25,9.56,9.59-.56,19.2-1,28.8-1.06,50.8-.3,100.61,8.14,150.34,17.26C1274.9-30.15,1327-13.72,1379.46,1.25c23.34,6.66,46.47,13.86,67.4,26.78,22.05,13.63,32.21,31.94,27.64,58.61-3.66,21.39,3.29,39.89,21.1,53.62,4.17,3.21,7.73,7.28,11.27,11.23,22.12,24.74,37.42,53.87,53.07,82.79,13,24,24.41,49,43,69.45,14.63,16.15,31,29.77,53,34.74V765c-13.06,7.18-26.15,14.31-39.17,21.56-19.68,10.94-39.83,14.8-60.68,3.55-25.82-13.92-51.63-28.09-74.88-46-28.5-22-52.6-48.78-77.29-74.84-25.91-27.34-42.68-59.87-53.92-95.57A169.39,169.39,0,0,0,1335.81,541c-12.62-22.28-29.35-38.14-57.35-35.57-13.92,1.28-26.49,6.66-38.06,14.09a981.9,981.9,0,0,0-81.67,57.82c-33.29,26.49-50.7,60.06-48,103.45a302.28,302.28,0,0,0,20.59,91.31c15.52,39.8,42.79,66.71,85.36,76.74,13.82,3.25,26.9,8.89,39.31,15.79,23.87,13.27,47.53,26.89,71.42,40.11C1344.23,914,1361.24,922.87,1378.14,931.92ZM912.5,79.87a43.74,43.74,0,0,0,0,6.06c1.24,9,3.5,17.85,12.72,21.87s17.08-.51,23.44-6.55c20.84-19.8,34.13-44.31,42.15-71.66,2.86-9.77,3.15-20.21-6.27-27-9.67-7-19.78-3-28.47,2.45C928.55,22.22,915.16,48,912.5,79.87ZM-150.67,498.92c.13,9,12.47,22.46,21.62,23.53,6.45.75,9-2,7.57-8.46-2.13-10-8.59-17.06-16.67-22.42C-144.88,487.1-150.78,490.91-150.67,498.92Z" transform="translate(287 161.04)"/><path class="b" d="M551-160.88c1.15,21.48,5.23,42.59,8.5,63.79,3.62,23.52,7.4,47,1.48,70.69C553.34,4,535.88,27.67,510.35,45c-72.91,49.6-151.88,84.19-240.23,94.8-36.37,4.36-72.73,8.93-109.5,7.65a199.08,199.08,0,0,1-41.15-6.06C100.89,136.83,89,124.57,79.41,109,67,88.68,54,68.73,35.68,53c-8.3-7.12-17-13.62-27.7-16.7-13-3.71-21.56,2.55-21.73,16-.2,15.47,7,28.78,12.68,42.53,3,7.23,6.12,14.43,8.78,21.79,6.37,17.63,2.28,33.15-9.65,47.22s-25.7,25.85-39.72,37.38c-35.21,28.94-62.08,64.12-81.83,105.05-7.14,14.79-14.7,29.41-23.86,43.1-2.24,3.35-4.79,6.51-7.33,9.64-10,12.3-22.55,15-37.42,10.26-17.88-5.67-34.71-14-52.33-20.23-13.79-4.91-27.59-9.87-42.43-10.6q0-246.44-.14-492.87c0-5.38,1-6.65,6.55-6.64q204.73.3,409.46.16c7.87,10.3,18.34,17.58,29.76,23,58.32,27.49,116.4,25.57,173.67-3.25,10-5,20-10.62,27.27-19.71Z" transform="translate(287 161.04)"/><path class="b" d="M1655.9,338.47c-22-5-38.33-18.59-53-34.74-18.59-20.5-30-45.47-43-69.45-15.65-28.92-31-58.05-53.07-82.79-3.54-4-7.1-8-11.27-11.23-17.81-13.73-24.76-32.23-21.1-53.62,4.57-26.67-5.59-45-27.64-58.61-20.93-12.92-44.06-20.12-67.4-26.78C1327-13.72,1274.9-30.15,1221.08-40c-49.73-9.12-99.54-17.56-150.34-17.26-9.6.06-19.21.5-28.8,1.06-26,1.52-51.49-1.1-76.25-9.56-29.23-10-55.23-4.61-78,16.35-5.39,5-11,9.73-16.36,14.7C855.36-20,839.69-4.86,822,7.82c-11.36,8.12-23.13,15.46-37.07,18.44-19,4.08-29.37-4.15-27.5-23.58,1.39-14.53,4.88-28.87,7.56-43.26,5.08-27.32,7.81-55,13.49-82.23,2.75-13.17,8-25.45,12.33-38.07q429.3,0,858.59-.13c5.19,0,6.72.72,6.71,6.47Q1655.75,92,1655.9,338.47Z" transform="translate(287 161.04)"/><path class="b" d="M1378.14,931.92c-16.9-9-33.91-17.91-50.69-27.19-23.89-13.22-47.55-26.84-71.42-40.11-12.41-6.9-25.49-12.54-39.31-15.79-42.57-10-69.84-36.94-85.36-76.74a302.28,302.28,0,0,1-20.59-91.31c-2.74-43.39,14.67-77,48-103.45a981.9,981.9,0,0,1,81.67-57.82c11.57-7.43,24.14-12.81,38.06-14.09,28-2.57,44.73,13.29,57.35,35.57A169.39,169.39,0,0,1,1350,573.66c11.24,35.7,28,68.23,53.92,95.57,24.69,26.06,48.79,52.87,77.29,74.84,23.25,17.91,49.06,32.08,74.88,46,20.85,11.25,41,7.39,60.68-3.55,13-7.25,26.11-14.38,39.17-21.56,0,53.88-.07,107.76.12,161.65,0,4.52-.91,5.44-5.44,5.43Q1514.37,931.8,1378.14,931.92Z" transform="translate(287 161.04)"/><path class="b" d="M-286.86,493.28c11.6,6.76,19.4,17.33,27.26,27.72,12.27,16.23,20.36,34.83,28.92,53.11,26.88,57.43,56.29,113.61,84.56,170.34a81.68,81.68,0,0,0,13.66,19.86c7.84,8.31,17.17,9.77,27.71,7.64,11.28-2.28,21.27-7.68,31.42-12.74C-50.25,747.71-36,751.29-19.71,771c19.38,23.37,33.62,49.76,47,76.69,12.91,26,25.14,52.36,37.62,78.58a47.11,47.11,0,0,1,1.89,5.67q-173.61,0-347.24.16c-5.58,0-6.55-1.29-6.54-6.65Q-286.73,709.36-286.86,493.28Z" transform="translate(287 161.04)"/><path class="a" d="M359.71-160.88c-7.26,9.09-17.29,14.68-27.27,19.71-57.27,28.82-115.35,30.74-173.67,3.25-11.42-5.38-21.89-12.66-29.76-23Z" transform="translate(287 161.04)"/><path class="b" d="M912.5,79.87C915.16,48,928.55,22.22,956.11,5c8.69-5.42,18.8-9.42,28.47-2.45,9.42,6.79,9.13,17.23,6.27,27-8,27.35-21.31,51.86-42.15,71.66-6.36,6-14.27,10.55-23.44,6.55s-11.48-12.86-12.72-21.87A43.74,43.74,0,0,1,912.5,79.87Z" transform="translate(287 161.04)"/><path class="b" d="M-150.67,498.92c-.11-8,5.79-11.82,12.52-7.35,8.08,5.36,14.54,12.44,16.67,22.42,1.39,6.49-1.12,9.21-7.57,8.46C-138.2,521.38-150.54,508-150.67,498.92Z" transform="translate(287 161.04)"/></svg>