<svg xmlns="http://www.w3.org/2000/svg" viewBox="0 0 1943.06 1093.08"><defs><style>.a{fill:#ffffff;}.b{fill:#41c7f6;}</style></defs><title>1800f_00191</title><path class="a" d="M-286.86,868.17V708.8c13.55-10.49,26.84-21.37,40.72-31.41,26.34-19.06,50.73-40.16,71.81-65C-163,599.1-151.82,585.71-138.86,574c26.64-24.17,46.55-25.61,76-5.13,14.36,10,27.13,21.86,39.6,34.06,17,16.63,28.63,15.8,43.1-3.07.92-1.19,1.63-2.55,2.45-3.82C35,576.39,45,555.39,54.53,534.17A272.37,272.37,0,0,0,79.07,421.68c.05-28.86-2.35-57.59-5.07-86.27a328.43,328.43,0,0,0-11-57.26A193.9,193.9,0,0,0,11.67,191c-14-13.85-28.66-27.17-40.58-43-13.67-18.15-14.43-35.52-2.67-55C-20.3,74.29-4.28,60.65,14.34,49.78,36.3,37,60.59,31.14,85.14,25.92,127.8,16.85,169.59,5,208.25-15.79c51.59-27.76,95.17-65.66,134.86-108.29,10.82-11.62,21.69-23.29,30.26-36.8H769.51c8.82,12.66,35.25,12.66,45.54,0H972.9c8.09,4.87,17.18,7.24,26,10.15,25.47,8.36,52,12.8,77.39,21.63,18.5,6.45,32.58,17.69,41.45,35.5,6.88,13.79,14.39,27.27,23.55,39.76,18.41,25.1,41.59,43,73.63,45.52,27.58,2.16,50.42,13.32,70,32.34,22.64,22,41,47.42,57.87,73.86,56.88,88.91,128,165.29,206.51,235.15,17.75,15.78,36.28,30.68,53.11,47.53,19.67,19.68,28.21,43.18,26.29,70.78a238.7,238.7,0,0,1-27.9,96.9c-33.23,62.22-73.51,119.64-119.13,173.41-47.07,55.48-102.11,99.08-173.2,120-27.86,8.2-47.1,27.46-61.29,52.34-6,10.5-11.59,21.37-20.47,29.93-8.59,8.29-18,7.36-25.06-2.33a55.14,55.14,0,0,1-8.92-19.14c-3-12-9.4-17-25.44-14.87-12.65,1.67-24.29,6.79-35.84,11.94-25.63,11.44-51.19,23-79,28.54-5.32,1.07-11,1-15.87,3.83H89.55c.82-41.32-10.5-78.27-39.46-108.75-12.46-13.11-27.43-16-44.37-10.18-16.41,5.65-31,14.7-45.19,24.4-29.24,20-55.94,43.24-81.12,68.08-8.12,8-17.15,15.62-22.08,26.45h-80.44a145,145,0,0,0-40-48.61C-270.44,877.48-277.22,870.52-286.86,868.17Z" transform="translate(287.02 161.02)"/><path class="b" d="M373.37-160.88c-8.57,13.51-19.44,25.18-30.26,36.8C303.42-81.45,259.84-43.55,208.25-15.79,169.59,5,127.8,16.85,85.14,25.92,60.59,31.14,36.3,37,14.34,49.78-4.28,60.65-20.3,74.29-31.58,93c-11.76,19.47-11,36.84,2.67,55C-17,163.78-2.34,177.1,11.67,191A193.9,193.9,0,0,1,63,278.15a328.43,328.43,0,0,1,11,57.26c2.72,28.68,5.12,57.41,5.07,86.27A272.37,272.37,0,0,1,54.53,534.17C45,555.39,35,576.39,22.31,596c-.82,1.27-1.53,2.63-2.45,3.82-14.47,18.87-26.12,19.7-43.1,3.07-12.47-12.2-25.24-24.08-39.6-34.06-29.47-20.48-49.38-19-76,5.13-13,11.76-24.18,25.15-35.47,38.44-21.08,24.84-45.47,45.94-71.81,65-13.88,10-27.17,20.92-40.72,31.41V414.36c7.42-18.22,5.53-36.43,0-54.64q0-257.1-.16-514.2c0-5.59,1.3-6.54,6.65-6.54Q46.51-160.78,373.37-160.88Z" transform="translate(287.02 161.02)"/><path class="b" d="M1036.64,931.92c4.9-2.86,10.55-2.76,15.87-3.83,27.76-5.56,53.32-17.1,79-28.54,11.55-5.15,23.19-10.27,35.84-11.94,16-2.12,22.44,2.92,25.44,14.87a55.14,55.14,0,0,0,8.92,19.14c7.11,9.69,16.47,10.62,25.06,2.33,8.88-8.56,14.48-19.43,20.47-29.93,14.19-24.88,33.43-44.14,61.29-52.34,71.09-20.95,126.13-64.55,173.2-120,45.62-53.77,85.9-111.19,119.13-173.41a238.7,238.7,0,0,0,27.9-96.9c1.92-27.6-6.62-51.1-26.29-70.78-16.83-16.85-35.36-31.75-53.11-47.53-78.54-69.86-149.63-146.24-206.51-235.15C1325.89,71.44,1307.57,46,1284.93,24c-19.55-19-42.39-30.18-70-32.34-32-2.51-55.22-20.42-73.63-45.52-9.16-12.49-16.67-26-23.55-39.76-8.87-17.81-23-29.05-41.45-35.5-25.36-8.83-51.92-13.27-77.39-21.63-8.86-2.91-18-5.28-26-10.15h491.76c-4.66,8.08-9.32,16.08-11,25.52-3.58,19.94.39,39,8.13,57,19.73,45.72,51.43,82.49,89.68,113.59,23.76,19.31,51,33.49,77.2,49.24,9,5.4,17.07,12.4,27.24,15.76q0,412.46.14,824.91c0,5.69-1.28,7-7,7Q1342.85,931.81,1036.64,931.92Z" transform="translate(287.02 161.02)"/><path class="a" d="M1655.9,100.18c-10.17-3.36-18.27-10.36-27.24-15.76-26.16-15.75-53.44-29.93-77.2-49.24-38.25-31.1-70-67.87-89.68-113.59-7.74-17.93-11.71-37-8.13-57,1.69-9.44,6.35-17.44,11-25.52q93,0,185.92-.13c4.53,0,5.45.91,5.44,5.44Q1655.77-27.69,1655.9,100.18Z" transform="translate(287.02 161.02)"/><path class="b" d="M-142.67,931.92c4.93-10.83,14-18.44,22.08-26.45,25.18-24.84,51.88-48,81.12-68.08,14.17-9.7,28.78-18.75,45.19-24.4,16.94-5.83,31.91-2.93,44.37,10.18,29,30.48,40.28,67.43,39.46,108.75Z" transform="translate(287.02 161.02)"/><path class="b" d="M-286.86,868.17c9.64,2.35,16.42,9.31,23.79,15.14a145,145,0,0,1,40,48.61c-20,0-40-.1-59.95.1-3.27,0-3.93-.63-3.9-3.9C-286.76,908.14-286.86,888.16-286.86,868.17Z" transform="translate(287.02 161.02)"/><path class="b" d="M815.05-160.88c-10.29,12.66-36.72,12.66-45.54,0Z" transform="translate(287.02 161.02)"/><path class="a" d="M-286.86,359.72c5.53,18.21,7.42,36.42,0,54.64Z" transform="translate(287.02 161.02)"/></svg>