<svg xmlns="http://www.w3.org/2000/svg" viewBox="0 0 1943.14 1093.42"><defs><style>.a{fill:#ffffff;}.b{fill:#41c7f6;}</style></defs><title>1800f_00102</title><path class="a" d="M1655.9,699.7v132c-34.56,8.69-68.61,18.91-99.56,37.11-24.1,14.17-46.16,30.15-43.12,63.07H1349.3c1.6-2.52,3.07-5.12,4.8-7.54,9.2-12.8,16.2-26.64,19.76-42.08s-2.78-24.8-18.44-27.69a44.55,44.55,0,0,0-13.5-.65c-24.77,2.93-44.75,15-61.26,32.89-11.56,12.54-19.46,26.95-16.35,45.07H1032.09a40.78,40.78,0,0,0-11.37-11c-15.77-10.84-32.84-19.18-51.34-23.85C916.15,883.68,862.1,884,808.14,890.46c-42.14,5.07-83.85,13.33-125.4,22-26.92,5.64-53.88,11.21-80.18,19.43h-387c15.73-7.46,32-13.81,47-22.7,25.14-14.84,48.85-31.52,69.26-52.54,32.28-33.26,40.75-74.65,39.4-118.9-1.29-42.53-10.43-83.65-24.77-123.64-4-11.19-8.11-22.37-14.22-32.63-5-8.45-11.8-8.61-16.71-.31a104.93,104.93,0,0,0-7,15.1c-7.33,18.53-12.82,37.86-24.39,54.49-11.22,16.14-24.23,20.59-42.68,14.33a86.57,86.57,0,0,1-17.95-8.06c-24.5-15.15-49.23-30-73.46-45.55-24.71-15.9-48-33.79-68.1-55.35-15.48-16.58-27.44-35.23-28.83-58.68-1.6-26.81.88-53.55,2.2-80.31,1.91-38.46,2.53-76.95-8.1-114.43C36.35,264.47,18,229.53-3.94,196.57-16.33,178-31.62,161.84-51.11,150.13c-26.79-16.08-48.06-1-56.45,20.09-5.88,14.75-3.17,29.37,1.19,43.81,10.72,35.56,21.1,71.19,28.29,107.68,6.41,32.51,10.43,65.3,13.7,98.25,4.29,43.26,17.07,84.57,30.38,125.75,7.72,23.85,18.7,45.73,34.55,65.22,12.14,14.93,25.42,28.78,38.77,42.6,12.63,13.08,25,26.44,34.82,41.9,27.75,43.53,22.31,93.9-14,130.4-19.93,20-44.38,31.27-71.41,37.64-13.52,3.18-27.12,6-40,11.44-35.4,14.82-67.47,35.46-99,57-43.51,0-87-.12-130.53.15-5.2,0-6.22-1-6.21-6.22q.24-428.77.14-857.55c6.87.87,13.59-.8,20.38-1.3,47.26-3.49,93.37,3.57,138.77,15.73,27.89,7.47,55,7.87,82.68-1.36,30.27-10.09,61.75-15.25,93.41-19.28,30.36-3.86,60.39-9.44,89.66-18.75C198.76,24,251.41-9.51,301.12-48.38c17.71-13.85,34.33-29.12,53.37-41.28,17.85-11.41,35.14-10.68,52.25,1.58a89.81,89.81,0,0,1,27.37,31.95c7.5,14.27,18.88,23.72,34.82,26.76A103.34,103.34,0,0,0,496.11-28c19.66-1.46,39.34-3.09,59-3.55,50.82-1.18,101.55,1.8,152.32,3.62,41.92,1.5,83.75,3.05,125.24,9.81,42.46,6.93,84,17.53,125.46,29.05,27.26,7.58,43.68,24.39,49.69,52.33,5.27,24.44,12,48.58,18.15,72.83,6,23.55,12.51,46.93,25.35,67.95,3.58,5.87,7.52,11.31,13.5,15.1,7.09,4.51,15,5.29,22.69,3.84,22.69-4.28,45-10.4,64.39-23.45,31.21-21,44.86-51.81,47-88.28,1.23-21,2.91-41.86,10.65-61.71,5.78-14.83,14-27.62,29.91-33.23,11.81-4.15,24-3.86,35.92-1.11C1322.09,26,1366.24,41.12,1397,81.7c24.5,32.29,45.07,66.14,50.19,107.18,3.88,31.16,3.67,62.53,3,93.91-1.79,80.94,12.46,159.65,35.75,236.69,17,56.21,50,101.58,98.86,135.15C1608,670.55,1631.46,685.84,1655.9,699.7Z" transform="translate(287.01 161.35)"/><path class="b" d="M1655.9,699.7c-24.44-13.86-47.93-29.15-71.08-45.07C1536,621.06,1503,575.69,1486,519.48c-23.29-77-37.54-155.75-35.75-236.69.69-31.38.9-62.75-3-93.91-5.12-41-25.69-74.89-50.19-107.18-30.8-40.58-75-55.67-121.64-66.48-11.91-2.75-24.11-3-35.92,1.11-16,5.61-24.13,18.4-29.91,33.23-7.74,19.85-9.42,40.68-10.65,61.71-2.13,36.47-15.78,67.31-47,88.28-19.42,13-41.7,19.17-64.39,23.45-7.7,1.45-15.6.67-22.69-3.84-6-3.79-9.92-9.23-13.5-15.1-12.84-21-19.34-44.4-25.35-67.95-6.18-24.25-12.88-48.39-18.15-72.83-6-27.94-22.43-44.75-49.69-52.33-41.41-11.52-83-22.12-125.46-29-41.49-6.76-83.32-8.31-125.24-9.81-50.77-1.82-101.5-4.8-152.32-3.62-19.69.46-39.37,2.09-59,3.55a103.34,103.34,0,0,1-27.18-1.39c-15.94-3-27.32-12.49-34.82-26.76a89.81,89.81,0,0,0-27.37-31.95c-17.11-12.26-34.4-13-52.25-1.58-19,12.16-35.66,27.43-53.37,41.28C251.41-9.51,198.76,24,138,43.34c-29.27,9.31-59.3,14.89-89.66,18.75-31.66,4-63.14,9.19-93.41,19.28-27.72,9.23-54.79,8.83-82.68,1.36C-173.11,70.57-219.22,63.51-266.48,67c-6.79.5-13.51,2.17-20.38,1.3q0-111.18-.15-222.35c0-5.7,1.29-7,7-7q687.18.22,1374.35.14c-10.92,11.21-22.07,22.2-32.7,33.68-13.43,14.53-25.38,30.16-32.68,48.86a66.22,66.22,0,0,0-4.07,16.12c-3.25,26.59,15.13,43.06,41.7,37,23.94-5.42,45.35-16.78,66.4-29,23.25-13.52,40.62-32,51.62-56.69a330.56,330.56,0,0,0,17.49-50h444.71c-5.36,17.59-10.18,35.24-12.92,53.55-4.79,32,2.43,60.52,22,86.08Z" transform="translate(287.01 161.35)"/><path class="b" d="M-150.26,931.92c31.53-21.55,63.6-42.19,99-57,12.88-5.39,26.48-8.26,40-11.44,27-6.37,51.48-17.61,71.41-37.64,36.3-36.5,41.74-86.87,14-130.4C64.29,680,52,666.61,39.32,653.53,26,639.71,12.69,625.86.55,610.93-15.3,591.44-26.28,569.56-34,545.71-47.31,504.53-60.09,463.22-64.38,420c-3.27-32.95-7.29-65.74-13.7-98.25-7.19-36.49-17.57-72.12-28.29-107.68-4.36-14.44-7.07-29.06-1.19-43.81,8.39-21.08,29.66-36.17,56.45-20.09C-31.62,161.84-16.33,178-3.94,196.57c21.93,33,40.29,67.9,51.15,106.17,10.63,37.48,10,76,8.1,114.43-1.32,26.76-3.8,53.5-2.2,80.31,1.39,23.45,13.35,42.1,28.83,58.68,20.13,21.56,43.39,39.45,68.1,55.35,24.23,15.59,49,30.4,73.46,45.55a86.57,86.57,0,0,0,17.95,8.06c18.45,6.26,31.46,1.81,42.68-14.33,11.57-16.63,17.06-36,24.39-54.49a104.93,104.93,0,0,1,7-15.1c4.91-8.3,11.68-8.14,16.71.31,6.11,10.26,10.21,21.44,14.22,32.63,14.34,40,23.48,81.11,24.77,123.64,1.35,44.25-7.12,85.64-39.4,118.9-20.41,21-44.12,37.7-69.26,52.54-15,8.89-31.28,15.24-47,22.7Z" transform="translate(287.01 161.35)"/><path class="a" d="M1202.08-160.88a330.56,330.56,0,0,1-17.49,50c-11,24.69-28.37,43.17-51.62,56.69-21,12.24-42.46,23.6-66.4,29-26.57,6-44.95-10.45-41.7-37a66.22,66.22,0,0,1,4.07-16.12c7.3-18.7,19.25-34.33,32.68-48.86,10.63-11.48,21.78-22.47,32.7-33.68Z" transform="translate(287.01 161.35)"/><path class="b" d="M602.56,931.92c26.3-8.22,53.26-13.79,80.18-19.43,41.55-8.7,83.26-17,125.4-22,54-6.49,108-6.78,161.24,6.65,18.5,4.67,35.57,13,51.34,23.85a40.78,40.78,0,0,1,11.37,11Z" transform="translate(287.01 161.35)"/><path class="b" d="M1513.22,931.92c-3-32.92,19-48.9,43.12-63.07,31-18.2,65-28.42,99.56-37.11,0,31.88-.08,63.75.1,95.62,0,3.8-.86,4.67-4.66,4.66C1605.3,931.86,1559.26,931.92,1513.22,931.92Z" transform="translate(287.01 161.35)"/><path class="b" d="M1264.31,931.92c-3.11-18.12,4.79-32.53,16.35-45.07,16.51-17.93,36.49-30,61.26-32.89a44.55,44.55,0,0,1,13.5.65c15.66,2.89,22,12.31,18.44,27.69s-10.56,29.28-19.76,42.08c-1.73,2.42-3.2,5-4.8,7.54Z" transform="translate(287.01 161.35)"/><path class="a" d="M1655.9-21.25c-19.6-25.56-26.82-54-22-86.08,2.74-18.31,7.56-36,12.92-53.55,7.78-1.72,9.42,1.3,9.34,9.11C1655.65-108.27,1655.9-64.76,1655.9-21.25Z" transform="translate(287.01 161.35)"/></svg>