<svg xmlns="http://www.w3.org/2000/svg" viewBox="0 0 1366.29 768.29"><defs><style>.a{fill:#ffffff;}.b{fill:#41c7f6;}</style></defs><title>1800f_00040</title><path class="a" d="M1367.52,400.7V472a6.92,6.92,0,0,0-2.22.23c-41.25,19.62-82.89,38.57-120.66,64.64-23.6,16.29-40.16,37.78-48.49,65.65-16.29,54.5-26.91,109.75-24.43,167H340C322,747.78,300,731,275.16,718c-31-16.29-64-27.57-97.26-38.1-7.46-2.36-15.07-4.41-21.93-8.32-5.63-3.2-6.18-6.76-1.89-11.58,3.9-4.37,8.76-7.59,13.53-10.93,25.26-17.68,51.69-33.65,75.86-52.91,21.51-17.13,37.33-37.45,40.28-66,2.6-25,1.14-50-.74-74.93-2.11-27.94-2-55.49,8.76-82.11,6.66-16.45,11.6-33.67,12.6-51.35,1.72-30.07,11.55-56.61,29.9-80.33A55,55,0,0,0,343.83,221c.84-3.37,1.74-7.05-1.88-9.68s-6.65-1.06-9.9.63c-9.19,4.79-15.83,12.53-22.69,19.9-12,12.86-24.89,24.46-40.87,32.13-15.55,7.46-29.86,17-44.53,25.93-9.28,5.66-18.53,11.41-29,14.8-15.08,4.91-25.38.44-32.36-13.92-4.52-9.3-5.7-19.31-6.32-29.43-.85-13.87-.53-27.9-2.59-41.57-5-33.26-14.35-65.61-22.6-98.16-5.4-21.29-12.05-42.26-17.89-63.45-3.31-12-.48-16.83,11.43-20.23,6.07-1.74,12.26-3,18.38-4.56,26.35-6.69,51.62-15.91,74-31.84H907.63c-.24,3.09,2,5.09,3.4,7.39,16.41,26.44,37.2,49.1,60.17,69.91q34,30.83,67.77,61.91c28.73,26.35,49.5,59.34,74.08,89.15,8.59,10.41,12.81,22.93,14.39,36.2,1.49,12.54,2.29,25.15,3.47,37.73,1.59,17.11,3,34.26,9,50.59,3.8,10.42,9,19.89,19.39,25.23,33.76,17.33,69.48,26.3,107.52,23.46,27.76-2.08,55.5-3.45,83.34-2.56C1355.91,400.72,1361.72,400.65,1367.52,400.7Zm-593.09,8.74c-5.67-.34-14.64,2.43-23.49,5.47-13.2,4.54-26.57,8.1-40.59,8.94-21.47,1.3-41.67,7.72-61.48,15.58-5.65,2.25-11.12,5-15.62,9.17-5.88,5.5-6.21,11.24-1,17.36,4.87,5.75,11.29,9.26,18.13,12.1,19.57,8.11,40.14,10.22,61,9.17,19.86-1,38.65,2.86,57.09,9.79,13.25,5,26.6,9.74,40.08,14,15.94,5.08,32.17,9.29,49.14,6.42,14.29-2.42,26-8.92,30.69-23.65,4.49-14.11-2.66-24.36-12.55-33.32a68.29,68.29,0,0,0-5.25-4.37c-14.83-11-30-21.53-46.11-30.62C810.11,417.42,795.41,409.94,774.43,409.44ZM743.81,561.11c-20.63,1-36.85,10.94-50,26.1-5.72,6.58-4,13.92,3.18,18.8a30.12,30.12,0,0,0,10.43,4.3c18,4,36.57,3.38,54.82,5.54,9.85,1.17,17.74-2.32,22.36-11.86,4.75-9.78,1.82-18.22-4.28-26C771.07,566.31,758.75,561,743.81,561.11Zm309.31-242.95c.06-9.17-5.24-13.51-12.94-9.71-15.74,7.77-25,21.07-28.67,37.93-1.69,7.72,3,11.33,10.8,9.75C1036.16,353.33,1053,332.54,1053.12,318.16Z" transform="translate(-1.37 -1.37)"/><path class="b" d="M217,1.52c-22.38,15.93-47.65,25.15-74,31.84-6.12,1.55-12.31,2.82-18.38,4.56-11.91,3.4-14.74,8.23-11.43,20.23,5.84,21.19,12.49,42.16,17.89,63.45,8.25,32.55,17.59,64.9,22.6,98.16,2.06,13.67,1.74,27.7,2.59,41.57.62,10.12,1.8,20.13,6.32,29.43,7,14.36,17.28,18.83,32.36,13.92,10.44-3.39,19.69-9.14,29-14.8,14.67-8.94,29-18.47,44.53-25.93,16-7.67,28.89-19.27,40.87-32.13,6.86-7.37,13.5-15.11,22.69-19.9,3.25-1.69,6.42-3.16,9.9-.63s2.72,6.31,1.88,9.68a55,55,0,0,1-9.56,20.49c-18.35,23.72-28.18,50.26-29.9,80.33-1,17.68-5.94,34.9-12.6,51.35C281,399.76,280.9,427.31,283,455.25c1.88,24.95,3.34,49.9.74,74.93-2.95,28.51-18.77,48.83-40.28,66-24.17,19.26-50.6,35.23-75.86,52.91-4.77,3.34-9.63,6.56-13.53,10.93-4.29,4.82-3.74,8.38,1.89,11.58,6.86,3.91,14.47,6,21.93,8.32,33.27,10.53,66.25,21.81,97.26,38.1C300,731,322,747.78,340,769.52q-166.2,0-332.39.14c-5.2,0-6.22-1-6.22-6.22q.25-377.93,0-755.85c0-5.19,1-6.24,6.22-6.22C77.41,1.59,147.22,1.52,217,1.52Z" transform="translate(-1.37 -1.37)"/><path class="b" d="M1367.52,400.7c-5.8-.05-11.61,0-17.4-.17-27.84-.89-55.58.48-83.34,2.56-38,2.84-73.76-6.13-107.52-23.46-10.41-5.34-15.59-14.81-19.39-25.23-5.95-16.33-7.37-33.48-9-50.59-1.18-12.58-2-25.19-3.47-37.73-1.58-13.27-5.8-25.79-14.39-36.2-24.58-29.81-45.35-62.8-74.08-89.15q-33.83-31-67.77-61.91C948.23,58,927.44,35.35,911,8.91c-1.43-2.3-3.64-4.3-3.4-7.39H1026c.53.84,1,1.69,1.59,2.52,10.83,16.45,24.48,15.89,33.91-1.37a8.28,8.28,0,0,1,.92-1.15h180.62c11.89,9.38,23.64,18.93,35.7,28.09,20.52,15.59,28.14,35.81,24.18,61.28-4.46,28.74.59,56.32,12.47,82.78,9.24,20.6,24,32.06,47.57,29.62a34.51,34.51,0,0,1,4.54.09Z" transform="translate(-1.37 -1.37)"/><path class="b" d="M1171.72,769.52c-2.48-57.22,8.14-112.47,24.43-167,8.33-27.87,24.89-49.36,48.49-65.65,37.77-26.07,79.41-45,120.66-64.64a6.92,6.92,0,0,1,2.22-.23q0,145.71.14,291.41c0,5.2-1,6.24-6.21,6.22C1298.21,769.43,1235,769.52,1171.72,769.52Z" transform="translate(-1.37 -1.37)"/><path class="a" d="M1367.52,203.38a34.51,34.51,0,0,0-4.54-.09c-23.54,2.44-38.33-9-47.57-29.62-11.88-26.46-16.93-54-12.47-82.78,4-25.47-3.66-45.69-24.18-61.28-12.06-9.16-23.81-18.71-35.7-28.09,39.72,0,79.43.09,119.14-.13,4.54,0,5.46.91,5.44,5.44Q1367.37,105.11,1367.52,203.38Z" transform="translate(-1.37 -1.37)"/><path class="a" d="M1062.44,1.52a8.28,8.28,0,0,0-.92,1.15c-9.43,17.26-23.08,17.82-33.91,1.37-.55-.83-1.06-1.68-1.59-2.52Z" transform="translate(-1.37 -1.37)"/><path class="b" d="M774.43,409.44c21,.5,35.68,8,50,16.07,16.08,9.09,31.28,19.6,46.11,30.62a68.29,68.29,0,0,1,5.25,4.37c9.89,9,17,19.21,12.55,33.32-4.68,14.73-16.4,21.23-30.69,23.65-17,2.87-33.2-1.34-49.14-6.42-13.48-4.29-26.83-9.05-40.08-14-18.44-6.93-37.23-10.79-57.09-9.79-20.87,1-41.44-1.06-61-9.17-6.84-2.84-13.26-6.35-18.13-12.1-5.17-6.12-4.84-11.86,1-17.36,4.5-4.21,10-6.92,15.62-9.17,19.81-7.86,40-14.28,61.48-15.58,14-.84,27.39-4.4,40.59-8.94C759.79,411.87,768.76,409.1,774.43,409.44Z" transform="translate(-1.37 -1.37)"/><path class="b" d="M743.81,561.11c14.94-.15,27.26,5.2,36.47,16.91,6.1,7.75,9,16.19,4.28,26-4.62,9.54-12.51,13-22.36,11.86-18.25-2.16-36.77-1.5-54.82-5.54A30.12,30.12,0,0,1,697,606c-7.2-4.88-8.9-12.22-3.18-18.8C707,572.05,723.18,562.16,743.81,561.11Z" transform="translate(-1.37 -1.37)"/><path class="b" d="M1053.12,318.16c-.1,14.38-17,35.17-30.81,38-7.83,1.58-12.49-2-10.8-9.75,3.69-16.86,12.93-30.16,28.67-37.93C1047.88,304.65,1053.18,309,1053.12,318.16Z" transform="translate(-1.37 -1.37)"/></svg>