<svg xmlns="http://www.w3.org/2000/svg" viewBox="0 0 1943.05 1093.18"><defs><style>.a{fill:#ffffff;}.b{fill:#41c7f6;}</style></defs><title>1800f_00324</title><path class="a" d="M1655.9,145.71V267.13c-3.41-2.23-4.2-6.13-5.7-9.45a45.19,45.19,0,0,0-11.61-15.53c-8.75-7.7-16-5.75-17.34,5.62-2.26,18.81,4.38,34.81,18.51,47.62,6.57,5.95,9.06,6.12,16.14.58V680c-2.47-.6-3.63,1.41-5.08,2.66-10.73,9.23-21.45,18.46-32.07,27.81-31.22,27.49-66.67,34.06-106.07,21.8a361.12,361.12,0,0,1-108.77-55.81,167.91,167.91,0,0,1-57.26-74.87c-11.2-28.58-19.46-57.93-26.25-87.8-5.32-23.38-9.49-47.09-19.48-69.19-11.13-24.63-26.51-31.34-52-22.35a136.81,136.81,0,0,0-24.56,11.84c-26,15.57-51.44,32.17-76.67,49-18.29,12.23-36.69,24.28-56.55,33.91-16.06,7.78-31.9,8.74-47.81-.44-4.36-2.51-9-4.48-13.66-6.55-14.69-6.61-28.6-3.95-41.7,4.23-13.5,8.42-15.87,20.76-7.44,34.51a91,91,0,0,0,18.43,21c19.43,16.87,32,38.07,41.17,61.82a657.81,657.81,0,0,0,82.41,150.61c20.07,27.56,44.6,48.34,80,52.18,16.07,1.74,32.3,2.18,48.3,4.41,28.74,4,55.53,15.08,82.66,24.7,16.18,5.74,33,9.91,48.16,18.23,12.26,6.71,13.35,13.46,4.61,24.31a67.58,67.58,0,0,1-13.18,12.49c-6.35,4.57-12.84,9-19.26,13.42H42.5c-1.51-4.54-2.79-9.18-4.56-13.61C15.37,861.73-8.21,805.56-28.59,748.12-43.45,706.23-62.86,666.68-88,629.86-115.64,589.37-134.6,545-146,497.2c-7.82-32.66-13.26-65.93-23.9-97.9-7.66-23-15.82-45.88-23.14-69-6.34-20.07-10-40.74-.57-60.73,17.07-36.16,40-67.94,73.24-91.17,19.53-13.62,41.85-21.31,64-29.27,34.86-12.56,62.58-32.42,75.85-68.85C23.67,68.5,32.6,62.45,46,63.53a210.5,210.5,0,0,1,39.42,7.36c49,13.63,98.66,17.22,148.68,8.77,67.21-11.37,132.37-30.33,195.79-55.51C474.17,6.57,507.73-22,528.48-65.25c14.21-29.62,28.94-59,43.38-88.51,1.08-2.2,2.75-4.36,1.86-7.12H716.39c-8.09,10.93-16.8,21.39-22.34,34.07-9.52,21.82-3.19,36.5,19.44,43.11,16.89,4.93,34,3.81,51.11.93,25.48-4.31,49-14.22,71.52-26.44,24.44-13.26,50.4-17.86,77.72-14.79,50.06,5.62,100.28,7.34,150.63,7.64,27,.16,54,1.82,80.77,6.37,41.36,7,82,17.55,123.08,26,30.17,6.2,60.65,11.36,89.73,22s55.54,25.51,77.78,47.36c12.83,12.61,17.56,27.42,12.52,45q-2.94,10.2-6.12,20.33c-4.73,15-8.24,30.14-7.55,46.13,1.25,28.84,19.19,35.09,38.87,33.62,22.91-1.71,45.55-4.57,68.58-1.1a99.5,99.5,0,0,0,26.27.84c16.4-1.86,33-3.24,49.58.67C1631.43,133.94,1643.4,140.38,1655.9,145.71Z" transform="translate(287.01 161.09)"/><path class="b" d="M573.72-160.88c.89,2.76-.78,4.92-1.86,7.12-14.44,29.51-29.17,58.89-43.38,88.51C507.73-22,474.17,6.57,429.89,24.15,366.47,49.33,301.31,68.29,234.1,79.66c-50,8.45-99.71,4.86-148.68-8.77A210.5,210.5,0,0,0,46,63.53c-13.4-1.08-22.33,5-26.61,16.75-13.27,36.43-41,56.29-75.85,68.85-22.1,8-44.42,15.65-63.95,29.27-33.29,23.23-56.17,55-73.24,91.17-9.43,20-5.77,40.66.57,60.73,7.32,23.12,15.48,46,23.14,69,10.64,32,16.08,65.24,23.9,97.9C-134.6,545-115.64,589.37-88,629.86c25.13,36.82,44.54,76.37,59.4,118.26,20.38,57.44,44,113.61,66.53,170.19,1.77,4.43,3.05,9.07,4.56,13.61q-161.52,0-323,.17c-5.77,0-6.47-1.55-6.46-6.73q.21-293.45.12-586.89c3.49-1.26,5.58-4.22,8-6.74,13.19-14,10.27-25.31-8-31.21q0-227.67-.15-455.33c0-5.2,1-6.22,6.22-6.22Q146.47-160.78,573.72-160.88ZM-44.39,2.54c-6-.13-9.45,3.43-9.63,9.93-.25,9,5.25,15,14,15.31,6.38.24,13.19-4.64,13.31-9.53C-26.56,11.23-36.14,2.71-44.39,2.54Z" transform="translate(287.01 161.09)"/><path class="b" d="M1353.86,931.92c6.42-4.47,12.91-8.85,19.26-13.42A67.58,67.58,0,0,0,1386.3,906c8.74-10.85,7.65-17.6-4.61-24.31-15.15-8.32-32-12.49-48.16-18.23-27.13-9.62-53.92-20.68-82.66-24.7-16-2.23-32.23-2.67-48.3-4.41-35.44-3.84-60-24.62-80-52.18a657.81,657.81,0,0,1-82.41-150.61c-9.17-23.75-21.74-45-41.17-61.82a91,91,0,0,1-18.43-21c-8.43-13.75-6.06-26.09,7.44-34.51,13.1-8.18,27-10.84,41.7-4.23,4.61,2.07,9.3,4,13.66,6.55,15.91,9.18,31.75,8.22,47.81.44,19.86-9.63,38.26-21.68,56.55-33.91,25.23-16.86,50.62-33.46,76.67-49a136.81,136.81,0,0,1,24.56-11.84c25.5-9,40.88-2.28,52,22.35,10,22.1,14.16,45.81,19.48,69.19,6.79,29.87,15,59.22,26.25,87.8a167.91,167.91,0,0,0,57.26,74.87,361.12,361.12,0,0,0,108.77,55.81c39.4,12.26,74.85,5.69,106.07-21.8,10.62-9.35,21.34-18.58,32.07-27.81,1.45-1.25,2.61-3.26,5.08-2.66q0,122.94.14,245.88c0,5.19-1,6.22-6.22,6.21Q1501.85,931.78,1353.86,931.92Z" transform="translate(287.01 161.09)"/><path class="b" d="M1655.9,145.71c-12.5-5.33-24.47-11.77-37.92-14.93-16.58-3.91-33.18-2.53-49.58-.67a99.5,99.5,0,0,1-26.27-.84c-23-3.47-45.67-.61-68.58,1.1-19.68,1.47-37.62-4.78-38.87-33.62-.69-16,2.82-31.11,7.55-46.13q3.18-10.12,6.12-20.33c5-17.54.31-32.35-12.52-45-22.24-21.85-48.75-36.77-77.78-47.36s-59.56-15.77-89.73-22c-41.08-8.44-81.72-18.94-123.08-26-26.73-4.55-53.76-6.21-80.77-6.37-50.35-.3-100.57-2-150.63-7.64-27.32-3.07-53.28,1.53-77.72,14.79-22.51,12.22-46,22.13-71.52,26.44-17.07,2.88-34.22,4-51.11-.93-22.63-6.61-29-21.29-19.44-43.11,5.54-12.68,14.25-23.14,22.34-34.07q466,0,932.11-.21c6.92,0,7.54,2.06,7.53,8Q1655.75-3.69,1655.9,145.71Z" transform="translate(287.01 161.09)"/><path class="b" d="M1655.9,296c-7.08,5.54-9.57,5.37-16.14-.58-14.13-12.81-20.77-28.81-18.51-47.62,1.36-11.37,8.59-13.32,17.34-5.62a45.19,45.19,0,0,1,11.61,15.53c1.5,3.32,2.29,7.22,5.7,9.45Z" transform="translate(287.01 161.09)"/><path class="a" d="M-286.86,300.52c18.23,5.9,21.15,17.25,8,31.21-2.38,2.52-4.47,5.48-8,6.74Z" transform="translate(287.01 161.09)"/><path class="a" d="M-44.39,2.54c8.25.17,17.83,8.69,17.67,15.71C-26.84,23.14-33.65,28-40,27.78c-8.74-.33-14.24-6.35-14-15.31C-53.84,6-50.39,2.41-44.39,2.54Z" transform="translate(287.01 161.09)"/></svg>