<svg xmlns="http://www.w3.org/2000/svg" viewBox="0 0 1366.32 768.24"><defs><style>.a{fill:#ffffff;}.b{fill:#41c7f6;}</style></defs><title>1800f_00079</title><path class="a" d="M1273.42,769.52H154.81c1.78-1.37,3.49-2.84,5.35-4.08a183.2,183.2,0,0,1,74.3-29.1c46.13-7.15,82.23-30.83,112-65.51,18.69-21.75,31.84-45.62,28.16-75.76-1.87-15.3-3.48-30.63-5.18-45.94-3.33-30-4.82-59.9-1.14-90,2.71-22.09,4.81-44.33-1.06-66.31-7.1-26.61-27.13-32.62-47.74-14.42a78.9,78.9,0,0,0-6.84,7.08c-6.4,7.28-11.11,15.61-15.37,24.27-7.14,14.51-13.59,29.42-22.79,42.81-12.11,17.62-27.11,21.27-46,11.47-2-1.05-4-2.22-5.89-3.45-15.7-10.07-28.88-22.79-40.4-37.43-16.35-20.77-20.72-43.87-14.59-69.31,3.81-15.77,9.66-30.86,14.77-46.2,14.21-42.61,8-82.18-17.41-119-18.29-26.45-42.52-45.75-71.18-59.85-7.92-3.9-16.15-7.43-22.48-13.87-4.72-4.81-4.16-8.22,1.9-11.15,8.51-4.11,17.61-4.23,26.74-2.92,15.15,2.18,28.86,9.12,43.4,13.39,26.87,7.9,53.74,11.28,79.9-1.49C267.46,91.2,310.05,66.9,347.66,34.88,359.09,25.14,370.48,15,377.93,1.52h167c21.25,4.86,42.5,3,63.75,0H962.27c4.64,10.9,9.63,21.66,13.86,32.72,12,31.28,29.58,59.16,51,84.7q60.08,71.79,120.68,143.15c24.3,28.62,42.56,60,48.76,97.7,2.2,13.39,6.24,26.55,10.24,39.57,7.44,24.2,19.1,45.37,41.79,59.23a813.48,813.48,0,0,0,111.11,57.1c2.43,1,4.82,3,7.85,1.87v78.93a8.32,8.32,0,0,0-2.93.15c-27.68,12.39-54.66,26.07-79.32,43.9-15.84,11.45-21.92,26.56-18.56,46.17C1271.39,714.07,1274.76,741.63,1273.42,769.52ZM706.61,739.64c6.54-.54,13.12-.76,19.6-1.67,29.61-4.13,57.84-14.19,87-20.41a44.53,44.53,0,0,0,9.87-3.83c12-5.84,13.65-13.71,5.23-24.11-9.09-11.21-20.95-17-35.13-18.81-27.35-3.57-53.88,1.12-80.19,7.7-17.43,4.35-34.84,9-49.49,20.16-14.49,11-13.37,24.22,2.63,32.65C678.77,738,692.54,739.4,706.61,739.64Zm388.13-19.16c3.84.45,8.28-.8,12.6-2.1,32.9-9.93,61.74-27.34,88.31-48.72a46.93,46.93,0,0,0,11.63-12.89c4-6.92,2.25-11.53-5.54-13.5-5-1.26-10-.87-15,0-19.85,3.36-38.32,11-56.8,18.48-17.53,7.15-35.47,13.5-50.9,24.93-5.93,4.4-10.51,10-9.42,17.84,1.14,8.17,7.4,12.06,14.64,14.73C1087.45,720.41,1090.67,720.36,1094.74,720.48ZM737.45,565.35a16.92,16.92,0,0,0,7.78-1.35c4.71-2,5.36-5.41,1.09-8.28a24.52,24.52,0,0,0-22.3-2.89c-4.79,1.62-5.21,5.53-1.11,8.5A22.52,22.52,0,0,0,737.45,565.35Z" transform="translate(-1.33 -1.41)"/><path class="b" d="M377.93,1.52C370.48,15,359.09,25.14,347.66,34.88c-37.61,32-80.2,56.32-124.37,77.88-26.16,12.77-53,9.39-79.9,1.49C128.85,110,115.14,103,100,100.86c-9.13-1.31-18.23-1.19-26.74,2.92-6.06,2.93-6.62,6.34-1.9,11.15,6.33,6.44,14.56,10,22.48,13.87,28.66,14.1,52.89,33.4,71.18,59.85,25.44,36.82,31.62,76.39,17.41,119-5.11,15.34-11,30.43-14.77,46.2-6.13,25.44-1.76,48.54,14.59,69.31,11.52,14.64,24.7,27.36,40.4,37.43,1.91,1.23,3.87,2.4,5.89,3.45,18.89,9.8,33.89,6.15,46-11.47,9.2-13.39,15.65-28.3,22.79-42.81,4.26-8.66,9-17,15.37-24.27a78.9,78.9,0,0,1,6.84-7.08c20.61-18.2,40.64-12.19,47.74,14.42,5.87,22,3.77,44.22,1.06,66.31-3.68,30.09-2.19,60,1.14,90,1.7,15.31,3.31,30.64,5.18,45.94,3.68,30.14-9.47,54-28.16,75.76-29.8,34.68-65.9,58.36-112,65.51a183.2,183.2,0,0,0-74.3,29.1c-1.86,1.24-3.57,2.71-5.35,4.08-49.44,0-98.88-.06-148.31.11-4.08,0-5.14-.65-5.11-5,.23-35.81.13-71.63.13-107.45,3-2.29,6.08-4.46,9-6.88,16.43-13.78,34.61-24.45,55.1-31,14.42-4.59,29-8.77,43.33-13.57,9-3,17-7.79,23-15.35,10.87-13.83,8.81-28.84,3.16-43.83C124.53,518.67,110.8,492.26,97,465.85c-21.59-41.21-55.73-68.92-95.44-91V252c5.8-7.68,9.78-16.36,13.4-25.19,6.79-16.52,6.13-32.69-2-48.76-4.29-8.49-7.63-17.46-11.4-26.22,0-48,.15-96-.19-144,0-5.93,1.78-6.4,6.79-6.39Q193,1.62,377.93,1.52Z" transform="translate(-1.33 -1.41)"/><path class="b" d="M1367.52,517.56c-3,1.14-5.42-.86-7.85-1.87a813.48,813.48,0,0,1-111.11-57.1c-22.69-13.86-34.35-35-41.79-59.23-4-13-8-26.18-10.24-39.57-6.2-37.73-24.46-69.08-48.76-97.7q-60.6-71.35-120.68-143.15c-21.38-25.54-39-53.42-51-84.7-4.23-11.06-9.22-21.82-13.86-32.72H1149c10.19,9,23.35,13.82,34.91,0h101.69c1.11,1,2.2,2.07,3.35,3.05,17,14.34,36.44,25.19,54.61,37.87,8,5.58,15.26,12.23,24,16.76Z" transform="translate(-1.33 -1.41)"/><path class="a" d="M1.52,374.89c39.71,22,73.85,49.75,95.44,91,13.84,26.41,27.57,52.82,38.09,80.75,5.65,15,7.71,30-3.16,43.83-5.94,7.56-14,12.36-23,15.35-14.35,4.8-28.91,9-43.33,13.57-20.49,6.52-38.67,17.19-55.1,31-2.88,2.42-6,4.59-9,6.88Z" transform="translate(-1.33 -1.41)"/><path class="b" d="M1273.42,769.52c1.34-27.89-2-55.45-6.71-82.81-3.36-19.61,2.72-34.72,18.56-46.17,24.66-17.83,51.64-31.51,79.32-43.9a8.32,8.32,0,0,1,2.93-.15c0,55.9-.07,111.81.13,167.71,0,4.53-.91,5.49-5.45,5.45C1332.61,769.39,1303,769.52,1273.42,769.52Z" transform="translate(-1.33 -1.41)"/><path class="a" d="M1367.52,59.2c-8.74-4.53-16-11.18-24-16.76-18.17-12.68-37.6-23.53-54.61-37.87-1.15-1-2.24-2-3.35-3.05,25.91,0,51.83.07,77.74-.09,3.38,0,4.4.43,4.34,4.18C1367.37,23.47,1367.52,41.33,1367.52,59.2Z" transform="translate(-1.33 -1.41)"/><path class="a" d="M1.52,151.78c3.77,8.76,7.11,17.73,11.4,26.22,8.13,16.07,8.79,32.24,2,48.76-3.62,8.83-7.6,17.51-13.4,25.19Z" transform="translate(-1.33 -1.41)"/><path class="a" d="M1183.87,1.52c-11.56,13.82-24.72,9-34.91,0Z" transform="translate(-1.33 -1.41)"/><path class="b" d="M608.63,1.52c-21.25,3-42.5,4.86-63.75,0Z" transform="translate(-1.33 -1.41)"/><path class="b" d="M706.61,739.64c-14.07-.24-27.84-1.65-40.51-8.32-16-8.43-17.12-21.64-2.63-32.65,14.65-11.13,32.06-15.81,49.49-20.16,26.31-6.58,52.84-11.27,80.19-7.7,14.18,1.85,26,7.6,35.13,18.81,8.42,10.4,6.8,18.27-5.23,24.11a44.53,44.53,0,0,1-9.87,3.83c-29.13,6.22-57.36,16.28-87,20.41C719.73,738.88,713.15,739.1,706.61,739.64Z" transform="translate(-1.33 -1.41)"/><path class="b" d="M1094.74,720.48c-4.07-.12-7.29-.07-10.5-1.25-7.24-2.67-13.5-6.56-14.64-14.73-1.09-7.81,3.49-13.44,9.42-17.84,15.43-11.43,33.37-17.78,50.9-24.93,18.48-7.53,36.95-15.12,56.8-18.48,5-.85,10.06-1.24,15,0,7.79,2,9.54,6.58,5.54,13.5a46.93,46.93,0,0,1-11.63,12.89c-26.57,21.38-55.41,38.79-88.31,48.72C1103,719.68,1098.58,720.93,1094.74,720.48Z" transform="translate(-1.33 -1.41)"/><path class="b" d="M737.45,565.35a22.52,22.52,0,0,1-14.54-4c-4.1-3-3.68-6.88,1.11-8.5a24.52,24.52,0,0,1,22.3,2.89c4.27,2.87,3.62,6.27-1.09,8.28A16.92,16.92,0,0,1,737.45,565.35Z" transform="translate(-1.33 -1.41)"/></svg>