<svg xmlns="http://www.w3.org/2000/svg" viewBox="0 0 1943.02 1093.1"><defs><style>.a{fill:#ffffff;}.b{fill:#41c7f6;}</style></defs><title>1800f_00303</title><path class="a" d="M-88,931.92H-244.36c-.18-6.7-4.37-11.64-7.93-16.61-8.72-12.23-18.78-23-34.57-25.89v-126c19-24.66,36.5-50.32,51.65-77.46,19.31-34.6,26.5-72.91,31.75-111.57,3.74-27.57,7.21-55.07,18.42-80.93,5.12-11.81,9.7-23.85,13.63-36.14,8.76-27.36,3-50.7-18.74-69.79-8.95-7.85-19-14.22-29.09-20.44-13.67-8.41-25.43-18.95-36.33-30.67-11.39-12.24-20.87-26-31.29-38.95q0-225.92-.12-451.82c0-5.16.67-6.75,6.45-6.73,80.86.26,161.72.18,242.59.18,1.1,3.34,2,6.79,3.37,10,4.06,9.23,12.34,14.66,21.55,13.38,19.68-2.74,36.68-11.78,52.48-23.37H1520.81c29.33,59.34,33.45,122.68,29.75,187.28-2.17,38-.84,75.75,7.76,113.06,7.1,30.77,19.67,59.42,32.91,87.87,7.86,16.9,13.22,34.35,11.76,53.44-1.53,20-14,35.52-33.59,39.68-14.74,3.14-29.76,2.24-44.57.65-36.5-3.91-72.3-11.76-107.8-20.87-28.87-7.41-58-14.33-84.56-28.58-23.75-12.73-37.69-31.85-39.73-59.45-1-13.9-.89-27.77-1.25-41.66-.84-33.16-7-65.17-25.18-93.27a1057.77,1057.77,0,0,1-65.18-117.15,79.52,79.52,0,0,0-16.52-22.54c-13.08-12.68-27.18-12.41-39.77,1A110.8,110.8,0,0,0,1129-39.3c-17.22,30.79-29.31,63.82-42,96.56-6,15.38-12.56,30.47-24.6,42.27-11.66,11.42-22.54,9.07-28.7-6-4.12-10.05-7.35-20.45-12.27-30.19-10.23-20.22-26.31-30.47-49.22-30.43-16.31,0-32.25,2.56-48,6-37,8-74.31,13.56-112.08,8C765,40,725.07,20.76,701.26-23.38c-6.6-12.23-12.89-24.69-20.4-36.34C672.07-73.35,662.28-73,653-59.7c-6.89,9.88-11.08,21.07-14,32.59C625,27.3,613.89,82.25,610.62,138.48c-1.77,30.5,4,59.26,21,85.39A317.63,317.63,0,0,0,689.2,290c13.34,11.66,27.12,22.84,43.32,30.4,26.25,12.24,54.19,13.5,82.44,11.89,30.85-1.76,60.89-9.39,91.52-12.87,27.75-3.15,53.37,1.46,76,18.7,12.27,9.35,24.73,18.44,36.88,27.95,33.71,26.4,68.21,51.66,107.69,68.92,55.86,24.42,113.18,45,171.37,63.14,24.83,7.75,50.2,13.88,74.24,24.08,8.42,3.58,16.42,7.9,22.74,14.74,9.3,10.05,8.23,21.85-2.74,30.09-5.11,3.84-10.93,6.26-17,8.28-16.35,5.47-33.34,8.23-50.08,12.07-24.76,5.66-48.76,12.75-69.3,29-30.52,24.15-61.73,47.44-92.49,71.3-42,32.59-87,60.78-131,90.48-37,25-65.18,56.49-76.82,100.72-4.59,17.43-8.22,34.93-4.34,53H792.28a7.2,7.2,0,0,1-.12-2.25C799.31,904,794,879,787.58,854.26c-5.28-20.19-16.62-29.68-36.93-31.09-9.55-.67-19.17,1.14-28.48,3.37-48.31,11.55-96.62,13.72-145.71,4.05-40.37-8-81.12-14.14-121.86-20-41.12-5.9-81.8-13.2-120.86-27.79C293.4,767.74,253.49,751.88,221,722.1c-7.82-7.17-16-14-24.3-20.57-24.17-19-50.31-34.21-81.6-37.34-27.59-2.76-49.81,9.3-53.37,38.68-.63,5.26-1.71,10.47-2.61,15.69-4.62,26.8-11,52.91-26.64,75.91-13.14,19.38-29,36.26-46,52.26-18.37,17.35-37.66,33.77-54.69,52.5C-76.87,908.8-84.89,918.91-88,931.92ZM594.82,343.69a511.56,511.56,0,0,0-4.32-53.61c-4.46-33.66-13-65.91-31.71-94.79-18.36-28.29-40.13-53.91-62.24-79.24a95.65,95.65,0,0,0-25.86-20.84c-21.42-11.87-41.37-7.82-56.34,11.55-11.24,14.54-16.92,31.51-21.26,49-7.47,30.1-8.25,61-10.4,91.72-3.14,44.86-10.23,88.88-26.94,130.85C331.1,440.26,299.14,497,242.47,536.05a107.42,107.42,0,0,0-30.36,31.49C200,587,202,606.76,218.11,622.81c20.13,20.06,45.41,26.58,72.84,26,27.09-.62,51.35-11.1,73.87-25,34.63-21.38,69.57-42.21,104.61-62.9,14.6-8.62,28.71-18.07,41.2-29.59C567.18,479.16,589.89,412.28,594.82,343.69Z" transform="translate(286.98 161.06)"/><path class="b" d="M951.65,931.92c-3.88-18.12-.25-35.62,4.34-53,11.64-44.23,39.86-75.75,76.82-100.72,44-29.7,89-57.89,131-90.48,30.76-23.86,62-47.15,92.49-71.3,20.54-16.25,44.54-23.34,69.3-29,16.74-3.84,33.73-6.6,50.08-12.07,6-2,11.85-4.44,17-8.28,11-8.24,12-20,2.74-30.09-6.32-6.84-14.32-11.16-22.74-14.74-24-10.2-49.41-16.33-74.24-24.08-58.19-18.17-115.51-38.72-171.37-63.14-39.48-17.26-74-42.52-107.69-68.92-12.15-9.51-24.61-18.6-36.88-27.95-22.64-17.24-48.26-21.85-76-18.7-30.63,3.48-60.67,11.11-91.52,12.87-28.25,1.61-56.19.35-82.44-11.89-16.2-7.56-30-18.74-43.32-30.4a317.63,317.63,0,0,1-57.63-66.11c-17-26.13-22.72-54.89-21-85.39C613.89,82.25,625,27.3,639-27.11c3-11.52,7.15-22.71,14-32.59,9.28-13.33,19.07-13.65,27.86,0,7.51,11.65,13.8,24.11,20.4,36.34C725.07,20.76,765,40,812.05,46.91c37.77,5.55,75.07,0,112.08-8,15.8-3.42,31.74-5.95,48-6,22.91,0,39,10.21,49.22,30.43,4.92,9.74,8.15,20.14,12.27,30.19,6.16,15.06,17,17.41,28.7,6,12-11.8,18.62-26.89,24.6-42.27,12.74-32.74,24.83-65.77,42-96.56a110.8,110.8,0,0,1,15.82-22.17c12.59-13.36,26.69-13.63,39.77-1a79.52,79.52,0,0,1,16.52,22.54,1057.77,1057.77,0,0,0,65.18,117.15c18.21,28.1,24.34,60.11,25.18,93.27.36,13.89.22,27.76,1.25,41.66,2,27.6,16,46.72,39.73,59.45,26.57,14.25,55.69,21.17,84.56,28.58,35.5,9.11,71.3,17,107.8,20.87,14.81,1.59,29.83,2.49,44.57-.65,19.55-4.16,32.06-19.66,33.59-39.68,1.46-19.09-3.9-36.54-11.76-53.44-13.24-28.45-25.81-57.1-32.91-87.87-8.6-37.31-9.93-75.06-7.76-113.06,3.7-64.6-.42-127.94-29.75-187.28,43,0,86,.11,129-.15,5.21,0,6.22,1,6.22,6.22q-.24,480.38-.14,960.75c-12.32-16-24.88-31.76-40.77-44.59-35.64-28.76-73.87-33.46-112-12.25-32.76,18.23-61.59,41.42-84,71.91-27,36.84-52.55,74.75-80.51,110.91Z" transform="translate(286.98 161.06)"/><path class="b" d="M-88,931.92c3.14-13,11.16-23.12,19.86-32.69,17-18.73,36.32-35.15,54.69-52.5,16.94-16,32.84-32.88,46-52.26,15.6-23,22-49.11,26.64-75.91.9-5.22,2-10.43,2.61-15.69,3.56-29.38,25.78-41.44,53.37-38.68,31.29,3.13,57.43,18.32,81.6,37.34,8.33,6.56,16.48,13.4,24.3,20.57,32.47,29.78,72.38,45.64,112.72,60.72,39.06,14.59,79.74,21.89,120.86,27.79,40.74,5.84,81.49,12,121.86,20,49.09,9.67,97.4,7.5,145.71-4.05,9.31-2.23,18.93-4,28.48-3.37,20.31,1.41,31.65,10.9,36.93,31.09C794,879,799.31,904,792.16,929.67a7.2,7.2,0,0,0,.12,2.25Z" transform="translate(286.98 161.06)"/><path class="a" d="M1338.68,931.92c28-36.16,53.5-74.07,80.51-110.91,22.36-30.49,51.19-53.68,84-71.91,38.12-21.21,76.35-16.51,112,12.25,15.89,12.83,28.45,28.57,40.77,44.59,0,40.22-.1,80.45.13,120.66,0,4.54-.92,5.45-5.45,5.44Q1494.64,931.8,1338.68,931.92Z" transform="translate(286.98 161.06)"/><path class="b" d="M-286.86,297.49c10.42,13,19.9,26.71,31.29,38.95,10.9,11.72,22.66,22.26,36.33,30.67,10.11,6.22,20.14,12.59,29.09,20.44,21.76,19.09,27.5,42.43,18.74,69.79-3.93,12.29-8.51,24.33-13.63,36.14-11.21,25.86-14.68,53.36-18.42,80.93-5.25,38.66-12.44,77-31.75,111.57-15.15,27.14-32.69,52.8-51.65,77.46Z" transform="translate(286.98 161.06)"/><path class="b" d="M39.46-160.88C23.66-149.29,6.66-140.25-13-137.51c-9.21,1.28-17.49-4.15-21.55-13.38-1.41-3.2-2.27-6.65-3.37-10Z" transform="translate(286.98 161.06)"/><path class="b" d="M-286.86,889.42c15.79,2.92,25.85,13.66,34.57,25.89,3.56,5,7.75,9.91,7.93,16.61-12.9,0-25.81-.15-38.7.1-3.27.06-4-.63-3.9-3.9C-286.72,915.22-286.86,902.32-286.86,889.42Z" transform="translate(286.98 161.06)"/><path class="b" d="M594.82,343.69c-4.93,68.59-27.64,135.47-84.19,187.59-12.49,11.52-26.6,21-41.2,29.59-35,20.69-70,41.52-104.61,62.9-22.52,13.9-46.78,24.38-73.87,25-27.43.62-52.71-5.9-72.84-26-16.12-16-18.12-35.82-6-55.27a107.42,107.42,0,0,1,30.36-31.49c56.67-39.1,88.63-95.79,113.28-157.71,16.71-42,23.8-86,26.94-130.85,2.15-30.71,2.93-61.62,10.4-91.72,4.34-17.5,10-34.47,21.26-49,15-19.37,34.92-23.42,56.34-11.55a95.65,95.65,0,0,1,25.86,20.84c22.11,25.33,43.88,51,62.24,79.24,18.73,28.88,27.25,61.13,31.71,94.79A511.56,511.56,0,0,1,594.82,343.69Z" transform="translate(286.98 161.06)"/></svg>