<svg xmlns="http://www.w3.org/2000/svg" viewBox="0 0 1943.03 1093.11"><defs><style>.a{fill:#ffffff;}.b{fill:#41c7f6;}</style></defs><title>1800f_00347</title><path class="a" d="M1655.9,740.68c0,61.44-.09,122.89.14,184.34,0,5.56-1,7.05-6.9,7.05q-694.87-.26-1389.75-.15H-133.56a55,55,0,0,0-4.1-4.38c-30.42-26.42-63.41-49.32-97.64-70.45-17.33-10.71-33.18-23-45.62-39.27-1.48-1.94-3-4.18-5.94-4.29V648.09a41.13,41.13,0,0,0,4.27-1.43c30.09-13.88,59.81-28.48,89-44.16,24.05-12.92,47.73-26.56,72.8-37.53,47.62-20.82,95.86-25.37,145.26-6.62,18.43,7,37,13.75,55.5,20.46a117.32,117.32,0,0,0,23.49,5.9c25.34,3.6,41.67-4.44,54.1-26.84,10.26-18.49,15.9-38.8,22.9-58.55,9.29-26.25,23.42-48.74,47.62-63.71,27-16.73,56.5-27,87.84-31.71,33.09-5,66.53-5,99.86-6.3,34.17-1.34,65.61-10,93.73-30.39,31.93-23.14,60-50.39,87-78.87,9.58-10.11,18.8-20.56,25.81-32.67,19.22-33.21,19.84-67.46,3.81-101.73-10.68-22.82-38.88-34.46-68.18-30.5-27.13,3.68-51.53,14.35-74.59,28.41-41.91,25.54-85.62,47.21-133.73,58-38.25,8.55-76.48,16.79-113.67,29.41a95.55,95.55,0,0,1-36.59,5.31c-12.09-.75-21.16-6.09-26.64-17.11-6-12.15-7-25.25-6.59-38.45.92-26.47,7.11-52,14.6-77.26C195.38,62.28,213.81,14,227.35-35.77,238.62-77.21,250.13-118.6,258-160.88h822.64c-.11,8.34-.42,16.69-.29,25,.43,28.08-.18,56.09-4.31,83.95-5.31,35.87-17.62,67.29-48.53,90C1006.84,53.27,987.29,70.37,971,90.62c-14.69,18.28-24.23,38.81-14.49,61.71,12.32,28.93,34,48.59,66.27,54.12,13.54,2.33,27.2,2,40.82.54,30.82-3.23,58.92,2.28,81.89,24.9,4.86,4.79,10.2,9.07,15.1,13.81,16.58,16,32.93,32.16,56.34,38.33,25.65,6.75,51.07,14.36,76.69,21.23,46.7,12.51,94.8,17.85,142.11,27.23,27.52,5.45,54.91,11.28,80.86,22.56,20,8.66,31.62,23.41,36.17,44.5,3.09,14.36,4.91,28.87,6.93,43.38,5.45,39.06-2.64,74.34-28.69,104.78-7.07,8.26-13.65,16.93-20.73,25.18-26.3,30.65-50.08,62.91-65.24,100.75-16.39,41-24.51,83.84-28.63,127.49-1.79,18.91-1,37.92,5.45,56.21,8,22.74,22.27,29.25,44.28,20A92.69,92.69,0,0,0,1477,872c27-15.68,50.73-35.92,74.75-55.6A1095.59,1095.59,0,0,1,1655.9,740.68Zm-720-256.87c53.56,1.49,100.44-11,147-37.6,26.88-15.32,53.1-31.48,74.3-54.48,11.78-12.78,19.46-27.47,21.47-45,2.54-22.23-11.72-40-34-41.64a77.91,77.91,0,0,0-50.4,13.14c-64.73,43.23-133.31,79.39-204.3,111.13-28.18,12.6-57.45,18.52-88.52,16-20.38-1.65-40.87-3.68-61.35-2.38-59.76,3.78-111.48,25.63-152,70.54-15.63,17.33-25.14,38.41-30.27,61.24-2.12,9.42,2.94,14.16,12.45,11.82a150.36,150.36,0,0,0,17.29-5.51c15.56-5.89,30.38-13.9,47.15-16.28,15.29-2.17,30.68-2.74,46.08-3.42C708,560.17,733.83,554,757,539c13.55-8.81,26.72-18.22,40.11-27.29,28.42-19.23,59.21-30.13,94.12-28C906,484.56,921,483.81,935.89,483.81ZM534.64,651.59c-.39-6.55-.25-13.17-1.28-19.61-1.56-9.77-5.67-12.8-15.24-10.66-29.09,6.5-56.83,16.31-79.94,36.07-13.77,11.77-25.82,25-31.31,42.83-6.4,20.78,2.85,39.31,23.3,46.81,36.73,13.46,83.5-9,98.05-47.11A104.82,104.82,0,0,0,534.64,651.59ZM184.27,880c.51-4.48-.33-9.76-1.68-14.87-6-22.75-16.54-42.47-38.76-53.3-18-8.77-35.38,1.67-36.86,21.63-.7,9.51.62,18.74,4.82,27.3,10.35,21.12,24.12,39.22,46.63,48.54,10,4.14,17.62.55,22.34-9.26C183.67,894,184.6,887.54,184.27,880Z" transform="translate(287 161.03)"/><path class="b" d="M258-160.88c-7.89,42.28-19.4,83.67-30.67,125.11-13.54,49.8-32,98.05-46.62,147.49-7.49,25.26-13.68,50.79-14.6,77.26-.45,13.2.55,26.3,6.59,38.45,5.48,11,14.55,16.36,26.64,17.11A95.55,95.55,0,0,0,236,239.23c37.19-12.62,75.42-20.86,113.67-29.41,48.11-10.76,91.82-32.43,133.73-58,23.06-14.06,47.46-24.73,74.59-28.41,29.3-4,57.5,7.68,68.18,30.5,16,34.27,15.41,68.52-3.81,101.73-7,12.11-16.23,22.56-25.81,32.67-27,28.48-55,55.73-87,78.87C481.4,387.57,450,396.26,415.79,397.6c-33.33,1.3-66.77,1.32-99.86,6.3-31.34,4.71-60.8,15-87.84,31.71-24.2,15-38.33,37.46-47.62,63.71-7,19.75-12.64,40.06-22.9,58.55-12.43,22.4-28.76,30.44-54.1,26.84A117.32,117.32,0,0,1,80,578.81c-18.54-6.71-37.07-13.46-55.5-20.46-49.4-18.75-97.64-14.2-145.26,6.62-25.07,11-48.75,24.61-72.8,37.53-29.2,15.68-58.92,30.28-89,44.16a41.13,41.13,0,0,1-4.27,1.43V92.59c5.07,3.73,10.13,7.48,15.22,11.18,20,14.55,39.34,30.11,62.49,39.65,9.65,4,16.15,2.52,23-5.36a52.35,52.35,0,0,0,8.78-14c12.22-28.93,20.11-59.25,28.34-89.42,10.67-39.09,25.61-76,50-108.73C-81.93-97-63.7-118.89-44.69-140.19c5.75-6.45,13.18-11.82,15.85-20.69Z" transform="translate(287 161.03)"/><path class="b" d="M1655.9,740.68a1095.59,1095.59,0,0,0-104.15,75.76c-24,19.68-47.72,39.92-74.75,55.6a92.69,92.69,0,0,1-10.87,5.33c-22,9.22-36.32,2.71-44.28-20-6.4-18.29-7.24-37.3-5.45-56.21,4.12-43.65,12.24-86.54,28.63-127.49,15.16-37.84,38.94-70.1,65.24-100.75,7.08-8.25,13.66-16.92,20.73-25.18,26-30.44,34.14-65.72,28.69-104.78-2-14.51-3.84-29-6.93-43.38-4.55-21.09-16.22-35.84-36.17-44.5-25.95-11.28-53.34-17.11-80.86-22.56-47.31-9.38-95.41-14.72-142.11-27.23-25.62-6.87-51-14.48-76.69-21.23-23.41-6.17-39.76-22.31-56.34-38.33-4.9-4.74-10.24-9-15.1-13.81-23-22.62-51.07-28.13-81.89-24.9-13.62,1.43-27.28,1.79-40.82-.54-32.22-5.53-53.95-25.19-66.27-54.12-9.74-22.9-.2-43.43,14.49-61.71,16.29-20.25,35.84-37.35,56.53-52.54,30.91-22.69,43.22-54.11,48.53-90,4.13-27.86,4.74-55.87,4.31-83.95-.13-8.34.18-16.69.29-25h217c4.93,10.79,9.44,21.81,14.88,32.34Q1339-77.36,1366-26.48c6.39,12.05,13.33,23.81,21.77,34.59C1406.49,32,1430.26,45,1461.28,42.45c17.16-1.41,30.88-8.75,37.53-25.12,13.63-33.52,20.06-68.68,21.69-104.74a258.62,258.62,0,0,0-7.28-73.47c45.54,0,91.07.11,136.6-.15,5.21,0,6.22,1,6.22,6.22Q1655.8,292.94,1655.9,740.68Z" transform="translate(287 161.03)"/><path class="a" d="M-28.84-160.88c-2.67,8.87-10.1,14.24-15.85,20.69C-63.7-118.89-81.93-97-99-74.11-123.42-41.4-138.36-4.47-149,34.62c-8.23,30.17-16.12,60.49-28.34,89.42a52.35,52.35,0,0,1-8.78,14c-6.85,7.88-13.35,9.33-23,5.36-23.15-9.54-42.5-25.1-62.49-39.65-5.09-3.7-10.15-7.45-15.22-11.18q0-123.9-.12-247.79c0-4.75,1.08-5.81,5.81-5.8Q-155-160.76-28.84-160.88Z" transform="translate(287 161.03)"/><path class="a" d="M1513.22-160.88a258.62,258.62,0,0,1,7.28,73.47c-1.63,36.06-8.06,71.22-21.69,104.74-6.65,16.37-20.37,23.71-37.53,25.12-31,2.54-54.79-10.49-73.48-34.34-8.44-10.78-15.38-22.54-21.77-34.59q-26.94-50.91-53.45-102.06c-5.44-10.53-9.95-21.55-14.88-32.34Z" transform="translate(287 161.03)"/><path class="b" d="M-286.86,813.53c2.93.11,4.46,2.35,5.94,4.29,12.44,16.32,28.29,28.56,45.62,39.27,34.23,21.13,67.22,44,97.64,70.45a55,55,0,0,1,4.1,4.38c-49.19,0-98.39-.07-147.58.11-4.61,0-5.89-.89-5.85-5.74C-286.75,888.7-286.86,851.12-286.86,813.53Z" transform="translate(287 161.03)"/><path class="b" d="M935.89,483.81c-14.9,0-29.85.75-44.71-.15-34.91-2.11-65.7,8.79-94.12,28C783.67,520.75,770.5,530.16,757,539c-23.12,15-49,21.2-76.18,22.38-15.4.68-30.79,1.25-46.08,3.42-16.77,2.38-31.59,10.39-47.15,16.28a150.36,150.36,0,0,1-17.29,5.51c-9.51,2.34-14.57-2.4-12.45-11.82,5.13-22.83,14.64-43.91,30.27-61.24,40.53-44.91,92.25-66.76,152-70.54,20.48-1.3,41,.73,61.35,2.38,31.07,2.5,60.34-3.42,88.52-16,71-31.74,139.57-67.9,204.3-111.13a77.91,77.91,0,0,1,50.4-13.14c22.32,1.67,36.58,19.41,34,41.64-2,17.57-9.69,32.26-21.47,45-21.2,23-47.42,39.16-74.3,54.48C1036.33,472.77,989.45,485.3,935.89,483.81Z" transform="translate(287 161.03)"/><path class="b" d="M534.64,651.59a104.82,104.82,0,0,1-6.42,48.33C513.67,738,466.9,760.49,430.17,747c-20.45-7.5-29.7-26-23.3-46.81,5.49-17.88,17.54-31.06,31.31-42.83,23.11-19.76,50.85-29.57,79.94-36.07,9.57-2.14,13.68.89,15.24,10.66C534.39,638.42,534.25,645,534.64,651.59Z" transform="translate(287 161.03)"/><path class="b" d="M184.27,880c.33,7.54-.6,14-3.51,20-4.72,9.81-12.33,13.4-22.34,9.26-22.51-9.32-36.28-27.42-46.63-48.54-4.2-8.56-5.52-17.79-4.82-27.3,1.48-20,18.86-30.4,36.86-21.63,22.22,10.83,32.74,30.55,38.76,53.3C183.94,870.24,184.78,875.52,184.27,880Z" transform="translate(287 161.03)"/></svg>