<svg xmlns="http://www.w3.org/2000/svg" viewBox="0 0 1943.06 1093.11"><defs><style>.a{fill:#ffffff;}.b{fill:#41c7f6;}</style></defs><title>1800f_00380</title><path class="a" d="M-286.86,554V277.76c2.58-.45,3.42-2.83,4.8-4.51,9.13-11.16,18.06-22.47,27.26-33.56C-215.92,192.82-170,154.53-113,132.27-74,117-37.83,97.85-4.33,72.93c18.41-13.69,39.1-23.51,62-27.28,57.05-9.41,114.1-10.94,171,1.71,32.81,7.29,62.22,20.32,84.78,46.57,9.36,10.88,19.6,21.07,30.06,31C364.7,145.15,387,164.57,406,186.77c32.1,37.54,72.36,52.06,120.11,48.27,39.6-3.15,76.65-15.43,111.17-35.11,21.21-12.09,35.87-29.86,45.2-52.39,6.17-14.92,10.76-30.49,19.19-44.5,19.27-32,43.84-60,66.83-89.13,13.79-17.49,28.16-34.59,34.67-56.49C809-62.29,812-82.3,804.11-102c-11.8-29.37-43.7-44.9-76.85-38.45-19.9,3.86-36.79,13.78-52.79,25.52-20,14.66-39.63,29.74-59.68,44.28-25.87,18.76-52.66,36-83.92,44.62-33.94,9.34-68.44,9-103,4.39-19.7-2.61-37.7-10-51.63-24.76-30.22-32.1-49.17-69-46.92-114.44H1092.8a532.75,532.75,0,0,0,50.72,45.55C1189-79,1239.92-55.74,1298.34-49.54c49.58,5.27,99.35,6.41,149.1,8.22,35.35,1.28,70.8,1,105.87,6.56C1590-28.9,1608.18-11,1615,25.19a527.11,527.11,0,0,1,6.84,53.35c2.37,27.75,3.17,55.5-1.76,83.14-8,44.73-27.28,85-49.15,124.19-22.3,40-45.22,79.58-62,122.33-9.42,24-18.09,48.29-31.56,70.5-19,31.36-40.36,60.75-70.7,82.2-18.92,13.38-39.66,23.93-63.59,19.69-41.87-7.42-79.42-25-107.91-57.14a409.44,409.44,0,0,1-65.61-99.85c-13.42-29-14-58.55-1.71-88.26,11.16-27,27.17-51.36,41.85-76.42,11.68-19.93,22.11-40.36,27.85-62.88,4.12-16.13,6-32.28-.13-48.44-7-18.24-24.46-28.87-43.76-26.57-19.66,2.33-34.3,13.72-46.35,27.92-27.8,32.76-55.19,65.9-81.79,99.64-29.28,37.14-41.58,79.82-37.55,127a498,498,0,0,0,33.74,141.85c24.12,60.84,51.41,120.39,73.73,182,9.58,26.41,26,48.43,47.35,66.73,6.72,5.75,13.15,11.84,19.69,17.8,16.35,14.94,21.64,33.79,18.53,55.1-4.51,30.81-8.42,61.6-5.27,92.83H34.91c1-18.28-1-36.41-4.41-54.25-19.66-104-72.61-184-168.6-232.81-20.74-10.54-41.66-20.7-62.34-31.35C-231.77,597.37-261.18,578.37-286.86,554Z" transform="translate(287.02 161.03)"/><path class="b" d="M1215.74,931.92c-3.15-31.23.76-62,5.27-92.83,3.11-21.31-2.18-40.16-18.53-55.1-6.54-6-13-12-19.69-17.8-21.37-18.3-37.77-40.32-47.35-66.73-22.32-61.58-49.61-121.13-73.73-182A498,498,0,0,1,1028,375.64c-4-47.23,8.27-89.91,37.55-127,26.6-33.74,54-66.88,81.79-99.64,12-14.2,26.69-25.59,46.35-27.92,19.3-2.3,36.78,8.33,43.76,26.57,6.18,16.16,4.25,32.31.13,48.44-5.74,22.52-16.17,43-27.85,62.88C1195,284,1179,308.33,1167.85,335.34c-12.29,29.71-11.71,59.22,1.71,88.26a409.44,409.44,0,0,0,65.61,99.85c28.49,32.15,66,49.72,107.91,57.14,23.93,4.24,44.67-6.31,63.59-19.69,30.34-21.45,51.68-50.84,70.7-82.2,13.47-22.21,22.14-46.52,31.56-70.5,16.8-42.75,39.72-82.37,62-122.33,21.87-39.18,41.15-79.46,49.15-124.19,4.93-27.64,4.13-55.39,1.76-83.14A527.11,527.11,0,0,0,1615,25.19c-6.84-36.18-25-54.09-61.71-59.95-35.07-5.6-70.52-5.28-105.87-6.56-49.75-1.81-99.52-3-149.1-8.22C1239.92-55.74,1189-79,1143.52-115.33a532.75,532.75,0,0,1-50.72-45.55q278.13,0,556.27-.15c5.69,0,7,1.29,7,7q-.26,300.14-.14,600.28a37.76,37.76,0,0,1-5.15,1.23c-29.17,2.91-55.11,14-78.7,31-14.26,10.32-27.79,21.4-34.69,38.21-11.68,28.43-14.61,57.59-5.67,87.41,8.52,28.42,22.47,54.61,33.9,81.84,11.75,28,22.17,56.41,25.62,86.86,3.41,30.16,3.54,60.46,4.27,90.75.55,23,2.19,45.86,7.29,68.37Z" transform="translate(287.02 161.03)"/><path class="b" d="M329.36-160.88c-2.25,45.47,16.7,82.34,46.92,114.44,13.93,14.79,31.93,22.15,51.63,24.76,34.52,4.56,69,4.95,103-4.39,31.26-8.6,58-25.86,83.92-44.62,20.05-14.54,39.71-29.62,59.68-44.28,16-11.74,32.89-21.66,52.79-25.52,33.15-6.45,65,9.08,76.85,38.45,7.93,19.74,4.9,39.75-1,59.46-6.51,21.9-20.88,39-34.67,56.49-23,29.17-47.56,57.14-66.83,89.13-8.43,14-13,29.58-19.19,44.5-9.33,22.53-24,40.3-45.2,52.39-34.52,19.68-71.57,32-111.17,35.11-47.75,3.79-88-10.73-120.11-48.27-19-22.2-41.28-41.62-62.53-61.82-10.46-10-20.7-20.14-30.06-31-22.56-26.25-52-39.28-84.78-46.57-56.88-12.65-113.93-11.12-171-1.71-22.86,3.77-43.55,13.59-62,27.28C-37.83,97.85-74,117-113,132.27c-57,22.26-102.93,60.55-141.81,107.42-9.2,11.09-18.13,22.4-27.26,33.56-1.38,1.68-2.22,4.06-4.8,4.51q0-216.13-.16-432.26c0-5.65,1.37-6.52,6.67-6.52Q24.51-160.78,329.36-160.88Z" transform="translate(287.02 161.03)"/><path class="b" d="M-286.86,554c25.68,24.38,55.09,43.38,86.42,59.52,20.68,10.65,41.6,20.81,62.34,31.35,96,48.77,148.94,128.84,168.6,232.81,3.38,17.84,5.37,36,4.41,54.25H-273.2c-3.42-5.32-7.61-9.78-13.66-12.14Z" transform="translate(287.02 161.03)"/><path class="a" d="M1602.77,931.92c-5.1-22.51-6.74-45.41-7.29-68.37-.73-30.29-.86-60.59-4.27-90.75-3.45-30.45-13.87-58.85-25.62-86.86-11.43-27.23-25.38-53.42-33.9-81.84-8.94-29.82-6-59,5.67-87.41,6.9-16.81,20.43-27.89,34.69-38.21,23.59-17.06,49.53-28.11,78.7-31a37.76,37.76,0,0,0,5.15-1.23q0,239.81.14,479.62c0,5.19-1,6.37-6.22,6.23C1634.15,931.64,1618.46,931.92,1602.77,931.92Z" transform="translate(287.02 161.03)"/><path class="a" d="M-286.86,919.78c6.05,2.36,10.24,6.82,13.66,12.14h-1.52C-286.86,931.92-286.86,931.92-286.86,919.78Z" transform="translate(287.02 161.03)"/></svg>