<svg xmlns="http://www.w3.org/2000/svg" viewBox="0 0 1943.78 1093.83"><defs><style>.a{fill:#ffffff;}.b{fill:#41c7f6;}</style></defs><title>1800f_00140</title><path class="a" d="M-286.86,327.84V277.76c2.62.77,4.95-.5,7.38-1.07,40.61-9.49,81.14-19.42,122.47-25.24,28.54-4,57.4-5,86.09-7.52C-16,239.08,39,235.66,94,232.24c34.59-2.16,69.22-2.71,103.86-3.14,30.83-.39,59.36-8.73,85.27-25.61,13.13-8.56,26.13-17.32,39.32-25.79,19.92-12.79,40.89-22.23,65.46-20,15.84,1.45,30.69,6.42,44.9,13.15,50.3,23.81,99.4,50,148,77.08,44.28,24.66,91.11,32.14,140.56,27.26,39.23-3.88,78.39-8.62,117.91-6.11a264.25,264.25,0,0,0,44.67-1.2c36.29-3.86,72.56-6,109-2.21a292.72,292.72,0,0,1,102.06,29.8c17.55,8.8,27.92,23,30.87,42.35,2.06,13.58,1.49,27.19-.55,40.75-2.72,18.07-9.11,35.21-13.56,52.84-4.59,18.17-2.35,35,7.94,50.82,22.24,34.15,46.62,66.76,71.17,99.23,12.85,17,27.3,32.51,44.92,44.85,31.87,22.31,69.42,22.2,100.1-1.35,18.82-14.45,29.22-34.58,34.68-57.3,9.85-40.92,6.39-81.82-.52-122.71-3.71-21.91-9-43.59-9.8-65.93-1.31-37.14,6.25-72.87,17.53-108,11.53-35.9,27.62-70.08,39.88-105.7,4.94-14.32,10.3-28.62,10.71-44,.48-17.52-6.64-24.74-24-24.59-18.17.16-34.58,7-50.76,14.16-26.58,11.78-51.87,26.33-79.17,36.56-9.24,3.46-18.49,7-28.3,8.36-10.22,1.47-14.91-3.78-12.77-13.77a78.05,78.05,0,0,1,5.34-15c6.42-14.55,13.91-28.65,18.45-44,4.78-16.18,3-30.68-8.43-43.92-11.62-13.43-24.66-25.39-37.07-38-17-17.25-31.72-36.1-41.63-58.28-8.23-18.42-22.56-26.49-42.07-26.3-51.26.52-99.84,13.55-147.33,31.71-23.36,8.93-45.67,20.58-69.86,27.33C871.53-13.45,832-16.73,792.53-21.9c-29.81-3.9-59.49-8.78-89.47-11.29-38.73-3.23-75.93,3.8-112.64,15.62C561.94-8.39,532.92-1,502.55-6.11c-26.73-4.45-48.43-16.39-58.62-43.2-5.14-13.52-7.42-27.79-8.3-42.25-1.44-23.88,3.83-46.71,10.6-69.32h906.11c34.88,16.28,61.7,43.48,91.08,67.23A290.49,290.49,0,0,0,1522.48-48c14.6,5.59,29,11.66,43.08,18.63,18.28,9.07,31.08,22.77,38.62,41.78,9.78,24.69,21.84,48.3,35,71.36,5.47,9.6,9.82,19.85,16.74,28.6V412.84a15,15,0,0,0-1.82,2.35c-18.67,36.73-36.92,73.65-54.35,111-40.53,86.86-54,177.71-39.07,272,7.58,48,19.73,95.24,52.74,133.7h-1882c-.28-2,1.25-3.21,2.26-4.59,18-24.44,36.26-48.61,57.09-70.75,32.6-34.65,46.25-74.68,36.92-122.4-6-30.44-14-60.53-16.63-91.62-3.58-42-4.46-83.73,4.95-125.15,3.49-15.38,5.24-31,2.69-46.65-8.47-51.85-34.92-93.07-75.76-125.34C-266.15,338.3-275.63,331.46-286.86,327.84Zm1167,87.73c.49-7.12,0-14.9-3.39-22.23-6.8-14.91-23.74-16.6-33.42-3.47-7.77,10.52-10.64,22.78-12.8,35.27-3.58,20.64-6,41.59-15.54,60.67-6.46,12.88-13.5,25.48-19.63,38.51-8.44,18-14.81,36.45-13.79,56.87A45.8,45.8,0,0,0,826.2,625c28.21.6,60.58-25.44,69.25-54.85,5.7-19.34,2.21-37.71-5-55.48-8.58-21.27-16.6-42.37-13.5-66C878.39,438,880.39,427.27,880.14,415.57ZM117.46,811.69c3.28,0,6.61.34,9.84-.06,9.2-1.14,17.9-3.74,23.79-11.58,8.89-11.83,7.48-27.17-4.65-38.88-24.92-24-55.39-34.39-89.64-33.46a51.32,51.32,0,0,0-30.18,10.88c-13.57,10.43-15.12,25.48-2.53,37C50.42,799.57,83.09,808.1,117.46,811.69Z" transform="translate(287.74 161.03)"/><path class="b" d="M446.23-160.88c-6.77,22.61-12,45.44-10.6,69.32.88,14.46,3.16,28.73,8.3,42.25,10.19,26.81,31.89,38.75,58.62,43.2C532.92-1,561.94-8.39,590.42-17.57c36.71-11.82,73.91-18.85,112.64-15.62,30,2.51,59.66,7.39,89.47,11.29,39.5,5.17,79,8.45,118.14-2.48,24.19-6.75,46.5-18.4,69.86-27.33C1028-69.87,1076.6-82.9,1127.86-83.42c19.51-.19,33.84,7.88,42.07,26.3,9.91,22.18,24.65,41,41.63,58.28,12.41,12.61,25.45,24.57,37.07,38,11.45,13.24,13.21,27.74,8.43,43.92-4.54,15.37-12,29.47-18.45,44a78.05,78.05,0,0,0-5.34,15c-2.14,10,2.55,15.24,12.77,13.77,9.81-1.41,19.06-4.9,28.3-8.36,27.3-10.23,52.59-24.78,79.17-36.56,16.18-7.17,32.59-14,50.76-14.16,17.39-.15,24.51,7.07,24,24.59-.41,15.4-5.77,29.7-10.71,44-12.26,35.62-28.35,69.8-39.88,105.7-11.28,35.1-18.84,70.83-17.53,108,.79,22.34,6.09,44,9.8,65.93,6.91,40.89,10.37,81.79.52,122.71-5.46,22.72-15.86,42.85-34.68,57.3-30.68,23.55-68.23,23.66-100.1,1.35-17.62-12.34-32.07-27.85-44.92-44.85-24.55-32.47-48.93-65.08-71.17-99.23-10.29-15.81-12.53-32.65-7.94-50.82,4.45-17.63,10.84-34.77,13.56-52.84,2-13.56,2.61-27.17.55-40.75-3-19.38-13.32-33.55-30.87-42.35a292.72,292.72,0,0,0-102.06-29.8c-36.42-3.75-72.69-1.65-109,2.21a264.25,264.25,0,0,1-44.67,1.2c-39.52-2.51-78.68,2.23-117.91,6.11-49.45,4.88-96.28-2.6-140.56-27.26-48.58-27-97.68-53.27-148-77.08-14.21-6.73-29.06-11.7-44.9-13.15-24.57-2.25-45.54,7.19-65.46,20-13.19,8.47-26.19,17.23-39.32,25.79-25.91,16.88-54.44,25.22-85.27,25.61-34.64.43-69.27,1-103.86,3.14-55,3.42-110,6.84-164.88,11.69-28.69,2.53-57.55,3.5-86.09,7.52-41.33,5.82-81.86,15.75-122.47,25.24-2.43.57-4.76,1.84-7.38,1.07V18.22a44.14,44.14,0,0,0,6.73-.29c35.23-6.95,69.33-2.88,102.66,9.93,21.41,8.23,42.1,18.65,65.29,21.5,22.75,2.8,43.31-.7,59-19.53C-46.69,22-42.11,13.07-38,3.81c6.38-14.26,10.86-29.41,19.42-42.66C-9.76-52.48,1-57.46,14.28-43,25.43-30.82,31.21-16.2,35-.61c3.67,15.19,5.83,30.89,17.29,42.93,22,23.06,55.92,30.35,86.55,17,33-14.42,61.36-36,86.1-62.08,8.35-8.81,12.9-19.73,14.77-31.84,2.21-14.35,2.2-28.78,1.05-43.11-2.23-27.72-4.44-55.39-.94-83.15Z" transform="translate(287.74 161.03)"/><path class="a" d="M239.81-160.88c-3.5,27.76-1.29,55.43.94,83.15C241.9-63.4,241.91-49,239.7-34.62c-1.87,12.11-6.42,23-14.77,31.84-24.74,26.1-53.05,47.66-86.1,62.08-30.63,13.37-64.6,6.08-86.55-17C40.82,30.28,38.66,14.58,35-.61,31.21-16.2,25.43-30.82,14.28-43,1-57.46-9.76-52.48-18.55-38.85-27.11-25.6-31.59-10.45-38,3.81c-4.14,9.26-8.72,18.15-15.26,26-15.64,18.83-36.2,22.33-59,19.53-23.19-2.85-43.88-13.27-65.29-21.5C-210.8,15.05-244.9,11-280.13,17.93a44.14,44.14,0,0,1-6.73.29c0-57.68.09-115.36-.15-173,0-5.2,1-6.22,6.22-6.22Q-20.49-160.76,239.81-160.88Z" transform="translate(287.74 161.03)"/><path class="b" d="M-286.86,327.84c11.23,3.62,20.71,10.46,29.73,17.58,40.84,32.27,67.29,73.49,75.76,125.34,2.55,15.66.8,31.27-2.69,46.65-9.41,41.42-8.53,83.19-4.95,125.15,2.66,31.09,10.67,61.18,16.63,91.62,9.33,47.72-4.32,87.75-36.92,122.4-20.83,22.14-39.12,46.31-57.09,70.75-1,1.38-2.54,2.55-2.26,4.59-6.07,0-14.51,2.37-17.54-.67s-.67-11.47-.67-17.55Z" transform="translate(287.74 161.03)"/><path class="b" d="M1613.4,931.92c-33-38.46-45.16-85.71-52.74-133.7-14.91-94.32-1.46-185.17,39.07-272,17.43-37.35,35.68-74.27,54.35-111a15,15,0,0,1,1.82-2.35q0,256.5.14,513c0,5.19-1,6.44-6.22,6.22C1637.7,931.58,1625.54,931.92,1613.4,931.92Z" transform="translate(287.74 161.03)"/><path class="b" d="M1655.9,112.32c-6.92-8.75-11.27-19-16.74-28.6-13.14-23.06-25.2-46.67-35-71.36-7.54-19-20.34-32.71-38.62-41.78-14-7-28.48-13-43.08-18.63a290.49,290.49,0,0,1-79.06-45.6c-29.38-23.75-56.2-50.95-91.08-67.23q148.74,0,297.48-.15c5.2,0,6.23,1,6.22,6.22Q1655.74-21.25,1655.9,112.32Z" transform="translate(287.74 161.03)"/><path class="b" d="M880.14,415.57c.25,11.7-1.75,22.41-3.16,33.16-3.1,23.6,4.92,44.7,13.5,66,7.18,17.77,10.67,36.14,5,55.48-8.67,29.41-41,55.45-69.25,54.85a45.8,45.8,0,0,1-44.63-43.84c-1-20.42,5.35-38.91,13.79-56.87,6.13-13,13.17-25.63,19.63-38.51,9.57-19.08,12-40,15.54-60.67,2.16-12.49,5-24.75,12.8-35.27,9.68-13.13,26.62-11.44,33.42,3.47C880.09,400.67,880.63,408.45,880.14,415.57Z" transform="translate(287.74 161.03)"/><path class="b" d="M117.46,811.69c-34.37-3.59-67-12.12-93.37-36.14-12.59-11.48-11-26.53,2.53-37A51.32,51.32,0,0,1,56.8,727.71c34.25-.93,64.72,9.41,89.64,33.46,12.13,11.71,13.54,27.05,4.65,38.88-5.89,7.84-14.59,10.44-23.79,11.58C124.07,812,120.74,811.69,117.46,811.69Z" transform="translate(287.74 161.03)"/></svg>