<svg xmlns="http://www.w3.org/2000/svg" viewBox="0 0 1366.32 768.28"><defs><style>.a{fill:#ffffff;}.b{fill:#41c7f6;}</style></defs><title>1800f_00043</title><path class="a" d="M1174.76,769.52H337A200.7,200.7,0,0,0,297.3,736.8c-33.77-21.63-71.33-34.37-109.24-46.27-11.08-3.47-22.53-5.89-33-11-7.51-3.64-8-6.78-2-12.36,6.51-6,14.22-10.48,21.62-15.33,27.05-17.74,54.31-35.18,79.42-55.71,21.53-17.6,37.27-38.42,38.67-67.52a456.14,456.14,0,0,0-2.07-70.41c-2.62-24.6-6.45-49.36,1.35-73.68,11.43-35.63,11.64-72.08,9.12-108.82-.44-6.34-3.1-9.86-10-9.4-13,.89-25.25,4.76-37.34,9.26-15.46,5.75-29.12,15.12-44,22-27.69,12.81-41.93,5.63-47.6-24.22-3-15.68-2.95-31.67-5.17-47.42-3.56-25.38-12.16-49.52-18.39-74.25-7.71-30.62-16.19-61-26.88-90.8-4.66-13-2-17.27,11.3-20.75,3.66-1,7.4-1.62,11.14-2.21a219.09,219.09,0,0,0,42.54-10.77c17.5-6.5,34.86-13.4,49.41-25.64H904.6c.26,3.24,2.6,5.41,4.19,7.92,22.08,35,53.18,61.24,84,87.88,25.6,22.12,52.71,42.74,74.28,69.12,15.83,19.36,30.84,39.39,46.12,59.2,10.83,14,15.72,30.24,17.72,47.67,2.62,22.8,3.49,45.83,8.92,68.29,4.93,20.37,15.32,36.31,34,46.94,25.62,14.55,52.83,23,82.28,22.76,37.13-.31,74.18-4,111.36-3V478.1c-9.5,4.12-19.15,7.92-28.47,12.4-33.23,16-67.19,30.59-97.56,52-22,15.47-37.91,35.3-45.19,61.65C1181.36,658.25,1172.74,713.18,1174.76,769.52ZM783.28,415.57a51.57,51.57,0,0,0-18.65,2.71c-16.72,5.78-33.44,11.7-51.33,12.6-21.63,1.08-42.42,6.28-63,12.37-6.07,1.79-12,4-17,8.05-6.43,5.2-6.7,11.74-.67,17.46,5.2,4.94,11.44,8.26,18.09,10.87,20.56,8.05,42.05,10.79,63.92,10.41a142,142,0,0,1,51.22,8.75c15.44,5.57,30.9,11.11,46.48,16.28C826,519.61,840,522.94,854.63,522c16.22-1,30.37-10.56,34.77-23.95,5.09-15.47-1.92-26.92-12.95-36.83-1.32-1.18-2.64-2.36-4.06-3.42A323.24,323.24,0,0,0,820.2,425.6C808.58,420,796.65,415,783.28,415.57Zm7.25,192c.33-18.13-14.27-34.57-33.5-38.34-17.07-3.35-30.52,4.61-43.54,13.56-5.79,4-12.23,9.08-11.08,16.92,1.17,8,8.93,10.69,15.81,12.37,15.74,3.85,31,9.21,46.3,14.32C781.69,632.13,790.2,625.68,790.53,607.59ZM1047.9,324.75c-.26-3.55-2.48-5.9-7.33-4.68-7.09,1.79-17,15.06-17.09,22.37-.09,5.27,2.41,6.79,7.11,5.62C1037.74,346.27,1047.93,333.15,1047.9,324.75Z" transform="translate(-1.35 -1.39)"/><path class="b" d="M226.15,1.52c-14.55,12.24-31.91,19.14-49.41,25.64A219.09,219.09,0,0,1,134.2,37.93c-3.74.59-7.48,1.26-11.14,2.21-13.31,3.48-16,7.74-11.3,20.75,10.69,29.77,19.17,60.18,26.88,90.8,6.23,24.73,14.83,48.87,18.39,74.25,2.22,15.75,2.19,31.74,5.17,47.42,5.67,29.85,19.91,37,47.6,24.22,14.91-6.9,28.57-16.27,44-22,12.09-4.5,24.33-8.37,37.34-9.26,6.88-.46,9.54,3.06,10,9.4,2.52,36.74,2.31,73.19-9.12,108.82-7.8,24.32-4,49.08-1.35,73.68a456.14,456.14,0,0,1,2.07,70.41c-1.4,29.1-17.14,49.92-38.67,67.52-25.11,20.53-52.37,38-79.42,55.71-7.4,4.85-15.11,9.28-21.62,15.33-6,5.58-5.53,8.72,2,12.36,10.51,5.11,22,7.53,33,11,37.91,11.9,75.47,24.64,109.24,46.27A200.7,200.7,0,0,1,337,769.52q-164.2,0-328.41.12c-5.34,0-7.2-.65-7.19-6.76q.3-377.33,0-754.66c0-6,1.66-6.85,7.11-6.83Q117.31,1.69,226.15,1.52Z" transform="translate(-1.35 -1.39)"/><path class="b" d="M1367.52,408.28c-37.18-.95-74.23,2.71-111.36,3-29.45.25-56.66-8.21-82.28-22.76-18.72-10.63-29.11-26.57-34-46.94-5.43-22.46-6.3-45.49-8.92-68.29-2-17.43-6.89-33.64-17.72-47.67-15.28-19.81-30.29-39.84-46.12-59.2-21.57-26.38-48.68-47-74.28-69.12-30.83-26.64-61.93-52.93-84-87.88-1.59-2.51-3.93-4.68-4.19-7.92h340c1.1,3.12,4.07,4.35,6.4,6.17,11.75,9.16,23.55,18.26,34.65,28.22,13.68,12.26,20.59,27.17,18.62,45.8-1,9.29-1.74,18.6-2.46,27.91a149,149,0,0,0,17.3,82.6c8.6,16.22,22.07,21.56,40.24,17.92,2.72-.54,5.37-1.51,8.19-.68Z" transform="translate(-1.35 -1.39)"/><path class="b" d="M1174.76,769.52c-2-56.34,6.6-111.27,21.54-165.42,7.28-26.35,23.17-46.18,45.19-61.65,30.37-21.36,64.33-36,97.56-52,9.32-4.48,19-8.28,28.47-12.4q0,142.68.14,285.34c0,5.2-1,6.24-6.21,6.22C1299.22,769.43,1237,769.52,1174.76,769.52Z" transform="translate(-1.35 -1.39)"/><path class="a" d="M1367.52,209.46c-2.82-.83-5.47.14-8.19.68-18.17,3.64-31.64-1.7-40.24-17.92a149,149,0,0,1-17.3-82.6c.72-9.31,1.47-18.62,2.46-27.91,2-18.63-4.94-33.54-18.62-45.8-11.1-10-22.9-19.06-34.65-28.22-2.33-1.82-5.3-3.05-6.4-6.17,39.21,0,78.42.1,117.62-.13,4.54,0,5.46.91,5.44,5.44Q1367.37,108.14,1367.52,209.46Z" transform="translate(-1.35 -1.39)"/><path class="b" d="M783.28,415.56c13.37-.58,25.3,4.44,36.92,10a323.24,323.24,0,0,1,52.19,32.19c1.42,1.06,2.74,2.24,4.06,3.42,11,9.91,18,21.36,12.95,36.83-4.4,13.39-18.55,22.9-34.77,23.95-14.66,1-28.65-2.38-42.37-6.92-15.58-5.17-31-10.71-46.48-16.28A142,142,0,0,0,714.56,490c-21.87.38-43.36-2.36-63.92-10.41-6.65-2.61-12.89-5.93-18.09-10.87-6-5.72-5.76-12.26.67-17.46,5-4.05,11-6.26,17-8.05,20.62-6.09,41.41-11.29,63-12.37,17.89-.9,34.61-6.82,51.33-12.6A51.8,51.8,0,0,1,783.28,415.56Z" transform="translate(-1.35 -1.39)"/><path class="b" d="M790.53,607.59c-.33,18.09-8.84,24.54-26,18.83C749.18,621.31,734,616,718.22,612.1c-6.88-1.68-14.64-4.35-15.81-12.37-1.15-7.84,5.29-12.94,11.08-16.92,13-8.95,26.47-16.91,43.54-13.56C776.26,573,790.86,589.46,790.53,607.59Z" transform="translate(-1.35 -1.39)"/><path class="b" d="M1047.9,324.75c0,8.4-10.16,21.52-17.31,23.31-4.7,1.17-7.2-.35-7.11-5.62.12-7.31,10-20.58,17.09-22.37C1045.42,318.85,1047.64,321.2,1047.9,324.75Z" transform="translate(-1.35 -1.39)"/></svg>