<svg xmlns="http://www.w3.org/2000/svg" viewBox="0 0 1943.05 1093.1"><defs><style>.a{fill:#ffffff;}.b{fill:#41c7f6;}</style></defs><title>1800f_00350</title><path class="a" d="M1405.46,931.92q-842.75,0-1685.49.14c-5.69,0-7-1.28-7-7,.23-70.58.15-141.16.15-211.73,1.89.55,3.45-.42,5.05-1.13a707.15,707.15,0,0,0,64.32-32.39c43.11-24.78,80.25-57,115.7-91.48C-88,575-74.22,561.56-58.14,550.87c26.69-17.73,49.82-17.55,74.34.44,30.6,22.45,65,35.8,102.28,41.51,27.74,4.26,50.27-4.66,65.3-29.58,7.87-13,14.3-26.78,20.63-40.54C223.61,481,257.05,455,299,440.3c46.67-16.38,93.41-10,138.82,6.51,18.14,6.59,35.73,8.37,54.12,3.19,30.3-8.55,55.15-25.89,76.91-48.09C588.52,381.82,601.42,358.17,605,330c2.12-16.87,1.36-33.81-.67-50.69-2.47-20.57-4.42-41.25-9.49-61.37-6.78-26.9-27.47-40.82-54.94-37.41-15.29,1.89-28,9.79-40.11,18.7-16.13,11.87-30.26,26.06-45.23,39.26C433.32,257.24,409.64,270.2,381,273c-23,2.27-46,1.37-68.88-.73-31.34-2.88-62.53-4.86-93.06,5.68a142,142,0,0,1-28.81,6.31c-19.65,2.47-29-5.43-29.62-25.26-.78-25.36,6.15-49.52,11-74C182,132.11,198.35,81.51,224.88,34.14c18.35-32.76,30.39-68.35,38.53-105q8.29-37.38,17.58-74.5c1.26-5.08,3.81-10,2.83-15.47h840.85c-1.26,15.77,1,31.33,3.78,46.7,6.9,37.52,10.81,75.07,3.74,113-4.91,26.27-12.57,51.78-34.29,69.21-31,24.87-61.07,50.71-91,76.77C993.57,156.39,978.56,166,967,179.67c-19.77,23.29-21.62,60.41,19.51,74.18,14.31,4.79,29,6.78,44,7.15,24.25.6,47.82-4,71.14-9.89,18.22-4.56,34.55-1.64,49.34,9.86,7.58,5.9,15.37,11.58,22.49,18,24.52,22.09,52.34,38.64,82.8,51.15,53.4,21.93,108.62,38.41,163.59,55.68,29.64,9.31,60,16.53,88.64,28.81,17.45,7.47,30.78,19.66,38.21,37.18a172,172,0,0,1,11.22,99.54c-5.08,28.1-19.79,51.72-36.52,74.19-28.7,38.55-57.46,77-77.43,121.19-17.5,38.68-30.49,78.6-36,120.88C1405.1,889,1405.57,910.45,1405.46,931.92ZM767.08,477.76c-32.31-1.08-62.89,5.36-91.28,21-19.47,10.7-37.27,23.44-48.48,43.43-9.38,16.71-6.73,34.59,7.23,47.55,12.22,11.33,27.17,11.21,42.16,8.84,20.6-3.25,40-10.53,58.82-19.38,24.55-11.55,47-26.67,70.07-40.75,16.45-10,33.77-17.36,53.56-16,16.89,1.13,33.57,4,50.3,6.51,30.31,4.5,60.7,7.43,91.29,2.81,63.63-9.63,121.44-33.75,174-70.55,17.64-12.35,34.15-26,46.36-44.2,7-10.49,7.1-21,.07-31.14-14.49-20.86-35.07-31.41-60.08-33.58-18-1.57-34.42,4.64-50.64,11.08q-110.65,44-218.11,95.25c-29.93,14.37-60.68,23.57-94.26,20.89C787.79,478.62,777.43,478.31,767.08,477.76ZM585.53,766.89c.69-3.55-.62-8-1.62-12.39a109.35,109.35,0,0,0-4.83-15.88c-17.4-44-60.64-59.71-99.93-36-14.93,9-26.15,21.39-26.21,39.89-.06,16.37,10,27.27,23.79,34.2,22.45,11.23,46.08,19.43,71.09,22.57C572.39,802.32,585.59,791,585.53,766.89Z" transform="translate(287.01 161.04)"/><path class="b" d="M283.82-160.88c1,5.5-1.57,10.39-2.83,15.47q-9.24,37.14-17.58,74.5c-8.14,36.7-20.18,72.29-38.53,105.05-26.53,47.37-42.93,98-53.3,150.86-4.81,24.51-11.74,48.67-11,74,.61,19.83,10,27.73,29.62,25.26A142,142,0,0,0,219.05,278c30.53-10.54,61.72-8.56,93.06-5.68,22.92,2.1,45.87,3,68.88.73,28.65-2.83,52.33-15.79,73.52-34.5,15-13.2,29.1-27.39,45.23-39.26,12.1-8.91,24.82-16.81,40.11-18.7,27.47-3.41,48.16,10.51,54.94,37.41,5.07,20.12,7,40.8,9.49,61.37,2,16.88,2.79,33.82.67,50.69-3.53,28.13-16.43,51.78-36.12,71.87-21.76,22.2-46.61,39.54-76.91,48.09-18.39,5.18-36,3.4-54.12-3.19-45.41-16.52-92.15-22.89-138.82-6.51C257.05,455,223.61,481,204.41,522.7c-6.33,13.76-12.76,27.51-20.63,40.54-15,24.92-37.56,33.84-65.3,29.58C81.22,587.11,46.8,573.76,16.2,551.31c-24.52-18-47.65-18.17-74.34-.44C-74.22,561.56-88,575-101.79,588.36c-35.45,34.46-72.59,66.7-115.7,91.48a707.15,707.15,0,0,1-64.32,32.39c-1.6.71-3.16,1.68-5.05,1.13V127.5a12.67,12.67,0,0,1,3.35,1.45,274.58,274.58,0,0,1,39.41,39.8c11.82,14.92,24.36,29.21,40.59,39.47,27.66,17.48,52.64,16.85,73.94-12.25,17.59-24,39-44.17,62.77-62.13C-36.55,110.93-7.15,87,16.61,57,29.87,40.25,39.9,22.26,39.71-.12c-.16-18.42-6-35.35-12.81-51.93C12.52-87.2,5.28-123,13.66-160.88Z" transform="translate(287.01 161.04)"/><path class="b" d="M1405.46,931.92c.11-21.47-.36-42.9,2.45-64.33,5.55-42.28,18.54-82.2,36-120.88,20-44.16,48.73-82.64,77.43-121.19,16.73-22.47,31.44-46.09,36.52-74.19a172,172,0,0,0-11.22-99.54c-7.43-17.52-20.76-29.71-38.21-37.18-28.67-12.28-59-19.5-88.64-28.81-55-17.27-110.19-33.75-163.59-55.68-30.46-12.51-58.28-29.06-82.8-51.15-7.12-6.42-14.91-12.1-22.49-18-14.79-11.5-31.12-14.42-49.34-9.86-23.32,5.85-46.89,10.49-71.14,9.89-15-.37-29.66-2.36-44-7.15C945.37,240.08,947.22,203,967,179.67c11.57-13.63,26.58-23.28,39.91-34.89,29.93-26.06,60-51.9,91-76.77,21.72-17.43,29.38-42.94,34.29-69.21,7.07-37.91,3.16-75.46-3.74-113-2.82-15.37-5-30.93-3.78-46.7H1349.3c-.34,3,1.36,5.32,2.52,7.81,15.91,34.4,31.56,68.93,45.32,104.25,12.08,31.06,21.3,63.23,37.79,92.53,17.11,30.39,36.66,58.76,64.14,80.83,25.2,20.25,53.54,32.3,86.41,31.55,24.72-.56,41.87-13.46,45.48-34.29,2-11.46-.54-22.61-3.82-33.58-8.55-28.56-16.43-57.31-23.26-86.33-9.22-39.13-19.4-77.94-36-114.78-7.62-16.9-17.7-32.29-27.33-48,36.43,0,72.86.13,109.28-.16,5.21,0,6.23,1,6.22,6.23q-.26,256.88-.14,513.77V819.6c-2.72-.45-4.86,1.11-7.1,2.16A514,514,0,0,0,1544.87,886c-17.68,14.14-34.86,28.88-49.86,46Z" transform="translate(287.01 161.04)"/><path class="a" d="M13.66-160.88C5.28-123,12.52-87.2,26.9-52,33.69-35.47,39.55-18.54,39.71-.12,39.9,22.26,29.87,40.25,16.61,57-7.15,87-36.55,110.93-66.8,133.84c-23.73,18-45.18,38.1-62.77,62.13-21.3,29.1-46.28,29.73-73.94,12.25-16.23-10.26-28.77-24.55-40.59-39.47A274.58,274.58,0,0,0-283.51,129a12.67,12.67,0,0,0-3.35-1.45q0-141-.15-281.95c0-5.49,1.15-6.59,6.6-6.58Q-133.38-160.73,13.66-160.88Z" transform="translate(287.01 161.04)"/><path class="a" d="M1540.54-160.88c9.63,15.7,19.71,31.09,27.33,48,16.61,36.84,26.79,75.65,36,114.78,6.83,29,14.71,57.77,23.26,86.33,3.28,11,5.81,22.12,3.82,33.58-3.61,20.83-20.76,33.73-45.48,34.29-32.87.75-61.21-11.3-86.41-31.55-27.48-22.07-47-50.44-64.14-80.83-16.49-29.3-25.71-61.47-37.79-92.53-13.76-35.32-29.41-69.85-45.32-104.25-1.16-2.49-2.86-4.83-2.52-7.81Z" transform="translate(287.01 161.04)"/><path class="a" d="M1495,931.92c15-17.08,32.18-31.82,49.86-46a514,514,0,0,1,103.93-64.2c2.24-1,4.38-2.61,7.1-2.16,0,35.67-.11,71.34.13,107,0,4.54-.92,5.46-5.45,5.45C1598.73,931.84,1546.87,931.92,1495,931.92Z" transform="translate(287.01 161.04)"/><path class="b" d="M767.08,477.76c10.35.55,20.71.86,31,1.68,33.58,2.68,64.33-6.52,94.26-20.89Q999.71,407,1110.49,363.3c16.22-6.44,32.67-12.65,50.64-11.08,25,2.17,45.59,12.72,60.08,33.58,7,10.12,7,20.65-.07,31.14-12.21,18.17-28.72,31.85-46.36,44.2-52.59,36.8-110.4,60.92-174,70.55-30.59,4.62-61,1.69-91.29-2.81-16.73-2.49-33.41-5.38-50.3-6.51-19.79-1.32-37.11,6-53.56,16-23.06,14.08-45.52,29.2-70.07,40.75-18.82,8.85-38.22,16.13-58.82,19.38-15,2.37-29.94,2.49-42.16-8.84-14-13-16.61-30.84-7.23-47.55,11.21-20,29-32.73,48.48-43.43C704.19,483.12,734.77,476.68,767.08,477.76Z" transform="translate(287.01 161.04)"/><path class="b" d="M585.53,766.89c.06,24.12-13.14,35.43-37.71,32.34-25-3.14-48.64-11.34-71.09-22.57-13.83-6.93-23.85-17.83-23.79-34.2.06-18.5,11.28-30.91,26.21-39.89,39.29-23.66,82.53-8,99.93,36a109.35,109.35,0,0,1,4.83,15.88C584.91,758.89,586.22,763.34,585.53,766.89Z" transform="translate(287.01 161.04)"/></svg>