<svg xmlns="http://www.w3.org/2000/svg" viewBox="0 0 1943.05 1093.09"><defs><style>.a{fill:#41c7f6;}.b{fill:#ffffff;}</style></defs><title>1800f_00228</title><path class="a" d="M1466.17-160.88c61.47,0,122.94.06,184.41-.13,4.53,0,5.45.91,5.44,5.44q-.26,137-.12,274c-1.35-.65-2.75-1.21-4-2-31.36-19-63.67-36.29-96.44-52.71a89,89,0,0,0-25-8.7c-12.5-2.13-20,1.58-25,13.18-7.07,16.45-7.36,33.5-2.25,50.45,5.46,18.08,17.71,29.59,36,34.73,15.07,4.25,30.41,4.66,45.87,3.41a278.3,278.3,0,0,0,70.83-15.61V349.09c-1.49,2.33-3.07,4.6-4.45,7-19.35,33.47-21.78,69.89-18.86,107.31s14.62,72.74,23.31,108.81v37.95c-8.63,18.57-16.89,37.28-23.8,56.59-9.45,26.41-17.12,53.49-28.77,79.09-8.22,18.1-20.45,24-39.95,19.81-14.55-3.12-27.57-9.9-40.24-17.35A657,657,0,0,1,1463,708.61c-40.45-30.19-70.91-67.63-81.23-118.58-2.41-11.89-4.28-23.89-6.18-35.87-7.85-49.53-20.84-97.9-33.49-146.31-11.27-43.11-11.93-85.84-.61-128.92,3.92-14.89,8.21-29.75,9.84-45.17,2.05-19.42-6.35-32.83-24.76-39.26-12.26-4.27-24.9-4.6-37.46-2.23-34,6.44-61.54,24.81-86.37,47.87-12.87,12-21.48,26.41-26.53,43.43-12,40.25-15.9,81.29-13.54,123,2.71,48.11-.11,96-4.37,143.9-2.41,27.12-13.9,48.77-35,65.52-9.9,7.86-19.86,15.67-30.17,23-35.94,25.46-63.32,58.49-86,95.85-20,32.94-30.61,68.12-26.49,107,1.12,10.55,2.46,21.09,3.84,31.61,2.56,19.52,7.36,38.73,8.15,58.5h-126c-15.33-29.78-18.8-61.59-16.06-94.43,2.69-32.1,13-62.27,23.65-92.35,5.66-16,9.79-32.41,10.68-49.51,1.45-28.17-6.67-54-19.21-78.69-8.14-16-17.36-31.47-25-47.7-13.65-29-9.7-48.35,13.45-70.35,18.75-17.81,39.19-33.6,60.49-48.18,28.58-19.56,57.75-38.28,86.35-57.82,13.8-9.43,26.73-20.1,36.75-33.72,10.76-14.62,8.06-25-8.42-32.56-10.37-4.77-21.45-7.56-32.31-10.94-24.24-7.53-48.18-16.07-68.86-31.09-32.54-23.62-65.43-46.79-96.83-71.93a223.32,223.32,0,0,1-18.42-16.94,90.41,90.41,0,0,1-25.71-50.54c-2.8-17.29-2.66-34.79-4.21-52.16-2.12-23.81-5.71-47.3-17.3-68.66-11.45-21.1-25.25-25.64-45.62-13.14-29.55,18.14-56.63,40.27-75.32,69.43-20,31.25-44.92,55.52-79.11,69.12-33.26,13.22-50.4,37-56.14,71.82-5.06,30.68-13.4,60.75-27.68,88.78-24,47.17-60.54,76.1-114.81,80.26-29.51,2.26-59,5.71-87.28,15.05-66.29,21.87-134.18,36.12-203.41,44.73-38.73,4.81-77.32,9.65-116.4,5.24-43.62-4.93-82-21.28-113.42-52.53-17.79-17.72-20.36-35.46-9.23-58,6.44-13.05,15.18-24.52,24.92-35.19,54-59.07,115-109.29,185-148.44C72.37,147.38,98,133.9,120.17,115.18s34.38-42.11,31.51-71.9c-1.08-11.32-2.35-22.64-3.9-33.9-3.32-24.3-8-48.43-7.86-73.1.13-31.88,13.27-56,41.79-71.21,15.52-8.26,28-6.88,41.27,4.53,7.74,6.66,13.89,14.67,19.56,23.08,11.34,16.83,20.28,35,29.42,53,15.63,30.86,34.52,59.49,59.22,84,9.22,9.12,19.2,17.29,31.27,22.42,17.63,7.49,31.62,2.65,41.09-14.06a91.44,91.44,0,0,0,8.15-20.39,437.71,437.71,0,0,0,14.38-75.94c1.92-19.17-3.64-35.94-16.26-50.48-11.65-13.41-25.59-24.46-38-37-4.75-4.8-10.39-8.85-13.57-15.08H960.75c31.6,44.3,64.07,87.86,103.4,125.83,26.63,25.7,56.29,46.85,89.86,62.55,38.9,18.19,79,24.08,121.1,13.18a392.71,392.71,0,0,0,67.15-23.75c37.12-17.25,75.2-29.23,116.86-28.11,19.2.52,33.06-12.94,35.66-32.66,5.16-39.22-5.46-75.11-24.44-109C1468.88-155.5,1467.56-158.21,1466.17-160.88Z" transform="translate(287.01 161.03)"/><path class="b" d="M358.2-160.88c3.18,6.23,8.82,10.28,13.57,15.08,12.45,12.58,26.39,23.63,38,37C422.43-94.22,428-77.45,426.07-58.28a437.71,437.71,0,0,1-14.38,75.94,91.44,91.44,0,0,1-8.15,20.39c-9.47,16.71-23.46,21.55-41.09,14.06C350.38,47,340.4,38.81,331.18,29.69c-24.7-24.47-43.59-53.1-59.22-84-9.14-18.06-18.08-36.22-29.42-53-5.67-8.41-11.82-16.42-19.56-23.08-13.24-11.41-25.75-12.79-41.27-4.53-28.52,15.18-41.66,39.33-41.79,71.21-.1,24.67,4.54,48.8,7.86,73.1,1.55,11.26,2.82,22.58,3.9,33.9,2.87,29.79-9.23,53.1-31.51,71.9s-47.8,32.2-72.94,46.27c-70,39.15-131.07,89.37-185,148.44-9.74,10.67-18.48,22.14-24.92,35.19-11.13,22.57-8.56,40.31,9.23,58,31.37,31.25,69.8,47.6,113.42,52.53,39.08,4.41,77.67-.43,116.4-5.24,69.23-8.61,137.12-22.86,203.41-44.73,28.3-9.34,57.77-12.79,87.28-15.05,54.27-4.16,90.79-33.09,114.81-80.26,14.28-28,22.62-58.1,27.68-88.78,5.74-34.84,22.88-58.6,56.14-71.82,34.19-13.6,59.08-37.87,79.11-69.12,18.69-29.16,45.77-51.29,75.32-69.43,20.37-12.5,34.17-8,45.62,13.14C777.27,45.71,780.86,69.2,783,93c1.55,17.37,1.41,34.87,4.21,52.16a90.41,90.41,0,0,0,25.71,50.54,223.32,223.32,0,0,0,18.42,16.94c31.4,25.14,64.29,48.31,96.83,71.93,20.68,15,44.62,23.56,68.86,31.09,10.86,3.38,21.94,6.17,32.31,10.94,16.48,7.59,19.18,17.94,8.42,32.56-10,13.62-23,24.29-36.75,33.72-28.6,19.54-57.77,38.26-86.35,57.82-21.3,14.58-41.74,30.37-60.49,48.18-23.15,22-27.1,41.39-13.45,70.35,7.65,16.23,16.87,31.7,25,47.7,12.54,24.69,20.66,50.52,19.21,78.69-.89,17.1-5,33.46-10.68,49.51-10.63,30.08-21,60.25-23.65,92.35-2.74,32.84.73,64.65,16.06,94.43H472c6.73-7.79,8.27-17,7.76-26.94-.79-15.27-6.15-29.19-13.14-42.43-23.19-43.92-53.34-82.81-87.21-118.9-6.23-6.64-13.5-12.25-22.15-15.66-9.9-3.9-16-2.35-23,5.66-4.68,5.37-6.46,12-7.7,18.72-3.85,20.8,0,40.8,7.19,60.26,11,29.94,29.45,55.13,50.88,78.37,14.64,15.88,31.4,29.14,49.4,40.92H-22.77c1.07-3.64,2.28-7.23,3.19-10.91,9.84-39.44,24-77.13,44.54-112.36,6-10.25,11-21,17.1-31.25C73.5,724.57,85.36,666.24,90.31,606c1.93-23.52-5.91-43.63-25.06-57.92C17.42,512.43-35.34,491.57-96,500.34c-51.64,7.46-102.64,8.17-153.33-5.73-12.38-3.39-25-6-37.49-8.92q0-320.05-.15-640.12c0-5.47,1.12-6.6,6.6-6.6Q38.89-160.78,358.2-160.88Z" transform="translate(287.01 161.03)"/><path class="b" d="M992.63,931.92c-.79-19.77-5.59-39-8.15-58.5-1.38-10.52-2.72-21.06-3.84-31.61-4.12-38.85,6.48-74,26.49-107,22.69-37.36,50.07-70.39,86-95.85,10.31-7.31,20.27-15.12,30.17-23,21.11-16.75,32.6-38.4,35-65.52,4.26-47.91,7.08-95.79,4.37-143.9-2.36-41.73,1.59-82.77,13.54-123,5-17,13.66-31.46,26.53-43.43,24.83-23.06,52.37-41.43,86.37-47.87,12.56-2.37,25.2-2,37.46,2.23,18.41,6.43,26.81,19.84,24.76,39.26-1.63,15.42-5.92,30.28-9.84,45.17-11.32,43.08-10.66,85.81.61,128.92,12.65,48.41,25.64,96.78,33.49,146.31,1.9,12,3.77,24,6.18,35.87,10.32,51,40.78,88.39,81.23,118.58a657,657,0,0,0,60.12,39.68c12.67,7.45,25.69,14.23,40.24,17.35,19.5,4.19,31.73-1.71,39.95-19.81,11.65-25.6,19.32-52.68,28.77-79.09,6.91-19.31,15.17-38,23.8-56.59q0,157.85.14,315.7c0,5.19-1,6.22-6.22,6.21Q1321.23,931.81,992.63,931.92Z" transform="translate(287.01 161.03)"/><path class="a" d="M-286.86,485.69c12.5,2.95,25.11,5.53,37.49,8.92,50.69,13.9,101.69,13.19,153.33,5.73,60.7-8.77,113.46,12.09,161.29,47.76,19.15,14.29,27,34.4,25.06,57.92-5,60.22-16.81,118.55-48.25,171.38C36,787.6,30.94,798.4,25,808.65,4.44,843.88-9.74,881.57-19.58,921c-.91,3.68-2.12,7.27-3.19,10.91H-200.35a15.32,15.32,0,0,1,.42-3.68c7.64-20.68,12.83-42.08,18.37-63.36,6.82-26.17,14.72-52.14,16.85-79.29,1.78-22.72-3.76-42.69-22.88-57.14-10.4-7.87-22-13.41-34.2-17.83-21.62-7.87-43.37-15.39-65.07-23.06Z" transform="translate(287.01 161.03)"/><path class="b" d="M1466.17-160.88c1.39,2.67,2.71,5.38,4.17,8,19,33.93,29.6,69.82,24.44,109-2.6,19.72-16.46,33.18-35.66,32.66-41.66-1.12-79.74,10.86-116.86,28.11a392.71,392.71,0,0,1-67.15,23.75c-42.06,10.9-82.2,5-121.1-13.18-33.57-15.7-63.23-36.85-89.86-62.55-39.33-38-71.8-81.53-103.4-125.83Z" transform="translate(287.01 161.03)"/><path class="b" d="M-286.86,687.56c21.7,7.67,43.45,15.19,65.07,23.06,12.15,4.42,23.8,10,34.2,17.83,19.12,14.45,24.66,34.42,22.88,57.14-2.13,27.15-10,53.12-16.85,79.29-5.54,21.28-10.73,42.68-18.37,63.36a15.32,15.32,0,0,0-.42,3.68c-27.06,0-54.13-.14-81.2.13-4.53,0-5.45-.92-5.44-5.44Q-286.72,807.08-286.86,687.56Z" transform="translate(287.01 161.03)"/><path class="a" d="M434.08,931.92c-18-11.78-34.76-25-49.4-40.92-21.43-23.24-39.87-48.43-50.88-78.37-7.16-19.46-11-39.46-7.19-60.26,1.24-6.72,3-13.35,7.7-18.72,7-8,13.08-9.56,23-5.66,8.65,3.41,15.92,9,22.15,15.66,33.87,36.09,64,75,87.21,118.9,7,13.24,12.35,27.16,13.14,42.43.51,9.9-1,19.15-7.76,26.94Z" transform="translate(287.01 161.03)"/><path class="b" d="M1655.9,141.16a278.3,278.3,0,0,1-70.83,15.61c-15.46,1.25-30.8.84-45.87-3.41-18.24-5.14-30.49-16.65-36-34.73-5.11-16.95-4.82-34,2.25-50.45,5-11.6,12.46-15.31,25-13.18a89,89,0,0,1,25,8.7c32.77,16.42,65.08,33.71,96.44,52.71,1.27.77,2.67,1.33,4,2Z" transform="translate(287.01 161.03)"/><path class="b" d="M1655.9,572.2c-8.69-36.07-20.4-71.48-23.31-108.81s-.49-73.84,18.86-107.31c1.38-2.39,3-4.66,4.45-7Z" transform="translate(287.01 161.03)"/></svg>