<svg xmlns="http://www.w3.org/2000/svg" viewBox="0 0 1943.04 1093.09"><defs><style>.a{fill:#ffffff;}.b{fill:#41c7f6;}</style></defs><title>1800f_00276</title><path class="a" d="M1432.78,931.92H3c4.45-21.11-5.36-52.61-39.32-50-2,.15-4,.13-6,.25-10.49.61-19.18-3.15-26.67-10.4-11-10.63-17.84-23.81-23.45-37.67-16.64-41.08-25.13-84-29-128-2-23.63-4.33-47.28-10.77-70.22-6-21.36-15.65-40.37-34.92-53.22-16.2-10.81-34.09-13.14-52.89-11.93-22.33,1.44-44.3,4.05-62.59,18.91a4.44,4.44,0,0,1-4.28.83V390.07c7.45-7.69,12.11-17.29,17.58-26.28,12.64-20.76,29.31-36.5,52.35-45.14,22-8.25,43.82-17.06,65.9-25.12,17.39-6.34,35.17-11.26,54.05-9.79,16.82,1.32,26.17,12.71,23.53,29.34A199.4,199.4,0,0,1-78.52,336c-8.7,30.73-13,61.89-8,93.69,5,32.64,19.72,59.88,47.63,78.74,25.17,17,53.39,26.39,83.2,30.72,23,3.34,42.33-4.45,57.14-22.56,9-11,15.79-23.43,21.42-36.51,12.7-29.5,18.13-59.79,11.35-91.76a84.2,84.2,0,0,1-1.05-31.66c3.7-21.84,14.76-40.21,27.26-57.8,31.94-44.91,69-85.37,109.62-122.44,35.52-32.43,60.43-70.76,69.36-118.17,7.57-40.17,30-70.56,59-97.39C420-59.18,444.75-69.82,474.91-67c25.69,2.41,51.24,5.43,76.53,10.57,21.19,4.3,41.54,10.28,59.11,24C621.68-23.7,635.33-23,649-24.81c19.69-2.56,37.52-10.27,54.2-20.56,18.28-11.28,36.09-23.33,54.18-34.91,19.11-12.22,38.34-13,57.59-.2,1.89,1.26,4,2.23,5.91,3.41a445.93,445.93,0,0,0,156.73,58.8C1035.78-8.07,1092.57,5,1147.33,28.51c68.45,29.36,131.88,66.14,189.7,112.78,27.92,22.52,53.54,47.81,83.08,68.42,43.46,30.32,70.7,72.18,85.67,122.51,7.23,24.29,10.36,49.44,15.62,74.14,7.75,36.37,18.22,72,28.61,107.67,12.29,42.22,16.49,85.75,22.43,129,2.38,17.27,5.82,34.43,14.15,50.09q9.38,17.61,26.41,7.35a91.67,91.67,0,0,0,14.46-11c10.68-9.74,19.08-21.45,28.44-32.33V856c-12.19.43-24.25,0-35.83-4.46-14.79-5.72-24.29-15.73-26.85-31.87-2-12.69-3.24-25.55-7-37.92-6.23-20.72-13-23.43-30.77-11.31a674.23,674.23,0,0,0-75.69,60.47C1450.5,857.81,1438.84,893.77,1432.78,931.92ZM1307,215.54a62.91,62.91,0,0,0-28,5.7c-33.77,14.84-54.37,41.73-67.89,74.9-4.8,11.76-7.93,24-7.24,36.87.62,11.78,6.17,16.64,18,16,3.93-.2,7.38-1.63,10.77-3.31,32.29-16,57.87-40.28,81.55-66.77,8.78-9.83,16.15-20.75,20-33.62,4-13.4-1.34-23.52-14.44-28.07A38,38,0,0,0,1307,215.54Z" transform="translate(287.01 161.03)"/><path class="b" d="M1655.9,657.2c-9.36,10.88-17.76,22.59-28.44,32.33a91.67,91.67,0,0,1-14.46,11q-17,10.29-26.41-7.35c-8.33-15.66-11.77-32.82-14.15-50.09-5.94-43.29-10.14-86.82-22.43-129-10.39-35.65-20.86-71.3-28.61-107.67-5.26-24.7-8.39-49.85-15.62-74.14-15-50.33-42.21-92.19-85.67-122.51-29.54-20.61-55.16-45.9-83.08-68.42-57.82-46.64-121.25-83.42-189.7-112.78C1092.57,5,1035.78-8.07,977.62-18.27a445.93,445.93,0,0,1-156.73-58.8c-1.94-1.18-4-2.15-5.91-3.41-19.25-12.82-38.48-12-57.59.2-18.09,11.58-35.9,23.63-54.18,34.91-16.68,10.29-34.51,18-54.2,20.56C635.33-23,621.68-23.7,610.55-32.4c-17.57-13.73-37.92-19.71-59.11-24C526.15-61.55,500.6-64.57,474.91-67c-30.16-2.84-54.9,7.8-76.55,27.84-29,26.83-51.42,57.22-59,97.39C330.44,105.66,305.53,144,270,176.42c-40.6,37.07-77.68,77.53-109.62,122.44-12.5,17.59-23.56,36-27.26,57.8a84.2,84.2,0,0,0,1.05,31.66c6.78,32,1.35,62.26-11.35,91.76-5.63,13.08-12.4,25.48-21.42,36.51-14.81,18.11-34.12,25.9-57.14,22.56-29.81-4.33-58-13.71-83.2-30.72-27.91-18.86-42.58-46.1-47.63-78.74-4.92-31.8-.66-63,8-93.69a199.4,199.4,0,0,0,5.07-22.92c2.64-16.63-6.71-28-23.53-29.34-18.88-1.47-36.66,3.45-54,9.79-22.08,8.06-43.89,16.87-65.9,25.12-23,8.64-39.71,24.38-52.35,45.14-5.47,9-10.13,18.59-17.58,26.28Q-286.86,118-287-154c0-5.69,1.28-7,7-7q141.54.32,283.07.15a41,41,0,0,0,3.63,2.69c48.41,28.43,96.23,25.13,143.59-2.69q749.4,0,1498.81-.14c5.69,0,7,1.28,7,7Q1655.79,251.58,1655.9,657.2Z" transform="translate(287.01 161.03)"/><path class="b" d="M-286.86,590.42a4.44,4.44,0,0,0,4.28-.83c18.29-14.86,40.26-17.47,62.59-18.91,18.8-1.21,36.69,1.12,52.89,11.93,19.27,12.85,28.92,31.86,34.92,53.22,6.44,22.94,8.72,46.59,10.77,70.22,3.83,44,12.32,87,29,128,5.61,13.86,12.48,27,23.45,37.67,7.49,7.25,16.18,11,26.67,10.4,2-.12,4-.1,6-.25,34-2.59,43.77,28.91,39.32,50q-141.91,0-283.83.14c-5.2,0-6.23-1-6.22-6.21Q-286.71,758.14-286.86,590.42Z" transform="translate(287.01 161.03)"/><path class="b" d="M1432.78,931.92c6.06-38.15,17.72-74.11,47-101a674.23,674.23,0,0,1,75.69-60.47c17.78-12.12,24.54-9.41,30.77,11.31,3.72,12.37,4.94,25.23,7,37.92,2.56,16.14,12.06,26.15,26.85,31.87,11.58,4.48,23.64,4.89,35.83,4.46,0,23.52-.16,47.05.13,70.57,0,4.54-.92,5.46-5.45,5.44Q1541.68,931.77,1432.78,931.92Z" transform="translate(287.01 161.03)"/><path class="a" d="M150.26-160.88c-47.36,27.82-95.18,31.12-143.59,2.69A41,41,0,0,1,3-160.88Z" transform="translate(287.01 161.03)"/><path class="b" d="M1307,215.53a38.34,38.34,0,0,1,12.7,1.73c13.1,4.55,18.41,14.67,14.44,28.07-3.81,12.87-11.18,23.79-20,33.62-23.68,26.49-49.26,50.77-81.55,66.77-3.39,1.68-6.84,3.11-10.77,3.31-11.79.62-17.34-4.24-18-16-.69-12.9,2.44-25.11,7.24-36.87,13.52-33.17,34.12-60.06,67.89-74.9A63,63,0,0,1,1307,215.53Z" transform="translate(287.01 161.03)"/></svg>