<svg xmlns="http://www.w3.org/2000/svg" viewBox="0 0 1943.04 1093.11"><defs><style>.a{fill:#ffffff;}.b{fill:#41c7f6;}</style></defs><title>1800f_00275</title><path class="a" d="M1414.57,931.92H-9.11C-7,907.72-17.25,893.45-41,889.45c-13-2.19-22.22-8.87-29.53-19.24a145.16,145.16,0,0,1-15.64-29.42c-15.83-39-26.32-79.6-33.67-121-5.07-28.6-9-57.45-18.44-85.09-10.22-29.82-27.9-53.24-57.87-65.4-11-4.45-22.52-7.51-33.84-11.08-18.57-5.85-37.22-11.33-56.91-11.8V377.93c3.07-3.49,4.52-7.84,6.31-12,11.26-26.18,26.55-48.1,55.74-57.07s58.13-19,87.25-28.35c12.82-4.11,26-6.55,39.56-5.71,19.09,1.19,27.65,11.48,25.51,30.42a108.86,108.86,0,0,1-3.78,18.54c-7.67,26.16-11.57,52.79-10.13,80.1,1.27,24.13,7.14,47,19.85,67.68C-44,508.28-9,524.79,31.83,531.37c28.07,4.53,50.05-5.56,66-28.9a169.13,169.13,0,0,0,10-16.1c19-35.83,31-72.93,22-114.32-2.4-11.06-1.92-22.64.38-33.95,4.76-23.36,16.74-43.23,30.3-62.27,24-33.71,52.62-63.45,82.28-92.11C282,145.88,311,101.92,326.46,49.43c8.58-29.21,23.74-54.41,44-77,25.62-28.64,55.15-47,95.6-42.1,26.83,3.24,53.86,4.68,80.65,8.55,21.8,3.15,43.57,6.48,63.72,16,13.61,6.46,27.64,7.46,42.18,4.56,20.3-4,37.64-14.42,54.52-25.69,14.31-9.54,28.43-19.34,43.71-27.33,18.55-9.71,37-10.72,55.75-.4,10.18,5.59,20.69,10.64,31.31,15.35,50.29,22.34,103.5,34.21,157.34,43.94,45.34,8.19,90.26,18,132.29,37.86,37.12,17.52,72.11,38.81,107,60.27,50.29,30.9,99.81,62.73,139.62,107.34,7.91,8.86,18.23,15.19,28.83,20.71,12.78,6.65,26.33,12.12,38.29,20,50.39,33.24,77.26,80.68,82.37,140.61,3.52,41.36,9.41,82.35,19.16,122.72,10.39,43,21.87,85.71,28.33,129.55,2.4,16.26,5,32.58,12.26,47.54,7.13,14.62,16.14,16.05,27.8,4.82a122.93,122.93,0,0,0,36-67.08c4.83-25.6,5.68-51.68,6.7-77.71.34-8.75-.06-17.61,2-26.26V853c-6.57,0-13.14.34-19.68,0-24.51-1.2-46-11.44-47.47-44.88-.72-16-2.67-32.23-8.63-47.49-4-10.3-11.13-13.14-21.06-8.55A84.73,84.73,0,0,0,1541.82,763c-21.34,17-42.2,34.62-64,51-22.33,16.83-37.61,38.49-48.1,64C1422.6,895.41,1418.54,913.65,1414.57,931.92Zm-194.1-634.29c-.07,23.27,7.54,28.67,24.58,22.86a57.32,57.32,0,0,0,7.7-3.15c28-14.46,51.42-34.67,72.21-58.1,6.74-7.59,12.63-15.76,16.33-25.33,5.4-14,.47-23.31-14.14-26.5a28.92,28.92,0,0,0-6.77-.58c-33.32.73-58.77,16.46-78.56,42.17C1229.61,264.87,1221.4,282.61,1220.47,297.63Z" transform="translate(287.01 161.04)"/><path class="b" d="M1655.9,485.69c-2.05,8.65-1.65,17.51-2,26.26-1,26-1.87,52.11-6.7,77.71a122.93,122.93,0,0,1-36,67.08c-11.66,11.23-20.67,9.8-27.8-4.82-7.28-15-9.86-31.28-12.26-47.54-6.46-43.84-17.94-86.57-28.33-129.55-9.75-40.37-15.64-81.36-19.16-122.72-5.11-59.93-32-107.37-82.37-140.61-12-7.89-25.51-13.36-38.29-20-10.6-5.52-20.92-11.85-28.83-20.71-39.81-44.61-89.33-76.44-139.62-107.34-34.92-21.46-69.91-42.75-107-60.27-42-19.83-87-29.67-132.29-37.86-53.84-9.73-107.05-21.6-157.34-43.94-10.62-4.71-21.13-9.76-31.31-15.35-18.79-10.32-37.2-9.31-55.75.4-15.28,8-29.4,17.79-43.71,27.33C690.23-55,672.89-44.6,652.59-40.56c-14.54,2.9-28.57,1.9-42.18-4.56-20.15-9.54-41.92-12.87-63.72-16C519.9-65,492.87-66.45,466-69.69c-40.45-4.89-70,13.46-95.6,42.1-20.24,22.61-35.4,47.81-44,77C311,101.92,282,145.88,242.78,183.72c-29.66,28.66-58.25,58.4-82.28,92.11-13.56,19-25.54,38.91-30.3,62.27-2.3,11.31-2.78,22.89-.38,33.95,9,41.39-3,78.49-22,114.32a169.13,169.13,0,0,1-10,16.1c-16,23.34-37.95,33.43-66,28.9C-9,524.79-44,508.28-66.55,471.55-79.26,450.83-85.13,428-86.4,403.87c-1.44-27.31,2.46-53.94,10.13-80.1a108.86,108.86,0,0,0,3.78-18.54C-70.35,286.29-78.91,276-98,274.81c-13.59-.84-26.74,1.6-39.56,5.71-29.12,9.34-58,19.37-87.25,28.35s-44.48,30.89-55.74,57.07c-1.79,4.15-3.24,8.5-6.31,12q0-266.31-.12-532.61c0-4.92.6-6.36,6.06-6.36q965.45.25,1930.9,0c5.52,0,6,1.53,6,6.38Q1655.81,165.51,1655.9,485.69Z" transform="translate(287.01 161.04)"/><path class="b" d="M-286.86,546.4c19.69.47,38.34,6,56.91,11.8,11.32,3.57,22.86,6.63,33.84,11.08,30,12.16,47.65,35.58,57.87,65.4,9.48,27.64,13.37,56.49,18.44,85.09,7.35,41.42,17.84,82,33.67,121a145.16,145.16,0,0,0,15.64,29.42c7.31,10.37,16.57,17,29.53,19.24,23.71,4,34,18.27,31.85,42.47q-135.84,0-271.68.14c-5.2,0-6.22-1-6.22-6.21Q-286.73,736.13-286.86,546.4Z" transform="translate(287.01 161.04)"/><path class="b" d="M1414.57,931.92c4-18.27,8-36.51,15.18-53.89,10.49-25.5,25.77-47.16,48.1-64,21.77-16.41,42.63-34,64-51a84.73,84.73,0,0,1,17.24-10.92c9.93-4.59,17-1.75,21.06,8.55,6,15.26,7.91,31.44,8.63,47.49,1.5,33.44,23,43.68,47.47,44.88,6.54.32,13.11,0,19.68,0,0,24.54-.15,49.08.13,73.61,0,4.54-.92,5.45-5.45,5.44Q1532.58,931.79,1414.57,931.92Z" transform="translate(287.01 161.04)"/><path class="b" d="M1220.47,297.63c.93-15,9.14-32.76,21.35-48.63,19.79-25.71,45.24-41.44,78.56-42.17a28.92,28.92,0,0,1,6.77.58c14.61,3.19,19.54,12.52,14.14,26.5-3.7,9.57-9.59,17.74-16.33,25.33-20.79,23.43-44.2,43.64-72.21,58.1a57.32,57.32,0,0,1-7.7,3.15C1228,326.3,1220.4,320.9,1220.47,297.63Z" transform="translate(287.01 161.04)"/></svg>