<svg xmlns="http://www.w3.org/2000/svg" viewBox="0 0 1366.88 768.88"><defs><style>.a{fill:#ffffff;}.b{fill:#41c7f6;}</style></defs><title>1800f_00027</title><path class="a" d="M1161.1,769.52H347.57c-11.77-19.66-25.76-37.48-43.39-52.26-33.75-28.29-73.09-45.62-114.65-58.65-13.25-4.15-27-6.91-39.59-12.93-8.07-3.85-8.9-8.37-2.56-14.57a103.36,103.36,0,0,1,14.84-11.74c17.43-11.67,35.36-22.62,52.51-34.68,21.63-15.22,39.22-33.61,42.6-61.66,1.24-10.34.79-20.7.82-31.06,0-19-.93-37.88.94-56.84,2.22-22.46,8-43.82,19.05-63.43,20.83-37.06,32.87-77.65,48-117a66.36,66.36,0,0,0,4.69-21.39c.51-13.88-6.31-18.37-19.22-12.78a87.9,87.9,0,0,0-20,12.24c-18.74,15-37.17,30.41-56,45.25-13.88,10.91-27.54,22.44-44.56,28.37-12.51,4.35-23.81,2.2-33.3-7.75-12.25-12.84-14.9-28.54-12.72-45.08,4.52-34.29,2.76-68-6.06-101.48-9-34.2-18.09-68.39-26.82-102.66-2.66-10.47-.42-14.72,9.53-19.22,8.74-4,17.92-6.92,26.73-10.71,11.74-5,23.85-9.45,33.74-18h742.2c.72,1.58,1.35,3.22,2.2,4.74,22.2,39.8,51.82,74,81.31,108.37,22.38,26.06,45.62,51.49,62.32,81.91,8.66,15.77,18.34,30.73,31.75,43.15,8.16,7.56,12.59,17.55,14.17,28.71a300.17,300.17,0,0,1,2.47,39.29c.2,19.47.8,38.95,4.65,58.09,2.94,14.65,9.33,18.1,23.49,13,11.42-4.11,22.84-8,34.85-10.15,32.84-5.92,66.14-8.35,99.09-13.37,25.18-3.83,49.29-1.25,72.58,9.35,4.46,2,8.94,4.87,14.31,4.21v78.93c-1.64-.45-2.92.44-4.25,1.14-37.12,19.54-73.38,40.5-107.75,64.61-24.43,17.12-44.79,37.89-56,66.11-10.13,25.59-18.68,51.78-26.27,78.21C1162.81,694.27,1160,731.72,1161.1,769.52ZM707.31,476.43c17.83-1.68,36.53,1.59,54.85,8.24,16.38,5.93,33.06,11,50.29,13.93,15.07,2.56,30.14,3.65,45-1.25,21.82-7.22,26.41-24.75,10.55-41.22-14.89-15.46-30.37-30.34-46.26-44.8-26.12-23.77-55.58-30.49-89.07-18.58A237.09,237.09,0,0,1,698.29,402c-17.88,3.47-33.06,11.88-46.6,23.86C631,444.11,634.15,462,660,471.7a91.93,91.93,0,0,0,12.4,3.39C683.42,477.57,694.56,476.45,707.31,476.43Zm-.59,132c20.63,0,43.17-7.09,58.4-18.35,9.32-6.89,11.94-17,7.09-27.51A28.72,28.72,0,0,0,758,548.39c-36.71-17.3-68.15.79-84.85,32.25-4.83,9.1-1.19,17.31,7.94,22.3C689,607.3,697.74,608.6,706.72,608.42ZM1048.6,300.69c.34-9.63-4.51-13-13.31-9.08-7.32,3.24-13.16,8.52-18,14.64-9,11.24-17.77,22.81-18.3,38.09-.26,7.22,4,10.05,10.76,7.9C1026.35,347,1048,318.31,1048.6,300.69Zm22.32,271.94c11.12-.12,26.91-11.25,31.34-22.09,3.72-9.1-.77-15.43-10.76-15.19-11.56.29-27.72,14.46-29.46,25.85Q1060.28,572.76,1070.92,572.63Z" transform="translate(-0.78 -0.79)"/><path class="b" d="M182.13,1.52c-9.89,8.53-22,12.94-33.74,18-8.81,3.79-18,6.75-26.73,10.71-10,4.5-12.19,8.75-9.53,19.22,8.73,34.27,17.8,68.46,26.82,102.66,8.82,33.43,10.58,67.19,6.06,101.48-2.18,16.54.47,32.24,12.72,45.08,9.49,10,20.79,12.1,33.3,7.75,17-5.93,30.68-17.46,44.56-28.37,18.88-14.84,37.31-30.23,56-45.25a87.9,87.9,0,0,1,20-12.24c12.91-5.59,19.73-1.1,19.22,12.78a66.36,66.36,0,0,1-4.69,21.39c-15.16,39.34-27.2,79.93-48,117-11,19.61-16.83,41-19.05,63.43-1.87,19-.9,37.89-.94,56.84,0,10.36.42,20.72-.82,31.06-3.38,28.05-21,46.44-42.6,61.66-17.15,12.06-35.08,23-52.51,34.68a103.36,103.36,0,0,0-14.84,11.74c-6.34,6.2-5.51,10.72,2.56,14.57,12.61,6,26.34,8.78,39.59,12.93,41.56,13,80.9,30.36,114.65,58.65,17.63,14.78,31.62,32.6,43.39,52.26q-170,0-340,.14c-5.2,0-6.22-1-6.22-6.22q.25-373.37.15-746.74a18.42,18.42,0,0,1,3.15,1.93c18.24,17.16,39.73,16.67,61.9,11,9.32-2.36,11-8,5.37-15.81-3-4.26-6.46-8.24-9.71-12.34Z" transform="translate(-0.78 -0.79)"/><path class="b" d="M1367.52,368.82c-5.37.66-9.85-2.18-14.31-4.21-23.29-10.6-47.4-13.18-72.58-9.35-33,5-66.25,7.45-99.09,13.37-12,2.16-23.43,6-34.85,10.15-14.16,5.1-20.55,1.65-23.49-13-3.85-19.14-4.45-38.62-4.65-58.09a300.17,300.17,0,0,0-2.47-39.29c-1.58-11.16-6-21.15-14.17-28.71-13.41-12.42-23.09-27.38-31.75-43.15-16.7-30.42-39.94-55.85-62.32-81.91C978.35,80.29,948.73,46.06,926.53,6.26c-.85-1.52-1.48-3.16-2.2-4.74h88c.66,2.68,1.25,5.38,2,8,6.1,22,30,33.69,49.17,23.6,12.58-6.63,19.64-17.54,21.69-31.64h159.37c6,6.19,13.67,10.17,20.39,15.42,14.86,11.59,27.74,24.51,30.5,44.26a185.31,185.31,0,0,1,1.87,24.11c.25,28.21,10,52.86,27.92,74.24,11.18,13.31,24.53,23.76,42.26,27.14Z" transform="translate(-0.78 -0.79)"/><path class="b" d="M1161.1,769.52c-1.07-37.8,1.71-75.25,12.19-111.7,7.59-26.43,16.14-52.62,26.27-78.21,11.17-28.22,31.53-49,56-66.11,34.37-24.11,70.63-45.07,107.75-64.61,1.33-.7,2.61-1.59,4.25-1.14q0,157.85.14,315.69c0,5.2-1,6.24-6.21,6.22C1294.66,769.44,1227.88,769.52,1161.1,769.52Z" transform="translate(-0.78 -0.79)"/><path class="a" d="M1367.52,186.69c-17.73-3.38-31.08-13.83-42.26-27.14-18-21.38-27.67-46-27.92-74.24a185.31,185.31,0,0,0-1.87-24.11c-2.76-19.75-15.64-32.67-30.5-44.26-6.72-5.25-14.39-9.23-20.39-15.42,39.21,0,78.42.1,117.62-.13,4.54,0,5.46.91,5.45,5.44C1367.45,66.78,1367.52,126.74,1367.52,186.69Z" transform="translate(-0.78 -0.79)"/><path class="a" d="M1085.21,1.52c-2,14.1-9.11,25-21.69,31.64-19.14,10.09-43.07-1.6-49.17-23.6-.74-2.66-1.33-5.36-2-8Z" transform="translate(-0.78 -0.79)"/><path class="a" d="M62.23,1.52c3.25,4.1,6.68,8.08,9.71,12.34,5.58,7.85,4,13.45-5.37,15.81-22.17,5.63-43.66,6.12-61.9-11A18.42,18.42,0,0,0,1.52,16.7c0-5.06-2-12.1.55-14.62s9.57-.56,14.63-.56Z" transform="translate(-0.78 -0.79)"/><path class="b" d="M707.31,476.43c-12.75,0-23.89,1.14-34.87-1.34A91.93,91.93,0,0,1,660,471.7c-25.89-9.73-29-27.59-8.35-45.85,13.54-12,28.72-20.39,46.6-23.86a237.09,237.09,0,0,0,34.34-9.24c33.49-11.91,63-5.19,89.07,18.58,15.89,14.46,31.37,29.34,46.26,44.8,15.86,16.47,11.27,34-10.55,41.22-14.82,4.9-29.89,3.81-45,1.25-17.23-2.94-33.91-8-50.29-13.93C743.84,478,725.14,474.75,707.31,476.43Z" transform="translate(-0.78 -0.79)"/><path class="b" d="M706.72,608.42c-9,.18-17.68-1.12-25.66-5.48-9.13-5-12.77-13.2-7.94-22.3,16.7-31.46,48.14-49.55,84.85-32.25a28.72,28.72,0,0,1,14.24,14.17c4.85,10.56,2.23,20.62-7.09,27.51C749.89,601.33,727.35,608.41,706.72,608.42Z" transform="translate(-0.78 -0.79)"/><path class="b" d="M1048.6,300.69c-.62,17.62-22.25,46.29-38.9,51.55-6.78,2.15-11-.68-10.76-7.9.53-15.28,9.31-26.85,18.3-38.09,4.89-6.12,10.73-11.4,18-14.64C1044.09,287.72,1048.94,291.06,1048.6,300.69Z" transform="translate(-0.78 -0.79)"/><path class="b" d="M1070.92,572.63q-10.65.12-8.88-11.43c1.74-11.39,17.9-25.56,29.46-25.85,10-.24,14.48,6.09,10.76,15.19C1097.83,561.38,1082,572.51,1070.92,572.63Z" transform="translate(-0.78 -0.79)"/></svg>