<svg xmlns="http://www.w3.org/2000/svg" viewBox="0 0 1366.31 768.24"><defs><style>.a{fill:#ffffff;}.b{fill:#41c7f6;}</style></defs><title>1800f_00076</title><path class="a" d="M1261.27,769.52H127.49a254.32,254.32,0,0,1,102.2-44c37.61-7.07,68.78-25.43,95.19-52.82,21.69-22.5,37.54-47.55,38.95-79.84.9-20.74.78-41.49-.17-62.19-1.35-29.17.78-58,4.53-86.91,2.58-19.86,4.05-39.86-2.56-59.32-6.76-19.87-21.59-24.95-39.25-13.76-13.61,8.63-23,21.08-31.19,34.61-9.65,16-17.73,33-29.84,47.44-11.88,14.17-26,17.72-41.81,8.49-37.77-22-67.93-61.13-51.16-114.3,4.79-15.18,10-30.25,14.58-45.48,10.31-34,7.32-66.58-12.19-96.74-15.45-23.9-33.67-45.54-56.25-63.15-12.35-9.63-25.14-18.71-37.44-28.4-4.11-3.24-8.38-7.44-6.72-13.48C76.09,93.39,82,92.18,87.49,91c12.09-2.52,23.57.15,34.86,4.3,9.25,3.39,18.45,7,27.82,10,29.34,9.36,58.12,9.4,86-5.44,30.86-16.42,60.69-34.47,88-56.34,15.19-12.15,29.58-25.27,40.07-42H954.68c15.94,27.24,30.22,55.6,49.62,80.6q66.45,85.64,134,170.39c26.71,33.49,47.63,69.36,55,112.35a207.22,207.22,0,0,0,16.09,51.2c8.62,18.84,21.11,33.59,40.58,42,14.38,6.2,28.35,13.34,42.69,19.63,24.72,10.83,49.26,22.14,74.9,30.78v75.89c-1.87-.59-3.46.27-5.06,1-32.24,14.61-63.75,30.55-93.61,49.69-14.37,9.22-19.2,21.45-15.8,38.13C1259.53,704.93,1263.09,737,1261.27,769.52ZM712.28,729c35.31-1.63,69.35-9.92,103-20a36.85,36.85,0,0,0,14.5-8c7.32-6.73,8.31-13.24,2.77-21.51a39.29,39.29,0,0,0-22.16-16.24,101,101,0,0,0-29.16-4.07c-33.35.17-65,7.86-95.21,21.93-7.82,3.65-15.18,8.17-20.83,14.86-7.57,8.95-6.17,18,3.74,24.32a46.18,46.18,0,0,0,8.21,3.83C688.47,728.42,700.3,729.05,712.28,729Zm404.48-31.51c17.11-1.31,33.09-6.84,48.51-13.82,20.72-9.37,41.62-18.66,57.16-36.29,6.32-7.17,4.69-13.83-4.23-16.92-8.67-3-17.17-.89-25.24,1.82-30.69,10.32-58.18,26.77-84.6,45.17-4.71,3.29-9.6,7.84-7.92,13.44,1.87,6.25,8.81,6.62,14.81,6.6Z" transform="translate(-1.33 -1.41)"/><path class="b" d="M364.27,1.52c-10.49,16.73-24.88,29.85-40.07,42-27.33,21.87-57.16,39.92-88,56.34-27.89,14.84-56.67,14.8-86,5.44-9.37-3-18.57-6.57-27.82-10-11.29-4.15-22.77-6.82-34.86-4.3-5.48,1.14-11.4,2.35-13.13,8.65-1.66,6,2.61,10.24,6.72,13.48,12.3,9.69,25.09,18.77,37.44,28.4,22.58,17.61,40.8,39.25,56.25,63.15,19.51,30.16,22.5,62.73,12.19,96.74-4.63,15.23-9.79,30.3-14.58,45.48-16.77,53.17,13.39,92.3,51.16,114.3,15.84,9.23,29.93,5.68,41.81-8.49,12.11-14.45,20.19-31.44,29.84-47.44,8.17-13.53,17.58-26,31.19-34.61,17.66-11.19,32.49-6.11,39.25,13.76,6.61,19.46,5.14,39.46,2.56,59.32-3.75,28.87-5.88,57.74-4.53,86.91.95,20.7,1.07,41.45.17,62.19-1.41,32.29-17.26,57.34-38.95,79.84-26.41,27.39-57.58,45.75-95.19,52.82a254.32,254.32,0,0,0-102.2,44c-40.35,0-80.71-.09-121.06.12-4.21,0-5-.86-5-5,.19-41.87.12-83.74.12-125.6,23.42-24.64,51.27-42.38,83.25-53.84a133.53,133.53,0,0,0,19.4-8.53c14.77-8.12,19.38-19.34,15.19-35.55a73.06,73.06,0,0,0-3-9.37C93.22,475.24,58.13,427.37,12.22,387.37c-3.31-2.88-5.85-7-10.7-7.92V252c5.41-6.1,8.77-13.43,12.15-20.71,8-17.36,8-34.57-1.64-51.39C8.66,174,5,168.22,1.52,162.4c0-51.53.13-103.06-.19-154.58C1.29,1.93,3,1.4,8.11,1.41Q186.19,1.62,364.27,1.52Z" transform="translate(-1.33 -1.41)"/><path class="b" d="M1367.52,508.46c-25.64-8.64-50.18-19.95-74.9-30.78-14.34-6.29-28.31-13.43-42.69-19.63-19.47-8.4-32-23.15-40.58-42a207.22,207.22,0,0,1-16.09-51.2c-7.33-43-28.25-78.86-55-112.35q-67.59-84.73-134-170.39c-19.4-25-33.68-53.36-49.62-80.6H1271.9c3.78,7.7,10.21,13.05,16.85,17.93,25,18.36,52.94,31.86,78.77,48.85Z" transform="translate(-1.33 -1.41)"/><path class="a" d="M1.52,379.45c4.85.88,7.39,5,10.7,7.92,45.91,40,81,87.87,104.12,144.33a73.06,73.06,0,0,1,3,9.37c4.19,16.21-.42,27.43-15.19,35.55a133.53,133.53,0,0,1-19.4,8.53c-32,11.46-59.83,29.2-83.25,53.84Z" transform="translate(-1.33 -1.41)"/><path class="b" d="M1261.27,769.52c1.82-32.51-1.74-64.59-8.22-96.35-3.4-16.68,1.43-28.91,15.8-38.13,29.86-19.14,61.37-35.08,93.61-49.69,1.6-.73,3.19-1.59,5.06-1,0,59.95-.07,119.9.13,179.85,0,4.53-.91,5.48-5.45,5.45C1328.56,769.41,1294.92,769.52,1261.27,769.52Z" transform="translate(-1.33 -1.41)"/><path class="a" d="M1367.52,68.3c-25.83-17-53.82-30.49-78.77-48.85-6.64-4.88-13.07-10.23-16.85-17.93,30.35,0,60.71.08,91.06-.1,3.8,0,4.7.85,4.66,4.65C1367.41,26.82,1367.52,47.56,1367.52,68.3Z" transform="translate(-1.33 -1.41)"/><path class="a" d="M1.52,162.4C5,168.22,8.66,174,12,179.85c9.63,16.82,9.69,34,1.64,51.39C10.29,238.52,6.93,245.85,1.52,252Z" transform="translate(-1.33 -1.41)"/><path class="b" d="M712.28,729c-12,0-23.81-.61-35.12-4.94a46.18,46.18,0,0,1-8.21-3.83c-9.91-6.28-11.31-15.37-3.74-24.32,5.65-6.69,13-11.21,20.83-14.86,30.16-14.07,61.86-21.76,95.21-21.93a101,101,0,0,1,29.16,4.07,39.29,39.29,0,0,1,22.16,16.24c5.54,8.27,4.55,14.78-2.77,21.51a36.85,36.85,0,0,1-14.5,8C781.63,719.11,747.59,727.4,712.28,729Z" transform="translate(-1.33 -1.41)"/><path class="b" d="M1116.76,697.52h-1.51c-6,0-12.94-.35-14.81-6.6-1.68-5.6,3.21-10.15,7.92-13.44,26.42-18.4,53.91-34.85,84.6-45.17,8.07-2.71,16.57-4.81,25.24-1.82,8.92,3.09,10.55,9.75,4.23,16.92-15.54,17.63-36.44,26.92-57.16,36.29C1149.85,690.68,1133.87,696.21,1116.76,697.52Z" transform="translate(-1.33 -1.41)"/></svg>