<svg xmlns="http://www.w3.org/2000/svg" viewBox="0 0 1943.04 1093.19"><defs><style>.a{fill:#ffffff;}.b{fill:#41c7f6;}</style></defs><title>1800f_00215</title><path class="a" d="M-286.86,370.34v-82a15.59,15.59,0,0,1,3.38,1.48c14.43,11.14,29.77,21,45.15,30.68,14.92,9.43,28.88,20.48,45.81,26.56,22.9,8.23,46.54,11,70.72,11.6,52.45,1.22,102.73-11.86,153.35-22.59,31.76-6.73,60.24-21.8,88.87-36.37,18.7-9.51,37.46-19,57.59-25.18,15.48-4.78,30.8-7,46.53.23,11.65,5.37,23.77,3.38,35.32-1.64a110.3,110.3,0,0,0,24.56-14.93c19.09-15.05,35.72-32.83,54.06-48.73,28.83-25,59.59-47.8,86.64-74.82,24.5-24.47,48.39-49.54,72.61-74.3a515.48,515.48,0,0,0,41.33-48.43c21-27.54,39.4-57,62.06-83.31,6.63-7.69,13.77-14.87,22.69-19.93,10.31-5.86,19.31-4.27,27.11,4.64,6.07,6.93,10.24,15,13.67,23.5,8.27,20.37,16,41,24.69,61.16C702.15,27.73,718.37,55.34,744,76.13c48.37,39.2,103.58,60.4,166,61.74,45,1,89.84-4.24,134.75-6.58,23-1.2,45.86-3.32,68.91-.83,20.62,2.22,35.82,11.41,43.83,31.06,3.81,9.36,7.66,18.71,11.24,28.16,11.23,29.68,29.11,54.14,55.51,72.17a140.11,140.11,0,0,1,23.81,21.07c24.11,26.16,40.14,56.86,50.89,90.49,8.92,27.9,14.57,56.79,25.79,84,11.67,28.28,25.91,54.89,48,76.57,25.23,24.75,50.73,27.82,81,9.52,10.37-6.27,20.18-13.47,30.31-20.14s20.9-12.24,32.92-15c28.57-6.65,55.68-1.37,82.14,9.66,19.59,8.17,38.21,18.3,56.84,28.41q0,188.9.14,377.8c0,6.07-.82,7.92-7.6,7.91Q737.71,931.8-173,931.92a40.49,40.49,0,0,1,.94-4.43,738.44,738.44,0,0,0,27.38-111.81c4.69-28.15,11.79-55.86,14.46-84.38,2.8-30,2.23-60.11,2.87-90.18.65-30.35,6.8-58.88,24.85-84.43S-66.67,505.26-43.24,484c21.08-19.12,40.42-21.11,64.88-6.73a134.19,134.19,0,0,1,27.22,21.66c46.92,47.38,85.79,100.79,118.32,158.89,18.91,33.76,37.6,67.68,62.08,97.88,10.57,13,22.43,24.81,38,31.94,17.36,8,32.73,3.67,42.57-12.64,13-21.51,13.59-45.16,9.53-69.06-6.47-38.11-13.74-76.07-19.28-114.35-5.22-36-12.25-71.77-25.24-106-11.47-30.23-27.73-56.81-56.78-73.47-17.25-9.9-35.91-16.2-55-21.37-28-7.6-56.29-12.3-85.38-6.82-22.95,4.33-43.5,14.68-63.88,25.4-16.7,8.78-33.44,17.15-53.21,14.09-13.3-2.05-26.43-5.32-38.56-10.94C-144.29,381.78-215.09,373.75-286.86,370.34ZM868.45,432.51c10.41.21,20.63-1.5,30.84-3.2,22.2-3.7,44.66-7.27,64.21-19.2,44.83-27.36,89.41-55.14,132.85-84.7a53.82,53.82,0,0,0,10.12-9.09c8.88-10.09,8.38-23.12-1.08-32.69A45,45,0,0,0,1088.12,273c-18.86-6.76-38.21-7.33-57.52-3.28-19.76,4.15-39.23,9.62-58.9,14.2C935.46,292.39,900,303,866,318.49c-20.7,9.46-38.43,22.2-49.72,42.61-13.45,24.31-6.42,51.58,16.94,64.07C844.15,431,856.14,432.77,868.45,432.51Z" transform="translate(287 161.07)"/><path class="b" d="M1655.9,546.4c-18.63-10.11-37.25-20.24-56.84-28.41-26.46-11-53.57-16.31-82.14-9.66-12,2.8-22.73,8.33-32.92,15s-19.94,13.87-30.31,20.14c-30.24,18.3-55.74,15.23-81-9.52-22.08-21.68-36.32-48.29-48-76.57-11.22-27.22-16.87-56.11-25.79-84-10.75-33.63-26.78-64.33-50.89-90.49a140.11,140.11,0,0,0-23.81-21.07c-26.4-18-44.28-42.49-55.51-72.17-3.58-9.45-7.43-18.8-11.24-28.16-8-19.65-23.21-28.84-43.83-31.06-23.05-2.49-46-.37-68.91.83-44.91,2.34-89.7,7.55-134.75,6.58-62.39-1.34-117.6-22.54-166-61.74C718.37,55.34,702.15,27.73,689.28-2c-8.72-20.17-16.42-40.79-24.69-61.16-3.43-8.46-7.6-16.57-13.67-23.5-7.8-8.91-16.8-10.5-27.11-4.64-8.92,5.06-16.06,12.24-22.69,19.93-22.66,26.29-41.07,55.77-62.06,83.31a515.48,515.48,0,0,1-41.33,48.43c-24.22,24.76-48.11,49.83-72.61,74.3-27.05,27-57.81,49.82-86.64,74.82-18.34,15.9-35,33.68-54.06,48.73a110.3,110.3,0,0,1-24.56,14.93c-11.55,5-23.67,7-35.32,1.64-15.73-7.26-31-5-46.53-.23-20.13,6.22-38.89,15.67-57.59,25.18-28.63,14.57-57.11,29.64-88.87,36.37-50.62,10.73-100.9,23.81-153.35,22.59-24.18-.57-47.82-3.37-70.72-11.6-16.93-6.08-30.89-17.13-45.81-26.56-15.38-9.72-30.72-19.54-45.15-30.68a15.59,15.59,0,0,0-3.38-1.48v-85c15.52-11.31,31.28-22.26,48.8-30.34,44.18-20.37,74.69-53.57,89.06-99.83,10.71-34.51,31.7-61,57.3-84.91C-61.38-40-35.94-71.61-23.32-111.95c5-16.1,11.08-31.94,12.7-48.93H217c6.16,23,16.1,44.05,32.89,61.23,18.55,19,37.82,19.37,57.05,1,18.64-17.79,32.34-39.22,43.63-62.25H1234l34.53,24.57a151.42,151.42,0,0,0,28.93,16.44c16.72,7,30.75,1.59,37.15-14.45,3.39-8.5,4.84-17.48,5.64-26.56q154.32,0,308.64-.19c6.46,0,7.21,1.69,7.2,7.54Q1655.79,196.44,1655.9,546.4ZM1364.21,77.7c19.26-.43,42.61-9.08,59.36-22.29,20.47-16.14,22-37.15,4.17-56.11-1.73-1.83-3.5-3.65-5.37-5.34-17.35-15.66-43-18.6-58.34-5.79-19.88,16.6-29.44,38.78-31.09,64.25-.85,12.93,5.88,21,18.52,23.91C1355.59,77.3,1360,77.27,1364.21,77.7Z" transform="translate(287 161.07)"/><path class="b" d="M-286.86,370.34c71.77,3.41,142.57,11.44,208.9,42.13,12.13,5.62,25.26,8.89,38.56,10.94,19.77,3.06,36.51-5.31,53.21-14.09,20.38-10.72,40.93-21.07,63.88-25.4,29.09-5.48,57.36-.78,85.38,6.82,19.08,5.17,37.74,11.47,55,21.37,29.05,16.66,45.31,43.24,56.78,73.47,13,34.24,20,70,25.24,106,5.54,38.28,12.81,76.24,19.28,114.35,4.06,23.9,3.44,47.55-9.53,69.06-9.84,16.31-25.21,20.59-42.57,12.64-15.57-7.13-27.43-18.9-38-31.94-24.48-30.2-43.17-64.12-62.08-97.88-32.53-58.1-71.4-111.51-118.32-158.89a134.19,134.19,0,0,0-27.22-21.66c-24.46-14.38-43.8-12.39-64.88,6.73-23.43,21.26-41.16,47-59.29,72.69s-24.2,54.08-24.85,84.43c-.64,30.07-.07,60.16-2.87,90.18-2.67,28.52-9.77,56.23-14.46,84.38a738.44,738.44,0,0,1-27.38,111.81,40.49,40.49,0,0,0-.94,4.43c-36.09,0-72.18-.13-108.27.15-5,0-5.67-1.52-5.66-6q.21-108.66.1-217.32c6.36-6.95,10.79-15.22,15.65-23.18,13.53-22.16,19.55-46.61,20-72.24.48-29.32-14.86-51.19-35.62-70Z" transform="translate(287 161.07)"/><path class="a" d="M-10.62-160.88c-1.62,17-7.66,32.83-12.7,48.93C-35.94-71.61-61.38-40-91.7-11.7c-25.6,23.89-46.59,50.4-57.3,84.91-14.37,46.26-44.88,79.46-89.06,99.83-17.52,8.08-33.28,19-48.8,30.34q0-178.87-.14-357.77c0-5.32.92-6.67,6.53-6.65Q-145.55-160.69-10.62-160.88Z" transform="translate(287 161.07)"/><path class="a" d="M350.61-160.88c-11.29,23-25,44.46-43.63,62.25-19.23,18.35-38.5,18-57.05-1-16.79-17.18-26.73-38.24-32.89-61.23Z" transform="translate(287 161.07)"/><path class="a" d="M-286.86,543.37c20.76,18.82,36.1,40.69,35.62,70-.42,25.63-6.44,50.08-20,72.24-4.86,8-9.29,16.23-15.65,23.18Z" transform="translate(287 161.07)"/><path class="a" d="M1340.2-160.88c-.8,9.08-2.25,18.06-5.64,26.56-6.4,16-20.43,21.48-37.15,14.45a151.42,151.42,0,0,1-28.93-16.44L1234-160.88Z" transform="translate(287 161.07)"/><path class="b" d="M868.45,432.51c-12.31.26-24.3-1.5-35.22-7.34-23.36-12.49-30.39-39.76-16.94-64.07,11.29-20.41,29-33.15,49.72-42.61C900,303,935.46,292.39,971.7,283.94c19.67-4.58,39.14-10.05,58.9-14.2,19.31-4.05,38.66-3.48,57.52,3.28a45,45,0,0,1,17.27,10.61c9.46,9.57,10,22.6,1.08,32.69a53.82,53.82,0,0,1-10.12,9.09c-43.44,29.56-88,57.34-132.85,84.7-19.55,11.93-42,15.5-64.21,19.2C889.08,431,878.86,432.72,868.45,432.51Z" transform="translate(287 161.07)"/><path class="a" d="M1364.21,77.7c-4.26-.43-8.62-.4-12.75-1.37-12.64-2.94-19.37-11-18.52-23.91C1334.59,27,1344.15,4.77,1364-11.83c15.33-12.81,41-9.87,58.34,5.79,1.87,1.69,3.64,3.51,5.37,5.34,17.87,19,16.3,40-4.17,56.11C1406.82,68.62,1383.47,77.27,1364.21,77.7Z" transform="translate(287 161.07)"/></svg>