<svg xmlns="http://www.w3.org/2000/svg" viewBox="0 0 1943.16 1093.09"><defs><style>.a{fill:#ffffff;}.b{fill:#41c7f6;}</style></defs><title>1800f_00201</title><path class="a" d="M-286.86,640.5v-384c5.23,3.17,7.34,8.83,10.42,13.59,21.81,33.59,47.32,63.56,80.47,86.74,14.89,10.41,29.11,21.89,42.93,33.71,18.68,16,36.78,32.89,46.53,56.16C-93.4,478-92.68,511.13-94.06,544.38c-.34,8.32-1.54,16.6.25,24.88,2.15,9.92,4.22,11.94,14.41,11.29,18.38-1.17,36.47-4.87,54.78-6.95C6.75,570,33.6,578.52,57.86,598.18c16.9,13.69,31.86,29.53,48.78,43.17,8.32,6.69,14.6,5.16,18.73-4.71a99.69,99.69,0,0,0,7.29-30.84c2.32-29.47,5.05-58.93,6.37-88.45,2.09-46.73,3.81-93.56-4.07-140-7.91-46.67-30.18-83.76-73.18-106.51-13.2-7-26.82-13-40.38-19.26-16.08-7.37-30.61-16.87-40.17-32.33-6.15-10-6-20.11.29-30s15.41-16.69,25.6-22c28.15-14.68,58.44-21,89.93-21.06,15,0,29.17-2.57,42.7-8.69,36.62-16.56,73.41-32.78,109.67-50.1,31.81-15.19,61.69-33.75,88.4-56.95C399.11-22.8,448.75-85.71,491-154.74c1.13-1.85,3.07-3.53,2.33-6.14H743.71c11.73,13.82,17.91,29.64,17.66,47.91-.1,7.84.09,15.68.45,23.51,1.2,25.79,12.35,45,37,54.9a131.09,131.09,0,0,0,16.45,5.69c34.45,8.69,69.23,7,104,2.4,46.62-6.19,93.19-12.61,140.45-9.93a156.6,156.6,0,0,0,30.29-.84c17.37-2.39,32.61-10.52,48.33-17.39,17.7-7.74,35.61-14.38,55.41-13.89,28.21.7,44.23,15.59,44.4,43.62.15,26.27,6,51,15.59,75.23,10.89,27.6,19,56,23.11,85.42,2.72,19.23,4.65,38.61,10.22,57.38,9.64,32.48,28.14,54.76,63.91,59.39,18.5,2.4,36.93,5.89,54.58,12.44,23.16,8.6,42.17,23.77,61.39,38.61,62.22,48.06,123.11,97.89,188.93,141.14V663.27c-1,1.44-2.08,2.84-3,4.31-26.83,41.64-54.18,82.91-85,121.76C1529.58,837.61,1483.13,875.17,1425,897c-16.76,6.3-34.21,10.74-51.16,16.54-9.4,3.21-17.85,8.16-21.52,18.38q-816.19,0-1632.38.14c-5.72,0-7.5-1.28-6.94-7s.12-11.62.12-17.44a38.67,38.67,0,0,0,2.31-4.65c13.55-39.32,34.34-74.08,63.65-103.82,18.8-19.07,38-37.83,54.07-59.42,25.34-34.09,44.75-70.85,51.23-113.47,2.16-14.2-3.37-19.62-17.42-16.29-21.79,5.16-41.57,15.57-62,24.23-17.37,7.36-34.17,16.25-54,16.06C-262.7,650.15-274.52,644.71-286.86,640.5Z" transform="translate(287.08 161.02)"/><path class="b" d="M493.28-160.88c.74,2.61-1.2,4.29-2.33,6.14-42.2,69-91.84,131.94-153.13,185.16-26.71,23.2-56.59,41.76-88.4,57-36.26,17.32-73,33.54-109.67,50.1-13.53,6.12-27.68,8.67-42.7,8.69-31.49,0-61.78,6.38-89.93,21.06-10.19,5.31-19.31,12.08-25.6,22s-6.44,20.08-.29,30c9.56,15.46,24.09,25,40.17,32.33,13.56,6.22,27.18,12.27,40.38,19.26,43,22.75,65.27,59.84,73.18,106.51,7.88,46.43,6.16,93.26,4.07,140-1.32,29.52-4.05,59-6.37,88.45a99.69,99.69,0,0,1-7.29,30.84c-4.13,9.87-10.41,11.4-18.73,4.71-16.92-13.64-31.88-29.48-48.78-43.17C33.6,578.52,6.75,570-24.62,573.6c-18.31,2.08-36.4,5.78-54.78,6.95-10.19.65-12.26-1.37-14.41-11.29-1.79-8.28-.59-16.56-.25-24.88,1.38-33.25.66-66.38-12.45-97.67-9.75-23.27-27.85-40.18-46.53-56.16-13.82-11.82-28-23.3-42.93-33.71-33.15-23.18-58.66-53.15-80.47-86.74-3.08-4.76-5.19-10.42-10.42-13.59q0-205.53-.17-411.06c0-5.79,1.57-6.46,6.73-6.45Q106.49-160.8,493.28-160.88Z" transform="translate(287.08 161.02)"/><path class="b" d="M1655.9,444.71c-65.82-43.25-126.71-93.08-188.93-141.14-19.22-14.84-38.23-30-61.39-38.61-17.65-6.55-36.08-10-54.58-12.44-35.77-4.63-54.27-26.91-63.91-59.39-5.57-18.77-7.5-38.15-10.22-57.38-4.16-29.47-12.22-57.82-23.11-85.42-9.55-24.2-15.44-49-15.59-75.23-.17-28-16.19-42.92-44.4-43.62-19.8-.49-37.71,6.15-55.41,13.89-15.72,6.87-31,15-48.33,17.39a156.6,156.6,0,0,1-30.29.84c-47.26-2.68-93.83,3.74-140.45,9.93-34.74,4.61-69.52,6.29-104-2.4a131.09,131.09,0,0,1-16.45-5.69c-24.7-9.92-35.85-29.11-37-54.9-.36-7.83-.55-15.67-.45-23.51.25-18.27-5.93-34.09-17.66-47.91q452.68,0,905.36-.14c5.69,0,7.26,1.24,7,7-.53,10.85-.15,21.74-.15,32.62-14.55,1.63-29.18,2.73-43.62,5-25.32,4-50.17,9.86-71.39,25.42-15.43,11.31-24,26.22-23.31,45.92a86.44,86.44,0,0,0,9.62,36.34c25,49.34,56.9,94.18,90.64,137.72,9.7,12.53,21.61,23.47,38.06,27.33Z" transform="translate(287.08 161.02)"/><path class="b" d="M1352.34,931.92c3.67-10.22,12.12-15.17,21.52-18.38,17-5.8,34.4-10.24,51.16-16.54,58.11-21.83,104.56-59.39,142.85-107.66,30.82-38.85,58.17-80.12,85-121.76,1-1.47,2-2.87,3-4.31q0,131.29.14,262.58c0,5.19-1,6.22-6.22,6.21Q1501.08,931.78,1352.34,931.92Z" transform="translate(287.08 161.02)"/><path class="a" d="M1655.9,156.33c-16.45-3.86-28.36-14.8-38.06-27.33-33.74-43.54-65.68-88.38-90.64-137.72a86.44,86.44,0,0,1-9.62-36.34c-.67-19.7,7.88-34.61,23.31-45.92,21.22-15.56,46.07-21.4,71.39-25.42,14.44-2.29,29.07-3.39,43.62-5Z" transform="translate(287.08 161.02)"/><path class="b" d="M-286.86,640.5c12.34,4.21,24.16,9.65,37.8,9.77,19.85.19,36.65-8.7,54-16.06,20.45-8.66,40.23-19.07,62-24.23,14.05-3.33,19.58,2.09,17.42,16.29-6.48,42.62-25.89,79.38-51.23,113.47-16,21.59-35.27,40.35-54.07,59.42C-250.21,828.9-271,863.66-284.55,903a38.67,38.67,0,0,1-2.31,4.65Z" transform="translate(287.08 161.02)"/></svg>