<svg xmlns="http://www.w3.org/2000/svg" viewBox="0 0 1943.07 1093.11"><defs><style>.a{fill:#ffffff;}.b{fill:#41c7f6;}</style></defs><title>1800f_00111</title><path class="a" d="M253.47,931.92q-267,0-534,.16c-5.68,0-6.5-1.43-6.5-6.69q.23-405,.13-810c11.44-2.18,23.08-2.08,34.61-3.17a604.08,604.08,0,0,1,138.42,3.08c27.58,3.75,55.18,6.62,83.1,3.25,17.55-2.12,35.22-3.31,52.84-4.81,26.43-2.26,52.94-3.43,79.15-8,35.46-6.2,67.07-21.89,98.29-38.77,35.83-19.37,72.13-37.75,110.85-50.85,31.92-10.81,64.24-19.84,98.13-21.6,32.94-1.71,64.88,4,96.5,12.76,22.16,6.11,43.58,15.09,66.37,18.66,42,6.56,84.27,4.34,126.45,3.61,39.67-.68,79.36-2.9,119-.25,55.42,3.7,106.36,22.88,155.52,47.48,25.82,12.92,44.83,32.14,56.42,59,11.48,26.57,11.89,54,8.55,81.89s-6.75,55.78-.7,83.75c3.85,17.75,9.58,34.7,22.53,48.11,10.78,11.16,21.84,12.22,34.79,3.86a105.88,105.88,0,0,0,17.47-14.5c24.27-24.46,45.07-51.92,67.51-78a232.83,232.83,0,0,0,46.74-86c6.34-21.12,6.7-42.83,8-64.49,1-16.13,2.47-32.24,3-48.39.54-15.36-4.26-20.24-19.22-22.6-10.56-1.67-21.16-1.56-31.76-1.7a152.09,152.09,0,0,1-62.35-14.33c-21.4-9.88-29.4-24.42-26.27-47.5,3.48-25.72,12.91-49.79,20.94-74.27,7.1-21.66,19.22-40,34.6-56.41,1.62-1.73,4.31-3,3.88-6.06H1281c.67,8.54,1.65,17.08,2,25.64.88,24.11-6,46.93-11.69,70C1265-39.75,1259-14.18,1256.5,12c-1.52,15.92,6.33,19,17.65,21.42,18.3,3.91,37,5.22,55.5,7.46C1350.14,43.4,1369,48.8,1385,63c21.91,19.45,40,42,57,65.67,34.76,48.27,48.86,102.19,42.57,161.12-4.5,42.22-9.58,84.27-6.7,126.93,2.68,39.58,5.44,79.09,12.41,118.23,13.89,78,51,140.39,120.58,181.23,14.56,8.54,29,17.36,45,23v167c-27.79,2.18-54.43-.85-78.47-16.62a70.1,70.1,0,0,0-13.62-6.57c-27.23-10.28-55.46-12.08-84.29-10.58-58.94,3.08-111.43,22.76-157.54,59.57H910.67c-14.13-5.06-28.87-7-43.7-8.17-30.39-2.31-60.4.06-89.87,8.17h-384c12.85-10.21,22.84-22.47,29.16-37.84,17.36-42.24,17.56-84.92,1.9-127.3-14.53-39.33-30.65-78.09-46.38-117-6.73-16.65-14.6-32.8-25.13-47.48-9-12.56-17.1-12.62-26.23-.54-6.6,8.75-11.62,18.42-16,28.32-14.33,32.33-36.35,58-65.64,77.59-12.13,8.12-19.19,19.68-22.41,33.74-2.93,12.81-3.68,25.92-5.45,38.89-4,29.26-8,58.51-6.77,88.21C211.46,899,227.4,922.61,253.47,931.92ZM75.77,391.57a125.11,125.11,0,0,0-2.32-26.81c-9-47.76-27.85-91.22-58-129.49-12.62-16-26.86-30.36-45.65-39.14-26.6-12.41-50.89-.67-57.84,27.73-4.57,18.65-5,37.51-2.18,56.43,6.38,43.17,24.17,81.81,48.35,117.54,17.24,25.48,37.73,48.19,64,64.91,22.25,14.17,37.4,8.75,46.09-16.25.58-1.67,1.06-3.37,1.54-5.07C74.09,426,75.76,410.19,75.77,391.57Zm60.52,259.05c.14,9.51,13.92,24.74,25.12,27.61,3.16.81,6.93,1.84,9.32-.72s1.62-6.3.43-9.36a43.59,43.59,0,0,0-24.45-25.21C139.84,640.06,136.18,643.1,136.29,650.62Z" transform="translate(287.01 161.03)"/><path class="b" d="M1156.55-160.88c.43,3.11-2.26,4.33-3.88,6.06-15.38,16.46-27.5,34.75-34.6,56.41-8,24.48-17.46,48.55-20.94,74.27C1094-1.06,1102,13.48,1123.4,23.36a152.09,152.09,0,0,0,62.35,14.33c10.6.14,21.2,0,31.76,1.7,15,2.36,19.76,7.24,19.22,22.6-.57,16.15-2,32.26-3,48.39-1.33,21.66-1.69,43.37-8,64.49a232.83,232.83,0,0,1-46.74,86c-22.44,26-43.24,53.5-67.51,78a105.88,105.88,0,0,1-17.47,14.5c-13,8.36-24,7.3-34.79-3.86-13-13.41-18.68-30.36-22.53-48.11-6-28-2.64-55.85.7-83.75s2.93-55.32-8.55-81.89c-11.59-26.83-30.6-46-56.42-59-49.16-24.6-100.1-43.78-155.52-47.48-39.62-2.65-79.31-.43-119,.25-42.18.73-84.5,2.95-126.45-3.61C548.61,22.31,527.19,13.33,505,7.22c-31.62-8.74-63.56-14.47-96.5-12.76-33.89,1.76-66.21,10.79-98.13,21.6-38.72,13.1-75,31.48-110.85,50.85-31.22,16.88-62.83,32.57-98.29,38.77-26.21,4.59-52.72,5.76-79.15,8-17.62,1.5-35.29,2.69-52.84,4.81-27.92,3.37-55.52.5-83.1-3.25a604.08,604.08,0,0,0-138.42-3.08c-11.53,1.09-23.17,1-34.61,3.17q0-134.7-.15-269.4c0-5.69,1.29-7,7-7Q438.26-160.8,1156.55-160.88Z" transform="translate(287.01 161.03)"/><path class="b" d="M1655.9,739.16c-16-5.66-30.47-14.48-45-23-69.59-40.84-106.69-103.23-120.58-181.23-7-39.14-9.73-78.65-12.41-118.23-2.88-42.66,2.2-84.71,6.7-126.93,6.29-58.93-7.81-112.85-42.57-161.12C1425,105,1406.87,82.41,1385,63c-16-14.16-34.82-19.56-55.31-22-18.53-2.24-37.2-3.55-55.5-7.46C1262.83,31,1255,28,1256.5,12c2.51-26.22,8.54-51.79,14.77-77.28,5.65-23.07,12.57-45.89,11.69-70-.31-8.56-1.29-17.1-2-25.64q184.41,0,368.82-.15c5.2,0,6.36,1,6.23,6.22-.41,17.7-.15,35.41-.15,53.12a24.61,24.61,0,0,0-5.2.75c-20.88,7.53-36.51,21.29-46.76,40.85-5.28,10.06-7.11,20.93-4.36,32.31,5.69,23.55,29.2,43.44,56.32,47.51Z" transform="translate(287.01 161.03)"/><path class="b" d="M253.47,931.92c-26.07-9.31-42-32.93-43.32-63.39-1.28-29.7,2.78-58.95,6.77-88.21,1.77-13,2.52-26.08,5.45-38.89,3.22-14.06,10.28-25.62,22.41-33.74,29.29-19.61,51.31-45.26,65.64-77.59,4.38-9.9,9.4-19.57,16-28.32,9.13-12.08,17.24-12,26.23.54,10.53,14.68,18.4,30.83,25.13,47.48,15.73,38.89,31.85,77.65,46.38,117,15.66,42.38,15.46,85.06-1.9,127.3-6.32,15.37-16.31,27.63-29.16,37.84Z" transform="translate(287.01 161.03)"/><path class="b" d="M1322,931.92c46.11-36.81,98.6-56.49,157.54-59.57,28.83-1.5,57.06.3,84.29,10.58a70.1,70.1,0,0,1,13.62,6.57c24,15.77,50.68,18.8,78.47,16.62,0,7.58-.16,15.18.08,22.76.08,2.64-.48,3.56-3.13,3.08a20.72,20.72,0,0,0-3.78,0Z" transform="translate(287.01 161.03)"/><path class="a" d="M1655.9,19.73c-27.12-4.07-50.63-24-56.32-47.51-2.75-11.38-.92-22.25,4.36-32.31,10.25-19.56,25.88-33.32,46.76-40.85a24.61,24.61,0,0,1,5.2-.75Z" transform="translate(287.01 161.03)"/><path class="b" d="M777.1,931.92c29.47-8.11,59.48-10.48,89.87-8.17,14.83,1.12,29.57,3.11,43.7,8.17Z" transform="translate(287.01 161.03)"/><path class="b" d="M75.77,391.57c0,18.62-1.68,34.41-6,49.85-.48,1.7-1,3.4-1.54,5.07-8.69,25-23.84,30.42-46.09,16.25-26.28-16.72-46.77-39.43-64-64.91-24.18-35.73-42-74.37-48.35-117.54-2.8-18.92-2.39-37.78,2.18-56.43,7-28.4,31.24-40.14,57.84-27.73,18.79,8.78,33,23.15,45.65,39.14,30.19,38.27,49,81.73,58,129.49A125.11,125.11,0,0,1,75.77,391.57Z" transform="translate(287.01 161.03)"/><path class="b" d="M136.29,650.62c-.11-7.52,3.55-10.56,10.42-7.68a43.59,43.59,0,0,1,24.45,25.21c1.19,3.06,1.88,6.87-.43,9.36s-6.16,1.53-9.32.72C150.21,675.36,136.43,660.13,136.29,650.62Z" transform="translate(287.01 161.03)"/></svg>