<svg xmlns="http://www.w3.org/2000/svg" viewBox="0 0 1943.05 1093.1"><defs><style>.a{fill:#ffffff;}.b{fill:#41c7f6;}</style></defs><title>1800f_00351</title><path class="a" d="M1403.94,931.92q-842,0-1684,.14c-5.69,0-7-1.28-7-7,.24-63.5.15-127,.15-190.48,9.28-4,18.56-8,27.85-12,62.48-26.67,115.53-66.14,160.34-117.11C-81,585.39-63.54,565-43.74,546.86c20.16-18.47,39.8-18.25,59.39.73C22,553.74,27.79,560.45,35.55,565c28,16.58,58.54,24.82,90.79,26.5,26.72,1.39,48.17-9.06,63.81-31.08,8.51-12,15.59-24.83,23.39-37.24,25.07-39.9,59.69-67.44,106.14-77.24,39.22-8.28,77,.21,112.91,16.55,18.25,8.3,37,10.81,56.23,7,50.67-10.18,88.37-39.58,116.43-81.94,12.17-18.36,18.15-39.09,16.42-61.21-2.65-33.88-16.51-63.93-34.36-92.17-10.51-16.63-25.83-25.58-46.23-22.28-13.17,2.13-23.94,9.45-33.57,18.2-11.78,10.71-23,22.06-34.59,32.95-9.83,9.2-20.59,17-33.21,22.22-48.71,20-98.79,22-149.62,10.79-29.13-6.45-58-11-87.52-2.47-10.11,2.93-20.65,4.92-31.38,4.53-13.11-.48-20-7.52-20-20.46,0-7.15,1.62-14.07,3.64-20.82,12.39-41.4,25.2-82.68,37.38-124.14A199.21,199.21,0,0,1,224.62,68,300.53,300.53,0,0,0,259,9.19,364.8,364.8,0,0,0,283.4-67.22c6.47-32,17-62.89,27.74-93.66h836.3c-2.19,21.82.68,43.4,3.76,64.86,5.78,40.42,6.33,80.51-3.83,120.41-7.47,29.37-21.73,53.59-48.68,69.32-10.24,6-19.91,13-29.5,20-29.57,21.59-57.64,45.37-91.56,60.45-8,3.57-15,9.36-21.06,15.93-21.38,23-17.12,54.1,9.76,70.23,9.88,5.93,20.72,9.3,31.94,11.48,34.81,6.77,69.14,3.22,102.65-6.85,22.74-6.83,42.27-2.78,60.39,11.61,3.36,2.67,7,5.06,10.18,7.9,39.41,34.84,84.69,59.35,134.12,76.65q50.09,17.52,100.08,35.31c32.82,11.74,66.65,20.6,98.7,34.53,17.72,7.71,32.16,19.54,40.53,37.14,14.9,31.35,19.82,64.59,15.77,99-3.31,28.13-17.64,51.31-34.5,73.15-26.73,34.61-54.49,68.5-75.29,107.26C1420,805.08,1402,866,1403.94,931.92ZM959.61,559.82c20.26.24,40.33-2.22,60.41-4.47,27.86-3.11,55.73-6.42,82.74-14.35,37.83-11.09,69.2-32.84,96.81-60.25,15-14.86,27.62-31.54,35.23-51.58,4.17-11,2.43-21.1-4.78-29.92-18.52-22.67-43.45-29.42-71.33-26.46-20.2,2.14-39.37,9.17-58.38,16q-106,38-208.88,84c-26.59,11.89-53.48,22.87-83.09,24.69-19.91,1.22-39.9,1.11-59.74,3.51-28.61,3.47-55.35,11.9-77.9,30.63-13.78,11.46-22.83,25.64-22.29,44.39.7,24.34,14.43,35,38,29.41,4.66-1.1,9.28-2.44,13.81-4,26.85-9.19,52.53-21.2,77.54-34.38,32.24-17,65.69-21.09,101.32-15.21C905.68,556.16,932.48,560,959.61,559.82ZM615.55,860.52c7.09-.46,13.38,1.31,17.94-4.62,3.9-5.09,4-10.81,3.42-16.57-3.28-30-10-59.2-22.79-86.72-12-25.72-29.51-45.45-59.6-47.52C524.86,703,498,711.64,476.36,733c-8.89,8.79-13.92,19.64-13.53,32.66.5,16.69,10.78,27.34,22.61,36.76,24.91,19.85,53.06,34.08,82.41,46C583.53,854.81,599.44,860.61,615.55,860.52Z" transform="translate(287.01 161.04)"/><path class="b" d="M311.14-160.88c-10.76,30.77-21.27,61.61-27.74,93.66A364.8,364.8,0,0,1,259,9.19,300.53,300.53,0,0,1,224.62,68a199.21,199.21,0,0,0-32.4,64.65c-12.18,41.46-25,82.74-37.38,124.14-2,6.75-3.64,13.67-3.64,20.82,0,12.94,6.88,20,20,20.46,10.73.39,21.27-1.6,31.38-4.53,29.56-8.55,58.39-4,87.52,2.47,50.83,11.24,100.91,9.2,149.62-10.79,12.62-5.18,23.38-13,33.21-22.22,11.62-10.89,22.81-22.24,34.59-32.95,9.63-8.75,20.4-16.07,33.57-18.2,20.4-3.3,35.72,5.65,46.23,22.28,17.85,28.24,31.71,58.29,34.36,92.17,1.73,22.12-4.25,42.85-16.42,61.21-28.06,42.36-65.76,71.76-116.43,81.94-19.21,3.86-38,1.35-56.23-7C396.65,446.19,358.9,437.7,319.68,446c-46.45,9.8-81.07,37.34-106.14,77.24-7.8,12.41-14.88,25.27-23.39,37.24-15.64,22-37.09,32.47-63.81,31.08-32.25-1.68-62.77-9.92-90.79-26.5-7.76-4.59-13.56-11.3-19.9-17.45-19.59-19-39.23-19.2-59.39-.73C-63.54,565-81,585.39-98.67,605.5c-44.81,51-97.86,90.44-160.34,117.11-9.29,4-18.57,8-27.85,12V138.12c3.48-.41,5.41,2.28,7.78,4,20.11,14.61,36.3,33.64,55.45,49.31,19.45,15.92,39.77,30.41,64.7,36.68,23.34,5.88,35.69.59,46.76-20.56,8.89-17,19.88-32.34,34.94-44.28,10.27-8.15,21.15-15.56,32-23,35.57-24.2,67.34-52.46,92.92-87.23C59.17,37.49,66.63,20.23,65,.24c-1.11-13.48-5.49-26.17-10.51-38.6-15.94-39.4-32.22-78.7-30.18-122.52Z" transform="translate(287.01 161.04)"/><path class="b" d="M1403.94,931.92C1402,866,1420,805.08,1450.9,747.49c20.8-38.76,48.56-72.65,75.29-107.26,16.86-21.84,31.19-45,34.5-73.15,4-34.41-.87-67.65-15.77-99-8.37-17.6-22.81-29.43-40.53-37.14-32.05-13.93-65.88-22.79-98.7-34.53q-50-17.88-100.08-35.31c-49.43-17.3-94.71-41.81-134.12-76.65-3.21-2.84-6.82-5.23-10.18-7.9-18.12-14.39-37.65-18.44-60.39-11.61-33.51,10.07-67.84,13.62-102.65,6.85-11.22-2.18-22.06-5.55-31.94-11.48-26.88-16.13-31.14-47.22-9.76-70.23,6.11-6.57,13-12.36,21.06-15.93,33.92-15.08,62-38.86,91.56-60.45,9.59-7,19.26-14,29.5-20,27-15.73,41.21-39.95,48.68-69.32,10.16-39.9,9.61-80,3.83-120.41-3.08-21.46-6-43-3.76-64.86H1382.7a202.44,202.44,0,0,0,4.1,36.84c9.92,50.64,24.2,100.19,39,149.56,9.79,32.77,22.48,64.53,43.26,92.25,35,46.71,81.12,67.1,139.13,56.55,34.28-6.24,50.86-32.39,44-66.46-3.65-18.11-8.86-35.81-14.6-53.34-24.59-75-48.83-150.17-95.47-215.4,35.92,0,71.84.14,107.76-.16,5.21,0,6.23,1,6.22,6.23q-.27,238.67-.14,477.34V856c-32.2,12.66-62.88,28.4-92.48,46.22-14.84,8.94-29.79,17.79-42.61,29.67Z" transform="translate(287.01 161.04)"/><path class="a" d="M24.28-160.88c-2,43.82,14.24,83.12,30.18,122.52,5,12.43,9.4,25.12,10.51,38.6,1.66,20-5.8,37.25-17.28,52.85-25.58,34.77-57.35,63-92.92,87.23-10.85,7.39-21.73,14.8-32,23-15.06,11.94-26,27.27-34.94,44.28-11.07,21.15-23.42,26.44-46.76,20.56-24.93-6.27-45.25-20.76-64.7-36.68-19.15-15.67-35.34-34.7-55.45-49.31-2.37-1.72-4.3-4.41-7.78-4q0-146.28-.15-292.57c0-5.49,1.15-6.59,6.6-6.58Q-128.07-160.73,24.28-160.88Z" transform="translate(287.01 161.04)"/><path class="a" d="M1542.06-160.88c46.64,65.23,70.88,140.4,95.47,215.4,5.74,17.53,11,35.23,14.6,53.34,6.87,34.07-9.71,60.22-44,66.46-58,10.55-104.14-9.84-139.13-56.55-20.78-27.72-33.47-59.48-43.26-92.25-14.75-49.37-29-98.92-39-149.56a202.44,202.44,0,0,1-4.1-36.84Z" transform="translate(287.01 161.04)"/><path class="a" d="M1520.81,931.92c12.82-11.88,27.77-20.73,42.61-29.67,29.6-17.82,60.28-33.56,92.48-46.22,0,23.78-.1,47.56.1,71.33,0,3.8-.86,4.67-4.66,4.66C1607.83,931.86,1564.32,931.92,1520.81,931.92Z" transform="translate(287.01 161.04)"/><path class="b" d="M959.61,559.82c-27.13.13-53.93-3.66-80.55-8.05C843.43,545.89,810,550,777.74,567c-25,13.18-50.69,25.19-77.54,34.38-4.53,1.55-9.15,2.89-13.81,4-23.55,5.55-37.28-5.07-38-29.41-.54-18.75,8.51-32.93,22.29-44.39,22.55-18.73,49.29-27.16,77.9-30.63,19.84-2.4,39.83-2.29,59.74-3.51,29.61-1.82,56.5-12.8,83.09-24.69q102.84-46,208.88-84c19-6.81,38.18-13.84,58.38-16,27.88-3,52.81,3.79,71.33,26.46,7.21,8.82,9,18.95,4.78,29.92-7.61,20-20.27,36.72-35.23,51.58-27.61,27.41-59,49.16-96.81,60.25-27,7.93-54.88,11.24-82.74,14.35C999.94,557.6,979.87,560.06,959.61,559.82Z" transform="translate(287.01 161.04)"/><path class="b" d="M615.55,860.52c-16.11.09-32-5.71-47.7-12.08-29.35-11.92-57.5-26.15-82.41-46-11.83-9.42-22.11-20.07-22.61-36.76-.39-13,4.64-23.87,13.53-32.66,21.61-21.38,48.5-30,78.16-27.93,30.09,2.07,47.63,21.8,59.6,47.52,12.8,27.52,19.51,56.69,22.79,86.72.63,5.76.48,11.48-3.42,16.57C628.93,861.83,622.64,860.06,615.55,860.52Z" transform="translate(287.01 161.04)"/></svg>