<svg xmlns="http://www.w3.org/2000/svg" viewBox="0 0 1943.05 1093.1"><defs><style>.a{fill:#ffffff;}.b{fill:#41c7f6;}</style></defs><title>1800f_00169</title><path class="a" d="M1655.9,163.92v520.6c-9.1,4.83-18.1,9.87-27.33,14.42-8.71,4.3-18,6.89-27.8,5.9-14.85-1.5-23.8-11.25-30.7-23.32-10.21-17.83-13.42-37.54-14-57.64-1.17-37.35,6.43-73.36,18.22-108.58,8.69-26,22.62-49.67,33.09-74.89,13.19-31.79,20.86-64.34,15.21-99.05-5.27-32.38-36-66.05-66.13-69.1a144,144,0,0,0-33.26.71c-40.6,5.26-72.62,23.27-92.77,60.23-8,14.65-16.26,29.14-23.74,44.06-22.12,44.07-44.52,88-70.58,129.92-20.81,33.49-46.16,62.77-80.87,82.67-33.68,19.3-70.82,27.23-108.92,29.08-34.45,1.67-65.13,11.22-93.39,31.1-31.75,22.35-61.18,47.3-89.7,73.51-18.07,16.61-36.48,32.81-59.09,43.36-17.66,8.23-34.65,8-51.27-2.57-3.84-2.44-7.76-4.75-11.62-7.16-10.12-6.31-20.57-11.86-32.16-15.08C764,729.57,712.2,757.74,691.42,786.62c-10.58,14.72-9.37,28.47,2.76,42,9,10,18.09,19.78,26.63,30.08,20.83,25.16,46.75,35.62,79.36,29.82,13.39-2.39,26.83-1.54,38,8.23,13.48,11.79,27.07,23.46,40.61,35.19H327.84c-9.26-31.27-27.91-54.6-57.89-68.27-25.34-11.56-52-17.73-79.73-19.95-24.74-2-49.54-.67-74.29-1.71-21.48-.9-42.82-2.94-63.65-8.89C25.62,825.49,7.49,809.37.46,782c-2.39-9.28-4.62-18.64-6.33-28.07-7.82-43-20.65-83.85-47.82-119.12-15-19.44-30.08-38.73-46.1-57.31-14-16.27-29-31.74-41.83-49-12.58-17-12.59-27.73.17-44.55,9.66-12.71,21-23.93,32.5-35,17.18-16.45,34.1-33.17,46.76-53.55,10.39-16.7,17-34.77,14.1-54.65-5.09-34.93-24.84-61.36-51.38-83.07C-111,248.25-124.76,245.17-140,247c-32.65,3.95-51.31-5.92-61.89-33.61-8.31-21.74-11.3-44.61,5.21-64,22-25.81,27.55-54.73,21.52-87.09-4.95-26.56-14.93-51.43-25.27-76.13-14.23-34-13-67.31,1.78-100.73A305.31,305.31,0,0,1-173-160.88H1193a40.25,40.25,0,0,0,1.47,5C1220.93-95.2,1254.57-39.11,1299.36,10,1330,43.64,1360.51,77.44,1387,114.54c10.31,14.42,20.49,29,34.79,39.8,21,15.88,45.75,18.19,70.81,16.7,34.8-2.08,69.51-5.5,104.29-7.89C1616.56,161.8,1636.28,160.47,1655.9,163.92ZM579.06,293.06c-3.8,0-7.61-.28-11.38,0C534,296,522,317.59,537.82,347.36c8.79,16.54,21.55,30,35.31,42.33q93,83.64,213.78,116.57c39.72,10.86,80.18,16.46,121.51,13.14,8.07-.65,16.22-.68,24.18-2,25.4-4.1,45.93,5.21,64.29,21.85,12.74,11.54,24.58,24.2,38.81,33.94,24.08,16.5,50,25.83,79.34,15.88,34.56-11.73,56.93-36.64,71.17-69.19,7.38-16.87,3.93-33.19-6.62-48.08-6-8.53-13.75-15.47-21.23-22.65-43.73-42-89.44-82.06-121.66-134.53-10.17-16.57-26.12-24.71-45.87-25.23a142.59,142.59,0,0,0-34.65,2.89C903.6,303.93,850.8,314.13,797.1,319.27c-50,4.8-99.35,3.71-147.65-12.64C626.73,298.94,603.4,292.92,579.06,293.06Z" transform="translate(287 161.04)"/><path class="b" d="M878.79,931.92c-13.54-11.73-27.13-23.4-40.61-35.19-11.18-9.77-24.62-10.62-38-8.23-32.61,5.8-58.53-4.66-79.36-29.82-8.54-10.3-17.68-20.11-26.63-30.08-12.13-13.51-13.34-27.26-2.76-42,20.78-28.88,72.55-57,117.63-44.53,11.59,3.22,22,8.77,32.16,15.08,3.86,2.41,7.78,4.72,11.62,7.16,16.62,10.53,33.61,10.8,51.27,2.57,22.61-10.55,41-26.75,59.09-43.36,28.52-26.21,57.95-51.16,89.7-73.51,28.26-19.88,58.94-29.43,93.39-31.1,38.1-1.85,75.24-9.78,108.92-29.08,34.71-19.9,60.06-49.18,80.87-82.67,26.06-41.92,48.46-85.85,70.58-129.92,7.48-14.92,15.75-29.41,23.74-44.06,20.15-37,52.17-55,92.77-60.23a144,144,0,0,1,33.26-.71c30.08,3.05,60.86,36.72,66.13,69.1,5.65,34.71-2,67.26-15.21,99.05-10.47,25.22-24.4,48.9-33.09,74.89-11.79,35.22-19.39,71.23-18.22,108.58.62,20.1,3.83,39.81,14,57.64,6.9,12.07,15.85,21.82,30.7,23.32,9.8,1,19.09-1.6,27.8-5.9,9.23-4.55,18.23-9.59,27.33-14.42q0,120.66.14,241.33c0,5.19-1,6.22-6.22,6.21q-258-.25-516-.14c-4.22-6-8.17-12.17-12.71-17.9-12.57-15.84-29.1-22.18-49-18.77-32.68,5.62-60.86,22.48-90.1,36.67Z" transform="translate(287 161.04)"/><path class="b" d="M-173-160.88a305.31,305.31,0,0,0-25.64,46.38c-14.76,33.42-16,66.74-1.78,100.73,10.34,24.7,20.32,49.57,25.27,76.13,6,32.36.49,61.28-21.52,87.09-16.51,19.35-13.52,42.22-5.21,64C-191.33,241.1-172.67,251-140,247c15.26-1.85,29,1.23,40.55,10.69,26.54,21.71,46.29,48.14,51.38,83.07,2.89,19.88-3.71,38-14.1,54.65-12.66,20.38-29.58,37.1-46.76,53.55-11.52,11-22.84,22.25-32.5,35-12.76,16.82-12.75,27.59-.17,44.55,12.82,17.29,27.79,32.76,41.83,49,16,18.58,31.14,37.87,46.1,57.31C-26.52,670.1-13.69,711-5.87,754-4.16,763.38-1.93,772.74.46,782c7,27.35,25.16,43.47,51.82,51.08,20.83,5.95,42.17,8,63.65,8.89,24.75,1,49.55-.26,74.29,1.71,27.72,2.22,54.39,8.39,79.73,19.95,30,13.67,48.63,37,57.89,68.27q-303.93,0-607.87.14c-5.69,0-7-1.28-7-7q.24-539.58,0-1079.14c0-5.69,1.27-7,7-7C-244.36-160.73-208.69-160.88-173-160.88Z" transform="translate(287 161.04)"/><path class="b" d="M1655.9,163.92c-19.62-3.45-39.34-2.12-59-.77-34.78,2.39-69.49,5.81-104.29,7.89-25.06,1.49-49.77-.82-70.81-16.7-14.3-10.79-24.48-25.38-34.79-39.8-26.52-37.1-57-70.9-87.67-104.52-44.79-49.13-78.43-105.22-104.92-165.88a40.25,40.25,0,0,1-1.47-5h116.87a3.65,3.65,0,0,0,1.28,3.36c21.65,23,42,47.22,65.6,68.34,24.12,21.62,48.92,42.36,78.53,56.37C1505.62-9,1552-17.93,1589.22-59c17.37-19.22,31.48-40.82,43.58-63.64,6.28-11.83,10.56-24.53,11-38.2,12.15,0,12.15,0,12.15,12.14Z" transform="translate(287 161.04)"/><path class="a" d="M1643.75-160.88c-.39,13.67-4.67,26.37-11,38.2-12.1,22.82-26.21,44.42-43.58,63.64-37.18,41.11-83.6,50.07-134,26.23-29.61-14-54.41-34.75-78.53-56.37-23.57-21.12-44-45.35-65.6-68.34a3.65,3.65,0,0,1-1.28-3.36Z" transform="translate(287 161.04)"/><path class="a" d="M982,931.92c29.24-14.19,57.42-31,90.1-36.67,19.87-3.41,36.4,2.93,49,18.77,4.54,5.73,8.49,11.92,12.71,17.9Z" transform="translate(287 161.04)"/><path class="b" d="M579.06,293.06c24.34-.14,47.67,5.88,70.39,13.57,48.3,16.35,97.61,17.44,147.65,12.64,53.7-5.14,106.5-15.34,159.08-26.95a142.59,142.59,0,0,1,34.65-2.89c19.75.52,35.7,8.66,45.87,25.23,32.22,52.47,77.93,92.57,121.66,134.53,7.48,7.18,15.19,14.12,21.23,22.65,10.55,14.89,14,31.21,6.62,48.08-14.24,32.55-36.61,57.46-71.17,69.19-29.31,9.95-55.26.62-79.34-15.88-14.23-9.74-26.07-22.4-38.81-33.94-18.36-16.64-38.89-25.95-64.29-21.85-8,1.28-16.11,1.31-24.18,2-41.33,3.32-81.79-2.28-121.51-13.14q-120.58-33-213.78-116.57c-13.76-12.37-26.52-25.79-35.31-42.33C522,317.59,534,296,567.68,293.1,571.45,292.78,575.26,293.06,579.06,293.06Z" transform="translate(287 161.04)"/></svg>