<svg xmlns="http://www.w3.org/2000/svg" viewBox="0 0 1366.29 768.29"><defs><style>.a{fill:#ffffff;}.b{fill:#41c7f6;}</style></defs><title>1800f_00037</title><path class="a" d="M1367.52,393.11V466c-1.22.19-2.58.09-3.63.62-39.75,19.95-79.73,39.48-116.48,64.82-27.58,19-44.55,45.05-54.2,77.09-15.83,52.61-26.66,105.78-24.52,161H341.5c.36-1.76-.89-2.8-1.83-3.94a208.46,208.46,0,0,0-57.9-49.52c-32-18.41-66.35-31-101.32-42.15-7-2.23-13.94-4.6-20.66-7.49-10.41-4.46-11.27-9.16-2.94-16.55a174,174,0,0,1,16.28-12.38c21.76-15.2,44.65-28.78,65.21-45.69,16.72-13.74,30.59-29.48,35.52-51.41a151.28,151.28,0,0,0,3.61-34.62c-.21-24.27-.86-48.53-1.35-72.8A133.09,133.09,0,0,1,287,377.59c9-21,16-42.59,19.84-65.13,3.5-20.49,11.41-39.19,22-57a234.78,234.78,0,0,0,11-21.61c2.44-5.25,4.61-10.7,4.62-16.68,0-8.13-4.06-10.93-11.73-7.93A42.27,42.27,0,0,0,318.6,218c-24.12,23.27-50.89,43-79.13,60.95-14.92,9.47-28.64,21-45.52,27.06-16.47,5.93-29.44-.23-36-16.59-3.82-9.54-4.93-19.54-5-29.73-.09-16.42.7-32.89-2.13-49.19-6.72-38.62-16.17-76.63-26.13-114.51-3.34-12.71-6.91-25.37-10.13-38.1-3.44-13.6-.77-18.38,12.63-22.73,7.21-2.34,14.63-4,21.84-6.34,20.72-6.7,40.89-14.63,58.89-27.25H910.67c.09,3,2.14,5.05,3.52,7.41C935.8,45.61,966.64,74.16,997,103.16c22.48,21.47,45.8,42.14,65.5,66.32,13.41,16.46,24.26,35,38.94,50.36,16.62,17.42,24,37.92,25.13,61.62.93,19.4,2.24,38.79,5.28,58.06,3.8,24.19,14.72,39.15,40.71,44.6,32.87,6.88,65.32,12.8,99,9.28,24.61-2.57,49.29-4.87,74.1-1.9C1352.92,392.37,1360.13,394.24,1367.52,393.11ZM844,514.42a53.6,53.6,0,0,0,22.29-3.69c24-9.47,29.11-32.61,9.69-49.48-22.88-19.89-47.4-37.82-75.1-50.75-16.25-7.58-33-9-50.06-2.75s-34.51,9.38-52.4,11.4c-20.73,2.33-39.48,10.7-57,21.54-15,9.32-14.53,20.72.27,30.65A69.34,69.34,0,0,0,664,480.82a137.61,137.61,0,0,0,47.31,3.84c23.15-2.33,44.33,5.08,65.52,12.87C798.59,505.54,820.46,513.49,844,514.42Zm-116.51,97c10.38-1.45,25.51.32,39.89-4.17,16.36-5.11,21.11-19.23,11.62-33.35a38.81,38.81,0,0,0-20-15.48c-26.44-9.12-51.13,1-71.41,23.7-9.52,10.65-6.31,20.72,7.17,25.81C704,611.38,713.53,611.92,727.53,611.43Zm277.48-262c.08,8.24,4.74,11.51,13.12,9.22,15.64-4.27,35-27.73,36.37-44.18.42-4.94,0-9.72-4.49-12.9-4.7-3.37-9.37-1.37-13.46,1.12-13.89,8.44-22.74,21.13-29.08,35.76A25.07,25.07,0,0,0,1005,349.41Z" transform="translate(-1.37 -1.37)"/><path class="b" d="M207.94,1.52c-18,12.62-38.17,20.55-58.89,27.25-7.21,2.33-14.63,4-21.84,6.34-13.4,4.35-16.07,9.13-12.63,22.73,3.22,12.73,6.79,25.39,10.13,38.1,10,37.88,19.41,75.89,26.13,114.51,2.83,16.3,2,32.77,2.13,49.19.05,10.19,1.16,20.19,5,29.73,6.56,16.36,19.53,22.52,36,16.59,16.88-6.07,30.6-17.59,45.52-27.06,28.24-17.91,55-37.68,79.13-60.95a42.27,42.27,0,0,1,14.17-8.67c7.67-3,11.76-.2,11.73,7.93,0,6-2.18,11.43-4.62,16.68a234.78,234.78,0,0,1-11,21.61c-10.58,17.77-18.49,36.47-22,57C303,335,296,356.6,287,377.59A133.09,133.09,0,0,0,276.12,433c.49,24.27,1.14,48.53,1.35,72.8a151.28,151.28,0,0,1-3.61,34.62c-4.93,21.93-18.8,37.67-35.52,51.41-20.56,16.91-43.45,30.49-65.21,45.69a174,174,0,0,0-16.28,12.38c-8.33,7.39-7.47,12.09,2.94,16.55,6.72,2.89,13.69,5.26,20.66,7.49,35,11.19,69.35,23.74,101.32,42.15a208.46,208.46,0,0,1,57.9,49.52c.94,1.14,2.19,2.18,1.83,3.94q-167,0-333.91.14c-5.2,0-6.22-1-6.22-6.22q.25-377.93,0-755.85c0-5.19,1-6.24,6.22-6.22C74.37,1.6,141.15,1.52,207.94,1.52ZM33.31,21.29c2.8,0,5.57-.06,8.16-1.33,4.44-2.19,5.24-5.17,2-9-4.86-5.83-20.6-9.52-27.57-6.48C10.82,6.64,10.11,10,14,13.72,19.34,18.84,25.94,21.18,33.31,21.29Z" transform="translate(-1.37 -1.37)"/><path class="b" d="M1367.52,393.11c-7.39,1.13-14.6-.74-21.82-1.61-24.81-3-49.49-.67-74.1,1.9-33.71,3.52-66.16-2.4-99-9.28-26-5.45-36.91-20.41-40.71-44.6-3-19.27-4.35-38.66-5.28-58.06-1.13-23.7-8.51-44.2-25.13-61.62-14.68-15.39-25.53-33.9-38.94-50.36-19.7-24.18-43-44.85-65.5-66.32-30.37-29-61.21-57.55-82.82-94.23-1.38-2.36-3.43-4.43-3.52-7.41h107.76a63.24,63.24,0,0,0,2.92,7.72c7.66,14.53,21.89,20.56,35.07,14.54,9.36-4.27,12.63-13.11,15.13-22.26h171.51c8,7.7,17.39,13.76,26.47,20C1294.71,39,1307,61.84,1302,92.8c0,.25,0,.51,0,.76-2.83,21.65,1.93,42,9.66,62.12,10,25.95,26.65,42.48,55.88,43.15Z" transform="translate(-1.37 -1.37)"/><path class="b" d="M1168.69,769.52c-2.14-55.25,8.69-108.42,24.52-161,9.65-32,26.62-58.07,54.2-77.09,36.75-25.34,76.73-44.87,116.48-64.82,1-.53,2.41-.43,3.63-.62q0,148.74.14,297.48c0,5.2-1,6.24-6.21,6.22C1297.19,769.44,1232.94,769.52,1168.69,769.52Z" transform="translate(-1.37 -1.37)"/><path class="a" d="M1367.52,198.83c-29.23-.67-45.91-17.2-55.88-43.15-7.73-20.12-12.49-40.47-9.66-62.12,0-.25,0-.51,0-.76,5-31-7.31-53.85-32.49-71.25-9.08-6.27-18.42-12.33-26.47-20,39.62,0,79.24.11,118.86-.14,4.95,0,5.71,1.38,5.7,5.9Q1367.4,103.06,1367.52,198.83Z" transform="translate(-1.37 -1.37)"/><path class="a" d="M1071.55,1.52c-2.5,9.15-5.77,18-15.13,22.26-13.18,6-27.41,0-35.07-14.54a63.24,63.24,0,0,1-2.92-7.72Z" transform="translate(-1.37 -1.37)"/><path class="b" d="M844,514.42c-23.58-.93-45.45-8.88-67.24-16.89-21.19-7.79-42.37-15.2-65.52-12.87A137.61,137.61,0,0,1,664,480.82a69.34,69.34,0,0,1-22.19-9.48c-14.8-9.93-15.28-21.33-.27-30.65,17.47-10.84,36.22-19.21,57-21.54,17.89-2,35.45-5.24,52.4-11.4s33.81-4.83,50.06,2.75c27.7,12.93,52.22,30.86,75.1,50.75,19.42,16.87,14.32,40-9.69,49.48A53.6,53.6,0,0,1,844,514.42Z" transform="translate(-1.37 -1.37)"/><path class="b" d="M727.53,611.43c-14,.49-23.57,0-32.69-3.49-13.48-5.09-16.69-15.16-7.17-25.81,20.28-22.66,45-32.82,71.41-23.7a38.81,38.81,0,0,1,20,15.48c9.49,14.12,4.74,28.24-11.62,33.35C753,611.75,737.91,610,727.53,611.43Z" transform="translate(-1.37 -1.37)"/><path class="b" d="M1005,349.42a25.08,25.08,0,0,1,2.46-11c6.34-14.63,15.19-27.32,29.08-35.76,4.09-2.49,8.76-4.49,13.46-1.12,4.45,3.18,4.91,8,4.49,12.9-1.39,16.45-20.73,39.91-36.37,44.18C1009.75,360.92,1005.09,357.65,1005,349.42Z" transform="translate(-1.37 -1.37)"/><path class="a" d="M33.31,21.29c-7.37-.11-14-2.45-19.29-7.57-3.91-3.76-3.2-7.08,1.89-9.29,7-3,22.71.65,27.57,6.48,3.23,3.88,2.43,6.86-2,9.05C38.88,21.23,36.11,21.31,33.31,21.29Z" transform="translate(-1.37 -1.37)"/></svg>