<svg xmlns="http://www.w3.org/2000/svg" viewBox="0 0 1943.05 1093.1"><defs><style>.a{fill:#ffffff;}.b{fill:#41c7f6;}</style></defs><title>1800f_00287</title><path class="a" d="M1655.9,755.86c0,56.41-.1,112.82.14,169.23,0,5.69-1.28,7-7,7q-813.15-.22-1626.3-.14c-.6-21,3.57-41.08,9.76-61.07,10.3-33.31,19.89-66.85,29.4-100.41,6.5-22.92,11.61-46.13,9.11-70.27-2-19.6-5.57-39-8.93-58.38-6.46-37.35-23.91-67.28-55.24-89.66-35.66-25.47-67.62-55.39-98-87a144.19,144.19,0,0,1-18.83-23.7c-9.72-15.68-6.48-24.77,10.76-31.75,16-6.48,32.92-9.83,49.51-14.25,25.86-6.89,51.65-14.7,78.93-13,18.35,1.13,32.29,9.09,40.2,26.34,8.2,17.86,10.27,37,10.81,56.2a122.14,122.14,0,0,0,10,46.35,331.45,331.45,0,0,1,12.78,34.06c3.85,12.32,10.69,22.73,19.51,32.09,12.57,13.32,27.45,23.85,41.66,35.16,32.8,26.1,65.62,52.2,102.18,73,37.77,21.54,76.59,41.19,114.13,63.18,17.46,10.24,35.2,20.26,55.3,24.37,36.08,7.36,52.72-18.33,50.54-46.34-1.39-17.9-8.42-33.79-18-48.57q-48.71-75-137.31-87.82c-20.31-3-40.61-5.93-57.62-19a318.37,318.37,0,0,1-31.19-27.64c-21.78-21.8-22.7-33.85-4.34-58.67,11.48-15.53,25.38-28.88,39.1-42.31,48.48-47.45,84.17-103.08,109.4-166,18.65-46.5,33.46-94.34,51.25-141.11,7.73-20.3,15.46-40.68,28.38-58.51,17.36-23.94,34.34-28.58,61.1-16.3a195.77,195.77,0,0,0,35.92,11.92c35.89,8.67,72.57,13.36,108.56,21.41,30.44,6.82,60.24,5,90-2.93,21-5.64,41.88-11.65,62.86-17.31s41-3.45,59.69,8.41c7.68,4.88,15.56,9.46,23.47,14C1009.07,154,1116.14,199.06,1226.29,237c24.61,8.47,49.66,15.65,74.31,24,18,6.11,35.52,13.4,50.74,25.17,19.17,14.81,21.1,31.42,5.8,50.28-8.72,10.75-20.22,18.28-31.35,26.16-19.87,14.06-39.64,28.34-54.33,48.06-24.76,33.23-39.09,71.14-48.27,111.2-2.45,10.69-3.36,21.58-.82,32.31,5.8,24.41,26.8,33.78,52.31,32.32,22.88-1.32,43-10.77,61.66-23.44,30.62-20.84,57.78-45.88,85-70.83,15.85-14.53,30.24-30.58,46.84-44.31,25.36-21,50.49-18.71,71.41,6.6,17.26,20.9,27.85,45.29,34.31,71.19,15.39,61.7,35.52,121.78,59.18,180.73C1639.84,723.29,1646.18,740.37,1655.9,755.86Z" transform="translate(287 161.04)"/><path class="b" d="M1655.9,755.86c-9.72-15.49-16.06-32.57-22.82-49.4-23.66-59-43.79-119-59.18-180.73-6.46-25.9-17.05-50.29-34.31-71.19-20.92-25.31-46-27.58-71.41-6.6-16.6,13.73-31,29.78-46.84,44.31-27.22,25-54.38,50-85,70.83-18.62,12.67-38.78,22.12-61.66,23.44-25.51,1.46-46.51-7.91-52.31-32.32-2.54-10.73-1.63-21.62.82-32.31,9.18-40.06,23.51-78,48.27-111.2,14.69-19.72,34.46-34,54.33-48.06,11.13-7.88,22.63-15.41,31.35-26.16,15.3-18.86,13.37-35.47-5.8-50.28-15.22-11.77-32.77-19.06-50.74-25.17-24.65-8.37-49.7-15.55-74.31-24-110.15-37.94-217.22-83-318.69-140.61-7.91-4.49-15.79-9.07-23.47-14C865.46,70.58,845.49,68.35,824.44,74S782.57,85.7,761.58,91.34c-29.73,8-59.53,9.75-90,2.93-36-8-72.67-12.74-108.56-21.41a195.77,195.77,0,0,1-35.92-11.92c-26.76-12.28-43.74-7.64-61.1,16.3-12.92,17.83-20.65,38.21-28.38,58.51-17.79,46.77-32.6,94.61-51.25,141.11-25.23,62.89-60.92,118.52-109.4,166-13.72,13.43-27.62,26.78-39.1,42.31C219.54,510,220.46,522,242.24,543.81a318.37,318.37,0,0,0,31.19,27.64c17,13.07,37.31,16,57.62,19q88.49,12.93,137.31,87.82c9.59,14.78,16.62,30.67,18,48.57,2.18,28-14.46,53.7-50.54,46.34-20.1-4.11-37.84-14.13-55.3-24.37-37.54-22-76.36-41.64-114.13-63.18-36.56-20.83-69.38-46.93-102.18-73-14.21-11.31-29.09-21.84-41.66-35.16-8.82-9.36-15.66-19.77-19.51-32.09a331.45,331.45,0,0,0-12.78-34.06,122.14,122.14,0,0,1-10-46.35c-.54-19.22-2.61-38.34-10.81-56.2-7.91-17.25-21.85-25.21-40.2-26.34-27.28-1.68-53.07,6.13-78.93,13-16.59,4.42-33.5,7.77-49.51,14.25-17.24,7-20.48,16.07-10.76,31.75a144.19,144.19,0,0,0,18.83,23.7c30.34,31.62,62.3,61.54,98,87,31.33,22.38,48.78,52.31,55.24,89.66C65.47,661.2,69,680.57,71,700.17c2.5,24.14-2.61,47.35-9.11,70.27-9.51,33.56-19.1,67.1-29.4,100.41-6.19,20-10.36,40.09-9.76,61.07H-83.48c.75-2.13,1.42-4.29,2.27-6.38,9.28-22.82,16.82-46,15.83-71.14-.86-22-6.88-42.83-15-63.08-7.3-18.29-15.32-36.29-22.81-54.5-14.16-34.43-15.82-70.64-15.42-107.21.27-25-6.74-47.79-22-67.9a325.15,325.15,0,0,0-26.53-31.1c-22.81-23.33-47.84-44.19-73.11-64.74C-255.26,453.62-270,441-286.86,431.05V44c3.42-1.88,5.59-5.07,8-7.92,10.78-12.69,21.08-25.76,30.66-39.38,22.29-31.7,42.36-64.53,51.41-102.86,4.25-18,5.21-36.34,5.54-54.74H-47c.18,3.28-2.6,4.74-4.33,6.76-17.95,21-35.21,42.56-45.57,68.49-18.92,47.4-25.22,97.08-24.3,147.74.36,19.93,5.42,39.08,16,56.25,16.69,27.13,41.88,38.64,73,37.36,18.43-.76,35.57-7.31,52-15.44C50,125.21,73,101.46,94.14,75.75c20.8-25.24,37.49-53.32,55.22-80.65,22.91-35.31,52.83-60.29,94.27-71.46,33.32-9,63.05-25.78,89.84-47.6,11.77-9.58,23.76-18.88,36.74-26.78,16.84-10.25,33.38-10.23,49.5,1.82A85.09,85.09,0,0,1,434-135.39c13.29,15.85,23.14,33.69,30.73,52.87,4.13,10.4,9.35,20.22,17.61,28,8.54,8.08,17.62,8.71,27.48,2.28A57.75,57.75,0,0,0,523-64.59c23.48-29,37.83-63.07,53.73-96.29h604.07c20.67,6.77,42,7.79,63.42,6.34,10.93-.74,22.26-.23,32.2-6.34q186.69,0,373.37-.15c5.2,0,6.22,1,6.22,6.22Q1655.8,300.52,1655.9,755.86Z" transform="translate(287 161.04)"/><path class="a" d="M576.76-160.88c-15.9,33.22-30.25,67.31-53.73,96.29A57.75,57.75,0,0,1,509.8-52.2c-9.86,6.43-18.94,5.8-27.48-2.28-8.26-7.82-13.48-17.64-17.61-28-7.59-19.18-17.44-37-30.73-52.87a85.09,85.09,0,0,0-14.27-13.53c-16.12-12.05-32.66-12.07-49.5-1.82-13,7.9-25,17.2-36.74,26.78-26.79,21.82-56.52,38.63-89.84,47.6C202.19-65.19,172.27-40.21,149.36-4.9c-17.73,27.33-34.42,55.41-55.22,80.65C73,101.46,50,125.21,19.66,140.28c-16.39,8.13-33.53,14.68-52,15.44-31.09,1.28-56.28-10.23-73-37.36-10.56-17.17-15.62-36.32-16-56.25-.92-50.66,5.38-100.34,24.3-147.74,10.36-25.93,27.62-47.49,45.57-68.49,1.73-2,4.51-3.48,4.33-6.76Z" transform="translate(287 161.04)"/><path class="a" d="M-286.86,431.05c16.81,9.93,31.6,22.57,46.66,34.82,25.27,20.55,50.3,41.41,73.11,64.74a325.15,325.15,0,0,1,26.53,31.1c15.24,20.11,22.25,42.91,22,67.9-.4,36.57,1.26,72.78,15.42,107.21C-95.67,755-87.65,773-80.35,791.32c8.09,20.25,14.11,41.07,15,63.08,1,25.11-6.55,48.32-15.83,71.14-.85,2.09-1.52,4.25-2.27,6.38-65.77,0-131.54-.08-197.31.15-5.2,0-6.22-1-6.21-6.22Q-286.74,678.44-286.86,431.05Z" transform="translate(287 161.04)"/><path class="a" d="M-191.24-160.88c-.33,18.4-1.29,36.73-5.54,54.74C-205.83-67.81-225.9-35-248.19-3.28c-9.58,13.62-19.88,26.69-30.66,39.38-2.42,2.85-4.59,6-8,7.92q0-99.54-.09-199.09c0-4.4.55-6,5.63-6C-251.3-160.73-221.27-160.88-191.24-160.88Z" transform="translate(287 161.04)"/><path class="a" d="M1276.45-160.88c-9.94,6.11-21.27,5.6-32.2,6.34-21.44,1.45-42.75.43-63.42-6.34Z" transform="translate(287 161.04)"/></svg>