<svg xmlns="http://www.w3.org/2000/svg" viewBox="0 0 1366.28 768.27"><defs><style>.a{fill:#ffffff;}.b{fill:#41c7f6;}</style></defs><title>1800f_00073</title><path class="a" d="M1249.13,769.52H106.24c1.16-3,3.93-4.53,6.33-6.28C138.84,744.12,168,731,199.16,722.31c25.28-7.06,51.39-12.19,74-26.44,39-24.64,69.61-56.25,80.25-103,5.52-24.3,5.77-49.14,6.2-73.9.31-18.21.78-36.39,3-54.48,2.55-21.06,6.34-42,4.81-63.39-.69-9.66-2.33-19.08-7.84-27.37s-13.26-11.23-23-8.53c-8.23,2.28-15.12,6.92-21.44,12.5-10.88,9.62-19.81,20.9-27.68,33-8.11,12.52-16.07,25.14-25.59,36.67-15,18.19-30.16,20.39-49.75,7.3-31.7-21.2-46.63-57.33-39.6-94.86,3.79-20.25,12-39.12,17.72-58.74,9.08-30.9,8-60.89-10.63-88-19.19-27.93-40.32-54.42-65.38-77.55-11.3-10.43-24-19.49-33.19-32.1-8.19-11.27-4.34-20.28,9.5-22.77a57,57,0,0,1,6.8-.56c14-.82,26.79,3.71,39.57,8.86,31.84,12.85,64.36,19,97,3.71,39.24-18.36,74.65-42.49,104.4-74.29,4.72-5,10.18-9.8,12.29-16.86h595c-.34,3,2.14,4.42,3.61,6.34,34.71,45.05,69.66,89.89,106,133.69,29.52,35.61,54.93,74.41,82.53,111.52,24.77,33.3,42.68,69.67,50.81,110.67a214.49,214.49,0,0,0,18.59,54.35c9.47,19,23.66,32,44.13,39,35.6,12.22,70.79,25.64,106.19,38.45,3.22,1.17,6.32,3.37,10.1,2.29V572.2c-24.58,8.76-47.74,20.67-71.17,32-12.29,5.93-24.59,11.8-37.5,16.34-7,2.46-13.5,3-20-1.86-3.61-2.72-8.36-3.29-13-3.29-25.28,0-44.64,12.38-61.89,29.36-5.63,5.54-11.56,11.77-7.24,19.67s13.14,5.92,20.62,5.07c11.9-1.36,23.15-5.13,33.91-10.27,18.93-9.06,23.69-2.07,29.18,14.21.24.72.39,1.46.59,2.19,7.89,27.83,8.75,56.29,7.78,84.94C1248.66,763.52,1247.8,766.58,1249.13,769.52Zm-530-49.87c31.38-1.46,62.38-5.31,92.39-15.22,7.22-2.38,14.28-5.19,20.11-10.3,8.54-7.51,9.41-16.35,2.74-25.53S818.2,655,807.58,652.79c-31.48-6.65-61.86-1.35-91.52,9.36-14.28,5.15-28.1,11.54-39,22.71-12.22,12.52-9.64,23.78,7,29.81C695.33,718.79,707.12,719.91,719.13,719.65Z" transform="translate(-1.37 -1.37)"/><path class="b" d="M350.61,1.52C348.5,8.58,343,13.35,338.32,18.38c-29.75,31.8-65.16,55.93-104.4,74.29-32.69,15.3-65.21,9.14-97-3.71-12.78-5.15-25.54-9.68-39.57-8.86a57,57,0,0,0-6.8.56c-13.84,2.49-17.69,11.5-9.5,22.77,9.17,12.61,21.89,21.67,33.19,32.1,25.06,23.13,46.19,49.62,65.38,77.55,18.61,27.1,19.71,57.09,10.63,88-5.77,19.62-13.93,38.49-17.72,58.74-7,37.53,7.9,73.66,39.6,94.86,19.59,13.09,34.74,10.89,49.75-7.3,9.52-11.53,17.48-24.15,25.59-36.67,7.87-12.14,16.8-23.42,27.68-33,6.32-5.58,13.21-10.22,21.44-12.5,9.73-2.7,17.44.17,23,8.53s7.15,17.71,7.84,27.37c1.53,21.37-2.26,42.33-4.81,63.39-2.2,18.09-2.67,36.27-3,54.48-.43,24.76-.68,49.6-6.2,73.9-10.64,46.79-41.22,78.4-80.25,103-22.58,14.25-48.69,19.38-74,26.44C168,731,138.84,744.12,112.57,763.24c-2.4,1.75-5.17,3.23-6.33,6.28-33.29,0-66.58-.11-99.86.13-4.33,0-5-1-5-5.11.17-46.41.11-92.81.11-139.21C24.5,601,51.11,581,78.29,561.65c5-3.53,9.52-7.55,12.85-12.72,7.62-11.8,5-23.73.07-35.51-11.62-28-29.56-52.23-46-77.36C32.33,416.38,18.51,397.4,1.52,381V250.44C10.93,239.22,17,226.5,18.22,211.8c1.52-17.54-7.29-31.32-16.7-44.84,0-53.12.09-106.25-.15-159.37,0-5.2,1-6.22,6.22-6.22Q179.1,1.67,350.61,1.52Z" transform="translate(-1.37 -1.37)"/><path class="b" d="M1367.52,497.83c-3.78,1.08-6.88-1.12-10.1-2.29-35.4-12.81-70.59-26.23-106.19-38.45-20.47-7-34.66-20-44.13-39a214.49,214.49,0,0,1-18.59-54.35c-8.13-41-26-77.37-50.81-110.67-27.6-37.11-53-75.91-82.53-111.52-36.32-43.8-71.27-88.64-106-133.69-1.47-1.92-4-3.35-3.61-6.34h320.25c2.12,7.29,7.15,12.65,12.36,17.71,26.27,25.49,57.49,43.81,89.33,61.21Z" transform="translate(-1.37 -1.37)"/><path class="b" d="M1249.13,769.52c-1.33-2.94-.47-6-.37-9,1-28.65.11-57.11-7.78-84.94-.2-.73-.35-1.47-.59-2.19-5.49-16.28-10.25-23.27-29.18-14.21-10.76,5.14-22,8.91-33.91,10.27-7.48.85-16.34,2.74-20.62-5.07s1.61-14.13,7.24-19.67c17.25-17,36.61-29.34,61.89-29.36,4.67,0,9.42.57,13,3.29,6.51,4.9,13,4.32,20,1.86,12.91-4.54,25.21-10.41,37.5-16.34,23.43-11.31,46.59-23.22,71.17-32q0,96,.12,192c0,4.53-.9,5.47-5.44,5.45C1324.51,769.42,1286.82,769.52,1249.13,769.52Z" transform="translate(-1.37 -1.37)"/><path class="a" d="M1.52,381c17,16.44,30.81,35.42,43.69,55.1,16.44,25.13,34.38,49.38,46,77.36,4.89,11.78,7.55,23.71-.07,35.51-3.33,5.17-7.88,9.19-12.85,12.72C51.11,581,24.5,601,1.52,625.33Z" transform="translate(-1.37 -1.37)"/><path class="a" d="M1367.52,80.44c-31.84-17.4-63.06-35.72-89.33-61.21C1273,14.17,1268,8.81,1265.83,1.52c32.38,0,64.76.07,97.13-.1,3.8,0,4.69.86,4.66,4.65C1367.42,30.86,1367.52,55.65,1367.52,80.44Z" transform="translate(-1.37 -1.37)"/><path class="a" d="M1.52,167c9.41,13.52,18.22,27.3,16.7,44.84-1.27,14.7-7.29,27.42-16.7,38.64Z" transform="translate(-1.37 -1.37)"/><path class="b" d="M719.13,719.65c-12,.26-23.8-.86-35.12-5-16.59-6-19.17-17.29-7-29.81,10.9-11.17,24.72-17.56,39-22.71,29.66-10.71,60-16,91.52-9.36,10.62,2.24,20.13,6.64,26.79,15.81s5.8,18-2.74,25.53c-5.83,5.11-12.89,7.92-20.11,10.3C781.51,714.34,750.51,718.19,719.13,719.65Z" transform="translate(-1.37 -1.37)"/></svg>