<svg xmlns="http://www.w3.org/2000/svg" viewBox="0 0 1943.06 1093.09"><defs><style>.a{fill:#ffffff;}.b{fill:#41c7f6;}</style></defs><title>1800f_00271</title><path class="a" d="M1655.9,239.81V819.6c-10.47,1.51-20.78,3.89-31.53,3.38-20.71-1-31.24-9.25-36.85-29.32-4.58-16.38-10.61-32.06-21.28-45.71-16.22-20.75-37.06-27.06-61.73-18.18a95.49,95.49,0,0,0-19.65,9.76c-22,14.33-43.91,28.84-65.87,43.27-53.64,35.24-72.73,88.74-78.79,149.12H-77.41c6.88-22,9.5-44.31,5.28-67.29a497.06,497.06,0,0,0-39.61-123.86c-19.62-41.31-40.73-81.95-57.51-124.54-24.41-62-60.34-115.92-109.64-160.82-2.27-2.07-3.81-5.69-8-4.63V299c2.76.73,4.82-1.09,7.13-2,27.27-10.66,54.6-11.48,78.8,6.14a698,698,0,0,1,64.86,53.34c19.91,18.54,36.49,39.84,51.18,62.68,13,20.21,28.81,37.77,49,51,38.19,25.07,74,21,104.54-12.91,22-24.44,35.44-53.87,45.78-84.83a80.11,80.11,0,0,0,3.07-38.9c-3.68-22.56-5.58-45.09-1.6-67.87,5.06-28.94,20.54-52.4,38.47-74.65,14.75-18.31,30.39-36,41.09-57.17a249.24,249.24,0,0,1,37.23-54.27C262.88,46.06,290.51,10.72,314-27.93c11.81-19.46,25.69-37.59,42.67-53,28.48-25.93,66.7-29.23,99.33-8.54a69.24,69.24,0,0,0,21.5,9.22C506-73.68,535-72.56,564.13-72.94c31.66-.4,60-9.73,84.76-30,15.64-12.83,30.57-26.47,46.71-38.72,21.48-16.3,43.9-20.37,68.76-8.42a128.26,128.26,0,0,0,32.26,10.84c21.27,3.91,42.76,3.81,64.25,3.76,36.34-.09,71.6,6.29,105.19,19.81,43.63,17.56,87.38,34.81,132.31,48.7,37.46,11.57,69.18,31.58,96.16,59.75a704.24,704.24,0,0,0,76,68.48c26.73,20.81,54.21,40.68,77.91,65.14,7.71,8,15.26,16.22,24.53,22.54,7,4.79,14.19,5.8,22.16,2.09a133.36,133.36,0,0,0,17-9.84c32.93-21.69,66.7-24.52,101.46-4.52,7,4,14.19,7.86,20.75,12.55C1575.49,178.61,1616.16,208.59,1655.9,239.81Z" transform="translate(287.01 161.02)"/><path class="b" d="M1655.9,239.81c-39.74-31.22-80.41-61.2-121.51-90.6-6.56-4.69-13.75-8.52-20.75-12.55-34.76-20-68.53-17.17-101.46,4.52a133.36,133.36,0,0,1-17,9.84c-8,3.71-15.13,2.7-22.16-2.09-9.27-6.32-16.82-14.59-24.53-22.54-23.7-24.46-51.18-44.33-77.91-65.14a704.24,704.24,0,0,1-76-68.48c-27-28.17-58.7-48.18-96.16-59.75-44.93-13.89-88.68-31.14-132.31-48.7-33.59-13.52-68.85-19.9-105.19-19.81-21.49.05-43,.15-64.25-3.76a128.26,128.26,0,0,1-32.26-10.84C739.5-162,717.08-158,695.6-141.67c-16.14,12.25-31.07,25.89-46.71,38.72-24.71,20.28-53.1,29.61-84.76,30-29.13.38-58.13-.74-86.66-7.36A69.24,69.24,0,0,1,456-89.52c-32.63-20.69-70.85-17.39-99.33,8.54-17,15.46-30.86,33.59-42.67,53.05-23.46,38.65-51.09,74-81.26,107.54a249.24,249.24,0,0,0-37.23,54.27c-10.7,21.16-26.34,38.86-41.09,57.17C136.46,213.3,121,236.76,115.92,265.7c-4,22.78-2.08,45.31,1.6,67.87a80.11,80.11,0,0,1-3.07,38.9c-10.34,31-23.73,60.39-45.78,84.83-30.55,33.87-66.35,38-104.54,12.91-20.21-13.27-36-30.83-49-51-14.69-22.84-31.27-44.14-51.18-62.68a698,698,0,0,0-64.86-53.34c-24.2-17.62-51.53-16.8-78.8-6.14-2.31.9-4.37,2.72-7.13,2q0-226.91-.15-453.81c0-5.2,1-6.22,6.22-6.21q965.31.22,1930.61,0c5.2,0,6.28,1,6.23,6.21-.3,32.88-.15,65.77-.15,98.65-7.6-9-17.91-12.4-29.07-13.87-16.84-2.21-33.74-3.44-49.76,3.87-10.77,4.91-11.77,12.78-3.79,21.67,18.83,21,62.16,27.2,82.62-4.08Z" transform="translate(287.01 161.02)"/><path class="b" d="M-286.86,450.78c4.16-1.06,5.7,2.56,8,4.63,49.3,44.9,85.23,98.85,109.64,160.82,16.78,42.59,37.89,83.23,57.51,124.54A497.06,497.06,0,0,1-72.13,864.63c4.22,23,1.6,45.26-5.28,67.29-67.79,0-135.59-.08-203.38.15-5.2,0-6.22-1-6.21-6.22Q-286.74,688.31-286.86,450.78Z" transform="translate(287.01 161.02)"/><path class="b" d="M1340.2,931.92c6.06-60.38,25.15-113.88,78.79-149.12,22-14.43,43.86-28.94,65.87-43.27a95.49,95.49,0,0,1,19.65-9.76c24.67-8.88,45.51-2.57,61.73,18.18,10.67,13.65,16.7,29.33,21.28,45.71,5.61,20.07,16.14,28.34,36.85,29.32,10.75.51,21.06-1.87,31.53-3.38,0,35.67-.11,71.34.13,107,0,4.54-.92,5.45-5.45,5.44Q1495.39,931.8,1340.2,931.92Z" transform="translate(287.01 161.02)"/><path class="a" d="M1655.9-48.57c-20.46,31.28-63.79,25.09-82.62,4.08-8-8.89-7-16.76,3.79-21.67,16-7.31,32.92-6.08,49.76-3.87,11.16,1.47,21.47,4.88,29.07,13.87Z" transform="translate(287.01 161.02)"/></svg>