<svg xmlns="http://www.w3.org/2000/svg" viewBox="0 0 1943.11 1093.11"><defs><style>.a{fill:#ffffff;}.b{fill:#41c7f6;}</style></defs><title>1800f_00182</title><path class="a" d="M730.05,931.92H122.94c-2.45-2.78-6.07-3.46-9.16-5.06-11.18-5.79-18.62-14.61-22-26.73a116,116,0,0,1-3.58-16.28C82.08,834,64.12,789.34,33.13,749.47c-20-25.72-39-52.34-55-80.84A73.33,73.33,0,0,0-36.36,650.2c-5-4.52-10.42-6.1-16.68-3.37a99.6,99.6,0,0,0-11.48,5.81c-19.72,11.85-39.26,24-59.08,35.67-15.25,9-31.28,16.59-45.85,26.72-9.09,6.32-16.66,13.87-21.06,24.3-2.75,6.51-5.81,12.91-9,19.22-8.37,16.55-19.91,29-40.34,27.49-15.83-1.2-31.48-4-47-7.42v-132c2.3.48,3.78-1.16,5.43-2.21a443.17,443.17,0,0,1,64.51-33.58c42.81-18.28,86.89-30.19,134.06-26.64a147.6,147.6,0,0,0,15.17.06c10.54-.28,19.67-3.81,27.1-11.58C-27.55,559-20.14,542-12.4,525.29,9.71,477.52,5.25,432.36-27.21,390.72c-12.55-16.1-27.23-30.52-33.49-50.84-4.54-14.74-8.91-29.51-12.25-44.56-6.7-30.22-17.12-58.84-37.59-82.63a122.87,122.87,0,0,1-23.61-41.14A447.77,447.77,0,0,1-154.33,83c-2.51-20-.24-39.7,11.17-56.93,27.8-42,66.47-67.95,116.43-76,30.73-4.93,62-3.72,92.89-7.52C143.77-67,212.31-96.2,269.22-150.71c3.17-3,7.41-5.36,8.53-10.17h854.51c-.42,2.08,1.13,3.23,2.22,4.56,29.49,35.84,52.27,75.67,69.46,118.66,19.37,48.47,49.43,88.33,92.12,118.73,22.85,16.27,45.15,33.32,65.51,52.78,29.25,28,56.51,57.93,86.4,85.24,23.52,21.49,46.79,43.29,73.25,61.26,12.54,8.53,25.46,16.5,37.92,25.14,13.08,9.08,18.79,21.46,15,37.47-.87,3.69-1.4,7.48-2.54,11.07-12.52,39.35-27.7,77.69-47.76,113.78-41.62,74.89-95,140.64-157.68,198.89-24.13,22.43-49.47,43.36-78.74,58.91-28.38,15.07-58.17,20-89.44,10.88-15.86-4.61-18.53-10.14-13.6-25.81,4.86-15.41,11.33-30.39,14-46.41,5.32-32,4-63.07-16.05-90.7-16.8-23.14-39.9-35.37-70.43-20.25-6.12,3-12.42,5.67-18.51,8.74-16.13,8.1-32.13,8-47.94-.65-7.77-4.23-15.49-8.58-23-13.32-62.89-40-131.69-58.34-206-56.22-16,.45-31.82,2.65-46.23,10.29-15.08,8-18.73,21.72-9.88,36.34a72.25,72.25,0,0,0,17.28,19c25.77,20.47,55.18,34.56,84.74,48.41,47.29,22.16,95.9,39.34,149,39.63,23.3.13,43.24,8,60.43,24a551.4,551.4,0,0,0,75.77,59.29c9.48,6.15,10.86,11.31,6.79,22.1-8.66,22.94-23.31,41.81-40.88,58.57-14.11,13.46-31.28,20.1-50.38,22.36-17.31,2-34.78,3.42-51.49,8.67C954,858.52,894.8,868.3,835.09,876.21c-31.6,4.19-61.57,14.39-88,32.91C739.15,914.68,731,920.81,730.05,931.92Z" transform="translate(287.06 161.04)"/><path class="b" d="M730.05,931.92c1-11.11,9.1-17.24,17-22.8,26.43-18.52,56.4-28.72,88-32.91,59.71-7.91,118.93-17.69,176.56-35.77,16.71-5.25,34.18-6.63,51.49-8.67,19.1-2.26,36.27-8.9,50.38-22.36,17.57-16.76,32.22-35.63,40.88-58.57,4.07-10.79,2.69-16-6.79-22.1a551.4,551.4,0,0,1-75.77-59.29c-17.19-16-37.13-23.82-60.43-24-53.09-.29-101.7-17.47-149-39.63-29.56-13.85-59-27.94-84.74-48.41a72.25,72.25,0,0,1-17.28-19c-8.85-14.62-5.2-28.34,9.88-36.34,14.41-7.64,30.25-9.84,46.23-10.29,74.33-2.12,143.13,16.23,206,56.22,7.46,4.74,15.18,9.09,23,13.32,15.81,8.62,31.81,8.75,47.94.65,6.09-3.07,12.39-5.72,18.51-8.74,30.53-15.12,53.63-2.89,70.43,20.25,20.05,27.63,21.37,58.65,16.05,90.7-2.67,16-9.14,31-14,46.41-4.93,15.67-2.26,21.2,13.6,25.81,31.27,9.1,61.06,4.19,89.44-10.88,29.27-15.55,54.61-36.48,78.74-58.91,62.68-58.25,116.06-124,157.68-198.89,20.06-36.09,35.24-74.43,47.76-113.78,1.14-3.59,1.67-7.38,2.54-11.07,3.76-16-2-28.39-15-37.47-12.46-8.64-25.38-16.61-37.92-25.14-26.46-18-49.73-39.77-73.25-61.26-29.89-27.31-57.15-57.28-86.4-85.24-20.36-19.46-42.66-36.51-65.51-52.78-42.69-30.4-72.75-70.26-92.12-118.73-17.19-43-40-82.82-69.46-118.66-1.09-1.33-2.64-2.48-2.22-4.56h238.29c.55,2.83-.34,5.48-.86,8.21-2.39,12.48-3.44,25-1.16,37.65,4.17,23,18,40.12,36,53.39,52.9,38.92,111.23,66.84,175.3,81.76,24.91,5.8,50.5,6.81,76.08,4.16q0,450.39.14,900.8c0,5.69-1.28,7-7,7Q1189.56,931.82,730.05,931.92Z" transform="translate(287.06 161.04)"/><path class="b" d="M277.75-160.88c-1.12,4.81-5.36,7.14-8.53,10.17C212.31-96.2,143.77-67,66.16-57.43,35.29-53.63,4-54.84-26.73-49.91c-50,8-88.63,34-116.43,76C-154.57,43.29-156.84,63-154.33,83a447.77,447.77,0,0,0,20.18,88.56,122.87,122.87,0,0,0,23.61,41.14c20.47,23.79,30.89,52.41,37.59,82.63,3.34,15.05,7.71,29.82,12.25,44.56,6.26,20.32,20.94,34.74,33.49,50.84C5.25,432.36,9.71,477.52-12.4,525.29-20.14,542-27.55,559-40.59,572.63c-7.43,7.77-16.56,11.3-27.1,11.58a147.6,147.6,0,0,1-15.17-.06c-47.17-3.55-91.25,8.36-134.06,26.64a443.17,443.17,0,0,0-64.51,33.58c-1.65,1-3.13,2.69-5.43,2.21q0-400.49-.13-800.95c0-5.29.85-6.68,6.51-6.67Q-1.36-160.75,277.75-160.88Z" transform="translate(287.06 161.04)"/><path class="b" d="M-286.86,778.62c15.52,3.4,31.17,6.22,47,7.42,20.43,1.55,32-10.94,40.34-27.49,3.2-6.31,6.26-12.71,9-19.22,4.4-10.43,12-18,21.06-24.3,14.57-10.13,30.6-17.75,45.85-26.72,19.82-11.67,39.36-23.82,59.08-35.67A99.6,99.6,0,0,1-53,646.83c6.26-2.73,11.7-1.15,16.68,3.37A73.33,73.33,0,0,1-21.9,668.63c16.07,28.5,35,55.12,55,80.84,31,39.87,48.95,84.56,55.12,134.38a116,116,0,0,0,3.58,16.28c3.33,12.12,10.77,20.94,22,26.73,3.09,1.6,6.71,2.28,9.16,5.06q-201.21,0-402.43.14c-5.79,0-7.62-.65-7.57-7.17C-286.69,876.14-286.86,827.38-286.86,778.62Z" transform="translate(287.06 161.04)"/><path class="a" d="M1655.9,24.29c-25.58,2.65-51.17,1.64-76.08-4.16-64.07-14.92-122.4-42.84-175.3-81.76-18-13.27-31.82-30.37-36-53.39-2.28-12.6-1.23-25.17,1.16-37.65.52-2.73,1.41-5.38.86-8.21q139.64,0,279.27-.15c5.2,0,6.25,1,6.23,6.22C1655.81-95.11,1655.9-35.41,1655.9,24.29Z" transform="translate(287.06 161.04)"/></svg>