<svg xmlns="http://www.w3.org/2000/svg" viewBox="0 0 1943.05 1093.09"><defs><style>.a{fill:#ffffff;}.b{fill:#41c7f6;}</style></defs><title>1800f_00259</title><path class="a" d="M827.19,931.92H245.88c-2.33-5.79-7.19-9.65-11.1-14.19-26.76-31-58.14-54.76-99.94-61.24-21.47-3.33-43.12-5.23-64.77-7.06-70.55-6-140.84-5.56-210.7,7.5-9.67,1.81-19.46,3.62-29.34,3.17-11.35-.53-15.52-5.93-13.63-16.85,1.13-6.57,4.15-12.43,7.47-18.13,9.36-16,21.41-30,33.92-43.61,10.74-11.71,22.7-22.47,30.7-36.45,9.21-16.09,6.7-27.3-8.52-37.73-13.5-9.25-24.84-20.72-34.79-33.54A346.46,346.46,0,0,1-216.51,548c-5-19-10.09-38.12-9.7-58.07.18-9.6,3-12.77,12.29-15.3,7.85-2.14,16-2.1,23.9-3.4,31.12-5.09,54.35-22.93,74.53-45.91,23.89-27.22,39-59.38,53-92.27,30.34-70.93,45.41-143.91,30.78-221-5.67-29.9,3.32-53.47,28.33-71.35C42.08,8.22,85-27.73,131.27-59c43.58-29.47,79.55-67.76,119.16-101.83h921.29c-.23,2.95,2.18,4.43,3.68,6.34a331.18,331.18,0,0,0,40.6,42.95c39.66,35.25,85.91,55.2,138.76,60.34,20.48,2,40.94.44,61.4,1.06,13.93.43,25.55,5.4,34,16.82,5.43,7.29,11.11,14.4,16.43,21.77,22,30.51,51.13,47,89.31,44.53,21.15-1.37,42.3-3.43,63.29-6.37,17.42-2.45,26.72-13.84,29.15-31.09,1.36-9.67.82-19.13-.14-28.68-3.19-31.56-11.4-61.24-33.6-85.2-27.23-29.4-60.13-43.69-100.73-36.42-16.12,2.88-31.12,9.08-45.41,16.62-32.39,17.09-61.4,3.31-84.3-22.67q132.81,0,265.61-.15c5.2,0,6.22,1,6.22,6.22q-.24,399.93-.14,799.87c-3.81,1.81-5.78,5.51-8.51,8.4-11.79,12.52-23.27,25.33-35.27,37.64-11.36,11.65-24,21.66-39.2,28.11-27.5,11.7-54.12,3.06-69.28-22.66a74.28,74.28,0,0,1-10.08-30,154,154,0,0,0-26.42-71.81c-14.35-21-26.05-43.27-33.67-67.65-3.32-10.63-7.81-20.82-14.69-29.79-12.57-16.36-31.91-17.77-46.62-3.29-7,6.87-11.6,15.21-15.28,24.18-6.59,16.07-7,33.67-11.9,50a373,373,0,0,1-77,138.89c-24.19,27.7-44.7,57.34-57.82,91.89-8,21.07-13.64,42.86-20.68,64.21-8.49,25.8-17.71,51.33-40.57,68.72h-60.71c-15.76-8-31.55-15.95-47.26-24-8.32-4.29-16.68-8.37-25.66-11.18-32.11-10-64.91-12.18-98.15-8.24-28.34,3.36-54.66,12.26-77.47,30C834.85,922.19,829.27,925.48,827.19,931.92ZM1107,730.24c25.28,0,44.63-4.93,61.64-17.11,17.77-12.73,26.25-30.17,22.41-51.9-3.56-20.19-16.28-33.36-36-38.92C1117,611.58,1078.23,612,1039.44,617c-12.18,1.59-19.88,10.07-22.09,22.1-4.34,23.66,2,44.69,18.52,62C1056.35,722.69,1082.91,729.38,1107,730.24Z" transform="translate(287.01 161.03)"/><path class="b" d="M250.43-160.88C210.82-126.81,174.85-88.52,131.27-59,85-27.73,42.08,8.22-3.36,40.7c-25,17.88-34,41.45-28.33,71.35,14.63,77.12-.44,150.1-30.78,221-14.06,32.89-29.13,65.05-53,92.27-20.18,23-43.41,40.82-74.53,45.91-7.94,1.3-16,1.26-23.9,3.4-9.28,2.53-12.11,5.7-12.29,15.3-.39,20,4.72,39.08,9.7,58.07a346.46,346.46,0,0,0,61.69,125.76c9.95,12.82,21.29,24.29,34.79,33.54,15.22,10.43,17.73,21.64,8.52,37.73-8,14-20,24.74-30.7,36.45-12.51,13.62-24.56,27.56-33.92,43.61-3.32,5.7-6.34,11.56-7.47,18.13-1.89,10.92,2.28,16.32,13.63,16.85,9.88.45,19.67-1.36,29.34-3.17,69.86-13.06,140.15-13.46,210.7-7.5,21.65,1.83,43.3,3.73,64.77,7.06,41.8,6.48,73.18,30.2,99.94,61.24,3.91,4.54,8.77,8.4,11.1,14.19q-263.14,0-526.28.14c-5.45,0-6.62-1.08-6.61-6.58q.27-248.73.15-497.46c2.14-.69,3.12,1.26,4.59,2.05,5.35,2.82,10.45,6.25,16,8.46,7.36,2.92,10.5.55,10.3-7.16a73,73,0,0,0-1.5-11.94c-4.53-22.94-13.64-43.7-29.43-61.23q0-256.32-.15-512.64c0-5.49,1.15-6.59,6.6-6.59Q-15-160.76,250.43-160.88Z" transform="translate(287.01 161.03)"/><path class="b" d="M1149,931.92c22.86-17.39,32.08-42.92,40.57-68.72,7-21.35,12.69-43.14,20.68-64.21,13.12-34.55,33.63-64.19,57.82-91.89a373,373,0,0,0,77-138.89c4.93-16.34,5.31-33.94,11.9-50,3.68-9,8.31-17.31,15.28-24.18,14.71-14.48,34-13.07,46.62,3.29,6.88,9,11.37,19.16,14.69,29.79,7.62,24.38,19.32,46.66,33.67,67.65a154,154,0,0,1,26.42,71.81,74.28,74.28,0,0,0,10.08,30c15.16,25.72,41.78,34.36,69.28,22.66,15.17-6.45,27.84-16.46,39.2-28.11,12-12.31,23.48-25.12,35.27-37.64,2.73-2.89,4.7-6.59,8.51-8.4q0,140.39.14,280.79c0,5.19-1,6.22-6.22,6.21Q1399.4,931.81,1149,931.92Z" transform="translate(287.01 161.03)"/><path class="b" d="M1384.21-160.88c22.9,26,51.91,39.76,84.3,22.67,14.29-7.54,29.29-13.74,45.41-16.62,40.6-7.27,73.5,7,100.73,36.42,22.2,24,30.41,53.64,33.6,85.2,1,9.55,1.5,19,.14,28.68-2.43,17.25-11.73,28.64-29.15,31.09-21,2.94-42.14,5-63.29,6.37-38.18,2.45-67.32-14-89.31-44.53-5.32-7.37-11-14.48-16.43-21.77-8.5-11.42-20.12-16.39-34-16.82-20.46-.62-40.92.94-61.4-1.06-52.85-5.14-99.1-25.09-138.76-60.34a331.18,331.18,0,0,1-40.6-42.95c-1.5-1.91-3.91-3.39-3.68-6.34Z" transform="translate(287.01 161.03)"/><path class="b" d="M827.19,931.92c2.08-6.44,7.66-9.73,12.52-13.5,22.81-17.7,49.13-26.6,77.47-30,33.24-3.94,66-1.8,98.15,8.24,9,2.81,17.34,6.89,25.66,11.18,15.71,8.09,31.5,16,47.26,24Z" transform="translate(287.01 161.03)"/><path class="a" d="M-286.86,358.2c15.79,17.53,24.9,38.29,29.43,61.23a73,73,0,0,1,1.5,11.94c.2,7.71-2.94,10.08-10.3,7.16-5.59-2.21-10.69-5.64-16-8.46-1.47-.79-2.45-2.74-4.59-2.05Z" transform="translate(287.01 161.03)"/><path class="b" d="M1107,730.24c-24.09-.86-50.65-7.55-71.13-29.09-16.5-17.36-22.86-38.39-18.52-62,2.21-12,9.91-20.51,22.09-22.1,38.79-5,77.54-5.42,115.61,5.31,19.72,5.56,32.44,18.73,36,38.92,3.84,21.73-4.64,39.17-22.41,51.9C1151.63,725.31,1132.28,730.2,1107,730.24Z" transform="translate(287.01 161.03)"/></svg>