<svg xmlns="http://www.w3.org/2000/svg" viewBox="0 0 1943.09 1093.07"><defs><style>.a{fill:#ffffff;}.b{fill:#41c7f6;}</style></defs><title>1800f_00205</title><path class="a" d="M-286.86,663.27V256.51c6.86,2,12.91,5.72,19.2,8.92,18.93,9.61,33.28,23.37,40.83,43.79A230.35,230.35,0,0,0-210,344c16.15,28,38.28,51.42,59.14,75.77,16.92,19.76,31.43,40.78,38.39,66.36a233,233,0,0,0,10.11,28.57c5,12,10.79,14.51,23.38,11.58C-64.79,523-51,517.66-36.4,516c33.06-3.71,64.22.57,90.86,22.39,31.31,25.65,47.76,60.15,57.29,98.5,5.62,22.59,6.67,46,12.2,68.63,5.92,24.23,13.56,47.71,29.1,67.75,16.46,21.23,35.52,19.35,47.83-4.62,9.21-17.91,12.31-37.32,13.58-57.12,2-31.74-3.94-62.37-12.81-92.64-11.46-39.12-20.88-78.63-22.6-119.63-1.13-27-2.44-54-4.13-81q-4.3-68.68-59-110.77c-18-13.79-38-23.94-58-34.28-9.42-4.87-18.82-9.87-27.8-15.5-9.61-6-9.75-13.51-.84-20.54a37.78,37.78,0,0,1,21.85-7.73c32.37-1.63,61.86-11.9,89.12-29,39.43-24.76,79.45-48.45,122.44-66.65,45.2-19.14,82.72-48.25,113.8-86.05,42.89-52.17,84.66-105.2,123.68-160.34,11.21-15.85,23-31.32,32.61-48.26H686c3.11,5.47,8.69,8.3,13.4,11.92,33.49,25.67,58.13,55.79,57.1,101.32-.48,21,12.21,35.16,30.22,44.74A137.26,137.26,0,0,0,813.5,7.7C860.88,21.29,909.06,20,957.24,14.38,1001,9.3,1043.37-3.1,1086.8-10.07c27.81-4.46,53.69-16.12,80.73-23.55,18.32-5,36.76-9.91,56-5.81,15.8,3.36,21.42,12.29,18.54,28.21-2.39,13.25-7.46,25.71-11.12,38.59-7,24.39-7.15,50-13.75,74.47-2.46,9.14-1.75,18.53-.6,27.88,2.9,23.51,11.38,45.56,17.39,68.25,12.42,46.86,28.52,92.25,52.36,134.64,11.29,20.09,22.92,40,39.7,56.17,10.38,10,22.26,12.22,35.53,6.56a94.61,94.61,0,0,0,17.79-10.08c14-10,27.87-20.14,42-29.94,25.93-18,53.75-22.15,83.53-10.73,20.7,7.93,40,18.3,57,32.68,31.82,27,61.8,56.1,94.05,82.62V771a13.75,13.75,0,0,0-2.35,1.82c-31.33,37-67.62,68.62-106.33,97.6-27.46,20.57-56.64,38.84-82.56,61.47H-259.54c.26-1,.49-2,.8-2.92,14.68-45.32,39.78-85,67-123.51,28.22-40,53.29-81.8,68.2-128.87,9.76-30.78,15.48-62.2,12.57-94.67-.85-9.52-5.69-12-14.52-8.3a61,61,0,0,0-6.09,3.08,690.05,690.05,0,0,0-73.15,47.37C-229.54,642.6-256.12,657.29-286.86,663.27ZM913.82,275.84a14.34,14.34,0,0,0,4.59-.56c29-11.13,49.61-30.74,58.64-60.71,5.41-17.93-7.61-29.77-25.64-24.69-17.8,5-31,16.36-42,30.64-7.47,9.71-12.79,20.49-14.59,32.81C892.81,266.78,899.85,275.81,913.82,275.84Z" transform="translate(287.03 161.02)"/><path class="b" d="M532.74-160.88c-9.61,16.94-21.4,32.41-32.61,48.26-39,55.14-80.79,108.17-123.68,160.34-31.08,37.8-68.6,66.91-113.8,86.05-43,18.2-83,41.89-122.44,66.65-27.26,17.12-56.75,27.39-89.12,29a37.78,37.78,0,0,0-21.85,7.73c-8.91,7-8.77,14.51.84,20.54,9,5.63,18.38,10.63,27.8,15.5,20,10.34,40.08,20.49,58,34.28q54.65,42,59,110.77c1.69,27,3,54,4.13,81,1.72,41,11.14,80.51,22.6,119.63,8.87,30.27,14.86,60.9,12.81,92.64-1.27,19.8-4.37,39.21-13.58,57.12-12.31,24-31.37,25.85-47.83,4.62-15.54-20-23.18-43.52-29.1-67.75-5.53-22.62-6.58-46-12.2-68.63-9.53-38.35-26-72.85-57.29-98.5C27.82,516.58-3.34,512.3-36.4,516-51,517.66-64.79,523-79,526.32c-12.59,2.93-18.36.45-23.38-11.58a233,233,0,0,1-10.11-28.57c-7-25.58-21.47-46.6-38.39-66.36-20.86-24.35-43-47.73-59.14-75.77a230.35,230.35,0,0,1-16.78-34.82c-7.55-20.42-21.9-34.18-40.83-43.79-6.29-3.2-12.34-6.94-19.2-8.92q0-205.54-.17-411.07c0-5.82,1.61-6.44,6.74-6.44Q126.23-160.8,532.74-160.88Z" transform="translate(287.03 161.02)"/><path class="b" d="M1655.9,459.89c-32.25-26.52-62.23-55.61-94.05-82.62-16.94-14.38-36.28-24.75-57-32.68-29.78-11.42-57.6-7.26-83.53,10.73-14.12,9.8-28,19.95-42,29.94a94.61,94.61,0,0,1-17.79,10.08c-13.27,5.66-25.15,3.47-35.53-6.56-16.78-16.21-28.41-36.08-39.7-56.17-23.84-42.39-39.94-87.78-52.36-134.64-6-22.69-14.49-44.74-17.39-68.25-1.15-9.35-1.86-18.74.6-27.88,6.6-24.46,6.8-50.08,13.75-74.47,3.66-12.88,8.73-25.34,11.12-38.59,2.88-15.92-2.74-24.85-18.54-28.21-19.22-4.1-37.66.78-56,5.81-27,7.43-52.92,19.09-80.73,23.55C1043.37-3.1,1001,9.3,957.24,14.38,909.06,20,860.88,21.29,813.5,7.7A137.26,137.26,0,0,1,786.76-2.9c-18-9.58-30.7-23.78-30.22-44.74,1-45.53-23.61-75.65-57.1-101.32-4.71-3.62-10.29-6.45-13.4-11.92q481.51,0,963-.14c5.69,0,7,1.27,7,7-.34,28.07-.15,56.16-.15,84.23C1639.72-66,1623.25-63.28,1608-56c-21.56,10.31-30.15,23.87-27.85,45.18A62.18,62.18,0,0,0,1585.64,8c11.85,26.2,29.35,48.85,45.47,72.35,7.41,10.8,14.81,21.69,24.79,30.44Z" transform="translate(287.03 161.02)"/><path class="b" d="M-286.86,663.27c30.74-6,57.32-20.67,82.1-39.17a690.05,690.05,0,0,1,73.15-47.37,61,61,0,0,1,6.09-3.08c8.83-3.74,13.67-1.22,14.52,8.3,2.91,32.47-2.81,63.89-12.57,94.67-14.91,47.07-40,88.85-68.2,128.87-27.19,38.56-52.29,78.19-67,123.51-.31,1-.54,1.94-.8,2.92-7.84,0-15.69-.21-23.52.1-3.28.13-3.95-.63-3.9-3.9.23-14.41.1-28.83.1-43.25Z" transform="translate(287.03 161.02)"/><path class="b" d="M1464.66,931.92c25.92-22.63,55.1-40.9,82.56-61.47,38.71-29,75-60.58,106.33-97.6a13.75,13.75,0,0,1,2.35-1.82c0,51.86-.08,103.72.12,155.58,0,4.52-.91,5.45-5.44,5.43Q1557.63,931.77,1464.66,931.92Z" transform="translate(287.03 161.02)"/><path class="a" d="M1655.9,110.8c-10-8.75-17.38-19.64-24.79-30.44C1615,56.86,1597.49,34.21,1585.64,8a62.18,62.18,0,0,1-5.47-18.83c-2.3-21.31,6.29-34.87,27.85-45.18,15.23-7.28,31.7-10,47.88-13.82Z" transform="translate(287.03 161.02)"/><path class="b" d="M913.82,275.84c-14,0-21-9.06-19-22.51,1.8-12.32,7.12-23.1,14.59-32.81,11-14.28,24.24-25.63,42-30.64,18-5.08,31.05,6.76,25.64,24.69-9,30-29.69,49.58-58.64,60.71A14.34,14.34,0,0,1,913.82,275.84Z" transform="translate(287.03 161.02)"/></svg>