<svg xmlns="http://www.w3.org/2000/svg" viewBox="0 0 1943.02 1093.09"><defs><style>.a{fill:#ffffff;}.b{fill:#41c7f6;}</style></defs><title>1800f_00346</title><path class="a" d="M1655.9,724c0,67-.09,134.07.14,201.11,0,5.69-1.28,7-7,7q-883-.22-1765.94-.14c-3.33-4.09-6.52-8.3-10-12.25C-152.24,890.89-178,862.43-199,830.18c-11.17-17.1-21.9-34.57-35.94-49.58-14.93-16-31.74-29.44-51.87-38.4V631.4c3.05.78,5.3-1.25,7.78-2.32,39.7-17.16,78.19-36.87,117.15-55.57,62.35-29.91,126.55-36.43,193.09-16.3,19.58,5.93,38.69,13.47,58.85,17.42,26,5.11,42.74-2.43,55.81-25.46a138.69,138.69,0,0,0,8.82-18.45C161,514.21,167,497.56,173,480.93c11.73-32.48,33.1-55.77,65.37-68.58a293.43,293.43,0,0,1,67.32-17.56c32.32-4.58,65-4.76,97.47-7.45,30.44-2.51,59.19-10,85.27-26.51,38.93-24.59,76-51.84,113.31-78.76,18.11-13.07,29.52-30.52,33.63-53a143.67,143.67,0,0,0-6.08-76.16c-7.55-20.8-23.2-33.31-45-37.54-22.44-4.36-43.64,1.21-64.52,8.74-20.53,7.4-39.24,18.68-59,27.65C401.65,178.55,341,200.72,278.21,217.11c-20.53,5.36-40.6,12.23-61.86,14.51-25.35,2.72-42.42-9.15-47.35-34a93.81,93.81,0,0,1-1.75-17.3c-.25-28.47,7.35-55.52,15.94-82.24,20.65-64.23,41.58-128.36,57.52-194,5.24-21.57,11.51-42.92,14.28-65h815c-.59,6.8-1.25,13.59-1.75,20.39-2.38,32.53-5,65-13.56,96.69-6.91,25.6-19.1,47.65-40.78,64-14.13,10.63-27.79,21.91-41.38,33.25-16.77,14-32.76,28.74-41.88,49.24-9.66,21.69-5.17,39.16,13.7,53.55,16.33,12.45,35.07,20,54.46,26.05,21.35,6.66,43.51,5.36,65.45,6.18,25,.92,47.56,8.29,67.3,24.08,13.07,10.45,25.08,22,36.91,33.78,13.25,13.18,28.71,22.17,47,26.26,28.11,6.29,56.11,13.08,84.31,19,48.76,10.18,98.58,13.73,147.52,22.87,26.61,5,53.05,10.66,77.51,23,16.51,8.33,26.39,21.25,29.43,39.72,3.73,22.73,5.54,45.63,7.22,68.57,2.52,34.25-9.52,62.91-32.78,87.42-12.7,13.39-25.52,26.68-38.2,40.1-33,34.9-56.78,74.81-66.12,122.46-6.3,32.12-8.57,64.63-8,97.3a100.7,100.7,0,0,0,5.46,31.26c9,26.21,26.57,34.41,52.14,24.16,21.58-8.66,40.19-22.33,58.9-35.67C1574.06,783.36,1614.91,753.58,1655.9,724ZM918.75,467.45c44.1,2.25,89.22-4.51,132.37-22.82,32.35-13.74,63-30.26,86.92-56.77,16.76-18.59,27.28-40.08,26.12-65.92-.69-15.23-10.37-25.71-25.37-27.38a70.51,70.51,0,0,0-33.51,4.3c-12.84,4.91-22.38,14.52-33.31,22.18-54.36,38.11-111.85,70.67-171.52,99.85-36,17.59-73,22.25-112,18.84-32.65-2.85-65-1.89-97.07,6.56C630.19,462.42,578.9,491.91,549.94,551c-16.23,33.1-42,54.89-74.84,69.7a166.44,166.44,0,0,0-41.42,26.44c-15.94,13.95-30.39,29.17-36.09,50.41-5.58,20.78,3.64,37.86,23.81,45.26,19.3,7.08,38,4.29,55.91-4.21,33.57-15.94,50.3-44,55.3-79.85,3.84-27.57,10.87-53.31,34.22-71.81,31.79-25.18,65.27-44.36,108-42.75,28,1.06,55.55-3.56,80.1-18.76,12.88-8,25.28-16.76,38.18-24.72,21.54-13.27,43.34-26,68.67-31.1C879.85,466,898.06,467.8,918.75,467.45ZM97.53,834c3.82,25.23,19.08,48.45,46.38,62.91,13.35,7.08,24.29.82,27-14.8,5.23-30-5.6-54.66-27.37-74.74-6.64-6.11-15.05-10.69-24.8-9.28C105.24,800,97.48,811.5,97.53,834Z" transform="translate(286.98 161.03)"/><path class="b" d="M255-160.88c-2.77,22.11-9,43.46-14.28,65-15.94,65.62-36.87,129.75-57.52,194-8.59,26.72-16.19,53.77-15.94,82.24a93.81,93.81,0,0,0,1.75,17.3c4.93,24.8,22,36.67,47.35,34,21.26-2.28,41.33-9.15,61.86-14.51,62.8-16.39,123.44-38.56,182.49-65.34,19.79-9,38.5-20.25,59-27.65,20.88-7.53,42.08-13.1,64.52-8.74,21.82,4.23,37.47,16.74,45,37.54a143.67,143.67,0,0,1,6.08,76.16c-4.11,22.47-15.52,39.92-33.63,53-37.3,26.92-74.38,54.17-113.31,78.76-26.08,16.47-54.83,24-85.27,26.51-32.48,2.69-65.15,2.87-97.47,7.45a293.43,293.43,0,0,0-67.32,17.56c-32.27,12.81-53.64,36.1-65.37,68.58-6,16.63-12,33.28-18.34,49.79a138.69,138.69,0,0,1-8.82,18.45C132.75,572.2,116,579.74,90,574.63c-20.16-4-39.27-11.49-58.85-17.42-66.54-20.13-130.74-13.61-193.09,16.3-39,18.7-77.45,38.41-117.15,55.57-2.48,1.07-4.73,3.1-7.78,2.32v-551c3.52-.56,5.45,2.19,7.8,3.9,11.92,8.64,24.36,16.43,38.22,21.51,17.87,6.55,29.14,3.07,40.21-12.2C-189.1,77.76-184.15,59-179.31,40.51-170.93,8.43-159.6-22-138.58-48.35c24.93-31.18,52.84-59.88,76.28-92.27,4.77-6.6,11.92-11.65,13.73-20.26Z" transform="translate(286.98 161.03)"/><path class="b" d="M1655.9,724c-41,29.6-81.84,59.38-123,88.72-18.71,13.34-37.32,27-58.9,35.67-25.57,10.25-43.1,2-52.14-24.16a100.7,100.7,0,0,1-5.46-31.26c-.56-32.67,1.71-65.18,8-97.3,9.34-47.65,33.13-87.56,66.12-122.46,12.68-13.42,25.5-26.71,38.2-40.1,23.26-24.51,35.3-53.17,32.78-87.42-1.68-22.94-3.49-45.84-7.22-68.57-3-18.47-12.92-31.39-29.43-39.72-24.46-12.34-50.9-18-77.51-23-48.94-9.14-98.76-12.69-147.52-22.87-28.2-5.89-56.2-12.68-84.31-19-18.3-4.09-33.76-13.08-47-26.26-11.83-11.77-23.84-23.33-36.91-33.78-19.74-15.79-42.35-23.16-67.3-24.08-21.94-.82-44.1.48-65.45-6.18-19.39-6.05-38.13-13.6-54.46-26.05-18.87-14.39-23.36-31.86-13.7-53.55,9.12-20.5,25.11-35.26,41.88-49.24,13.59-11.34,27.25-22.62,41.38-33.25,21.68-16.3,33.87-38.35,40.78-63.95,8.54-31.67,11.18-64.16,13.56-96.69.5-6.8,1.16-13.59,1.75-20.39h230.71c-.57,3.45,1.09,6.43,2.12,9.5,10.08,30,24.73,58,37.67,86.81C1351.4-40.39,1361.9-16,1378,5.36c16.71,22.12,37.42,36.45,66.85,34.31,20.83-1.51,35.67-13.11,40.77-33.39,11.51-45.77,17-92.19,15.28-139.43-.34-9.33-3.41-18.34-2.87-27.73,50.59,0,101.18.1,151.77-.15,5.2,0,6.22,1,6.22,6.22Q1655.8,284.58,1655.9,724Z" transform="translate(286.98 161.03)"/><path class="a" d="M-48.57-160.88c-1.81,8.61-9,13.66-13.73,20.26-23.44,32.39-51.35,61.09-76.28,92.27-21,26.3-32.35,56.78-40.73,88.86-4.84,18.53-9.79,37.25-21.32,53.14-11.07,15.27-22.34,18.75-40.21,12.2-13.86-5.08-26.3-12.87-38.22-21.51-2.35-1.71-4.28-4.46-7.8-3.9q0-117.81-.12-235.64c0-4.73,1.06-5.81,5.8-5.8Q-164.87-160.74-48.57-160.88Z" transform="translate(286.98 161.03)"/><path class="a" d="M1498.05-160.88c-.54,9.39,2.53,18.4,2.87,27.73,1.72,47.24-3.77,93.66-15.28,139.43-5.1,20.28-19.94,31.88-40.77,33.39-29.43,2.14-50.14-12.19-66.85-34.31C1361.9-16,1351.4-40.39,1340.53-64.57c-12.94-28.78-27.59-56.81-37.67-86.81-1-3.07-2.69-6.05-2.12-9.5Z" transform="translate(286.98 161.03)"/><path class="b" d="M-286.86,742.2c20.13,9,36.94,22.43,51.87,38.4,14,15,24.77,32.48,35.94,49.58,21.08,32.25,46.81,60.71,72.17,89.49,3.49,4,6.68,8.16,10,12.25-54.78,0-109.55-.07-164.33.12-4.79,0-5.79-1.14-5.78-5.82Q-286.71,834.21-286.86,742.2Z" transform="translate(286.98 161.03)"/><path class="b" d="M918.75,467.45c-20.69.35-38.9-1.5-57,2.12-25.33,5.08-47.13,17.83-68.67,31.1-12.9,8-25.3,16.74-38.18,24.72-24.55,15.2-52.11,19.82-80.1,18.76-42.73-1.61-76.21,17.57-108,42.75-23.35,18.5-30.38,44.24-34.22,71.81-5,35.88-21.73,63.91-55.3,79.85-17.89,8.5-36.61,11.29-55.91,4.21-20.17-7.4-29.39-24.48-23.81-45.26,5.7-21.24,20.15-36.46,36.09-50.41a166.44,166.44,0,0,1,41.42-26.44c32.83-14.81,58.61-36.6,74.84-69.7,29-59.05,80.25-88.54,141.48-104.67,32.07-8.45,64.42-9.41,97.07-6.56,39,3.41,76-1.25,112-18.84C960.12,391.71,1017.61,359.15,1072,321c10.93-7.66,20.47-17.27,33.31-22.18a70.51,70.51,0,0,1,33.51-4.3c15,1.67,24.68,12.15,25.37,27.38,1.16,25.84-9.36,47.33-26.12,65.92-23.91,26.51-54.57,43-86.92,56.77C1008,462.94,962.85,469.7,918.75,467.45Z" transform="translate(286.98 161.03)"/><path class="b" d="M97.53,834c0-22.48,7.71-34,21.22-35.91,9.75-1.41,18.16,3.17,24.8,9.28,21.77,20.08,32.6,44.73,27.37,74.74-2.72,15.62-13.66,21.88-27,14.8C116.61,882.43,101.35,859.21,97.53,834Z" transform="translate(286.98 161.03)"/></svg>