<svg xmlns="http://www.w3.org/2000/svg" viewBox="0 0 1943.04 1093.11"><defs><style>.a{fill:#ffffff;}.b{fill:#41c7f6;}</style></defs><title>1800f_00357</title><path class="a" d="M-286.86,159.37q0-157.09-.15-314.18c0-5.2,1-6.22,6.22-6.22q226.16.27,452.3.15c-4,11.64-7.89,23.37-12.2,34.92C141.6-78.41,131.13-29.55,132.18,21.45,133.1,66,139.59,110,146.74,153.82c3.56,21.86,10,42.79,22.93,61.23,14.5,20.65,32.9,22.61,50.9,5.2a105.6,105.6,0,0,0,12.26-13.4c33.24-45.88,63.11-94,91.73-142.79,31.53-53.79,52.62-111.27,58.67-173.84,1.71-17.73,3.14-35.91,14.43-51.1H510a322,322,0,0,0,63.14,15.37c26.81,3.82,51.74-1.68,75-15.37h611.67c-5.69,18.95-8.28,38.49-10.7,58-5.53,44.45-5.65,89.28-9.28,133.87-3.31,40.82-7.09,81.61-16.75,121.54-6,24.81-12.17,49.64-24.24,72.44-7.93,15-19.5,25.38-37,26.73-19,1.47-38,1.52-56.72-2.08-46.12-8.89-90-25-133.47-42.42-27.77-11.15-41-32.9-46-61.14-3.31-18.75-3.69-37.67-4.57-56.6-.58-12.33-1.24-24.79-6-36.42-2-4.91-4.64-10.1-10.81-10.45-6.4-.37-9.81,4.28-12.73,9.26-5.62,9.58-7.47,20.3-9.73,30.93-5.38,25.25-7.32,51-10.56,76.5C867.83,186,860.69,211.77,854,237.68c-5.27,20.3-5.78,40.57,2.57,60.21,9.54,22.47,28.19,33.89,50.92,39,34.27,7.65,69,13.21,103,22,48,12.4,95.9,17.62,144.74,7.17,26.82-5.73,48.85,1.72,68.51,20.65a301.62,301.62,0,0,0,64,47.12c47.89,26.3,97.36,49.45,146.52,73.21,53.3,25.75,106,52.61,155.47,85.34,17.08,11.3,30.53,25.71,39,44.4,13.06,28.72,6.76,52.08-18.73,70.44-11.35,8.18-23.9,14.17-36.64,19.79-29.13,12.86-59.64,22.48-87.86,37.46-48.21,25.59-65,63.58-61.09,116.75,1.26,17.23,5.13,33.91,8.37,50.75H713.36c20.64-31.35,32.73-66.13,39.25-102.71,5.91-33.16,24.76-54.39,55.42-66.22,27.12-10.45,54.68-19.64,82.33-28.58A229,229,0,0,0,928,718.5c18.54-9.92,35.5-22.28,52.8-34.11,28.28-19.33,58.81-34.5,89.76-48.95,50-23.35,95.39-55.22,145.27-78.81,5.36-2.54,10.18-6.69,14.51-10.85,18.16-17.46,16.74-41.34-3.66-55.95s-43.72-16.1-67.56-14.07c-30,2.55-58.44,11.67-86.35,22.27A468.28,468.28,0,0,1,948.39,526.9c-33.8,3.08-67.25,8-98.78,21.69-23.93,10.39-46.45,23.51-69.7,35.22A321.09,321.09,0,0,0,671.44,672.3c-43,54.37-96.23,96.44-154.91,132.22-15.79,9.63-32.73,15.91-51.82,13.78-17.86-2-33.33-9.75-47.91-19.64-32.95-22.37-59.47-51.61-86-80.81-8.67-9.53-17.26-19.19-27.87-26.68-11.75-8.3-20.16-6.74-28,5.4-6.1,9.42-9.57,20-12.4,30.8-8.87,33.89-6.36,68.21-3.76,102.51,1.42,18.64,3.29,37.18,1.29,56-1.63,15.3-4.07,30.59-3.53,46.07q-268.33,0-536.66.16c-6,0-6.88-1.66-6.84-7.11.27-34.11.14-68.22.14-102.33,2.48.73,4.41-.79,6.42-1.7,48-21.78,97.66-36.89,150.53-41,31.86-2.46,60.33-14,84.29-35.72,15.79-14.28,30-30,43.59-46.37,20.41-24.5,40.36-49.43,53-79,12.74-29.87,10.21-49.37-14.19-68-23.93-18.3-42-41.44-58.49-66C-61.68,425.11-97.83,363.08-135.54,302c-24.13-39.07-49.47-77-84-107.81C-239,176.94-259.3,161.07-286.86,159.37ZM683.29,365.6c.35-28.89-2.5-52.3-16.6-72.85-15.35-22.37-38.92-25.68-60.32-9-12.31,9.59-22.2,21.38-31.3,33.85-21.41,29.36-45,56.52-74.7,78-39.15,28.26-83.72,39.25-131,41.48-18.68.89-37.47.49-56.05,2.32-27.81,2.73-55.46,1.56-83.21-.09-13.37-.8-26.88,0-39.31,5.83-22.14,10.33-32.06,29.71-37.32,52.17-4.66,19.88.38,36.8,15.73,50.69,19.35,17.5,41.89,29.77,65.21,40.9,21,10,40.32,8.38,58.85-6.07,9.76-7.6,20.23-14.47,31.84-19,51.79-20.09,104.48-35.21,161-28.08,22.16,2.8,44.73,5.74,63.65,18.07,17.79,11.58,34,9.76,50.29-.48,36.27-22.8,62-54.07,72.45-96.24C680.34,425.56,681.73,393.16,683.29,365.6Z" transform="translate(287.01 161.03)"/><path class="b" d="M1432.78,931.92c-3.24-16.84-7.11-33.52-8.37-50.75-3.86-53.17,12.88-91.16,61.09-116.75,28.22-15,58.73-24.6,87.86-37.46,12.74-5.62,25.29-11.61,36.64-19.79,25.49-18.36,31.79-41.72,18.73-70.44-8.5-18.69-22-33.1-39-44.4-49.48-32.73-102.17-59.59-155.47-85.34-49.16-23.76-98.63-46.91-146.52-73.21a301.62,301.62,0,0,1-64-47.12c-19.66-18.93-41.69-26.38-68.51-20.65-48.84,10.45-96.78,5.23-144.74-7.17-34-8.78-68.74-14.34-103-22-22.73-5.07-41.38-16.49-50.92-39-8.35-19.64-7.84-39.91-2.57-60.21,6.72-25.91,13.86-51.72,17.23-78.37,3.24-25.54,5.18-51.25,10.56-76.5,2.26-10.63,4.11-21.35,9.73-30.93,2.92-5,6.33-9.63,12.73-9.26C910.39,43,913,48.16,915,53.07c4.78,11.63,5.44,24.09,6,36.42.88,18.93,1.26,37.85,4.57,56.6,5,28.24,18.2,50,46,61.14,43.45,17.46,87.35,33.53,133.47,42.42,18.68,3.6,37.77,3.55,56.72,2.08,17.51-1.35,29.08-11.76,37-26.73,12.07-22.8,18.23-47.63,24.24-72.44,9.66-39.93,13.44-80.72,16.75-121.54,3.63-44.59,3.75-89.42,9.28-133.87,2.42-19.54,5-39.08,10.7-58h185.16c1.17,3-1,5.35-1.93,7.83-10.67,27.73-14.28,56.46-9,85.56,11.35,62.83,24.52,125.34,35.52,188.23,8.82,50.38,37.32,83.64,83.1,104,33,14.65,68.63,18.12,103.31,25.73q0,337.32.14,674.65c0,5.69-1.28,7-7,7C1577,931.84,1504.88,931.92,1432.78,931.92Z" transform="translate(287.01 161.03)"/><path class="b" d="M256.5,931.92c-.54-15.48,1.9-30.77,3.53-46.07,2-18.79.13-37.33-1.29-56-2.6-34.3-5.11-68.62,3.76-102.51,2.83-10.79,6.3-21.38,12.4-30.8,7.85-12.14,16.26-13.7,28-5.4,10.61,7.49,19.2,17.15,27.87,26.68,26.55,29.2,53.07,58.44,86,80.81,14.58,9.89,30.05,17.66,47.91,19.64,19.09,2.13,36-4.15,51.82-13.78,58.68-35.78,111.93-77.85,154.91-132.22a321.09,321.09,0,0,1,108.47-88.49c23.25-11.71,45.77-24.83,69.7-35.22,31.53-13.7,65-18.61,98.78-21.69A468.28,468.28,0,0,0,1072.76,498c27.91-10.6,56.35-19.72,86.35-22.27,23.84-2,47.26-.47,67.56,14.07s21.82,38.49,3.66,55.95c-4.33,4.16-9.15,8.31-14.51,10.85-49.88,23.59-95.28,55.46-145.27,78.81-31,14.45-61.48,29.62-89.76,48.95-17.3,11.83-34.26,24.19-52.8,34.11a229,229,0,0,1-37.63,15.91C862.71,743.35,835.15,752.54,808,763c-30.66,11.83-49.51,33.06-55.42,66.22-6.52,36.58-18.61,71.36-39.25,102.71Z" transform="translate(287.01 161.03)"/><path class="b" d="M-286.86,159.37c27.56,1.7,47.88,17.57,67.28,34.85C-185,225-159.67,263-135.54,302c37.71,61.05,73.86,123.08,113.81,182.73,16.46,24.59,34.56,47.73,58.49,66,24.4,18.66,26.93,38.16,14.19,68-12.62,29.62-32.57,54.55-53,79-13.6,16.33-27.8,32.09-43.59,46.37C-69.58,765.92-98,777.5-129.91,780c-52.87,4.09-102.56,19.2-150.53,41-2,.91-3.94,2.43-6.42,1.7Z" transform="translate(287.01 161.03)"/><path class="b" d="M397.66-160.88c-11.29,15.19-12.72,33.37-14.43,51.1-6.05,62.57-27.14,120.05-58.67,173.84-28.62,48.83-58.49,96.91-91.73,142.79a105.6,105.6,0,0,1-12.26,13.4c-18,17.41-36.4,15.45-50.9-5.2-12.94-18.44-19.37-39.37-22.93-61.23C139.59,110,133.1,66,132.18,21.45c-1.05-51,9.42-99.86,27.13-147.41,4.31-11.55,8.15-23.28,12.2-34.92Z" transform="translate(287.01 161.03)"/><path class="a" d="M1655.9,250.44c-34.68-7.61-70.33-11.08-103.31-25.73-45.78-20.33-74.28-53.59-83.1-104-11-62.89-24.17-125.4-35.52-188.23-5.26-29.1-1.65-57.83,9-85.56,1-2.48,3.1-4.79,1.93-7.83h82a18.07,18.07,0,0,0,1.86,2.36c32,28.87,59.66,61.59,86.31,95.28,13.29,16.79,26.22,33.89,40.85,49.58Z" transform="translate(287.01 161.03)"/><path class="b" d="M1655.9-13.66c-14.63-15.69-27.56-32.79-40.85-49.58-26.65-33.69-54.34-66.41-86.31-95.28a18.07,18.07,0,0,1-1.86-2.36c41.49,0,83,.06,124.46-.1,3.8,0,4.67.86,4.65,4.65C1655.84-108.77,1655.9-61.21,1655.9-13.66Z" transform="translate(287.01 161.03)"/><path class="b" d="M648.09-160.88c-23.24,13.69-48.17,19.19-75,15.37A322,322,0,0,1,510-160.88Z" transform="translate(287.01 161.03)"/><path class="b" d="M683.29,365.6c-1.56,27.56-2.95,60-10.8,91.49C662,499.26,636.31,530.53,600,553.33c-16.28,10.24-32.5,12.06-50.29.48-18.92-12.33-41.49-15.27-63.65-18.07-56.56-7.13-109.25,8-161,28.08-11.61,4.5-22.08,11.37-31.84,19-18.53,14.45-37.88,16.08-58.85,6.07-23.32-11.13-45.86-23.4-65.21-40.9-15.35-13.89-20.39-30.81-15.73-50.69,5.26-22.46,15.18-41.84,37.32-52.17,12.43-5.8,25.94-6.63,39.31-5.83,27.75,1.65,55.4,2.82,83.21.09,18.58-1.83,37.37-1.43,56.05-2.32,47.33-2.23,91.9-13.22,131.05-41.48,29.7-21.44,53.29-48.6,74.7-78,9.1-12.47,19-24.26,31.3-33.85,21.4-16.68,45-13.37,60.32,9C680.79,313.3,683.64,336.71,683.29,365.6Z" transform="translate(287.01 161.03)"/></svg>