<svg xmlns="http://www.w3.org/2000/svg" viewBox="0 0 1943.05 1093.11"><defs><style>.a{fill:#ffffff;}.b{fill:#41c7f6;}</style></defs><title>1800f_00295</title><path class="a" d="M1655.9,783.18c0,47.3-.12,94.6.15,141.91,0,5.69-1.29,7-7,7q-722.85-.22-1445.69-.14c1.06-3.36,2.23-6.69,3.16-10.09,7-25.65,14.44-51.14,29.33-73.63,20.48-30.92,49.76-39.54,83.69-24.44,27.7,12.32,54.67,26.53,84.42,33.56,17.94,4.24,36.08,7.65,54.12,11.44,24.87,5.23,47.84,16.25,72,23.48,18.66,5.59,37.26,6.45,53.43-6.51,26.89-21.55,39.42-50,35-84.22-5.58-43.45-45.94-98.14-101.82-109.94-33.45-7.07-67-6-100.34-1.56-52.71,7-105.22,8.56-157.74-1-33.59-6.08-66.93-13-98.84-25.76-27.67-11.1-40.41-32.1-42.85-60.59-1-11.65,3.28-16.87,14.76-18.7,17.43-2.77,34.86-.1,52.16,1.13,48.53,3.46,94.18-4.87,136.22-30,50.81-30.35,93.32-70,129.23-116.81,25.93-33.76,46.4-70.5,56.87-112.19,9.42-37.5,5.89-75.34,3-113.15-2.24-28.76-3.65-57.55-1.86-86.38,1-16.64,2.77-33.24,1.38-49.94-3.38-40.74-24.3-69-61.7-84.5-26.17-10.81-54.08-15-82.24-15.78-18.17-.53-36,2.77-50.29,15.51-12.76,11.38-18.72,26.77-23,42.81-7.8,29.08-8.39,59-9.33,88.76-.87,27.59-5.89,54.11-18.1,79.19-13.57,27.84-30.54,53.57-47.47,79.35-34.9,53.14-73.66,103.21-117.4,149.49-23.6,25-32.59,55.3-26.57,89.6C73.9,528.56,75.46,536,76,543.54c.75,11.45-1,13.43-11.9,16.7a55.14,55.14,0,0,1-6.64,1.4c-16.9,2.84-34.07,4.12-50.29,10.46-21.54,8.41-30.94,25.81-25.74,48.31A116.42,116.42,0,0,0-9.36,646c12,24.08,11.4,47.55-2,71q-9.26,16.15-19.82,31.41c-8.36,12.06-16.79,24.1-23.07,37.4-12,25.51-7.19,44.39,15.29,61,11.27,8.33,24,14,36.61,19.82,19.73,9.1,40.16,17,57.39,30.64,11.38,9,21.61,19.17,23.86,34.64q-179.68,0-359.38.16c-5.59,0-6.54-1.31-6.54-6.65q.25-229,.14-457.95c5.83-.27,9.86-4.67,15-6.62,23.84-9,48.48-5.52,72.84-5,13.48.29,26.82.14,39.81-3.09,34.32-8.54,55.82-32.67,71.24-62.4,16.91-32.61,3.15-64.12-31.52-76.64-13.21-4.77-26.86-7.11-40.69-8.31-33-2.85-61.35-15.52-85.31-38.36-16.42-15.66-28.94-34.32-41.39-53.05q0-184-.14-368.06c0-5.69,1.28-7,7-7q851.1.22,1702.19.14c.12,2.76.17,5.53.37,8.3,1.37,19,1.18,37.86-1.61,56.73-3.65,24.65-15.73,45.79-27.78,66.84-13.82,24.11-28.69,47.62-42.67,71.64-12.31,21.14-9.77,37.12,7.39,54.64,7.86,8,17,14.28,26.27,20.41,23.43,15.44,47.15,30.5,66.16,51.62,9.47,10.52,16.49,22.28,19.21,36.38,3.67,19-5.19,34.3-21.64,35.88-9,.86-17.46-2.35-25.5-6.17C1380,215.27,1350.22,183,1332.53,140c-9.6-23.37-24.4-42-44-57.63-14.8-11.82-29.14-24.43-40.75-39.5-30.07-39-58.77-79.17-93.14-114.72-18.26-18.88-33.9-40.3-54.65-56.77-25.56-20.31-56.56-28.25-88.81-3.22-5,3.88-10.25,7.4-15.49,10.93-11.47,7.7-24.06,10.81-37.56,7.47-32.37-8-61.37-.52-88.72,17.41C853.8-85.83,838-75.87,821.11-67.57c-20.41,10.06-41.33,12.38-63.31,5.92a280.78,280.78,0,0,1-34.73-13.1c-19.4-8.59-38.25-18.51-58.82-24.29-23.67-6.65-39-1.4-53.6,18.39C598.69-64.5,592.07-45.91,586.5-27c-9,30.65-16.83,61.52-11.29,94,3.12,18.29,8.87,35.8,15.24,53.13,8.47,23,17.79,45.71,24.25,69.42,5.91,21.72,16.81,30.44,39.26,32.31,19.54,1.63,38.9-.29,58.24-2.37,50-5.38,99.45-14.48,149.4-20.25,31.74-3.67,61.8-1.26,90.07,15.4,18.75,11,39,19.29,59.67,26.13a412.1,412.1,0,0,1,111.76,56.89C1177.24,336.54,1234,371,1294.09,400a140.69,140.69,0,0,1,25.3,15.25c15.52,12,17.47,27.28,5.51,42.92-8.47,11.08-20.36,17.16-32.75,22.51-13.46,5.81-27,11.39-40.38,17.42-21.57,9.73-36.66,25.94-45.14,47.87-11.12,28.76-26.45,55.08-44.16,80.18-11.81,16.74-23.38,33.68-32.26,52.21-8.19,17.1-13.47,34.75-10.15,54.19,5,29.55,29.85,45.59,58.63,37.51,14.51-4.08,27.62-11.19,40.62-18.54,20.24-11.43,39.73-24.23,61.1-33.6,45.4-19.92,91.89-37.1,138.41-54.12,42.13-15.42,79.48-37.4,108.78-72a200.28,200.28,0,0,1,16.15-17.06c15.55-14.48,28.74-14.17,43.39,1.12,12.23,12.77,20.55,28.12,27.7,44.12,17.8,39.81,27.16,81.88,33.44,124.82C1650.17,757.69,1651.12,770.83,1655.9,783.18Z" transform="translate(287 161.03)"/><path class="b" d="M1655.9,783.18c-4.78-12.35-5.73-25.49-7.62-38.38-6.28-42.94-15.64-85-33.44-124.82-7.15-16-15.47-31.35-27.7-44.12-14.65-15.29-27.84-15.6-43.39-1.12a200.28,200.28,0,0,0-16.15,17.06c-29.3,34.55-66.65,56.53-108.78,72-46.52,17-93,34.2-138.41,54.12-21.37,9.37-40.86,22.17-61.1,33.6-13,7.35-26.11,14.46-40.62,18.54-28.78,8.08-53.58-8-58.63-37.51-3.32-19.44,2-37.09,10.15-54.19,8.88-18.53,20.45-35.47,32.26-52.21,17.71-25.1,33-51.42,44.16-80.18,8.48-21.93,23.57-38.14,45.14-47.87,13.36-6,26.92-11.61,40.38-17.42,12.39-5.35,24.28-11.43,32.75-22.51,12-15.64,10-30.91-5.51-42.92a140.69,140.69,0,0,0-25.3-15.25c-60.08-29-116.85-63.41-171-102.29a412.1,412.1,0,0,0-111.76-56.89c-20.67-6.84-40.92-15.09-59.67-26.13-28.27-16.66-58.33-19.07-90.07-15.4-50,5.77-99.42,14.87-149.4,20.25-19.34,2.08-38.7,4-58.24,2.37-22.45-1.87-33.35-10.59-39.26-32.31-6.46-23.71-15.78-46.42-24.25-69.42C584.08,102.8,578.33,85.29,575.21,67c-5.54-32.46,2.29-63.33,11.29-94,5.57-18.93,12.19-37.52,24.15-53.67,14.65-19.79,29.93-25,53.6-18.39,20.57,5.78,39.42,15.7,58.82,24.29a280.78,280.78,0,0,0,34.73,13.1c22,6.46,42.9,4.14,63.31-5.92,16.84-8.3,32.69-18.26,48.32-28.51,27.35-17.93,56.35-25.41,88.72-17.41,13.5,3.34,26.09.23,37.56-7.47,5.24-3.53,10.51-7,15.49-10.93,32.25-25,63.25-17.09,88.81,3.22,20.75,16.47,36.39,37.89,54.65,56.77C1189-36.35,1217.73,3.77,1247.8,42.82c11.61,15.07,26,27.68,40.75,39.5,19.58,15.63,34.38,34.26,44,57.63,17.69,43.08,47.49,75.32,89.83,95.44,8,3.82,16.53,7,25.5,6.17,16.45-1.58,25.31-16.84,21.64-35.88-2.72-14.1-9.74-25.86-19.21-36.38-19-21.12-42.73-36.18-66.16-51.62-9.29-6.13-18.41-12.39-26.27-20.41-17.16-17.52-19.7-33.5-7.39-54.64,14-24,28.85-47.53,42.67-71.64,12-21,24.13-42.19,27.78-66.84,2.79-18.87,3-37.77,1.61-56.73-.2-2.77-.25-5.54-.37-8.3q113.83,0,227.66-.15c5.2,0,6.22,1,6.22,6.22Q1655.8,314.18,1655.9,783.18Z" transform="translate(287 161.03)"/><path class="b" d="M78.92,931.92c-2.25-15.47-12.48-25.61-23.86-34.64C37.83,883.62,17.4,875.74-2.33,866.64c-12.62-5.83-25.34-11.49-36.61-19.82-22.48-16.64-27.33-35.52-15.29-61,6.28-13.3,14.71-25.34,23.07-37.4Q-20.55,733.12-11.34,717C2,693.57,2.6,670.1-9.36,646a116.42,116.42,0,0,1-9.26-25.61c-5.2-22.5,4.2-39.9,25.74-48.31,16.22-6.34,33.39-7.62,50.29-10.46a55.14,55.14,0,0,0,6.64-1.4C75,557,76.7,555,76,543.54c-.49-7.52-2-15-3.36-22.43-6-34.3,3-64.64,26.57-89.6,43.74-46.28,82.5-96.35,117.4-149.49,16.93-25.78,33.9-51.51,47.47-79.35,12.21-25.08,17.23-51.6,18.1-79.19.94-29.81,1.53-59.68,9.33-88.76,4.3-16,10.26-31.43,23-42.81,14.27-12.74,32.12-16,50.29-15.51,28.16.81,56.07,5,82.24,15.78,37.4,15.46,58.32,43.76,61.7,84.5,1.39,16.7-.34,33.3-1.38,49.94-1.79,28.83-.38,57.62,1.86,86.38,2.93,37.81,6.46,75.65-3,113.15-10.47,41.69-30.94,78.43-56.87,112.19-35.91,46.76-78.42,86.46-129.23,116.81-42,25.12-87.69,33.45-136.22,30-17.3-1.23-34.73-3.9-52.16-1.13-11.48,1.83-15.75,7-14.76,18.7,2.44,28.49,15.18,49.49,42.85,60.59,31.91,12.8,65.25,19.68,98.84,25.76,52.52,9.51,105,8,157.74,1,33.37-4.44,66.89-5.51,100.34,1.56,55.88,11.8,96.24,66.49,101.82,109.94,4.41,34.27-8.12,62.67-35,84.22-16.17,13-34.77,12.1-53.43,6.51C505.94,885,483,874,458.1,868.76c-18-3.79-36.18-7.2-54.12-11.44-29.75-7-56.72-21.24-84.42-33.56-33.93-15.1-63.21-6.48-83.69,24.44-14.89,22.49-22.33,48-29.33,73.63-.93,3.4-2.1,6.73-3.16,10.09Z" transform="translate(287 161.03)"/><path class="b" d="M-286.86,214c12.45,18.73,25,37.39,41.39,53.05,24,22.84,52.34,35.51,85.31,38.36,13.83,1.2,27.48,3.54,40.69,8.31,34.67,12.52,48.43,44,31.52,76.64-15.42,29.73-36.92,53.86-71.24,62.4-13,3.23-26.33,3.38-39.81,3.09-24.36-.52-49-4-72.84,5-5.16,1.95-9.19,6.35-15,6.62Z" transform="translate(287 161.03)"/></svg>