<svg xmlns="http://www.w3.org/2000/svg" viewBox="0 0 1943.03 1093.12"><defs><style>.a{fill:#ffffff;}.b{fill:#41c7f6;}</style></defs><title>1800f_00301</title><path class="a" d="M-44,931.92H-258c-4.79-19.06-13.35-35.87-28.84-48.57V745.23a617.61,617.61,0,0,0,39.36-69.09c16.35-33.52,28-68.89,37.93-104.67,9.69-34.91,26.5-64.76,53.74-88.81,11.17-9.86,22-20.16,32.25-31,24.5-26,34.31-55.7,20-90.33-10.6-25.73-34.28-47.15-66.47-44.1-9.14.87-17.89,3.38-26.5,6.22-26.73,8.8-50.79,3.84-72.66-13.33-5.95-4.66-11.8-9.43-17.7-14.15q0-225.15-.12-450.29c0-5.16.67-6.76,6.45-6.74,79.85.26,159.7.18,239.55.18,3.25,11.27,13,18.67,25.89,19.43,25.46,1.52,47.71-8.58,69.73-19.43H1499.56c-.79,3.57,1.46,6.29,2.72,9.24,10.82,25.31,18,51.58,19.92,79.07,1.68,24.19-.93,47.75-9.49,70.83-9.9,26.69-16.25,54.22-13,83.14,2.86,25.23,12.56,48.32,21.89,71.55,7.63,19,17.65,37,22.73,57,3.78,14.87,5.26,29.83,2.34,45.05-6,31.07-28.43,50.86-61.14,51.8-53.89,1.55-101.77-16.6-145.13-47.41a94,94,0,0,1-37.36-54.58c-3.8-14.78-5.12-29.88-5.76-45-1.4-33.25-10.31-63.91-31.8-89.86-25.63-31-46.08-65.12-64.91-100.46-10.1-19-21.79-37.11-38-51.75-17.46-15.77-33.44-15.41-49.94,1.07-11.6,11.59-19.45,25.76-27.23,40-10.8,19.73-19.72,40.49-31.87,59.49-11.93,18.65-17.71,19.73-34.38,5.07-20-17.6-42.66-27-69.49-24-26.61,3-53.07,7.28-79.8,9.38-30.53,2.41-61,3.93-91.54-.78-29.79-4.6-53-18.72-68.24-45.19-7.18-12.49-14.08-25.17-21.83-37.3-13.73-21.47-27.43-21.26-41.42.29C635.69-57,630.25-37.48,625.62-17.77c-15.81,67.22-27.52,135.21-37.54,203.51-.62,4.19-.07,9.68-4.43,11.38-4.83,1.9-8.12-2.93-11.3-5.92-24.91-23.45-44.7-50.8-60.91-80.83-7.63-14.13-16.75-27-29.24-37.4C449.82,46,406.11,51.74,382.06,86.16c-9.06,13-15.51,27.2-20.82,42-13.4,37.3-18.32,76.07-19.4,115.4-.68,24.77.11,49.59-.7,74.35-.8,24.6-4.63,48.86-13.38,72C307.08,444.66,275.21,491,226.63,525c-13.33,9.33-25,20.6-32,35.78-8.85,19.1-4.43,37.65,11.84,51,11.41,9.36,24.51,15,38.77,18.18,36.71,8.14,70.39-.47,101.5-19.89q52.11-32.54,103.24-66.65c30.15-20,57.39-43.46,76.75-74.5,40.66-65.22,65.06-135.55,65.22-213.24,0-9.58-1-19.21.77-28.76,1.32-7.21,3.89-8.35,10.17-4.37,3.39,2.15,7.08,3.93,10.15,6.47a408.69,408.69,0,0,0,88.44,55.35c31,14.41,63.42,19.61,97.48,16.62,31.89-2.81,62.86-10.1,93.73-17.88,28.82-7.26,55.54-3.8,80.59,12.53,21.81,14.23,44.16,27.65,65.74,42.21,33.43,22.54,65.37,47.28,99.85,68.3,31.6,19.27,65,35,99.16,49,37.73,15.47,76.84,26.86,115.5,39.57,12.27,4,24.31,8.71,34.5,17,14.52,11.87,13.1,28.49-3.19,37.78-8.72,5-18.34,7.17-28,9-24.07,4.62-48.7,5.95-72.51,12.18-17.78,4.65-33.7,12.42-45.51,27a203.62,203.62,0,0,1-23.23,23.93c-27.24,24.15-55.38,47.29-81.8,72.36-28.29,26.85-55.56,54.62-76.46,87.88-14.4,22.93-24.08,47.29-20.06,75.11,2.29,15.92,9.1,29.12,23.83,37.38,19,10.66,39.49,9.13,59.88,7.45a297.67,297.67,0,0,1,47.68-.1c23.4,1.83,46.73,4.21,70-1.45,33.23-8.08,60.22-27,85.11-49.13,24.35-21.68,47.58-44.61,71.67-66.58a392.49,392.49,0,0,1,99.51-66c31.4-14.59,62.74-14.59,92.28,5.74,15.54,10.69,26.35,25.67,36,41.52q16.4,26.83,32.68,53.73c0,35.42-.14,70.83.15,106.25,0,5.2-1,6.22-6.23,6.21q-292.54-.25-585.1-.14h-318c0-2.71,1.83-4.63,3-6.84,15-28.63,19.29-58.79,12.07-90.32C758.65,821,752,816.39,738,816.52c-6.93.07-13.45,2.11-20,3.84-35.21,9.29-70.21,10.19-105.42-.5-24.66-7.48-49.74-13.43-75-18.66-51.71-10.72-104.08-18-155.71-29-67.45-14.38-131.14-36.48-183-85.53-25.71-24.35-57.38-38.93-93.58-42.8-35.91-3.83-57,13.3-58.48,49.28A192.33,192.33,0,0,1,41.5,729.1C33.08,765,13.11,794.67-9,823.23c-14.84,19.16-32,36.6-44,57.84-10,17.67-12.87,35.16,8.33,49.55C-44.35,930.86-44.24,931.48-44,931.92Z" transform="translate(286.98 161.06)"/><path class="b" d="M1655.9,819.6q-16.34-26.86-32.68-53.73c-9.68-15.85-20.49-30.83-36-41.52-29.54-20.33-60.88-20.33-92.28-5.74a392.49,392.49,0,0,0-99.51,66c-24.09,22-47.32,44.9-71.67,66.58-24.89,22.15-51.88,41-85.11,49.13-23.31,5.66-46.64,3.28-70,1.45a297.67,297.67,0,0,0-47.68.1c-20.39,1.68-40.87,3.21-59.88-7.45-14.73-8.26-21.54-21.46-23.83-37.38-4-27.82,5.66-52.18,20.06-75.11,20.9-33.26,48.17-61,76.46-87.88,26.42-25.07,54.56-48.21,81.8-72.36a203.62,203.62,0,0,0,23.23-23.93c11.81-14.58,27.73-22.35,45.51-27,23.81-6.23,48.44-7.56,72.51-12.18,9.69-1.86,19.31-4.06,28-9,16.29-9.29,17.71-25.91,3.19-37.78-10.19-8.32-22.23-13-34.5-17-38.66-12.71-77.77-24.1-115.5-39.57-34.21-14-67.56-29.76-99.16-49-34.48-21-66.42-45.76-99.85-68.3-21.58-14.56-43.93-28-65.74-42.21-25.05-16.33-51.77-19.79-80.59-12.53-30.87,7.78-61.84,15.07-93.73,17.88-34.06,3-66.46-2.21-97.48-16.62A408.69,408.69,0,0,1,613,229c-3.07-2.54-6.76-4.32-10.15-6.47-6.28-4-8.85-2.84-10.17,4.37-1.75,9.55-.75,19.18-.77,28.76-.16,77.69-24.56,148-65.22,213.24-19.36,31-46.6,54.49-76.75,74.5q-51.19,34-103.24,66.65c-31.11,19.42-64.79,28-101.5,19.89-14.26-3.16-27.36-8.82-38.77-18.18-16.27-13.33-20.69-31.88-11.84-51,7-15.18,18.72-26.45,32-35.78,48.58-34,80.45-80.36,101.13-135.09,8.75-23.15,12.58-47.41,13.38-72,.81-24.76,0-49.58.7-74.35,1.08-39.33,6-78.1,19.4-115.4,5.31-14.81,11.76-29,20.82-42C406.11,51.74,449.82,46,482.2,73c12.49,10.39,21.61,23.27,29.24,37.4,16.21,30,36,57.38,60.91,80.83,3.18,3,6.47,7.82,11.3,5.92,4.36-1.7,3.81-7.19,4.43-11.38,10-68.3,21.73-136.29,37.54-203.51C630.25-37.48,635.69-57,646.89-74.3c14-21.55,27.69-21.76,41.42-.29,7.75,12.13,14.65,24.81,21.83,37.3C725.35-10.82,748.59,3.3,778.38,7.9c30.51,4.71,61,3.19,91.54.78,26.73-2.1,53.19-6.4,79.8-9.38,26.83-3,49.47,6.41,69.49,24,16.67,14.66,22.45,13.58,34.38-5.07,12.15-19,21.07-39.76,31.87-59.49,7.78-14.22,15.63-28.39,27.23-40,16.5-16.48,32.48-16.84,49.94-1.07,16.19,14.64,27.88,32.78,38,51.75,18.83,35.34,39.28,69.5,64.91,100.46,21.49,26,30.4,56.61,31.8,89.86.64,15.16,2,30.26,5.76,45a94,94,0,0,0,37.36,54.58c43.36,30.81,91.24,49,145.13,47.41,32.71-.94,55.19-20.73,61.14-51.8,2.92-15.22,1.44-30.18-2.34-45.05-5.08-20-15.1-38-22.73-57-9.33-23.23-19-46.32-21.89-71.55-3.29-28.92,3.06-56.45,13-83.14,8.56-23.08,11.17-46.64,9.49-70.83-1.91-27.49-9.1-53.76-19.92-79.07-1.26-3-3.51-5.67-2.72-9.24,50.09,0,100.18.1,150.26-.15,5.2,0,6.22,1,6.22,6.22Q1655.8,332.39,1655.9,819.6Z" transform="translate(286.98 161.06)"/><path class="b" d="M-44,931.92c-.22-.44-.33-1.06-.69-1.3-21.2-14.39-18.37-31.88-8.33-49.55,12.07-21.24,29.2-38.68,44-57.84C13.11,794.67,33.08,765,41.5,729.1a192.33,192.33,0,0,0,5.35-35.92c1.48-36,22.57-53.11,58.48-49.28,36.2,3.87,67.87,18.45,93.58,42.8,51.82,49,115.51,71.15,183,85.53,51.63,11,104,18.25,155.71,29,25.26,5.23,50.34,11.18,75,18.66,35.21,10.69,70.21,9.79,105.42.5,6.56-1.73,13.08-3.77,20-3.84,14-.13,20.64,4.46,23.8,18.24,7.22,31.53,3,61.69-12.07,90.32-1.16,2.21-3,4.13-3,6.84Z" transform="translate(286.98 161.06)"/><path class="b" d="M-286.86,296c5.9,4.72,11.75,9.49,17.7,14.15,21.87,17.17,45.93,22.13,72.66,13.33,8.61-2.84,17.36-5.35,26.5-6.22,32.19-3.05,55.87,18.37,66.47,44.1,14.26,34.63,4.45,64.33-20,90.33-10.21,10.84-21.08,21.14-32.25,31-27.24,24-44,53.9-53.74,88.81-9.94,35.78-21.58,71.15-37.93,104.67a617.61,617.61,0,0,1-39.36,69.09Z" transform="translate(286.98 161.06)"/><path class="b" d="M54.64-160.88c-22,10.85-44.27,20.95-69.73,19.43-12.85-.76-22.64-8.16-25.89-19.43Z" transform="translate(286.98 161.06)"/><path class="b" d="M-286.86,883.35c15.49,12.7,24.05,29.51,28.84,48.57-8.35,0-16.7-.2-25,.1-3.28.12-3.95-.63-3.9-3.9C-286.73,913.2-286.86,898.27-286.86,883.35Z" transform="translate(286.98 161.06)"/></svg>