<svg xmlns="http://www.w3.org/2000/svg" viewBox="0 0 1943.03 1093.11"><defs><style>.a{fill:#ffffff;}.b{fill:#41c7f6;}</style></defs><title>1800f_00119</title><path class="a" d="M1655.9,780.14c0,48.82-.08,97.64.12,146.46,0,4.53-.91,5.48-5.44,5.45-32.63-.25-65.26-.13-97.89-.13-.16-8.18-4.8-14.24-10-19.71-12.92-13.53-29.44-19.27-47.66-19.75-42.79-1.1-78.93,17.51-113.83,39.46H455.33c13.83-44.88,13-89.7-1.2-134.26-6.26-19.64-15.6-37.31-35.05-47.5-17-8.93-32.57-20.26-48.38-31.16-20.2-13.94-40.72-27.2-64.77-34-24.25-6.87-49.15-.11-54.94,31.83-4.11,22.74-4.77,45.53-3.06,68.6a731.44,731.44,0,0,0,16.43,109.2c2.93,12.8,8.39,24.71,11.88,37.29q-278.35,0-556.71.16c-5.65,0-6.53-1.37-6.52-6.67q.23-388.33.13-776.67c20.5-3.32,41.18-4.43,61.91-5.08,57.82-1.83,115.18-.91,170.75,18.81,42.34,15,85.71,18.5,129.82,7.53,31.91-7.93,61.78-20.94,90.64-36.21C222.2,104.17,279.39,77.44,339,56c23.85-8.6,45.76-21.44,68.91-31.58,17.69-7.75,35.24-7.84,52.86.15,25.9,11.75,48.48,28.24,68.22,48.52,13.2,13.56,29.16,20.65,47.65,22.35A178.93,178.93,0,0,0,613,94.85c25.35-2.88,50.66-6,76-8.69,24.86-2.68,49.82-3.69,74.79-4.84,44-2,87.49-.76,129.22,15.28,34.46,13.23,68.83,26.64,105.31,33.51a93.42,93.42,0,0,1,12.38,3.58c25.58,8.63,35.14,21.44,36.76,48.54,1.33,22.15-1.92,43.89-5.53,65.59-8.83,53.07,1.26,101.54,34.6,144.51,12.29,15.84,26.73,29,45.18,37.24,16.92,7.53,30.22,3,39.06-13.06,3.9-7.08,7.66-14.26,11.07-21.58,15.78-33.93,30.91-68.16,49.45-100.75a498.71,498.71,0,0,0,49.62-121c5.3-20.32,10.13-40.78,20.59-59.27,19.07-33.69,59.06-64.27,109.23-35.23,11.59,6.71,23.49,12.9,35.1,19.58,17.58,10.1,35.67,18.88,55.06,25.16,36.78,11.92,65.76,53.92,67.85,96.83,1.87,38.26-8.15,74.33-21.58,109.34-23.82,62.1-34.9,125.82-30.49,192.35,3.22,48.47,11.43,95.8,27.68,141.64,11.41,32.21,27.41,61.47,55.15,82.75C1609.52,761.63,1631.86,772.59,1655.9,780.14Z" transform="translate(286.99 161.03)"/><path class="b" d="M1655.9,780.14c-24-7.55-46.38-18.51-66.4-33.86-27.74-21.28-43.74-50.54-55.15-82.75-16.25-45.84-24.46-93.17-27.68-141.64-4.41-66.53,6.67-130.25,30.49-192.35,13.43-35,23.45-71.08,21.58-109.34-2.09-42.91-31.07-84.91-67.85-96.83-19.39-6.28-37.48-15.06-55.06-25.16-11.61-6.68-23.51-12.87-35.1-19.58-50.17-29-90.16,1.54-109.23,35.23-10.46,18.49-15.29,39-20.59,59.27a498.71,498.71,0,0,1-49.62,121.05c-18.54,32.59-33.67,66.82-49.45,100.75-3.41,7.32-7.17,14.5-11.07,21.58-8.84,16.06-22.14,20.59-39.06,13.06-18.45-8.21-32.89-21.4-45.18-37.24-33.34-43-43.43-91.44-34.6-144.51,3.61-21.7,6.86-43.44,5.53-65.59-1.62-27.1-11.18-39.91-36.76-48.54a93.42,93.42,0,0,0-12.38-3.58C961.84,123.24,927.47,109.83,893,96.6c-41.73-16-85.25-17.3-129.22-15.28-25,1.15-49.93,2.16-74.79,4.84-25.36,2.73-50.67,5.81-76,8.69a178.93,178.93,0,0,1-36.36.55c-18.49-1.7-34.45-8.79-47.65-22.35-19.74-20.28-42.32-36.77-68.22-48.52-17.62-8-35.17-7.9-52.86-.15C384.74,34.52,362.83,47.36,339,56c-59.59,21.48-116.78,48.21-172.72,77.83C137.4,149.06,107.53,162.07,75.62,170c-44.11,11-87.48,7.5-129.82-7.53-55.57-19.72-112.93-20.64-170.75-18.81-20.73.65-41.41,1.76-61.91,5.08V-82a13.74,13.74,0,0,0,3-.46c37.07-14.52,65.34-39.51,86.56-72.86,1.05-1.66,2.35-3.37,1.54-5.6H44c11.13,5.06,22.26,7.82,33.39,0H1224.85c-1.29,4-4.63,6.51-7.24,9.51-15.64,18-30.64,36.65-40.47,58.39-11.77,26-27.71,49.27-43.82,72.53-9.07,13.1-17.93,26.33-24.72,40.81-5.32,11.37-8.61,23.18-7.87,35.88.81,13.77,7.45,23,18.73,25.33a66.16,66.16,0,0,0,21.08,1c27.31-3.1,53.38-11.07,79.27-19.69,29-9.66,54.16-25,71-51.41A309.37,309.37,0,0,0,1329.74-77c5-18.84,1.33-36.48-8.12-53.25-6.1-10.82-13.63-20.64-20.88-30.66q174.54,0,349.08-.15c5.2,0,6.22,1,6.22,6.22Q1655.8,312.66,1655.9,780.14Z" transform="translate(286.99 161.03)"/><path class="b" d="M276.24,931.92c-3.49-12.58-8.95-24.49-11.88-37.29a731.44,731.44,0,0,1-16.43-109.2c-1.71-23.07-1.05-45.86,3.06-68.6,5.79-31.94,30.69-38.7,54.94-31.83,24.05,6.8,44.57,20.06,64.77,34,15.81,10.9,31.34,22.23,48.38,31.16,19.45,10.19,28.79,27.86,35.05,47.5,14.21,44.56,15,89.38,1.2,134.26Z" transform="translate(286.99 161.03)"/><path class="a" d="M1300.74-160.88c7.25,10,14.78,19.84,20.88,30.66,9.45,16.77,13.09,34.41,8.12,53.25a309.37,309.37,0,0,1-38.89,88.44c-16.88,26.4-42,41.75-71,51.41-25.89,8.62-52,16.59-79.27,19.69a66.16,66.16,0,0,1-21.08-1c-11.28-2.33-17.92-11.56-18.73-25.33-.74-12.7,2.55-24.51,7.87-35.88,6.79-14.48,15.65-27.71,24.72-40.81,16.11-23.26,32-46.5,43.82-72.53,9.83-21.74,24.83-40.41,40.47-58.39,2.61-3,6-5.49,7.24-9.51Z" transform="translate(286.99 161.03)"/><path class="b" d="M1381.18,931.92c34.9-21.95,71-40.56,113.83-39.46,18.22.48,34.74,6.22,47.66,19.75,5.22,5.47,9.86,11.53,10,19.71Z" transform="translate(286.99 161.03)"/><path class="a" d="M-195.79-160.88c.81,2.23-.49,3.94-1.54,5.6-21.22,33.35-49.49,58.34-86.56,72.86a13.74,13.74,0,0,1-3,.46c0-24.79.1-49.58-.1-74.37,0-3.8.86-4.68,4.65-4.65C-253.47-160.8-224.63-160.88-195.79-160.88Z" transform="translate(286.99 161.03)"/><path class="a" d="M77.41-160.88c-11.13,7.82-22.26,5.06-33.39,0Z" transform="translate(286.99 161.03)"/></svg>