<svg xmlns="http://www.w3.org/2000/svg" viewBox="0 0 1943.05 1093.15"><defs><style>.a{fill:#ffffff;}.b{fill:#41c7f6;}</style></defs><title>1800f_00323</title><path class="a" d="M1655.9,106.25V637.47c-1,1.08-2.16,2.1-3.11,3.25-16.19,19.73-31.38,40.26-49.86,58.07-27.16,26.16-58.57,34.28-94.93,24.35-20.14-5.51-39-13.92-57.34-23.72C1424,685.15,1399,668.69,1378,646.5c-22.44-23.82-34.64-53.2-45.12-83.41-11.47-33.09-16.48-67.7-23.07-101.93-3.3-17.12-6.74-34.29-16.38-49.32-5.58-8.71-13.34-13.23-24.07-13.07-10.19.16-19.34,3.44-28.34,7.54-22.45,10.24-42,25.23-62.61,38.49-25.49,16.4-49.9,34.59-77.81,47-16.24,7.22-30.49,4-43.36-7.55-2.63-2.37-5.1-4.91-7.69-7.33-25.27-23.55-50.44-26.6-79.42-9.48a107.45,107.45,0,0,0-21.73,17.6c-14.75,15-16.63,26.88-7,45.74,8.16,16,20.89,28,34.92,38.38,26,19.31,45.84,43.21,58.83,72.93,4.55,10.41,9.88,20.5,15.26,30.53,23,43,49.48,83.49,84.8,117.68,27,26.1,59.22,39.25,96.45,39.62,52.92.52,102.35,17.71,152.5,31.27,14.67,4,16.17,12.8,5.81,24.19-9.09,10-20.25,17.48-31.65,24.6-13.95,8.73-29.07,15.1-44,21.93H31.87c-.68-2.43-1.3-4.88-2.07-7.28C14.26,876-5.22,828.72-21.11,780.17-34.88,738.07-50.74,696.75-73,658.25c-12.41-21.44-25.49-42.49-37.4-64.24-24.6-45-37-93.85-47.36-143.48-6.85-32.8-16.55-64.71-33.45-93.93-12.9-22.3-28.38-41.93-54.8-49.44a49.76,49.76,0,0,1-14.88-7.42c-8.35-5.85-9.28-10.77-2.91-18.89,17.2-21.91,37.63-40.91,55.85-61.91q36.53-42.09,74-83.32c10.16-11.13,19.81-23,33.18-30.85,7.21-4.21,10.55-3.77,15,3.26,2.79,4.42,6.52,7.25,11.49,7.7A71.74,71.74,0,0,0-26.8,103.6C-14.33,95.26-5.95,83.13,2.34,71.11c7.82-11.33,18.69-15.53,31.74-16,19.32-.68,38.41,1.61,57.32,5.06,44.82,8.18,89.73,11.08,135,4.33C287.87,55.33,347.35,38.55,406,18.39,458,.52,500.41-29.33,530.07-76.32c16.73-26.51,33.1-53.27,51.81-78.47,1.31-1.75,3.06-3.5,2.46-6.09H702.73c-11.88,15.77-23.46,31.69-28.89,51.14-4.25,15.22,1.26,25.32,16.53,29.18,12.82,3.25,25.64,1.75,38.31-.9,24.08-5,46.11-15.39,66.6-28.51,33.33-21.36,69-31.26,108.73-28,47.62,3.85,95.42,4.73,143.18,6.11,48.12,1.38,95.76,6.33,142.53,18.26,48.5,12.37,98,20.26,146.66,31.76a199.51,199.51,0,0,1,94.53,52c16.16,15.65,21.86,33.48,16,55.69-5.28,20-10.77,40.08-8.89,61.23,1.29,14.53,9,25.72,20.73,28.76a57.27,57.27,0,0,0,24.06,1.07c32.86-5.55,63.16-16.86,90-37.32,19.36-14.73,30.43-14.17,49.17-.54,2.64,1.93,5.07,4.17,7.77,6C1639.06,91.35,1646.08,100.51,1655.9,106.25Z" transform="translate(287 161.09)"/><path class="b" d="M584.34-160.88c.6,2.59-1.15,4.34-2.46,6.09-18.71,25.2-35.08,52-51.81,78.47C500.41-29.33,458,.52,406,18.39,347.35,38.55,287.87,55.33,226.41,64.5c-45.28,6.75-90.19,3.85-135-4.33-18.91-3.45-38-5.74-57.32-5.06-13,.47-23.92,4.67-31.74,16-8.29,12-16.67,24.15-29.14,32.49a71.74,71.74,0,0,1-47.49,12.13c-5-.45-8.7-3.28-11.49-7.7-4.44-7-7.78-7.47-15-3.26-13.37,7.81-23,19.72-33.18,30.85q-37.56,41.16-74,83.32c-18.22,21-38.65,40-55.85,61.91-6.37,8.12-5.44,13,2.91,18.89A49.76,49.76,0,0,0-246,307.16c26.42,7.51,41.9,27.14,54.8,49.44,16.9,29.22,26.6,61.13,33.45,93.93C-147.42,500.16-135,549.06-110.43,594c11.91,21.75,25,42.8,37.4,64.24,22.29,38.5,38.15,79.82,51.92,121.92C-5.22,828.72,14.26,876,29.8,924.64c.77,2.4,1.39,4.85,2.07,7.28q-156.33,0-312.66.14c-5.2,0-6.22-1-6.21-6.21q.22-540.33,0-1080.66c0-5.2,1-6.22,6.21-6.22Q151.78-160.78,584.34-160.88ZM-88.54,30.18c-.17,10.11.26,20.19,3.27,29.92s7.36,11.42,16.46,7c13.69-6.62,25.88-15.67,38.2-24.4,6.78-4.8,12.12-10.88,12-20.64C-19,4-29-10-48.87-18.19c-16.13-6.64-29.26-.89-35,15.57C-87.53,8-88.75,19-88.54,30.18Z" transform="translate(287 161.09)"/><path class="b" d="M1314.4,931.92c14.9-6.83,30-13.2,44-21.93,11.4-7.12,22.56-14.6,31.65-24.6,10.36-11.39,8.86-20.22-5.81-24.19-50.15-13.56-99.58-30.75-152.5-31.27-37.23-.37-69.49-13.52-96.45-39.62-35.32-34.19-61.76-74.71-84.8-117.68-5.38-10-10.71-20.12-15.26-30.53-13-29.72-32.87-53.62-58.83-72.93-14-10.43-26.76-22.42-34.92-38.38-9.65-18.86-7.77-30.77,7-45.74a107.45,107.45,0,0,1,21.73-17.6c29-17.12,54.15-14.07,79.42,9.48,2.59,2.42,5.06,5,7.69,7.33,12.87,11.54,27.12,14.77,43.36,7.55,27.91-12.42,52.32-30.61,77.81-47,20.61-13.26,40.16-28.25,62.61-38.49,9-4.1,18.15-7.38,28.34-7.54,10.73-.16,18.49,4.36,24.07,13.07,9.64,15,13.08,32.2,16.38,49.32,6.59,34.23,11.6,68.84,23.07,101.93,10.48,30.21,22.68,59.59,45.12,83.41,20.92,22.19,46,38.65,72.63,52.92,18.29,9.8,37.2,18.21,57.34,23.72,36.36,9.93,67.77,1.81,94.93-24.35,18.48-17.81,33.67-38.34,49.86-58.07,1-1.15,2.07-2.17,3.11-3.25q0,144.18.14,288.38c0,5.19-1,6.22-6.22,6.21Q1482.11,931.78,1314.4,931.92Z" transform="translate(287 161.09)"/><path class="b" d="M1655.9,106.25c-9.82-5.74-16.84-14.9-26.14-21.28-2.7-1.84-5.13-4.08-7.77-6-18.74-13.63-29.81-14.19-49.17.54-26.87,20.46-57.17,31.77-90,37.32a57.27,57.27,0,0,1-24.06-1.07c-11.78-3-19.44-14.23-20.73-28.76-1.88-21.15,3.61-41.27,8.89-61.23,5.88-22.21.18-40-16-55.69a199.51,199.51,0,0,0-94.53-51.95c-48.68-11.5-98.16-19.39-146.66-31.76-46.77-11.93-94.41-16.88-142.53-18.26-47.76-1.38-95.56-2.26-143.18-6.11-39.71-3.22-75.4,6.68-108.73,28-20.49,13.12-42.52,23.48-66.6,28.51-12.67,2.65-25.49,4.15-38.31.9-15.27-3.86-20.78-14-16.53-29.18,5.43-19.45,17-35.37,28.89-51.14q472.88,0,945.75-.21c6.86,0,7.57,2,7.55,8Q1655.73-23.44,1655.9,106.25Z" transform="translate(287 161.09)"/><path class="a" d="M-88.54,30.18c-.21-11.19,1-22.2,4.69-32.8,5.72-16.46,18.85-22.21,35-15.57C-29-10-19,4-18.66,22.07c.17,9.76-5.17,15.84-11.95,20.64-12.32,8.73-24.51,17.78-38.2,24.4-9.1,4.41-13.48,2.61-16.46-7S-88.71,40.29-88.54,30.18Z" transform="translate(287 161.09)"/></svg>