<svg xmlns="http://www.w3.org/2000/svg" viewBox="0 0 1943.06 1093.09"><defs><style>.a{fill:#ffffff;}.b{fill:#41c7f6;}</style></defs><title>1800f_00222</title><path class="a" d="M1655.9,332.4q0,296.34.14,592.69c0,5.69-1.28,7-7,7q-375.27-.24-750.55-.14a177.34,177.34,0,0,0,8.66-86.62c-2-14-5.42-27.86-13.7-39.82-12-17.29-29.53-19.54-45.53-5.91a65.92,65.92,0,0,0-16.89,21.24c-17.72,36.25-18.87,73.33-5.39,111.11H-88c16.63-45.82,31.24-92.58,62.44-131.51,4.41-5.5,7.92-11.74,11.63-17.77C6.93,748.72,26,713.83,34.12,674.38c5.26-25.45,8.33-51.35,13.05-76.93,3.53-19.16,8.18-38.13,19-54.8,10.72-16.48,22-20.53,40.85-14.92C125,533.05,140.88,542.4,156,553c48,33.65,78.5,79.09,93,135.87a353.38,353.38,0,0,0,46.71,105.71c15.12,23.22,31.88,45,55.93,59.93,10.86,6.73,22.62,11.7,35,5.21S400.52,840.7,401,828.31c1.05-30.86-8.32-59.64-20.25-87.24-20.13-46.57-33.66-94.6-39.42-145-2.66-23.25-8.29-45.91-22.3-65.35-23.16-32.13-56.27-49.33-93.17-60.08-36.05-10.5-72.12-6.41-107.94,1.88-23.53,5.44-47.05,9.2-71.28,5.13-30.5-5.12-61.16-7.55-92.1-4.43q-27.15,2.73-54.38,4.62c-39.23,2.67-77.55-4.52-115.91-11.2-23.63-4.11-47.14-9-71.06-11.3q0-304.69-.14-609.39c0-5.69,1.28-7,7-7q171.88.3,343.78.15c-1,18.28,1.42,36.33,3.79,54.37,3.63,27.56,7.79,55.06,6.89,83C73.7-.51,68,20.83,55.29,40.27c-14.08,21.62-31.62,40.21-51,56.85C-54.52,147.58-109.49,202-162.92,258c-13.48,14.13-25.65,29.32-33.15,47.69-8.47,20.77-4.57,35.75,12.94,49.63,10.6,8.4,22.57,14.4,35,19.59C-95.42,397-40.1,404.72,16.58,402.29s113.5-7,170-13.68c50.08-5.91,98-19.71,143.06-42.81,38.79-19.87,73-45.2,98.48-81.2,17.27-24.39,32.26-50.16,46.88-76.18C513.56,119.75,563.29,59.75,619,4.5c11.69-11.59,24.94-21.43,40.15-28.24,20.7-9.27,38.68-6,55,9.71C724.92-3.64,732.3,8.88,737.79,22.65c7.36,18.48,11.13,37.89,13.27,57.48,4.68,42.9,26.45,74.46,62.13,97.4a265,265,0,0,0,58.07,27.62c38,13,77.47,19,116.86,25.6,18.44,3.08,36.92,6.11,54.71,12.11,21.37,7.21,24.38,17.56,10.5,35.44-7.83,10.08-17.51,18.21-27.83,25.57-28.07,20-58,37-88.58,52.7-17.76,9.14-35.47,18.38-51.25,30.86-25.55,20.19-35.53,46-30.18,78.35,6.28,37.92,26.39,67.31,55,91.48,17.86,15.07,38.69,22.74,62.35,21,24.09-1.78,47.49-6.66,69.4-17.28,12.54-6.07,20-16.1,21.42-30a79.92,79.92,0,0,0-.6-22.69c-5.73-30.43-.06-58.25,18.7-83.17,7.76-10.3,15.12-20.9,23.11-31,41.27-52.31,71.54-110.63,94.39-172.95,3.25-8.85,9.29-13.78,18-15.44a277.93,277.93,0,0,1,46.51-4.92c18.89-.37,20.07-1,24,20.47.09.49,0,1,.12,1.51,5.14,39.84,11.07,79.54,18.62,119,8.2,42.93,14.77,86.2,30.84,127.22,12.91,32.95,26,65.84,38.28,99,8,21.64,16.31,43,29.27,62.29,12.26,18.2,26.25,34.77,46,45.26,17.72,9.38,35,8.52,51.36-3.46a197.44,197.44,0,0,0,16.41-13.45c29.52-27,61.89-49.5,99-65.08,25.17-10.58,33.71-27.55,30-54.49-2.83-20.58-8.25-40.59-12.23-60.91-6-30.63-10.65-61.41-3.66-92.48C1636.22,366.36,1643.31,348.08,1655.9,332.4Z" transform="translate(287.02 161.03)"/><path class="b" d="M1655.9,332.4c-12.59,15.68-19.68,34-24,53.26-7,31.07-2.36,61.85,3.66,92.48,4,20.32,9.4,40.33,12.23,60.91,3.69,26.94-4.85,43.91-30,54.49-37.1,15.58-69.47,38.08-99,65.08a197.44,197.44,0,0,1-16.41,13.45c-16.32,12-33.64,12.84-51.36,3.46-19.8-10.49-33.79-27.06-46-45.26-13-19.24-21.26-40.65-29.27-62.29-12.29-33.17-25.37-66.06-38.28-99-16.07-41-22.64-84.29-30.84-127.22-7.55-39.48-13.48-79.18-18.62-119-.07-.5,0-1-.12-1.51-4-21.48-5.13-20.84-24-20.47a277.93,277.93,0,0,0-46.51,4.92c-8.69,1.66-14.73,6.59-18,15.44-22.85,62.32-53.12,120.64-94.39,173-8,10.12-15.35,20.72-23.11,31-18.76,24.92-24.43,52.74-18.7,83.17a79.92,79.92,0,0,1,.6,22.69c-1.39,13.93-8.88,24-21.42,30-21.91,10.62-45.31,15.5-69.4,17.28-23.66,1.75-44.49-5.92-62.35-21-28.64-24.17-48.75-53.56-55-91.48-5.35-32.32,4.63-58.16,30.18-78.35,15.78-12.48,33.49-21.72,51.25-30.86,30.62-15.74,60.51-32.68,88.58-52.7,10.32-7.36,20-15.49,27.83-25.57,13.88-17.88,10.87-28.23-10.5-35.44-17.79-6-36.27-9-54.71-12.11-39.39-6.57-78.88-12.63-116.86-25.6a265,265,0,0,1-58.07-27.62c-35.68-22.94-57.45-54.5-62.13-97.4-2.14-19.59-5.91-39-13.27-57.48C732.3,8.88,724.92-3.64,714.13-14c-16.31-15.71-34.29-19-55-9.71C643.93-16.93,630.68-7.09,619,4.5c-55.7,55.25-105.43,115.25-144,183.92-14.62,26-29.61,51.79-46.88,76.18-25.49,36-59.69,61.33-98.48,81.2-45.06,23.1-93,36.9-143.06,42.81q-84.7,10-170,13.68c-56.68,2.43-112-5.31-164.75-27.39-12.39-5.19-24.36-11.19-35-19.59-17.51-13.88-21.41-28.86-12.94-49.63,7.5-18.37,19.67-33.56,33.15-47.69,53.43-56,108.4-110.41,167.2-160.87,19.39-16.64,36.93-35.23,51-56.85C68,20.83,73.7-.51,74.43-23.5c.9-27.95-3.26-55.45-6.89-83-2.37-18-4.83-36.09-3.79-54.37h167c21.55,42.35,45,83.7,65.85,126.45A200.81,200.81,0,0,0,322.19,4.89c7.73,9.41,16.05,18.33,27.16,23.85,9.78,4.86,19.55,5.17,28.46-2.07a50.47,50.47,0,0,0,11.47-13c11.4-18.89,16.22-40.06,22.34-60.95,10.61-36.18-.11-65.4-25.76-91-7.13-7.1-14.33-14.23-20.08-22.59h642c3.43,6,9.24,9.81,14.07,14.48,33.62,32.44,72.22,57,116.82,71.31a653.82,653.82,0,0,0,143.92,28.87c27.35,2.35,55.28,3.8,82.16-4.19,27.54-8.19,47.58-24.6,52-54.91,2.28-15.6-1.51-30.63-6.16-45.45-1-3.27-3.45-6.32-2.13-10.11q120.66,0,241.32-.15c5.2,0,6.23,1,6.22,6.22Q1655.77,88.79,1655.9,332.4ZM1451.71,47.79c-26.55-.16-46.71,6.94-64.55,20.58-21.93,16.76-42.62,34.94-61.31,55.27-10.25,11.16-20.27,22.69-25.41,37.32-1.54,4.37-3.78,10,0,13.58,3.31,3.07,8.67,1.38,13,.06,14.26-4.31,28.59-8.42,42.74-13.08,42.72-14.08,84.37-31.24,127.37-44.52,18.57-5.74,37.67-9.88,55.46-18,5.24-2.39,11.44-4.79,11.65-11.57.21-6.35-5.46-9.4-10.21-12.09C1511.74,59.05,1480.79,49.75,1451.71,47.79Z" transform="translate(287.02 161.03)"/><path class="b" d="M-286.86,455.34c23.92,2.27,47.43,7.19,71.06,11.3,38.36,6.68,76.68,13.87,115.91,11.2q27.23-1.84,54.38-4.62c30.94-3.12,61.6-.69,92.1,4.43,24.23,4.07,47.75.31,71.28-5.13,35.82-8.29,71.89-12.38,107.94-1.88,36.9,10.75,70,27.95,93.17,60.08,14,19.44,19.64,42.1,22.3,65.35,5.76,50.4,19.29,98.43,39.42,145,11.93,27.6,21.3,56.38,20.25,87.24-.43,12.39-1.9,25-14.25,31.45s-24.15,1.52-35-5.21c-24.05-14.9-40.81-36.71-55.93-59.93a353.38,353.38,0,0,1-46.71-105.71C234.54,632.13,204,586.69,156,553c-15.16-10.64-31.06-20-49-25.31-18.9-5.61-30.13-1.56-40.85,14.92-10.86,16.67-15.51,35.64-19,54.8-4.72,25.58-7.79,51.48-13.05,76.93C26,713.83,6.93,748.72-14,782.64c-3.71,6-7.22,12.27-11.63,17.77C-56.79,839.34-71.4,886.1-88,931.92q-96.76,0-193.52.12c-4.53,0-5.69-.88-5.44-5.44.46-8.32.13-16.69.13-25,2.55-2,3.06-5.15,4.17-7.91,5.83-14.55,11.7-29.08,18.87-43,14.33-28,35.54-46.89,67.47-52,3.74-.6,7.45-1.36,11.17-2.07,14.76-2.83,29.05-7,41.25-16.2,19.35-14.66,24.14-34.93,22.7-58-1.42-22.79-11.37-35.55-33.59-40.69-14.07-3.25-28.56-3.1-42.85-4.6-22.24-2.35-44.26-5.5-63.31-18.4-9-6.07-17.27-13.12-25.88-19.72Z" transform="translate(287.02 161.03)"/><path class="a" d="M1408.5-160.88c-1.32,3.79,1.1,6.84,2.13,10.11,4.65,14.82,8.44,29.85,6.16,45.45-4.44,30.31-24.48,46.72-52,54.91-26.88,8-54.81,6.54-82.16,4.19a653.82,653.82,0,0,1-143.92-28.87c-44.6-14.33-83.2-38.87-116.82-71.31-4.83-4.67-10.64-8.44-14.07-14.48Z" transform="translate(287.02 161.03)"/><path class="a" d="M-286.86,639c8.61,6.6,16.92,13.65,25.88,19.72,19.05,12.9,41.07,16,63.31,18.4,14.29,1.5,28.78,1.35,42.85,4.6,22.22,5.14,32.17,17.9,33.59,40.69,1.44,23-3.35,43.31-22.7,58-12.2,9.25-26.49,13.37-41.25,16.2-3.72.71-7.43,1.47-11.17,2.07-31.93,5.07-53.14,24-67.47,52-7.17,14-13,28.5-18.87,43-1.11,2.76-1.62,5.89-4.17,7.91Z" transform="translate(287.02 161.03)"/><path class="a" d="M365.78-160.88c5.75,8.36,13,15.49,20.08,22.59,25.65,25.57,36.37,54.79,25.76,91-6.12,20.89-10.94,42.06-22.34,61a50.47,50.47,0,0,1-11.47,13c-8.91,7.24-18.68,6.93-28.46,2.07-11.11-5.52-19.43-14.44-27.16-23.85a200.81,200.81,0,0,1-25.64-39.32c-20.81-42.75-44.3-84.1-65.85-126.45Z" transform="translate(287.02 161.03)"/><path class="b" d="M825.67,931.92c-13.48-37.78-12.33-74.86,5.39-111.11A65.92,65.92,0,0,1,848,799.57c16-13.63,33.56-11.38,45.53,5.91,8.28,12,11.69,25.77,13.7,39.82a177.34,177.34,0,0,1-8.66,86.62Z" transform="translate(287.02 161.03)"/><path class="a" d="M1451.71,47.79c29.08,2,60,11.26,88.84,27.56,4.75,2.69,10.42,5.74,10.21,12.09-.21,6.78-6.41,9.18-11.65,11.57-17.79,8.11-36.89,12.25-55.46,18-43,13.28-84.65,30.44-127.37,44.52-14.15,4.66-28.48,8.77-42.74,13.08-4.38,1.32-9.74,3-13-.06-3.83-3.53-1.59-9.21,0-13.58,5.14-14.63,15.16-26.16,25.41-37.32,18.69-20.33,39.38-38.51,61.31-55.27C1405,54.73,1425.16,47.63,1451.71,47.79Z" transform="translate(287.02 161.03)"/></svg>