<svg xmlns="http://www.w3.org/2000/svg" viewBox="0 0 1943.05 1093.07"><defs><style>.a{fill:#ffffff;}.b{fill:#41c7f6;}</style></defs><title>1800f_00370</title><path class="a" d="M780.14,931.92H186.69a104.48,104.48,0,0,0,6.11-36.43c-1.21-51.17-10.17-101-28.3-148.87C153,716.25,136,689,111.72,667.07c-36.06-32.61-68.6-68.58-101.4-104.33C-15.22,534.89-42.43,509-74.86,489.12c-18.69-11.43-38.37-21-60.52-22.59-31.09-2.2-54.15,13.24-72.62,36.52-16.17,20.38-22.75,44.18-22.61,69.95.15,28.53,3.81,56.94,3,85.51-.35,11.72-2.33,23.21-7.09,33.88-13,29.08-33.25,53.41-52.11,78.64V-12.14c2.59.12,4-1.91,5.81-3.21C-258.1-32.09-234-46.75-207.7-57.81c20-8.43,39.58-18,58.72-28.33a215.59,215.59,0,0,1,70-23.75c32.24-5,64.76-7.14,97.16-10.55,49.61-5.23,99.19-8.24,149-2.46,45.83,5.32,89.38,16.55,126.93,45.22,17.16,13.1,33.85,26.5,45.77,44.88,14,21.6,18.1,45.76,18.53,70.91.25,14.68.85,29.33,5.88,43.37,5.88,16.43,18.13,25.66,32.6,24.28a108.51,108.51,0,0,0,23-4.58c18.82-6.05,36.81-14.07,54.64-22.53C510,61.85,543.41,41.26,578.46,23.72,599.8,13.05,621.79,4,645.87,1.9c31.81-2.72,58.81,9.37,83.38,28.34,13.18,10.18,25.39,21.65,39.66,30.39,8.43,5.17,17.13,10.05,27.3,10.46,10.35.42,14-5,9.86-14.38a145.06,145.06,0,0,0-8.57-16C779.26,10.38,780-6.1,801-34.3c12.61-16.87,27.58-31.6,42.55-46.32,12.43-12.22,25.26-24.1,35.16-38.63,9.21-13.52,19.82-26.15,25.87-41.63h569.16c8.24,45.32,13.66,90.95,14.67,137.05a414,414,0,0,1-21.59,140.93c-13.48,40.52-29.75,80.09-41.16,121.33-10.93,39.51-17.57,79.94-26.46,119.89-4.84,21.74-9.5,43.91-23.42,62-18.91,24.52-45.28,38.26-74.4,47-16,4.81-31.88,3.91-47.63-1.9-11.88-4.39-23.21-10-34.89-14.84-48-19.79-88.5-48.94-119.76-91.09-29-39.05-41.79-81.23-32.32-129.63,4.86-24.87,12.38-49,19-73.34,5.08-18.56,9.86-37.17,8.49-56.7-2-28-21.23-40.54-47.4-30.75a89.23,89.23,0,0,0-25.31,15.08c-37.89,31.16-68.44,68.71-94.34,110.12-24.48,39.13-34,81.45-27.74,127.62a377,377,0,0,0,42.35,129c23.87,44.31,47.39,88.73,67.72,134.81,9.13,20.71,22.24,38.53,43.33,49.06,13.48,6.72,27.82,10.54,42.48,13.54,13.09,2.68,26.61,3.74,39,9.22,10.56,4.69,12.58,11.43,6.73,21.32-4.32,7.3-10.46,13-17,18.21-18.17,14.61-38.74,25.74-57.44,39.6a712.94,712.94,0,0,1-114,69.11,564.43,564.43,0,0,0-65.64,37.91C848.31,869.28,816.3,903.1,780.14,931.92ZM711.07,767.8A54.78,54.78,0,0,0,718,767c37.81-8.19,68-28.76,93-57.63a64.28,64.28,0,0,0,14.76-28.7c2.14-10-.43-18.57-7.73-25.57-11.61-11.14-26-12.13-40.47-9-28.43,6.13-49.76,23.87-68.64,44.84-11.59,12.87-21.32,27-25.16,44.35C679.29,755.37,689,767.89,711.07,767.8ZM315.87,208c.07,26.95,22.94,55.51,49,61.2,19.61,4.28,33.91-6.21,31.84-23.71-2.77-23.4-12.54-43.52-30-59.48-9.73-8.89-21.29-13.33-34.09-7.7C320.12,183.85,315.89,195,315.87,208Z" transform="translate(287.01 161.03)"/><path class="b" d="M780.14,931.92c36.16-28.82,68.17-62.64,107-88.3a564.43,564.43,0,0,1,65.64-37.91,712.94,712.94,0,0,0,114-69.11c18.7-13.86,39.27-25,57.44-39.6,6.53-5.25,12.67-10.91,17-18.21,5.85-9.89,3.83-16.63-6.73-21.32-12.4-5.48-25.92-6.54-39-9.22-14.66-3-29-6.82-42.48-13.54-21.09-10.53-34.2-28.35-43.33-49.06-20.33-46.08-43.85-90.5-67.72-134.81a377,377,0,0,1-42.35-129c-6.27-46.17,3.26-88.49,27.74-127.62,25.9-41.41,56.45-79,94.34-110.12a89.23,89.23,0,0,1,25.31-15.08c26.17-9.79,45.44,2.72,47.4,30.75,1.37,19.53-3.41,38.14-8.49,56.7-6.65,24.36-14.17,48.47-19,73.34-9.47,48.4,3.36,90.58,32.32,129.63,31.26,42.15,71.78,71.3,119.76,91.09,11.68,4.82,23,10.45,34.89,14.84,15.75,5.81,31.65,6.71,47.63,1.9,29.12-8.77,55.49-22.51,74.4-47,13.92-18,18.58-40.22,23.42-62,8.89-39.95,15.53-80.38,26.46-119.89,11.41-41.24,27.68-80.81,41.16-121.33a414,414,0,0,0,21.59-140.93c-1-46.1-6.43-91.73-14.67-137,58.69,0,117.38.08,176.06-.15,5.2,0,6.23,1,6.22,6.22q-.27,192.75-.14,385.51c-13,4.05-24.59,10.18-34.34,19.9-35.35,35.25-47.08,92.75-28,138.93,11.35,27.5,28.94,51.39,44.74,76.29,5.37,8.45,10.31,17.31,17.6,24.42V790.76c-13.2,9.5-27.11,7.44-41.05,2.28-16.68-6.16-32-15-47-24.44-36.69-23.15-74.31-44.15-117.16-54a355.19,355.19,0,0,0-41-7.37c-40.8-4.49-70,13.86-92.48,46.06-15.82,22.63-17.92,46.11-3.21,69.57,26.12,41.69,58.88,76.47,105.49,95.72,11.4,4.71,23,8.91,34.51,13.34Z" transform="translate(287.01 161.03)"/><path class="b" d="M904.6-160.88c-6.05,15.48-16.66,28.11-25.87,41.63-9.9,14.53-22.73,26.41-35.16,38.63C828.6-65.9,813.63-51.17,801-34.3c-21.07,28.2-21.76,44.68-3.52,75a145.06,145.06,0,0,1,8.57,16c4.14,9.41.49,14.8-9.86,14.38-10.17-.41-18.87-5.29-27.3-10.46-14.27-8.74-26.48-20.21-39.66-30.39-24.57-19-51.57-31.06-83.38-28.34C621.79,4,599.8,13.05,578.46,23.72,543.41,41.26,510,61.85,474.53,78.65c-17.83,8.46-35.82,16.48-54.64,22.53a108.51,108.51,0,0,1-23,4.58c-14.47,1.38-26.72-7.85-32.6-24.28-5-14-5.63-28.69-5.88-43.37C358,13,353.88-11.2,339.88-32.8,328-51.18,311.27-64.58,294.11-77.68c-37.55-28.67-81.1-39.9-126.93-45.22-49.8-5.78-99.38-2.77-149,2.46C-14.21-117-46.73-114.87-79-109.89a215.59,215.59,0,0,0-70,23.75c-19.14,10.35-38.67,19.9-58.72,28.33C-234-46.75-258.1-32.09-281-15.35c-1.78,1.3-3.22,3.33-5.81,3.21,0-47.3.11-94.61-.15-141.91,0-5.7,1.29-7,7-7Q312.29-160.8,904.6-160.88Z" transform="translate(287.01 161.03)"/><path class="b" d="M-286.86,771c18.86-25.23,39.15-49.56,52.11-78.64,4.76-10.67,6.74-22.16,7.09-33.88.86-28.57-2.8-57-3-85.51-.14-25.77,6.44-49.57,22.61-69.95,18.47-23.28,41.53-38.72,72.62-36.52,22.15,1.57,41.83,11.16,60.52,22.59,32.43,19.85,59.64,45.77,85.18,73.62,32.8,35.75,65.34,71.72,101.4,104.33C136,689,153,716.25,164.5,746.62c18.13,47.88,27.09,97.7,28.3,148.87a104.48,104.48,0,0,1-6.11,36.43H103.21q-45-51.25-90.08-102.51C-3,811-18.24,791.76-36.32,775.08c-19.41-17.9-40.32-17.65-58.78.84-12.18,12.19-15.18,28.3-18.38,44-7.69,37.87-14.75,75.87-29.19,112-46.43,0-92.86-.08-139.29.12-4.24,0-5-.91-5-5.06C-286.8,875-286.86,823-286.86,771Z" transform="translate(287.01 161.03)"/><path class="a" d="M1454,931.92c-11.51-4.43-23.11-8.63-34.51-13.34-46.61-19.25-79.37-54-105.49-95.72-14.71-23.46-12.61-46.94,3.21-69.57,22.53-32.2,51.68-50.55,92.48-46.06a355.19,355.19,0,0,1,41,7.37c42.85,9.85,80.47,30.85,117.16,54,15,9.45,30.34,18.28,47,24.44,13.94,5.16,27.85,7.22,41.05-2.28V921.29l-27.32,10.63Z" transform="translate(287.01 161.03)"/><path class="a" d="M-142.67,931.92c14.44-36.09,21.5-74.09,29.19-112,3.2-15.74,6.2-31.85,18.38-44,18.46-18.49,39.37-18.74,58.78-.84C-18.24,791.76-3,811,13.13,829.41q45,51.33,90.08,102.51Z" transform="translate(287.01 161.03)"/><path class="a" d="M1655.9,490.24c-7.29-7.11-12.23-16-17.6-24.42-15.8-24.9-33.39-48.79-44.74-76.29-19.08-46.18-7.35-103.68,28-138.93,9.75-9.72,21.39-15.85,34.34-19.9Z" transform="translate(287.01 161.03)"/><path class="b" d="M1628.58,931.92l27.32-10.63c0,10.63,0,10.63-10.63,10.63Z" transform="translate(287.01 161.03)"/><path class="b" d="M711.07,767.8c-22.05.09-31.78-12.43-27.33-32.58,3.84-17.35,13.57-31.48,25.16-44.35,18.88-21,40.21-38.71,68.64-44.84,14.48-3.11,28.86-2.12,40.47,9,7.3,7,9.87,15.58,7.73,25.57A64.28,64.28,0,0,1,811,709.32c-25,28.87-55.17,49.44-93,57.63A54.78,54.78,0,0,1,711.07,767.8Z" transform="translate(287.01 161.03)"/><path class="b" d="M315.87,208c0-13,4.25-24.18,16.77-29.69,12.8-5.63,24.36-1.19,34.09,7.7,17.46,16,27.23,36.08,30,59.48,2.07,17.5-12.23,28-31.84,23.71C338.81,263.54,315.94,235,315.87,208Z" transform="translate(287.01 161.03)"/></svg>