<svg xmlns="http://www.w3.org/2000/svg" viewBox="0 0 1943.06 1093.09"><defs><style>.a{fill:#ffffff;}.b{fill:#41c7f6;}</style></defs><title>1800f_00261</title><path class="a" d="M1191.46,931.92H230.7c-1.11-1.35-2.12-2.8-3.34-4-32-32.41-69.85-49.48-116.19-47.85-43,1.51-86,1-129-.43a771.92,771.92,0,0,0-89.46,1.95c-12.55,1-25.17,3.18-37.77.68-11.4-2.26-15.22-8.68-12.05-19.86,1.87-6.63,5.19-12.61,8.89-18.38,9.17-14.34,20.47-27,31.8-39.57,9.47-10.53,19-21,25.88-33.58,10.05-18.27,7.26-35.9-7.84-50.3a60.87,60.87,0,0,0-17.76-11.47c-14.27-6.28-25.65-16.12-34.84-28.5-20.5-27.62-32.1-58.93-37-92.72-4-27.28-1.45-53.62,15.35-76.77,9.54-13.15,21.82-23.87,33.2-35.35,23.42-23.62,44.6-48.94,60.83-78.17,14.4-25.93,26-53.12,36.81-80.67,14.71-37.52,28.1-75.48,29.51-116.29.81-23.49.26-47,.32-70.56A67.63,67.63,0,0,1,3.83,86c9.1-11.07,20.22-19.79,31.9-27.85C60.92,40.78,86.34,23.74,111.41,6.2,142.34-15.44,172.54-38,195.2-68.9c25.17-34.33,51-68,87.11-92h871.2c-.4,1.4.38,2.39,1.19,3.38,35.7,43.23,75.87,81.32,125.62,108.15,26.42,14.25,54.11,25,84.5,27.23,19.66,1.46,38.62-3.37,57.81-6,7.2-1,13.41.17,19.36,4.13,6.8,4.54,12.12,10.69,17.77,16.44,24.53,25,54.16,37.19,89.16,36.24,23-.62,45.68-4.48,68.46-7,20.21-2.28,24.56-8.18,28.19-28.44,2.13-11.93-.82-23.59-2.07-35.32-3.46-32.33-15.48-60.73-40.43-82.31-33.35-28.85-68.5-37.65-107.07-11.73-8,5.35-16,10.58-23.82,16.14-14.83,10.56-29.24,10.16-44.17-.17-14.46-10-27-21.95-38.73-34.92-1.48-1.64-2.38-3.82-3.55-5.74q132,0,264.09-.15c5.2,0,6.22,1,6.22,6.22q-.24,413.6-.14,827.19c-4.12,3.29-8.31,6.49-12.33,9.9-12.34,10.46-24.61,21-38.44,29.56-17.29,10.67-35.89,17.33-56.26,12.86-27.81-6.09-41.47-26.17-47.56-52.36-2.35-10.07-2.91-20.59-5.66-30.52-11.1-40-28.56-77.75-40.63-117.42-3-9.92-9.44-18.34-17.22-25.54-15.12-14-33.34-12.65-46,3.61-10.74,13.77-16,29.74-18.21,46.77-2.72,21.5-3.28,43.27-12.52,63.62-20.38,44.93-44.43,87.35-79,123.19-30.3,31.38-50.42,68.62-62.1,110.6C1211.88,875.54,1206.77,905.44,1191.46,931.92Zm-62.69-209.6c17.84-.1,31.67-4.29,42.71-15.9,12.5-13.14,11.25-32.22-3-43.16-19.09-14.62-56-15.84-76.27-2.52-15.36,10.07-18.83,26.34-7.87,41.13C1095.82,717.43,1112.72,721.82,1128.77,722.32Z" transform="translate(287.01 161.03)"/><path class="b" d="M282.31-160.88c-36.14,23.94-61.94,57.65-87.11,92C172.54-38,142.34-15.44,111.41,6.2c-25.07,17.54-50.49,34.58-75.68,52C24.05,66.21,12.93,74.93,3.83,86A67.63,67.63,0,0,0-12,130c-.06,23.52.49,47.07-.32,70.56-1.41,40.81-14.8,78.77-29.51,116.29-10.8,27.55-22.41,54.74-36.81,80.67-16.23,29.23-37.41,54.55-60.83,78.17-11.38,11.48-23.66,22.2-33.2,35.35-16.8,23.15-19.34,49.49-15.35,76.77,4.94,33.79,16.54,65.1,37,92.72,9.19,12.38,20.57,22.22,34.84,28.5a60.87,60.87,0,0,1,17.76,11.47c15.1,14.4,17.89,32,7.84,50.3-6.89,12.53-16.41,23-25.88,33.58C-127.72,817-139,829.65-148.19,844c-3.7,5.77-7,11.75-8.89,18.38-3.17,11.18.65,17.6,12.05,19.86,12.6,2.5,25.22.35,37.77-.68A771.92,771.92,0,0,1-17.8,879.6c43,1.46,86,1.94,129,.43,46.34-1.63,84.24,15.44,116.19,47.85,1.22,1.24,2.23,2.69,3.34,4q-255.55,0-511.11.14c-5.45,0-6.61-1.09-6.6-6.58q.27-245.7.15-491.39c14.67-3.54,20.11-14.26,20.5-27.91.74-25.68-8.25-48.73-20.5-70.75q0-244.95-.15-489.89c0-5.54,1.22-6.57,6.62-6.56Q1-160.76,282.31-160.88Z" transform="translate(287.01 161.03)"/><path class="b" d="M1191.46,931.92c15.31-26.48,20.42-56.38,28.46-85.27,11.68-42,31.8-79.22,62.1-110.6,34.61-35.84,58.66-78.26,79-123.19,9.24-20.35,9.8-42.12,12.52-63.62,2.16-17,7.47-33,18.21-46.77,12.67-16.26,30.89-17.61,46-3.61,7.78,7.2,14.2,15.62,17.22,25.54,12.07,39.67,29.53,77.46,40.63,117.42,2.75,9.93,3.31,20.45,5.66,30.52,6.09,26.19,19.75,46.27,47.56,52.36,20.37,4.47,39-2.19,56.26-12.86,13.83-8.53,26.1-19.1,38.44-29.56,4-3.41,8.21-6.61,12.33-9.9q0,126.74.14,253.47c0,5.19-1,6.22-6.22,6.21Q1420.64,931.79,1191.46,931.92Z" transform="translate(287.01 161.03)"/><path class="b" d="M1385.73-160.88c1.17,1.92,2.07,4.1,3.55,5.74,11.7,13,24.27,24.92,38.73,34.92,14.93,10.33,29.34,10.73,44.17.17,7.81-5.56,15.86-10.79,23.82-16.14,38.57-25.92,73.72-17.12,107.07,11.73,25,21.58,37,50,40.43,82.31,1.25,11.73,4.2,23.39,2.07,35.32-3.63,20.26-8,26.16-28.19,28.44-22.78,2.57-45.47,6.43-68.46,7.05-35,.95-64.63-11.28-89.16-36.24-5.65-5.75-11-11.9-17.77-16.44-6-4-12.16-5.13-19.36-4.13-19.19,2.66-38.15,7.49-57.81,6-30.39-2.26-58.08-13-84.5-27.23-49.75-26.83-89.92-64.92-125.62-108.15-.81-1-1.59-2-1.19-3.38Z" transform="translate(287.01 161.03)"/><path class="a" d="M-286.86,335.43c12.25,22,21.24,45.07,20.5,70.75-.39,13.65-5.83,24.37-20.5,27.91Z" transform="translate(287.01 161.03)"/><path class="b" d="M1128.77,722.32c-16-.5-33-4.89-44.46-20.45-11-14.79-7.49-31.06,7.87-41.13,20.3-13.32,57.18-12.1,76.27,2.52,14.28,10.94,15.53,30,3,43.16C1160.44,718,1146.61,722.22,1128.77,722.32Z" transform="translate(287.01 161.03)"/></svg>