<svg xmlns="http://www.w3.org/2000/svg" viewBox="0 0 1943.06 1093.08"><defs><style>.a{fill:#ffffff;}.b{fill:#41c7f6;}</style></defs><title>1800f_00193</title><path class="a" d="M1264.31,931.92h-91.07c-4.14-10.25-11.89-14.45-24.23-12.93-15.39,1.9-29.76,7.33-44.07,12.93H78.92c-.72-12.66-2.62-25-7.62-36.85-9.68-23-25-32.07-49.63-28.35C10.46,868.42-.64,870.93-11.8,873c-25.12,4.68-50.17,9.7-72.74,22.49-16.3,9.24-32,19.28-41.44,36.43H-261.06c-6.06-13.52-14.12-25.55-25.8-34.91v-167c10.28-10.38,20.33-21,31.93-30,33.76-26.13,62.53-56.62,83.09-94.4,9.12-16.77,19.06-33.06,31.1-47.95a93.21,93.21,0,0,1,10.93-11.54c12.24-10.71,24.32-9.82,40.92,2.79,19.82,15.06,36.25,33.73,54.18,50.8,9.14,8.71,18.32,17.42,29.48,23.63,13.16,7.33,26.29,8.74,39.16-.58,6.23-4.52,10.91-10.62,14.79-17.1,24.9-41.59,40.72-86.17,44.68-134.8,2.25-27.62.52-55.07-2.06-82.52-2.87-30.48-7.06-60.72-15.75-90.23-11.34-38.48-34.41-68.67-64.34-94.57-15.85-13.71-31.37-28-42.7-46-9.79-15.55-9.35-31.07,1.07-46.18C-21.45,98.45-9.32,89,3.89,80.78,32.44,63.11,64.06,53.44,96.38,45.73c43.39-10.37,86-22.91,125.23-44.86,37.53-21,71.2-47.18,103.18-75.66,29-25.81,55.44-53.95,77.42-86.09H780.14a18.87,18.87,0,0,1-.28,3.7c-3.19,11.85-.21,18.24,11.1,22.76,9.35,3.74,19.16,4.33,29.09,3.33a278.14,278.14,0,0,0,52.66-10.65c15.72-4.78,31.36-4.6,47.21-1.69,29.37,5.39,57.91,14.19,86.89,21.16,23.82,5.73,47.92,10.38,71.31,17.86,16.18,5.17,28.45,14.87,36.66,29.83,5.11,9.3,10.46,18.49,16.09,27.48,16.3,26,40.76,35.38,70.16,32.37,26.5-2.71,49.43,3.38,68.92,22.11a298.1,298.1,0,0,1,28,30.86c20.39,25.94,35.52,55.27,53.41,82.81,58.27,89.71,133,164.47,213.42,234,21,18.2,44.08,34,64.15,53.32,15.33,14.77,21.77,32.81,19.94,54.17-2.78,32.37-13.71,62.19-28.9,90.35-39.62,73.42-85.11,143-140.94,205.24-38.86,43.35-84.38,76.87-142.09,91.19-13,3.23-26.05,7.1-36.71,15.66C1278.84,882.15,1271.9,907.26,1264.31,931.92Z" transform="translate(287.02 161.01)"/><path class="b" d="M402.21-160.88c-22,32.14-48.42,60.28-77.42,86.09C292.81-46.31,259.14-20.1,221.61.87c-39.26,22-81.84,34.49-125.23,44.86C64.06,53.44,32.44,63.11,3.89,80.78-9.32,89-21.45,98.45-30.38,111.4-40.8,126.51-41.24,142-31.45,157.58c11.33,18,26.85,32.3,42.7,46,29.93,25.9,53,56.09,64.34,94.57,8.69,29.51,12.88,59.75,15.75,90.23,2.58,27.45,4.31,54.9,2.06,82.52-4,48.63-19.78,93.21-44.68,134.8-3.88,6.48-8.56,12.58-14.79,17.1-12.87,9.32-26,7.91-39.16.58-11.16-6.21-20.34-14.92-29.48-23.63C-52.64,582.69-69.07,564-88.89,549c-16.6-12.61-28.68-13.5-40.92-2.79a93.21,93.21,0,0,0-10.93,11.54c-12,14.89-22,31.18-31.1,47.95-20.56,37.78-49.33,68.27-83.09,94.4-11.6,9-21.65,19.61-31.93,30V469c7.4-3.22,12.51-9.24,17.9-14.84,19.06-19.81,25.09-42.47,15.41-68.92-8.73-23.88-21.19-45.85-33.31-68q0-235.86-.16-471.72c0-5.66,1.39-6.52,6.68-6.51Q60.93-160.79,402.21-160.88Z" transform="translate(287.02 161.01)"/><path class="b" d="M1264.31,931.92c7.59-24.66,14.53-49.77,35.89-66.92,10.66-8.56,23.68-12.43,36.71-15.66C1394.62,835,1440.14,801.5,1479,758.15c55.83-62.27,101.32-131.82,140.94-205.24,15.19-28.16,26.12-58,28.9-90.35,1.83-21.36-4.61-39.4-19.94-54.17-20.07-19.34-43.11-35.12-64.15-53.32-80.4-69.55-155.15-144.31-213.42-234-17.89-27.54-33-56.87-53.41-82.81a298.1,298.1,0,0,0-28-30.86c-19.49-18.73-42.42-24.82-68.92-22.11-29.4,3-53.86-6.37-70.16-32.37-5.63-9-11-18.18-16.09-27.48-8.21-15-20.48-24.66-36.66-29.83-23.39-7.48-47.49-12.13-71.31-17.86-29-7-57.52-15.77-86.89-21.16-15.85-2.91-31.49-3.09-47.21,1.69a278.14,278.14,0,0,1-52.66,10.65c-9.93,1-19.74.41-29.09-3.33-11.31-4.52-14.29-10.91-11.1-22.76a18.87,18.87,0,0,0,.28-3.7H1492c-13,11.45-22.83,24.8-25.65,42.46-2.59,16.27-1.81,32.44,4,47.78A277.31,277.31,0,0,0,1557.49,50c30.58,24.56,65.24,43.11,98.41,63.85q0,405.61.14,811.25c0,5.69-1.28,7-7,7Q1456.68,931.78,1264.31,931.92Z" transform="translate(287.02 161.01)"/><path class="a" d="M1655.9,113.84c-33.17-20.74-67.83-39.29-98.41-63.85a277.31,277.31,0,0,1-87.21-120.63c-5.76-15.34-6.54-31.51-4-47.78,2.82-17.66,12.62-31,25.65-42.46,52.86,0,105.73.07,158.6-.13,4.53,0,5.45.91,5.44,5.44Q1655.77-20.87,1655.9,113.84Z" transform="translate(287.02 161.01)"/><path class="b" d="M-126,931.92c9.41-17.15,25.14-27.19,41.44-36.43C-62,882.7-36.92,877.68-11.8,873c11.16-2.07,22.26-4.58,33.47-6.28C46.28,863,61.62,872.1,71.3,895.07c5,11.84,6.9,24.19,7.62,36.85Z" transform="translate(287.02 161.01)"/><path class="a" d="M-286.86,317.22c12.12,22.17,24.58,44.14,33.31,68,9.68,26.45,3.65,49.11-15.41,68.92-5.39,5.6-10.5,11.62-17.9,14.84Z" transform="translate(287.02 161.01)"/><path class="b" d="M1104.94,931.92c14.31-5.6,28.68-11,44.07-12.93,12.34-1.52,20.09,2.68,24.23,12.93Z" transform="translate(287.02 161.01)"/><path class="b" d="M-286.86,897c11.68,9.36,19.74,21.39,25.8,34.91-7.33,0-14.68-.22-22,.1-3.28.14-4-.63-3.9-3.9C-286.69,917.76-286.86,907.38-286.86,897Z" transform="translate(287.02 161.01)"/></svg>