<svg xmlns="http://www.w3.org/2000/svg" viewBox="0 0 1943.05 1093.13"><defs><style>.a{fill:#ffffff;}.b{fill:#41c7f6;}</style></defs><title>1800f_00401</title><path class="a" d="M1655.9,485.69V683c-2.74,1.47-3.13,4.46-4.26,6.88-8.8,18.79-15.52,38.37-21.74,58.12-11.68,37.06-20.93,74.9-35.07,111.16-9.53,24.44-20,48.52-30,72.76H-109.28c-2-2.83-5.21-3.87-7.94-5.59-13.45-8.5-27.41-16.23-38.73-27.76-10.84-11-13.57-23.81-9.15-38.37a87,87,0,0,1,8.8-20.1c33.5-55,76-102.54,125.31-143.17,34.88-28.72,64-60.67,83.24-101.58,6.9-14.66,15.29-28.56,26.43-40.52,33.09-35.55,70.24-66.57,111.61-91.63,60-36.32,100.83-87.95,128.45-151.14,19.89-45.52,32.87-93.36,45.73-141.19,7.38-27.46,12.11-55.33,10.52-83.9C373.25,55.55,364.74,26.29,346.23.42,332.36-19,314.51-23.46,293.21-13c-9.14,4.49-17.25,10.5-25,17.06-24.8,21-45.32,46.15-66.44,70.61C171.34,109.91,134.37,130.86,87,132.48c-34.66,1.18-69,5.44-102.23,16.19-24.17,7.83-48.73,7.43-73.5,3.67-9-1.36-18-2.4-27-3.42-28.48-3.19-49.75,8.26-66.18,31.28-28.5,39.94-54.62,81.44-81.72,122.31-7.64,11.52-14,23.93-23.14,34.44V-160.88H1020c-.37,23.78.55,47.45,5.14,70.9,8.9,45.47,30.58,84.8,57.63,121.63,39.47,53.73,87.82,98.27,141.91,136.82,51.53,36.73,98.3,77.9,135.86,129.8,28.14,38.9,45.08,79.6,41.8,128-2.27,33.59-15.34,60.84-44,79.81-15.2,10.07-31.17,18.78-47.11,27.56-30.18,16.64-59.81,34-82.93,60.38-13.49,15.4-27.83,30.05-41.06,45.65-11.59,13.66-22.89,27.76-26.79,46-1.57,7.38-.19,13.82,5.09,19.57,6.59,7.19,15.18,9.52,24.22,11.14,16.48,3,32.87.9,48.88-2.48,47-9.94,94.32-17,142.44-19.17,37.07-1.68,70.93-13.84,98.78-39.26,31.34-28.6,38.48-52.76,27.13-89.29-2.4-7.72-4.79-15.46-6.61-23.33-6.2-26.84,2.81-45,27.32-55a84.58,84.58,0,0,1,16.65-5.05C1581.7,476.05,1618.84,479.59,1655.9,485.69ZM456.51,681.81a270.36,270.36,0,0,0-65.43,8.85c-44.06,11.9-71.05,41.82-87.2,82.69-4.85,12.26-3.78,25.11,6.77,35.06a57.72,57.72,0,0,0,17.92,11.16c20.94,8.58,43,10.91,65.28,11.76,23.79.91,47.41-2.56,71.11-3.7,52-2.5,97.2,15.1,136.25,49,13.46,11.7,27.62,22.06,44.65,28.05,28.08,9.88,55.8,6.33,83.38-2.06,27.17-8.27,52.08-22.17,78.66-31.87,42.81-15.61,83.22-35.42,118.26-65.1,28.88-24.45,41.62-52.13,23.66-90.49-8.61-18.38-15.51-37.07-19-57.29-2.86-16.81-13-23.17-30-22.09-9.6.61-18.07,4.72-26.11,9.54-23,13.78-45.58,28.22-71.87,35.33-30,8.12-59.66,17.44-89.3,26.8-27.76,8.76-56.12,13.23-85.25,10.17-25.55-2.68-49.94-10.27-74-19C523.16,687.18,490.85,682.31,456.51,681.81Z" transform="translate(287 161.05)"/><path class="b" d="M1655.9,485.69c-37.06-6.1-74.2-9.64-111.56-2.88a84.58,84.58,0,0,0-16.65,5.05c-24.51,10-33.52,28.18-27.32,55,1.82,7.87,4.21,15.61,6.61,23.33,11.35,36.53,4.21,60.69-27.13,89.29-27.85,25.42-61.71,37.58-98.78,39.26C1333,697,1285.66,704,1238.63,713.93c-16,3.38-32.4,5.45-48.88,2.48-9-1.62-17.63-3.95-24.22-11.14-5.28-5.75-6.66-12.19-5.09-19.57,3.9-18.26,15.2-32.36,26.79-46,13.23-15.6,27.57-30.25,41.06-45.65,23.12-26.41,52.75-43.74,82.93-60.38,15.94-8.78,31.91-17.49,47.11-27.56,28.62-19,41.69-46.22,44-79.81,3.28-48.41-13.66-89.11-41.8-128-37.56-51.9-84.33-93.07-135.86-129.8-54.09-38.55-102.44-83.09-141.91-136.82C1055.67-5.18,1034-44.51,1025.09-90c-4.59-23.45-5.51-47.12-5.14-70.9H1203.6c6.56,10.93,15.91,19.28,25.65,27.19,8.52,6.92,18.4,11.65,29.35,8.81,19.11-5,30.27-19.42,39.1-36q175.93,0,351.86-.17c5.77,0,6.46,1.55,6.46,6.72Q1655.79,165.68,1655.9,485.69Z" transform="translate(287 161.05)"/><path class="b" d="M-286.86,337c9.15-10.51,15.5-22.92,23.14-34.44,27.1-40.87,53.22-82.37,81.72-122.31,16.43-23,37.7-34.47,66.18-31.28,9,1,18.07,2.06,27.05,3.42,24.77,3.76,49.33,4.16,73.5-3.67C18,137.92,52.3,133.66,87,132.48c47.41-1.62,84.38-22.57,114.82-57.81,21.12-24.46,41.64-49.58,66.44-70.61C276-2.5,284.07-8.51,293.21-13c21.3-10.46,39.15-6,53,13.42C364.74,26.29,373.25,55.55,375,87c1.59,28.57-3.14,56.44-10.52,83.9-12.86,47.83-25.84,95.67-45.73,141.19-27.62,63.19-68.48,114.82-128.45,151.14-41.37,25.06-78.52,56.08-111.61,91.63-11.14,12-19.53,25.86-26.43,40.52C33,636.26,3.89,668.21-31,696.93-80.34,737.56-122.8,785.14-156.3,840.1a87,87,0,0,0-8.8,20.1c-4.42,14.56-1.69,27.34,9.15,38.37,11.32,11.53,25.28,19.26,38.73,27.76,2.73,1.72,6,2.76,7.94,5.59-57.17,0-114.34-.09-171.51.15-5.2,0-6.22-1-6.21-6.22Q-286.74,631.4-286.86,337Z" transform="translate(287 161.05)"/><path class="b" d="M1564.83,931.92c10-24.24,20.47-48.32,30-72.76,14.14-36.26,23.39-74.1,35.07-111.16,6.22-19.75,12.94-39.33,21.74-58.12,1.13-2.42,1.52-5.41,4.26-6.88q0,121.43.14,242.85c0,5.19-1,6.28-6.22,6.22C1621.49,931.75,1593.16,931.92,1564.83,931.92Z" transform="translate(287 161.05)"/><path class="a" d="M1297.7-160.88c-8.83,16.58-20,31-39.1,36-10.95,2.84-20.83-1.89-29.35-8.81-9.74-7.91-19.09-16.26-25.65-27.19Z" transform="translate(287 161.05)"/><path class="b" d="M456.51,681.81c34.34.5,66.65,5.37,97.87,16.79,24,8.78,48.41,16.37,74,19,29.13,3.06,57.49-1.41,85.25-10.17,29.64-9.36,59.29-18.68,89.3-26.8,26.29-7.11,48.89-21.55,71.87-35.33,8-4.82,16.51-8.93,26.11-9.54,17-1.08,27.13,5.28,30,22.09,3.45,20.22,10.35,38.91,19,57.29,18,38.36,5.22,66-23.66,90.49-35,29.68-75.45,49.49-118.26,65.1-26.58,9.7-51.49,23.6-78.66,31.87-27.58,8.39-55.3,11.94-83.38,2.06-17-6-31.19-16.35-44.65-28.05-39.05-33.93-84.27-51.53-136.25-49-23.7,1.14-47.32,4.61-71.11,3.7-22.26-.85-44.34-3.18-65.28-11.76a57.72,57.72,0,0,1-17.92-11.16c-10.55-9.95-11.62-22.8-6.77-35.06,16.15-40.87,43.14-70.79,87.2-82.69A270.36,270.36,0,0,1,456.51,681.81Z" transform="translate(287 161.05)"/></svg>