<svg xmlns="http://www.w3.org/2000/svg" viewBox="0 0 1943.04 1093.1"><defs><style>.a{fill:#ffffff;}.b{fill:#41c7f6;}</style></defs><title>1800f_00206</title><path class="a" d="M1485.9,931.92H-250.43A331.34,331.34,0,0,1-224.63,869c15.73-29.74,35.3-57.14,52.59-85.93,27.38-45.58,49.86-93.07,56.34-146.65,2.37-19.59,3.43-39.27-.55-58.77-2.08-10.17-8-12.76-17.1-7.8a388,388,0,0,0-56.38,36.8c-30.16,24-61.52,45.92-97.13,61.2V258c13,5.54,26.21,10.61,38.84,17.1,18.72,9.63,29.68,24,32.32,45.35a156.83,156.83,0,0,0,11.16,41.62c9.64,22.93,24.83,42.17,40.33,61.16,18.94,23.2,37.27,46.63,44.73,76.55,1.33,5.33,4.11,10.31,6.34,15.4,3.42,7.79,8.8,10.47,17,8.21,12.23-3.39,23.1-10.06,34.84-14.71,48.52-19.25,100.4-5.67,133.27,34.7,27.12,33.31,39.49,72.43,46.07,113.87,5.13,32.37,12.26,64.08,27.7,93.31,7.24,13.7,15.46,26.78,28.67,35.7,11.31,7.62,21.18,6.5,30.66-3,5.66-5.67,9.3-12.57,12.31-19.84,8-19.4,11.16-39.82,12.14-60.64,1.27-26.81-3.38-53-10.21-78.65-17.52-65.9-29.14-132.62-32.54-200.87-1.78-35.59-16.23-66.39-42.36-91.37-17.4-16.62-37.79-28.67-58.67-40.1-10.2-5.59-20.58-10.92-29.6-18.34-8.81-7.26-8.39-15.21.84-21.68a81.3,81.3,0,0,1,16.69-8.9c28.46-11.37,56.05-24.49,82.32-40.32,34.92-21,70.77-40.34,108.87-55C312,129.49,350.22,99.78,380.66,60q63.81-83.46,126.7-167.61c13-17.36,26.23-34.64,37.52-53.24h127.5c.4,2.25,2.37,3.17,3.87,4.45,11.54,9.83,23.4,19.32,34.62,29.52C728.23-111.14,744.22-94.26,749-70a137.69,137.69,0,0,1,2.26,29.43C750.9-23.11,758.68-10,772.5,0a110,110,0,0,0,32,15.46c48.2,15.05,97.54,15.44,147.2,11.15,27.8-2.39,54.62-9.95,81.81-15.66,45.24-9.49,90.72-17.78,135-31.61,14-4.36,28.43-7.09,43.27-6.95,24.56.23,32.07,9.78,24.09,33-8.79,25.57-17.43,51.19-26.5,76.64-6.31,17.7-7.5,34.75-3.13,52.71,6.61,27.11,18.24,52.51,26.49,79,18.21,58.55,45.63,112.85,76,165.81,7.13,12.45,13.55,25.42,23.82,35.91,9.46,9.67,20,11.94,32.43,6.66,9.65-4.12,17.79-10.53,26-16.81,19.7-15,37.95-31.84,58.82-45.33,25.39-16.42,51.64-18.54,79.37-6.3a129.24,129.24,0,0,1,37.6,25.18c19.91,19.06,39.38,38.58,59.46,57.45,9.69,9.1,18.36,19.4,29.76,26.6V790.76c-6.58,4.79-11.1,11.59-16.75,17.3-34.74,35.11-74,64.66-114.2,93C1511.4,910.63,1497.57,919.93,1485.9,931.92ZM978.5,219.07c.06-15.6-11.4-24.69-25.64-22.1C923,202.42,893.15,234,886.29,267.58c-1.89,9.22-.78,17.89,6.62,24.25,7,6,15.17,3.74,23,1.09a32.08,32.08,0,0,0,4.16-1.84c24.83-12.59,42.36-32.21,54.49-56.93A40.08,40.08,0,0,0,978.5,219.07Z" transform="translate(286.99 161.02)"/><path class="b" d="M544.88-160.88c-11.29,18.6-24.49,35.88-37.52,53.24q-63,84-126.7,167.61C350.22,99.78,312,129.49,264.82,147.59c-38.1,14.62-73.95,33.92-108.87,55-26.27,15.83-53.86,28.95-82.32,40.32a81.3,81.3,0,0,0-16.69,8.9c-9.23,6.47-9.65,14.42-.84,21.68,9,7.42,19.4,12.75,29.6,18.34,20.88,11.43,41.27,23.48,58.67,40.1,26.13,25,40.58,55.78,42.36,91.37,3.4,68.25,15,135,32.54,200.87,6.83,25.69,11.48,51.84,10.21,78.65-1,20.82-4.09,41.24-12.14,60.64-3,7.27-6.65,14.17-12.31,19.84-9.48,9.52-19.35,10.64-30.66,3-13.21-8.92-21.43-22-28.67-35.7-15.44-29.23-22.57-60.94-27.7-93.31-6.58-41.44-19-80.56-46.07-113.87C39.06,503-12.82,489.45-61.34,508.7c-11.74,4.65-22.61,11.32-34.84,14.71-8.16,2.26-13.54-.42-17-8.21-2.23-5.09-5-10.07-6.34-15.4-7.46-29.92-25.79-53.35-44.73-76.55-15.5-19-30.69-38.23-40.33-61.16a156.83,156.83,0,0,1-11.16-41.62c-2.64-21.33-13.6-35.72-32.32-45.35-12.63-6.49-25.82-11.56-38.84-17.1V-150.26c2.57-1.35,4.87,0,7.25.71,27.12,7.45,54.55,11.88,82.75,8,17.22-2.34,33.39-7.32,46.6-19.37Z" transform="translate(286.99 161.02)"/><path class="b" d="M1655.9,462.92c-11.4-7.2-20.07-17.5-29.76-26.6-20.08-18.87-39.55-38.39-59.46-57.45a129.24,129.24,0,0,0-37.6-25.18c-27.73-12.24-54-10.12-79.37,6.3-20.87,13.49-39.12,30.34-58.82,45.33-8.24,6.28-16.38,12.69-26,16.81-12.39,5.28-23,3-32.43-6.66-10.27-10.49-16.69-23.46-23.82-35.91-30.34-53-57.76-107.26-76-165.81-8.25-26.53-19.88-51.93-26.49-79-4.37-18-3.18-35,3.13-52.71,9.07-25.45,17.71-51.07,26.5-76.64,8-23.22.47-32.77-24.09-33-14.84-.14-29.31,2.59-43.27,7-44.24,13.83-89.72,22.12-135,31.61-27.19,5.71-54,13.27-81.81,15.66-49.66,4.29-99,3.9-147.2-11.15A110,110,0,0,1,772.5,0c-13.82-10-21.6-23.08-21.26-40.52A137.69,137.69,0,0,0,749-70c-4.76-24.28-20.75-41.16-38.11-56.93-11.22-10.2-23.08-19.69-34.62-29.52-1.5-1.28-3.47-2.2-3.87-4.45q488.34,0,976.69-.14c5.69,0,7,1.27,7,7-.31,33.13-.15,66.27-.15,99.41-9.89,3.73-20.22,6.15-29.71,11-25,12.9-32.32,31.38-20.53,57,12,26.13,29.81,48.38,50.24,68.54Z" transform="translate(286.99 161.02)"/><path class="b" d="M-286.86,667.82c35.61-15.28,67-37.23,97.13-61.2a388,388,0,0,1,56.38-36.8c9.11-5,15-2.37,17.1,7.8,4,19.5,2.92,39.18.55,58.77C-122.18,690-144.66,737.46-172,783c-17.29,28.79-36.86,56.19-52.59,85.93a331.34,331.34,0,0,0-25.8,62.95c-10.37,0-20.76-.29-31.11.13-4.56.19-5.45-.92-5.45-5.44Q-286.73,797.22-286.86,667.82Z" transform="translate(286.99 161.02)"/><path class="b" d="M1485.9,931.92c11.67-12,25.5-21.29,39-30.84,40.24-28.36,79.46-57.91,114.2-93,5.65-5.71,10.17-12.51,16.75-17.3,0,45.28-.09,90.57.12,135.84,0,4.53-.91,5.46-5.44,5.45C1595.69,931.85,1540.8,931.92,1485.9,931.92Z" transform="translate(286.99 161.02)"/><path class="a" d="M1655.9,82c-20.43-20.16-38.23-42.41-50.24-68.54-11.79-25.64-4.46-44.12,20.53-57,9.49-4.89,19.82-7.31,29.71-11Z" transform="translate(286.99 161.02)"/><path class="a" d="M-150.26-160.88c-13.21,12-29.38,17-46.6,19.37-28.2,3.84-55.63-.59-82.75-8-2.38-.66-4.68-2.06-7.25-.71v-10.62Z" transform="translate(286.99 161.02)"/><path class="b" d="M978.5,219.07a40.08,40.08,0,0,1-4,15.08c-12.13,24.72-29.66,44.34-54.49,56.93a32.08,32.08,0,0,1-4.16,1.84c-7.8,2.65-15.93,4.95-23-1.09-7.4-6.36-8.51-15-6.62-24.25C893.15,234,923,202.42,952.86,197,967.1,194.38,978.56,203.47,978.5,219.07Z" transform="translate(286.99 161.02)"/></svg>