<svg xmlns="http://www.w3.org/2000/svg" viewBox="0 0 1943.28 1093.1"><defs><style>.a{fill:#ffffff;}.b{fill:#41c7f6;}</style></defs><title>1800f_00170</title><path class="a" d="M1655.9,174.55V686c-10.75,4.31-20.35,11-31.52,14.5-25.15,7.92-42,1.14-53.81-22.58-9.84-19.8-12.31-41.18-11.14-62.8,2.85-52.41,18.46-101.12,44.13-146.81,12.51-22.27,24.37-44.91,31.92-69.49,4.31-14,7.45-28.3,8.36-43,2-32.27-11.86-49.61-41.24-62.58-30.81-13.61-62.67-13.68-95.17-7.06-24,4.89-43.06,16.89-57,36.92-3.9,5.6-7.69,11.3-11.08,17.21-20.51,35.77-36.89,73.68-56.56,109.89-15.81,29.11-31,58.62-50.62,85.41-23.76,32.37-52.16,59.22-90.51,73.6-29.5,11-60.42,13.88-91.62,14.9-16.7.55-33.4,1.52-48.19,10.84-46.64,29.41-93.06,59.1-134.73,95.55-17.71,15.49-35.91,30.36-57.22,40.94-18.1,9-35.84,9.55-53.55-.86-5-3-10.11-5.76-15.22-8.54-46.9-25.54-109-13.26-143,28.25-10.49,12.83-11.38,24.32-2.25,36.45,11.38,15.13,22.48,30.55,35.44,44.39,13.44,14.36,29.18,24.63,49.67,26.4,10.13.88,20.2.45,30.29.67a40.73,40.73,0,0,1,22.1,6.86c12.28,8.07,23.37,17.66,34.78,26.85H332.39c-8.67-22.93-22.65-41.57-43.74-54.57-21.93-13.53-46.24-20.11-71.28-24.44-29.05-5-58.45-3.95-87.74-4.91-25.54-.84-50.95-3-75.47-11.2C30,828.67,14.59,812.43,7.6,787.93A330,330,0,0,1,.08,755.45c-7.19-40.09-20.16-77.71-45.57-110.31-18.36-23.56-38-46-58-68.19-11.83-13.16-24.08-26-34.41-40.42-12.17-17-12.27-28-.69-45.17,5.67-8.41,12.32-16,19-23.61,17.58-19.86,36.75-38.41,50.83-61.16,12.8-20.71,20.85-42.78,17.07-67.6-3.49-23-14.83-42.32-29.7-59.64-17-19.8-37.51-30.72-64.82-26.33-15,2.41-28.67-2.53-38.95-14.28-18.5-21.14-22.26-62.34-6.42-85.47,21.92-32,25.29-66.21,16.39-102.84-5.57-22.91-14.21-44.8-21.38-67.17-4.66-14.55-7.87-29.31-6.59-44.72,1.46-17.65,7.37-33.95,14.9-49.83,8.51-17.92,20.19-33.74,31.87-49.59H1186.9c.35,7.74,5.73,13.21,9,19.55,20.91,39.86,43,79.05,70.55,114.8,19.57,25.41,40.06,50.12,60.1,75.17,23.54,29.44,43.28,61.56,65.05,92.25,21,29.69,49.46,44.45,86.16,42.66,17.92-.87,35.68-3.29,53.5-5.1C1572.74,174.24,1614.15,168.81,1655.9,174.55ZM583.49,297.7c-4,0-8.12-.37-12.12.06-30.6,3.29-42.51,24.69-29.18,52.26,7,14.55,17.29,26.72,28.65,38,46.11,45.63,100.1,79.32,159.61,104.43,67.66,28.55,137.5,42.18,211,30.16,17.93-2.92,34,1.56,48.22,13.11,12.22,9.91,23.07,21.23,34.32,32.14a135.23,135.23,0,0,0,57.66,33.74c13.3,3.81,26.64,5.88,40.08.3,32.94-13.68,53.17-39.49,66.45-71.2,7.94-18.95,4-37.2-8-53.77a115.81,115.81,0,0,0-16.74-18.56c-26.62-23.78-50.48-50.4-76.67-74.57-21-19.35-39.89-39.82-53.11-65.54-9.06-17.62-25.09-25.54-45.05-25.6a138.12,138.12,0,0,0-33,4.31c-32.17,7.81-63.34,19.3-95.83,26-44.9,9.24-90,12.58-135.65,6.69-28.06-3.61-54.57-12.68-81.38-20.87C623.48,302.83,604,297.61,583.49,297.7Z" transform="translate(287 161.03)"/><path class="b" d="M868.17,931.92c-11.41-9.19-22.5-18.78-34.78-26.85a40.73,40.73,0,0,0-22.1-6.86c-10.09-.22-20.16.21-30.29-.67-20.49-1.77-36.23-12-49.67-26.4-13-13.84-24.06-29.26-35.44-44.39-9.13-12.13-8.24-23.62,2.25-36.45,34-41.51,96.05-53.79,143-28.25,5.11,2.78,10.21,5.59,15.22,8.54,17.71,10.41,35.45,9.85,53.55.86,21.31-10.58,39.51-25.45,57.22-40.94,41.67-36.45,88.09-66.14,134.73-95.55,14.79-9.32,31.49-10.29,48.19-10.84,31.2-1,62.12-3.85,91.62-14.9,38.35-14.38,66.75-41.23,90.51-73.6,19.67-26.79,34.81-56.3,50.62-85.41,19.67-36.21,36-74.12,56.56-109.89,3.39-5.91,7.18-11.61,11.08-17.21,14-20,33-32,57-36.92,32.5-6.62,64.36-6.55,95.17,7.06,29.38,13,43.24,30.31,41.24,62.58-.91,14.73-4,29-8.36,43-7.55,24.58-19.41,47.22-31.92,69.49-25.67,45.69-41.28,94.4-44.13,146.81-1.17,21.62,1.3,43,11.14,62.8,11.78,23.72,28.66,30.5,53.81,22.58,11.17-3.53,20.77-10.19,31.52-14.5q0,119.9.14,239.81c0,5.19-1,6.22-6.22,6.21q-263.33-.25-526.66-.14c-8.61-22.62-31.44-34.51-56.38-29.16-25.87,5.55-49,18.07-72.64,29.16Z" transform="translate(287 161.03)"/><path class="b" d="M-156.33-160.88C-168-145-179.69-129.21-188.2-111.29c-7.53,15.88-13.44,32.18-14.9,49.83-1.28,15.41,1.93,30.17,6.59,44.72,7.17,22.37,15.81,44.26,21.38,67.17,8.9,36.63,5.53,70.86-16.39,102.84-15.84,23.13-12.08,64.33,6.42,85.47,10.28,11.75,23.92,16.69,38.95,14.28,27.31-4.39,47.83,6.53,64.82,26.33C-66.46,296.67-55.12,316-51.63,339c3.78,24.82-4.27,46.89-17.07,67.6-14.08,22.75-33.25,41.3-50.83,61.16-6.7,7.58-13.35,15.2-19,23.61-11.58,17.17-11.48,28.16.69,45.17,10.33,14.43,22.58,27.26,34.41,40.42,20,22.18,39.6,44.63,58,68.19C-20.08,677.74-7.11,715.36.08,755.45A330,330,0,0,0,7.6,787.93c7,24.5,22.36,40.74,46.56,48.87,24.52,8.23,49.93,10.36,75.47,11.2,29.29,1,58.69-.11,87.74,4.91,25,4.33,49.35,10.91,71.28,24.44,21.09,13,35.07,31.64,43.74,54.57q-306.21,0-612.42.14c-5.69,0-7-1.28-7-7q.24-539.58,0-1079.14c0-5.69,1.27-7,7-7C-238.8-160.75-197.56-160.88-156.33-160.88Z" transform="translate(287 161.03)"/><path class="b" d="M1655.9,174.55c-41.75-5.74-83.16-.31-124.59,3.9-17.82,1.81-35.58,4.23-53.5,5.1-36.7,1.79-65.11-13-86.16-42.66-21.77-30.69-41.51-62.81-65.05-92.25-20-25-40.53-49.76-60.1-75.17-27.53-35.75-49.64-74.94-70.55-114.8-3.32-6.34-8.7-11.81-9-19.55h126a22.26,22.26,0,0,0,1.79,3.3c24.67,31.42,49.8,62.44,79.67,89.19,20.57,18.43,41.91,36,68.13,45.87C1501.66-7.74,1540-6.67,1575.8-32.23c22.64-16.18,38.15-38.64,53.36-61.42,13.71-20.53,23.69-42.24,25.22-67.23,3.17,1.68,1.42,4.61,1.42,6.83Q1656,10.25,1655.9,174.55Z" transform="translate(287 161.03)"/><path class="a" d="M1654.38-160.88c-1.53,25-11.51,46.7-25.22,67.23-15.21,22.78-30.72,45.24-53.36,61.42C1540-6.67,1501.66-7.74,1462.47-22.52c-26.22-9.88-47.56-27.44-68.13-45.87-29.87-26.75-55-57.77-79.67-89.19a22.26,22.26,0,0,1-1.79-3.3Z" transform="translate(287 161.03)"/><path class="a" d="M994.14,931.92c23.67-11.09,46.77-23.61,72.64-29.16,24.94-5.35,47.77,6.54,56.38,29.16Z" transform="translate(287 161.03)"/><path class="b" d="M583.49,297.7c20.46-.09,40,5.13,59.35,11.05,26.81,8.19,53.32,17.26,81.38,20.87,45.68,5.89,90.75,2.55,135.65-6.69,32.49-6.69,63.66-18.18,95.83-26a138.12,138.12,0,0,1,33-4.31c20,.06,36,8,45.05,25.6,13.22,25.72,32.14,46.19,53.11,65.54,26.19,24.17,50.05,50.79,76.67,74.57a115.81,115.81,0,0,1,16.74,18.56c12,16.57,15.89,34.82,8,53.77-13.28,31.71-33.51,57.52-66.45,71.2-13.44,5.58-26.78,3.51-40.08-.3A135.23,135.23,0,0,1,1024,567.83c-11.25-10.91-22.1-22.23-34.32-32.14-14.23-11.55-30.29-16-48.22-13.11-73.52,12-143.36-1.61-211-30.16C670.94,467.31,617,433.62,570.84,388c-11.36-11.25-21.62-23.42-28.65-38-13.33-27.57-1.42-49,29.18-52.26C575.37,297.33,579.45,297.7,583.49,297.7Z" transform="translate(287 161.03)"/></svg>