<svg xmlns="http://www.w3.org/2000/svg" viewBox="0 0 1366.32 768.24"><defs><style>.a{fill:#ffffff;}.b{fill:#41c7f6;}</style></defs><title>1800f_00078</title><path class="a" d="M1367.52,514.53v77.41c-33.28,13.67-65.37,29.58-93.52,52.31-10.66,8.6-13.94,20.6-11.93,34.15,2.22,15,4.88,30,6,45.05,1.16,15.29,3.45,30.67.75,46.07H145.71C169.33,752.38,195.18,740,224,734.71c37.86-6.89,71.62-20.89,100.47-47.65,34.21-31.72,52.05-67.63,45.31-115.74a464,464,0,0,1,0-130.79c2.65-18.44,2.6-37.44-4.36-55.44-7.28-18.84-22.64-23.61-39.5-12.49-12.17,8-20.38,19.44-27.38,31.91-9,16.06-16,33.27-27.28,48.1-12.81,16.92-28.06,20.06-46.48,9.36a138.32,138.32,0,0,1-44.94-42.26c-11.24-16.46-16.16-34.52-13.13-54.62,2.61-17.39,8.27-33.86,14.31-50.2,15.12-40.91,13.55-80.19-10.46-117.58-18.13-28.22-41.95-50.37-70.91-67.14-8.73-5.06-18-9.42-25.18-16.72C68.87,107.86,69.86,103.08,77,100c8.68-3.73,17.74-3.64,26.83-2,16.26,2.91,31,10.56,46.91,14.85,25.95,7,51.48,8.44,76.14-3.93,41-20.54,80.52-43.57,115.57-73.43,11.67-9.93,22.95-20.5,30.89-33.95H960.75c3.13,12.63,10.83,23.17,15.86,34.95,11.81,27.65,28.18,52.61,47.09,75.81q62.28,76.46,125.23,152.37c22.74,27.57,39.48,57.88,45.77,93.59a274,274,0,0,0,13.36,48.94c7.64,20.32,18.28,38.29,37.93,49.47a952.9,952.9,0,0,0,91.32,46.22C1347.2,507.17,1356.72,512.53,1367.52,514.53ZM775.59,666.14c-31.24.34-61.08,7.55-90,18.78-8.73,3.38-17.14,7.64-23.81,14.48-9.15,9.37-8.08,19.48,2.81,26.66a43.21,43.21,0,0,0,8.75,4.4c15,5.57,30.63,6.44,46.37,4.93,30.85-3,60.26-12.73,90.23-19.78a48.79,48.79,0,0,0,16.68-7.09c8-5.51,9.6-11.83,4.59-20.07-5.91-9.74-14.58-15.93-25.52-19C795.82,666.67,785.77,665.92,775.59,666.14Zm438.34-18.58c.45-5.49-3-7.48-7.37-7.92-6.52-.67-13.16-1.12-19.57.64-33.52,9.23-64.82,23.77-95.37,40.06a38.36,38.36,0,0,0-10.11,7.86c-7.16,7.75-6.29,15.86,2.44,21.68,5.5,3.67,11.69,4.32,18,3.6,21-2.39,39.55-11.61,57.82-21.38,15.13-8.1,29.74-17.09,42.82-28.32C1207.75,659.36,1212.51,654.56,1213.93,647.56ZM730.49,549.17c-2.83,1.71-9.25-.19-9.58,5.45-.28,4.78,4.86,6.46,9.11,7.59a24.66,24.66,0,0,0,16.3-.78c4.85-2,4.77-4.58.8-7.62C742.43,550.22,736.73,550.23,730.49,549.17Z" transform="translate(-1.33 -1.41)"/><path class="b" d="M373.37,1.52c-7.94,13.45-19.22,24-30.89,33.95-35.05,29.86-74.57,52.89-115.57,73.43-24.66,12.37-50.19,10.93-76.14,3.93-15.88-4.29-30.65-11.94-46.91-14.85-9.09-1.62-18.15-1.71-26.83,2-7.17,3.08-8.16,7.86-2.64,13.45,7.21,7.3,16.45,11.66,25.18,16.72,29,16.77,52.78,38.92,70.91,67.14,24,37.39,25.58,76.67,10.46,117.58-6,16.34-11.7,32.81-14.31,50.2-3,20.1,1.89,38.16,13.13,54.62A138.32,138.32,0,0,0,224.7,462c18.42,10.7,33.67,7.56,46.48-9.36,11.23-14.83,18.25-32,27.28-48.1,7-12.47,15.21-23.89,27.38-31.91,16.86-11.12,32.22-6.35,39.5,12.49,7,18,7,37,4.36,55.44a464,464,0,0,0,0,130.79c6.74,48.11-11.1,84-45.31,115.74-28.85,26.76-62.61,40.76-100.47,47.65-28.78,5.25-54.63,17.67-78.25,34.81-46.42,0-92.83-.07-139.24.11-4.12,0-5.1-.72-5.08-5,.22-38.34.13-76.68.13-115,2.39.21,3.55-1.7,4.95-3C27.54,626.39,52.22,612.78,80.34,605a228.33,228.33,0,0,0,30.08-10.28c18.35-7.93,25.64-20.74,22.92-38.91a65.1,65.1,0,0,0-3.8-13.85,478.28,478.28,0,0,0-47.48-91.22c-20.84-31.55-49.57-54-80.54-74.37V252c10.88-15.86,19.9-32.54,17.72-52.59C17.56,183.9,8.52,171.23,1.52,157.85c0-50,.14-100-.19-150,0-5.91,1.75-6.41,6.78-6.4Q190.75,1.62,373.37,1.52Z" transform="translate(-1.33 -1.41)"/><path class="b" d="M1367.52,514.53c-10.8-2-20.32-7.36-30.21-11.66A952.9,952.9,0,0,1,1246,456.65c-19.65-11.18-30.29-29.15-37.93-49.47a274,274,0,0,1-13.36-48.94c-6.29-35.71-23-66-45.77-93.59q-62.76-76.06-125.23-152.37c-18.91-23.2-35.28-48.16-47.09-75.81-5-11.78-12.73-22.32-15.86-34.95H1281c1.07,4.61,4.87,7,8.33,9.24,26,17.25,52.11,34.33,78.19,51.47Z" transform="translate(-1.33 -1.41)"/><path class="a" d="M1.52,376.41c31,20.32,59.7,42.82,80.54,74.37A478.28,478.28,0,0,1,129.54,542a65.1,65.1,0,0,1,3.8,13.85c2.72,18.17-4.57,31-22.92,38.91A228.33,228.33,0,0,1,80.34,605c-28.12,7.74-52.8,21.35-73.87,41.53-1.4,1.34-2.56,3.25-4.95,3Z" transform="translate(-1.33 -1.41)"/><path class="b" d="M1268.86,769.52c2.7-15.4.41-30.78-.75-46.07-1.16-15.08-3.82-30.06-6-45.05-2-13.55,1.27-25.55,11.93-34.15,28.15-22.73,60.24-38.64,93.52-52.31,0,57.42-.07,114.84.13,172.26,0,4.53-.91,5.48-5.45,5.45C1331.09,769.4,1300,769.52,1268.86,769.52Z" transform="translate(-1.33 -1.41)"/><path class="a" d="M1367.52,62.23c-26.08-17.14-52.19-34.22-78.19-51.47-3.46-2.29-7.26-4.63-8.33-9.24,27.32,0,54.65.09,82-.1,3.8,0,4.71.85,4.66,4.65C1367.39,24.79,1367.52,43.51,1367.52,62.23Z" transform="translate(-1.33 -1.41)"/><path class="a" d="M1.52,157.85c7,13.38,16,26.05,17.72,41.51,2.18,20-6.84,36.73-17.72,52.59Z" transform="translate(-1.33 -1.41)"/><path class="b" d="M775.59,666.14c10.18-.22,20.23.53,30.06,3.3,10.94,3.08,19.61,9.27,25.52,19,5,8.24,3.4,14.56-4.59,20.07a48.79,48.79,0,0,1-16.68,7.09c-30,7-59.38,16.81-90.23,19.78-15.74,1.51-31.35.64-46.37-4.93a43.21,43.21,0,0,1-8.75-4.4c-10.89-7.18-12-17.29-2.81-26.66,6.67-6.84,15.08-11.1,23.81-14.48C714.51,673.69,744.35,666.48,775.59,666.14Z" transform="translate(-1.33 -1.41)"/><path class="b" d="M1213.93,647.56c-1.42,7-6.18,11.8-11.33,16.22-13.08,11.23-27.69,20.22-42.82,28.32-18.27,9.77-36.82,19-57.82,21.38-6.32.72-12.51.07-18-3.6-8.73-5.82-9.6-13.93-2.44-21.68a38.36,38.36,0,0,1,10.11-7.86c30.55-16.29,61.85-30.83,95.37-40.06,6.41-1.76,13-1.31,19.57-.64C1210.92,640.08,1214.38,642.07,1213.93,647.56Z" transform="translate(-1.33 -1.41)"/><path class="b" d="M730.49,549.17c6.24,1.06,11.94,1.05,16.63,4.64,4,3,4,5.58-.8,7.62a24.66,24.66,0,0,1-16.3.78c-4.25-1.13-9.39-2.81-9.11-7.59C721.24,549,727.66,550.88,730.49,549.17Z" transform="translate(-1.33 -1.41)"/></svg>