<svg xmlns="http://www.w3.org/2000/svg" viewBox="0 0 1367.1 769.1"><defs><style>.a{fill:#ffffff;}.b{fill:#41c7f6;}</style></defs><title>1800f_00021</title><path class="a" d="M1367.52,358.2v80.44c-2.82-.82-4.85,1.08-7,2.23-38.5,20.78-75.67,43.68-110.88,69.71-27.23,20.14-46.64,45.86-57.05,78.26-4.4,13.7-8.8,27.44-14,40.83-17.68,45.07-22.68,91.91-20.5,139.85h-809a198.11,198.11,0,0,0-45.44-59.11c-37.07-32.78-81-51.84-128.44-63.85-10-2.54-20.22-4.67-29.81-8.71-10.65-4.48-11.58-9.33-3.32-17.22,6.43-6.15,14-10.81,21.47-15.54,15.81-10,32.33-18.86,47.45-30,20.17-14.81,36.37-32.31,38.9-58.76,1.23-12.88.67-25.79-.12-38.66-2.42-39,3.71-76.17,23.8-110.2,19.91-33.72,35.75-69.12,45.69-107,2.19-8.33,3.85-16.82,1.7-25.44-2.21-8.8-7.54-12.06-16.37-10-7.51,1.77-14,5.77-20.17,10.22-13.37,9.62-24.92,21.41-37.69,31.74-16.1,13-31.42,27.17-50.58,35.85-16.5,7.47-30.19,4.8-42.73-8.15-13.37-13.82-14.76-30.6-11-48.11,7.23-33.82,7.17-67.13-3.9-100.25-8.66-25.89-16.47-52.06-25-78a108.1,108.1,0,0,0-8.35-18.65C101,42.12,94.69,37.58,85.28,38.93c-6.49.94-13,1.65-19.58,2.11-22.55,1.56-44.1-.42-61-18a12.35,12.35,0,0,0-3.15-1.77c0-6.58-2.57-15.72.72-19s12.43-.72,19-.72H74.37A153.7,153.7,0,0,0,97.82,24.81a11.68,11.68,0,0,0,9.25,2.66A168.31,168.31,0,0,0,171.51,1.52H933.43C933,3.8,934.64,5.29,935.67,7a1371.87,1371.87,0,0,0,78.46,114.36c24,31.35,47.25,63.15,61.38,100.56A34.17,34.17,0,0,0,1088.86,239c17.65,11.2,24,27.74,23.92,47.76q-.13,35.26.17,70.53a111.69,111.69,0,0,0,1.69,19.59c2.12,11.32,7.55,13.78,17.87,8.5a108.24,108.24,0,0,0,11.57-7.2c8.77-6,17.33-12.34,26.93-16.94,55.35-26.5,111.81-37.75,171-12.44C1350.33,352.36,1358.51,356.46,1367.52,358.2ZM706.27,471.69c16.87-1.25,35.15,2,53.05,8.14a259.32,259.32,0,0,0,35.06,9.6c19.23,3.7,38.57,6,57.63-.77,17.72-6.3,22.43-19.05,11.52-34.14-13.91-19.24-28.36-38.2-45.76-54.53-18.23-17.1-39.87-24-64.8-21-24.05,2.88-46.6,11.29-69.37,18.71C670.34,402,659.89,411.08,651.27,422c-16.58,21-11.07,38.53,14.56,46.56,2.88.9,5.89,1.38,8.85,2C684.45,472.57,694.34,471.54,706.27,471.69Zm-1.3,134c21.16-.59,40.27-6.87,56.09-21.31,12.39-11.31,11.64-28.77-2.65-37.47-37.47-22.8-72.69-5.32-87.34,33.07-3.11,8.16.75,15.33,8.36,19.88C687.29,604.52,695.94,605.85,705,605.64Zm411.8-71.57c.37-7.77-3.11-14-10.18-18.36-8.64-5.33-17.93-5.8-26.77-1.68-21,9.8-34.55,26.67-41.61,48.46-4.76,14.67,5,24.93,20.43,22.36,20.12-3.36,36.18-13.66,48.94-29.14C1112.52,549.71,1116.87,543,1116.77,534.07Zm-77.4-234.6c-.14-2.44.68-5.32-2-6.87-3-1.74-6-.55-8.54,1.13-13.27,8.63-21.57,20.95-26.23,35.87a13.41,13.41,0,0,0-.33,5.25c.5,4.75,2.77,6.74,7.72,4.92C1021.5,335.54,1038.75,312,1039.37,299.47Z" transform="translate(-0.56 -0.57)"/><path class="b" d="M1.52,21.25A12.35,12.35,0,0,1,4.67,23c16.93,17.6,38.48,19.58,61,18,6.55-.46,13.09-1.17,19.58-2.11,9.41-1.35,15.68,3.19,19.9,10.77a108.1,108.1,0,0,1,8.35,18.65c8.51,25.94,16.32,52.11,25,78,11.07,33.12,11.13,66.43,3.9,100.25-3.74,17.51-2.35,34.29,11,48.11,12.54,13,26.23,15.62,42.73,8.15,19.16-8.68,34.48-22.84,50.58-35.85,12.77-10.33,24.32-22.12,37.69-31.74,6.19-4.45,12.66-8.45,20.17-10.22,8.83-2.08,14.16,1.18,16.37,10,2.15,8.62.49,17.11-1.7,25.44-9.94,37.93-25.78,73.33-45.69,107-20.09,34-26.22,71.21-23.8,110.2.79,12.87,1.35,25.78.12,38.66-2.53,26.45-18.73,44-38.9,58.76-15.12,11.09-31.64,20-47.45,30-7.48,4.73-15,9.39-21.47,15.54-8.26,7.89-7.33,12.74,3.32,17.22,9.59,4,19.77,6.17,29.81,8.71,47.43,12,91.37,31.07,128.44,63.85a198.11,198.11,0,0,1,45.44,59.11q-170.74,0-341.5.14c-5.2,0-6.22-1-6.22-6.22Q1.63,392.35,1.52,21.25Z" transform="translate(-0.56 -0.57)"/><path class="b" d="M1367.52,358.2c-9-1.74-17.19-5.84-25.5-9.39-59.2-25.31-115.66-14.06-171,12.44-9.6,4.6-18.16,11-26.93,16.94a108.24,108.24,0,0,1-11.57,7.2c-10.32,5.28-15.75,2.82-17.87-8.5A111.69,111.69,0,0,1,1113,357.3q-.35-35.26-.17-70.53c.07-20-6.27-36.56-23.92-47.76a34.17,34.17,0,0,1-13.35-17.13c-14.13-37.41-37.38-69.21-61.38-100.56A1371.87,1371.87,0,0,1,935.67,7c-1-1.67-2.64-3.16-2.24-5.44h83.48c1.92,28,27.69,41.76,50.94,27.27,10.54-6.57,17.16-16.13,21.91-27.27H1246.1c1.59,2.79,4.6,3.84,7,5.58,8.79,6.38,17.42,12.87,24.6,21.15,12.59,14.55,13.71,32.44,15.5,50.34,4.9,49,29.55,84.18,74.31,105.06Z" transform="translate(-0.56 -0.57)"/><path class="b" d="M1158.06,769.52c-2.18-47.94,2.82-94.78,20.5-139.85,5.25-13.39,9.65-27.13,14-40.83,10.41-32.4,29.82-58.12,57.05-78.26,35.21-26,72.38-48.93,110.88-69.71,2.13-1.15,4.16-3.05,7-2.23q0,162.4.14,324.8c0,5.2-1,6.24-6.21,6.22C1293.65,769.44,1225.86,769.52,1158.06,769.52Z" transform="translate(-0.56 -0.57)"/><path class="a" d="M1367.52,183.65c-44.76-20.88-69.41-56.08-74.31-105.06-1.79-17.9-2.91-35.79-15.5-50.34-7.18-8.28-15.81-14.77-24.6-21.15-2.41-1.74-5.42-2.79-7-5.58h118.38a72.14,72.14,0,0,0,3,18.21Z" transform="translate(-0.56 -0.57)"/><path class="a" d="M1089.76,1.52c-4.75,11.14-11.37,20.7-21.91,27.27-23.25,14.49-49,.75-50.94-27.27Z" transform="translate(-0.56 -0.57)"/><path class="b" d="M171.51,1.52a168.31,168.31,0,0,1-64.44,26,11.68,11.68,0,0,1-9.25-2.66A153.7,153.7,0,0,1,74.37,1.52Z" transform="translate(-0.56 -0.57)"/><path class="b" d="M1367.52,19.73a72.14,72.14,0,0,1-3-18.21c1.49.12,3.34-.84,3.13,2.28C1367.26,9.09,1367.52,14.42,1367.52,19.73Z" transform="translate(-0.56 -0.57)"/><path class="b" d="M706.27,471.69c-11.93-.15-21.82.88-31.59-1.14-3-.61-6-1.09-8.85-2-25.63-8-31.14-25.58-14.56-46.56,8.62-10.92,19.07-20,32.33-24.28C706.37,390.3,728.92,381.89,753,379c24.93-3,46.57,3.88,64.8,21,17.4,16.33,31.85,35.29,45.76,54.53,10.91,15.09,6.2,27.84-11.52,34.14-19.06,6.78-38.4,4.47-57.63.77a259.32,259.32,0,0,1-35.06-9.6C741.42,473.69,723.14,470.44,706.27,471.69Z" transform="translate(-0.56 -0.57)"/><path class="b" d="M705,605.64c-9,.21-17.68-1.12-25.54-5.83-7.61-4.55-11.47-11.72-8.36-19.88,14.65-38.39,49.87-55.87,87.34-33.07,14.29,8.7,15,26.16,2.65,37.47C745.24,598.77,726.13,605.05,705,605.64Z" transform="translate(-0.56 -0.57)"/><path class="b" d="M1116.77,534.07c.1,9-4.25,15.64-9.19,21.64-12.76,15.48-28.82,25.78-48.94,29.14-15.38,2.57-25.19-7.69-20.43-22.36,7.06-21.79,20.56-38.66,41.61-48.46,8.84-4.12,18.13-3.65,26.77,1.68C1113.66,520.06,1117.14,526.3,1116.77,534.07Z" transform="translate(-0.56 -0.57)"/><path class="b" d="M1039.36,299.48c-.61,12.5-17.86,36.06-29.35,40.29-5,1.82-7.22-.17-7.72-4.92a13.41,13.41,0,0,1,.33-5.25c4.66-14.92,13-27.24,26.23-35.87,2.59-1.68,5.55-2.87,8.54-1.13C1040.05,294.15,1039.23,297,1039.36,299.48Z" transform="translate(-0.56 -0.57)"/></svg>