<svg xmlns="http://www.w3.org/2000/svg" viewBox="0 0 1943.05 1093.09"><defs><style>.a{fill:#ffffff;}.b{fill:#41c7f6;}</style></defs><title>1800f_00293</title><path class="a" d="M1655.9,757.37c0,55.91-.1,111.81.14,167.72,0,5.69-1.28,7-7,7q-735-.22-1470-.14c5.11-32,11.91-63.61,24.79-93.56,8.45-19.65,18.64-38.24,35.23-52.43,12.88-11,27.41-16.64,44.75-13.69,16.8,2.87,30.87,11.09,43.47,21.89,25.24,21.64,52.28,40.15,85.16,47.76,43.55,10.09,87.75,14.25,132.43,10.88,21-1.58,39.46-8.94,52.21-26.77,16.87-23.61,16.72-48.77,4.86-74-18.83-40.15-51.93-64.6-92.33-79.71-70.06-26.19-141.58-27-213.21-8-39.38,10.4-78.54,19-119.54,14.3-17.9-2.06-35.57-4.8-51.58-13.89-6.93-3.93-12.52-9.33-13.92-17.13-4-22.19,2.44-50.22,30.93-59.36,6.48-2.07,13.08-3.89,19.74-5.31C187,577.48,212.54,575,237,567.35c44.66-13.9,82.21-39.62,116.64-70.39,44.14-39.47,80.31-84.74,101-141,16.76-45.49,22.94-93.13,27.89-140.93,5.1-49.3,10.08-98.58,23.58-146.49C511.67,49,507.73,32,495.2,16a707.55,707.55,0,0,0-53.79-60.69C431-55.22,418.33-62.06,403.51-63.85c-40.45-4.89-75.5,7.57-105,35-22.86,21.27-34.77,49.39-45,78.13-15.14,42.44-23.74,86.74-36,130-22.55,79.3-55.78,153.16-107.83,217.23C81.1,431.61,65,470,63.44,514.81c-.67,19.53-10.26,31.64-29.5,35.88-2.71.59-5.37,1.44-8.06,2.14C10.26,557-5.7,560-20.68,566.28c-12.7,5.34-20.77,14.42-23.55,28.41-3.14,15.72-.16,30.7,4.06,45.58,7.68,27.15,4.47,52.91-8.4,77.89-7.76,15-16.14,29.78-22.82,45.39-16.73,39.06-5.72,68.69,32.7,86.7,14.48,6.78,30,10.56,45.3,15C30.2,872,53.93,878.52,74,893.72c12.64,9.61,21,21.74,21.67,38.2H-286.86v-516c5.1,2.18,9.88-.77,14.82-1.1,18.65-1.27,36.69,2.76,54.85,5.67,20.28,3.26,40.53,5.92,60.77,0,18.15-5.31,34.21-14.94,50-25,17.59-11.15,34.39-23.36,44.72-42.16,14.11-25.68,11.2-52.3-24.42-59.69-16-3.32-32.12-3.14-48.27-3-10.63.09-21.2-.13-31.63-2.49-30.35-6.86-53.74-24.82-74.52-46.86-14.77-15.66-26.85-33.48-39.89-50.52-1.74-2.26-2.8-5.47-6.44-5.62q0-169.6-.15-339.22c0-5.69,1.29-7,7-7q634.05.22,1268.1.14c-13.88,11.54-29.77,19.41-47.64,21.07-32.52,3-62,13.49-88.9,31.88-3.12,2.14-6.58,3.78-9.8,5.78C810-82.56,776.52-82.93,742.34-93.89c-27.67-8.87-55.15-18.35-82.74-27.48a122,122,0,0,0-29-5.65c-18.57-1.45-29.33,9.66-37.53,24.43-21.22,38.18-34.62,79.67-50.68,120-4.09,10.28-1.89,20.17,3.76,29.68,11.95,20.14,27,37.81,42.54,55.14,18.07,20.15,36.34,40.09,48.44,64.77,5.16,10.52,14.26,16.83,25.62,19.79,15.18,3.95,30.57,3.3,46,2.12,38.11-2.92,75.48-10.84,113.16-16.67,18-2.79,35.95-5.6,54.14-6.25,23.35-.83,44,7.58,63.8,19a529.61,529.61,0,0,0,71.07,34c26.08,10.29,52.87,19.2,77.15,33.46,67.13,39.43,133.27,80.58,203.16,115.17,10.63,5.26,20.87,11.4,29.3,20.05,7.75,8,9.43,17,4.83,27.14-3.71,8.18-9.29,15-15.45,21.42-11.63,12.13-25.33,21.72-38.76,31.61-25.21,18.55-46.58,40.62-60.81,68.68-17.28,34.08-36.8,66.88-55.45,100.19-8.67,15.48-15.37,31.77-17.55,49.72-2.94,24.27,14,46,38.42,48.39a72.23,72.23,0,0,0,30.55-3.89c28.69-9.65,54-25.67,77.33-44.25,40.81-32.43,83.82-60.74,132.55-80.07,17.21-6.83,32.68-17,44.42-32,15.42-19.76,20.14-43.15,23.8-67,2.76-18,5-36.1,13.66-52.56,8.89-16.95,20.62-18.9,34.25-5.7,11.4,11,19.52,24.43,27.28,38.08,14.16,24.88,24.43,51.63,36.9,77.33a631.13,631.13,0,0,1,50.85,150.45C1650.23,729.27,1651.4,743.66,1655.9,757.37Z" transform="translate(287.01 161.03)"/><path class="b" d="M1655.9,757.37c-4.5-13.71-5.67-28.1-8.52-42.14a631.13,631.13,0,0,0-50.85-150.45c-12.47-25.7-22.74-52.45-36.9-77.33-7.76-13.65-15.88-27-27.28-38.08-13.63-13.2-25.36-11.25-34.25,5.7-8.63,16.46-10.9,34.59-13.66,52.56-3.66,23.88-8.38,47.27-23.8,67-11.74,15.05-27.21,25.21-44.42,32-48.73,19.33-91.74,47.64-132.55,80.07-23.38,18.58-48.64,34.6-77.33,44.25a72.23,72.23,0,0,1-30.55,3.89c-24.38-2.43-41.36-24.12-38.42-48.39,2.18-17.95,8.88-34.24,17.55-49.72,18.65-33.31,38.17-66.11,55.45-100.19,14.23-28.06,35.6-50.13,60.81-68.68,13.43-9.89,27.13-19.48,38.76-31.61,6.16-6.42,11.74-13.24,15.45-21.42,4.6-10.14,2.92-19.18-4.83-27.14-8.43-8.65-18.67-14.79-29.3-20.05-69.89-34.59-136-75.74-203.16-115.17-24.28-14.26-51.07-23.17-77.15-33.46a529.61,529.61,0,0,1-71.07-34c-19.77-11.44-40.45-19.85-63.8-19-18.19.65-36.17,3.46-54.14,6.25C784.26,178.11,746.89,186,708.78,189c-15.41,1.18-30.8,1.83-46-2.12-11.36-3-20.46-9.27-25.62-19.79-12.1-24.68-30.37-44.62-48.44-64.77-15.53-17.33-30.59-35-42.54-55.14-5.65-9.51-7.85-19.4-3.76-29.68,16.06-40.37,29.46-81.86,50.68-120,8.2-14.77,19-25.88,37.53-24.43a122,122,0,0,1,29,5.65c27.59,9.13,55.07,18.61,82.74,27.48,34.18,11,67.65,11.33,99.39-8.26,3.22-2,6.68-3.64,9.8-5.78,26.86-18.39,56.38-28.84,88.9-31.88,17.87-1.66,33.76-9.53,47.64-21.07h91.07a21.91,21.91,0,0,0,2.86,3.4c14.71,11.73,27,25.79,39.08,40.09,32.3,38.35,70.31,70.22,111.46,98.57,20.1,13.85,40.57,16.38,62.36,3.62a246.72,246.72,0,0,0,35.06-25c37.4-31.72,60.78-70.45,61.84-120.7q129,0,258-.15c5.2,0,6.22,1,6.22,6.22Q1655.8,301.28,1655.9,757.37Z" transform="translate(287.01 161.03)"/><path class="b" d="M95.62,931.92c-.67-16.46-9-28.59-21.67-38.2-20-15.2-43.75-21.72-67.34-28.51-15.3-4.4-30.82-8.18-45.3-15-38.42-18-49.43-47.64-32.7-86.7,6.68-15.61,15.06-30.35,22.82-45.39,12.87-25,16.08-50.74,8.4-77.89-4.22-14.88-7.2-29.86-4.06-45.58,2.78-14,10.85-23.07,23.55-28.41,15-6.3,30.94-9.33,46.56-13.45,2.69-.7,5.35-1.55,8.06-2.14,19.24-4.24,28.83-16.35,29.5-35.88C65,470,81.1,431.61,109.6,396.52c52.05-64.07,85.28-137.93,107.83-217.23,12.31-43.26,20.91-87.56,36-130,10.26-28.74,22.17-56.86,45-78.13,29.5-27.44,64.55-39.9,105-35,14.82,1.79,27.45,8.63,37.9,19.16A707.55,707.55,0,0,1,495.2,16c12.53,16,16.47,33,11,52.53-13.5,47.91-18.48,97.19-23.58,146.49-4.95,47.8-11.13,95.44-27.89,140.93-20.72,56.27-56.89,101.54-101,141-34.43,30.77-72,56.49-116.64,70.39-24.48,7.62-50,10.13-74.93,15.47-6.66,1.42-13.26,3.24-19.74,5.31-28.49,9.14-34.95,37.17-30.93,59.36,1.4,7.8,7,13.2,13.92,17.13,16,9.09,33.68,11.83,51.58,13.89,41,4.72,80.16-3.9,119.54-14.3,71.63-18.92,143.15-18.15,213.21,8,40.4,15.11,73.5,39.56,92.33,79.71,11.86,25.27,12,50.43-4.86,74-12.75,17.83-31.25,25.19-52.21,26.77-44.68,3.37-88.88-.79-132.43-10.88-32.88-7.61-59.92-26.12-85.16-47.76-12.6-10.8-26.67-19-43.47-21.89-17.34-3-31.87,2.67-44.75,13.69-16.59,14.19-26.78,32.78-35.23,52.43C191,868.31,184.21,899.9,179.1,931.92Z" transform="translate(287.01 161.03)"/><path class="b" d="M-286.86,185.17c3.64.15,4.7,3.36,6.44,5.62,13,17,25.12,34.86,39.89,50.52,20.78,22,44.17,40,74.52,46.86,10.43,2.36,21,2.58,31.63,2.49,16.15-.15,32.31-.33,48.27,3,35.62,7.39,38.53,34,24.42,59.69-10.33,18.8-27.13,31-44.72,42.16-15.8,10-31.86,19.65-50,25-20.24,5.9-40.49,3.24-60.77,0-18.16-2.91-36.2-6.94-54.85-5.67-4.94.33-9.72,3.28-14.82,1.1Z" transform="translate(287.01 161.03)"/><path class="a" d="M1391.8-160.88c-1.06,50.25-24.44,89-61.84,120.7a246.72,246.72,0,0,1-35.06,25c-21.79,12.76-42.26,10.23-62.36-3.62-41.15-28.35-79.16-60.22-111.46-98.57-12-14.3-24.37-28.36-39.08-40.09a21.91,21.91,0,0,1-2.86-3.4Z" transform="translate(287.01 161.03)"/></svg>