<svg xmlns="http://www.w3.org/2000/svg" viewBox="0 0 1943.8 1093.82"><defs><style>.a{fill:#ffffff;}.b{fill:#41c7f6;}</style></defs><title>1800f_00204</title><path class="a" d="M-286.86,658.72V255c20.23,9.63,35.76,24.33,47,43.63,10.56,18.15,22,35.64,35.74,51.66,18.8,21.88,39.94,41.55,59,63.16,12.58,14.27,24.39,29.13,31.57,47,5.78,14.33,9.09,29.42,12.7,44.4,2.18,9.05,3.33,18.4,7.44,26.91,4.34,9,7.86,10.69,17.48,8.78,16.81-3.35,33.31-8.47,50.53-9.39,29.19-1.57,57.05,2.07,80.6,21.69,30.13,25.1,48.06,57.55,56.6,95.34,5.4,23.89,6,48.63,12.08,72.46,4.58,18,10,35.55,21.3,50.67,12.91,17.31,29.06,16.29,39.56-2.47a86.64,86.64,0,0,0,8.7-24.17c8-36.75,4.84-73.39-5.92-108.65C172,585.08,165.2,533.44,165.86,480.5q.4-32.61-1.65-65.19c-1.32-21.09-5.38-41.58-14.22-60.93-17-37.13-46.3-61.3-82.45-78C51.73,269,35.17,263.34,19.36,256c-21.1-9.78-22.23-26.86-2.84-39.61C32.37,206,49.69,201.93,68.58,206.11A63.44,63.44,0,0,0,91.9,207c15.08-2.25,28.74-8.14,41.4-16.14,43.86-27.71,88.89-53.13,136.08-74.86,38.34-17.66,71-43.46,99.16-75A1579.06,1579.06,0,0,0,484.75-104.76c12.91-18.4,26.23-36.54,37.37-56.12H699.7c3.39,4.52,8.36,7.23,12.5,10.9,15.94,14.14,31.77,28.31,39.49,49.09,4.92,13.22,6.08,27.12,7.07,40.94,1.67,23.45,13,39.77,34.1,49.77A160.36,160.36,0,0,0,821.37,0C864.28,11.14,907.63,8.11,951,3.88c30.73-3,60.66-10.86,91.13-15.39,26.25-3.91,52.59-7,77.72-16.26,15.87-5.89,31.86-11.5,48-16.55,17.76-5.56,36-8.74,54.52-4.43,15.89,3.7,21.91,12.09,20.83,28.41a65.83,65.83,0,0,1-2.39,14.16,224.21,224.21,0,0,0-8.49,75.72,170.89,170.89,0,0,1-1.87,37.8,81,81,0,0,0-.55,26.44c8.54,52.42,18.3,104.61,39.61,153.7,10.68,24.61,22.51,48.72,42.28,67.76,15.51,14.94,28.93,17,48.2,7.67,13.71-6.63,26.12-15.41,39-23.37,27.18-16.78,55.22-19.38,84.73-6.9a354.82,354.82,0,0,1,92.93,57.94c25.92,22.19,51.66,44.6,79.24,64.76V746.75c-12,15.31-24.39,30.24-37.71,44.43-39.83,42.41-85.13,78.12-133.41,110.31-14.24,9.49-28.8,18.63-41.37,30.43H-268.65c14.86-45.81,39.71-86.06,68.77-124,30.54-39.87,58.17-81.5,75.31-129.16,10-27.73,16.71-56.17,16.07-85.9-.24-11-5.65-14.38-15.84-10.24-3,1.24-6,2.54-9,4-26.65,13-51.52,29-76,45.59C-232.78,648.09-257.72,659.49-286.86,658.72Zm1264-455.25c0-18.17-7.5-24.26-20.27-21.28-21.1,4.92-35.24,18.79-46,36.75A38.89,38.89,0,0,0,905,238.27c-.27,13.94,8.1,20.38,21.61,16.66,16.36-4.51,28.32-15.15,38.59-28C971.94,218.58,977,209.35,977.18,203.47Z" transform="translate(287.74 161.02)"/><path class="b" d="M522.12-160.88c-11.14,19.58-24.46,37.72-37.37,56.12A1579.06,1579.06,0,0,1,368.54,41.07c-28.2,31.51-60.82,57.31-99.16,75-47.19,21.73-92.22,47.15-136.08,74.86-12.66,8-26.32,13.89-41.4,16.14a63.44,63.44,0,0,1-23.32-.93c-18.89-4.18-36.21-.13-52.06,10.29C-2.87,229.15-1.74,246.23,19.36,256c15.81,7.33,32.37,13,48.18,20.34,36.15,16.73,65.49,40.9,82.45,78,8.84,19.35,12.9,39.84,14.22,60.93q2,32.55,1.65,65.19C165.2,533.44,172,585.08,187.52,636c10.76,35.26,13.89,71.9,5.92,108.65a86.64,86.64,0,0,1-8.7,24.17c-10.5,18.76-26.65,19.78-39.56,2.47-11.28-15.12-16.72-32.69-21.3-50.67-6.08-23.83-6.68-48.57-12.08-72.46-8.54-37.79-26.47-70.24-56.6-95.34C31.65,533.17,3.79,529.53-25.4,531.1c-17.22.92-33.72,6-50.53,9.39-9.62,1.91-13.14.2-17.48-8.78-4.11-8.51-5.26-17.86-7.44-26.91-3.61-15-6.92-30.07-12.7-44.4-7.18-17.83-19-32.69-31.57-47-19.06-21.61-40.2-41.28-59-63.16-13.76-16-25.18-33.51-35.74-51.66-11.24-19.3-26.77-34-47-43.63q0-204.78-.17-409.55c0-5.81,1.61-6.44,6.74-6.44Q120.92-160.8,522.12-160.88Z" transform="translate(287.74 161.02)"/><path class="b" d="M1655.9,455.34c-27.58-20.16-53.32-42.57-79.24-64.76a354.82,354.82,0,0,0-92.93-57.94c-29.51-12.48-57.55-9.88-84.73,6.9-12.89,8-25.3,16.74-39,23.37-19.27,9.32-32.69,7.27-48.2-7.67-19.77-19-31.6-43.15-42.28-67.76-21.31-49.09-31.07-101.28-39.61-153.7a81,81,0,0,1,.55-26.44,170.89,170.89,0,0,0,1.87-37.8,224.21,224.21,0,0,1,8.49-75.72,65.83,65.83,0,0,0,2.39-14.16c1.08-16.32-4.94-24.71-20.83-28.41-18.56-4.31-36.76-1.13-54.52,4.43-16.14,5-32.13,10.66-48,16.55-25.13,9.31-51.47,12.35-77.72,16.26C1011.66-7,981.73.88,951,3.88,907.63,8.11,864.28,11.14,821.37,0a160.36,160.36,0,0,1-28.51-10.19c-21.11-10-32.43-26.32-34.1-49.77-1-13.82-2.15-27.72-7.07-40.94C744-121.67,728.14-135.84,712.2-150c-4.14-3.67-9.11-6.38-12.5-10.9q474.67,0,949.37-.14c5.69,0,7.07,1.26,7,7-.37,23.52-.15,47.05-.15,70.57-4.76.61-9.53,1.1-14.27,1.83-21.81,3.37-43.31,7.84-62,20.49-12.21,8.25-19.65,19.4-19.27,34.8s6.4,29,13.72,42.05c17.16,30.62,36.5,59.92,55.35,89.51,7,10.94,14.34,22,26.48,28.37Z" transform="translate(287.74 161.02)"/><path class="b" d="M-286.86,658.72c29.14.77,54.08-10.63,77.52-26.55,24.48-16.62,49.35-32.6,76-45.59,3-1.43,6-2.73,9-4,10.19-4.14,15.6-.8,15.84,10.24.64,29.73-6.11,58.17-16.07,85.9-17.14,47.66-44.77,89.29-75.31,129.16-29.06,38-53.91,78.2-68.77,124-6.07,0-14.51,2.37-17.54-.67s-.67-11.47-.67-17.55Z" transform="translate(287.74 161.02)"/><path class="b" d="M1443.41,931.92c12.57-11.8,27.13-20.94,41.37-30.43,48.28-32.19,93.58-67.9,133.41-110.31,13.32-14.19,25.73-29.12,37.71-44.43,0,60-.07,119.9.12,179.86,0,4.52-.91,5.45-5.44,5.43Q1547,931.77,1443.41,931.92Z" transform="translate(287.74 161.02)"/><path class="a" d="M1655.9,133.57c-12.14-6.36-19.51-17.43-26.48-28.37-18.85-29.59-38.19-58.89-55.35-89.51-7.32-13-13.35-26.65-13.72-42s7.06-26.55,19.27-34.8c18.7-12.65,40.2-17.12,62-20.49,4.74-.73,9.51-1.22,14.27-1.83Z" transform="translate(287.74 161.02)"/><path class="b" d="M977.18,203.47c-.15,5.88-5.24,15.11-12,23.5-10.27,12.81-22.23,23.45-38.59,28-13.51,3.72-21.88-2.72-21.61-16.66A38.89,38.89,0,0,1,911,218.94c10.72-18,24.86-31.83,46-36.75C969.68,179.21,977.18,185.3,977.18,203.47Z" transform="translate(287.74 161.02)"/></svg>