<svg xmlns="http://www.w3.org/2000/svg" viewBox="0 0 1366.3 768.29"><defs><style>.a{fill:#ffffff;}.b{fill:#41c7f6;}</style></defs><title>1800f_00056</title><path class="a" d="M1367.52,441.68v74.37a25.28,25.28,0,0,0-5.18.45c-28.59,8.44-57.32,16.43-85.38,26.56-19,6.87-37.49,14.94-54.58,26.08-22.17,14.46-33,34.32-32.64,61,.27,18.74,3.35,37.24,3.38,56,0,27.8-.09,55.61-.15,83.42H306.59c-1.72-1-3.36-2.22-5.16-3.09-46.46-22.52-95.72-35-146.81-41-11-1.29-22.17-2.07-32.86-5.32-3.28-1-7.4-1.88-8-6.08s2.94-6.33,6-8c5.54-3,11.13-6.15,17.07-8.15,52.55-17.69,97.95-47.39,141.12-81.51,39.87-31.52,55.29-72.35,52.46-122-1.5-26.28-4.59-52.36-7.31-78.48-1.66-15.86-5-31.3-19.52-41-16.52-11.09-30.35-25.12-44.07-39.28-11.28-11.64-22.72-23-36.82-31.32a64.67,64.67,0,0,1-25.62-27.22c-16.74-33.47-33.51-66.92-49.88-100.57C133.5,148.37,122.38,119,107.8,91.18,103.46,82.9,98.38,75,94.37,66.55c-4.9-10.28-1.87-15.43,9.57-16.15a188.32,188.32,0,0,1,27.29.19c29.92,2.5,59.1-.67,87.3-11,22.53-8.23,43.28-19.49,59.22-38.09H901.56c8.25,14.12,19.92,25.28,31.75,36.24,22,20.32,46.6,37.26,70.59,54.92,50.64,37.28,89.28,84.6,120.28,138.77,14,24.4,18.86,51.55,24.77,78.42,6.83,31,16.1,61.05,34.6,87.51C1199.34,420,1220.24,434,1247.91,437c19.09,2.07,38.21,3.65,57.47,3.55C1326.09,440.41,1346.84,439.59,1367.52,441.68Zm-516,92.85c28.73.32,46.07-26.86,34.45-52.49-15.84-34.92-65.82-50.89-98.58-31.19a247.39,247.39,0,0,1-47.79,22.66,111.49,111.49,0,0,0-19.36,8.55c-8.18,4.68-8.43,10.53-1.4,16.91A36.55,36.55,0,0,0,740,508.29c32.16,3.23,62.71,12.7,93.09,23C839.3,533.43,845.74,534.75,851.47,534.53Zm-64.38,147.2c8.46.25,16.63-.81,24.34-4.57,19.07-9.31,23-27.47,9.37-43.6-22.34-26.45-59.34-30.89-87.21-10.48-18.68,13.68-18.32,30.69,1.19,43C750.71,676.16,768.31,681,787.09,681.73Z" transform="translate(-1.37 -1.37)"/><path class="b" d="M277.75,1.52c-15.94,18.6-36.69,29.86-59.22,38.09-28.2,10.31-57.38,13.48-87.3,11a188.32,188.32,0,0,0-27.29-.19c-11.44.72-14.47,5.87-9.57,16.15,4,8.43,9.09,16.35,13.43,24.63,14.58,27.79,25.7,57.19,39.42,85.38,16.37,33.65,33.14,67.1,49.88,100.57a64.67,64.67,0,0,0,25.62,27.22c14.1,8.29,25.54,19.68,36.82,31.32,13.72,14.16,27.55,28.19,44.07,39.28,14.48,9.72,17.86,25.16,19.52,41,2.72,26.12,5.81,52.2,7.31,78.48,2.83,49.61-12.59,90.44-52.46,122-43.17,34.12-88.57,63.82-141.12,81.51-5.94,2-11.53,5.14-17.07,8.15-3.05,1.66-6.55,3.83-6,8s4.68,5.09,8,6.08c10.69,3.25,21.83,4,32.86,5.32,51.09,6,100.35,18.45,146.81,41,1.8.87,3.44,2.05,5.16,3.09q-149.5,0-299,.14c-5.2,0-6.24-1-6.22-6.22.22-66.78.15-133.56.15-200.34,5.3-8.54,7.05-18.28,8.81-27.86,5.82-31.75,3.89-63.75,2.13-95.68-.78-14.13-3.28-28-10.94-40.38q0-195.8-.15-391.59c0-5.2,1-6.23,6.22-6.22Q142.67,1.69,277.75,1.52Z" transform="translate(-1.37 -1.37)"/><path class="b" d="M1367.52,441.68c-20.68-2.09-41.43-1.27-62.14-1.17-19.26.1-38.38-1.48-57.47-3.55-27.67-3-48.57-17-64.36-39.58-18.5-26.46-27.77-56.47-34.6-87.51-5.91-26.87-10.8-54-24.77-78.42-31-54.17-69.64-101.49-120.28-138.77-24-17.66-48.64-34.6-70.59-54.92-11.83-11-23.5-22.12-31.75-36.24h349.09c12.84,13.57,25.84,27,38.47,40.77,11.85,12.9,17.53,27.85,15.25,45.79-1.49,11.79-3.86,23.4-5.84,35.08-6.62,39,1.41,74.31,27,104.92,7,8.34,15.43,14.37,27.41,13.46,5.11-.38,9.34-3.87,14.55-3.25Z" transform="translate(-1.37 -1.37)"/><path class="b" d="M1193,769.52c.06-27.81.19-55.62.15-83.42,0-18.71-3.11-37.21-3.38-56-.39-26.69,10.47-46.55,32.64-61,17.09-11.14,35.53-19.21,54.58-26.08,28.06-10.13,56.79-18.12,85.38-26.56a25.28,25.28,0,0,1,5.18-.45q0,123.69.15,247.39c0,5.2-1,6.25-6.22,6.23C1305.29,769.43,1249.13,769.52,1193,769.52Z" transform="translate(-1.37 -1.37)"/><path class="a" d="M1367.52,238.29c-5.21-.62-9.44,2.87-14.55,3.25-12,.91-20.44-5.12-27.41-13.46-25.62-30.61-33.65-65.9-27-104.92,2-11.68,4.35-23.29,5.84-35.08,2.28-17.94-3.4-32.89-15.25-45.79-12.63-13.77-25.63-27.2-38.47-40.77,37.18,0,74.37.1,111.55-.13,4.54,0,5.45.92,5.44,5.44Q1367.39,122.57,1367.52,238.29Z" transform="translate(-1.37 -1.37)"/><path class="a" d="M1.52,399.18c7.66,12.37,10.16,26.25,10.94,40.38,1.76,31.93,3.69,63.93-2.13,95.68-1.76,9.58-3.51,19.32-8.81,27.86Z" transform="translate(-1.37 -1.37)"/><path class="b" d="M851.47,534.53c-5.73.22-12.17-1.1-18.4-3.22-30.38-10.32-60.93-19.79-93.09-23A36.55,36.55,0,0,1,718.79,499c-7-6.38-6.78-12.23,1.4-16.91a111.49,111.49,0,0,1,19.36-8.55,247.39,247.39,0,0,0,47.79-22.66c32.76-19.7,82.74-3.73,98.58,31.19C897.54,507.67,880.2,534.85,851.47,534.53Z" transform="translate(-1.37 -1.37)"/><path class="b" d="M787.09,681.73c-18.78-.7-36.38-5.57-52.31-15.64-19.51-12.32-19.87-29.33-1.19-43,27.87-20.41,64.87-16,87.21,10.48,13.63,16.13,9.7,34.29-9.37,43.6C803.72,680.92,795.55,682,787.09,681.73Z" transform="translate(-1.37 -1.37)"/></svg>