<svg xmlns="http://www.w3.org/2000/svg" viewBox="0 0 1943.08 1093.09"><defs><style>.a{fill:#ffffff;}.b{fill:#41c7f6;}</style></defs><title>1800f_00109</title><path class="a" d="M1308.32,931.92H941c-2.55-3.48-6.6-4.51-10.27-6-22.37-8.91-45.91-11.37-69.7-12.22a307,307,0,0,0-115.82,18.2q-512.62,0-1025.26.14c-5.69,0-7-1.28-7-7q.24-410.19.14-820.36c4.79-.14,9.6,0,14.37-.45,53.09-4.48,106-4.11,158.76,4.49,22.24,3.62,44.7,5.89,67.16,1.86a817.63,817.63,0,0,1,86.4-11.12c28.48-2,56.91-4.54,84.71-11.75,34.69-9,65.32-26.84,96.41-43.73,39.13-21.26,78.93-41.13,121.2-55.49,19.17-6.51,38.76-12.13,59.37-8.1,9.89,1.94,19.44,5.68,29.35,7.38C460.74-7,491-3.75,520.58,2.53c61.3,13,123.25,14.66,185.52,14,36.37-.36,72.79-1.68,109.15,1.24,53.94,4.35,104.25,21.15,152.41,45,14.39,7.12,27,16.93,36.75,29.93,28.85,38.42,35.58,82.22,31.49,128.73-1.52,17.36-2.94,34.78-.79,52.21,2.37,19.22,6.38,37.94,18.13,54,8.37,11.41,19.13,14.22,32,8.42,7.21-3.23,13.5-7.92,19.43-13.1,26.93-23.51,50.63-50.25,74.25-76.87,25.75-29,41.21-63.45,44.74-102.55,2.34-26,.8-52.05.89-78.08.09-24.44-7.14-32.4-31.23-36.45-1-.16-2-.17-3-.33-26.36-4.36-51.67-12-75.43-24.37-16.29-8.45-25-21.71-24-40.47,2.21-40.24,16-76.27,39.68-108.73,4-5.45,9.87-9.39,12.28-16h129c.36,16.68.34,33.3-2.39,49.89-5,30.16-13.6,59.57-16.91,90.11-3.07,28.35,3.06,39.07,30.54,46.51.48.13,1,.18,1.48.3,18.41,4.5,36.76,9.28,55.26,13.41S1374,52.9,1387.51,66.05c11.09,10.77,21,22.56,31,34.37,46.28,54.88,61.45,118.82,55.72,189-1.85,22.66-4.93,45.27-4.61,68.06.73,53,7,105.38,15.79,157.53,6.24,37.15,17.32,72.74,36.43,105.52,22.6,38.78,56.55,65.56,93.94,88.62,12.85,7.93,25.8,15.81,40.17,20.9V887.9c-15.9,2.1-31.7.72-47.52-1-13.66-1.49-26.29-7.24-39.72-9.4-64.35-10.35-127.87-5.26-190.23,12.57C1351.76,897.69,1328.25,912.2,1308.32,931.92Zm-1031.18-.74c21.45-1.76,51.1-4.74,80.58-9,25.65-3.74,43-18.78,53.92-41.8,14.63-30.71,17.61-62.94,9.18-95.44-12.24-47.22-27.86-93.48-44.7-139.27-8.45-23-17.81-45.69-29.85-67.14-2.35-4.17-4.55-8.82-10.44-8.6s-7.85,4.89-10,9.17c-6.53,12.89-10.48,26.8-15.62,40.25-7.31,19.13-14.06,38.7-27.3,54.71-17.6,21.27-41.32,28.45-62.24,11.91A142.28,142.28,0,0,1,202.28,669a355,355,0,0,0-33.51-32.89C153,622.48,136.24,610.36,116,604.18c-15-4.59-24.26,2.52-24.43,18.25a37.2,37.2,0,0,0,2.24,13.37c10,27.37,25.81,51.35,43.59,74.14,8.23,10.54,16.81,20.8,25.16,31.24,16.71,20.9,21.85,45.54,23.16,71.47,1,20.25-2.52,40.35-1.61,60.58.94,21,10.55,36.41,29,46.35C230.54,929,249.37,931.67,277.14,931.18ZM73.25,398.78a212.81,212.81,0,0,0-3-50.54A268.14,268.14,0,0,0,13.05,225.18c-14.31-17.43-29.21-34.35-50.34-44-14.82-6.75-29.49-7.38-42.75,3.52-10.88,8.94-15,21.37-15.33,35-1.91,70.54,19.63,135,52.82,195.91,15.18,27.82,35.94,52,63.44,69.07,17.89,11.13,30.26,6.83,38.43-12.64C69.14,448.61,72,423.85,73.25,398.78Z" transform="translate(287.01 161.03)"/><path class="b" d="M1142.89-160.88c-2.41,6.61-8.31,10.55-12.28,16-23.68,32.46-37.47,68.49-39.68,108.73-1,18.76,7.71,32,24,40.47,23.76,12.33,49.07,20,75.43,24.37,1,.16,2,.17,3,.33,24.09,4.05,31.32,12,31.23,36.45-.09,26,1.45,52.09-.89,78.08-3.53,39.1-19,73.54-44.74,102.55-23.62,26.62-47.32,53.36-74.25,76.87-5.93,5.18-12.22,9.87-19.43,13.1-12.92,5.8-23.68,3-32-8.42-11.75-16-15.76-34.77-18.13-54-2.15-17.43-.73-34.85.79-52.21,4.09-46.51-2.64-90.31-31.49-128.73-9.77-13-22.36-22.81-36.75-29.93C919.5,39,869.19,22.16,815.25,17.81c-36.36-2.92-72.78-1.6-109.15-1.24-62.27.62-124.22-1-185.52-14C491-3.75,460.74-7,430.87-12.18c-9.91-1.7-19.46-5.44-29.35-7.38-20.61-4-40.2,1.59-59.37,8.1C299.88,2.9,260.08,22.77,221,44c-31.09,16.89-61.72,34.73-96.41,43.73C96.74,95,68.31,97.49,39.83,99.51a817.63,817.63,0,0,0-86.4,11.12c-22.46,4-44.92,1.76-67.16-1.86-52.75-8.6-105.67-9-158.76-4.49-4.77.4-9.58.31-14.37.45q0-129.39-.15-258.78c0-5.69,1.29-7,7-7Q431.43-160.8,1142.89-160.88Z" transform="translate(287.01 161.03)"/><path class="b" d="M1655.9,730.05c-14.37-5.09-27.32-13-40.17-20.9-37.39-23.06-71.34-49.84-93.94-88.62-19.11-32.78-30.19-68.37-36.43-105.52-8.76-52.15-15.06-104.57-15.79-157.53-.32-22.79,2.76-45.4,4.61-68.06,5.73-70.18-9.44-134.12-55.72-189-10-11.81-19.86-23.6-31-34.37-13.54-13.15-29-22.55-47.63-26.71s-36.85-8.91-55.26-13.41c-.49-.12-1-.17-1.48-.3-27.48-7.44-33.61-18.16-30.54-46.51,3.31-30.54,11.94-59.95,16.91-90.11,2.73-16.59,2.75-33.21,2.39-49.89q189,0,377.92-.15c5.2,0,6.46,1,6.23,6.23-.5,11.61-.15,23.26-.15,34.9-18,9.57-31.78,23.79-43.17,40.39-7.22,10.53-12.32,22.07-12.73,35.1-.89,28.05,25.64,60.54,55.9,68.7Z" transform="translate(287.01 161.03)"/><path class="b" d="M1308.32,931.92c19.93-19.72,43.44-34.23,70.11-41.87,62.36-17.83,125.88-22.92,190.23-12.57,13.43,2.16,26.06,7.91,39.72,9.4,15.82,1.74,31.62,3.12,47.52,1,0,12.9-.26,25.81.13,38.7.14,4.55-.92,5.45-5.45,5.44q-160.87-.24-321.77-.12Z" transform="translate(287.01 161.03)"/><path class="a" d="M1655.9,24.29c-30.26-8.16-56.79-40.65-55.9-68.7.41-13,5.51-24.57,12.73-35.1,11.39-16.6,25.14-30.82,43.17-40.39Z" transform="translate(287.01 161.03)"/><path class="b" d="M745.23,931.92a307,307,0,0,1,115.82-18.2c23.79.85,47.33,3.31,69.7,12.22,3.67,1.47,7.72,2.5,10.27,6Z" transform="translate(287.01 161.03)"/><path class="b" d="M277.14,931.18c-27.77.49-46.6-2.22-64-11.6-18.46-9.94-28.07-25.38-29-46.35-.91-20.23,2.63-40.33,1.61-60.58-1.31-25.93-6.45-50.57-23.16-71.47-8.35-10.44-16.93-20.7-25.16-31.24-17.78-22.79-33.58-46.77-43.59-74.14a37.2,37.2,0,0,1-2.24-13.37c.17-15.73,9.42-22.84,24.43-18.25,20.24,6.18,37,18.3,52.77,31.94A355,355,0,0,1,202.28,669a142.28,142.28,0,0,0,18.37,16.91c20.92,16.54,44.64,9.36,62.24-11.91,13.24-16,20-35.58,27.3-54.71,5.14-13.45,9.09-27.36,15.62-40.25,2.17-4.28,4.22-8.95,10-9.17s8.09,4.43,10.44,8.6c12,21.45,21.4,44.14,29.85,67.14,16.84,45.79,32.46,92,44.7,139.27,8.43,32.5,5.45,64.73-9.18,95.44-11,23-28.27,38.06-53.92,41.8C328.24,926.44,298.59,929.42,277.14,931.18Z" transform="translate(287.01 161.03)"/><path class="b" d="M73.25,398.78c-1.25,25.07-4.11,49.83-13.93,73.27-8.17,19.47-20.54,23.77-38.43,12.64-27.5-17.1-48.26-41.25-63.44-69.07-33.19-60.86-54.73-125.37-52.82-195.91.37-13.61,4.45-26,15.33-35,13.26-10.9,27.93-10.27,42.75-3.52,21.13,9.62,36,26.54,50.34,44A268.14,268.14,0,0,1,70.23,348.24,212.81,212.81,0,0,1,73.25,398.78Z" transform="translate(287.01 161.03)"/></svg>