<svg xmlns="http://www.w3.org/2000/svg" viewBox="0 0 1943.14 1093.1"><defs><style>.a{fill:#ffffff;}.b{fill:#41c7f6;}</style></defs><title>1800f_00306</title><path class="a" d="M-286.86,292.93q0-223.48-.14-447c0-5.69,1.28-7,7-7q916.37.22,1832.72.14c-.43,2.42.88,4.41,1.66,6.51a506.74,506.74,0,0,1,21.1,71.92c14.21,68,23.37,136.87,34.72,205.36,7.09,42.78,21.19,82.53,45.73,118.42V513c-6-7.55-8.82-16.65-10.46-25.7-6.84-37.6-27.19-66.22-56.63-89.52-23.65-18.72-48.65-35.31-74.32-51.09-54.24-33.34-111.71-54.25-176.6-49.3-12.36.94-24.71-.81-36.91-3-26.53-4.76-42.61-18.62-45.23-41.11-2.09-17.91,3.8-34.58,13.48-49.52a79.79,79.79,0,0,0,13.33-48c-1.38-33.07-13.49-62.48-30.73-90.07-10.32-16.52-21.36-32.63-37-44.78-7.82-6.1-12.2-5.49-19.23,1.22C1185.37,31.91,1181,45,1176.19,57.71c-8.35,22-9.72,45.31-12,68.43-5.57,55.48-62.17,76.36-97,68.26-23.05-5.36-37.63-20.79-48.31-40.64-5.26-9.78-9.28-20.23-14.45-30.06-8.11-15.39-20.52-25.49-38-28.49-16.64-2.85-33.23-1.76-49.76,1.15-22,3.88-42.94,11.53-64.57,16.69-27.68,6.59-53,2.23-76.71-13.44A299.36,299.36,0,0,1,742,73.4C728,61,714.75,47.71,699.69,36.59c-21.29-15.72-32.71-12.4-42.78,12-17,41.39-20.37,84.24-12.7,128.05,10.11,57.71,35.24,108.86,69.09,156.1a68.67,68.67,0,0,0,11.78,12.8c16.17,13.54,35.66,18.6,55.78,21.88,38.69,6.32,77.92,7.54,116.84,11.81,35.85,3.93,66.09,15.3,90.59,43.93,30.73,35.91,70.78,58.05,117.62,67.47,24.81,5,49.81,8.47,74.87,11.69,65.07,8.36,127.4,27.23,188.87,49.29,10.69,3.83,21,9,29,17.56,9.48,10.09,8.68,21-2.32,29.25a70.68,70.68,0,0,1-11,6.62c-10.44,5.18-21.47,8.92-32.53,12.5-23.57,7.63-47.26,14.88-69.27,26.61-38.52,20.53-73.6,46.29-108.93,71.65-25.94,18.62-53.32,33.9-85.28,39.43-23.18,4-46.66,5.41-70,8.05-22.4,2.53-44.46,6.38-65.74,14.21-27.22,10-50.38,26.79-72.9,44.32-27.56,21.46-57.41,33.42-93.14,31.39-33.59-1.91-67.14,2.22-100.63,5.26-34,3.09-68.05,4.66-102.26,2.53-33.55-2.09-67-6.37-100.63-6.54-51.48-.26-100-11.9-146.36-34.26-43.29-20.86-86.6-41.64-129.35-63.57-14.86-7.63-29.92-14.72-46.5-18.07-18.58-3.75-33.41.29-44.85,16.82-16.16,23.35-35.59,43.9-57.44,62.2C28.62,843.44-4,867-35,892.57c-15.16,12.5-31.25,24-43.87,39.35H-233.74c-8.86-12.45-20.9-18.45-36.16-17.07-5.71.52-11.31,2.24-17,3.41V783.18c3.73-.52,6.19-3.26,9-5.29,18.78-13.54,34.36-30.39,49.72-47.56,13.41-15,25.79-30.37,32.49-49.74,11.08-32,8.33-64.19,2-96.52-4.95-25.08-13.68-49.19-18.91-74.16-14.29-68.27-34.35-134.63-64.23-197.81C-279.9,305.59-281.85,298.44-286.86,292.93ZM319.35,657.4a211.17,211.17,0,0,0,69.22-14c34-13.28,65.57-31.52,97.26-49.43C540.42,563.13,582,520.6,604.32,461c9.68-25.87,15.84-52.23,11.83-80.09-3.2-22.22-11.57-42.87-19.42-63.68-11.14-29.53-20.41-59.89-37.69-86.75-13.09-20.35-27.45-39.6-49.81-50.77-16.41-8.19-29.9-4.26-40,11C460.51,204,456,219.08,452.39,234.3,434.5,309.63,403.86,380,368.48,448.35c-19.54,37.76-44.83,71.37-78,98.72-12.08,10-22.88,21.4-31,35.1-12.1,20.43-9.49,41.54,7.74,57.83C281.34,653.29,298.69,657.59,319.35,657.4Z" transform="translate(287.1 161.04)"/><path class="b" d="M-78.92,931.92C-66.3,916.57-50.21,905.07-35,892.57c31-25.58,63.67-49.13,94.51-75,21.85-18.3,41.28-38.85,57.44-62.2,11.44-16.53,26.27-20.57,44.85-16.82,16.58,3.35,31.64,10.44,46.5,18.07,42.75,21.93,86.06,42.71,129.35,63.57,46.39,22.36,94.88,34,146.36,34.26,33.64.17,67.08,4.45,100.63,6.54,34.21,2.13,68.25.56,102.26-2.53,33.49-3,67-7.17,100.63-5.26,35.73,2,65.58-9.93,93.14-31.39,22.52-17.53,45.68-34.29,72.9-44.32,21.28-7.83,43.34-11.68,65.74-14.21,23.34-2.64,46.82-4,70-8.05,32-5.53,59.34-20.81,85.28-39.43,35.33-25.36,70.41-51.12,108.93-71.65,22-11.73,45.7-19,69.27-26.61,11.06-3.58,22.09-7.32,32.53-12.5a70.68,70.68,0,0,0,11-6.62c11-8.29,11.8-19.16,2.32-29.25-8-8.53-18.28-13.73-29-17.56-61.47-22.06-123.8-40.93-188.87-49.29-25.06-3.22-50.06-6.7-74.87-11.69-46.84-9.42-86.89-31.56-117.62-67.47-24.5-28.63-54.74-40-90.59-43.93-38.92-4.27-78.15-5.49-116.84-11.81-20.12-3.28-39.61-8.34-55.78-21.88a68.67,68.67,0,0,1-11.78-12.8c-33.85-47.24-59-98.39-69.09-156.1-7.67-43.81-4.35-86.66,12.7-128,10.07-24.44,21.49-27.76,42.78-12C714.75,47.71,728,61,742,73.4a299.36,299.36,0,0,0,33.34,26.21c23.68,15.67,49,20,76.71,13.44,21.63-5.16,42.61-12.81,64.57-16.69,16.53-2.91,33.12-4,49.76-1.15,17.49,3,29.9,13.1,38,28.49,5.17,9.83,9.19,20.28,14.45,30.06,10.68,19.85,25.26,35.28,48.31,40.64,34.82,8.1,91.42-12.78,97-68.26,2.32-23.12,3.69-46.4,12-68.43,4.83-12.75,9.18-25.8,19.45-35.61,7-6.71,11.41-7.32,19.23-1.22,15.6,12.15,26.64,28.26,37,44.78,17.24,27.59,29.35,57,30.73,90.07a79.79,79.79,0,0,1-13.33,48c-9.68,14.94-15.57,31.61-13.48,49.52,2.62,22.49,18.7,36.35,45.23,41.11,12.2,2.19,24.55,3.94,36.91,3,64.89-4.95,122.36,16,176.6,49.3,25.67,15.78,50.67,32.37,74.32,51.09,29.44,23.3,49.79,51.92,56.63,89.52,1.64,9.05,4.49,18.15,10.46,25.7V787.73a11.51,11.51,0,0,1-2.68-1.23c-18-14.73-37.36-15.65-58.19-6.56-23.7,10.35-41.1,28.24-57.33,47.33-21.62,25.42-43.88,50.1-69.3,71.88-12.23,10.49-24.89,20.61-35.62,32.77Z" transform="translate(287.1 161.04)"/><path class="b" d="M-286.86,292.93c5,5.51,7,12.66,10,19.17,29.88,63.18,49.94,129.54,64.23,197.81,5.23,25,14,49.08,18.91,74.16,6.37,32.33,9.12,64.49-2,96.52-6.7,19.37-19.08,34.75-32.49,49.74-15.36,17.17-30.94,34-49.72,47.56-2.82,2-5.28,4.77-9,5.29Z" transform="translate(287.1 161.04)"/><path class="b" d="M1655.9,241.33c-24.54-35.89-38.64-75.64-45.73-118.42-11.35-68.49-20.51-137.35-34.72-205.36a506.74,506.74,0,0,0-21.1-71.92c-.78-2.1-2.09-4.09-1.66-6.51,32.38,0,64.76.15,97.13-.16,5.21-.05,6.23,1,6.22,6.23Q1655.77,43.27,1655.9,241.33Z" transform="translate(287.1 161.04)"/><path class="a" d="M1432.78,931.92c10.73-12.16,23.39-22.28,35.62-32.77,25.42-21.78,47.68-46.46,69.3-71.88,16.23-19.09,33.63-37,57.33-47.33,20.83-9.09,40.19-8.17,58.19,6.56a11.51,11.51,0,0,0,2.68,1.23c0,46.29-.09,92.58.12,138.87,0,4.53-.91,5.46-5.44,5.44Q1541.68,931.77,1432.78,931.92Z" transform="translate(287.1 161.04)"/><path class="b" d="M-286.86,918.26c5.65-1.17,11.25-2.89,17-3.41,15.26-1.38,27.3,4.62,36.16,17.07-15.93,0-31.88-.22-47.8.13-4.55.1-6.1-.89-5.4-5.46C-286.52,923.88-286.86,921-286.86,918.26Z" transform="translate(287.1 161.04)"/><path class="b" d="M319.35,657.4c-20.66.19-38-4.11-52.07-17.4-17.23-16.29-19.84-37.4-7.74-57.83,8.1-13.7,18.9-25.13,31-35.1,33.13-27.35,58.42-61,78-98.72,35.38-68.38,66-138.72,83.91-214,3.61-15.22,8.12-30.31,16.89-43.63,10.05-15.27,23.54-19.2,40-11C531.59,190.83,546,210.08,559,230.43c17.28,26.86,26.55,57.22,37.69,86.75,7.85,20.81,16.22,41.46,19.42,63.68,4,27.86-2.15,54.22-11.83,80.09C582,520.6,540.42,563.13,485.83,594c-31.69,17.91-63.24,36.15-97.26,49.43A211.17,211.17,0,0,1,319.35,657.4Z" transform="translate(287.1 161.04)"/></svg>