<svg xmlns="http://www.w3.org/2000/svg" viewBox="0 0 1943.03 1093.1"><defs><style>.a{fill:#41c7f6;}.b{fill:#ffffff;}</style></defs><title>1800f_00227</title><path class="a" d="M1455.55-160.88q97.52,0,195-.13c4.53,0,5.45.91,5.44,5.44q-.26,135.46-.12,270.92a6.81,6.81,0,0,1-2.09-.64c-28.75-20.3-60.76-34-93.64-45.78a72.78,72.78,0,0,0-27.5-4.64c-17.46.69-28.61,10.1-34.93,25.75-6.17,15.28-2.82,30.59,8.71,41.81,10.13,9.86,22.93,13.83,36.41,15.17,39.19,3.88,77-1.58,113-18V340c-10,12.7-16,27.4-21,42.51-10.79,32.88-8.36,66.42-4,99.94,3.59,27.9,11.53,54.94,16.82,82.5,3.5,18.23,3.48,36.07-4.46,53.5-7.35,16.1-13.78,32.61-20.76,48.88-8.68,20.22-17,40.56-29.63,58.86-10.22,14.86-24.1,20-41.47,17.14a132.7,132.7,0,0,1-27.6-8.12c-15.07-6-29.51-13.32-43.86-20.8-53.41-27.84-88.52-70.61-99.87-130-10.32-54-23.45-107.17-38.22-160-12.53-44.87-18.31-90.1-9.29-136.47,4.16-21.38,11-42.09,15.25-63.42,5.84-29.57-6.53-45.12-36.64-46.69-1.51-.08-3-.13-4.55-.1-50.12,1-88.54,24.95-120.3,61.64-8.65,10-13,22.06-14.55,35.25-3.24,27.65-8,55-15.38,81.92-6.71,24.44-10,49.52-12.14,74.78-3.14,37-.31,73.87,4.34,110.5,4.08,32.15-6.63,56.45-33.9,73.68-13.9,8.78-27.89,17.42-41.59,26.49-41.91,27.74-71.27,66.16-93,110.8-15.53,31.85-15.43,66.08-14,100.38,1.12,26.27,2.48,52.53,3.74,78.8H856a145.38,145.38,0,0,1-11-30.62c-9-40.74-2.59-80,12-118.26,6.3-16.52,14.1-32.47,20.75-48.87,12.44-30.71,13.8-61.86,2.93-93.41-6-17.54-14.57-33.89-23.11-50.26-6.44-12.32-13.22-24.48-17.64-37.76q-10.44-31.37,10.27-57a177.77,177.77,0,0,1,13.2-14.64c18.89-18.79,40-34.86,61.72-50.21,23.73-16.81,48.85-31.59,72.06-49.15,14.33-10.85,28.57-21.92,38.56-37.23,8.31-12.74,5.65-22.94-7.58-30.34-8.44-4.72-17.68-7.48-26.79-10.52-28.1-9.37-56-19.28-81.23-35.2q-33.37-21-66.46-42.51c-16.75-10.93-32.94-22.62-47-37a84.5,84.5,0,0,1-23.92-48c-2.51-17.34-1.87-34.83-2.88-52.24-1.43-24.43-5.26-48.34-17.58-70-12.14-21.36-26.75-26.18-48-13.95C683.83,22.2,656.08,43.93,635,72c-20,26.64-42.55,49.68-72,64.84C529.68,154,511.26,180.25,505.18,217a286.65,286.65,0,0,1-23.9,76.55c-24.18,50.76-62.72,82.05-119.55,89.07a512.44,512.44,0,0,0-94.63,21.06c-17.32,5.59-34.85,10.53-52.4,15.37C169,431.66,121.85,436.6,75.1,443.49c-33.79,5-67.59,9.51-101.93,7.74-50.12-2.58-92.25-22.94-127.77-57.54-18.45-18-21.41-36.75-11-60.23a127.14,127.14,0,0,1,19.07-30C-88.78,234.77-23.74,174.64,55,130.36c18.28-10.28,36.48-20.81,52.56-34.51C126.14,80,136.18,60.3,135.35,35.43,135,23.78,134,12.21,132.72.65c-3.09-27.64-7.27-55.2-5.45-83.16,1.45-22.15,8.44-41.91,24-58.34a275.79,275.79,0,0,1,21.72-20h36.42c12.36,10,22,22.22,30.46,35.54,13.73,21.62,24.64,44.69,35.38,67.88C290-25.83,308,3.61,332.81,28.47c8.26,8.29,17.34,15.53,28.3,20.05,14.5,6,25.93,3,35.74-9.22C402.29,32.51,406,24.73,409,16.65c9.74-26.15,15.95-53.29,21.77-80.48C434.86-83.08,429-99.9,415-113.67c-5.74-5.67-12-10.8-18.28-15.93-12.49-10.24-26-19.28-37-31.28H969.86c12.58,16.14,24.77,32.6,37.8,48.36,36.13,43.69,77.53,80.9,129.59,105.1,50.23,23.35,102,33.58,157,21,11.85-2.71,23.61-5.77,34.87-10.29,39.17-15.71,78.62-30.45,119.3-42,23.39-6.64,30-17.51,30.41-41.89.48-26.06-7.54-49.71-20.09-72.14C1457.29-155.28,1454.47-157.37,1455.55-160.88Z" transform="translate(286.99 161.04)"/><path class="b" d="M173-160.88a275.79,275.79,0,0,0-21.72,20c-15.6,16.43-22.59,36.19-24,58.34-1.82,28,2.36,55.52,5.45,83.16C134,12.21,135,23.78,135.35,35.43c.83,24.87-9.21,44.56-27.82,60.42C91.45,109.55,73.25,120.08,55,130.36-23.74,174.64-88.78,234.77-146.48,303.45a127.14,127.14,0,0,0-19.07,30c-10.46,23.48-7.5,42.26,11,60.23,35.52,34.6,77.65,55,127.77,57.54C7.51,453,41.31,448.48,75.1,443.49c46.75-6.89,93.86-11.83,139.6-24.44,17.55-4.84,35.08-9.78,52.4-15.37a512.44,512.44,0,0,1,94.63-21.06c56.83-7,95.37-38.31,119.55-89.07A286.65,286.65,0,0,0,505.18,217c6.08-36.75,24.5-63,57.76-80.12C592.44,121.72,615,98.68,635,72c21.09-28.11,48.84-49.84,79.3-67.36,21.27-12.23,35.88-7.41,48,14,12.32,21.66,16.15,45.57,17.58,70,1,17.41.37,34.9,2.88,52.24a84.5,84.5,0,0,0,23.92,48c14,14.4,30.24,26.09,47,37q33,21.57,66.46,42.51c25.24,15.92,53.13,25.83,81.23,35.2,9.11,3,18.35,5.8,26.79,10.52,13.23,7.4,15.89,17.6,7.58,30.34-10,15.31-24.23,26.38-38.56,37.23-23.21,17.56-48.33,32.34-72.06,49.15-21.7,15.35-42.83,31.42-61.72,50.21a177.77,177.77,0,0,0-13.2,14.64q-20.67,25.62-10.27,57c4.42,13.28,11.2,25.44,17.64,37.76,8.54,16.37,17.06,32.72,23.11,50.26,10.87,31.55,9.51,62.7-2.93,93.41C871.1,750.57,863.3,766.52,857,783c-14.58,38.27-21,77.52-12,118.26a145.38,145.38,0,0,0,11,30.62H-33.39c1-3.14,2.07-6.24,2.91-9.41,10.83-41,26.43-80.08,48.1-116.66,5-8.47,9.17-17.47,14.25-25.9C65.19,724.63,77.22,663.26,84.2,600.22c3.43-31.06-7.67-53.81-33.44-70.9C4.49,498.63-45,485.2-100.48,496.74c-28.49,5.94-57.41,9.72-86.63,6.36-33.69-3.87-66.66-11.78-99.75-18.93q0-319.28-.13-638.54c0-5.3.87-6.68,6.51-6.67Q-53.72-160.74,173-160.88ZM462.75,889.87c-.33-11.25-5.66-25.69-12.24-39.7C434,815,411.67,783.37,389.44,751.72c-9-12.85-18.66-25.2-30.16-36-5.75-5.37-11.87-10.31-19.44-12.91-8.64-3-14.56-.86-19.64,6.65a39.76,39.76,0,0,0-5.53,14c-3.28,15.07-2.67,30.2.37,45.17,10.9,53.63,41.15,95.4,81.21,131,9.1,8.07,19.12,14.93,30.62,19.35C448.85,927.45,463,917.79,462.75,889.87Z" transform="translate(286.99 161.04)"/><path class="b" d="M969.86,931.92c-1.26-26.27-2.62-52.53-3.74-78.8-1.47-34.3-1.57-68.53,14-100.38,21.74-44.64,51.1-83.06,93-110.8,13.7-9.07,27.69-17.71,41.59-26.49,27.27-17.23,38-41.53,33.9-73.68-4.65-36.63-7.48-73.46-4.34-110.5,2.15-25.26,5.43-50.34,12.14-74.78,7.39-26.92,12.14-54.27,15.38-81.92,1.55-13.19,5.9-25.26,14.55-35.25,31.76-36.69,70.18-60.66,120.3-61.64,1.52,0,3,0,4.55.1,30.11,1.57,42.48,17.12,36.64,46.69-4.21,21.33-11.09,42-15.25,63.42-9,46.37-3.24,91.6,9.29,136.47,14.77,52.85,27.9,106,38.22,160,11.35,59.4,46.46,102.17,99.87,130,14.35,7.48,28.79,14.81,43.86,20.8a132.7,132.7,0,0,0,27.6,8.12c17.37,2.85,31.25-2.28,41.47-17.14,12.58-18.3,21-38.64,29.63-58.86,7-16.27,13.41-32.78,20.76-48.88,7.94-17.43,8-35.27,4.46-53.5-5.29-27.56-13.23-54.6-16.82-82.5-4.31-33.52-6.74-67.06,4-99.94,5-15.11,11-29.81,21-42.51q0,292.56.14,585.11c0,5.69-1.28,7-7,7Q1309.46,931.81,969.86,931.92Z" transform="translate(286.99 161.04)"/><path class="a" d="M-286.86,484.17c33.09,7.15,66.06,15.06,99.75,18.93,29.22,3.36,58.14-.42,86.63-6.36,55.43-11.54,105,1.89,151.24,32.58,25.77,17.09,36.87,39.84,33.44,70.9-7,63-19,124.41-52.33,179.73-5.08,8.43-9.23,17.43-14.25,25.9C-4,842.43-19.65,881.48-30.48,922.51c-.84,3.17-1.93,6.27-2.91,9.41h-179.1l3.38-8.43c15.54-38.72,30.11-77.78,43-117.47A157.89,157.89,0,0,0-160,778.68c4.26-31-6.49-51.29-34.89-64.33-28.83-13.24-60-19.61-89.82-30.1-.62-.22-1.45.17-2.19.27Z" transform="translate(286.99 161.04)"/><path class="b" d="M1455.55-160.88c-1.08,3.51,1.74,5.6,3.14,8.1,12.55,22.43,20.57,46.08,20.09,72.14-.45,24.38-7,35.25-30.41,41.89-40.68,11.56-80.13,26.3-119.3,42-11.26,4.52-23,7.58-34.87,10.29-55,12.61-106.72,2.38-157-21-52.06-24.2-93.46-61.41-129.59-105.1-13-15.76-25.22-32.22-37.8-48.36Z" transform="translate(286.99 161.04)"/><path class="b" d="M359.71-160.88c11,12,24.52,21,37,31.28,6.25,5.13,12.54,10.26,18.28,15.93,14,13.77,19.86,30.59,15.74,49.84-5.82,27.19-12,54.33-21.77,80.48-3,8.08-6.68,15.86-12.12,22.65-9.81,12.24-21.24,15.19-35.74,9.22-11-4.52-20-11.76-28.3-20.05C308,3.61,290-25.83,275.29-57.46c-10.74-23.19-21.65-46.26-35.38-67.88-8.45-13.32-18.1-25.58-30.46-35.54Z" transform="translate(286.99 161.04)"/><path class="b" d="M-286.86,684.52c.74-.1,1.57-.49,2.19-.27,29.79,10.49,61,16.86,89.82,30.1,28.4,13,39.15,33.35,34.89,64.33A157.89,157.89,0,0,1-166.13,806c-12.87,39.69-27.44,78.75-43,117.47l-3.38,8.43c-23,0-46-.16-69.06.13-4.53.06-5.45-.92-5.44-5.44Q-286.72,805.56-286.86,684.52Z" transform="translate(286.99 161.04)"/><path class="b" d="M1655.9,129c-36,16.43-73.85,21.89-113,18-13.48-1.34-26.28-5.31-36.41-15.17-11.53-11.22-14.88-26.53-8.71-41.81,6.32-15.65,17.47-25.06,34.93-25.75a72.78,72.78,0,0,1,27.5,4.64c32.88,11.81,64.89,25.48,93.64,45.78a6.81,6.81,0,0,0,2.09.64Z" transform="translate(286.99 161.04)"/><path class="a" d="M462.75,889.87c.21,27.92-13.9,37.58-35.88,29.15-11.5-4.42-21.52-11.28-30.62-19.35-40.06-35.56-70.31-77.33-81.21-131-3-15-3.65-30.1-.37-45.17a39.76,39.76,0,0,1,5.53-14c5.08-7.51,11-9.62,19.64-6.65,7.57,2.6,13.69,7.54,19.44,12.91,11.5,10.75,21.13,23.1,30.16,36C411.67,783.37,434,815,450.51,850.17,457.09,864.18,462.42,878.62,462.75,889.87Z" transform="translate(286.99 161.04)"/></svg>