<svg xmlns="http://www.w3.org/2000/svg" viewBox="0 0 1943.11 1093.41"><defs><style>.a{fill:#ffffff;}.b{fill:#41c7f6;}</style></defs><title>1800f_00137</title><path class="a" d="M1655.9,142.67V368.82c-3.61,5.57-5.12,12-7.59,18.06-22.46,55-48.2,108.56-68.49,164.45-16.23,44.71-27.51,90.35-28.54,138.17-1.11,51.22,8.34,100.53,26.08,148.44,13.51,36.5,30.26,70.73,63.36,94h-1917c-10.62,0-10.62,0-10.62-10.63,1.93-.53,2.54-2.33,3.52-3.75,15.47-22.18,30.7-44.54,46.45-66.53,34.66-48.38,47.62-101.59,38.64-160.69a460.72,460.72,0,0,1,4.06-160.63c5.08-25.36,10.62-50.54,6-76.55-7.63-43.22-27-79.78-62.67-106.33-10.51-7.82-22.49-13.43-36-14.41V253.47c8.48-1.27,17-2.45,25.44-3.84,37.65-6.16,75-14.21,113.28-16,42.17-2,84.34-4.39,126.54-5.37,68.53-1.58,136.88-5.69,205.2-11,35.59-2.79,68.44-12.3,96.92-34.85,14.66-11.61,29.78-22.69,45.15-33.34,18.73-13,39.17-21.28,62.62-18.34,18.45,2.32,35.26,9.65,50.26,20.14,39.05,27.3,79.34,52.38,122.83,72,19.77,8.93,38.64,20,60.12,24.92,34,7.8,67.91,4.16,101.72-1,29-4.46,57.82-10.24,87.31-8.12,23.72,1.71,47.42,3.56,71.19,2.27a479.61,479.61,0,0,1,88.52,3.64c37.16,4.87,72.7,15.06,105.52,33.69,20.9,11.86,32.09,30,35.4,53.55,3.4,24.16,1.17,48-4.37,71.49-8.2,34.81-2.91,66.69,18,95.87,4.71,6.57,9,13.47,13.66,20.07,19,26.79,40.69,51,68.43,69.16,16.44,10.73,34.27,18.53,54.31,14.69,36.68-7,59.58-31.25,72.51-64.53,12.21-31.41,9.91-64.91,7-97.59-4.67-51.64-1.34-101.83,17.33-150.71,19.6-51.3,41.83-101.42,65.11-151.11,7.38-15.77,15.1-31.5,17.89-49,2.21-13.84-3.56-20.7-17.56-20.67-15.09,0-28.63,5.87-42.09,11.68-29.24,12.62-56.73,29-86.58,40.39-18,6.84-35.87,13.81-54.85,17.43-22,4.19-29.12-3.07-24.26-24.72,1.77-7.89,3.86-15.71,5.37-23.65a53,53,0,0,0-9.36-42.4c-8.74-12.18-19.7-22.37-29.43-33.65-21.64-25.08-25-49.81-7.89-77.15a386.31,386.31,0,0,1,81.49-93.19c1.72-1.42,4.14-2.18,3.92-5h97.13c.68.72,1.22,1.72,2,2.12,18.58,9,34.82,21.37,50.66,34.38,32.32,26.53,65.92,51,105.19,66.64,13.85,5.5,27.68,11,40.85,18.09,12.25,6.55,23.06,14.88,30.15,27,26,44.27,50.49,89.29,64.85,139C1652.23,131.81,1652.64,137.71,1655.9,142.67ZM852.51,466.47c-.26-16.3-.6-31.75-4.8-46.68-1.85-6.57-3.51-14.39-12.26-15.49s-11.93,6.08-16,11.7a11.33,11.33,0,0,0-1.06,2c-12,25.94-24.17,51.77-35.76,77.86-6.72,15.11-11.34,30.84-9.84,47.78,1.06,11.94,10,20.25,21.3,18.68,23.18-3.22,49.7-22.08,54.16-49.3A335.29,335.29,0,0,0,852.51,466.47Z" transform="translate(287 161.03)"/><path class="b" d="M1259.76-160.88c.22,2.87-2.2,3.63-3.92,5a386.31,386.31,0,0,0-81.49,93.19c-17.13,27.34-13.75,52.07,7.89,77.15,9.73,11.28,20.69,21.47,29.43,33.65a53,53,0,0,1,9.36,42.4c-1.51,7.94-3.6,15.76-5.37,23.65-4.86,21.65,2.29,28.91,24.26,24.72,19-3.62,36.88-10.59,54.85-17.43,29.85-11.36,57.34-27.77,86.58-40.39,13.46-5.81,27-11.65,42.09-11.68,14,0,19.77,6.83,17.56,20.67-2.79,17.49-10.51,33.22-17.89,49-23.28,49.69-45.51,99.81-65.11,151.11-18.67,48.88-22,99.07-17.33,150.71,3,32.68,5.26,66.18-7,97.59-12.93,33.28-35.83,57.5-72.51,64.53-20,3.84-37.87-4-54.31-14.69-27.74-18.12-49.41-42.37-68.43-69.16-4.69-6.6-9-13.5-13.66-20.07-20.93-29.18-26.22-61.06-18-95.87,5.54-23.47,7.77-47.33,4.37-71.49-3.31-23.57-14.5-41.69-35.4-53.55-32.82-18.63-68.36-28.82-105.52-33.69a479.61,479.61,0,0,0-88.52-3.64c-23.77,1.29-47.47-.56-71.19-2.27-29.49-2.12-58.35,3.66-87.31,8.12-33.81,5.19-67.69,8.83-101.72,1-21.48-4.93-40.35-16-60.12-24.92-43.49-19.65-83.78-44.73-122.83-72-15-10.49-31.81-17.82-50.26-20.14C364.84,127.72,344.4,136,325.67,149c-15.37,10.65-30.49,21.73-45.15,33.34C252,204.89,219.19,214.4,183.6,217.19c-68.32,5.34-136.67,9.45-205.2,11-42.2,1-84.37,3.35-126.54,5.37-38.24,1.83-75.63,9.88-113.28,16-8.46,1.39-17,2.57-25.44,3.84v-258c23.5-11.53,47.75-20.4,74-23.38,25.72-2.92,50.93,1.08,76.16,4.5,24.42,3.3,45.74-.85,61.87-21.2A142,142,0,0,0-48.63-95.48c5.93-21.47,9.3-43.38,12.2-65.4h21.25C-9.92-148.39-.6-138.6,7-127.68c19.89,28.6,42.66,55.21,59.75,85.76,5.79,10.34,10.13,21.49,17,31.26,13,18.58,29.73,29.56,53.42,24.76,42.17-8.55,68-40.27,67.53-83.08-.3-30.81-1.87-61.68,6.29-91.9H435.6c-.4,2.49-1,5-1.18,7.46-2.17,33.35,6.91,64,22.71,92.93,5.07,9.29,12.89,16.12,22.35,21,18.87,9.69,38.86,10,59.14,6.72,24.14-3.86,46.64-13,69.09-22.19,21.07-8.63,42.27-16.72,65.08-19.57,31.88-4,63.52.28,95.24,2.24,27.23,1.68,54.59,3.4,81.6-1.8,20.8-4,41.26-9.74,62-14,27.69-5.62,55.67-9.86,83.26-15.88,38-8.29,73.19-24.49,108.1-41.11,10.4-5,21.29-9.05,30.77-15.81Z" transform="translate(287 161.03)"/><path class="a" d="M1133.78-160.88c-9.48,6.76-20.37,10.86-30.77,15.81-34.91,16.62-70.1,32.82-108.1,41.11-27.59,6-55.57,10.26-83.26,15.88-20.76,4.22-41.22,10-62,14-27,5.2-54.37,3.48-81.6,1.8-31.72-2-63.36-6.22-95.24-2.24C650-71.71,628.78-63.62,607.71-55c-22.45,9.2-45,18.33-69.09,22.19-20.28,3.23-40.27,3-59.14-6.72-9.46-4.85-17.28-11.68-22.35-21-15.8-28.91-24.88-59.58-22.71-92.93.16-2.5.78-5,1.18-7.46Z" transform="translate(287 161.03)"/><path class="b" d="M-286.86,332.4c13.54,1,25.52,6.59,36,14.41,35.71,26.55,55,63.11,62.67,106.33,4.59,26-1,51.19-6,76.55a460.72,460.72,0,0,0-4.06,160.63c9,59.1-4,112.31-38.64,160.69-15.75,22-31,44.35-46.45,66.53-1,1.42-1.59,3.22-3.52,3.75Z" transform="translate(287 161.03)"/><path class="b" d="M1640.72,931.92c-33.1-23.25-49.85-57.48-63.36-94-17.74-47.91-27.19-97.22-26.08-148.44,1-47.82,12.31-93.46,28.54-138.17,20.29-55.89,46-109.48,68.49-164.45,2.47-6,4-12.49,7.59-18.06q0,277,.21,554c0,7.79-1.52,10.74-9.33,9.17C1644.83,931.58,1642.74,931.92,1640.72,931.92Z" transform="translate(287 161.03)"/><path class="b" d="M1655.9,142.67c-3.26-5-3.67-10.86-5.26-16.36-14.36-49.72-38.84-94.74-64.85-139-7.09-12.07-17.9-20.4-30.15-26.95-13.17-7.05-27-12.59-40.85-18.09-39.27-15.6-72.87-40.11-105.19-66.64-15.84-13-32.08-25.4-50.66-34.38-.83-.4-1.37-1.4-2-2.12q146.47,0,292.93-.15c5.2,0,6.23,1,6.22,6.22Q1655.74-6.07,1655.9,142.67Z" transform="translate(287 161.03)"/><path class="a" d="M-36.43-160.88c-2.9,22-6.27,43.93-12.2,65.4A142,142,0,0,1-74.79-44.63c-16.13,20.35-37.45,24.5-61.87,21.2-25.23-3.42-50.44-7.42-76.16-4.5-26.29,3-50.54,11.85-74,23.38,0-50.25.09-100.49-.14-150.74,0-5,1.39-5.7,5.91-5.7Q-158.76-160.76-36.43-160.88Z" transform="translate(287 161.03)"/><path class="a" d="M211-160.88c-8.16,30.22-6.59,61.09-6.29,91.9.43,42.81-25.36,74.53-67.53,83.08-23.69,4.8-40.41-6.18-53.42-24.76-6.85-9.77-11.19-20.92-17-31.26C49.66-72.47,26.89-99.08,7-127.68c-7.6-10.92-16.92-20.71-22.18-33.2Z" transform="translate(287 161.03)"/><path class="b" d="M852.51,466.47A335.29,335.29,0,0,1,848.23,513c-4.46,27.22-31,46.08-54.16,49.3-11.33,1.57-20.24-6.74-21.3-18.68-1.5-16.94,3.12-32.67,9.84-47.78C794.2,469.78,806.41,444,818.37,418a11.33,11.33,0,0,1,1.06-2c4.09-5.62,7.36-12.8,16-11.7s10.41,8.92,12.26,15.49C851.91,434.72,852.25,450.17,852.51,466.47Z" transform="translate(287 161.03)"/></svg>