<svg xmlns="http://www.w3.org/2000/svg" viewBox="0 0 1943.06 1093.13"><defs><style>.a{fill:#ffffff;}.b{fill:#41c7f6;}</style></defs><title>1800f_00250</title><path class="a" d="M1655.9,320.25V426.5a14.53,14.53,0,0,0-2.94,2.12c-21.39,25.61-43.68,50.47-64,77-30.69,40.11-55.38,83.94-79.86,127.91-8,14.36-16.14,28.71-28.31,40.13-15.06,14.13-30.76,15.51-47.36,4a74.61,74.61,0,0,1-15.69-14.22c-24-29.55-37.23-63.23-35.89-101.38.93-26.45-6.09-49.52-23-69.49-18.61-22-29.09-47.24-34.37-75.58-7-37.54-35.56-56.62-73.13-51.48-19.38,2.65-37.79,9.11-56.65,13.76-27,6.65-54.69,5.73-82.11,7.53-29.19,1.92-57.88,6.13-84.6,18.63-30.84,14.42-58.41,33-76.59,63.05-18.94,31.27-18,65.43,3.77,93.67,14.71,19.09,34.92,30.29,57.57,37.51,34.2,10.89,68.82,8.88,103.61,3.78,15.23-2.23,30.29-6,45.81-5.86,12,.1,16.51,5.08,15.54,17.06-.73,9-4.28,17.09-8.82,24.79-10.5,17.79-24.27,33-38.49,47.72-23.75,24.63-43.68,51.71-56.79,83.55-3.36,8.16-7.59,16-11.75,23.8-3.8,7.15-8.22,13.92-14.14,19.61-7.06,6.78-15.29,9.42-25,7.73-10.3-1.79-20-5.45-29.52-9.49-32.93-13.92-66.19-26.48-102.46-28.5-18.87-1.05-37.4,0-55.21,6.87-20.58,7.91-25.69,22.38-14.81,41.57a65.79,65.79,0,0,0,5,7.58,201.34,201.34,0,0,0,29,29.92c28.69,24.63,59.69,45.79,93.88,62.12H361.23c-2-2.25-5-2.41-7.57-3-17.7-4.17-35.31-9-53.21-12.08-36.28-6.25-65.71-23.68-89.36-51.56-15.21-17.93-30.66-35.67-45.91-53.58C141.66,784.05,116.79,758,85.5,738.76c-37.2-22.84-77-33.64-120.81-28.83-44.3,4.86-86.6,17.41-128.4,32.15-22.4,7.9-43.83,18.49-66.86,24.59-19.43,5.15-26.52-1.92-21.58-21.56,6.11-24.28,18.19-45.32,35.36-63.58,17.77-18.91,39-33.74,58.86-50.11,21.65-17.82,25.72-35.26,13.28-60.11-3.16-6.32-6.78-12.42-10.42-18.48-10.76-18-23.85-34.52-31.76-54.23-18.92-47.14-21.37-96.33-18.88-146.2,1.45-29,9.11-56.33,21.53-82.36,8.38-17.57,17.38-34.84,26.37-52.11,12.27-23.57,24.26-47.16,30.6-73.28,12.49-51.49,12.06-103.22,3.52-155.09-5.84-35.49,4.5-64,33.33-86.19A470,470,0,0,1-21-141.39c12.94-6.73,26.12-13,39.19-19.49q815.09,0,1630.17-.19c6.62,0,7.71,1.62,7.68,7.85-.28,55.12-.16,110.24-.16,165.36-7.44-1.22-14.84-2.73-22.31-3.62-11.7-1.38-20.95-2.28-23,15.9-2.34,20.39-1.14,40.77-.33,61.19a736.33,736.33,0,0,0,24.68,163.6C1641.35,273.06,1646.45,297.3,1655.9,320.25ZM770.6,57.59c-6.89-.25-15.69.69-24.47,1.73-24.83,2.94-49.63,6.14-73.89,12.33-15.13,3.87-21.52,13-19.21,27.85a98.3,98.3,0,0,0,12.15,34.88c13.53,23,35.24,32,60.53,35,42.58,5,86.79-25,97.58-66.53,5.88-22.61-4.47-39-27.32-43.63C788.21,57.65,780.42,57.54,770.6,57.59Z" transform="translate(287 161.07)"/><path class="b" d="M948.61,931.92c-34.19-16.33-65.19-37.49-93.88-62.12a201.34,201.34,0,0,1-29-29.92,65.79,65.79,0,0,1-5-7.58c-10.88-19.19-5.77-33.66,14.81-41.57,17.81-6.84,36.34-7.92,55.21-6.87,36.27,2,69.53,14.58,102.46,28.5,9.55,4,19.22,7.7,29.52,9.49,9.72,1.69,18-1,25-7.73,5.92-5.69,10.34-12.46,14.14-19.61,4.16-7.81,8.39-15.64,11.75-23.8,13.11-31.84,33-58.92,56.79-83.55,14.22-14.74,28-29.93,38.49-47.72,4.54-7.7,8.09-15.78,8.82-24.79,1-12-3.53-17-15.54-17.06-15.52-.15-30.58,3.63-45.81,5.86-34.79,5.1-69.41,7.11-103.61-3.78-22.65-7.22-42.86-18.42-57.57-37.51-21.75-28.24-22.71-62.4-3.77-93.67,18.18-30,45.75-48.63,76.59-63.05,26.72-12.5,55.41-16.71,84.6-18.63,27.42-1.8,55.12-.88,82.11-7.53,18.86-4.65,37.27-11.11,56.65-13.76,37.57-5.14,66.12,13.94,73.13,51.48,5.28,28.34,15.76,53.54,34.37,75.58,16.87,20,23.89,43,23,69.49-1.34,38.15,11.91,71.83,35.89,101.38a74.61,74.61,0,0,0,15.69,14.22c16.6,11.49,32.3,10.11,47.36-4,12.17-11.42,20.31-25.77,28.31-40.13,24.48-44,49.17-87.8,79.86-127.91,20.3-26.52,42.59-51.38,64-77a14.53,14.53,0,0,1,2.94-2.12q0,249.68.14,499.35c0,5.19-1,6.22-6.22,6.21Q1299.22,931.82,948.61,931.92Z" transform="translate(287 161.07)"/><path class="b" d="M18.21-160.88C5.14-154.4-8-148.12-21-141.39A470,470,0,0,0-90.36-96.63c-28.83,22.14-39.17,50.7-33.33,86.19,8.54,51.87,9,103.6-3.52,155.09-6.34,26.12-18.33,49.71-30.6,73.28-9,17.27-18,34.54-26.37,52.11-12.42,26-20.08,53.4-21.53,82.36-2.49,49.87,0,99.06,18.88,146.2,7.91,19.71,21,36.26,31.76,54.23,3.64,6.06,7.26,12.16,10.42,18.48,12.44,24.85,8.37,42.29-13.28,60.11-19.89,16.37-41.09,31.2-58.86,50.11-17.17,18.26-29.25,39.3-35.36,63.58-4.94,19.64,2.15,26.71,21.58,21.56,23-6.1,44.46-16.69,66.86-24.59,41.8-14.74,84.1-27.29,128.4-32.15,43.81-4.81,83.61,6,120.81,28.83,31.29,19.22,56.16,45.29,79.68,72.91,15.25,17.91,30.7,35.65,45.91,53.58,23.65,27.88,53.08,45.31,89.36,51.56,17.9,3.08,35.51,7.91,53.21,12.08,2.62.62,5.55.78,7.57,3q-320.63,0-641.26.14c-5.69,0-7-1.28-7-7q.24-539.58,0-1079.14c0-5.69,1.28-7,7-7Q-130.92-160.73,18.21-160.88Z" transform="translate(287 161.07)"/><path class="b" d="M1655.9,320.25c-9.45-22.95-14.55-47.19-21-71a736.33,736.33,0,0,1-24.68-163.6c-.81-20.42-2-40.8.33-61.19,2.08-18.18,11.33-17.28,23-15.9,7.47.89,14.87,2.4,22.31,3.62Z" transform="translate(287 161.07)"/><path class="b" d="M770.6,57.59c9.82-.05,17.61.06,25.37,1.64,22.85,4.63,33.2,21,27.32,43.63-10.79,41.54-55,71.56-97.58,66.53-25.29-3-47-12-60.53-35A98.3,98.3,0,0,1,653,99.5c-2.31-14.89,4.08-24,19.21-27.85,24.26-6.19,49.06-9.39,73.89-12.33C754.91,58.28,763.71,57.34,770.6,57.59Z" transform="translate(287 161.07)"/></svg>