<svg xmlns="http://www.w3.org/2000/svg" viewBox="0 0 1367.24 769.18"><defs><style>.a{fill:#ffffff;}.b{fill:#41c7f6;}</style></defs><title>1800f_00089</title><path class="a" d="M1297.7,769.52H942.54c5.59-12.45,3.75-20-7.08-28.34a82.3,82.3,0,0,0-19-10.91c-14.36-5.92-29.43-8.9-44.74-10.83-27-3.42-54.24-5-81.27-8.53-38.55-5.06-77-4.53-114.93,5.54-12,3.2-23.55,7.79-32.16,17.44-8,9-7.75,19.23.81,27.62,3,3,6.63,5.35,10,8H259.54c8.25-3.93,17.22-5.57,26-7.63,54.91-12.92,92.15-46.4,113.83-97.75,11-26.1,17.91-53.08,7.08-80.94-6.6-17-16-32.6-26.79-47.42-12.18-16.75-27.77-23.25-48.13-19.09a61.66,61.66,0,0,1-34.32-2.93c-22.56-8.4-40.89-23.05-57.33-40.08-24.21-25.1-47.56-51-72-75.91-12.25-12.47-15.47-25.77-9.92-42,4.57-13.41,9.82-26.52,15.47-39.49,6.16-14.14,12.64-28.08,12.68-44.05.11-34.2-11.33-64.61-31.31-91.66-11.52-15.6-26.08-27.91-47.76-25.65A147.79,147.79,0,0,0,61.83,167c-18,8-30.28,20.83-37.66,39.35-7.67,19.22-16.39,38-22.65,57.78V127.5a213,213,0,0,1,30.78-4.08c27.42-1.88,54,.49,78.55,14.68a59,59,0,0,0,24.41,7.79,171.59,171.59,0,0,0,56.42-4.28c34.06-8.38,65.67-23.28,97.75-37C344.58,81.09,391.91,47,431.05,1.52H478.1c20.74,11,41.37,22.09,61.33,34.45C544.34,39,550.2,40.12,556,41.08c16.39,2.75,32.77,1.24,49.1-.18,39.06-3.39,78-3.57,117,1.29,23.23,2.89,46.54,6.23,70.11,4.85,11.56-.67,23-3,31.93-10.4C838.94,24.4,854.3,13,869.69,1.52H980.48q.91,10.94,1.83,21.87c1.51,18.44-1.52,36.84-.52,55.3,1.19,21.92,9.34,40.6,27,53.8,31.77,23.81,65.84,44.24,99.26,65.61,13.37,8.55,28.51,14.89,38.44,27.91,22.61,29.63,43.16,60.54,54.61,96.49,6.36,20,10.79,40.55,14.57,61.15,9.19,50.08,33.19,91.1,72.42,123.53,24.35,20.13,51.48,35.63,79.48,49.85v82c-16.31,5.66-31.23,14-45.43,23.7-17.64,12.09-25.82,28.81-26,50.11C1295.89,731.75,1297.41,750.61,1297.7,769.52Zm-215.59-7.87c13.79-.09,24.78-4.92,34.5-12.61,16-12.71,32-25.53,47.66-38.69,8.69-7.3,17.25-15,23.16-24.87,5.48-9.19,2.66-15.5-7.6-18.07a43.86,43.86,0,0,0-17.33-.52c-31.14,4.74-60.2,15.22-86.46,32.81-9.66,6.47-18.9,13.6-25.4,23.56-7.15,11-6.11,19.62,3.84,28C1062.69,758.26,1072.61,761,1082.11,761.65Z" transform="translate(-1.31 -0.49)"/><path class="b" d="M1367.52,557c-28-14.22-55.13-29.72-79.48-49.85-39.23-32.43-63.23-73.45-72.42-123.53-3.78-20.6-8.21-41.15-14.57-61.15-11.45-35.95-32-66.86-54.61-96.49-9.93-13-25.07-19.36-38.44-27.91-33.42-21.37-67.49-41.8-99.26-65.61-17.61-13.2-25.76-31.88-27-53.8-1-18.46,2-36.86.52-55.3q-.9-10.93-1.83-21.87h160.89c9.16,19.69,19,39.06,26.79,59.37,5.34,13.91,10.54,27.93,18.84,40.45,5.77,8.71,14.06,10.36,23,4.93a31.68,31.68,0,0,0,10.87-10.35c12.88-21,17.58-43.84,15.17-68.19-.87-8.77-2.38-17.48-3.59-26.21h113.83c3.69,16.76,11.93,31.4,21.25,45.53Z" transform="translate(-1.31 -0.49)"/><path class="b" d="M1.52,264.1c6.26-19.77,15-38.56,22.65-57.78C31.55,187.8,43.85,175,61.83,167A147.79,147.79,0,0,1,107,154.88c21.68-2.26,36.24,10.05,47.76,25.65,20,27.05,31.42,57.46,31.31,91.66,0,16-6.52,29.91-12.68,44.05-5.65,13-10.9,26.08-15.47,39.49-5.55,16.27-2.33,29.57,9.92,42,24.44,24.88,47.79,50.81,72,75.91,16.44,17,34.77,31.68,57.33,40.08a61.66,61.66,0,0,0,34.32,2.93c20.36-4.16,35.95,2.34,48.13,19.09,10.78,14.82,20.19,30.45,26.79,47.42,10.83,27.86,3.93,54.84-7.08,80.94-21.68,51.35-58.92,84.83-113.83,97.75-8.76,2.06-17.73,3.7-26,7.63q-126,0-252,.15c-5.32,0-6.58-1.19-6.12-6.29.54-6,.13-12.09.13-18.15,32.28-17.32,66.31-31.1,98.39-48.82,22.17-12.25,43.46-25.82,62.7-42.4,15.28-13.17,24.35-29.09,20.73-50-1.88-10.76-6.18-20.8-11.16-30.51-10-19.57-20.8-38.74-29.7-58.9-16.89-38.23-21.64-77.46-11.5-118.32,2.51-10.07-.16-18.92-8.83-25.53a87.37,87.37,0,0,0-46.64-18c-27.29-2.31-55.4-2.53-74-27.91Z" transform="translate(-1.31 -0.49)"/><path class="a" d="M1.52,324.81c18.59,25.38,46.7,25.6,74,27.91a87.37,87.37,0,0,1,46.64,18c8.67,6.61,11.34,15.46,8.83,25.53-10.14,40.86-5.39,80.09,11.5,118.32,8.9,20.16,19.67,39.33,29.7,58.9,5,9.71,9.28,19.75,11.16,30.51,3.62,20.9-5.45,36.82-20.73,50-19.24,16.58-40.53,30.15-62.7,42.4-32.08,17.72-66.11,31.5-98.39,48.82Z" transform="translate(-1.31 -0.49)"/><path class="b" d="M431.05,1.52C391.91,47,344.58,81.09,289.43,104.63c-32.08,13.7-63.69,28.6-97.75,37a171.59,171.59,0,0,1-56.42,4.28,59,59,0,0,1-24.41-7.79c-24.54-14.19-51.13-16.56-78.55-14.68A213,213,0,0,0,1.52,127.5c0-40,.12-79.94-.15-119.91,0-5.2,1-6.22,6.22-6.22Q219.32,1.66,431.05,1.52Z" transform="translate(-1.31 -0.49)"/><path class="b" d="M654.16,769.52c-3.34-2.66-6.94-5-10-8-8.56-8.39-8.8-18.66-.81-27.62,8.61-9.65,20.12-14.24,32.16-17.44,37.89-10.07,76.38-10.6,114.93-5.54,27,3.56,54.25,5.11,81.27,8.53,15.31,1.93,30.38,4.91,44.74,10.83a82.3,82.3,0,0,1,19,10.91c10.83,8.35,12.67,15.89,7.08,28.34Z" transform="translate(-1.31 -0.49)"/><path class="b" d="M869.69,1.52C854.3,13,838.94,24.4,824.14,36.64c-9,7.41-20.37,9.73-31.93,10.4-23.57,1.38-46.88-2-70.11-4.85-39-4.86-78-4.68-117-1.29-16.33,1.42-32.71,2.93-49.1.18-5.78-1-11.64-2.06-16.55-5.11-20-12.36-40.59-23.5-61.33-34.45Z" transform="translate(-1.31 -0.49)"/><path class="b" d="M1297.7,769.52c-.29-18.91-1.81-37.77-1.63-56.72.2-21.3,8.38-38,26-50.11,14.2-9.73,29.12-18,45.43-23.7,0,42-.06,84,.1,126,0,3.8-.86,4.69-4.66,4.66C1341.21,769.41,1319.45,769.52,1297.7,769.52Z" transform="translate(-1.31 -0.49)"/><path class="a" d="M1232.44,1.52c1.21,8.73,2.72,17.44,3.59,26.21,2.41,24.35-2.29,47.2-15.17,68.19A31.68,31.68,0,0,1,1210,106.27c-8.93,5.43-17.22,3.78-23-4.93-8.3-12.52-13.5-26.54-18.84-40.45-7.79-20.31-17.63-39.68-26.79-59.37Z" transform="translate(-1.31 -0.49)"/><path class="a" d="M1367.52,47.05c-9.32-14.13-17.56-28.77-21.25-45.53,7.08,0,16.93-2.76,20.47.78s.78,13.39.78,20.47Z" transform="translate(-1.31 -0.49)"/><path class="b" d="M1082.11,761.65c-9.5-.66-19.42-3.39-27.63-10.34-10-8.43-11-17.08-3.84-28,6.5-10,15.74-17.09,25.4-23.56,26.26-17.59,55.32-28.07,86.46-32.81a43.86,43.86,0,0,1,17.33.52c10.26,2.57,13.08,8.88,7.6,18.07-5.91,9.92-14.47,17.57-23.16,24.87-15.67,13.16-31.62,26-47.66,38.69C1106.89,756.73,1095.9,761.56,1082.11,761.65Z" transform="translate(-1.31 -0.49)"/></svg>