<svg xmlns="http://www.w3.org/2000/svg" viewBox="0 0 1943.05 1093.11"><defs><style>.a{fill:#ffffff;}.b{fill:#41c7f6;}</style></defs><title>1800f_00166</title><path class="a" d="M1655.9,133.57V670.86c-9.18,5.77-18.14,11.94-27.58,17.24-24,13.43-42.92,9.26-58.7-13-15-21.19-19.61-45.76-21.27-71-2.66-40.6,4.29-80.17,14.52-119.17,12.22-46.57,22.43-93.34,22.26-141.85-.05-13.62,1.39-27.24,2.28-40.86,1-14.87,2.68-29.72,3-44.6.31-15.73-8.44-24.82-23.81-27.32a53.21,53.21,0,0,0-23.29,1.25c-60,17-111.07,46.55-144.45,101.71-25.54,42.19-48,86.11-73.33,128.42-20.86,34.87-43.29,68.48-75,94.62-35.68,29.39-75.51,47.85-123,44.51-11.08-.78-22.23-1.7-33.12-3.79-23.45-4.49-44,.63-62.21,16.08-8.49,7.21-16.92,14.48-24.31,22.83-18.77,21.2-37.29,42.64-56.24,63.69s-39.11,41-66.42,51.68c-16.06,6.3-31.09,5.41-45.6-3.86-7.46-4.77-14.79-9.73-22.28-14.44-12.85-8.1-26.74-13.48-42.06-13.54-34.13-.13-59.39,16.34-77.56,44-11.64,17.72-12.68,36.78-.49,54.92a116.66,116.66,0,0,0,36.33,35c11.69,7.12,24.39,9.57,37.81,8.32a155,155,0,0,0,20.2-3.22c22.07-5,40.94-.55,56.06,17.26,5,6,11.13,11,16.79,16.45C898,924.4,935.11,934,978.42,911.47c19-9.9,39.24-17.51,59.69-24.18s41.38-11.36,63.24-10.31c14.61.71,27.78,5.11,39.37,13.92,22.54,17.12,48,25.69,76.18,25.27,26.53-.4,52.47-6.82,78.88-9.13,32-2.78,59.42,8.06,85.4,24.88h-1070c-1.81-21.81-9.18-41.39-24.46-57.3-22.76-23.71-52.43-33.57-83.52-39.83-30.9-6.23-62.38-5.26-93.68-6.52-26.54-1.07-53-3.39-78.46-11.79s-41.52-25.16-47.68-51.3c-1.51-6.4-3.13-12.77-4.53-19.18-6.37-29.12-11.21-58.69-22.59-86.43-15.12-36.88-38-69-63.29-99.45-15-18.09-31.22-35.16-46.62-52.94-13.61-15.72-13.19-23.63,1.15-38.44,9.18-9.47,19.46-17.66,29.92-25.65,22.5-17.16,46-33.08,65.27-54.17,23.62-25.88,26.75-53.1,9.16-83.37-14.16-24.4-32-45.9-51.32-66.46-14.4-15.36-31.12-19.55-51.44-16.84-18.59,2.48-37.56,2.25-54.94-6.5-29.83-15-45.6-41.21-55.05-71.86-2.67-8.63-3-17.8-2.23-27,1.54-17.58,8.08-33.86,12.56-50.67,8.7-32.61,9.74-66,9.16-99.33C-242.23-78.46-231-120.64-211-160.88H1218.78a150.45,150.45,0,0,0,6.87,47c16.13,50.39,47.67,90.3,85.59,125.84,34.69,32.53,73,60.79,108.81,92,17.06,14.87,36,26.1,58.37,30.73,28.94,6,58.21,6.38,87.54,4.22C1595.92,136.71,1625.69,131.57,1655.9,133.57Zm-757.49,366c11.74-.33,23.37-.56,35,.39,22.88,1.87,40.62,14.28,57.89,27.78,13.55,10.57,26.09,22.45,40.68,31.67,12.62,8,26.21,11.57,41.22,8.58,38-7.56,69-27.06,93.52-56.54,22.56-27.14,20.7-47.81-6-70.68-41.21-35.24-76.19-76-107.8-119.79-14.06-19.47-30.74-34.77-54.86-40.35a181.68,181.68,0,0,0-41.37-4.34c-32.12,0-64.2,1.87-96.33,1.27-35.78-.67-71.13,3.72-106.23,10.27-27.69,5.17-55.42,7.74-83.68,5.56-24.23-1.86-48-6.84-72.21-8.77-18.78-1.49-37.41-1.46-55.37,5.27-16.29,6.1-22.38,18.56-16.79,35s16.8,29.54,29.44,40.82C653.15,452.87,767.11,498.58,898.41,499.56Z" transform="translate(287 161.04)"/><path class="b" d="M1381.18,931.92c-26-16.82-53.45-27.66-85.4-24.88-26.41,2.31-52.35,8.73-78.88,9.13-28.14.42-53.64-8.15-76.18-25.27-11.59-8.81-24.76-13.21-39.37-13.92-21.86-1.05-42.71,3.61-63.24,10.31s-40.68,14.28-59.69,24.18C935.11,934,898,924.4,864.34,892.19c-5.66-5.42-11.75-10.49-16.79-16.45-15.12-17.81-34-22.29-56.06-17.26a155,155,0,0,1-20.2,3.22c-13.42,1.25-26.12-1.2-37.81-8.32a116.66,116.66,0,0,1-36.33-35c-12.19-18.14-11.15-37.2.49-54.92,18.17-27.65,43.43-44.12,77.56-44,15.32.06,29.21,5.44,42.06,13.54,7.49,4.71,14.82,9.67,22.28,14.44,14.51,9.27,29.54,10.16,45.6,3.86,27.31-10.72,47.39-30.54,66.42-51.68S989,657.17,1007.8,636c7.39-8.35,15.82-15.62,24.31-22.83,18.17-15.45,38.76-20.57,62.21-16.08,10.89,2.09,22,3,33.12,3.79,47.54,3.34,87.37-15.12,123-44.51,31.73-26.14,54.16-59.75,75-94.62,25.31-42.31,47.79-86.23,73.33-128.42,33.38-55.16,84.49-84.66,144.45-101.71a53.21,53.21,0,0,1,23.29-1.25c15.37,2.5,24.12,11.59,23.81,27.32-.3,14.88-2,29.73-3,44.6-.89,13.62-2.33,27.24-2.28,40.86.17,48.51-10,95.28-22.26,141.85-10.23,39-17.18,78.57-14.52,119.17,1.66,25.21,6.24,49.78,21.27,71,15.78,22.25,34.73,26.42,58.7,13,9.44-5.3,18.4-11.47,27.58-17.24q0,127.5.14,255c0,5.19-1,6.23-6.22,6.21Q1515.51,931.76,1381.18,931.92Z" transform="translate(287 161.04)"/><path class="b" d="M-211-160.88c-20,40.24-31.26,82.42-30.48,127.76.58,33.36-.46,66.72-9.16,99.33-4.48,16.81-11,33.09-12.56,50.67-.81,9.21-.44,18.38,2.23,27,9.45,30.65,25.22,56.85,55.05,71.86,17.38,8.75,36.35,9,54.94,6.5,20.32-2.71,37,1.48,51.44,16.84,19.27,20.56,37.16,42.06,51.32,66.46,17.59,30.27,14.46,57.49-9.16,83.37-19.25,21.09-42.77,37-65.27,54.17-10.46,8-20.74,16.18-29.92,25.65-14.34,14.81-14.76,22.72-1.15,38.44,15.4,17.78,31.62,34.85,46.62,52.94,25.25,30.44,48.17,62.57,63.29,99.45C-32.4,687.31-27.56,716.88-21.19,746c1.4,6.41,3,12.78,4.53,19.18,6.16,26.14,22.29,42.94,47.68,51.3s51.92,10.72,78.46,11.79c31.3,1.26,62.78.29,93.68,6.52,31.09,6.26,60.76,16.12,83.52,39.83,15.28,15.91,22.65,35.49,24.46,57.3q-295.57,0-591.17.14c-5.69,0-7-1.28-7-7q.24-539.58,0-1079.14c0-5.69,1.27-7.08,7-7C-257-160.66-234-160.88-211-160.88Z" transform="translate(287 161.04)"/><path class="b" d="M1655.9,133.57c-30.21-2-60,3.14-89.94,5.35-29.33,2.16-58.6,1.76-87.54-4.22-22.37-4.63-41.31-15.86-58.37-30.73-35.8-31.22-74.12-59.48-108.81-92-37.92-35.54-69.46-75.45-85.59-125.84a150.45,150.45,0,0,1-6.87-47h72.85a10.51,10.51,0,0,0,1.94,2.27c22.8,14.59,43.88,31.59,65.9,47.27,31.75,22.59,64.16,44.13,100.82,58.25,30.8,11.86,59.38,9.14,85.09-12.86,20.33-17.4,34.19-39.74,47.73-62.29,6.23-10.38,12.69-20.71,15.73-32.64,13.92,0,27.84.24,41.74-.14,4.55-.12,5.45.92,5.44,5.45Q1655.78-11,1655.9,133.57Z" transform="translate(287 161.04)"/><path class="a" d="M1608.84-160.88c-3,11.93-9.5,22.26-15.73,32.64-13.54,22.55-27.4,44.89-47.73,62.29-25.71,22-54.29,24.72-85.09,12.86-36.66-14.12-69.07-35.66-100.82-58.25-22-15.68-43.1-32.68-65.9-47.27a10.51,10.51,0,0,1-1.94-2.27Z" transform="translate(287 161.04)"/><path class="b" d="M898.41,499.56c-131.3-1-245.26-46.69-342.94-133.87-12.64-11.28-23.81-24.29-29.44-40.82s.5-28.89,16.79-35c18-6.73,36.59-6.76,55.37-5.27,24.19,1.93,48,6.91,72.21,8.77,28.26,2.18,56-.39,83.68-5.56,35.1-6.55,70.45-10.94,106.23-10.27,32.13.6,64.21-1.23,96.33-1.27A181.68,181.68,0,0,1,998,280.62c24.12,5.58,40.8,20.88,54.86,40.35,31.61,43.78,66.59,84.55,107.8,119.79,26.74,22.87,28.6,43.54,6,70.68-24.52,29.48-55.5,49-93.52,56.54-15,3-28.6-.61-41.22-8.58-14.59-9.22-27.13-21.1-40.68-31.67-17.27-13.5-35-25.91-57.89-27.78C921.78,499,910.15,499.23,898.41,499.56Z" transform="translate(287 161.04)"/></svg>