<svg xmlns="http://www.w3.org/2000/svg" viewBox="0 0 1943.06 1093.15"><defs><style>.a{fill:#ffffff;}.b{fill:#41c7f6;}</style></defs><title>1800f_00381</title><path class="a" d="M-286.86,551V311.15a19.39,19.39,0,0,0,2.81-2.43c17-21.07,34.9-41.34,53.29-61.21,33.5-36.22,70.69-68,117.28-85.51C-72.23,146.46-36.6,123.18-3.85,94.33c20.33-17.9,43.2-32.15,70.29-37.19C115.63,48,165.15,44.05,215,52c36.64,5.87,70.24,16.74,94.63,48.17,20.87,26.91,44.64,51.55,66.74,77.52,10.48,12.3,19.56,25.81,30.15,38,28.75,33.12,67.51,41.17,108.59,40,43.28-1.24,83.85-15.07,123.35-31.86,29.62-12.6,47.26-34.47,50.91-67.08A182.06,182.06,0,0,1,719,74.91c16.11-24.19,33.3-47.7,47.71-73,10.7-18.79,17.35-38.65,16.5-60.63-1.48-38.29-30.37-62.95-68.38-58.5-16.53,1.93-31.07,8.79-44.9,17.32-22,13.56-42.71,28.93-63,44.8-40,31.24-82.73,56.08-134.48,62-26.34,3-52.38,3.13-78.25-2.86C372-1.07,359.12-17,349.43-36c-20-39.2-32.43-80.1-26.14-124.85h757.37c.2,2.34,2.2,3.29,3.68,4.55,18,15.48,35.76,31.33,54.25,46.25,34.4,27.76,71,51.85,113.52,65.8,37.43,12.28,76.26,14.76,115.15,16.64,41.93,2,83.92,1.58,125.88,2.31,22,.39,43.93,1.23,65.78,4.17,38.54,5.2,56.31,21,65.45,58.83,4.27,17.71,6.66,35.74,9.6,53.69,7.62,46.34,3.16,91-16.79,134-15.47,33.34-33.85,65-53.11,96.17-19.06,30.87-36,62.77-43.74,98.63-3.32,15.33-6,30.82-2.42,46.54,2.24,9.71,6.67,13.07,16.55,13,10.56-.07,20.48-3.36,30.14-7,29.54-11,59.61-17.44,91.3-12.85q0,233,.14,466c0,5.19-1,6.61-6.23,6.21-7.54-.57-15.16-.14-22.75-.14-6-36.92-8.14-74.2-11.2-111.41-2.69-32.76-7.77-65.18-20.91-95.8-12-28.05-28.53-53.46-45.24-78.8-15.14-23-31.72-45.16-40.14-71.9a118.25,118.25,0,0,0-8.21-19.55c-5.09-9.63-9.95-12-20.41-9.08a49.42,49.42,0,0,0-10.45,4.41c-9.09,5-18,10.31-27.06,15.3-37.86,20.86-76.94,30.58-119.09,13.2-34.19-14.1-65.82-31.91-86.25-64.09-14.64-23.05-26.68-47.61-37.84-72.58-18.31-41-17.65-81.58,0-122.74,13.91-32.52,29.77-64.23,41.53-97.68,6.82-19.4,13.09-38.92,11.81-59.82-1.22-20-8.85-36.62-28-45.24-19-8.54-36-2.78-51.54,9.42-11.73,9.2-20.62,20.92-28.32,33.41-18.33,29.75-38.79,58-59.88,85.79-13.95,18.39-25.47,38.28-32.83,60.38-11,33.06-8.5,66.43-1.85,99.68,13.73,68.55,32.77,135.56,59.63,200.24,12.8,30.81,23.45,62.47,36.51,93.2,13.57,31.92,33.62,59.25,57.73,83.83,19.88,20.25,27.94,44.26,25,72.6-1.79,17.32-2.78,34.8-1.89,52.27q.63,12.48,1.27,25H47.05a311.52,311.52,0,0,0-27-102C-8.39,767.56-47,713-101.28,670.37c-24.43-19.2-52.4-32.32-79.81-46.4-28.77-14.78-57.76-29.17-82.82-50.13C-272.25,566.86-278.79,558.16-286.86,551Z" transform="translate(287.02 161.03)"/><path class="b" d="M323.29-160.88C317-116.13,329.42-75.23,349.43-36c9.69,19,22.53,35,44.71,40.1,25.87,6,51.91,5.88,78.25,2.86,51.75-5.95,94.48-30.79,134.48-62,20.32-15.87,41.06-31.24,63-44.8,13.83-8.53,28.37-15.39,44.9-17.32,38-4.45,66.9,20.21,68.38,58.5.85,22-5.8,41.84-16.5,60.63-14.41,25.3-31.6,48.81-47.71,73a182.06,182.06,0,0,0-29.64,81.88c-3.65,32.61-21.29,54.48-50.91,67.08-39.5,16.79-80.07,30.62-123.35,31.86-41.08,1.17-79.84-6.88-108.59-40-10.59-12.2-19.67-25.71-30.15-38-22.1-26-45.87-50.61-66.74-77.52C285.2,68.77,251.6,57.9,215,52c-49.81-8-99.33-4-148.52,5.11-27.09,5-50,19.29-70.29,37.19C-36.6,123.18-72.23,146.46-113.48,162c-46.59,17.55-83.78,49.29-117.28,85.51C-249.15,267.38-267,287.65-284,308.72a19.39,19.39,0,0,1-2.81,2.43q0-232.81-.16-465.63c0-5.61,1.32-6.54,6.65-6.54Q21.46-160.78,323.29-160.88Z" transform="translate(287.02 161.03)"/><path class="b" d="M1229.4,931.92q-.63-12.48-1.27-25c-.89-17.47.1-35,1.89-52.27,2.94-28.34-5.12-52.35-25-72.6-24.11-24.58-44.16-51.91-57.73-83.83-13.06-30.73-23.71-62.39-36.51-93.2-26.86-64.68-45.9-131.69-59.63-200.24-6.65-33.25-9.15-66.62,1.85-99.68,7.36-22.1,18.88-42,32.83-60.38,21.09-27.82,41.55-56,59.88-85.79,7.7-12.49,16.59-24.21,28.32-33.41,15.54-12.2,32.57-18,51.54-9.42,19.14,8.62,26.77,25.28,28,45.24,1.28,20.9-5,40.42-11.81,59.82-11.76,33.45-27.62,65.16-41.53,97.68-17.61,41.16-18.27,81.76,0,122.74,11.16,25,23.2,49.53,37.84,72.58,20.43,32.18,52.06,50,86.25,64.09,42.15,17.38,81.23,7.66,119.09-13.2,9.08-5,18-10.33,27.06-15.3a49.42,49.42,0,0,1,10.45-4.41c10.46-2.9,15.32-.55,20.41,9.08a118.25,118.25,0,0,1,8.21,19.55c8.42,26.74,25,48.93,40.14,71.9,16.71,25.34,33.21,50.75,45.24,78.8,13.14,30.62,18.22,63,20.91,95.8,3.06,37.21,5.25,74.49,11.2,111.41Z" transform="translate(287.02 161.03)"/><path class="b" d="M1655.9,459.89c-31.69-4.59-61.76,1.87-91.3,12.85-9.66,3.6-19.58,6.89-30.14,7-9.88.06-14.31-3.3-16.55-13-3.63-15.72-.9-31.21,2.42-46.54,7.77-35.86,24.68-67.76,43.74-98.63,19.26-31.21,37.64-62.83,53.11-96.17,20-43,24.41-87.65,16.79-134-2.94-18-5.33-36-9.6-53.69-9.14-37.83-26.91-53.63-65.45-58.83-21.85-2.94-43.82-3.78-65.78-4.17-42-.73-84-.29-125.88-2.31-38.89-1.88-77.72-4.36-115.15-16.64-42.49-13.95-79.12-38-113.52-65.8-18.49-14.92-36.22-30.77-54.25-46.25-1.48-1.26-3.48-2.21-3.68-4.55q284.21,0,568.41-.15c5.69,0,7,1.29,7,7Q1655.79,152.91,1655.9,459.89Z" transform="translate(287.02 161.03)"/><path class="b" d="M-286.86,551c8.07,7.2,14.61,15.9,22.95,22.88,25.06,21,54.05,35.35,82.82,50.13,27.41,14.08,55.38,27.2,79.81,46.4C-47,713-8.39,767.56,20,829.91a311.52,311.52,0,0,1,27,102q-163.92,0-327.84.14c-5.2,0-6.22-1-6.22-6.21Q-286.73,738.4-286.86,551Z" transform="translate(287.02 161.03)"/></svg>