<svg xmlns="http://www.w3.org/2000/svg" viewBox="0 0 1944.66 1094.71"><defs><style>.a{fill:#ffffff;}.b{fill:#41c7f6;}</style></defs><title>1800f_00093</title><path class="a" d="M598,931.92H144.19c2.56-1,5.08-2.09,7.68-2.94,25.87-8.49,50.6-19.37,72-36.52C266,858.67,292,814.36,306.72,763c8.7-30.29,12.7-61.26,4-92-8-28.32-23.81-51.18-55.27-57.09-13.57-2.55-27.65-2.18-41.43-3.8-20.31-2.38-40.92-4.42-59.69-13.15C111,576.84,75.52,547,48.81,507.29c-21.27-31.64-41-64.33-64.35-94.55-8.13-10.53-16-21.51-27.57-28.82-7.3-4.61-14.1-4.4-19.6,1.86-12.59,14.33-20.38,31.46-24.9,49.65-8.44,34-7.78,68.09,1.42,102C-74.33,581-52.57,619.51-25.32,655.2c11.2,14.67,22.41,29.39,30.55,46C17.28,726,15.46,748.67-6.18,767.77a146,146,0,0,1-20,14.9C-87.08,820.21-148.28,857.22-210.84,892a344.12,344.12,0,0,0-57.81,40c-6.07,0-14.51,2.37-17.54-.67s-.67-11.47-.67-17.55V30.36c51-8.28,101.3-9.3,148.67,15.92C-114.45,58.92-89.79,61.83-63.34,57-4.7,46.38,52,29.07,108,9.27c78.89-27.89,149.92-68.09,206-131.68,5.5-6.23,11.8-11.8,18-17.44,15.49-14.2,33-17.55,52.63-9.6a210.5,210.5,0,0,1,72.08,48c10.82,11,23.48,18.31,38.75,20.69a165,165,0,0,0,37.82,1.24c24.18-1.78,48.34-3.91,72.56-5.12,60.76-3,121.06,2.12,181.13,11.07,28.49,4.25,57.11,8.39,86,3.75,16.69-2.69,33.34-6.67,42.7-22.68,10-17.14,23.49-31,38.66-43.31,10.55-8.58,21.47-16.7,32.23-25h132c-.15,2.77-.42,5.54-.44,8.31-.15,25.38-2.88,50.31-9.88,74.89-8.65,30.37-17,60.85-23.53,91.77-4,19.07,3.18,30.84,21.85,36,23.93,6.64,48.56,9.33,73,13,27.22,4.06,54.21,9.63,81.74,11.67,21.64,1.62,43.24,3.86,64.88,5.67,17.66,1.48,31.3,9.21,39.72,25.14,3.66,6.92,7.46,13.81,10.49,21,13.52,32.22,23.44,65.67,33.53,99.08,17.81,58.91,28.24,119.49,40.72,179.59,14.76,71,46.11,132.4,102,180,31.53,26.84,66.69,48.19,103.22,67.42V771c-14.09,6.25-28.23,12.37-41.61,20.11-25.35,14.65-45.5,33.63-53,63.21a186.69,186.69,0,0,0-5.42,42.75c-.18,11.6-.14,23.21-.2,34.82H1076.1c1.29-14.24-6.94-23.21-17.41-30.64-28.67-20.36-61.59-28.66-95.76-33.1-28.38-3.69-56.94-4.53-85.51-5.1-56.12-1.11-112.26-3.17-168.19,3.69-24.67,3-48.9,8.13-71.7,18.45C617,894.5,600.63,907.43,598,931.92ZM-110.5,88.36c-19,.38-33.15,5.78-47.27,11.24-32.54,12.58-61.92,29.55-82.18,59.23C-248,170.7-252.71,183.72-250.76,198c3.61,26.42,20.2,42.92,43.41,53.94,15.78,7.5,32.65,11.91,49,17.78,12.36,4.45,24.42,9.39,35.3,17.07,12.54,8.84,25.39,17.25,38.29,25.57,14,9,23.71,7.18,33.62-6.26,4.48-6.08,8.49-12.51,12.93-18.64C-23.38,266.93-14.68,245-18.7,218.85-25.56,174.14-44.39,135.63-76.61,104-86.67,94.11-98.94,87.4-110.5,88.36Zm1474.31,712a51.4,51.4,0,0,0-5.25.27,223,223,0,0,0-110.27,45c-12.7,9.72-24.65,20.24-33.14,34-9.64,15.61-6.37,29.68,8.92,39.8,25.09,16.6,57,13.94,83.61-8a769.09,769.09,0,0,0,67.72-63c7.14-7.5,13.7-15.64,16.8-25.82s-.34-16.67-10.41-19.88A54.21,54.21,0,0,0,1363.81,800.33Z" transform="translate(287.74 161.91)"/><path class="b" d="M1655.9,652.65c-36.53-19.23-71.69-40.58-103.22-67.42-55.86-47.57-87.21-108.94-102-180-12.48-60.1-22.91-120.68-40.72-179.59-10.09-33.41-20-66.86-33.53-99.08-3-7.21-6.83-14.1-10.49-21-8.42-15.93-22.06-23.66-39.72-25.14-21.64-1.81-43.24-4.05-64.88-5.67-27.53-2-54.52-7.61-81.74-11.67-24.47-3.65-49.1-6.34-73-13-18.67-5.18-25.88-17-21.85-36,6.52-30.92,14.88-61.4,23.53-91.77,7-24.58,9.73-49.51,9.88-74.89,0-2.77.29-5.54.44-8.31h233.74c7,15.17,15.58,29.48,24.11,43.79,10,16.7,20.39,33.21,34.59,46.79,15.6,14.91,31,14.31,43.57-1.46A45,45,0,0,0,1462-86.64c4.4-14,4.39-28.27,3-42.75-1-10.52-4-20.81-3.4-31.49h173c2.25,24.74,8.95,48.13,21.25,69.82Z" transform="translate(287.74 161.91)"/><path class="b" d="M986.56-160.88c-10.76,8.33-21.68,16.45-32.23,25-15.17,12.35-28.63,26.17-38.66,43.31-9.36,16-26,20-42.7,22.68-28.85,4.64-57.47.5-86-3.75-60.07-9-120.37-14.09-181.13-11.07-24.22,1.21-48.38,3.34-72.56,5.12A165,165,0,0,1,495.5-80.8c-15.27-2.38-27.93-9.64-38.75-20.69a210.5,210.5,0,0,0-72.08-48c-19.61-8-37.14-4.6-52.63,9.6-6.15,5.64-12.45,11.21-18,17.44C258-58.82,186.93-18.62,108,9.27,52,29.07-4.7,46.38-63.34,57c-26.45,4.81-51.11,1.9-74.85-10.74-47.37-25.22-97.66-24.2-148.67-15.92,0-61.47.09-122.94-.15-184.41,0-5.7,1.29-7,7-7Q353.27-160.8,986.56-160.88Z" transform="translate(287.74 161.91)"/><path class="b" d="M-268.65,931.92a344.12,344.12,0,0,1,57.81-40c62.56-34.73,123.76-71.74,184.64-109.28a146,146,0,0,0,20-14.9C15.46,748.67,17.28,726,5.23,701.25c-8.14-16.66-19.35-31.38-30.55-46-27.25-35.69-49-74.17-60.87-117.8-9.2-33.88-9.86-68-1.42-102,4.52-18.19,12.31-35.32,24.9-49.65,5.5-6.26,12.3-6.47,19.6-1.86,11.59,7.31,19.44,18.29,27.57,28.82C7.79,443,27.54,475.65,48.81,507.29,75.52,547,111,576.84,154.37,597c18.77,8.73,39.38,10.77,59.69,13.15,13.78,1.62,27.86,1.25,41.43,3.8,31.46,5.91,47.29,28.77,55.27,57.09,8.66,30.73,4.66,61.7-4,92C292,814.36,266,858.67,223.85,892.46c-21.38,17.15-46.11,28-72,36.52-2.6.85-5.12,1.95-7.68,2.94Z" transform="translate(287.74 161.91)"/><path class="b" d="M598,931.92c2.63-24.49,19-37.42,39.53-46.7,22.8-10.32,47-15.43,71.7-18.45,55.93-6.86,112.07-4.8,168.19-3.69,28.57.57,57.13,1.41,85.51,5.1,34.17,4.44,67.09,12.74,95.76,33.1,10.47,7.43,18.7,16.4,17.41,30.64Z" transform="translate(287.74 161.91)"/><path class="b" d="M1555.72,931.92c.06-11.61,0-23.22.2-34.82a186.69,186.69,0,0,1,5.42-42.75c7.45-29.58,27.6-48.56,53-63.21,13.38-7.74,27.52-13.86,41.61-20.11,0,51.86-.08,103.72.12,155.58,0,4.52-.91,5.47-5.44,5.44C1619,931.8,1587.34,931.92,1555.72,931.92Z" transform="translate(287.74 161.91)"/><path class="a" d="M1461.62-160.88c-.62,10.68,2.42,21,3.4,31.49,1.34,14.48,1.35,28.74-3,42.75a45,45,0,0,1-7.36,14.88C1442-56,1426.64-55.39,1411-70.3c-14.2-13.58-24.62-30.09-34.59-46.79-8.53-14.31-17.13-28.62-24.11-43.79Z" transform="translate(287.74 161.91)"/><path class="a" d="M1655.9-91.06c-12.3-21.69-19-45.08-21.25-69.82,7.08,0,16.93-2.77,20.47.78s.78,13.38.78,20.47Z" transform="translate(287.74 161.91)"/><path class="b" d="M-110.5,88.36c11.56-1,23.83,5.75,33.89,15.63,32.22,31.64,51.05,70.15,57.91,114.86,4,26.17-4.68,48.08-19.51,68.59-4.44,6.13-8.45,12.56-12.93,18.64-9.91,13.44-19.58,15.3-33.62,6.26-12.9-8.32-25.75-16.73-38.29-25.57-10.88-7.68-22.94-12.62-35.3-17.07-16.35-5.87-33.22-10.28-49-17.78-23.21-11-39.8-27.52-43.41-53.94-2-14.26,2.72-27.28,10.81-39.15,20.26-29.68,49.64-46.65,82.18-59.23C-143.65,94.14-129.48,88.74-110.5,88.36Z" transform="translate(287.74 161.91)"/><path class="b" d="M1363.81,800.33a54.21,54.21,0,0,1,18,2.4c10.07,3.21,13.52,9.65,10.41,19.88s-9.66,18.32-16.8,25.82a769.09,769.09,0,0,1-67.72,63c-26.64,22-58.52,24.64-83.61,8-15.29-10.12-18.56-24.19-8.92-39.8,8.49-13.77,20.44-24.29,33.14-34a223,223,0,0,1,110.27-45A51.4,51.4,0,0,1,1363.81,800.33Z" transform="translate(287.74 161.91)"/></svg>