<svg xmlns="http://www.w3.org/2000/svg" viewBox="0 0 1943.06 1093.09"><defs><style>.a{fill:#ffffff;}.b{fill:#41c7f6;}</style></defs><title>1800f_00262</title><path class="a" d="M1211.19,931.92H218.56C185.38,902.69,146.8,892,103.18,897.73c-32.18,4.22-64.37,5-96.79,1.34a596.89,596.89,0,0,0-107.53-2.59c-12.29.82-24.78,2.3-37-.64-9.76-2.33-13.22-8.26-11.17-18.05,1.47-7,4.62-13.35,8.28-19.44,7.85-13.06,17.44-24.81,27.14-36.48,10.82-13,22.32-25.52,29.67-41.08,7.18-15.17,6.82-29.84-2.41-44-7.68-11.76-18.29-20.18-31-25.9a76.11,76.11,0,0,1-29.4-23.34C-166,663.17-175.74,635-180.75,604.87c-4.11-24.64-3.24-48.86,6.53-72.23,7.87-18.82,21.34-33.64,35.13-48.12C-120.78,465.28-102.56,446-87.53,424c27.62-40.41,45.37-85.63,63.42-130.72C-11,260.46-4.32,226.46-3,191.31c.48-12.88,1.39-25.79,1-38.65-1.11-33.3,15.12-57.24,40-76.81,22.71-17.85,47.31-33,71.65-48.36,45.91-29,86.05-63.35,113.63-111.33,13.14-22.83,31.22-42.32,52.23-58.61C284-149,293.17-154.76,302-160.88H479.62a122.88,122.88,0,0,1,24.53,17.42c5.31,5,12.1,5.88,19.11,3.67,12.39-3.9,22.17-11.62,30.73-21.09h585.86c22.1,23.31,44.65,46.17,68.68,67.51,34.91,31,71.83,59.06,114.3,79.29,31.07,14.8,62.53,18.62,95.57,7.35,12.63-4.31,25.67-3.82,38.79-.67,11.22,2.69,20.77,8.84,31.1,13.34,22.67,9.87,45.82,17,70.87,16.64,19.7-.25,39.21-3.11,58.92-3.75,20.85-.67,28-11.15,25.1-31.68-1.37-9.72-3-19.4-4.29-29.13-5-39-23.43-69.56-57.26-90-22.1-13.36-44.92-16.35-67.81-1.43-11.24,7.33-20.87,16.66-31.14,25.21-15.17,12.62-24.06,16.75-39.73,4.89-18.83-14.26-35.16-31.15-47.81-51.31-1.2-1.92-2.77-3.71-1.82-6.24q128.25,0,256.5-.15c5.2,0,6.22,1,6.22,6.22q-.24,418.91-.14,837.81c-2.88,0-4.34,2.36-6.28,3.84-15.7,11.94-31.1,24.39-49.4,32.27-23.9,10.29-47.61,11.85-69.92-4.06-16.46-11.74-24.31-28.9-27.15-48.26-6.56-44.78-23-86.87-35.1-130.13-3.86-13.77-11.69-25.7-23.94-34.14-12.53-8.65-25.74-7.76-36.38,3.1-13.21,13.49-18,30.69-20.53,48.72-2.67,18.94-2.17,38.39-9.91,56.49-20.93,48.95-47.15,94.45-84.69,132.86-35.28,36.08-56.85,79.32-66.8,128.72C1221.77,892.42,1219.25,912.87,1211.19,931.92Z" transform="translate(287.02 161.03)"/><path class="b" d="M302-160.88c-8.87,6.12-18.05,11.84-26.55,18.43-21,16.29-39.09,35.78-52.23,58.61-27.58,48-67.72,82.28-113.63,111.33C85.29,42.89,60.69,58,38,75.85c-24.92,19.57-41.15,43.51-40,76.81.43,12.86-.48,25.77-1,38.65-1.3,35.15-8,69.15-21.09,101.92-18,45.09-35.8,90.31-63.42,130.72-15,22-33.25,41.33-51.56,60.57-13.79,14.48-27.26,29.3-35.13,48.12-9.77,23.37-10.64,47.59-6.53,72.23,5,30.08,14.75,58.3,33.66,82.71a76.11,76.11,0,0,0,29.4,23.34c12.74,5.72,23.35,14.14,31,25.9,9.23,14.13,9.59,28.8,2.41,44-7.35,15.56-18.85,28.07-29.67,41.08-9.7,11.67-19.29,23.42-27.14,36.48-3.66,6.09-6.81,12.4-8.28,19.44-2,9.79,1.41,15.72,11.17,18.05,12.25,2.94,24.74,1.46,37,.64A596.89,596.89,0,0,1,6.39,899.07c32.42,3.68,64.61,2.88,96.79-1.34,43.62-5.72,82.2,5,115.38,34.19q-249.48,0-499,.15c-5.47,0-6.6-1.12-6.6-6.6q.27-246.45.15-492.9c12.19-2.68,17.3-12,19.2-22.75,5.44-30.86-5-58.42-19.2-85q0-239.64-.16-479.28c0-5.57,1.27-6.56,6.64-6.55Q10.83-160.78,302-160.88Z" transform="translate(287.02 161.03)"/><path class="b" d="M1211.19,931.92c8.06-19,10.58-39.5,14.61-59.51,10-49.4,31.52-92.64,66.8-128.72,37.54-38.41,63.76-83.91,84.69-132.86,7.74-18.1,7.24-37.55,9.91-56.49,2.54-18,7.32-35.23,20.53-48.72,10.64-10.86,23.85-11.75,36.38-3.1,12.25,8.44,20.08,20.37,23.94,34.14,12.12,43.26,28.54,85.35,35.1,130.13,2.84,19.36,10.69,36.52,27.15,48.26,22.31,15.91,46,14.35,69.92,4.06,18.3-7.88,33.7-20.33,49.4-32.27,1.94-1.48,3.4-3.85,6.28-3.84q0,121.43.14,242.85c0,5.19-1,6.22-6.22,6.21Q1430.51,931.79,1211.19,931.92Z" transform="translate(287.02 161.03)"/><path class="b" d="M1393.32-160.88c-1,2.53.62,4.32,1.82,6.24,12.65,20.16,29,37,47.81,51.31,15.67,11.86,24.56,7.73,39.73-4.89,10.27-8.55,19.9-17.88,31.14-25.21,22.89-14.92,45.71-11.93,67.81,1.43,33.83,20.46,52.24,51,57.26,90,1.25,9.73,2.92,19.41,4.29,29.13,2.89,20.53-4.25,31-25.1,31.68-19.71.64-39.22,3.5-58.92,3.75-25.05.32-48.2-6.77-70.87-16.64-10.33-4.5-19.88-10.65-31.1-13.34-13.12-3.15-26.16-3.64-38.79.67-33,11.27-64.5,7.45-95.57-7.35-42.47-20.23-79.39-48.28-114.3-79.29-24-21.34-46.58-44.2-68.68-67.51Z" transform="translate(287.02 161.03)"/><path class="a" d="M-286.86,324.81c14.16,26.59,24.64,54.15,19.2,85-1.9,10.74-7,20.07-19.2,22.75Z" transform="translate(287.02 161.03)"/><path class="b" d="M554-160.88c-8.56,9.47-18.34,17.19-30.73,21.09-7,2.21-13.8,1.31-19.11-3.67a122.88,122.88,0,0,0-24.53-17.42Z" transform="translate(287.02 161.03)"/></svg>