<svg xmlns="http://www.w3.org/2000/svg" viewBox="0 0 1943.06 1093.08"><defs><style>.a{fill:#ffffff;}.b{fill:#41c7f6;}</style></defs><title>1800f_00192</title><path class="a" d="M1249.13,931.92h-63.75c-1-3.9-2.05-7.8-3.05-11.7-3.38-13.28-9-17.61-22.68-16.79a60.91,60.91,0,0,0-12.62,2.21c-24.82,6.9-47.82,18.84-72.44,26.28H86.51c-.19-1.75-.49-3.49-.55-5.24C85,899.5,78.08,874.34,61.3,852.42c-11.32-14.79-26-21-44-15.33-46.36,14.63-90.34,34.13-127.37,66.6-9.23,8.09-18.48,16.48-23.48,28.23h-110.8c-3.93-13.07-11.77-23.78-21-33.43-6.28-6.56-12.24-13.82-21.5-16.66V719.43a220.49,220.49,0,0,1,30.15-26.49c37.37-27.18,69.36-59.48,95.13-97.94a182.06,182.06,0,0,1,25-29.43c20.81-20.07,38.88-21.36,62.23-4.43,8.4,6.09,16,13.16,23.78,20,12.82,11.11,22.89,25,36.36,35.37C.52,627.83,13.92,628.38,28,612.15,40.26,598,47.37,580.85,55.46,564.3c21.19-43.38,32.56-89,31.32-137.57-.9-35.67-3.34-71.21-9.68-106.31-6.53-36.22-18.28-70.52-42.49-99.23-12.56-14.91-27.19-27.85-41-41.58C-14.79,171.22-23.3,162.91-30,153c-12.06-17.87-12-34.4.27-52.14A109.26,109.26,0,0,1-7.3,77.33c25.93-20.6,56.07-31.83,87.88-39.2C120.51,28.87,160.24,19,197.33,1c61.88-30.09,113.11-74,159.43-124.12C367.7-135,378.69-146.91,387-160.88h387c2.55,12.29,6,15.9,18,17.37a65.7,65.7,0,0,0,35.9-6c5.6-2.58,11.63-5,14.41-11.37H935c.54,2,2.37,2.46,4,3,14,5.12,27.92,10.49,42,15.25,29.73,10,60.71,15.5,90.8,24.25,19.54,5.68,35.31,16,44.76,34.68,3.18,6.31,7,12.29,10.48,18.46,18.56,33,44.85,54,84.44,53.05,26.26-.62,47.49,9.58,66,27.22,21.82,20.75,39.71,44.65,55,70.31,59.4,99.55,137.88,182.44,224.23,258.54,20.48,18.05,42.46,34.4,61.37,54.23,14.15,14.85,21.33,32.49,20.79,52.9-1,35.87-11.84,69.23-28.7,100.42-36.78,68.07-79.93,131.89-131.23,189.94-26.23,29.67-55.12,56.43-89.54,76.67-22.42,13.18-46.92,21.25-71.42,29.29-23.9,7.85-41.47,22.72-51.92,45.65C1260.24,905.9,1254.78,919,1249.13,931.92Z" transform="translate(287.02 161.02)"/><path class="b" d="M387-160.88c-8.34,14-19.33,25.88-30.27,37.71C310.44-73.07,259.21-29.14,197.33,1,160.24,19,120.51,28.87,80.58,38.13,48.77,45.5,18.63,56.73-7.3,77.33a109.26,109.26,0,0,0-22.42,23.52C-42,118.59-42,135.12-30,153c6.69,9.92,15.2,18.23,23.62,26.62,13.79,13.73,28.42,26.67,41,41.58,24.21,28.71,36,63,42.49,99.23,6.34,35.1,8.78,70.64,9.68,106.31C88,475.29,76.65,520.92,55.46,564.3,47.37,580.85,40.26,598,28,612.15,13.92,628.38.52,627.83-14.22,616.46c-13.47-10.39-23.54-24.26-36.36-35.37-7.82-6.79-15.38-13.86-23.78-20-23.35-16.93-41.42-15.64-62.23,4.43a182.06,182.06,0,0,0-25,29.43c-25.77,38.46-57.76,70.76-95.13,97.94a220.49,220.49,0,0,0-30.15,26.49V446.23c14.17-15,21.28-32.47,19.6-53.37-1.71-21.31-10.1-40.29-19.6-58.95q0-244.2-.16-488.4c0-5.63,1.35-6.53,6.66-6.53Q53.35-160.78,387-160.88Z" transform="translate(287.02 161.02)"/><path class="b" d="M1249.13,931.92c5.65-13,11.11-26,17-38.89,10.45-22.93,28-37.8,51.92-45.65,24.5-8,49-16.11,71.42-29.29,34.42-20.24,63.31-47,89.54-76.67,51.3-58,94.45-121.87,131.23-189.94,16.86-31.19,27.75-64.55,28.7-100.42.54-20.41-6.64-38.05-20.79-52.9-18.91-19.83-40.89-36.18-61.37-54.23-86.35-76.1-164.83-159-224.23-258.54-15.3-25.66-33.19-49.56-55-70.31-18.55-17.64-39.78-27.84-66-27.22-39.59.94-65.88-20.09-84.44-53-3.47-6.17-7.3-12.15-10.48-18.46-9.45-18.72-25.22-29-44.76-34.68-30.09-8.75-61.07-14.21-90.8-24.25-14.13-4.76-28-10.13-42-15.25-1.63-.59-3.46-1-4-3H1476.8c-3.8,6.51-9.31,11.87-12.2,19-9.85,24.36-6.74,48.69,3.2,71.52,21.6,49.62,54.58,90.69,98.92,122.08,28.67,20.31,59.69,37,89.18,56q0,408.67.14,817.33c0,5.69-1.28,7-7,7Q1449.09,931.79,1249.13,931.92Z" transform="translate(287.02 161.02)"/><path class="a" d="M1655.9,107.76c-29.49-19.05-60.51-35.7-89.18-56-44.34-31.39-77.32-72.46-98.92-122.08-9.94-22.83-13-47.16-3.2-71.52,2.89-7.16,8.4-12.52,12.2-19,57.93,0,115.86.06,173.78-.13,4.53,0,5.45.91,5.44,5.44Q1655.77-23.9,1655.9,107.76Z" transform="translate(287.02 161.02)"/><path class="b" d="M-133.56,931.92c5-11.75,14.25-20.14,23.48-28.23,37-32.47,81-52,127.37-66.6,18-5.68,32.69.54,44,15.33C78.08,874.34,85,899.5,86,926.68c.06,1.75.36,3.49.55,5.24Z" transform="translate(287.02 161.02)"/><path class="b" d="M1074.59,931.92c24.62-7.44,47.62-19.38,72.44-26.28a60.91,60.91,0,0,1,12.62-2.21c13.65-.82,19.3,3.51,22.68,16.79,1,3.9,2,7.8,3.05,11.7Z" transform="translate(287.02 161.02)"/><path class="a" d="M-286.86,333.91c9.5,18.66,17.89,37.64,19.6,58.95,1.68,20.9-5.43,38.38-19.6,53.37Z" transform="translate(287.02 161.02)"/><path class="b" d="M-286.86,881.83c9.26,2.84,15.22,10.1,21.5,16.66,9.23,9.65,17.07,20.36,21,33.43-12.9,0-25.81-.15-38.7.1-3.27.06-3.95-.63-3.9-3.9C-286.74,912.69-286.86,897.26-286.86,881.83Z" transform="translate(287.02 161.02)"/><path class="b" d="M842.37-160.88c-2.78,6.34-8.81,8.79-14.41,11.37a65.7,65.7,0,0,1-35.9,6c-12-1.47-15.44-5.08-18-17.37Z" transform="translate(287.02 161.02)"/></svg>