<svg xmlns="http://www.w3.org/2000/svg" viewBox="0 0 1366.81 768.8"><defs><style>.a{fill:#ffffff;}.b{fill:#41c7f6;}</style></defs><title>1800f_00029</title><path class="a" d="M1367.52,373.38v77.4a19.07,19.07,0,0,0-3.56,1.08c-37.83,19.91-75.14,40.71-110.18,65.32-26.07,18.31-46,41.47-57.07,71.89-21.23,58.31-38,117.42-34.09,180.45H346.05a16.77,16.77,0,0,0-1.3-3.43c-14.79-22.71-32.89-42.22-55.29-57.65-35.2-24.25-74.46-39.36-115.13-51.34-8.23-2.43-16.57-4.63-24.11-9-5.39-3.08-6-7.2-2.22-11.91,3.35-4.17,7.68-7.29,12-10.42,19.84-14.43,41.3-26.41,61.09-41,27.5-20.21,41.91-46.3,40.4-81-.83-19.18-.71-38.44-.09-57.64.76-23.14,4.93-45.66,15.28-66.73,6.9-14.06,14.29-28,19.93-42.55,11.14-28.73,21.12-57.91,32.55-86.55,3-7.48,5.23-15.3,4.94-23.59-.32-9.51-5.5-13.2-14.5-10.14-9.75,3.31-17.93,9.28-25.86,15.56-20.39,16.18-40.57,32.64-61.05,48.7-11.53,9-23.22,18-36.7,24.06-19.81,8.94-37.51,1.7-45.65-18.48-4.86-12.07-5.1-24.59-3.93-37.31s2.69-25.17,1.84-37.82c-1.74-25.82-7.22-51-13.67-76q-10.8-41.82-21.3-83.72c-2.75-11.1-.42-15.9,9.94-20.65,6.88-3.14,14.15-5.41,21.2-8.2,14.72-5.86,29.51-11.6,42.29-21.34h734.6c.74,1.58,1.39,3.22,2.23,4.74,21.74,39.3,51.8,72.15,81.44,105.35,22.71,25.43,46.6,50,64.13,79.57,10.08,17,21.12,33.24,35.23,47.3,7,6.93,11,15.71,12.81,25.37,3,15.73,2.65,31.68,3.33,47.58.74,17.4,1.29,34.86,5.52,51.9,3.61,14.52,10,18.63,24.24,14.82,14.49-3.87,29.24-5.42,44.13-6.58,28.45-2.23,57-3.95,85.17-8.5,26-4.19,51.27-4.19,75.7,7.21C1359,372,1363,374.09,1367.52,373.38ZM710.34,477.75c16.83-2.09,37.55,2.78,57.93,10.37a266.28,266.28,0,0,0,48.85,13.49c15.37,2.58,30.7,3.47,45.47-2.81,19.37-8.24,23.11-25.56,8.3-40.27-18.29-18.17-37.16-35.73-57.75-51.33-22.63-17.14-47.4-21.61-74.4-12.54A260.41,260.41,0,0,1,699.2,405c-20.15,3.39-37.06,12.9-52,26.37-15.48,14-14,27.84,4.1,38.16a55.82,55.82,0,0,0,5.46,2.61C672.34,479,688.78,478.61,710.34,477.75ZM708.9,608.91c20.39-.18,39.54-5.12,56.77-16.16,11.64-7.46,13.85-18.13,7.09-30.12a28.91,28.91,0,0,0-12.53-11.75c-36-18.07-69,.3-86.15,31-5.07,9.1-.47,18.29,9.6,22.86C691.7,608.42,700.21,609.18,708.9,608.91Zm290-266.26c-.34,11.51,4,14.93,12.7,11.76a36.41,36.41,0,0,0,9.91-5.36c12.54-9.89,22-22.17,27.32-37.36,1.42-4.05,2.36-8.22,1.68-12.6-1.17-7.57-5-10.09-12.19-7.53-6.79,2.44-12.31,6.87-17.14,12.11C1010.29,315.51,1001.46,328.52,998.9,342.65Zm78.46,223.49c9.36-.17,16.75-6,18.72-13.67,1.38-5.35-1.35-8.4-6.78-7.13-7.41,1.74-12.29,6.91-15.45,13.44C1071.72,563.2,1073.59,566.11,1077.36,566.14Z" transform="translate(-0.86 -0.86)"/><path class="b" d="M186.69,1.52C173.91,11.26,159.12,17,144.4,22.86c-7.05,2.79-14.32,5.06-21.2,8.2-10.36,4.75-12.69,9.55-9.94,20.65q10.42,41.91,21.3,83.72c6.45,25,11.93,50.14,13.67,76,.85,12.65-.68,25.24-1.84,37.82s-.93,25.24,3.93,37.31C158.46,306.7,176.16,313.94,196,305c13.48-6.08,25.17-15,36.7-24.06,20.48-16.06,40.66-32.52,61.05-48.7,7.93-6.28,16.11-12.25,25.86-15.56,9-3.06,14.18.63,14.5,10.14.29,8.29-2,16.11-4.94,23.59-11.43,28.64-21.41,57.82-32.55,86.55-5.64,14.57-13,28.49-19.93,42.55-10.35,21.07-14.52,43.59-15.28,66.73-.62,19.2-.74,38.46.09,57.64,1.51,34.69-12.9,60.78-40.4,81-19.79,14.54-41.25,26.52-61.09,41-4.3,3.13-8.63,6.25-12,10.42-3.77,4.71-3.17,8.83,2.22,11.91,7.54,4.32,15.88,6.52,24.11,9,40.67,12,79.93,27.09,115.13,51.34,22.4,15.43,40.5,34.94,55.29,57.65a16.77,16.77,0,0,1,1.3,3.43q-169.23,0-338.46.14c-5.2,0-6.22-1-6.22-6.22q.25-374.13.15-748.26C4,15.54,5.28,17.61,7,19c16.19,13.53,34.64,13.68,53.65,8.6C70.32,25,71.69,20.19,66,12.08c-2.58-3.66-5.53-7-8.3-10.56Z" transform="translate(-0.86 -0.86)"/><path class="b" d="M1367.52,373.38c-4.53.71-8.54-1.35-12.3-3.1-24.43-11.4-49.75-11.4-75.7-7.21-28.2,4.55-56.72,6.27-85.17,8.5-14.89,1.16-29.64,2.71-44.13,6.58-14.21,3.81-20.63-.3-24.24-14.82-4.23-17-4.78-34.5-5.52-51.9-.68-15.9-.32-31.85-3.33-47.58-1.85-9.66-5.86-18.44-12.81-25.37-14.11-14.06-25.15-30.29-35.23-47.3-17.53-29.62-41.42-54.14-64.13-79.57-29.64-33.2-59.7-66-81.44-105.35-.84-1.52-1.49-3.16-2.23-4.74h91.07c3.45,19.59,16.76,33.62,32.83,34.62,20.32,1.28,35-11.94,38.5-34.62h160.89c6.19,7.13,14.58,11.46,22,16.92C1287.91,34,1300,53.89,1298.16,81.07c-.38,5.75.6,11.6.89,17.4a102.23,102.23,0,0,0,68.47,91.25Z" transform="translate(-0.86 -0.86)"/><path class="b" d="M1162.62,769.52c-3.86-63,12.86-122.14,34.09-180.45,11.07-30.42,31-53.58,57.07-71.89,35-24.61,72.35-45.41,110.18-65.32a19.07,19.07,0,0,1,3.56-1.08q0,156.33.14,312.66c0,5.2-1,6.24-6.21,6.22C1295.17,769.44,1228.89,769.52,1162.62,769.52Z" transform="translate(-0.86 -0.86)"/><path class="a" d="M1367.52,189.72a102.23,102.23,0,0,1-68.47-91.25c-.29-5.8-1.27-11.65-.89-17.4,1.8-27.18-10.25-47-31.54-62.63-7.46-5.46-15.85-9.79-22-16.92,39.21,0,78.42.1,117.62-.13,4.54,0,5.46.91,5.45,5.44C1367.46,67.8,1367.52,128.76,1367.52,189.72Z" transform="translate(-0.86 -0.86)"/><path class="a" d="M1083.69,1.52c-3.49,22.68-18.18,35.9-38.5,34.62-16.07-1-29.38-15-32.83-34.62Z" transform="translate(-0.86 -0.86)"/><path class="a" d="M57.68,1.52C60.45,5,63.4,8.42,66,12.08c5.71,8.11,4.34,13-5.36,15.54C41.61,32.7,23.16,32.55,7,19c-1.69-1.41-3-3.48-5.45-3.84C1.52,10.63-.26,4.3,2,2s8.6-.5,13.16-.5Z" transform="translate(-0.86 -0.86)"/><path class="b" d="M710.34,477.75c-21.56.86-38,1.21-53.56-5.61a55.82,55.82,0,0,1-5.46-2.61c-18.06-10.32-19.58-24.18-4.1-38.16,14.92-13.47,31.83-23,52-26.37a260.41,260.41,0,0,0,39.54-10.34c27-9.07,51.77-4.6,74.4,12.54,20.59,15.6,39.46,33.16,57.75,51.33,14.81,14.71,11.07,32-8.3,40.27-14.77,6.28-30.1,5.39-45.47,2.81a266.28,266.28,0,0,1-48.85-13.49C747.89,480.53,727.17,475.66,710.34,477.75Z" transform="translate(-0.86 -0.86)"/><path class="b" d="M708.9,608.91c-8.69.27-17.2-.49-25.22-4.14-10.07-4.57-14.67-13.76-9.6-22.86,17.14-30.73,50.14-49.1,86.15-31a28.91,28.91,0,0,1,12.53,11.75c6.76,12,4.55,22.66-7.09,30.12C748.44,603.79,729.29,608.73,708.9,608.91Z" transform="translate(-0.86 -0.86)"/><path class="b" d="M998.9,342.65c2.56-14.13,11.39-27.14,22.28-39,4.83-5.24,10.35-9.67,17.14-12.11,7.16-2.56,11,0,12.19,7.53.68,4.38-.26,8.55-1.68,12.6-5.34,15.19-14.78,27.47-27.32,37.36a36.41,36.41,0,0,1-9.91,5.36C1002.94,357.58,998.56,354.16,998.9,342.65Z" transform="translate(-0.86 -0.86)"/><path class="b" d="M1077.36,566.14c-3.77,0-5.64-2.94-3.51-7.36,3.16-6.53,8-11.7,15.45-13.44,5.43-1.27,8.16,1.78,6.78,7.13C1094.11,560.11,1086.72,566,1077.36,566.14Z" transform="translate(-0.86 -0.86)"/></svg>