<svg xmlns="http://www.w3.org/2000/svg" viewBox="0 0 1366.28 768.28"><defs><style>.a{fill:#ffffff;}.b{fill:#42c7f6;}</style></defs><title>1800f_00087</title><path class="a" d="M1294.66,769.52H921.29c16.57-11.8,16.45-22.43-.58-34.44-9-6.36-19.37-9.76-29.9-12.57-22.78-6.07-46.59-6.35-69.41-11.79-35-8.34-70.06-12.51-105.92-8-20.11,2.56-40.17,5.39-58.21,15.46-8.38,4.68-15.56,10.78-15.48,21.65s7.47,16.76,15.88,21.32c6.13,3.31,12.82,5.59,19.26,8.33H233.74c1.85-2.5,4.84-2.51,7.42-3.2,11.71-3.12,23.43-6.27,35.24-9,60.55-13.94,100-51.48,121.5-108.83,7.57-20.21,11-41.12,2.92-62.21a647.05,647.05,0,0,0-33-72.4C356.63,493,351,471.5,354.33,447.61c1.2-8.61-1.2-17.62-5.49-25.58-1.95-3.62-4.69-7-9.55-5.88-4.65,1.06-6.2,4.93-6.54,9.16a40.77,40.77,0,0,0,.11,10.59c1.74,9.55,1.31,19.16,1.17,28.74-.27,19.79-17.45,36.46-37.18,36.44-13.21,0-24.78-5.27-35.25-12.45-35.06-24.05-64.43-54.26-92.63-85.83-13.81-15.46-15.67-32-9-50.6,2.05-5.71,4.18-11.39,6.1-17.14,5.43-16.29,14.61-31.36,17.3-48.46,6.39-40.67-5-77.12-28.77-109.9C143.93,162,130,150.91,111.16,148.87c-24.74-2.67-47.62,3.89-68.9,16.33C32,171.18,26.53,180.46,24.31,192,20.14,213.76,11.78,234,1.52,253.47v-129a255.52,255.52,0,0,1,50.38-5.24c17.48,0,34.86.93,51,9,34.26,17.15,69.65,17.5,105.26,5.53,37.69-12.68,72.93-31,108.2-49.13C354.55,65,387.52,38.66,416,6.54c1.29-1.46,3.17-2.64,3-5h68.3c12.27,8.06,26.49,12.36,39,19.91,20,12.1,41.66,14,64.3,12.66C619,32.37,647.38,28.73,676,30.56c29.21,1.88,58.53,3.07,87.55,6.61,38.09,4.65,66.11-14.78,94-35.65H975.93a195.85,195.85,0,0,1,5.83,48.05c-.49,36.77,14.28,66,42.65,88.91q34.81,28.11,69.37,56.56c21.74,18,45.45,33.81,62.4,57.23,18.41,25.42,38,50,45.45,81.52,4.24,17.95,8.41,35.91,12.68,53.86,6.48,27.26,15.22,53.42,34,75.23a294.49,294.49,0,0,0,70.94,60c15.51,9.41,31.2,18.6,48.28,25v82a237.07,237.07,0,0,0-51.92,27.88c-18.61,13.31-24.57,31.36-23.16,53.49C1293.67,730.63,1296,750,1294.66,769.52Zm-121-107.24a44.31,44.31,0,0,0-6.82.05c-34.13,5.26-66.2,16.21-95.16,35.36-7.38,4.88-14.46,10.24-19.74,17.54-10.19,14.08-7.25,27,8,35.3,19.44,10.57,37.55,7.05,54.55-5.58,16.42-12.21,32.78-24.51,48.85-37.17,8.11-6.39,16.26-12.88,22.5-21.32,3.91-5.3,9.33-10.8,5.93-17.62S1180.53,662.3,1173.68,662.28Z" transform="translate(-1.36 -1.37)"/><path class="b" d="M1.52,253.47C11.78,234,20.14,213.76,24.31,192c2.22-11.57,7.71-20.85,18-26.83,21.28-12.44,44.16-19,68.9-16.33,18.84,2,32.77,13.12,43.45,27.83,23.8,32.78,35.16,69.23,28.77,109.9-2.69,17.1-11.87,32.17-17.3,48.46-1.92,5.75-4.05,11.43-6.1,17.14-6.68,18.59-4.82,35.14,9,50.6,28.2,31.57,57.57,61.78,92.63,85.83,10.47,7.18,22,12.43,35.25,12.45,19.73,0,36.91-16.65,37.18-36.44.14-9.58.57-19.19-1.17-28.74a40.77,40.77,0,0,1-.11-10.59c.34-4.23,1.89-8.1,6.54-9.16,4.86-1.12,7.6,2.26,9.55,5.88,4.29,8,6.69,17,5.49,25.58-3.33,23.89,2.3,45.41,13.45,66.28a647.05,647.05,0,0,1,33,72.4c8.12,21.09,4.65,42-2.92,62.21C376.44,705.85,337,743.39,276.4,757.33c-11.81,2.72-23.53,5.87-35.24,9-2.58.69-5.57.7-7.42,3.2q-113.46,0-226.91.12c-4.53,0-5.59-.89-5.45-5.44.4-12.38.14-24.79.14-37.18,14.94-6.11,29.75-12.58,44.86-18.24,36-13.48,69.85-30.65,99.88-54.93,27.9-22.55,34.47-46.92,20.77-79.92-4.85-11.66-10.31-23.11-16.25-34.25-21.08-39.49-32.18-81.54-34.13-126.22-.57-13-2.77-25.77-14.4-34.42-7.86-5.85-16.77-9.24-26.12-11.65-9.11-2.35-18.5-2.53-27.76-3.68-16.73-2.08-32.2-7.94-46.85-16.14Z" transform="translate(-1.36 -1.37)"/><path class="b" d="M1367.52,547.92c-17.08-6.43-32.77-15.62-48.28-25a294.49,294.49,0,0,1-70.94-60c-18.77-21.81-27.51-48-34-75.23-4.27-17.95-8.44-35.91-12.68-53.86-7.42-31.49-27-56.1-45.45-81.52-17-23.42-40.66-39.21-62.4-57.23q-34.47-28.54-69.37-56.56C996,115.59,981.27,86.34,981.76,49.57a195.85,195.85,0,0,0-5.83-48h163.92c-.25,3.27,1.75,5.74,3.1,8.39a448,448,0,0,1,21.81,50.72c5.8,16.11,11.19,32.43,20.13,47.25,4.47,7.42,10.52,11.15,19.35,10.52,13-.92,19.5-9.9,22.45-20.53,6.4-23.11,10.76-46.62,7.44-70.94-1.15-8.45-3.69-16.75-3.21-25.41H1340.2a156.9,156.9,0,0,0,27.32,45.53Z" transform="translate(-1.36 -1.37)"/><path class="a" d="M1.52,347.57c14.65,8.2,30.12,14.06,46.85,16.14,9.26,1.15,18.65,1.33,27.76,3.68,9.35,2.41,18.26,5.8,26.12,11.65,11.63,8.65,13.83,21.46,14.4,34.42,1.95,44.68,13,86.73,34.13,126.22,5.94,11.14,11.4,22.59,16.25,34.25,13.7,33,7.13,57.37-20.77,79.92-30,24.28-63.9,41.45-99.88,54.93C31.27,714.44,16.46,720.91,1.52,727Z" transform="translate(-1.36 -1.37)"/><path class="b" d="M418.91,1.52c.21,2.38-1.67,3.56-3,5C387.52,38.66,354.55,65,316.34,84.62c-35.27,18.14-70.51,36.45-108.2,49.13-35.61,12-71,11.62-105.26-5.53-16.12-8.07-33.5-9-51-9a255.52,255.52,0,0,0-50.38,5.24c0-39,.13-77.91-.15-116.87,0-5.2,1-6.22,6.22-6.22Q213.24,1.66,418.91,1.52Z" transform="translate(-1.36 -1.37)"/><path class="b" d="M676.93,769.52c-6.44-2.74-13.13-5-19.26-8.33-8.41-4.56-15.8-10.42-15.88-21.32s7.1-17,15.48-21.65c18-10.07,38.1-12.9,58.21-15.46,35.86-4.55,70.95-.38,105.92,8,22.82,5.44,46.63,5.72,69.41,11.79,10.53,2.81,20.88,6.21,29.9,12.57,17,12,17.15,22.64.58,34.44H866.65c-32.84-9.09-66.11-12.51-99.92-6.88-11.28,1.88-22.92,2.23-33.64,6.88Z" transform="translate(-1.36 -1.37)"/><path class="b" d="M857.54,1.52c-27.91,20.87-55.93,40.3-94,35.65-29-3.54-58.34-4.73-87.55-6.61-28.59-1.83-57,1.81-85.48,3.53-22.64,1.37-44.29-.56-64.3-12.66-12.49-7.55-26.71-11.85-39-19.91Z" transform="translate(-1.36 -1.37)"/><path class="b" d="M1294.66,769.52c1.3-19.5-1-38.89-2.22-58.27-1.41-22.13,4.55-40.18,23.16-53.49a237.07,237.07,0,0,1,51.92-27.88c0,44.77-.09,89.55.13,134.32,0,4.53-.91,5.51-5.45,5.45C1339.69,769.36,1317.18,769.52,1294.66,769.52Z" transform="translate(-1.36 -1.37)"/><path class="a" d="M1230.92,1.52c-.48,8.66,2.06,17,3.21,25.41,3.32,24.32-1,47.83-7.44,70.94-3,10.63-9.45,19.61-22.45,20.53-8.83.63-14.88-3.1-19.35-10.52-8.94-14.82-14.33-31.14-20.13-47.25A448,448,0,0,0,1143,9.91c-1.35-2.65-3.35-5.12-3.1-8.39Z" transform="translate(-1.36 -1.37)"/><path class="a" d="M733.09,769.52c10.72-4.65,22.36-5,33.64-6.88,33.81-5.63,67.08-2.21,99.92,6.88Z" transform="translate(-1.36 -1.37)"/><path class="a" d="M1367.52,47.05A156.9,156.9,0,0,1,1340.2,1.52c7.76,0,15.54.3,23.27-.13,3.84-.21,4.18,1.07,4.13,4.36C1367.4,19.51,1367.52,33.28,1367.52,47.05Z" transform="translate(-1.36 -1.37)"/><path class="b" d="M1173.68,662.28c6.85,0,14.69-.4,18.16,6.56s-2,12.32-5.93,17.62c-6.24,8.44-14.39,14.93-22.5,21.32-16.07,12.66-32.43,25-48.85,37.17-17,12.63-35.11,16.15-54.55,5.58-15.3-8.32-18.24-21.22-8-35.3,5.28-7.3,12.36-12.66,19.74-17.54,29-19.15,61-30.1,95.16-35.36A44.31,44.31,0,0,1,1173.68,662.28Z" transform="translate(-1.36 -1.37)"/></svg>