<svg xmlns="http://www.w3.org/2000/svg" viewBox="0 0 1366.27 768.34"><defs><style>.a{fill:#ffffff;}.b{fill:#42c7f6;}</style></defs><title>1800f_00085</title><path class="a" d="M1367.52,540.33v82c-2.46-1-4.42.52-6.42,1.4a315,315,0,0,0-47.84,26c-20.7,13.78-28.9,32.57-25.78,57.13a457.53,457.53,0,0,1,4.15,62.68H211c2-3.07,5.44-3.41,8.4-4.53a239.3,239.3,0,0,1,39.48-10.64c55-10.6,96.66-39.52,123.58-88.93,15.39-28.24,21.86-57.2,8.53-88.56-6.71-15.77-11.35-32.43-16.81-48.72C367.5,508.3,364.26,488,365.5,467a286.58,286.58,0,0,0,.11-30.32c-.58-12.44-3-24.58-9-35.73-3.92-7.3-9.6-13-18.11-13.21-8.91-.21-14.67,5.79-19.12,13-5,8.18-6.24,17.52-8.27,26.62-3.3,14.76-4.53,30.06-10.93,44-6.22,13.53-15.77,18-30.21,14.77-9.29-2.07-17.65-6.23-25.45-11.43a316.58,316.58,0,0,1-73.22-67.61c-11.78-14.92-15.17-31.57-10.37-50,2.93-11.26,6.25-22.45,10.92-33.08,13.77-31.36,18.35-63.39,8.67-96.79-6-20.61-14.31-40-28.76-56.22-24.69-27.7-55.9-33.62-90.6-26-34.43,7.59-42.93,21-40.06,48.25a4.82,4.82,0,0,1,0,.76c-1.56,20.51-8.52,39.14-19.59,56.35v-129c10.93.28,21.47-2.67,32.22-3.92,27.7-3.24,54.49-2.69,81.08,8.47,38,15.95,76.27,14.69,113.85-3.4,20.74-10,41.54-19.8,61.89-30.54,32.25-17,63.81-35.18,90.59-60.4,9.85-9.28,20.32-18.06,27.13-30.11H494.8c8.31,4.87,17.69,7.35,26.28,11.56C544.38,24.52,568.8,28.54,594.63,26c17-1.71,34.2-2.49,51.33-3.31,35.65-1.7,71.09,2,106.54,4.68,34.68,2.57,65.84-6.6,94.42-25.8h126c2.81,13.59,6.68,27,7.8,40.9,2.88,35.64,17.82,65.49,43.64,90,21.83,20.72,43.93,41.15,65.56,62.07,20.89,20.21,43.47,38.66,62.13,61.17,21.77,26.23,42.5,52.87,49.32,87.55,2.83,14.37,6.45,28.59,10,42.81,6.1,24.67,13.19,49.07,30.79,68.45C1277.09,493,1320.06,520,1367.52,540.33ZM760,693.25c-25.12.25-46,2.36-66.53,6.79-14.08,3-28.23,6.48-39.69,16C640.69,727,641.26,740.15,655,750.14a62.61,62.61,0,0,0,22.68,10.15c24.37,5.78,48.21,1.93,71.94-3.89,20.65-5.06,41.3-9.79,62.83-8.69,15,.76,29.42,4.55,44,7.29,14.34,2.69,28.58,7,43.43,3.65,6.26-1.41,12.93-2.87,14.62-10.2s-3.71-11.55-8.91-15.32c-7-5.11-15-8.22-23.31-10.72-24.19-7.31-49.55-10.42-73.09-19.87C792,695.63,774.39,692.38,760,693.25Zm416-35.47a16.3,16.3,0,0,0-2.76.14c-32.51,4-63,14.58-91.83,29.73-11.62,6.1-22.68,13.38-29.87,25-5.86,9.49-5,18.25,2.71,26.14,12.65,13,35.49,15.62,52.52,4.64,19.1-12.3,37.55-25.65,56-38.88,10.28-7.35,20.16-15.32,27.54-25.8,3-4.25,7-8.61,4.16-14.44-2.89-6-9.14-5.46-14.45-6.55A30.75,30.75,0,0,0,1176,657.78Z" transform="translate(-1.38 -1.35)"/><path class="b" d="M1.52,250.44c11.07-17.21,18-35.84,19.59-56.35a4.82,4.82,0,0,0,0-.76c-2.87-27.2,5.63-40.66,40.06-48.25,34.7-7.64,65.91-1.72,90.6,26,14.45,16.21,22.79,35.61,28.76,56.22,9.68,33.4,5.1,65.43-8.67,96.79-4.67,10.63-8,21.82-10.92,33.08-4.8,18.39-1.41,35,10.37,50a316.58,316.58,0,0,0,73.22,67.61c7.8,5.2,16.16,9.36,25.45,11.43,14.44,3.21,24-1.24,30.21-14.77,6.4-13.95,7.63-29.25,10.93-44,2-9.1,3.24-18.44,8.27-26.62,4.45-7.24,10.21-13.24,19.12-13,8.51.2,14.19,5.91,18.11,13.21,6,11.15,8.4,23.29,9,35.73A286.58,286.58,0,0,1,365.5,467c-1.24,21,2,41.32,8.65,61.16,5.46,16.29,10.1,33,16.81,48.72,13.33,31.36,6.86,60.32-8.53,88.56-26.92,49.41-68.62,78.33-123.58,88.93A239.3,239.3,0,0,0,219.37,765c-3,1.12-6.44,1.46-8.4,4.53-67.6,0-135.21-.11-202.81.17-6.06,0-6.88-1.78-6.78-7.16.36-17.9.14-35.82.14-53.73,23.52-10.6,48-18.57,72.27-27.28a217.64,217.64,0,0,0,57.3-30.66c11.62-8.73,22.31-18.37,28.84-31.67,9.1-18.55,6.18-37-1.64-55-8.26-19-17.09-37.78-25.69-56.64-11.94-26.18-18-54.19-24.83-81.88-7.32-29.56-25.94-46-55.53-50.44A145.78,145.78,0,0,1,1.52,358.2Z" transform="translate(-1.38 -1.35)"/><path class="b" d="M1367.52,540.33c-47.46-20.36-90.43-47.35-125.41-85.86-17.6-19.38-24.69-43.78-30.79-68.45-3.52-14.22-7.14-28.44-10-42.81-6.82-34.68-27.55-61.32-49.32-87.55-18.66-22.51-41.24-41-62.13-61.17-21.63-20.92-43.73-41.35-65.56-62.07-25.82-24.51-40.76-54.36-43.64-90-1.12-13.93-5-27.31-7.8-40.9h166.95c-.69,2.2.53,3.93,1.49,5.67,12.28,22.16,21.53,45.63,30.06,69.41,4.26,11.91,8.85,23.68,15.9,34.26,5.12,7.68,12.58,12.08,21.8,11.23,9.86-.91,15.57-7.59,18.46-16.73a33.69,33.69,0,0,0,1.63-7.36c1.72-22.91,3-45.8.2-68.74-1.11-9.23-3.26-18.36-3-27.74h104.73c9.92,17.85,23.62,32.88,36.43,48.57Z" transform="translate(-1.38 -1.35)"/><path class="b" d="M408.28,1.52C401.47,13.57,391,22.35,381.15,31.63,354.37,56.85,322.81,75,290.56,92c-20.35,10.74-41.15,20.56-61.89,30.54-37.58,18.09-75.85,19.35-113.85,3.4-26.59-11.16-53.38-11.71-81.08-8.47-10.75,1.25-21.29,4.2-32.22,3.92,0-37.63.11-75.27-.13-112.91,0-5.37.71-7.17,6.78-7.16Q208.23,1.68,408.28,1.52Z" transform="translate(-1.38 -1.35)"/><path class="a" d="M1.52,358.2a145.78,145.78,0,0,0,50.72,17.05c29.59,4.43,48.21,20.88,55.53,50.44,6.86,27.69,12.89,55.7,24.83,81.88,8.6,18.86,17.43,37.63,25.69,56.64,7.82,18,10.74,36.43,1.64,55-6.53,13.3-17.22,22.94-28.84,31.67a217.64,217.64,0,0,1-57.3,30.66C49.55,690.23,25,698.2,1.52,708.8Z" transform="translate(-1.38 -1.35)"/><path class="b" d="M1291.63,769.52a457.53,457.53,0,0,0-4.15-62.68c-3.12-24.56,5.08-43.35,25.78-57.13a315,315,0,0,1,47.84-26c2-.88,4-2.44,6.42-1.4,0,47.31-.08,94.61.13,141.91,0,4.53-.91,5.5-5.45,5.45C1338.68,769.36,1315.15,769.52,1291.63,769.52Z" transform="translate(-1.38 -1.35)"/><path class="a" d="M1226.36,1.52c-.23,9.38,1.92,18.51,3,27.74,2.77,22.94,1.52,45.83-.2,68.74a33.69,33.69,0,0,1-1.63,7.36c-2.89,9.14-8.6,15.82-18.46,16.73-9.22.85-16.68-3.55-21.8-11.23-7-10.58-11.64-22.35-15.9-34.26-8.53-23.78-17.78-47.25-30.06-69.41-1-1.74-2.18-3.47-1.49-5.67Z" transform="translate(-1.38 -1.35)"/><path class="b" d="M846.92,1.52c-28.58,19.2-59.74,28.37-94.42,25.8-35.45-2.64-70.89-6.38-106.54-4.68-17.13.82-34.28,1.6-51.33,3.31-25.83,2.59-50.25-1.43-73.55-12.87-8.59-4.21-18-6.69-26.28-11.56Z" transform="translate(-1.38 -1.35)"/><path class="a" d="M1367.52,50.09C1354.71,34.4,1341,19.37,1331.09,1.52c10.88,0,21.76.16,32.63-.1,3.27-.08,4,.63,3.9,3.9C1367.39,20.24,1367.52,35.16,1367.52,50.09Z" transform="translate(-1.38 -1.35)"/><path class="b" d="M760,693.25c14.4-.87,32,2.38,49.26,9.29,23.54,9.45,48.9,12.56,73.09,19.87,8.26,2.5,16.26,5.61,23.31,10.72,5.2,3.77,10.62,7.91,8.91,15.32s-8.36,8.79-14.62,10.2c-14.85,3.36-29.09-1-43.43-3.65-14.63-2.74-29.06-6.53-44-7.29-21.53-1.1-42.18,3.63-62.83,8.69-23.73,5.82-47.57,9.67-71.94,3.89A62.61,62.61,0,0,1,655,750.14c-13.75-10-14.32-23.17-1.24-34.08,11.46-9.54,25.61-13,39.69-16C714,695.61,734.87,693.5,760,693.25Z" transform="translate(-1.38 -1.35)"/><path class="b" d="M1176,657.78a30.75,30.75,0,0,1,4.06,0c5.31,1.09,11.56.53,14.45,6.55,2.81,5.83-1.17,10.19-4.16,14.44-7.38,10.48-17.26,18.45-27.54,25.8-18.49,13.23-36.94,26.58-56,38.88-17,11-39.87,8.34-52.52-4.64-7.69-7.89-8.57-16.65-2.71-26.14,7.19-11.66,18.25-18.94,29.87-25,28.85-15.15,59.32-25.69,91.83-29.73A16.3,16.3,0,0,1,1176,657.78Z" transform="translate(-1.38 -1.35)"/></svg>