<svg xmlns="http://www.w3.org/2000/svg" viewBox="0 0 1943.05 1093.11"><defs><style>.a{fill:#ffffff;}.b{fill:#41c7f6;}</style></defs><title>1800f_00335</title><path class="a" d="M-286.86,596.49V435.6c19.22-4.3,38.37-9,57.69-12.81,35.07-6.9,70.39-10.63,106.25-7.29,13.78,1.28,27.66,3.84,41.55,1.26,22.41-4.15,37.62-19.13,51-35.9C-12.65,358.52,4,335.29,21.35,312.62c15.39-20.07,33.81-36.3,58.93-43,41.62-11.09,84-19.2,127-20a694.72,694.72,0,0,0,188-29.66c35.53-10.7,68.72-25.7,94.85-53.09,20.07-21,40.47-41.78,59.06-64.16C567,81.28,582,58.3,587.11,30.3c3.46-18.88,6.33-37.86,9.68-56.76,3.89-22,7.05-44,2.84-66.25-3.91-20.68-17.26-27.86-36.78-20.2-12.35,4.85-23.2,12.3-33.84,20-27,19.6-53.85,39.37-81.69,57.82C399.82-3.57,347.76,9.49,291.21,6.58c-36.84-1.89-73.67-3.8-110.55.52-13,1.52-26.13,2.64-39.3.56-12.87-2-21.81-8.44-26.32-21-3.71-10.31-3.71-20.93-2.92-31.49,2.47-33.32,11.4-65.06,24.1-95.87,2.75-6.69,7.2-12.75,8-20.22H904.6c.85,13.92-.38,27.76-1.7,41.6-2.44,25.53-10.75,48.61-27,68.8-8.86,11-18.08,21.79-25.13,34.15-9.37,16.42-6.22,29.43,9.74,39.46,7.54,4.75,15.89,7.67,24.38,10.25,26.12,7.93,52,5.7,77.69-1.88,29.63-8.74,58.37-6.39,86.63,5.7a232.92,232.92,0,0,0,36,11.8c35.81,8.82,72.1,15.53,107.8,24.92,62.61,16.45,126,29,190.42,35.87,31.62,3.36,63.42,5.9,94.48,13.29,21.55,5.12,42.43,11.86,58.72,28.08,15.75,15.7,15.87,29.48.14,45.11-9.14,9.08-18.94,17.52-27.83,26.83-18.12,19-27.79,42.7-35.09,67.31-15.59,52.57-39.48,101-69.94,146.53-27.84,41.63-53.49,84.6-74.09,130.42-15,33.42-28.79,67.44-46.77,99.47-6.55,11.68-13.92,22.91-20.22,34.72-16.34,30.69-23.27,63.76-25,98.34-2.24,45.75,9.34,87,37.25,123.54,2.09,2.73,5.45,4.63,5.94,8.49H54.64a217,217,0,0,0-55-51.53c-32.63-21.27-59.49-47.95-83-78.81a492.21,492.21,0,0,0-58.91-65.14c-30.38-27.82-60.73-55.67-89.11-85.57-16-16.87-32.24-33.5-48.95-49.68C-282.22,599.33-283.63,596.59-286.86,596.49ZM1030.66,141.88c-.17,3.53.15,6.24,3.77,6.8s9.38-5.83,9.7-10.77c.21-3.09-.67-6-4.24-5.62C1034,132.86,1032,137.51,1030.66,141.88Z" transform="translate(287.01 161.04)"/><path class="b" d="M1281,931.92c-.49-3.86-3.85-5.76-5.94-8.49-27.91-36.52-39.49-77.79-37.25-123.54,1.69-34.58,8.62-67.65,25-98.34,6.3-11.81,13.67-23,20.22-34.72,18-32,31.75-66.05,46.77-99.47,20.6-45.82,46.25-88.79,74.09-130.42,30.46-45.53,54.35-94,69.94-146.53,7.3-24.61,17-48.31,35.09-67.31,8.89-9.31,18.69-17.75,27.83-26.83,15.73-15.63,15.61-29.41-.14-45.11-16.29-16.22-37.17-23-58.72-28.08-31.06-7.39-62.86-9.93-94.48-13.29-64.46-6.87-127.81-19.42-190.42-35.87-35.7-9.39-72-16.1-107.8-24.92a232.92,232.92,0,0,1-36-11.8c-28.26-12.09-57-14.44-86.63-5.7-25.68,7.58-51.57,9.81-77.69,1.88-8.49-2.58-16.84-5.5-24.38-10.25-16-10-19.11-23-9.74-39.46,7-12.36,16.27-23.16,25.13-34.15,16.29-20.19,24.6-43.27,27-68.8,1.32-13.84,2.55-27.68,1.7-41.6q372.23,0,744.47-.14c5.69,0,7,1.28,7,7q-.27,217.43-.14,434.84c-5.94-4.63-11.59-9.7-17.86-13.81-14.26-9.34-28.7-8.58-42.21,1.83-17.37,13.39-27.14,31.56-32.52,52.42-5.45,21.16-2.13,42.2,1,63.17,4.38,28.86,2.38,56.8-9.42,83.88-12.67,29-29.29,55.93-44.72,83.47-33.39,59.6-58.45,122.06-66,190.55-2.16,19.59-.56,38.87,8.08,57,11.21,23.54,31.87,35.93,54.56,45.57,31.66,13.47,64.58,23.46,97.47,33.34,16.72,5,33.93,8.14,51.59,5.11,0,14.42-.24,28.84.13,43.25.12,4.55-.92,5.45-5.45,5.44q-147.22-.24-294.45-.12Z" transform="translate(287.01 161.04)"/><path class="b" d="M144.19-160.88c-.77,7.47-5.22,13.53-8,20.22-12.7,30.81-21.63,62.55-24.1,95.87-.79,10.56-.79,21.18,2.92,31.49,4.51,12.52,13.45,18.93,26.32,21,13.17,2.08,26.34,1,39.3-.56,36.88-4.32,73.71-2.41,110.55-.52C347.76,9.49,399.82-3.57,447.32-35.06,475.16-53.51,502-73.28,529-92.88c10.64-7.73,21.49-15.18,33.84-20,19.52-7.66,32.87-.48,36.78,20.2,4.21,22.25,1,44.27-2.84,66.25-3.35,18.9-6.22,37.88-9.68,56.76-5.13,28-20.12,51-37.91,72.39-18.59,22.38-39,43.13-59.06,64.16-26.13,27.39-59.32,42.39-94.85,53.09a694.72,694.72,0,0,1-188,29.66c-43,.83-85.36,8.94-127,20-25.12,6.69-43.54,22.92-58.93,43-17.36,22.67-34,45.9-51.77,68.24-13.33,16.77-28.54,31.75-50.95,35.9-13.89,2.58-27.77,0-41.55-1.26-35.86-3.34-71.18.39-106.25,7.29-19.32,3.8-38.47,8.51-57.69,12.81q0-295-.13-590c0-5.3.88-6.67,6.52-6.66Q-68.14-160.74,144.19-160.88ZM7.66,195.76c.3,13,2.35,25.67,9.68,36.79,6.19,9.38,14.21,11.07,23.4,5.45,19.07-11.66,34.8-45,31.55-66.93-3.54-23.86-24.57-32.75-44.3-18.72C13,163,7.8,178.15,7.66,195.76Z" transform="translate(287.01 161.04)"/><path class="a" d="M1655.9,883.35c-17.66,3-34.87-.09-51.59-5.11-32.89-9.88-65.81-19.87-97.47-33.34-22.69-9.64-43.35-22-54.56-45.57-8.64-18.16-10.24-37.44-8.08-57,7.56-68.49,32.62-130.95,66-190.55,15.43-27.54,32-54.43,44.72-83.47,11.8-27.08,13.8-55,9.42-83.88-3.17-21-6.49-42-1-63.17,5.38-20.86,15.15-39,32.52-52.42,13.51-10.41,28-11.17,42.21-1.83,6.27,4.11,11.92,9.18,17.86,13.81Z" transform="translate(287.01 161.04)"/><path class="b" d="M-286.86,596.49c3.23.1,4.64,2.84,6.55,4.7,16.71,16.18,32.94,32.81,48.95,49.68,28.38,29.9,58.73,57.75,89.11,85.57a492.21,492.21,0,0,1,58.91,65.14c23.47,30.86,50.33,57.54,83,78.81a217,217,0,0,1,55,51.53q-167.71,0-335.43.14c-5.2,0-6.23-1-6.22-6.21Q-286.71,761.17-286.86,596.49Z" transform="translate(287.01 161.04)"/><path class="b" d="M1030.66,141.88c1.33-4.37,3.37-9,9.23-9.59,3.57-.34,4.45,2.53,4.24,5.62-.32,4.94-6.06,11.34-9.7,10.77S1030.49,145.41,1030.66,141.88Z" transform="translate(287.01 161.04)"/><path class="a" d="M7.66,195.76C7.8,178.15,13,163,28,152.35c19.73-14,40.76-5.14,44.3,18.72C75.54,193,59.81,226.34,40.74,238c-9.19,5.62-17.21,3.93-23.4-5.45C10,221.43,8,208.79,7.66,195.76Z" transform="translate(287.01 161.04)"/></svg>