<svg xmlns="http://www.w3.org/2000/svg" viewBox="0 0 1943.05 1093.09"><defs><style>.a{fill:#ffffff;}.b{fill:#41c7f6;}</style></defs><title>1800f_00385</title><path class="a" d="M1655.9,82v221.6c-4.14,7.5-7.9,15.24-12.47,22.48-25.71,40.76-43.34,84.77-56.68,131.07-15,52-36.6,101.28-68.79,145.33-26.27,36-60.87,56.26-106.29,52.86-50.87-3.82-98-19.48-139.78-49.42-14.62-10.49-23.36-25.18-24.25-43.57a319.85,319.85,0,0,1,14.86-114.42c7.85-24.36,19.57-47.16,29.46-70.69,12.22-29.06,19.51-59.07,17.36-90.77-2.31-34.3-10.8-67.3-22.45-99.53-3.8-10.51-8.45-20.6-15.35-29.49-13.14-16.93-29.67-18.84-45.84-4.95-7.93,6.81-14,15.35-19.35,24.22-23.36,38.47-46.17,77.28-67.5,116.92-14.81,27.51-23.76,56.83-24.63,88.32-1.61,58.75,12.27,113.8,40,165.4,10.42,19.36,23.22,36.38,43.82,46.79,14.26,7.2,21.87,20.64,25.37,36.07,6.11,26.93,8,54.43,10.57,81.82,2.92,31,6.34,61.84,14.76,91.93,11.83,42.28,28,83.53,30.74,128H94.1c-5.1-9.34-11.47-17.85-17.83-26.31-39.62-52.78-81.61-103.67-123-155-26.58-32.94-55.09-64-89.53-89-25-18.21-52.56-32.21-79.29-47.54-29-16.65-50-39.76-60.56-71.88-3.51-10.74-7.14-21.44-10.72-32.16v-68.3c3.83-9.29,7.18-18.8,11.57-27.81C-244,349.58-194,306.54-126.22,284.37-86.84,271.49-47.34,259.3-10,240.8c33.32-16.49,57.19-39.86,69.87-75.67,14.5-41,43.64-67.15,86.88-76.57,22.26-4.85,44.8-7.47,67.43-9.67,19.58-1.9,39.31-3.38,57.89-10.55,25.1-9.69,44.49-24.77,49.42-53.37a127.68,127.68,0,0,0-.71-48.21c-8.85-42.14-8.14-85.39-15.74-127.64H995.66c.87.84,1.6,2,2.64,2.49,41.13,17.95,77.17,44.07,112.5,71.1,36.31,27.79,71.73,56.73,107.82,84.81,26.82,20.88,56.87,34.5,91,38.55,21.07,2.5,42.24,3.82,63.37,5.66,41.63,3.61,83.29,2.65,125,1.56,29.3-.76,58.57-1.15,87.89,0C1616,44.44,1640.15,55.26,1655.9,82ZM535.18,324.78c5.52-.32,13.09-.7,20.65-1.2,51.45-3.45,97.5-21.61,138.39-52.49,32.15-24.27,50.84-55.78,47.91-97.62-2.19-31.38-19.59-50-48.61-50.44-50.13-.82-100,2.36-149.37,11.57-33.25,6.2-66.38,13.83-100.36,14.78-21.46.6-43-.41-64.43-.27a121.22,121.22,0,0,0-32.15,4.38c-21.21,6-31.91,24-27.17,45.43,4.27,19.31,16.28,34.54,26.11,51,15.81,26.46,39.24,43.1,67.32,54C451.94,318.82,492.19,323.67,535.18,324.78ZM450.09,455.25c-4.73.35-9.55.45-14.27,1.14a91.44,91.44,0,0,0-14,3.05c-20.65,6.49-24.71,20.86-10.67,37.21,1,1.15,2,2.26,3.08,3.34,18.9,19.23,42.06,31.07,67.56,38.75A93.84,93.84,0,0,0,513.89,543c27-1.44,39.67-23.57,27.19-47.56a50.28,50.28,0,0,0-15.17-17.65C503.32,461.34,477.28,456.55,450.09,455.25Z" transform="translate(287.01 161.03)"/><path class="b" d="M305.07-160.88c7.6,42.25,6.89,85.5,15.74,127.64A127.68,127.68,0,0,1,321.52,15c-4.93,28.6-24.32,43.68-49.42,53.37-18.58,7.17-38.31,8.65-57.89,10.55-22.63,2.2-45.17,4.82-67.43,9.67C103.54,98,74.4,124.16,59.9,165.13,47.22,200.94,23.35,224.31-10,240.8c-37.37,18.5-76.87,30.69-116.25,43.57C-194,306.54-244,349.58-275.29,413.87c-4.39,9-7.74,18.52-11.57,27.81q0-298.06-.15-596.11c0-5.46,1.11-6.61,6.59-6.6Q12.33-160.76,305.07-160.88Z" transform="translate(287.01 161.03)"/><path class="b" d="M1279.49,931.92c-2.77-44.46-18.91-85.71-30.74-128C1240.33,773.84,1236.91,743,1234,712c-2.58-27.39-4.46-54.89-10.57-81.82-3.5-15.43-11.11-28.87-25.37-36.07-20.6-10.41-33.4-27.43-43.82-46.79-27.76-51.6-41.64-106.65-40-165.4.87-31.49,9.82-60.81,24.63-88.32,21.33-39.64,44.14-78.45,67.5-116.92,5.38-8.87,11.42-17.41,19.35-24.22,16.17-13.89,32.7-12,45.84,4.95,6.9,8.89,11.55,19,15.35,29.49,11.65,32.23,20.14,65.23,22.45,99.53,2.15,31.7-5.14,61.71-17.36,90.77-9.89,23.53-21.61,46.33-29.46,70.69a319.85,319.85,0,0,0-14.86,114.42c.89,18.39,9.63,33.08,24.25,43.57,41.74,29.94,88.91,45.6,139.78,49.42,45.42,3.4,80-16.9,106.29-52.86,32.19-44.05,53.81-93.37,68.79-145.33,13.34-46.3,31-90.31,56.68-131.07,4.57-7.24,8.33-15,12.47-22.48q0,310.76.14,621.53c0,5.69-1.28,7-7,7Q1464.27,931.78,1279.49,931.92Z" transform="translate(287.01 161.03)"/><path class="b" d="M1655.9,82c-15.75-26.7-39.9-37.52-70.09-38.69-29.32-1.13-58.59-.74-87.89,0-41.68,1.09-83.34,2.05-125-1.56-21.13-1.84-42.3-3.16-63.37-5.66-34.09-4-64.14-17.67-91-38.55-36.09-28.08-71.51-57-107.82-84.81-35.33-27-71.37-53.15-112.5-71.1-1-.46-1.77-1.65-2.64-2.49q326.7,0,653.41-.14c5.69,0,7,1.27,7,7Q1655.73-36,1655.9,82Z" transform="translate(287.01 161.03)"/><path class="b" d="M-286.86,510c3.58,10.72,7.21,21.42,10.72,32.16,10.52,32.12,31.52,55.23,60.56,71.88,26.73,15.33,54.27,29.33,79.29,47.54,34.44,25.08,62.95,56.1,89.53,89,41.42,51.34,83.41,102.23,123,155,6.36,8.46,12.73,17,17.83,26.31q-187.44,0-374.89.14c-5.2,0-6.22-1-6.22-6.21Q-286.73,717.91-286.86,510Z" transform="translate(287.01 161.03)"/><path class="b" d="M535.18,324.78c-43-1.11-83.24-6-121.71-20.88-28.08-10.89-51.51-27.53-67.32-54-9.83-16.45-21.84-31.68-26.11-51-4.74-21.47,6-39.46,27.17-45.43a121.22,121.22,0,0,1,32.15-4.38c21.48-.14,43,.87,64.43.27,34-.95,67.11-8.58,100.36-14.78,49.41-9.21,99.24-12.39,149.37-11.57,29,.47,46.42,19.06,48.61,50.44,2.93,41.84-15.76,73.35-47.91,97.62-40.89,30.88-86.94,49-138.39,52.49C548.27,324.08,540.7,324.46,535.18,324.78Z" transform="translate(287.01 161.03)"/><path class="b" d="M450.09,455.25c27.19,1.3,53.23,6.09,75.82,22.54a50.28,50.28,0,0,1,15.17,17.65c12.48,24-.2,46.12-27.19,47.56a93.84,93.84,0,0,1-32.12-4.26c-25.5-7.68-48.66-19.52-67.56-38.75-1.06-1.08-2.1-2.19-3.08-3.34-14-16.35-10-30.72,10.67-37.21a91.44,91.44,0,0,1,14-3.05C440.54,455.7,445.36,455.6,450.09,455.25Z" transform="translate(287.01 161.03)"/></svg>