<svg xmlns="http://www.w3.org/2000/svg" viewBox="0 0 1943.71 1093.71"><defs><style>.a{fill:#ffffff;}.b{fill:#41c7f6;}</style></defs><title>1800f_00098</title><path class="a" d="M1050.3-160.88h95.62c-.13,11.25-3.27,22-6.4,32.59-15.46,52.31-41,97.23-92,123.15-14.54,7.4-22.88,19.7-24.8,35.92-3.71,31.32-1.21,62.15,9.59,91.88,7.89,21.73,24.25,33.12,47.4,31.66,43.32-2.72,79.29-19.25,101.35-58.95,9.81-17.65,21.73-33.38,38.09-45.56,28.88-21.5,61-24,94.58-15.62,22.13,5.49,44.09,12.15,60.45,29.61,28,29.92,45.06,65.55,54,105.3,7.78,34.49,7.86,69.74,10.17,104.75a1029.94,1029.94,0,0,0,29.21,183.89c11.8,46.85,30.29,90.5,62.07,127.75,35,41,80.43,68,126.22,94.48V804.42a232.35,232.35,0,0,0-64.57,30.93c-33.84,23.31-51.29,54.75-47.75,96.57H1309.84c.79-3.16,4-3.69,6.07-5.32,23.07-17.77,42.5-39,57-64.11,12.31-21.26,5.21-33.43-19.14-36a20,20,0,0,0-3.78-.13c-43.58,3.87-78.53,23.53-104.07,58.81-13.34,18.42-11.25,31.21,4.69,46.8H1067c.18-4.8-2.86-7.92-5.85-11-12.79-13.28-29.13-20.65-45.94-27.07C970.42,876.73,923.38,875,876.38,875c-57.15,0-113.86,6.6-170.42,14.39-48.42,6.67-94.26,21.67-138.31,42.51H194.28c1.2-1.85,3.28-2.24,5.11-3,97.67-41.37,157.08-146.81,142-249.07-2.7-18.31-6.16-36.57-15.9-52.66-10-16.5-19.17-18-31.55-6.91-3.56,3.2-7.27,6.26-10.68,9.61-17.1,16.8-37.18,21.66-59.18,12.43-42.93-18-85.32-37-120.92-68.3-31.69-27.89-55.29-59.78-61.29-103.1-4.51-32.49-8.46-65.1-14.73-97.35-4.56-23.51-10.38-46.87-10.58-71A216.8,216.8,0,0,0,8.84,244.9C-2.84,203.68-22.1,167-55.88,139.32c-10.33-8.46-21.53-15.3-35.92-12.15-22.31,4.89-48.4,32.32-33.89,64.5,11.32,25.1,22.79,50.14,33.89,75.34,20.74,47.1,28.29,96.32,21.51,147.33-4.78,35.91-4.68,71.54,2.05,107.1,6.37,33.63,17.09,65.59,38,93.25,12,15.79,26.71,29,40.69,42.88,12.73,12.65,25.74,25,36.4,39.6,26.09,35.66,22.81,71-9.77,99.86C24.16,808.52,8.39,814.85-8,819.54c-26.87,7.69-52.7,17.64-76.49,32.54-15,9.4-30.19,18.47-45.13,27.95C-156,896.82-183,912.88-207.94,931.92h-78.92V50.09c31.15-5.06,62.38-5.68,93.53-.46,22.75,3.81,44.37,12,66.35,18.66,18.77,5.71,37.45,10.13,57.28,5C-22.49,61.15,25.16,51,72.8,40.63,158,22.14,235.43-12.35,298.88-74.25c15.36-15,30.28-30.51,47.42-43.61,15.65-12,32.06-13.68,49.61-4.6,21.16,10.95,38.14,26.29,50.38,46.86,9.62,16.16,23.77,24.9,42.78,25.89,20,1.05,39.83-1.76,59.72-3.16,38.84-2.75,77.69-4,116.63-2.22,30.25,1.36,60.57,2.23,90.64,5.61C805.21-44,854.18-36.89,903.28-30.91,919.05-29,935-27.52,950.8-31.24c15.37-3.62,21.56-10.92,21.74-26.52a66.76,66.76,0,0,1,7.53-29.83c10.24-20.32,26.22-35.75,43-50.45C1032-145.84,1041.22-153.28,1050.3-160.88Z" transform="translate(287.01 161.69)"/><path class="b" d="M1655.9,680c-45.79-26.53-91.23-53.46-126.22-94.48-31.78-37.25-50.27-80.9-62.07-127.75a1029.94,1029.94,0,0,1-29.21-183.89c-2.31-35-2.39-70.26-10.17-104.75-9-39.75-26-75.38-54-105.3-16.36-17.46-38.32-24.12-60.45-29.61-33.56-8.33-65.7-5.88-94.58,15.62-16.36,12.18-28.28,27.91-38.09,45.56-22.06,39.7-58,56.23-101.35,58.95-23.15,1.46-39.51-9.93-47.4-31.66-10.8-29.73-13.3-60.56-9.59-91.88,1.92-16.22,10.26-28.52,24.8-35.92,51-25.92,76.52-70.84,92-123.15,3.13-10.58,6.27-21.34,6.4-32.59H1639.2c.08,13.06-.37,26.15.37,39.18,1.07,19,5.89,37.13,16.33,53.4Z" transform="translate(287.01 161.69)"/><path class="b" d="M1050.3-160.88c-9.08,7.6-18.31,15-27.22,22.84-16.79,14.7-32.77,30.13-43,50.45a66.76,66.76,0,0,0-7.53,29.83c-.18,15.6-6.37,22.9-21.74,26.52-15.8,3.72-31.75,2.25-47.52.33-49.1-6-98.07-13-147.22-18.57-30.07-3.38-60.39-4.25-90.64-5.61-38.94-1.75-77.79-.53-116.63,2.22-19.89,1.4-39.68,4.21-59.72,3.16-19-1-33.16-9.73-42.78-25.89-12.24-20.57-29.22-35.91-50.38-46.86-17.55-9.08-34-7.36-49.61,4.6-17.14,13.1-32.06,28.63-47.42,43.61C235.43-12.35,158,22.14,72.8,40.63,25.16,51-22.49,61.15-69.7,73.31c-19.83,5.11-38.51.69-57.28-5-22-6.69-43.6-14.85-66.35-18.66-31.15-5.22-62.38-4.6-93.53.46,0-68.05.08-136.1-.15-204.14,0-5.7,1.29-7,7-7Q385.13-160.8,1050.3-160.88Z" transform="translate(287.01 161.69)"/><path class="b" d="M-207.94,931.92c25-19,51.9-35.1,78.35-51.89,14.94-9.48,30.14-18.55,45.13-27.95,23.79-14.9,49.62-24.85,76.49-32.54,16.36-4.69,32.13-11,45.08-22.51,32.58-28.9,35.86-64.2,9.77-99.86-10.66-14.59-23.67-26.95-36.4-39.6-14-13.89-28.74-27.09-40.69-42.88-20.94-27.66-31.66-59.62-38-93.25-6.73-35.56-6.83-71.19-2.05-107.1,6.78-51-.77-100.23-21.51-147.33-11.1-25.2-22.57-50.24-33.89-75.34-14.51-32.18,11.58-59.61,33.89-64.5,14.39-3.15,25.59,3.69,35.92,12.15C-22.1,167-2.84,203.68,8.84,244.9a216.8,216.8,0,0,1,7.74,57.64c.2,24.15,6,47.51,10.58,71,6.27,32.25,10.22,64.86,14.73,97.35,6,43.32,29.6,75.21,61.29,103.1,35.6,31.33,78,50.3,120.92,68.3,22,9.23,42.08,4.37,59.18-12.43,3.41-3.35,7.12-6.41,10.68-9.61,12.38-11.12,21.55-9.59,31.55,6.91,9.74,16.09,13.2,34.35,15.9,52.66,15.06,102.26-44.35,207.7-142,249.07-1.83.77-3.91,1.16-5.11,3Z" transform="translate(287.01 161.69)"/><path class="b" d="M567.65,931.92c44.05-20.84,89.89-35.84,138.31-42.51C762.52,881.62,819.23,875,876.38,875c47,0,94,1.71,138.83,18.81,16.81,6.42,33.15,13.79,45.94,27.07,3,3.1,6,6.22,5.85,11Z" transform="translate(287.01 161.69)"/><path class="b" d="M1543.58,931.92c-3.54-41.82,13.91-73.26,47.75-96.57a232.35,232.35,0,0,1,64.57-30.93c0,41-.06,82,.09,122.94,0,3.8-.85,4.67-4.65,4.66C1615.42,931.85,1579.5,931.92,1543.58,931.92Z" transform="translate(287.01 161.69)"/><path class="b" d="M1250.65,931.92c-15.94-15.59-18-28.38-4.69-46.8,25.54-35.28,60.49-54.94,104.07-58.81a20,20,0,0,1,3.78.13c24.35,2.62,31.45,14.79,19.14,36-14.54,25.1-34,46.34-57,64.11-2.11,1.63-5.28,2.16-6.07,5.32Z" transform="translate(287.01 161.69)"/><path class="a" d="M1655.9-68.3c-10.44-16.27-15.26-34.37-16.33-53.4-.74-13-.29-26.12-.37-39.18,5.57,0,13.3-2.17,16.08.61s.62,10.52.62,16.08Z" transform="translate(287.01 161.69)"/></svg>