<svg xmlns="http://www.w3.org/2000/svg" viewBox="0 0 1943.04 1093.11"><defs><style>.a{fill:#ffffff;}.b{fill:#41c7f6;}</style></defs><title>1800f_00224</title><path class="a" d="M-286.86,473.55q0-313.8-.14-627.6c0-5.69,1.28-7,7-7q187.83.28,375.65.15c-1.47,16.33-3.37,32.57-2.33,49.1,2,31.52,5.16,63,3.71,94.68C95.63,13,87.08,40,65.67,62.07,56.85,71.17,47.57,79.74,38,88c-30.66,26.39-62.18,51.8-91.21,80.06-33,32.13-63.6,66.56-95.15,100.07-13.16,14-25.55,28.78-33.33,46.73-7.52,17.37-4.75,33.23,8.2,46.87A96.57,96.57,0,0,0-157.94,375c17.42,11.94,36.55,20.53,55.67,29.22C-64,421.62-24.07,429.1,18,425.51c24.45-2.09,48.75-5.18,73.08-8.09,31.11-3.72,62.41-5.8,93.31-11.25,61.27-10.82,119.77-31.29,178.1-52,41.3-14.68,72.43-42.42,94.93-80.05,13.19-22,22.67-45.69,31.26-69.78,7.74-21.68,15.07-43.66,29.62-62C551.92,100,590.06,62,629.54,25.31,647.15,9,666.94-4.95,689.68-13.75c22.25-8.61,39.91-3.27,54,15.79,7.18,9.68,11.82,20.56,15.27,32,6.87,22.82,7.21,46.37,7.49,69.88.35,30.15,11.86,54.9,34.74,74.51A186.9,186.9,0,0,0,829,198.26c42.92,25,89.16,41.79,136.73,55.3,21.13,6,42.83,10.37,62.72,20.12,16,7.86,18.54,18.12,8.92,33.28-6.21,9.8-14.9,17.14-23.87,24.18-27.49,21.6-57.7,39.24-86.45,59-16.92,11.63-33.38,23.85-47.15,39.21C850.6,462,841.12,498.63,859.23,540s46.61,76.86,68.4,116.22c5.78,10.43,17.39,11.42,28.75,5.29a169.23,169.23,0,0,0,16.91-10.1,342.76,342.76,0,0,1,85.53-43.55c14-4.85,28.29-9.47,40.7-18.23,12.67-8.93,18.06-20.48,14.93-36-1.82-9-4.93-17.5-8.27-26-6.11-15.49-13.57-30.49-15-47.5-2.17-25.5,7.62-47.54,19.49-69,14.58-26.32,30.65-51.82,43.56-79s23.85-54.79,14.26-86c-4.9-16,.35-29.81,11.78-41.61,14.34-14.8,31.4-25.57,50.39-33,34.87-13.72,71.48-22,107.29-32.7,32.29-9.68,62.53-22.62,89-44.08,15.41-12.51,32.94-21.87,52.6-25.93,43.67-9,84.21,1.9,123.23,20.75,5,2.4,11.88,4.89,11.34,11.78-.56,7.26-7.92,8.46-13.49,10.32-23.7,7.9-48.35,10.51-73.08,12.24-28,2-56.06,1.75-83.87,6-21.17,3.22-41.75,8.21-59.7,20.45-46.15,31.45-69.8,75.33-71.28,131.08-1.44,54.56,6.38,107.89,22.22,160,14.69,48.36,32.19,95.83,45.27,144.73a179.47,179.47,0,0,0,54.5,88.63c17.62,15.77,37.36,26,62.12,21.46,15.33-2.83,29.54-8.53,43.09-16.19,30.77-17.39,55.53-41.81,80.4-66.44,19.55-19.38,25.33-41.77,21.08-67.81-3.83-23.44-8.19-46.79-11.87-70.25-4.44-28.34-6.83-56.82-.69-85.21,4.78-22.14,13-42.93,27.14-61q0,297.87.14,595.73c0,5.69-1.28,7-7,7q-365.41-.25-730.81-.14c1.48-4,3.25-8,4.4-12.09,10.19-36.4,10.53-73.33,5.35-110.45-2.17-15.53-5.24-30.91-12.51-45.07-5.72-11.14-12.79-14.17-25-10.36-12.69,3.95-23,11.66-31.5,21.59-28.81,33.88-38.33,73.69-35.52,117.28.88,13.49,5.44,26.08,8.27,39.1H-66.78c.58-1.4,1.19-2.79,1.74-4.2,13.07-33.67,24.62-68,43.9-98.94,12-19.31,23.7-38.86,34.85-58.69,18.94-33.66,34.21-68.7,39.46-107.53,4.26-31.53,9.06-63,15.21-94.25.79-4,1.54-7.93,2.29-11.9,5.33-28.18-.35-40.63-25-55.46C7.17,477.84-34,472.73-77.12,483.44c-47.22,11.74-94.32,13.18-141.88,2.13C-241.37,480.38-263.92,475.74-286.86,473.55ZM216,499.46c-7.41-.5-14.72.51-21.89,1.86-10.7,2-21.34,4.71-29.8,12.21-7.89,7-8.59,13.24-2.82,22.05,5.3,8.09,12,15,19.08,21.48q26.64,24.29,51.34,50.52c17.88,19.1,29.56,41.31,33.9,67.37,3.94,23.67,8.71,47.2,16.69,69.94,14.8,42.1,36.61,79.91,69.13,110.9,11.72,11.18,24.26,21.58,40.69,25.34,13.21,3,23-3,26.42-16.12,3.24-12.33,1.87-24.63-1-36.76-8.66-36.71-24.51-70.66-41.57-104-21.63-42.17-35.46-86.15-38.17-133.74-1.72-30.12-15.11-54.11-42.44-69.13A174.28,174.28,0,0,0,216,499.46Z" transform="translate(287 161.03)"/><path class="b" d="M1655.9,329.36c-14.15,18.05-22.36,38.84-27.14,61-6.14,28.39-3.75,56.87.69,85.21,3.68,23.46,8,46.81,11.87,70.25,4.25,26-1.53,48.43-21.08,67.81-24.87,24.63-49.63,49-80.4,66.44-13.55,7.66-27.76,13.36-43.09,16.19-24.76,4.56-44.5-5.69-62.12-21.46a179.47,179.47,0,0,1-54.5-88.63c-13.08-48.9-30.58-96.37-45.27-144.73-15.84-52.14-23.66-105.47-22.22-160,1.48-55.75,25.13-99.63,71.28-131.08,17.95-12.24,38.53-17.23,59.7-20.45,27.81-4.22,55.91-4,83.87-6,24.73-1.73,49.38-4.34,73.08-12.24,5.57-1.86,12.93-3.06,13.49-10.32.54-6.89-6.37-9.38-11.34-11.78-39-18.85-79.56-29.76-123.23-20.75-19.66,4.06-37.19,13.42-52.6,25.93-26.43,21.46-56.67,34.4-89,44.08-35.81,10.74-72.42,19-107.29,32.7-19,7.47-36.05,18.24-50.39,33-11.43,11.8-16.68,25.63-11.78,41.61,9.59,31.21-1.33,58.71-14.26,86s-29,52.73-43.56,79c-11.87,21.44-21.66,43.48-19.49,69,1.45,17,8.91,32,15,47.5,3.34,8.46,6.45,17,8.27,26,3.13,15.49-2.26,27-14.93,36-12.41,8.76-26.66,13.38-40.7,18.23a342.76,342.76,0,0,0-85.53,43.55,169.23,169.23,0,0,1-16.91,10.1c-11.36,6.13-23,5.14-28.75-5.29-21.79-39.36-50.26-74.8-68.4-116.22s-8.63-78,20.63-110.64C893.63,414,910.09,401.77,927,390.14c28.75-19.76,59-37.4,86.45-59,9-7,17.66-14.38,23.87-24.18,9.62-15.16,7.12-25.42-8.92-33.28-19.89-9.75-41.59-14.12-62.72-20.12-47.57-13.51-93.81-30.33-136.73-55.3a186.9,186.9,0,0,1-27.74-19.82c-22.88-19.61-34.39-44.36-34.74-74.51-.28-23.51-.62-47.06-7.49-69.88-3.45-11.45-8.09-22.33-15.27-32-14.13-19.06-31.79-24.4-54-15.79C666.94-4.95,647.15,9,629.54,25.31,590.06,62,551.92,100,518.34,142.32c-14.55,18.33-21.88,40.31-29.62,62-8.59,24.09-18.07,47.73-31.26,69.78-22.5,37.63-53.63,65.37-94.93,80.05-58.33,20.74-116.83,41.21-178.1,52-30.9,5.45-62.2,7.53-93.31,11.25-24.33,2.91-48.63,6-73.08,8.09-42.11,3.59-82-3.89-120.31-21.32-19.12-8.69-38.25-17.28-55.67-29.22a96.57,96.57,0,0,1-15.56-13.25c-12.95-13.64-15.72-29.5-8.2-46.87,7.78-18,20.17-32.75,33.33-46.73,31.55-33.51,62.14-67.94,95.15-100.07C-24.19,139.79,7.33,114.38,38,88c9.58-8.25,18.86-16.82,27.68-25.92C87.08,40,95.63,13,97-17.1c1.45-31.69-1.73-63.16-3.71-94.68-1-16.53.86-32.77,2.33-49.1H230.7c20.54,36.6,39.64,73.91,56.35,112.45a258.26,258.26,0,0,0,36.18,60.31c8.79,10.83,18.27,21,31.17,27.18,13.05,6.23,23.65,4.33,33.83-5.86,7.45-7.46,12.43-16.53,16.77-26,10.13-22.09,16.89-45.46,25.81-68s3.22-42-12.69-59.22c-10.72-11.61-23.75-20.37-36.27-29.77-4.55-3.42-10.22-5.62-13-11.1H992.63c-.06,2,1.43,3.14,2.65,4.38,13.12,13.34,25.88,27.06,39.47,39.9,23.91,22.58,50.8,41.06,81.45,53.19C1183-37,1252.13-24.68,1324-32.28c31.26-3.31,60.46-12.76,86.87-30.88,21.56-14.8,28.09-34.25,24-59.06-2.26-13.64-8.59-25.74-12.71-38.66q113.83,0,227.66-.15c5.2,0,6.23,1,6.22,6.22Q1655.77,87.28,1655.9,329.36Z" transform="translate(287 161.03)"/><path class="b" d="M-286.86,473.55c22.94,2.19,45.49,6.83,67.86,12,47.56,11.05,94.66,9.61,141.88-2.13C-34,472.73,7.17,477.84,45.65,501c24.67,14.83,30.35,27.28,25,55.46-.75,4-1.5,7.94-2.29,11.9C62.23,599.56,57.43,631,53.17,662.56c-5.25,38.83-20.52,73.87-39.46,107.53C2.56,789.92-9.11,809.47-21.14,828.78c-19.28,31-30.83,65.27-43.9,98.94-.55,1.41-1.16,2.8-1.74,4.2H-253.47c-.5-2,.81-3.36,1.56-4.91,21-43.18,46.95-82.93,80.43-117.65,13-13.47,24.17-28.48,31.74-45.85,12.57-28.88,2.34-55.64-26.07-67.52a119.3,119.3,0,0,0-29.83-8.26c-31.27-4.26-62.54-8.42-91.22-22.94Z" transform="translate(287 161.03)"/><path class="a" d="M1422.16-160.88c4.12,12.92,10.45,25,12.71,38.66,4.1,24.81-2.43,44.26-24,59.06C1384.47-45,1355.27-35.59,1324-32.28c-71.88,7.6-141-4.69-207.81-31.13-30.65-12.13-57.54-30.61-81.45-53.19-13.59-12.84-26.35-26.56-39.47-39.9-1.22-1.24-2.71-2.35-2.65-4.38Z" transform="translate(287 161.03)"/><path class="a" d="M-286.86,664.79c28.68,14.52,60,18.68,91.22,22.94A119.3,119.3,0,0,1-165.81,696c28.41,11.88,38.64,38.64,26.07,67.52-7.57,17.37-18.76,32.38-31.74,45.85C-205,844.08-230.91,883.83-251.91,927c-.75,1.55-2.06,3-1.56,4.91-9.36,0-18.73-.31-28.07.13-4.56.22-5.45-.92-5.45-5.44Q-286.73,795.69-286.86,664.79Z" transform="translate(287 161.03)"/><path class="a" d="M368.82-160.88c2.81,5.48,8.48,7.68,13,11.1,12.52,9.4,25.55,18.16,36.27,29.77,15.91,17.25,21.65,36.56,12.69,59.22S415.13-14.86,405,7.23c-4.34,9.44-9.32,18.51-16.77,26-10.18,10.19-20.78,12.09-33.83,5.86C341.5,32.9,332,22.71,323.23,11.88a258.26,258.26,0,0,1-36.18-60.31C270.34-87,251.24-124.28,230.7-160.88Z" transform="translate(287 161.03)"/><path class="b" d="M831.74,931.92c-2.83-13-7.39-25.61-8.27-39.1-2.81-43.59,6.71-83.4,35.52-117.28,8.45-9.93,18.81-17.64,31.5-21.59,12.22-3.81,19.29-.78,25,10.36,7.27,14.16,10.34,29.54,12.51,45.07,5.18,37.12,4.84,74-5.35,110.45-1.15,4.12-2.92,8.06-4.4,12.09Z" transform="translate(287 161.03)"/><path class="b" d="M216,499.46a174.28,174.28,0,0,1,79.57,22c27.33,15,40.72,39,42.44,69.13,2.71,47.59,16.54,91.57,38.17,133.74,17.06,33.29,32.91,67.24,41.57,104,2.86,12.13,4.23,24.43,1,36.76-3.44,13.12-13.21,19.14-26.42,16.12-16.43-3.76-29-14.16-40.69-25.34-32.52-31-54.33-68.8-69.13-110.9-8-22.74-12.75-46.27-16.69-69.94-4.34-26.06-16-48.27-33.9-67.37q-24.63-26.31-51.34-50.52c-7.11-6.48-13.78-13.39-19.08-21.48-5.77-8.81-5.07-15,2.82-22.05,8.46-7.5,19.1-10.18,29.8-12.21C201.27,500,208.58,499,216,499.46Z" transform="translate(287 161.03)"/></svg>