<svg xmlns="http://www.w3.org/2000/svg" viewBox="0 0 1943.03 1093.11"><defs><style>.a{fill:#ffffff;}.b{fill:#41c7f6;}</style></defs><title>1800f_00116</title><path class="a" d="M1655.9,763.44c0,54.39-.07,108.78.12,163.17,0,4.52-.9,5.49-5.44,5.44-26-.27-52.11-.13-78.16-.13-6.53-11.84-10.58-25.25-22.09-33.91-22.72-17.08-48.75-20-75.75-16.92-44.25,5.06-82,25.55-117.69,50.83H440.16C452.63,899,457.66,865.09,453.83,830c-3.58-32.73-11.8-63.62-34.36-89-4.19-4.72-7.94-9.83-11.85-14.79-14.22-18-27-37.31-43.84-53.17-14.85-14-31.69-19.53-51.24-10.92-8.78,3.86-17.16,8.64-25.72,13-20.6,10.51-32.14,27.59-36.89,49.92-8.79,41.36-10.52,83.21-7.91,125.2,1.77,28.57,5.78,56.91,22.07,81.74q-272.28,0-544.57.16c-5.66,0-6.51-1.4-6.51-6.68q.23-394.39.13-788.8a726.11,726.11,0,0,1,72.45-6.1c53.48-1.67,106.69.12,158.84,13.78,40.88,10.7,82.06,9.31,123.45,3.82,39.6-5.25,75-21.68,109.84-40,39.2-20.58,78.83-40.22,121-54.24,36.2-12,72.89-22.69,107.65-38.76,22.54-10.42,45-9.13,67.54.67a304.81,304.81,0,0,1,64.58,37.92,73.91,73.91,0,0,0,33.81,14.42c15.57,2.53,31.25,2,46.91.9,29.7-2.18,59.38-4.62,89.09-6.55,17.89-1.16,35.83-1.42,53.74-2.3C807.73,58,853,60,896.55,75.88c35.39,12.85,70.09,27.48,105.76,39.63,22.32,7.6,35.35,24.34,40.74,47.19a110.69,110.69,0,0,1,2.66,27.09c-.31,21.36-5.41,42.06-8.46,63-5,34.06-2.32,67.13,13.49,98.3,7.62,15,17,28.77,31.56,38.11,14.17,9.11,27.11,7.73,39.24-3.91a105,105,0,0,0,13.6-15.28c27.3-38.9,54-78.24,79-118.65,19.62-31.75,34.2-65.93,41.83-102.77,2.15-10.38,4.27-20.8,7.09-31,12.48-45.08,61.42-73,105.48-60,17.15,5,30.74,16.25,44,27.68,24.86,21.49,48.18,44.69,73.3,65.93,20.33,17.2,35,38.47,40.64,65.09,4.47,21.12,3,42.19-.24,63.3-3.94,25.33-12.93,49.36-18.91,74.14-15.73,65.21-17.48,131.06-7.21,197.25,6.76,43.53,18.75,85.36,41.59,123.53C1568.24,719,1608.31,746,1655.9,763.44ZM-38.92,253.67c-19.35-1.12-29.22,16.73-28.3,34.43.86,16.44,8.4,30.69,19.85,42.33C-24,354.21-.6,378,24.15,400.37c9,8.09,18.33,15.93,29.78,20.52,13.19,5.3,21.15,0,21.4-14.39.34-19.38-7.3-36.45-16.32-52.91C43.78,325.79,23.8,301.3,3.63,277.06-6.83,264.5-18.94,253.68-38.92,253.67Z" transform="translate(286.99 161.03)"/><path class="b" d="M1655.9,763.44c-47.59-17.43-87.66-44.46-114.25-88.91-22.84-38.17-34.83-80-41.59-123.53-10.27-66.19-8.52-132,7.21-197.25,6-24.78,15-48.81,18.91-74.14,3.28-21.11,4.71-42.18.24-63.3-5.65-26.62-20.31-47.89-40.64-65.09-25.12-21.24-48.44-44.44-73.3-65.93-13.21-11.43-26.8-22.64-44-27.68-44.06-13-93,14.93-105.48,60-2.82,10.21-4.94,20.63-7.09,31-7.63,36.84-22.21,71-41.83,102.77-25,40.41-51.69,79.75-79,118.65a105,105,0,0,1-13.6,15.28c-12.13,11.64-25.07,13-39.24,3.91-14.51-9.34-23.94-23.08-31.56-38.11-15.81-31.17-18.44-64.24-13.49-98.3,3-21,8.15-41.68,8.46-63a110.69,110.69,0,0,0-2.66-27.09c-5.39-22.85-18.42-39.59-40.74-47.19-35.67-12.15-70.37-26.78-105.76-39.63C853,60,807.73,58,762,60.2c-17.91.88-35.85,1.14-53.74,2.3-29.71,1.93-59.39,4.37-89.09,6.55-15.66,1.15-31.34,1.63-46.91-.9a73.91,73.91,0,0,1-33.81-14.42,304.81,304.81,0,0,0-64.58-37.92c-22.51-9.8-45-11.09-67.54-.67C371.57,31.21,334.88,41.85,298.68,53.9c-42.13,14-81.76,33.66-121,54.24-34.81,18.28-70.24,34.71-109.84,40-41.39,5.49-82.57,6.88-123.45-3.82-52.15-13.66-105.36-15.45-158.84-13.78a726.11,726.11,0,0,0-72.45,6.1V-129c18.33-8.05,35.84-17.4,50.09-31.87H1199c.44,3.75-3,5-4.85,7.12-15.51,17-31.91,33.75-39.34,56.07-8,24-19.47,46-32.19,67.59-9,15.24-17.74,30.66-21.44,48.28-4.11,19.54,4.32,34.49,23.25,41a87,87,0,0,0,25.29,4.41c20.5.74,40-5.36,59.76-9.11,33.2-6.28,56-24.92,69.22-56.06,11.84-28,22-56.53,28.82-86.13,5.28-22.74,2.27-44.68-8.26-65.58-1.23-2.44-3.12-4.66-3.12-7.62q176.82,0,353.64-.15c5.2,0,6.22,1,6.22,6.22Q1655.8,304.31,1655.9,763.44Z" transform="translate(286.99 161.03)"/><path class="b" d="M264.09,931.92c-16.29-24.83-20.3-53.17-22.07-81.74-2.61-42-.88-83.84,7.91-125.2,4.75-22.33,16.29-39.41,36.89-49.92,8.56-4.37,16.94-9.15,25.72-13,19.55-8.61,36.39-3,51.24,10.92,16.87,15.86,29.62,35.12,43.84,53.17,3.91,5,7.66,10.07,11.85,14.79,22.56,25.42,30.78,56.31,34.36,89,3.83,35.12-1.2,69-13.67,101.95Z" transform="translate(286.99 161.03)"/><path class="a" d="M1296.18-160.88c0,3,1.89,5.18,3.12,7.62,10.53,20.9,13.54,42.84,8.26,65.58-6.87,29.6-17,58.14-28.82,86.13-13.17,31.14-36,49.78-69.22,56.06-19.81,3.75-39.26,9.85-59.76,9.11a87,87,0,0,1-25.29-4.41c-18.93-6.54-27.36-21.49-23.25-41,3.7-17.62,12.46-33,21.44-48.28,12.72-21.6,24.21-43.62,32.19-67.59,7.43-22.32,23.83-39,39.34-56.07,1.9-2.1,5.29-3.37,4.85-7.12Z" transform="translate(286.99 161.03)"/><path class="b" d="M1356.89,931.92c35.64-25.28,73.44-45.77,117.69-50.83,27-3.09,53-.16,75.75,16.92,11.51,8.66,15.56,22.07,22.09,33.91Z" transform="translate(286.99 161.03)"/><path class="a" d="M-236.77-160.88C-251-146.41-268.53-137.06-286.86-129c0-9.36.18-18.72-.1-28.07-.1-3.28.63-3.95,3.9-3.9C-267.64-160.76-252.2-160.88-236.77-160.88Z" transform="translate(286.99 161.03)"/><path class="b" d="M-38.92,253.67c20,0,32.09,10.83,42.55,23.39C23.8,301.3,43.78,325.79,59,353.59c9,16.46,16.66,33.53,16.32,52.91-.25,14.36-8.21,19.69-21.4,14.39-11.45-4.59-20.82-12.43-29.78-20.52C-.6,378-24,354.21-47.37,330.43c-11.45-11.64-19-25.89-19.85-42.33C-68.14,270.4-58.27,252.55-38.92,253.67Z" transform="translate(286.99 161.03)"/></svg>