<svg xmlns="http://www.w3.org/2000/svg" viewBox="0 0 1943.05 1093.09"><defs><style>.a{fill:#ffffff;}.b{fill:#41c7f6;}</style></defs><title>1800f_00129</title><path class="a" d="M-286.86,405.25V197.31c30.2-3.23,60.48-5.49,90.84-3.9,37.1,2,74.16,4.81,111.24,7.22,33.55,2.18,67.13,3.91,100.65,6.5a424.08,424.08,0,0,0,182.54-25.38c35.25-13.09,65.32-35.16,95.89-56.33,19.12-13.25,38.13-26.75,59.38-36.51,16.72-7.68,34.06-12.54,52.84-10.53,24.9,2.66,45.23,15.1,64.79,29.42,18.6,13.62,33.37,31.6,52.26,45,35.39,25.14,73.63,38,117.56,32.85,33.43-3.95,66.2-11.46,99.41-16.49,23.23-3.51,46.46-6.45,70.1-4.34,29.08,2.59,57,10.9,85.62,16a481.72,481.72,0,0,1,125.06,40.73c22.94,11.1,37.19,29,42.86,53.73.9,3.94,2.09,7.83,2.81,11.8,7.24,40,12.76,80.34,21.06,120.21,6.9,33.19,16.41,65.19,34.69,94.06,11.3,17.85,24,34.5,41.86,46.43C1189.36,564.38,1219.42,559,1237,535c7.3-10,11.69-21.28,14.83-33.05,11.11-41.64,26.07-81.88,43.69-121.14,22.66-50.52,46.06-100.76,64.8-152.9,23-64.06,61.66-116.8,113.46-160.27,21.41-18,44.38-33.53,71.62-41.68,14.28-4.28,26.4-1.38,36.39,9.89,10.88,12.27,16.65,27.09,20.76,42.57,12.15,45.73,14.85,92.76,18,139.64,3.4,50.94-3.34,100.94-17.23,150-20.26,71.5-40.83,142.91-51.52,216.7-6.91,47.72-10.51,95.52-3.72,143.54,5.38,38,19.53,71.66,50.06,96.62,17.64,14.43,37.12,26,57.75,35.71,0,22-.17,44,.13,66,.06,4.54-.92,5.45-5.45,5.44q-161.26-.24-322.52-.12H482.65c8.3-22.22,8.55-44.92,3.92-67.87-7.57-37.58-26-56-63-61.75-16-2.48-32.3-.13-48.45-.55-15.23-.38-28.32-5.64-39.32-16.59-12.76-12.71-22-28.2-34.12-41.41-11.47-12.53-23.1-24.9-39.81-30.41-13.87-4.58-23.82,4.5-21.09,18.88a57.87,57.87,0,0,0,8.82,21.57c11.29,16.9,26.55,29.75,43.15,40.83,23.82,15.89,40.56,36.07,44.05,65.41,1.67,14,3.41,28,4.9,42.07,1.07,10,4.31,19.67,4.36,29.82q-313,0-626.08.14c-5.69,0-7-1.28-7-7,.24-58.94.15-117.88.15-176.82a8.89,8.89,0,0,0,1.28-1.85c19.9-56.44,41.35-112.36,57.58-170,10.44-37.09,17.52-74.78,16.59-113.51-.37-15.41-2-30.79-9.34-44.86-7.84-15.08-20.61-21.12-37.49-19.24C-268.11,399.89-276.93,404.93-286.86,405.25Z" transform="translate(287.01 161.03)"/><path class="b" d="M1655.9,860.58c-20.63-9.68-40.11-21.28-57.75-35.71-30.53-25-44.68-58.65-50.06-96.62-6.79-48-3.19-95.82,3.72-143.54,10.69-73.79,31.26-145.2,51.52-216.7,13.89-49,20.63-99,17.23-150-3.12-46.88-5.82-93.91-18-139.64-4.11-15.48-9.88-30.3-20.76-42.57-10-11.27-22.11-14.17-36.39-9.89-27.24,8.15-50.21,23.7-71.62,41.68-51.8,43.47-90.44,96.21-113.46,160.27-18.74,52.14-42.14,102.38-64.8,152.9-17.62,39.26-32.58,79.5-43.69,121.14-3.14,11.77-7.53,23.1-14.83,33.05-17.62,24-47.68,29.41-72.44,12.86-17.85-11.93-30.56-28.58-41.86-46.43-18.28-28.87-27.79-60.87-34.69-94.06-8.3-39.87-13.82-80.18-21.06-120.21-.72-4-1.91-7.86-2.81-11.8-5.67-24.78-19.92-42.63-42.86-53.73a481.72,481.72,0,0,0-125.06-40.73c-28.58-5.14-56.54-13.45-85.62-16-23.64-2.11-46.87.83-70.1,4.34-33.21,5-66,12.54-99.41,16.49C597.2,190.85,559,178,523.57,152.81c-18.89-13.41-33.66-31.39-52.26-45C451.75,93.48,431.42,81,406.52,78.38c-18.78-2-36.12,2.85-52.84,10.53-21.25,9.76-40.26,23.26-59.38,36.51-30.57,21.17-60.64,43.24-95.89,56.33A424.08,424.08,0,0,1,15.87,207.13c-33.52-2.59-67.1-4.32-100.65-6.5-37.08-2.41-74.14-5.26-111.24-7.22-30.36-1.59-60.64.67-90.84,3.9V-21.25c2.53-1.06,5.14-2,7.59-3.21,36.53-18.35,70.67-41,107.24-59.31,14.65-7.32,29.47-14.41,42.84-24s22.39-22.35,25.33-38.89c.84-4.7,1.45-9.45,2.17-14.17H28.84c5.14,7.17,10,14.56,15.48,21.46C59-120.93,75-103.89,96.88-93.63c22.54,10.57,43,4.92,56.42-16,10.38-16.16,17.66-34,25.8-51.3H421.94c5.59,25.89,20.54,36,46.55,31.74,16-2.63,31.13-8.41,46.89-11.81a536.14,536.14,0,0,0,70.48-19.93h708.8c-10.89,5.68-22.31,10.29-32.26,17.79-29.24,22-54.93,47.69-77.86,76.14-17,21-31.4,43.62-37.76,70.21-8.71,36.43-7.19,73.76-8.44,110.83a7.57,7.57,0,0,0,.16,1.5c1.51,8.33,5.57,11.77,14,11.8a57.08,57.08,0,0,0,18.54-3.52q57.8-19.55,115.51-39.34c22.49-7.67,45-15.27,66-26.69,34-18.52,61.8-44.54,87.55-72.94,9.85-10.87,19.26-22.15,25.63-35.56,7.46-15.71,4.9-27.25-8.46-38.36s-29-19.29-44.35-27.59c-29.25-15.87-58-32.8-89.43-44.27q163.17,0,326.32-.15c5.2,0,6.22,1,6.22,6.22Q1655.8,352.88,1655.9,860.58Z" transform="translate(287.01 161.03)"/><path class="a" d="M1323.5-160.88c31.44,11.47,60.18,28.4,89.43,44.27,15.32,8.3,30.84,16.35,44.35,27.59s15.92,22.65,8.46,38.36C1459.37-37.25,1450-26,1440.11-15.1c-25.75,28.4-53.56,54.42-87.55,72.94-21,11.42-43.48,19-66,26.69q-57.73,19.71-115.51,39.34a57.08,57.08,0,0,1-18.54,3.52c-8.47,0-12.53-3.47-14-11.8a7.57,7.57,0,0,1-.16-1.5c1.25-37.07-.27-74.4,8.44-110.83,6.36-26.59,20.81-49.18,37.76-70.21,22.93-28.45,48.62-54.09,77.86-76.14,9.95-7.5,21.37-12.11,32.26-17.79Z" transform="translate(287.01 161.03)"/><path class="b" d="M346.05,931.92c-.05-10.15-3.29-19.82-4.36-29.82-1.49-14-3.23-28.05-4.9-42.07-3.49-29.34-20.23-49.52-44.05-65.41-16.6-11.08-31.86-23.93-43.15-40.83a57.87,57.87,0,0,1-8.82-21.57c-2.73-14.38,7.22-23.46,21.09-18.88,16.71,5.51,28.34,17.88,39.81,30.41,12.1,13.21,21.36,28.7,34.12,41.41,11,11,24.09,16.21,39.32,16.59,16.15.42,32.43-1.93,48.45.55,37,5.72,55.44,24.17,63,61.75,4.63,23,4.38,45.65-3.92,67.87Z" transform="translate(287.01 161.03)"/><path class="b" d="M-286.86,405.25c9.93-.32,18.75-5.36,28.62-6.47,16.88-1.88,29.65,4.16,37.49,19.24,7.31,14.07,9,29.45,9.34,44.86.93,38.73-6.15,76.42-16.59,113.51-16.23,57.67-37.68,113.59-57.58,170a8.89,8.89,0,0,1-1.28,1.85Z" transform="translate(287.01 161.03)"/><path class="a" d="M-101.69-160.88c-.72,4.72-1.33,9.47-2.17,14.17-2.94,16.54-11.87,29.17-25.33,38.89s-28.19,16.73-42.84,24c-36.57,18.29-70.71,41-107.24,59.31-2.45,1.23-5.06,2.15-7.59,3.21,0-44.67.09-89.34-.13-134,0-4.86,1.26-5.75,5.86-5.73Q-191.41-160.75-101.69-160.88Z" transform="translate(287.01 161.03)"/><path class="a" d="M179.1-160.88c-8.14,17.34-15.42,35.14-25.8,51.3-13.39,20.87-33.88,26.52-56.42,16C75-103.89,59-120.93,44.32-139.42c-5.48-6.9-10.34-14.29-15.48-21.46Z" transform="translate(287.01 161.03)"/><path class="a" d="M585.86-160.88a536.14,536.14,0,0,1-70.48,19.93c-15.76,3.4-30.92,9.18-46.89,11.81-26,4.29-41-5.85-46.55-31.74Z" transform="translate(287.01 161.03)"/></svg>