<svg xmlns="http://www.w3.org/2000/svg" viewBox="0 0 1943.1 1093.11"><defs><style>.a{fill:#ffffff;}.b{fill:#41c7f6;}</style></defs><title>1800f_00148</title><path class="a" d="M1655.9,116.87V535.78c-2.2.54-3,2.56-4.29,4.06-33.23,39-57.83,83.31-79,129.7-9.47,20.74-20.59,40.5-36.75,57.05-17.15,17.56-22.77,38.51-18.62,62.69,3.34,19.51,8.77,38.39,14.86,57.13,9.43,29.06,19.54,57.88,32.75,85.51h-1750a89.19,89.19,0,0,1,44.57-24.34c41.6-9.41,83.95-15.4,125-27.48,34.62-10.2,68.91-8,102.7,4.27,15.68,5.67,31.21,11.75,47.34,16.12,34.1,9.24,58.16-5.43,64.67-39.91,4.54-24.05-3.21-45.2-19.44-62-47.26-49-104-67.81-171.12-49.84-24.49,6.56-49,12-74.73,10.29-40.74-2.7-64.46-23.41-70.13-62.32-3.91-26.78-5.83-53.77-7.75-80.74-1.65-23.17-4.37-46.34-1.74-69.63,1.95-17.31-3.61-32.45-13.71-46.12-6.31-8.53-13.36-16.52-19.6-25.1-25.79-35.43-52.67-69.88-85.34-99.4a50.41,50.41,0,0,1-7.31-8.69c-9.6-13.71-7.1-23.77,7.7-31.52a73.69,73.69,0,0,1,6.91-3.11,285.53,285.53,0,0,1,38.36-11.91C-150.25,304-81.61,287.91-13,271.49,21.76,263.16,56.69,260.8,92.12,267c30.48,5.34,59.93,14.37,89.26,23.88,15.71,5.1,31.73,7,47.88,4.14a410.51,410.51,0,0,0,166.6-69.46c11.77-8.31,23.68-16.35,36.47-23.14,20.21-10.73,39-8.61,56.7,5q21.64,16.62,42.81,33.88c40.14,32.68,82,62.12,130.83,81.25,45.58,17.84,91.28,29.2,140.48,20.78,35.57-6.08,70.36-5.58,103,13.44,9.53,5.57,20.69,4.6,31,1,13.12-4.59,26.14-9.48,39-14.79,33.6-13.87,68.15-22.05,104.85-19.9,14.62.85,29.34.2,44,0,9.35-.16,18.68-1.15,28-1.16,13.6,0,19.23,5.46,20.41,19.07a115.25,115.25,0,0,1-.44,23.49c-2.62,22.07-5.15,44.17-8.32,66.17-3.74,25.89-6.44,51.71-.46,77.62,5.11,22.17,9.94,44.4,15.51,66.45a139.54,139.54,0,0,0,23.18,49.1c39,52.76,93.24,80.85,155.5,95.64,17.6,4.18,35.59,5.53,53-1.27,12.08-4.72,19.17-13.47,20-26.85a133.57,133.57,0,0,0-4-39.86C1412.36,589,1414.59,526,1422.79,463c6.37-48.95,26.4-93.13,50.7-135.52,25.34-44.2,55.13-85.35,87.14-124.86,18.25-22.52,35.06-46.49,58.13-64.67C1630,129.08,1641.55,120.42,1655.9,116.87ZM774,701c-.16,26,2.81,43.15,8.59,55.22,9,18.85,22.77,23.13,40.87,12.54a112,112,0,0,0,11.82-8.18c12.64-9.77,23.38-21.58,34.75-32.72,23.16-22.69,47.41-44,75.52-60.53q14.68-8.64,28.94-18c13.38-8.85,24.82-19.74,28.31-36.05,6.63-30.95,4.57-61.67-9.19-90.22C981,496.83,959,478.72,934.14,464.19a24.62,24.62,0,0,0-10.81-3.08c-11.25-.88-17.27,7.08-22.45,14.5-19.34,27.68-42.88,51.68-65.15,76.82C796.77,596.42,775.35,647.55,774,701Z" transform="translate(287.05 161.03)"/><path class="b" d="M1655.9,116.87c-14.35,3.55-25.87,12.21-37.14,21.09-23.07,18.18-39.88,42.15-58.13,64.67-32,39.51-61.8,80.66-87.14,124.86-24.3,42.39-44.33,86.57-50.7,135.52-8.2,63-10.43,125.94,4.68,188.43a133.57,133.57,0,0,1,4,39.86c-.84,13.38-7.93,22.13-20,26.85-17.45,6.8-35.44,5.45-53,1.27-62.26-14.79-116.52-42.88-155.5-95.64a139.54,139.54,0,0,1-23.18-49.1c-5.57-22-10.4-44.28-15.51-66.45-6-25.91-3.28-51.73.46-77.62,3.17-22,5.7-44.1,8.32-66.17a115.25,115.25,0,0,0,.44-23.49c-1.18-13.61-6.81-19.09-20.41-19.07-9.34,0-18.67,1-28,1.16-14.66.24-29.38.89-44,0-36.7-2.15-71.25,6-104.85,19.9-12.85,5.31-25.87,10.2-39,14.79-10.34,3.62-21.5,4.59-31-1-32.59-19-67.38-19.52-103-13.44-49.2,8.42-94.9-2.94-140.48-20.78C613.8,303.44,572,274,531.84,241.32Q510.68,224.09,489,207.44c-17.74-13.63-36.49-15.75-56.7-5-12.79,6.79-24.7,14.83-36.47,23.14A410.51,410.51,0,0,1,229.26,295c-16.15,2.88-32.17,1-47.88-4.14-29.33-9.51-58.78-18.54-89.26-23.88-35.43-6.2-70.36-3.84-105.17,4.49-68.56,16.42-137.2,32.52-205.75,49a285.53,285.53,0,0,0-38.36,11.91,73.69,73.69,0,0,0-6.91,3.11c-14.8,7.75-17.3,17.81-7.7,31.52a50.41,50.41,0,0,0,7.31,8.69c32.67,29.52,59.55,64,85.34,99.4,6.24,8.58,13.29,16.57,19.6,25.1,10.1,13.67,15.66,28.81,13.71,46.12-2.63,23.29.09,46.46,1.74,69.63,1.92,27,3.84,54,7.75,80.74,5.67,38.91,29.39,59.62,70.13,62.32,25.69,1.7,50.24-3.73,74.73-10.29,67.09-18,123.86.79,171.12,49.84,16.23,16.84,24,38,19.44,62-6.51,34.48-30.57,49.15-64.67,39.91-16.13-4.37-31.66-10.45-47.34-16.12C53.3,872.15,19,869.9-15.61,880.1c-41,12.08-83.39,18.07-125,27.48a89.19,89.19,0,0,0-44.57,24.34c-31.87,0-63.75-.16-95.62.15-5.2,0-6.22-1-6.21-6.22q.24-352.51.14-705V142.67c12.73,1.79,25.35,4,38.38,2.1,19.07-2.74,37.46-8.43,56.28-12.19,30-6,59.91-12.63,90.8-11,16,.83,31.21,5,43.29,15.93a235.25,235.25,0,0,0,44.78,32.25C23.86,190.22,62,199,103.58,182.46c36.7-14.65,75.69-19.19,114.71-23.1,36.13-3.63,69.53-14.84,99.11-36.42,21.7-15.85,38.38-34.94,42.86-62.71,1.36-8.41,4.31-16.63,7.21-24.7C376.33,10.87,391.31,3.7,416.06,12c16.13,5.41,31.06,13.45,46,21.37C493.16,49.81,525.38,63.22,561,64.78c50.1,2.21,100.07.47,149.44-9.46C744,48.56,777.7,45.2,812.07,49.54c30,3.79,60.09,3.49,89.15-7C948.53,25.38,995.65,8.25,1037-21.95c23.89-17.45,50.35-31.34,79.45-38.51,42.81-10.56,84.84-4.94,126.18,8.19,13.15,4.18,23.6,12.94,31.53,24,10.9,15.17,21,31,31.28,46.53,14.25,21.5,14,43.57,2.47,66.09-4.76,9.26-10.64,17.77-16.78,26.13-15.82,21.55-36.38,38.6-54.86,57.62-15.67,16.13-28.3,34.33-37.08,55-6,14-10.31,28.58-9.15,44.13,1,12.87,9,17.94,20.92,13.36,6.69-2.57,12.58-6.56,18.1-11,9.47-7.59,19-15.12,28-23.27,49.54-45,105.73-76.94,172.51-88.06,37.51-6.24,74.17-15.52,109.72-29.12,22.42-8.58,43.29-19.27,59.58-37.7,22.27-25.19,19.05-55.52-8.59-74.38A115.1,115.1,0,0,0,1574.52,8c-11.42-5.38-23-10.61-34.64-15.39-30.08-12.3-59.16-26.23-83.86-48-15-13.2-29.23-27.24-43.5-41.22-13.5-13.21-27.71-25.11-46.89-29.41-4.57-1-9-3.56-13-6.06-7.52-4.64-10.77-11.65-9.93-20.51.26-2.76.36-5.54.53-8.3q153.3,0,306.59-.15c5.2,0,6.23,1,6.22,6.22Q1655.74-19,1655.9,116.87Z" transform="translate(287.05 161.03)"/><path class="a" d="M1343.23-160.88c-.17,2.76-.27,5.54-.53,8.3-.84,8.86,2.41,15.87,9.93,20.51,4,2.5,8.43,5,13,6.06,19.18,4.3,33.39,16.2,46.89,29.41,14.27,14,28.48,28,43.5,41.22,24.7,21.74,53.78,35.67,83.86,48,11.69,4.78,23.22,10,34.64,15.39a115.1,115.1,0,0,1,15.74,9.1c27.64,18.86,30.86,49.19,8.59,74.38-16.29,18.43-37.16,29.12-59.58,37.7-35.55,13.6-72.21,22.88-109.72,29.12-66.78,11.12-123,43-172.51,88.06-9,8.15-18.52,15.68-28,23.27-5.52,4.43-11.41,8.42-18.1,11-12,4.58-20-.49-20.92-13.36-1.16-15.55,3.19-30.09,9.15-44.13,8.78-20.69,21.41-38.89,37.08-55,18.48-19,39-36.07,54.86-57.62,6.14-8.36,12-16.87,16.78-26.13,11.58-22.52,11.78-44.59-2.47-66.09-10.32-15.58-20.38-31.36-31.28-46.53-7.93-11-18.38-19.81-31.53-24-41.34-13.13-83.37-18.75-126.18-8.19-29.1,7.17-55.56,21.06-79.45,38.51-41.34,30.2-88.46,47.33-135.77,64.46-29.06,10.52-59.11,10.82-89.15,7-34.37-4.34-68-1-101.66,5.78C661,65.25,611.07,67,561,64.78c-35.59-1.56-67.81-15-98.88-31.41-15-7.92-29.9-16-46-21.37-24.75-8.3-39.73-1.13-48.59,23.53-2.9,8.07-5.85,16.29-7.21,24.7C355.78,88,339.1,107.09,317.4,122.94c-29.58,21.58-63,32.79-99.11,36.42-39,3.91-78,8.45-114.71,23.1C62,199,23.86,190.22-13.33,169.73a235.25,235.25,0,0,1-44.78-32.25c-12.08-11-27.27-15.1-43.29-15.93-30.89-1.6-60.81,5-90.8,11-18.82,3.76-37.21,9.45-56.28,12.19-13,1.88-25.65-.31-38.38-2.1q0-148.24-.19-296.5c0-6.46,1.7-7.2,7.54-7.2q341.63.25,683.24.15c.42,3.62,3.38,4.86,6.09,5.88,12.22,4.55,23.42,2.71,33.37-5.88Z" transform="translate(287.05 161.03)"/><path class="b" d="M1564.83,931.92c-13.21-27.63-23.32-56.45-32.75-85.51-6.09-18.74-11.52-37.62-14.86-57.13-4.15-24.18,1.47-45.13,18.62-62.69,16.16-16.55,27.28-36.31,36.75-57.05,21.19-46.39,45.79-90.67,79-129.7,1.28-1.5,2.09-3.52,4.29-4.06q0,195,.14,390.07c0,5.19-1,6.28-6.22,6.22C1621.49,931.75,1593.16,931.92,1564.83,931.92Z" transform="translate(287.05 161.03)"/><path class="b" d="M443.19-160.88c-9.95,8.59-21.15,10.43-33.37,5.88-2.71-1-5.67-2.26-6.09-5.88Z" transform="translate(287.05 161.03)"/><path class="b" d="M774,701c1.38-53.48,22.8-104.61,61.76-148.6,22.27-25.14,45.81-49.14,65.15-76.82,5.18-7.42,11.2-15.38,22.45-14.5a24.62,24.62,0,0,1,10.81,3.08C959,478.72,981,496.83,993.58,523.06c13.76,28.55,15.82,59.27,9.19,90.22-3.49,16.31-14.93,27.2-28.31,36.05q-14.22,9.4-28.94,18C917.41,683.9,893.16,705.2,870,727.89c-11.37,11.14-22.11,23-34.75,32.72a112,112,0,0,1-11.82,8.18c-18.1,10.59-31.85,6.31-40.87-12.54C776.78,744.18,773.81,727.05,774,701Z" transform="translate(287.05 161.03)"/></svg>