<svg xmlns="http://www.w3.org/2000/svg" viewBox="0 0 1943.05 1093.09"><defs><style>.a{fill:#ffffff;}.b{fill:#41c7f6;}</style></defs><title>1800f_00395</title><path class="a" d="M1655.9,232.22V503.9c-7.8,4.17-15.68,8.2-23.39,12.51-25,14-48.77,29.65-67.87,51.49-24.15,27.61-36.64,60.74-45.26,95.63-12.53,50.71-22.39,102.15-41.27,151.12-14.9,38.64-30.16,77.14-40.77,117.27H69.82a17.53,17.53,0,0,0-1.62-3.31C51,906.68,32.4,886.08,10.86,868.22c-33.59-27.84-72.92-43.88-114.11-56.35-20.53-6.21-41.43-11.61-60-23.07-13.55-8.39-21.86-20.13-22.69-36.38-.51-10,1.82-19.56,5.43-28.83C-173,704.37-161.79,687.2-151,669.8c11.73-18.94,25-36.8,38.19-54.69,21-28.42,32.72-61.5,44.59-94.28,11.58-32,31.09-57,60.44-74.24,10.9-6.39,21.88-12.71,33.22-18.24,36.14-17.62,72.33-35.07,107.87-53.89,28.64-15.16,50.38-36.69,65.34-65.44,12-23.09,23.45-46.49,36.14-69.25,18.83-33.8,44-62.94,67.5-93.28,25.35-32.67,46.23-67.66,53.88-109.07,4.24-22.91,5-45.78-4.38-67.81C344.06-48.46,329.16-55.92,310-51.78c-15.07,3.26-28.26,10.85-41.54,18.15a129.59,129.59,0,0,1-30,12.43c-23.27,6-46.29,3.11-69-2.6C140.27-31.14,112.06-32,85-16.45,47.94,4.84,7.8,12.2-34.59,11.19c-30.17-.73-58.14,8-84.59,22.84-26.7,15-55.23,23.48-86.52,19.16-19.16-2.64-37.36-8.64-55.62-14.58-8.37-2.72-16.54-6.36-25.54-6.73,0-62,.09-124-.15-185.93,0-5.7,1.29-7,7-7q607.48.22,1215,.14c.49,4.15,2.92,7.49,4.71,11.07,13.82,27.73,31.68,52.83,50.17,77.57C1030-18.49,1075.65,29.05,1135.05,62.23c57.23,32,106.81,73.72,150.48,122.53,9.78,10.92,19.34,22,28.42,33.56,28.45,36.17,36.87,76.74,30.37,122-4.68,32.56-15.32,61.06-40.83,82.87a250,250,0,0,1-23,17.36c-16.37,11-32.91,21.8-46.32,36.54-23.12,25.43-18.7,57.48,10.9,75.08,21.19,12.6,44.82,14.77,68.32,10.36,65.84-12.34,115.85-45.1,137.41-112a116.53,116.53,0,0,1,40.63-58c33.56-26,68.27-50.55,99.18-79.83,20.54-19.46,42.08-38,56.33-63.09C1650.2,243.91,1651.26,237.15,1655.9,232.22ZM297.2,579.76c-9.47.28-18.74,1.18-27.62,4.53-12.79,4.83-18.28,13.11-17.94,26.69.21,8.1,3,15.39,7.17,22.1,18.83,30.5,46.95,49.75,79.13,63.43,46.32,19.69,87,6.5,121.49-26.42,12.07-11.52,11.38-22.15-.27-34.05a76.1,76.1,0,0,0-14.78-11.77C399.16,596.66,349.53,583.74,297.2,579.76ZM656.6,435.63c6.24-.48,13.59-.68,20.83-1.66,23.46-3.19,45.61-9.68,62.57-27.54,17.57-18.5,13.76-41.5-8.72-53.53a54.48,54.48,0,0,0-12.55-5.23C674.65,337,632,341.41,590.88,360.48a86.57,86.57,0,0,0-28.67,20.77c-10.74,12-9,26.77,4.34,35.62a58.08,58.08,0,0,0,14.31,6.88C605.12,431.64,630.19,434.31,656.6,435.63ZM700.86,652.9c-20.06-.3-34.47.3-47.83,6.7-11.26,5.39-13.95,14.85-7.59,25.61a87.31,87.31,0,0,0,6.87,10c13.32,16.69,29.22,30.86,45.56,44.34,31.25,25.77,73.48,26.44,106,2.71,26.3-19.19,26.68-47.22,1-67a85.52,85.52,0,0,0-31.29-14.86C747.91,653.78,721.43,654.93,700.86,652.9Z" transform="translate(287.01 161.02)"/><path class="b" d="M-286.86,31.88c9,.37,17.17,4,25.54,6.73,18.26,5.94,36.46,11.94,55.62,14.58C-174.41,57.51-145.88,49-119.18,34c26.45-14.82,54.42-23.57,84.59-22.84C7.8,12.2,47.94,4.84,85-16.45c27.11-15.6,55.32-14.69,84.48-7.35,22.69,5.71,45.71,8.6,69,2.6a129.59,129.59,0,0,0,30-12.43c13.28-7.3,26.47-14.89,41.54-18.15,19.18-4.14,34.08,3.32,41.79,21.39,9.4,22,8.62,44.9,4.38,67.81-7.65,41.41-28.53,76.4-53.88,109.07-23.54,30.34-48.67,59.48-67.5,93.28-12.69,22.76-24.12,46.16-36.14,69.25-15,28.75-36.7,50.28-65.34,65.44-35.54,18.82-71.73,36.27-107.87,53.89C14.08,433.88,3.1,440.2-7.8,446.59c-29.35,17.2-48.86,42.26-60.44,74.24-11.87,32.78-23.57,65.86-44.59,94.28C-126.06,633-139.29,650.86-151,669.8c-10.77,17.4-22,34.57-29.46,53.79-3.61,9.27-5.94,18.83-5.43,28.83.83,16.25,9.14,28,22.69,36.38,18.54,11.46,39.44,16.86,60,23.07,41.19,12.47,80.52,28.51,114.11,56.35C32.4,886.08,51,906.68,68.2,928.61a17.53,17.53,0,0,1,1.62,3.31H-286.86Z" transform="translate(287.01 161.02)"/><path class="b" d="M1655.9,232.22c-4.64,4.93-5.7,11.69-8.93,17.37-14.25,25.1-35.79,43.63-56.33,63.09-30.91,29.28-65.62,53.85-99.18,79.83a116.53,116.53,0,0,0-40.63,58c-21.56,66.92-71.57,99.68-137.41,112-23.5,4.41-47.13,2.24-68.32-10.36-29.6-17.6-34-49.65-10.9-75.08,13.41-14.74,30-25.56,46.32-36.54a250,250,0,0,0,23-17.36c25.51-21.81,36.15-50.31,40.83-82.87,6.5-45.26-1.92-85.83-30.37-122-9.08-11.54-18.64-22.64-28.42-33.56-43.67-48.81-93.25-90.57-150.48-122.53-59.4-33.18-105-80.72-145.22-134.47-18.49-24.74-36.35-49.84-50.17-77.57-1.79-3.58-4.22-6.92-4.71-11.07q357.06,0,714.12-.14c5.69,0,7,1.28,7,7Q1655.76,39.09,1655.9,232.22Z" transform="translate(287.01 161.02)"/><path class="b" d="M1437.34,931.92c10.61-40.13,25.87-78.63,40.77-117.27,18.88-49,28.74-100.41,41.27-151.12,8.62-34.89,21.11-68,45.26-95.63,19.1-21.84,42.85-37.49,67.87-51.49,7.71-4.31,15.59-8.34,23.39-12.51q0,211,.14,422c0,5.19-1,6.23-6.22,6.22C1579,931.85,1508.17,931.92,1437.34,931.92Z" transform="translate(287.01 161.02)"/><path class="b" d="M297.2,579.76c52.33,4,102,16.9,147.18,44.51A76.1,76.1,0,0,1,459.16,636c11.65,11.9,12.34,22.53.27,34.05C425,703,384.26,716.2,337.94,696.51c-32.18-13.68-60.3-32.93-79.13-63.43-4.14-6.71-7-14-7.17-22.1-.34-13.58,5.15-21.86,17.94-26.69C278.46,580.94,287.73,580,297.2,579.76Z" transform="translate(287.01 161.02)"/><path class="b" d="M656.6,435.63c-26.41-1.32-51.48-4-75.74-11.88a58.08,58.08,0,0,1-14.31-6.88c-13.32-8.85-15.08-23.6-4.34-35.62a86.57,86.57,0,0,1,28.67-20.77C632,341.41,674.65,337,718.73,347.67a54.48,54.48,0,0,1,12.55,5.23c22.48,12,26.29,35,8.72,53.53-17,17.86-39.11,24.35-62.57,27.54C670.19,435,662.84,435.15,656.6,435.63Z" transform="translate(287.01 161.02)"/><path class="b" d="M700.86,652.9c20.57,2,47,.88,72.73,7.48a85.52,85.52,0,0,1,31.29,14.86c25.7,19.77,25.32,47.8-1,67-32.55,23.73-74.78,23.06-106-2.71-16.34-13.48-32.24-27.65-45.56-44.34a87.31,87.31,0,0,1-6.87-10c-6.36-10.76-3.67-20.22,7.59-25.61C666.39,653.2,680.8,652.6,700.86,652.9Z" transform="translate(287.01 161.02)"/></svg>