<svg xmlns="http://www.w3.org/2000/svg" viewBox="0 0 1943.14 1093.41"><defs><style>.a{fill:#ffffff;}.b{fill:#41c7f6;}</style></defs><title>1800f_00203</title><path class="a" d="M-286.86,654.16V253.47c11.41,8.54,21.67,18.26,29.72,30.08,18.39,27,37.91,53,62.49,74.92,17.74,15.81,35.22,31.92,51.77,49,22.2,22.9,37.54,49.11,42.56,81.19,2.81,18,4.82,36,6.68,54.05,1.54,14.91,5.42,17.75,20.31,14.13,14.45-3.51,28.74-7.84,43.66-9.14C.64,545,30.13,546,55,567.13c7.9,6.73,15.56,13.7,22.17,21.71,18.66,22.59,32.57,47.42,36.43,77,2.26,17.27,4.44,34.57,7.29,51.75,2.83,17,6.73,33.72,16.24,48.53,9.05,14.1,22.9,13.58,30.73-1,6.26-11.69,8.19-24.38,8.85-37.29,1.57-30.25-3.05-59.94-8.49-89.57-4.23-23.07-10.51-45.73-11.8-69.4-1.59-29.33-.69-58.64-.86-88-.17-29.82,1-59.69-3.29-89.35-6.77-46.66-28.55-83.67-69.63-108.32C64.54,272.39,44.91,265,25.23,257.72,15.9,254.27,7.05,250-.25,243.13-11.95,232-13.09,218.94-1.41,208,19.85,188,46,178.32,74.48,184.24c22.06,4.58,41.18,1.46,59.49-9.65a1367.89,1367.89,0,0,1,127.64-68.27c40.44-19,75.49-45.7,106.2-78.34,53-56.37,99.77-117.51,141.24-182.78,1.17-1.84,3.12-3.46,2.44-6.08H714.87c1.68,3.61,5.15,5.44,8,7.89,16.79,14.61,30.24,31.37,34,54.07,1.64,10,2.73,20,3.54,30.09,2,24.9,14.63,41.78,37.5,51.51a164.3,164.3,0,0,0,31.79,9.86c42.57,8.68,85.08,4,127.55-.82,33.37-3.79,66.24-11.4,99.86-13.37,27.34-1.61,53.15-9,78.17-19.92,13.21-5.74,26.77-10.69,40.9-13.76,15.7-3.41,31.44-5.29,47.06.41,13.6,5,20.19,14.63,19.49,29.06a105.85,105.85,0,0,1-2,15.76,178.9,178.9,0,0,0-1,68.52c3,16.39,5.71,32.9,5,49.69-1.82,40.54,5.25,80.14,13.85,119.37,7.17,32.73,18.43,64.17,40.26,90.63,13.56,16.44,30.53,21.08,50.06,12.84,12.56-5.29,24.63-11.74,37-17.56,21.48-10.15,43.25-10.78,65.45-2.23,18.76,7.23,35.82,17.53,52.9,27.91,39.91,24.23,75.67,54,111.95,83.1,12.73,10.22,25.34,20.75,39.81,28.61V719.43a40.52,40.52,0,0,0-2.91,3.4c-52.46,76.49-118.07,138.81-198.63,185.19-12.65,7.28-25.48,14.43-36.76,23.9H-277.75q6.63-18.54,14.54-36.58c17-38.89,42.79-71.89,69.36-104.42,34.31-42,62.89-87.29,77.74-140.1,5.13-18.23,9.8-36.59,9.37-55.77-.16-7.43-2.47-9.48-9.84-8.42a27.78,27.78,0,0,0-7.09,2.46c-30.55,13.54-59.14,30.66-87.62,48-14.11,8.59-28.86,15.52-45.45,18.06C-266.91,656.7-276.82,654.34-286.86,654.16Zm1250-477.57c-17.79-.16-42.78,21.94-45.86,40.55-2.22,13.42,5.44,20.09,18.63,16.43a48.11,48.11,0,0,0,19.23-10.2c10.23-9.12,19.54-19.26,20.22-34.12C975.72,180.76,971.49,176.67,963.12,176.59Z" transform="translate(287.08 161.02)"/><path class="b" d="M511.49-160.88c.68,2.62-1.27,4.24-2.44,6.08C467.58-89.53,420.83-28.39,367.81,28c-30.71,32.64-65.76,59.33-106.2,78.34A1367.89,1367.89,0,0,0,134,174.59c-18.31,11.11-37.43,14.23-59.49,9.65C46,178.32,19.85,188-1.41,208c-11.68,11-10.54,24.06,1.16,35.15,7.3,6.91,16.15,11.14,25.48,14.59,19.68,7.28,39.31,14.67,57.42,25.53,41.08,24.65,62.86,61.66,69.63,108.32,4.3,29.66,3.12,59.53,3.29,89.35.17,29.32-.73,58.63.86,88,1.29,23.67,7.57,46.33,11.8,69.4,5.44,29.63,10.06,59.32,8.49,89.57-.66,12.91-2.59,25.6-8.85,37.29-7.83,14.61-21.68,15.13-30.73,1-9.51-14.81-13.41-31.56-16.24-48.53-2.85-17.18-5-34.48-7.29-51.75-3.86-29.63-17.77-54.46-36.43-77-6.61-8-14.27-15-22.17-21.71C30.13,546,.64,545-29.67,547.7c-14.92,1.3-29.21,5.63-43.66,9.14-14.89,3.62-18.77.78-20.31-14.13-1.86-18.06-3.87-36.08-6.68-54.05-5-32.08-20.36-58.29-42.56-81.19-16.55-17.08-34-33.19-51.77-49-24.58-21.9-44.1-47.91-62.49-74.92-8.05-11.82-18.31-21.54-29.72-30.08q0-204-.17-408c0-5.8,1.6-6.44,6.74-6.44Q115.59-160.8,511.49-160.88Z" transform="translate(287.08 161.02)"/><path class="b" d="M1655.9,450.78c-14.47-7.86-27.08-18.39-39.81-28.61-36.28-29.11-72-58.87-111.95-83.1-17.08-10.38-34.14-20.68-52.9-27.91-22.2-8.55-44-7.92-65.45,2.23-12.34,5.82-24.41,12.27-37,17.56-19.53,8.24-36.5,3.6-50.06-12.84-21.83-26.46-33.09-57.9-40.26-90.63-8.6-39.23-15.67-78.83-13.85-119.37.76-16.79-1.93-33.3-5-49.69a178.9,178.9,0,0,1,1-68.52,105.85,105.85,0,0,0,2-15.76c.7-14.43-5.89-24.1-19.49-29.06-15.62-5.7-31.36-3.82-47.06-.41-14.13,3.07-27.69,8-40.9,13.76-25,10.87-50.83,18.31-78.17,19.92-33.62,2-66.49,9.58-99.86,13.37-42.47,4.84-85,9.5-127.55.82a164.3,164.3,0,0,1-31.79-9.86C775-27,762.37-43.93,760.36-68.83c-.81-10.06-1.9-20.14-3.54-30.09-3.74-22.7-17.19-39.46-34-54.07-2.82-2.45-6.29-4.28-8-7.89q467.1,0,934.2-.14c5.69,0,7.11,1.26,7,7-.41,19-.15,37.94-.15,56.91-8.51,1.08-17,2-25.51,3.26-23.58,3.55-46.79,8.42-66.78,22.53C1545.43-58.5,1539.33-41.1,1545-19.63a107.72,107.72,0,0,0,9.48,23.88c22.21,40.82,47,80.1,72.33,119,7.14,10.94,15.75,21.12,29.05,25.49Z" transform="translate(287.08 161.02)"/><path class="b" d="M-286.86,654.16c10,.18,19.95,2.54,30.12,1,16.59-2.54,31.34-9.47,45.45-18.06,28.48-17.34,57.07-34.46,87.62-48a27.78,27.78,0,0,1,7.09-2.46c7.37-1.06,9.68,1,9.84,8.42.43,19.18-4.24,37.54-9.37,55.77-14.85,52.81-43.43,98.08-77.74,140.1-26.57,32.53-52.37,65.53-69.36,104.42q-7.91,18.06-14.54,36.58c-7.79,1.71-9.36-1.32-9.33-9.11C-286.73,833.26-286.86,743.71-286.86,654.16Z" transform="translate(287.08 161.02)"/><path class="b" d="M1417.6,931.92c11.28-9.47,24.11-16.62,36.76-23.9,80.56-46.38,146.17-108.7,198.63-185.19a40.52,40.52,0,0,1,2.91-3.4q0,103.59.12,207.18c0,4.52-.91,5.44-5.44,5.43Q1534.09,931.79,1417.6,931.92Z" transform="translate(287.08 161.02)"/><path class="a" d="M1655.9,148.74c-13.3-4.37-21.91-14.55-29.05-25.49-25.35-38.9-50.12-78.18-72.33-119A107.72,107.72,0,0,1,1545-19.63c-5.71-21.47.39-38.87,18.57-51.72,20-14.11,43.2-19,66.78-22.53,8.47-1.28,17-2.18,25.51-3.26Z" transform="translate(287.08 161.02)"/><path class="b" d="M963.12,176.59c8.37.08,12.6,4.17,12.22,12.66-.68,14.86-10,25-20.22,34.12a48.11,48.11,0,0,1-19.23,10.2c-13.19,3.66-20.85-3-18.63-16.43C920.34,198.53,945.33,176.43,963.12,176.59Z" transform="translate(287.08 161.02)"/></svg>