<svg xmlns="http://www.w3.org/2000/svg" viewBox="0 0 1943.03 1093.11"><defs><style>.a{fill:#ffffff;}.b{fill:#41c7f6;}</style></defs><title>1800f_00118</title><path class="a" d="M1655.9,774.07c0,50.84-.08,101.69.12,152.53,0,4.53-.9,5.49-5.44,5.45-30.6-.25-61.21-.13-91.82-.13-3.92-18.39-15.62-30-32.32-37.41-17.24-7.61-35.34-8.42-53.55-5.73-37.31,5.53-69.82,22.65-100.82,43.14H450.78A226.34,226.34,0,0,0,457,816c-5.95-29.29-16.62-55.41-42.93-73-11.92-8-22.29-18.18-33.64-27-16.95-13.2-33.94-26.68-55.23-32.24-38.87-10.16-67.16,1.32-74.2,44.8A302.08,302.08,0,0,0,247.09,773a522.56,522.56,0,0,0,7.64,95c3.77,22.17,7.82,44.33,20,63.91q-277.6,0-555.2.16c-5.64,0-6.52-1.38-6.51-6.67q.23-390.61.13-781.22c47.57-5.27,95.23-7.57,143.05-4.39,28.07,1.87,55.74,5.68,82.65,14.51,24.28,8,49,14.13,74.86,14.63,46.6.9,90-11.22,131.47-31.39,39.11-19,77-40.46,117.19-57.28C310.83,60,361.46,45,408.46,21c18.41-9.41,37.68-8.36,56.47.12a235.18,235.18,0,0,1,65.78,44.23C541.87,76,554.54,83.18,569.82,85.51c21.22,3.23,42.42,1.33,63.5-1.15,58-6.83,116-11.92,174.46-10.51,29.35.71,57.89,5,85.4,15.15,36,13.3,71.54,28,109.31,36.12,6.08,1.3,11.87,4.3,17.56,7,11.32,5.37,18.73,14.27,22.74,26.13a94.77,94.77,0,0,1,4.64,28.31c.64,25.5-5.77,50.15-8.71,75.22-5.27,45,4.67,85.88,32.34,122.08,10.64,13.92,23.11,25.44,40.68,30.1,14.46,3.83,25.25.42,34-11.62a221.66,221.66,0,0,0,13.94-21.66c13.44-24.06,25.42-49,40-72.32,33-52.75,58-108.67,72.59-169.29,5-20.84,13.93-40.52,31.14-54.45,27.69-22.41,57.37-30.7,88.86-12.36,8.08,4.7,16.1,9.54,23.84,14.78,23,15.57,45.4,32,70.44,44.54,41.84,21,63,55.41,63.2,102.38.13,32.35-8.07,63.24-19.22,93.11-22.55,60.37-32.64,122.27-28.32,186.67,3.08,45.9,10.51,90.81,26,134.27,16,45,40.35,83.23,83.66,106.6C1626,762.25,1640.08,770.12,1655.9,774.07Z" transform="translate(286.99 161.03)"/><path class="b" d="M1655.9,774.07c-15.82-4-30-11.82-44.11-19.46-43.31-23.37-67.7-61.65-83.66-106.6-15.44-43.46-22.87-88.37-26-134.27-4.32-64.4,5.77-126.3,28.32-186.67,11.15-29.87,19.35-60.76,19.22-93.11-.18-47-21.36-81.42-63.2-102.38-25-12.55-47.42-29-70.44-44.54-7.74-5.24-15.76-10.08-23.84-14.78-31.49-18.34-61.17-10.05-88.86,12.36-17.21,13.93-26.11,33.61-31.14,54.45-14.63,60.62-39.56,116.54-72.59,169.29-14.6,23.32-26.58,48.26-40,72.32a221.66,221.66,0,0,1-13.94,21.66c-8.7,12-19.49,15.45-34,11.62-17.57-4.66-30-16.18-40.68-30.1-27.67-36.2-37.61-77.1-32.34-122.08,2.94-25.07,9.35-49.72,8.71-75.22a94.77,94.77,0,0,0-4.64-28.31c-4-11.86-11.42-20.76-22.74-26.13-5.69-2.7-11.48-5.7-17.56-7C964.72,117,929.2,102.3,893.18,89c-27.51-10.15-56-14.44-85.4-15.15-58.48-1.41-116.5,3.68-174.46,10.51-21.08,2.48-42.28,4.38-63.5,1.15-15.28-2.33-28-9.51-39.11-20.14a235.18,235.18,0,0,0-65.78-44.23c-18.79-8.48-38.06-9.53-56.47-.12-47,24-97.63,39-146.1,59.25-40.18,16.82-78.08,38.28-117.19,57.28C103.65,157.72,60.3,169.84,13.7,168.94c-25.88-.5-50.58-6.65-74.86-14.63-26.91-8.83-54.58-12.64-82.65-14.51-47.82-3.18-95.48-.88-143,4.39V-97.14A134.89,134.89,0,0,0-258.29-111c20.63-13.13,39.18-28.48,51.87-49.89H1217.26c-7.34,9-14.73,17.89-22,26.92a195.68,195.68,0,0,0-29.51,50.08c-9.87,24.62-26.36,45.37-40.49,67.49-9.27,14.5-18.51,29.09-23,45.93-7.65,29,5.43,46.2,35.31,46.2,31.34,0,60.7-9.66,89.88-19.64,26.49-9.05,46.29-26.36,59.88-50.75A349.35,349.35,0,0,0,1321-78.87c5-19.59,2.75-38.55-6.6-56.67-4.53-8.79-9.84-17.06-15.17-25.34q175.3,0,350.6-.15c5.2,0,6.22,1,6.22,6.22Q1655.8,309.64,1655.9,774.07Z" transform="translate(286.99 161.03)"/><path class="b" d="M274.72,931.92c-12.17-19.58-16.22-41.74-20-63.91a522.56,522.56,0,0,1-7.64-95A302.08,302.08,0,0,1,251,728.55c7-43.48,35.33-55,74.2-44.8,21.29,5.56,38.28,19,55.23,32.24,11.35,8.84,21.72,19.07,33.64,27,26.31,17.56,37,43.68,42.93,73a226.34,226.34,0,0,1-6.24,115.94Z" transform="translate(286.99 161.03)"/><path class="a" d="M1299.22-160.88c5.33,8.28,10.64,16.55,15.17,25.34,9.35,18.12,11.58,37.08,6.6,56.67a349.35,349.35,0,0,1-33.61,84.22c-13.59,24.39-33.39,41.7-59.88,50.75-29.18,10-58.54,19.65-89.88,19.64-29.88,0-43-17.17-35.31-46.2,4.44-16.84,13.68-31.43,23-45.93,14.13-22.12,30.62-42.87,40.49-67.49A195.68,195.68,0,0,1,1195.26-134c7.27-9,14.66-17.95,22-26.92Z" transform="translate(286.99 161.03)"/><path class="b" d="M1372.07,931.92c31-20.49,63.51-37.61,100.82-43.14,18.21-2.69,36.31-1.88,53.55,5.73,16.7,7.37,28.4,19,32.32,37.41Z" transform="translate(286.99 161.03)"/><path class="a" d="M-206.42-160.88c-12.69,21.41-31.24,36.76-51.87,49.89a134.89,134.89,0,0,1-28.57,13.85c0-19.73.12-39.46-.1-59.19-.05-3.8.86-4.68,4.65-4.65C-257-160.79-231.71-160.88-206.42-160.88Z" transform="translate(286.99 161.03)"/></svg>