<svg xmlns="http://www.w3.org/2000/svg" viewBox="0 0 1366.29 768.29"><defs><style>.a{fill:#ffffff;}.b{fill:#41c7f6;}</style></defs><title>1800f_00039</title><path class="a" d="M1170.21,769.52H340c.28-2.1-1.35-3.18-2.48-4.44-12.41-13.76-25.88-26.3-41.42-36.52-35.45-23.32-75-37.11-115-50-8.18-2.64-16.51-4.91-24.12-9-6.78-3.62-7.44-7.74-1.83-13.06a123.17,123.17,0,0,1,13.67-10.78c24.12-17.09,49.53-32.33,72.71-50.81,22.94-18.29,38.2-40.42,40.17-70.83,1.84-28.37-.34-56.59-1.54-84.85-.84-19.45.67-38.35,7.48-56.65,7.41-19.92,15-39.92,17.13-61.16a153.17,153.17,0,0,1,27.81-75.11c5.26-7.42,9.58-15.55,11.56-24.56.83-3.8,2.24-8.56-1.62-11.3s-8.34-1.33-12.17,1a77,77,0,0,0-17.1,13.71,208.74,208.74,0,0,1-56.52,44c-19,10.1-35.65,24-55.2,33.2-22,10.32-37.48,3-43.49-20.57-2.82-11.11-3.35-22.47-3.28-33.86.07-11.65-.34-23.26-2.4-34.74-5.16-28.87-12.42-57.27-19.59-85.67-6.06-24-13-47.77-19.35-71.7-2.62-10-.5-14,9.06-17.69C128.05,36,134,34.78,139.9,33.25c26.3-6.86,51.59-16,74.11-31.73H909.15c-1,2.94,1.27,4.69,2.5,6.76,20.76,34.8,50,62,79.51,89,22.88,21,47,40.85,67.14,64.67,17.28,20.45,33.22,42,50,62.9,10.09,12.54,16.87,26.34,18.35,42.49,1.46,15.84,2.69,31.71,4.23,47.54,1.65,16.88,3.89,33.65,11.74,49.07,3.19,6.26,7.46,11.61,13.9,14.54,35.06,15.94,71.62,24.81,110.38,21.59,33.53-2.79,67-4.71,100.61-.93v71.33c-2.18-1-3.91.38-5.67,1.21-36.54,17.29-72.8,35.15-106.91,56.92-24.46,15.63-45.42,34.9-55.18,63.35-11.31,33-20,66.68-25.09,101.26C1171,718.55,1170.37,744,1170.21,769.52ZM846.72,517.3A65.3,65.3,0,0,0,862.65,515c12.61-3.72,22.42-10.73,25.73-24.17,3.23-13.1-3.46-22.76-12.82-30.33-22.22-18-45.55-34.42-71.76-46.25-15.76-7.11-31.89-8.89-48.61-3.11-13.84,4.78-27.81,9.56-42.54,10.44-21.51,1.29-41.69,7.21-61.27,15.75-5.56,2.42-11.19,4.75-15.84,8.78-8.42,7.28-8.42,15,0,22.41A54,54,0,0,0,651.77,478a122.92,122.92,0,0,0,53.45,8.58c25.89-1.65,50,4,73.83,13.31C800.43,508.32,822.14,516,846.72,517.3ZM742.37,613c7.83,0,15.69.45,23.48-.1,15.11-1,23.91-15.76,17.89-29.63-4.45-10.26-12.41-17.08-22.75-21-23.44-9-58.64,3.66-71.26,25.47-4,6.91-2.7,13.23,3.8,17.84,3.35,2.38,7.24,3.49,11.17,4.53C717.09,613.33,729.75,612.8,742.37,613Zm311.75-296.92c.15-10-7.38-14.68-16.39-9.33-15.24,9.06-24.81,22.75-28.78,40-1.84,8,3.53,12.52,11.58,10.67C1035.58,353.92,1053.88,331.41,1054.12,316.05Z" transform="translate(-1.37 -1.37)"/><path class="b" d="M214,1.52C191.49,17.21,166.2,26.39,139.9,33.25,134,34.78,128.05,36,122.42,38.17c-9.56,3.65-11.68,7.73-9.06,17.69,6.31,23.93,13.29,47.7,19.35,71.7,7.17,28.4,14.43,56.8,19.59,85.67,2.06,11.48,2.47,23.09,2.4,34.74-.07,11.39.46,22.75,3.28,33.86,6,23.6,21.51,30.89,43.49,20.57,19.55-9.18,36.25-23.1,55.2-33.2a208.74,208.74,0,0,0,56.52-44,77,77,0,0,1,17.1-13.71c3.83-2.32,8.35-3.68,12.17-1s2.45,7.5,1.62,11.3c-2,9-6.3,17.14-11.56,24.56a153.17,153.17,0,0,0-27.81,75.11c-2.09,21.24-9.72,41.24-17.13,61.16-6.81,18.3-8.32,37.2-7.48,56.65,1.2,28.26,3.38,56.48,1.54,84.85-2,30.41-17.23,52.54-40.17,70.83-23.18,18.48-48.59,33.72-72.71,50.81a123.17,123.17,0,0,0-13.67,10.78c-5.61,5.32-5,9.44,1.83,13.06,7.61,4.07,15.94,6.34,24.12,9,40,12.88,79.59,26.67,115,50,15.54,10.22,29,22.76,41.42,36.52,1.13,1.26,2.76,2.34,2.48,4.44q-166.2,0-332.39.14c-5.2,0-6.22-1-6.22-6.22q.25-377.93,0-755.85c0-5.19,1-6.24,6.22-6.22C76.39,1.59,145.2,1.52,214,1.52Z" transform="translate(-1.37 -1.37)"/><path class="b" d="M1367.52,399.18c-33.58-3.78-67.08-1.86-100.61.93-38.76,3.22-75.32-5.65-110.38-21.59-6.44-2.93-10.71-8.28-13.9-14.54-7.85-15.42-10.09-32.19-11.74-49.07-1.54-15.83-2.77-31.7-4.23-47.54-1.48-16.15-8.26-30-18.35-42.49-16.79-20.87-32.73-42.45-50-62.9-20.11-23.82-44.26-43.65-67.14-64.67-29.47-27.07-58.75-54.23-79.51-89-1.23-2.07-3.52-3.82-2.5-6.76H1023c4.35,10.59,11,18.21,23.59,17.7,11.36-.46,15.93-8.25,18.91-17.7h177.58c11.92,9.32,23.88,18.6,35.76,28,18.7,14.78,27.58,33.41,24,57.74-4.49,30.91.74,60.44,15.17,88.18,7.56,14.53,18.91,24.22,35.85,25.84,4.52.44,9.09.42,13.63.62Z" transform="translate(-1.37 -1.37)"/><path class="b" d="M1170.21,769.52c.16-25.5.75-51,4.46-76.27,5-34.58,13.78-68.27,25.09-101.26,9.76-28.45,30.72-47.72,55.18-63.35,34.11-21.77,70.37-39.63,106.91-56.92,1.76-.83,3.49-2.19,5.67-1.21q0,146.47.14,292.93c0,5.2-1,6.24-6.21,6.22C1297.7,769.44,1234,769.52,1170.21,769.52Z" transform="translate(-1.37 -1.37)"/><path class="a" d="M1367.52,201.87c-4.54-.2-9.11-.18-13.63-.62-16.94-1.62-28.29-11.31-35.85-25.84-14.43-27.74-19.66-57.27-15.17-88.18,3.53-24.33-5.35-43-24-57.74-11.88-9.37-23.84-18.65-35.76-28,39.72,0,79.43.09,119.14-.13,4.54,0,5.46.91,5.44,5.44Q1367.37,104.35,1367.52,201.87Z" transform="translate(-1.37 -1.37)"/><path class="a" d="M1065.48,1.52c-3,9.45-7.55,17.24-18.91,17.7-12.64.51-19.24-7.11-23.59-17.7Z" transform="translate(-1.37 -1.37)"/><path class="b" d="M846.72,517.3c-24.58-1.33-46.29-9-67.67-17.38-23.82-9.35-47.94-15-73.83-13.31A122.92,122.92,0,0,1,651.77,478a54,54,0,0,1-16.26-9.54c-8.39-7.45-8.39-15.13,0-22.41,4.65-4,10.28-6.36,15.84-8.78,19.58-8.54,39.76-14.46,61.27-15.75,14.73-.88,28.7-5.66,42.54-10.44,16.72-5.78,32.85-4,48.61,3.11,26.21,11.83,49.54,28.27,71.76,46.25,9.36,7.57,16.05,17.23,12.82,30.33-3.31,13.44-13.12,20.45-25.73,24.17A65.3,65.3,0,0,1,846.72,517.3Z" transform="translate(-1.37 -1.37)"/><path class="b" d="M742.37,613c-12.62-.17-25.28.36-37.67-2.92-3.93-1-7.82-2.15-11.17-4.53-6.5-4.61-7.8-10.93-3.8-17.84,12.62-21.81,47.82-34.44,71.26-25.47,10.34,3.95,18.3,10.77,22.75,21,6,13.87-2.78,28.58-17.89,29.63C758.06,613.42,750.2,613,742.37,613Z" transform="translate(-1.37 -1.37)"/><path class="b" d="M1054.12,316.05c-.24,15.36-18.54,37.87-33.59,41.32-8,1.85-13.42-2.69-11.58-10.67,4-17.23,13.54-30.92,28.78-40C1046.74,301.37,1054.27,306.05,1054.12,316.05Z" transform="translate(-1.37 -1.37)"/></svg>