<svg xmlns="http://www.w3.org/2000/svg" viewBox="0 0 1943.11 1093.13"><defs><style>.a{fill:#ffffff;}.b{fill:#41c7f6;}</style></defs><title>1800f_00245</title><path class="a" d="M1655.9,303.56V332.4c-4.76,6.14-9.12,12.65-14.35,18.36C1624,370,1606,388.83,1588.37,408c-35.75,38.85-65.67,81.38-83.79,131.54-10.92,30.22-19.32,61.21-29.29,91.71-7.21,22-16,43.25-33.12,59.73-14.64,14.07-32,16.15-49.23,5.63-15.91-9.72-25.43-24.32-30-42.17-5.87-23-3.6-46.18-.65-69.32,2-15.28,4.35-30.49,3-46-1.82-21.39-11.56-39.59-22.32-57.41-11.68-19.33-20.11-39.75-20.86-62.61-.64-19.22-2.17-38.33-4.71-57.39-3.14-23.6-8.76-46.39-23.76-65.5-25.28-32.22-58.54-52.72-98.16-61.82-31.09-7.14-59.5-1.06-81.14,24.49a651.64,651.64,0,0,1-56.68,59c-17.67,16.24-36,32-58.42,41.52-28.39,12.06-44.17,13.54-66.39-14.12-9.15-11.39-18.65-22.62-29.39-32.64-13-12.16-26.83-23.08-45-26.63-19.38-3.78-36.65,7.38-38.74,25.5a62.51,62.51,0,0,0,4.58,31.91c12.81,30.38,36.24,50.41,63.89,66.52,11.07,6.45,23.55,11.21,31.25,22.17,10.24,14.56,9.75,31.47,8.93,48.17a178.62,178.62,0,0,0,1.41,30.16c2.63,22.18,16.61,33.7,37,38.86a122.92,122.92,0,0,0,32.35,3.28c25.87-.41,51.24-5.3,76.81-8.41,12.79-1.55,25.58-3.47,38.47-.78,14,2.92,20,12.12,17,26.14-1.51,7.06-4.71,13.32-8.69,19.24A139.49,139.49,0,0,1,1105.59,609c-18.58,18.7-39,35.31-59.57,51.67-26.91,21.38-53,43.87-82.63,61.61-9.32,5.58-19.61,9-30.42,7.13-34.86-6.15-69.87-11-105.16-13.86-33.79-2.7-67.65-4.49-101.45-.35-13.3,1.62-26.5,4.33-38.06,11.83-12.45,8.07-14.08,17.46-5,29.22,4.86,6.31,11.32,10.85,18,14.88C733,790,767.47,801,803.58,807.57c30.14,5.48,59.33,2.79,87.72-9,9.79-4.05,19.77-7.76,29.86-11,18-5.81,29.7-.33,37.28,16.92a79.92,79.92,0,0,1,5.43,17.32c7,36.93,1.31,73.49-3.12,110.09H412.84c-1.12-2.24-3.45-2.92-5.39-3.92-20.23-10.43-40.39-21-60.8-31.06-32.85-16.21-66.68-30.53-96.51-52.38-33.59-24.59-60.8-55.47-87.56-86.89-26.19-30.76-55.64-57.45-94.09-72.19C42.57,675.54,15.23,671.72-12,667.66c-37.52-5.58-75.44-7.41-113.06-12.1-8.52-1.07-17.11-2-25.17-5.22-7.54-3-8.57-6.54-4.3-13.44,3.49-5.64,8.29-10.18,12.93-14.83,9.28-9.31,18.82-18.42,26.53-29.13,12.39-17.22,12.54-29.24.35-46.52-11-15.59-25.12-28.37-38.44-41.85-8.39-8.5-16.19-17.53-22-28-32.5-58.6-41.23-121.4-31.86-187.09,4.63-32.44,16-63.14,25.88-94.21,15-47.52,22.7-95.88,17.31-145.75-2.62-24.33-7.62-47.92-23.82-67.66a280.13,280.13,0,0,1-18.08-25.27c-8-12.28-16.1-24.55-19.45-39.19-2.41-10.53.28-19.48,7.69-27.15,6.06-6.28,13.51-10.58,21.16-14.54,16.61-8.6,33.37-16.94,49.84-25.8,5.63-3,11.87-5.42,15.95-10.83q889.8,0,1779.6-.14c5.69,0,7,1.27,7,7-.31,33.13-.15,66.27-.15,99.41-2.18,3.57-2.14,7.72-3,11.62-7.27,35.16-21.31,64.38-59.27,76.43-16.25,5.16-25.54,19.25-30.37,35.6-9.31,31.51-3.73,62.14,6.39,92.22C1587.8,215.05,1620.1,260.39,1655.9,303.56ZM606.92-8.86a101.06,101.06,0,0,0-27.78,3.1c-13,3.49-18.8,11.35-19.32,24.66-.39,10.08,2,19.56,5.4,28.86q27.6,74.82,92.92,120.59c31.16,21.91,58.05,22.2,88.57-.71C769,151,786,129.1,801.85,106.49,814.12,89,825,70.8,829.43,49.56c6.87-32.8-10.32-52-43.61-48.43A394.28,394.28,0,0,1,685.3-1C659.33-4.9,633.25-8.24,606.92-8.86ZM136.46,503.72c-11.42-.57-27.87,2.22-43.89,7C73.06,516.54,54.46,524.45,40,539.58c-8.7,9.11-7.76,17.52,2.51,24.68,6.52,4.55,13.92,7.16,21.5,9.18,43.54,11.58,86.15,6.34,128.28-7.24,9.71-3.13,18.94-7.15,26-14.85,5.68-6.16,6.1-15,.68-21.29a52.28,52.28,0,0,0-10.54-9.74C188.26,506.78,165.43,504,136.46,503.72Z" transform="translate(287.06 161.02)"/><path class="b" d="M960.75,931.92c4.43-36.6,10.08-73.16,3.12-110.09a79.92,79.92,0,0,0-5.43-17.32c-7.58-17.25-19.32-22.73-37.28-16.92-10.09,3.26-20.07,7-29.86,11-28.39,11.75-57.58,14.44-87.72,9C767.47,801,733,790,701.32,771.09c-6.72-4-13.18-8.57-18-14.88-9.06-11.76-7.43-21.15,5-29.22,11.56-7.5,24.76-10.21,38.06-11.83,33.8-4.14,67.66-2.35,101.45.35,35.29,2.82,70.3,7.71,105.16,13.86,10.81,1.9,21.1-1.55,30.42-7.13C993,704.5,1019.11,682,1046,660.63c20.59-16.36,41-33,59.57-51.67a139.49,139.49,0,0,0,17.17-20.19c4-5.92,7.18-12.18,8.69-19.24,3-14-3-23.22-17-26.14-12.89-2.69-25.68-.77-38.47.78-25.57,3.11-50.94,8-76.81,8.41a122.92,122.92,0,0,1-32.35-3.28c-20.41-5.16-34.39-16.68-37-38.86a178.62,178.62,0,0,1-1.41-30.16c.82-16.7,1.31-33.61-8.93-48.17-7.7-11-20.18-15.72-31.25-22.17-27.65-16.11-51.08-36.14-63.89-66.52a62.51,62.51,0,0,1-4.58-31.91c2.09-18.12,19.36-29.28,38.74-25.5,18.19,3.55,32,14.47,45,26.63,10.74,10,20.24,21.25,29.39,32.64,22.22,27.66,38,26.18,66.39,14.12,22.45-9.53,40.75-25.28,58.42-41.52a651.64,651.64,0,0,0,56.68-59c21.64-25.55,50-31.63,81.14-24.49,39.62,9.1,72.88,29.6,98.16,61.82,15,19.11,20.62,41.9,23.76,65.5,2.54,19.06,4.07,38.17,4.71,57.39.75,22.86,9.18,43.28,20.86,62.61,10.76,17.82,20.5,36,22.32,57.41,1.31,15.54-1.09,30.75-3,46-3,23.14-5.22,46.3.65,69.32,4.55,17.85,14.07,32.45,30,42.17,17.22,10.52,34.59,8.44,49.23-5.63,17.16-16.48,25.91-37.71,33.12-59.73,10-30.5,18.37-61.49,29.29-91.71,18.12-50.16,48-92.69,83.79-131.54,17.63-19.17,35.61-38,53.18-57.24,5.23-5.71,9.59-12.22,14.35-18.36q0,296.34.14,592.69c0,5.69-1.25,7.31-7,7-9.33-.55-18.71-.15-28.07-.15-12.14-12.5-25.74-23.37-38.9-34.71-20.87-18-42.2-35.44-67.84-46.51-21.71-9.37-43.85-14.17-66.77-4.58-17.26,7.22-29.92,20.34-41.8,34.22-15.18,17.72-26.88,38.63-47.27,51.58Z" transform="translate(287.06 161.02)"/><path class="b" d="M-130.53-160.88c-4.08,5.41-10.32,7.81-15.95,10.83-16.47,8.86-33.23,17.2-49.84,25.8-7.65,4-15.1,8.26-21.16,14.54-7.41,7.67-10.1,16.62-7.69,27.15,3.35,14.64,11.47,26.91,19.45,39.19A280.13,280.13,0,0,0-187.64-18.1c16.2,19.74,21.2,43.33,23.82,67.66,5.39,49.87-2.28,98.23-17.31,145.75-9.83,31.07-21.25,61.77-25.88,94.21-9.37,65.69-.64,128.49,31.86,187.09,5.78,10.43,13.58,19.46,22,28,13.32,13.48,27.45,26.26,38.44,41.85,12.19,17.28,12,29.3-.35,46.52-7.71,10.71-17.25,19.82-26.53,29.13-4.64,4.65-9.44,9.19-12.93,14.83-4.27,6.9-3.24,10.46,4.3,13.44,8.06,3.18,16.65,4.15,25.17,5.22,37.62,4.69,75.54,6.52,113.06,12.1,27.25,4.06,54.59,7.88,80.51,17.82,38.45,14.74,67.9,41.43,94.09,72.19,26.76,31.42,54,62.3,87.56,86.89,29.83,21.85,63.66,36.17,96.51,52.38,20.41,10.08,40.57,20.63,60.8,31.06,1.94,1,4.27,1.68,5.39,3.92h-516c-19.72-13.24-41.89-21-64.13-28.55-34.44-11.63-69.13-22.51-102.66-36.68-5.49-2.31-10.42-6.37-16.86-6.11V-160.88Z" transform="translate(287.06 161.02)"/><path class="b" d="M1655.9,303.56c-35.8-43.17-68.1-88.51-86.2-142.33-10.12-30.08-15.7-60.71-6.39-92.22,4.83-16.35,14.12-30.44,30.37-35.6,38-12,52-41.27,59.27-76.43.81-3.9.77-8,3-11.62Z" transform="translate(287.06 161.02)"/><path class="a" d="M1358.41,931.92c20.39-12.95,32.09-33.86,47.27-51.58,11.88-13.88,24.54-27,41.8-34.22,22.92-9.59,45.06-4.79,66.77,4.58,25.64,11.07,47,28.51,67.84,46.51,13.16,11.34,26.76,22.21,38.9,34.71Z" transform="translate(287.06 161.02)"/><path class="a" d="M-286.86,860.58c6.44-.26,11.37,3.8,16.86,6.11,33.53,14.17,68.22,25,102.66,36.68,22.24,7.52,44.41,15.31,64.13,28.55q-88.53,0-177,.11c-5,0-6.94-.43-6.8-6.38C-286.56,904-286.86,882.27-286.86,860.58Z" transform="translate(287.06 161.02)"/><path class="b" d="M606.92-8.86c26.33.62,52.41,4,78.38,7.83A394.28,394.28,0,0,0,785.82,1.13c33.29-3.55,50.48,15.63,43.61,48.43C825,70.8,814.12,89,801.85,106.49,786,129.1,769,151,746.71,167.64c-30.52,22.91-57.41,22.62-88.57.71q-65.24-45.84-92.92-120.59c-3.44-9.3-5.79-18.78-5.4-28.86.52-13.31,6.33-21.17,19.32-24.66A101.06,101.06,0,0,1,606.92-8.86Z" transform="translate(287.06 161.02)"/><path class="b" d="M136.46,503.72c29,.25,51.8,3.06,72,16.6A52.28,52.28,0,0,1,219,530.06c5.42,6.31,5,15.13-.68,21.29-7.1,7.7-16.33,11.72-26,14.85C150.18,579.78,107.57,585,64,573.44c-7.58-2-15-4.63-21.5-9.18C32.26,557.1,31.32,548.69,40,539.58c14.44-15.13,33-23,52.55-28.86C108.59,505.94,125,503.15,136.46,503.72Z" transform="translate(287.06 161.02)"/></svg>