<svg xmlns="http://www.w3.org/2000/svg" viewBox="0 0 1943.03 1093.11"><defs><style>.a{fill:#41c7f6;}.b{fill:#ffffff;}</style></defs><title>1800f_00226</title><path class="a" d="M362.75-160.88H979c-.32,2.37,1.53,3.64,2.77,5.12,11.7,13.94,23.17,28.08,35.23,41.69,41.58,46.92,92,80,152.68,97,51.18,14.32,102.6,20.67,154.75,6,39.49-11.12,77.12-27.28,114.65-43.66,16.81-7.34,23.38-20.64,23.81-37.93.55-21.88-6.42-41.73-16.7-60.67-1.26-2.33-3.74-4.31-2.75-7.5,68.8,0,137.61.07,206.41-.15,5.2,0,6.23,1,6.22,6.22q-.27,244.37-.14,488.72a9.46,9.46,0,0,0-2.22,1.92c-15.84,25.53-26.47,52.82-28,83.19-1.56,31.3,2.44,62.09,8.4,92.71,3.47,17.87,7.5,35.62,10,53.69a88.09,88.09,0,0,1-9,53.64c-13.75,27.06-26.18,54.84-45.61,78.54-12.21,14.89-27.13,26.11-47.27,24.61-39.26-2.93-76.33-12.65-106.37-40.33-26.9-24.78-45.68-54.56-54.77-90.13-2.75-10.76-4.88-21.7-7.09-32.6-9.3-45.66-24-89.88-36.32-134.72-13.55-49.12-19.06-98.7-9.75-149.33,4.27-23.23,12.6-45.29,18.89-67.93,7.94-28.61-1.67-41.57-31.61-41.68-49.83-.19-92.31,17.72-126.83,53.83-13.32,13.94-20.56,30.29-19.39,50.09,1.45,24.64-3.64,48.24-12.15,71.28q-10.65,28.82-20.31,58c-10.62,32.07-16.23,64.7-10.07,98.56,3.18,17.46,8.69,34.32,12.41,51.63,5.55,25.78-1.28,42.7-22.94,57.6-11.92,8.2-24.88,14.58-37.85,20.85-31.34,15.12-57,37-79.13,63.69-30.53,36.88-48,78-45.76,126.72.82,18.17.36,36.43-.29,54.62-.7,19.95-1.46,39.95-5.82,59.57H846.92c-13.83-27.82-15.44-57.26-11.55-87.41,4.67-36.16,19.81-68.2,38.67-98.86q34.23-55.6,9.3-116.17c-8-19.46-18.36-37.74-27.7-56.53C831.8,525,836.07,498.36,873.87,460.62c22.67-22.63,48.71-41,75.11-58.93,21.55-14.62,43.5-28.7,63.28-45.77,8.63-7.45,17-15.18,22.86-25.16,7.18-12.3,4.51-22.42-7.71-29.52a108.42,108.42,0,0,0-23.79-9.86c-46.37-13.73-89.57-34.47-131.22-58.76-21.87-12.75-43.7-25.46-63-42.05-21-18-32-40.65-32.44-68.35-.16-9.87-.16-19.74-.41-29.6-.61-24.94-3.28-49.51-14.56-72.29-14.45-29.18-32-35.16-60.24-19C674.16,17,648.45,36,627.8,60.07c-22.57,26.36-47.25,50-75.53,69.83-27.08,19-43.55,44.19-50.31,76.55a351.25,351.25,0,0,1-19.47,63.77c-22.38,53.5-59.17,90.53-117.48,103-13.6,2.92-27.24,5.66-40.8,8.74-34.57,7.84-67.74,20.65-102.1,29.15C150,429,76.3,437.29,2.56,444.24c-63.15,5.95-115.63-19.45-160.79-61.45-19.36-18-21.64-37.71-10-61.48a151.62,151.62,0,0,1,18.15-27.95c21.05-26.31,44.6-50.36,67.84-74.67C-39.87,174.36,8.37,137.31,60,104.47,73.89,95.65,87.25,86,98.63,74c11.09-11.75,18.2-25.4,20.16-41.58,1.55-12.88,1-25.76.3-38.64-1.25-23.49-3.67-46.92-3.37-70.47.36-28.2,4-55.58,21.2-79.3,1-1.39,2.14-2.91,1.2-4.86h85c22,30.86,38.76,64.53,53.77,99.17,12.74,29.39,28.39,57,49.55,81.28,8.86,10.16,18.66,19.31,31.05,25.09,15.1,7,27.27,4.07,37.68-8.95,7.2-9,12.08-19.33,15.79-30.1,7.82-22.71,15.49-45.47,22.67-68.39,6.49-20.72,1.5-38.86-13.91-54.22-8.3-8.27-17.95-14.74-27.44-21.47C382.19-145.61,371.48-151.95,362.75-160.88ZM1562.32,139.59c20.1-.6,47.35-4,73.54-13.41,5.34-1.92,12.22-3.67,12.94-10.29s-5.6-9.9-10.47-12.76c-29-17-59.55-30.08-92.95-35.3-17.63-2.76-34.62-.21-48.18,12.57-16,15.1-23.27,37.44,7.8,51.19C1520.84,138.59,1537.7,139.81,1562.32,139.59Z" transform="translate(286.99 161.05)"/><path class="b" d="M138.12-160.88c.94,1.95-.18,3.47-1.2,4.86-17.24,23.72-20.84,51.1-21.2,79.3-.3,23.55,2.12,47,3.37,70.47.68,12.88,1.25,25.76-.3,38.64-2,16.18-9.07,29.83-20.16,41.58C87.25,86,73.89,95.65,60,104.47,8.37,137.31-39.87,174.36-82.25,218.69-105.49,243-129,267.05-150.09,293.36a151.62,151.62,0,0,0-18.15,27.95c-11.63,23.77-9.35,43.47,10,61.48,45.16,42,97.64,67.4,160.79,61.45C76.3,437.29,150,429,222.11,411.14c34.36-8.5,67.53-21.31,102.1-29.15,13.56-3.08,27.2-5.82,40.8-8.74,58.31-12.5,95.1-49.53,117.48-103A351.25,351.25,0,0,0,502,206.45c6.76-32.36,23.23-57.57,50.31-76.55,28.28-19.81,53-43.47,75.53-69.83C648.45,36,674.16,17,701.74,1.28c28.2-16.11,45.79-10.13,60.24,19,11.28,22.78,13.95,47.35,14.56,72.29.25,9.86.25,19.73.41,29.6.43,27.7,11.47,50.32,32.44,68.35,19.31,16.59,41.14,29.3,63,42.05,41.65,24.29,84.85,45,131.22,58.76a108.42,108.42,0,0,1,23.79,9.86c12.22,7.1,14.89,17.22,7.71,29.52-5.82,10-14.23,17.71-22.86,25.16C992.48,373,970.53,387.07,949,401.69c-26.4,17.92-52.44,36.3-75.11,58.93C836.07,498.36,831.8,525,855.64,573c9.34,18.79,19.68,37.07,27.7,56.53q24.95,60.57-9.3,116.17c-18.86,30.66-34,62.7-38.67,98.86-3.89,30.15-2.28,59.59,11.55,87.41H-44c12.48-45.64,29.59-89.44,55.38-129.21,43-66.22,60.1-140.05,67.49-217.26,2.82-29.4-7.49-50.75-32.1-66.79C3.94,490.76-41.62,479.91-92,492.15c-40.49,9.82-81.24,13-122.53,4-23.94-5.23-48-10.29-72.3-13.5q0-318.51-.13-637c0-5.26.81-6.7,6.5-6.69Q-71.19-160.74,138.12-160.88ZM298,714.41c0,3.54-.06,7.08,0,10.62a58.62,58.62,0,0,0,.53,6c8,63.92,39.5,114.82,87.23,156.61a87.61,87.61,0,0,0,27.73,16.85c19.32,7,32-1.67,32.75-22.2.53-15-3.51-29.17-9.41-42.62a696.24,696.24,0,0,0-87.18-147.06c-6.17-8-12.89-15.55-21.19-21.57-11.24-8.16-20.89-5.52-25.63,7.48C298.6,690.12,297.71,702.22,298,714.41Zm3.37-133.18c-.47-6.43-2-12.49-6.62-17.29-15.6-16.26-34.77-20.56-56.11-15.67-10.19,2.33-13.12,11.85-6.35,20,12.41,14.85,27.89,25.47,46.76,30.45C292.5,602.25,301.38,595.07,301.33,581.23Z" transform="translate(286.99 161.05)"/><path class="b" d="M947.09,931.92c4.36-19.62,5.12-39.62,5.82-59.57.65-18.19,1.11-36.45.29-54.62C951,769,968.43,727.89,999,691c22.11-26.71,47.79-48.57,79.13-63.69,13-6.27,25.93-12.65,37.85-20.85,21.66-14.9,28.49-31.82,22.94-57.6-3.72-17.31-9.23-34.17-12.41-51.63-6.16-33.86-.55-66.49,10.07-98.56q9.68-29.16,20.31-58c8.51-23,13.6-46.64,12.15-71.28-1.17-19.8,6.07-36.15,19.39-50.09,34.52-36.11,77-54,126.83-53.83,29.94.11,39.55,13.07,31.61,41.68-6.29,22.64-14.62,44.7-18.89,67.93-9.31,50.63-3.8,100.21,9.75,149.33,12.37,44.84,27,89.06,36.32,134.72,2.21,10.9,4.34,21.84,7.09,32.6,9.09,35.57,27.87,65.35,54.77,90.13,30,27.68,67.11,37.4,106.37,40.33,20.14,1.5,35.06-9.72,47.27-24.61,19.43-23.7,31.86-51.48,45.61-78.54a88.09,88.09,0,0,0,9-53.64c-2.51-18.07-6.54-35.82-10-53.69-6-30.62-10-61.41-8.4-92.71,1.52-30.37,12.15-57.66,28-83.19a9.46,9.46,0,0,1,2.22-1.92q0,295.59.14,591.18c0,5.69-1.28,7-7,7Q1298.07,931.81,947.09,931.92Z" transform="translate(286.99 161.05)"/><path class="a" d="M-286.86,482.66c24.34,3.21,48.36,8.27,72.3,13.5,41.29,9,82,5.81,122.53-4,50.41-12.24,96-1.39,138.78,26.51,24.61,16,34.92,37.39,32.1,66.79-7.39,77.21-24.54,151-67.49,217.26C-14.43,842.48-31.54,886.28-44,931.92H-224.63c.74-1.86,1.37-3.77,2.22-5.57,17.68-37.17,35.52-74.27,53-111.52,7.74-16.49,14.38-33.42,16.87-51.67,3-22-5.39-39.16-24.7-50.17a116.33,116.33,0,0,0-25.19-10.31c-28.11-8.22-56.9-14.07-84.45-24.23Z" transform="translate(286.99 161.05)"/><path class="b" d="M1443.41-160.88c-1,3.19,1.49,5.17,2.75,7.5,10.28,18.94,17.25,38.79,16.7,60.67-.43,17.29-7,30.59-23.81,37.93-37.53,16.38-75.16,32.54-114.65,43.66-52.15,14.69-103.57,8.34-154.75-6-60.72-17-111.1-50.05-152.68-97-12.06-13.61-23.53-27.75-35.23-41.69-1.24-1.48-3.09-2.75-2.77-5.12Z" transform="translate(286.99 161.05)"/><path class="b" d="M362.75-160.88c8.73,8.93,19.44,15.27,29.52,22.41,9.49,6.73,19.14,13.2,27.44,21.47,15.41,15.36,20.4,33.5,13.91,54.22C426.44-39.86,418.77-17.1,411,5.61c-3.71,10.77-8.59,21.09-15.79,30.1-10.41,13-22.58,16-37.68,8.95-12.39-5.78-22.19-14.93-31.05-25.09-21.16-24.25-36.81-51.89-49.55-81.28-15-34.64-31.79-68.31-53.77-99.17Z" transform="translate(286.99 161.05)"/><path class="b" d="M-286.86,678.45c27.55,10.16,56.34,16,84.45,24.23A116.33,116.33,0,0,1-177.22,713c19.31,11,27.7,28.15,24.7,50.17-2.49,18.25-9.13,35.18-16.87,51.67-17.5,37.25-35.34,74.35-53,111.52-.85,1.8-1.48,3.71-2.22,5.57-19,0-37.95-.19-56.92.13-4.54.08-5.45-.92-5.44-5.44Q-286.72,802.53-286.86,678.45Z" transform="translate(286.99 161.05)"/><path class="b" d="M1562.32,139.59c-24.62.22-41.48-1-57.32-8-31.07-13.75-23.83-36.09-7.8-51.19,13.56-12.78,30.55-15.33,48.18-12.57,33.4,5.22,64,18.33,92.95,35.3,4.87,2.86,11.19,6.13,10.47,12.76s-7.6,8.37-12.94,10.29C1609.67,135.6,1582.42,139,1562.32,139.59Z" transform="translate(286.99 161.05)"/><path class="a" d="M298,714.41c-.25-12.19.64-24.29,4.85-35.85,4.74-13,14.39-15.64,25.63-7.48,8.3,6,15,13.59,21.19,21.57a696.24,696.24,0,0,1,87.18,147.06c5.9,13.45,9.94,27.58,9.41,42.62-.72,20.53-13.43,29.23-32.75,22.2a87.61,87.61,0,0,1-27.73-16.85C338,845.89,306.55,795,298.51,731.07a58.62,58.62,0,0,1-.53-6C297.9,721.49,298,718,298,714.41Z" transform="translate(286.99 161.05)"/><path class="a" d="M301.33,581.23c.05,13.84-8.83,21-22.32,17.45-18.87-5-34.35-15.6-46.76-30.45-6.77-8.11-3.84-17.63,6.35-20,21.34-4.89,40.51-.59,56.11,15.67C299.31,568.74,300.86,574.8,301.33,581.23Z" transform="translate(286.99 161.05)"/></svg>