<svg xmlns="http://www.w3.org/2000/svg" viewBox="0 0 1367.19 769.1"><defs><style>.a{fill:#ffffff;}.b{fill:#41c7f6;}</style></defs><title>1800f_00020</title><path class="a" d="M1367.52,356.68v80.44c-2.52-.77-4.41.86-6.33,1.9-39.59,21.44-77.94,44.87-113.76,72.22-21.22,16.19-38.77,35.6-48.79,60.72-11.33,28.39-21,57.39-30.18,86.53-4.86,15.44-7,31.48-9.12,47.53-2.73,21.11-2.47,42.31-2.79,63.5H349.09a12,12,0,0,0-.77-2.86c-13.58-24.28-30.39-45.94-52-63.6-34.54-28.19-74.24-45.68-117.15-56.58-11-2.8-22.06-5.59-32.81-9.22-13.25-4.49-14.29-10.88-3.48-19.54a220.72,220.72,0,0,1,18.54-13.13c19.74-12.72,40.85-23.32,58.9-38.65,18.76-15.93,29.6-35.5,28.94-60.69q-.61-23.49-.75-47a179,179,0,0,1,26-94.52c12.11-20.18,23.16-40.92,31.11-63.16,6.45-18.05,14.28-35.79,14.72-55.4.41-18.48-8.74-24.32-25.54-16.62a52.88,52.88,0,0,0-5.27,3c-10.19,6.23-19,14.24-27.87,22.11-18.75,16.58-37.52,33.18-59.45,45.58-8.66,4.9-17.88,8.46-28.2,6.4-17.65-3.52-31.92-20.36-33-38.76A98.22,98.22,0,0,1,143.68,239c6.68-29.18,6.6-58.14-2.8-86.75-6.54-19.93-13.58-39.69-20-59.66-3.72-11.54-6.6-23.35-11.89-34.33-8.17-16.95-13-19.51-31.71-16.82-14.39,2.07-28.68,1.25-43-.92C20.63,38.5,11.48,29.29,1.52,21.25c0-6.58-2.57-15.72.72-19s12.43-.72,19-.72H75.89C83,8.6,89.92,15.86,97.25,22.69c2.91,2.72,6.78,4.76,11,3.91,22.16-4.41,42.87-12.46,61.7-25.08H935c-.62,2,.81,3.35,1.71,4.79,24.5,38.93,49.72,77.37,77.06,114.4,21.3,28.85,43.69,57.12,56.07,91.41,4.87,13.5,12.13,24.66,24.3,32.8,11,7.35,16,18.56,17.09,31.56,2.33,26.5,1,53,.49,79.53-.17,8.35-.11,16.72,2.06,24.82,2.38,8.91,6.93,10.89,15.3,6.86,7.33-3.53,13.61-8.72,20-13.62,34.4-26.29,73.72-39.5,116.44-42.77,25.5-1.95,49.43,5.78,73,14.66C1348.13,349.59,1357.35,354.42,1367.52,356.68Zm-545.47,135a84.91,84.91,0,0,0,24-2.78c22.6-6,27.95-20,14.24-38.6-10-13.61-20.45-27-31.23-40-20-24.25-45.2-36.33-77.34-32.5-21.8,2.6-42.13,10.39-62.9,16.56-17.09,5.06-30.21,16-40.21,30.67-11.87,17.42-6.85,33.26,12.76,41.19,11.09,4.49,22.63,5.06,34.29,4.52A177.83,177.83,0,0,1,762,480C781.44,486.65,801.37,491.27,822.05,491.63ZM705.59,605.38c19.82-1,39-7,54.73-21.73,11.64-10.91,11.34-25-.32-35.74a35.11,35.11,0,0,0-13.73-7.8c-35.91-11-56.55,2-73.88,34.75-5.59,10.59-1,20.56,9.85,25.85C689.19,604.11,696.68,605.07,705.59,605.38ZM1053,585.58c23.68.11,54.6-21.06,63.13-43.22,5.19-13.49-.3-26.25-13.76-31.49-8.92-3.47-18.12-3.53-26.38,1.3-19.91,11.65-34.13,28.34-40.61,50.7C1031.37,576.85,1038.55,585.51,1053,585.58ZM1003.6,330.5c.14,2.46-.64,5.58,2.27,6.67s6-.52,8.37-2.36a64.48,64.48,0,0,0,20.62-26.62c1.33-3.25,2.8-6.44,2.76-10.14,0-5.24-2.21-6.92-7.16-5C1019.21,297.47,1003.88,318.81,1003.6,330.5Z" transform="translate(-0.56 -0.57)"/><path class="b" d="M1.52,21.25c10,8,19.11,17.25,32.75,19.31,14.33,2.17,28.62,3,43,.92C96,38.79,100.82,41.35,109,58.3c5.29,11,8.17,22.79,11.89,34.33,6.42,20,13.46,39.73,20,59.66,9.4,28.61,9.48,57.57,2.8,86.75A98.22,98.22,0,0,0,141,266.86c1.09,18.4,15.36,35.24,33,38.76,10.32,2.06,19.54-1.5,28.2-6.4,21.93-12.4,40.7-29,59.45-45.58,8.91-7.87,17.68-15.88,27.87-22.11a52.88,52.88,0,0,1,5.27-3c16.8-7.7,25.95-1.86,25.54,16.62-.44,19.61-8.27,37.35-14.72,55.4-7.95,22.24-19,43-31.11,63.16a179,179,0,0,0-26,94.52q.11,23.52.75,47c.66,25.19-10.18,44.76-28.94,60.69-18,15.33-39.16,25.93-58.9,38.65a220.72,220.72,0,0,0-18.54,13.13c-10.81,8.66-9.77,15,3.48,19.54,10.75,3.63,21.8,6.42,32.81,9.22,42.91,10.9,82.61,28.39,117.15,56.58,21.64,17.66,38.45,39.32,52,63.6a12,12,0,0,1,.77,2.86q-170.74,0-341.5.14c-5.2,0-6.22-1-6.22-6.22Q1.63,392.35,1.52,21.25Z" transform="translate(-0.56 -0.57)"/><path class="b" d="M1367.52,356.68c-10.17-2.26-19.39-7.09-29-10.72-23.55-8.88-47.48-16.61-73-14.66-42.72,3.27-82,16.48-116.44,42.77-6.42,4.9-12.7,10.09-20,13.62-8.37,4-12.92,2.05-15.3-6.86-2.17-8.1-2.23-16.47-2.06-24.82.56-26.51,1.84-53-.49-79.53-1.14-13-6.11-24.21-17.09-31.56-12.17-8.14-19.43-19.3-24.3-32.8-12.38-34.29-34.77-62.56-56.07-91.41-27.34-37-52.56-75.47-77.06-114.4-.9-1.44-2.33-2.77-1.71-4.79h82c.78,3.18,1.45,6.38,2.35,9.52,4.13,14.37,14.54,21.41,29.53,22.31,17,1,36-16.78,41-31.83H1246.1a51,51,0,0,0,4.72,3.74c26.2,16.08,40.56,38.33,41.54,70.15,1.05,34.15,16.71,62.58,41.51,85.79,9.75,9.12,20.37,17.27,33.65,20.94Z" transform="translate(-0.56 -0.57)"/><path class="b" d="M1156.55,769.52c.32-21.19.06-42.39,2.79-63.5,2.07-16,4.26-32.09,9.12-47.53,9.17-29.14,18.85-58.14,30.18-86.53,10-25.12,27.57-44.53,48.79-60.72,35.82-27.35,74.17-50.78,113.76-72.22,1.92-1,3.81-2.67,6.33-1.9q0,163.17.14,326.32c0,5.2-1,6.24-6.21,6.22C1293.15,769.44,1224.85,769.52,1156.55,769.52Z" transform="translate(-0.56 -0.57)"/><path class="a" d="M1367.52,182.14c-13.28-3.67-23.9-11.82-33.65-20.94-24.8-23.21-40.46-51.64-41.51-85.79-1-31.82-15.34-54.07-41.54-70.15a51,51,0,0,1-4.72-3.74H1363c.77,7.24,1.37,14.52,4.56,21.25Z" transform="translate(-0.56 -0.57)"/><path class="a" d="M1089.76,1.52c-5,15.05-23.93,32.86-41,31.83-15-.9-25.4-7.94-29.53-22.31-.9-3.14-1.57-6.34-2.35-9.52Z" transform="translate(-0.56 -0.57)"/><path class="b" d="M170,1.52c-18.83,12.62-39.54,20.67-61.7,25.08-4.26.85-8.13-1.19-11-3.91C89.92,15.86,83,8.6,75.89,1.52Z" transform="translate(-0.56 -0.57)"/><path class="b" d="M1367.52,22.77c-3.19-6.73-3.79-14-4.56-21.25,2.52.07,5.3-1,4.72,3.81C1367,11.07,1367.52,17,1367.52,22.77Z" transform="translate(-0.56 -0.57)"/><path class="b" d="M822.05,491.63c-20.68-.36-40.61-5-60-11.61a177.83,177.83,0,0,0-66.36-9.37c-11.66.54-23.2,0-34.29-4.52-19.61-7.93-24.63-23.77-12.76-41.19,10-14.66,23.12-25.61,40.21-30.67,20.77-6.17,41.1-14,62.9-16.56,32.14-3.83,57.32,8.25,77.34,32.5,10.78,13,21.18,26.43,31.23,40,13.71,18.57,8.36,32.65-14.24,38.6A84.91,84.91,0,0,1,822.05,491.63Z" transform="translate(-0.56 -0.57)"/><path class="b" d="M705.59,605.38c-8.91-.31-16.4-1.27-23.35-4.67-10.82-5.29-15.44-15.26-9.85-25.85,17.33-32.79,38-45.7,73.88-34.75a35.11,35.11,0,0,1,13.73,7.8c11.66,10.74,12,24.83.32,35.74C744.62,598.37,725.41,604.33,705.59,605.38Z" transform="translate(-0.56 -0.57)"/><path class="b" d="M1053,585.58c-14.49-.07-21.67-8.73-17.62-22.71,6.48-22.36,20.7-39,40.61-50.7,8.26-4.83,17.46-4.77,26.38-1.3,13.46,5.24,18.95,18,13.76,31.49C1107.64,564.52,1076.72,585.69,1053,585.58Z" transform="translate(-0.56 -0.57)"/><path class="b" d="M1003.61,330.5c.27-11.69,15.6-33,26.85-37.44,5-1.93,7.11-.25,7.16,5,0,3.7-1.43,6.89-2.76,10.14a64.48,64.48,0,0,1-20.62,26.62c-2.37,1.84-5.33,3.5-8.37,2.36S1003.74,333,1003.61,330.5Z" transform="translate(-0.56 -0.57)"/></svg>
