<svg xmlns="http://www.w3.org/2000/svg" viewBox="0 0 1366.29 768.28"><defs><style>.a{fill:#ffffff;}.b{fill:#41c7f6;}</style></defs><title>1800f_00032</title><path class="a" d="M1367.52,381v74.38c-37,18.85-73.38,38.65-108,61.58-26.65,17.64-49.36,39.05-60.38,70-14.84,41.69-29,83.65-32.7,128.19-1.49,18.09-3.64,36.23-.78,54.42H344.54c.1-3.14-2.36-4.94-3.92-7.11-17.5-24.43-39.56-43.75-65.56-58.78-33.08-19.11-68.83-31.57-105-43.06a105.41,105.41,0,0,1-16.19-6.35c-6.7-3.43-7.13-7.62-2-13.29,3.76-4.14,8.26-7.42,12.78-10.68C185.77,615,208.76,602.5,229,585.94c13.83-11.33,26.13-23.9,32.21-41.33,4.23-12.09,5.48-24.67,5.64-37.31.28-22.23-.06-44.47.09-66.71a151.53,151.53,0,0,1,15.49-65.86c4.51-9.33,9.28-18.63,12.66-28.38,12.37-35.81,24.11-71.84,40.06-106.31a38.85,38.85,0,0,0,3.67-16.93c-.14-9.57-4.32-12.86-13.54-10-6.85,2.14-12.75,6.18-18.28,10.59-19.55,15.61-38.78,31.62-58.87,46.56-16.22,12.06-31.77,25.17-50,34.19-21.39,10.59-38.85,2.79-46.51-20-3.13-9.31-3.33-18.86-3.12-28.48.25-11.11,1.23-22.23.87-33.32-1.19-37.17-11.16-72.79-20.07-108.58-4.94-19.85-10-39.68-14.75-59.59-3-12.6-.32-17.7,11.59-22.56,7.24-2.95,14.83-5.06,22.15-7.83,16.06-6.08,32-12.52,46-22.64H916.74c7.16,14,16,27,25.25,39.55,22,29.8,49,55.12,74.08,82.13,16.51,17.76,33.92,34.78,47.57,55,13.46,19.89,26.8,39.79,43.24,57.47,7.89,8.49,12,19.15,13.51,30.77,2,15.05,2.29,30.2,3.06,45.33.85,16.89,1.89,33.81,7.11,50.1,4.37,13.63,9.14,17.06,23.27,16.39a306.61,306.61,0,0,1,36.38.14c32.43,2.3,64.58-.47,96.7-4.55,16.81-2.14,33.63-3.88,50.5-.1C1347.49,376,1357.15,379.94,1367.52,381ZM842.83,507.46a53.1,53.1,0,0,0,23.67-5.09c19-9.13,22.86-27.36,7.6-41.74-21.16-19.95-43.29-38.92-68.22-54.15-18.56-11.34-38.57-15-59.66-8.14a335.72,335.72,0,0,1-50,12.22c-21.35,3.5-39.54,13.84-55.23,28.33-9.52,8.78-8.71,18.85,1,27.43a45.66,45.66,0,0,0,12.34,7.34c18.21,7.88,37.35,8.12,56.65,6.71a129.53,129.53,0,0,1,17.4.06c19,1.15,36.15,9.21,53.91,14.88C800.61,501.16,818.9,507,842.83,507.46ZM711,610.11c20.81-.08,47.44-6.84,59-14.73,8.6-5.89,11.14-13,7.85-23-3.72-11.23-12-17.82-22.84-21.45-32-10.69-59.56,4.51-76.92,30.19-7,10.43-3.15,20.08,8.62,25A58.05,58.05,0,0,0,711,610.11Zm342.12-305.28c0-11-7.47-15.41-17.4-9.28-19.13,11.81-31.08,29.22-35.88,51.15-1.87,8.52,4.13,13.17,12.89,10.93C1030.14,353.18,1053.1,323.16,1053.08,304.83Z" transform="translate(-1.37 -1.39)"/><path class="b" d="M194.28,1.52c-14.08,10.12-30,16.56-46,22.64C140.92,26.93,133.33,29,126.09,32c-11.91,4.86-14.57,10-11.59,22.56,4.73,19.91,9.81,39.74,14.75,59.59,8.91,35.79,18.88,71.41,20.07,108.58.36,11.09-.62,22.21-.87,33.32-.21,9.62,0,19.17,3.12,28.48,7.66,22.75,25.12,30.55,46.51,20,18.23-9,33.78-22.13,50-34.19,20.09-14.94,39.32-31,58.87-46.56,5.53-4.41,11.43-8.45,18.28-10.59,9.22-2.89,13.4.4,13.54,10A38.85,38.85,0,0,1,335.1,240c-16,34.47-27.69,70.5-40.06,106.31-3.38,9.75-8.15,19-12.66,28.38a151.53,151.53,0,0,0-15.49,65.86c-.15,22.24.19,44.48-.09,66.71-.16,12.64-1.41,25.22-5.64,37.31-6.08,17.43-18.38,30-32.21,41.33-20.19,16.56-43.18,29.09-64.3,44.31-4.52,3.26-9,6.54-12.78,10.68-5.14,5.67-4.71,9.86,2,13.29a105.41,105.41,0,0,0,16.19,6.35c36.18,11.49,71.93,23.95,105,43.06,26,15,48.06,34.35,65.56,58.78,1.56,2.17,4,4,3.92,7.11q-168.48,0-337,.14c-5.2,0-6.22-1-6.22-6.22q.25-375.65.15-751.3c2.51.34,3.61,2.6,5.31,4C20.93,27.71,36.7,30,53.77,24.54c7.49-2.41,8.95-6.8,4.49-13.24-2.42-3.47-5.43-6.53-8.17-9.78Z" transform="translate(-1.37 -1.39)"/><path class="b" d="M1367.52,381c-10.37-1-20-5-30.11-7.25-16.87-3.78-33.69-2-50.5.1-32.12,4.08-64.27,6.85-96.7,4.55a306.61,306.61,0,0,0-36.38-.14c-14.13.67-18.9-2.76-23.27-16.39-5.22-16.29-6.26-33.21-7.11-50.1-.77-15.13-1.09-30.28-3.06-45.33-1.52-11.62-5.62-22.28-13.51-30.77-16.44-17.68-29.78-37.58-43.24-57.47-13.65-20.18-31.06-37.2-47.57-55C991,96.19,964,70.87,942,41.07c-9.3-12.6-18.09-25.57-25.25-39.55h95.62c1.17,3.33,2.23,6.71,3.52,10,5.44,13.76,19.58,23.43,33.51,23,12.82-.41,23.77-9.61,28.75-24.26,1-2.86,1.68-5.81,2.52-8.72h162.4c10.62,8.06,21.38,16,31.84,24.23,16.59,13.14,26.11,29.8,24.87,51.64-.32,5.54-.08,11.1-.08,16.66,0,26.67,8.31,50.65,24.23,71.82,10.83,14.41,24.95,24,43.6,25.37Z" transform="translate(-1.37 -1.39)"/><path class="b" d="M1165.65,769.52c-2.86-18.19-.71-36.33.78-54.42,3.68-44.54,17.86-86.5,32.7-128.19,11-30.94,33.73-52.35,60.38-70,34.63-22.93,71-42.73,108-61.58q0,154.05.14,308.1c0,5.2-1,6.24-6.21,6.22C1296.18,769.44,1230.92,769.52,1165.65,769.52Z" transform="translate(-1.37 -1.39)"/><path class="a" d="M1367.52,191.24c-18.65-1.37-32.77-11-43.6-25.37-15.92-21.17-24.25-45.15-24.23-71.82,0-5.56-.24-11.12.08-16.66,1.24-21.84-8.28-38.5-24.87-51.64-10.46-8.28-21.22-16.17-31.84-24.23,39.72,0,79.43.09,119.14-.13,4.54,0,5.46.91,5.45,5.44C1367.46,68.3,1367.52,129.77,1367.52,191.24Z" transform="translate(-1.37 -1.39)"/><path class="a" d="M1080.66,1.52c-.84,2.91-1.55,5.86-2.52,8.72-5,14.65-15.93,23.85-28.75,24.26-13.93.44-28.07-9.23-33.51-23-1.29-3.28-2.35-6.66-3.52-10Z" transform="translate(-1.37 -1.39)"/><path class="a" d="M50.09,1.52c2.74,3.25,5.75,6.31,8.17,9.78,4.46,6.44,3,10.83-4.49,13.24C36.7,30,20.93,27.71,6.83,16.14c-1.7-1.4-2.8-3.66-5.31-4V1.52Z" transform="translate(-1.37 -1.39)"/><path class="b" d="M842.83,507.46c-23.93-.43-42.22-6.3-60.54-12.15-17.76-5.67-34.86-13.73-53.91-14.88a129.53,129.53,0,0,0-17.4-.06c-19.3,1.41-38.44,1.17-56.65-6.71A45.66,45.66,0,0,1,642,466.32c-9.73-8.58-10.54-18.65-1-27.43,15.69-14.49,33.88-24.83,55.23-28.33a335.72,335.72,0,0,0,50-12.22c21.09-6.86,41.1-3.2,59.66,8.14,24.93,15.23,47.06,34.2,68.22,54.15,15.26,14.38,11.44,32.61-7.6,41.74A53.1,53.1,0,0,1,842.83,507.46Z" transform="translate(-1.37 -1.39)"/><path class="b" d="M711,610.11a58.05,58.05,0,0,1-24.32-4c-11.77-4.91-15.67-14.56-8.62-25,17.36-25.68,45-40.88,76.92-30.19,10.84,3.63,19.12,10.22,22.84,21.45,3.29,9.93.75,17.08-7.85,23C758.4,603.27,731.77,610,711,610.11Z" transform="translate(-1.37 -1.39)"/><path class="b" d="M1053.08,304.83c0,18.33-22.94,48.35-40.39,52.8-8.76,2.24-14.76-2.41-12.89-10.93,4.8-21.93,16.75-39.34,35.88-51.15C1045.61,289.42,1053.07,293.87,1053.08,304.83Z" transform="translate(-1.37 -1.39)"/></svg>