<svg xmlns="http://www.w3.org/2000/svg" viewBox="0 0 1943.01 1093.14"><defs><style>.a{fill:#ffffff;}.b{fill:#41c7f6;}</style></defs><title>1800f_00315</title><path class="a" d="M1655.9,0V513c-26.27-7-48.75,2.16-69.7,16.83A248.08,248.08,0,0,0,1560.63,550c-22.11,20.28-47,30.47-77.82,28.71-49.43-2.84-94.48-17.35-136.53-43.14-34.82-21.35-60.86-49.22-75.08-88.21-8.82-24.18-19.66-47.75-35.37-68.53-9.92-13.12-21.42-24.33-38.54-27.5-13.57-2.52-26,1.77-38.31,6.55-14.61,5.67-28.74,12.55-43.72,17.25-31.78,10-53.75,3.75-75.12-21.65-6.83-8.11-12.65-17.06-19.35-25.28C1005,308.75,983.06,300,959.5,294.48c-30-7-59-16.3-83-37C865.41,248,854.17,238.54,843,229c-9.44-8-18.77-16.23-29.9-21.9-10.15-5.18-17.51-2.69-22.46,7.49a67.74,67.74,0,0,0-5.93,18.75c-8.18,50.1-11.07,100.46-5.84,151.05,2.09,20.22,6.51,40,18.52,57.11,13.51,19.28,33.17,29.91,54.33,38.37,20.75,8.29,42.47,13.25,64.18,18,25.89,5.68,45.68,19.57,60,41.63,4.55,7,9.21,13.92,13.82,20.87,6.58,9.91,13.48,19.58,21.68,28.25,20.07,21.22,46.11,31.51,73.24,39.48a879,879,0,0,1,119.28,44.42c61.09,28,123.73,50.13,192.13,50.39a50.57,50.57,0,0,1,14.85,2.74c5.81,1.85,6.66,5.59,2.86,10.44-3.48,4.43-8,7.67-12.76,10.64-18,11.27-37.94,17.74-57.91,24.21-32.2,10.44-65.31,18.07-96.53,31.51C1210.26,818.16,1176.66,839,1142,857.7c-36.22,19.54-73.58,36.07-114.47,43-16.82,2.86-33.91,3.8-49.7-4.37-15-7.74-29.68-7-44.59-.73A124.91,124.91,0,0,0,895.9,920c-4,3.69-9.21,6.27-11,12H370.34c-17.77-8.71-36.76-13.86-55.68-19.2-67.93-19.2-133-9.63-196.27,19.2H-57.68a70.2,70.2,0,0,0,1.37-7.4c3.56-43.89.22-87.36-8.21-130.5C-75,740.22-86.28,686.57-96.15,632.63c-10-54.91-26.27-108-54.42-156.88a424.39,424.39,0,0,1-25.69-52.41c-28-68.89-66.47-131.61-110.6-191.12V107.76c5.57-6,8.26-13.76,12.2-20.73,21-37.26,39.84-75.53,50.55-117.25Q-217-58.09-210.1-86c6.49-26.26,15.09-51.68,29.48-74.83h91.07c1.77,2.4,4.62,3,7.1,4.15,28.16,13.16,56.5,26,83.63,41.2C19.94-105,39.09-94.61,51.67-76.38,68-52.7,90.78-46,117.89-49.32c14.28-1.75,28.58-3.44,42.86-5.28,52.07-6.71,104.23-13,155.82-22.94,42.67-8.23,85.41-15.8,128.71-20,39.54-3.84,78.8-10,116.55-22.66C598-132.36,633.92-145.1,671-154.35a32.08,32.08,0,0,0,13.54-6.53h856c9.61,11.62,13.75,25.57,16.77,39.93,5.39,25.58,19.76,44.54,42.45,57,17.87,9.78,33.32,21.89,43.41,39.92C1647.6-16.14,1651.66-8,1655.9,0ZM708.58,511.65c.13-26.33-19.08-46.79-44.05-46.9-23.71-.11-43.21,20.65-43.29,46.08a45.15,45.15,0,0,0,45.37,45.79C690.65,556.7,708.46,537.62,708.58,511.65Z" transform="translate(286.97 161.08)"/><path class="b" d="M884.86,931.92c1.83-5.69,7.08-8.27,11-12a124.91,124.91,0,0,1,37.3-24.32c14.91-6.22,29.63-7,44.59.73,15.79,8.17,32.88,7.23,49.7,4.37,40.89-7,78.25-23.5,114.47-43,34.7-18.72,68.3-39.54,104.62-55.19,31.22-13.44,64.33-21.07,96.53-31.51,20-6.47,39.94-12.94,57.91-24.21,4.74-3,9.28-6.21,12.76-10.64,3.8-4.85,3-8.59-2.86-10.44a50.57,50.57,0,0,0-14.85-2.74c-68.4-.26-131-22.36-192.13-50.39a879,879,0,0,0-119.28-44.42c-27.13-8-53.17-18.26-73.24-39.48-8.2-8.67-15.1-18.34-21.68-28.25-4.61-6.95-9.27-13.87-13.82-20.87-14.34-22.06-34.13-35.95-60-41.63-21.71-4.77-43.43-9.73-64.18-18-21.16-8.46-40.82-19.09-54.33-38.37-12-17.13-16.43-36.89-18.52-57.11-5.23-50.59-2.34-100.95,5.84-151a67.74,67.74,0,0,1,5.93-18.75c5-10.18,12.31-12.67,22.46-7.49C824.23,212.81,833.56,221,843,229c11.17,9.5,22.41,18.93,33.52,28.49,24,20.65,52.94,29.93,83,37,23.56,5.5,45.45,14.27,61.29,33.74,6.7,8.22,12.52,17.17,19.35,25.28,21.37,25.4,43.34,31.61,75.12,21.65,15-4.7,29.11-11.58,43.72-17.25,12.29-4.78,24.74-9.07,38.31-6.55,17.12,3.17,28.62,14.38,38.54,27.5,15.71,20.78,26.55,44.35,35.37,68.53,14.22,39,40.26,66.86,75.08,88.21,42,25.79,87.1,40.3,136.53,43.14,30.81,1.76,55.71-8.43,77.82-28.71a248.08,248.08,0,0,1,25.57-20.18c21-14.67,43.43-23.81,69.7-16.83q0,206.41.14,412.84c0,5.19-1,6.21-6.22,6.21Q1267.35,931.82,884.86,931.92Z" transform="translate(286.97 161.08)"/><path class="b" d="M-286.86,232.22c44.13,59.51,82.64,122.23,110.6,191.12a424.39,424.39,0,0,0,25.69,52.41c28.15,48.86,44.37,102,54.42,156.88C-86.28,686.57-75,740.22-64.52,794c8.43,43.14,11.77,86.61,8.21,130.5a70.2,70.2,0,0,1-1.37,7.4h-188.2c-5.88-8.49-11.42-17.23-17.74-25.38-6.72-8.67-13.29-17.68-23.24-23.19Z" transform="translate(286.97 161.08)"/><path class="b" d="M684.52-160.88A32.08,32.08,0,0,1,671-154.35c-37.06,9.25-73,22-109.15,34.14-37.75,12.69-77,18.82-116.55,22.66-43.3,4.21-86,11.78-128.71,20C265-67.58,212.82-61.31,160.75-54.6c-14.28,1.84-28.58,3.53-42.86,5.28C90.78-46,68-52.7,51.67-76.38,39.09-94.61,19.94-105,1.18-115.53c-27.13-15.23-55.47-28-83.63-41.2-2.48-1.16-5.33-1.75-7.1-4.15Z" transform="translate(286.97 161.08)"/><path class="b" d="M-180.62-160.88c-14.39,23.15-23,48.57-29.48,74.83q-6.9,27.94-14,55.83c-10.71,41.72-29.51,80-50.55,117.25-3.94,7-6.63,14.71-12.2,20.73q0-131-.11-262c0-5,.45-6.87,6.39-6.8C-247.27-160.67-213.94-160.88-180.62-160.88Z" transform="translate(286.97 161.08)"/><path class="b" d="M1655.9,0c-4.24-8-8.3-16.14-12.73-24.06-10.09-18-25.54-30.14-43.41-39.92-22.69-12.43-37.06-31.39-42.45-57-3-14.36-7.16-28.31-16.77-39.93,36.68,0,73.36.1,110-.13,4.53,0,5.46.91,5.44,5.44C1655.82-103.71,1655.9-51.86,1655.9,0Z" transform="translate(286.97 161.08)"/><path class="b" d="M118.39,931.92c63.23-28.83,128.34-38.4,196.27-19.2,18.92,5.34,37.91,10.49,55.68,19.2Z" transform="translate(286.97 161.08)"/><path class="a" d="M-286.86,883.35c9.95,5.51,16.52,14.52,23.24,23.19,6.32,8.15,11.86,16.89,17.74,25.38-12.4,0-24.79-.15-37.18.1-3.27.06-3.95-.63-3.9-3.9C-286.73,913.2-286.86,898.27-286.86,883.35Z" transform="translate(286.97 161.08)"/><path class="b" d="M708.58,511.65c-.12,26-17.93,45.05-42,45a45.15,45.15,0,0,1-45.37-45.79c.08-25.43,19.58-46.19,43.29-46.08C689.5,464.86,708.71,485.32,708.58,511.65Z" transform="translate(286.97 161.08)"/></svg>