<svg xmlns="http://www.w3.org/2000/svg" viewBox="0 0 1943.04 1093.11"><defs><style>.a{fill:#ffffff;}.b{fill:#41c7f6;}</style></defs><title>1800f_00322</title><path class="a" d="M599.52-160.88h88c-.63,4.44-3.85,7.55-5.91,11.24-9.11,16.32-19.06,32.26-23.44,50.73C655-85.56,661-77.65,674.79-75.79a73,73,0,0,0,24.05-1.15c28.23-5.53,53.13-18.79,75-36.54,33.27-27,70.15-38.68,113-37.24,47.72,1.61,95.53,1.39,143.27,3.34,44.23,1.8,88.31,5.61,131.56,15.22,56.71,12.6,113.32,25.6,170.34,36.75,33.67,6.58,63.41,21.65,89.34,44.26,21.1,18.39,35.38,39.61,30.21,69.37-2.22,12.8-1.77,25.72-1.08,38.57,1.13,21.42,14.71,33.91,36,33.39,14.15-.34,26.45-6.16,37.64-14.35,15.71-11.5,27.35-26.68,38.12-42.68,12.32-18.3,25.43-19.87,42.8-7.39,13.36,9.6,24.24,22,35.27,34.23,4.94,5.48,8.85,12.15,15.61,15.9V584.35c-8.31,10.91-13.79,23.48-20.58,35.27-14.78,25.7-30.25,50.82-51.85,71.62-22.48,21.66-48.71,28.89-78.85,21.09-32.84-8.49-61.39-25.84-89.08-44.61-24.71-16.75-46.13-36.75-61.6-62.85-25.8-43.56-37.25-91.43-44.11-140.85-2.67-19.26-5.15-38.58-11.92-57-7-19.15-20.59-26.76-40.46-22.42-12.49,2.73-23.83,8.31-34.86,14.57-22.26,12.64-42.4,28.46-63.77,42.43-15.66,10.23-31.3,20.57-48.37,28.39-18.52,8.48-31.07,6.18-45.42-8.08-6.1-6.06-11.87-12.47-18.18-18.3-21.57-20-46.73-27.47-75.56-20.42-29,7.11-50.37,26.09-69.88,47.31-5.15,5.61-5.34,13.44-3.73,20.95,2.24,10.47,8.12,19,14.77,27,14.49,17.45,32,31.59,50.21,44.86,22.94,16.73,43.15,35.87,56.78,61.19,7.78,14.47,15.43,29,23.4,43.39,26.48,47.71,59.9,89.38,105,121,26.69,18.69,55.39,31.35,88.64,31.18,50.84-.25,100.55,9.52,150.49,17.13,7,1.07,15.89,1.68,18.21,10,2.39,8.62-5.06,13.8-10.57,18.74-18.45,16.52-39.64,28.79-62.36,38.44-34,14.46-70.2,18.39-106.55,21.54-15.53,1.34-31.22,1.76-46.4,6H19.73c-.84-3.69-1.65-7.39-2.53-11.07-9.13-38.15-23-74.87-34-112.44C-34.33,749.09-56,691.46-87.61,638c-30.07-50.82-53-104.48-64.86-162.64-5.49-27-11.53-53.87-21.86-79.56-14.71-36.62-36.24-67.55-71.29-87.68a105.39,105.39,0,0,1-23.46-17.88c-9.35-9.65-10.77-18.13-5.08-30.35,4.41-9.48,10.66-17.76,16.93-26C-225.7,192.42-191.57,153-160.4,111.3c23.26-31.15,41.5-64.55,48.47-103.37a129.12,129.12,0,0,1,8.34-27.52C-94.5-40.94-80.41-47.1-59.25-38S-20.78-15.13-12.53,7.1C-3.88,30.4,13,40.91,36.92,42.8c22.41,1.77,44.75,4.39,67.11,6.7,37.07,3.81,74.17,4.61,111.19,0,59.87-7.41,118.06-22,175.42-40.57C448.68-9.88,498-41.16,537-88.31c19.49-23.56,38.68-47.39,60.8-68.63C598.86-158,599.89-159.14,599.52-160.88Z" transform="translate(287 161.05)"/><path class="b" d="M599.52-160.88c.37,1.74-.66,2.89-1.76,3.94-22.12,21.24-41.31,45.07-60.8,68.63C498-41.16,448.68-9.88,390.64,9,333.28,27.56,275.09,42.11,215.22,49.52c-37,4.59-74.12,3.79-111.19,0-22.36-2.31-44.7-4.93-67.11-6.7C13,40.91-3.88,30.4-12.53,7.1c-8.25-22.23-25.59-36-46.72-45.07s-35.25-3-44.34,18.38a129.12,129.12,0,0,0-8.34,27.52c-7,38.82-25.21,72.22-48.47,103.37-31.17,41.74-65.3,81.12-96.83,122.57-6.27,8.24-12.52,16.52-16.93,26-5.69,12.22-4.27,20.7,5.08,30.35a105.39,105.39,0,0,0,23.46,17.88c35.05,20.13,56.58,51.06,71.29,87.68,10.33,25.69,16.37,52.57,21.86,79.56C-140.66,533.5-117.68,587.16-87.61,638-56,691.46-34.33,749.09-16.85,808.41-5.79,846,8.07,882.7,17.2,920.85c.88,3.68,1.69,7.38,2.53,11.07q-150.25,0-300.52.14c-5.2,0-6.22-1-6.21-6.21q.22-540.33,0-1080.66c0-5.2,1-6.22,6.21-6.22Q159.37-160.78,599.52-160.88Z" transform="translate(287 161.05)"/><path class="b" d="M1179.31,931.92c15.18-4.24,30.87-4.66,46.4-6,36.35-3.15,72.52-7.08,106.55-21.54,22.72-9.65,43.91-21.92,62.36-38.44,5.51-4.94,13-10.12,10.57-18.74-2.32-8.34-11.19-9-18.21-10-49.94-7.61-99.65-17.38-150.49-17.13-33.25.17-62-12.49-88.64-31.18-45.11-31.59-78.53-73.26-105-121-8-14.37-15.62-28.92-23.4-43.39-13.63-25.32-33.84-44.46-56.78-61.19-18.2-13.27-35.72-27.41-50.21-44.86-6.65-8-12.53-16.54-14.77-27-1.61-7.51-1.42-15.34,3.73-20.95,19.51-21.22,40.83-40.2,69.88-47.31,28.83-7.05,54,.45,75.56,20.42,6.31,5.83,12.08,12.24,18.18,18.3,14.35,14.26,26.9,16.56,45.42,8.08,17.07-7.82,32.71-18.16,48.37-28.39,21.37-14,41.51-29.79,63.77-42.43,11-6.26,22.37-11.84,34.86-14.57,19.87-4.34,33.43,3.27,40.46,22.42,6.77,18.42,9.25,37.74,11.92,57,6.86,49.42,18.31,97.29,44.11,140.85,15.47,26.1,36.89,46.1,61.6,62.85,27.69,18.77,56.24,36.12,89.08,44.61,30.14,7.8,56.37.57,78.85-21.09,21.6-20.8,37.07-45.92,51.85-71.62,6.79-11.79,12.27-24.36,20.58-35.27q0,170.74.14,341.5c0,5.19-1,6.22-6.22,6.21Q1414.58,931.79,1179.31,931.92Z" transform="translate(287 161.05)"/><path class="b" d="M1655.9,75.89c-6.76-3.75-10.67-10.42-15.61-15.9-11-12.21-21.91-24.63-35.27-34.23-17.37-12.48-30.48-10.91-42.8,7.39-10.77,16-22.41,31.18-38.12,42.68-11.19,8.19-23.49,14-37.64,14.35-21.31.52-34.89-12-36-33.39-.69-12.85-1.14-25.77,1.08-38.57,5.17-29.76-9.11-51-30.21-69.37-25.93-22.61-55.67-37.68-89.34-44.26-57-11.15-113.63-24.15-170.34-36.75-43.25-9.61-87.33-13.42-131.56-15.22-47.74-2-95.55-1.73-143.27-3.34-42.83-1.44-79.71,10.2-113,37.24-21.85,17.75-46.75,31-75,36.54a73,73,0,0,1-24.05,1.15C661-77.65,655-85.56,658.2-98.91c4.38-18.47,14.33-34.41,23.44-50.73,2.06-3.69,5.28-6.8,5.91-11.24q480.84,0,961.67-.17c6,0,6.82,1.73,6.8,7.14Q1655.75-39,1655.9,75.89Z" transform="translate(287 161.05)"/></svg>