<svg xmlns="http://www.w3.org/2000/svg" viewBox="0 0 1943.86 1093.9"><defs><style>.a{fill:#ffffff;}.b{fill:#41c7f6;}</style></defs><title>1800f_00353</title><path class="a" d="M-286.86,148.74q0-151.77-.15-303.55c0-5.2,1-6.23,6.22-6.22q170.75.28,341.5.15c-2,4.69-.72,9.48-.05,14.12A406.25,406.25,0,0,0,77.83-76.19C85.89-52,94.32-27.92,100.25-3,106.44,23,103.67,47.1,87,68.71c-20.65,26.73-45,49.83-70.89,71.35C2.51,151.35-13,160.28-25.53,172.83c-13.83,13.83-14.62,29.21-3.09,44.89C-18.54,231.44-5.43,241.7,9,250.1c20.5,11.89,41.77,21.5,66.63,17.83,36.72-5.41,69.16-19.67,96.58-45.05,26-24.07,44.88-53.79,66.24-81.61,33.12-43.14,58.77-90,76.33-141.39,12-35.17,21-71.22,31.34-106.88,5.19-17.91,11.19-35.6,15.07-53.88h830.23a63.74,63.74,0,0,1-.38,6.78c-3.82,23.56-4.63,47.31-3.65,71.07,1,25.29,1.74,50.54-.67,75.77-3,31.82-8.6,63.12-19.79,93.18-9.87,26.54-25,47.87-54.9,54.59a171.11,171.11,0,0,0-47.15,18.57c-26,14.84-53.94,22.32-83.61,24.72-11.29.91-22.71,2.77-32.78,8.57-29.86,17.22-31.7,60.21-3.09,82.13,29.43,22.55,64,27.15,99.81,26.82,23.75-.22,46.53-6.26,69.32-11.93,20.4-5.08,39.13-2,56.3,10,8.69,6.09,17.65,11.95,25.62,18.9,38.63,33.71,82.82,57.45,130.58,75.49,50.12,18.94,99.84,38.93,149.6,58.78,31.91,12.72,59.07,31.2,73.15,64.3,3.85,9.07,7.54,18.23,10.76,27.53,5.23,15.09,9.14,30.58,9.8,46.59,1.07,25.44-9.49,46.56-25.31,65.63-22.44,27.07-48,51.35-69.93,78.9-45.7,57.51-71,121.92-66.64,196.39H714.87c0-2.62,2.36-2.23,3.79-2.9,11.43-5.28,14.28-9.94,13.58-22.53a41.88,41.88,0,0,0-3-12.46c-6.78-18-18.45-33-29.56-48.36-19.13-26.37-35.64-53.85-43.38-86.07a226.71,226.71,0,0,0-14-40.83c-5.15-11.33-13.39-15.59-25.73-13.95-5.26.7-10.49,1.58-15.71,2.53C553.48,716,512.16,736.59,478,770.59,461.7,786.87,453.42,807,457,830.49c2.39,15.7,14.1,25.48,25.77,34.32,15.9,12.05,32.63,23,49,34.45,14.22,10,28.51,19.89,40.48,32.66H309.63a24.84,24.84,0,0,0,.77-4.38c.05-21-16.77-39.51-31.79-47.39-6.56-3.44-13.26-2.52-18.19,2.62C247.3,896.44,240,913,238.29,931.92q-259.54,0-519.08.14c-5.2,0-6.24-1-6.22-6.21.25-52.62.15-105.24.15-157.85,8.38-3.55,16.73-7.15,25.14-10.62,35.29-14.58,70.75-28.83,103.06-49.54,37.21-23.84,67.19-55.74,96.74-88,14.5-15.84,28-32.59,38.57-51.4,8.79-15.66,13.86-31.84,11.05-50.57-3.35-22.36-9.95-43.77-16.16-65.3C-35.8,427.1-42.5,401.23-55.7,378c-44.44-78.36-100.8-146.4-174.64-199C-247.85,166.51-265.79,154.64-286.86,148.74ZM479.46,497.82c7.82.46,15.86-.49,23.89-1.5A88.53,88.53,0,0,0,516,494c66-18.31,108.2-61.87,130.68-125.17,10.28-28.94,6.91-57.47-10.77-83.3-23-33.65-59.41-38.71-91.13-13.2-10.48,8.44-19.54,18.33-29.19,27.61-13.26,12.75-28.07,23-45.3,29.84-31.42,12.42-64.38,19.09-97.09,26.86-36.42,8.65-70.71,4.14-103.28-14.23-12.11-6.83-24.33-13.47-36.58-20.05-19.65-10.56-39.43-9.3-58.92.25-18.33,9-32.44,23.37-45.18,38.75C99.09,397.8,71.64,436.26,47.88,477.2c-10.76,18.54-21.3,37.43-23.82,59.28-1.35,11.77-2.77,23.92,8.71,32.52,4.78,3.57,10.28,5.32,15.81,7C64.67,581,81.31,582.31,98,582.78c29.56.84,58.62-1.47,85.48-15.71,16.1-8.54,29.23-20.74,41.87-33.52,14.45-14.62,29.8-28.07,47.28-39,22.34-14,46.27-22.73,73-21.81,21.63.75,42.59,5.6,63.07,12.28C431.6,492.51,454.79,498.29,479.46,497.82ZM1189,409.42c-22.15-.09-41.47,5.09-60.34,11.67C1052,447.78,975,473.15,896.93,495.42c-60.4,17.23-115.77,45-168.11,79.12-13.79,9-26,20.05-30.9,36.93-1.21,4.15-3.76,8.09-.35,12.06,3.77,4.38,9,3.39,13.43,1.93,8.63-2.85,17.3-5.45,26.16-7.44,19.2-4.31,38-4.09,56.38,4,12.93,5.72,26.26,10.62,39,16.74,33.06,15.9,65.36,16.49,97.78-2.07,22.24-12.74,45.78-22.59,71.17-27.44,18.37-3.51,36.72-7.09,55-10.9,50.21-10.47,97.9-27.26,139.93-57.49,19.28-13.87,36-30.35,46.39-52.19,12.94-27.26,6.94-54.11-15.24-68.78A63.09,63.09,0,0,0,1189,409.42Z" transform="translate(287.01 161.03)"/><path class="b" d="M1408.5,931.92c-4.33-74.47,20.94-138.88,66.64-196.39,21.9-27.55,47.49-51.83,69.93-78.9,15.82-19.07,26.38-40.19,25.31-65.63-.66-16-4.57-31.5-9.8-46.59-3.22-9.3-6.91-18.46-10.76-27.53-14.08-33.1-41.24-51.58-73.15-64.3-49.76-19.85-99.48-39.84-149.6-58.78-47.76-18-92-41.78-130.58-75.49-8-6.95-16.93-12.81-25.62-18.9-17.17-12-35.9-15.1-56.3-10-22.79,5.67-45.57,11.71-69.32,11.93-35.76.33-70.38-4.27-99.81-26.82-28.61-21.92-26.77-64.91,3.09-82.13,10.07-5.8,21.49-7.66,32.78-8.57,29.67-2.4,57.61-9.88,83.61-24.72a171.11,171.11,0,0,1,47.15-18.57c29.88-6.72,45-28,54.9-54.59,11.19-30.06,16.75-61.36,19.79-93.18,2.41-25.23,1.71-50.48.67-75.77-1-23.76-.17-47.51,3.65-71.07a63.74,63.74,0,0,0,.38-6.78h220.07c-.72,11.57-3.85,22.8-4.61,34.4-2.54,39,4,77.06,10.92,115.06,7,38.74,14.13,77.53,28.77,114.37,9.6,24.14,21.48,47.1,41.55,64.28,39.26,33.59,111.74,39.48,159.62,13.76,2.55-1.37,4.7-4,8.12-3.41V912.19l-38,19.73Z" transform="translate(287.01 161.03)"/><path class="b" d="M-286.86,148.74c21.07,5.9,39,17.77,56.52,30.24,73.84,52.57,130.2,120.61,174.64,199,13.2,23.28,19.9,49.15,27.24,74.61,6.21,21.53,12.81,42.94,16.16,65.3,2.81,18.73-2.26,34.91-11,50.57-10.57,18.81-24.07,35.56-38.57,51.4-29.55,32.27-59.53,64.17-96.74,88-32.31,20.71-67.77,35-103.06,49.54-8.41,3.47-16.76,7.07-25.14,10.62Z" transform="translate(287.01 161.03)"/><path class="b" d="M361.23-160.88c-3.88,18.28-9.88,36-15.07,53.88C335.82-71.34,326.84-35.29,314.82-.12c-17.56,51.4-43.21,98.25-76.33,141.39-21.36,27.82-40.24,57.54-66.24,81.61-27.42,25.38-59.86,39.64-96.58,45.05C50.81,271.6,29.54,262,9,250.1c-14.47-8.4-27.58-18.66-37.66-32.38-11.53-15.68-10.74-31.06,3.09-44.89,12.55-12.55,28-21.48,41.61-32.77C42,118.54,66.32,95.44,87,68.71,103.67,47.1,106.44,23,100.25-3,94.32-27.92,85.89-52,77.83-76.19a406.25,406.25,0,0,1-17.17-70.57c-.67-4.64-2-9.43.05-14.12Z" transform="translate(287.01 161.03)"/><path class="a" d="M1655.9,177.58c-3.42-.59-5.57,2-8.12,3.41-47.88,25.72-120.36,19.83-159.62-13.76-20.07-17.18-32-40.14-41.55-64.28-14.64-36.84-21.76-75.63-28.77-114.37-6.88-38-13.46-76.09-10.92-115.06.76-11.6,3.89-22.83,4.61-34.4h130.53a20.15,20.15,0,0,0,1.89,4c36.52,47.47,65.55,99.33,90.23,153.76,7,15.34,14.46,30.44,21.72,45.65Z" transform="translate(287.01 161.03)"/><path class="b" d="M572.2,931.92c-12-12.77-26.26-22.68-40.48-32.66-16.33-11.46-33.06-22.4-49-34.45C471.09,856,459.38,846.19,457,830.49c-3.57-23.47,4.71-43.62,21.05-59.9,34.12-34,75.44-54.64,122.79-63.24,5.22-1,10.45-1.83,15.71-2.53,12.34-1.64,20.58,2.62,25.73,13.95a226.71,226.71,0,0,1,14,40.83c7.74,32.22,24.25,59.7,43.38,86.07C710.8,861,722.47,876,729.25,894a41.88,41.88,0,0,1,3,12.46c.7,12.59-2.15,17.25-13.58,22.53-1.43.67-3.8.28-3.79,2.9Z" transform="translate(287.01 161.03)"/><path class="b" d="M1655.9,42.5c-7.26-15.21-14.77-30.31-21.72-45.65-24.68-54.43-53.71-106.29-90.23-153.76a20.15,20.15,0,0,1-1.89-4c36.18,0,72.35.1,108.52-.13,4.53,0,5.46.91,5.44,5.44Q1655.75-56.54,1655.9,42.5Z" transform="translate(287.01 161.03)"/><path class="b" d="M238.29,931.92c1.72-18.93,9-35.48,22.13-49.15,4.93-5.14,11.63-6.06,18.19-2.62,15,7.88,31.84,26.34,31.79,47.39a24.84,24.84,0,0,1-.77,4.38Z" transform="translate(287.01 161.03)"/><path class="a" d="M1618,931.92l38-19.73c0,6.57,2.56,15.72-.73,19s-12.43.72-19,.72Z" transform="translate(287.01 161.03)"/><path class="b" d="M479.46,497.82c-24.67.47-47.86-5.31-70.82-12.81-20.48-6.68-41.44-11.53-63.07-12.28-26.7-.92-50.63,7.83-73,21.81-17.48,10.94-32.83,24.39-47.28,39-12.64,12.78-25.77,25-41.87,33.52-26.86,14.24-55.92,16.55-85.48,15.71-16.66-.47-33.3-1.83-49.39-6.76-5.53-1.7-11-3.45-15.81-7-11.48-8.6-10.06-20.75-8.71-32.52,2.52-21.85,13.06-40.74,23.82-59.28,23.76-40.94,51.21-79.4,81.38-115.82C142,346,156.11,331.62,174.44,322.63c19.49-9.55,39.27-10.81,58.92-.25,12.25,6.58,24.47,13.22,36.58,20.05,32.57,18.37,66.86,22.88,103.28,14.23,32.71-7.77,65.67-14.44,97.09-26.86,17.23-6.8,32-17.09,45.3-29.84,9.65-9.28,18.71-19.17,29.19-27.61,31.72-25.51,68.11-20.45,91.13,13.2,17.68,25.83,21.05,54.36,10.77,83.3C624.22,432.15,582,475.71,516,494a88.53,88.53,0,0,1-12.67,2.3C495.32,497.33,487.28,498.28,479.46,497.82Z" transform="translate(287.01 161.03)"/><path class="b" d="M1189,409.42a63.09,63.09,0,0,1,38.57,10.49c22.18,14.67,28.18,41.52,15.24,68.78-10.36,21.84-27.11,38.32-46.39,52.19-42,30.23-89.72,47-139.93,57.49-18.3,3.81-36.65,7.39-55,10.9-25.39,4.85-48.93,14.7-71.17,27.44-32.42,18.56-64.72,18-97.78,2.07-12.73-6.12-26.06-11-39-16.74-18.36-8.11-37.18-8.33-56.38-4-8.86,2-17.53,4.59-26.16,7.44-4.39,1.46-9.66,2.45-13.43-1.93-3.41-4-.86-7.91.35-12.06,4.94-16.88,17.11-27.94,30.9-36.93,52.34-34.12,107.71-61.89,168.11-79.12,78.05-22.27,155.1-47.64,231.74-74.33C1147.54,414.51,1166.86,409.33,1189,409.42Z" transform="translate(287.01 161.03)"/></svg>