<svg xmlns="http://www.w3.org/2000/svg" viewBox="0 0 1943.05 1093.12"><defs><style>.a{fill:#ffffff;}.b{fill:#41c7f6;}</style></defs><title>1800f_00337</title><path class="a" d="M-286.86,617.74V476.58c1.75-.18,3.52-.25,5.25-.58,59.35-11.25,119-20.31,179.26-25.17,40-3.23,74.06-18.26,102.6-46.58C22.16,382.49,42.08,358.9,63.78,337,81.59,319,100,301.74,122,288.76,155.61,269,192.31,268.87,229.51,271c28.29,1.58,56.67,2.87,84.78-1.67,41-6.63,81-17.58,120.6-29.69,30.92-9.45,58.31-25.22,76.66-52.68,16-24,33-47.24,48.8-71.36,14.87-22.76,25.79-47,26.07-74.87.31-30.59,3.62-61,4.93-91.54.44-10.21.12-20.81-4.37-30.51-4.16-9-10.26-11.56-19.74-8.76-5.67,1.67-10.62,4.7-15.39,8-23.4,16.39-44.52,35.8-68.38,51.59-31.68,21-64.14,40.57-99.05,55.66C341.81,43.58,296.74,40,252,38.62c-18.93-.56-37.85-1.61-56.53-5.29C169.13,28.14,150.37,14.74,144.83-13a115.07,115.07,0,0,1-2.13-18c-1.29-33.2,7-64.57,18.28-95.42,4.22-11.6,10.38-22.42,13.56-34.41H919.77c0,2.77.17,5.55,0,8.3-1.27,16.4-2,32.79-.5,49.22,3,34.18,2.54,68.05-6.37,101.58-5.33,20.06-8.16,40.62-7,61.55,1.12,20,12.8,29.28,32.38,25.55a79.43,79.43,0,0,0,19.42-6.27c13.91-6.65,27.53-13.92,41.66-20,16.07-7,32.48-6.92,48.42,1,7.47,3.7,14.82,7.66,22,11.8,14.18,8.08,29,14.32,45.23,16.81,39.73,6.1,79.12,13.74,117.93,24.42,81.77,22.48,164.37,40.22,249.51,43.8,20.18.86,40.26,4.08,59.2,11.9,13,5.35,25.37,11.67,33.81,23.46,6.78,9.45,5,18.14-4.81,24.54-7.93,5.19-17,7.82-25.82,10.78q-45.35,15.21-62.58,59.63c-4.66,12-9.23,24.09-13.22,36.34-11,33.81-25.35,66-44.19,96.24-19.26,30.88-38.82,61.59-56.14,93.66-24.09,44.6-41.93,91.94-61.4,138.59-23.45,56.21-43.49,113.27-48.42,174.56-2.94,36.57-.37,72.29,17.55,105.42H-22.77c-7.38-7.56-15.67-14.17-22.56-22.27-17.15-20.15-27.12-44.28-38.11-67.86C-100,806.2-117.78,771.21-143.2,740.94c-34.66-41.28-75.55-75.86-118.84-107.67C-269.89,627.5-277.42,621-286.86,617.74Z" transform="translate(287.01 161.04)"/><path class="b" d="M174.54-160.88c-3.18,12-9.34,22.81-13.56,34.41C149.73-95.62,141.41-64.25,142.7-31a115.07,115.07,0,0,0,2.13,18c5.54,27.76,24.3,41.16,50.68,46.35,18.68,3.68,37.6,4.73,56.53,5.29,44.7,1.34,89.77,5,132.38-13.46,34.91-15.09,67.37-34.71,99.05-55.66,23.86-15.79,45-35.2,68.38-51.59,4.77-3.34,9.72-6.37,15.39-8,9.48-2.8,15.58-.21,19.74,8.76,4.49,9.7,4.81,20.3,4.37,30.51-1.31,30.52-4.62,61-4.93,91.54-.28,27.85-11.2,52.11-26.07,74.87-15.77,24.12-32.78,47.39-48.8,71.36-18.35,27.46-45.74,43.23-76.66,52.68-39.63,12.11-79.63,23.06-120.6,29.69-28.11,4.54-56.49,3.25-84.78,1.67-37.2-2.08-73.9-2-107.48,17.81-22,13-40.44,30.2-58.25,48.21C42.08,358.9,22.16,382.49.25,404.25c-28.54,28.32-62.62,43.35-102.6,46.58-60.23,4.86-119.91,13.92-179.26,25.17-1.73.33-3.5.4-5.25.58q0-315.48-.13-631c0-5.3.88-6.67,6.52-6.66Q-53-160.74,174.54-160.88Z" transform="translate(287.01 161.04)"/><path class="b" d="M1276.45,931.92c-17.92-33.13-20.49-68.85-17.55-105.42,4.93-61.29,25-118.35,48.42-174.56,19.47-46.65,37.31-94,61.4-138.59,17.32-32.07,36.88-62.78,56.14-93.66,18.84-30.23,33.2-62.43,44.19-96.24,4-12.25,8.56-24.32,13.22-36.34q17.24-44.46,62.58-59.63c8.83-3,17.89-5.59,25.82-10.78,9.76-6.4,11.59-15.09,4.81-24.54-8.44-11.79-20.84-18.11-33.81-23.46-18.94-7.82-39-11-59.2-11.9-85.14-3.58-167.74-21.32-249.51-43.8-38.81-10.68-78.2-18.32-117.93-24.42-16.23-2.49-31-8.73-45.23-16.81-7.23-4.14-14.58-8.1-22-11.8-15.94-7.89-32.35-7.94-48.42-1-14.13,6.13-27.75,13.4-41.66,20a79.43,79.43,0,0,1-19.42,6.27c-19.58,3.73-31.26-5.55-32.38-25.55-1.17-20.93,1.66-41.49,7-61.55,8.91-33.53,9.42-67.4,6.37-101.58-1.47-16.43-.77-32.82.5-49.22.21-2.75,0-5.53,0-8.3q364.65,0,729.3-.14c5.69,0,7,1.28,7,7q-.27,227.28-.14,454.57c-3.51-2.26-5.11-6.14-7.71-9.17-5.94-6.92-12-13.74-19.71-18.74-11.83-7.67-20.88-7.75-32.27.43-19.09,13.71-28.71,33.49-34.29,55.56-5.52,21.8-1.82,43.32,3.77,64.38,9.76,36.75,5.75,71.57-12.14,105-4.18,7.8-7.81,15.89-12,23.67-33.21,61.15-63.85,123.49-87.47,189.06-10,27.91-18.52,56.26-16.82,86.47,1.71,30.38,15.89,52.38,44.85,63.26,37.87,14.23,77.34,23.48,115.57,36.68a141,141,0,0,0,58.25,7.5c0,8.09-.15,16.19.08,24.28.07,2.64-.48,3.56-3.13,3.08a20.72,20.72,0,0,0-3.78,0Z" transform="translate(287.01 161.04)"/><path class="a" d="M1655.9,904.6a141,141,0,0,1-58.25-7.5c-38.23-13.2-77.7-22.45-115.57-36.68-29-10.88-43.14-32.88-44.85-63.26-1.7-30.21,6.77-58.56,16.82-86.47,23.62-65.57,54.26-127.91,87.47-189.06,4.22-7.78,7.85-15.87,12-23.67,17.89-33.41,21.9-68.23,12.14-105-5.59-21.06-9.29-42.58-3.77-64.38,5.58-22.07,15.2-41.85,34.29-55.56,11.39-8.18,20.44-8.1,32.27-.43,7.73,5,13.77,11.82,19.71,18.74,2.6,3,4.2,6.91,7.71,9.17Z" transform="translate(287.01 161.04)"/><path class="b" d="M-286.86,617.74c9.44,3.3,17,9.76,24.82,15.53,43.29,31.81,84.18,66.39,118.84,107.67,25.42,30.27,43.18,65.26,59.76,100.85,11,23.58,21,47.71,38.11,67.86,6.89,8.1,15.18,14.71,22.56,22.27q-129,0-258,.15c-5.2,0-6.23-1-6.22-6.22Q-286.71,771.79-286.86,617.74Z" transform="translate(287.01 161.04)"/></svg>