<svg xmlns="http://www.w3.org/2000/svg" viewBox="0 0 1943.12 1093.1"><defs><style>.a{fill:#ffffff;}.b{fill:#41c7f6;}</style></defs><title>1800f_00360</title><path class="a" d="M1655.9,658.72v80.44c-18.74,16.66-41.6,25.65-64.52,34.41-27.63,10.57-55.5,20.53-81.55,34.8-16.49,9-32.32,19-43.84,34.33-19.87,26.4-25.22,57.31-27.14,89.22H734.6c-1-7.95,2.26-14.9,5.44-21.74,9.89-21.31,25.78-37.85,42.84-53.46,21-19.19,43-36.86,69-48.85,32.15-14.79,58-10.09,82.75,14.91,8.44,8.52,15.06,18.36,21.35,28.42,7.22,11.54,16.1,21.54,27.27,29.15,31.56,21.5,54.66,22.61,83.25,2.63,26.88-18.79,56-33.18,85.93-46.39,25-11,50.53-20.71,74.78-33.36,8.9-4.64,16.63-10.66,22.12-19.11,12.29-18.9,12.84-39.4,7.4-60.46-4.93-19.12-14.53-36.6-20-55.56-5-17.52-4.75-34.55,5.66-50.2,8.82-13.25,9.68-25.55.69-38.51-18.65-26.89-44.73-39.91-77.37-40.42-24.5-.39-48.25,4.32-71.89,9.92-43.54,10.33-87,20.59-132.22,20.92a329.19,329.19,0,0,0-53.58,4.65c-32.2,5.56-62,18.13-91.54,31.37-41.21,18.46-77.42,43.53-106.72,78.25-16.67,19.75-31.76,40.66-46.17,62-27.3,40.53-63.81,70.82-105.49,95.25-29.77,17.44-65.34,18.19-94.61-8.9-4.45-4.12-9-8.15-13.37-12.35-19.85-19-41.29-35.67-67.23-45.86-20.9-8.2-40.8-19.11-63.21-23.17-25.68-4.66-42.93,7-48.05,32.63a110.54,110.54,0,0,0,.91,48.17c8,32.94,16,65.81,15.77,100q-284.23,0-568.48.15c-5.83,0-7.07-1.48-6.9-7,.42-14.39.14-28.8.14-43.2,10.6-5.88,21.34-11.52,31.78-17.67,55.17-32.49,112-60.27,176.51-69.57,41.77-6,72-30,92.65-66.52C27.19,704.91,37.86,680.64,47.61,656A126.17,126.17,0,0,0,56.42,620c2.25-26.78-8.35-49.44-22.64-70.77C5,506.24-29.59,468-66,431.38c-42.32-42.58-81.82-87.48-115.24-137.54-13.92-20.85-29.47-40.56-48.06-57.46-16.27-14.79-32.65-30.25-57.57-26.92q0-182.14-.15-364.27c0-5.2,1-6.22,6.22-6.22q235.26.27,470.51.15c-5.24,9.82-10.59,19.63-13.38,30.49-9.5,36.92-22.56,73-26.94,111.13-3.08,26.79-10.84,53.14-8.09,80.49,2.79,27.66,6.48,55.2,13,82.27,4,16.53,9.29,32.57,18.42,47.11,13.28,21.14,33.43,26.1,54.8,13.31a118.48,118.48,0,0,0,21.56-16.64c18.26-17.67,32.67-38.54,48.8-58,36.87-44.47,64-93.81,77.67-150.25,4.65-19.14,9.66-38.22,15.92-56.94,6.78-20.31,19.94-31,41.9-31.85,37.13-1.4,73.64,3.59,110.13,9,25.28,3.77,49.69,11.67,74.75,16.47,12.8,2.46,26.15,3.61,35.91-7.91C672.27-113.5,694-131,714.45-149.74c3.57-3.28,8.44-5.66,9.53-11.14h596.49a18.92,18.92,0,0,1-.17,3c-10.89,51.35-15.79,103.41-17.54,155.74a826.51,826.51,0,0,1-34,208.92c-7.2,24.22-13.59,48.79-26,71-11.47,20.55-22.37,24.67-44.54,17.09-19.62-6.72-39.27-13.3-59.61-17.48a471.51,471.51,0,0,1-156.84-62.76c-25-15.66-43.83-35.56-49.43-65.75-2.53-13.67-4.64-27.39-6.5-41.16-2-14.48-2.75-29.24-8.39-43-6.74-16.45-18.61-19.08-32-7.19-9.21,8.17-15.91,18.23-21.9,28.86-15.06,26.71-22.33,56.19-31.18,85.21-12.47,40.93-16.11,82.06-8.31,124.26,7.38,39.87,21.39,76.76,45.73,109.54,15.49,20.85,34.39,30,60.53,22A149.21,149.21,0,0,1,983.44,421c21.44,1.35,42.84,3.31,64.3,4.19,33.59,1.38,67.2,2.23,100.81,3,30.54.73,58.88,8.37,84.48,25.45,25.23,16.85,50.33,33.9,75.93,50.17,39.87,25.33,81.6,46.68,128.11,57.36,32.28,7.41,65.07,12.12,97.49,18.74,32.87,6.71,63.77,17.6,89.29,40.64C1636.34,631.85,1646,645.31,1655.9,658.72ZM742.21,467.32c.2-5.76-.8-12.77-2.33-19.68-7.8-35-25.57-65.12-46.59-93.58a50.16,50.16,0,0,0-10.66-10.67c-10.15-7.49-20.09-6.31-27.89,3.6-4.7,6-8.24,12.69-11.56,19.53-6,12.27-10.84,25.06-18,36.75-14.44,23.66-33.47,43.62-51.93,64-13,14.42-26.5,28.51-37.23,44.83-8.14,12.4-12.92,25.64-9.39,40.84,3.88,16.72,6.93,33.66,11.43,50.2,4.14,15.19,14.63,24.33,30.47,27,14.31,2.44,27.88-.74,40.52-6.68,49.57-23.29,88.09-59.34,118.09-104.74A89.36,89.36,0,0,0,742.21,467.32ZM250.3,622.18c12.18,0,24.9-3.47,38.56-12.11A561.66,561.66,0,0,1,372,566.33a198.3,198.3,0,0,0,42.5-24.79c19.05-14.35,20-36.61.84-50.27-30.16-21.56-64.37-31.7-101.1-25.54-53.87,9-86.71,45.52-110.83,91.44-5,9.44-7.69,19.82-4.49,30.77C204.49,607.1,227,622.09,250.3,622.18Z" transform="translate(287.02 161.03)"/><path class="b" d="M1655.9,658.72c-9.86-13.41-19.56-26.87-32.05-38.15-25.52-23-56.42-33.93-89.29-40.64-32.42-6.62-65.21-11.33-97.49-18.74-46.51-10.68-88.24-32-128.11-57.36-25.6-16.27-50.7-33.32-75.93-50.17-25.6-17.08-53.94-24.72-84.48-25.45-33.61-.8-67.22-1.65-100.81-3-21.46-.88-42.86-2.84-64.3-4.19a149.21,149.21,0,0,0-53.18,6.48c-26.14,8-45-1.16-60.53-22-24.34-32.78-38.35-69.67-45.73-109.54-7.8-42.2-4.16-83.33,8.31-124.26,8.85-29,16.12-58.5,31.18-85.21,6-10.63,12.69-20.69,21.9-28.86,13.41-11.89,25.28-9.26,32,7.19,5.64,13.76,6.42,28.52,8.39,43,1.86,13.77,4,27.49,6.5,41.16,5.6,30.19,24.43,50.09,49.43,65.75a471.51,471.51,0,0,0,156.84,62.76c20.34,4.18,40,10.76,59.61,17.48,22.17,7.58,33.07,3.46,44.54-17.09,12.43-22.25,18.82-46.82,26-71a826.51,826.51,0,0,0,34-208.92c1.75-52.33,6.65-104.39,17.54-155.74a18.92,18.92,0,0,0,.17-3q164,0,328-.15c5.77,0,7.66.62,7.58,7.17-.42,37.12-.2,74.24-.2,111.36-6.12-5.28-12.11-10.71-18.36-15.83-21.17-17.36-44.1-31.36-71.5-36.49-20.76-3.89-36.54,5.34-43,25.5-5.94,18.62-5.74,37.86-4.45,57.1a297.62,297.62,0,0,1-.07,44.69c-2.78,33.49-6.78,66.94-5,100.64,1.47,28.15,5.33,55.92,16.65,82,16.22,37.37,41.75,64.9,82.68,75,14.2,3.52,28.68,5.93,43,8.84Z" transform="translate(287.02 161.03)"/><path class="b" d="M288.38,931.92c.23-34.21-7.74-67.08-15.77-100a110.54,110.54,0,0,1-.91-48.17c5.12-25.59,22.37-37.29,48.05-32.63,22.41,4.06,42.31,15,63.21,23.17,25.94,10.19,47.38,26.82,67.23,45.86,4.38,4.2,8.92,8.23,13.37,12.35,29.27,27.09,64.84,26.34,94.61,8.9,41.68-24.43,78.19-54.72,105.49-95.25,14.41-21.39,29.5-42.3,46.17-62,29.3-34.72,65.51-59.79,106.72-78.25,29.58-13.24,59.34-25.81,91.54-31.37a329.19,329.19,0,0,1,53.58-4.65c45.18-.33,88.68-10.59,132.22-20.92,23.64-5.6,47.39-10.31,71.89-9.92,32.64.51,58.72,13.53,77.37,40.42,9,13,8.13,25.26-.69,38.51-10.41,15.65-10.66,32.68-5.66,50.2,5.42,19,15,36.44,20,55.56,5.44,21.06,4.89,41.56-7.4,60.46-5.49,8.45-13.22,14.47-22.12,19.11-24.25,12.65-49.82,22.33-74.78,33.36-29.89,13.21-59,27.6-85.93,46.39-28.59,20-51.69,18.87-83.25-2.63-11.17-7.61-20-17.61-27.27-29.15-6.29-10.06-12.91-19.9-21.35-28.42-24.75-25-50.6-29.7-82.75-14.91-26.06,12-48.06,29.66-69,48.85-17.06,15.61-33,32.15-42.84,53.46-3.18,6.84-6.45,13.79-5.44,21.74Z" transform="translate(287.02 161.03)"/><path class="b" d="M-286.86,209.46c24.92-3.33,41.3,12.13,57.57,26.92,18.59,16.9,34.14,36.61,48.06,57.46,33.42,50.06,72.92,95,115.24,137.54C-29.59,468,5,506.24,33.78,549.26c14.29,21.33,24.89,44,22.64,70.77A126.17,126.17,0,0,1,47.61,656c-9.75,24.68-20.42,48.95-33.53,72.11-20.67,36.54-50.88,60.49-92.65,66.52-64.51,9.3-121.34,37.08-176.51,69.57-10.44,6.15-21.18,11.79-31.78,17.67Z" transform="translate(287.02 161.03)"/><path class="b" d="M724-160.88c-1.09,5.48-6,7.86-9.53,11.14C694-131,672.27-113.5,654.2-92.16c-9.76,11.52-23.11,10.37-35.91,7.91-25.06-4.8-49.47-12.7-74.75-16.47-36.49-5.44-73-10.43-110.13-9-22,.83-35.12,11.54-41.9,31.85C385.25-59.18,380.24-40.1,375.59-21c-13.71,56.44-40.8,105.78-77.67,150.25-16.13,19.45-30.54,40.32-48.8,58a118.48,118.48,0,0,1-21.56,16.64c-21.37,12.79-41.52,7.83-54.8-13.31-9.13-14.54-14.42-30.58-18.42-47.11-6.55-27.07-10.24-54.61-13-82.27-2.75-27.35,5-53.7,8.09-80.49,4.38-38.15,17.44-74.21,26.94-111.13,2.79-10.86,8.14-20.67,13.38-30.49Z" transform="translate(287.02 161.03)"/><path class="a" d="M1655.9,299c-14.36-2.91-28.84-5.32-43-8.84-40.93-10.13-66.46-37.66-82.68-75-11.32-26.1-15.18-53.87-16.65-82-1.76-33.7,2.24-67.15,5-100.64a297.62,297.62,0,0,0,.07-44.69c-1.29-19.24-1.49-38.48,4.45-57.1,6.43-20.16,22.21-29.39,43-25.5,27.4,5.13,50.33,19.13,71.5,36.49,6.25,5.12,12.24,10.55,18.36,15.83Z" transform="translate(287.02 161.03)"/><path class="b" d="M1438.85,931.92c1.92-31.91,7.27-62.82,27.14-89.22,11.52-15.3,27.35-25.29,43.84-34.33,26.05-14.27,53.92-24.23,81.55-34.8,22.92-8.76,45.78-17.75,64.52-34.41,0,62.48-.07,125,.12,187.45,0,4.52-.91,5.45-5.44,5.43Q1544.73,931.77,1438.85,931.92Z" transform="translate(287.02 161.03)"/><path class="b" d="M742.21,467.32a89.36,89.36,0,0,1-15.05,51.45c-30,45.4-68.52,81.45-118.09,104.74-12.64,5.94-26.21,9.12-40.52,6.68-15.84-2.69-26.33-11.83-30.47-27-4.5-16.54-7.55-33.48-11.43-50.2-3.53-15.2,1.25-28.44,9.39-40.84,10.73-16.32,24.19-30.41,37.23-44.83,18.46-20.41,37.49-40.37,51.93-64,7.14-11.69,12-24.48,18-36.75C646.5,359.68,650,353,654.74,347c7.8-9.91,17.74-11.09,27.89-3.6a50.16,50.16,0,0,1,10.66,10.67c21,28.46,38.79,58.55,46.59,93.58C741.41,454.55,742.41,461.56,742.21,467.32Z" transform="translate(287.02 161.03)"/><path class="b" d="M250.3,622.18c-23.3-.09-45.81-15.08-51.42-34.24-3.2-11-.47-21.33,4.49-30.77,24.12-45.92,57-82.39,110.83-91.44,36.73-6.16,70.94,4,101.1,25.54,19.11,13.66,18.21,35.92-.84,50.27A198.3,198.3,0,0,1,372,566.33a561.66,561.66,0,0,0-83.1,43.74C275.2,618.71,262.48,622.22,250.3,622.18Z" transform="translate(287.02 161.03)"/></svg>