<svg xmlns="http://www.w3.org/2000/svg" viewBox="0 0 1943.07 1093.11"><defs><style>.a{fill:#ffffff;}.b{fill:#41c7f6;}</style></defs><title>1800f_00334</title><path class="a" d="M-286.86,587.38V418.91l7.31-2c46.4-12.81,93.08-24,141.76-21.85,13.89.6,27.77,1.31,41.68,1.1a47.9,47.9,0,0,0,30.16-10.6c16.32-13.12,26.55-30.93,37.36-48.3C-9.41,306.43.22,273.71-5.47,236.87c-3.07-19.93-3.77-40.29-.58-60.48,3.93-25,15.52-44.8,38.89-56.16,15.5-7.54,29.51-3.45,38.84,11,9.17,14.21,11.74,30,9.43,46.54C79.47,189.52,77,201.16,75,212.86c-3.18,18.43,2.61,27.13,21.1,30.74,10.69,2.09,21.54,2.3,32.47,1.7,33.83-1.87,67.31-7.42,101.09-9.79a753.85,753.85,0,0,0,140.42-23c38.93-10.31,76-25,106.8-52,24.34-21.34,47.93-43.55,69.65-67.61,14.82-16.42,28.88-33.77,35.24-55.24C592,3.24,600.24-31.71,601.47-67.85c.36-10.66-.38-21.21-4.31-31.35-5.82-15-17.32-21.32-33-18-11.56,2.46-22,7.56-31.83,13.87q-32.83,21.14-65.21,43C420.56-28.73,368.8-13.84,313.13-10.73c-31.83,1.78-63.71,1.14-95.55,2.12-23.26.71-46.52,1.46-69.77.81-29.09-.82-41.28-13.54-41.41-42.44,0-2.79-.08-5.58.15-8.35,2.1-25.53,6.54-50.56,15.25-74.79,3.31-9.21,8.35-17.77,10.25-27.5H895.49c0,24.83-4.55,48.37-20.84,68.15-9,11-20.38,19.61-30.85,29.13-18,16.36-35.79,33-47.19,54.91-9.1,17.53-4.31,30.11,13.73,37.81,19.48,8.3,39.82,8.6,60.39,6.61,21.6-2.08,41.82-9.57,62.14-16.49,28-9.55,56.54-11.81,85-3.2,42.39,12.82,85.78,21.42,128.73,31.9,53.75,13.11,107.38,26.68,162.18,35,41.23,6.24,82.92,8.41,124.15,14.44,26.14,3.82,51.6,10.13,74.49,24.14,2.37,1.45,4.69,3,6.91,4.66,24.81,18.48,29.69,40.19,12.47,65.68-20,29.59-36.3,60.61-45.71,95.21-11.94,43.9-32.57,83.73-58,121.22q-26.64,39.23-53.07,78.58c-26.13,39-45.52,81.65-66.14,123.62-12.31,25-26,49.31-44.6,70.25-26.19,29.56-37.45,64.27-37.6,103-.22,59.94,25.25,108.2,68.45,148.19H63.75a11.72,11.72,0,0,0-1-2.78C44.83,903.24,24.43,879.32.08,859.42c-42.2-34.5-86.2-66.69-127.19-102.79-47.92-42.2-93.33-86.53-132.53-137.07C-268.23,608.48-276,596.58-286.86,587.38Z" transform="translate(287.01 161.04)"/><path class="b" d="M1290.11,931.92c-43.2-40-68.67-88.25-68.45-148.19.15-38.75,11.41-73.46,37.6-103,18.55-20.94,32.29-45.2,44.6-70.25,20.62-42,40-84.61,66.14-123.62q26.38-39.39,53.07-78.58c25.45-37.49,46.08-77.32,58-121.22,9.41-34.6,25.7-65.62,45.71-95.21,17.22-25.49,12.34-47.2-12.47-65.68-2.22-1.66-4.54-3.21-6.91-4.66-22.89-14-48.35-20.32-74.49-24.14-41.23-6-82.92-8.2-124.15-14.44-54.8-8.29-108.43-21.86-162.18-35-42.95-10.48-86.34-19.08-128.73-31.9-28.46-8.61-57-6.35-85,3.2-20.32,6.92-40.54,14.41-62.14,16.49-20.57,2-40.91,1.69-60.39-6.61-18-7.7-22.83-20.28-13.73-37.81,11.4-22,29.21-38.55,47.19-54.91,10.47-9.52,21.81-18.16,30.85-29.13,16.29-19.78,20.79-43.32,20.84-68.15q376.93,0,753.86-.13c5.2,0,6.72.73,6.72,6.47q-.33,217.66-.17,435.33c-5.09-3.7-10-7.7-15.3-11-18.3-11.49-36.74-9.9-53,4.36-12.75,11.15-20.86,25.23-25.6,41.34-6.29,21.35-2.58,42.68.78,63.87,4.63,29.19,2.22,57.33-9.54,84.67-11.94,27.76-27.87,53.32-43.41,79-33.87,56.07-58.78,115.15-64.12,181.28-3.84,47.61,8.3,82.54,53,106.64,48.84,26.36,99.75,47.06,157.27,41.77,0,18-.2,35.93.13,53.88.08,4.54-.92,5.45-5.45,5.44q-151.77-.24-303.55-.12Z" transform="translate(287.01 161.04)"/><path class="b" d="M132.05-160.88c-1.9,9.73-6.94,18.29-10.25,27.5-8.71,24.23-13.15,49.26-15.25,74.79-.23,2.77-.17,5.56-.15,8.35.13,28.9,12.32,41.62,41.41,42.44,23.25.65,46.51-.1,69.77-.81,31.84-1,63.72-.34,95.55-2.12,55.67-3.11,107.43-18,154-49.56q32.32-21.92,65.21-43c9.79-6.31,20.27-11.41,31.83-13.87,15.72-3.35,27.22,3,33,18,3.93,10.14,4.67,20.69,4.31,31.35C600.24-31.71,592,3.24,581.79,37.64c-6.36,21.47-20.42,38.82-35.24,55.24-21.72,24.06-45.31,46.27-69.65,67.61-30.77,27-67.87,41.7-106.8,52a753.85,753.85,0,0,1-140.42,23c-33.78,2.37-67.26,7.92-101.09,9.79-10.93.6-21.78.39-32.47-1.7C77.63,240,71.84,231.29,75,212.86c2-11.7,4.45-23.34,6.09-35.09,2.31-16.52-.26-32.33-9.43-46.54-9.33-14.45-23.34-18.54-38.84-11C9.47,131.59-2.12,151.43-6,176.39c-3.19,20.19-2.49,40.55.58,60.48,5.69,36.84-3.94,69.56-23.12,100.37-10.81,17.37-21,35.18-37.36,48.3a47.9,47.9,0,0,1-30.16,10.6c-13.91.21-27.79-.5-41.68-1.1-48.68-2.11-95.36,9-141.76,21.85l-7.31,2q0-286.65-.13-573.29c0-5.3.88-6.67,6.51-6.66Q-74.21-160.74,132.05-160.88Z" transform="translate(287.01 161.04)"/><path class="a" d="M1655.9,872.72c-57.52,5.29-108.43-15.41-157.27-41.77-44.65-24.1-56.79-59-53-106.64C1451,658.18,1475.93,599.1,1509.8,543c15.54-25.72,31.47-51.28,43.41-79,11.76-27.34,14.17-55.48,9.54-84.67-3.36-21.19-7.07-42.52-.78-63.87,4.74-16.11,12.85-30.19,25.6-41.34,16.29-14.26,34.73-15.85,53-4.36,5.32,3.34,10.21,7.34,15.3,11Z" transform="translate(287.01 161.04)"/><path class="b" d="M-286.86,587.38c10.87,9.2,18.63,21.1,27.22,32.18,39.2,50.54,84.61,94.87,132.53,137.07,41,36.1,85,68.29,127.19,102.79,24.35,19.9,44.75,43.82,62.69,69.72a11.72,11.72,0,0,1,1,2.78q-172.27,0-344.54.14c-5.2,0-6.22-1-6.22-6.21Q-286.71,756.62-286.86,587.38Z" transform="translate(287.01 161.04)"/></svg>