<svg xmlns="http://www.w3.org/2000/svg" viewBox="0 0 1943.05 1093.1"><defs><style>.a{fill:#ffffff;}.b{fill:#41c7f6;}</style></defs><title>1800f_00289</title><path class="a" d="M1655.9,752.82c0,57.42-.1,114.85.14,172.27,0,5.69-1.28,7-7,7q-829.84-.22-1659.69-.14c-1.71-2.58-1.12-5.4-.6-8.07,2.59-13.26,9.33-24.33,18.07-34.44C16.73,878,30.11,870.85,41.19,861c31.49-28,50.52-64,63.63-103.35,2.37-7.12,4.15-14.65,3.23-22.35a106.44,106.44,0,0,0-14.24-41.25,169.11,169.11,0,0,1-14.5-31.63c-5.62-16.87-7.83-34.36-10.55-51.79-2.46-15.82-6.53-30.82-22.26-39.06-5.15-2.7-10.38-5.25-15.69-7.61-17.28-7.71-35.75-12.41-52.45-21.74a593.46,593.46,0,0,1-61.1-39.42c-19.49-14.25-39.61-27.71-56.14-45.75C-157.27,437-145.8,417.19-127,410.37a190.85,190.85,0,0,1,27.76-7.47c31.52-6.33,62.53-14.13,92.35-26.57,17.44-7.28,34.15-16.74,52.73-20.9,22.22-5,31.25,1.27,34.33,21.75,1.46,9.71.1,19.11-.28,28.66-.85,21.46-.77,43-2.61,64.39a155.48,155.48,0,0,0,10.1,70.61c4,10.39,10,19,19.84,25,14.74,8.93,31,13.2,47.37,17.65,13.66,3.73,27.44,7.6,38.88,16.31,16.39,12.47,23.72,29.33,23.22,50.06-.36,15.43,3.74,29.61,16.66,39.66a125.5,125.5,0,0,0,22,13.27,938.73,938.73,0,0,1,128.45,76,237.22,237.22,0,0,0,42.1,24c26.07,11.32,53,15.22,80.67,7.75,25.53-6.89,43-26.9,44.87-51.29,1.38-17.95-7-32.78-17.38-46.54-17.81-23.72-40.27-42.53-64.17-59.72C421.23,617.86,368,597.6,306.82,603c-11.31,1-22.76.58-34.13.37A108.16,108.16,0,0,1,240,597.54c-15.23-5.14-23.63-17.28-24-33.1-.32-13.76,5.77-25,13.43-35.48,13.51-18.46,29.77-34.49,47-49.37,66-57.06,113-126.62,141.11-209.43,15.07-44.38,26.65-89.58,37.85-135,4.74-19.24,11.39-37.77,23.77-53.7C492.65,64.17,506,59.74,527.14,66.33c17.13,5.35,34.09,11.26,51.13,16.89,28.57,9.44,57.72,17.59,84.3,31.91,23,12.4,47,14.38,72.1,11.5,32.27-3.71,63.49-12.32,94.62-21,27.05-7.55,51.8-4.55,75.39,10.79,10.37,6.74,21.44,12.42,32.36,18.27,76,40.75,155.42,74.6,232.66,112.87,37.48,18.58,77.47,30.83,116.37,45.81,18.16,7,36.49,13.82,51.87,26.32,12.71,10.33,14.89,22.08,6.55,36.15-5.87,9.91-14.27,17.66-22.76,25.26-17.33,15.53-35.2,30.51-50,48.65-25,30.75-41.82,66.15-57.45,102.17-8.86,20.42-17.33,41.1-19.07,63.62-1.57,20.29,7.37,36,28.83,39.3,11.38,1.73,22.17-.39,32.79-3.76,21.12-6.7,40.53-17,59-29.09,50.49-32.92,92.09-75.6,131.71-120.43,11.53-13.06,22.06-27.05,35.67-38.19,19.43-15.9,38.45-15.08,56,2.62,8.83,8.88,15.23,19.46,21,30.47,12.25,23.23,18.7,48.48,26.24,73.4,13.47,44.54,31,87.7,45.76,131.8C1640.3,705.34,1648.06,729.09,1655.9,752.82Z" transform="translate(287.01 161.03)"/><path class="b" d="M1655.9,752.82c-7.84-23.73-15.6-47.48-23.54-71.17-14.77-44.1-32.29-87.26-45.76-131.8-7.54-24.92-14-50.17-26.24-73.4-5.8-11-12.2-21.59-21-30.47-17.6-17.7-36.62-18.52-56-2.62-13.61,11.14-24.14,25.13-35.67,38.19C1408,526.38,1366.39,569.06,1315.9,602c-18.49,12.06-37.9,22.39-59,29.09-10.62,3.37-21.41,5.49-32.79,3.76-21.46-3.26-30.4-19-28.83-39.3,1.74-22.52,10.21-43.2,19.07-63.62,15.63-36,32.45-71.42,57.45-102.17,14.75-18.14,32.62-33.12,50-48.65,8.49-7.6,16.89-15.35,22.76-25.26,8.34-14.07,6.16-25.82-6.55-36.15-15.38-12.5-33.71-19.34-51.87-26.32-38.9-15-78.89-27.23-116.37-45.81-77.24-38.27-156.63-72.12-232.66-112.87-10.92-5.85-22-11.53-32.36-18.27-23.59-15.34-48.34-18.34-75.39-10.79-31.13,8.69-62.35,17.3-94.62,21-25.11,2.88-49.11.9-72.1-11.5-26.58-14.32-55.73-22.47-84.3-31.91-17-5.63-34-11.54-51.13-16.89C506,59.74,492.65,64.17,479.2,81.49c-12.38,15.93-19,34.46-23.77,53.7-11.2,45.39-22.78,90.59-37.85,135C389.46,353,342.52,422.53,276.47,479.59c-17.23,14.88-33.49,30.91-47,49.37-7.66,10.48-13.75,21.72-13.43,35.48.37,15.82,8.77,28,24,33.1a108.16,108.16,0,0,0,32.65,5.81c11.37.21,22.82.63,34.13-.37C368,597.6,421.23,617.86,470,652.92c23.9,17.19,46.36,36,64.17,59.72,10.34,13.76,18.76,28.59,17.38,46.54-1.88,24.39-19.34,44.4-44.87,51.29C478.91,817.94,452,814,426,802.72a237.22,237.22,0,0,1-42.1-24,938.73,938.73,0,0,0-128.45-76,125.5,125.5,0,0,1-22-13.27c-12.92-10.05-17-24.23-16.66-39.66.5-20.73-6.83-37.59-23.22-50.06-11.44-8.71-25.22-12.58-38.88-16.31C138.29,579,122,574.73,107.25,565.8c-9.88-6-15.82-14.57-19.84-25a155.48,155.48,0,0,1-10.1-70.61c1.84-21.38,1.76-42.93,2.61-64.39.38-9.55,1.74-18.95.28-28.66-3.08-20.48-12.11-26.72-34.33-21.75-18.58,4.16-35.29,13.62-52.73,20.9-29.82,12.44-60.83,20.24-92.35,26.57A190.85,190.85,0,0,0-127,410.37c-18.83,6.82-30.3,26.62-11.91,46.69,16.53,18,36.65,31.5,56.14,45.75a593.46,593.46,0,0,0,61.1,39.42c16.7,9.33,35.17,14,52.45,21.74,5.31,2.36,10.54,4.91,15.69,7.61,15.73,8.24,19.8,23.24,22.26,39.06,2.72,17.43,4.93,34.92,10.55,51.79a169.11,169.11,0,0,0,14.5,31.63,106.44,106.44,0,0,1,14.24,41.25c.92,7.7-.86,15.23-3.23,22.35C91.71,797.05,72.68,833,41.19,861c-11.08,9.84-24.46,17-34.34,28.4-8.74,10.11-15.48,21.18-18.07,34.44-.52,2.67-1.11,5.49.6,8.07H-59.19c2.69-2.86,2.34-6.51,2.58-10,1.81-26.32-4.86-51.06-14-75.38-11-29.36-21.11-59-29.51-89.23-9.53-34.25-7.29-68.6-.09-102.81,6.82-32.35,2.86-62.62-14.82-91-14.17-22.72-29.72-44.49-44.55-66.76C-170.1,480.9-181.77,466-197,454.49c-24.69-18.72-53.21-29.65-82.67-38.32-2.37-.7-4.75-2-7.23-.3V95.62a280.93,280.93,0,0,1,35.08-9.31c16-3,26.71,2.17,34.21,16.83a97.39,97.39,0,0,1,7.4,19.83c2.35,9,4.2,18.19,8,26.8,20.05,44.77,68.7,67.32,116.66,61.07,39-5.09,77.52-14,115.76-23.44,30-7.42,55.25-23.3,76.29-45.78,24.67-26.35,44.2-56.46,62.95-87.1,22.35-36.54,48.14-70,84.65-93.69,23.59-15.3,45.46-32.82,67.36-50.4,19.32-15.5,39.23-30.33,62.88-39,18.65-6.85,34.7-2.55,48.64,11.13,12.54,12.32,20.27,27.55,26.87,43.56,5.81,14.08,12.65,27.59,23.94,38.29,10.71,10.14,21.87,10.48,33,.71a111,111,0,0,0,20.82-25c16-25.59,28.41-53,40-80.76,3.56-8.53,7.83-16.83,18.49-18a54.72,54.72,0,0,1,18.89.73,203.25,203.25,0,0,0,75.24,4.24c21.28-2.78,42.77-3.67,64-7.25h373.37c9.54,8.3,19.52,16.19,30.84,21.72,47.24,23,95.26,20,143,2.16a42.34,42.34,0,0,0,25-23.88q161.64,0,323.28-.15c5.2,0,6.22,1,6.22,6.22Q1655.8,299,1655.9,752.82Z" transform="translate(287.01 161.03)"/><path class="a" d="M754.34-160.88c-21.2,3.58-42.69,4.47-64,7.25a203.25,203.25,0,0,1-75.24-4.24,54.72,54.72,0,0,0-18.89-.73c-10.66,1.17-14.93,9.47-18.49,18-11.6,27.79-24,55.17-40,80.76a111,111,0,0,1-20.82,25c-11.17,9.77-22.33,9.43-33-.71-11.29-10.7-18.13-24.21-23.94-38.29-6.6-16-14.33-31.24-26.87-43.56-13.94-13.68-30-18-48.64-11.13-23.65,8.68-43.56,23.51-62.88,39-21.9,17.58-43.77,35.1-67.36,50.4C217.68-15.49,191.89,18,169.54,54.52c-18.75,30.64-38.28,60.75-62.95,87.1C85.55,164.1,60.3,180,30.3,187.4c-38.24,9.46-76.72,18.35-115.76,23.44-48,6.25-96.61-16.3-116.66-61.07-3.85-8.61-5.7-17.77-8-26.8a97.39,97.39,0,0,0-7.4-19.83c-7.5-14.66-18.2-19.86-34.21-16.83a280.93,280.93,0,0,0-35.08,9.31q0-125.22-.15-250.43c0-5.2,1-6.25,6.22-6.22,45.53.26,91.07.15,136.6.15,2.16,4.79,4,9.77,6.54,14.34,5.65,10.07,13.17,13.09,23.79,10a91.26,91.26,0,0,0,26.45-12.52c5.46-3.78,12.51-5.44,16.07-11.8Z" transform="translate(287.01 161.03)"/><path class="a" d="M-286.86,415.87c2.48-1.7,4.86-.4,7.23.3,29.46,8.67,58,19.6,82.67,38.32,15.19,11.51,26.86,26.41,37.43,42.28,14.83,22.27,30.38,44,44.55,66.76,17.68,28.34,21.64,58.61,14.82,91-7.2,34.21-9.44,68.56.09,102.81,8.4,30.22,18.53,59.87,29.51,89.23,9.09,24.32,15.76,49.06,14,75.38-.24,3.5.11,7.15-2.58,10q-110.8,0-221.6.15c-5.2,0-6.22-1-6.21-6.22Q-286.74,670.87-286.86,415.87Z" transform="translate(287.01 161.03)"/><path class="a" d="M1326.54-160.88a42.34,42.34,0,0,1-25,23.88c-47.77,17.86-95.79,20.88-143-2.16-11.32-5.53-21.3-13.42-30.84-21.72Z" transform="translate(287.01 161.03)"/><path class="b" d="M-71.34-160.88c-3.56,6.36-10.61,8-16.07,11.8a91.26,91.26,0,0,1-26.45,12.52c-10.62,3.11-18.14.09-23.79-10-2.56-4.57-4.38-9.55-6.54-14.34Z" transform="translate(287.01 161.03)"/></svg>