<svg xmlns="http://www.w3.org/2000/svg" viewBox="0 0 1943.06 1093.09"><defs><style>.a{fill:#ffffff;}.b{fill:#41c7f6;}</style></defs><title>1800f_00263</title><path class="a" d="M1655.9,147.23V692.11c-2.77.15-4.39,2.34-6.43,3.71-14.27,9.58-28.41,19.36-44.6,25.61-47.3,18.25-91.1-5-98.9-52.78-2.32-14.21-4.39-28.47-7.92-42.42-6.8-26.92-10.92-54.5-19.79-80.91-3.74-11.15-9.19-21.4-17.89-29.52-12.87-12-28.1-11.57-40.17,1.18-11.1,11.73-15,26.62-17.73,41.94-3.29,18.6-3.8,37.78-11.19,55.53-20.38,48.93-46.51,94.14-84.54,131.81-36.15,35.79-60.63,78-69.06,128.72-3.15,18.91-5.54,37.95-8.28,56.94H195.79c-1.22-2.58-4-3-6.12-4.08-32.91-16.66-66.83-15.45-101.13-5.34a105.48,105.48,0,0,1-51.68,2.34C3.91,918.16-29,911.34-62.9,911.56c-18.45.12-36.9.62-55.34.48-25.76-.2-31.86-10.18-20.54-33.28,7.61-15.53,18.2-29.12,28.73-42.73,10.35-13.38,21.4-26.28,28.76-41.76,8.42-17.73,7.28-34.68-3.38-51.13a82.71,82.71,0,0,0-33.17-29.23c-9.61-4.81-18.21-10.85-25.12-19.18-21.09-25.43-30.5-55.53-34.66-87.62-3.86-29.75-1.14-58.51,13.81-85.28,7.85-14.06,18.53-25.88,29.58-37.34,16-16.56,32.32-32.75,46.62-50.85,24.4-30.86,41-66.1,57.05-101.57,10.32-22.78,21.09-45.45,27.64-69.71,7.69-28.49,9.68-57.77,10.65-87.09.94-28.65,7.44-55,28.2-76.28A217.12,217.12,0,0,1,62.72,75.53c24.48-18,50.51-33.61,75.73-50.48C174.86.7,205.82-28.18,227.89-67c22.55-39.63,52-73.53,95.38-92.32.62-.27,1-1,1.53-1.58H478.1c10.37,8.07,17.16,18.48,22.45,30.54,4.88,11.09,15.42,14.6,27.62,10,20.83-7.79,35.66-23.14,48.59-40.58h546.4c7,7.69,15.82,13.28,23.66,20,45.73,39.14,89.34,80.69,135.84,119,19.93,16.4,40.14,32.4,63.19,44.37,21.26,11,42.1,11.7,63.69.05,15.46-8.34,29-19.23,43.13-29.3,12.67-9,25.85-13.42,40.95-6.41,7.75,3.59,15.74,6.75,23.27,10.74,32.48,17.22,66.86,17,101.84,11.48,6.56-1,11.39-7.1,11.39-13.87,0-9.85-1.94-19.52-3-29.26-3-26.38-13.81-49-33.63-66.69-10.38-9.3-21.86-16.75-36.68-17.82-16.5-1.18-29.38,5.54-40.68,16.48-8.91,8.62-17.48,17.58-26.39,26.2-9.37,9.07-16.65,9.3-27.38,2.18-4.84-3.21-7.59-8.06-11.4-12-15.9-16.61-29.54-34.9-39.76-55.6-3-6.13-5.66-12.43-5.69-19.46q122.36,0,244.7-.11c4.59,0,5.89.86,5.87,5.73-.21,59.85-.13,119.7-.13,179.55-5.23.3-7.59,3.61-7.87,8.3a66.58,66.58,0,0,0,.3,14.33,341.28,341.28,0,0,1,4.26,47.23c.33,15.86,1.08,31.71,1.71,47.57C1654.37,143.64,1653.84,145.84,1655.9,147.23Z" transform="translate(287.02 161.02)"/><path class="b" d="M324.8-160.88c-.5.54-.91,1.31-1.53,1.58-43.39,18.79-72.83,52.69-95.38,92.32-22.07,38.8-53,67.68-89.44,92C113.23,41.92,87.2,57.57,62.72,75.53A217.12,217.12,0,0,0,35.93,99c-20.76,21.27-27.26,47.63-28.2,76.28-1,29.32-3,58.6-10.65,87.09-6.55,24.26-17.32,46.93-27.64,69.71-16.08,35.47-32.65,70.71-57,101.57-14.3,18.1-30.64,34.29-46.62,50.85C-145.28,496-156,507.77-163.81,521.83c-14.95,26.77-17.67,55.53-13.81,85.28C-173.46,639.2-164,669.3-143,694.73c6.91,8.33,15.51,14.37,25.12,19.18a82.71,82.71,0,0,1,33.17,29.23c10.66,16.45,11.8,33.4,3.38,51.13C-88.65,809.75-99.7,822.65-110,836c-10.53,13.61-21.12,27.2-28.73,42.73-11.32,23.1-5.22,33.08,20.54,33.28,18.44.14,36.89-.36,55.34-.48,33.86-.22,66.81,6.6,99.76,13.28a105.48,105.48,0,0,0,51.68-2.34c34.3-10.11,68.22-11.32,101.13,5.34,2.16,1.1,4.9,1.5,6.12,4.08q-238.09,0-476.21.15c-5.49,0-6.59-1.15-6.59-6.6q.27-246.45.15-492.9c16.12-6.43,21.11-20.14,22.33-35.63,2.41-30.6-7.91-58-22.33-84.28q0-233.57-.16-467.14c0-5.61,1.32-6.54,6.65-6.54Q22.23-160.78,324.8-160.88Z" transform="translate(287.02 161.02)"/><path class="b" d="M1229.4,931.92c2.74-19,5.13-38,8.28-56.94,8.43-50.68,32.91-92.93,69.06-128.72,38-37.67,64.16-82.88,84.54-131.81,7.39-17.75,7.9-36.93,11.19-55.53,2.71-15.32,6.63-30.21,17.73-41.94,12.07-12.75,27.3-13.2,40.17-1.18,8.7,8.12,14.15,18.37,17.89,29.52,8.87,26.41,13,54,19.79,80.91,3.53,13.95,5.6,28.21,7.92,42.42,7.8,47.8,51.6,71,98.9,52.78,16.19-6.25,30.33-16,44.6-25.61,2-1.37,3.66-3.56,6.43-3.71q0,116.86.14,233.74c0,5.2-1,6.22-6.22,6.21Q1439.61,931.79,1229.4,931.92Z" transform="translate(287.02 161.02)"/><path class="b" d="M1405.46-160.88c0,7,2.67,13.33,5.69,19.46,10.22,20.7,23.86,39,39.76,55.6,3.81,4,6.56,8.84,11.4,12,10.73,7.12,18,6.89,27.38-2.18,8.91-8.62,17.48-17.58,26.39-26.2,11.3-10.94,24.18-17.66,40.68-16.48,14.82,1.07,26.3,8.52,36.68,17.82,19.82,17.73,30.61,40.31,33.63,66.69,1.11,9.74,3.06,19.41,3,29.26,0,6.77-4.83,12.84-11.39,13.87-35,5.48-69.36,5.74-101.84-11.48-7.53-4-15.52-7.15-23.27-10.74-15.1-7-28.28-2.6-40.95,6.41-14.16,10.07-27.67,21-43.13,29.3-21.59,11.65-42.43,11-63.69-.05-23-12-43.26-28-63.19-44.37-46.5-38.27-90.11-79.82-135.84-119-7.84-6.72-16.64-12.31-23.66-20Z" transform="translate(287.02 161.02)"/><path class="b" d="M576.76-160.88c-12.93,17.44-27.76,32.79-48.59,40.58-12.2,4.56-22.74,1-27.62-10-5.29-12.06-12.08-22.47-22.45-30.54Z" transform="translate(287.02 161.02)"/><path class="a" d="M-286.86,312.66c14.42,26.25,24.74,53.68,22.33,84.28-1.22,15.49-6.21,29.2-22.33,35.63Z" transform="translate(287.02 161.02)"/><path class="b" d="M1655.9,147.23c-2.06-1.39-1.53-3.59-1.6-5.51-.63-15.86-1.38-31.71-1.71-47.57a341.28,341.28,0,0,0-4.26-47.23,66.58,66.58,0,0,1-.3-14.33c.28-4.69,2.64-8,7.87-8.3Z" transform="translate(287.02 161.02)"/></svg>