<svg xmlns="http://www.w3.org/2000/svg" viewBox="0 0 1943.94 1093.96"><defs><style>.a{fill:#ffffff;}.b{fill:#41c7f6;}</style></defs><title>1800f_00094</title><path class="a" d="M588.9,931.92h-431c1.76-2.09,4.43-2.24,6.74-3.09,24.09-8.93,47.09-19.92,66.95-36.5,43.36-36.2,69.3-83.07,82.66-137.3,7.81-31.66,9.82-63.67-1.17-95C304.91,637,286,616.39,256.13,619.2c-4.26.4-8.59,0-12.89.15-27.5.74-54.24-4.8-79.2-15.07C114.79,584,75.71,550.6,47.8,505c-12.13-19.83-22.74-40.58-34.46-60.66-12.86-22.05-25.92-44-43.94-62.44-11.77-12-23.59-10.85-31.41,3.68-7.41,13.76-14.21,27.95-19.05,42.86-14.33,44.21-9.76,87.89,5,131,12,34.85,31.21,65.59,54.64,93.9,15,18.08,30.7,35.71,40.59,57.4,6.26,13.73,7.69,27.78,1.33,41.83C15.71,763.12,7.61,771-1.94,777.57c-15.87,11-33.58,18.63-50.16,28.3-47.4,27.62-94,56.61-141.78,83.59-22,12.41-43.23,26.12-62.62,42.46-9.11,0-18.22-.14-27.32.08-2.64.06-3.56-.47-3.08-3.12a21.78,21.78,0,0,0,0-3.79V33.39a21.31,21.31,0,0,0,2.27-.1c51.49-8.09,101.71-6.36,149.45,17.83,18.82,9.54,38.93,14.35,60.22,10.44,73.48-13.5,145.4-32.77,215-60,49.73-19.46,96.82-43.76,136.22-80.68,17.7-16.59,34.53-34.13,52-51,22.72-21.84,40.62-24.61,68.71-10.34,22,11.18,42,25.38,58.27,44.2,11.72,13.55,26.37,20.45,44.11,22.3,17,1.78,33.9.44,50.71-1.09,57-5.2,114-5.93,171-1,41.49,3.6,82.37,12.33,124,14.44,19.82,1,39.44-.06,58.34-6.76,8.8-3.12,16.8-8,20.69-16.75,9.53-21.51,25.46-37.47,43.39-51.8,10.23-8.18,20.73-16,31.11-24h122.94c.45,24.65-1.5,49-9.13,72.63-11.27,34.86-21.56,70.14-42.73,100.83-5.55,8-8.33,17.26-10,26.8-3.21,18.67,5.16,33.37,20.11,34.81a98.68,98.68,0,0,0,24.22-.51,560,560,0,0,1,67.08-6.44c42.45-1.33,84.94-1.58,127.41-2.26a203.08,203.08,0,0,1,40.72,3.37c12.12,2.27,21.35,8.57,28.44,18.5a146,146,0,0,1,16.34,30.74c17.8,44.3,27.91,90.75,37.94,137.21,11.9,55.08,20.79,110.77,33.33,165.73,12.79,56,36,106.64,75.82,148.9,35.73,37.92,79.81,64.13,124.67,89.29v119.9c-20.2,6.19-38.53,16.13-55.76,28.12-21.6,15-35.77,35.28-41.27,61.24a199.58,199.58,0,0,0-3.15,63.94h-282.3c11.62-4,23.28-8.07,33.06-15.86,24.78-19.72,47.37-41.77,68.61-65.2A68.43,68.43,0,0,0,1387.57,832c6-14,1.07-23-13.87-25.9-15.93-3.1-31.26.36-46.35,4.53-41.51,11.49-77.43,32.15-104.22,66.6-15,19.29-10.58,36.89,11.15,47.69,5.31,2.64,10.9,4.71,16.37,7h-173c.18-11.12-5.39-19.21-13.81-25.61-17.35-13.18-37-21.57-57.82-27.54-35.31-10.13-71.66-12.29-108-13.09-58.61-1.29-117.24-1.42-175.7,4.07-28.24,2.65-56,7.89-82.6,18.19C617.43,896.55,599.73,910.22,588.9,931.92ZM-13.39,238.43c.73-13.06-2.56-25.35-6.18-37.39a209.61,209.61,0,0,0-50.77-86.81c-15.17-15.64-32.38-22.31-53.26-15.46-37.77,12.4-72.21,30.11-95.93,63.85-11.54,16.41-9.13,31.83,3.17,43.55,6.13,5.84,13.51,10.57,20.86,14.89,19.31,11.33,39.48,21.22,57.36,34.89,21.37,16.36,39,36.63,58.21,55.27,4.34,4.22,8.18,9,13.26,12.4,10.17,6.88,14.48,6,20.56-4.69,7.7-13.58,14.84-27.48,22.77-40.92A70.1,70.1,0,0,0-13.39,238.43Z" transform="translate(287.02 161.91)"/><path class="b" d="M1655.9,658.72c-44.86-25.16-88.94-51.37-124.67-89.29-39.8-42.26-63-92.89-75.82-148.9-12.54-55-21.43-110.65-33.33-165.73-10-46.46-20.14-92.91-37.94-137.21a146,146,0,0,0-16.34-30.74c-7.09-9.93-16.32-16.23-28.44-18.5A203.08,203.08,0,0,0,1298.64,65c-42.47.68-85,.93-127.41,2.26a560,560,0,0,0-67.08,6.44,98.68,98.68,0,0,1-24.22.51c-15-1.44-23.32-16.14-20.11-34.81,1.63-9.54,4.41-18.76,10-26.8,21.17-30.69,31.46-66,42.73-100.83,7.63-23.63,9.58-48,9.13-72.63h239.81a7.17,7.17,0,0,0,.39,2.22c11.05,19.51,21.47,39.43,35,57.37,7.89,10.45,16.41,20.55,28.22,27,12.3,6.68,23.12,3.27,29.93-8.82,5.62-10,7.48-20.71,7.65-32,.23-15.42-3-30.51-4.08-45.79h176.07c1.47,2.76,1.36,5.84,1.79,8.83,3.22,22.33,7.87,44.23,19.46,64Z" transform="translate(287.02 161.91)"/><path class="b" d="M998.7-160.88c-10.38,8-20.88,15.85-31.11,24-17.93,14.33-33.86,30.29-43.39,51.8-3.89,8.78-11.89,13.63-20.69,16.75-18.9,6.7-38.52,7.76-58.34,6.76-41.65-2.11-82.53-10.84-124-14.44-57.06-5-114-4.23-171,1-16.81,1.53-33.7,2.87-50.71,1.09-17.74-1.85-32.39-8.75-44.11-22.3-16.27-18.82-36.24-33-58.27-44.2-28.09-14.27-46-11.5-68.71,10.34-17.49,16.82-34.32,34.36-52,51C236.92-42.21,189.83-17.91,140.1,1.55c-69.62,27.24-141.54,46.51-215,60-21.29,3.91-41.4-.9-60.22-10.44-47.74-24.19-98-25.92-149.45-17.83a21.31,21.31,0,0,1-2.27.1c0-62.48.09-125-.15-187.44,0-5.7,1.29-7,7-7Q359.33-160.8,998.7-160.88Z" transform="translate(287.02 161.91)"/><path class="b" d="M-256.5,931.92c19.39-16.34,40.64-30,62.62-42.46,47.79-27,94.38-56,141.78-83.59,16.58-9.67,34.29-17.32,50.16-28.3C7.61,771,15.71,763.12,20.53,752.5c6.36-14,4.93-28.1-1.33-41.83C9.31,689-6.42,671.35-21.39,653.27c-23.43-28.31-42.67-59-54.64-93.9-14.79-43.06-19.36-86.74-5-130.95,4.84-14.91,11.64-29.1,19.05-42.86,7.82-14.53,19.64-15.69,31.41-3.68,18,18.4,31.08,40.39,43.94,62.44C25.06,464.4,35.67,485.15,47.8,505c27.91,45.62,67,79,116.24,99.3,25,10.27,51.7,15.81,79.2,15.07,4.3-.12,8.63.25,12.89-.15C286,616.39,304.91,637,313,660.07c11,31.29,9,63.3,1.17,95-13.36,54.23-39.3,101.1-82.66,137.3-19.86,16.58-42.86,27.57-66.95,36.5-2.31.85-5,1-6.74,3.09Z" transform="translate(287.02 161.91)"/><path class="b" d="M588.9,931.92c10.83-21.7,28.53-35.37,50.77-44,26.62-10.3,54.36-15.54,82.6-18.19,58.46-5.49,117.09-5.36,175.7-4.07,36.36.8,72.71,3,108,13.09,20.8,6,40.47,14.36,57.82,27.54,8.42,6.4,14,14.49,13.81,25.61Z" transform="translate(287.02 161.91)"/><path class="b" d="M1250.65,931.92c-5.47-2.34-11.06-4.41-16.37-7-21.73-10.8-26.15-28.4-11.15-47.69,26.79-34.45,62.71-55.11,104.22-66.6,15.09-4.17,30.42-7.63,46.35-4.53,14.94,2.91,19.86,11.94,13.87,25.9a68.43,68.43,0,0,1-12.48,18.91c-21.24,23.43-43.83,45.48-68.61,65.2-9.78,7.79-21.44,11.82-33.06,15.86Z" transform="translate(287.02 161.91)"/><path class="b" d="M1555.72,931.92a199.58,199.58,0,0,1,3.15-63.94c5.5-26,19.67-46.21,41.27-61.24,17.23-12,35.56-21.93,55.76-28.12,0,49.33-.08,98.66.12,148,0,4.53-.91,5.48-5.44,5.45C1619,931.8,1587.34,931.92,1555.72,931.92Z" transform="translate(287.02 161.91)"/><path class="a" d="M1458.58-160.88c1.09,15.28,4.31,30.37,4.08,45.79-.17,11.25-2,22-7.65,32-6.81,12.09-17.63,15.5-29.93,8.82-11.81-6.43-20.33-16.53-28.22-27-13.55-17.94-24-37.86-35-57.37a7.17,7.17,0,0,1-.39-2.22Z" transform="translate(287.02 161.91)"/><path class="a" d="M1655.9-88c-11.59-19.79-16.24-41.69-19.46-64-.43-3-.32-6.07-1.79-8.83,7.08,0,16.93-2.77,20.47.78s.78,13.38.78,20.47Z" transform="translate(287.02 161.91)"/><path class="b" d="M-13.39,238.43A70.1,70.1,0,0,1-23.34,278c-7.93,13.44-15.07,27.34-22.77,40.92-6.08,10.73-10.39,11.57-20.56,4.69-5.08-3.44-8.92-8.18-13.26-12.4-19.19-18.64-36.84-38.91-58.21-55.27-17.88-13.67-38.05-23.56-57.36-34.89-7.35-4.32-14.73-9.05-20.86-14.89-12.3-11.72-14.71-27.14-3.17-43.55,23.72-33.74,58.16-51.45,95.93-63.85,20.88-6.85,38.09-.18,53.26,15.46A209.61,209.61,0,0,1-19.57,201C-15.95,213.08-12.66,225.37-13.39,238.43Z" transform="translate(287.02 161.91)"/></svg>