<svg xmlns="http://www.w3.org/2000/svg" viewBox="0 0 1366.28 768.28"><defs><style>.a{fill:#ffffff;}.b{fill:#42c7f6;}</style></defs><title>1800f_00084</title><path class="a" d="M1.52,250.44v-129c9.25-1.17,18.57-2,27.73-3.61,31.35-5.67,61.69-5.69,92.21,6.81,31.26,12.8,64.12,14.87,96,.76,45.36-20.08,89.47-42.67,130.29-71,21.2-14.75,40.55-31.79,56-52.81h97.14c3.55,3.54,8.5,4.16,12.83,6.07,26.58,11.79,54.17,17.53,83.41,14.68,25.15-2.46,50.35-4.87,75.65-3.93,26,1,52,2.7,77.93,4.17,32.11,1.82,62.27-4.68,90.16-21H971.38c5.71,19.93,8.56,40.49,13.36,60.61A119.49,119.49,0,0,0,989.86,78c10.6,26.8,29.89,47.05,49.85,67,38.08,38.08,77.28,75.07,113.48,115,26,28.74,44.28,61.11,50.78,99.94a311.16,311.16,0,0,0,14.84,55.61c6,16.39,14.81,30.95,27.44,43.13,33.92,32.73,73.53,56.73,116.25,76,1.59.72,3.12,1.75,5,1.1v82c-1.22.11-2.58-.07-3.65.39a328.75,328.75,0,0,0-55.18,30c-20.18,13.86-27.26,32.36-23.93,56.37,3,21.48,5.44,43.14,3.83,65H200.35c1-2,3.16-2.41,4.93-3.26,16.11-7.7,33.39-11.63,50.76-15,44.77-8.74,81.83-30,109.21-66.93,16.82-22.7,30-46.93,29.56-76.33-.21-14.2-6.19-27-10.16-40.28-9.79-32.73-20.41-65.22-17.6-100.19,1.06-13.08,1.62-26.23.31-39.38-1.16-11.66-3.22-23.09-9.29-33.32-9.52-16.06-26.05-17.14-38.07-2.88-8.69,10.3-11.17,23-14.81,35.36-3.94,13.31-6.36,27.12-12.73,39.63-5.32,10.45-13.48,16-25.74,14.66a47.85,47.85,0,0,1-18-5.64c-31.95-17.32-57.64-41.73-78.78-71a51.48,51.48,0,0,1-9.43-39.48c2.58-16.4,8.19-31.83,14.21-47.08,10.37-26.25,15.09-52.92,8.81-80.86-6.44-28.68-17.58-54.91-40.07-75-26.14-23.35-57.14-27.62-90.23-22-23.92,4.09-39,18-34,46.42C23.32,210.32,13.64,231,1.52,250.44ZM760.71,689.06a343.25,343.25,0,0,0-68.36,8.29c-13.55,3.11-27,6.94-38.07,16.12-11.64,9.65-11.32,22.69.69,32,8.42,6.55,18.12,9.92,28.45,11.72,24,4.18,47.36.28,70.37-6.29,22.51-6.43,45.16-11.16,68.76-9,14.85,1.39,29.5,4,44.16,6.65a71.52,71.52,0,0,0,24.89.23c3.38-.6,7.06-1.63,8-5.91.83-3.79-1.46-6.13-3.85-8.51a39.77,39.77,0,0,0-13.23-8.64c-24.36-9.87-50.26-15.63-73.92-27.34C793.45,691,777.38,688.68,760.71,689.06Zm323.88,57.46c8.78.31,17.57-3.07,25.44-8.18,21.78-14.16,44.09-27.63,64.18-44.23,7.76-6.43,15.44-13.17,20.51-22.1,4.45-7.83,2.11-13-6.63-15.21a44,44,0,0,0-18.07-.36c-31.42,5.08-61.1,15.52-89.38,30a79.65,79.65,0,0,0-24.38,19c-10.44,12.13-8.68,25.23,4.56,34.23A40,40,0,0,0,1084.59,746.52Z" transform="translate(-1.36 -1.37)"/><path class="b" d="M1.52,250.44C13.64,231,23.32,210.32,19.26,187c-5-28.44,10.09-42.33,34-46.42,33.09-5.65,64.09-1.38,90.23,22,22.49,20.08,33.63,46.31,40.07,75,6.28,27.94,1.56,54.61-8.81,80.86-6,15.25-11.63,30.68-14.21,47.08A51.48,51.48,0,0,0,170,405c21.14,29.23,46.83,53.64,78.78,71a47.85,47.85,0,0,0,18,5.64c12.26,1.3,20.42-4.21,25.74-14.66,6.37-12.51,8.79-26.32,12.73-39.63,3.64-12.33,6.12-25.06,14.81-35.36,12-14.26,28.55-13.18,38.07,2.88,6.07,10.23,8.13,21.66,9.29,33.32,1.31,13.15.75,26.3-.31,39.38-2.81,35,7.81,67.46,17.6,100.19,4,13.26,10,26.08,10.16,40.28.43,29.4-12.74,53.63-29.56,76.33-27.38,37-64.44,58.19-109.21,66.93-17.37,3.39-34.65,7.32-50.76,15-1.77.85-3.9,1.25-4.93,3.26q-96.76,0-193.52.12c-4.53,0-5.51-.9-5.45-5.44.3-21.5.14-43,.14-64.5,28.28-14.38,59-22.47,88.35-34,15.34-6,29.87-13.77,42.79-24.18,18.41-14.82,31.27-32.41,28.33-57.74-1.15-9.92-4.47-19.19-8.47-28.22-8.3-18.72-16.89-37.31-25.15-56.05-10-22.73-15.73-47-24-70.31-8-22.77-21.4-40.39-45.56-46.87C38.53,377.2,19.35,372,1.52,362.75Z" transform="translate(-1.36 -1.37)"/><path class="b" d="M1367.52,535.78c-1.9.65-3.43-.38-5-1.1-42.72-19.26-82.33-43.26-116.25-76-12.63-12.18-21.43-26.74-27.44-43.13A311.16,311.16,0,0,1,1204,360c-6.5-38.83-24.73-71.2-50.78-99.94-36.2-39.94-75.4-76.93-113.48-115-20-20-39.25-40.22-49.85-67a119.49,119.49,0,0,1-5.12-15.85c-4.8-20.12-7.65-40.68-13.36-60.61h168.47c-.4,2.48,1,4.37,2.13,6.31,10.39,18.22,19.63,37,26.78,56.71,5.41,14.94,10.83,29.91,18.9,43.68,6.29,10.73,15.9,15.18,26.63,12.82,8.13-1.79,14.39-10.42,14.71-22.4.5-19.14-.71-38.26-2.39-57.35-1.17-13.25-4.94-26.3-3.28-39.77h103.21c10.61,18.76,26,33.45,41,48.57Z" transform="translate(-1.36 -1.37)"/><path class="b" d="M403.73,1.52c-15.44,21-34.79,38.06-56,52.81-40.82,28.38-84.93,51-130.29,71.05-31.87,14.11-64.73,12-96-.76-30.52-12.5-60.86-12.48-92.21-6.81-9.16,1.66-18.48,2.44-27.73,3.61,0-37.94.13-75.89-.16-113.83,0-5.2,1-6.22,6.23-6.22Q205.67,1.66,403.73,1.52Z" transform="translate(-1.36 -1.37)"/><path class="a" d="M1.52,362.75c17.83,9.24,37,14.45,56.31,19.62,24.16,6.48,37.51,24.1,45.56,46.87,8.25,23.35,14,47.58,24,70.31,8.26,18.74,16.85,37.33,25.15,56.05,4,9,7.32,18.3,8.47,28.22,2.94,25.33-9.92,42.92-28.33,57.74-12.92,10.41-27.45,18.18-42.79,24.18-29.38,11.49-60.07,19.58-88.35,34Z" transform="translate(-1.36 -1.37)"/><path class="b" d="M1288.59,769.52c1.61-21.83-.84-43.49-3.83-65-3.33-24,3.75-42.51,23.93-56.37a328.75,328.75,0,0,1,55.18-30c1.07-.46,2.43-.28,3.65-.39,0,48.82-.08,97.64.13,146.46,0,4.53-.91,5.5-5.45,5.45C1337.67,769.37,1313.13,769.52,1288.59,769.52Z" transform="translate(-1.36 -1.37)"/><path class="a" d="M1223.33,1.52c-1.66,13.47,2.11,26.52,3.28,39.77,1.68,19.09,2.89,38.21,2.39,57.35-.32,12-6.58,20.61-14.71,22.4-10.73,2.36-20.34-2.09-26.63-12.82-8.07-13.77-13.49-28.74-18.9-43.68-7.15-19.75-16.39-38.49-26.78-56.71-1.1-1.94-2.53-3.83-2.13-6.31Z" transform="translate(-1.36 -1.37)"/><path class="b" d="M840.85,1.52c-27.89,16.31-58.05,22.81-90.16,21-26-1.47-51.94-3.21-77.93-4.17-25.3-.94-50.5,1.47-75.65,3.93-29.24,2.85-56.83-2.89-83.41-14.68-4.33-1.91-9.28-2.53-12.83-6.07Z" transform="translate(-1.36 -1.37)"/><path class="a" d="M1367.52,50.09c-14.93-15.12-30.37-29.81-41-48.57,12.39,0,24.79.15,37.18-.1,3.27-.07,4,.63,3.9,3.9C1367.39,20.24,1367.52,35.16,1367.52,50.09Z" transform="translate(-1.36 -1.37)"/><path class="b" d="M760.71,689.06c16.67-.38,32.74,1.93,47.89,9.42,23.66,11.71,49.56,17.47,73.92,27.34a39.77,39.77,0,0,1,13.23,8.64c2.39,2.38,4.68,4.72,3.85,8.51-.94,4.28-4.62,5.31-8,5.91a71.52,71.52,0,0,1-24.89-.23c-14.66-2.61-29.31-5.26-44.16-6.65-23.6-2.21-46.25,2.52-68.76,9-23,6.57-46.37,10.47-70.37,6.29-10.33-1.8-20-5.17-28.45-11.72-12-9.36-12.33-22.4-.69-32,11.07-9.18,24.52-13,38.07-16.12A343.25,343.25,0,0,1,760.71,689.06Z" transform="translate(-1.36 -1.37)"/><path class="b" d="M1084.59,746.52a40,40,0,0,1-23.77-6.91c-13.24-9-15-22.1-4.56-34.23a79.65,79.65,0,0,1,24.38-19c28.28-14.45,58-24.89,89.38-30a44,44,0,0,1,18.07.36c8.74,2.24,11.08,7.38,6.63,15.21-5.07,8.93-12.75,15.67-20.51,22.1-20.09,16.6-42.4,30.07-64.18,44.23C1102.16,743.45,1093.37,746.83,1084.59,746.52Z" transform="translate(-1.36 -1.37)"/></svg>