<svg xmlns="http://www.w3.org/2000/svg" viewBox="0 0 1943.05 1093.09"><defs><style>.a{fill:#ffffff;}.b{fill:#41c7f6;}</style></defs><title>1800f_00221</title><path class="a" d="M-286.86,441.68q0-297.87-.14-595.73c0-5.69,1.28-7,7-7q164.29.3,328.6.15c.16,5,.18,10.12.5,15.16,2.24,35.31,9.54,70.1,10.84,105.53,1,27.37-3.15,53.35-17.35,77.25C24.73,67.08.12,91.2-25.95,113.65q-75.36,64.89-145.72,135.08c-15.49,15.4-29.1,32.43-35.28,54.06-5.94,20.81-.46,36.56,16.95,49.22,8.86,6.43,18.58,11.25,28.63,15.48,57.51,24.23,118,25.54,179,23.48,38.18-1.29,76-6.9,114.14-8.83,32.81-1.67,65.51-4.14,97.95-10,68-12.35,121.77-47.13,163.69-101.34,12-15.57,21.17-33.19,34.17-48.13,21.06-24.18,42-48.47,61.34-74.1C526.67,98.49,563.74,47.85,606.77,2c11.81-12.56,24.38-24.33,39.85-32.4,19.12-10,35.07-7.59,50.46,7.59C711.56-8.5,721.38,8.8,728.72,27.6c6.54,16.76,10.6,34.27,15,51.66,7.37,29.05,22,53.38,44.83,73.13,28.25,24.45,61.15,39.11,96.93,48,40.15,10,81.39,12.27,122.32,16.76,22.6,2.47,45.32,4.13,67.65,8.63,13.91,2.8,16.51,9.5,8.82,21.57-6.61,10.38-15.56,18.64-25.24,26-36.8,28-76.9,50.43-118.87,69.64-20.45,9.36-41.56,17.41-60.29,30.17-31.58,21.53-39.36,45.5-26,81.09,8.9,23.68,23.33,43.68,42.32,60.23,25.3,22.06,54.1,34.26,88.39,29,33.86-5.21,50.12-19.35,57-49.84,2.61-11.57,4.75-23.31,9.08-34.42,7.57-19.42,20.52-35.38,33.89-50.9,27.93-32.43,55.24-65.25,74.48-103.91,5.75-11.55,12-22.95,20.25-32.89,18.92-22.73,45.48-29.85,73-34.33,4.78-.78,9.33,1.62,13.38,4.48,8.1,5.73,11.87,14.39,15.15,23.13,11.48,30.61,18.95,62.4,25.63,94.29,6.84,32.65,12.38,65.53,23.81,97.07,16.9,46.64,38,91.52,57.73,136.93,10.77,24.76,25.83,47,47.13,64.3,24.12,19.61,45.47,19.35,68.84-.87q16.35-14.14,32.33-28.71c23.74-21.58,51.26-35.38,82.49-42.89,27.84-6.69,37.73-23.07,33.64-51-2.69-18.32-8.12-36-12.29-53.92-6.32-27.15-11.88-54.41-8.4-82.49,2.81-22.65,10.43-43.58,24.1-62.09q0,294.83.14,589.66c0,5.69-1.28,7-7,7q-379.83-.24-759.65-.14c-.61-1.83.19-3.46.7-5.14a160.58,160.58,0,0,0,6.63-57.62c-1.19-17.54-4.51-34.57-15-49.36-10.75-15.22-25.65-17.61-40.52-6.32-8.07,6.13-13.25,14.59-17,23.78-12.7,31.48-11.57,63.08-.17,94.66H-100.17c9.37-23.5,16.52-47.75,24.55-71.71,5-14.92,11-29.33,20.51-42.08,7.25-9.72,14.46-19.49,21.36-29.47C-8.32,751.84,13.94,713.34,23.34,669c5.34-25.16,8.64-50.76,13-76.14a132.44,132.44,0,0,1,10.17-31.69c12.06-26.76,32.74-36.24,60.7-26.78C147.44,548,178.5,573.88,203.07,608c18.31,25.41,28.24,54.68,38.09,83.92,16,47.45,38.47,91.27,71.61,129.13,11.74,13.41,24.85,25.26,42.47,30.68,15.91,4.89,28.06-1.32,33.51-17.05a59.82,59.82,0,0,0,3.1-16.32c1.41-25.26-4.78-49.16-13-72.67-7.31-21-16-41.49-22.34-62.85-9.56-32.1-13.47-65.28-19.61-98-6.62-35.31-20.79-66.49-48.84-90.11C241,455.07,186.26,443.15,126.36,450,81.47,455.16,37.43,466.52-7.92,468.4c-27.28,1.12-54.53,3-81.85,1.61-47.6-2.32-94.06-12.78-141-19.94C-249.44,447.22-267.91,442.8-286.86,441.68Z" transform="translate(287.01 161.03)"/><path class="b" d="M1655.9,335.43c-13.67,18.51-21.29,39.44-24.1,62.09-3.48,28.08,2.08,55.34,8.4,82.49,4.17,17.95,9.6,35.6,12.29,53.92,4.09,27.91-5.8,44.29-33.64,51-31.23,7.51-58.75,21.31-82.49,42.89q-16,14.54-32.33,28.71c-23.37,20.22-44.72,20.48-68.84.87-21.3-17.31-36.36-39.54-47.13-64.3-19.76-45.41-40.83-90.29-57.73-136.93-11.43-31.54-17-64.42-23.81-97.07-6.68-31.89-14.15-63.68-25.63-94.29-3.28-8.74-7.05-17.4-15.15-23.13-4-2.86-8.6-5.26-13.38-4.48-27.57,4.48-54.13,11.6-73,34.33-8.27,9.94-14.5,21.34-20.25,32.89-19.24,38.66-46.55,71.48-74.48,103.91-13.37,15.52-26.32,31.48-33.89,50.9-4.33,11.11-6.47,22.85-9.08,34.42-6.87,30.49-23.13,44.63-57,49.84-34.29,5.29-63.09-6.91-88.39-29-19-16.55-33.42-36.55-42.32-60.23-13.38-35.59-5.6-59.56,26-81.09,18.73-12.76,39.84-20.81,60.29-30.17,42-19.21,82.07-41.64,118.87-69.64,9.68-7.37,18.63-15.63,25.24-26,7.69-12.07,5.09-18.77-8.82-21.57-22.33-4.5-45-6.16-67.65-8.63-40.93-4.49-82.17-6.77-122.32-16.76-35.78-8.9-68.68-23.56-96.93-48-22.81-19.75-37.46-44.08-44.83-73.13-4.42-17.39-8.48-34.9-15-51.66-7.34-18.8-17.16-36.1-31.64-50.38C681.69-38,665.74-40.35,646.62-30.37c-15.47,8.07-28,19.84-39.85,32.4-43,45.82-80.1,96.46-117.88,146.51-19.34,25.63-40.28,49.92-61.34,74.1-13,14.94-22.13,32.56-34.17,48.13-41.92,54.21-95.72,89-163.69,101.34-32.44,5.89-65.14,8.36-97.95,10-38.13,1.93-76,7.54-114.14,8.83-61,2.06-121.46.75-179-23.48-10-4.23-19.77-9.05-28.63-15.48-17.41-12.66-22.89-28.41-16.95-49.22,6.18-21.63,19.79-38.66,35.28-54.06q70.48-70.08,145.72-135.08C.12,91.2,24.73,67.08,42.56,37.06c14.2-23.9,18.36-49.88,17.35-77.25-1.3-35.43-8.6-70.22-10.84-105.53-.32-5-.34-10.11-.5-15.16H229.18c19.56,40.87,43.71,79.23,65.28,119C305.54-21.42,318.17-1.73,337,12.87c17.91,13.9,34,12.19,44.12-7.77C404-40,408.81-85.81,380.84-131.26c-6.06-9.85-13.46-18.9-18.09-29.62h655.68a11.47,11.47,0,0,0,1.58,2.49c28,26.34,59.17,48,94.9,62.72C1152-80.35,1191-71.84,1229.71-62.39c39.94,9.74,80.24,15.53,121.51,10.74,38.58-4.49,63.06-36.13,58-74.56-1.53-11.77-5.73-22.89-6.84-34.67q123.69,0,247.39-.15c5.2,0,6.23,1,6.22,6.22Q1655.77,90.31,1655.9,335.43Zm-312-180.76c11.23.11,22.06-2.39,32.75-5.45,40.17-11.47,78.22-28.6,116.9-44,8.21-3.27,16.35-6.78,23.63-11.91,11.85-8.37,12.77-14.6,1.87-24-20.57-17.81-45.4-27-71.63-32.53-22.79-4.83-43.61-.1-62.08,14.31-18.21,14.22-34,30.87-48.63,48.66-6.76,8.22-12.82,16.91-16.33,27.11-5.57,16.19,2,27.26,19,27.87C1340.88,154.72,1342.4,154.67,1343.91,154.67Z" transform="translate(287.01 161.03)"/><path class="b" d="M-286.86,441.68c18.95,1.12,37.42,5.54,56.11,8.39,46.92,7.16,93.38,17.62,141,19.94,27.32,1.34,54.57-.49,81.85-1.61,45.35-1.88,89.39-13.24,134.28-18.39,59.9-6.86,114.67,5.06,161.73,44.67,28.05,23.62,42.22,54.8,48.84,90.11,6.14,32.75,10.05,65.93,19.61,98,6.36,21.36,15,41.86,22.34,62.85,8.19,23.51,14.38,47.41,13,72.67a59.82,59.82,0,0,1-3.1,16.32c-5.45,15.73-17.6,21.94-33.51,17.05-17.62-5.42-30.73-17.27-42.47-30.68-33.14-37.86-55.62-81.68-71.61-129.13-9.85-29.24-19.78-58.51-38.09-83.92-24.57-34.1-55.63-60-95.83-73.58-28-9.46-48.64,0-60.7,26.78a132.44,132.44,0,0,0-10.17,31.69c-4.39,25.38-7.69,51-13,76.14-9.4,44.33-31.66,82.83-57.09,119.65-6.9,10-14.11,19.75-21.36,29.47-9.51,12.75-15.52,27.16-20.51,42.08-8,24-15.18,48.21-24.55,71.71q-90.45,0-180.9.1c-4.46,0-6-.66-5.94-5.67.29-32,.15-64.08.15-96.12,6.76-10.3,11.92-21.53,19.19-31.56,17.23-23.75,36.53-32.18,62.57-26,13.72,3.26,27.1,7.82,41.22,9.6,17.89,2.25,36.17-7.57,42.82-24.44,6.18-15.66,9.38-32.12,8.18-48.92-1.49-20.79-9.14-34.2-34.72-33.4-15.89.5-31.7,2.55-47.66,1.91-24.21-1-45.38-8.69-62.58-26.25-9.55-9.75-19.34-19.27-29-28.89Z" transform="translate(287.01 161.03)"/><path class="a" d="M1402.43-160.88c1.11,11.78,5.31,22.9,6.84,34.67,5,38.43-19.47,70.07-58,74.56-41.27,4.79-81.57-1-121.51-10.74-38.73-9.45-77.74-18-114.8-33.28-35.73-14.76-66.86-36.38-94.9-62.72a11.47,11.47,0,0,1-1.58-2.49Z" transform="translate(287.01 161.03)"/><path class="a" d="M362.75-160.88c4.63,10.72,12,19.77,18.09,29.62C408.81-85.81,404-40,381.1,5.1,371,25.06,354.89,26.77,337,12.87c-18.81-14.6-31.44-34.29-42.52-54.74-21.57-39.78-45.72-78.14-65.28-119Z" transform="translate(287.01 161.03)"/><path class="a" d="M-286.86,622.29c9.68,9.62,19.47,19.14,29,28.89,17.2,17.56,38.37,25.29,62.58,26.25,16,.64,31.77-1.41,47.66-1.91,25.58-.8,33.23,12.61,34.72,33.4,1.2,16.8-2,33.26-8.18,48.92-6.65,16.87-24.93,26.69-42.82,24.44-14.12-1.78-27.5-6.34-41.22-9.6-26-6.19-45.34,2.24-62.57,26-7.27,10-12.43,21.26-19.19,31.56Z" transform="translate(287.01 161.03)"/><path class="b" d="M824.15,931.92c-11.4-31.58-12.53-63.18.17-94.66,3.71-9.19,8.89-17.65,17-23.78,14.87-11.29,29.77-8.9,40.52,6.32,10.44,14.79,13.76,31.82,15,49.36a160.58,160.58,0,0,1-6.63,57.62c-.51,1.68-1.31,3.31-.7,5.14Z" transform="translate(287.01 161.03)"/><path class="a" d="M1343.91,154.67c-1.51,0-3,.05-4.55,0-17-.61-24.54-11.68-19-27.87,3.51-10.2,9.57-18.89,16.33-27.11,14.63-17.79,30.42-34.44,48.63-48.66,18.47-14.41,39.29-19.14,62.08-14.31,26.23,5.56,51.06,14.72,71.63,32.53,10.9,9.43,10,15.66-1.87,24-7.28,5.13-15.42,8.64-23.63,11.91-38.68,15.44-76.73,32.57-116.9,44C1366,152.28,1355.14,154.78,1343.91,154.67Z" transform="translate(287.01 161.03)"/></svg>