<svg xmlns="http://www.w3.org/2000/svg" viewBox="0 0 1366.28 768.28"><defs><style>.a{fill:#ffffff;}.b{fill:#41c7f6;}</style></defs><title>1800f_00082</title><path class="a" d="M1367.52,528.19v80.44c-23.58,8.72-45.14,21.17-66,35-20.06,13.32-26.9,31.71-23.21,54.94a446.75,446.75,0,0,1,5.76,70.92H182.13c1.06-2.68,3.79-3.19,5.9-4.4a152.84,152.84,0,0,1,52.76-18.29c57-9,100.24-38.41,130.71-87C385.81,637,391.87,612.67,383.74,586c-2.13-7-3.38-14.26-5.12-21.37-8.86-36.06-14.1-72.43-9.56-109.65a156.15,156.15,0,0,0,1-28c-.77-13.43-2.32-26.78-9.1-38.78-8.5-15.06-22.36-18.13-36.39-8.06-11.37,8.16-17.28,20.1-22.27,32.73-6.57,16.67-11.49,34.09-21.37,49.29-7.13,11-16.69,14.59-29.37,11.82a58.78,58.78,0,0,1-18.26-7.16A203.1,203.1,0,0,1,175.25,413q-17.83-24.25-11.53-53.84a269.56,269.56,0,0,1,12.72-41.25c10-25.77,14.63-52.18,8.51-79.46-12.57-56-44.84-93.41-102.29-106.52-8.13-1.85-16.17-4.07-24.24-6.17-3.21-.84-7.08-1.75-7.18-5.62-.11-4.07,3.67-5.71,7-7,10.39-3.84,21.08-4.59,32.1-3.69,14.13,1.15,26.78,7.2,40,11.25,22.22,6.79,44.59,11.34,67.91,6.71,16.1-3.2,30.51-10.61,44.83-18.13,39.62-20.83,79.37-41.53,114-70.33,13.36-11.1,26.54-22.53,35.92-37.51H513c.55.49,1,1.21,1.65,1.45,26.22,9.49,53.09,14.4,81.08,11.59a775.41,775.41,0,0,1,99.11-4c27.73.75,55.44,4.35,83.21,1.33,15.24-1.66,30.52-3.47,44.58-10.37h145.7c3.58,12.32,7.63,24.53,10.65,37,7,29,20.4,54.73,39.22,77.82,17.28,21.19,37.31,39.83,55.14,60.5,25.92,30,54.19,57.94,80.24,87.89,22.8,26.23,40,54.95,46.19,89.77,2.79,15.61,7.13,31,11.55,46.27,6.42,22.18,16.45,42.25,35,57.23a459.55,459.55,0,0,0,88,56.16C1345.11,519.38,1355.48,525.83,1367.52,528.19ZM703.71,751c15-.57,29.52-2.34,43.64-6.42,20.6-5.94,41-12.4,62.59-14.31,10-.89,20.13-1.76,29.74-5.07,5.87-2,7.29-6,3.1-10.16-18.72-18.38-39.12-33.26-67.09-33.8-23.91-.47-47.3,2.7-70.57,7.61C690,692.08,675,695.64,661.8,704.14c-18.59,12-17.63,27.88,1.88,38.24C676.34,749.11,690.09,750.35,703.71,751Zm382.86-13.62c7.55.48,14.93-2.15,21.94-5.75,21.82-11.21,42.89-23.69,62.52-38.45,9.89-7.43,19.84-14.91,26.61-25.58,4.94-7.77,1.85-14.67-7.4-15.79a53.22,53.22,0,0,0-15.84.25c-32.52,5.94-63.4,16.91-92.87,31.74-9.26,4.66-17.8,10.71-23.34,19.93-4.92,8.19-3.79,16.69,2.65,23.57C1067.69,734.65,1076.16,737.7,1086.57,737.42Z" transform="translate(-1.36 -1.37)"/><path class="b" d="M393.1,1.52c-9.38,15-22.56,26.41-35.92,37.51-34.67,28.8-74.42,49.5-114,70.33-14.32,7.52-28.73,14.93-44.83,18.13-23.32,4.63-45.69.08-67.91-6.71-13.25-4-25.9-10.1-40-11.25-11-.9-21.71-.15-32.1,3.69-3.36,1.24-7.14,2.88-7,7,.1,3.87,4,4.78,7.18,5.62,8.07,2.1,16.11,4.32,24.24,6.17,57.45,13.11,89.72,50.53,102.29,106.52,6.12,27.28,1.5,53.69-8.51,79.46a269.56,269.56,0,0,0-12.72,41.25Q157.4,388.8,175.25,413a203.1,203.1,0,0,0,58.05,53.76A58.78,58.78,0,0,0,251.56,474c12.68,2.77,22.24-.85,29.37-11.82,9.88-15.2,14.8-32.62,21.37-49.29,5-12.63,10.9-24.57,22.27-32.73,14-10.07,27.89-7,36.39,8.06,6.78,12,8.33,25.35,9.1,38.78a156.15,156.15,0,0,1-1,28c-4.54,37.22.7,73.59,9.56,109.65,1.74,7.11,3,14.37,5.12,21.37,8.13,26.69,2.07,51-12.24,73.84-30.47,48.6-73.71,78-130.71,87A152.84,152.84,0,0,0,188,765.12c-2.11,1.21-4.84,1.72-5.9,4.4q-87.4,0-174.81.09c-4.41,0-6-.58-5.95-5.64.32-27.49.15-55,.15-82.49a6.74,6.74,0,0,0,2.16-.57c23.67-16.2,50.24-25.6,77.51-33.56,15.76-4.6,31.19-10.14,45-19.51,25.85-17.57,33.24-40.31,22.42-69.71-6.56-17.8-14.81-34.86-22.75-52.05-11.42-24.76-19.84-50.85-33.2-74.74-6.57-11.76-14.12-22.78-25.23-30.8-20.07-14.5-45.11-18.7-65.9-31.72V252c14.92-24.06,23.4-49,12.64-77.45-5.33-14.07-3-27.67,5.72-40.22,3.55-5.1,2-8.56-4.12-9.83a32.89,32.89,0,0,0-14.24,0c0-39,.13-77.91-.15-116.87,0-5.2,1-6.22,6.22-6.22Q200.34,1.66,393.1,1.52Z" transform="translate(-1.36 -1.37)"/><path class="b" d="M1367.52,528.19c-12-2.36-22.41-8.81-33.2-14a459.55,459.55,0,0,1-88-56.16c-18.57-15-28.6-35.05-35-57.23-4.42-15.27-8.76-30.66-11.55-46.27-6.2-34.82-23.39-63.54-46.19-89.77-26-30-54.32-57.84-80.24-87.89-17.83-20.67-37.86-39.31-55.14-60.5C999.39,93.24,986,67.55,979,38.51c-3-12.46-7.07-24.67-10.65-37h173A14.71,14.71,0,0,0,1142.75,5c20.2,27.2,35,57.13,46.33,89,2.24,6.33,5.14,12.67,10.56,17.3,8.37,7.18,18.76,6.5,23.45-2,2.46-4.45,2.93-9.5,2.17-14.7-2-13.33-7.17-25.71-10.83-38.55a111,111,0,0,1-1.73-54.51h98.66c.47,3.08,3.08,4.42,5.08,6.26l51.08,46.86Z" transform="translate(-1.36 -1.37)"/><path class="a" d="M1.52,368.82c20.79,13,45.83,17.22,65.9,31.72,11.11,8,18.66,19,25.23,30.8,13.36,23.89,21.78,50,33.2,74.74,7.94,17.19,16.19,34.25,22.75,52.05,10.82,29.4,3.43,52.14-22.42,69.71-13.8,9.37-29.23,14.91-45,19.51-27.27,8-53.84,17.36-77.51,33.56a6.74,6.74,0,0,1-2.16.57Z" transform="translate(-1.36 -1.37)"/><path class="b" d="M1284,769.52a446.75,446.75,0,0,0-5.76-70.92c-3.69-23.23,3.15-41.62,23.21-54.94,20.89-13.86,42.45-26.31,66-35,0,51.86-.08,103.72.13,155.57,0,4.53-.91,5.5-5.45,5.45C1336.15,769.38,1310.1,769.52,1284,769.52Z" transform="translate(-1.36 -1.37)"/><path class="a" d="M1212.7,1.52A111,111,0,0,0,1214.43,56c3.66,12.84,8.88,25.22,10.83,38.55.76,5.2.29,10.25-2.17,14.7-4.69,8.5-15.08,9.18-23.45,2-5.42-4.63-8.32-11-10.56-17.3-11.28-31.87-26.13-61.8-46.33-89a14.71,14.71,0,0,1-1.38-3.46Z" transform="translate(-1.36 -1.37)"/><path class="b" d="M822.64,1.52c-14.06,6.9-29.34,8.71-44.58,10.37-27.77,3-55.48-.58-83.21-1.33a775.41,775.41,0,0,0-99.11,4c-28,2.81-54.86-2.1-81.08-11.59-.64-.24-1.1-1-1.65-1.45Z" transform="translate(-1.36 -1.37)"/><path class="a" d="M1.52,124.46a32.89,32.89,0,0,1,14.24,0c6.08,1.27,7.67,4.73,4.12,9.83-8.72,12.55-11,26.15-5.72,40.22C24.92,203,16.44,227.89,1.52,252Z" transform="translate(-1.36 -1.37)"/><path class="a" d="M1367.52,54.64,1316.44,7.78c-2-1.84-4.61-3.18-5.08-6.26,17.33,0,34.67.13,52-.1,3.53,0,4.32.65,4.27,4.24C1367.38,22,1367.52,38.31,1367.52,54.64Z" transform="translate(-1.36 -1.37)"/><path class="b" d="M703.71,751c-13.62-.69-27.37-1.93-40-8.66-19.51-10.36-20.47-26.23-1.88-38.24,13.15-8.5,28.21-12.06,43.32-15.25,23.27-4.91,46.66-8.08,70.57-7.61,28,.54,48.37,15.42,67.09,33.8,4.19,4.11,2.77,8.13-3.1,10.16-9.61,3.31-19.71,4.18-29.74,5.07-21.54,1.91-42,8.37-62.59,14.31C733.23,748.7,718.7,750.47,703.71,751Z" transform="translate(-1.36 -1.37)"/><path class="b" d="M1086.57,737.42c-10.41.28-18.88-2.77-25.73-10.08-6.44-6.88-7.57-15.38-2.65-23.57,5.54-9.22,14.08-15.27,23.34-19.93C1111,669,1141.88,658,1174.4,652.1a53.22,53.22,0,0,1,15.84-.25c9.25,1.12,12.34,8,7.4,15.79-6.77,10.67-16.72,18.15-26.61,25.58-19.63,14.76-40.7,27.24-62.52,38.45C1101.5,735.27,1094.12,737.9,1086.57,737.42Z" transform="translate(-1.36 -1.37)"/></svg>