<svg xmlns="http://www.w3.org/2000/svg" viewBox="0 0 1943.09 1093.11"><defs><style>.a{fill:#ffffff;}.b{fill:#41c7f6;}</style></defs><title>1800f_00175</title><path class="a" d="M145.71-160.88H1161.1a16.18,16.18,0,0,0,1.52,3.35c45.23,59,85.2,121.34,116.36,188.87,27.53,59.67,69.53,107.49,117.51,150.94,16,14.45,32.64,27.93,50.84,39.53,25.05,15.95,51.87,23.22,81.63,18.42,17.46-2.82,35-5.4,52.56-7.16,17.11-1.71,34.47-2.88,50.87,4.12,12.54,5.36,14.51,16,5.34,26.12-5.52,6.07-12.39,10.35-19.49,14.28-21.27,11.78-43.82,20.87-65.84,31.07a96.85,96.85,0,0,0-35.94,28.42c-14.31,18.2-25.12,38.52-35.86,58.87-26.92,51-54.86,101.44-87.91,148.81-25,35.82-52.93,69.09-88.15,95.49-26.89,20.15-56.47,32.89-90.94,29-22.59-2.57-37-11.13-28.14-39.52,1.89-6,4-12,6-18,2.86-8.37,6-16.66,8.63-25.09,7.74-24.5,5.85-48.14-8.32-69.84-21.7-33.24-50.25-60.08-82.2-83.11-17.67-12.73-37.53-14-57.6-4.5-7.77,3.67-15.43,7.61-23.4,10.79s-13.15.65-16-7.47c-2.33-6.74-2.79-13.82-3.21-20.9-1-16.39-1.49-32.89-6-48.8-8.08-28.45-25.88-37-53.23-25.8-.94.38-1.86.81-2.78,1.21-16.56,7.22-31.29,17.55-46.32,27.35a383.9,383.9,0,0,1-35.92,21.18c-27.89,14.17-56.5,11.79-84.84,2.46-30.49-10-60.42-21.73-90.84-32-20.13-6.79-40.66-12.38-62.32-11.23-25.91,1.37-38,17.79-31,42.57,5.05,17.73,15.68,32.38,28.31,45.23C683,493.31,753.27,532.63,833.65,554c42,11.16,84.57,18.53,128.1,9.06,18.61-4,32.56,2.76,43.86,17,1.42,1.78,2.95,3.46,4.4,5.21,17.11,20.79,36.13,39.56,57.89,55.53,9.37,6.87,18.82,13.75,27.45,21.5,16.9,15.15,16.89,30.47,1,47-9.79,10.22-22.28,15.8-35.17,20.27a471.31,471.31,0,0,0-97.41,47.14c-10.45,6.6-21.6,12.11-32.53,17.94a106.4,106.4,0,0,1-67.51,11.69c-36.08-5.35-68.88,1.22-96.27,27.22-21.64,20.55-29.79,44.94-15.56,73.83,4.52,9.17,10.82,17,17.57,24.55h-425c-5.43-4.66-11.77-7.84-18.14-10.89-30.65-14.68-63.68-19.22-97-22.56-34.2-3.43-68.33-7.07-102.15-13.59C87,877.12,59.66,856.56,50,814.91c-4.73-20.4-11.75-40.26-19.51-59.8C7.15,696.27-29.67,648.49-83.86,614.74c-12.65-7.88-25.1-16.2-36-26.47-15.46-14.55-16.35-22.75-4.25-40.13,10.54-15.13,22.53-29.23,31.82-45.26,27-46.62,38.94-96.53,29.86-150-7.55-44.49-30.44-77.45-76.62-89.1-15.54-3.92-24.29-13.46-29.09-27.83-7.63-22.87-7.9-46.2-3.84-69.68,3.22-18.67,7.17-37.2,8.15-56.21,1.44-28.19-4.31-55.42-11.51-82.29-9.45-35.31-2.24-66.41,20.58-94.49,23-28.28,49.21-51.65,86.66-58.48,21.18-3.87,42.65-5,64.06-6.55C34-134.52,72.16-137,109.17-147.26,121.68-150.72,134.64-153.37,145.71-160.88Z" transform="translate(287.04 161.05)"/><path class="b" d="M769.51,931.92c-6.75-7.55-13-15.38-17.57-24.55-14.23-28.89-6.08-53.28,15.56-73.83,27.39-26,60.19-32.57,96.27-27.22a106.4,106.4,0,0,0,67.51-11.69c10.93-5.83,22.08-11.34,32.53-17.94a471.31,471.31,0,0,1,97.41-47.14c12.89-4.47,25.38-10,35.17-20.27,15.85-16.53,15.86-31.85-1-47-8.63-7.75-18.08-14.63-27.45-21.5-21.76-16-40.78-34.74-57.89-55.53-1.45-1.75-3-3.43-4.4-5.21-11.3-14.24-25.25-21-43.86-17-43.53,9.47-86.07,2.1-128.1-9.06C753.27,532.63,683,493.31,624.48,433.8c-12.63-12.85-23.26-27.5-28.31-45.23-7-24.78,5.08-41.2,31-42.57,21.66-1.15,42.19,4.44,62.32,11.23,30.42,10.25,60.35,21.94,90.84,32,28.34,9.33,56.95,11.71,84.84-2.46a383.9,383.9,0,0,0,35.92-21.18c15-9.8,29.76-20.13,46.32-27.35.92-.4,1.84-.83,2.78-1.21,27.35-11.16,45.15-2.65,53.23,25.8,4.52,15.91,5,32.41,6,48.8.42,7.08.88,14.16,3.21,20.9,2.81,8.12,7.93,10.69,16,7.47s15.63-7.12,23.4-10.79c20.07-9.48,39.93-8.23,57.6,4.5,32,23,60.5,49.87,82.2,83.11,14.17,21.7,16.06,45.34,8.32,69.84-2.66,8.43-5.77,16.72-8.63,25.09-2,6-4.13,11.94-6,18-8.91,28.39,5.55,36.95,28.14,39.52,34.47,3.92,64.05-8.82,90.94-29,35.22-26.4,63.16-59.67,88.15-95.49,33-47.37,61-97.79,87.91-148.81,10.74-20.35,21.55-40.67,35.86-58.87a96.85,96.85,0,0,1,35.94-28.42c22-10.2,44.57-19.29,65.84-31.07,7.1-3.93,14-8.21,19.49-14.28,9.17-10.08,7.2-20.76-5.34-26.12-16.4-7-33.76-5.83-50.87-4.12-17.58,1.76-35.1,4.34-52.56,7.16-29.76,4.8-56.58-2.47-81.63-18.42-18.2-11.6-34.89-25.08-50.84-39.53-48-43.45-90-91.27-117.51-150.94-31.16-67.53-71.13-129.88-116.36-188.87a16.18,16.18,0,0,1-1.52-3.35h167c-.51,2.93,1,5.44,1.86,8a333,333,0,0,0,39.26,78.45c20.27,30.06,44.9,55.34,78.9,69.92,29.25,12.54,60.15,16.85,91.66,18.23,34.14,1.49,63.56-9.35,88.36-32.9,10.09-9.58,18.2-20.92,27.8-30.93V476.58c-2.52,4.37-5.09,8.7-7.53,13.11-16,29-30.75,58.45-38.4,90.94-2.83,12.07-4.81,24.28-3.82,36.7,2.21,27.75,13.78,47.73,49.75,49q0,129.77.14,259.54c0,5.19-1,6.21-6.22,6.21Q1209.68,931.82,769.51,931.92Z" transform="translate(287.04 161.05)"/><path class="b" d="M145.71-160.88c-11.07,7.51-24,10.16-36.54,13.62C72.16-137,34-134.52-4-131.77c-21.41,1.55-42.88,2.68-64.06,6.55-37.45,6.83-63.67,30.2-86.66,58.48-22.82,28.08-30,59.18-20.58,94.49,7.2,26.87,12.95,54.1,11.51,82.29-1,19-4.93,37.54-8.15,56.21-4.06,23.48-3.79,46.81,3.84,69.68,4.8,14.37,13.55,23.91,29.09,27.83,46.18,11.65,69.07,44.61,76.62,89.1,9.08,53.49-2.83,103.4-29.86,150-9.29,16-21.28,30.13-31.82,45.26-12.1,17.38-11.21,25.58,4.25,40.13,10.91,10.27,23.36,18.59,36,26.47,54.19,33.75,91,81.53,114.37,140.37,7.76,19.54,14.78,39.4,19.51,59.8,9.64,41.65,37,62.21,77.27,70,33.82,6.52,68,10.16,102.15,13.59,33.28,3.34,66.31,7.88,97,22.56,6.37,3.05,12.71,6.23,18.14,10.89q-312.42,0-624.82.11c-5.09,0-6.77-.57-6.76-6.42q.38-144.83.18-289.66c4.87-9.89,9.91-19.7,14.57-29.69,7.06-15.16,2.29-23.17-14.57-25q0-367.81-.12-735.65c0-5.19.72-6.72,6.47-6.71Q-67.4-160.74,145.71-160.88Z" transform="translate(287.04 161.05)"/><path class="a" d="M1655.9-50.08c-9.6,10-17.71,21.35-27.8,30.93-24.8,23.55-54.22,34.39-88.36,32.9-31.51-1.38-62.41-5.69-91.66-18.23-34-14.58-58.63-39.86-78.9-69.92a333,333,0,0,1-39.26-78.45c-.88-2.59-2.37-5.1-1.86-8q160.88,0,321.76-.15c5.2,0,6.27,1,6.23,6.22C1655.75-119.9,1655.9-85,1655.9-50.08Z" transform="translate(287.04 161.05)"/><path class="a" d="M1655.9,666.31c-36-1.25-47.54-21.23-49.75-49-1-12.42,1-24.63,3.82-36.7,7.65-32.49,22.41-62,38.4-90.94,2.44-4.41,5-8.74,7.53-13.11Z" transform="translate(287.04 161.05)"/><path class="a" d="M-286.86,581.31c16.86,1.78,21.63,9.79,14.57,25-4.66,10-9.7,19.8-14.57,29.69Z" transform="translate(287.04 161.05)"/></svg>