<svg xmlns="http://www.w3.org/2000/svg" viewBox="0 0 1943.29 1093.06"><defs><style>.a{fill:#ffffff;}.b{fill:#41c7f6;}</style></defs><title>1800f_00243</title><path class="a" d="M1655.9,292.93v7.59c-6.39,10.45-14.89,19-24.09,26.93-30.23,26.17-59.72,53.08-85.93,83.43-33.38,38.68-59.11,81.21-70.13,131.82-6.51,29.91-10.58,60.21-15.76,90.34-4.27,24.9-11.65,48.67-27,69.29-15.68,21-35.61,25.32-58.39,12.33-9.84-5.62-17.5-13.63-23.87-22.91-14.93-21.78-15.59-45.86-11.23-70.7,3.11-17.65,8.38-34.92,9.64-52.9,1.81-25.91-4.59-50.25-15.15-73.54a203.47,203.47,0,0,1-18.39-92.05c.81-25.74-.54-51.57-1.43-77.34-1.17-33.83-13.79-62.39-40.49-84-23.1-18.68-49.11-31.93-77.49-40.49-20.56-6.19-41.53-8.59-62.94-5.55-27.92,4-51.43,17.34-73.26,34.34a318,318,0,0,1-32,21.6c-27.06,16.23-55.59,19.43-85.19,9.15a211.4,211.4,0,0,0-79.7-11.63c-2.5.12-5-.41-7.55-.55-18.67-1-37.39-2.62-55.8,2.37C779.08,256.07,770,270,774.13,290.84c4.71,23.65,18.53,42.39,34.17,59.86,24.2,27.06,53.68,47.44,84.45,66.21,15.54,9.48,31.06,19.11,40.42,35.71,6.63,11.76,7.79,24.94,10.28,37.8,4.69,24.15,16.68,34.48,41.32,36.55,19.67,1.66,38.73-2,57.87-5.57s37.77-9.77,57.4-10.11c16.87-.28,23.93,8.59,20.72,25.24s-11.81,30.58-22.63,43.18c-36.07,42-79.93,74-128.65,99.9-30.42,16.15-62.64,23.72-97,23.42-29.1-.25-58.07-3-87.11-4.16-31.32-1.24-62.66-3.17-93.89,1-12.57,1.7-24.86,4.63-36,11.21s-12.6,17-3.73,26.52a69.85,69.85,0,0,0,12.79,10.66C687,763,711.51,773,737.07,780.68c45.38,13.59,90.17,13.09,134.3-5.29,10.49-4.37,20.82-9.21,31.84-12.23,15.86-4.36,29.84.53,39.38,13.86a67.76,67.76,0,0,1,10.64,23.32c7.08,28.35,3.82,56.74.56,85.17-1.78,15.54-6,30.72-6.7,46.41H420.42c-10-8.94-22-14.93-33.29-21.94-65.18-40.47-127-85.67-187.65-132.57-22.07-17.08-39.41-39.21-59.59-58.35C110,690.75,75.66,671.35,35.1,662.68c-37.32-8-74.93-14.48-112.26-22.38-15.83-3.34-31.72-6.71-46.11-14.55-11.21-6.1-14.11-13.37-9.62-25.24A152.94,152.94,0,0,1-123,580.06c10-17.75,7.2-33.78-5.4-49.07-8.39-10.18-17.74-19.41-27.14-28.6a143.37,143.37,0,0,1-23-29.11c-23-38.51-32.11-81.07-35.17-125.11C-216.77,303-209,259-197.95,215.43c9.8-38.56,17.87-77.38,15.69-117.54-1.36-25.15-5.14-49.88-16.43-72.73-18.41-37.23-29-77.07-38.68-117.08-6.35-26.18,1.54-48.48,24.13-64.6,1.54-1.1,3.71-1.89,3.79-4.36h1835c-.15,9.68,1.78,19.11,3.76,28.5A272.74,272.74,0,0,1,1628.53-15C1623.78,6,1613,22.41,1591.87,31a60.32,60.32,0,0,0-25.68,19.54c-19.91,26.33-25.9,56.5-18.3,87.65,13.37,54.81,37.7,103.45,87.85,134.85C1643.85,278.07,1651.68,283.76,1655.9,292.93ZM680.06,173.06c22.45.13,36.51-3.9,49.91-14.58a411.18,411.18,0,0,0,90.92-101,90.14,90.14,0,0,0,13.39-34.42c4.6-29-13.52-51.3-42.72-52a215.13,215.13,0,0,0-28,1.15c-14.57,1.53-29.21,3.15-43.83,3.27-43.76.37-87.53-.44-131.28.13-31.19.41-54.9-11.72-72.58-37.37-8-11.56-16.5-23-28.59-31C484-95,480.5-96.6,476.7-94.35s-3.14,6.09-2.89,9.57a25.58,25.58,0,0,0,1.46,6.61c4.92,14.09,13.59,25.86,23.34,36.86,8.87,10,18.16,19.66,25.44,31C535.38,7.31,542.07,27,549,46.51c13.13,37.13,32.31,70.16,62.27,96.36C632.56,161.51,657.11,172,680.06,173.06ZM146.46,581.55a517.23,517.23,0,0,0,55.24-3c40.56-4.32,80.72-10.75,118.4-27.34,20.09-8.85,40.44-17.58,56.93-32.67,11.41-10.44,9.64-18.64-4.87-24.67-27.77-11.52-57-10.85-85.87-7.94a665,665,0,0,1-115,1.78c-34.49-2.48-68.77-1.2-102,9.73-17.92,5.89-34.62,14.17-47.66,28.43-9.87,10.79-9.42,19.86,1.85,29,5.95,4.84,13,7.68,20.16,10.32C76.86,577.55,111.33,581.63,146.46,581.55ZM572.69,416a48.88,48.88,0,0,0-3-19.38c-3.71-10.5-12.66-15.18-23.46-12.34a70.48,70.48,0,0,0-23.68,11.61c-20.66,15.05-37.17,34.13-52.21,54.5-7.91,10.7-17.09,20.72-21.7,33.54-3,8.4-.05,14,8.27,17.3,9.05,3.55,18.6,4.81,28.1,5.55,27,2.1,50.81-4.45,67.53-27.47C566.15,460.5,571.49,438.85,572.69,416Z" transform="translate(287.01 161.04)"/><path class="b" d="M947.09,931.92c.71-15.69,4.92-30.87,6.7-46.41,3.26-28.43,6.52-56.82-.56-85.17A67.76,67.76,0,0,0,942.59,777c-9.54-13.33-23.52-18.22-39.38-13.86-11,3-21.35,7.86-31.84,12.23-44.13,18.38-88.92,18.88-134.3,5.29C711.51,773,687,763,664.62,748.31a69.85,69.85,0,0,1-12.79-10.66c-8.87-9.5-7.39-19.94,3.73-26.52s23.4-9.51,36-11.21c31.23-4.22,62.57-2.29,93.89-1,29,1.14,58,3.91,87.11,4.16,34.31.3,66.53-7.27,97-23.42,48.72-25.87,92.58-57.86,128.65-99.9,10.82-12.6,19.42-26.52,22.63-43.18S1116.91,511,1100,511.29c-19.63.34-38.3,6.53-57.4,10.11s-38.2,7.23-57.87,5.57c-24.64-2.07-36.63-12.4-41.32-36.55-2.49-12.86-3.65-26-10.28-37.8-9.36-16.6-24.88-26.23-40.42-35.71C862,398.14,832.5,377.76,808.3,350.7c-15.64-17.47-29.46-36.21-34.17-59.86-4.15-20.85,5-34.77,25.59-40.36,18.41-5,37.13-3.37,55.8-2.37,2.52.14,5.05.67,7.55.55a211.4,211.4,0,0,1,79.7,11.63c29.6,10.28,58.13,7.08,85.19-9.15a318,318,0,0,0,32-21.6c21.83-17,45.34-30.36,73.26-34.34,21.41-3,42.38-.64,62.94,5.55,28.38,8.56,54.39,21.81,77.49,40.49,26.7,21.59,39.32,50.15,40.49,84,.89,25.77,2.24,51.6,1.43,77.34A203.47,203.47,0,0,0,1334,494.61c10.56,23.29,17,47.63,15.15,73.54-1.26,18-6.53,35.25-9.64,52.9-4.36,24.84-3.7,48.92,11.23,70.7,6.37,9.28,14,17.29,23.87,22.91,22.78,13,42.71,8.72,58.39-12.33,15.37-20.62,22.75-44.39,27-69.29,5.18-30.13,9.25-60.43,15.76-90.34,11-50.61,36.75-93.14,70.13-131.82,26.21-30.35,55.7-57.26,85.93-83.43,9.2-8,17.7-16.48,24.09-26.93q0,312.28-.1,624.57c0,2.22,1.75,5.14-1.42,6.83-9.84-7.46-19.78-14.8-29.51-22.4-37.7-29.44-77.43-54.91-124.34-67.58-22.22-6-44.39-10-67.26-5.39-22.18,4.52-40.39,17-57.64,30.75-19.57,15.56-38.57,31.73-61.38,42.71-14.31,6.89-28.86,13.41-42.35,21.91Z" transform="translate(287.01 161.04)"/><path class="b" d="M-209.45-160.88c-.08,2.47-2.25,3.26-3.79,4.36-22.59,16.12-30.48,38.42-24.13,64.6,9.69,40,20.27,79.85,38.68,117.08C-187.4,48-183.62,72.74-182.26,97.89c2.18,40.16-5.89,79-15.69,117.54C-209,259-216.77,303-213.63,348.17c3.06,44,12.15,86.6,35.17,125.11a143.37,143.37,0,0,0,23,29.11c9.4,9.19,18.75,18.42,27.14,28.6,12.6,15.29,15.4,31.32,5.4,49.07a152.94,152.94,0,0,0-9.92,20.45c-4.49,11.87-1.59,19.14,9.62,25.24C-108.88,633.59-93,637-77.16,640.3c37.33,7.9,74.94,14.4,112.26,22.38,40.56,8.67,74.93,28.07,104.79,56.38,20.18,19.14,37.52,41.27,59.59,58.35C260.1,824.31,322,869.51,387.13,910c11.28,7,23.27,13,33.29,21.94H-98.66c-4.93-6.9-11.77-11.77-18.47-16.63-38.6-28.06-80.52-50.3-123.92-69.82-14.7-6.62-29.66-12.8-45.81-15.24q0-492.15-.14-984.28c0-5.69,1.27-7.08,7-7C-256.51-160.67-233-160.88-209.45-160.88Z" transform="translate(287.01 161.04)"/><path class="b" d="M1655.9,292.93c-4.22-9.17-12.05-14.86-20.16-19.94-50.15-31.4-74.48-80-87.85-134.85-7.6-31.15-1.61-61.32,18.3-87.65A60.32,60.32,0,0,1,1591.87,31C1613,22.41,1623.78,6,1628.53-15a272.74,272.74,0,0,0,.77-117.35c-2-9.39-3.91-18.82-3.76-28.5,9.11,0,18.22.13,27.32-.09,2.64-.06,3.56.48,3.07,3.13a21.77,21.77,0,0,0,0,3.79Z" transform="translate(287.01 161.04)"/><path class="a" d="M1271.9,931.92c13.49-8.5,28-15,42.35-21.91,22.81-11,41.81-27.15,61.38-42.71,17.25-13.71,35.46-26.23,57.64-30.75,22.87-4.65,45-.61,67.26,5.39,46.91,12.67,86.64,38.14,124.34,67.58,9.73,7.6,19.67,14.94,29.51,22.4Z" transform="translate(287.01 161.04)"/><path class="a" d="M-286.86,830.23c16.15,2.44,31.11,8.62,45.81,15.24,43.4,19.52,85.32,41.76,123.92,69.82,6.7,4.86,13.54,9.73,18.47,16.63q-91.2,0-182.41.1c-4.46,0-6-.65-5.94-5.67C-286.72,894.31-286.86,862.27-286.86,830.23Z" transform="translate(287.01 161.04)"/><path class="b" d="M680.06,173.06c-22.95-1.09-47.5-11.55-68.82-30.19-30-26.2-49.14-59.23-62.27-96.36-6.9-19.52-13.59-39.2-24.92-56.83-7.28-11.33-16.57-21-25.44-31-9.75-11-18.42-22.77-23.34-36.86a25.58,25.58,0,0,1-1.46-6.61c-.25-3.48-.85-7.36,2.89-9.57S484-95,487.27-92.82c12.09,8,20.62,19.46,28.59,31C533.54-36.15,557.25-24,588.44-24.43c43.75-.57,87.52.24,131.28-.13,14.62-.12,29.26-1.74,43.83-3.27a215.13,215.13,0,0,1,28-1.15c29.2.74,47.32,23,42.72,52a90.14,90.14,0,0,1-13.39,34.42,411.18,411.18,0,0,1-90.92,101C716.57,169.16,702.51,173.19,680.06,173.06Z" transform="translate(287.01 161.04)"/><path class="b" d="M146.46,581.55c-35.13.08-69.6-4-102.76-16.29-7.12-2.64-14.21-5.48-20.16-10.32-11.27-9.17-11.72-18.24-1.85-29,13-14.26,29.74-22.54,47.66-28.43,33.2-10.93,67.48-12.21,102-9.73a665,665,0,0,0,115-1.78c28.83-2.91,58.1-3.58,85.87,7.94,14.51,6,16.28,14.23,4.87,24.67-16.49,15.09-36.84,23.82-56.93,32.67-37.68,16.59-77.84,23-118.4,27.34A517.23,517.23,0,0,1,146.46,581.55Z" transform="translate(287.01 161.04)"/><path class="b" d="M572.69,416c-1.2,22.85-6.54,44.5-20.19,63.31-16.72,23-40.57,29.57-67.53,27.47-9.5-.74-19.05-2-28.1-5.55-8.32-3.26-11.3-8.9-8.27-17.3,4.61-12.82,13.79-22.84,21.7-33.54,15-20.37,31.55-39.45,52.21-54.5a70.48,70.48,0,0,1,23.68-11.61c10.8-2.84,19.75,1.84,23.46,12.34A48.88,48.88,0,0,1,572.69,416Z" transform="translate(287.01 161.04)"/></svg>