<svg xmlns="http://www.w3.org/2000/svg" viewBox="0 0 1943.07 1093.07"><defs><style>.a{fill:#ffffff;}.b{fill:#41c7f6;}</style></defs><title>1800f_00333</title><path class="a" d="M-286.86,576.76v-173c2.7-.6,5.44-1.07,8.1-1.82,30.66-8.65,61.38-17.27,93.26-20,21.39-1.86,42.88-2.56,64.32-4,18.87-1.24,35.8-7.42,48.3-22.13,29.56-34.8,47.51-74.91,53.16-120.3,2.94-23.57,2.23-47.47,6.13-71C-9.5,139.84,0,118.05,20.06,101.93c18.41-14.79,36.53-12.21,49.82,7.43a88.93,88.93,0,0,1,15.51,51.5c-.07,10.87-.81,21.75-.67,32.61.27,19.43,8.22,29.28,27,34.13,15.65,4.05,31.66,4.35,47.49,2.48,52.43-6.2,104.9-12.13,157.08-20.37,50-7.89,97.9-21.92,139.75-51.21a584.86,584.86,0,0,0,94.15-82.16c17.69-19.12,30.38-41,36.55-66.38,3.7-15.22,7.66-30.41,10.53-45.79,3.44-18.49,4.7-37.22-.73-55.62C590-113.52,574-122.57,551.59-117.36c-19.3,4.48-36.33,14.12-52.6,24.76-36.81,24.08-76.28,41.48-119.31,50.88-30.92,6.75-62.2,11-93.6,14.47-29.61,3.3-59.1,8.35-89.11,4.5-19.06-2.44-38.17-4.36-56.52-10.53C123.12-39.11,112.16-50.42,109.54-69c-2.25-15.9-1.64-31.72.78-47.58,2.35-15.34,8.56-29.52,12.62-44.34H883.35c.41,8.32-2.41,15.88-5.51,23.38-6.65,16.16-18.82,28-31.24,39.56A481.69,481.69,0,0,0,782-23.69C775.26-14.19,768.76-4.52,765.86,7c-3.22,12.72.71,21.64,12.23,27.85a55.4,55.4,0,0,0,12.66,5c28.35,7.22,55.62,2.83,82.38-7.48,18.71-7.2,35.87-17.52,53.59-26.69s36.34-13,55.82-8.82q56.28,12.21,112.64,24c49.93,10.52,99.51,22.67,149.31,33.81,55.85,12.5,112.85,16.65,169.56,22.9,27.09,3,53.2,9.57,77,23.58,31.85,18.77,42,41.16,33.36,77.15-7.77,32.41-16.33,64.64-21.26,97.65-4,27.06-15,51.18-30.17,73.71-15.53,23.09-32.15,45.37-49.46,67.12-42.72,53.67-83.42,108.64-115.07,169.85-17.66,34.16-39.69,65.21-70.17,89.47-13.66,10.88-22.58,25.13-28.62,41.23-11.22,29.92-11.88,60.31-2.54,90.76,13.34,43.53,41.19,77.18,74.13,107.21,6.3,5.75,13,11.08,19.52,16.6H68.3c.36-2.26-1.17-3.8-2.22-5.46-14.47-22.89-30.74-44.42-48-65.27a193.67,193.67,0,0,0-82.93-59c-29.46-11-55.26-28.27-78.31-49.46-50.28-46.23-94.51-97.57-130.35-155.91C-277.73,590-281,582.5-286.86,576.76Z" transform="translate(287.01 161.01)"/><path class="b" d="M1300.74,931.92c-6.52-5.52-13.22-10.85-19.52-16.6-32.94-30-60.79-63.68-74.13-107.21-9.34-30.45-8.68-60.84,2.54-90.76,6-16.1,15-30.35,28.62-41.23,30.48-24.26,52.51-55.31,70.17-89.47,31.65-61.21,72.35-116.18,115.07-169.85,17.31-21.75,33.93-44,49.46-67.12,15.15-22.53,26.12-46.65,30.17-73.71,4.93-33,13.49-65.24,21.26-97.65,8.62-36-1.51-58.38-33.36-77.15-23.77-14-49.88-20.6-77-23.58-56.71-6.25-113.71-10.4-169.56-22.9-49.8-11.14-99.38-23.29-149.31-33.81Q1038.82,9,982.54-3.13c-19.48-4.22-38.17-.32-55.82,8.82s-34.88,19.49-53.59,26.69c-26.76,10.31-54,14.7-82.38,7.48a55.4,55.4,0,0,1-12.66-5C766.57,28.64,762.64,19.72,765.86,7c2.9-11.52,9.4-21.19,16.14-30.69a481.69,481.69,0,0,1,64.6-74.25c12.42-11.56,24.59-23.4,31.24-39.56,3.1-7.5,5.92-15.06,5.51-23.38q383,0,766-.13c5.19,0,6.72.72,6.72,6.47q-.33,219.95-.17,439.88c-5.62-1.86-9.53-6.42-14.6-9.18-12.29-6.7-25-10.86-39.22-8-26.91,5.36-58.83,35.05-50.11,79.19,3.66,18.57,8.79,36.93,9.52,56,1.17,30.11-9.53,57-23.65,82.78-12.87,23.53-27.33,46.11-41.51,68.84-34.16,54.75-53.92,113.36-50.08,178.75,1.58,26.89,10,51.31,30.3,69,51.29,44.81,109.12,70.84,179.35,56.38,0,22.27-.22,44.53.15,66.78.09,5.22-1,6.23-6.23,6.22Q1475.28,931.78,1300.74,931.92Z" transform="translate(287.01 161.01)"/><path class="b" d="M122.94-160.88c-4.06,14.82-10.27,29-12.62,44.34-2.42,15.86-3,31.68-.78,47.58,2.62,18.54,13.58,29.85,30.91,35.68,18.35,6.17,37.46,8.09,56.52,10.53,30,3.85,59.5-1.2,89.11-4.5,31.4-3.51,62.68-7.72,93.6-14.47,43-9.4,82.5-26.8,119.31-50.88,16.27-10.64,33.3-20.28,52.6-24.76,22.43-5.21,38.4,3.84,44.91,25.91,5.43,18.4,4.17,37.13.73,55.62C594.36-20.45,590.4-5.26,586.7,10c-6.17,25.41-18.86,47.26-36.55,66.38A584.86,584.86,0,0,1,456,158.5c-41.85,29.29-89.73,43.32-139.75,51.21C264.07,218,211.6,223.88,159.17,230.08c-15.83,1.87-31.84,1.57-47.49-2.48-18.74-4.85-26.69-14.7-27-34.13-.14-10.86.6-21.74.67-32.61a88.93,88.93,0,0,0-15.51-51.5c-13.29-19.64-31.41-22.22-49.82-7.43C0,118.05-9.5,139.84-13.59,164.53c-3.9,23.49-3.19,47.39-6.13,71-5.65,45.39-23.6,85.5-53.16,120.3-12.5,14.71-29.43,20.89-48.3,22.13-21.44,1.4-42.93,2.1-64.32,4-31.88,2.76-62.6,11.38-93.26,20-2.66.75-5.4,1.22-8.1,1.82V-160.88Z" transform="translate(287.01 161.01)"/><path class="a" d="M1655.9,859.06c-70.23,14.46-128.06-11.57-179.35-56.38-20.28-17.72-28.72-42.14-30.3-69-3.84-65.39,15.92-124,50.08-178.75,14.18-22.73,28.64-45.31,41.51-68.84,14.12-25.82,24.82-52.67,23.65-82.78-.73-19-5.86-37.39-9.52-56-8.72-44.14,23.2-73.83,50.11-79.19,14.22-2.83,26.93,1.33,39.22,8,5.07,2.76,9,7.32,14.6,9.18Z" transform="translate(287.01 161.01)"/><path class="b" d="M-286.86,576.76c5.86,5.74,9.13,13.23,13.33,20.06,35.84,58.34,80.07,109.68,130.35,155.91,23.05,21.19,48.85,38.46,78.31,49.46a193.67,193.67,0,0,1,82.93,59c17.28,20.85,33.55,42.38,48,65.27,1,1.66,2.58,3.2,2.22,5.46q-174.54,0-349.09.14c-5.2,0-6.22-1-6.22-6.21Q-286.73,751.3-286.86,576.76Z" transform="translate(287.01 161.01)"/></svg>