<svg xmlns="http://www.w3.org/2000/svg" viewBox="0 0 1943.06 1093.12"><defs><style>.a{fill:#ffffff;}.b{fill:#41c7f6;}</style></defs><title>1800f_00187</title><path class="a" d="M-286.86,827.19V678.45c46.66-29.76,93.18-59.74,140-89.16,20-12.55,41.55-20.93,65.94-18.66,11.37,1.06,22.44,3.73,33.33,6.87,17.33,5,30.51-.17,41-14.39C.28,554,6.4,544.4,12.37,534.72,40.58,488.91,52.92,440,43,386.17c-3.38-18.34-6.79-37-5.93-55.64a376.65,376.65,0,0,0-2.24-62.76c-4.24-35.12-14.37-68.21-35.86-97C-21.31,143.63-44,121.5-82.3,127.28c-10.69,1.61-19.74-8.88-21-20.77-1.33-12.89,4-23.3,12.64-32.07,12.93-13.17,26-26.23,39.57-38.72C-32.84,19-12.62,5.26,11.42-1.94c16.3-4.89,33.22-6.32,50-8.5C104.5-16,146.26-26.54,186-44.4c49.35-22.18,89.65-56.32,125.68-96,5.84-6.43,12.69-12.18,16.17-20.52h775.58c-.56,2.17,1.15,3.2,2.33,4.4,9.17,9.29,16,20.2,21.72,31.81,10,20.16,20,40.3,31.49,59.69,21.63,36.48,47.52,68.87,86.92,87.36,48.25,22.63,85,58.3,117.54,99.47,34.34,43.47,70.43,85.42,109.95,124.38,31.19,30.75,64.2,59.41,97.54,87.73,17.88,15.19,27.37,33.78,26.25,57.7-2.07,44-11.7,86-31.3,125.54-15.1,30.44-34.28,58.43-54.15,85.88-39.44,54.51-83.27,105.1-137,146.08-43.7,33.31-91.47,56.56-148.35,55.44-13.34-.26-25.75,4.65-37.09,11.87a199,199,0,0,0-25.87,19.79c-28.47,25.49-60,45.08-97.64,54.43a560.46,560.46,0,0,1-125.91,16.76c-43.16.77-86.54-.69-129.24,7.77-18.31,3.63-36.52,7.81-53.21,16.7H95.62c-.52-6.29-1.08-12.58-1.56-18.88-1.72-22.77-5.15-45.23-13.86-66.48-19.7-48-52.15-87.39-86.73-125.11-9.09-9.92-18-9.61-27.69-.17Q-57.32,743.72-79.67,767c-11.61,12.1-19.59,26-21.09,43.41-.78,9-3.27,17.88-5.63,26.65-4.13,15.38-10.94,29.5-23.26,40-18,15.4-38.2,14.95-59.1,6.84-21.38-8.3-40-21.47-59.27-33.5C-260.82,842.43-272.62,832.76-286.86,827.19ZM954.6,622.6c7-.37,13.79-.44,20.46-2.34,20.82-5.91,27-23.18,14.73-41-6.82-9.84-16.93-15-27.67-19-29.07-10.64-59.32-11.83-89.77-10a52.39,52.39,0,0,0-20.4,5.32c-13.14,6.57-15.05,15.37-4,25.29C878.24,608.1,915.23,618.6,954.6,622.6Z" transform="translate(287.02 161.06)"/><path class="b" d="M757.37,931.92c16.69-8.89,34.9-13.07,53.21-16.7,42.7-8.46,86.08-7,129.24-7.77a560.46,560.46,0,0,0,125.91-16.76c37.64-9.35,69.17-28.94,97.64-54.43a199,199,0,0,1,25.87-19.79c11.34-7.22,23.75-12.13,37.09-11.87,56.88,1.12,104.65-22.13,148.35-55.44,53.76-41,97.59-91.57,137-146.08,19.87-27.45,39-55.44,54.15-85.88,19.6-39.49,29.23-81.56,31.3-125.54,1.12-23.92-8.37-42.51-26.25-57.7-33.34-28.32-66.35-57-97.54-87.73-39.52-39-75.61-80.91-109.95-124.38-32.53-41.17-69.29-76.84-117.54-99.47C1206.48,3.89,1180.59-28.5,1159-65c-11.49-19.39-21.5-39.53-31.49-59.69-5.76-11.61-12.55-22.52-21.72-31.81-1.18-1.2-2.89-2.23-2.33-4.4h320.26c-2,10.09-5,20-3.77,30.57,2.19,19.55,10.87,36.19,22.72,51.26,32.72,41.59,73,74.66,117.73,102.4,30.71,19.06,64.23,33,95.54,51q0,425.36.14,850.72c0,5.69-1.28,7-7,7Q1203.21,931.82,757.37,931.92Z" transform="translate(287.02 161.06)"/><path class="b" d="M327.84-160.88c-3.48,8.34-10.33,14.09-16.17,20.52-36,39.64-76.33,73.78-125.68,96C146.26-26.54,104.5-16,61.4-10.44c-16.76,2.18-33.68,3.61-50,8.5C-12.62,5.26-32.84,19-51,35.72-64.62,48.21-77.69,61.27-90.62,74.44c-8.61,8.77-14,19.18-12.64,32.07,1.22,11.89,10.27,22.38,21,20.77C-44,121.5-21.31,143.63-1,170.77c21.49,28.79,31.62,61.88,35.86,97a376.65,376.65,0,0,1,2.24,62.76c-.86,18.67,2.55,37.3,5.93,55.64,9.94,53.79-2.4,102.74-30.61,148.55C6.4,544.4.28,554-6.51,563.11c-10.53,14.22-23.71,19.4-41,14.39-10.89-3.14-22-5.81-33.33-6.87-24.39-2.27-45.95,6.11-65.94,18.66-46.86,29.42-93.38,59.4-140,89.16q0-416-.16-832.07c0-6,1-7.45,7.31-7.44Q24.06-160.73,327.84-160.88Z" transform="translate(287.02 161.06)"/><path class="b" d="M-286.86,827.19c14.24,5.57,26,15.24,38.84,23.22,19.28,12,37.89,25.2,59.27,33.5,20.9,8.11,41.08,8.56,59.1-6.84,12.32-10.54,19.13-24.66,23.26-40,2.36-8.77,4.85-17.67,5.63-26.65,1.5-17.37,9.48-31.31,21.09-43.41q22.32-23.25,45.45-45.69c9.72-9.44,18.6-9.75,27.69.17,34.58,37.72,67,77.06,86.73,125.11,8.71,21.25,12.14,43.71,13.86,66.48.48,6.3,1,12.59,1.56,18.88q-188.2,0-376.41.14c-5.2,0-6.27-1-6.22-6.21C-286.71,893-286.86,860.08-286.86,827.19Z" transform="translate(287.02 161.06)"/><path class="a" d="M1655.9,74.37c-31.31-18-64.83-32-95.54-51-44.72-27.74-85-60.81-117.73-102.4-11.85-15.07-20.53-31.71-22.72-51.26-1.19-10.59,1.78-20.48,3.77-30.57q113.44,0,226.9-.13c4.53,0,5.45.91,5.44,5.44Q1655.77-40.59,1655.9,74.37Z" transform="translate(287.02 161.06)"/><path class="b" d="M954.6,622.6c-39.37-4-76.36-14.5-106.64-41.68-11.06-9.92-9.15-18.72,4-25.29a52.39,52.39,0,0,1,20.4-5.32c30.45-1.83,60.7-.64,89.77,10,10.74,3.94,20.85,9.15,27.67,19,12.31,17.78,6.09,35.05-14.73,41C968.39,622.16,961.59,622.23,954.6,622.6Z" transform="translate(287.02 161.06)"/></svg>