<svg xmlns="http://www.w3.org/2000/svg" viewBox="0 0 1366.29 768.29"><defs><style>.a{fill:#ffffff;}.b{fill:#41c7f6;}</style></defs><title>1800f_00041</title><path class="a" d="M1367.52,403.73v69.82c-38.34,17-76.1,35.15-111.88,57.08-26,15.91-47.57,36-57.23,66.12-3.61,11.28-6.55,22.78-9.58,34.24-12,45.4-18.26,91.47-15.59,138.53H338.46a27.35,27.35,0,0,0-2.5-3.65c-21.12-22.76-46.28-39.79-74.42-52.67s-57.3-22.74-86.77-31.89a140.43,140.43,0,0,1-19.09-7.26c-6.42-3.08-7-6.81-1.77-11.73a115.07,115.07,0,0,1,14.35-11.13c25.05-17.12,50.74-33.29,74.8-51.86,23.19-17.89,40.94-39,43.64-69.75,1.95-22.26,1.24-44.47-.72-66.64-2.68-30.35-4.5-60.41,6.83-89.82,8.42-21.86,11.37-45,12.6-68.33,1-19.67,7-37.52,19.78-53,6.07-7.37,11.75-15.29,15.37-24.27,1.81-4.49,5.34-10.25.31-13.9s-9.9.95-14.25,3.93a11,11,0,0,0-1.69,1.51c-6,6.16-12.53,11.9-17.87,18.58a88.76,88.76,0,0,1-32.72,25.19A478.11,478.11,0,0,0,225,289.47c-8.8,5.42-17.77,10.7-27.7,14-16.51,5.5-27.39.75-34.25-15.27-3.32-7.74-4.36-16-5.26-24.34C156,247.54,157,231,153.84,214.78c-4.92-25.32-12.05-50.11-18.15-75.15-6.76-27.75-14.87-55.13-23.32-82.42-3.17-10.25-.66-14.43,9.51-17.72,6-1.94,12.23-3.13,18.38-4.54C168.81,28.43,196,18.8,220.08,1.52h686c1.28,2.44,2.4,5,3.87,7.29a290.57,290.57,0,0,0,49.54,59.11c19,17.45,37.77,35.16,57.64,51.55,37.69,31.08,65.91,70.32,95.56,108.36a72.75,72.75,0,0,1,15.15,36.68c1.11,9.27,2.07,18.56,3,27.85,2.14,20.83,2.93,41.88,10.31,61.83,3.66,9.89,8.45,19.14,17.76,24.8,31.24,19,65.31,28.78,101.79,27.1C1296.35,404.45,1331.87,402,1367.52,403.73ZM847.22,519.44c13.13,0,21.13-2.14,29.45-8,15.3-10.77,18-29.08,6.16-43.59a60.92,60.92,0,0,0-10.29-10A382.13,382.13,0,0,0,814.36,421c-20.48-10.34-41.16-12.72-62.87-3.82a109.57,109.57,0,0,1-33.77,8.17,231,231,0,0,0-66.35,14.55c-6.62,2.54-13.3,4.93-18.52,10-5.78,5.61-6,11.23-.65,17.24,4.48,5,10.3,8.14,16.35,10.75,17.45,7.52,35.9,10,54.71,10.6,11.85.4,23.73-.91,35.55,1.12,16.32,2.8,31.48,9.2,47,14.64C805.76,511.25,825.59,519,847.22,519.44Zm-86.78,98.91c25.85,3,31.54-20.49,24.34-32.65-6.19-10.47-15-17.69-26.86-20.79-19.66-5.14-50.4,7-61.55,24.25-4.11,6.34-3.15,11.86,3,16.5a27.4,27.4,0,0,0,10.26,4.74C728.34,614.86,747.69,615.12,760.44,618.35Zm291.31-297.61c.06-8.5-3.83-11.93-10.83-9.55-11.15,3.79-26,23.15-26.53,34.69-.34,6.86,3.11,9.92,9.71,8.6C1036.66,352,1051.64,333.68,1051.75,320.74Z" transform="translate(-1.38 -1.37)"/><path class="b" d="M220.08,1.52C196,18.8,168.81,28.43,140.26,35c-6.15,1.41-12.39,2.6-18.38,4.54-10.17,3.29-12.68,7.47-9.51,17.72,8.45,27.29,16.56,54.67,23.32,82.42,6.1,25,13.23,49.83,18.15,75.15C157,231,156,247.54,157.77,263.87c.9,8.33,1.94,16.6,5.26,24.34,6.86,16,17.74,20.77,34.25,15.27,9.93-3.31,18.9-8.59,27.7-14a478.11,478.11,0,0,1,49.36-26.67,88.76,88.76,0,0,0,32.72-25.19c5.34-6.68,11.86-12.42,17.87-18.58a11,11,0,0,1,1.69-1.51c4.35-3,9.17-7.62,14.25-3.93s1.5,9.41-.31,13.9c-3.62,9-9.3,16.9-15.37,24.27-12.78,15.51-18.74,33.36-19.78,53-1.23,23.35-4.18,46.47-12.6,68.33-11.33,29.41-9.51,59.47-6.83,89.82,2,22.17,2.67,44.38.72,66.64-2.7,30.78-20.45,51.86-43.64,69.75-24.06,18.57-49.75,34.74-74.8,51.86a115.07,115.07,0,0,0-14.35,11.13c-5.2,4.92-4.65,8.65,1.77,11.73a140.43,140.43,0,0,0,19.09,7.26c29.47,9.15,58.66,19,86.77,31.89s53.3,29.91,74.42,52.67a27.35,27.35,0,0,1,2.5,3.65H1.52q0-380.59-.14-761.17c0-5.69,1.27-7,7-7C78.92,1.6,149.5,1.52,220.08,1.52Z" transform="translate(-1.38 -1.37)"/><path class="b" d="M1367.52,403.73c-35.65-1.71-71.17.72-106.76,2.36-36.48,1.68-70.55-8.08-101.79-27.1-9.31-5.66-14.1-14.91-17.76-24.8-7.38-19.95-8.17-41-10.31-61.83-1-9.29-1.92-18.58-3-27.85a72.75,72.75,0,0,0-15.15-36.68c-29.65-38-57.87-77.28-95.56-108.36-19.87-16.39-38.67-34.1-57.64-51.55A290.57,290.57,0,0,1,910,8.81c-1.47-2.32-2.59-4.85-3.87-7.29h126c8.25,10.94,15.91,10.94,24.28,0h186.69c11.87,9.38,23.55,19,35.65,28.08,21.48,16.08,28.68,37.21,24.37,63.31-4.93,29.8.6,58.31,12.82,85.59,6.64,14.83,16.79,26,34.3,27.15,5.73.38,11.54-.46,17.32-.75Z" transform="translate(-1.38 -1.37)"/><path class="b" d="M1173.24,769.52c-2.67-47.06,3.57-93.13,15.59-138.53,3-11.46,6-23,9.58-34.24,9.66-30.11,31.26-50.21,57.23-66.12,35.78-21.93,73.54-40.1,111.88-57.08q0,144.94.14,289.89c0,5.2-1,6.24-6.21,6.22C1298.71,769.43,1236,769.52,1173.24,769.52Z" transform="translate(-1.38 -1.37)"/><path class="a" d="M1367.52,204.9c-5.78.29-11.59,1.13-17.32.75-17.51-1.17-27.66-12.32-34.3-27.15-12.22-27.28-17.75-55.79-12.82-85.59,4.31-26.1-2.89-47.23-24.37-63.31-12.1-9.06-23.78-18.7-35.65-28.08,39.72,0,79.43.09,119.14-.13,4.54,0,5.46.91,5.44,5.44Q1367.37,105.88,1367.52,204.9Z" transform="translate(-1.38 -1.37)"/><path class="a" d="M1056.37,1.52c-8.37,10.94-16,10.94-24.28,0Z" transform="translate(-1.38 -1.37)"/><path class="b" d="M847.22,519.44c-21.63-.41-41.46-8.19-61.46-15.22-15.47-5.44-30.63-11.84-47-14.64-11.82-2-23.7-.72-35.55-1.12-18.81-.63-37.26-3.08-54.71-10.6-6-2.61-11.87-5.74-16.35-10.75-5.39-6-5.13-11.63.65-17.24,5.22-5.07,11.9-7.46,18.52-10a231,231,0,0,1,66.35-14.55,109.57,109.57,0,0,0,33.77-8.17c21.71-8.9,42.39-6.52,62.87,3.82a382.13,382.13,0,0,1,58.18,36.87,60.92,60.92,0,0,1,10.29,10c11.84,14.51,9.14,32.82-6.16,43.59C868.35,517.3,860.35,519.46,847.22,519.44Z" transform="translate(-1.38 -1.37)"/><path class="b" d="M760.44,618.35c-12.75-3.23-32.1-3.49-50.81-8a27.4,27.4,0,0,1-10.26-4.74c-6.15-4.64-7.11-10.16-3-16.5,11.15-17.24,41.89-29.39,61.55-24.25,11.88,3.1,20.67,10.32,26.86,20.79C792,597.86,786.29,621.4,760.44,618.35Z" transform="translate(-1.38 -1.37)"/><path class="b" d="M1051.75,320.74c-.11,12.94-15.09,31.21-27.65,33.74-6.6,1.32-10-1.74-9.71-8.6.57-11.54,15.38-30.9,26.53-34.69C1047.92,308.81,1051.81,312.24,1051.75,320.74Z" transform="translate(-1.38 -1.37)"/></svg>