<svg xmlns="http://www.w3.org/2000/svg" viewBox="0 0 1366.29 768.29"><defs><style>.a{fill:#ffffff;}.b{fill:#41c7f6;}</style></defs><title>1800f_00042</title><path class="a" d="M1367.52,406.77v69.81a13.93,13.93,0,0,0-3.65.58c-37.73,17.17-75.49,34.34-110.79,56.25-26.94,16.73-48.27,38.26-56.72,70.14-6.6,24.91-13.07,49.83-17.12,75.32-4.76,30-6.06,60.3-6,90.65H338.46a226.64,226.64,0,0,0-50.75-40.62c-31.7-18.41-66.07-30.33-100.83-41.28-8.43-2.65-16.95-5.11-25.23-8.17-4.33-1.61-10.33-2.45-11.22-7.87-1-5.85,4.89-8.34,8.63-11.47,3.46-2.92,7.43-5.23,11.21-7.77,27.68-18.63,56-36.35,81.88-57.54,21.23-17.36,36-38.27,37.55-66.58a491.32,491.32,0,0,0-2-75.74c-1.91-19.6-5.12-39.52.86-58.75a364.55,364.55,0,0,0,16.18-106A55.6,55.6,0,0,1,323.3,246a54.14,54.14,0,0,0,12-16.44c1.32-2.76,2.44-6.06-.75-8.18-2.76-1.83-5.26,0-7.41,2a72.93,72.93,0,0,0-13,15.67,49.83,49.83,0,0,1-26.32,21.66,418.63,418.63,0,0,0-73.86,35,87.55,87.55,0,0,1-17.4,7.43C182.05,307.9,171.18,302.9,165,289a65.4,65.4,0,0,1-4.29-14.5c-3.36-17.95-1.53-36.51-5.45-54.25C143.78,168.2,130.85,116.47,114.11,65.8,107.58,46,109.8,41.73,130.17,37.92c18.68-3.5,37.09-7.89,54.61-15.37,13.45-5.74,27-11.47,38.33-21h683c-.89,3.25,1.66,5.15,3.07,7.38,16.93,26.75,38.64,49.26,62.3,70,21.85,19.19,43.59,38.5,65.5,57.61,26,22.64,44.61,51.53,66.65,77.53,17.43,20.57,26.13,43.69,27.67,70.49,1.19,20.62,2.82,41.35,8.48,61.45,4.86,17.25,14,30.56,30.16,39.83,36.26,20.76,75.14,25.13,115.81,22C1313,405.75,1340.22,404.05,1367.52,406.77Zm-518,114a44.54,44.54,0,0,0,22.89-5.15c20.47-10.8,24.34-33.11,8.58-50a67.12,67.12,0,0,0-8.93-8.18,372,372,0,0,0-56.63-35.09c-20-9.86-40.34-12-61.49-3.41a134.05,134.05,0,0,1-42.72,9.49c-21.87,1.34-42.79,7.12-63.4,14.16-5,1.72-10,3.81-14.15,7.14-7,5.54-7.29,11.58-1.27,18.11,3.67,4,8.21,6.69,13,9,20.82,9.9,43,12.68,65.72,12.12a151.23,151.23,0,0,1,57.85,10q19.49,7.36,39.27,13.95C821.19,517.17,834.33,520.87,849.48,520.74ZM743.62,565.85c-15,1.45-29.9,9.72-42.1,22.84-5.91,6.37-4.28,13.83,3,18.65a36.07,36.07,0,0,0,14.12,5.22,340.92,340.92,0,0,1,41.29,9.1,46.6,46.6,0,0,0,12.68,1.63c5.3,0,10.28-2.07,12.64-6.91,4.37-8.92,6-18.35.74-27.58C777.45,573.67,764.32,566.15,743.62,565.85ZM1050,323.5c.08-7.45-4-10.82-10.36-7.75-11.84,5.77-18.51,15.95-21.71,28.34-1.32,5.12,2.88,9,7.71,8.21C1036.41,350.49,1049.89,334.56,1050,323.5Z" transform="translate(-1.38 -1.37)"/><path class="b" d="M223.11,1.52c-11.37,9.56-24.88,15.29-38.33,21C167.26,30,148.85,34.42,130.17,37.92,109.8,41.73,107.58,46,114.11,65.8c16.74,50.67,29.67,102.4,41.19,154.45,3.92,17.74,2.09,36.3,5.45,54.25A65.4,65.4,0,0,0,165,289c6.14,13.9,17,18.9,31.47,14.11a87.55,87.55,0,0,0,17.4-7.43,418.63,418.63,0,0,1,73.86-35A49.83,49.83,0,0,0,314.09,239a72.93,72.93,0,0,1,13-15.67c2.15-2,4.65-3.81,7.41-2,3.19,2.12,2.07,5.42.75,8.18a54.14,54.14,0,0,1-12,16.44,55.6,55.6,0,0,0-18.57,41.76,364.55,364.55,0,0,1-16.18,106c-6,19.23-2.77,39.15-.86,58.75a491.32,491.32,0,0,1,2,75.74c-1.6,28.31-16.32,49.22-37.55,66.58-25.9,21.19-54.2,38.91-81.88,57.54-3.78,2.54-7.75,4.85-11.21,7.77-3.74,3.13-9.59,5.62-8.63,11.47.89,5.42,6.89,6.26,11.22,7.87,8.28,3.06,16.8,5.52,25.23,8.17,34.76,11,69.13,22.87,100.83,41.28a226.64,226.64,0,0,1,50.75,40.62H1.52q0-380.59-.14-761.17c0-5.69,1.27-7,7-7C79.94,1.6,151.52,1.52,223.11,1.52Z" transform="translate(-1.38 -1.37)"/><path class="b" d="M1367.52,406.77c-27.3-2.72-54.57-1-81.77,1.07-40.67,3.13-79.55-1.24-115.81-22-16.18-9.27-25.3-22.58-30.16-39.83-5.66-20.1-7.29-40.83-8.48-61.45-1.54-26.8-10.24-49.92-27.67-70.49-22-26-40.67-54.89-66.65-77.53-21.91-19.11-43.65-38.42-65.5-57.61-23.66-20.77-45.37-43.28-62.3-70-1.41-2.23-4-4.13-3.07-7.38h336.95c12.86,10.23,25.91,20.22,38.51,30.76,11.24,9.4,20.73,20.28,22.25,35.76a105.35,105.35,0,0,1-.82,26.48c-4.58,29.31-.1,57.53,11.5,84.49,11.33,26.33,25.13,33,53,27.41Z" transform="translate(-1.38 -1.37)"/><path class="b" d="M1173.24,769.52c-.06-30.35,1.24-60.6,6-90.65,4-25.49,10.52-50.41,17.12-75.32,8.45-31.88,29.78-53.41,56.72-70.14,35.3-21.91,73.06-39.08,110.79-56.25a13.93,13.93,0,0,1,3.65-.58q0,143.43.14,286.86c0,5.2-1,6.24-6.21,6.22C1298.71,769.43,1236,769.52,1173.24,769.52Z" transform="translate(-1.38 -1.37)"/><path class="a" d="M1367.52,206.42c-27.89,5.58-41.69-1.08-53-27.41-11.6-27-16.08-55.18-11.5-84.49a105.35,105.35,0,0,0,.82-26.48c-1.52-15.48-11-26.36-22.25-35.76-12.6-10.54-25.65-20.53-38.51-30.76,39.72,0,79.43.09,119.14-.13,4.54,0,5.46.91,5.44,5.44Q1367.37,106.63,1367.52,206.42Z" transform="translate(-1.38 -1.37)"/><path class="b" d="M849.48,520.74c-15.15.13-28.29-3.57-41.25-7.86q-19.77-6.56-39.27-13.95a151.23,151.23,0,0,0-57.85-10c-22.69.56-44.9-2.22-65.72-12.12-4.82-2.29-9.36-5-13-9-6-6.53-5.7-12.57,1.27-18.11,4.19-3.33,9.11-5.42,14.15-7.14,20.61-7,41.53-12.82,63.4-14.16a134.05,134.05,0,0,0,42.72-9.49c21.15-8.63,41.44-6.45,61.49,3.41A372,372,0,0,1,872,457.43a67.12,67.12,0,0,1,8.93,8.18c15.76,16.87,11.89,39.18-8.58,50A44.54,44.54,0,0,1,849.48,520.74Z" transform="translate(-1.38 -1.37)"/><path class="b" d="M743.62,565.85c20.7.3,33.83,7.82,42.39,22.95,5.22,9.23,3.63,18.66-.74,27.58-2.36,4.84-7.34,7-12.64,6.91A46.6,46.6,0,0,1,760,621.66a340.92,340.92,0,0,0-41.29-9.1,36.07,36.07,0,0,1-14.12-5.22c-7.3-4.82-8.93-12.28-3-18.65C713.72,575.57,728.67,567.3,743.62,565.85Z" transform="translate(-1.38 -1.37)"/><path class="b" d="M1050,323.5c-.12,11.06-13.6,27-24.36,28.8-4.83.81-9-3.09-7.71-8.21,3.2-12.39,9.87-22.57,21.71-28.34C1046,312.68,1050.09,316.05,1050,323.5Z" transform="translate(-1.38 -1.37)"/></svg>