<svg xmlns="http://www.w3.org/2000/svg" viewBox="0 0 1943.05 1093.14"><defs><style>.a{fill:#41c7f6;}.b{fill:#ffffff;}</style></defs><title>1800f_00229</title><path class="a" d="M1013.88,931.92H875.76c-14.47-36.51-18.73-74.27-14.28-113.21,3.22-28.27,11.16-55.5,17.76-83q13.28-55.31-11.42-106.38c-7.38-15.29-16.32-29.69-24.51-44.52-20.24-36.68-16.52-55.21,16.11-81.25,37-29.56,76.56-55.45,116.92-80.17,18.55-11.37,36.77-23.26,53.35-37.43,7.5-6.42,14.91-13,19.48-22,4.06-8,2.45-13.91-5-18.92a50.21,50.21,0,0,0-15.29-6.51q-14.65-3.89-29.39-7.51c-32-7.9-61.11-21.2-85.18-44.23-19.22-18.38-39.93-35-60.42-51.89a427.16,427.16,0,0,1-32.11-28.94C804,188,793.42,166.71,790.56,141.66c-1.61-14.07-2.85-28.18-4.47-42.24-2.77-23.93-6.18-47.78-17.88-69.35-11-20.25-24.12-23.63-43.74-11.93a62.3,62.3,0,0,0-6.35,4.14c-27.55,21.33-53,44.6-70.47,75.39q-22.06,38.94-63,57c-10.63,4.73-21.17,9.7-32,13.92-18.47,7.2-29.69,20.55-34.57,39.4-3.43,13.22-6.49,26.53-9.49,39.85C501.72,278.32,493,308,476.85,335.17c-23.86,40.18-58.06,63-105.6,64.44-37.28,1.11-74.07,5.3-109.82,16.91-59.32,19.27-120.06,32.14-182,40-44.06,5.58-88,9.64-132.18,2.08-38-6.49-72.59-20.09-100.78-47.2-18-17.35-19.78-33.94-6.64-55.11,10.39-16.73,24-30.65,38.67-43.52,48.05-42.14,100-78.88,154.78-111.78,31.2-18.75,62.58-37.25,90.64-60.78,33.15-27.8,49.49-61.73,41.92-105.74-3.73-21.66-6.3-43.54-8.73-65.4-2-18-1.94-36,6.23-52.8,16.21-33.31,51.91-37.87,75.62-9.81,10.68,12.63,18.89,26.86,27,41.16,15.81,27.81,34.09,53.84,56.2,77,12.62,13.23,26.12,25.49,43.18,32.88C388,67.34,404,60,411.27,36.46c5.21-16.76,6.05-34.32,9.18-51.45,8.3-45.46-3.28-83.84-37.62-115.46a173.25,173.25,0,0,1-26.15-30.43H950.13a14.84,14.84,0,0,0,1.41,3.39c28.58,38.28,55.35,77.87,85.21,115.22,27.84,34.83,58.7,66,98.16,87.93,38.79,21.52,79.46,30.27,123.46,20.83,24.63-5.28,47.77-14.7,71-24.09,22.94-9.28,45.52-19.82,70.28-23.56s47.75.52,68.18,15.9c16.08,12.1,23.34,29.35,28.64,47.85,4.25,14.81,8.12,29.72,14,44.05,10.23,24.94,28.85,37.32,55.38,39,31.09,2,60.8-4.43,90.09-13.9v214c-5.08,7-8.07,15.11-10.35,23.3-14.07,50.59-5.91,99.7,10.35,148.21v97.13c-4.24,4.87-6.27,10.92-8.71,16.71-9.75,23.12-16.44,47.25-23.11,71.39-3.91,14.13-7.27,28.45-11.94,42.32-6.17,18.34-20.52,25.84-39.43,21.78a84.07,84.07,0,0,1-28.53-12c-43.51-28.51-84-60.69-118.83-99.55-24.62-27.48-39.66-59.67-44.47-96.33-7.48-57-19.74-113-32.91-168.88-5-21.39-10-42.84-9.84-65.08.16-21.46,5.18-42.08,10.19-62.73,3-12.28,6.64-24.44,7-37.2.46-17.13-6.63-28.29-22.38-35.16-15-6.56-30.5-6.51-46.07-2.39-21.62,5.71-40.21,17.29-58.35,30-41,28.62-70.35,86.49-50.72,141.9,1.76,5,2.63,10.28,3.81,15.46,4.65,20.36,6.39,40.89,4.23,61.75-3.34,32.07-11.59,63.09-19,94.35-7.25,30.75-23.09,55.86-46.93,76.09-38.89,33-72.23,70.54-97.37,115.26-20.31,36.1-30,73.54-21.23,115C1006.53,881.85,1009.76,907,1013.88,931.92Z" transform="translate(287.01 161.03)"/><path class="b" d="M356.68-160.88a173.25,173.25,0,0,0,26.15,30.43c34.34,31.62,45.92,70,37.62,115.46-3.13,17.13-4,34.69-9.18,51.45C404,60,388,67.34,365.4,57.52c-17.06-7.39-30.56-19.65-43.18-32.88-22.11-23.2-40.39-49.23-56.2-77-8.13-14.3-16.34-28.53-27-41.16-23.71-28.06-59.41-23.5-75.62,9.81-8.17,16.8-8.24,34.82-6.23,52.8,2.43,21.86,5,43.74,8.73,65.4,7.57,44-8.77,77.94-41.92,105.74-28.06,23.53-59.44,42-90.64,60.78-54.76,32.9-106.73,69.64-154.78,111.78-14.68,12.87-28.28,26.79-38.67,43.52-13.14,21.17-11.4,37.76,6.64,55.11,28.19,27.11,62.79,40.71,100.78,47.2,44.22,7.56,88.12,3.5,132.18-2.08,61.9-7.84,122.64-20.71,182-40,35.75-11.61,72.54-15.8,109.82-16.91,47.54-1.41,81.74-24.26,105.6-64.44,16.1-27.14,24.87-56.85,31.72-87.31,3-13.32,6.06-26.63,9.49-39.85,4.88-18.85,16.1-32.2,34.57-39.4,10.83-4.22,21.37-9.19,32-13.92q40.86-18.16,63-57c17.44-30.79,42.92-54.06,70.47-75.39a62.3,62.3,0,0,1,6.35-4.14c19.62-11.7,32.76-8.32,43.74,11.93,11.7,21.57,15.11,45.42,17.88,69.35,1.62,14.06,2.86,28.17,4.47,42.24,2.86,25.05,13.47,46.35,31.2,64.26a427.16,427.16,0,0,0,32.11,28.94c20.49,16.88,41.2,33.51,60.42,51.89,24.07,23,53.23,36.33,85.18,44.23q14.71,3.64,29.39,7.51a50.21,50.21,0,0,1,15.29,6.51c7.47,5,9.08,10.92,5,18.92-4.57,9-12,15.6-19.48,22-16.58,14.17-34.8,26.06-53.35,37.43C936,448.09,896.45,474,859.42,503.54c-32.63,26-36.35,44.57-16.11,81.25,8.19,14.83,17.13,29.23,24.51,44.52q24.72,51.2,11.42,106.38c-6.6,27.52-14.54,54.75-17.76,83-4.45,38.94-.19,76.7,14.28,113.21h-381c3.9-20.46-1.75-39.23-11.19-56.89-23.69-44.37-55.66-82.31-92.45-116.32a58.56,58.56,0,0,0-21.9-13.26c-10.6-3.39-20.34.22-26.16,9.71A48,48,0,0,0,337,770.58c-3.54,17-1.81,33.69,3.48,50.07,6.45,20,17.33,37.53,29.91,54.14,16.25,21.47,35.77,39.73,56.16,57.13H-12.14C-2.64,890.86,10.1,851,31.78,814.5,40,800.59,47.23,786,55.64,772.22c27.82-45.7,35.87-96.63,40.21-148.65,2.62-31.37-10.07-54.91-36-71.9-3-1.94-5.86-4-8.88-5.82C-.86,514-56.53,498.9-117.68,505.92c-23.85,2.74-47.92,4.33-71.91,1.54-33.5-3.9-66.36-10.63-97.27-24.8q0-318.55-.15-637.1c0-5.47,1.13-6.59,6.6-6.59Q38.13-160.78,356.68-160.88Z" transform="translate(287.01 161.03)"/><path class="b" d="M1013.88,931.92c-4.12-24.94-7.35-50.07-12.56-74.78-8.73-41.51.92-78.95,21.23-115,25.14-44.72,58.48-82.25,97.37-115.26,23.84-20.23,39.68-45.34,46.93-76.09,7.37-31.26,15.62-62.28,19-94.35,2.16-20.86.42-41.39-4.23-61.75-1.18-5.18-2-10.48-3.81-15.46-19.63-55.41,9.76-113.28,50.72-141.9,18.14-12.68,36.73-24.26,58.35-30,15.57-4.12,31.05-4.17,46.07,2.39,15.75,6.87,22.84,18,22.38,35.16-.33,12.76-4,24.92-7,37.2-5,20.65-10,41.27-10.19,62.73-.16,22.24,4.8,43.69,9.84,65.08,13.17,55.87,25.43,111.9,32.91,168.88,4.81,36.66,19.85,68.85,44.47,96.33,34.81,38.86,75.32,71,118.83,99.55a84.07,84.07,0,0,0,28.53,12c18.91,4.06,33.26-3.44,39.43-21.78,4.67-13.87,8-28.19,11.94-42.32,6.67-24.14,13.36-48.27,23.11-71.39,2.44-5.79,4.47-11.84,8.71-16.71q0,145.71.14,291.42c0,5.19-1,6.22-6.22,6.21Q1331.85,931.81,1013.88,931.92Z" transform="translate(287.01 161.03)"/><path class="a" d="M-286.86,482.66c30.91,14.17,63.77,20.9,97.27,24.8,24,2.79,48.06,1.2,71.91-1.54C-56.53,498.9-.86,514,51,545.85c3,1.85,5.92,3.88,8.88,5.82,25.94,17,38.63,40.53,36,71.9-4.34,52-12.39,102.95-40.21,148.65C47.23,786,40,800.59,31.78,814.5,10.1,851-2.64,890.86-12.14,931.92H-189.72a20,20,0,0,1,.2-3.73c9.56-38.86,15.47-78.34,19.88-118.06,5.54-49.92-8.15-73.74-54.32-93.54-20.67-8.86-41.92-16.36-62.9-24.48Z" transform="translate(287.01 161.03)"/><path class="b" d="M1655.9,151.78c-29.29,9.47-59,15.92-90.09,13.9-26.53-1.72-45.15-14.1-55.38-39-5.87-14.33-9.74-29.24-14-44-5.3-18.5-12.56-35.75-28.64-47.85-20.43-15.38-43.44-19.64-68.18-15.9s-47.34,14.28-70.28,23.56c-23.2,9.39-46.34,18.81-71,24.09-44,9.44-84.67.69-123.46-20.83-39.46-21.89-70.32-53.1-98.16-87.93-29.86-37.35-56.63-76.94-85.21-115.22a14.84,14.84,0,0,1-1.41-3.39H1476.8c3,5.53,6,11,8.94,16.59,19.31,36.1,28.51,75.17,30.16,115.57,1.56,38,16.17,67.36,46,91.08,29.59,23.57,61.81,42.73,94,62.1Z" transform="translate(287.01 161.03)"/><path class="a" d="M1655.9,124.46c-32.22-19.37-64.44-38.53-94-62.1-29.8-23.72-44.41-53.09-46-91.08-1.65-40.4-10.85-79.47-30.16-115.57-3-5.54-6-11.06-8.94-16.59,57.93,0,115.86.06,173.78-.13,4.53,0,5.45.91,5.44,5.44Q1655.77-15.56,1655.9,124.46Z" transform="translate(287.01 161.03)"/><path class="b" d="M-286.86,692.11c21,8.12,42.23,15.62,62.9,24.48,46.17,19.8,59.86,43.62,54.32,93.54-4.41,39.72-10.32,79.2-19.88,118.06a20,20,0,0,0-.2,3.73c-30.29,0-60.58-.23-90.86.19-5.93.08-6.4-1.77-6.39-6.79Q-286.73,808.71-286.86,692.11Z" transform="translate(287.01 161.03)"/><path class="a" d="M426.5,931.92c-20.39-17.4-39.91-35.66-56.16-57.13-12.58-16.61-23.46-34.16-29.91-54.14-5.29-16.38-7-33.06-3.48-50.07a48,48,0,0,1,6.15-15.42c5.82-9.49,15.56-13.1,26.16-9.71a58.56,58.56,0,0,1,21.9,13.26c36.79,34,68.76,71.95,92.45,116.32,9.44,17.66,15.09,36.43,11.19,56.89Z" transform="translate(287.01 161.03)"/><path class="b" d="M1655.9,537.3c-16.26-48.51-24.42-97.62-10.35-148.21,2.28-8.19,5.27-16.26,10.35-23.3Z" transform="translate(287.01 161.03)"/></svg>