<svg xmlns="http://www.w3.org/2000/svg" viewBox="0 0 1943.87 1093.9"><defs><style>.a{fill:#ffffff;}.b{fill:#41c7f6;}</style></defs><title>1800f_00134</title><path class="a" d="M-286.86,353.64V230.7c2.26-.21,4.53-.38,6.79-.66,50.92-6.36,101.85-12.43,153.34-11.5,24.78.45,49.57,0,74.36-.19,72.51-.5,145.07,2.18,217.28-8.5,41.06-6.07,79.23-17.47,112.2-43.75,18.37-14.64,36.45-29.71,56.56-42.08,30.32-18.65,61.17-20.37,93-4.25,14.75,7.47,28.85,16,41,27.11,30.71,28,66.31,47.75,103.9,64.57,25,11.18,50.41,19.39,78.31,17.37,25.77-1.86,51.14-6.23,76.48-10.9,27.58-5.08,55.12-10.77,83.43-8.24,15.09,1.35,30.15,3,45.22,4.52,28.4,2.85,57,2.8,85.29,7.5,36.57,6.08,72.13,15.24,105.52,31.91,28.94,14.44,45.58,37.22,50.2,69.34,3.44,23.94,3.16,47.88,2,71.87-1.21,24.65-.88,49.08,8.13,72.53,12.35,32.11,31.18,60.06,55.39,84.33,13,13,28.86,21.27,46.59,25.76,20.79,5.26,38.91,0,54.49-14.65,8.95-8.44,15.76-18.39,21.59-29.11,14.88-27.36,21.07-57.35,25.46-87.65,7.68-52.92,18.4-104.81,39.57-154.41,23.92-56,46.33-112.69,77.93-165.1,13-21.64,26.65-43,36.14-66.59,2.64-6.53,7.4-14,1.28-20.6-5.54-5.94-13.3-3.29-20.05-1.59C1421.06,43.7,1399.74,55,1379,67c-43.22,24.92-89.2,43-136.87,57a233,233,0,0,1-33.25,7.49c-16.64,2.37-24.5-4.19-24.82-20.84a110.73,110.73,0,0,1,.09-11.38c1.9-23.07-4.59-43.84-16.22-63.56-7.32-12.42-13.59-25.48-14.33-40.35-1-19.86,7.29-36.5,19-51.53,19.32-24.86,42.29-46.21,66-66.77,16.85-14.59,35.32-26.85,54.6-37.94h57.67c15.94,8.7,32,17.26,46.61,28.1A889.51,889.51,0,0,0,1512.76-60c13,6.84,26,14.28,35,26.11,10.67,13.91,22,27,35.61,38.09,3.48,2.86,6.33,6.54,9.15,10.09,16.12,20.28,26.6,43.43,34.47,67.92,10.5,32.71,14.52,66.56,18.06,100.52,2.43,23.36,6.44,46.55,7.46,70.07,1.91,43.83-6.52,86-20.54,127.24-19.12,56.23-41,111.48-59.08,168.07-18.18,56.84-29.54,114.47-23.53,174.52,5.88,58.69,26.65,111.34,64.65,156.63,11.5,13.71,25.12,25.47,41.84,32.92,0,6.57,2.56,15.7-.73,19s-12.42.73-19,.73q-958.13,0-1916.23.14c-5.74,0-7.11-1.33-7-7,.43-16.43.15-32.87.15-49.31,6.19-10.12,12.44-20.19,18.55-30.35,29.35-48.82,46-101.56,48.58-158.57,1.56-34.09,4-68.09,8.49-102,4.22-31.84,12.59-63,16.09-94.88,3.78-34.46-.35-67.75-18.21-98.21-14.84-25.31-35.13-41.69-66.7-38A47,47,0,0,1-286.86,353.64ZM825.34,477.36a49,49,0,0,0-3.91-22.94c-5.08-12-15.11-14-24.64-5.24a109.52,109.52,0,0,0-22.67,30.13c-7.65,14.62-14.43,29.59-13.28,46.76.8,11.87,8.22,17,19.59,13.91C801.07,534.27,827.09,508.32,825.34,477.36ZM419.05,861.53c-8.82-.07-15.44,4.2-18.32,11.75-6.05,15.85-4,31.31,3.36,46,6.31,12.63,22.33,14.81,31.56,4.64,9.77-10.76,13.46-23.36,9.29-37.69C440.59,871.22,430.46,861.62,419.05,861.53Z" transform="translate(287.02 161.03)"/><path class="b" d="M1293.15-160.88c-19.28,11.09-37.75,23.35-54.6,37.94-23.73,20.56-46.7,41.91-66,66.77-11.68,15-20,31.67-19,51.53.74,14.87,7,27.93,14.33,40.35,11.63,19.72,18.12,40.49,16.22,63.56a110.73,110.73,0,0,0-.09,11.38c.32,16.65,8.18,23.21,24.82,20.84a233,233,0,0,0,33.25-7.49c47.67-14.09,93.65-32.12,136.87-57,20.78-12,42.1-23.26,65.63-29.22,6.75-1.7,14.51-4.35,20.05,1.59,6.12,6.56,1.36,14.07-1.28,20.6-9.49,23.55-23.09,44.95-36.14,66.59-31.6,52.41-54,109.06-77.93,165.1-21.17,49.6-31.89,101.49-39.57,154.41-4.39,30.3-10.58,60.29-25.46,87.65-5.83,10.72-12.64,20.67-21.59,29.11-15.58,14.68-33.7,19.91-54.49,14.65-17.73-4.49-33.63-12.77-46.59-25.76-24.21-24.27-43-52.22-55.39-84.33-9-23.45-9.34-47.88-8.13-72.53,1.17-24,1.45-47.93-2-71.87-4.62-32.12-21.26-54.9-50.2-69.34-33.39-16.67-69-25.83-105.52-31.91-28.25-4.7-56.89-4.65-85.29-7.5-15.07-1.51-30.13-3.17-45.22-4.52-28.31-2.53-55.85,3.16-83.43,8.24-25.34,4.67-50.71,9-76.48,10.9-27.9,2-53.33-6.19-78.31-17.37-37.59-16.82-73.19-36.62-103.9-64.57-12.18-11.09-26.28-19.64-41-27.11-31.86-16.12-62.71-14.4-93,4.25-20.11,12.37-38.19,27.44-56.56,42.08-33,26.28-71.14,37.68-112.2,43.75-72.21,10.68-144.77,8-217.28,8.5-24.79.18-49.58.64-74.36.19-51.49-.93-102.42,5.14-153.34,11.5-2.26.28-4.53.45-6.79.66V-15.18c4.79-1,8.66-4,12.89-6.18,28.3-14.76,57.21-28,88.83-33.95,20.08-3.76,40.47-6,60.41-10.31,30.46-6.62,51.48-23,55.65-57.45,1.52-12.61.11-25.22.78-37.81h82c-.57,2.54,1,4.34,2.21,6.24C22-144.73,27.63-134.53,34.3-125,53.68-97.42,74.72-71.14,102-50.83c30.62,22.77,65.9,10,73.45-26.64,5.75-27.94,9.37-56.32,18.8-83.41H425c.93,27.09,11.91,49.59,30.77,68.77C478-69.48,505-66.61,534.28-72.26c27.09-5.23,52-16.41,76.19-29.06,38.69-20.21,80-25.21,122.83-22.77,33.1,1.88,66.1,1.35,98.91-4.36,32.31-5.63,64.5-11.91,97.44-13.28,22.71-.94,45.47-.24,68.13-2.54,21.45-2.18,42.56-5.59,61.63-16.61Z" transform="translate(287.02 161.03)"/><path class="b" d="M1655.9,912.19c-16.72-7.45-30.34-19.21-41.84-32.92-38-45.29-58.77-97.94-64.65-156.63-6-60,5.35-117.68,23.53-174.52,18.1-56.59,40-111.84,59.08-168.07,14-41.23,22.45-83.41,20.54-127.24-1-23.52-5-46.71-7.46-70.07-3.54-34-7.56-67.81-18.06-100.52-7.87-24.49-18.35-47.64-34.47-67.92-2.82-3.55-5.67-7.23-9.15-10.09-13.56-11.14-24.94-24.18-35.61-38.09-9.07-11.83-22-19.27-35-26.11a889.51,889.51,0,0,1-115.33-72.79c-14.66-10.84-30.67-19.4-46.61-28.1q149.51,0,299-.15c5.2,0,6.22,1,6.22,6.22Q1655.8,378.68,1655.9,912.19Z" transform="translate(287.02 161.03)"/><path class="b" d="M-286.86,353.64a47,47,0,0,0,6.8.17c31.57-3.72,51.86,12.66,66.7,38,17.86,30.46,22,63.75,18.21,98.21-3.5,31.92-11.87,63-16.09,94.88-4.5,33.88-6.93,67.88-8.49,102-2.62,57-19.23,109.75-48.58,158.57-6.11,10.16-12.36,20.23-18.55,30.35Z" transform="translate(287.02 161.03)"/><path class="a" d="M1059.41-160.88c-19.07,11-40.18,14.43-61.63,16.61-22.66,2.3-45.42,1.6-68.13,2.54-32.94,1.37-65.13,7.65-97.44,13.28-32.81,5.71-65.81,6.24-98.91,4.36-42.83-2.44-84.14,2.56-122.83,22.77-24.21,12.65-49.1,23.83-76.19,29.06C505-66.61,478-69.48,455.75-92.11c-18.86-19.18-29.84-41.68-30.77-68.77Z" transform="translate(287.02 161.03)"/><path class="a" d="M-68.3-160.88c-.67,12.59.74,25.2-.78,37.81-4.17,34.43-25.19,50.83-55.65,57.45-19.94,4.34-40.33,6.55-60.41,10.31-31.62,5.93-60.53,19.19-88.83,34-4.23,2.2-8.1,5.16-12.89,6.18,0-46.7.09-93.4-.14-140.1,0-4.92,1.35-5.72,5.9-5.71Q-174.7-160.76-68.3-160.88Z" transform="translate(287.02 161.03)"/><path class="a" d="M194.28-160.88c-9.43,27.09-13.05,55.47-18.8,83.41C167.93-40.78,132.65-28.06,102-50.83,74.72-71.14,53.68-97.42,34.3-125c-6.67-9.5-12.35-19.7-18.43-29.61-1.17-1.9-2.78-3.7-2.21-6.24Z" transform="translate(287.02 161.03)"/><path class="b" d="M825.34,477.36c1.75,31-24.27,56.91-44.91,62.62-11.37,3.14-18.79-2-19.59-13.91-1.15-17.17,5.63-32.14,13.28-46.76a109.52,109.52,0,0,1,22.67-30.13c9.53-8.76,19.56-6.8,24.64,5.24A49,49,0,0,1,825.34,477.36Z" transform="translate(287.02 161.03)"/><path class="b" d="M419.05,861.53c11.41.09,21.54,9.69,25.89,24.68,4.17,14.33.48,26.93-9.29,37.69-9.23,10.17-25.25,8-31.56-4.64-7.34-14.67-9.41-30.13-3.36-46C403.61,865.73,410.23,861.46,419.05,861.53Z" transform="translate(287.02 161.03)"/></svg>