<svg xmlns="http://www.w3.org/2000/svg" viewBox="0 0 1942.99 1093.13"><defs><style>.a{fill:#ffffff;}.b{fill:#41c7f6;}</style></defs><title>1800f_00312</title><path class="a" d="M801.39,931.92H434.08c-6.06-4.65-13.48-6.56-20.19-9.9-28-13.95-55.31-29.32-83.57-42.83-42.56-20.34-85.87-25.69-131.6-11.53-38.13,11.79-76.08,24-113.07,38.93-18,7.26-35.82,14.87-52.26,25.33H-101.69c.31-2.25.47-4.52,1-6.73,7.81-34.71,11.73-69.83,9-105.36-3.32-43.1-7.09-86.15-5.75-129.45.52-16.93.52-33.87-1.14-50.76-3.5-35.57-13.21-68.86-35-97.94-9.64-12.85-22.61-22.39-33.09-34.37-25.27-28.9-40.34-63.29-53.22-98.89-11.18-30.91-18.47-63.07-30.2-93.79-9.49-24.84-20.76-48.78-36.71-70.27V-24.28c2.2-1.67,2.42-4.33,3.19-6.66,5.84-17.71,11.7-35.4,17.38-53.16,8.36-26.17,19-51.47,29.52-76.78H-13.66c1.17,2.18,3.42,2.93,5.4,4q44.69,23.35,89.4,46.61a86.26,86.26,0,0,0,28.1,8.74c23.73,3.3,47.4,1.41,71.05-1,40.07-4,79.17-13.13,118.16-22.76,43.92-10.84,88.25-16.4,133.65-13.46C458-137.06,484-134.21,510-138c26.49-3.8,51.38-12.53,75.82-22.92h988.08c4.5,34.73,18.23,66,36.5,95.42,22.87,36.84,37.16,76.52,41.43,119.81,1.36,13.75,1.15,27.67,4,41.27V508.46c-32-31.21-71.09-48.4-113.9-58.43-31-7.25-60.68-5-88.49,11.83-29.83,18.05-62.09,26.51-97,24-24.24-1.77-46.46-9.35-66.28-23.51-39.27-28-71-63.6-100.4-101.37-14.15-18.16-29.28-34.87-52.42-41.65-14.87-4.36-30.2-6-45.46-8.07-16.68-2.25-31-8.13-41.09-22.69-7.46-10.81-15.79-21-26.42-29.08-17.82-13.49-38.92-16.12-60.15-18.06-20.73-1.9-41.1-4.93-60.27-13.78-37.16-17.16-70.54-40.51-104.39-63.1-8.2-5.46-15.77-11.89-24.15-17-15.08-9.28-27.08-6.26-37,8.38-5.66,8.39-8.18,17.9-9.89,27.63-5.82,33.16-5.29,66.46-1.5,99.75,6.08,53.45,29.31,97.78,71.21,131.92,28.44,23.18,61.86,36.42,96.64,45.84,33.25,9,60.31,26,81.92,52.81,17.15,21.3,38.59,36.84,65.71,43.93,62,16.23,121.58,39.57,180.24,65.19,56,24.48,113.36,43.2,175.51,42.51,7.22-.08,14.68.24,21.83,2.25,3.4,1,7.36,1.42,8.26,5.6,1,4.47-2.48,6.88-5.52,9.15-5.51,4.1-11.7,7-18,9.66-19.59,8.29-39.83,14.76-60.14,20.92-54.41,16.49-105.42,39.42-150.48,74.92a258.34,258.34,0,0,1-64.46,36.64c-40.4,16.13-80.77,19.24-121.34.19-14.18-6.66-29.5-7-44.66-4.24-28.07,5.14-51.71,19.61-74.34,36.18C858.21,879.58,834.1,910.78,801.39,931.92ZM680.71,487.84c-.21-4.18,0-8.95-1.14-13.71-7.56-30.89-27.67-51.7-54.49-66.5-24.39-13.45-43.59-6.16-54.43,19.42-.2.47-.33,1-.53,1.42-8.9,21.07-13.33,43.39-18.21,65.57-4.72,21.48-9,43.08-22.78,61.2-8.72,11.49-18.56,22-28.54,32.32-5.4,5.62-10.67,11.44-13.29,19.06-1,3-1.75,6,.54,8.59s5.6,2.11,8.48,1c7.53-2.89,15.42-5.22,22.36-9.19,31.91-18.22,64.67-33.69,100.78-42.52C657.15,555.28,680.65,524.25,680.71,487.84Z" transform="translate(286.97 161.1)"/><path class="b" d="M801.39,931.92c32.71-21.14,56.82-52.34,88.06-75.22,22.63-16.57,46.27-31,74.34-36.18,15.16-2.78,30.48-2.42,44.66,4.24,40.57,19,80.94,15.94,121.34-.19a258.34,258.34,0,0,0,64.46-36.64c45.06-35.5,96.07-58.43,150.48-74.92,20.31-6.16,40.55-12.63,60.14-20.92,6.31-2.67,12.5-5.56,18-9.66,3-2.27,6.48-4.68,5.52-9.15-.9-4.18-4.86-4.64-8.26-5.6-7.15-2-14.61-2.33-21.83-2.25-62.15.69-119.47-18-175.51-42.51-58.66-25.62-118.19-49-180.24-65.19-27.12-7.09-48.56-22.63-65.71-43.93C955.24,487,928.18,470,894.93,461c-34.78-9.42-68.2-22.66-96.64-45.84-41.9-34.14-65.13-78.47-71.21-131.92-3.79-33.29-4.32-66.59,1.5-99.75,1.71-9.73,4.23-19.24,9.89-27.63,9.9-14.64,21.9-17.66,37-8.38,8.38,5.15,15.95,11.58,24.15,17,33.85,22.59,67.23,45.94,104.39,63.1,19.17,8.85,39.54,11.88,60.27,13.78,21.23,1.94,42.33,4.57,60.15,18.06,10.63,8.05,19,18.27,26.42,29.08,10.05,14.56,24.41,20.44,41.09,22.69,15.26,2,30.59,3.71,45.46,8.07,23.14,6.78,38.27,23.49,52.42,41.65,29.43,37.77,61.13,73.35,100.4,101.37,19.82,14.16,42,21.74,66.28,23.51,34.94,2.55,67.2-5.91,97-24C1481.32,445,1511,442.78,1542,450c42.81,10,82,27.22,113.9,58.43V881.83c-5.53-.3-11.07-.5-16.5.85-30.65,7.61-55.07,24.71-74.57,49.24Z" transform="translate(286.97 161.1)"/><path class="b" d="M-286.86,244.36c15.95,21.49,27.22,45.43,36.71,70.27,11.73,30.72,19,62.88,30.2,93.79,12.88,35.6,27.95,70,53.22,98.89,10.48,12,23.45,21.52,33.09,34.37,21.81,29.08,31.52,62.37,35,97.94,1.66,16.89,1.66,33.83,1.14,50.76-1.34,43.3,2.43,86.35,5.75,129.45,2.74,35.53-1.18,70.65-9,105.36-.5,2.21-.66,4.48-1,6.73h-136.6c-4-14.57-8-29.11-11.85-43.7a108.52,108.52,0,0,0-12.55-29.9c-6.23-10-12.57-20.13-24.17-25.06Z" transform="translate(286.97 161.1)"/><path class="b" d="M585.86-160.88C561.42-150.49,536.53-141.76,510-138c-26.07,3.75-52,.9-77.94-.78-45.4-2.94-89.73,2.62-133.65,13.46-39,9.63-78.09,18.74-118.16,22.76-23.65,2.37-47.32,4.26-71,1a86.26,86.26,0,0,1-28.1-8.74Q36.4-133.52-8.26-156.91c-2-1-4.23-1.79-5.4-4Z" transform="translate(286.97 161.1)"/><path class="b" d="M33.39,931.92c16.44-10.46,34.3-18.07,52.26-25.33,37-15,74.94-27.14,113.07-38.93,45.73-14.16,89-8.81,131.6,11.53,28.26,13.51,55.54,28.88,83.57,42.83,6.71,3.34,14.13,5.25,20.19,9.9Z" transform="translate(286.97 161.1)"/><path class="b" d="M1655.9,95.62c-2.88-13.6-2.67-27.52-4-41.27-4.27-43.29-18.56-83-41.43-119.81-18.27-29.44-32-60.69-36.5-95.42,25.54,0,51.1.14,76.64-.14,4.54,0,5.45.92,5.44,5.45Q1655.77-30,1655.9,95.62Z" transform="translate(286.97 161.1)"/><path class="b" d="M-236.77-160.88c-10.57,25.31-21.16,50.61-29.52,76.78-5.68,17.76-11.54,35.45-17.38,53.16-.77,2.33-1,5-3.19,6.66,0-43.34.08-86.67-.11-130,0-5,.38-7.05,6.37-6.8C-266-160.47-251.39-160.88-236.77-160.88Z" transform="translate(286.97 161.1)"/><path class="a" d="M-286.86,833.26c11.6,4.93,17.94,15.06,24.17,25.06a108.52,108.52,0,0,1,12.55,29.9c3.85,14.59,7.89,29.13,11.85,43.7-14.67,0-29.35-.15-44,.1-3.81.07-4.68-.86-4.66-4.66C-286.78,896-286.86,864.63-286.86,833.26Z" transform="translate(286.97 161.1)"/><path class="a" d="M1564.83,931.92c19.5-24.53,43.92-41.63,74.57-49.24,5.43-1.35,11-1.15,16.5-.85,0,15.18-.15,30.36.1,45.53.06,3.81-.86,4.68-4.66,4.66C1622.51,931.83,1593.67,931.92,1564.83,931.92Z" transform="translate(286.97 161.1)"/><path class="b" d="M680.71,487.84c-.06,36.41-23.56,67.44-61.25,76.66-36.11,8.83-68.87,24.3-100.78,42.52-6.94,4-14.83,6.3-22.36,9.19-2.88,1.11-6.12,1.62-8.48-1s-1.56-5.61-.54-8.59c2.62-7.62,7.89-13.44,13.29-19.06,10-10.37,19.82-20.83,28.54-32.32,13.75-18.12,18.06-39.72,22.78-61.2,4.88-22.18,9.31-44.5,18.21-65.57.2-.46.33-1,.53-1.42,10.84-25.58,30-32.87,54.43-19.42,26.82,14.8,46.93,35.61,54.49,66.5C680.73,478.89,680.5,483.66,680.71,487.84Z" transform="translate(286.97 161.1)"/></svg>