<svg xmlns="http://www.w3.org/2000/svg" viewBox="0 0 1943.05 1093.08"><defs><style>.a{fill:#ffffff;}.b{fill:#41c7f6;}</style></defs><title>1800f_00305</title><path class="a" d="M1655.9,264.1V402.21c-11.33,9.65-15.32,10.18-28.88,2.92-6-3.22-11.79-6.88-17.5-10.61-37.07-24.23-74.76-47.31-115.27-65.56s-82.08-31.21-126.23-36.38c-20.26-2.37-40.65-4.71-60.08-11.69-22.85-8.2-35.54-25.29-34.33-47.07a92.54,92.54,0,0,1,5.33-26.63,113.74,113.74,0,0,0,6.67-35.58c1.26-37.65-10.83-71.6-28.82-103.88-14-25.16-30.28-49.06-42.57-75.23a52.74,52.74,0,0,0-8.17-11.8c-8.85-10.22-17.59-10.45-27.26-1.07-9.47,9.18-15.11,20.8-20.47,32.55-13,28.46-20.81,58.47-27.62,88.89-4.47,20-12.62,38.48-28.31,52.63-11.69,10.54-25.07,17.45-41.25,15.42-18.06-2.27-28.43-14.58-35-30.22-4.87-11.64-8.09-23.94-12.64-35.72-7.11-18.42-20-29.95-40.2-32.56a129.69,129.69,0,0,0-30.25-.1C916.3,73.3,890.4,80,864.73,87.82c-18.11,5.53-36.49,7.61-55.35,3.79-23.81-4.81-43.18-17.9-61.91-32.35-22.12-17.07-40.92-37.49-59.7-58C673.3-14.63,663.53-12.7,654,6.5a134.7,134.7,0,0,0-5.84,14c-4.48,12.39-7.35,25.23-10.24,38.05C628,102.24,625,146.05,636.73,189.91c14.44,54,43.68,99.7,80.64,140.84,8.08,9,18.56,14.68,29.87,18.87,17.29,6.39,35.35,8.94,53.53,9.6,34.61,1.25,69.26,1.45,103.89,2.28a218.66,218.66,0,0,1,33.15,3.5c22.63,4,39.46,17.5,54.52,33.64,40.43,43.31,89.84,69.52,148.19,79.81,73.59,13,145,34.57,215.94,57.57,13,4.21,25.7,9.36,36.55,18,15.3,12.22,14.3,26.41-2.52,36.41-12.31,7.31-25.88,11.57-39.6,15-39.78,9.81-76.38,26.19-109.51,50.41-18,13.13-36.49,25.5-54.46,38.62-33.47,24.43-68.25,46.24-108.73,57.37-22.91,6.29-45.74,12.86-68.65,19.13-27.68,7.58-54.63,16.71-78.2,33.81-18.08,13.13-33.16,29.58-49.46,44.66-17.39,16.1-36.17,22.47-58.67,11.66-6.38-3.07-12.9-5.83-19.2-9a86.72,86.72,0,0,0-28.19-8.32c-26.93-3.62-53.51.6-80,4-39.52,5.06-78.95,6.8-118.72,2.8-32.69-3.3-65.22-7.94-98-10.23-27.46-1.92-55.19-3.42-81.74-11.24-68.65-20.21-132.83-49.92-191-92.15-21-15.22-42.86-29-69-33.53-14.82-2.54-29.41-2.21-40.5,10.66-5,5.8-7,12.92-8.86,19.93-10.6,38.83-32.15,70.47-62.14,96.9C4.8,849.43-17,867.15-38.46,885.2-55.87,899.82-73.93,913.78-88,931.92H-235.26c-12.14-20.71-30.12-29.7-51.6-25.8V775.59c3.28,0,4.68-2.74,6.58-4.59,16.17-15.73,29.1-34.23,43.74-51.25,32.83-38.19,41.2-83,38.45-131.62-1.48-26.28-6.58-52.09-8.58-78.27-2.66-34.66-8.69-68.57-22.56-100.77-16.41-38.11-36.88-74.18-55.49-111.18-.41-.8-1.41-1.3-2.14-1.94q0-225-.14-450c0-5.69,1.28-7,7-7q911.8.22,1823.61.14c-.79,3,1,5.41,2,7.9,17.52,43,26.29,88.07,31.14,134q7.35,69.36,18.22,138.23C1603.47,172.68,1627.78,219.09,1655.9,264.1ZM608.46,385a135,135,0,0,0-2.24-25.66c-6.33-35.17-16.65-69.29-29-102.69-12.55-33.85-31.63-63.79-58.75-88.13-8-7.13-16.61-13.25-26.57-17.27C476.24,144.91,463,149,453.56,163c-5.88,8.72-9.06,18.57-12,28.53-5.4,18.45-8,37.56-13,56.08-19,70.35-46.9,137.18-81.32,201.28-19.55,36.42-44.64,68.44-77.95,93.7C256.82,552,245.87,563.36,237.69,577c-12.34,20.61-9.89,42.07,7.13,58.74,18,17.61,40.36,23.78,64.68,22.18A170.68,170.68,0,0,0,375,640.38c45.86-23,91.3-46.84,134.07-75.3a204.58,204.58,0,0,0,60.74-62.75C592.29,466.36,607,427.82,608.46,385Z" transform="translate(287 161.04)"/><path class="b" d="M-88,931.92c14.1-18.14,32.16-32.1,49.57-46.72C-17,867.15,4.8,849.43,25.87,830.86c30-26.43,51.54-58.07,62.14-96.9,1.91-7,3.88-14.13,8.86-19.93,11.09-12.87,25.68-13.2,40.5-10.66,26.11,4.49,48,18.31,69,33.53,58.13,42.23,122.31,71.94,191,92.15,26.55,7.82,54.28,9.32,81.74,11.24,32.81,2.29,65.34,6.93,98,10.23,39.77,4,79.2,2.26,118.72-2.8,26.52-3.4,53.1-7.62,80-4A86.72,86.72,0,0,1,804,852c6.3,3.21,12.82,6,19.2,9,22.5,10.81,41.28,4.44,58.67-11.66,16.3-15.08,31.38-31.53,49.46-44.66,23.57-17.1,50.52-26.23,78.2-33.81,22.91-6.27,45.74-12.84,68.65-19.13,40.48-11.13,75.26-32.94,108.73-57.37,18-13.12,36.49-25.49,54.46-38.62,33.13-24.22,69.73-40.6,109.51-50.41,13.72-3.39,27.29-7.65,39.6-15,16.82-10,17.82-24.19,2.52-36.41-10.85-8.67-23.55-13.82-36.55-18-71-23-142.35-44.57-215.94-57.57-58.35-10.29-107.76-36.5-148.19-79.81C977.27,382.5,960.44,369,937.81,365a218.66,218.66,0,0,0-33.15-3.5c-34.63-.83-69.28-1-103.89-2.28-18.18-.66-36.24-3.21-53.53-9.6-11.31-4.19-21.79-9.87-29.87-18.87-37-41.14-66.2-86.81-80.64-140.84C625,146.05,628,102.24,637.87,58.53c2.89-12.82,5.76-25.66,10.24-38A134.7,134.7,0,0,1,654,6.5c9.58-19.2,19.35-21.13,33.82-5.28,18.78,20.55,37.58,41,59.7,58,18.73,14.45,38.1,27.54,61.91,32.35,18.86,3.82,37.24,1.74,55.35-3.79C890.4,80,916.3,73.3,943.07,70.52a129.69,129.69,0,0,1,30.25.1c20.16,2.61,33.09,14.14,40.2,32.56,4.55,11.78,7.77,24.08,12.64,35.72,6.55,15.64,16.92,27.95,35,30.22,16.18,2,29.56-4.88,41.25-15.42,15.69-14.15,23.84-32.64,28.31-52.63,6.81-30.42,14.64-60.43,27.62-88.89,5.36-11.75,11-23.37,20.47-32.55,9.67-9.38,18.41-9.15,27.26,1.07a52.74,52.74,0,0,1,8.17,11.8c12.29,26.17,28.55,50.07,42.57,75.23,18,32.28,30.08,66.23,28.82,103.88a113.74,113.74,0,0,1-6.67,35.58,92.54,92.54,0,0,0-5.33,26.63c-1.21,21.78,11.48,38.87,34.33,47.07,19.43,7,39.82,9.32,60.08,11.69,44.15,5.17,85.86,18.2,126.23,36.38s78.2,41.33,115.27,65.56c5.71,3.73,11.49,7.39,17.5,10.61,13.56,7.26,17.55,6.73,28.88-2.92V790.76c-2-.2-3-1.83-4.15-3-15.31-15.72-34-22.78-55.84-22.56-34.12.35-59,18.32-80.71,42-20.77,22.69-38.66,47.86-60,70.1-17.29,18-34.18,36.41-51.26,54.64Z" transform="translate(287 161.04)"/><path class="b" d="M-286.86,296c.73.64,1.73,1.14,2.14,1.94,18.61,37,39.08,73.07,55.49,111.18,13.87,32.2,19.9,66.11,22.56,100.77,2,26.18,7.1,52,8.58,78.27,2.75,48.59-5.62,93.43-38.45,131.62-14.64,17-27.57,35.52-43.74,51.25-1.9,1.85-3.3,4.62-6.58,4.59Z" transform="translate(287 161.04)"/><path class="a" d="M1403.94,931.92c17.08-18.23,34-36.63,51.26-54.64,21.34-22.24,39.23-47.41,60-70.1,21.7-23.71,46.59-41.68,80.71-42,21.87-.22,40.53,6.84,55.84,22.56,1.19,1.22,2.16,2.85,4.15,3,0,45.28-.09,90.57.12,135.84,0,4.53-.91,5.45-5.44,5.44Q1527.27,931.79,1403.94,931.92Z" transform="translate(287 161.04)"/><path class="b" d="M1655.9,264.1c-28.12-45-52.43-91.42-60.92-144.89Q1584,50.3,1576.76-19c-4.85-45.89-13.62-91-31.14-134-1-2.49-2.83-4.9-2-7.9,35.41,0,70.83.14,106.24-.16,5.21,0,6.23,1,6.22,6.23Q1655.77,54.63,1655.9,264.1Z" transform="translate(287 161.04)"/><path class="b" d="M-286.86,906.12c21.48-3.9,39.46,5.09,51.6,25.8-15.93,0-31.87-.12-47.8.1-3.27,0-4-.62-3.9-3.9C-286.64,920.8-286.86,913.45-286.86,906.12Z" transform="translate(287 161.04)"/><path class="b" d="M608.46,385c-1.51,42.86-16.17,81.4-38.61,117.37a204.58,204.58,0,0,1-60.74,62.75C466.34,593.54,420.9,617.4,375,640.38a170.68,170.68,0,0,1-65.54,17.56c-24.32,1.6-46.71-4.57-64.68-22.18-17-16.67-19.47-38.13-7.13-58.74,8.18-13.66,19.13-25,31.61-34.47,33.31-25.26,58.4-57.28,77.95-93.7,34.42-64.1,62.31-130.93,81.32-201.28,5-18.52,7.62-37.63,13-56.08,2.91-10,6.09-19.81,12-28.53,9.39-13.92,22.68-18.05,38.31-11.75,10,4,18.62,10.14,26.57,17.27,27.12,24.34,46.2,54.28,58.75,88.13,12.38,33.4,22.7,67.52,29,102.69A135,135,0,0,1,608.46,385Z" transform="translate(287 161.04)"/></svg>