<svg xmlns="http://www.w3.org/2000/svg" viewBox="0 0 1943.05 1093.15"><defs><style>.a{fill:#ffffff;}.b{fill:#41c7f6;}</style></defs><title>1800f_00236</title><path class="a" d="M-241.33-160.88H382.48c-.92,4.07,0,8,.78,12,4.39,22.29,12.91,43.06,23.43,63,15.57,29.61,34.78,57,53.36,84.68,24.6,36.7,43.16,76,52.93,119.22a112.7,112.7,0,0,0,14.64,35.62c23.22,36.73,66,60.13,113.19,18.58a539.76,539.76,0,0,0,41.63-40.94c11.46-12.52,23.29-24.62,36.24-35.58,15.66-13.25,31.67-26.07,51.1-33.57,18-6.95,33.12-3.47,46.08,10.79A88.21,88.21,0,0,1,836,110.8c11.92,46.64,10.33,89.46-32.4,122.31-20,15.4-20.88,35.11-5.9,55.4,8.45,11.44,18.7,21.15,28.9,31,19.48,18.78,37.89,38.7,57.72,57.08,35.17,32.59,76.5,50.44,125.21,48.69,17.77-.64,35.06-4.49,52.33-8.34,15.3-3.41,30.53-7.26,46.22-8.24,7-.44,15.32-1.57,19.12,5.8,3.59,7-1.88,13-5.84,18.53-8.79,12.22-19.93,22.22-31.68,31.42-48.06,37.64-99.83,69.86-151,102.92-19.75,12.77-40.1,24.64-56.55,41.85-18.19,19-21.71,39.33-10.87,63.36a181.86,181.86,0,0,0,20.86,35.16c15.12,20,24.74,42.13,28.35,67,2.38,16.35,2.71,32.74,2.2,49.17-1.14,36.16-5.86,72-8.95,108H330.88A78.53,78.53,0,0,0,359.62,923c12.73-7,17.87-19.08,14.06-33.11-5.95-21.91-21.18-37-37.65-51-20.4-17.4-44.11-29.56-68.3-40.44-48.75-21.93-90.07-52.35-120.81-96.92C119.43,661.67,81.66,633.79,38.17,613c-57-27.21-116.35-47.76-176.87-65.3-15.52-4.49-31.37-8.25-45.52-16.43-12.26-7.08-15.45-15-11.93-28.62a120.67,120.67,0,0,1,5.45-16.53c8.85-21.08,8.16-41.75-1.76-62.29-16.6-34.4-31.52-69.38-41.59-106.44-14.21-52.33-26.34-104.84-27.55-159.4-.55-25-.32-50,0-75,.56-39.44.48-78.9.63-118.34.05-12.91.21-25.87,2.54-38.54C-253.06-103-247.06-131.9-241.33-160.88ZM318.56,521c62.35-1.55,118.76-22.28,171.17-54.68,18.45-11.4,33.57-27,42.16-47.56,7.72-18.49,6.44-35.63-15.29-44.28-8.49-3.38-15.44-9.46-22.15-15.68-23.48-21.79-36-49.49-43.87-79.9-5.11-19.76-8.51-40.17-19.49-57.95-15.17-24.55-35.89-43.55-59.73-59.4-21.28-14.15-42.43-15.73-64.19-.63-10.71,7.44-23,11.11-36.11,12.53-10.37,1.13-20.69,1-31,1.22-25.55.63-46.33,10.81-62.58,30.5-22.18,26.89-41,56.4-65.08,81.86-27,28.54-56.19,53.75-92.83,69.39C4.21,363-10.87,370.22-25.57,378.08-45.93,389-64.9,401.93-79.48,420.36-92.69,437.05-90.85,452-74,464.66c9.4,7,19.87,12,30.68,16.38,31.16,12.55,63.79,17.35,97.13,17.91,23.79.4,47.5-.46,70.61-7.19,20.1-5.85,26.87-14,29.08-34.46.91-8.44,1.25-17.13,7-24.39,17.28-22,40.25-31.67,67.63-30.42,13.64.63,23.82,10.26,25.25,22.2,1,8.24,1.25,16.69-.65,24.91-2.95,12.78-6.31,25.47-9.12,38.28-2.34,10.69.68,16.76,10.5,21.67a68.88,68.88,0,0,0,12.68,4.95C283.65,519.15,301,521,318.56,521Z" transform="translate(287 161.09)"/><path class="b" d="M913.7,931.92c3.09-36,7.81-71.87,8.95-108,.51-16.43.18-32.82-2.2-49.17-3.61-24.87-13.23-47-28.35-67a181.86,181.86,0,0,1-20.86-35.16c-10.84-24-7.32-44.31,10.87-63.36,16.45-17.21,36.8-29.08,56.55-41.85,51.17-33.06,102.94-65.28,151-102.92,11.75-9.2,22.89-19.2,31.68-31.42,4-5.5,9.43-11.56,5.84-18.53-3.8-7.37-12.17-6.24-19.12-5.8-15.69,1-30.92,4.83-46.22,8.24-17.27,3.85-34.56,7.7-52.33,8.34-48.71,1.75-90-16.1-125.21-48.69-19.83-18.38-38.24-38.3-57.72-57.08-10.2-9.83-20.45-19.54-28.9-31-15-20.29-14.12-40,5.9-55.4,42.73-32.85,44.32-75.67,32.4-122.31a88.21,88.21,0,0,0-20.12-37.86c-13-14.26-28.07-17.74-46.08-10.79-19.43,7.5-35.44,20.32-51.1,33.57-12.95,11-24.78,23.06-36.24,35.58a539.76,539.76,0,0,1-41.63,40.94c-47.22,41.55-90,18.15-113.19-18.58A112.7,112.7,0,0,1,513,118c-9.77-43.27-28.33-82.52-52.93-119.22-18.58-27.72-37.79-55.07-53.36-84.68-10.52-20-19-40.75-23.43-63-.78-4-1.7-7.91-.78-12h88c5.23,5.64,11.88,9.32,18.36,13.21,44.6,26.82,91.07,35.77,141.3,16.48a507.66,507.66,0,0,1,69.55-21.29c26.42-6,52.59-7.57,77.36,6.63a99.66,99.66,0,0,1,32.77,30c18.54,27,43.92,42.26,75.41,49.27a123.66,123.66,0,0,1,43.67,18.76c22.47,15.53,35.9,37.94,47,62.08,10.25,22.27,18.15,45.53,28.89,67.62,12.44,25.59,32.2,41.39,59.95,47.79,34.94,8,70.53,10,106.11,10.89a632.5,632.5,0,0,0,150.57-14.24c32.18-7,64.44-10.06,96.85-1.64,19.56,5.09,39,10.62,58.57,15.61,23.11,5.9,44.2,3.17,61-15.74a132,132,0,0,0,19.48-27.89c35-69.21,29.58-137.55-4.65-205.2-9.39-18.56-22.7-34.64-33.38-52.38,43.19,0,86.38.19,129.57-.21,6.52,0,7.18,1.79,7.17,7.58q-.29,176.93-.14,353.86a241.38,241.38,0,0,0-43.82,8.41c-22,6.62-44.33,8.08-66.5,2.27-36-9.41-69.26-3.65-101.5,14-20.89,11.42-43.42,19.1-66.33,25.67-17.87,5.12-34.74,12.79-49.08,24.79-28.22,23.61-40,44-20.69,79.27,6.69,12.22,6.86,25.7,3.72,39.17a110.27,110.27,0,0,1-10,26.12c-10.09,19.29-22.07,37.43-34,55.63-13.53,20.73-27.57,41.13-38.5,63.48-16.07,32.8-15.85,65.11,1.3,97.42,9,17,20.36,32.57,29.93,49.21,11.07,19.24,22.93,38.21,28.57,60,4.24,16.4-.87,29.94-14,40.32A163.1,163.1,0,0,1,1257.52,798c-18.91,11.31-39.3,19.68-59.12,29.16-22.39,10.72-44.06,22.53-63.77,37.81-22.69,17.6-37.77,40.45-47.9,66.94Z" transform="translate(287 161.09)"/><path class="a" d="M1519.3-160.88c10.68,17.74,24,33.82,33.38,52.38,34.23,67.65,39.65,136,4.65,205.2a132,132,0,0,1-19.48,27.89c-16.77,18.91-37.86,21.64-61,15.74-19.57-5-39-10.52-58.57-15.61-32.41-8.42-64.67-5.31-96.85,1.64a632.5,632.5,0,0,1-150.57,14.24c-35.58-.93-71.17-2.84-106.11-10.89-27.75-6.4-47.51-22.2-59.95-47.79-10.74-22.09-18.64-45.35-28.89-67.62-11.11-24.14-24.54-46.55-47-62.08a123.66,123.66,0,0,0-43.67-18.76c-31.49-7-56.87-22.23-75.41-49.27a99.66,99.66,0,0,0-32.77-30c-24.77-14.2-50.94-12.61-77.36-6.63a507.66,507.66,0,0,0-69.55,21.29c-50.23,19.29-96.7,10.34-141.3-16.48-6.48-3.89-13.13-7.57-18.36-13.21Z" transform="translate(287 161.09)"/><path class="b" d="M-241.33-160.88c-5.73,29-11.73,57.91-17.06,87-2.33,12.67-2.49,25.63-2.54,38.54-.15,39.44-.07,78.9-.63,118.34-.36,25-.59,50,0,75.05,1.21,54.56,13.34,107.07,27.55,159.4,10.07,37.06,25,72,41.59,106.44,9.92,20.54,10.61,41.21,1.76,62.29a120.67,120.67,0,0,0-5.45,16.53c-3.52,13.63-.33,21.54,11.93,28.62,14.15,8.18,30,11.94,45.52,16.43C-78.18,565.26-18.81,585.81,38.17,613c43.49,20.77,81.26,48.65,108.75,88.52,30.74,44.57,72.06,75,120.81,96.92,24.19,10.88,47.9,23,68.3,40.44,16.47,14,31.7,29.09,37.65,51,3.81,14-1.33,26.09-14.06,33.11a78.53,78.53,0,0,1-28.74,8.91H294.45c-36.29-7.87-70.25-22.07-103.5-38.18-13.66-6.62-27.41-13.18-42.16-17-49-12.66-77.65,10.07-92.63,55.16H-127.49c-.41-6.18-3.14-11.64-5.53-17.16C-146.35,884-165,856.57-184,829.1c-25.34-36.78-61.74-56.08-102.9-68.69q0-457.23-.14-914.46c0-5.69,1.25-7.21,7-7C-267.14-160.54-254.23-160.88-241.33-160.88Z" transform="translate(287 161.09)"/><path class="a" d="M1086.73,931.92c10.13-26.49,25.21-49.34,47.9-66.94,19.71-15.28,41.38-27.09,63.77-37.81,19.82-9.48,40.21-17.85,59.12-29.16A163.1,163.1,0,0,0,1275,786.1c13.15-10.38,18.26-23.92,14-40.32-5.64-21.81-17.5-40.78-28.57-60-9.57-16.64-20.91-32.21-29.93-49.21-17.15-32.31-17.37-64.62-1.3-97.42,10.93-22.35,25-42.75,38.5-63.48,11.88-18.2,23.86-36.34,34-55.63a110.27,110.27,0,0,0,10-26.12c3.14-13.47,3-26.95-3.72-39.17-19.3-35.26-7.53-55.66,20.69-79.27,14.34-12,31.21-19.67,49.08-24.79,22.91-6.57,45.44-14.25,66.33-25.67,32.24-17.62,65.54-23.38,101.5-14,22.17,5.81,44.48,4.35,66.5-2.27a241.38,241.38,0,0,1,43.82-8.41v34.91c-18.42-.89-36.82-2.09-55.27-1.81a70.79,70.79,0,0,0-30,7.15C1549,251,1530.53,266,1513.78,283c-43,43.54-76.06,94-97.24,151.35-20.12,54.47-25.56,110.35-8.48,167.29,12.06,40.18,26.07,79.73,37.66,120,10.38,36.07,30.15,66,57.28,91.31,13.34,12.47,27.64,23.75,44.48,31.25,23.65,10.52,47.55,6.9,71.21.22,12.59-3.55,24.81-8.39,37.21-12.66,0,31.37-.16,62.74.15,94.11,0,5.2-1,6.22-6.23,6.21Q1368.29,931.81,1086.73,931.92Z" transform="translate(287 161.09)"/><path class="b" d="M1655.9,831.74c-12.4,4.27-24.62,9.11-37.21,12.66-23.66,6.68-47.56,10.3-71.21-.22-16.84-7.5-31.14-18.78-44.48-31.25-27.13-25.35-46.9-55.24-57.28-91.31-11.59-40.29-25.6-79.84-37.66-120-17.08-56.94-11.64-112.82,8.48-167.29C1437.72,377,1470.73,326.5,1513.78,283,1530.53,266,1549,251,1570.68,240.6a70.79,70.79,0,0,1,30-7.15c18.45-.28,36.85.92,55.27,1.81Z" transform="translate(287 161.09)"/><path class="a" d="M-286.86,760.41C-245.7,773-209.3,792.32-184,829.1-165,856.57-146.35,884-133,914.76c2.39,5.52,5.12,11,5.53,17.16-51.24,0-102.47-.08-153.7.12-4.77,0-5.81-1.12-5.79-5.82C-286.79,871-286.86,815.68-286.86,760.41Z" transform="translate(287 161.09)"/><path class="a" d="M56.16,931.92c15-45.09,43.58-67.82,92.63-55.16,14.75,3.8,28.5,10.36,42.16,17,33.25,16.11,67.21,30.31,103.5,38.18Z" transform="translate(287 161.09)"/><path class="b" d="M318.56,521c-17.6,0-34.91-1.85-51.84-6.5A68.88,68.88,0,0,1,254,509.55c-9.82-4.91-12.84-11-10.5-21.67,2.81-12.81,6.17-25.5,9.12-38.28,1.9-8.22,1.64-16.67.65-24.91-1.43-11.94-11.61-21.57-25.25-22.2-27.38-1.25-50.35,8.45-67.63,30.42-5.7,7.26-6,15.95-7,24.39-2.21,20.44-9,28.61-29.08,34.46-23.11,6.73-46.82,7.59-70.61,7.19-33.34-.56-66-5.36-97.13-17.91-10.81-4.35-21.28-9.33-30.68-16.38-16.83-12.62-18.67-27.61-5.46-44.3C-64.9,401.93-45.93,389-25.57,378.08c14.7-7.86,29.78-15.11,45.11-21.66,36.64-15.64,65.83-40.85,92.83-69.39,24.07-25.46,42.9-55,65.08-81.86,16.25-19.69,37-29.87,62.58-30.5,10.34-.26,20.66-.09,31-1.22,13.15-1.42,25.4-5.09,36.11-12.53,21.76-15.1,42.91-13.52,64.19.63,23.84,15.85,44.56,34.85,59.73,59.4,11,17.78,14.38,38.19,19.49,57.95,7.86,30.41,20.39,58.11,43.87,79.9,6.71,6.22,13.66,12.3,22.15,15.68,21.73,8.65,23,25.79,15.29,44.28-8.59,20.58-23.71,36.16-42.16,47.56C437.32,498.72,380.91,519.45,318.56,521Z" transform="translate(287 161.09)"/></svg>