<svg xmlns="http://www.w3.org/2000/svg" viewBox="0 0 1943.06 1093.08"><defs><style>.a{fill:#ffffff;}.b{fill:#41c7f6;}</style></defs><title>1800f_00264</title><path class="a" d="M1655.9,197.31V701.22c-4.54,1.08-8,4.17-11.83,6.49-15.24,9.17-31,16.9-48.73,20.15-44.2,8.09-81.13-18.07-87.95-62.09-4.79-30.94-10.06-61.81-15.46-92.65-2.67-15.29-7.41-29.93-17.08-42.49-13-16.92-30.92-16.55-43.23.81-8.87,12.5-13.09,26.87-15.37,41.59-4.56,29.49-12.85,57.42-27.46,83.71-20.27,36.5-44,70.08-74.56,98.8a218.29,218.29,0,0,0-48.76,67c-16.27,34.77-19.67,71.81-20.89,109.35H-28.84c-1.83-1.77-4.25-1.34-6.45-1.67-23.12-3.37-46.4-2.55-69.65-2.57-7.32,0-14.67.08-21.88-1.63-10.62-2.51-14.37-8-12.37-18.76a51.58,51.58,0,0,1,3.11-10.11c5.54-13.42,13.73-25.29,21.9-37.17C-102.45,843-89,827-79.85,808.24c10.14-20.74,8.5-40.55-4.07-59.67-8.78-13.33-19.87-24.3-34.08-31.68-15.11-7.85-26.34-19.52-34.72-34-18.74-32.48-25.61-67.91-24.31-105,.82-23.28,6.29-45.54,19.5-65.28,10.79-16.12,25-29.11,39.12-42.13,18.25-16.79,36.28-33.82,50.83-54.06,24.49-34.06,41.92-72,60.23-109.5,9.46-19.39,18-39.1,20.56-60.74,2-16.8,3.49-33.67,5.19-50.51,1.78-17.59,2.74-35.35,9.26-52.05,10.18-26.12,28.88-45.44,50.64-62.1,26.92-20.62,56.11-38,83.63-57.74,29.93-21.5,56.17-46.14,73.38-79.45,5.31-10.29,12.14-19.85,18.87-29.32,18.94-26.64,41-50,70.32-65.64,6.63-3.54,14.19-5.23,20-10.26H475.06c7.59,6.73,15.06,13.58,17.86,23.87,1.45,5.36,2.25,10.93,4.13,16.13,4.21,11.61,12.1,16.58,24.44,16.38a37.52,37.52,0,0,0,15.41-3.62C561.64-119.73,579.53-139,595-160.88h505.42c1.51,4,5.48,5.07,8.58,6.93,58,34.68,107.48,79.54,153.82,128.2C1281.61-6,1300.17,14,1319.86,33a173.29,173.29,0,0,0,25.9,20.91c23.72,15.34,44.29,13.27,64.28-6.43,12.23-12,24.46-24.09,35.64-37.18,19-22.29,25-46.34,12.41-74.12-7.74-17.07-18.31-32.58-25.89-49.67-6.75-15.21-13.49-30.49-.55-46,.17-.2-.24-.9-.39-1.36q109.66,0,219.32-.13c4.53,0,5.46.91,5.44,5.44-.2,52.36-.12,104.73-.12,157.09-8.52,2-17.33,3-25,7.9-16.28,10.47-18.14,25.93-15.16,43.06,3.45,19.9,10.71,38.77,16.08,58.15C1639.82,139.53,1646.38,168.83,1655.9,197.31Z" transform="translate(287.02 161.02)"/><path class="b" d="M344.54-160.88c-5.85,5-13.41,6.72-20,10.26-29.31,15.65-51.38,39-70.32,65.64-6.73,9.47-13.56,19-18.87,29.32-17.21,33.31-43.45,58-73.38,79.45C134.41,43.56,105.22,60.91,78.3,81.53c-21.76,16.66-40.46,36-50.64,62.1-6.52,16.7-7.48,34.46-9.26,52.05-1.7,16.84-3.18,33.71-5.19,50.51-2.6,21.64-11.1,41.35-20.56,60.74-18.31,37.48-35.74,75.44-60.23,109.5-14.55,20.24-32.58,37.27-50.83,54.06-14.14,13-28.33,26-39.12,42.13-13.21,19.74-18.68,42-19.5,65.28-1.3,37.05,5.57,72.48,24.31,105,8.38,14.51,19.61,26.18,34.72,34,14.21,7.38,25.3,18.35,34.08,31.68,12.57,19.12,14.21,38.93,4.07,59.67C-89,827-102.45,843-114.18,860c-8.17,11.88-16.36,23.75-21.9,37.17a51.58,51.58,0,0,0-3.11,10.11c-2,10.73,1.75,16.25,12.37,18.76,7.21,1.71,14.56,1.62,21.88,1.63,23.25,0,46.53-.8,69.65,2.57,2.2.33,4.62-.1,6.45,1.67q-126,0-251.95.15c-5.2,0-6.22-1-6.21-6.22q.25-246.65.14-493.28c13.44-5.34,20.11-16.23,23.77-29.4,4.15-14.91,3.54-30,0-44.87-4.53-19.23-10.86-37.73-23.81-53.22q0-229.78-.16-459.57c0-5.63,1.35-6.53,6.66-6.53Q32.09-160.78,344.54-160.88Z" transform="translate(287.02 161.02)"/><path class="b" d="M1244.58,931.92c1.22-37.54,4.62-74.58,20.89-109.35a218.29,218.29,0,0,1,48.76-67c30.58-28.72,54.29-62.3,74.56-98.8,14.61-26.29,22.9-54.22,27.46-83.71,2.28-14.72,6.5-29.09,15.37-41.59,12.31-17.36,30.2-17.73,43.23-.81,9.67,12.56,14.41,27.2,17.08,42.49,5.4,30.84,10.67,61.71,15.46,92.65,6.82,44,43.75,70.18,87.95,62.09,17.74-3.25,33.49-11,48.73-20.15,3.84-2.32,7.29-5.41,11.83-6.49q0,112.31.14,224.63c0,5.2-1,6.22-6.22,6.21Q1447.2,931.79,1244.58,931.92Z" transform="translate(287.02 161.02)"/><path class="b" d="M1431.26-160.88c.15.46.56,1.16.39,1.36-12.94,15.49-6.2,30.77.55,46,7.58,17.09,18.15,32.6,25.89,49.67,12.6,27.78,6.63,51.83-12.41,74.12-11.18,13.09-23.41,25.13-35.64,37.18-20,19.7-40.56,21.77-64.28,6.43A173.29,173.29,0,0,1,1319.86,33C1300.17,14,1281.61-6,1262.79-25.75,1216.45-74.41,1167-119.27,1109-153.95c-3.1-1.86-7.07-3-8.58-6.93Z" transform="translate(287.02 161.02)"/><path class="b" d="M1655.9,197.31c-9.52-28.48-16.08-57.78-24.08-86.68-5.37-19.38-12.63-38.25-16.08-58.15-3-17.13-1.12-32.59,15.16-43.06,7.67-4.94,16.48-5.88,25-7.9Z" transform="translate(287.02 161.02)"/><path class="b" d="M595-160.88c-15.44,21.9-33.33,41.15-58.07,52.76a37.52,37.52,0,0,1-15.41,3.62c-12.34.2-20.23-4.77-24.44-16.38-1.88-5.2-2.68-10.77-4.13-16.13-2.8-10.29-10.27-17.14-17.86-23.87Z" transform="translate(287.02 161.02)"/><path class="a" d="M-286.86,305.08c12.95,15.49,19.28,34,23.81,53.22,3.5,14.9,4.11,30,0,44.87-3.66,13.17-10.33,24.06-23.77,29.4Z" transform="translate(287.02 161.02)"/></svg>