<svg xmlns="http://www.w3.org/2000/svg" viewBox="0 0 1943.13 1093.6"><defs><style>.a{fill:#ffffff;}.b{fill:#41c7f6;}</style></defs><title>1800f_00244</title><path class="a" d="M1655.9,299v16.7c-4.94,6.66-9.51,13.57-15.31,19.6-22.07,23-45.75,44.36-67.31,67.88-37.73,41.15-68.21,86.41-83.75,140.79-8.83,30.9-15.17,62.38-23.37,93.4-5.28,20-13,38.83-26.05,55.14-17.33,21.59-40.91,24.44-62.62,7.49-13.06-10.21-21.21-23.56-25.18-39.53-5.77-23.26-2.16-46.33,2.51-69.14,7.31-35.77,4.67-69.87-14.12-101.93-2.81-4.78-5-9.93-7.49-14.91a135,135,0,0,1-14.32-60.71c0-25.56-2-51-4.62-76.41-2.27-22-8.55-42.75-22.58-60.27-25-31.3-58.22-50.33-96.12-61.65-17.6-5.26-35.55-7.19-53.89-3.79-25.86,4.79-44.14,20.53-60.83,39.69-19.92,22.86-41.1,44.56-66.52,61.67-21.52,14.47-42.89,16.5-64.75,1-15.65-11.09-31.11-22.49-47.14-33-19.65-12.9-41.42-20-65.09-19.62-25,.36-39.53,11.52-42.86,32.09-1.24,7.69.4,15.16,2.68,22.38,8.76,27.7,26.82,48.94,48,67.85,18.4,16.42,39.86,28.44,60.6,41.48,15.22,9.57,24.8,22.76,26.58,41,1,9.79,1.8,19.6,2.61,29.4,2.18,26.54,12.77,38.68,38.94,43.7,14,2.69,28.28,2.23,42.32.25,25.26-3.57,50.4-8,75.65-11.71,11.24-1.66,23.1-2.09,30.48,8.33s2.9,21.5-1.79,31.74c-5.88,12.81-15.21,23.22-25,33.12-35,35.18-74.37,64.68-116.76,90.25-14.08,8.49-28.44,16.57-45.06,19.24-27.27,4.38-54.48,1.29-81.65-.89-40.84-3.28-81.67-6.83-122.69-5.1-16.92.71-33.89,2.35-49.75,9-24.31,10.19-26.32,25.5-5.23,41.1C705.77,777.87,741.8,790,779.7,797c32.2,6,63.93,4.69,94.6-8.06,11-4.56,21.75-9.64,32.88-13.73,21.13-7.78,36.52-1.3,46.22,19,6,12.54,8.05,26,8.75,39.73,1.69,33.08-4,65.51-9,98H417.39c-.59-1.94-2.42-2.47-3.91-3.32C395.05,918,376.81,907.12,358.14,897c-78.67-42.61-150-94.37-209.44-162.1-29.83-34-67.59-56.67-112.78-65.68C6.67,663.4-22.74,658.58-52.21,654c-23.45-3.65-47.21-5.8-69.95-13.15-20.55-6.64-23-14-11.1-32,5.31-8,11.13-15.68,16.29-23.78,10.35-16.21,9.92-28.61-1.63-44.06-9.25-12.39-20.07-23.42-31.41-33.9a142.85,142.85,0,0,1-21.92-25.06c-27.65-41-37-87.61-40.2-135.79-3.08-46.15,7.47-90.41,20.47-134.21,13.46-45.32,23.06-91.17,18.81-138.9-2.35-26.44-8.34-51.45-22.52-74.69a361.71,361.71,0,0,1-37-82.11c-6.78-22-1.15-37.51,17.19-51.22,4.44-3.32,9.3-6.08,14-9.07,10-6.38,21.52-10,31.17-17H1646.79c-.22,9.83-1.39,19.59-.67,29.51,2.61,36.22,1,72.23-7,107.79-5.91,26.26-18.87,46.27-45.93,55.52-14.54,5-25.14,15.5-32,29.67-11.12,23.1-13,47.45-7.38,71.8,11.92,51.76,35.55,97.54,73.76,135.16C1637.5,278.29,1648.29,287.17,1655.9,299ZM605-16.46c-9.11,0-18.21-.14-27.31.06-3.77.08-7.52.88-11.27,1.34-15,1.84-21.07,10.07-19.39,25,1.81,16,7.16,31,13.19,45.73,20.91,51.18,53.64,91.77,104.27,116.4,27.79,13.52,53.52,10.66,76.73-9.67a375.12,375.12,0,0,0,77.65-93.56c8.74-15,14.54-31.12,13.06-49.09-1.51-18.31-13.64-31.3-31.65-33.11a86.79,86.79,0,0,0-22,.39c-25.67,4-51.39,3-77.18,1.56C669.12-13.26,637.17-16.9,605-16.46ZM153,492c-26.78.18-49.09,2.63-70.72,9.39-20.69,6.47-40.19,15.26-55.46,31.39-9.84,10.4-9,19.63,2.47,28,7.9,5.73,17,8.83,26.27,11.47a266.52,266.52,0,0,0,93.77,9.33c34.38-2.53,68.44-6.42,101-18.49,9.49-3.51,18.82-7.59,26-15,7.49-7.75,7.26-15.39-.05-23.35-6.15-6.69-13.69-11.13-22-14.35C220.35,497.2,184.8,493.32,153,492Zm401.7-52.35c-.67-9.47-.09-19.23-9.16-23.4-7-3.21-15-1.54-21.26,3.82-11.45,9.8-19.35,22-21.87,36.93-1.52,9,.31,18.08,8.77,23.37,8,5,16.38,3.72,24.07-1.71C549,468.89,553.29,454.54,554.68,439.62Z" transform="translate(287.01 161.35)"/><path class="b" d="M953.16,931.92c5-32.48,10.68-64.91,9-98-.7-13.7-2.74-27.19-8.75-39.73-9.7-20.25-25.09-26.73-46.22-19-11.13,4.09-21.91,9.17-32.88,13.73-30.67,12.75-62.4,14-94.6,8.06-37.9-7.06-73.93-19.17-105.31-42.4-21.09-15.6-19.08-30.91,5.23-41.1,15.86-6.65,32.83-8.29,49.75-9,41-1.73,81.85,1.82,122.69,5.1,27.17,2.18,54.38,5.27,81.65.89,16.62-2.67,31-10.75,45.06-19.24,42.39-25.57,81.79-55.07,116.76-90.25,9.84-9.9,19.17-20.31,25-33.12,4.69-10.24,9.14-21.37,1.79-31.74s-19.24-10-30.48-8.33c-25.25,3.73-50.39,8.14-75.65,11.71-14,2-28.29,2.44-42.32-.25-26.17-5-36.76-17.16-38.94-43.7-.81-9.8-1.66-19.61-2.61-29.4-1.78-18.24-11.36-31.43-26.58-41-20.74-13-42.2-25.06-60.6-41.48-21.2-18.91-39.26-40.15-48-67.85-2.28-7.22-3.92-14.69-2.68-22.38,3.33-20.57,17.85-31.73,42.86-32.09,23.67-.35,45.44,6.72,65.09,19.62,16,10.53,31.49,21.93,47.14,33,21.86,15.47,43.23,13.44,64.75-1,25.42-17.11,46.6-38.81,66.52-61.67,16.69-19.16,35-34.9,60.83-39.69,18.34-3.4,36.29-1.47,53.89,3.79,37.9,11.32,71.07,30.35,96.12,61.65,14,17.52,20.31,38.28,22.58,60.27,2.61,25.39,4.61,50.85,4.62,76.41a135,135,0,0,0,14.32,60.71c2.47,5,4.68,10.13,7.49,14.91,18.79,32.06,21.43,66.16,14.12,101.93-4.67,22.81-8.28,45.88-2.51,69.14,4,16,12.12,29.32,25.18,39.53,21.71,17,45.29,14.1,62.62-7.49,13.09-16.31,20.77-35.18,26.05-55.14,8.2-31,14.54-62.5,23.37-93.4,15.54-54.38,46-99.64,83.75-140.79,21.56-23.52,45.24-44.89,67.31-67.88,5.8-6,10.37-12.94,15.31-19.6q0,304.32.17,608.63c0,6.42-1.3,8.71-7.78,7.68-3.45-.54-7.07-.09-10.61-.09q-23.21-18.87-46.42-37.74c-26.81-21.86-55.52-40.29-89-50.45-30.49-9.26-59.75-9-86.86,10-15.18,10.64-28.18,23.69-40.28,37.63-8.51,9.79-17.79,18.63-29.15,25-9.44,5.3-19,10.37-28.52,15.54Z" transform="translate(287.01 161.35)"/><path class="b" d="M-170-160.88c-9.65,7-21.17,10.61-31.17,17-4.69,3-9.55,5.75-14,9.07-18.34,13.71-24,29.19-17.19,51.22a361.71,361.71,0,0,0,37,82.11c14.18,23.24,20.17,48.25,22.52,74.69,4.25,47.73-5.35,93.58-18.81,138.9-13,43.8-23.55,88.06-20.47,134.21,3.22,48.18,12.55,94.76,40.2,135.79A142.85,142.85,0,0,0-150,507.16c11.34,10.48,22.16,21.51,31.41,33.9,11.55,15.45,12,27.85,1.63,44.06-5.16,8.1-11,15.77-16.29,23.78-11.93,18-9.45,25.32,11.1,32,22.74,7.35,46.5,9.5,69.95,13.15,29.47,4.57,58.88,9.39,88.13,15.22,45.19,9,83,31.69,112.78,65.68C208.16,802.64,279.47,854.4,358.14,897c18.67,10.11,36.91,21,55.34,31.59,1.49.85,3.32,1.38,3.91,3.32H-100.17c-11.2-10.4-24.39-17.84-37.79-24.84C-176.9,886.74-217,869-257.63,852.22c-9.48-3.91-18.81-8.58-29.23-9.85q0-498.21-.14-996.42c0-5.69,1.27-7,7-7C-243.35-160.74-206.67-160.88-170-160.88Z" transform="translate(287.01 161.35)"/><path class="b" d="M1655.9,299c-7.61-11.83-18.4-20.71-28.27-30.43-38.21-37.62-61.84-83.4-73.76-135.16-5.61-24.35-3.74-48.7,7.38-71.8,6.82-14.17,17.42-24.7,32-29.67,27.06-9.25,40-29.26,45.93-55.52,8-35.56,9.59-71.57,7-107.79-.72-9.92.45-19.68.67-29.51,7.78-1.72,9.34,1.32,9.32,9.1Q1655.68,73.61,1655.9,299Z" transform="translate(287.01 161.35)"/><path class="a" d="M1317.43,931.92c9.51-5.17,19.08-10.24,28.52-15.54,11.36-6.4,20.64-15.24,29.15-25,12.1-13.94,25.1-27,40.28-37.63,27.11-19,56.37-19.25,86.86-10,33.5,10.16,62.21,28.59,89,50.45q23.19,18.9,46.42,37.74Z" transform="translate(287.01 161.35)"/><path class="a" d="M-286.86,842.37c10.42,1.27,19.75,5.94,29.23,9.85C-217,869-176.9,886.74-138,907.08c13.4,7,26.59,14.44,37.79,24.84q-90.45,0-180.88.09c-4.41,0-6-.57-6-5.64C-286.69,898.37-286.86,870.37-286.86,842.37Z" transform="translate(287.01 161.35)"/><path class="b" d="M605-16.46c32.15-.44,64.1,3.2,96.14,5C727-9.95,752.67-9,778.34-13a86.79,86.79,0,0,1,22-.39c18,1.81,30.14,14.8,31.65,33.11,1.48,18-4.32,34.07-13.06,49.09a375.12,375.12,0,0,1-77.65,93.56c-23.21,20.33-48.94,23.19-76.73,9.67-50.63-24.63-83.36-65.22-104.27-116.4-6-14.75-11.38-29.68-13.19-45.73-1.68-14.91,4.38-23.14,19.39-25,3.75-.46,7.5-1.26,11.27-1.34C586.81-16.6,595.91-16.46,605-16.46Z" transform="translate(287.01 161.35)"/><path class="b" d="M153,492c31.82,1.35,67.37,5.23,101.31,18.33,8.34,3.22,15.88,7.66,22,14.35,7.31,8,7.54,15.6.05,23.35-7.22,7.45-16.55,11.53-26,15-32.58,12.07-66.64,16-101,18.49a266.52,266.52,0,0,1-93.77-9.33c-9.24-2.64-18.37-5.74-26.27-11.47-11.51-8.35-12.31-17.58-2.47-28,15.27-16.13,34.77-24.92,55.46-31.39C103.89,494.6,126.2,492.15,153,492Z" transform="translate(287.01 161.35)"/><path class="b" d="M554.68,439.62c-1.39,14.92-5.65,29.27-19.45,39-7.69,5.43-16.05,6.73-24.07,1.71-8.46-5.29-10.29-14.34-8.77-23.37,2.52-14.92,10.42-27.13,21.87-36.93,6.25-5.36,14.27-7,21.26-3.82C554.59,420.39,554,430.15,554.68,439.62Z" transform="translate(287.01 161.35)"/></svg>