<svg xmlns="http://www.w3.org/2000/svg" viewBox="0 0 1943.08 1093.13"><defs><style>.a{fill:#ffffff;}.b{fill:#41c7f6;}</style></defs><title>1800f_00161</title><path class="a" d="M-286.86,206.42V-50.08c2.22-3.25,2.28-7.12,3.05-10.76,7.18-34.24,16.2-67.91,30.34-100H1536a146.85,146.85,0,0,1-26.76,44.54c-16.15,18.3-36.59,24.81-60.58,22.76-27.52-2.34-53.31-11-79.07-20.07-25.24-8.84-49.83-19.68-76.57-23.8-27.34-4.22-46.93,6.68-52.24,30.21-2.42,10.73-1.48,21.59,1.83,32.19,5.94,19.07,16.81,35.2,31,48.8,56.57,54.3,123.88,89.75,199.64,107.91,43.31,10.37,88.24,10,132.68,11.17,16.67.45,33.37-.6,50,1.27V642c-9.8,5.17-17.84,12.94-27.69,18.14-24.47,12.93-47.09,9.92-66.27-10-15.78-16.35-23.69-36.8-28.89-58.45-5.28-22-6-44.54-8.49-66.87-4-35.88-4.1-71.46,4.68-106.92,14.78-59.67,40-114.89,69.2-168.59,9.64-17.75,20.14-35.19,24.73-55.19,5.3-23.11-7.13-38.91-30.73-39.77-18.3-.67-34,6.67-49.26,15.41-33.47,19.23-62.82,44.17-93.22,67.67-48.29,37.35-90,80.61-121.22,133.38-17.38,29.37-34.2,59.07-51.4,88.55-20.35,34.87-43.31,67.75-73.47,95.06-18.81,17-40.06,27.42-66.23,23.58a186.78,186.78,0,0,1-71-25.24,45.67,45.67,0,0,1-8.81-7.12c-5.9-6.08-5.84-11,.07-17.13,6.56-6.81,14.87-11.3,22.76-16.3,17.28-11,35.19-21,51.17-33.94,7.5-6.08,14.41-12.71,19.33-21.16,5.46-9.38,5.73-18.69-.42-27.86-3.52-5.25-6.89-10.63-10.79-15.59-38-48.25-78.1-94.74-110.56-147.28-16.77-27.15-43.84-42.41-75.26-48.14-39.74-7.24-79.73-5-119.26,1.27-44,7-88,13-132.71,11.08a227.71,227.71,0,0,0-35.59,1.6c-31.94,3.64-61.65,13.35-87.84,32.52C564.84,275,554.27,287.14,557.18,306c2,12.64,8.75,23.16,17.2,32.39,32.75,35.76,72.67,62,115.61,83.37C740.88,447,795.53,457.85,852.27,457S954,481.24,993.36,519.08c11.07,10.63,11.72,19.2,3,31.69-8.54,12.21-17.89,23.86-26.91,35.74-32.11,42.3-68.55,80.41-110.12,113.51-17.8,14.18-35.86,28-51.75,44.41-11.94,12.3-12.62,21-2.7,34.9,7.16,10,16.51,17.62,27.13,23.79,12.87,7.47,27.09,11.12,41.25,14.87,54.93,14.53,110.6,24,167.66,22.86,19.08-.37,34.45-8.43,46.34-23.46,11.6-14.66,18.9-31.64,26.62-48.38,8.3-18,17.3-35.38,32.23-49,17.32-15.86,39.37-18.07,59.18-5.56,11.78,7.43,20.38,17.94,28.5,29a184.23,184.23,0,0,0,24.56,27.73c22.43,20.33,48.07,36.14,73.75,51.73,30.13,18.28,56.94,40.28,80,66.82,11.91,13.71,24.36,27,34.37,42.26H280.79c-1.9-30.34-10.22-57.68-35.57-77.27C231.47,844,216.15,836.36,200,830.3c-35.83-13.44-73.52-17.89-111.09-22.91-25.3-3.38-50.54-7-75-14.76-25.84-8.24-42.8-24.7-50.46-51a460.31,460.31,0,0,1-11.85-50.91c-9.51-55.56-29.42-106.44-65.34-150.6-25.18-31-53.79-57-92.68-69.5a43.41,43.41,0,0,1-8.28-3.74c-2.3-1.33-5.4-2.35-5.36-5.77.05-3.67,3.09-5,5.84-6.25a99.63,99.63,0,0,1,9.86-3.92c44.38-14.7,86-35.32,126.1-59.12,16.11-9.57,31.67-20,44.4-34,16.64-18.36,18.6-40.4,5.45-61.32-6.23-9.9-13.92-18.62-21.74-27.23-24.75-27.22-47.63-55.68-62.94-89.59-4.34-9.61-9.49-19.07-17.16-26.65-9.18-9.08-19.81-10.18-29.32-2.95a107.1,107.1,0,0,0-17.08,16c-11.83,14-24.54,26.92-42.19,33.73C-240.95,208.41-263.3,213.62-286.86,206.42Z" transform="translate(287.04 161.05)"/><path class="b" d="M1446.44,931.92c-10-15.26-22.46-28.55-34.37-42.26-23-26.54-49.86-48.54-80-66.82-25.68-15.59-51.32-31.4-73.75-51.73a184.23,184.23,0,0,1-24.56-27.73c-8.12-11-16.72-21.55-28.5-29-19.81-12.51-41.86-10.3-59.18,5.56-14.93,13.67-23.93,31.06-32.23,49-7.72,16.74-15,33.72-26.62,48.38-11.89,15-27.26,23.09-46.34,23.46C983.84,842,928.17,832.52,873.24,818c-14.16-3.75-28.38-7.4-41.25-14.87-10.62-6.17-20-13.74-27.13-23.79-9.92-13.9-9.24-22.6,2.7-34.9,15.89-16.38,34-30.23,51.75-44.41,41.57-33.1,78-71.21,110.12-113.51,9-11.88,18.37-23.53,26.91-35.74,8.74-12.49,8.09-21.06-3-31.69C954,481.24,909,456.09,852.27,457S740.88,447,690,421.72c-42.94-21.34-82.86-47.61-115.61-83.37-8.45-9.23-15.25-19.75-17.2-32.39-2.91-18.82,7.66-31,21.6-41.19,26.19-19.17,55.9-28.88,87.84-32.52a227.71,227.71,0,0,1,35.59-1.6c44.72,1.93,88.68-4.06,132.71-11.08,39.53-6.3,79.52-8.51,119.26-1.27,31.42,5.73,58.49,21,75.26,48.14,32.46,52.54,72.6,99,110.56,147.28,3.9,5,7.27,10.34,10.79,15.59,6.15,9.17,5.88,18.48.42,27.86-4.92,8.45-11.83,15.08-19.33,21.16-16,12.94-33.89,23-51.17,33.94-7.89,5-16.2,9.49-22.76,16.3-5.91,6.14-6,11-.07,17.13a45.67,45.67,0,0,0,8.81,7.12,186.78,186.78,0,0,0,71,25.24c26.17,3.84,47.42-6.54,66.23-23.58,30.16-27.31,53.12-60.19,73.47-95.06,17.2-29.48,34-59.18,51.4-88.55,31.22-52.77,72.93-96,121.22-133.38,30.4-23.5,59.75-48.44,93.22-67.67,15.22-8.74,31-16.08,49.26-15.41,23.6.86,36,16.66,30.73,39.77-4.59,20-15.09,37.44-24.73,55.19-29.17,53.7-54.42,108.92-69.2,168.59-8.78,35.46-8.67,71-4.68,106.92,2.49,22.33,3.21,44.9,8.49,66.87,5.2,21.65,13.11,42.1,28.89,58.45,19.18,19.88,41.8,22.89,66.27,10,9.85-5.2,17.89-13,27.69-18.14q0,141.91.14,283.83c0,5.19-1,6.23-6.22,6.22C1582,931.84,1514.24,931.92,1446.44,931.92Z" transform="translate(287.04 161.05)"/><path class="b" d="M-286.86,206.42c23.56,7.2,45.91,2,68-6.53,17.65-6.81,30.36-19.78,42.19-33.73a107.1,107.1,0,0,1,17.08-16c9.51-7.23,20.14-6.13,29.32,2.95,7.67,7.58,12.82,17,17.16,26.65,15.31,33.91,38.19,62.37,62.94,89.59,7.82,8.61,15.51,17.33,21.74,27.23,13.15,20.92,11.19,43-5.45,61.32-12.73,14-28.29,24.43-44.4,34-40.1,23.8-81.72,44.42-126.1,59.12a99.63,99.63,0,0,0-9.86,3.92c-2.75,1.26-5.79,2.58-5.84,6.25,0,3.42,3.06,4.44,5.36,5.77a43.41,43.41,0,0,0,8.28,3.74c38.89,12.53,67.5,38.54,92.68,69.5,35.92,44.16,55.83,95,65.34,150.6a460.31,460.31,0,0,0,11.85,50.91c7.66,26.27,24.62,42.73,50.46,51,24.47,7.8,49.71,11.38,75,14.76,37.57,5,75.26,9.47,111.09,22.91,16.17,6.06,31.49,13.72,45.24,24.35,25.35,19.59,33.67,46.93,35.57,77.27q-280.62,0-561.25.16c-5.6,0-6.54-1.31-6.54-6.66Q-286.76,565.93-286.86,206.42Z" transform="translate(287.04 161.05)"/><path class="b" d="M1655.9,94.1c-16.63-1.87-33.33-.82-50-1.27-44.44-1.22-89.37-.8-132.68-11.17-75.76-18.16-143.07-53.61-199.64-107.91-14.17-13.6-25-29.73-31-48.8-3.31-10.6-4.25-21.46-1.83-32.19,5.31-23.53,24.9-34.43,52.24-30.21,26.74,4.12,51.33,15,76.57,23.8,25.76,9,51.55,17.73,79.07,20.07,24,2,44.43-4.46,60.58-22.76A146.85,146.85,0,0,0,1536-160.88c38.2,0,76.4.1,114.59-.13,4.53,0,5.45.91,5.44,5.44Q1655.77-30.74,1655.9,94.1Z" transform="translate(287.04 161.05)"/><path class="b" d="M-253.47-160.88c-14.14,32.13-23.16,65.8-30.34,100-.77,3.64-.83,7.51-3.05,10.76,0-34.73.19-69.46-.18-104.18-.06-6.06,1.78-7,7.16-6.75C-271.1-160.54-262.28-160.88-253.47-160.88Z" transform="translate(287.04 161.05)"/></svg>