<svg xmlns="http://www.w3.org/2000/svg" viewBox="0 0 1943.11 1093.1"><defs><style>.a{fill:#ffffff;}.b{fill:#41c7f6;}</style></defs><title>1800f_00359</title><path class="a" d="M1655.9,663.27v51.61c-7.78,12-18.69,20.3-31,27-17.33,9.49-35.8,16.27-54.34,22.9-29,10.35-58.53,19.16-86,33.42-22.35,11.62-38.77,28-43.55,53.77-2,10.93-2.84,22-3.49,33.05-.91,15.66,1.76,31.21,1.35,46.85H722.46a140.68,140.68,0,0,1,11-25.74c21.39-37.61,49.79-69.31,82.63-97.07,18.09-15.29,38.22-27.37,61.64-32.92,29.51-7,52.68,2.31,69.12,27.65,8,12.38,13.13,26.14,18.6,39.75,13.34,33.12,48.39,54,84.68,29.36,33-22.38,69.06-39,104.92-56,15.94-7.57,32-15.43,44.79-28,11.22-11,12.57-20.35,5.54-34.19a83,83,0,0,0-14.11-19.6c-14.09-14.84-29.77-28.11-42.71-44.09-12.6-15.55-13.87-33.27-3.67-50.61,8.48-14.43,20.5-25.54,32.91-36.33,11.57-10.06,25.7-16,38.65-23.82,8.23-5,14-12.35,13.63-22.23-.44-12.76-5.93-23.39-17.07-30.47-12.3-7.82-26.07-10.75-40.35-11.69-29.22-1.93-57.36,4-85.12,12.21-42,12.36-84,24.39-128.3,25a303.75,303.75,0,0,0-131.67,31.27c-34.5,16.95-69.46,32.88-98.54,59-26.15,23.49-47.83,50.79-68.56,78.86A384,384,0,0,1,540.59,828.75c-28.21,16.07-56.43,15.84-83-4.64-5.61-4.31-11.29-8.58-16.5-13.36-35.65-32.72-77.6-55.57-120.88-76-23.33-11-38.33-4-48.51,19.77a68.13,68.13,0,0,0-2.95,8.6c-6.43,23.12-6.36,46.7-2.12,69.92,6,32.78,7.8,65.67,6.6,98.84q-276.66,0-553.33.16c-5.89,0-7-1.54-6.87-7.08.34-23,.14-46,.14-69,2.5,1,4.38-.72,6.37-1.65,9.85-4.58,19.63-9.32,29.48-13.91,46.24-21.52,93.7-39.08,144.73-45.32,42.57-5.21,77-24.41,102.49-59.33,18.42-25.19,34-52.05,48.1-79.75a153.59,153.59,0,0,0,13.14-35.46c6.1-26.6-3.6-48.85-19.76-68.79q-40.06-49.47-81.15-98.13c-45.39-53.74-88-109.48-125.68-169-19.13-30.23-41.41-58.08-69.4-80.75-14-11.35-28.69-22-48.32-20.31V-160.88h466a6.21,6.21,0,0,1,.07,2.22c-9.79,25.53-15.37,52.33-23.45,78.38-12.71,41-21,83.09-18.61,126.05,2.28,40.58,9.58,80.71,19.66,120.18,3.32,13,8.29,25.48,15.91,36.7C185.74,221.88,203.51,225.59,223,213a102.92,102.92,0,0,0,20-17.3c21.71-23.82,38.47-51.33,57.74-77,35.76-47.59,63.29-99.19,76.77-157.62,4.88-21.16,9-42.53,14.65-63.47,5.53-20.46,14.78-27.22,35.86-28.39,29.76-1.65,59,3.15,88,8.82,30,5.85,59.68,13.11,89.59,19.35,15.71,3.27,30.42.91,43.92-8.86,18.46-13.35,36.24-27.45,52.54-43.38,1.66-1.63,4.48-2.8,3.69-6H1297.7c-.31,2.24-.47,4.51-.94,6.71-4.6,21.5-8.34,43.14-11.47,64.91-5.48,38.14-5.3,76.61-7,115-2.62,60.07-10.81,119.24-27.88,177-6.16,20.84-11.71,42-23.51,60.58-9.91,15.66-20.38,20-38.62,16.65-15.65-2.85-31.23-6.23-47-8.43-58.42-8.15-112.16-29.27-163.59-57.41-28.21-15.44-43.78-38.53-47.45-70.36-2-17.58-3.42-35.19-4.61-52.83-.93-13.84-1.58-27.86-8-40.62-6.27-12.43-16.75-14.4-27.19-5.24A60.1,60.1,0,0,0,878.83,59c-9.15,15-15.7,31.09-21.36,47.63-10,29.22-14.74,59.93-24.72,89.08a195.75,195.75,0,0,0-10,80.65c2.92,35.05,12.69,67.82,33.46,96.94C873,396.83,894.69,405.7,923.28,400a198.94,198.94,0,0,1,79.8.24c24.27,5,48.91,7.41,73.71,8.6,29.58,1.42,59.15,1.27,88.72,1.06a98.22,98.22,0,0,1,55.27,15.89c29.94,19.32,58.64,40.49,89.56,58.38,56.39,32.64,114.05,62.12,177.63,78.56,28.11,7.27,56.5,13.59,84,23.18a138.68,138.68,0,0,1,68.25,50.74C1646.33,645,1650.36,654.58,1655.9,663.27Zm-1319-209.34c-30.65-.7-58.16,9.32-84.07,24.57-24,14.12-42.19,33.65-53.34,59.3-6.59,15.17-9.33,31.48-.81,46.12C210.94,605,230.89,616.22,255,619.2c15.66,1.93,28.35-5.89,40.5-14.38,17-11.88,34-23.66,53.57-31.23,34.4-13.3,68.19-28.25,104.2-37.06,25.56-6.25,47.29-.22,65.6,18.93,9.74,10.17,15.85,22,19.71,35.36,5.1,17.58,16.52,25.89,34.69,25.45a63.83,63.83,0,0,0,24.88-6.12c41-18.61,72.86-48.52,101.4-82.6,25.37-30.28,31-63.64,17.79-100.68-9.26-25.94-17.89-52.11-27-78.1-4.29-12.22-9.55-24-19.14-33.21-11.78-11.28-24.41-11.13-36.12.06a74.47,74.47,0,0,0-14,17.82c-8.29,15.05-15.77,30.59-24.73,45.23-19.39,31.65-45.88,56.81-74.48,80.1-25.07,20.43-51.24,25.67-82.55,14.31C406.53,461.18,372,455.22,336.89,453.93Z" transform="translate(287.01 161.03)"/><path class="b" d="M1655.9,663.27c-5.54-8.69-9.57-18.24-15.68-26.65A138.68,138.68,0,0,0,1572,585.88c-27.5-9.59-55.89-15.91-84-23.18-63.58-16.44-121.24-45.92-177.63-78.56-30.92-17.89-59.62-39.06-89.56-58.38a98.22,98.22,0,0,0-55.27-15.89c-29.57.21-59.14.36-88.72-1.06-24.8-1.19-49.44-3.62-73.71-8.6a198.94,198.94,0,0,0-79.8-.24c-28.59,5.73-50.26-3.14-67.08-26.72-20.77-29.12-30.54-61.89-33.46-96.94a195.75,195.75,0,0,1,10-80.65c10-29.15,14.72-59.86,24.72-89.08C863.13,90,869.68,73.92,878.83,59a60.1,60.1,0,0,1,11.66-13.9c10.44-9.16,20.92-7.19,27.19,5.24,6.42,12.76,7.07,26.78,8,40.62,1.19,17.64,2.58,35.25,4.61,52.83,3.67,31.83,19.24,54.92,47.45,70.36,51.43,28.14,105.17,49.26,163.59,57.41,15.75,2.2,31.33,5.58,47,8.43,18.24,3.33,28.71-1,38.62-16.65,11.8-18.62,17.35-39.74,23.51-60.58,17.07-57.77,25.26-116.94,27.88-177,1.67-38.35,1.49-76.82,7-115,3.13-21.77,6.87-43.41,11.47-64.91.47-2.2.63-4.47.94-6.71q175.41,0,350.82-.15c5.76,0,7.65.62,7.58,7.17-.41,39.65-.2,79.3-.2,119-2.07-1.83-4.24-3.56-6.18-5.51a550,550,0,0,0-67.26-57.7c-17.85-12.88-36.08-25.26-57.71-31.18-21.44-5.87-37.63,3.32-42.78,24.4a90.28,90.28,0,0,0-2.19,15.72c-1.3,20.39,2.48,40.23,6.71,60a424.46,424.46,0,0,1,9.12,109.89c-1.79,37.08.33,73.86,14.84,108.73,15.83,38,41.18,67,80.79,81.41,20.93,7.62,43,11.16,64.66,16Z" transform="translate(287.01 161.03)"/><path class="b" d="M273.2,931.92c1.2-33.17-.62-66.06-6.6-98.84-4.24-23.22-4.31-46.8,2.12-69.92a68.13,68.13,0,0,1,2.95-8.6c10.18-23.73,25.18-30.76,48.51-19.77,43.28,20.39,85.23,43.24,120.88,76,5.21,4.78,10.89,9,16.5,13.36,26.6,20.48,54.82,20.71,83,4.64A384,384,0,0,0,660.46,722.2c20.73-28.07,42.41-55.37,68.56-78.86,29.08-26.12,64-42.05,98.54-59a303.75,303.75,0,0,1,131.67-31.27c44.32-.57,86.31-12.6,128.3-25,27.76-8.17,55.9-14.14,85.12-12.21,14.28.94,28,3.87,40.35,11.69,11.14,7.08,16.63,17.71,17.07,30.47.34,9.88-5.4,17.24-13.63,22.23-13,7.84-27.08,13.76-38.65,23.82-12.41,10.79-24.43,21.9-32.91,36.33-10.2,17.34-8.93,35.06,3.67,50.61,12.94,16,28.62,29.25,42.71,44.09a83,83,0,0,1,14.11,19.6c7,13.84,5.68,23.21-5.54,34.19-12.84,12.58-28.85,20.44-44.79,28-35.86,17-71.94,33.63-104.92,56-36.29,24.62-71.34,3.76-84.68-29.36-5.47-13.61-10.56-27.37-18.6-39.75-16.44-25.34-39.61-34.64-69.12-27.65-23.42,5.55-43.55,17.63-61.64,32.92-32.84,27.76-61.24,59.46-82.63,97.07a140.68,140.68,0,0,0-11,25.74Z" transform="translate(287.01 161.03)"/><path class="b" d="M-286.86,183.65c19.63-1.64,34.29,9,48.32,20.31,28,22.67,50.27,50.52,69.4,80.75,37.68,59.5,80.29,115.24,125.68,169q41.09,48.65,81.15,98.13C53.85,571.76,63.55,594,57.45,620.61a153.59,153.59,0,0,1-13.14,35.46c-14.14,27.7-29.68,54.56-48.1,79.75-25.52,34.92-59.92,54.12-102.49,59.33-51,6.24-98.49,23.8-144.73,45.32-9.85,4.59-19.63,9.33-29.48,13.91-2,.93-3.87,2.6-6.37,1.65Z" transform="translate(287.01 161.03)"/><path class="b" d="M705.77-160.88c.79,3.23-2,4.4-3.69,6-16.3,15.93-34.08,30-52.54,43.38-13.5,9.77-28.21,12.13-43.92,8.86C575.71-108.85,546-116.11,516-122c-29-5.67-58.22-10.47-88-8.82-21.08,1.17-30.33,7.93-35.86,28.39-5.66,20.94-9.77,42.31-14.65,63.47-13.48,58.43-41,110-76.77,157.62-19.27,25.64-36,53.15-57.74,77A102.92,102.92,0,0,1,223,213c-19.52,12.62-37.29,8.91-50.35-10.32-7.62-11.22-12.59-23.69-15.91-36.7-10.08-39.47-17.38-79.6-19.66-120.18-2.41-43,5.9-85.06,18.61-126,8.08-26,13.66-52.85,23.45-78.38a6.21,6.21,0,0,0-.07-2.22Z" transform="translate(287.01 161.03)"/><path class="a" d="M1655.9,286.86c-21.69-4.81-43.73-8.35-64.66-16-39.61-14.41-65-43.37-80.79-81.41-14.51-34.87-16.63-71.65-14.84-108.73a424.46,424.46,0,0,0-9.12-109.89c-4.23-19.81-8-39.65-6.71-60A90.28,90.28,0,0,1,1482-104.9c5.15-21.08,21.34-30.27,42.78-24.4,21.63,5.92,39.86,18.3,57.71,31.18a550,550,0,0,1,67.26,57.7c1.94,2,4.11,3.68,6.18,5.51Z" transform="translate(287.01 161.03)"/><path class="b" d="M1438.85,931.92c.41-15.64-2.26-31.19-1.35-46.85C1438.15,874,1439,863,1441,852c4.78-25.82,21.2-42.15,43.55-53.77,27.45-14.26,57-23.07,86-33.42,18.54-6.63,37-13.41,54.34-22.9,12.35-6.75,23.26-15.09,31-27q0,105.86.12,211.73c0,4.52-.91,5.45-5.44,5.43Q1544.73,931.77,1438.85,931.92Z" transform="translate(287.01 161.03)"/><path class="b" d="M336.89,453.93c35.09,1.29,69.64,7.25,102.43,19.15,31.31,11.36,57.48,6.12,82.55-14.31,28.6-23.29,55.09-48.45,74.48-80.1,9-14.64,16.44-30.18,24.73-45.23a74.47,74.47,0,0,1,14-17.82c11.71-11.19,24.34-11.34,36.12-.06,9.59,9.18,14.85,21,19.14,33.21,9.12,26,17.75,52.16,27,78.1,13.23,37,7.58,70.4-17.79,100.68-28.54,34.08-60.36,64-101.4,82.6a63.83,63.83,0,0,1-24.88,6.12c-18.17.44-29.59-7.87-34.69-25.45-3.86-13.33-10-25.19-19.71-35.36-18.31-19.15-40-25.18-65.6-18.93-36,8.81-69.8,23.76-104.2,37.06-19.58,7.57-36.56,19.35-53.57,31.23-12.15,8.49-24.84,16.31-40.5,14.38-24.13-3-44.08-14.19-56.35-35.28-8.52-14.64-5.78-30.95.81-46.12,11.15-25.65,29.35-45.18,53.34-59.3C278.73,463.25,306.24,453.23,336.89,453.93Z" transform="translate(287.01 161.03)"/></svg>