<svg xmlns="http://www.w3.org/2000/svg" viewBox="0 0 1943.05 1093.1"><defs><style>.a{fill:#ffffff;}.b{fill:#41c7f6;}</style></defs><title>1800f_00302</title><path class="a" d="M-286.86,884.87v-129a688,688,0,0,0,45.5-74.26c17.44-33.46,27.61-69.57,34.73-106.29,7.54-38.95,22.71-73.45,49-103.38,13.45-15.32,26.33-31.34,33.71-50.89,8.47-22.44,4.83-43-10.67-60.76-13.85-15.92-32.6-20.11-52.49-16-28.41,5.85-52.11-2-73.45-20.7-9.34-8.18-17.27-17.66-26.3-26.07q0-226.16-.15-452.3c0-5.2,1-6.23,6.22-6.22q119.91.32,239.81.15c2.77,15.86,14,25.35,29.66,23.46,21.86-2.65,41.32-12.07,59.89-23.46H1510.19c.9,2.34,1.69,4.73,2.71,7,21.39,48.05,29.52,98.05,21.41,150.24-2.79,18-6.26,35.82-7.43,54-3.09,48,7.18,93.44,25.64,137.4,7.64,18.21,14.85,36.55,16.13,56.6,1.79,28-9.45,53.27-39.37,62.29a98.15,98.15,0,0,1-28.34,4.5c-52.9.09-102.5-13.76-149.68-36.63-27.42-13.28-47-33.89-53.17-65-3.48-17.67-3.61-35.68-4.61-53.56-1.64-29.49-10.1-56.5-26.27-81.25-12.3-18.84-26.9-36.16-37.78-55.91C1219-.22,1209.51-19.84,1199.19-39c-7.47-13.84-16.09-27-28.37-37.19-12.48-10.39-25.31-10.47-37.83-.33-8.4,6.8-14.34,15.63-19.72,24.8-18.2,31.08-31,64.71-46,97.31-3.61,7.84-7.55,15.5-13.77,21.63-6.39,6.29-12.56,5.83-17.88-1.45-3.88-5.3-7.29-10.94-10.78-16.51-14-22.4-33.58-34.33-60.65-32.81a216.45,216.45,0,0,0-30.79,4c-46.43,9.37-93.15,13-140.1,5.12-28.08-4.7-54.53-13.81-73.72-36.8-10.13-12.13-17.29-26.09-24.36-40.1-4-7.9-7.62-16.07-13.12-23C672-87.06,661.55-86.52,652-73.4,642.25-60,636.89-44.69,633.15-29c-14.26,60-26.54,120.4-31.77,182-2.55,30.09,5,56.25,26.44,78.44,14.63,15.14,29.76,29.57,46.31,42.54,39.25,30.74,82.54,48.38,133.56,42.93,28.49-3.05,56.4-8.9,84.14-15.61,33.76-8.16,64.5-3.17,92.61,17.93,15.35,11.53,32,21.35,47.17,33.13,71.41,55.52,150.32,96.78,236.07,125.13,30.47,10.08,61.17,19.46,91.66,29.48,12,4,23.82,8.71,33.13,17.79,11.67,11.38,10.29,24.68-3.41,33.65-7.08,4.63-15,7.32-23.21,9-18.32,3.75-36.74,7-55.06,10.7-21,4.24-41.84,9.62-57.94,24.6-36,33.47-75.75,62.3-113.17,94-34.53,29.25-69.84,57.6-101.31,90.26-18.64,19.34-33.72,41.17-41.59,67.06-9.94,32.67-5.3,61.63,21.65,77.84H769.51c1.29-4.08,2.71-8.12,3.84-12.24,7.65-27.89,8.82-55.81-.66-83.52-5.26-15.39-16.57-21.86-32.52-19.07-8.45,1.48-16.87,3.22-25.19,5.27-33.43,8.25-66.91,12.21-101.28,5.36-62.2-12.38-124.42-24.66-187.1-34.45a591.91,591.91,0,0,1-148-43.32c-28.55-12.58-51.7-32.31-74.89-52.33-23-19.88-48.4-35.68-78.57-42.52a102.26,102.26,0,0,0-29.38-2.32C69.86,654.45,55.15,670.29,53.18,698c-1.63,22.82-6.19,45-14.84,66.3C26.2,794.16,5.69,818.15-16.17,841.15c-14.11,14.84-29,29-41.85,45C-68.7,899.4-79.14,913-74.37,931.92H-250.43c-2.81-14-10.94-25.17-20.27-35.38C-275.16,891.66-279.87,886.52-286.86,884.87ZM590.35,301.74c0-7.33.23-14.67,0-22-1.38-36.82-11.38-70.49-35-99.69-18.76-23.18-36.22-47.37-53-72.1C492.41,93.31,479.5,81.65,463,74.46,441,64.88,420,68.87,403.25,86c-14.31,14.71-22.11,33.07-28.37,52.15C363.39,173.22,361.6,209.54,361.26,246c-.3,30.85-.31,61.8-6.43,92.13-15,74.36-49.77,137.23-110,184.81-15.07,11.9-30.55,23.42-41,40.08-11.48,18.37-9.68,37.33,5.64,52.44,20.86,20.57,47.07,26.54,75.24,25.8,25.79-.69,48.71-10.66,70.26-23.91q52-32,103.57-64.61c23.6-14.91,46.13-31.39,63.53-53.51C567.63,441.38,588.64,374.79,590.35,301.74Z" transform="translate(287.01 161.03)"/><path class="b" d="M1018.43,931.92c-26.95-16.21-31.59-45.17-21.65-77.84,7.87-25.89,23-47.72,41.59-67.06,31.47-32.66,66.78-61,101.31-90.26,37.42-31.69,77.2-60.52,113.17-94,16.1-15,37-20.36,57.94-24.6,18.32-3.71,36.74-6.95,55.06-10.7,8.18-1.68,16.13-4.37,23.21-9,13.7-9,15.08-22.27,3.41-33.65-9.31-9.08-21.11-13.84-33.13-17.79-30.49-10-61.19-19.4-91.66-29.48-85.75-28.35-164.66-69.61-236.07-125.13-15.16-11.78-31.82-21.6-47.17-33.13-28.11-21.1-58.85-26.09-92.61-17.93-27.74,6.71-55.65,12.56-84.14,15.61-51,5.45-94.31-12.19-133.56-42.93-16.55-13-31.68-27.4-46.31-42.54-21.46-22.19-29-48.35-26.44-78.44,5.23-61.63,17.51-122,31.77-182C636.89-44.69,642.25-60,652-73.4c9.56-13.12,20-13.66,30.08-1,5.5,7,9.14,15.12,13.12,23,7.07,14,14.23,28,24.36,40.1,19.19,23,45.64,32.1,73.72,36.8,47,7.85,93.67,4.25,140.1-5.12a216.45,216.45,0,0,1,30.79-4c27.07-1.52,46.63,10.41,60.65,32.81,3.49,5.57,6.9,11.21,10.78,16.51,5.32,7.28,11.49,7.74,17.88,1.45,6.22-6.13,10.16-13.79,13.77-21.63,15-32.6,27.83-66.23,46-97.31,5.38-9.17,11.32-18,19.72-24.8,12.52-10.14,25.35-10.06,37.83.33,12.28,10.22,20.9,23.35,28.37,37.19,10.32,19.13,19.76,38.75,30.24,57.79,10.88,19.75,25.48,37.07,37.78,55.91,16.17,24.75,24.63,51.76,26.27,81.25,1,17.88,1.13,35.89,4.61,53.56,6.13,31.13,25.75,51.74,53.17,65,47.18,22.87,96.78,36.72,149.68,36.63a98.15,98.15,0,0,0,28.34-4.5c29.92-9,41.16-34.27,39.37-62.29-1.28-20.05-8.49-38.39-16.13-56.6-18.46-44-28.73-89.41-25.64-137.4,1.17-18.2,4.64-36,7.43-54,8.11-52.19,0-102.19-21.41-150.24-1-2.29-1.81-4.68-2.71-7,46.54,0,93.09.11,139.63-.15,5.21,0,6.22,1,6.22,6.22q-.24,484.17-.14,968.34c-10-14.25-19.44-28.91-30.44-42.45-8-9.81-16.15-19.41-26.19-27.27-31.56-24.69-65.53-28.53-101.56-11.23-51.23,24.6-91.92,61.58-125.81,106.86-25.6,34.21-53.35,66.62-87.86,92.48h-85c-7.62-2.55-15.17-5.36-22.88-7.61-25.23-7.37-50.37-8.63-75.4,1.22-6.53,2.57-13.39,4.28-20.1,6.39Z" transform="translate(287.01 161.03)"/><path class="b" d="M-74.37,931.92C-79.14,913-68.7,899.4-58,886.11c12.86-16,27.74-30.12,41.85-45,21.86-23,42.37-47,54.51-76.88C47,743,51.55,720.79,53.18,698c2-27.68,16.68-43.52,42.56-45.19a102.26,102.26,0,0,1,29.38,2.32c30.17,6.84,55.53,22.64,78.57,42.52,23.19,20,46.34,39.75,74.89,52.33a591.91,591.91,0,0,0,148,43.32c62.68,9.79,124.9,22.07,187.1,34.45,34.37,6.85,67.85,2.89,101.28-5.36,8.32-2.05,16.74-3.79,25.19-5.27,16-2.79,27.26,3.68,32.52,19.07,9.48,27.71,8.31,55.63.66,83.52-1.13,4.12-2.55,8.16-3.84,12.24Z" transform="translate(287.01 161.03)"/><path class="a" d="M1284,931.92c34.51-25.86,62.26-58.27,87.86-92.48,33.89-45.28,74.58-82.26,125.81-106.86,36-17.3,70-13.46,101.56,11.23,10,7.86,18.21,17.46,26.19,27.27,11,13.54,20.44,28.2,30.44,42.45,0,37.44-.14,74.88.15,112.32,0,5.2-1,6.22-6.23,6.21Q1466.94,931.79,1284,931.92Z" transform="translate(287.01 161.03)"/><path class="b" d="M-286.86,297.49c9,8.41,17,17.89,26.3,26.07,21.34,18.69,45,26.55,73.45,20.7,19.89-4.09,38.64.1,52.49,16,15.5,17.8,19.14,38.32,10.67,60.76-7.38,19.55-20.26,35.57-33.71,50.89-26.26,29.93-41.43,64.43-49,103.38-7.12,36.72-17.29,72.83-34.73,106.29a688,688,0,0,1-45.5,74.26Z" transform="translate(287.01 161.03)"/><path class="b" d="M48.57-160.88c-18.57,11.39-38,20.81-59.89,23.46C-27-135.53-38.21-145-41-160.88Z" transform="translate(287.01 161.03)"/><path class="b" d="M-286.86,884.87c7,1.65,11.7,6.79,16.16,11.67,9.33,10.21,17.46,21.33,20.27,35.38-10.88,0-21.76-.17-32.63.1-3.28.08-3.95-.63-3.9-3.9C-286.73,913.71-286.86,899.29-286.86,884.87Z" transform="translate(287.01 161.03)"/><path class="a" d="M1080.66,931.92c6.71-2.11,13.57-3.82,20.1-6.39,25-9.85,50.17-8.59,75.4-1.22,7.71,2.25,15.26,5.06,22.88,7.61Z" transform="translate(287.01 161.03)"/><path class="b" d="M590.35,301.74c-1.71,73.05-22.72,139.64-68.27,197.5-17.4,22.12-39.93,38.6-63.53,53.51q-51.6,32.6-103.57,64.61c-21.55,13.25-44.47,23.22-70.26,23.91-28.17.74-54.38-5.23-75.24-25.8-15.32-15.11-17.12-34.07-5.64-52.44,10.42-16.66,25.9-28.18,41-40.08,60.25-47.58,95-110.45,110-184.81C361,307.81,361,276.86,361.26,246c.34-36.47,2.13-72.79,13.62-107.84,6.26-19.08,14.06-37.44,28.37-52.15C420,68.87,441,64.88,463,74.46c16.5,7.19,29.41,18.85,39.33,33.5,16.74,24.73,34.2,48.92,53,72.1,23.64,29.2,33.64,62.87,35,99.69C590.58,287.07,590.35,294.41,590.35,301.74Z" transform="translate(287.01 161.03)"/></svg>