<svg xmlns="http://www.w3.org/2000/svg" viewBox="0 0 1943.04 1093.11"><defs><style>.a{fill:#ffffff;}.b{fill:#41c7f6;}</style></defs><title>1800f_00290</title><path class="a" d="M1655.9,749.78c0,58.94-.07,117.89.12,176.83,0,4.52-.91,5.43-5.44,5.43q-966.06-.19-1932.13,0c-5.57,0-5.39-2.15-5.38-6.23q.12-257.26.07-514.53c3.89-2,7.86-.73,11.83-.31,23.41,2.46,45.76,10.12,68.92,13.93,14,2.3,27.75,2.88,40.56-3.79a197.31,197.31,0,0,1,57.71-19.71c53.85-9.3,103-28,143.4-66.68,11.53-11,24.45-21.25,40.24-26.4s24.81-.11,28,16.06a32,32,0,0,1,.37,6c-.09,22.38-7.26,43.21-14.52,63.93a272.76,272.76,0,0,0-13.42,60.5c-3.07,27.72-3.27,55.42-2.48,83.24.4,14.37-7.12,21.26-21.5,21.38-18,.15-35.73-2.72-53.33-6-20-3.67-38.35-12.53-57.13-20-12.81-5.07-25-12.16-39.51-12.1-6.71,0-9.33,3.36-8.8,9.3a65.44,65.44,0,0,0,3,14c3.18,9.84,6.3,19.74,10.25,29.27,12,29,11.6,58.3,4.22,88.36-6.91,28.18-13.44,56.6-10.64,86.06,4,42.07,16.52,81.09,41.78,115.44,13.09,17.81,27.43,22.65,48.37,16.26,17.36-5.3,34.56-11,52.31-15.11,20.79-4.82,39.17-14.93,54-30.65,19.25-20.48,35.1-43.8,43.73-70.27C150.65,733,151.11,724,124.19,703c-11.15-8.7-23.13-16.88-30.79-28.91-14.74-23.15-15.67-48.58-8.68-74.34,4.07-15,10.79-19.33,26.53-19.46,13.41-.11,26.82.3,40.22,0,24.32-.53,45.79-7.58,63.5-25.6,26.06-26.53,54.71-50.3,82.53-74.94,49.58-43.89,89-95,114.2-156.76,22.95-56.18,38.55-114.38,49.9-173.85,4.32-22.66,9.7-45,22.73-64.65,13.37-20.14,25.79-24.88,48.39-16.8,17.83,6.38,35.31,13.8,52.78,21.15,27.75,11.67,55.29,23.73,79.78,41.74C674,137,684.33,139.72,695,141.27c15.17,2.21,30.26,1.18,45.34-.77,33.41-4.33,66-12.74,98.57-20.82,23.08-5.71,45-3.59,65.91,8.48,14.22,8.23,28.68,16.05,43.15,23.85,72.57,39.13,149.42,69.55,221.76,109.23,36.39,20,75.77,33.57,113.79,50.06,14.85,6.44,29.73,12.87,42.91,22.48,17.14,12.5,19.08,25.49,6.54,42.69-6.89,9.46-15.31,17.51-23.8,25.46-17,15.91-34.05,31.76-48,50.51-30.32,40.65-52,86-71.55,132.46-6.29,15-11.22,30.34-10.4,47,.86,17.44,13.41,30.28,30.77,31.64,15.11,1.17,29.1-2.54,42.55-8.89,19.53-9.22,37.19-21.54,54.64-34.07,56.92-40.85,110.64-85.11,151.35-143.17,9.12-13,18.39-26.11,31.07-36.1,18.06-14.23,33.53-13.3,49.83,2.87,14.49,14.38,23.13,32.4,31.17,50.75,9.78,22.28,15,46.12,23.34,68.91,19.56,53.66,40.06,107,54.83,162.29C1650.84,734.05,1651.61,742.48,1655.9,749.78ZM343.2,611.29c-30,0-56.13,4.52-81.8,11.49-9.87,2.67-19,7.24-24,17-5.22,10.1-11.13,19.95-14.55,30.81-4.46,14.2-2.21,26.84,13.12,33.13,4.9,2,9.59,4.55,14.46,6.64,35.46,15.17,69.08,33.44,99.62,57.24,22.71,17.71,45.53,35.35,72.31,46.88,35.66,15.36,72.21,17.29,108.77,5,42.44-14.25,56.07-53.49,33.13-91.81a108.36,108.36,0,0,0-16.86-21.39c-33.21-32.76-72.28-56.69-114.85-75.06C403,618.57,372.37,610.53,343.2,611.29Z" transform="translate(287.01 161.03)"/><path class="b" d="M1655.9,749.78c-4.29-7.3-5.06-15.73-7.19-23.67-14.77-55.29-35.27-108.63-54.83-162.29-8.31-22.79-13.56-46.63-23.34-68.91-8-18.35-16.68-36.37-31.17-50.75-16.3-16.17-31.77-17.1-49.83-2.87-12.68,10-22,23.08-31.07,36.1-40.71,58.06-94.43,102.32-151.35,143.17-17.45,12.53-35.11,24.85-54.64,34.07-13.45,6.35-27.44,10.06-42.55,8.89-17.36-1.36-29.91-14.2-30.77-31.64-.82-16.64,4.11-32,10.4-47,19.53-46.47,41.23-91.81,71.55-132.46,14-18.75,31-34.6,48-50.51,8.49-7.95,16.91-16,23.8-25.46,12.54-17.2,10.6-30.19-6.54-42.69-13.18-9.61-28.06-16-42.91-22.48-38-16.49-77.4-30.09-113.79-50.06-72.34-39.68-149.19-70.1-221.76-109.23-14.47-7.8-28.93-15.62-43.15-23.85C883.93,116.09,862,114,838.88,119.68c-32.61,8.08-65.16,16.49-98.57,20.82-15.08,1.95-30.17,3-45.34.77-10.64-1.55-21-4.32-29.69-10.71-24.49-18-52-30.07-79.78-41.74-17.47-7.35-35-14.77-52.78-21.15-22.6-8.08-35-3.34-48.39,16.8-13,19.63-18.41,42-22.73,64.65-11.35,59.47-27,117.67-49.9,173.85-25.21,61.72-64.62,112.87-114.2,156.76C269.68,504.37,241,528.14,215,554.67c-17.71,18-39.18,25.07-63.5,25.6-13.4.29-26.81-.12-40.22,0-15.74.13-22.46,4.45-26.53,19.46-7,25.76-6.06,51.19,8.68,74.34,7.66,12,19.64,20.21,30.79,28.91,26.92,21,26.46,30,16.28,61.18-8.63,26.47-24.48,49.79-43.73,70.27C82,850.14,63.58,860.25,42.79,865.07,25,869.18,7.84,874.88-9.52,880.18c-20.94,6.39-35.28,1.55-48.37-16.26-25.26-34.35-37.79-73.37-41.78-115.44C-102.47,719-95.94,690.6-89,662.42c7.38-30.06,7.8-59.34-4.22-88.36-4-9.53-7.07-19.43-10.25-29.27a65.44,65.44,0,0,1-3-14c-.53-5.94,2.09-9.28,8.8-9.3,14.49-.06,26.7,7,39.51,12.1,18.78,7.43,37.11,16.29,57.13,20,17.6,3.23,35.32,6.1,53.33,6,14.38-.12,21.9-7,21.5-21.38-.79-27.82-.59-55.52,2.48-83.24a272.76,272.76,0,0,1,13.42-60.5c7.26-20.72,14.43-41.55,14.52-63.93a32,32,0,0,0-.37-6c-3.18-16.17-12.07-21.25-28-16.06s-28.71,15.37-40.24,26.4C-4.82,373.4-54,392.14-107.84,401.44a197.31,197.31,0,0,0-57.71,19.71c-12.81,6.67-26.55,6.09-40.56,3.79-23.16-3.81-45.51-11.47-68.92-13.93-4-.42-7.94-1.65-11.83.31V126c18.28,4.16,32.43,14.77,44.09,28.89,12.35,15,23,31.3,38.24,43.86,32.1,26.37,68.69,38.22,109.44,30.63,44.65-8.32,88.91-18.71,133.94-25.2,28.56-4.12,54.73-14,75.82-34.78,16.28-16,30.17-34,43.23-52.64,17.85-25.51,33-52.71,49.64-79C236-7.21,275.35-41.64,316.1-74.67c19.69-16,40.53-30.29,64.61-39.1,24.49-9,44.56-3.14,60.55,17.43a120,120,0,0,1,15.46,26.89c6.08,14.26,13.59,27.69,23.38,39.75,13.58,16.75,27.85,17.43,43,2.19a104.59,104.59,0,0,0,15.08-19.9c16.84-27.77,29.68-57.47,41.8-87.5,7.16-17.73,16.19-22.71,34.93-19.16,12.89,2.45,25.63,5.95,38.77,6.88,21.16,1.5,42.35,2.93,63.55,3.79,34.57,1.4,69.25,4.27,103.59-2.48,16.28-3.2,32.65-6.52,47.32-15h245.88c14.07,15.95,28.9,31.44,48,41,52.48,26.34,104.64,20.94,155.3-5.32,13.88-7.19,22.67-20.42,27.4-35.71q152.54,0,305.07-.15c5.2,0,6.22,1,6.22,6.22Q1655.8,297.48,1655.9,749.78Z" transform="translate(287.01 161.03)"/><path class="a" d="M868.17-160.88c-14.67,8.48-31,11.8-47.32,15-34.34,6.75-69,3.88-103.59,2.48-21.2-.86-42.39-2.29-63.55-3.79-13.14-.93-25.88-4.43-38.77-6.88-18.74-3.55-27.77,1.43-34.93,19.16-12.12,30-25,59.73-41.8,87.5a104.59,104.59,0,0,1-15.08,19.9c-15.18,15.24-29.45,14.56-43-2.19-9.79-12.06-17.3-25.49-23.38-39.75a120,120,0,0,0-15.46-26.89c-16-20.57-36.06-26.39-60.55-17.43-24.08,8.81-44.92,23.15-64.61,39.1C275.35-41.64,236-7.21,207.54,37.76c-16.63,26.27-31.79,53.47-49.64,79-13.06,18.66-27,36.62-43.23,52.64C93.58,190.14,67.41,200,38.85,204.16c-45,6.49-89.29,16.88-133.94,25.2-40.75,7.59-77.34-4.26-109.44-30.63-15.28-12.56-25.89-28.89-38.24-43.86-11.66-14.12-25.81-24.73-44.09-28.89q0-140-.15-280c0-5.69,1.29-7,7-7Q294.06-160.8,868.17-160.88Z" transform="translate(287.01 161.03)"/><path class="a" d="M1344.75-160.88c-4.73,15.29-13.52,28.52-27.4,35.71-50.66,26.26-102.82,31.66-155.3,5.32-19.1-9.59-33.93-25.08-48-41Z" transform="translate(287.01 161.03)"/><path class="b" d="M343.2,611.29c29.17-.76,59.84,7.28,89.33,20,42.57,18.37,81.64,42.3,114.85,75.06a108.36,108.36,0,0,1,16.86,21.39c22.94,38.32,9.31,77.56-33.13,91.81-36.56,12.26-73.11,10.33-108.77-5C395.56,803,372.74,785.35,350,767.64c-30.54-23.8-64.16-42.07-99.62-57.24-4.87-2.09-9.56-4.63-14.46-6.64-15.33-6.29-17.58-18.93-13.12-33.13,3.42-10.86,9.33-20.71,14.55-30.81,5.06-9.8,14.15-14.37,24-17C287.07,615.81,313.16,611.29,343.2,611.29Z" transform="translate(287.01 161.03)"/></svg>