<svg xmlns="http://www.w3.org/2000/svg" viewBox="0 0 1943.05 1093.08"><defs><style>.a{fill:#ffffff;}.b{fill:#41c7f6;}</style></defs><title>1800f_00371</title><path class="a" d="M807.46,931.92h-601c-.64-6.82,1.09-13.51.77-20.39C206,887,198.28,864,191.27,840.77c-17-56.11-39.53-110-77.32-155-42-50.11-86.12-98.63-135-142.37-21.14-18.92-43.79-35.86-69.81-47.77-27.88-12.76-55.4-15.2-82.06,3.12-37.84,26-58.37,61.56-61,107.8-1.11,19.81-2.55,39.75-7.75,59.12-9.19,34.29-27.74,64.38-43,96-.38.79-1.48,1.24-2.25,1.85V15.18c19-13,38.08-26.08,59.21-35.29C-196-33.9-165.79-49.88-137.56-69.83a139.59,139.59,0,0,1,53.24-23c49.69-10,100.26-12,150.57-16,35.42-2.82,70.66,1.7,105.82,5.87,46.78,5.55,90,20.15,128.4,48.22,26.69,19.5,47.11,42.87,52.46,76.63,2.18,13.71,2.82,27.68,5.41,41.3,6.23,32.73,25.7,47.74,58.81,46.2a127.14,127.14,0,0,0,29-5.28C499.38,88.8,549.5,66,598.68,41c15.8-8,31.84-15.46,49-20.26,29-8.14,57-6.61,83.31,9.33,11,6.69,20.94,15,31.35,22.54s21,14.17,33.73,16.55c4.5.85,9,1.53,12.53-2.76s.47-7.75-1.06-11.2c-3-6.7-6.43-13.18-9.73-19.72-9.06-18-8.65-35.34,3-52.26a266.76,266.76,0,0,1,24.5-30.84c24.93-26.78,52.2-51.55,71.3-83.34,6.2-10.33,15.07-18.88,20.2-29.95h566.13c6,25.57,11.61,51.26,15.9,77.18,7.38,44.68,9.3,89.45.55,134.22-6.38,32.66-17.73,63.78-30.11,94.49-22.29,55.29-39.93,111.78-48,171.07-3.52,26-6.21,52.21-12.92,77.7-4.7,17.84-11.66,34.65-26.15,47a207.85,207.85,0,0,1-53.38,32.94c-21.59,9.21-44.14,14.76-67.26,8.46-36.42-9.92-71.62-23.49-104-43.15-26.7-16.2-43.9-41.43-60.47-67-27.75-42.78-38.86-88.95-28.25-139.58,4.94-23.54,12.14-46.42,19-69.43,5.63-18.9,10.78-37.95,9.67-58-1.58-28.53-21.32-41-47.71-30.16A82,82,0,0,0,1029,87.26C989.09,120,955.72,158.38,929.88,203a172.63,172.63,0,0,0-23.36,95.22c1.41,33.8,8.1,66.66,18.46,98.8a437.21,437.21,0,0,0,31.19,74c22.49,41.61,42.68,84.35,62.88,127.09,14.38,30.4,37.6,50.17,69.82,59.55,11.4,3.32,22.84,6.57,34.1,10.33,22.32,7.45,26.14,19.18,13.15,39.07-6.41,9.81-14.51,18.19-22.57,26.55-18.43,19.09-36.32,38.85-60.19,51.61-18.59,9.93-38.28,17.31-58.27,23.59C920.82,832.08,861.43,877.81,807.46,931.92ZM731,757.51c18.42-.07,32.74-6.8,46.32-15.3,14.08-8.8,26.47-19.42,33-35.34,7.26-17.7-2.32-32.27-21.44-32.77-28.95-.76-66.84,26.62-76.65,55.43C707,744.94,713.27,758.86,731,757.51ZM353.88,210.23c-9.43,0-16.07,4.47-17.33,12.49-1.12,7.08-.44,14.11,3.11,20.59,10.85,19.77,29.24,28.95,49.94,33.28,14.36,3,20-5.23,13.86-18.73a114,114,0,0,0-26.71-37.27C370.41,214.81,363.09,210.13,353.88,210.23Z" transform="translate(287.01 161.03)"/><path class="b" d="M807.46,931.92c54-54.11,113.36-99.84,187.63-123.15,20-6.28,39.68-13.66,58.27-23.59,23.87-12.76,41.76-32.52,60.19-51.61,8.06-8.36,16.16-16.74,22.57-26.55,13-19.89,9.17-31.62-13.15-39.07-11.26-3.76-22.7-7-34.1-10.33-32.22-9.38-55.44-29.15-69.82-59.55-20.2-42.74-40.39-85.48-62.88-127.09A437.21,437.21,0,0,1,925,397c-10.36-32.14-17.05-65-18.46-98.8A172.63,172.63,0,0,1,929.88,203c25.84-44.62,59.21-83,99.09-115.74a82,82,0,0,1,20.77-12.43c26.39-10.89,46.13,1.63,47.71,30.16,1.11,20.07-4,39.12-9.67,58-6.85,23-14,45.89-19,69.43-10.61,50.63.5,96.8,28.25,139.58,16.57,25.55,33.77,50.78,60.47,67,32.41,19.66,67.61,33.23,104,43.15,23.12,6.3,45.67.75,67.26-8.46a207.85,207.85,0,0,0,53.38-32.94c14.49-12.32,21.45-29.13,26.15-47,6.71-25.49,9.4-51.69,12.92-77.7,8-59.29,25.67-115.78,48-171.07,12.38-30.71,23.73-61.83,30.11-94.49,8.75-44.77,6.83-89.54-.55-134.22-4.29-25.92-9.86-51.61-15.9-77.18,55.65,0,111.3.09,167-.15,5.2,0,6.23,1,6.22,6.22q-.27,201.11-.14,402.21c-16.42,1.86-29.9,9.28-39.88,22.32-26.78,35-32.74,74.23-22.15,116.25,6.44,25.55,18.16,49.29,27.31,73.9,11,29.56,23.1,58.72,34.72,88v214c-3.2,8.32-3.64,17.14-4.51,25.86-1.45,14.53-9.73,23.09-24.26,24.28a69.44,69.44,0,0,1-18.86-.84c-24.33-4.69-46.5-15.26-68.73-25.45-38.27-17.55-77.24-30.78-120.39-27.18-24.57,2-47,9.13-67,23.41-20.76,14.81-26.07,35.24-15.88,58.65,14.82,34.09,40.15,58.28,71.79,76.54,8.68,5,17.48,9.82,26.23,14.72Z" transform="translate(287.01 161.03)"/><path class="b" d="M916.74-160.88c-5.13,11.07-14,19.62-20.2,29.95-19.1,31.79-46.37,56.56-71.3,83.34a266.76,266.76,0,0,0-24.5,30.84c-11.63,16.92-12,34.26-3,52.26,3.3,6.54,6.78,13,9.73,19.72,1.53,3.45,4.49,7,1.06,11.2s-8,3.61-12.53,2.76c-12.76-2.38-23.45-9.08-33.73-16.55S742,36.79,730.94,30.1c-26.33-15.94-54.29-17.47-83.31-9.33-17.11,4.8-33.15,12.23-49,20.26-49.18,25-99.3,47.77-152.51,63a127.14,127.14,0,0,1-29,5.28c-33.11,1.54-52.58-13.47-58.81-46.2-2.59-13.62-3.23-27.59-5.41-41.3-5.35-33.76-25.77-57.13-52.46-76.63C262.05-82.87,218.85-97.47,172.07-103c-35.16-4.17-70.4-8.69-105.82-5.87-50.31,4-100.88,6-150.57,16a139.59,139.59,0,0,0-53.24,23C-165.79-49.88-196-33.9-227.65-20.11c-21.13,9.21-40.22,22.27-59.21,35.29,0-56.41.1-112.82-.15-169.23,0-5.7,1.29-7,7-7Q318.35-160.8,916.74-160.88Z" transform="translate(287.01 161.03)"/><path class="b" d="M-286.86,763.44c.77-.61,1.87-1.06,2.25-1.85,15.21-31.59,33.76-61.68,43-96,5.2-19.37,6.64-39.31,7.75-59.12,2.61-46.24,23.14-81.8,61-107.8,26.66-18.32,54.18-15.88,82.06-3.12,26,11.91,48.67,28.85,69.81,47.77,48.89,43.74,93,92.26,135,142.37,37.79,45.09,60.36,98.94,77.32,155,7,23.22,14.77,46.19,15.92,70.76.32,6.88-1.41,13.57-.77,20.39H110.8c-15.65-14.37-30-30-44.77-45.26-29.3-30.34-57.23-61.81-82.27-95.85-9.2-12.52-18.27-25.4-31.21-34.74-8.52-6.14-14.91-6.55-23.46-.51-7.84,5.53-13.28,13.18-17,21.8-13.1,30.54-11.06,64.18-19,95.89-2.88,11.48-4.57,23.59-7.1,35.36-1.68,7.85-5.86,15-5.89,23.31-53.76,0-107.52-.07-161.28.12-4.74,0-5.82-1.07-5.8-5.8C-286.79,872-286.86,817.71-286.86,763.44Z" transform="translate(287.01 161.03)"/><path class="a" d="M1434.3,931.92c-8.75-4.9-17.55-9.7-26.23-14.72-31.64-18.26-57-42.45-71.79-76.54-10.19-23.41-4.88-43.84,15.88-58.65,20-14.28,42.42-21.36,67-23.41,43.15-3.6,82.12,9.63,120.39,27.18,22.23,10.19,44.4,20.76,68.73,25.45a69.44,69.44,0,0,0,18.86.84c14.53-1.19,22.81-9.75,24.26-24.28.87-8.72,1.31-17.54,4.51-25.86,0,54.89-.07,109.78.12,164.68,0,4.52-.91,5.45-5.44,5.43Q1542.45,931.77,1434.3,931.92Z" transform="translate(287.01 161.03)"/><path class="a" d="M-119.9,931.92c0-8.26,4.21-15.46,5.89-23.31,2.53-11.77,4.22-23.88,7.1-35.36,8-31.71,5.93-65.35,19-95.89,3.69-8.62,9.13-16.27,17-21.8,8.55-6,14.94-5.63,23.46.51,12.94,9.34,22,22.22,31.21,34.74,25,34,53,65.51,82.27,95.85,14.74,15.27,29.12,30.89,44.77,45.26Z" transform="translate(287.01 161.03)"/><path class="a" d="M1655.9,547.92c-11.62-29.33-23.72-58.49-34.72-88-9.15-24.61-20.87-48.35-27.31-73.9-10.59-42-4.63-81.27,22.15-116.25,10-13,23.46-20.46,39.88-22.32Z" transform="translate(287.01 161.03)"/><path class="b" d="M731,757.51c-17.74,1.35-24-12.57-18.77-28,9.81-28.81,47.7-56.19,76.65-55.43,19.12.5,28.7,15.07,21.44,32.77-6.53,15.92-18.92,26.54-33,35.34C763.75,750.71,749.43,757.44,731,757.51Z" transform="translate(287.01 161.03)"/><path class="b" d="M353.88,210.23c9.21-.1,16.53,4.58,22.87,10.36a114,114,0,0,1,26.71,37.27c6.15,13.5.5,21.73-13.86,18.73-20.7-4.33-39.09-13.51-49.94-33.28-3.55-6.48-4.23-13.51-3.11-20.59C337.81,214.7,344.45,210.21,353.88,210.23Z" transform="translate(287.01 161.03)"/></svg>