<svg xmlns="http://www.w3.org/2000/svg" viewBox="0 0 1943.64 1093.69"><defs><style>.a{fill:#ffffff;}.b{fill:#41c7f6;}</style></defs><title>1800f_00099</title><path class="a" d="M1655.9,684.52v126c-6.86,2.51-13.76,4.9-20.56,7.55-29.16,11.39-56.41,25.87-77.18,50.08-15.72,18.33-22,39.75-19.13,63.79h-221.6a248,248,0,0,0,42.39-45c6.47-8.77,12.91-17.55,15.8-28.26,3.21-11.95-1.56-20.3-13.3-24.06a32.48,32.48,0,0,0-10.46-1.43c-41.84.63-73.82,20.15-98.31,52.73-12.73,16.94-12,29.28.13,46H1060.93c-.59-4-3.23-6.76-5.91-9.46-13.38-13.47-30.35-20.74-47.68-27.23-38.05-14.24-78-16.87-117.94-17.47-69-1-137.1,8.48-204.94,20-39.78,6.78-77.73,19.8-115.29,34.11H200.35c18-9.18,36.15-17.9,52.61-29.86,83.94-61,117.21-161.17,85.94-260.14-3.72-11.76-7.67-23.63-17.13-32.49-5.68-5.32-10.88-5.38-16.57-.13-6,5.51-10.89,11.88-15.77,18.35-19.5,25.86-37.66,31.92-66.55,18.37-45.06-21.14-90.09-42.63-126.94-77.54-27.23-25.79-47.34-54.8-50.61-93.68-4.16-49.29-7.12-98.66-14.67-147.7-5.79-37.6-11.8-74.83-27.88-109.67-13.63-29.53-31.34-56-57.81-75.68-17.25-12.85-35.38-13.34-49.37-1.4-17.45,14.9-22.58,34.64-14.24,56q10.62,27.16,21.7,54.16C-76.25,300.73-65.7,352.9-68.69,407.25c-1.86,33.69-2.18,67.19,3.53,100.52,6.19,36.15,15.41,71.32,37.59,101.44,13.23,18,29.82,33,46.11,48.11C33.19,671,47.15,685.22,57.9,702.25c19.88,31.5,18.26,62.51-4.75,90.57C37.42,812,16.43,822.57-7.08,828.65c-26.06,6.73-51.35,15.3-74.33,29.66-25.3,15.81-50.66,31.51-75.74,47.66-12.69,8.16-25.83,15.75-37.13,25.95-28.83,0-57.67-.17-86.51.15-5.21.06-6.22-1-6.21-6.22q.25-308.49.14-617V54.64a299.53,299.53,0,0,1,91.39-.53c26.55,4,51.87,13.26,77.7,20.31,16.86,4.6,33.66,6.27,50.87,1.7C-26.6,65.43,13.84,55.49,55,48.42,152.12,31.75,238.34-7.18,309.33-77.11,322.44-90,335.62-103.06,351-113.52c13.66-9.3,28-11,43.07-3.87,20.95,10,37.34,25.08,48.49,45.36,10.75,19.53,27,28.46,49,28.41,16.22,0,32.27-2.05,48.41-3.15,37.58-2.55,75.16-3.92,112.88-2.4,28.77,1.16,57.56,2,86.25,4.1,51.9,3.75,103.28,12,154.64,20.16,23.68,3.76,47.39,8.14,71.58,5.32,16.83-1.95,23.5-10,20.85-26.62-2.21-13.88.53-26.63,6.45-39,10.86-22.68,28.73-39.5,47.06-55.9,7.51-6.72,15.22-13.22,22.83-19.81h94.11c-3.43,15-7.35,30-13.06,44.34-20,50.33-50.47,91-104,109.57-15.16,5.26-21.62,16.15-22.81,31.49-1.28,16.49-.2,32.84,1.73,49.16,2.56,21.62,6,43,14.92,63.21,7.72,17.53,20.42,28.55,39.64,31.46,10.3,1.56,20.57,2,30.92.2,31.78-5.5,57.41-20,73.72-48.93,6.15-10.9,9.12-23,14-34.35,12-27.85,29.86-49.8,60.63-58.16,16-4.36,32.15-3.42,48,.35,25.18,6,50.64,12.5,70,30.76,34,32,54.65,71.65,63.85,117.34,6.33,31.42,6,63.38,7.1,95.17,2.41,68.81,13.45,136.22,30.86,202.69,14.54,55.52,40.14,104.65,83.36,143.5,22.87,20.56,48.82,36.83,74.7,53.16C1638.53,675.32,1646.65,681,1655.9,684.52Z" transform="translate(287.01 161.62)"/><path class="b" d="M1655.9,684.52c-9.25-3.57-17.37-9.2-25.66-14.44-25.88-16.33-51.83-32.6-74.7-53.16-43.22-38.85-68.82-88-83.36-143.5-17.41-66.47-28.45-133.88-30.86-202.69-1.11-31.79-.77-63.75-7.1-95.17-9.2-45.69-29.89-85.37-63.85-117.34-19.4-18.26-44.86-24.78-70-30.76-15.87-3.77-32-4.71-48-.35-30.77,8.36-48.58,30.31-60.63,58.16-4.91,11.35-7.88,23.45-14,34.35-16.31,28.9-41.94,43.43-73.72,48.93-10.35,1.8-20.62,1.36-30.92-.2-19.22-2.91-31.92-13.93-39.64-31.46-8.89-20.17-12.36-41.59-14.92-63.21-1.93-16.32-3-32.67-1.73-49.16,1.19-15.34,7.65-26.23,22.81-31.49,53.49-18.59,83.92-59.24,104-109.57,5.71-14.35,9.63-29.29,13.06-44.34h484.17c-1.37,17.31-3.64,34.55-1.42,52,2.24,17.73,6.79,34.54,16.6,49.68Z" transform="translate(287.01 161.62)"/><path class="b" d="M1062.44-160.88c-7.61,6.59-15.32,13.09-22.83,19.81-18.33,16.4-36.2,33.22-47.06,55.9-5.92,12.33-8.66,25.08-6.45,39,2.65,16.62-4,24.67-20.85,26.62-24.19,2.82-47.9-1.56-71.58-5.32C842.31-33.06,790.93-41.32,739-45.07c-28.69-2.08-57.48-2.94-86.25-4.1-37.72-1.52-75.3-.15-112.88,2.4-16.14,1.1-32.19,3.11-48.41,3.15-22,0-38.21-8.88-49-28.41C431.38-92.31,415-107.41,394-117.39c-15.07-7.17-29.41-5.43-43.07,3.87C335.62-103.06,322.44-90,309.33-77.11,238.34-7.18,152.12,31.75,55,48.42c-41.16,7.07-81.6,17-121.9,27.7-17.21,4.57-34,2.9-50.87-1.7-25.83-7-51.15-16.26-77.7-20.31a299.53,299.53,0,0,0-91.39.53c0-69.56.08-139.13-.15-208.69,0-5.7,1.29-7,7-7Q391.21-160.8,1062.44-160.88Z" transform="translate(287.01 161.62)"/><path class="b" d="M-194.28,931.92c11.3-10.2,24.44-17.79,37.13-25.95,25.08-16.15,50.44-31.85,75.74-47.66,23-14.36,48.27-22.93,74.33-29.66,23.51-6.08,44.5-16.64,60.23-35.83,23-28.06,24.63-59.07,4.75-90.57-10.75-17-24.71-31.29-39.36-44.93-16.29-15.15-32.88-30.14-46.11-48.11C-49.75,579.09-59,543.92-65.16,507.77c-5.71-33.33-5.39-66.83-3.53-100.52,3-54.35-7.56-106.52-28.25-156.76q-11.11-27-21.7-54.16c-8.34-21.34-3.21-41.08,14.24-56,14-11.94,32.12-11.45,49.37,1.4,26.47,19.72,44.18,46.15,57.81,75.68C18.86,252.27,24.87,289.5,30.66,327.1c7.55,49,10.51,98.41,14.67,147.7,3.27,38.88,23.38,67.89,50.61,93.68,36.85,34.91,81.88,56.4,126.94,77.54,28.89,13.55,47.05,7.49,66.55-18.37,4.88-6.47,9.8-12.84,15.77-18.35,5.69-5.25,10.89-5.19,16.57.13,9.46,8.86,13.41,20.73,17.13,32.49,31.27,99-2,199.15-85.94,260.14-16.46,12-34.64,20.68-52.61,29.86Z" transform="translate(287.01 161.62)"/><path class="b" d="M569.17,931.92c37.56-14.31,75.51-27.33,115.29-34.11,67.84-11.57,135.92-21.09,204.94-20,40,.6,79.89,3.23,117.94,17.47,17.33,6.49,34.3,13.76,47.68,27.23,2.68,2.7,5.32,5.44,5.91,9.46Z" transform="translate(287.01 161.62)"/><path class="b" d="M1539,931.92c-2.87-24,3.41-45.46,19.13-63.79,20.77-24.21,48-38.69,77.18-50.08,6.8-2.65,13.7-5,20.56-7.55,0,39-.07,77.91.09,116.86,0,3.8-.85,4.67-4.65,4.66C1613.9,931.85,1576.47,931.92,1539,931.92Z" transform="translate(287.01 161.62)"/><path class="b" d="M1253.68,931.92c-12.12-16.73-12.86-29.07-.13-46,24.49-32.58,56.47-52.1,98.31-52.73a32.48,32.48,0,0,1,10.46,1.43c11.74,3.76,16.51,12.11,13.3,24.06-2.89,10.71-9.33,19.49-15.8,28.26a248,248,0,0,1-42.39,45Z" transform="translate(287.01 161.62)"/><path class="a" d="M1655.9-59.19c-9.81-15.14-14.36-31.95-16.6-49.68-2.22-17.46,0-34.7,1.42-52,5.06,0,12.09-2,14.62.55s.56,9.57.56,14.63Z" transform="translate(287.01 161.62)"/></svg>