<svg xmlns="http://www.w3.org/2000/svg" viewBox="0 0 1943.1 1093.11"><defs><style>.a{fill:#ffffff;}.b{fill:#41c7f6;}</style></defs><title>1800f_00144</title><path class="a" d="M-286.86,333.91V314.18a141.43,141.43,0,0,1,36.33-14.46c16.65-4.24,33.27-8.61,49.95-12.76,50.6-12.59,102.16-19.89,153.69-27.29,35.52-5.11,71.09-9.9,106.94-11.89,40.59-2.25,80.87,1.7,120.84,8.11,37.93,6.09,74.38,3.18,109.85-12.3,22.74-9.93,44.8-21.21,67.16-31.87C407.67,188,455.81,187,503.51,217.89c25.46,16.46,51.88,31.48,77.43,47.86,57.6,36.92,120.85,49.46,188.41,44.44,34-2.52,67.9-6.66,102.12-3.74a146.08,146.08,0,0,0,34.07-.77c20.24-3,40.5-5.91,60.75-8.88,53.93-7.9,105.72,2.09,156.55,19.19,12.66,4.26,20.24,13.72,23.15,26.91a75.7,75.7,0,0,1,1.41,19.61c-1.09,24.67-6.36,48.63-13.76,72-7,22-4.13,42.1,7.95,61.66,13.17,21.29,25.52,43.08,35.59,66.07a408.69,408.69,0,0,0,19.8,39.27c33,57.43,81.69,86.59,148.67,83.2,25-1.27,40.39-13.25,47.6-37.25a114,114,0,0,0,4.4-27.64c1.67-37.13,2.92-74.27,4.41-111.4,1.24-31.13-.69-62.15-2.06-93.23-2.27-51.94,7.64-102.63,18.44-153.12,6.07-28.41,13.08-56.63,16.75-85.51,3.54-27.86-13.25-45.87-41-44a141.48,141.48,0,0,0-32.69,6.24c-27.34,8.51-51.61,23-75.73,38-15.68,9.7-30.85,20.39-48.22,27-4.28,1.64-9.13,3-13-.36-4.09-3.56-2.39-8.37-.93-12.75,5.72-17.14,16.48-31.18,27.76-44.88,16.12-19.57,31.5-39.62,40.75-63.57,7.84-20.3,6.06-39.48-8.73-56C1267.54,8.55,1251.53-9,1234.57-25.71c-27.64-27.18-60.34-40.39-99.39-38.3-36.81,2-71.62,11.83-105.92,24.44C998-28.1,969.66-10.74,939.79,3.53c-31.22,14.93-63.71,22.06-98.55,18.16-28.17-3.16-55.84-9.18-83.81-13.42-36.2-5.48-72.32-6.94-108.79-2.67C616,9.42,584,17.15,551.26,20.38,518.74,23.59,488.13,18,459.07,2.14,428.45-14.51,405.11-69,422-104.45c5.68-11.92,12.72-23,19.32-34.34,4.25-7.3,10.65-13.42,12.48-22.09h887.9c-.84,4.39,2.5,6.41,5.19,8.49a65.68,65.68,0,0,0,18,9.58,127.42,127.42,0,0,1,46.36,29.41c6.48,6.38,13.39,12.32,20.07,18.5C1461.51-67,1495-44.48,1533.57-29.57a332.08,332.08,0,0,1,45.24,21.25,67.54,67.54,0,0,1,31.57,38.26c3.48,10.29,6.53,20.75,10.55,30.83,7.33,18.38,18.08,34.34,35,45.48V467.48c-8.68,11.82-15.56,24.75-22.9,37.38-25.69,44.24-48.66,89.64-60,140.09-7.56,33.72-13.8,67.75-23,101.12a101.69,101.69,0,0,0-3.56,26.21c-.39,57.1,14.17,110.22,42.6,159.64H-233.74c9.12-13.76,20.88-25.13,33-36,19.49-17.52,43-29.17,64.51-43.81,19.39-13.23,39.61-25.36,55.72-42.8,9.7-10.5,9.06-15-4.69-23a14.85,14.85,0,0,0-2.86-1c-35.86-12.06-58.39-36-67.79-73.09a645.52,645.52,0,0,1-15-84.21c-3.81-32.92-6.41-65.94-2.06-99,1.46-11.1,2.46-22.13.47-33.19-5.79-32.08-21.62-59.59-39.52-86.15C-232.1,379.59-261.49,358.74-286.86,333.91ZM776.7,649.31c-.58,17.12,2.56,35.35,12.13,52.1,11.88,20.81,31.06,26.45,52.19,15.28a95.11,95.11,0,0,0,12.79-8.1c30-22.61,57.59-47.77,81.19-77,21.8-27,29.3-57.81,20.83-91.77-5.09-20.39-17.14-37.23-31-52.34C907.72,468.81,895.45,449,900,422.37c.81-4.77-.34-9.58-2.4-14-3.95-8.56-11.68-9.87-18-3-5.87,6.42-7.06,14.56-6.63,22.65,1.51,28.64-9.09,52.78-26.63,74.53-11.41,14.15-23.4,27.86-33.81,42.82C791.14,576.08,776.43,609.1,776.7,649.31ZM64.31,726.16c-40.17,1.23-67.41,19.28-88.52,48-4.58,6.24-3.33,11.7,2.7,16.56a35.4,35.4,0,0,0,7.78,4.61c31.13,13.89,62.25,27.79,93.48,41.47,17.79,7.79,35.33,16.3,54.54,20.36,24.32,5.14,43.89-7.84,48.75-32.06,3.44-17.21-1.4-32.45-12.17-45.23C142.27,746,104.3,730.47,64.31,726.16Z" transform="translate(287.06 161.03)"/><path class="b" d="M453.82-160.88c-1.83,8.67-8.23,14.79-12.48,22.09-6.6,11.36-13.64,22.42-19.32,34.34C405.11-69,428.45-14.51,459.07,2.14,488.13,18,518.74,23.59,551.26,20.38,584,17.15,616,9.42,648.64,5.6c36.47-4.27,72.59-2.81,108.79,2.67,28,4.24,55.64,10.26,83.81,13.42,34.84,3.9,67.33-3.23,98.55-18.16,29.87-14.27,58.24-31.63,89.47-43.1C1063.56-52.18,1098.37-62,1135.18-64c39-2.09,71.75,11.12,99.39,38.3,17,16.69,33,34.26,48.82,52,14.79,16.53,16.57,35.71,8.73,56-9.25,24-24.63,44-40.75,63.57-11.28,13.7-22,27.74-27.76,44.88-1.46,4.38-3.16,9.19.93,12.75,3.84,3.35,8.69,2,13,.36,17.37-6.65,32.54-17.34,48.22-27,24.12-14.92,48.39-29.45,75.73-38a141.48,141.48,0,0,1,32.69-6.24c27.79-1.85,44.58,16.16,41,44-3.67,28.88-10.68,57.1-16.75,85.51-10.8,50.49-20.71,101.18-18.44,153.12,1.37,31.08,3.3,62.1,2.06,93.23-1.49,37.13-2.74,74.27-4.41,111.4a114,114,0,0,1-4.4,27.64c-7.21,24-22.56,36-47.6,37.25-67,3.39-115.71-25.77-148.67-83.2a408.69,408.69,0,0,1-19.8-39.27c-10.07-23-22.42-44.78-35.59-66.07-12.08-19.56-14.92-39.61-7.95-61.66,7.4-23.4,12.67-47.36,13.76-72A75.7,75.7,0,0,0,1146,342.9c-2.91-13.19-10.49-22.65-23.15-26.91-50.83-17.1-102.62-27.09-156.55-19.19-20.25,3-40.51,5.87-60.75,8.88a146.08,146.08,0,0,1-34.07.77c-34.22-2.92-68.15,1.22-102.12,3.74-67.56,5-130.81-7.52-188.41-44.44-25.55-16.38-52-31.4-77.43-47.86C455.81,187,407.67,188,357.9,211.72c-22.36,10.66-44.42,21.94-67.16,31.87-35.47,15.48-71.92,18.39-109.85,12.3-40-6.41-80.25-10.36-120.84-8.11-35.85,2-71.42,6.78-106.94,11.89C-98.42,267.07-150,274.37-200.58,287c-16.68,4.15-33.3,8.52-49.95,12.76a141.43,141.43,0,0,0-36.33,14.46V83.48a26.94,26.94,0,0,1,5.19.47c28.42,8.16,57.41,10.92,86.93,10.36,45-.85,89.9,2.11,134.79,4.73,13.31.78,26.53,2.54,39.49,6.47,18.82,5.72,37.79,10.93,57,15.35,39.86,9.17,78.18,5.85,113.26-15.71C183,84.73,216.93,66,253.09,51.25c20.66-8.44,34.06-23.49,37.31-46.74,3.07-22,7.3-43.78,11-65.66,5.54-33,13.43-65.82,11.3-99.73Z" transform="translate(287.06 161.03)"/><path class="a" d="M312.66-160.88c2.13,33.91-5.76,66.69-11.3,99.73-3.66,21.88-7.89,43.69-11,65.66-3.25,23.25-16.65,38.3-37.31,46.74C216.93,66,183,84.73,149.79,105.15,114.71,126.71,76.39,130,36.53,120.86c-19.2-4.42-38.17-9.63-57-15.35-13-3.93-26.18-5.69-39.49-6.47-44.89-2.62-89.79-5.58-134.79-4.73-29.52.56-58.51-2.2-86.93-10.36a26.94,26.94,0,0,0-5.19-.47c0-79.11.11-158.21-.2-237.32,0-6.49,1.75-7.19,7.56-7.19Q16.58-160.76,312.66-160.88Z" transform="translate(287.06 161.03)"/><path class="b" d="M-286.86,333.91c25.37,24.83,54.76,45.68,75,75.64,17.9,26.56,33.73,54.07,39.52,86.15,2,11.06,1,22.09-.47,33.19-4.35,33.09-1.75,66.11,2.06,99a645.52,645.52,0,0,0,15,84.21c9.4,37.13,31.93,61,67.79,73.09a14.85,14.85,0,0,1,2.86,1c13.75,8.07,14.39,12.55,4.69,23-16.11,17.44-36.33,29.57-55.72,42.8-21.48,14.64-45,26.29-64.51,43.81-12.16,10.92-23.92,22.29-33,36-16.19,0-32.38-.14-48.57.1-3.8.06-4.68-.86-4.65-4.66.2-24.28.1-48.56.1-72.85Z" transform="translate(287.06 161.03)"/><path class="b" d="M1589.11,931.92c-28.43-49.42-43-102.54-42.6-159.64a101.69,101.69,0,0,1,3.56-26.21c9.16-33.37,15.4-67.4,23-101.12,11.31-50.45,34.28-95.85,60-140.09,7.34-12.63,14.22-25.56,22.9-37.38q0,229.18.14,458.37c0,5.19-1,6.33-6.22,6.23C1629.59,931.69,1609.35,931.92,1589.11,931.92Z" transform="translate(287.06 161.03)"/><path class="b" d="M1655.9,106.25c-16.89-11.14-27.64-27.1-35-45.48-4-10.08-7.07-20.54-10.55-30.83a67.54,67.54,0,0,0-31.57-38.26,332.08,332.08,0,0,0-45.24-21.25C1495-44.48,1461.51-67,1431.35-94.9c-6.68-6.18-13.59-12.12-20.07-18.5a127.42,127.42,0,0,0-46.36-29.41,65.68,65.68,0,0,1-18-9.58c-2.69-2.08-6-4.1-5.19-8.49q154,0,308.1-.15c5.2,0,6.24,1,6.22,6.22Q1655.74-24.28,1655.9,106.25Z" transform="translate(287.06 161.03)"/><path class="b" d="M776.7,649.31c-.27-40.21,14.44-73.23,35.78-103.93,10.41-15,22.4-28.67,33.81-42.82,17.54-21.75,28.14-45.89,26.63-74.53-.43-8.09.76-16.23,6.63-22.65,6.32-6.91,14.05-5.6,18,3,2.06,4.45,3.21,9.26,2.4,14-4.5,26.67,7.77,46.44,24.89,65.1,13.85,15.11,25.9,31.95,31,52.34,8.47,34,1,64.76-20.83,91.77-23.6,29.24-51.23,54.4-81.19,77a95.11,95.11,0,0,1-12.79,8.1c-21.13,11.17-40.31,5.53-52.19-15.28C779.26,684.66,776.12,666.43,776.7,649.31Z" transform="translate(287.06 161.03)"/><path class="b" d="M64.31,726.16c40,4.31,78,19.79,106.56,53.72,10.77,12.78,15.61,28,12.17,45.23-4.86,24.22-24.43,37.2-48.75,32.06-19.21-4.06-36.75-12.57-54.54-20.36-31.23-13.68-62.35-27.58-93.48-41.47a35.4,35.4,0,0,1-7.78-4.61c-6-4.86-7.28-10.32-2.7-16.56C-3.1,745.44,24.14,727.39,64.31,726.16Z" transform="translate(287.06 161.03)"/></svg>