<svg xmlns="http://www.w3.org/2000/svg" viewBox="0 0 1943.04 1093.09"><defs><style>.a{fill:#ffffff;}.b{fill:#41c7f6;}</style></defs><title>1800f_00390</title><path class="a" d="M1655.9,156.33V421.94a10,10,0,0,0-2.76.9c-51.34,35.74-91.7,80.45-115.72,139.12-10.42,25.46-20.8,51.2-35.76,74.44-33,51.27-64.36,103.46-94.7,156.33-15.79,27.51-31,55.07-37.44,86.57-3.58,17.39-4.81,35-6.56,52.62H98.66C60.19,885.18,16,844.46-32.59,808.57c-48-35.44-96.54-70.17-144.49-105.69-23.93-17.72-39.78-40.74-42.25-71.47C-221,610.27-217,590-209.18,570.62c20-49.55,47.54-94.87,79.21-137.69,21.08-28.5,46.1-53,77.1-70.86,22.46-12.93,46.6-22,70.85-30.84,40.51-14.69,75.71-37,103.26-70.61C135.7,243,148.07,223.86,160.75,205c15.92-23.7,34.76-44.52,57.58-61.88,27.86-21.2,53.2-45.14,74.87-72.78,20.94-26.72,38.56-54.78,43.13-89.67,6-46-24.57-90.17-69.92-99-29.8-5.82-59.35-2.71-88.91,2.24-24.4,4.1-47.59,13.72-72.63,15.09C68.21-99,37.1-110.23,13-138.41,7.46-144.94,1.4-151.7,0-160.88H935c10.81,19.78,22.49,39,37,56.31,27.17,32.36,60.81,57,96.19,79.3,43.64,27.58,86.23,56.65,126.36,89.16,34.42,27.9,66.86,58,95.59,91.82,11.43,13.47,15.84,28.92,12.38,46.63-4.71,24.08-15.89,45.22-29.09,65.4-21.19,32.39-45.39,62.64-67.93,94.08-12.94,18.05-26.93,35.5-34.51,56.84-7,19.68-3.63,37.59,10.26,52.93,15,16.56,32.94,26.63,56.47,22,22.92-4.56,40.9-16.93,55.17-34.94,15.76-19.9,26.12-42.77,33.37-66.8,12.17-40.34,32.34-76.09,58.31-109,14.9-18.86,29.15-38.34,39.7-60,13.88-28.48,36.74-44.8,66.55-52.91,21.16-5.75,42.73-7.64,64.55-7.49C1589,162.68,1622.55,161.25,1655.9,156.33ZM488.61,246.28c-7.36,0-18.25-.33-29.09.14a76.08,76.08,0,0,0-16.36,3c-20.75,5.56-28.07,21.12-19.37,40.74a57.55,57.55,0,0,0,3.75,7.44c16.51,26.22,36.57,50,63.18,65.44,45.57,26.45,95.18,31.06,145.77,16.5,33.71-9.69,56.78-31.93,68.58-65.37,2.68-7.62,5.76-15.11,8.8-22.6C728.29,256,744.32,221,757.19,184.81c2.95-8.3,5.78-16.75,5.46-25.8-.25-7.5-2.75-9.89-10.36-9.62-7.93.28-14.42,4.32-20.84,8.36-20.78,13.07-39.89,28.46-59.55,43.09-36.8,27.37-77.07,44.61-123.72,45.84C529.43,247.17,510.81,245,488.61,246.28ZM292.82,550.72c-14.16,0-24.28,0-34.39,0-3.32,0-7,.11-8.05,4.09-1.18,4.47,1.61,7.09,5.36,8.84q3.08,1.46,6.23,2.74c20.76,8.57,41.83,7.74,63.11,2.2,20.78-5.41,41.72-10.59,63.41-7.84,18.76,2.37,37.35,6.11,56.09,8.61a158.08,158.08,0,0,1,43.64,12.21c37.46,16.59,74.12,34.88,111,52.62,7.78,3.74,15.63,7.14,24.07,9,16.67,3.76,32.73,3.23,47.08-7.35,17.11-12.62,16.79-33.64-.51-45.84-8.42-5.94-18-9.25-27.79-11.78a222.69,222.69,0,0,1-27.44-8.74c-33.16-13.37-67.39-22.55-102.6-29.14-47.52-8.89-93.9-7.61-139.6,8.8a61.92,61.92,0,0,1-19.31,3.17C331.66,553,310.28,549.58,292.82,550.72Z" transform="translate(287 161.02)"/><path class="b" d="M0-160.88c1.4,9.18,7.46,15.94,13,22.47C37.1-110.23,68.21-99,104.87-101.06c25-1.37,48.23-11,72.63-15.09,29.56-4.95,59.11-8.06,88.91-2.24,45.35,8.87,75.94,53,69.92,99-4.57,34.89-22.19,63-43.13,89.67-21.67,27.64-47,51.58-74.87,72.78-22.82,17.36-41.66,38.18-57.58,61.88-12.68,18.88-25.05,38-39.51,55.64C93.69,294.26,58.49,316.54,18,331.23c-24.25,8.8-48.39,17.91-70.85,30.84-31,17.85-56,42.36-77.1,70.86-31.67,42.82-59.24,88.14-79.21,137.69C-217,590-221,610.27-219.33,631.41c2.47,30.73,18.32,53.75,42.25,71.47,48,35.52,96.48,70.25,144.49,105.69C16,844.46,60.19,885.18,98.66,931.92q-189.73,0-379.45.14c-5.2,0-6.22-1-6.21-6.21q.24-479.62.14-959.24a123.22,123.22,0,0,0,48-21.33c22.8-16.79,42.57-37.06,63.95-55.5,20-17.28,41.67-32.62,61.07-50.66Z" transform="translate(287 161.02)"/><path class="b" d="M1655.9,156.33c-33.35,4.92-66.9,6.35-100.56,6.11-21.82-.15-43.39,1.74-64.55,7.49-29.81,8.11-52.67,24.43-66.55,52.91-10.55,21.66-24.8,41.14-39.7,60-26,32.87-46.14,68.62-58.31,109-7.25,24-17.61,46.9-33.37,66.8-14.27,18-32.25,30.38-55.17,34.94-23.53,4.68-41.47-5.39-56.47-22-13.89-15.34-17.25-33.25-10.26-52.93,7.58-21.34,21.57-38.79,34.51-56.84,22.54-31.44,46.74-61.69,67.93-94.08,13.2-20.18,24.38-41.32,29.09-65.4,3.46-17.71-1-33.16-12.38-46.63-28.73-33.85-61.17-63.92-95.59-91.82-40.13-32.51-82.72-61.58-126.36-89.16-35.38-22.35-69-46.94-96.19-79.3-14.53-17.32-26.21-36.53-37-56.31q357.06,0,714.12-.14c5.69,0,7,1.28,7,7Q1655.74,1.14,1655.9,156.33Z" transform="translate(287 161.02)"/><path class="b" d="M1363,931.92c1.75-17.59,3-35.23,6.56-52.62,6.49-31.5,21.65-59.06,37.44-86.57,30.34-52.87,61.72-105.06,94.7-156.33,15-23.24,25.34-49,35.76-74.44,24-58.67,64.38-103.38,115.72-139.12a10,10,0,0,1,2.76-.9q0,252,.14,503.91c0,5.19-1,6.23-6.22,6.21Q1506.39,931.76,1363,931.92Z" transform="translate(287 161.02)"/><path class="a" d="M-113.83-160.88c-19.4,18-41,33.38-61.07,50.66-21.38,18.44-41.15,38.71-63.95,55.5a123.22,123.22,0,0,1-48,21.33c0-40.62.1-81.25-.14-121.87,0-4.88,1.28-5.75,5.88-5.73C-225.36-160.82-169.6-160.88-113.83-160.88Z" transform="translate(287 161.02)"/><path class="b" d="M488.61,246.28c22.2-1.31,40.82.89,59.57.4,46.65-1.23,86.92-18.47,123.72-45.84,19.66-14.63,38.77-30,59.55-43.09,6.42-4,12.91-8.08,20.84-8.36,7.61-.27,10.11,2.12,10.36,9.62.32,9.05-2.51,17.5-5.46,25.8C744.32,221,728.29,256,713.87,291.56c-3,7.49-6.12,15-8.8,22.6-11.8,33.44-34.87,55.68-68.58,65.37-50.59,14.56-100.2,10-145.77-16.5-26.61-15.45-46.67-39.22-63.18-65.44a57.55,57.55,0,0,1-3.75-7.44c-8.7-19.62-1.38-35.18,19.37-40.74a76.08,76.08,0,0,1,16.36-3C470.36,246,481.25,246.28,488.61,246.28Z" transform="translate(287 161.02)"/><path class="b" d="M292.82,550.72c17.46-1.14,38.84,2.3,60.34,1.66a61.92,61.92,0,0,0,19.31-3.17c45.7-16.41,92.08-17.69,139.6-8.8,35.21,6.59,69.44,15.77,102.6,29.14a222.69,222.69,0,0,0,27.44,8.74c9.82,2.53,19.37,5.84,27.79,11.78,17.3,12.2,17.62,33.22.51,45.84C656.06,646.49,640,647,623.33,643.26c-8.44-1.9-16.29-5.3-24.07-9-36.92-17.74-73.58-36-111-52.62a158.08,158.08,0,0,0-43.64-12.21c-18.74-2.5-37.33-6.24-56.09-8.61-21.69-2.75-42.63,2.43-63.41,7.84-21.28,5.54-42.35,6.37-63.11-2.2q-3.15-1.29-6.23-2.74c-3.75-1.75-6.54-4.37-5.36-8.84,1-4,4.73-4.07,8.05-4.09C268.54,550.68,278.66,550.72,292.82,550.72Z" transform="translate(287 161.02)"/></svg>