<svg xmlns="http://www.w3.org/2000/svg" viewBox="0 0 1943.07 1093.09"><defs><style>.a{fill:#ffffff;}.b{fill:#41c7f6;}</style></defs><title>1800f_00268</title><path class="a" d="M1655.9,220.08V763.44c-13.54,1.86-27,3.82-40.07-2.59-17.91-8.8-36.07-17.09-53.24-27.31-26.63-15.84-51.25-33.61-61.89-64.74a15.9,15.9,0,0,0-1.38-2.69c-6.26-10.9-12-12-21.73-4.18-10.28,8.23-19.26,17.79-28.25,27.37-25.23,26.89-50.15,54.09-79.15,77.14-34.54,27.46-60,61-70.71,104.76-4.88,20-6.24,40.35-7.85,60.72H-110.8c6.83-13.26,14-26.38,20.43-39.8,9.27-19.21,17.05-39,17.7-60.69,1-33.15-12.47-61.38-30.06-88.26-9.37-14.33-23.35-24.51-33.47-38.16-22-29.76-33.28-63.82-40.51-99.62-5.87-29-7.87-58.58-13.69-87.6-4-19.74-8.92-39.42-8.07-59.85.36-8.57,4.66-14.21,13.11-16,11.65-2.51,23.62-2.08,35.38-2.37,30.59-.76,61.22.23,91.81-.51,29.2-.7,54.21-12.3,75.92-31.78,20.43-18.33,36.53-40.58,55.5-60.12C90.6,329.25,95.13,309.52,90.18,286c-4.42-21-8.13-42.2-6.05-63.92,3.3-34.5,19.46-63.45,39.14-90.81,23.7-32.94,53.94-59.53,84.64-85.55s58-54.9,77.12-90.78a287.69,287.69,0,0,1,21.74-33.79c16.91-23.2,36.32-43.46,64-54,21.41-8.21,43.12-14.53,66.43-12.8,20.39,1.51,36.11,13.22,40.35,32.07,4,17.67,15.06,26.86,31.8,30.45,31.72,6.8,60.86,0,87.22-18.25,23.29-16.13,41.42-37.66,59.16-59.44H982c8.31,4.24,16.81,8.14,24.88,12.79a664.2,664.2,0,0,0,103.73,48.18c26.29,9.58,51.12,21.71,72.5,40.29,25.56,22.21,45.89,49.1,67.48,74.84a766.62,766.62,0,0,0,98.61,97.43c19.16,15.89,32.1,15.45,51.76.33,2.6-2,5.15-4.07,7.72-6.12,10.51-8.33,20.88-17.1,33.64-21.68,30.44-10.92,58.75-5,85.16,12.31,28.9,19,54,42.5,78.15,67Q1632,191.22,1655.9,220.08Z" transform="translate(287.01 161.03)"/><path class="b" d="M655.68-160.88c-17.74,21.78-35.87,43.31-59.16,59.44-26.36,18.25-55.5,25-87.22,18.25-16.74-3.59-27.83-12.78-31.8-30.45-4.24-18.85-20-30.56-40.35-32.07-23.31-1.73-45,4.59-66.43,12.8-27.63,10.59-47,30.85-64,54.05A287.69,287.69,0,0,0,285-45.07c-19.15,35.88-46.39,64.72-77.12,90.78S147,98.32,123.27,131.26c-19.68,27.36-35.84,56.31-39.14,90.81C82.05,243.79,85.76,265,90.18,286c4.95,23.53.42,43.26-16.93,61.13-19,19.54-35.07,41.79-55.5,60.12C-4,426.72-29,438.32-58.17,439c-30.59.74-61.22-.25-91.81.51-11.76.29-23.73-.14-35.38,2.37-8.45,1.83-12.75,7.47-13.11,16-.85,20.43,4.1,40.11,8.07,59.85,5.82,29,7.82,58.6,13.69,87.6,7.23,35.8,18.47,69.86,40.51,99.62,10.12,13.65,24.1,23.83,33.47,38.16,17.59,26.88,31.06,55.11,30.06,88.26-.65,21.73-8.43,41.48-17.7,60.69-6.48,13.42-13.6,26.54-20.43,39.8-56.66,0-113.33-.09-170,.15-5.2,0-6.22-1-6.21-6.22q.25-246.65.14-493.28c17.9-.36,35.81-.44,53.69-1.17,13.68-.56,18.56-7.38,16.17-20.84-2.11-11.88-4-23.79-5.9-35.71-4.62-29.34-16.95-54.28-41.7-71.8-6.81-4.81-13.25-10.83-22.26-11.63q0-223.13-.15-446.23c0-5.2,1-6.22,6.22-6.22Q187.45-160.79,655.68-160.88Z" transform="translate(287.01 161.03)"/><path class="b" d="M1655.9,220.08q-24-28.86-50.27-55.56c-24.18-24.53-49.25-48.05-78.15-67-26.41-17.34-54.72-23.23-85.16-12.31-12.76,4.58-23.13,13.35-33.64,21.68-2.57,2-5.12,4.12-7.72,6.12-19.66,15.12-32.6,15.56-51.76-.33a766.62,766.62,0,0,1-98.61-97.43c-21.59-25.74-41.92-52.63-67.48-74.84-21.38-18.58-46.21-30.71-72.5-40.29a664.2,664.2,0,0,1-103.73-48.18c-8.07-4.65-16.57-8.55-24.88-12.79q333.54,0,667.07-.14c5.69,0,7.14,1.25,7,7-.45,15.93-.15,31.87-.15,47.81-4.22-.77-8.43-1.56-12.66-2.29-30.83-5.28-61.66-10.91-93.15-9.5-16.25.73-32.25,3.24-46.46,11.85C1480-91.84,1476.89-67,1495.78-46.83c13.62,14.54,30.61,23.79,48.48,31.64,26.47,11.61,53.67,18.08,82.3,8.65,10-3.29,19.57-7.75,29.34-11.67Z" transform="translate(287.01 161.03)"/><path class="b" d="M1291.63,931.92c1.61-20.37,3-40.72,7.85-60.72,10.69-43.72,36.17-77.3,70.71-104.76,29-23.05,53.92-50.25,79.15-77.14,9-9.58,18-19.14,28.25-27.37,9.77-7.82,15.47-6.72,21.73,4.18a15.9,15.9,0,0,1,1.38,2.69c10.64,31.13,35.26,48.9,61.89,64.74,17.17,10.22,35.33,18.51,53.24,27.31,13.06,6.41,26.53,4.45,40.07,2.59,0,54.14-.1,108.27.15,162.41,0,5.2-1,6.22-6.23,6.21Q1470.74,931.78,1291.63,931.92Z" transform="translate(287.01 161.03)"/><path class="a" d="M1655.9-18.21c-9.77,3.92-19.37,8.38-29.34,11.67-28.63,9.43-55.83,3-82.3-8.65-17.87-7.85-34.86-17.1-48.48-31.64-18.89-20.16-15.83-45,7.85-59.35,14.21-8.61,30.21-11.12,46.46-11.85,31.49-1.41,62.32,4.22,93.15,9.5,4.23.73,8.44,1.52,12.66,2.29Z" transform="translate(287.01 161.03)"/><path class="a" d="M-286.86,291.42c9,.8,15.45,6.82,22.26,11.63,24.75,17.52,37.08,42.46,41.7,71.8,1.87,11.92,3.79,23.83,5.9,35.71,2.39,13.46-2.49,20.28-16.17,20.84-17.88.73-35.79.81-53.69,1.17Z" transform="translate(287.01 161.03)"/></svg>