<svg xmlns="http://www.w3.org/2000/svg" viewBox="0 0 1366.3 768.29"><defs><style>.a{fill:#ffffff;}.b{fill:#41c7f6;}</style></defs><title>1800f_00059</title><path class="a" d="M1367.52,450.78v74.37l-50.47,13.75c-31.94,8.73-64.11,16.81-93.35,33.18-10.46,5.86-20,12.88-27.27,22.54-11.47,15.32-11.25,32.78-7.07,50.09,5.7,23.65,11,47.23,10.52,71.74-.34,17.69-.56,35.38-.84,53.07H291.41c-1.88-2.34-4.8-2.63-7.34-3.59-42.16-16-86.08-23.7-130.71-28.26-13.3-1.35-26.79-2.18-39.31-7.47-8.18-3.45-8.77-8.55-1.78-14.06a71.34,71.34,0,0,1,23.58-11.93,395.32,395.32,0,0,0,145.4-80.78c25-21.77,46.29-46.07,52.11-80.38a263.27,263.27,0,0,0,3.5-34.65c1.11-30.86-1.73-61.65-1.78-92.49a73.73,73.73,0,0,0-1.47-12.79c-3.23-18.13-13.33-26.71-31.84-26.71-14.68,0-27.89-4.64-40-12.3-26.32-16.62-45.36-39.15-54.46-69.34-7-23.34-15.88-45.83-29.33-66.33-15-22.86-28.1-46.78-40.49-71.14-13.86-27.26-27.4-54.7-43.7-80.65a52.62,52.62,0,0,1-5-10.2C86.32,59.59,88.39,55.93,95.4,54c5.45-1.54,11-1.06,16.59-.91,19.45.52,38.73,3.92,58.25,3.21,44.9-1.64,84.7-15.61,116.83-48.15,1.82-1.84,4.77-3.18,4.34-6.59H903.08c3.06,5.63,7.75,9.93,12,14.59,20.08,22.06,44.78,38.54,68.19,56.6,35.29,27.2,70.22,54.88,96.75,91.34,21.14,29,42.19,58.26,56.27,91.57,10.86,25.7,15.29,53.4,23.31,80,8.29,27.48,18,54.28,36.31,77,11.83,14.71,26.67,24.74,45.54,27.81a585.09,585.09,0,0,0,80.72,7.34C1337.32,448.14,1352.47,448.75,1367.52,450.78ZM886.54,500c.29-5.73-1.39-11.74-4.22-17.52-15.57-31.77-54.12-43-83.41-23.53-16.34,10.86-33.1,20.35-52,25.83a47.71,47.71,0,0,0-16.28,7.94c-7.11,5.53-6.73,12.35,1,17,5.54,3.33,11.75,4.43,18.13,4.88,16.86,1.18,33.79,1.48,50.21,6.59,15.18,4.73,29.88,11.08,45.68,13.77C868.33,538.79,886.48,523.63,886.54,500ZM787.81,688c7.57.27,20.87-2.05,32.57-10.14,16.11-11.12,17.66-27.15,4-41-30.64-31-79.29-22.61-103.76.74-12.46,11.9-11.36,24,2.45,34.31a44.67,44.67,0,0,0,7.15,4.23C746.35,684,763.52,687.52,787.81,688Z" transform="translate(-1.37 -1.37)"/><path class="b" d="M291.41,1.52c.43,3.41-2.52,4.75-4.34,6.59-32.13,32.54-71.93,46.51-116.83,48.15-19.52.71-38.8-2.69-58.25-3.21-5.54-.15-11.14-.63-16.59.91-7,2-9.08,5.63-6.62,12.49a52.62,52.62,0,0,0,5,10.2c16.3,25.95,29.84,53.39,43.7,80.65C149.85,181.66,163,205.58,178,228.44c13.45,20.5,22.3,43,29.33,66.33,9.1,30.19,28.14,52.72,54.46,69.34,12.14,7.66,25.35,12.31,40,12.3,18.51,0,28.61,8.58,31.84,26.71a73.73,73.73,0,0,1,1.47,12.79c.05,30.84,2.89,61.63,1.78,92.49a263.27,263.27,0,0,1-3.5,34.65c-5.82,34.31-27.13,58.61-52.11,80.38a395.32,395.32,0,0,1-145.4,80.78,71.34,71.34,0,0,0-23.58,11.93c-7,5.51-6.4,10.61,1.78,14.06,12.52,5.29,26,6.12,39.31,7.47,44.63,4.56,88.55,12.3,130.71,28.26,2.54,1,5.46,1.25,7.34,3.59q-141.9,0-283.82.14c-5.2,0-6.24-1-6.22-6.22.23-60.71.15-121.42.15-182.13,13.07-19,19.64-40.24,20.93-63,1.8-31.94-3.57-63.31-9-94.59-1.8-10.41-5.42-20.44-12-29.08q0-193.51-.15-387c0-5.2,1-6.23,6.22-6.22Q149.51,1.67,291.41,1.52Z" transform="translate(-1.37 -1.37)"/><path class="b" d="M1367.52,450.78c-15-2-30.2-2.64-45.36-3a585.09,585.09,0,0,1-80.72-7.34c-18.87-3.07-33.71-13.1-45.54-27.81-18.29-22.75-28-49.55-36.31-77-8-26.6-12.45-54.3-23.31-80-14.08-33.31-35.13-62.52-56.27-91.57-26.53-36.46-61.46-64.14-96.75-91.34-23.41-18.06-48.11-34.54-68.19-56.6-4.24-4.66-8.93-9-12-14.59h350.6c.14,2.85,2.43,4.34,4,6.17q14.1,15.86,28.36,31.55c12.15,13.35,20.51,28.29,19,47-.63,7.77-2.14,15.48-3.5,23.18-2.41,13.64-6.67,27.07-6.16,41.08,1,27.2,11.08,51.05,27.92,72.19,11.33,14.22,24.51,24.17,44.19,18.61Z" transform="translate(-1.37 -1.37)"/><path class="b" d="M1199,769.52c.28-17.69.5-35.38.84-53.07.47-24.51-4.82-48.09-10.52-71.74-4.18-17.31-4.4-34.77,7.07-50.09,7.24-9.66,16.81-16.68,27.27-22.54,29.24-16.37,61.41-24.45,93.35-33.18l50.47-13.75q0,119.15.15,238.29c0,5.2-1,6.25-6.22,6.23C1307.31,769.42,1253.18,769.52,1199,769.52Z" transform="translate(-1.37 -1.37)"/><path class="a" d="M1367.52,241.33c-19.68,5.56-32.86-4.39-44.19-18.61-16.84-21.14-26.92-45-27.92-72.19-.51-14,3.75-27.44,6.16-41.08,1.36-7.7,2.87-15.41,3.5-23.18,1.53-18.74-6.83-33.68-19-47q-14.28-15.68-28.36-31.55c-1.62-1.83-3.91-3.32-4-6.17,36.18,0,72.35.1,108.52-.13,4.54,0,5.45.92,5.44,5.44Q1367.39,124.09,1367.52,241.33Z" transform="translate(-1.37 -1.37)"/><path class="a" d="M1.52,394.62c6.55,8.64,10.17,18.67,12,29.08,5.39,31.28,10.76,62.65,9,94.59-1.29,22.78-7.86,44-20.93,63Z" transform="translate(-1.37 -1.37)"/><path class="b" d="M886.54,500c-.06,23.67-18.21,38.83-40.9,35-15.8-2.69-30.5-9-45.68-13.77-16.42-5.11-33.35-5.41-50.21-6.59-6.38-.45-12.59-1.55-18.13-4.88-7.77-4.66-8.15-11.48-1-17a47.71,47.71,0,0,1,16.28-7.94c18.95-5.48,35.71-15,52-25.83,29.29-19.47,67.84-8.24,83.41,23.53C885.15,488.22,886.83,494.23,886.54,500Z" transform="translate(-1.37 -1.37)"/><path class="b" d="M787.81,688c-24.29-.44-41.46-4-57.63-11.88a44.67,44.67,0,0,1-7.15-4.23c-13.81-10.33-14.91-22.41-2.45-34.31,24.47-23.35,73.12-31.74,103.76-.74,13.7,13.87,12.15,29.9-4,41C808.68,685.91,795.38,688.23,787.81,688Z" transform="translate(-1.37 -1.37)"/></svg>