<svg xmlns="http://www.w3.org/2000/svg" viewBox="0 0 1943.06 1093.1"><defs><style>.a{fill:#ffffff;}.b{fill:#41c7f6;}</style></defs><title>1800f_00362</title><path class="a" d="M324.8,931.92H-248.92c21.68-29.8,47.51-55.81,74.38-80.77,20.86-19.37,43.49-36.33,71.29-44.81C-82.43,800-61,796.23-39.66,792.28c36.09-6.69,63.88-24.47,76.72-60,11.46-31.7,16.85-65.19,12.28-98.49-8.5-61.92-33.9-116.48-78.41-161.42-19.53-19.73-42.57-34.81-64.69-51.22-38.09-28.27-71.16-62.15-104-96.15-9.48-9.81-18.31-20.28-29-28.86-17.63-14.17-35.21-28.56-60.09-26q0-212.49-.15-425c0-5.2,1-6.22,6.22-6.22q298.25.25,596.49.15c-.77,2.15.48,3.92,1.13,5.79,3.57,10.35.73,18.79-7.41,25.81-5.72,4.93-12.61,7.37-19.66,9.42-14.12,4.13-28.9,4.62-43.24,7.58-18.14,3.75-32.1,12.32-39.62,30.35A217.2,217.2,0,0,0,193-34.8c-4.68,27.36-11.33,53.86-27.94,76.89-4,5.55-6.07,12.27-7.26,19-6.7,38,1.69,73,22.94,104.59C194,185.37,211,190.11,233.85,184c9.38-2.52,17.85-6.93,26-12.08,22.23-14,40.7-32.38,58.55-51.37,20.46-21.76,34.21-47.3,42.59-76,5.88-20.13,9.67-40.78,16.26-60.75,9.67-29.33,29.35-45.49,59.95-49.17,29.38-3.53,58.9-5,88.41-6.59,24.63-1.3,49,.13,72.76,7.41,16.19,5,31.71,12,48.3,15.62,20,4.38,28.06-1.28,30-21.62,1-10.52,5-19.48,11.19-27.69,10.29-13.63,23.23-24.54,36.19-35.48,11-9.24,23.41-16.65,33.34-27.14H1369c-2,21.63-3.8,43.3-6.2,64.9-5.21,47-10.94,93.9-19.22,140.43-11.52,64.77-28.83,128.19-47.44,191.24-6.86,23.28-13.4,46.72-25.24,68.13-15,27.16-31.32,32.16-58.9,18.39-3.85-1.92-7.68-3.87-11.46-5.91-22.09-11.9-44.89-22.36-68.86-29.71-54-16.56-101.59-44.5-145.15-80.08C960.21,185,938.73,160.18,927,127.66a135.79,135.79,0,0,0-12.9-26.57c-10-15.93-23.57-19-39.27-8.48-9.41,6.29-16.65,14.71-22.59,24.23-17.48,28-23.72,59.54-26.6,91.66-3.85,42.84,3.29,84.7,14.69,125.85,11.19,40.37,28.74,77.79,55.3,110.45,15.58,19.17,35.82,28.13,61,24.68,13.76-1.89,27.56-3.73,41.41-4.7a1208.4,1208.4,0,0,1,140.24-1.63c37,1.71,70.72,13.35,101.24,34.58,20.13,14,36.28,32.2,53.52,49.24,11.65,11.52,25.08,19.38,41.25,22.61a403.73,403.73,0,0,0,63.9,7.62c29.3,1.11,58.63.81,87.86,4,67.65,7.41,127.06,30.61,169.85,86.6V775.59c-17.19,9.57-34.82,18.19-52.88,26-60.62,26.26-116,60.56-162.23,108.32-6.27,6.47-12.61,13.1-15.6,22H1068.52a115.48,115.48,0,0,0,30.61-24.37,182.37,182.37,0,0,1,36-31.2c24.49-16.25,51.93-25.83,79.4-35.42,8.82-3.08,17.49-6.6,26.28-9.76,28.86-10.37,41.78-33.72,49.11-61.16,8.27-31,15.87-62.15,23.65-93.26a122.79,122.79,0,0,0,2.38-50.35c-4.47-26.92-18.54-43-42.94-47.72a199.39,199.39,0,0,0-30.86-3.46c-40.38-1.49-80.2,4-120,9.84-47.49,7-94.86,14.82-142.51,20.66-35.91,4.4-71.52,9.88-106.16,20.94-84.17,26.88-145,79.25-178.63,161.77-4.58,11.25-9.46,22.35-15.12,33.09-15.3,29-37.08,50-69.91,58.28-16.46,4.14-32.85,8.35-49.85,9.05-30.09,1.22-57.07-6.52-78.73-28.63-8-8.13-16-16.21-23.74-24.54-35.81-38.46-83-47.35-132.06-48.76-25.28-.72-35.41,15.08-30,40,3,13.68,8.41,26.48,13.88,39.25C318.38,887.21,326.64,908.37,324.8,931.92ZM760.59,475.31a145.58,145.58,0,0,0-16.07-66.42c-6.33-12.46-13.87-24.12-25.73-32.26-9.71-6.67-18.88-6.15-27.58,1.83-6.23,5.71-10.35,13-14.67,20.16-7.32,12.1-13.82,24.68-22.06,36.24-21,29.5-46.2,55.56-68.79,83.76-14.9,18.59-29.18,37.54-35.42,61.2-9.14,34.62,7.86,59.64,43.46,64,19.86,2.45,38.19-2.56,55.55-11.41,38.89-19.83,68.52-49.62,91.09-86.65C753.53,524.2,760.63,500.76,760.59,475.31ZM244.68,611.13c7.24.42,14.72-1.78,22.07-4.63,18.48-7.17,35.41-17.24,52-28C328.89,572,339.6,566.22,347.89,557c13.27-14.75,10.1-34-7.5-43.09-16.55-8.58-33.25-7.4-49.59.32-17.9,8.45-31.94,22-45.34,36.17-8.9,9.43-16.58,19.8-21.27,32C217.26,600.45,224.78,611.24,244.68,611.13Z" transform="translate(287.01 161.03)"/><path class="b" d="M1655.9,667.82c-42.79-56-102.2-79.19-169.85-86.6-29.23-3.21-58.56-2.91-87.86-4a403.73,403.73,0,0,1-63.9-7.62c-16.17-3.23-29.6-11.09-41.25-22.61-17.24-17-33.39-35.23-53.52-49.24-30.52-21.23-64.23-32.87-101.24-34.58A1208.4,1208.4,0,0,0,998,464.78c-13.85,1-27.65,2.81-41.41,4.7-25.14,3.45-45.38-5.51-61-24.68-26.56-32.66-44.11-70.08-55.3-110.45-11.4-41.15-18.54-83-14.69-125.85,2.88-32.12,9.12-63.62,26.6-91.66,5.94-9.52,13.18-17.94,22.59-24.23,15.7-10.49,29.22-7.45,39.27,8.48A135.79,135.79,0,0,1,927,127.66c11.69,32.52,33.17,57.32,59.53,78.85,43.56,35.58,91.1,63.52,145.15,80.08,24,7.35,46.77,17.81,68.86,29.71,3.78,2,7.61,4,11.46,5.91,27.58,13.77,43.87,8.77,58.9-18.39,11.84-21.41,18.38-44.85,25.24-68.13,18.61-63.05,35.92-126.47,47.44-191.24,8.28-46.53,14-93.46,19.22-140.43,2.4-21.6,4.15-43.27,6.2-64.9q140.39,0,280.78-.15c5.2,0,6.27,1,6.23,6.22-.3,34.91-.15,69.82-.15,104.73-5.81-3.51-11.49-7.24-17.44-10.48-22.91-12.53-43-7.89-58.23,13.34A108.27,108.27,0,0,0,1560.56.73c-7.11,49.5-11.44,99.22-9.68,149.35a383.8,383.8,0,0,0,14.17,92.5c9.46,33.15,28.2,56.58,62.87,65,9.31,2.25,18.65,4.43,28,6.64Z" transform="translate(287.01 161.03)"/><path class="b" d="M324.8,931.92c1.84-23.55-6.42-44.71-15.44-65.73-5.47-12.77-10.89-25.57-13.88-39.25-5.45-24.94,4.68-40.74,30-40,49.08,1.41,96.25,10.3,132.06,48.76,7.76,8.33,15.77,16.41,23.74,24.54,21.66,22.11,48.64,29.85,78.73,28.63,17-.7,33.39-4.91,49.85-9.05,32.83-8.25,54.61-29.25,69.91-58.28,5.66-10.74,10.54-21.84,15.12-33.09,33.63-82.52,94.46-134.89,178.63-161.77,34.64-11.06,70.25-16.54,106.16-20.94,47.65-5.84,95-13.66,142.51-20.66,39.77-5.87,79.59-11.33,120-9.84a199.39,199.39,0,0,1,30.86,3.46c24.4,4.75,38.47,20.8,42.94,47.72a122.79,122.79,0,0,1-2.38,50.35c-7.78,31.11-15.38,62.28-23.65,93.26-7.33,27.44-20.25,50.79-49.11,61.16-8.79,3.16-17.46,6.68-26.28,9.76-27.47,9.59-54.91,19.17-79.4,35.42a182.37,182.37,0,0,0-36,31.2,115.48,115.48,0,0,1-30.61,24.37h-24.29c-9.11-3-18.11-6.3-26.52-10.94-27.47-15.13-53.55-32.41-79-50.75-25.83-18.64-53.78-24.81-84.36-12.6-12.52,5-24.36,11.31-34.77,19.79-17.73,14.44-21.66,33.12-15.18,54.5Z" transform="translate(287.01 161.03)"/><path class="b" d="M-286.86,270.17c24.88-2.55,42.46,11.84,60.09,26,10.68,8.58,19.51,19.05,29,28.86,32.86,34,65.93,67.88,104,96.15,22.12,16.41,45.16,31.49,64.69,51.22,44.51,44.94,69.91,99.5,78.41,161.42,4.57,33.3-.82,66.79-12.28,98.49-12.84,35.49-40.63,53.27-76.72,60-21.35,4-42.77,7.71-63.59,14.06-27.8,8.48-50.43,25.44-71.29,44.81-26.87,25-52.7,51-74.38,80.77-10.87,0-21.76-.29-32.62.13-4.56.18-5.45-.92-5.45-5.44q.25-134.33.13-268.65V531.22a220.23,220.23,0,0,0,0-48.56Z" transform="translate(287.01 161.03)"/><path class="b" d="M757.37-160.88C747.44-150.39,735-143,724-133.74c-13,10.94-25.9,21.85-36.19,35.48-6.2,8.21-10.2,17.17-11.19,27.69-1.91,20.34-9.93,26-30,21.62-16.59-3.62-32.11-10.66-48.3-15.62-23.78-7.28-48.13-8.71-72.76-7.41-29.51,1.57-59,3.06-88.41,6.59-30.6,3.68-50.28,19.84-59.95,49.17-6.59,20-10.38,40.62-16.26,60.75-8.38,28.68-22.13,54.22-42.59,76-17.85,19-36.32,37.34-58.55,51.37-8.16,5.15-16.63,9.56-26,12.08C211,190.11,194,185.37,180.77,165.7c-21.25-31.56-29.64-66.61-22.94-104.59,1.19-6.75,3.26-13.47,7.26-19C181.7,19.06,188.35-7.44,193-34.8A217.2,217.2,0,0,1,206.9-81.93c7.52-18,21.48-26.6,39.62-30.35,14.34-3,29.12-3.45,43.24-7.58,7.05-2,13.94-4.49,19.66-9.42,8.14-7,11-15.46,7.41-25.81-.65-1.87-1.9-3.64-1.13-5.79Z" transform="translate(287.01 161.03)"/><path class="a" d="M1655.9,314.18c-9.33-2.21-18.67-4.39-28-6.64-34.67-8.38-53.41-31.81-62.87-65a383.8,383.8,0,0,1-14.17-92.5c-1.76-50.13,2.57-99.85,9.68-149.35a108.27,108.27,0,0,1,19.67-47.95c15.23-21.23,35.32-25.87,58.23-13.34,6,3.24,11.63,7,17.44,10.48Z" transform="translate(287.01 161.03)"/><path class="b" d="M1425.19,931.92c3-8.9,9.33-15.53,15.6-22,46.27-47.76,101.61-82.06,162.23-108.32,18.06-7.82,35.69-16.44,52.88-26,0,50.34-.08,100.68.12,151,0,4.53-.91,5.45-5.44,5.44Q1537.89,931.79,1425.19,931.92Z" transform="translate(287.01 161.03)"/><path class="a" d="M804.42,931.92c-6.48-21.38-2.55-40.06,15.18-54.5,10.41-8.48,22.25-14.79,34.77-19.79,30.58-12.21,58.53-6,84.36,12.6,25.43,18.34,51.51,35.62,79,50.75,8.41,4.64,17.41,7.95,26.52,10.94Z" transform="translate(287.01 161.03)"/><path class="a" d="M-286.86,482.66a220.23,220.23,0,0,1,0,48.56Z" transform="translate(287.01 161.03)"/><path class="b" d="M760.59,475.31c0,25.45-7.06,48.89-20.22,70.5-22.57,37-52.2,66.82-91.09,86.65-17.36,8.85-35.69,13.86-55.55,11.41-35.6-4.41-52.6-29.43-43.46-64,6.24-23.66,20.52-42.61,35.42-61.2,22.59-28.2,47.76-54.26,68.79-83.76,8.24-11.56,14.74-24.14,22.06-36.24,4.32-7.13,8.44-14.45,14.67-20.16,8.7-8,17.87-8.5,27.58-1.83,11.86,8.14,19.4,19.8,25.73,32.26A145.58,145.58,0,0,1,760.59,475.31Z" transform="translate(287.01 161.03)"/><path class="b" d="M244.68,611.13c-19.9.11-27.42-10.68-20.49-28.73,4.69-12.19,12.37-22.56,21.27-32,13.4-14.18,27.44-27.72,45.34-36.17,16.34-7.72,33-8.9,49.59-.32,17.6,9.13,20.77,28.34,7.5,43.09-8.29,9.21-19,15-29.16,21.53-16.57,10.72-33.5,20.79-52,28C259.4,609.35,251.92,611.55,244.68,611.13Z" transform="translate(287.01 161.03)"/></svg>