<svg xmlns="http://www.w3.org/2000/svg" viewBox="0 0 1943.04 1093.17"><defs><style>.a{fill:#ffffff;}.b{fill:#41c7f6;}</style></defs><title>1800f_00214</title><path class="a" d="M-286.86,367.3V288.38c1.66-.42,2.92.53,4.21,1.29,20.65,12.25,42,23.52,61.8,37,29.39,20,61.54,28.7,96.59,28.3S-55,348.45-20.68,341.81c49.18-9.52,95.48-25.71,138.45-51.64a307.59,307.59,0,0,1,54.59-26.3c17-6.12,34.42-12.17,52.51-7.78,18.62,4.51,34.92.82,50.73-8.66,22.66-13.58,42-31.56,63.13-47.18,38.09-28.17,74.9-57.8,105.49-94.33,13.81-16.48,28-32.56,43-48,23.86-24.5,45.2-51.11,65.23-78.82,15.7-21.71,30.57-44.07,48.54-64.06,6-6.63,12.41-12.65,20.26-17,10.83-6,18.68-4.73,27.3,4.07,6.49,6.63,10.95,14.62,14.38,23,8.4,20.59,16.14,41.45,24.57,62,11.28,27.55,24.55,54.07,47.51,74,43,37.38,93.84,57,150,63.22,42.18,4.7,84.33.11,126.46-2.36,30.27-1.77,60.47-4.89,90.88-3.56,27.17,1.2,47.76,11.79,57.81,38.52,1.68,4.49,4,8.75,5.79,13.19,13.61,33.07,31.23,63.44,58,87.9,39.53,36.12,65.13,80.8,79.76,132,6.45,22.6,12.17,45.42,21.25,67.18,10.78,25.86,23.65,50.4,45.68,68.81,15.47,12.92,32.43,16.59,51.54,8.52,11.79-5,22.33-11.88,32.21-19.77,22-17.61,45.2-33,71.6-43.56,22.89-9.2,42.54-5.73,61.19,9.94,22.61,19,45.78,37.36,68.72,56q0,193.44.14,386.9c0,6.06-.82,7.92-7.6,7.91q-916-.32-1832.09-.19c13.06-40.94,25.61-82,35.87-123.76,8.09-32.88,17.16-65.51,19.59-99.52,2-27.51,1.62-55.08,2.49-82.62.54-17,2-34.14,9.79-49.49,17.63-35,39.6-67.07,68.46-93.88,23.74-22.06,44.4-23.91,72.33-7.42,18,10.62,31.54,26,44.52,41.89,31.38,38.36,55.29,81.54,79.31,124.61,20.7,37.09,40.57,74.69,67,108.2,11.35,14.36,23.5,27.87,40.7,35.57,11,4.93,21.63,4.94,31.44-2.71A47.14,47.14,0,0,0,302,764.31c8.71-19.65,10-40.35,6.69-61-6.41-39.41-11.91-78.94-17.55-118.46-5.35-37.54-12.6-74.69-25.09-110.73-15.36-44.36-44.59-73.68-89.85-87-18.46-5.41-37-10-56.1-12.8-27.21-3.92-53.44-1.31-78.59,10C28.4,390.29,15.28,396.26,2.39,402.7c-19.46,9.71-39.48,11.52-60.41,5.87a277.4,277.4,0,0,1-35.81-12.38c-47.68-20.2-96.84-31.81-149.12-27.67A201.1,201.1,0,0,1-286.86,367.3ZM864.32,425.4c32.16-2.49,62.95-10,89.83-28.57,31.78-21.93,62.81-45,94.18-67.5,10.44-7.5,21.18-14.62,31.28-22.55,6.9-5.41,6.72-12.53.88-19.1-6.36-7.14-14.75-10.39-23.67-12.65-17.53-4.43-35.06-1.11-52.67-.38-52.36,2.16-100.93,16.69-146.23,42.7-18.36,10.54-33.79,24-42.57,43.82-12.87,29,.62,55.5,31.55,62.56C852.66,425,858.43,425,864.32,425.4Z" transform="translate(287 161.06)"/><path class="b" d="M1655.9,537.3c-22.94-18.64-46.11-37-68.72-56-18.65-15.67-38.3-19.14-61.19-9.94-26.4,10.6-49.59,25.95-71.6,43.56-9.88,7.89-20.42,14.8-32.21,19.77-19.11,8.07-36.07,4.4-51.54-8.52-22-18.41-34.9-42.95-45.68-68.81-9.08-21.76-14.8-44.58-21.25-67.18-14.63-51.2-40.23-95.88-79.76-132-26.77-24.46-44.39-54.83-58-87.9-1.83-4.44-4.11-8.7-5.79-13.19-10.05-26.73-30.64-37.32-57.81-38.52-30.41-1.33-60.61,1.79-90.88,3.56-42.13,2.47-84.28,7.06-126.46,2.36-56.12-6.25-106.94-25.84-150-63.22-23-20-36.23-46.47-47.51-74-8.43-20.58-16.17-41.44-24.57-62-3.43-8.43-7.89-16.42-14.38-23-8.62-8.8-16.47-10-27.3-4.07-7.85,4.31-14.31,10.33-20.26,17-18,20-32.84,42.35-48.54,64.06-20,27.71-41.37,54.32-65.23,78.82-15,15.42-29.23,31.5-43,48-30.59,36.53-67.4,66.16-105.49,94.33-21.12,15.62-40.47,33.6-63.13,47.18-15.81,9.48-32.11,13.17-50.73,8.66-18.09-4.39-35.55,1.66-52.51,7.78a307.59,307.59,0,0,0-54.59,26.3c-43,25.93-89.27,42.12-138.45,51.64C-55,348.45-89.23,354.58-124.26,355s-67.2-8.29-96.59-28.3c-19.81-13.49-41.15-24.76-61.8-37-1.29-.76-2.55-1.71-4.21-1.29V191.24c21.48-13.69,45.24-23.66,65.49-39.32,21-16.25,35.56-37.11,42.57-62.94,4.06-15,4.68-30.4,5.72-45.76a52.27,52.27,0,0,1,17.55-36.5c13.18-12.08,28.36-21.16,43.45-30.33,36.06-21.9,66.64-48.5,80.82-90,5.3-15.5,11.57-30.71,13.05-47.26H214c1.55,4.26,3.05,8.53,4.65,12.77,5.91,15.66,13.16,30.55,24.27,43.31C259.29-86,278.64-83,298.47-97.73c22.24-16.53,37.75-38.89,50.62-63.15h918.25a57.66,57.66,0,0,0,20.77,6.54c7.49.91,15.24,1,20.21-6.54q170.64,0,341.26-.18c5.82,0,6.44,1.64,6.43,6.75Q1655.82,191.5,1655.9,537.3ZM1364.06,59.15c14.11-.15,31.5-5.53,42.75-13.4,11.48-8,20.64-18,19-33-2.7-24.67-33.71-42.56-57-33.63-17.89,6.86-32.6,29.8-32.91,51.33C1335.6,50.6,1344.2,59.36,1364.06,59.15Zm230.4,311.75c0-16.63-4.87-32.82-13.18-44.84-4-5.75-8.61-11-16.29-10.61-9.12.49-13.14,7.09-16.14,14.79-7.66,19.65,4.62,50.51,17.54,60.79,9.89,7.87,21.92,4.49,26.36-7.3A33.12,33.12,0,0,0,1594.46,370.9Z" transform="translate(287 161.06)"/><path class="b" d="M-286.86,367.3a201.1,201.1,0,0,0,43.91,1.22c52.28-4.14,101.44,7.47,149.12,27.67A277.4,277.4,0,0,0-58,408.57c20.93,5.65,41,3.84,60.41-5.87,12.89-6.44,26-12.41,39.15-18.33,25.15-11.33,51.38-13.94,78.59-10,19.08,2.75,37.64,7.39,56.1,12.8,45.26,13.27,74.49,42.59,89.85,87,12.49,36,19.74,73.19,25.09,110.73,5.64,39.52,11.14,79,17.55,118.46,3.35,20.67,2,41.37-6.69,61a47.14,47.14,0,0,1-14.14,18.48c-9.81,7.65-20.43,7.64-31.44,2.71-17.2-7.7-29.35-21.21-40.7-35.57-26.47-33.51-46.34-71.11-67-108.2-24-43.07-47.93-86.25-79.31-124.61-13-15.86-26.55-31.27-44.52-41.89C-3,458.74-23.71,460.59-47.45,482.65c-28.86,26.81-50.83,58.9-68.46,93.88-7.74,15.35-9.25,32.52-9.79,49.49-.87,27.54-.52,55.11-2.49,82.62-2.43,34-11.5,66.64-19.59,99.52C-158,849.91-170.59,891-183.65,931.92c-32.31,0-64.61-.21-96.92.19-5.87.07-6.42-1.71-6.41-6.77q.25-111.3.12-222.61c2.27-.94,3.2-3.13,4.51-4.94,17.84-24.67,27.91-52.46,32.9-82.25,3.71-22.15.21-42.68-13.85-60.86-6.85-8.86-15.1-16.25-23.56-23.46Z" transform="translate(287 161.06)"/><path class="a" d="M-18.21-160.88c-1.48,16.55-7.75,31.76-13,47.26-14.18,41.51-44.76,68.11-80.82,90-15.09,9.17-30.27,18.25-43.45,30.33a52.27,52.27,0,0,0-17.55,36.5c-1,15.36-1.66,30.79-5.72,45.76-7,25.83-21.56,46.69-42.57,62.94-20.25,15.66-44,25.63-65.49,39.32q0-172.81-.14-345.63c0-5.33.92-6.67,6.53-6.65Q-149.34-160.69-18.21-160.88Z" transform="translate(287 161.06)"/><path class="a" d="M349.09-160.88c-12.87,24.26-28.38,46.62-50.62,63.15C278.64-83,259.29-86,242.93-104.8c-11.11-12.76-18.36-27.65-24.27-43.31-1.6-4.24-3.1-8.51-4.65-12.77Z" transform="translate(287 161.06)"/><path class="a" d="M-286.86,531.22c8.46,7.21,16.71,14.6,23.56,23.46,14.06,18.18,17.56,38.71,13.85,60.86-5,29.79-15.06,57.58-32.9,82.25-1.31,1.81-2.24,4-4.51,4.94Z" transform="translate(287 161.06)"/><path class="a" d="M1308.32-160.88c-5,7.58-12.72,7.45-20.21,6.54a57.66,57.66,0,0,1-20.77-6.54Z" transform="translate(287 161.06)"/><path class="b" d="M864.32,425.4c-5.89-.43-11.66-.36-17.42-1.67-30.93-7.06-44.42-33.54-31.55-62.56,8.78-19.8,24.21-33.28,42.57-43.82,45.3-26,93.87-40.54,146.23-42.7,17.61-.73,35.14-4,52.67.38,8.92,2.26,17.31,5.51,23.67,12.65,5.84,6.57,6,13.69-.88,19.1-10.1,7.93-20.84,15.05-31.28,22.55-31.37,22.54-62.4,45.57-94.18,67.5C927.27,415.37,896.48,422.91,864.32,425.4Z" transform="translate(287 161.06)"/><path class="a" d="M1364.06,59.15c-19.86.21-28.46-8.55-28.16-28.7.31-21.53,15-44.47,32.91-51.33,23.3-8.93,54.31,9,57,33.63,1.63,15-7.53,25-19,33C1395.56,53.62,1378.17,59,1364.06,59.15Z" transform="translate(287 161.06)"/><path class="a" d="M1594.46,370.9a33.12,33.12,0,0,1-1.71,12.83c-4.44,11.79-16.47,15.17-26.36,7.3-12.92-10.28-25.2-41.14-17.54-60.79,3-7.7,7-14.3,16.14-14.79,7.68-.41,12.31,4.86,16.29,10.61C1589.59,338.08,1594.48,354.27,1594.46,370.9Z" transform="translate(287 161.06)"/></svg>