<svg xmlns="http://www.w3.org/2000/svg" viewBox="0 0 1366.93 768.85"><defs><style>.a{fill:#ffffff;}.b{fill:#41c7f6;}</style></defs><title>1800f_00025</title><path class="a" d="M1367.52,365.79v78.92c-2.53-.81-4.4.85-6.32,1.88-36.24,19.58-71.66,40.51-105.46,64.13-31.55,22-53.57,50.85-64.49,88.06C1186.77,614,1181.1,628.93,1176,644c-5.61,16.55-9.09,33.59-12,50.79-4.18,24.77-4.38,49.74-4.42,74.74h-812c-11.42-22.7-27.65-41.56-47.08-57.61-32.7-27-70.63-43.89-110.84-56.23-14-4.29-28.54-6.92-41.86-13.23-8.14-3.86-8.77-8.12-2.66-14.57,6-6.29,13.33-10.81,20.49-15.56,19.37-12.83,39.91-23.88,57.93-38.78,20.7-17.12,32.4-38.34,31.78-65.74-.38-16.94-.44-33.88-.44-50.82a183.81,183.81,0,0,1,24.7-92.66c20.27-35.55,33.47-74.07,45.63-112.94,2.25-7.2,3.84-14.74,1.77-22.39-1.86-6.85-6.09-9.43-13-8.07-8.93,1.74-16.58,6.27-23.52,11.78-14.44,11.48-28.49,23.44-42.83,35-15.91,12.87-31.44,26.4-50,35.48-20.85,10.22-39.82,3.26-49.6-17.84a51.1,51.1,0,0,1-4.41-29.58c5.43-35.37,5.32-70.43-4.65-105.15-8.57-29.87-16.69-59.86-25.07-89.78-7.53-26.88-7.24-27.31,18.94-37,16.09-6,32.13-12.19,46.26-22.3H927.36c.72,1.58,1.31,3.23,2.17,4.74,21.05,36.76,47.1,69.9,73.85,102.6,22.05,27,45.77,52.75,62.38,83.73,10.29,19.19,20.53,38.19,37.58,52.66,6.66,5.66,9.46,14.24,10.84,22.9,2.51,15.77,2.6,31.69,2.75,47.6.18,17.43.37,34.88,3.19,52.13,2.38,14.49,9,18,22.43,12.26,10-4.26,19.43-9.62,29.86-12.94,28.08-8.92,57.1-12.8,86.14-16.66,20.3-2.7,40.62-5.4,61-1.31C1336.31,352.58,1351.53,360.32,1367.52,365.79ZM830.14,497.92c10.48.22,20.75-.79,30.29-5.52,15.85-7.85,19.3-21.13,7.86-34.46-16.79-19.56-34.2-38.62-54-55.29-20.89-17.6-44.95-22.54-71.1-16.26-18.9,4.54-37.55,10.19-56.17,15.81-17.26,5.2-30.95,15.86-42,29.85-9.42,11.91-7.41,23.79,5,32.62a47.39,47.39,0,0,0,11.42,5.9,71.37,71.37,0,0,0,29.81,4.33c29-2.29,56.76,2.34,84,12.48A166.18,166.18,0,0,0,830.14,497.92ZM706.24,607.37c21.85-.49,41.93-6.29,58.79-20.73,9.08-7.77,10.22-19.31,3.75-29.39a28.5,28.5,0,0,0-12.51-10.71c-37.08-16.79-67.12-.08-84,33.16-4.6,9.06-.71,17.37,8.29,22.39C688.53,606.55,697.24,607.56,706.24,607.37Zm388.14-83.09c-18.45,0-44.38,25.41-44.89,44-.23,8.35,5.41,13.78,14.21,12,19.66-3.91,35.87-13.48,45.45-31.85C1115.94,535.48,1108.92,524.3,1094.38,524.28ZM999.2,339.85c-.1,9.22,5.15,12.29,12.81,7.84,18.46-10.71,29.73-27,34.09-47.76,1.72-8.21-3.43-11.94-11.3-8.78-6.21,2.48-11.29,6.67-15.67,11.63C1009.33,313.88,1001.28,325.94,999.2,339.85Z" transform="translate(-0.73 -0.81)"/><path class="b" d="M179.1,1.52C165,11.63,148.93,17.83,132.84,23.82,106.66,33.56,106.37,34,113.9,60.87c8.38,29.92,16.5,59.91,25.07,89.78,10,34.72,10.08,69.78,4.65,105.15A51.1,51.1,0,0,0,148,285.38c9.78,21.1,28.75,28.06,49.6,17.84,18.53-9.08,34.06-22.61,50-35.48,14.34-11.6,28.39-23.56,42.83-35,6.94-5.51,14.59-10,23.52-11.78,6.95-1.36,11.18,1.22,13,8.07,2.07,7.65.48,15.19-1.77,22.39-12.16,38.87-25.36,77.39-45.63,112.94A183.81,183.81,0,0,0,254.89,457c0,16.94.06,33.88.44,50.82.62,27.4-11.08,48.62-31.78,65.74-18,14.9-38.56,26-57.93,38.78-7.16,4.75-14.51,9.27-20.49,15.56-6.11,6.45-5.48,10.71,2.66,14.57,13.32,6.31,27.87,8.94,41.86,13.23,40.21,12.34,78.14,29.21,110.84,56.23,19.43,16.05,35.66,34.91,47.08,57.61q-170,0-340,.14c-5.2,0-6.22-1-6.22-6.22q.25-372.62.15-745.22a11.33,11.33,0,0,1,2.57,1.4c20.46,19.73,44.74,18,69.48,11.86,8.94-2.22,10.07-6.72,5.14-14.68C75.1,11,69.91,6.47,65.26,1.52Z" transform="translate(-0.73 -0.81)"/><path class="b" d="M1367.52,365.79c-16-5.47-31.21-13.21-47.92-16.56-20.43-4.09-40.75-1.39-61,1.31-29,3.86-58.06,7.74-86.14,16.66-10.43,3.32-19.89,8.68-29.86,12.94-13.45,5.76-20,2.23-22.43-12.26-2.82-17.25-3-34.7-3.19-52.13-.15-15.91-.24-31.83-2.75-47.6-1.38-8.66-4.18-17.24-10.84-22.9-17-14.47-27.29-33.47-37.58-52.66-16.61-31-40.33-56.78-62.38-83.73C976.63,76.16,950.58,43,929.53,6.26c-.86-1.51-1.45-3.16-2.17-4.74h86.52c2.77,29.1,31.35,44.69,53.93,29.32,10.48-7.13,15.85-18,20.44-29.32h156.33c6.27,4.64,12.56,9.25,18.8,13.94,15.32,11.5,27.93,25,30.71,44.93,1.11,8,1.6,16.06,2,24.11,1.59,33.55,15.41,61.31,40.14,83.58,8.93,8,18.83,15.14,31.31,17.09Z" transform="translate(-0.73 -0.81)"/><path class="b" d="M1159.58,769.52c0-25,.24-50,4.42-74.74,2.91-17.2,6.39-34.24,12-50.79,5.1-15.06,10.77-30,15.25-45.21,10.92-37.21,32.94-66,64.49-88.06,33.8-23.62,69.22-44.55,105.46-64.13,1.92-1,3.79-2.69,6.32-1.88q0,159.38.14,318.73c0,5.2-1,6.24-6.21,6.22C1294.16,769.44,1226.87,769.52,1159.58,769.52Z" transform="translate(-0.73 -0.81)"/><path class="a" d="M1367.52,185.17c-12.48-1.95-22.38-9-31.31-17.09-24.73-22.27-38.55-50-40.14-83.58-.38-8-.87-16.13-2-24.11-2.78-20-15.39-33.43-30.71-44.93-6.24-4.69-12.53-9.3-18.8-13.94,39.21,0,78.42.1,117.62-.13,4.54,0,5.46.91,5.45,5.44C1367.45,66.28,1367.52,125.72,1367.52,185.17Z" transform="translate(-0.73 -0.81)"/><path class="a" d="M65.26,1.52C69.91,6.47,75.1,11,78.71,16.8c4.93,8,3.8,12.46-5.14,14.68-24.74,6.14-49,7.87-69.48-11.86a11.33,11.33,0,0,0-2.57-1.4c0-5.52-2.13-13,.62-16C4.68-.5,12.44,1.53,17.9,1.53Q41.58,1.5,65.26,1.52Z" transform="translate(-0.73 -0.81)"/><path class="a" d="M1088.25,1.52c-4.59,11.32-10,22.19-20.44,29.32-22.58,15.37-51.16-.22-53.93-29.32Z" transform="translate(-0.73 -0.81)"/><path class="b" d="M830.14,497.92a166.18,166.18,0,0,1-54.85-10.54c-27.24-10.14-55-14.77-84-12.48a71.37,71.37,0,0,1-29.81-4.33,47.39,47.39,0,0,1-11.42-5.9c-12.44-8.83-14.45-20.71-5-32.62,11.06-14,24.75-24.65,42-29.85,18.62-5.62,37.27-11.27,56.17-15.81,26.15-6.28,50.21-1.34,71.1,16.26,19.78,16.67,37.19,35.73,54,55.29,11.44,13.33,8,26.61-7.86,34.46C850.89,497.13,840.62,498.14,830.14,497.92Z" transform="translate(-0.73 -0.81)"/><path class="b" d="M706.24,607.37c-9,.19-17.71-.82-25.71-5.28-9-5-12.89-13.33-8.29-22.39,16.91-33.24,47-50,84-33.16a28.5,28.5,0,0,1,12.51,10.71c6.47,10.08,5.33,21.62-3.75,29.39C748.17,601.08,728.09,606.88,706.24,607.37Z" transform="translate(-0.73 -0.81)"/><path class="b" d="M1094.38,524.28c14.54,0,21.56,11.2,14.77,24.19-9.58,18.37-25.79,27.94-45.45,31.85-8.8,1.76-14.44-3.67-14.21-12C1050,549.69,1075.93,524.27,1094.38,524.28Z" transform="translate(-0.73 -0.81)"/><path class="b" d="M999.2,339.85c2.08-13.91,10.13-26,19.93-37.07,4.38-5,9.46-9.15,15.67-11.63,7.87-3.16,13,.57,11.3,8.78-4.36,20.78-15.63,37.05-34.09,47.76C1004.35,352.14,999.1,349.07,999.2,339.85Z" transform="translate(-0.73 -0.81)"/></svg>