<svg xmlns="http://www.w3.org/2000/svg" viewBox="0 0 1943.03 1093.11"><defs><style>.a{fill:#ffffff;}.b{fill:#41c7f6;}</style></defs><title>1800f_00339</title><path class="a" d="M-286.86,640.5V523.64c9.76-2.63,19.54-5.16,29.27-7.89C-196,498.48-134.38,481.8-70.81,473.27c29.6-4,57.73-12.62,82.26-30.64,21-15.39,38.49-34.24,55.21-53.94,18.48-21.77,35.6-44.68,55-65.7,20.22-21.92,44.21-34.49,74.91-33.31,26.82,1,53.34,4.8,80,7.12,24.2,2.1,48.61,4.9,72.56.06a912.72,912.72,0,0,0,133.34-37.68c26.79-9.81,49-26.53,59.08-54.22,9.72-26.66,22-52.16,32.62-78.36,6.05-14.86,10.36-30.28,9.74-46.41-.88-22.52-9.62-42.75-20.49-62C557.39,7.42,547.57,1.78,535.29,2a85.32,85.32,0,0,0-20.12,3.23c-23,6-44.94,15.36-67.21,23.6C405.3,44.55,364.24,64.5,320.68,77.92,292.17,86.7,263.59,95.3,233.2,94.37c-26.45-.8-41.34-13.1-46.49-38.86-9.19-45.95-7.82-92-.52-138,4.25-26.78,12.55-52.51,20.23-78.41H942.54c-10.27,26.65-9.88,54.17-4.6,81.44,7.34,37.91-.46,72.7-17.71,106.27-6.59,12.81-12.63,25.91-18.79,38.94-4,8.47-7.62,17.08-9.36,26.37-4,21.25,6.24,33.68,27.92,34.24,19.85.52,36.9-7.55,53.46-17.08,12.48-7.18,24.65-14.92,37.17-22.06,16.81-9.6,33.24-8.28,49.37,2.18a330.15,330.15,0,0,1,30.27,22.82,66.78,66.78,0,0,0,36.34,15.65c13.31,1.42,26.64,2.88,39.84,5.11,49.15,8.28,97.36,20.77,145.55,33.26,45.56,11.82,91.3,22.36,138.51,25,26,1.46,52.11.29,78,3.11,20.74,2.26,41.17,5.93,58.29,19.18,12.84,9.93,15.24,23.09,8.24,37.7-7.31,15.25-20.92,19.57-35.81,21.85-19.85,3-35.5,12.37-46.37,29.51-5,7.94-9.63,16.19-12.76,24.95-15.41,43.07-39.22,81.27-65.74,118.23-74.5,103.82-123.45,219-149.3,343.9-9.69,46.81-15.73,94.34-5.61,142.21H-62.23C-83,896.46-98,858.32-113.48,820.5-147.47,737.21-209.56,681.71-286.86,640.5Z" transform="translate(286.99 161.04)"/><path class="b" d="M206.42-160.88c-7.68,25.9-16,51.63-20.23,78.41-7.3,46-8.67,92,.52,138,5.15,25.76,20,38.06,46.49,38.86,30.39.93,59-7.67,87.48-16.45C364.24,64.5,405.3,44.55,448,28.78c22.27-8.24,44.17-17.59,67.21-23.6A85.32,85.32,0,0,1,535.29,2c12.28-.17,22.1,5.47,28.14,16.19C574.3,37.44,583,57.67,583.92,80.19c.62,16.13-3.69,31.55-9.74,46.41-10.67,26.2-22.9,51.7-32.62,78.36-10.09,27.69-32.29,44.41-59.08,54.22a912.72,912.72,0,0,1-133.34,37.68c-23.95,4.84-48.36,2-72.56-.06-26.67-2.32-53.19-6.09-80-7.12-30.7-1.18-54.69,11.39-74.91,33.31-19.4,21-36.52,43.93-55,65.7-16.72,19.7-34.25,38.55-55.21,53.94-24.53,18-52.66,26.67-82.26,30.64-63.57,8.53-125.23,25.21-186.78,42.48-9.73,2.73-19.51,5.26-29.27,7.89q0-339-.13-678c0-5.31.88-6.68,6.52-6.67Q-37-160.74,206.42-160.88Z" transform="translate(286.99 161.04)"/><path class="b" d="M1279.49,931.92c-10.12-47.87-4.08-95.4,5.61-142.21,25.85-124.86,74.8-240.08,149.3-343.9,26.52-37,50.33-75.16,65.74-118.23,3.13-8.76,7.72-17,12.76-24.95,10.87-17.14,26.52-26.47,46.37-29.51,14.89-2.28,28.5-6.6,35.81-21.85,7-14.61,4.6-27.77-8.24-37.7-17.12-13.25-37.55-16.92-58.29-19.18-25.93-2.82-52-1.65-78-3.11-47.21-2.66-93-13.2-138.51-25-48.19-12.49-96.4-25-145.55-33.26-13.2-2.23-26.53-3.69-39.84-5.11a66.78,66.78,0,0,1-36.34-15.65A330.15,330.15,0,0,0,1060,89.42c-16.13-10.46-32.56-11.78-49.37-2.18-12.52,7.14-24.69,14.88-37.17,22.06-16.56,9.53-33.61,17.6-53.46,17.08-21.68-.56-31.87-13-27.92-34.24,1.74-9.29,5.36-17.9,9.36-26.37,6.16-13,12.2-26.13,18.79-38.94,17.25-33.57,25-68.36,17.71-106.27-5.28-27.27-5.67-54.79,4.6-81.44q353.26,0,706.53-.14c5.69,0,7,1.28,7,7q-.27,263-.14,525.91c-3.24-1.29-3.66-4.65-5.14-7.17-14.22-24.14-27.26-49.09-48.39-68.34-8.24-7.5-16.92-6.87-23.33,2.06a144.22,144.22,0,0,0-18,34.06,58.84,58.84,0,0,0,0,42.21c6.73,18.11,16.83,34.49,26.69,50.94,16.73,28,23,57,10,88.14a250.6,250.6,0,0,1-28,49.37c-27.89,39-56.26,77.75-84.35,116.65-30.29,41.93-54.78,86.38-65.23,138-6.93,34.19-17.81,67.4-35.91,97.73-3.22,5.38-6.12,10.95-9.16,16.44Z" transform="translate(286.99 161.04)"/><path class="a" d="M1375.11,931.92c3-5.49,5.94-11.06,9.16-16.44,18.1-30.33,29-63.54,35.91-97.73,10.45-51.59,34.94-96,65.23-138,28.09-38.9,56.46-77.6,84.35-116.65a250.6,250.6,0,0,0,28-49.37c13-31.16,6.72-60.18-10-88.14-9.86-16.45-20-32.83-26.69-50.94a58.84,58.84,0,0,1,0-42.21,144.22,144.22,0,0,1,18-34.06c6.41-8.93,15.09-9.56,23.33-2.06,21.13,19.25,34.17,44.2,48.39,68.34,1.48,2.52,1.9,5.88,5.14,7.17q0,276.61.14,553.23c0,5.69-1.28,7-7,7Q1512.09,931.76,1375.11,931.92Z" transform="translate(286.99 161.04)"/><path class="b" d="M-286.86,640.5c77.3,41.21,139.39,96.71,173.38,180C-98,858.32-83,896.46-62.23,931.92q-109.67,0-219.32.12c-4.53,0-5.44-.91-5.44-5.43Q-286.73,783.56-286.86,640.5Z" transform="translate(286.99 161.04)"/></svg>