<svg xmlns="http://www.w3.org/2000/svg" viewBox="0 0 1943.04 1093.11"><defs><style>.a{fill:#ffffff;}.b{fill:#41c7f6;}</style></defs><title>1800f_00274</title><path class="a" d="M1396.36,931.92H-25.8c-.31-14.39-5.65-26.47-18.34-33.64-15.94-9-24.89-23.25-32-39.16-16.5-37.06-27.25-76-37.74-115-9.37-34.86-16-70.45-28.41-104.48-11.38-31.1-29.73-56.65-58.08-74.42-19.47-12.2-38.81-24.63-58.62-36.25-8.79-5.16-17.31-11.41-27.9-12.87V359.72c2.6-6,5.24-12,7.79-18,7.87-18.53,20.26-32.34,39.7-39.28a264.18,264.18,0,0,1,37.24-10.21c25.6-5.11,49.77-15.26,75.19-21a87.2,87.2,0,0,1,21.78-2.43c23.45.7,33.76,12.75,28,35.49-9.21,36.49-13,73.08-6.4,110.34C-74.65,464.93-40.43,510.5,15,521.47c35.06,6.95,59-2,79-31.78a224.88,224.88,0,0,0,19.88-37.45c11.94-27.89,19.35-56.57,13.41-87.08-6.42-33,2.31-62.53,19-90.52,14.62-24.5,32.81-46.32,53.19-66C249.63,160.34,287.08,103.53,314.62,40c12.61-29.09,28.73-55.6,50.32-78.84,22.2-23.88,47.57-39.92,82-35.36,13.77,1.82,27.6,3.25,41.43,4.56,33.69,3.2,67.54,5,101,10.62,10.71,1.82,21.29,4.53,32.06,5.79C644.22-50.56,664.09-59,683-70.67c16.78-10.36,32.57-22.2,49.8-31.9,22.89-12.88,45.57-14.38,69.47-2.7,21.38,10.46,43.95,17.93,67.09,23.66C926.22-67.53,984-57.19,1040.72-42.36c46,12,90.86,26.27,130.09,54.26,42,30,85,58.38,128.19,86.65A293.63,293.63,0,0,1,1365.59,159c11.75,14.39,25.83,24.34,44.5,28,14.1,2.75,28.58,5.05,41.71,11,41.37,18.64,72,48.9,92.45,89.24,5.1,10,6.83,21.09,5.83,32.44-.82,9.3-1.84,18.58-2.39,27.9-1.88,32.07-2.26,64.13,1.23,96.14,4.08,37.51,11,74.43,22.95,110.29,2.55,7.65,5.6,15.16,11.72,20.94,3.91,3.69,7.38,3.58,11.18-.12,5.14-5,7.59-11.29,8.77-18.1,1.42-8.19,2.51-16.43,3.64-24.67,4.77-34.75,9.77-69.49,10.12-104.66.2-20.22-.21-40.46-.15-60.69,0-10.42,3.56-19.57,9.86-28,7.47-10,18.19-14.81,28.89-19.87V846.92a105.41,105.41,0,0,1-30.18,1.51c-23.56-1.93-36.75-14.82-39.44-38.21-.66-5.77-1.07-11.57-2-17.3-2-12.68-3-25.61-9-37.34s-15-15-27-9.57a105.52,105.52,0,0,0-19.94,12.3c-22.56,17.05-44.23,35.25-67.31,51.61-17,12.06-29.86,27.81-39.78,46C1408.34,879.75,1401.45,905.54,1396.36,931.92Zm-65.52-727.87a47.35,47.35,0,0,0-17.33,1.63c-28.68,8.26-52.49,22.57-63.46,52.22-2.75,7.41-4.82,16.11,1,22.32s14.31,3.8,21.43,1c23.21-9.13,42.78-23.66,59.63-41.85,5.79-6.26,11.33-12.85,13.61-21.53,2-7.66-1-12.7-8.94-13.74A37.55,37.55,0,0,0,1330.84,204.05Z" transform="translate(287.01 161.04)"/><path class="b" d="M1655.9,318.74c-10.7,5.06-21.42,9.86-28.89,19.87-6.3,8.44-9.84,17.59-9.86,28-.06,20.23.35,40.47.15,60.69-.35,35.17-5.35,69.91-10.12,104.66-1.13,8.24-2.22,16.48-3.64,24.67-1.18,6.81-3.63,13.1-8.77,18.1-3.8,3.7-7.27,3.81-11.18.12-6.12-5.78-9.17-13.29-11.72-20.94-11.95-35.86-18.87-72.78-22.95-110.29-3.49-32-3.11-64.07-1.23-96.14.55-9.32,1.57-18.6,2.39-27.9,1-11.35-.73-22.4-5.83-32.44-20.5-40.34-51.08-70.6-92.45-89.24-13.13-5.92-27.61-8.22-41.71-11-18.67-3.64-32.75-13.59-44.5-28A293.63,293.63,0,0,0,1299,98.55c-43.15-28.27-86.19-56.68-128.19-86.65-39.23-28-84.14-42.25-130.09-54.26C984-57.19,926.22-67.53,869.31-81.61c-23.14-5.73-45.71-13.2-67.09-23.66-23.9-11.68-46.58-10.18-69.47,2.7-17.23,9.7-33,21.54-49.8,31.9C664.09-59,644.22-50.56,621.44-53.22c-10.77-1.26-21.35-4-32.06-5.79-33.43-5.66-67.28-7.42-101-10.62-13.83-1.31-27.66-2.74-41.43-4.56-34.47-4.56-59.84,11.48-82,35.36C343.35-15.59,327.23,10.92,314.62,40c-27.54,63.52-65,120.33-115.12,168.66-20.38,19.65-38.57,41.47-53.19,66-16.71,28-25.44,57.54-19,90.52,5.94,30.51-1.47,59.19-13.41,87.08A224.88,224.88,0,0,1,94,489.69c-20,29.75-43.95,38.73-79,31.78-55.42-11-89.64-56.54-98.53-106.78-6.6-37.26-2.81-73.85,6.4-110.34,5.74-22.74-4.57-34.79-28-35.49a87.2,87.2,0,0,0-21.78,2.43c-25.42,5.7-49.59,15.85-75.19,21a264.18,264.18,0,0,0-37.24,10.21c-19.44,6.94-31.83,20.75-39.7,39.28-2.55,6-5.19,12-7.79,18q0-257.21-.12-514.4c0-4.9.59-6.36,6.06-6.36q965.43.25,1930.87,0c5.45,0,6.08,1.42,6.07,6.35Q1655.79,82,1655.9,318.74Z" transform="translate(287.01 161.04)"/><path class="b" d="M-286.86,516.05c10.59,1.46,19.11,7.71,27.9,12.87,19.81,11.62,39.15,24.05,58.62,36.25,28.35,17.77,46.7,43.32,58.08,74.42,12.45,34,19,69.62,28.41,104.48,10.49,39,21.24,78,37.74,115,7.08,15.91,16,30.14,32,39.16,12.69,7.17,18,19.25,18.34,33.64q-127.5,0-255,.15c-5.2,0-6.22-1-6.22-6.22Q-286.73,721-286.86,516.05Z" transform="translate(287.01 161.04)"/><path class="b" d="M1396.36,931.92c5.09-26.38,12-52.17,24.93-76,9.92-18.22,22.75-34,39.78-46,23.08-16.36,44.75-34.56,67.31-51.61a105.52,105.52,0,0,1,19.94-12.3c12-5.44,20.93-2.27,27,9.57s7,24.66,9,37.34c.9,5.73,1.31,11.53,2,17.3,2.69,23.39,15.88,36.28,39.44,38.21a105.41,105.41,0,0,0,30.18-1.51c0,26.56-.14,53.13.13,79.68,0,4.54-.92,5.45-5.45,5.44Q1523.47,931.79,1396.36,931.92Z" transform="translate(287.01 161.04)"/><path class="b" d="M1330.84,204.05a37.55,37.55,0,0,1,6,0c8,1,11,6.08,8.94,13.74-2.28,8.68-7.82,15.27-13.61,21.53-16.85,18.19-36.42,32.72-59.63,41.85-7.12,2.8-15.59,5.17-21.43-1s-3.8-14.91-1-22.32c11-29.65,34.78-44,63.46-52.22A47.35,47.35,0,0,1,1330.84,204.05Z" transform="translate(287.01 161.04)"/></svg>