<svg xmlns="http://www.w3.org/2000/svg" viewBox="0 0 1943.05 1093.14"><defs><style>.a{fill:#ffffff;}.b{fill:#41c7f6;}</style></defs><title>1800f_00258</title><path class="a" d="M1120.12,931.92H1108c-20.9-7.84-39.17-20.34-57.73-32.34-7.84-5.07-15.69-10.12-24.49-13.48-36.66-14-74.53-17-113.23-12.55-33.2,3.82-63.06,15.64-88.58,37.51-6.79,5.82-14,11.56-16.49,20.86H252c-7.29-10.36-15.82-19.7-24.29-29.06-23.38-25.83-50.56-46.06-85-54.27A731.15,731.15,0,0,0,4.7,829c-50.86-2.21-100.94,3.46-150.38,15.47-12.5,3-24.93,6.81-37.94,7.08-12.71.26-17.6-6-14.22-18.35a82.2,82.2,0,0,1,5.76-14.8C-186,806.12-178,795-169.88,784-159,769.42-146.14,756.4-136,741.25c11.71-17.44,11.48-27.37-1.15-44.11-8.53-11.3-17.37-22.36-26-33.59-34.58-45.12-62.69-93.51-78.05-148.84-8-28.74-17.89-57-32.6-83.14-4.36-7.76-7.22-16.39-13.11-23.29V381c12.08,1.73,20.36,9.5,27.68,18.23,10.76,12.83,22.13,24.82,37,33.05,27.07,15,54.06,16.82,81-.26,16.5-10.45,29.81-24.25,40.78-40.17,18.36-26.63,30.71-56.28,41.72-86.5C-43.83,264.52-32.86,223-32.92,179c0-31.86-5.11-62.89-11.91-93.76-5.25-23.87.65-43.69,20.67-58.26C13,0,48.88-28.87,87.64-53.82c39.28-25.28,80.17-48.3,116.13-78.5,11.13-9.35,23.5-17.32,33-28.56h942.54c36.44,44.18,80,77.5,136.91,91.08,30,7.14,60.45,8.49,90.93,10.44,15.76,1,30.62,4.79,41.58,17.18,7.86,8.87,15.12,18.28,22.57,27.52,25.4,31.45,57.45,48.72,98.71,46.31,14.36-.84,28.71-2.06,43.08-2.83,20.34-1.08,32.39-9.64,34.91-29.91,4.59-36.9-1.74-72.44-23.33-103.33-26.91-38.51-63.84-56.8-111.65-50.52-19.75,2.59-38.19,9.49-56.87,15.63-26.23,8.63-51.72-2.14-70.42-21.57,87.72,0,175.43.1,263.15-.2,6.55,0,7.16,1.82,7.16,7.59q-.26,389.4-.14,778.82c-2.52,1-3.58,3.46-5.12,5.4-11.68,14.61-23.08,29.45-35,43.85-13.9,16.79-28.38,33-48.76,42.46-26.8,12.43-52,4.74-67.2-20.62a70.91,70.91,0,0,1-10-30c-2.75-29.34-15.43-54.06-33.73-76.49-16.25-19.92-29.55-41.55-37.9-66.07a104.74,104.74,0,0,0-10.93-22.45c-12.11-19-32.09-21.38-47.77-5.53-10.3,10.41-16,23.39-19.22,37.28-13.58,59.43-42,111.72-80.14,158.18-28,34.14-50.63,70.43-64.86,112.09-7.92,23.18-13.6,47.11-22.86,69.85C1161.91,899,1149.41,923,1120.12,931.92Zm-19.85-204.56c28.18-.35,52-6.14,71.51-23.43s23.15-39.15,16.41-63.63c-6.08-22.12-21.9-31.94-43.13-34.52-37.07-4.51-74.4-6.58-110.85-16.1-18.62-4.87-31.17,4.23-35.05,23.17-6.28,30.64.74,58.59,21.57,81.91C1042.43,719.05,1071.64,726.24,1100.27,727.36Z" transform="translate(287.01 161.08)"/><path class="b" d="M236.77-160.88c-9.5,11.24-21.87,19.21-33,28.56-36,30.2-76.85,53.22-116.13,78.5C48.88-28.87,13,0-24.16,27c-20,14.57-25.92,34.39-20.67,58.26C-38,116.15-33,147.18-32.92,179c.06,44-10.91,85.48-25.78,126.27-11,30.22-23.36,59.87-41.72,86.5-11,15.92-24.28,29.72-40.78,40.17-27,17.08-53.94,15.29-81,.26-14.84-8.23-26.21-20.22-37-33.05-7.32-8.73-15.6-16.5-27.68-18.23q0-267.69-.15-535.39c0-5.45,1.1-6.61,6.59-6.6Q-21.82-160.76,236.77-160.88Z" transform="translate(287.01 161.08)"/><path class="b" d="M1120.12,931.92c29.29-9,41.79-32.93,52.25-58.62,9.26-22.74,14.94-46.67,22.86-69.85,14.23-41.66,36.86-78,64.86-112.09,38.11-46.46,66.56-98.75,80.14-158.18,3.17-13.89,8.92-26.87,19.22-37.28,15.68-15.85,35.66-13.46,47.77,5.53a104.74,104.74,0,0,1,10.93,22.45c8.35,24.52,21.65,46.15,37.9,66.07,18.3,22.43,31,47.15,33.73,76.49a70.91,70.91,0,0,0,10,30c15.25,25.36,40.4,33.05,67.2,20.62,20.38-9.44,34.86-25.67,48.76-42.46,11.92-14.4,23.32-29.24,35-43.85,1.54-1.94,2.6-4.38,5.12-5.4q0,150.26.14,300.52c0,5.19-1,6.22-6.22,6.21Q1385,931.81,1120.12,931.92Z" transform="translate(287.01 161.08)"/><path class="b" d="M-286.86,408.28c5.89,6.9,8.75,15.53,13.11,23.29,14.71,26.17,24.63,54.4,32.6,83.14,15.36,55.33,43.47,103.72,78.05,148.84,8.61,11.23,17.45,22.29,26,33.59,12.63,16.74,12.86,26.67,1.15,44.11C-146.14,756.4-159,769.42-169.88,784c-8.15,11-16.12,22.08-22.2,34.36a82.2,82.2,0,0,0-5.76,14.8c-3.38,12.38,1.51,18.61,14.22,18.35,13-.27,25.44-4,37.94-7.08,49.44-12,99.52-17.68,150.38-15.47a731.15,731.15,0,0,1,137.93,19.59c34.47,8.21,61.65,28.44,85,54.27,8.47,9.36,17,18.7,24.29,29.06q-266.17,0-532.36.14c-5.45,0-6.6-1.1-6.6-6.58Q-286.74,666.88-286.86,408.28Z" transform="translate(287.01 161.08)"/><path class="b" d="M1385.73-160.88c18.7,19.43,44.19,30.2,70.42,21.57,18.68-6.14,37.12-13,56.87-15.63,47.81-6.28,84.74,12,111.65,50.52C1646.26-73.53,1652.59-38,1648-1.09c-2.52,20.27-14.57,28.83-34.91,29.91-14.37.77-28.72,2-43.08,2.83-41.26,2.41-73.31-14.86-98.71-46.31-7.45-9.24-14.71-18.65-22.57-27.52-11-12.39-25.82-16.18-41.58-17.18-30.48-2-61-3.3-90.93-10.44-56.93-13.58-100.47-46.9-136.91-91.08Z" transform="translate(287.01 161.08)"/><path class="b" d="M807.46,931.92c2.52-9.3,9.7-15,16.49-20.86,25.52-21.87,55.38-33.69,88.58-37.51,38.7-4.46,76.57-1.45,113.23,12.55,8.8,3.36,16.65,8.41,24.49,13.48,18.56,12,36.83,24.5,57.73,32.34Z" transform="translate(287.01 161.08)"/><path class="b" d="M1100.27,727.36c-28.63-1.12-57.84-8.31-79.54-32.6-20.83-23.32-27.85-51.27-21.57-81.91,3.88-18.94,16.43-28,35.05-23.17,36.45,9.52,73.78,11.59,110.85,16.1,21.23,2.58,37,12.4,43.13,34.52,6.74,24.48,3.22,46.29-16.41,63.63S1128.45,727,1100.27,727.36Z" transform="translate(287.01 161.08)"/></svg>