<svg xmlns="http://www.w3.org/2000/svg" viewBox="0 0 1366.29 768.32"><defs><style>.a{fill:#ffffff;}.b{fill:#41c7f6;}</style></defs><title>1800f_00051</title><path class="a" d="M1367.52,428v71.33c-15.72,5.51-31.58,10.63-47.12,16.61-29.93,11.51-60.1,22.58-87.05,40.55-22.09,14.72-36.7,34.07-40.39,61.13-4.79,35.09-6.44,70.37-7.69,105.7-.55,15.39-.94,30.78-1.4,46.18H321.77c-1.17-2.86-4.07-3.66-6.32-5.14-39-25.57-82.46-40.27-127.45-50.89-17.2-4.06-34.62-7.15-51.9-10.83-2.88-.62-6.47-1.34-6.9-5-.37-3.17,2.6-4.78,5-6.06,8-4.27,16.09-8.48,24.26-12.46,45.29-22.06,86.45-50.35,124.37-83.31,18.45-16,30.56-36.1,33.31-61.12,2.32-21,1.31-41.9-1.3-62.74-3.58-28.55-9.9-56.67-11.85-85.52-1.79-26.37-9.92-51.11-26.72-72.16-12.49-15.65-28.17-23.54-49-20.46-30.68,4.53-41.42-2.68-51.18-32.44-6.21-19-10.76-38.5-18.5-56.93-19.76-47.05-32.61-96.79-55.9-142.47-4.43-8.69-1.42-13.14,8.07-15.07s19.15-1.22,28.73-1.66c33.63-1.52,65.39-9.73,94.52-26.92,8-4.7,16.24-9.2,22-16.86H901.56C901,5,903.8,7,905.48,9.33c21,29.73,49,52.3,77.73,73.91,44.62,33.52,86.84,69.15,118.72,116.05,19.4,28.55,34.75,57.7,38.51,92.59,2.15,20,5.64,40.11,13,59.08,14.77,38,39.45,65.6,80.88,74.87,12.12,2.71,24.47,3.51,36.88,3.85C1303.34,430.56,1335.39,427.16,1367.52,428Zm-562.85,2.25c-12.39-.39-23.1,4.25-33.5,9.51-12.49,6.32-25.32,11.51-39.13,14-15.91,2.81-31.91,5.06-48,6.46-7.79.68-15.56,1.82-23,4.47-2.79,1-6.09,1.66-6.49,5.47-.39,3.61,2.34,5.5,4.78,7.18a58.64,58.64,0,0,0,9.24,5.13,199.8,199.8,0,0,0,50.07,14.69c34.65,5.38,68,15.16,100.84,27,11.66,4.19,23.63,7.63,36.25,6.93,14.52-.82,25.65-7.54,32.22-20.6,6.32-12.59,4.9-24.95-2.88-36.63a11.91,11.91,0,0,0-.83-1.26C863.07,448.19,836,435.22,804.67,430.27Zm-36.23,167.6a48.71,48.71,0,0,0-29.85,9.92c-10.26,7.62-13,18-5.63,28.46,14.57,20.6,35.24,31.69,60.4,32.38,14.9.4,25.07-10.55,24.06-23.56C815.91,625.63,791.85,596.47,768.44,597.87Z" transform="translate(-1.37 -1.35)"/><path class="b" d="M255,1.52c-5.78,7.66-14.06,12.16-22,16.86-29.13,17.19-60.89,25.4-94.52,26.92-9.58.44-19.22-.28-28.73,1.66S97.22,53.34,101.65,62c23.29,45.68,36.14,95.42,55.9,142.47,7.74,18.43,12.29,38,18.5,56.93,9.76,29.76,20.5,37,51.18,32.44,20.87-3.08,36.55,4.81,49,20.46,16.8,21.05,24.93,45.79,26.72,72.16,1.95,28.85,8.27,57,11.85,85.52,2.61,20.84,3.62,41.73,1.3,62.74-2.75,25-14.86,45.09-33.31,61.12-37.92,33-79.08,61.25-124.37,83.31-8.17,4-16.23,8.19-24.26,12.46-2.4,1.28-5.37,2.89-5,6.06.43,3.62,4,4.34,6.9,5,17.28,3.68,34.7,6.77,51.9,10.83,45,10.62,88.42,25.32,127.45,50.89,2.25,1.48,5.15,2.28,6.32,5.14q-157.09,0-314.18.14c-5.2,0-6.23-1-6.22-6.22q.3-138.11.15-276.23c2.48-7.46,2.85-15.3,3.49-23,1.5-17.76,2.86-35.61-3.49-52.89q0-201.63-.13-403.27c0-5.22.77-6.72,6.48-6.7Q131.42,1.73,255,1.52Z" transform="translate(-1.37 -1.35)"/><path class="b" d="M1367.52,428c-32.13-.86-64.18,2.54-96.31,1.66-12.41-.34-24.76-1.14-36.88-3.85-41.43-9.27-66.11-36.86-80.88-74.87-7.37-19-10.86-39-13-59.08-3.76-34.89-19.11-64-38.51-92.59-31.88-46.9-74.1-82.53-118.72-116-28.77-21.61-56.68-44.18-77.73-73.91C903.8,7,901,5,901.56,1.52h346c13.4,12.64,26.88,25.18,40.15,37.95,9.34,9,15.78,19.71,17.25,32.87,1,8.88-.43,17.67-2,26.34-4.32,23.23-6.44,46.46-2.18,69.95,3.79,20.92,9.78,40.81,25.33,56.38,10.17,10.18,21.7,11.74,34.52,5,2.16-1.14,4-3.29,6.88-2.33Z" transform="translate(-1.37 -1.35)"/><path class="b" d="M1183.87,769.52c.46-15.4.85-30.79,1.4-46.18,1.25-35.33,2.9-70.61,7.69-105.7,3.69-27.06,18.3-46.41,40.39-61.13,27-18,57.12-29,87.05-40.55,15.54-6,31.4-11.1,47.12-16.61q0,132,.15,264.09c0,5.2-1,6.25-6.22,6.23C1302.25,769.43,1243.06,769.52,1183.87,769.52Z" transform="translate(-1.37 -1.35)"/><path class="a" d="M1367.52,227.67c-2.88-1-4.72,1.19-6.88,2.33-12.82,6.75-24.35,5.19-34.52-5-15.55-15.57-21.54-35.46-25.33-56.38-4.26-23.49-2.14-46.72,2.18-69.95,1.61-8.67,3-17.46,2-26.34-1.47-13.16-7.91-23.88-17.25-32.87C1274.49,26.7,1261,14.16,1247.61,1.52c38.2,0,76.4.1,114.59-.13,4.54,0,5.46.92,5.44,5.44Q1367.39,117.24,1367.52,227.67Z" transform="translate(-1.37 -1.35)"/><path class="a" d="M1.52,411.32c6.35,17.28,5,35.13,3.49,52.89-.64,7.7-1,15.54-3.49,23Z" transform="translate(-1.37 -1.35)"/><path class="b" d="M804.67,430.27c31.29,5,58.4,17.92,79.55,42.28a11.91,11.91,0,0,1,.83,1.26c7.78,11.68,9.2,24,2.88,36.63-6.57,13.06-17.7,19.78-32.22,20.6-12.62.7-24.59-2.74-36.25-6.93-32.87-11.82-66.19-21.6-100.84-27a199.8,199.8,0,0,1-50.07-14.69,58.64,58.64,0,0,1-9.24-5.13c-2.44-1.68-5.17-3.57-4.78-7.18.4-3.81,3.7-4.48,6.49-5.47,7.43-2.65,15.2-3.79,23-4.47,16.12-1.4,32.12-3.65,48-6.46,13.81-2.44,26.64-7.63,39.13-14C781.57,434.52,792.28,429.88,804.67,430.27Z" transform="translate(-1.37 -1.35)"/><path class="b" d="M768.44,597.87c23.41-1.4,47.47,27.76,49,47.2,1,13-9.16,24-24.06,23.56-25.16-.69-45.83-11.78-60.4-32.38-7.38-10.43-4.63-20.84,5.63-28.46A48.71,48.71,0,0,1,768.44,597.87Z" transform="translate(-1.37 -1.35)"/></svg>