<svg xmlns="http://www.w3.org/2000/svg" viewBox="0 0 1943.03 1093.12"><defs><style>.a{fill:#ffffff;}.b{fill:#41c7f6;}</style></defs><title>1800f_00220</title><path class="a" d="M-286.86,425q0-289.65-.12-579.31c0-5.17.68-6.74,6.46-6.73q157.71.36,315.43.18c.21,33.16,4.23,66,7.2,99C46-18.43,39.2,22.26,12,58-1.14,75.11-15.2,91.36-31.2,105.77-74.77,145-121,181.22-164.62,220.41c-17.56,15.77-34.76,31.65-46.66,52.39-7.69,13.41-11.31,27.69-8.39,43,3.32,17.37,14.12,29.34,29.34,37.53,33.58,18.08,70,26.79,107.59,28.84,50.56,2.76,101.08-.78,151.37-6.62,32.11-3.73,64-9.08,96.55-8.8a370.07,370.07,0,0,0,55.17-3.94c35.57-5.05,69-15.35,97.54-38.36,23.84-19.22,41.79-43.21,56.32-69.78,17.64-32.25,40.49-59.62,70.65-80.9,21-14.81,39-32.94,54.95-53,28.66-36,57-72.24,85.85-108.13,14.25-17.75,28.81-35.37,47.8-48.43,21.17-14.56,37.65-12.08,53.28,8.14,19.73,25.52,32.59,54.6,43,84.89,9.27,27,21,52.47,41.62,73.15,42,42.11,94.07,60.37,151.93,65.69,24.19,2.22,48.44,3,72.69,3.77,35.62,1.18,71.32,2.64,106.25-7.2a80.37,80.37,0,0,1,28.54-3c15.17,1.26,21.24,12.18,14.13,25.66a42.73,42.73,0,0,1-6.27,8.49c-6.16,6.82-13.72,11.92-21.49,16.69-22,13.52-45.21,24.82-67.78,37.29-47.18,26.06-94.81,51.07-145.82,69.1-16.47,5.82-32.12,13.57-45.71,25-22.9,19.21-27.57,44.77-10.94,69.49,23.47,34.87,55.4,58.71,96.81,68.07,20.93,4.74,41.85,4.16,60.62-8.36a64.76,64.76,0,0,0,23.44-28.28c11.26-25.73,28.52-47,48-66.71,9.94-10.08,19.28-20.74,29.14-30.91,23-23.67,40.37-51.07,54.85-80.54,7.28-14.81,16.77-27.76,33.72-32.9a230.22,230.22,0,0,1,41.55-8.36c14.11-1.56,25,4.23,33.51,15.28a93.08,93.08,0,0,1,10.56,17.5c9.27,19.75,15.74,40.5,21.65,61.44,7.41,26.29,10.31,53.6,18.17,79.8,18.87,62.9,49,120.73,80.13,178.1a125.69,125.69,0,0,0,37.64,43.12c21,14.88,39,14.37,58.85-1.89,11.72-9.62,22.82-20,34.47-29.7,21.85-18.2,45.56-33,74.49-36.69,18.09-2.33,36-4.81,51.42-15.71q0,180.61.14,361.23c0,5.19-1,6.21-6.22,6.21q-386.27-.24-772.54-.14c3.28-13.21,6.56-26.44,6.71-40.16.22-20.72-2-40.92-14.65-58.39-9.27-12.83-24-14.12-35.23-3.14-14.43,14.08-17.43,32.47-18.71,51.36-1.19,17.46,3.85,33.9,8.75,50.33H-112.32C-101.49,902.69-93.88,872.56-88,842a99.73,99.73,0,0,1,23.14-47.82c6.31-7.22,12.19-14.84,18-22.5,32.47-43,55.09-89.76,58-144.82,1.1-20.84,4-41.68,12.91-61.17,11.17-24.49,34.13-36.84,60.63-32,31.08,5.74,57.18,21.22,80.32,41.94,28.84,25.82,46.15,59.12,59.46,94.8,15.06,40.37,31.77,79.9,57.52,114.93,14.13,19.21,28.76,37.88,49.45,50.69,7.29,4.51,15.12,7.28,23.65,6.81,13.88-.76,22.61-10.5,25.9-28.22,4-21.73,0-42.77-5.88-63.57-6.79-24.09-16.58-47.2-23-71.44-9-34-13.64-68.89-21.14-103.2-12.81-58.62-45.53-101.13-101-125.2-28.94-12.56-59.48-17.93-90.85-18.22-37.1-.35-73,7.14-107.4,20.47C-4.24,467.44-40.7,468.26-78,462.16c-50.62-8.28-100.68-19.64-151.4-27.36C-248.62,431.88-267.71,428.27-286.86,425Z" transform="translate(286.99 161.06)"/><path class="b" d="M1655.9,564.62c-15.42,10.9-33.33,13.38-51.42,15.71-28.93,3.72-52.64,18.49-74.49,36.69-11.65,9.71-22.75,20.08-34.47,29.7-19.8,16.26-37.88,16.77-58.85,1.89A125.69,125.69,0,0,1,1399,605.49c-31.08-57.37-61.26-115.2-80.13-178.1-7.86-26.2-10.76-53.51-18.17-79.8-5.91-20.94-12.38-41.69-21.65-61.44a93.08,93.08,0,0,0-10.56-17.5c-8.51-11-19.4-16.84-33.51-15.28a230.22,230.22,0,0,0-41.55,8.36c-17,5.14-26.44,18.09-33.72,32.9-14.48,29.47-31.88,56.87-54.85,80.54-9.86,10.17-19.2,20.83-29.14,30.91-19.48,19.76-36.74,41-48,66.71a64.76,64.76,0,0,1-23.44,28.28c-18.77,12.52-39.69,13.1-60.62,8.36-41.41-9.36-73.34-33.2-96.81-68.07-16.63-24.72-12-50.28,10.94-69.49,13.59-11.4,29.24-19.15,45.71-25,51-18,98.64-43,145.82-69.1,22.57-12.47,45.78-23.77,67.78-37.29,7.77-4.77,15.33-9.87,21.49-16.69a42.73,42.73,0,0,0,6.27-8.49c7.11-13.48,1-24.4-14.13-25.66a80.37,80.37,0,0,0-28.54,3c-34.93,9.84-70.63,8.38-106.25,7.2-24.25-.8-48.5-1.55-72.69-3.77-57.86-5.32-109.94-23.58-151.93-65.69C750.74,109.68,739,84.21,729.73,57.21c-10.4-30.29-23.26-59.37-43-84.89-15.63-20.22-32.11-22.7-53.28-8.14-19,13.06-33.55,30.68-47.8,48.43-28.81,35.89-57.19,72.12-85.85,108.13-16,20.07-34,38.2-54.95,53-30.16,21.28-53,48.65-70.65,80.9-14.53,26.57-32.48,50.56-56.32,69.78-28.53,23-62,33.31-97.54,38.36a370.07,370.07,0,0,1-55.17,3.94c-32.54-.28-64.44,5.07-96.55,8.8-50.29,5.84-100.81,9.38-151.37,6.62-37.59-2-74-10.76-107.59-28.84-15.22-8.19-26-20.16-29.34-37.53-2.92-15.29.7-29.57,8.39-43,11.9-20.74,29.1-36.62,46.66-52.39C-121,181.22-74.77,145-31.2,105.77-15.2,91.36-1.14,75.11,12,58,39.2,22.26,46-18.43,42.11-61.89c-3-32.95-7-65.83-7.2-99H227.67c21.39,47.77,50.43,90.92,81,133.12,7.7,10.64,16.75,20.31,28.82,26.38S359.4,2.1,367.07-9c4.85-7,7.43-15,9-23.14,7.34-37.21,2.47-73.3-10.27-108.67-2.37-6.57-6-12.82-6.13-20.08h673.9c.66,2.41,2.78,3.54,4.51,4.92A298.33,298.33,0,0,0,1107.21-114c42.54,18.31,87.27,30.2,131.2,44.43,32.2,10.44,65,16.68,99,14.74,12.9-.74,25.92-2,37-9.29,23.42-15.4,29.54-38.51,27-64.77-1-10.71-3.37-21.3-5.11-31.94q126.73,0,253.46-.15c5.2,0,6.23,1,6.22,6.22q-.27,247.4-.14,494.79c-16.2,24.25-24.34,50.89-22.11,80,2.42,31.61,11.41,61.78,22.11,91.47ZM1356.41,144.13l0,.43c4.28-.33,8.66-.17,12.82-1.07,44.93-9.75,86.37-28.26,125.55-51.79,17.52-10.52,17.68-22.89,2.41-36.48-.38-.33-.74-.69-1.14-1a167.37,167.37,0,0,0-51.89-27.69Q1407,14.4,1378,40.45c-17.22,15.42-31.86,33.12-44.87,52.15a61.79,61.79,0,0,0-8.7,18.46c-4.9,17.81,4.61,31.51,22.94,33C1350.33,144.34,1353.38,144.13,1356.41,144.13Z" transform="translate(286.99 161.06)"/><path class="b" d="M-286.86,425c19.15,3.29,38.24,6.9,57.45,9.82,50.72,7.72,100.78,19.08,151.4,27.36,37.31,6.1,73.77,5.28,109.66-8.62,34.42-13.33,70.3-20.82,107.4-20.47,31.37.29,61.91,5.66,90.85,18.22,55.46,24.07,88.18,66.58,101,125.2,7.5,34.31,12.13,69.19,21.14,103.2,6.43,24.24,16.22,47.35,23,71.44,5.87,20.8,9.92,41.84,5.88,63.57-3.29,17.72-12,27.46-25.9,28.22-8.53.47-16.36-2.3-23.65-6.81-20.69-12.81-35.32-31.48-49.45-50.69-25.75-35-42.46-74.56-57.52-114.93-13.31-35.68-30.62-69-59.46-94.8C141.8,555,115.7,539.49,84.62,533.75c-26.5-4.89-49.46,7.46-60.63,32C15.1,585.19,12.18,606,11.08,626.87c-2.88,55.06-25.5,101.83-58,144.82-5.79,7.66-11.67,15.28-18,22.5A99.73,99.73,0,0,0-88,842c-5.87,30.55-13.48,60.68-24.31,89.91-56.27,0-112.55-.07-168.83.12-4.67,0-5.86-1-5.84-5.77.21-48.21.13-96.41.13-144.61,10.77-15.94,22.1-31.3,37.39-43.42,14.9-11.81,28.36-13.42,42.13-3.62,6.36,4.52,12.29,9.65,18.32,14.62,11.87,9.79,23.34,20.16,38.37,25.15,17.39,5.78,30.89-.55,37.89-17.49,7.66-18.53,12.58-37.87,16.18-57.47,2-10.78,3.89-21.94.56-33-1.85-6.15-7.85-10.75-13.41-9.91-7.49,1.14-14.71,2.91-21.55,6.57-11.78,6.31-23.73,12.34-35.86,18-25.15,11.66-52,10.66-72.24-14.4-3-3.73-6-7.44-8.91-11.28-12.34-16.59-23.26-34.31-38.87-48.27Z" transform="translate(286.99 161.06)"/><path class="a" d="M1396.36-160.88c1.74,10.64,4.09,21.23,5.11,31.94,2.52,26.26-3.6,49.37-27,64.77-11.09,7.3-24.11,8.55-37,9.29-34,1.94-66.83-4.3-99-14.74-43.93-14.23-88.66-26.12-131.2-44.43A298.33,298.33,0,0,1,1038.12-156c-1.73-1.38-3.85-2.51-4.51-4.92Z" transform="translate(286.99 161.06)"/><path class="a" d="M-286.86,607.11c15.61,14,26.53,31.68,38.87,48.27,2.86,3.84,5.9,7.55,8.91,11.28,20.25,25.06,47.09,26.06,72.24,14.4,12.13-5.63,24.08-11.66,35.86-18,6.84-3.66,14.06-5.43,21.55-6.57,5.56-.84,11.56,3.76,13.41,9.91,3.33,11.06,1.42,22.22-.56,33-3.6,19.6-8.52,38.94-16.18,57.47-7,16.94-20.5,23.27-37.89,17.49-15-5-26.5-15.36-38.37-25.15-6-5-12-10.1-18.32-14.62-13.77-9.8-27.23-8.19-42.13,3.62-15.29,12.12-26.62,27.48-37.39,43.42Z" transform="translate(286.99 161.06)"/><path class="a" d="M359.71-160.88c.16,7.26,3.76,13.51,6.13,20.08,12.74,35.37,17.61,71.46,10.27,108.67-1.61,8.18-4.19,16.13-9,23.14C359.4,2.1,349.56,4.71,337.45-1.38s-21.12-15.74-28.82-26.38c-30.53-42.2-59.57-85.35-81-133.12Z" transform="translate(286.99 161.06)"/><path class="b" d="M824.15,931.92c-4.9-16.43-9.94-32.87-8.75-50.33,1.28-18.89,4.28-37.28,18.71-51.36,11.25-11,26-9.69,35.23,3.14C882,850.84,884.21,871,884,891.76c-.15,13.72-3.43,27-6.71,40.16Z" transform="translate(286.99 161.06)"/><path class="a" d="M1655.9,511.49c-10.7-29.69-19.69-59.86-22.11-91.47-2.23-29.15,5.91-55.79,22.11-80Z" transform="translate(286.99 161.06)"/><path class="a" d="M1356.41,144.13c-3,0-6.08.21-9.09,0-18.33-1.52-27.84-15.22-22.94-33a61.79,61.79,0,0,1,8.7-18.46c13-19,27.65-36.73,44.87-52.15q29.08-26,66.23-13.92a167.37,167.37,0,0,1,51.89,27.69c.4.31.76.67,1.14,1,15.27,13.59,15.11,26-2.41,36.48-39.18,23.53-80.62,42-125.55,51.79-4.16.9-8.54.74-12.82,1.07Z" transform="translate(286.99 161.06)"/></svg>