<svg xmlns="http://www.w3.org/2000/svg" viewBox="0 0 1943.05 1093.1"><defs><style>.a{fill:#ffffff;}.b{fill:#41c7f6;}</style></defs><title>1800f_00153</title><path class="a" d="M-286.86,188.21q0-171.13-.14-342.26c0-5.69,1.28-7,7-7q851.1.22,1702.19.14c.12,2.71-2,3.95-3.67,5.39-10.34,8.85-21.91,15.64-35.28,18.36-32.79,6.68-63,20-92.44,35.28-40,20.78-80.42,39.72-125,49.58-23.58,5.21-42.4,19.89-53,42.88-10.41,22.51-1.7,44,21.12,53.25,15.36,6.2,31.19,5.73,47,3.73,17.48-2.23,34.79-5.78,52.26-8.19,36.51-5,72.81-11.16,108-22.39,45-14.36,90.17-21,137.17-9.63,37.11,9,74.38,17.19,109.69,32.1,13.55,5.73,26.29,13.09,36.46,24,5.55,6,5.17,9.73-1.63,14.17a86.12,86.12,0,0,1-14.22,7.09c-24.31,10.1-48.3,20.93-70.65,34.88-40.31,25.17-80,51.27-120.49,76.22-56.83,35.07-110,74.59-156.18,123.17-18.83,19.81-32.7,42.2-41.39,68.06-8.56,25.49-12.37,52.09-19,78-8.82,34.76-20.1,68.84-27.21,104.1-4.41,21.88-.44,39.93,16.94,54.51,5.61,4.71,10.79,9.92,16.34,14.7,22.78,19.64,44.24,40.78,67.78,59.56,34.44,27.48,73.93,45.55,114.8,60.77,25.2,9.39,49.16,20.53,66.75,41.61,32.51,39,53.93,84,70.53,131.53H221.6c-.65-2.83.26-5.48.85-8.2,7.6-34.81,1.42-66.32-23-93.16-16.41-18-36.52-31-58.57-41.14-33.18-15.19-68.48-20.74-104.53-23.12-23.69-1.56-47.41-3.1-70.55-9.18C-65.12,749-85,730.24-91.82,698.42a283.42,283.42,0,0,1-5.24-35.21c-2.22-26.22-2-52.55-3.06-78.81-.86-20.79-6.91-39.67-18.9-56.72-11.89-16.9-27.33-29.87-45.15-39.83a354.81,354.81,0,0,1-57.68-40.4c-14.4-12.3-29.81-23.62-41.26-39-8.66-11.62-7-22,4.33-31,8.27-6.6,17.88-10.41,28-13.1,29.86-8,60.38-12.87,90.95-16.43,62.07-7.22,114.76-35.45,164.77-70.33,7.52-5.24,7.1-9.19-1.37-12.92-16-7-30.89-15.91-45.56-25.27-28.34-18.09-49.82-41.7-61.13-73.87a77.72,77.72,0,0,0-6.93-14.31c-7.12-11.72-17.39-17.63-31.5-17.28-11.94.29-22.93,3.79-33.66,8.29-33.09,13.88-65.29,29.92-99.65,40.68C-265.33,186.16-275.77,189.05-286.86,188.21Zm1406.52,89.33c.52-5-.89-12.06-3.62-19-7.45-19-11.55-39.26-20.12-57.95-12.57-27.4-30.85-50.83-50.26-73.58-9.81-11.5-20.26-21.81-34.5-27.63-37.87-15.49-76.85-15.19-116.24-7.93-28.52,5.25-55,16.82-82.07,26.74C778.1,130.91,743,141.66,705.7,144.23c-21.74,1.5-43.47-.13-65.18,1-28.3,1.53-54.78,8.73-78.34,25.14-32,22.28-37.2,49.19-15.56,81.4,15.72,23.39,35.7,42.47,59.18,58C640.85,333,678,352.49,714.53,373.15c18.34,10.37,38.51,14.67,59.75,14.44,18.51-.2,36.8-2.5,55.11-4.54,26.82-3,50.73,2.24,70.31,22.06,8.88,9,18,17.7,27.09,26.53a75.82,75.82,0,0,0,14.45,11c8.47,5,16.61,4.95,25-.37,17.26-11,34.55-22.08,53-31,31.05-15,55.7-37.16,75.32-65.24C1108.42,326.09,1120,305.29,1119.66,277.54ZM779.2,746.11c.61,13.66,1,24.77,5.13,35.36,6,15.2,17.1,19.48,31.43,11.75,8.76-4.72,16.32-11.07,23.42-17.93,15.09-14.59,29.74-29.65,45.18-43.86,23.48-21.62,51.64-32.92,83.27-36.54,21.17-2.41,42.45-.24,63.61-2.64q54.59-6.16,80.85-54.17c5.93-10.86,5.31-22.07-2.09-32.19a103.14,103.14,0,0,0-16-17.15c-24-20.61-47.73-41.33-67.13-66.66-15-19.53-34.8-33.72-56.15-45.61-10.63-5.92-19-4-27.14,5A111.72,111.72,0,0,0,935,492c-18.79,26.84-39.94,51.48-65,72.8-15.05,12.82-28.13,27.66-40,43.45C798.6,649.83,781.57,696.6,779.2,746.11Zm-563-445c18.55.5,35.85-1.53,53-4.77,34.81-6.57,68.24-16.9,97.33-38,19.32-14,34.18-31.6,39.48-55.57,5.48-24.77-10.4-44.3-35.61-45.1-20.07-.65-37.49,7.11-54.57,16.1-21.46,11.3-42.45,23.54-64.2,34.23-21.29,10.46-44,17.47-67.73,19.21-16.62,1.22-33.21,2.25-49.64,5-23.42,3.94-45.36,11.93-65.29,25-2.84,1.86-6.64,4-6.37,7.89.3,4.4,4.85,5.31,8.16,7a16.53,16.53,0,0,0,2.84,1c25.35,7.69,50.81,14.94,76.91,19.76C172.59,296.94,194.48,302.34,216.18,301.1Z" transform="translate(287.01 161.02)"/><path class="b" d="M1526.88,931.92c-16.6-47.55-38-92.58-70.53-131.53-17.59-21.08-41.55-32.22-66.75-41.61-40.87-15.22-80.36-33.29-114.8-60.77-23.54-18.78-45-39.92-67.78-59.56-5.55-4.78-10.73-10-16.34-14.7-17.38-14.58-21.35-32.63-16.94-54.51,7.11-35.26,18.39-69.34,27.21-104.1,6.58-25.94,10.39-52.54,19-78,8.69-25.86,22.56-48.25,41.39-68.06,46.19-48.58,99.35-88.1,156.18-123.17,40.45-24.95,80.18-51,120.49-76.22,22.35-14,46.34-24.78,70.65-34.88a86.12,86.12,0,0,0,14.22-7.09c6.8-4.44,7.18-8.2,1.63-14.17-10.17-11-22.91-18.31-36.46-24-35.31-14.91-72.58-23.11-109.69-32.1-47-11.39-92.17-4.73-137.17,9.63-35.18,11.23-71.48,17.36-108,22.39-17.47,2.41-34.78,6-52.26,8.19-15.81,2-31.64,2.47-47-3.73-22.82-9.24-31.53-30.74-21.12-53.25,10.64-23,29.46-37.67,53-42.88,44.54-9.86,85-28.8,125-49.58,29.42-15.3,59.65-28.6,92.44-35.28,13.37-2.72,24.94-9.51,35.28-18.36,1.68-1.44,3.79-2.68,3.67-5.39q114.21,0,228.42-.13c4.53,0,5.45.91,5.44,5.44q-.24,145.32-.12,290.65c-.5.54-1.2,1-1.47,1.64-10.84,25.82-26.35,48.91-42.18,71.8C1578.73,257,1541,302.37,1506.71,350.27c-19.63,27.39-37.84,55.64-48.77,87.88-8.53,25.16-11.07,51.35-12.31,77.61-1.53,32.48.59,64.62,11.13,95.82,15.06,44.55,64.25,72.39,111.79,50.27,18.3-8.52,34.53-20,49.66-33.13,12.74-11,25.14-22.48,37.69-33.75q0,165.43.14,330.88c0,5.19-1,6.25-6.22,6.22C1608.85,931.8,1567.86,931.92,1526.88,931.92Z" transform="translate(287.01 161.02)"/><path class="b" d="M-286.86,188.21c11.09.84,21.53-2.05,32-5.32,34.36-10.76,66.56-26.8,99.65-40.68,10.73-4.5,21.72-8,33.66-8.29,14.11-.35,24.38,5.56,31.5,17.28a77.72,77.72,0,0,1,6.93,14.31c11.31,32.17,32.79,55.78,61.13,73.87,14.67,9.36,29.58,18.23,45.56,25.27,8.47,3.73,8.89,7.68,1.37,12.92-50,34.88-102.7,63.11-164.77,70.33-30.57,3.56-61.09,8.45-90.95,16.43-10.08,2.69-19.69,6.5-28,13.1-11.36,9.06-13,19.41-4.33,31,11.45,15.37,26.86,26.69,41.26,39a354.81,354.81,0,0,0,57.68,40.4c17.82,10,33.26,22.93,45.15,39.83,12,17.05,18,35.93,18.9,56.72,1.1,26.26.84,52.59,3.06,78.81a283.42,283.42,0,0,0,5.24,35.21c6.82,31.82,26.7,50.57,57.63,58.7,23.14,6.08,46.86,7.62,70.55,9.18,36.05,2.38,71.35,7.93,104.53,23.12,22.05,10.09,42.16,23.09,58.57,41.14,24.41,26.84,30.59,58.35,23,93.16-.59,2.72-1.5,5.37-.85,8.2q-251,0-502.08.16c-5.67,0-6.51-1.4-6.51-6.68Q-286.76,556.8-286.86,188.21Z" transform="translate(287.01 161.02)"/><path class="a" d="M1655.9,595c-12.55,11.27-25,22.71-37.69,33.75-15.13,13.13-31.36,24.61-49.66,33.13-47.54,22.12-96.73-5.72-111.79-50.27-10.54-31.2-12.66-63.34-11.13-95.82,1.24-26.26,3.78-52.45,12.31-77.61,10.93-32.24,29.14-60.49,48.77-87.88,34.31-47.9,72-93.27,105.54-141.75,15.83-22.89,31.34-46,42.18-71.8.27-.64,1-1.1,1.47-1.64Z" transform="translate(287.01 161.02)"/><path class="b" d="M1119.66,277.54c.3,27.75-11.24,48.55-25.16,68.46-19.62,28.08-44.27,50.21-75.32,65.24-18.44,8.92-35.73,20-53,31-8.34,5.32-16.48,5.39-25,.37a75.82,75.82,0,0,1-14.45-11c-9-8.83-18.21-17.54-27.09-26.53-19.58-19.82-43.49-25.05-70.31-22.06-18.31,2-36.6,4.34-55.11,4.54-21.24.23-41.41-4.07-59.75-14.44C678,352.49,640.85,333,605.8,309.79c-23.48-15.52-43.46-34.6-59.18-58-21.64-32.21-16.41-59.12,15.56-81.4,23.56-16.41,50-23.61,78.34-25.14,21.71-1.16,43.44.47,65.18-1,37.27-2.57,72.4-13.32,107.15-26.07,27-9.92,53.55-21.49,82.07-26.74,39.39-7.26,78.37-7.56,116.24,7.93,14.24,5.82,24.69,16.13,34.5,27.63,19.41,22.75,37.69,46.18,50.26,73.58,8.57,18.69,12.67,38.9,20.12,57.95C1118.77,265.48,1120.18,272.51,1119.66,277.54Z" transform="translate(287.01 161.02)"/><path class="b" d="M779.2,746.11c2.37-49.51,19.4-96.28,50.74-137.85,11.91-15.79,25-30.63,40-43.45,25-21.32,46.19-46,65-72.8a111.72,111.72,0,0,1,8.65-10.55c8.09-9,16.51-10.91,27.14-5,21.35,11.89,41.19,26.08,56.15,45.61,19.4,25.33,43.18,46,67.13,66.66a103.14,103.14,0,0,1,16,17.15c7.4,10.12,8,21.33,2.09,32.19q-26.21,48-80.85,54.17c-21.16,2.4-42.44.23-63.61,2.64-31.63,3.62-59.79,14.92-83.27,36.54-15.44,14.21-30.09,29.27-45.18,43.86-7.1,6.86-14.66,13.21-23.42,17.93-14.33,7.73-25.45,3.45-31.43-11.75C780.17,770.88,779.81,759.77,779.2,746.11Z" transform="translate(287.01 161.02)"/><path class="b" d="M216.18,301.1c-21.7,1.24-43.59-4.16-65.69-8.24-26.1-4.82-51.56-12.07-76.91-19.76a16.53,16.53,0,0,1-2.84-1c-3.31-1.7-7.86-2.61-8.16-7-.27-3.89,3.53-6,6.37-7.89,19.93-13.05,41.87-21,65.29-25,16.43-2.77,33-3.8,49.64-5,23.7-1.74,46.44-8.75,67.73-19.21,21.75-10.69,42.74-22.93,64.2-34.23,17.08-9,34.5-16.75,54.57-16.1,25.21.8,41.09,20.33,35.61,45.1-5.3,24-20.16,41.55-39.48,55.57-29.09,21.11-62.52,31.44-97.33,38C252,299.57,234.73,301.6,216.18,301.1Z" transform="translate(287.01 161.02)"/></svg>