<svg xmlns="http://www.w3.org/2000/svg" viewBox="0 0 1943.05 1093.1"><defs><style>.a{fill:#ffffff;}.b{fill:#41c7f6;}</style></defs><title>1800f_00149</title><path class="a" d="M1655.9,119.91V551a27.55,27.55,0,0,0-3.39,2.86c-22.56,26-43.33,53.31-60.66,83.11-20.32,35-40,70.17-75.65,92.92-14.78,9.43-18.06,25-14.14,41.66,13.08,55.51,34.07,108.26,56.7,160.41H-167c6.85-6.88,15.92-9.37,24.73-12.2,18.86-6.06,38.55-4.91,57.91-5.57a761.51,761.51,0,0,0,82.89-7.7c24.82-3.57,49.68-5.2,74.62-.5,21.81,4.11,43,11,65.26,13.1,32.39,3,53.68-8.43,63.1-41,8-27.72.46-52.78-18.61-73C140,759.43,86.83,740.46,24.46,749.14c-26.75,3.72-53.23,10.07-80.51,8.14-44.66-3.15-68-21.18-73.42-64.41-3.21-25.34-4.08-50.87-5.56-76.35-1.08-18.68-3.5-37.57-.78-56,3.49-23.64-3.39-42.92-19.49-59.48q-31.48-32.4-59.93-67.45c-11.44-14.18-24.25-27.14-37.5-39.67a169.89,169.89,0,0,1-15-16c-12.22-15-9.53-27.54,7.77-36.07,13.21-6.51,27.36-10.62,41.63-13.95,70.87-16.51,141.91-32.28,211.72-53.1,28.71-8.57,58.07-9.84,87.74-4.75,32.75,5.62,64.37,15.35,95.86,25.55,16.24,5.26,32.95,7.32,49.43,4.47,63.91-11.06,123.44-32.84,174.37-74.56,13.86-11.36,27.35-23.23,43.67-31.27,13.83-6.8,26.83-6.56,39,3.14a224.9,224.9,0,0,1,19.46,16.85c24,24,50,45.76,76.76,66.56,31.72,24.63,68.35,40.1,105.2,55,20.83,8.41,41.63,16.89,64.58,18.47,24.91,1.72,49.5-1.4,74-4.5,29.45-3.73,56.42-.1,79.79,19.62,1.16,1,2.53,1.68,3.73,2.61,11.37,8.8,23.42,9.73,36.26,3.43,10.89-5.35,22.12-10.06,32.78-15.81,39-21.06,80.58-31.67,124.89-33a189.28,189.28,0,0,0,56.52-10.2c19.84-6.89,24.17-13.06,24.36-33.89.45-52,21.74-94.19,61-127.65,21.83-18.58,42.3-38.39,58.25-62.44,16.15-24.34,22.47-49.85,7.72-77.06-7.23-13.34-14.4-26.73-20.4-40.63-8-18.6-22.64-27.68-41.57-31.5-23.06-4.67-46.44-7-69.86-8.57-32-2.21-62.4,4-90.64,19.64a313.45,313.45,0,0,0-49.52,33.6c-21.95,18.37-45.38,33.5-73.32,41.37-19.69,5.54-39.07,12.3-58.35,19.17A205.54,205.54,0,0,1,823.84,60.1a290.43,290.43,0,0,0-92.33,9.52c-42.81,11.45-86.2,17.13-130.49,15-13.39-.64-26.72-.48-40.11-.15-14.85.37-29.82-.09-43.65-7.14-10.58-5.4-21.14-10.81-31.39-16.85C468.06,50,450.78,38.32,430.78,32c-22.95-7.28-38.65-.78-49.62,20.63-2.07,4.05-4.68,8-5.74,12.36-6.71,27.26-24,46.2-45.58,63.14-37,29.13-77.69,47.54-125.31,49.76-38.47,1.8-76.33,7.37-112.91,20.33-15.74,5.57-32.28,9.7-49.06,7.63-41-5.06-74.25-25.43-101.2-55.8-14.46-16.29-31.09-25-52.91-24.58A224.71,224.71,0,0,0-152.16,130c-29.76,6-58.84,14.68-88.2,22.22-15.39,4-30.9,4.9-46.5,1.13Q-286.86-.37-287-154c0-5.69,1.29-7,7-7q814.66.22,1629.33.14c-.78,2.11-1.58,4.23-2.35,6.35-5.17,14.22-1.11,24.62,12.51,31.41a71.84,71.84,0,0,0,12,4.75c9.7,2.83,17.83,8.12,25.4,14.63,13.25,11.4,25.08,24.25,37.43,36.56C1458.53-43,1486.16-23.9,1518-10.85c20.8,8.52,41.93,16.32,62,26.55,10.27,5.23,19.5,11.73,26.63,20.89,9.46,12.17,9.48,25.32.41,37.68-6.59,9-15.4,15.4-24.75,20.9-50.3,29.61-103.19,53.49-159.24,70S1316.3,208.1,1272.2,246.8c-23.54,20.66-46,42.66-73.32,58.65-8.51,5-11.2,13.95-12.49,23.24-4.16,29.78-8.9,59.48-12.28,89.34-3.34,29.55-9.27,59-5.6,89,2.78,22.83,6,45.59,10.39,68.16a111.15,111.15,0,0,0,21.72,47.92c46.16,58.71,107.16,92.74,179.88,106.37,16.64,3.12,33.81,2.93,49.89-4.3,13.09-5.9,17.75-15.19,15.49-29.42a240.93,240.93,0,0,0-7.2-31c-8.3-27.89-15.46-55.89-17.08-85.23-1.69-30.66-.42-61.15,2.55-91.6,2.76-28.3,8.86-55.79,20.33-82.05,19.06-43.67,44.88-83.17,74.15-120.44,30.75-39.15,62.3-77.68,93.42-116.54C1625.79,151.83,1638.88,134.12,1655.9,119.91ZM774,717.64c.31,18.43,1.49,35.32,9.49,50.83,7,13.52,17.68,17.27,31.63,11.33a68.86,68.86,0,0,0,15.34-9.7c15.94-12.58,29.46-27.7,43.65-42.1,25.68-26.06,54.91-46.78,88.51-61.48,13.86-6.07,27.82-12.22,40.15-21.25,13-9.55,20-22.3,20.44-38.67.47-18.81-6.19-36.2-9.95-54.2-8.47-40.62-35.69-65.73-69.51-85.36-12.24-7.1-20.74-5.19-30.62,4.94-8.33,8.54-14.91,18.49-22,28-16.2,21.82-36.72,39.69-54.42,60.15C797.16,605.83,775.7,658.49,774,717.64Z" transform="translate(287.01 161.03)"/><path class="b" d="M-286.86,153.3c15.6,3.77,31.11,2.82,46.5-1.13,29.36-7.54,58.44-16.23,88.2-22.22a224.71,224.71,0,0,1,40.61-4.49c21.82-.39,38.45,8.29,52.91,24.58,27,30.37,60.2,50.74,101.2,55.8,16.78,2.07,33.32-2.06,49.06-7.63,36.58-13,74.44-18.53,112.91-20.33,47.62-2.22,88.26-20.63,125.31-49.76,21.55-16.94,38.87-35.88,45.58-63.14,1.06-4.33,3.67-8.31,5.74-12.36,11-21.41,26.67-27.91,49.62-20.63,20,6.33,37.28,18,55.09,28.48,10.25,6,20.81,11.45,31.39,16.85,13.83,7.05,28.8,7.51,43.65,7.14,13.39-.33,26.72-.49,40.11.15,44.29,2.14,87.68-3.54,130.49-15a290.43,290.43,0,0,1,92.33-9.52,205.54,205.54,0,0,0,81.28-11.78c19.28-6.87,38.66-13.63,58.35-19.17,27.94-7.87,51.37-23,73.32-41.37a313.45,313.45,0,0,1,49.52-33.6c28.24-15.61,58.61-21.85,90.64-19.64,23.42,1.62,46.8,3.9,69.86,8.57,18.93,3.82,33.54,12.9,41.57,31.5,6,13.9,13.17,27.29,20.4,40.63,14.75,27.21,8.43,52.72-7.72,77.06-16,24-36.42,43.86-58.25,62.44-39.29,33.46-60.58,75.61-61,127.65-.19,20.83-4.52,27-24.36,33.89a189.28,189.28,0,0,1-56.52,10.2c-44.31,1.34-85.87,11.95-124.89,33-10.66,5.75-21.89,10.46-32.78,15.81-12.84,6.3-24.89,5.37-36.26-3.43-1.2-.93-2.57-1.64-3.73-2.61-23.37-19.72-50.34-23.35-79.79-19.62-24.48,3.1-49.07,6.22-74,4.5-23-1.58-43.75-10.06-64.58-18.47-36.85-14.86-73.48-30.33-105.2-55-26.77-20.8-52.75-42.53-76.76-66.56a224.9,224.9,0,0,0-19.46-16.85c-12.21-9.7-25.21-9.94-39-3.14-16.32,8-29.81,19.91-43.67,31.27C349.83,267.15,290.3,288.93,226.39,300c-16.48,2.85-33.19.79-49.43-4.47-31.49-10.2-63.11-19.93-95.86-25.55-29.67-5.09-59-3.82-87.74,4.75-69.81,20.82-140.85,36.59-211.72,53.1-14.27,3.33-28.42,7.44-41.63,13.95-17.3,8.53-20,21.1-7.77,36.07a169.89,169.89,0,0,0,15,16c13.25,12.53,26.06,25.49,37.5,39.67q28.39,35.15,59.93,67.45c16.1,16.56,23,35.84,19.49,59.48-2.72,18.48-.3,37.37.78,56,1.48,25.48,2.35,51,5.56,76.35C-124,736.1-100.71,754.13-56,757.28c27.28,1.93,53.76-4.42,80.51-8.14C86.83,740.46,140,759.43,182.94,805c19.07,20.24,26.63,45.3,18.61,73-9.42,32.58-30.71,44-63.1,41C116.23,917,95,910.06,73.19,906c-24.94-4.7-49.8-3.07-74.62.5a761.51,761.51,0,0,1-82.89,7.7c-19.36.66-39.05-.49-57.91,5.57-8.81,2.83-17.88,5.32-24.73,12.2-37.94,0-75.89-.13-113.83.15-5.2,0-6.22-1-6.21-6.22q.24-357.83.14-715.64Z" transform="translate(287.01 161.03)"/><path class="b" d="M1655.9,119.91c-17,14.21-30.11,31.92-43.85,49.07-31.12,38.86-62.67,77.39-93.42,116.54-29.27,37.27-55.09,76.77-74.15,120.44-11.47,26.26-17.57,53.75-20.33,82.05-3,30.45-4.24,60.94-2.55,91.6,1.62,29.34,8.78,57.34,17.08,85.23a240.93,240.93,0,0,1,7.2,31c2.26,14.23-2.4,23.52-15.49,29.42-16.08,7.23-33.25,7.42-49.89,4.3-72.72-13.63-133.72-47.66-179.88-106.37a111.15,111.15,0,0,1-21.72-47.92c-4.43-22.57-7.61-45.33-10.39-68.16-3.67-30.05,2.26-59.49,5.6-89,3.38-29.86,8.12-59.56,12.28-89.34,1.29-9.29,4-18.26,12.49-23.24,27.33-16,49.78-38,73.32-58.65,44.1-38.7,94.79-65,150.87-81.59s108.94-40.43,159.24-70c9.35-5.5,18.16-11.93,24.75-20.9,9.07-12.36,9-25.51-.41-37.68-7.13-9.16-16.36-15.66-26.63-20.89-20.09-10.23-41.22-18-62-26.55-31.84-13-59.47-32.11-83.76-56.33-12.35-12.31-24.18-25.16-37.43-36.56-7.57-6.51-15.7-11.8-25.4-14.63a71.84,71.84,0,0,1-12-4.75c-13.62-6.79-17.68-17.19-12.51-31.41.77-2.12,1.57-4.24,2.35-6.35q150.27,0,300.52-.15c5.2,0,6.23,1,6.22,6.22Q1655.74-17.46,1655.9,119.91Z" transform="translate(287.01 161.03)"/><path class="b" d="M1558.76,931.92c-22.63-52.15-43.62-104.9-56.7-160.41-3.92-16.63-.64-32.23,14.14-41.66,35.67-22.75,55.33-58,75.65-92.92,17.33-29.8,38.1-57.12,60.66-83.11a27.55,27.55,0,0,1,3.39-2.86q0,187.44.14,374.89c0,5.19-1,6.28-6.22,6.22C1619.47,931.76,1589.11,931.92,1558.76,931.92Z" transform="translate(287.01 161.03)"/><path class="b" d="M774,717.64c1.75-59.15,23.21-111.81,62.72-157.5,17.7-20.46,38.22-38.33,54.42-60.15,7.08-9.52,13.66-19.47,22-28,9.88-10.13,18.38-12,30.62-4.94,33.82,19.63,61,44.74,69.51,85.36,3.76,18,10.42,35.39,9.95,54.2-.41,16.37-7.41,29.12-20.44,38.67-12.33,9-26.29,15.18-40.15,21.25-33.6,14.7-62.83,35.42-88.51,61.48-14.19,14.4-27.71,29.52-43.65,42.1a68.86,68.86,0,0,1-15.34,9.7c-14,5.94-24.66,2.19-31.63-11.33C775.44,753,774.26,736.07,774,717.64Z" transform="translate(287.01 161.03)"/></svg>