<svg xmlns="http://www.w3.org/2000/svg" viewBox="0 0 1943.04 1093.13"><defs><style>.a{fill:#ffffff;}.b{fill:#41c7f6;}</style></defs><title>1800f_00241</title><path class="a" d="M935,931.92H423.46c-.31-2-2.12-2.74-3.51-3.7-24.73-17.19-48.26-35.92-71.61-54.91-25.28-20.57-48.69-43.47-76-61.56-12.22-8.1-24.48-16.17-37.09-23.63-33.65-19.89-61.94-46.1-89.06-73.87-30.33-31-66.16-52.84-108.55-63.55q-48.87-12.35-97.49-25.64c-21.69-5.92-43.39-12-62.91-23.81-13.4-8.08-19.3-19.51-15.79-35.2,4.9-21.87-.69-40.91-15.24-57.72-7.26-8.41-14.46-16.89-20.44-26.33-27.07-42.74-39.26-90.08-42.6-139.95-3.39-50.73,2.72-100.93,9.71-151.06,4.56-32.7,5.26-65.42-.79-98.13-3.74-20.23-12.3-39-16.69-59C-232-.09-235.06-34.58-238.65-69c-3.2-30.71-6.14-61.41,1.88-91.88H1580c1.7,5.89,4.94,11,7.91,16.31,23,40.81,32.08,84.16,23.93,130.68-3.14,18-10.07,33.52-25.44,44.87-18.15,13.41-29.86,32-38.77,52.43-7.47,17.08-12.13,34.9-10.68,53.7,2.49,32.1,17,59.41,35.27,85,10,14,22.77,25.34,39.31,30.93,14.54,4.92,29.55,8.46,44.36,12.6v16.7c-6.79.38-10.81,5.87-16.18,8.86-44.27,24.65-81.9,57.31-114.83,95.62-19.65,22.86-37.92,46.68-53.21,72.75-25.93,44.18-27.41,92.87-26,142,.75,26.1.92,52.09-4.1,77.8-4.49,23-10.69,45.32-25.4,64.27-8.78,11.31-19.45,14.67-32.74,9.75-18.9-7-32.52-21.08-45.58-35.53-15.75-17.42-27-37.25-28.87-61.3-1.28-16.32,2.13-32.23,4.86-48.13,5.05-29.36,6.67-58.55,1-88.13-5.93-31.1-9.06-62.49-5-94.25,1.49-11.76,2.94-23.7,2.54-35.5-1.17-34.75,3.41-69.1,5.79-103.62,2-29.24-7.38-54.18-32.71-71.55-19.85-13.6-41.81-22.46-64.55-29.62-38-12-76.56-16.59-115.86-7.91-21.45,4.74-42.57,11-64,15.72-33.78,7.47-65.81,4-94.51-17.25a43.14,43.14,0,0,0-7.94-4.38c-6.36-2.87-12.5-2.85-18.71,1-11.41,7-19.69,17.38-28.75,26.79-21.31,22.16-46.32,34.36-77.67,32.63a122.75,122.75,0,0,0-41.27,4.6c-21.73,6.35-30.2,22.68-22.72,43.88A88.14,88.14,0,0,0,760,300.82c15.43,22.62,35.26,40.92,56.79,57.5,31.29,24.07,64.61,45.22,97.19,67.44,19,12.91,36,27.6,48,47.72,7.65,12.91,20,18.9,34.76,20a122,122,0,0,0,35.44-2.47c20.71-4.6,41.28-10,62.13-13.82,24.26-4.46,31.39,4.75,22.44,27.64-7.06,18.07-17.57,34.11-29.41,49.35-40.33,51.93-92.63,87.52-153,112.13C903.16,679,871.87,691.17,837.65,693c-23.26,1.24-46.52.7-69.78.71-26,0-52-2.33-78-.08-13.4,1.16-26.63,2.95-39.15,8.09-10.23,4.2-11.81,12.4-3.92,19.95a40.5,40.5,0,0,0,6,4.57c9.15,5.95,19,10.47,29.07,14.64,42.24,17.52,85.74,24.83,131.22,16.43,23.08-4.27,45.88-10,69.22-13,18.08-2.28,35-1.27,47.39,14.67A71.24,71.24,0,0,1,941,780.29c7.87,23.34,7,47.34,5.24,71.36C944.25,878.64,939.16,905.22,935,931.92ZM642.67,170.18A170.84,170.84,0,0,0,721.22,140C760.88,111.91,794.88,77.57,827,41.4c11-12.38,18.24-27.06,16-44.32C838.89-35.09,811.29-60.71,778.87-64c-14.58-1.5-28.84,0-42.93,2.82C694.79-53,653.59-45.33,611.72-41.57c-23.43,2.11-44.75-1.74-63.27-17.14-17-14.14-31-31.2-45.92-47.31-13.1-14.11-26.14-28.37-43.06-38-15.41-8.75-26.61-3.43-30.27,13.71-3.54,16.56,1.82,31.55,9.05,45.95,12.85,25.62,31.44,47.06,51.18,67.43,24.3,25.07,43.32,52.72,53.16,87a163.5,163.5,0,0,0,50.48,78.87C606.39,160.56,621,170,642.67,170.18ZM187.5,574.08c6.06,0,12.13.12,18.18,0A811,811,0,0,0,309.82,565c22.54-3.45,44.75-8.48,66.2-16.06,38-13.39,76.86-23.28,115.84-33,22.44-5.61,43.41-14.87,58.7-32.8,28.76-33.73,41.09-73.68,41.15-117.57,0-13.51-8.53-18.95-21.46-14.88-14.17,4.46-26.41,12.65-38.68,20.6-23.34,15.13-48,27-75.53,32.05-21.43,3.92-43.23,3.38-64.86,4.88-17.78,1.23-35,4.36-51.58,11-23.23,9.27-43.68,23.4-63.84,37.7-33.36,23.67-70.06,30.21-110.1,26.69-31.63-2.79-63.49-5.54-95.25-.78-19.16,2.88-36.63,9.49-50.1,24.31-10.15,11.17-9.24,23.49,2.5,32.74,9.08,7.15,19.57,11.52,30.31,15.3C96.63,570.46,141.79,574.55,187.5,574.08Z" transform="translate(287 161.05)"/><path class="b" d="M935,931.92c4.21-26.7,9.3-53.28,11.27-80.27,1.74-24,2.63-48-5.24-71.36A71.24,71.24,0,0,0,929.64,759c-12.41-15.94-29.31-17-47.39-14.67-23.34,3-46.14,8.71-69.22,13-45.48,8.4-89,1.09-131.22-16.43-10-4.17-19.92-8.69-29.07-14.64a40.5,40.5,0,0,1-6-4.57c-7.89-7.55-6.31-15.75,3.92-19.95,12.52-5.14,25.75-6.93,39.15-8.09,26-2.25,52,.09,78,.08,23.26,0,46.52.53,69.78-.71,34.22-1.81,65.51-14,96.69-26.71,60.36-24.61,112.66-60.2,153-112.13,11.84-15.24,22.35-31.28,29.41-49.35,9-22.89,1.82-32.1-22.44-27.64-20.85,3.84-41.42,9.22-62.13,13.82a122,122,0,0,1-35.44,2.47c-14.77-1.06-27.11-7.05-34.76-20-11.92-20.12-29-34.81-48-47.72-32.58-22.22-65.9-43.37-97.19-67.44-21.53-16.58-41.36-34.88-56.79-57.5a88.14,88.14,0,0,1-10.56-20.08c-7.48-21.2,1-37.53,22.72-43.88a122.75,122.75,0,0,1,41.27-4.6c31.35,1.73,56.36-10.47,77.67-32.63,9.06-9.41,17.34-19.77,28.75-26.79,6.21-3.82,12.35-3.84,18.71-1a43.14,43.14,0,0,1,7.94,4.38c28.7,21.23,60.73,24.72,94.51,17.25,21.45-4.74,42.57-11,64-15.72,39.3-8.68,77.9-4.05,115.86,7.91,22.74,7.16,44.7,16,64.55,29.62,25.33,17.37,34.72,42.31,32.71,71.55-2.38,34.52-7,68.87-5.79,103.62.4,11.8-1.05,23.74-2.54,35.5-4,31.76-.92,63.15,5,94.25,5.64,29.58,4,58.77-1,88.13-2.73,15.9-6.14,31.81-4.86,48.13,1.88,24,13.12,43.88,28.87,61.3,13.06,14.45,26.68,28.54,45.58,35.53,13.29,4.92,24,1.56,32.74-9.75,14.71-19,20.91-41.32,25.4-64.27,5-25.71,4.85-51.7,4.1-77.8-1.4-49.09.08-97.78,26-142,15.29-26.07,33.56-49.89,53.21-72.75,32.93-38.31,70.56-71,114.83-95.62,5.37-3,9.39-8.48,16.18-8.86V904.6c-3.86.14-6.48-2.56-9.46-4.28-24.11-13.89-48.44-27.38-74.53-37.29-20.31-7.71-41.73-12.1-61.9-20.36-12.39-5.08-25.06-9.46-37.67-14-29.17-10.43-57.9-10.68-87.09,1.25-26.42,10.79-53.14,20.83-79.3,32.29-34.26,15-69.48,27.82-102.72,45.1-12.94,6.73-26.06,13.42-36.06,24.58Z" transform="translate(287 161.05)"/><path class="b" d="M-236.77-160.88c-8,30.47-5.08,61.17-1.88,91.88C-235.06-34.58-232-.09-224.58,33.81c4.39,20,13,38.82,16.69,59.05,6,32.71,5.35,65.43.79,98.13-7,50.13-13.1,100.33-9.71,151.06,3.34,49.87,15.53,97.21,42.6,140,6,9.44,13.18,17.92,20.44,26.33,14.55,16.81,20.14,35.85,15.24,57.72-3.51,15.69,2.39,27.12,15.79,35.2,19.52,11.77,41.22,17.89,62.91,23.81q48.61,13.29,97.49,25.64c42.39,10.71,78.22,32.51,108.55,63.55,27.12,27.77,55.41,54,89.06,73.87,12.61,7.46,24.87,15.53,37.09,23.63,27.29,18.09,50.7,41,76,61.56,23.35,19,46.88,37.72,71.61,54.91,1.39,1,3.2,1.65,3.51,3.7H-100.17c0-2.86-2.32-4.39-3.86-6.3-13.57-16.88-29.94-30.83-47.15-43.74C-192.43,850.94-235,822.42-286.86,812q0-483-.14-966.06c0-5.69,1.25-7.18,7-7C-265.62-160.57-251.19-160.88-236.77-160.88Z" transform="translate(287 161.05)"/><path class="a" d="M1167.17,931.92c10-11.16,23.12-17.85,36.06-24.58,33.24-17.28,68.46-30.1,102.72-45.1,26.16-11.46,52.88-21.5,79.3-32.29,29.19-11.93,57.92-11.68,87.09-1.25,12.61,4.51,25.28,8.89,37.67,14,20.17,8.26,41.59,12.65,61.9,20.36,26.09,9.91,50.42,23.4,74.53,37.29,3,1.72,5.6,4.42,9.46,4.28,0,8.09-.15,16.19.08,24.28.07,2.64-.48,3.56-3.13,3.08a20.72,20.72,0,0,0-3.78,0Z" transform="translate(287 161.05)"/><path class="b" d="M1655.9,265.61c-14.81-4.14-29.82-7.68-44.36-12.6-16.54-5.59-29.28-16.91-39.31-30.93-18.26-25.56-32.78-52.87-35.27-85-1.45-18.8,3.21-36.62,10.68-53.7,8.91-20.39,20.62-39,38.77-52.43,15.37-11.35,22.3-26.89,25.44-44.87,8.15-46.52-.89-89.87-23.93-130.68-3-5.27-6.21-10.42-7.91-16.31,23.27,0,46.54.2,69.81-.16,5.21-.08,6.23,1,6.22,6.23Q1655.77,55.4,1655.9,265.61Z" transform="translate(287 161.05)"/><path class="a" d="M-286.86,812c51.86,10.41,94.43,38.93,135.68,69.87C-134,894.79-117.6,908.74-104,925.62c1.54,1.91,3.83,3.44,3.86,6.3q-90.46,0-180.93.1c-4.53,0-5.93-.76-5.9-5.7C-286.75,888.22-286.86,850.12-286.86,812Z" transform="translate(287 161.05)"/><path class="b" d="M642.67,170.18c-21.72-.18-36.28-9.62-49.6-21.26a163.5,163.5,0,0,1-50.48-78.87c-9.84-34.24-28.86-61.89-53.16-87-19.74-20.37-38.33-41.81-51.18-67.43-7.23-14.4-12.59-29.39-9.05-45.95,3.66-17.14,14.86-22.46,30.27-13.71,16.92,9.61,30,23.87,43.06,38,15,16.11,28.92,33.17,45.92,47.31,18.52,15.4,39.84,19.25,63.27,17.14C653.59-45.33,694.79-53,735.94-61.22,750-64,764.29-65.54,778.87-64c32.42,3.33,60,29,64.18,61.12,2.22,17.26-5,31.94-16,44.32C794.88,77.57,760.88,111.91,721.22,140A170.84,170.84,0,0,1,642.67,170.18Z" transform="translate(287 161.05)"/><path class="b" d="M187.5,574.08c-45.71.47-90.87-3.62-134.38-18.93-10.74-3.78-21.23-8.15-30.31-15.3-11.74-9.25-12.65-21.57-2.5-32.74,13.47-14.82,30.94-21.43,50.1-24.31,31.76-4.76,63.62-2,95.25.78,40,3.52,76.74-3,110.1-26.69,20.16-14.3,40.61-28.43,63.84-37.7,16.58-6.63,33.8-9.76,51.58-11,21.63-1.5,43.43-1,64.86-4.88,27.56-5.05,52.19-16.92,75.53-32.05,12.27-7.95,24.51-16.14,38.68-20.6,12.93-4.07,21.48,1.37,21.46,14.88-.06,43.89-12.39,83.84-41.15,117.57-15.29,17.93-36.26,27.19-58.7,32.8-39,9.73-77.88,19.62-115.84,33-21.45,7.58-43.66,12.61-66.2,16.06a811,811,0,0,1-104.14,9.07C199.63,574.2,193.56,574.08,187.5,574.08Z" transform="translate(287 161.05)"/></svg>