<svg xmlns="http://www.w3.org/2000/svg" viewBox="0 0 1943.14 1093.25"><defs><style>.a{fill:#ffffff;}.b{fill:#41c7f6;}</style></defs><title>1800f_00387</title><path class="a" d="M1655.9,107.76V374.89a8.12,8.12,0,0,0-1.87,1.21c-27.34,30.9-53,63-74,98.76-20.71,35.4-37.44,72.8-55.73,109.42-13,26.09-27.55,51.09-50.82,70-20.1,16.31-41.89,30-63.85,43.5-30.1,18.48-58.72,39.56-92.32,51.89-18.18,6.67-28.36,20.28-31.95,39.13-4,21,.16,41.21,6,61.23,7.82,26.93,16,53.78,18.46,81.91H101.69c-1.4-2.06-2.65-4.25-4.24-6.16Q67.85,890.18,36,856.57C-2.29,815.93-41.59,776.19-77.86,733.63c-29.57-34.71-63.52-64.35-102.92-87.58-12.63-7.45-25.1-15.17-36.75-24.13-20.51-15.78-33.18-36.09-37.69-61.86-5-28.6-1.59-56.2,6.33-83.81,22-76.71,67.28-131.68,144.23-158.63C-66.5,304.27-28.23,291.24,10,278.06c29.81-10.27,55.46-26.73,74.56-52.37,12.53-16.83,20-36.24,27.92-55.37,12.65-30.54,33.61-51.86,66-61,5.1-1.44,10.08-3.33,15.18-4.75C229.8,94.46,263,78.9,292.11,54.46c27.52-23.08,39-51.69,36.26-87-1.92-24.62-9.45-48-14.58-71.94-5.05-23.49-15.18-43.25-36-56.4H950.13c.63,3,3.27,4.38,5.22,6.26,25.85,24.9,55.16,44.94,86.75,61.85,30.74,16.45,62.15,31.82,90.21,52.78,40.68,30.39,76,66.6,110.53,103.52,10.37,11.07,20.87,22,32.44,31.84,20.61,17.57,43.57,24.54,70.38,17.55,45-11.74,90.39-21.19,137.36-21.29,40.71-.09,81.37-.53,121.65,6.42C1621.8,101,1638.82,104.51,1655.9,107.76ZM543.6,349.15c50.08.07,88.41-9.36,122.37-32.92,42.35-29.38,68.8-70.57,85.62-118.48,6.14-17.47,10.39-35.46,10-54.16-.3-13.7-7-19.58-20.66-19.08-5.64.2-10.95,1.82-16.24,3.54-19.35,6.27-37.6,15.23-54.85,25.72-50.76,30.86-104.92,42.32-163.62,31.62-39.49-7.2-79.21-10-119.21-4.67-17.31,2.32-34.64,4.69-49.52,15-10,6.93-14.85,17.65-11.1,29,11.31,34.17,30.86,62.35,62.37,81.09C439.26,335.87,495.08,346,543.6,349.15Zm801.08-101.84c0-20.74-3-36.45-11.13-51-10.46-18.79-24.23-23-42.92-12.87a74.22,74.22,0,0,0-11.4,7.45c-57.9,46.93-101,105.09-130.41,173.39-10.71,24.9-16.88,51-12,78.36,5.39,30.52,18,57.36,42.76,77.13,13.57,10.86,26.16,11,40.56,1.48,12.74-8.38,22.17-19.86,29.82-32.84,13.49-22.89,24-47.34,36.41-70.79,12.54-23.69,24.79-47.54,34.47-72.57C1333.53,312.22,1343.52,278.64,1344.68,247.31ZM458.61,474.84c-20.5.25-38.64,1.59-55,11-14.91,8.55-17.07,20.95-6.67,34.85,7.45,10,17.47,16.75,27.83,23.09,25.89,15.85,54.55,25.13,83.12,34.56,14.69,4.85,29.68,8.3,45.36,7.53,25.84-1.28,38.11-20.07,28.54-44.08-5.27-13.2-13.92-24-24.68-33.13C528.07,483.94,493.53,475.61,458.61,474.84Z" transform="translate(287.09 161.19)"/><path class="b" d="M277.75-160.88c20.86,13.15,31,32.91,36,56.4,5.13,23.93,12.66,47.32,14.58,71.94,2.76,35.31-8.74,63.92-36.26,87C263,78.9,229.8,94.46,193.6,104.55c-5.1,1.42-10.08,3.31-15.18,4.75-32.35,9.16-53.31,30.48-66,61-7.93,19.13-15.39,38.54-27.92,55.37-19.1,25.64-44.75,42.1-74.56,52.37-38.21,13.18-76.48,26.21-114.64,39.56-77,26.95-122.22,81.92-144.23,158.63-7.92,27.61-11.33,55.21-6.33,83.81,4.51,25.77,17.18,46.08,37.69,61.86,11.65,9,24.12,16.68,36.75,24.13,39.4,23.23,73.35,52.87,102.92,87.58C-41.59,776.19-2.29,815.93,36,856.57q31.75,33.67,61.42,69.19c1.59,1.91,2.84,4.1,4.24,6.16q-191.23,0-382.48.14c-5.2,0-6.22-1-6.21-6.21q.22-532,.14-1064c4.54-7.32,9.95-14.18,12.14-22.76h296c.84,2,2.63,3,4.32,4.09,19.58,12.56,41.11,18.84,64.25,20C126-135.06,158.59-148,191.24-160.88Z" transform="translate(287.09 161.19)"/><path class="b" d="M1655.9,107.76c-17.08-3.25-34.1-6.75-51.23-9.71-40.28-7-80.94-6.51-121.65-6.42-47,.1-92.32,9.55-137.36,21.29-26.81,7-49.77,0-70.38-17.55-11.57-9.87-22.07-20.77-32.44-31.84C1208.26,26.61,1173-9.6,1132.31-40c-28.06-21-59.47-36.33-90.21-52.78-31.59-16.91-60.9-36.95-86.75-61.85-2-1.88-4.59-3.26-5.22-6.26q349.47,0,698.94-.14c5.69,0,7,1.28,7,7Q1655.73-23.14,1655.9,107.76Z" transform="translate(287.09 161.19)"/><path class="b" d="M1309.84,931.92c-2.48-28.13-10.64-55-18.46-81.91-5.81-20-10-40.22-6-61.23,3.59-18.85,13.77-32.46,31.95-39.13,33.6-12.33,62.22-33.41,92.32-51.89,22-13.48,43.75-27.19,63.85-43.5,23.27-18.89,37.79-43.89,50.82-70,18.29-36.62,35-74,55.73-109.42,20.9-35.73,46.61-67.86,74-98.76a8.12,8.12,0,0,1,1.87-1.21q0,275.1.14,550.2c0,5.69-1.28,7-7,7Q1479.45,931.78,1309.84,931.92Z" transform="translate(287.09 161.19)"/><path class="a" d="M191.24-160.88C158.59-148,126-135.06,89.82-136.82c-23.14-1.13-44.67-7.41-64.25-20-1.69-1.09-3.48-2.09-4.32-4.09Z" transform="translate(287.09 161.19)"/><path class="a" d="M-274.72-160.88c-2.19,8.58-7.6,15.44-12.14,22.76,0-5.56.45-11.17-.13-16.68-.55-5.26,1-7.12,6.21-6.14A34,34,0,0,0-274.72-160.88Z" transform="translate(287.09 161.19)"/><path class="b" d="M543.6,349.15c-48.52-3.19-104.34-13.28-154.86-43.33-31.51-18.74-51.06-46.92-62.37-81.09-3.75-11.32,1.13-22,11.1-29,14.88-10.35,32.21-12.72,49.52-15,40-5.36,79.72-2.53,119.21,4.67,58.7,10.7,112.86-.76,163.62-31.62,17.25-10.49,35.5-19.45,54.85-25.72,5.29-1.72,10.6-3.34,16.24-3.54,13.66-.5,20.36,5.38,20.66,19.08.41,18.7-3.84,36.69-10,54.16-16.82,47.91-43.27,89.1-85.62,118.48C632,339.79,593.68,349.22,543.6,349.15Z" transform="translate(287.09 161.19)"/><path class="b" d="M1344.68,247.31c-1.16,31.33-11.15,64.91-23.88,97.78-9.68,25-21.93,48.88-34.47,72.57-12.42,23.45-22.92,47.9-36.41,70.79-7.65,13-17.08,24.46-29.82,32.84-14.4,9.47-27,9.38-40.56-1.48-24.73-19.77-37.37-46.61-42.76-77.13-4.84-27.38,1.33-53.46,12-78.36,29.39-68.3,72.51-126.46,130.41-173.39a74.22,74.22,0,0,1,11.4-7.45c18.69-10.11,32.46-5.92,42.92,12.87C1341.63,210.86,1344.68,226.57,1344.68,247.31Z" transform="translate(287.09 161.19)"/><path class="b" d="M458.61,474.84c34.92.77,69.46,9.1,98.5,33.79,10.76,9.15,19.41,19.93,24.68,33.13,9.57,24-2.7,42.8-28.54,44.08-15.68.77-30.67-2.68-45.36-7.53-28.57-9.43-57.23-18.71-83.12-34.56-10.36-6.34-20.38-13.14-27.83-23.09-10.4-13.9-8.24-26.3,6.67-34.85C420,476.43,438.11,475.09,458.61,474.84Z" transform="translate(287.09 161.19)"/></svg>