<svg xmlns="http://www.w3.org/2000/svg" viewBox="0 0 1943.11 1093.11"><defs><style>.a{fill:#ffffff;}.b{fill:#41c7f6;}</style></defs><title>1800f_00181</title><path class="a" d="M-286.86,766.48v-126c2.26.23,3.7-1.41,5.4-2.4a462.7,462.7,0,0,1,78.84-36.9A321.18,321.18,0,0,1-85.79,582.68c22.06.64,39.28-7.78,50.2-27.52,3.91-7.07,7.93-14.1,11.46-21.36C-2.9,490.1-3.45,447.25-28.7,405.05c-11.13-18.6-25.14-35.56-32.32-56.43-5-14.57-10.33-29-15.2-43.65-9.47-28.43-20.61-56.1-39.76-79.54-12.19-14.92-19.14-32-23.89-50.19C-148,143.9-152.32,111.83-157.68,80-164,42.13-150.85,11.62-124-14.31-93.29-44-56.86-60-14-62.17c32-1.62,64.15-2,95.89-7.42C149.21-81,209.42-107.52,260.05-154.16c2.12-2,5.38-3.11,5.56-6.72h871.21c-.3,1.74.87,2.81,1.85,3.95,32.74,37.93,57.45,80.65,75.19,127.39,17,44.76,42.77,83.27,81.08,112.29,47.54,36,90.08,77.38,132.83,118.7,36.75,35.51,75.06,69.17,120.9,93.3,25.12,13.22,28.45,23.5,18.7,50.44-19.76,54.59-44.43,106.86-76.13,155.67-45.21,69.58-97.9,132.6-162.48,185.1-22.64,18.41-46.34,35.35-75.75,41.57-18.13,3.83-36.13,4.26-53.6-3.22-8.1-3.48-12-9.45-11.46-18.52a72.32,72.32,0,0,1,3.82-18.5c6.9-20.72,11.9-41.89,12.79-63.72,1.36-33.16-11.58-60.67-35.64-82.86-19.88-18.33-42-20.51-65.42-6.61q-11.41,6.76-23.09,13.09c-15.15,8.21-30.72,9.11-46.76,2.55a231.93,231.93,0,0,1-25.13-12.45c-21.4-12-42.14-25.3-64.86-34.64-48.82-20.08-100.17-25.43-152.39-24.1-12.55.31-25.28,1.39-37.26,6-14.22,5.46-19,16.35-13.18,30.31,7.72,18.46,21.92,31.25,37.89,42.34,29.67,20.58,62.48,35.23,95.09,50.27,41,18.88,83.35,32.53,128.75,34.86,26,1.34,48.44,10.6,68.11,27.75,13.51,11.79,28,22.4,42.15,33.51,7.94,6.25,16.27,12,23.66,19,7.64,7.22,10.1,15.65,6.34,25.46-9.72,25.42-26.84,44.33-51.15,56.5-13,6.5-27.41,6.37-41.43,8.08-26.6,3.25-51.52,12.42-76.32,21.95-44.65,17.16-91.61,24.79-138.28,33.65-30.08,5.72-58.82,15.09-83.92,33.26-10.37,7.51-19.6,16.23-20.15,30.46H145.71c-2.84-2.44-6.54-2.6-9.88-3.32-31-6.69-47.61-25.05-51.31-57.18-5.39-46.69-23.76-88.34-52.41-125.85-19.92-26.1-39-52.88-56.47-80.8a100.34,100.34,0,0,0-11.52-15c-8.41-9.07-16.67-10.79-28-6.11-7.93,3.28-15.75,6.88-23.49,10.62-30.51,14.73-62.4,26.4-92.58,41.87-13.69,7-25.62,16-34.93,28.46C-232.88,748.73-257.14,762.36-286.86,766.48Z" transform="translate(287.06 161.04)"/><path class="b" d="M731.57,931.92c.55-14.23,9.78-22.95,20.15-30.46,25.1-18.17,53.84-27.54,83.92-33.26,46.67-8.86,93.63-16.49,138.28-33.65,24.8-9.53,49.72-18.7,76.32-21.95,14-1.71,28.45-1.58,41.43-8.08,24.31-12.17,41.43-31.08,51.15-56.5,3.76-9.81,1.3-18.24-6.34-25.46-7.39-7-15.72-12.73-23.66-19-14.1-11.11-28.64-21.72-42.15-33.51-19.67-17.15-42.11-26.41-68.11-27.75-45.4-2.33-87.78-16-128.75-34.86-32.61-15-65.42-29.69-95.09-50.27-16-11.09-30.17-23.88-37.89-42.34-5.85-14-1-24.85,13.18-30.31,12-4.6,24.71-5.68,37.26-6,52.22-1.33,103.57,4,152.39,24.1,22.72,9.34,43.46,22.67,64.86,34.64a231.93,231.93,0,0,0,25.13,12.45c16,6.56,31.61,5.66,46.76-2.55q11.67-6.33,23.09-13.09c23.46-13.9,45.54-11.72,65.42,6.61,24.06,22.19,37,49.7,35.64,82.86-.89,21.83-5.89,43-12.79,63.72a72.32,72.32,0,0,0-3.82,18.5c-.56,9.07,3.36,15,11.46,18.52,17.47,7.48,35.47,7.05,53.6,3.22,29.41-6.22,53.11-23.16,75.75-41.57,64.58-52.5,117.27-115.52,162.48-185.1,31.7-48.81,56.37-101.08,76.13-155.67,9.75-26.94,6.42-37.22-18.7-50.44-45.84-24.13-84.15-57.79-120.9-93.3-42.75-41.32-85.29-82.7-132.83-118.7-38.31-29-64.1-67.53-81.08-112.29-17.74-46.74-42.45-89.46-75.19-127.39-1-1.14-2.15-2.21-1.85-3.95h224.63c-4.77,23.5-4.86,46.53,6,68.75,9.39,19.3,24.56,33.13,42,44.65,43.16,28.56,90.69,47.4,140.27,61.22A189.07,189.07,0,0,0,1621.6,20c11.51-1.25,22.64-4.87,34.3-4.85q0,455,.14,909.91c0,5.69-1.28,7-7,7Q1190.31,931.82,731.57,931.92Z" transform="translate(287.06 161.04)"/><path class="b" d="M265.61-160.88c-.18,3.61-3.44,4.77-5.56,6.72C209.42-107.52,149.21-81,81.86-69.59,50.12-64.19,18-63.79-14-62.17-56.86-60-93.29-44-124-14.31-150.85,11.62-164,42.13-157.68,80c5.36,31.88,9.64,64,17.81,95.29,4.75,18.23,11.7,35.27,23.89,50.19,19.15,23.44,30.29,51.11,39.76,79.54C-71.35,319.59-66,334.05-61,348.62c7.18,20.87,21.19,37.83,32.32,56.43,25.25,42.2,25.8,85.05,4.57,128.75-3.53,7.26-7.55,14.29-11.46,21.36-10.92,19.74-28.14,28.16-50.2,27.52A321.18,321.18,0,0,0-202.62,601.2a462.7,462.7,0,0,0-78.84,36.9c-1.7,1-3.14,2.63-5.4,2.4q0-397.42-.13-794.87c0-5.28.84-6.68,6.51-6.67Q-7.43-160.75,265.61-160.88Z" transform="translate(287.06 161.04)"/><path class="b" d="M-286.86,766.48c29.72-4.12,54-17.75,72-41.88,9.31-12.47,21.24-21.45,34.93-28.46,30.18-15.47,62.07-27.14,92.58-41.87,7.74-3.74,15.56-7.34,23.49-10.62,11.34-4.68,19.6-3,28,6.11a100.34,100.34,0,0,1,11.52,15c17.42,27.92,36.55,54.7,56.47,80.8,28.65,37.51,47,79.16,52.41,125.85,3.7,32.13,20.34,50.49,51.31,57.18,3.34.72,7,.88,9.88,3.32q-212.61,0-425.2.14c-5.8,0-7.61-.66-7.57-7.17C-286.7,872.09-286.86,819.28-286.86,766.48Z" transform="translate(287.06 161.04)"/><path class="a" d="M1655.9,15.18c-11.66,0-22.79,3.6-34.3,4.85a189.07,189.07,0,0,1-71.95-6.29c-49.58-13.82-97.11-32.66-140.27-61.22-17.41-11.52-32.58-25.35-42-44.65-10.82-22.22-10.73-45.25-6-68.75q144.18,0,288.37-.15c5.2,0,6.25,1,6.23,6.22C1655.81-98.15,1655.9-41.48,1655.9,15.18Z" transform="translate(287.06 161.04)"/></svg>