<svg xmlns="http://www.w3.org/2000/svg" viewBox="0 0 1943.69 1093.76"><defs><style>.a{fill:#ffffff;}.b{fill:#41c7f6;}</style></defs><title>1800f_00212</title><path class="a" d="M1639.2,931.92H-201.86c9.53-33.63,22.64-66,35.56-98.36,26.87-67.3,45.66-136,42.52-209.43-.56-13-.48-26.56,3.63-39.12,14.49-44.28,39.23-81.86,76-110.83,19.95-15.69,41.63-16,64.17-5.23,17.6,8.4,31.1,21.52,43.37,36.13,26,31,42.8,67.31,57.93,104.38,18.59,45.53,39.13,90,67.88,130.18,11,15.42,22.35,30.74,38.39,41.56C248,795,265.77,790.54,277.4,768.82c10.74-20.05,14.07-41.82,11.61-64-5.36-48.47-9.92-97.05-17.32-145.27-5.91-38.48-12.57-76.82-25.64-113.72-12.87-36.32-36.82-61.39-73.4-74.54-26.11-9.38-53.18-14.18-80.35-18.69-22.7-3.77-44.84-1.21-66.37,6.92-9,3.39-18.07,6.52-27,9.91C-25.85,378.75-50.67,381-75.84,371c-6.56-2.6-13.53-4.19-20-7-4.38-1.89-11.86-2.38-11.56-8s7.61-5.36,12.33-6.4c22.14-4.87,44.32-9.53,66.49-14.28,43.67-9.36,84.71-24.85,122-50a390.56,390.56,0,0,1,54.91-30.7c28.14-13,57-23.93,88.34-25.4,14.18-.66,27.71-3.43,40.21-9.72C317.71,199,355.8,174.31,390,143.78c25.12-22.43,43.58-50.35,64.47-76.34,42.62-53,86.86-104.7,127.25-159.5,7.5-10.16,15.68-19.87,25.78-27.69,16.25-12.57,30.46-11.07,43.69,4.55,11.25,13.28,19.23,28.53,25.54,44.57,7,17.87,13.72,35.91,19.68,54.16C710.62,27.06,740,56,781.3,74.06,811,87.05,842,94.73,874,98.8c50.81,6.46,101.44,2,152.11-2.32,25.15-2.14,50.29-4.82,75.67-2.48,25.94,2.4,45.85,13.14,56.79,37.8,2.15,4.85,4.8,9.47,7,14.31a623.81,623.81,0,0,0,69.54,117.19c32.59,43.67,59.51,90.35,73.91,143.44a366.48,366.48,0,0,0,16.19,48.11c7,16.34,14.88,32.15,27.72,44.9,17.27,17.18,34.65,19.36,55.54,6.82,20.45-12.28,35.78-30.33,52.73-46.59,31.55-30.27,50.53-67.08,58.44-109.94,2.85-15.46,7.08-30.51,17.56-43,12.3-14.7,26.18-14.48,37.64.7a60.34,60.34,0,0,1,6.34,10.29c8.8,18.42,13.15,38.17,17,58,5.48,28.23,8.61,57.06,21.42,83.38,9.53,19.59,20.75,38.08,36.31,53.61V912.19C1649.71,918.24,1643.82,924.54,1639.2,931.92ZM954.31,261c-12.47-.49-24.12,3.05-35.09,8.31-30.12,14.48-56.42,34.47-79.87,58.1a69,69,0,0,0-18.65,35c-4.48,21.45,8.12,39.71,29.78,42.78,26.36,3.74,49.49-4.75,70.08-20.26,17.63-13.3,31.51-30.5,45.17-47.72,9.77-12.32,18.29-25.44,22.64-40.8,4.61-16.27-2.89-29.35-19.08-33.77A54.62,54.62,0,0,0,954.31,261Z" transform="translate(286.99 161.03)"/><path class="b" d="M1655.9,513c-15.56-15.53-26.78-34-36.31-53.61-12.81-26.32-15.94-55.15-21.42-83.38-3.86-19.85-8.21-39.6-17-58a60.34,60.34,0,0,0-6.34-10.29c-11.46-15.18-25.34-15.4-37.64-.7-10.48,12.52-14.71,27.57-17.56,43-7.91,42.86-26.89,79.67-58.44,109.94-17,16.26-32.28,34.31-52.73,46.59-20.89,12.54-38.27,10.36-55.54-6.82-12.84-12.75-20.75-28.56-27.72-44.9A366.48,366.48,0,0,1,1309,406.74c-14.4-53.09-41.32-99.77-73.91-143.44a623.81,623.81,0,0,1-69.54-117.19c-2.18-4.84-4.83-9.46-7-14.31-10.94-24.66-30.85-35.4-56.79-37.8-25.38-2.34-50.52.34-75.67,2.48-50.67,4.32-101.3,8.78-152.11,2.32-32-4.07-63-11.75-92.7-24.74C740,56,710.62,27.06,696.4-16.47c-6-18.25-12.65-36.29-19.68-54.16-6.31-16-14.29-31.29-25.54-44.57-13.23-15.62-27.44-17.12-43.69-4.55-10.1,7.82-18.28,17.53-25.78,27.69-40.39,54.8-84.63,106.49-127.25,159.5-20.89,26-39.35,53.91-64.47,76.34C355.8,174.31,317.71,199,276.87,219.52c-12.5,6.29-26,9.06-40.21,9.72-31.36,1.47-60.2,12.42-88.34,25.4a390.56,390.56,0,0,0-54.91,30.7c-37.28,25.19-78.32,40.68-122,50-22.17,4.75-44.35,9.41-66.49,14.28-4.72,1-12,.64-12.33,6.4s7.18,6.11,11.56,8c6.47,2.79,13.44,4.38,20,7,25.17,10,50,7.71,74.72-1.6,9-3.39,18.07-6.52,27.05-9.91,21.53-8.13,43.67-10.69,66.37-6.92,27.17,4.51,54.24,9.31,80.35,18.69,36.58,13.15,60.53,38.22,73.4,74.54,13.07,36.9,19.73,75.24,25.64,113.72,7.4,48.22,12,96.8,17.32,145.27,2.46,22.17-.87,43.94-11.61,64C265.77,790.54,248,795,227.62,781.2c-16-10.82-27.36-26.14-38.39-41.56-28.75-40.18-49.29-84.65-67.88-130.18-15.13-37.07-31.89-73.35-57.93-104.38C51.15,490.47,37.65,477.35,20.05,469c-22.54-10.75-44.22-10.46-64.17,5.23-36.8,29-61.54,66.55-76,110.83-4.11,12.56-4.19,26.14-3.63,39.12,3.14,73.42-15.65,142.13-42.52,209.43-12.92,32.37-26,64.73-35.56,98.36-26.57,0-53.13-.14-79.69.13-4.53.05-5.45-.92-5.44-5.44q.27-116.49.13-233a43.13,43.13,0,0,0,3-3.36c22.19-30.8,36.45-65.56,49.57-100.77,6.95-18.65,6.55-37.36-6.84-53.58-12.64-15.31-28.31-27.1-45.73-36.57v-129c41.32-5,82-14.71,123.55-18.1,2.61-.21,7.19.9,7.41-3.25.18-3.26-3.95-4.13-6.56-5.52-9.14-4.86-18.67-9.1-27.45-14.54-30.81-19.12-63.7-34-97-48.14V171.51c19.66-7.71,37.55-18.18,51.41-34.42,9.72-11.38,16.08-24.52,16.61-39.75,1.39-40-27.24-69.35-68-70V-56.16c3.11-.39,5.13,1.81,7.39,3.26,19.28,12.38,39.73,20.86,63.25,19.21a379.93,379.93,0,0,0,96.19-19c26.35-9,49.84-22.13,64.26-47.45a203.1,203.1,0,0,0,22.38-60.79H211c6.31,19.23,13.14,38.22,27.84,53,14.07,14.16,31.82,16.94,49,6.75C312-115.5,329.14-136.76,343-160.88q652.77,0,1305.55-.15c5.89,0,7.52.82,7.51,7.23Q1655.75,179.61,1655.9,513Z" transform="translate(286.99 161.03)"/><path class="a" d="M-33.39-160.88a203.1,203.1,0,0,1-22.38,60.79C-70.19-74.77-93.68-61.61-120-52.64a379.93,379.93,0,0,1-96.19,19c-23.52,1.65-44-6.83-63.25-19.21-2.26-1.45-4.28-3.65-7.39-3.26,0-33.13.11-66.27-.13-99.41,0-4.53.92-5.45,5.44-5.44Q-157.47-160.75-33.39-160.88Z" transform="translate(286.99 161.03)"/><path class="a" d="M-286.86,27.32c40.78.67,69.41,30,68,70-.53,15.23-6.89,28.37-16.61,39.75-13.86,16.24-31.75,26.71-51.41,34.42Z" transform="translate(286.99 161.03)"/><path class="a" d="M-286.86,499.35c17.42,9.47,33.09,21.26,45.73,36.57,13.39,16.22,13.79,34.93,6.84,53.58-13.12,35.21-27.38,70-49.57,100.77a43.13,43.13,0,0,1-3,3.36Z" transform="translate(286.99 161.03)"/><path class="a" d="M-286.86,280.79c33.25,14.17,66.14,29,97,48.14,8.78,5.44,18.31,9.68,27.45,14.54,2.61,1.39,6.74,2.26,6.56,5.52-.22,4.15-4.8,3-7.41,3.25-41.58,3.39-82.23,13.05-123.55,18.1Z" transform="translate(286.99 161.03)"/><path class="a" d="M343-160.88c-13.88,24.12-31,45.38-55.24,59.77-17.15,10.19-34.9,7.41-49-6.75-14.7-14.8-21.53-33.79-27.84-53Z" transform="translate(286.99 161.03)"/><path class="b" d="M1639.2,931.92c4.62-7.38,10.51-13.68,16.7-19.73v3c0,5.57,2.17,13.3-.62,16.09S1644.77,931.92,1639.2,931.92Z" transform="translate(286.99 161.03)"/><path class="b" d="M954.3,261a55,55,0,0,1,15,1.65c16.19,4.42,23.69,17.5,19.08,33.77-4.35,15.36-12.87,28.48-22.64,40.8-13.66,17.22-27.54,34.42-45.17,47.72-20.59,15.51-43.72,24-70.08,20.26-21.66-3.07-34.26-21.33-29.78-42.78a69,69,0,0,1,18.65-35c23.45-23.63,49.75-43.62,79.87-58.1C930.19,264.05,941.84,260.51,954.3,261Z" transform="translate(286.99 161.03)"/></svg>