<svg xmlns="http://www.w3.org/2000/svg" viewBox="0 0 1943.07 1093.09"><defs><style>.a{fill:#ffffff;}.b{fill:#41c7f6;}</style></defs><title>1800f_00207</title><path class="a" d="M558.54-160.88H660.23c.39,2.88,3,3.95,4.79,5.56,10.57,9.43,21.25,18.72,31.86,28.09,28.68,25.35,52.77,52.68,46.94,95.38C742.07-19,748.27-7.8,757.56,1.4c11.27,11.15,25,18.21,39.82,22.77,63.2,19.47,127.73,21.63,191.9,8.09s129.07-24.4,193.13-38.9c11.54-2.61,23.48-4.35,35.29-1,7.83,2.24,10.79,6.51,10.09,14.62a46.29,46.29,0,0,1-2.59,11,364.91,364.91,0,0,1-24.71,55.34c-10.5,19.3-12,38.47-4.82,58.39,20.66,57,42.71,113.54,69,168.24,18.21,37.81,38.45,74.63,55.7,112.92,3.95,8.76,8.66,17.15,15.48,24.15,11.76,12.09,22,13.72,36.66,5.34,18.15-10.39,32.65-25.44,48.63-38.58,18.72-15.4,35.72-32.9,56.52-45.73,24.65-15.2,52.27-13.76,75.11,3.95,12.46,9.65,22.9,21.39,33.45,33,22.81,25,45.31,50.37,69.63,74V807.46c-4.68,4.95-9.3,9.95-14,14.85-29,30.08-62.36,55-96.1,79.42-13.24,9.57-27,18.53-38.62,30.19H-241.33c.41-2,.68-4,1.24-5.88,7.93-27.08,19.78-52.44,33.74-76.89,21-36.86,44.12-72.57,61.43-111.53,21.41-48.19,31.53-98.28,29-151.14-.6-12.3-1.09-25.18,3.52-37.44,6.5-17.26,19.77-28.39,34-38.6,23.65-17,49.75-25.71,79.18-20.78,37.76,6.32,63.41,29.63,83,60.69,19.79,31.31,29.55,66.34,36,102.38,6.19,34.85,15.81,68.47,33.94,99.15,8.49,14.38,17.61,28.4,32.36,37.48,11.61,7.16,23.24,5.43,31.77-5.15A71.6,71.6,0,0,0,226,771.53c9.92-19.77,13.79-41.1,15.43-62.9C244,674.4,237,641.13,230.1,608c-12.26-58.61-24.92-117.08-30.19-176.93-4.17-47.33-28.16-82.93-68.27-108-15.46-9.66-31.84-17.62-47.89-26.19-6.9-3.69-13.88-7.27-19.47-13-7.08-7.24-7.2-13.86.25-20.85A73,73,0,0,1,80.65,251.8c17.48-9.13,35-18.08,52.45-27.35,42.38-22.58,84.22-46.37,130-61.82,50.82-17.15,92.06-47.6,123.06-90.85,44.5-62.07,90.44-123,136.8-183.7C535.17-127.95,547.87-143.69,558.54-160.88ZM877.4,291.71c.06,18.76,11,26.57,29,20.74,1.43-.46,2.85-1,4.25-1.58,16.08-6.57,28.76-17.78,39.94-30.56,12.16-13.9,23.54-28.55,27.48-47.28,3.39-16.1-6.59-28-23-27.93a36.28,36.28,0,0,0-11.88,2.06c-25.48,9-42.51,27.4-55.47,50.16C881.7,267.93,877,279.1,877.4,291.71Z" transform="translate(287.02 161.02)"/><path class="b" d="M558.54-160.88c-10.67,17.19-23.37,32.93-35.63,49-46.36,60.66-92.3,121.63-136.8,183.7-31,43.25-72.24,73.7-123.06,90.85-45.73,15.45-87.57,39.24-130,61.82-17.41,9.27-35,18.22-52.45,27.35a73,73,0,0,0-16.12,11.26c-7.45,7-7.33,13.61-.25,20.85,5.59,5.71,12.57,9.29,19.47,13,16,8.57,32.43,16.53,47.89,26.19,40.11,25.06,64.1,60.66,68.27,108,5.27,59.85,17.93,118.32,30.19,176.93C237,641.13,244,674.4,241.39,708.63c-1.64,21.8-5.51,43.13-15.43,62.9a71.6,71.6,0,0,1-8.21,12.68c-8.53,10.58-20.16,12.31-31.77,5.15-14.75-9.08-23.87-23.1-32.36-37.48-18.13-30.68-27.75-64.3-33.94-99.15-6.4-36-16.16-71.07-35.95-102.38C64.11,519.29,38.46,496,.7,489.66c-29.43-4.93-55.53,3.77-79.18,20.78-14.18,10.21-27.45,21.34-33.95,38.6-4.61,12.26-4.12,25.14-3.52,37.44,2.56,52.86-7.56,102.95-29,151.14-17.31,39-40.39,74.67-61.43,111.53-14,24.45-25.81,49.81-33.74,76.89-.56,1.92-.83,3.92-1.24,5.88-13.4,0-26.82-.25-40.21.13-4.55.13-5.45-.92-5.45-5.44q.27-127.12.13-254.23c1.71-1.09,3.44-2.12,5.12-3.26,44.61-30.28,85.47-65.43,127.63-98.87,13.35-10.58,23.08-23.7,21.77-41.93-1.54-21.44-6.44-41.93-19.76-59.51-9-11.87-18.17-23.61-27.22-35.45-13.39-17.53-26.06-35.38-30.86-57.61-3.85-17.82-.66-35.12,2.85-52.45,2.34-11.58-.22-21.7-9.08-29.65a78.77,78.77,0,0,0-13-9.11c-18-10.52-38-16.41-57.45-23.48V-127.49c3.48-.71,6.35,1.29,9.43,2.22,33.53,10.18,67.52,14.72,102.35,8.13,27.1-5.12,47.72-19.51,61.25-43.74H224.63c15.42,16.28,31.81,16.28,50.09,0Z" transform="translate(287.02 161.02)"/><path class="b" d="M1655.9,469c-24.32-23.63-46.82-49-69.63-74-10.55-11.58-21-23.32-33.45-33-22.84-17.71-50.46-19.15-75.11-3.95-20.8,12.83-37.8,30.33-56.52,45.73-16,13.14-30.48,28.19-48.63,38.58-14.62,8.38-24.9,6.75-36.66-5.34-6.82-7-11.53-15.39-15.48-24.15-17.25-38.29-37.49-75.11-55.7-112.92-26.34-54.7-48.39-111.2-69-168.24-7.22-19.92-5.68-39.09,4.82-58.39A364.91,364.91,0,0,0,1225.2,18a46.29,46.29,0,0,0,2.59-11c.7-8.11-2.26-12.38-10.09-14.62-11.81-3.37-23.75-1.63-35.29,1-64.06,14.5-128.86,25.35-193.13,38.9s-128.7,11.38-191.9-8.09c-14.8-4.56-28.55-11.62-39.82-22.77C748.27-7.8,742.07-19,743.82-31.85c5.83-42.7-18.26-70-46.94-95.38-10.61-9.37-21.29-18.66-31.86-28.09-1.81-1.61-4.4-2.68-4.79-5.56q494.42,0,988.84-.14c5.69,0,7,1.27,7,7-.29,39.21-.15,78.42-.15,117.63-4.67.55-8.44,3.17-12.32,5.48-21.78,13-26.62,30.24-14.84,52.52a151.55,151.55,0,0,0,27.16,36.1Z" transform="translate(287.02 161.02)"/><path class="a" d="M-286.86,261.06c19.46,7.07,39.42,13,57.45,23.48a78.77,78.77,0,0,1,13,9.11c8.86,8,11.42,18.07,9.08,29.65-3.51,17.33-6.7,34.63-2.85,52.45,4.8,22.23,17.47,40.08,30.86,57.61,9,11.84,18.22,23.58,27.22,35.45,13.32,17.58,18.22,38.07,19.76,59.51,1.31,18.23-8.42,31.35-21.77,41.93-42.16,33.44-83,68.59-127.63,98.87-1.68,1.14-3.41,2.17-5.12,3.26Z" transform="translate(287.02 161.02)"/><path class="b" d="M1507.15,931.92c11.63-11.66,25.38-20.62,38.62-30.19,33.74-24.42,67-49.34,96.1-79.42,4.73-4.9,9.35-9.9,14-14.85,0,40-.07,79.94.09,119.9,0,3.8-.85,4.67-4.65,4.66C1603.28,931.87,1555.22,931.92,1507.15,931.92Z" transform="translate(287.02 161.02)"/><path class="a" d="M-113.83-160.88c-13.53,24.23-34.15,38.62-61.25,43.74-34.83,6.59-68.82,2-102.35-8.13-3.08-.93-5.95-2.93-9.43-2.22,0-9.36.31-18.74-.13-28.07-.22-4.57.91-5.47,5.44-5.45C-225.64-160.81-169.74-160.88-113.83-160.88Z" transform="translate(287.02 161.02)"/><path class="a" d="M1655.9,57.68a151.55,151.55,0,0,1-27.16-36.1C1617-.7,1621.8-17.95,1643.58-30.94c3.88-2.31,7.65-4.93,12.32-5.48Z" transform="translate(287.02 161.02)"/><path class="a" d="M274.72-160.88c-18.28,16.28-34.67,16.28-50.09,0Z" transform="translate(287.02 161.02)"/><path class="b" d="M877.4,291.71c-.4-12.61,4.3-23.78,10.33-34.39,13-22.76,30-41.17,55.47-50.16a36.28,36.28,0,0,1,11.88-2.06c16.4-.09,26.38,11.83,23,27.93-3.94,18.73-15.32,33.38-27.48,47.28-11.18,12.78-23.86,24-39.94,30.56-1.4.58-2.82,1.12-4.25,1.58C888.37,318.28,877.46,310.47,877.4,291.71Z" transform="translate(287.02 161.02)"/></svg>