<svg xmlns="http://www.w3.org/2000/svg" viewBox="0 0 1943.04 1093.34"><defs><style>.a{fill:#ffffff;}.b{fill:#41c7f6;}</style></defs><title>1800f_00104</title><path class="a" d="M1278,931.92H1006.29c-14.71-14.64-32.71-23.71-52.42-28.88-46.65-12.22-94.12-11.64-141.55-6.5-34.18,3.7-67.5,12.56-101.06,19.84-21.67,4.69-43.45,9-64.69,15.54H223.11a42.56,42.56,0,0,1,4-1.8A469.78,469.78,0,0,0,341.57,875c25.68-17.06,40.7-40.82,44.28-71.71,2.77-23.84.21-47.44-2.6-71-5.79-48.5-19.92-94.88-36.31-140.64-3.32-9.27-6.06-18.81-11.14-27.35-2.17-3.66-4.36-8.29-9.15-8-4.39.26-6.19,4.78-7.8,8.5-4,9.3-6.36,19.16-9.08,28.89-6.26,22.37-11.53,45.14-24.65,64.88-11.78,17.73-26.15,21.63-45.86,13.08-17.12-7.42-31.71-18.75-46.63-29.56-36-26.06-74.14-49.16-107-79.58-22-20.39-33.76-44.24-30.83-74.62,2.81-29.17,5.88-58.32,8-87.54,2.56-35.28.73-70.26-11-104.1-12-34.78-31.17-65.69-52.33-95.4-13.17-18.49-28.81-34.67-49.48-44.95-20-9.92-37.67-4.77-49.56,14.23-9.29,14.85-8.08,30.9-4.34,47,14.62,63,29.83,125.85,41,189.59,5.43,31.07,16.34,60.46,28.82,89.28C-18.3,532.33-2,568.49,17.69,603c14.41,25.24,34,46.39,52.39,68.53,22.8,27.5,34.33,59.58,37.27,94.44,2.7,31.94-11.74,58.31-32.57,81.37C46,879.26,7.2,892.34-32.56,903.09c-25.24,6.82-49.6,15.48-72.17,28.83-58.68,0-117.37-.09-176.06.15-5.2,0-6.22-1-6.21-6.22q.24-423.47.14-846.92c6.55-.41,13.09-.83,19.64-1.21,46-2.67,91.39,1.54,136.35,11.4,25.52,5.59,51,10.4,77.09,2.24,38-11.9,77.25-17.64,116.8-21.73,49.06-5.06,95.62-18.8,139.12-42.3,38.31-20.7,74.92-44.12,110.61-69C329.51-53.42,345.66-66.17,364.84-74c12.47-5.1,24.53-4.62,36.47,2,11.44,6.3,19.81,15.5,26.6,26.39,8.86,14.18,21.71,22,38.14,24.74,10.33,1.71,20.67,1.39,31,1.31,22.5-.16,45-2,67.49-1.18,62.11,2.25,124.2,5.12,186.33,6.53,45.18,1,89.66,6.12,133.34,17.6,29.32,7.71,58.83,15,86.18,28.65a66.19,66.19,0,0,1,31.7,33.39c4.52,10.2,8.08,20.71,11.62,31.26,13.57,40.4,20.66,82.3,28.89,123.94,2.22,11.22,4.77,22.25,11.53,31.8,6.88,9.71,16.18,13.26,27.75,11a61.52,61.52,0,0,0,19.76-7.54c15-8.85,30-17.74,44.84-26.95,34.74-21.6,53.6-53.26,58.82-93.52,2.39-18.41.11-36.9,1.39-55.31,1.34-19.19,3.31-38.29,11.41-56.11,4.65-10.24,12.36-15.13,23.88-15.27,24.12-.29,46.15,8.09,68.35,15.66,31.34,10.7,61.6,23.38,82.83,50.75,6,7.79,12.53,15.23,18.48,23.09,24.13,31.88,40.49,66.92,43.33,107.44a745.61,745.61,0,0,1,.9,86.4c-3.79,82.53,10.92,162.74,33.82,241.43,16,54.93,48.54,98.85,96.15,131.47,22.76,15.6,45.88,30.51,70,43.83V846.92c-50.7,9.1-101.12,19.24-148,41.68-13,6.2-25.79,12.81-36.41,22.71-5.8,5.41-10.4,11.79-8.31,20.61H1410c-1.31-5.57-1.47-11.34-4.71-16.49-7.55-12-16.88-22.58-26-33.31-6.49-7.63-14.88-12-25.21-11.83-32.82.54-55.39,17.67-71.5,44.75C1279.64,920,1275.9,925.32,1278,931.92Z" transform="translate(287.01 161.27)"/><path class="b" d="M1655.9,708.8c-24.16-13.32-47.28-28.23-70-43.83-47.61-32.62-80.17-76.54-96.15-131.47-22.9-78.69-37.61-158.9-33.82-241.43a745.61,745.61,0,0,0-.9-86.4c-2.84-40.52-19.2-75.56-43.33-107.44-6-7.86-12.44-15.3-18.48-23.09-21.23-27.37-51.49-40-82.83-50.75-22.2-7.57-44.23-15.95-68.35-15.66-11.52.14-19.23,5-23.88,15.27-8.1,17.82-10.07,36.92-11.41,56.11-1.28,18.41,1,36.9-1.39,55.31-5.22,40.26-24.08,71.92-58.82,93.52-14.81,9.21-29.82,18.1-44.84,26.95a61.52,61.52,0,0,1-19.76,7.54c-11.57,2.22-20.87-1.33-27.75-11-6.76-9.55-9.31-20.58-11.53-31.8-8.23-41.64-15.32-83.54-28.89-123.94-3.54-10.55-7.1-21.06-11.62-31.26A66.19,66.19,0,0,0,970.41,32c-27.35-13.7-56.86-20.94-86.18-28.65-43.68-11.48-88.16-16.57-133.34-17.6-62.13-1.41-124.22-4.28-186.33-6.53-22.52-.82-45,1-67.49,1.18-10.35.08-20.69.4-31-1.31-16.43-2.73-29.28-10.56-38.14-24.74-6.79-10.89-15.16-20.09-26.6-26.39-11.94-6.58-24-7.06-36.47-2-19.18,7.83-35.33,20.58-52.09,32.29-35.69,24.92-72.3,48.34-110.61,69C158.64,50.83,112.08,64.57,63,69.63c-39.55,4.09-78.77,9.83-116.8,21.73-26.11,8.16-51.57,3.35-77.09-2.24-45-9.86-90.36-14.07-136.35-11.4-6.55.38-13.09.8-19.64,1.21q0-116.49-.15-233c0-5.69,1.29-7,7-7q694.77.22,1389.53.14c.39,2.79-2,3.95-3.44,5.5A350.31,350.31,0,0,0,1075.23-118c-10.71,14.83-20.06,30.41-24,48.58-5.41,24.83,6.67,40.14,31.9,40.45,6.31.08,12.69.34,18.94-.39,25.66-3,51.41-3.11,77.19-2.94,18.66.12,27.31-5.93,31.32-24.17,7.65-34.73,17.49-69,21.87-104.45q208.3,0,416.63.09c2.22,0,5.14-1.75,6.83,1.43-13.72,18.93-21,40.71-28.12,62.64-13,39.71.31,71.7,28.12,99.76Z" transform="translate(287.01 161.27)"/><path class="b" d="M-104.73,931.92c22.57-13.35,46.93-22,72.17-28.83C7.2,892.34,46,879.26,74.78,847.37c20.83-23.06,35.27-49.43,32.57-81.37-2.94-34.86-14.47-66.94-37.27-94.44-18.35-22.14-38-43.29-52.39-68.53-19.71-34.54-36-70.7-51.75-107.12-12.48-28.82-23.39-58.21-28.82-89.28C-74,342.89-89.22,280-103.84,217c-3.74-16.07-5-32.12,4.34-47,11.89-19,29.61-24.15,49.56-14.23,20.67,10.28,36.31,26.46,49.48,44.95,21.16,29.71,40.33,60.62,52.33,95.4C63.55,330,65.38,365,62.82,400.29c-2.11,29.22-5.18,58.37-8,87.54-2.93,30.38,8.8,54.23,30.83,74.62,32.83,30.42,71,53.52,107,79.58,14.92,10.81,29.51,22.14,46.63,29.56,19.71,8.55,34.08,4.65,45.86-13.08,13.12-19.74,18.39-42.51,24.65-64.88,2.72-9.73,5-19.59,9.08-28.89,1.61-3.72,3.41-8.24,7.8-8.5,4.79-.28,7,4.35,9.15,8,5.08,8.54,7.82,18.08,11.14,27.35,16.39,45.76,30.52,92.14,36.31,140.64,2.81,23.6,5.37,47.2,2.6,71-3.58,30.89-18.6,54.65-44.28,71.71a469.78,469.78,0,0,1-114.42,55.13,42.56,42.56,0,0,0-4,1.8Z" transform="translate(287.01 161.27)"/><path class="a" d="M1232.44-160.88c-4.38,35.42-14.22,69.72-21.87,104.45-4,18.24-12.66,24.29-31.32,24.17-25.78-.17-51.53-.09-77.19,2.94-6.25.73-12.63.47-18.94.39-25.23-.31-37.31-15.62-31.9-40.45,4-18.17,13.3-33.75,24-48.58a350.31,350.31,0,0,1,30.83-37.42c1.49-1.55,3.83-2.71,3.44-5.5Z" transform="translate(287.01 161.27)"/><path class="b" d="M1463.14,931.92c-2.09-8.82,2.51-15.2,8.31-20.61,10.62-9.9,23.45-16.51,36.41-22.71,46.92-22.44,97.34-32.58,148-41.68,0,26.56-.14,53.13.13,79.68,0,4.54-.92,5.46-5.45,5.44Q1556.86,931.77,1463.14,931.92Z" transform="translate(287.01 161.27)"/><path class="b" d="M646.57,931.92c21.24-6.51,43-10.85,64.69-15.54,33.56-7.28,66.88-16.14,101.06-19.84,47.43-5.14,94.9-5.72,141.55,6.5,19.71,5.17,37.71,14.24,52.42,28.88Z" transform="translate(287.01 161.27)"/><path class="b" d="M1278,931.92c-2.07-6.6,1.67-11.91,4.63-16.88,16.11-27.08,38.68-44.21,71.5-44.75,10.33-.17,18.72,4.2,25.21,11.83,9.12,10.73,18.45,21.3,26,33.31,3.24,5.15,3.4,10.92,4.71,16.49Z" transform="translate(287.01 161.27)"/><path class="a" d="M1655.9,3c-27.81-28.06-41.07-60-28.12-99.76,7.16-21.93,14.4-43.71,28.12-62.64Z" transform="translate(287.01 161.27)"/></svg>