<svg xmlns="http://www.w3.org/2000/svg" viewBox="0 0 1943.04 1093.1"><defs><style>.a{fill:#ffffff;}.b{fill:#41c7f6;}</style></defs><title>1800f_00282</title><path class="a" d="M1655.9,746.75V869.69c-7.06,0-14.12-.23-21.16.08-36.73,1.62-72,27.94-83.57,62.15H33.39c0-3,0-6.06,0-9.09.4-29.2-2.59-58-10.73-86.11C19.26,824.85,16,812.42,6.28,804c-11.76-10.24-27.54-12.88-36.41,4.69-1.7,3.37-3.78,6.6-5.11,10.11-14.61,38.53-35.28,73.71-58.89,107.29-1.25,1.78-3.33,3.24-3,5.87-61.21,0-122.43-.09-183.65.15-5.2,0-6.22-1-6.21-6.22q.25-239.82.14-479.62a380.52,380.52,0,0,1,69.9,36.2c22.57,15,38.86,34.81,49,60.1,7.79,19.42,9,39.83,10.64,60.14,3.43,42.09,18.89,77.74,53.15,103.94,15.87,12.13,31.63,24.46,51.1,30.57,8.19,2.57,15.65,1.56,21.33-5.29C-17.85,715.11-12.19,695-9.89,674c2.19-20.05-3.77-39-9.27-58-4.37-15.06-7.41-30.33-1.08-45.22,4.47-10.54,11.59-19,24.58-20.88,13.37-1.94,23.66,3.51,33,11.59,29.34,25.51,62.64,42.19,101.5,47.17,36.33,4.66,72.63,9.52,108.93,14.34,19.07,2.54,38.2,4.17,57.45,3.11,21.78-1.19,30.92-14.58,23.94-35a67,67,0,0,0-4.13-9.76c-15.79-29.61-38.72-52.93-65.34-72.72-13.78-10.25-28.55-19.16-42.55-29.14-24.33-17.35-27.56-35.83-10.59-60.24,5.91-8.51,12.36-16.67,19-24.61,30.35-36.22,57.52-74.57,76.43-118.06A454.49,454.49,0,0,1,372.18,163.7c19.72-23.34,36.26-49.08,41.21-80C420.19,41.24,441.66,6.17,467-27c12.71-16.63,23.26-17.56,39.81-4.46,18.08,14.32,33,31.73,43.24,52.22,8.83,17.68,22.93,24.49,41,26.55,30.57,3.47,60.53-.63,90.29-7.13,35.7-7.8,68.34-23.51,100.19-40.63C805.85-13.5,827.79-12.9,849,5c.19.16.42.28.62.44,42.62,32.17,89.09,57.67,137.84,79.16,32.63,14.38,65.5,28.07,100.44,36.17,33.08,7.67,66.64,8.34,100.29,8,26.85-.25,50.89,7.71,71.84,24.3,22.87,18.11,47.26,33.83,72.58,48.22,8.12,4.61,15.8,10,23.48,15.36,22.84,15.85,39.94,36.15,49.27,62.76A256.9,256.9,0,0,0,1427,326.13c16.29,27.33,37,51.27,58.35,74.56,41.67,45.39,69.6,97.83,82.46,158.12,7.43,34.83,12.21,70.24,22.81,104.37,7.86,25.31,17.47,49.79,37.34,68.47C1635.8,739,1644.24,746.05,1655.9,746.75Z" transform="translate(287 161.03)"/><path class="b" d="M1655.9,746.75c-11.66-.7-20.1-7.71-28-15.1-19.87-18.68-29.48-43.16-37.34-68.47-10.6-34.13-15.38-69.54-22.81-104.37-12.86-60.29-40.79-112.73-82.46-158.12-21.38-23.29-42.06-47.23-58.35-74.56a256.9,256.9,0,0,1-21.66-46.73c-9.33-26.61-26.43-46.91-49.27-62.76-7.68-5.33-15.36-10.75-23.48-15.36-25.32-14.39-49.71-30.11-72.58-48.22-21-16.59-45-24.55-71.84-24.3-33.65.3-67.21-.37-100.29-8-34.94-8.1-67.81-21.79-100.44-36.17-48.75-21.49-95.22-47-137.84-79.16-.2-.16-.43-.28-.62-.44C827.79-12.9,805.85-13.5,781.61-.47c-31.85,17.12-64.49,32.83-100.19,40.63-29.76,6.5-59.72,10.6-90.29,7.13-18.11-2.06-32.21-8.87-41-26.55C539.85.25,524.93-17.16,506.85-31.48,490.3-44.58,479.75-43.65,467-27c-25.38,33.19-46.85,68.26-53.65,110.7-4.95,30.94-21.49,56.68-41.21,80a454.49,454.49,0,0,0-70.24,112.88c-18.91,43.49-46.08,81.84-76.43,118.06-6.65,7.94-13.1,16.1-19,24.61-17,24.41-13.74,42.89,10.59,60.24,14,10,28.77,18.89,42.55,29.14,26.62,19.79,49.55,43.11,65.34,72.72a67,67,0,0,1,4.13,9.76c7,20.42-2.16,33.81-23.94,35-19.25,1.06-38.38-.57-57.45-3.11-36.3-4.82-72.6-9.68-108.93-14.34-38.86-5-72.16-21.66-101.5-47.17C28,553.41,17.71,548,4.34,549.9c-13,1.88-20.11,10.34-24.58,20.88-6.33,14.89-3.29,30.16,1.08,45.22,5.5,18.91,11.46,37.9,9.27,58-2.3,21.09-8,41.16-21.86,57.94-5.68,6.85-13.14,7.86-21.33,5.29-19.47-6.11-35.23-18.44-51.1-30.57-34.26-26.2-49.72-61.85-53.15-103.94C-159,582.36-160.18,562-168,542.53c-10.13-25.29-26.42-45.07-49-60.1a380.52,380.52,0,0,0-69.9-36.2q0-300.14-.14-600.28c0-5.69,1.28-7,7-7q130.15.32,260.3.15c-1.3,9.58-7.72,16.74-12,24.89-9.95,19-21.54,37.24-26.62,58.49-10.57,44.19,11.09,82.1,54,93.21C21.18,22.34,45.3,17.53,67.84,4.23,85.18-6,100-19.43,114.25-33.46c31.2-30.72,59.65-64,89.37-96.1,9.61-10.37,20.08-20,28.6-31.32H444.71c7.31,8.41,15.23,16.12,25,21.71,7.16,4.11,14.62,5,21.27-.25,6.95-5.5,12.35-12.48,14.45-21.46q571.83,0,1143.65-.14c5.69,0,7,1.28,7,7Q1655.8,296.34,1655.9,746.75Z" transform="translate(287 161.03)"/><path class="a" d="M232.22-160.88c-8.52,11.36-19,20.95-28.6,31.32-29.72,32.09-58.17,65.38-89.37,96.1C100-19.43,85.18-6,67.84,4.23,45.3,17.53,21.18,22.34-4.35,15.71c-42.88-11.11-64.54-49-54-93.21C-53.24-98.75-41.65-117-31.7-136c4.25-8.15,10.67-15.31,12-24.89Z" transform="translate(287 161.03)"/><path class="b" d="M-97.14,931.92c-.32-2.63,1.76-4.09,3-5.87,23.61-33.58,44.28-68.76,58.89-107.29,1.33-3.51,3.41-6.74,5.11-10.11,8.87-17.57,24.65-14.93,36.41-4.69,9.71,8.46,13,20.89,16.41,32.76,8.14,28.11,11.13,56.91,10.73,86.11,0,3,0,6.06,0,9.09Z" transform="translate(287 161.03)"/><path class="b" d="M1551.17,931.92c11.54-34.21,46.84-60.53,83.57-62.15,7-.31,14.1-.07,21.16-.08,0,19.22-.13,38.45.1,57.67,0,3.8-.86,4.68-4.66,4.66C1618,931.85,1584.56,931.92,1551.17,931.92Z" transform="translate(287 161.03)"/><path class="a" d="M505.42-160.88c-2.1,9-7.5,16-14.45,21.46-6.65,5.27-14.11,4.36-21.27.25-9.76-5.59-17.68-13.3-25-21.71Z" transform="translate(287 161.03)"/></svg>