<svg xmlns="http://www.w3.org/2000/svg" viewBox="0 0 1943.05 1093.09"><defs><style>.a{fill:#ffffff;}.b{fill:#41c7f6;}</style></defs><title>1800f_00393</title><path class="a" d="M1655.9,192.76V464.44c-12,6.46-23,14.63-34.19,22.34-30.24,20.77-55,46.52-72.85,78.85-19.78,35.94-36.08,73.45-50.23,111.86-20.69,56.15-40.53,112.59-64.69,167.41a355.77,355.77,0,0,0-25.44,87H85c-.72-1-1.36-2.13-2.15-3.1C33.48,869-26.63,823.65-98.23,793.51c-24-10.1-48.63-18.74-71.15-32.07-26.6-15.74-37.37-39.78-31.46-70.09,6.05-31,20.76-58.07,39.51-82.81a702.14,702.14,0,0,0,59.11-92.6c18.75-35,39.55-68.2,71.62-93,23.51-18.19,48.92-33.3,75-47.29C92.06,350,133.26,316.89,166,273.6c33.27-44,67.41-87.12,105.93-126.8C296.67,121.32,317,92.18,331.5,59.46c11.5-26,18.72-52.81,14.71-81.7-3.69-26.59-21.15-41.13-46.8-38.3A65.61,65.61,0,0,0,285.3-57.8C253.93-47.1,222-47.31,190.24-54.38c-35.88-8-70.94-8.31-106,3.93A188.67,188.67,0,0,1,30.87-39.81C7.07-38.73-15.28-45.44-36.58-55c-20.61-9.25-39.19-6.22-57.51,5.35a395.92,395.92,0,0,0-38.58,28.1C-162.85,3-196.43,14.53-235.63,7.81-252.52,4.92-269.54,2-286.86,3c0-52.37.1-104.73-.15-157.09,0-5.7,1.29-7,7-7q607.48.22,1215,.14c-.48,3.06,1.61,5.22,2.8,7.64C958.56-111,989-75.89,1020.38-41.43c38.26,42,84,74.07,132.61,102.65,55.93,32.91,104.67,74.16,144.2,125.9,14.52,19,23.16,40.32,23.24,64.46.14,41.61-14.36,78.62-36.59,113-13.77,21.31-30.86,40-47.56,59-10.61,12.06-20,25.19-20.48,42.1-1.06,36.82,40.74,72.7,78.79,68.19a130.82,130.82,0,0,0,59-22.24c29.64-20.16,44.31-46.91,37.08-83.59-2.34-11.86-4.84-23.82-4.5-36,.6-20.81,12.62-35.08,28-47.21,18.75-14.76,40.12-25.38,60.15-38.11,44.59-28.3,87.8-58.74,133-86.06C1623.31,211,1638.56,200.06,1655.9,192.76ZM619.05,420.58c5.73.25,16.83-.45,27.86-1.78,23.29-2.81,45.82-8,64.82-23,19.68-15.5,23.39-36.73,9.49-57.51a83.93,83.93,0,0,0-51.62-36c-39.11-9.35-75.1,0-108.91,19.81-16.68,9.8-31.7,21.75-41.76,38.77-10.19,17.24-5.79,33.89,11.51,43.95a74.83,74.83,0,0,0,10.89,5.27C564.65,419,589.07,420.26,619.05,420.58Zm-339.14,132c-21.07-.15-30.79,1.43-38.49,5.26q-18.53,9.23-12.23,28.85a52.59,52.59,0,0,0,8.6,15.94c20.35,26.64,48.08,42,79.55,51.31,15.68,4.64,31.72,6.45,48,3.11,20-4.12,37.14-13.22,49.18-30.14,7.25-10.2,6.23-20.3-1.62-29.94a55.78,55.78,0,0,0-17.13-13.56C357.78,562.93,316.58,555.1,279.91,552.62Zm364.91,56c-7.66-.31-17.8,1.36-27.6,5.17-8.6,3.34-16.83,8.06-18.07,17.67-1.28,9.87,5.72,16.72,13,22.59,13.94,11.2,30.14,17.31,47.43,20.79,12.6,2.53,25.19,2.63,37.11-3,6.85-3.22,12-8.08,13.48-16.16,2.51-13.38-3.66-23.13-13.11-31C682.87,612.77,665.87,608.61,644.82,608.61Z" transform="translate(287.01 161.02)"/><path class="b" d="M-286.86,3c17.32-1.06,34.34,1.88,51.23,4.77,39.2,6.72,72.78-4.8,103-29.35a395.92,395.92,0,0,1,38.58-28.1c18.32-11.57,36.9-14.6,57.51-5.35,21.3,9.55,43.65,16.26,67.45,15.18A188.67,188.67,0,0,0,84.23-50.45c35.07-12.24,70.13-11.92,106-3.93C222-47.31,253.93-47.1,285.3-57.8a65.61,65.61,0,0,1,14.11-2.74c25.65-2.83,43.11,11.71,46.8,38.3,4,28.89-3.21,55.74-14.71,81.7C317,92.18,296.67,121.32,271.93,146.8,233.41,186.48,199.27,229.63,166,273.6c-32.74,43.29-73.94,76.43-121.63,102-26,14-51.46,29.1-75,47.29-32.07,24.8-52.87,58-71.62,93a702.14,702.14,0,0,1-59.11,92.6c-18.75,24.74-33.46,51.82-39.51,82.81-5.91,30.31,4.86,54.35,31.46,70.09,22.52,13.33,47.18,22,71.15,32.07C-26.63,823.65,33.48,869,82.85,928.82c.79,1,1.43,2.06,2.15,3.1q-182.89,0-365.79.14c-5.2,0-6.22-1-6.21-6.21Q-286.76,464.44-286.86,3Z" transform="translate(287.01 161.02)"/><path class="b" d="M1655.9,192.76c-17.34,7.3-32.59,18.22-48.57,27.88-45.22,27.32-88.43,57.76-133,86.06-20,12.73-41.4,23.35-60.15,38.11-15.39,12.13-27.41,26.4-28,47.21-.34,12.18,2.16,24.14,4.5,36,7.23,36.68-7.44,63.43-37.08,83.59a130.82,130.82,0,0,1-59,22.24c-38,4.51-79.85-31.37-78.79-68.19.49-16.91,9.87-30,20.48-42.1,16.7-19,33.79-37.65,47.56-59,22.23-34.4,36.73-71.41,36.59-113-.08-24.14-8.72-45.44-23.24-64.46-39.53-51.74-88.27-93-144.2-125.9-48.6-28.58-94.35-60.65-132.61-102.65C989-75.89,958.56-111,937.75-153.24c-1.19-2.42-3.28-4.58-2.8-7.64q357.06,0,714.12-.14c5.69,0,7,1.28,7,7Q1655.76,19.35,1655.9,192.76Z" transform="translate(287.01 161.02)"/><path class="b" d="M1408.5,931.92a355.77,355.77,0,0,1,25.44-87c24.16-54.82,44-111.26,64.69-167.41,14.15-38.41,30.45-75.92,50.23-111.86,17.8-32.33,42.61-58.08,72.85-78.85,11.22-7.71,22.15-15.88,34.19-22.34q0,230.7.14,461.41c0,5.19-1,6.23-6.22,6.22Q1529.16,931.74,1408.5,931.92Z" transform="translate(287.01 161.02)"/><path class="b" d="M619.05,420.58c-30-.32-54.4-1.63-77.72-10.45a74.83,74.83,0,0,1-10.89-5.27c-17.3-10.06-21.7-26.71-11.51-43.95,10.06-17,25.08-29,41.76-38.77,33.81-19.85,69.8-29.16,108.91-19.81a83.93,83.93,0,0,1,51.62,36c13.9,20.78,10.19,42-9.49,57.51-19,14.95-41.53,20.17-64.82,23C635.88,420.13,624.78,420.83,619.05,420.58Z" transform="translate(287.01 161.02)"/><path class="b" d="M279.91,552.62c36.67,2.48,77.87,10.31,115.82,30.83A55.78,55.78,0,0,1,412.86,597c7.85,9.64,8.87,19.74,1.62,29.94-12,16.92-29.18,26-49.18,30.14-16.24,3.34-32.28,1.53-48-3.11-31.47-9.33-59.2-24.67-79.55-51.31a52.59,52.59,0,0,1-8.6-15.94q-6.27-19.63,12.23-28.85C249.12,554.05,258.84,552.47,279.91,552.62Z" transform="translate(287.01 161.02)"/><path class="b" d="M644.82,608.61c21,0,38,4.16,52.26,16,9.45,7.91,15.62,17.66,13.11,31-1.51,8.08-6.63,12.94-13.48,16.16-11.92,5.61-24.51,5.51-37.11,3-17.29-3.48-33.49-9.59-47.43-20.79-7.3-5.87-14.3-12.72-13-22.59,1.24-9.61,9.47-14.33,18.07-17.67C627,610,637.16,608.3,644.82,608.61Z" transform="translate(287.01 161.02)"/></svg>