<svg xmlns="http://www.w3.org/2000/svg" viewBox="0 0 1366.29 768.29"><defs><style>.a{fill:#ffffff;}.b{fill:#41c7f6;}</style></defs><title>1800f_00048</title><path class="a" d="M1180.83,769.52H329.36a232.72,232.72,0,0,0-38.15-26c-38.12-21.29-79.56-33.36-121.58-43.86-8.33-2.08-16.73-4-24.85-6.79-6.78-2.29-7.17-5.8-1.61-10.15a75.48,75.48,0,0,1,10.15-6.61c42-23,81.93-49.23,118.73-80,20.06-16.75,34.3-37.28,36-64.35a319.23,319.23,0,0,0-3.83-73.32c-4.56-26.7-8.41-53.28-5.39-80.61,2.32-21,.55-41.85-7-62-9.8-26.05-28.49-35.64-55.19-27.75-10.17,3-20.31,6.22-30.64,8.59-14.37,3.29-23.78-1.7-30.28-15a76.48,76.48,0,0,1-5.79-18c-5.85-27.68-12.09-55.19-21.73-82-14.47-40.15-24.21-82-42.37-120.85a18.47,18.47,0,0,1-1-3.63c-1.37-6.24.78-10.29,7.2-11.92a110.6,110.6,0,0,1,20.23-2.82c30.69-1.94,59.85-9.58,87-24.19,8.52-4.59,17.7-8.59,23.73-16.83H901.56c.62,3.67,3.29,6.18,5.27,9.05C927.24,40,953.79,63.32,982,84.89c47.53,36.42,92.11,75.53,125.69,126,13.95,21,25.51,42.2,28,67.71,1.34,13.54,3.81,27,5.76,40.46,4.77,33.05,17.79,61.35,45.88,81.36,22.5,16,48,22.11,74.94,22.79,35.13.9,70.15-3.17,105.28-2.81v71.33c-2.69-.93-4.92.54-7.22,1.44-11.76,4.62-23.62,9-35.21,14-31.54,13.6-63.61,26.16-91.86,46.33-19.73,14.09-33.23,32.32-38.19,56.31A691.45,691.45,0,0,0,1180.83,769.52ZM792.11,424.7c-5.7-.32-14.81,2.67-23.71,6.4C754.39,437,740.28,442.33,725,444c-19.32,2.09-38.62,4.48-57.9,6.93-9.27,1.18-18.58,2.58-26.93,7.18-6.36,3.5-6.73,7.25-1.83,12.62,4.4,4.81,10,7.62,15.89,10a175,175,0,0,0,51.41,12.37c29.11,2.59,57.4,8.13,84.78,18.63,17.19,6.58,34.52,13,52.91,15.8,20.44,3.14,38.26-5.17,45.79-21.69,6.92-15.17,1.88-31-14.13-44.78-10.24-8.79-21.81-15.56-33.65-21.81C827.21,431.8,812.74,425.11,792.11,424.7Zm15.12,213.22c-.1-14-11.24-34.48-23.61-43.31A40.89,40.89,0,0,0,730,600.52c-4.49,5-5.65,10.2-1.86,15.82,14,20.7,32.79,35,57.43,40.18C798.51,659.24,807.32,650.93,807.23,637.92Z" transform="translate(-1.37 -1.37)"/><path class="b" d="M242.84,1.52c-6,8.24-15.21,12.24-23.73,16.83C192,33,162.84,40.6,132.15,42.54a110.6,110.6,0,0,0-20.23,2.82c-6.42,1.63-8.57,5.68-7.2,11.92a18.47,18.47,0,0,0,1,3.63c18.16,38.88,27.9,80.7,42.37,120.85,9.64,26.77,15.88,54.28,21.73,82a76.48,76.48,0,0,0,5.79,18c6.5,13.27,15.91,18.26,30.28,15,10.33-2.37,20.47-5.59,30.64-8.59,26.7-7.89,45.39,1.7,55.19,27.75,7.58,20.15,9.35,41,7,62-3,27.33.83,53.91,5.39,80.61A319.23,319.23,0,0,1,308,531.79c-1.67,27.07-15.91,47.6-36,64.35-36.8,30.72-76.7,56.93-118.73,80a75.48,75.48,0,0,0-10.15,6.61c-5.56,4.35-5.17,7.86,1.61,10.15,8.12,2.75,16.52,4.71,24.85,6.79,42,10.5,83.46,22.57,121.58,43.86a232.72,232.72,0,0,1,38.15,26q-160.89,0-321.77.14c-5.2,0-6.22-1-6.22-6.22q.25-377.93,0-755.85c0-5.2,1-6.23,6.22-6.22Q125.22,1.7,242.84,1.52Z" transform="translate(-1.37 -1.37)"/><path class="b" d="M1367.52,420.43c-35.13-.36-70.15,3.71-105.28,2.81-27-.68-52.44-6.76-74.94-22.79-28.09-20-41.11-48.31-45.88-81.36-2-13.48-4.42-26.92-5.76-40.46-2.51-25.51-14.07-46.73-28-67.71-33.58-50.5-78.16-89.61-125.69-126C953.79,63.32,927.24,40,906.83,10.57c-2-2.87-4.65-5.38-5.27-9H1246.1c1.94,1.94,3.78,4,5.86,5.81,12.57,11,25.59,21.4,37.44,33.2,13.2,13.14,17.75,28.69,15.16,47.06-3,21.21-6.93,42.38-3.81,64.06,3.08,21.4,6.78,42.48,19.74,60.59,9.53,13.33,21,16.82,36.43,11.56,3.54-1.21,6.63-3.75,10.6-3.72Z" transform="translate(-1.37 -1.37)"/><path class="b" d="M1180.83,769.52A691.45,691.45,0,0,1,1195,609.85c5-24,18.46-42.22,38.19-56.31,28.25-20.17,60.32-32.73,91.86-46.33,11.59-5,23.45-9.39,35.21-14,2.3-.9,4.53-2.37,7.22-1.44q0,135.84.14,271.68c0,5.2-1,6.25-6.21,6.23C1301.24,769.43,1241,769.52,1180.83,769.52Z" transform="translate(-1.37 -1.37)"/><path class="a" d="M1367.52,220.08c-4,0-7.06,2.51-10.6,3.72-15.43,5.26-26.9,1.77-36.43-11.56-13-18.11-16.66-39.19-19.74-60.59-3.12-21.68.82-42.85,3.81-64.06,2.59-18.37-2-33.92-15.16-47.06-11.85-11.8-24.87-22.24-37.44-33.2-2.08-1.8-3.92-3.87-5.86-5.81,38.7,0,77.4.1,116.1-.13,4.54,0,5.46.91,5.44,5.44Q1367.37,113.45,1367.52,220.08Z" transform="translate(-1.37 -1.37)"/><path class="b" d="M792.11,424.7c20.63.41,35.1,7.1,49.21,14.56,11.84,6.25,23.41,13,33.65,21.81,16,13.75,21,29.61,14.13,44.78-7.53,16.52-25.35,24.83-45.79,21.69-18.39-2.83-35.72-9.22-52.91-15.8-27.38-10.5-55.67-16-84.78-18.63a175,175,0,0,1-51.41-12.37c-5.86-2.41-11.49-5.22-15.89-10-4.9-5.37-4.53-9.12,1.83-12.62,8.35-4.6,17.66-6,26.93-7.18,19.28-2.45,38.58-4.84,57.9-6.93,15.3-1.65,29.41-7,43.42-12.88C777.3,427.37,786.41,424.38,792.11,424.7Z" transform="translate(-1.37 -1.37)"/><path class="b" d="M807.23,637.92c.09,13-8.72,21.32-21.62,18.6C761,651.33,742.18,637,728.18,616.34c-3.79-5.62-2.63-10.86,1.86-15.82a40.89,40.89,0,0,1,53.58-5.91C796,603.44,807.13,623.87,807.23,637.92Z" transform="translate(-1.37 -1.37)"/></svg>