<svg xmlns="http://www.w3.org/2000/svg" viewBox="0 0 1943.64 1093.68"><defs><style>.a{fill:#ffffff;}.b{fill:#41c7f6;}</style></defs><title>1800f_00112</title><path class="a" d="M801.39,931.92H408.28c6.13-8.61,12.65-16.93,16.79-26.83,19.82-47.4,20.11-95.22.83-142.5-16.33-40-34.29-79.37-52.17-118.73-6-13.28-13.06-26.33-24-36.54-6.45-6-13-5.93-19.49-.06A64.29,64.29,0,0,0,319,620.57c-8.38,13.23-16.69,26.51-25.22,39.65-11.6,17.85-29.49,29.68-43.7,45.07a68.64,68.64,0,0,0-16.56,29.26c-4.86,18.09-7,36.64-9.88,55.06-4.23,27.2-7.84,54.48-5,82.15,2.1,20.73,8.2,39.5,24.56,53.73,2.43,2.1,5.9,3.1,7.23,6.43q-265.46,0-530.92.16c-5.69,0-6.5-1.43-6.5-6.69q.23-403.5.13-807c12.68.9,25.24-1,37.78-2.12a637.28,637.28,0,0,1,141.45,3.11c26.07,3.42,52.19,6.6,78.6,4.67,25.45-1.86,50.89-4.2,76.38-5.26,50.21-2.08,97-15.18,140.77-40,61.94-35.15,127.35-61.31,197.54-75.3,33-6.58,65.45-8.73,98.09,1.3,16.92,5.19,33.7,10.78,50.25,17,15.12,5.72,30.09,11.93,46.46,13.36,41.67,3.65,83.4,1.68,125.08.63,41.43-1,82.9-3.43,124.21.75,56.82,5.75,108.41,27.51,158.11,54.32,25.83,13.94,40.72,36.46,48.64,64,6.81,23.71,4.1,47.67.68,71.47-3.79,26.41-6.27,52.76-.62,79.17,4.3,20.06,11.15,39,26.86,53.26,11,10,22.23,10.64,34.43,2.17a117.63,117.63,0,0,0,23.64-22.34c21-25.58,42.23-51,62.67-77.09,29.5-37.57,49.19-79.4,52.41-127.82,1.44-21.68,3.2-43.34,6.53-64.81,3.19-20.59-1-26.39-21.85-27-10.36-.31-20.74.07-31.11.14-7.08.05-14.18.46-21.23.06a116.72,116.72,0,0,1-50-14c-15.55-8.52-23-22.51-20.92-38.78a127.18,127.18,0,0,1,3.37-17.09c6.53-23.65,15.51-46.5,22.91-69.87,7-22,19.76-40.21,35.46-56.7,1.79-1.88,4.83-3.13,4.39-6.57h121.42c-.94,2-.28,4,.16,5.93,4.55,20.15,3.41,40.22-1.32,60.11-8.31,34.89-16.91,69.71-25.52,104.53a62.4,62.4,0,0,0-1.73,14.24c-.12,11.16,2,13.34,13.22,15,18.78,2.8,37.74,3.29,56.62,3.92,26,.86,48,9.32,66.85,27.59,20.77,20.19,38.81,42.53,55.84,65.82q51.87,71,41.17,158.11c-2.5,20.31-6.78,40.35-8.25,60.81-2.37,32.85-1.68,65.65-.08,98.5a635.79,635.79,0,0,0,12.4,99.91c14.9,70.88,50.12,127.92,113.23,165.85,15.32,9.22,30.53,18.75,47.75,24.27v173c-6.82,0-13.66.29-20.46-.08-19.49-1-38.55-4.78-53.8-17.6-20.6-17.32-44.76-24.22-70.56-26-68.21-4.6-128.25,16.84-181.51,58.82H886.38C858.05,926.25,829.72,926.73,801.39,931.92ZM76.51,396.76c-.52-7.3-.43-14.71-1.67-21.88C65.93,323.51,44.57,277.59,12.23,237-.4,221.13-15.27,207.2-35.83,201.52c-18.54-5.12-36.28,2.18-44.76,19.33-11.52,23.3-11.56,48.08-6.11,72.63,13.12,59.12,47.39,105.28,91.53,145a113.74,113.74,0,0,0,29,19.17c15.28,6.93,26.55,3.05,33.73-12C74.9,430.18,76.41,413.62,76.51,396.76Z" transform="translate(287.01 161.03)"/><path class="b" d="M1164.14-160.88c.44,3.44-2.6,4.69-4.39,6.57-15.7,16.49-28.47,34.67-35.46,56.7-7.4,23.37-16.38,46.22-22.91,69.87A127.18,127.18,0,0,0,1098-10.65c-2.13,16.27,5.37,30.26,20.92,38.78a116.72,116.72,0,0,0,50,14c7,.4,14.15,0,21.23-.06,10.37-.07,20.75-.45,31.11-.14,20.82.62,25,6.42,21.85,27-3.33,21.47-5.09,43.13-6.53,64.81-3.22,48.42-22.91,90.25-52.41,127.82-20.44,26-41.63,51.51-62.67,77.09A117.63,117.63,0,0,1,1097.85,361c-12.2,8.47-23.44,7.83-34.43-2.17-15.71-14.3-22.56-33.2-26.86-53.26-5.65-26.41-3.17-52.76.62-79.17,3.42-23.8,6.13-47.76-.68-71.47-7.92-27.57-22.81-50.09-48.64-64C938.16,64.06,886.57,42.3,829.75,36.55c-41.31-4.18-82.78-1.79-124.21-.75-41.68,1.05-83.41,3-125.08-.63-16.37-1.43-31.34-7.64-46.46-13.36-16.55-6.27-33.33-11.86-50.25-17-32.64-10-65.07-7.88-98.09-1.3-70.19,14-135.6,40.15-197.54,75.3-43.79,24.85-90.56,37.95-140.77,40-25.49,1.06-50.93,3.4-76.38,5.26-26.41,1.93-52.53-1.25-78.6-4.67a637.28,637.28,0,0,0-141.45-3.11c-12.54,1.14-25.1,3-37.78,2.12q0-136.21-.15-272.44c0-5.69,1.29-7,7-7Q442.06-160.8,1164.14-160.88Z" transform="translate(287.01 161.03)"/><path class="b" d="M1655.9,743.71c-17.22-5.52-32.43-15.05-47.75-24.27-63.11-37.93-98.33-95-113.23-165.85a635.79,635.79,0,0,1-12.4-99.91c-1.6-32.85-2.29-65.65.08-98.5,1.47-20.46,5.75-40.5,8.25-60.81q10.74-87.33-41.17-158.11c-17-23.29-35.07-45.63-55.84-65.82C1375,52.17,1353,43.71,1327,42.85c-18.88-.63-37.84-1.12-56.62-3.92-11.18-1.66-13.34-3.84-13.22-15a62.4,62.4,0,0,1,1.73-14.24c8.61-34.82,17.21-69.64,25.52-104.53,4.73-19.89,5.87-40,1.32-60.11-.44-1.93-1.1-3.93-.16-5.93q182.13,0,364.26-.15c5.2,0,6.33,1,6.23,6.22-.38,20.74-.15,41.48-.15,62.23-16,3.75-30.23,10.5-41.62,23-20.74,22.7-18.54,52,5.54,70.62,10.71,8.29,22.94,12.29,36.08,14.19Z" transform="translate(287.01 161.03)"/><path class="b" d="M250.43,931.92c-1.33-3.33-4.8-4.33-7.23-6.43-16.36-14.23-22.46-33-24.56-53.73-2.81-27.67.8-55,5-82.15,2.86-18.42,5-37,9.88-55.06a68.64,68.64,0,0,1,16.56-29.26c14.21-15.39,32.1-27.22,43.7-45.07,8.53-13.14,16.84-26.42,25.22-39.65a64.29,64.29,0,0,1,11.19-13.31c6.47-5.87,13-6,19.49.06,11,10.21,18,23.26,24,36.54,17.88,39.36,35.84,78.72,52.17,118.73,19.28,47.28,19,95.1-.83,142.5-4.14,9.9-10.66,18.22-16.79,26.83Z" transform="translate(287.01 161.03)"/><path class="b" d="M1329.57,931.92c53.26-42,113.3-63.42,181.51-58.82,25.8,1.74,50,8.64,70.56,26,15.25,12.82,34.31,16.55,53.8,17.6,6.8.37,13.64.07,20.46.08,0,5.06,2,12.09-.56,14.62s-9.56.56-14.62.56Z" transform="translate(287.01 161.03)"/><path class="a" d="M1655.9,15.18c-13.14-1.9-25.37-5.9-36.08-14.19-24.08-18.63-26.28-47.92-5.54-70.62,11.39-12.45,25.6-19.2,41.62-23Z" transform="translate(287.01 161.03)"/><path class="b" d="M801.39,931.92c28.33-5.19,56.66-5.67,85,0Z" transform="translate(287.01 161.03)"/><path class="b" d="M76.51,396.76c-.1,16.86-1.61,33.42-9,48.85-7.18,15.06-18.45,18.94-33.73,12a113.74,113.74,0,0,1-29-19.17c-44.14-39.69-78.41-85.85-91.53-145-5.45-24.55-5.41-49.33,6.11-72.63,8.48-17.15,26.22-24.45,44.76-19.33C-15.27,207.2-.4,221.13,12.23,237c32.34,40.61,53.7,86.53,62.61,137.9C76.08,382.05,76,389.46,76.51,396.76Z" transform="translate(287.01 161.03)"/></svg>