<svg xmlns="http://www.w3.org/2000/svg" viewBox="0 0 1366.29 768.28"><defs><style>.a{fill:#ffffff;}.b{fill:#41c7f6;}</style></defs><title>1800f_00030</title><path class="a" d="M1367.52,376.41V452.3a9.24,9.24,0,0,0-2.19.54c-39.74,21-79.32,42.3-115.81,68.74-21.19,15.34-39,34-48.51,58.8-17,44.36-32.44,89.26-36.37,137.06-1.42,17.29-3.45,34.69-.5,52.08H346.05a187.74,187.74,0,0,0-52.65-56.89c-36.11-25.76-76.87-41.25-118.93-53.91-7.5-2.25-15.11-4.28-22.05-8s-7.72-8.23-2.18-13.83a99.28,99.28,0,0,1,12.23-10.14c20.22-14.75,42.16-27,62.11-42.18C250.25,565,264.13,540,263,507.12c-.64-18.7-.51-37.43-.2-56.14.32-19,2.43-37.83,8.7-56,4.81-13.9,12.2-26.65,18.11-40.06,16-36.32,26.75-74.67,42.55-111.1a42.38,42.38,0,0,0,3.42-20c-.54-7.34-5.27-10.86-12.4-8.91-7.44,2-13.88,6.06-19.93,10.69-27.91,21.34-54.53,44.34-83,64.89-9.46,6.82-19.16,13.23-30.36,16.91-12.41,4.08-22.93,1-31.5-8.67-7.55-8.5-10.68-18.81-11.33-29.92-.74-12.66.81-25.24,1.43-37.86,1.52-31.2-5.55-61.28-12.81-91.26s-15-59.8-22.2-89.77c-2.1-8.74.31-13.45,8.24-17.33,5.65-2.76,11.68-4.78,17.6-7,17.56-6.47,34.93-13.33,50.42-24.12H919.77c3.56,8.43,9,15.77,13.78,23.47,19.89,32,46.09,58.88,71.36,86.45,27.36,29.86,54.76,59.59,75.17,94.95a110.08,110.08,0,0,0,19.27,24.33c14,13.37,20.15,29.91,20.79,48.91.44,12.88.9,25.77,1.59,38.64.86,15.9,1.82,31.84,6.59,47.17,3.64,11.69,9.88,15.24,21.88,12.91a219.7,219.7,0,0,1,33.08-3.87c34.59-1.39,69.19-3,103.44-8.44,23.2-3.71,45.82-2.73,67.73,6.62C1358.59,374.42,1363.15,375.19,1367.52,376.41Zm-601.81,15c-4,.49-8.06.68-12,1.51-19,4-37.17,11.29-56.5,14.19-19.89,3-36.42,13.12-51.39,26-14.31,12.31-13.28,25.61,2.69,35.65A61.88,61.88,0,0,0,659.4,474c15,5.68,30.63,6.2,46.33,4.94,17.1-1.36,33.73.24,50,5.79,18.16,6.18,36.15,12.93,55,16.79,15.17,3.11,30.38,5.34,45.71,1.06,11.2-3.12,20.95-8.38,24.09-20.57,2.94-11.46-4.13-19.3-11.75-26.15-15-13.51-30.14-26.94-45.72-39.79C806.48,402.32,788.45,391.34,765.71,391.4ZM735,545c-23.64.07-51.06,17.39-59.82,36-5,10.52-1.62,19.45,9.15,24.1a36.67,36.67,0,0,0,8.63,2.78c27.26,4.31,52.68-.87,75.9-15.77,7.94-5.1,10-11.94,7.51-21.09a28.67,28.67,0,0,0-11.94-16.93A55.35,55.35,0,0,0,735,545ZM999,344.5c-.25,11,5,14.94,13.66,10.81,21.19-10.07,33.6-27.46,38.75-50.06,1-4.39,1-9.61-3.31-12.48-4.47-3-9.27-1-13.54,1.4-12.69,7.25-21.1,18.47-28.19,30.85C1002.54,331.61,999.46,338.47,999,344.5Z" transform="translate(-1.37 -1.39)"/><path class="b" d="M189.72,1.52c-15.49,10.79-32.86,17.65-50.42,24.12-5.92,2.19-12,4.21-17.6,7-7.93,3.88-10.34,8.59-8.24,17.33,7.21,30,14.94,59.81,22.2,89.77S150,199.77,148.47,231c-.62,12.62-2.17,25.2-1.43,37.86.65,11.11,3.78,21.42,11.33,29.92,8.57,9.65,19.09,12.75,31.5,8.67,11.2-3.68,20.9-10.09,30.36-16.91,28.52-20.55,55.14-43.55,83-64.89,6.05-4.63,12.49-8.67,19.93-10.69,7.13-2,11.86,1.57,12.4,8.91a42.38,42.38,0,0,1-3.42,20c-15.8,36.43-26.55,74.78-42.55,111.1-5.91,13.41-13.3,26.16-18.11,40.06-6.27,18.12-8.38,37-8.7,56-.31,18.71-.44,37.44.2,56.14,1.1,32.88-12.78,57.83-38.45,77.42-20,15.22-41.89,27.43-62.11,42.18a99.28,99.28,0,0,0-12.23,10.14c-5.54,5.6-4.71,10.11,2.18,13.83s14.55,5.78,22.05,8c42.06,12.66,82.82,28.15,118.93,53.91a187.74,187.74,0,0,1,52.65,56.89q-169.23,0-338.46.14c-5.2,0-6.22-1-6.22-6.22q.25-374.88.15-749.78c1.19.92,2.46,1.75,3.56,2.76C20.74,30.69,39,31.94,58.29,26.57c8.75-2.44,10.3-7.26,5.14-14.69C60.86,8.18,57.59,5,54.64,1.52Z" transform="translate(-1.37 -1.39)"/><path class="b" d="M1367.52,376.41c-4.37-1.22-8.93-2-13.07-3.75-21.91-9.35-44.53-10.33-67.73-6.62-34.25,5.48-68.85,7-103.44,8.44a219.7,219.7,0,0,0-33.08,3.87c-12,2.33-18.24-1.22-21.88-12.91-4.77-15.33-5.73-31.27-6.59-47.17-.69-12.87-1.15-25.76-1.59-38.64-.64-19-6.84-35.54-20.79-48.91a110.08,110.08,0,0,1-19.27-24.33c-20.41-35.36-47.81-65.09-75.17-94.95C979.64,83.87,953.44,57,933.55,25c-4.78-7.7-10.22-15-13.78-23.47h92.59c.65,2.69,1.1,5.44,2,8.05,4.65,13.69,14.07,22.62,28.09,25.84,12.11,2.78,22.25-1.73,30.34-10.9,5.82-6.59,8-15,10.92-23h159.37c7.76,5.65,15.53,11.28,23.27,17,18.47,13.58,32.22,30,32.46,54.44.06,5.81.37,11.63.26,17.44-.43,25.23,7.69,47.7,22,68.14,11.44,16.37,26.46,27.58,46.51,31.21Z" transform="translate(-1.37 -1.39)"/><path class="b" d="M1164.14,769.52c-3-17.39-.92-34.79.5-52.08,3.93-47.8,19.38-92.7,36.37-137.06,9.51-24.83,27.32-43.46,48.51-58.8,36.49-26.44,76.07-47.74,115.81-68.74a9.24,9.24,0,0,1,2.19-.54q0,155.57.14,311.14c0,5.2-1,6.24-6.21,6.22C1295.68,769.44,1229.91,769.52,1164.14,769.52Z" transform="translate(-1.37 -1.39)"/><path class="a" d="M1367.52,189.72c-20-3.63-35.07-14.84-46.51-31.21-14.27-20.44-22.39-42.91-22-68.14.11-5.81-.2-11.63-.26-17.44-.24-24.46-14-40.86-32.46-54.44-7.74-5.69-15.51-11.32-23.27-17,39.72,0,79.43.09,119.14-.13,4.54,0,5.46.91,5.45,5.44C1367.46,67.8,1367.52,128.76,1367.52,189.72Z" transform="translate(-1.37 -1.39)"/><path class="a" d="M1083.69,1.52c-2.91,8-5.1,16.4-10.92,23-8.09,9.17-18.23,13.68-30.34,10.9-14-3.22-23.44-12.15-28.09-25.84-.88-2.61-1.33-5.36-2-8Z" transform="translate(-1.37 -1.39)"/><path class="a" d="M54.64,1.52c3,3.44,6.22,6.66,8.79,10.36,5.16,7.43,3.61,12.25-5.14,14.69C39,31.94,20.74,30.69,5.08,16.42c-1.1-1-2.37-1.84-3.56-2.76,0-12.14,0-12.14,12.14-12.14Z" transform="translate(-1.37 -1.39)"/><path class="b" d="M765.71,391.4c22.74-.06,40.77,10.92,57.37,24.63,15.58,12.85,30.7,26.28,45.72,39.79,7.62,6.85,14.69,14.69,11.75,26.15-3.14,12.19-12.89,17.45-24.09,20.57-15.33,4.28-30.54,2-45.71-1.06-18.86-3.86-36.85-10.61-55-16.79-16.28-5.55-32.91-7.15-50-5.79-15.7,1.26-31.34.74-46.33-4.94a61.88,61.88,0,0,1-10.88-5.23c-16-10-17-23.34-2.69-35.65,15-12.86,31.5-23,51.39-26,19.33-2.9,37.5-10.17,56.5-14.19C757.65,392.08,761.71,391.89,765.71,391.4Z" transform="translate(-1.37 -1.39)"/><path class="b" d="M735,545a55.35,55.35,0,0,1,29.43,9.06A28.67,28.67,0,0,1,776.39,571c2.48,9.15.43,16-7.51,21.09C745.66,607,720.24,612.2,693,607.89a36.67,36.67,0,0,1-8.63-2.78c-10.77-4.65-14.11-13.58-9.15-24.1C684,562.43,711.38,545.11,735,545Z" transform="translate(-1.37 -1.39)"/><path class="b" d="M999,344.5c.5-6,3.58-12.89,7.37-19.48,7.09-12.38,15.5-23.6,28.19-30.85,4.27-2.45,9.07-4.39,13.54-1.4,4.3,2.87,4.31,8.09,3.31,12.48-5.15,22.6-17.56,40-38.75,50.06C1003.92,359.44,998.71,355.47,999,344.5Z" transform="translate(-1.37 -1.39)"/></svg>