<svg xmlns="http://www.w3.org/2000/svg" viewBox="0 0 1943.04 1093.11"><defs><style>.a{fill:#ffffff;}.b{fill:#41c7f6;}</style></defs><title>1800f_00232</title><path class="a" d="M-286.86-12.14c0-47.26.1-94.52-.13-141.78,0-5.42.81-7.13,6.81-7.13q320.72.3,641.41.17c5.18,13.83,13.51,26,21.14,38.42C400.36-93,417-63.24,424.45-28.9c7.29,33.83,16.23,67.3,24.26,101,2.81,11.78,5.79,23.55,5.35,35.87-.42,11.38-5.63,15.64-16.63,12.72-9.58-2.53-18.5-6.7-27.14-11.56-39-21.94-74.08-49.18-108.14-77.93C289.79,20.75,277.35,10.34,263,2.63c-19.32-10.38-32.85-5.45-40.93,14.91-4.68,11.78-7.19,24.18-9.68,36.58-4,20.06-7.31,40.45-18.62,58.11-31.65,49.39-68.15,94.85-111.27,134.71C48.7,278.19,11.64,304.79-31,322.91-50.13,331-69.27,339.06-87.5,349c-24.26,13.18-47.94,27.26-67.19,47.54-9.8,10.33-9.9,17.92.32,28a129.9,129.9,0,0,0,45,28.93C-71.56,468-32.27,476.52,8.16,477.72c60.66,1.8,120-7.61,177.72-26,52.7-16.8,105.81-25.43,161.19-15.24a163.8,163.8,0,0,0,58.91,0c32.15-5.85,54.82-24.67,70.52-52.47,17.51-31,22.74-65.66,29-100,3.47-19.12,5.79-38.47,10.8-57.31,4.22-15.86,13.52-26.89,29.86-31.17,4.65-1.22,9.2-2.84,13.89-3.8,42.75-8.68,76.26-31.33,101.07-67,12.27-17.63,23.48-36,38.4-51.69,12.58-13.21,25-26.61,41.77-34.68,13.77-6.63,24.9-3.57,33.93,8.69a77.58,77.58,0,0,1,9.71,18c11.47,29.4,17.25,60.25,22.31,91.16,5.54,33.81,16.31,65,38.14,92,20.69,25.56,40.25,51.91,56.49,80.66,12.67,22.44,33.24,34.69,57.52,41.46,27.2,7.59,54.85,8.14,82.73,5.4,17.59-1.73,35.1-4.8,52.87-3.95,6.41.3,14.53-.7,17.12,6.69,2.65,7.59-4,12.49-9.1,16.92-9.82,8.5-21.15,14.77-32.76,20.39-65.21,31.59-127.47,68.25-187.7,108.43-10.95,7.31-21.76,14.75-31,24.26C838.43,562,834,577.21,841.6,595a187.64,187.64,0,0,0,8.55,17.73c14.34,25.61,28.78,51.11,35.32,80.2,5.08,22.61,6.1,45.58,6.48,68.56.61,36.92.06,73.87.9,110.78.45,19.92.9,39.93,4.16,59.69H526.67c-.33-13.13-4.39-25.36-9.65-37.15C500.19,857,473.17,827.17,442.89,800c-9.41-8.46-19.61-16-31.36-21-12.79-5.49-25.25-5-36.56,3.54-21.71,16.4-33.48,49.25-15.49,78.42,12.24,19.85,29.35,35.22,45.46,51.59,6.53,6.64,14.55,11.74,20,19.44H16.7c.05-7.22,3.08-13.74,4.86-20.55,8.8-33.7,23.94-63.69,50.27-87.47C85,812,99.74,802.17,113.51,791.08c16.59-13.37,23.13-30.42,19-51.06-6-29.71-13.25-59.16-21.17-88.43-8.08-29.87-25-53.44-51.07-70C11,550.32-42.69,531.39-100.38,523.52c-29.58-4-59.55-3.58-89.11-7.64-16.06-2.2-32-5.44-46.25-13.7-12.34-7.15-15-16.53-9-29.54,3.19-6.93,7.53-13.13,12-19.25,6.89-9.35,14-18.54,20.48-28.19,4.79-7.14,5.81-14.87.74-22.72a149.24,149.24,0,0,0-17.41-21.9c-27.86-29.2-47-63.07-55.67-102.68-.47-2.11-.09-4.66-2.25-6.22V138.12c5.35-34.68,11.29-69.32,9.5-104.62C-278.15,17.86-279.85,2.27-286.86-12.14Z" transform="translate(286.99 161.05)"/><path class="b" d="M897,931.92c-3.26-19.76-3.71-39.77-4.16-59.69-.84-36.91-.29-73.86-.9-110.78-.38-23-1.4-46-6.48-68.56-6.54-29.09-21-54.59-35.32-80.2A187.64,187.64,0,0,1,841.6,595c-7.6-17.75-3.17-33,9.91-46.44,9.25-9.51,20.06-16.95,31-24.26,60.23-40.18,122.49-76.84,187.7-108.43,11.61-5.62,22.94-11.89,32.76-20.39,5.1-4.43,11.75-9.33,9.1-16.92-2.59-7.39-10.71-6.39-17.12-6.69-17.77-.85-35.28,2.22-52.87,3.95-27.88,2.74-55.53,2.19-82.73-5.4-24.28-6.77-44.85-19-57.52-41.46-16.24-28.75-35.8-55.1-56.49-80.66-21.83-27-32.6-58.21-38.14-92-5.06-30.91-10.84-61.76-22.31-91.16a77.58,77.58,0,0,0-9.71-18c-9-12.26-20.16-15.32-33.93-8.69-16.75,8.07-29.19,21.47-41.77,34.68-14.92,15.68-26.13,34.06-38.4,51.69-24.81,35.63-58.32,58.28-101.07,67-4.69,1-9.24,2.58-13.89,3.8-16.34,4.28-25.64,15.31-29.86,31.17-5,18.84-7.33,38.19-10.8,57.31-6.23,34.32-11.46,69-29,100-15.7,27.8-38.37,46.62-70.52,52.47a163.8,163.8,0,0,1-58.91,0c-55.38-10.19-108.49-1.56-161.19,15.24-57.75,18.4-117.06,27.81-177.72,26-40.43-1.2-79.72-9.75-117.53-24.28a129.9,129.9,0,0,1-45-28.93c-10.22-10.08-10.12-17.67-.32-28,19.25-20.28,42.93-34.36,67.19-47.54,18.23-9.91,37.37-18,56.45-26.06,42.69-18.12,79.75-44.72,113.56-76,43.12-39.86,79.62-85.32,111.27-134.71,11.31-17.66,14.58-38,18.62-58.11,2.49-12.4,5-24.8,9.68-36.58C230.16-2.82,243.69-7.75,263,2.63c14.34,7.71,26.78,18.12,39.14,28.55,34.06,28.75,69.18,56,108.14,77.93,8.64,4.86,17.56,9,27.14,11.56,11,2.92,16.21-1.34,16.63-12.72.44-12.32-2.54-24.09-5.35-35.87-8-33.68-17-67.15-24.26-101C417-63.24,400.36-93,382.37-122.46c-7.63-12.46-16-24.59-21.14-38.42h452.3c-.17,2.72,2.15,3.83,3.58,5.49,16.66,19.23,38.57,26,63.08,26,33.15.05,57.61,16.12,77.42,41.14,17.62,22.26,32.75,46.19,46.83,70.77,25,43.56,56,81,101.76,104.32,33.12,16.9,67.68,26.6,105.15,23.34,38.71-3.37,76.32-11.89,113.17-24.13,17.76-5.9,35.76-11.1,54.69-11.55,26.81-.63,52.15,5.82,76.38,16.78,39.8,18,75.06,41,92.25,84,4,9.94,13.22,13.6,22.82,15.65,14.75,3.15,29.67,2,44.57,1,13.59-1,26.91-4.66,40.67-3.79V711.84c-6.83,14.16-10.54,29.39-15.2,44.29-5.1,16.33-7.67,33.5-17.26,48.33-14.48,22.43-35,29.2-59.49,18.76-17.73-7.57-32.17-19.9-46-33-32.17-30.42-57.5-66.4-83.52-101.92-31.39-42.86-48.47-90.35-52-143.29-3-45.37-9.09-90.52-11.24-136-1.78-37.85-3.91-75.75,6-113,2.06-7.78,3.37-15.87,1.72-24-3.44-16.94-16.34-23.43-31.1-27.35-39.73-10.54-99.25,18.7-114.9,56.89-5.33,13-3.34,26,6.44,36.77a138.88,138.88,0,0,0,14.87,14c22.41,18.34,26.17,34.48,13.8,60.66-8.56,18.12-19.74,34.69-30.42,51.57-24.87,39.32-49.51,78.71-66,122.64-15.22,40.62-27.78,81.74-30.48,125.38A107.61,107.61,0,0,1,1124.63,764c-8.22,13.08-17.49,25.37-26.75,37.67-20.25,26.92-35.3,56-37.88,90.29-1,13.33-2.4,26.64-3.63,40Z" transform="translate(286.99 161.05)"/><path class="a" d="M1056.37,931.92c1.23-13.32,2.64-26.63,3.63-40,2.58-34.34,17.63-63.37,37.88-90.29,9.26-12.3,18.53-24.59,26.75-37.67a107.61,107.61,0,0,0,16.52-51.39c2.7-43.64,15.26-84.76,30.48-125.38,16.45-43.93,41.09-83.32,66-122.64,10.68-16.88,21.86-33.45,30.42-51.57,12.37-26.18,8.61-42.32-13.8-60.66a138.88,138.88,0,0,1-14.87-14c-9.78-10.79-11.77-23.75-6.44-36.77,15.65-38.19,75.17-67.43,114.9-56.89,14.76,3.92,27.66,10.41,31.1,27.35,1.65,8.14.34,16.23-1.72,24-9.89,37.3-7.76,75.2-6,113.05,2.15,45.44,8.21,90.59,11.24,136,3.54,52.94,20.62,100.43,52,143.29,26,35.52,51.35,71.5,83.52,101.92,13.81,13.07,28.25,25.4,46,33,24.48,10.44,45,3.67,59.49-18.76,9.59-14.83,12.16-32,17.26-48.33,4.66-14.9,8.37-30.13,15.2-44.29,0,71.34-.08,142.67.14,214,0,5.2-1,6.22-6.22,6.21Q1353.11,931.81,1056.37,931.92Z" transform="translate(286.99 161.05)"/><path class="a" d="M1655.9,188.21c-13.76-.87-27.08,2.82-40.67,3.79-14.9,1.05-29.82,2.16-44.57-1-9.6-2-18.84-5.71-22.82-15.65-17.19-43-52.45-66-92.25-84-24.23-11-49.57-17.41-76.38-16.78-18.93.45-36.93,5.65-54.69,11.55-36.85,12.24-74.46,20.76-113.17,24.13-37.47,3.26-72-6.44-105.15-23.34-45.74-23.36-76.8-60.76-101.76-104.32C990.36-42,975.23-65.94,957.61-88.2c-19.81-25-44.27-41.09-77.42-41.14-24.51,0-46.42-6.82-63.08-26-1.43-1.66-3.75-2.77-3.58-5.49h687.55c-.49,2,.78,3.39,1.71,4.84,23.62,36.78,38.81,77.08,48.85,119.36,8.86,37.32,17.16,74.79,25.19,112.31,9.27,43.35,40.56,63.39,79.07,76.15Z" transform="translate(286.99 161.05)"/><path class="b" d="M-286.86,271.68c2.16,1.56,1.78,4.11,2.25,6.22,8.65,39.61,27.81,73.48,55.67,102.68a149.24,149.24,0,0,1,17.41,21.9c5.07,7.85,4.05,15.58-.74,22.72-6.45,9.65-13.59,18.84-20.48,28.19-4.51,6.12-8.85,12.32-12,19.25-6,13-3.29,22.39,9,29.54,14.28,8.26,30.19,11.5,46.25,13.7,29.56,4.06,59.53,3.61,89.11,7.64,57.69,7.87,111.41,26.8,160.6,58.05,26.1,16.58,43,40.15,51.07,70,7.92,29.27,15.14,58.72,21.17,88.43,4.18,20.64-2.36,37.69-19,51.06C99.74,802.17,85,812,71.83,823.9c-26.33,23.78-41.47,53.77-50.27,87.47-1.78,6.81-4.81,13.33-4.86,20.55H-160.88c-1.18-40.55-7.45-80.45-15.4-120.12-5.11-25.54-15.24-48.27-37.49-63.65-22.59-15.61-48-25.78-73.09-36.31Z" transform="translate(286.99 161.05)"/><path class="b" d="M1655.9,151.78c-38.51-12.76-69.8-32.8-79.07-76.15-8-37.52-16.33-75-25.19-112.31-10-42.28-25.23-82.58-48.85-119.36-.93-1.45-2.2-2.86-1.71-4.84,49.84,0,99.67.07,149.5-.13,4.53,0,5.45.91,5.44,5.44Q1655.78-1.9,1655.9,151.78Z" transform="translate(286.99 161.05)"/><path class="a" d="M-286.86,711.84c25.14,10.53,50.5,20.7,73.09,36.31,22.25,15.38,32.38,38.11,37.49,63.65,7.95,39.67,14.22,79.57,15.4,120.12-40.14,0-80.27-.12-120.4.14-5,0-5.69-1.44-5.68-5.92Q-286.75,819-286.86,711.84Z" transform="translate(286.99 161.05)"/><path class="b" d="M425,931.92c-5.49-7.7-13.51-12.8-20-19.44-16.11-16.37-33.22-31.74-45.46-51.59-18-29.17-6.22-62,15.49-78.42,11.31-8.55,23.77-9,36.56-3.54,11.75,5,22,12.56,31.36,21,30.28,27.22,57.3,57.09,74.13,94.82,5.26,11.79,9.32,24,9.65,37.15Z" transform="translate(286.99 161.05)"/><path class="b" d="M-286.86-12.14c7,14.41,8.71,30,9.5,45.64,1.79,35.3-4.15,69.94-9.5,104.62Z" transform="translate(286.99 161.05)"/></svg>