<svg xmlns="http://www.w3.org/2000/svg" viewBox="0 0 1366.26 768.3"><defs><style>.a{fill:#ffffff;}.b{fill:#42c7f6;}</style></defs><title>1800f_00086</title><path class="a" d="M1367.52,543.37v82C1347,634,1327,643.62,1309.44,657.67c-10.88,8.73-18.29,19.57-19.16,33.92a192.31,192.31,0,0,0,.59,26.5c1.31,17.11,3.28,34.21,2.28,51.43H221.6c2.63-3.18,6.63-3.46,10.15-4.44,10.23-2.83,20.46-5.75,30.85-7.82,59.43-11.82,102.78-44.2,128-99.78,11.91-26.28,16.24-52.9,3.51-80.53-6.23-13.52-10.56-27.9-16.49-41.58-11-25.43-17.88-51.51-14.94-79.53a67.72,67.72,0,0,0-.12-12.89c-1.1-12.9-2.81-25.68-10.26-36.82-8.67-12.94-21-12.41-28.29,1.4a33.6,33.6,0,0,0-3.4,10.77c-1.36,9.75-2.2,19.57-3.31,29.35-1.26,11-2.09,22.15-7.56,32.22-4.77,8.78-12,13.35-22,13.56-14.74.32-27-6.5-38.36-14.54a401.84,401.84,0,0,1-80-74.94C157.87,389.87,155,374.38,159.8,357c3.74-13.42,8-26.7,13.77-39.32,17-37.25,14.57-74.1-.73-111-9-21.78-21.64-41.09-42.76-52.5-30.68-16.58-60.84-9.13-89.88,5.43-11.72,5.88-16.78,16.6-17.63,29.83-1.43,22.62-10,43-21,62.5v-129c15.24-2.21,30.46-4.53,45.87-5.38,19.88-1.1,39.31.07,57.88,8.46,38.46,17.37,77.23,18,116.15,1.36C259.59,111.07,296.86,93,332.56,71.76c31.36-18.6,59.08-41.53,81.79-70.24h77.41c10.39,7.3,23,10.18,33.81,16.39,23.91,13.68,49.77,13.61,75.94,11.66,18.88-1.41,37.73-3.15,56.67-3.4a577.18,577.18,0,0,1,81.57,5.1c42,5.41,79.68-3.9,113.24-29.75H974.41c2.56,12.62,6,25.11,6.3,38.08.82,39.05,15.06,71.9,45.17,97.22,23.42,19.7,45.95,40.4,68.79,60.74,23.58,21,48.36,40.66,67.21,66.55,14.77,20.28,30.36,40,36.83,64.82,5,19.06,9.37,38.28,14,57.43,6.66,27.49,15.62,53.69,35.28,75.32,32.42,35.68,72.11,60.71,115.22,81.05C1364.56,543.37,1365.94,544.12,1367.52,543.37ZM804.89,753.92c8.9-.33,18.88.94,28.85,2.88,22,4.3,43.65,11.22,66.53,9.65,6.65-.46,13.11-1.54,18.76-5.23,7.8-5.09,8.88-12.82,3-20.07a43,43,0,0,0-13-10.28,91.41,91.41,0,0,0-24.74-9.43c-32.54-7.16-65.16-14-97.69-21.15-38.34-8.46-77-2.64-114.47,8.57-8.5,2.54-16.44,6.56-22.74,13.17-8.24,8.63-8.37,18.88-.34,27.74,5.62,6.2,12.87,9.72,20.59,12.35,21.51,7.33,43.3,6,65.14,1.84C757.59,759.66,780.14,753.62,804.89,753.92Zm367.28-93.82c-2.74.27-6.55.38-10.26,1a278.27,278.27,0,0,0-73.82,24.61c-13,6.41-25,14.37-34.6,25.43-10.84,12.49-9.14,25.63,4.54,34.77,14.25,9.52,29.19,10.21,44.62,3.09,10.44-4.81,18.93-12.51,28.07-19.24,18.49-13.61,38.23-25.71,53.9-42.81,5-5.47,11.87-11.62,8.64-19.68C1189.88,658.87,1180.7,660.55,1172.17,660.1Z" transform="translate(-1.39 -1.35)"/><path class="b" d="M1.52,252c11-19.49,19.62-39.88,21.05-62.5.85-13.23,5.91-23.95,17.63-29.83,29-14.56,59.2-22,89.88-5.43,21.12,11.41,33.72,30.72,42.76,52.5,15.3,36.92,17.73,73.77.73,111-5.76,12.62-10,25.9-13.77,39.32-4.83,17.35-1.93,32.84,9.53,46.92a401.84,401.84,0,0,0,80,74.94c11.36,8,23.62,14.86,38.36,14.54,10-.21,17.24-4.78,22-13.56,5.47-10.07,6.3-21.19,7.56-32.22,1.11-9.78,1.95-19.6,3.31-29.35a33.6,33.6,0,0,1,3.4-10.77c7.31-13.81,19.62-14.34,28.29-1.4,7.45,11.14,9.16,23.92,10.26,36.82a67.72,67.72,0,0,1,.12,12.89c-2.94,28,3.91,54.1,14.94,79.53,5.93,13.68,10.26,28.06,16.49,41.58,12.73,27.63,8.4,54.25-3.51,80.53-25.17,55.58-68.52,88-127.95,99.78-10.39,2.07-20.62,5-30.85,7.82-3.52,1-7.52,1.26-10.15,4.44H1.52V717.91c23.81-10.47,48.64-18.3,72.75-28A251.43,251.43,0,0,0,144.19,648c13.45-11.47,23.57-25.06,25.2-43.4,1.32-14.82-3.26-28.45-9.27-41.67-9.21-20.23-18.8-40.3-27.8-60.62-12.3-27.8-15.77-57.87-21.48-87.32-4.12-21.24-16.6-34.6-37-40.91-4.57-1.42-9.26-2.88-14-3.3C39.25,369,19.71,363.65,1.52,353.64Z" transform="translate(-1.39 -1.35)"/><path class="b" d="M1367.52,543.37c-1.58.75-3,0-4.31-.64-43.11-20.34-82.8-45.37-115.22-81.05-19.66-21.63-28.62-47.83-35.28-75.32-4.63-19.15-9-38.37-14-57.43-6.47-24.85-22.06-44.54-36.83-64.82-18.85-25.89-43.63-45.56-67.21-66.55-22.84-20.34-45.37-41-68.79-60.74-30.11-25.32-44.35-58.17-45.17-97.22-.27-13-3.74-25.46-6.3-38.08h165.44c-.66,2.2.56,3.93,1.48,5.69a466,466,0,0,1,26.88,63.49c4.71,13.61,9.9,27.07,17.61,39.38,4.85,7.75,11.88,11.73,21,10.91s15.06-6.55,18.86-14.56a27.47,27.47,0,0,0,2.66-7.88c3-22.23,7.05-44.34,4.36-67-1.18-10-4.14-19.8-3.29-30h107.76c-.73,2.49.76,4.4,1.84,6.32a267,267,0,0,0,28.52,40.73Z" transform="translate(-1.39 -1.35)"/><path class="a" d="M1.52,353.64c18.19,10,37.73,15.31,58.36,17.17,4.72.42,9.41,1.88,14,3.3,20.38,6.31,32.86,19.67,37,40.91,5.71,29.45,9.18,59.52,21.48,87.32,9,20.32,18.59,40.39,27.8,60.62,6,13.22,10.59,26.85,9.27,41.67-1.63,18.34-11.75,31.93-25.2,43.4a251.43,251.43,0,0,1-69.92,41.89c-24.11,9.69-48.94,17.52-72.75,28Z" transform="translate(-1.39 -1.35)"/><path class="b" d="M414.35,1.52c-22.71,28.71-50.43,51.64-81.79,70.24-35.7,21.2-73,39.31-111.14,55.62-38.92,16.64-77.69,16-116.15-1.36-18.57-8.39-38-9.56-57.88-8.46-15.41.85-30.63,3.17-45.87,5.38,0-38.14.11-76.28-.13-114.43,0-5.37.71-7.17,6.78-7.16Q211.26,1.68,414.35,1.52Z" transform="translate(-1.39 -1.35)"/><path class="b" d="M1293.15,769.52c1-17.22-1-34.32-2.28-51.43a192.31,192.31,0,0,1-.59-26.5c.87-14.35,8.28-25.19,19.16-33.92,17.53-14,37.56-23.65,58.08-32.34,0,46.29-.08,92.58.13,138.87,0,4.53-.91,5.51-5.45,5.45C1339.19,769.36,1316.17,769.52,1293.15,769.52Z" transform="translate(-1.39 -1.35)"/><path class="b" d="M853,1.52C819.43,27.37,781.8,36.68,739.75,31.27a577.18,577.18,0,0,0-81.57-5.1c-18.94.25-37.79,2-56.67,3.4-26.17,1.95-52,2-75.94-11.66-10.86-6.21-23.42-9.09-33.81-16.39Z" transform="translate(-1.39 -1.35)"/><path class="a" d="M1229.4,1.52c-.85,10.2,2.11,20,3.29,30,2.69,22.69-1.36,44.8-4.36,67a27.47,27.47,0,0,1-2.66,7.88c-3.8,8-9.67,13.74-18.86,14.56s-16.14-3.16-21-10.91c-7.71-12.31-12.9-25.77-17.61-39.38a466,466,0,0,0-26.88-63.49c-.92-1.76-2.14-3.49-1.48-5.69Z" transform="translate(-1.39 -1.35)"/><path class="a" d="M1367.52,48.57A267,267,0,0,1,1339,7.84c-1.08-1.92-2.57-3.83-1.84-6.32,8.86,0,17.72.19,26.56-.1,3.28-.11,4,.63,3.9,3.9C1367.39,19.73,1367.52,34.15,1367.52,48.57Z" transform="translate(-1.39 -1.35)"/><path class="b" d="M804.89,753.92c-24.75-.3-47.3,5.74-70.12,10-21.84,4.12-43.63,5.49-65.14-1.84-7.72-2.63-15-6.15-20.59-12.35-8-8.86-7.9-19.11.34-27.74,6.3-6.61,14.24-10.63,22.74-13.17,37.52-11.21,76.13-17,114.47-8.57,32.53,7.17,65.15,14,97.69,21.15A91.41,91.41,0,0,1,909,730.87a43,43,0,0,1,13,10.28c5.89,7.25,4.81,15-3,20.07-5.65,3.69-12.11,4.77-18.76,5.23-22.88,1.57-44.52-5.35-66.53-9.65C823.77,754.86,813.79,753.59,804.89,753.92Z" transform="translate(-1.39 -1.35)"/><path class="b" d="M1172.17,660.1c8.53.45,17.71-1.23,21.09,7.22,3.23,8.06-3.63,14.21-8.64,19.68-15.67,17.1-35.41,29.2-53.9,42.81-9.14,6.73-17.63,14.43-28.07,19.24-15.43,7.12-30.37,6.43-44.62-3.09-13.68-9.14-15.38-22.28-4.54-34.77,9.62-11.06,21.62-19,34.6-25.43a278.27,278.27,0,0,1,73.82-24.61C1165.62,660.48,1169.43,660.37,1172.17,660.1Z" transform="translate(-1.39 -1.35)"/></svg>