<svg xmlns="http://www.w3.org/2000/svg" viewBox="0 0 1943.16 1093.07"><defs><style>.a{fill:#ffffff;}.b{fill:#41c7f6;}</style></defs><title>1800f_00106</title><path class="a" d="M1287.08,931.92H979c-8-8.37-17.74-14.13-28.38-18.19C921,902.46,890,901.17,858.86,900.86c-33.27-.34-65.92,4.35-98.05,13-22.88,6.12-46.2,10.56-68.7,18.1H218.56L229,930.34c40-6.11,77.83-19.9,115.52-33.83,34.12-12.62,53.33-38,58.83-73.77,3.41-22.12-1-43.76-4.71-65.46C387.48,691.93,366.54,629.4,344,567.36a81.17,81.17,0,0,0-7.67-15.59c-4.4-6.93-8.92-6.48-12.82.88a37.13,37.13,0,0,0-2.93,7.79c-3.71,14.16-7.13,28.41-10.95,42.54-5.74,21.25-11.47,42.56-23.81,61.21-12.25,18.49-29.43,23.1-49.25,13.46a113.54,113.54,0,0,1-19.33-11.92c-21.46-16.44-42-34.05-64.05-49.75-28.8-20.51-58.48-39.81-86.12-62-13-10.42-16.79-23.67-14.82-39.62,3.71-30.08,11-59.6,13.79-89.83,3.15-34.09,4.31-68-3.1-101.87C54,282.16,33,247.86,9.17,214.89c-13.7-19-28.93-36.52-49.81-48-10.11-5.57-20.71-9.54-32.61-6-20,5.9-32.48,28.23-29.1,51.55,7.11,49.08,17.84,97.37,30.51,145.29,9.25,35,17.62,70.18,36.17,101.82C-17.89,489.82,0,520,28.52,542c6.92,5.33,11,11.82,10.44,21.37-.46,8,.92,16.09,2,24.07,3.38,24,14.58,44.72,29.12,63.39,23.28,29.91,40,63,52.59,98.55,8.73,24.66,12.31,49.4,4.59,75a200.75,200.75,0,0,1-24.94,53.16c-13.68,20.65-29.57,38.65-54.11,47.25-4.4,1.54-10.27,2.25-13.35,7.09H-286.86V89.55c3.53-.09,7.07,0,10.59-.31a574,574,0,0,1,156.21,8.83c22.92,4.54,46,7,69.07.59C-14.07,88.45,23.7,83.48,61.79,80.28c46.6-3.91,91.15-15.54,132.39-38,28-15.24,55.45-31.36,83.21-47,24.88-14,48.9-29.59,74.87-41.62C381.6-59.93,399.65-56.73,422-34a63.34,63.34,0,0,0,18.46,13c14.07,6.6,29.21,7.81,44.36,8.56,20.95,1,42,1,62.89,2.41,50.42,3.44,100.82,6.78,151.38,7.18,30.83.24,61.7.19,92.49,1.69,54.53,2.65,106.6,16.89,157.25,36.54,23.36,9.07,43.83,22,55.47,45.62A311.79,311.79,0,0,1,1029,149.36c6.57,28.74,7.31,58.1,9,87.35,1,17.3,3.65,34.25,13.35,49.17,7.87,12.11,18.62,15.64,32.14,10.86a82.21,82.21,0,0,0,20-10.69c20.69-14.61,39.6-31.45,58.77-47.88,35.63-30.53,52-70.29,51.32-116.73-.35-22-1-44-.38-66,.24-8.85.07-17.62-.56-26.41-.57-8-4.63-14.11-11.77-17.31-19.84-8.87-39.93-17.12-61.12-22.41-13.47-3.36-27.15-5.9-40.31-10.54-22.78-8-31.8-23.42-27-47.2,6-29.82,22.24-54.44,40.14-78.22,3.56-4.73,8.93-8.15,10.61-14.27h129c0,20.07-3.55,39.72-7,59.38-4.62,26.63-8.92,53.27-10.07,80.36-.59,13.76,5.12,22.71,17.74,27.6,3.77,1.47,7.46,3.12,11.29,4.41,22.27,7.51,44.64,14.72,66.83,22.48,14.3,5,29,9.66,40.58,20,53.74,47.91,90.06,104.63,91.41,179.44.53,29.36-1.69,58.59-2.39,87.87-1.68,69.47,10.62,137.4,26.17,204.7,9.57,41.42,27.2,79.34,55.92,111.34,22.88,25.51,51,44.38,79.94,62.17,10.67,6.57,21.06,13.85,33.28,17.54V862.1c-13.84,3.07-28,4.12-42,4.64-40.67,1.5-80.95,6.33-121,13.17-35.79,6.11-71.79,7.6-107.78,2.38C1338.31,875.5,1302.48,905.14,1287.08,931.92Z" transform="translate(287.01 161.03)"/><path class="b" d="M1123.16-160.88c-1.68,6.12-7.05,9.54-10.61,14.27-17.9,23.78-34.13,48.4-40.14,78.22-4.78,23.78,4.24,39.18,27,47.2,13.16,4.64,26.84,7.18,40.31,10.54,21.19,5.29,41.28,13.54,61.12,22.41,7.14,3.2,11.2,9.33,11.77,17.31.63,8.79.8,17.56.56,26.41-.62,22,0,44,.38,66,.73,46.44-15.69,86.2-51.32,116.73-19.17,16.43-38.08,33.27-58.77,47.88a82.21,82.21,0,0,1-20,10.69c-13.52,4.78-24.27,1.25-32.14-10.86C1041.65,271,1039,254,1038,236.71c-1.7-29.25-2.44-58.61-9-87.35a311.79,311.79,0,0,0-24.66-68.29c-11.64-23.63-32.11-36.55-55.47-45.62C898.21,15.8,846.14,1.56,791.61-1.09,760.82-2.59,730-2.54,699.12-2.78c-50.56-.4-101-3.74-151.38-7.18-20.92-1.43-41.94-1.37-62.89-2.41-15.15-.75-30.29-2-44.36-8.56A63.34,63.34,0,0,1,422-34c-22.38-22.76-40.43-26-69.77-12.37-26,12-50,27.61-74.87,41.62-27.76,15.63-55.24,31.75-83.21,47-41.24,22.47-85.79,34.1-132.39,38C23.7,83.48-14.07,88.45-51,98.66c-23.09,6.39-46.15,4-69.07-.59a574,574,0,0,0-156.21-8.83c-3.52.27-7.06.22-10.59.31q0-121.8-.15-243.6c0-5.69,1.29-7,7-7Q421.56-160.8,1123.16-160.88Z" transform="translate(287.01 161.03)"/><path class="b" d="M1655.9,716.39c-12.22-3.69-22.61-11-33.28-17.54-28.9-17.79-57.06-36.66-79.94-62.17-28.72-32-46.35-69.92-55.92-111.34-15.55-67.3-27.85-135.23-26.17-204.7.7-29.28,2.92-58.51,2.39-87.87-1.35-74.81-37.67-131.53-91.41-179.44-11.57-10.32-26.28-15-40.58-20-22.19-7.76-44.56-15-66.83-22.48-3.83-1.29-7.52-2.94-11.29-4.41-12.62-4.89-18.33-13.84-17.74-27.6,1.15-27.09,5.45-53.73,10.07-80.36,3.42-19.66,7-39.31,7-59.38q198.45,0,396.9-.15c5.69,0,7.7,1.25,6.92,7-.5,3.73-.09,7.58-.09,11.37-15.35,15.46-25.64,34.24-35.07,53.56-6.17,12.64-10.77,25.91-9.28,40.07,3.14,29.87,21,50.45,44.35,67.26Z" transform="translate(287.01 161.03)"/><path class="b" d="M34.91,931.92c3.08-4.84,9-5.55,13.35-7.09,24.54-8.6,40.43-26.6,54.11-47.25a200.75,200.75,0,0,0,24.94-53.16c7.72-25.6,4.14-50.34-4.59-75-12.57-35.54-29.31-68.64-52.59-98.55C55.59,632.2,44.39,611.47,41,587.48c-1.13-8-2.51-16.11-2-24.07.55-9.55-3.52-16-10.44-21.37C0,520-17.89,489.82-35.67,459.49c-18.55-31.64-26.92-66.83-36.17-101.82-12.67-47.92-23.4-96.21-30.51-145.29-3.38-23.32,9.13-45.65,29.1-51.55,11.9-3.52,22.5.45,32.61,6,20.88,11.52,36.11,29.06,49.81,48C33,247.86,54,282.16,62.89,322.71c7.41,33.86,6.25,67.78,3.1,101.87-2.8,30.23-10.08,59.75-13.79,89.83-2,16,1.8,29.2,14.82,39.62,27.64,22.14,57.32,41.44,86.12,62,22.07,15.7,42.59,33.31,64.05,49.75a113.54,113.54,0,0,0,19.33,11.92c19.82,9.64,37,5,49.25-13.46,12.34-18.65,18.07-40,23.81-61.21,3.82-14.13,7.24-28.38,10.95-42.54a37.13,37.13,0,0,1,2.93-7.79c3.9-7.36,8.42-7.81,12.82-.88A81.17,81.17,0,0,1,344,567.36c22.59,62,43.53,124.57,54.72,189.92,3.71,21.7,8.12,43.34,4.71,65.46-5.5,35.73-24.71,61.15-58.83,73.77-37.69,13.93-75.5,27.72-115.52,33.83l-10.47,1.58Z" transform="translate(287.01 161.03)"/><path class="b" d="M1287.08,931.92c15.4-26.78,51.23-56.42,98-49.63,36,5.22,72,3.73,107.78-2.38,40.08-6.84,80.36-11.67,121-13.17,14.08-.52,28.19-1.57,42-4.64,0,21.5-.17,43,.13,64.5.06,4.54-.92,5.45-5.45,5.44q-150.25-.24-300.52-.12Z" transform="translate(287.01 161.03)"/><path class="b" d="M692.11,931.92c22.5-7.54,45.82-12,68.7-18.1,32.13-8.61,64.78-13.3,98.05-13,31.11.31,62.17,1.6,91.73,12.87,10.64,4.06,20.4,9.82,28.38,18.19Z" transform="translate(287.01 161.03)"/><path class="a" d="M1655.9,18.22c-23.32-16.81-41.21-37.39-44.35-67.26-1.49-14.16,3.11-27.43,9.28-40.07,9.43-19.32,19.72-38.1,35.07-53.56Z" transform="translate(287.01 161.03)"/></svg>