<svg xmlns="http://www.w3.org/2000/svg" viewBox="0 0 1943.05 1093.14"><defs><style>.a{fill:#ffffff;}.b{fill:#41c7f6;}</style></defs><title>1800f_00317</title><path class="a" d="M-286.86,239.81v-88c.39-.31.95-.54,1.14-.94,15.11-32.48,35.73-61.65,55.33-91.39,21.91-33.26,38.68-68.58,46.81-107.83,4.4-21.26,8.61-42.7,17.46-62.7,10.47-23.67,25.14-30.92,50.53-26.06,26.34,5,50.58,15.88,74.54,27.31C-8.27-94.21,22.42-76.51,37.49-40.18c5.79,14,19.24,20.91,34.26,23.71,15.93,3,31.75,1.32,47.53-1,29.75-4.3,59.38-9.55,89.22-13,40.38-4.68,80.76-9.06,120.66-17.21,50-10.23,98.77-25.73,148.63-36.69,44.72-9.83,88.57-22.8,131.85-37.75,13.78-4.75,27.51-6.52,40.56,2.87,3.24,2.33,7.51,2.4,11.73,1.54A70.5,70.5,0,0,0,687-128c14.48-9.54,28.76-19.37,40-32.89H1314.4c.77,2,2.75,2.09,4.34,2.6a535.64,535.64,0,0,0,96.56,21.84c23.74,3,47.64,5.67,70.62,13,13.61,4.34,22.87,13.37,27.92,26.73,1.43,3.77,2.91,7.52,4.33,11.3,8.52,22.7,24.75,36.58,48.53,40.68,11.89,2.05,24.09,2.18,36.22,1.94,11.44-.23,20.95,4.38,29.44,11.83,9.63,8.44,16.32,19.14,23.54,29.45V522.12c-3.41-.76-6.47.47-9.55,1.65-19.08,7.26-33,21.17-46.25,35.93-17.68,19.74-33.13,41.47-53.4,58.93-15.86,13.65-32.69,16.67-51.87,7.49-18-8.62-36.34-16.62-55.41-22.67a261.53,261.53,0,0,1-88.8-48.06c-34.93-28.92-60.48-63.31-69.1-109-4.82-25.62-12.09-50.65-27.86-72.29-15.63-21.44-37.58-27.77-62.11-17.49C1178.62,362,1167.26,370,1155.87,378c-11.82,8.27-23.71,16.37-36.79,22.61-20.8,9.92-40.26,8-58.12-6.62-8-6.55-16.19-13.12-23.15-20.72-24.84-27.1-55.53-44-90.3-54.8-24.62-7.62-49.67-13.82-73.76-23.21-29-11.31-40.42-6.78-53.24,21.94a566.82,566.82,0,0,0-27.64,77c-10.48,37.06.81,65,32.94,86.38a161.28,161.28,0,0,0,23.28,12.68c23.42,10.56,48.19,16.85,73.07,22.5,28.3,6.42,48.64,22.53,62.29,47.75,5.89,10.89,12.16,21.6,17.84,32.6,22.55,43.66,57,72.68,104.45,86.27,21.37,6.13,42.71,12.51,63.33,20.92a650.08,650.08,0,0,0,200.68,47c12.06.86,24.26,1.17,36.13,4,12.39,3,14.17,9.05,5.51,18.56-5.17,5.67-11.44,9.9-18.07,13.67-28.21,16.05-59,25.27-90.2,32.82C1256,831,1209,845.27,1165.65,869.77c-28.87,16.29-59,30.07-89.21,43.68-13.34,6-27,11.25-39.8,18.47H-36.43A653.73,653.73,0,0,0-64.7,738.44c-23.78-78.31-47.18-156.75-71.41-234.92a894.09,894.09,0,0,0-52-130.91C-212.91,322.26-254.88,284.77-286.86,239.81ZM805.36,1.37c-1.22-3.7,2.13-9.09-3.18-10.7-5.79-1.75-8.54,3.35-10.81,7.43-5.84,10.48-7.91,21.66-4.54,33.44.59,2,.74,4.93,3.66,5,2.46.07,3.94-1.94,5.1-4A71.51,71.51,0,0,0,805.36,1.37Z" transform="translate(287.01 161.03)"/><path class="b" d="M1036.64,931.92c12.77-7.22,26.46-12.46,39.8-18.47,30.2-13.61,60.34-27.39,89.21-43.68,43.39-24.5,90.38-38.8,138.47-50.43,31.23-7.55,62-16.77,90.2-32.82,6.63-3.77,12.9-8,18.07-13.67,8.66-9.51,6.88-15.6-5.51-18.56-11.87-2.83-24.07-3.14-36.13-4a650.08,650.08,0,0,1-200.68-47c-20.62-8.41-42-14.79-63.33-20.92-47.45-13.59-81.9-42.61-104.45-86.27-5.68-11-11.95-21.71-17.84-32.6-13.65-25.22-34-41.33-62.29-47.75-24.88-5.65-49.65-11.94-73.07-22.5a161.28,161.28,0,0,1-23.28-12.68c-32.13-21.34-43.42-49.32-32.94-86.38a566.82,566.82,0,0,1,27.64-77c12.82-28.72,24.22-33.25,53.24-21.94,24.09,9.39,49.14,15.59,73.76,23.21,34.77,10.76,65.46,27.7,90.3,54.8,7,7.6,15.13,14.17,23.15,20.72,17.86,14.59,37.32,16.54,58.12,6.62,13.08-6.24,25-14.34,36.79-22.61,11.39-8,22.75-16,35.68-21.42,24.53-10.28,46.48-3.95,62.11,17.49,15.77,21.64,23,46.67,27.86,72.29,8.62,45.74,34.17,80.13,69.1,109.05a261.53,261.53,0,0,0,88.8,48.06c19.07,6,37.4,14,55.41,22.67,19.18,9.18,36,6.16,51.87-7.49,20.27-17.46,35.72-39.19,53.4-58.93,13.22-14.76,27.17-28.67,46.25-35.93,3.08-1.18,6.14-2.41,9.55-1.65q0,201.86.14,403.73c0,5.19-1,6.22-6.22,6.21Q1343.24,931.81,1036.64,931.92Z" transform="translate(287.01 161.03)"/><path class="b" d="M-286.86,239.81c32,45,74,82.45,98.78,132.8a894.09,894.09,0,0,1,52,130.91c24.23,78.17,47.63,156.61,71.41,234.92A653.73,653.73,0,0,1-36.43,931.92c-81.13,0-162.27-.11-243.4.2-6.54,0-7.18-1.8-7.17-7.58Q-286.74,582.17-286.86,239.81Z" transform="translate(287.01 161.03)"/><path class="b" d="M727-160.88c-11.23,13.52-25.51,23.35-40,32.89a70.5,70.5,0,0,1-25.1,10.29c-4.22.86-8.49.79-11.73-1.54-13.05-9.39-26.78-7.62-40.56-2.87-43.28,15-87.13,27.92-131.85,37.75-49.86,11-98.59,26.46-148.63,36.69-39.9,8.15-80.28,12.53-120.66,17.21-29.84,3.47-59.47,8.72-89.22,13-15.78,2.29-31.6,4-47.53,1-15-2.8-28.47-9.76-34.26-23.71C22.42-76.51-8.27-94.21-41-109.83c-24-11.43-48.2-22.27-74.54-27.31-25.39-4.86-40.06,2.39-50.53,26.06-8.85,20-13.06,41.44-17.46,62.7-8.13,39.25-24.9,74.57-46.81,107.83-19.6,29.74-40.22,58.91-55.33,91.39-.19.4-.75.63-1.14.94q0-153.3-.15-306.59c0-5.2,1-6.22,6.22-6.22Q223.12-160.79,727-160.88Z" transform="translate(287.01 161.03)"/><path class="b" d="M1655.9-1.52c-7.22-10.31-13.91-21-23.54-29.45-8.49-7.45-18-12.06-29.44-11.83-12.13.24-24.33.11-36.22-1.94-23.78-4.1-40-18-48.53-40.68-1.42-3.78-2.9-7.53-4.33-11.3-5-13.36-14.31-22.39-27.92-26.73-23-7.32-46.88-10-70.62-13a535.64,535.64,0,0,1-96.56-21.84c-1.59-.51-3.57-.61-4.34-2.6q167.71,0,335.42-.15c5.2,0,6.25,1,6.23,6.22C1655.8-103.71,1655.9-52.61,1655.9-1.52Z" transform="translate(287.01 161.03)"/><path class="b" d="M805.36,1.37a71.51,71.51,0,0,1-9.77,31.19c-1.16,2-2.64,4-5.1,4-2.92-.07-3.07-3-3.66-5-3.37-11.78-1.3-23,4.54-33.44,2.27-4.08,5-9.18,10.81-7.43C807.49-7.72,804.14-2.33,805.36,1.37Z" transform="translate(287.01 161.03)"/></svg>