<svg xmlns="http://www.w3.org/2000/svg" viewBox="0 0 1943.06 1093.09"><defs><style>.a{fill:#ffffff;}.b{fill:#41c7f6;}</style></defs><title>1800f_00309</title><path class="a" d="M-286.86,273.2q0-213.79-.14-427.6c0-5.35,1-6.65,6.54-6.64q171.34.31,342.69.16c2.51,2.39,5.88,2.79,9,3.82,44.79,15,90.48,17.6,136.85,9.41,21.34-3.76,42.85-6.81,63.64-13.23H1572.42c-.81,2.85.29,5.46,1,8.14,9.47,36.71,22.31,72.39,33.26,108.65C1616.89-10.23,1626.73,23.72,1631,59c3.26,27.33,3.93,54.92,8.29,82.13,3,19,7.15,37.65,16.66,54.67V523.64c-3-2.83-4.78-6.51-6.62-10.08-19.06-37-42.84-70.22-75.25-97-30.69-25.33-62-49.49-98.3-66.61-28-13.23-55.15-14.44-82.27,2.64-14.07,8.86-28.36,17.53-44.54,22.47-26.68,8.15-52.45,2.93-78.09-4.84-31.62-9.59-54.23-29.35-67.09-59.93-10.14-24.1-27.74-39.82-52.61-47.72A329,329,0,0,0,1110,252c-27.35-4.94-52.42-14.81-74.65-31.7-5-3.82-10.44-7.13-15.79-10.49-23.76-15-49.12-25.91-76.89-31-29.6-5.43-59.65-7.4-89.39-11.77-32.08-4.71-61.78-14.78-87.79-34.78-9.6-7.38-19.71-14.16-30.84-19.23-16.56-7.54-30-3.92-40.19,11.1-8.27,12.17-10.59,26.16-11.44,40.36-2.35,39.23,2.93,77.68,12.6,115.63,3.25,12.76,8.35,24.89,12.76,37.27,12.81,36,38.31,58.4,73.42,71.55C816,401.71,851,411.71,886,421.51c36.11,10.11,67.06,26.48,92.17,55,18.61,21.12,42.83,35.33,69.35,45.06,30.73,11.26,62.66,18,94.85,23.27,71.63,11.64,142.68,26,212.95,44.15,15.9,4.11,31.83,8.48,45.77,17.69,18.56,12.25,18,24.5-1.69,34.77-14.17,7.41-29.46,12-44.51,17.19-63.69,21.84-122.92,51.55-174.31,96-27.24,23.54-58.56,37.74-95.79,34.72-16.52-1.34-32.31-5.63-47.82-11.24-11-4-22.08-6.86-33.91-7.42-27.9-1.3-51.69,10.19-75,23.24-31.48,17.64-59,40.9-87.14,63.1-27.93,22-58.3,36.5-94.72,37.7-36.68,1.21-73.34,2-110,.48q-69.82-2.79-139.49,1.35a302.47,302.47,0,0,1-46.24-.29C425.65,893.87,403,884.67,381,873.6c-27.54-13.86-54.43-29-82.62-41.63-39.9-17.87-79.8-21.26-121.36-5.09-38.16,14.85-76.69,28.77-114,45.67a508.43,508.43,0,0,0-99.41,59.37H-204.9c-.88-14.12,6.12-25.69,12.11-37.61a261.49,261.49,0,0,0,16.17-40.79c9.72-31.62,18-63.68,29.44-94.77,8.11-22.09,15.07-44.53,18-68,4.95-40.18-2.12-77.36-27.32-110.21-12-15.65-26.84-28.81-38-45.18-23-33.55-35.59-71.28-45-110.25-9.56-39.51-17.19-79.53-31.76-117.67C-275.84,295.74-279.49,283.62-286.86,273.2ZM427.68,651c12.38-.07,28.49-5.49,43.65-13.72,30.75-16.71,59.09-37,86.71-58.32,33.35-25.79,60.35-56.43,76.41-96.15,15.87-39.24,15.87-76.72-9.09-112.43-19.25-27.55-38.4-55.18-57.73-82.67a71.7,71.7,0,0,0-22.74-20.85c-11.81-6.89-22.83-3.89-29.5,8a70.77,70.77,0,0,0-8,23.6c-7.14,44.11-12.58,88.45-17.2,132.9C487.88,453.7,485,476,477.62,497.45c-10.3,30-30.23,54-49.27,78.54-11,14.13-22.86,27.75-27.86,45.56-3.87,13.79,1.65,23.84,15.21,28.17C419.67,651,423.64,651,427.68,651Z" transform="translate(287 161.04)"/><path class="b" d="M-36.43,931.92A508.43,508.43,0,0,1,63,872.55c37.33-16.9,75.86-30.82,114-45.67,41.56-16.17,81.46-12.78,121.36,5.09,28.19,12.63,55.08,27.77,82.62,41.63,22,11.07,44.67,20.27,69.54,22.61a302.47,302.47,0,0,0,46.24.29q69.72-4.12,139.49-1.35c36.63,1.47,73.29.73,110-.48C782.64,893.47,813,879,840.94,857c28.19-22.2,55.66-45.46,87.14-63.1,23.3-13,47.09-24.54,75-23.24,11.83.56,22.95,3.46,33.91,7.42,15.51,5.61,31.3,9.9,47.82,11.24,37.23,3,68.55-11.18,95.79-34.72,51.39-44.4,110.62-74.11,174.31-96,15-5.16,30.34-9.78,44.51-17.19,19.64-10.27,20.25-22.52,1.69-34.77-13.94-9.21-29.87-13.58-45.77-17.69-70.27-18.14-141.32-32.51-212.95-44.15-32.19-5.24-64.12-12-94.85-23.27-26.52-9.73-50.74-23.94-69.35-45.06-25.11-28.5-56.06-44.87-92.17-55-35-9.8-70-19.8-104.17-32.58-35.11-13.15-60.61-35.55-73.42-71.55-4.41-12.38-9.51-24.51-12.76-37.27-9.67-38-14.95-76.4-12.6-115.63.85-14.2,3.17-28.19,11.44-40.36,10.19-15,23.63-18.64,40.19-11.1,11.13,5.07,21.24,11.85,30.84,19.23,26,20,55.71,30.07,87.79,34.78,29.74,4.37,59.79,6.34,89.39,11.77,27.77,5.1,53.13,16,76.89,31,5.35,3.36,10.77,6.67,15.79,10.49,22.23,16.89,47.3,26.76,74.65,31.7a329,329,0,0,1,41.09,10.59c24.87,7.9,42.47,23.62,52.61,47.72,12.86,30.58,35.47,50.34,67.09,59.93,25.64,7.77,51.41,13,78.09,4.84,16.18-4.94,30.47-13.61,44.54-22.47,27.12-17.08,54.27-15.87,82.27-2.64,36.25,17.12,67.61,41.28,98.3,66.61,32.41,26.76,56.19,60,75.25,97,1.84,3.57,3.61,7.25,6.62,10.08V816.57c-4-.05-7.82-1.16-12-.51-11.17,1.75-20.55,7.14-29.14,13.81q-45.51,35.29-88.07,74.13c-9.86,9-20.33,17.34-28.64,27.92Z" transform="translate(287 161.04)"/><path class="b" d="M-286.86,273.2c7.37,10.42,11,22.54,15.49,34.25,14.57,38.14,22.2,78.16,31.76,117.67,9.43,39,22.05,76.7,45,110.25,11.2,16.37,26,29.53,38,45.18,25.2,32.85,32.27,70,27.32,110.21-2.88,23.46-9.84,45.9-18,68-11.43,31.09-19.72,63.15-29.44,94.77a261.49,261.49,0,0,1-16.17,40.79c-6,11.92-13,23.49-12.11,37.61h-24.28c3.64-4.86,4.63-10.36,4.47-16.35-.51-19.62-4-39.05-3.18-58.76.6-14.81-6.62-26-17.93-34.82-12.07-9.43-26.1-13.93-41-16Z" transform="translate(287 161.04)"/><path class="b" d="M1655.9,195.8c-9.51-17-13.63-35.72-16.66-54.67-4.36-27.21-5-54.8-8.29-82.13-4.22-35.28-14.06-69.23-24.29-103.09-11-36.26-23.79-71.94-33.26-108.65-.69-2.68-1.79-5.29-1-8.14,25.5,0,51,.17,76.51-.14,5.43-.06,7.14.81,7.13,6.81Q1655.73,20.8,1655.9,195.8Z" transform="translate(287 161.04)"/><path class="a" d="M1498.05,931.92c8.31-10.58,18.78-18.95,28.64-27.92q42.6-38.76,88.07-74.13c8.59-6.67,18-12.06,29.14-13.81,4.18-.65,8,.46,12,.51,0,36.68-.11,73.36.13,110,0,4.54-.92,5.46-5.45,5.45C1599.74,931.84,1548.89,931.92,1498.05,931.92Z" transform="translate(287 161.04)"/><path class="a" d="M-286.86,805.94c14.94,2.12,29,6.62,41,16,11.31,8.83,18.53,20,17.93,34.82-.78,19.71,2.67,39.14,3.18,58.76.16,6-.83,11.49-4.47,16.35-17.71,0-35.42-.13-53.13.1-3.8.05-4.66-.86-4.65-4.66C-286.8,886.89-286.86,846.42-286.86,805.94Z" transform="translate(287 161.04)"/><path class="b" d="M271.68-160.88c-20.79,6.42-42.3,9.47-63.64,13.23C161.67-139.46,116-142,71.19-157.06c-3.08-1-6.45-1.43-9-3.82Z" transform="translate(287 161.04)"/><path class="b" d="M427.68,651c-4,0-8,0-12-1.3-13.56-4.33-19.08-14.38-15.21-28.17,5-17.81,16.91-31.43,27.86-45.56,19-24.56,39-48.54,49.27-78.54C485,476,487.88,453.7,490.2,431.36c4.62-44.45,10.06-88.79,17.2-132.9a70.77,70.77,0,0,1,8-23.6c6.67-11.87,17.69-14.87,29.5-8a71.7,71.7,0,0,1,22.74,20.85c19.33,27.49,38.48,55.12,57.73,82.67,25,35.71,25,73.19,9.09,112.43C618.39,522.55,591.39,553.19,558,579c-27.62,21.36-56,41.61-86.71,58.32C456.17,645.53,440.06,651,427.68,651Z" transform="translate(287 161.04)"/></svg>