<svg xmlns="http://www.w3.org/2000/svg" viewBox="0 0 1943.37 1093.41"><defs><style>.a{fill:#ffffff;}.b{fill:#41c7f6;}</style></defs><title>1800f_00194</title><path class="a" d="M1274.93,931.92H62.23c-2.74-16.21-12-26.69-28.14-29.77a287.16,287.16,0,0,0-75.37-4c-18.85,1.39-37,5.61-53.56,15-8.49,4.8-17.16,9.68-22,18.84H-277.75c-1.34-6.08-5.43-10.51-9.11-15.18v-173c18.16-23.56,41.94-41.44,62.92-62.16,19.35-19.11,33.79-41.5,44.4-66.4,6-14.17,11.21-28.72,17.36-42.84,7.34-16.86,12-34.91,22.14-50.51,6.91-10.64,14.9-11.27,24.26-2.54,16.1,15,29.62,32.44,44.58,48.53C-48.73,592-25.12,614.73,5.06,629.24c22.06,10.61,39.8,6.15,53.23-14.34,27.4-41.82,40.37-88.49,43.2-138,2.58-45.15-2.47-89.88-10.68-134.21-9.27-50.06-30.77-93.05-72-125.16-18.3-14.24-35.24-30.48-48.3-50s-11.21-37.4,4.82-54.34C-16.1,104.1-6,97,4.85,90.89c28-15.83,58.39-25.19,89.31-33,36.48-9.27,73.47-17.16,107.44-34.06,84.79-42.18,155.76-100.93,211.18-178,1.41-2,3.56-3.73,3.09-6.63h367.3c1.07,3-1.3,4.65-2.52,6.76-5.92,10.27-4.66,19.16,3.82,27.33,6.1,5.87,13.73,8.48,21.77,9.84,21.93,3.71,44,2.91,65.69-.78,32.19-5.46,64.17-7.28,96.43-.61,34.16,7.06,68.27,14.2,102.11,22.69,21.82,5.48,37.66,17.58,47,38.26A193.77,193.77,0,0,0,1127.8-38c9.67,16.22,23.35,25.69,43,24.29,8-.58,16.24-.81,24.07-2.55,29.44-6.56,53.63,2.17,74.31,23.44,19.18,19.73,35,41.87,48.93,65.46,18.85,32,36,65.16,59.44,94.22,69.81,86.6,147.08,165.57,237.52,231,15.78,11.41,31.54,22.9,40.85,40.81v50.09c-5.84,18-12,35.86-20.22,53-21.48,44.82-48.06,86.62-75.62,127.82-27.43,41-55.84,81.37-91.38,116-31.81,31-68,54.91-111.75,65.74q-14.72,3.63-29.32,7.7c-17.37,4.82-29.63,15.67-37.6,31.75C1283.47,903.9,1279,917.82,1274.93,931.92Z" transform="translate(287.33 161.03)"/><path class="b" d="M415.87-160.88c.47,2.9-1.68,4.66-3.09,6.63C357.36-77.15,286.39-18.4,201.6,23.78c-34,16.9-71,24.79-107.44,34.06C63.24,65.7,32.84,75.06,4.85,90.89-6,97-16.1,104.1-24.7,113.19c-16,16.94-17.79,34.93-4.82,54.34s30,35.79,48.3,50c41.26,32.11,62.76,75.1,72,125.16,8.21,44.33,13.26,89.06,10.68,134.21-2.83,49.48-15.8,96.15-43.2,138-13.43,20.49-31.17,25-53.23,14.34C-25.12,614.73-48.73,592-71.2,567.79c-15-16.09-28.48-33.49-44.58-48.53-9.36-8.73-17.35-8.1-24.26,2.54-10.12,15.6-14.8,33.65-22.14,50.51-6.15,14.12-11.33,28.67-17.36,42.84-10.61,24.9-25.05,47.29-44.4,66.4-21,20.72-44.76,38.6-62.92,62.16v-252c7-3.43,14.32-6.45,21.07-10.37,14.36-8.32,29.88-15,41.4-27.57,5.46-6,8.55-12.33,7.35-21.12a73.34,73.34,0,0,0-7.78-23.54c-18.35-36.08-42-69-62-104.08q0-229.8-.16-459.59c0-5.68,1.42-6.51,6.68-6.5Q67.76-160.79,415.87-160.88Z" transform="translate(287.33 161.03)"/><path class="b" d="M1655.9,438.64c-9.31-17.91-25.07-29.4-40.85-40.81-90.44-65.41-167.71-144.38-237.52-231-23.42-29.06-40.59-62.19-59.44-94.22C1304.2,49,1288.34,26.9,1269.16,7.17c-20.68-21.27-44.87-30-74.31-23.44-7.83,1.74-16,2-24.07,2.55-19.63,1.4-33.31-8.07-43-24.29a193.77,193.77,0,0,1-10.37-19.38c-9.3-20.68-25.14-32.78-47-38.26-33.84-8.49-68-15.63-102.11-22.69-32.26-6.67-64.24-4.85-96.43.61-21.74,3.69-43.76,4.49-65.69.78-8-1.36-15.67-4-21.77-9.84-8.48-8.17-9.74-17.06-3.82-27.33,1.22-2.11,3.59-3.8,2.52-6.76h725.5c-.43,1.64-1.83,2.32-3.1,3.12-30.35,19.16-40.48,47.66-33.2,81.15,10.48,48.22,38.54,87.19,73.26,120.72,32.32,31.21,71.62,53.26,110.27,75.8Z" transform="translate(287.33 161.03)"/><path class="b" d="M1274.93,931.92c4.06-14.1,8.54-28,15.08-41.23,8-16.08,20.23-26.93,37.6-31.75q14.6-4.05,29.32-7.7c43.78-10.83,79.94-34.76,111.75-65.74,35.54-34.61,64-75,91.38-116,27.56-41.2,54.14-83,75.62-127.82,8.2-17.11,14.38-35,20.22-53q0,218.55.14,437.12c0,5.19-1,6.22-6.22,6.21Q1462.38,931.79,1274.93,931.92Z" transform="translate(287.33 161.03)"/><path class="a" d="M1655.9,119.91c-38.65-22.54-78-44.59-110.27-75.8-34.72-33.53-62.78-72.5-73.26-120.72-7.28-33.49,2.85-62,33.2-81.15,1.27-.8,2.67-1.48,3.1-3.12,47.22,0,94.44.1,141.66-.15,5,0,5.67,1.5,5.66,5.95Q1655.79-17.59,1655.9,119.91Z" transform="translate(287.33 161.03)"/><path class="a" d="M-286.86,305.08c20,35.09,43.69,68,62,104.08A73.34,73.34,0,0,1-217,432.7c1.2,8.79-1.89,15.14-7.35,21.12-11.52,12.6-27,19.25-41.4,27.57-6.75,3.92-14,6.94-21.07,10.37Z" transform="translate(287.33 161.03)"/><path class="b" d="M-116.87,931.92c4.87-9.16,13.54-14,22-18.84,16.57-9.36,34.71-13.58,53.56-15a287.16,287.16,0,0,1,75.37,4c16.1,3.08,25.4,13.56,28.14,29.77Z" transform="translate(287.33 161.03)"/><path class="b" d="M-286.86,916.74c3.68,4.67,7.77,9.1,9.11,15.18-7.79,1.71-10.74-1.31-9.17-9.12C-286.53,920.85-286.86,918.76-286.86,916.74Z" transform="translate(287.33 161.03)"/></svg>