<svg xmlns="http://www.w3.org/2000/svg" viewBox="0 0 1943.04 1093.09"><defs><style>.a{fill:#ffffff;}.b{fill:#41c7f6;}</style></defs><title>1800f_00391</title><path class="a" d="M1655.9,170V435.6a9,9,0,0,0-2.79.71c-47.57,31.53-88.12,69.18-111.17,123.11-10.72,25.07-21.18,50.41-34.63,74.19-33.51,59.24-61.92,121.08-93.6,181.24-19.33,36.72-31.23,75.57-34,117.07H94.1a32.68,32.68,0,0,0-2.69-4.45,632.48,632.48,0,0,0-50.52-53.42c-44.71-42.43-96.32-75.17-148.73-106.88-24.22-14.64-49.53-27.52-72.31-44.47-18.7-13.93-30.46-32.07-32.92-55.73s3.11-45.84,12.67-67c24-53,55.18-101.64,89.49-148.43,33.81-46.1,75.76-81.67,129.52-102.66a340.13,340.13,0,0,0,52.33-25.78c35.82-21.68,62.66-52.37,86.23-86.23,23.05-33.12,48.63-63.84,79.34-90.33,31-26.74,57.42-57.65,78.06-93.19,15.34-26.41,26.35-54.18,24-85.52-2-26.51-14.35-45.87-40-55.44-17-6.33-34.75-9.11-52.63-10.35-37.62-2.6-75.23-3.39-112.27,6-19.74,5-39.86,7.16-60.16,5.3C46.59-89.09,22.93-98.9,5.13-119.94-5.92-133-13.14-149-25.8-160.88H935c5.38,14.86,14.23,27.81,23,40.7,28.29,41.57,65.86,73.76,105.79,103.45s82.89,55.27,123.2,84.55c39.25,28.51,74.86,61,105.23,98.93,12.95,16.2,16.66,34.7,13.57,55a165.39,165.39,0,0,1-13.91,44.72c-16.39,35.42-40.2,66-63.67,96.72-12.72,16.68-26.62,32.51-37,50.87-14.32,25.32-10,48.06,12.28,66,33.85,27.18,84.56,20.76,110.88-13.74,14.29-18.73,20.5-40.55,24.14-63.08,6-37,20.49-69.41,46.26-97,19.84-21.23,39.72-42.57,57.77-65.3,21.44-27,49.2-41.84,81.89-49.64,31.3-7.47,63.37-9.91,95-15.11C1631.57,174.15,1643.44,170.3,1655.9,170ZM593.1,400.44c25.68-.2,48.19-4.22,69.61-13.51,27-11.7,43.62-31.19,46.36-61.3C711.41,300,715.32,274.51,719,249c1.12-7.65,2.78-15.41.31-23.27-1.47-4.69-3.68-7.07-9-7.25-6.68-.22-12.47,2.1-18.1,4.81-29.43,14.14-59.1,27.28-91.31,34.35a427.13,427.13,0,0,0-90.29,30.73c-11.58,5.45-21.86,12.78-26.49,25.7-8.64,24.05,2.72,53.38,26.48,67.11C536.87,396.36,566.05,399.14,593.1,400.44ZM261.43,537.16c-22.76-.19-29.89.79-36.73,4.25-10.39,5.25-13.46,14.45-8,24.65a59,59,0,0,0,15.8,18.14c38.65,30.52,80.92,35.1,126.22,17.54a142.16,142.16,0,0,0,32.55-17.61c13-9.48,12.27-18.5-2.31-24.75a150.59,150.59,0,0,0-19.27-6.74C332.49,542.37,294.19,539.77,261.43,537.16ZM650.55,658.73c12,.3,23.16-2.41,33.11-9.12,19.55-13.17,25.69-42.65-1.23-57.6A78.1,78.1,0,0,0,656,583.09a711.66,711.66,0,0,0-78.47-7c-10.44-.39-21.31.13-31.3,4.28-7.6,3.17-9,7.62-4.52,14.31a47.89,47.89,0,0,0,10.53,11.85c14.46,11,28.64,22.43,43.34,33.12C611.87,651.56,630.15,658.37,650.55,658.73Z" transform="translate(287 161.02)"/><path class="b" d="M-25.8-160.88C-13.14-149-5.92-133,5.13-119.94c17.8,21,41.46,30.85,68.33,33.3,20.3,1.86,40.42-.29,60.16-5.3,37-9.4,74.65-8.61,112.27-6,17.88,1.24,35.66,4,52.63,10.35,25.68,9.57,38,28.93,40,55.44,2.37,31.34-8.64,59.11-24,85.52-20.64,35.54-47.06,66.45-78.06,93.19-30.71,26.49-56.29,57.21-79.34,90.33-23.57,33.86-50.41,64.55-86.23,86.23a340.13,340.13,0,0,1-52.33,25.78c-53.76,21-95.71,56.56-129.52,102.66C-145.22,498.34-176.45,547-200.4,600c-9.56,21.15-15.12,43.37-12.67,67s14.22,41.8,32.92,55.73c22.78,16.95,48.09,29.83,72.31,44.47,52.41,31.71,104,64.45,148.73,106.88a632.48,632.48,0,0,1,50.52,53.42,32.68,32.68,0,0,1,2.69,4.45q-187.44,0-374.89.14c-5.2,0-6.22-1-6.21-6.21q.24-472.8.14-945.58c3.26-.25,6.59-.15,9.76-.79,37.22-7.53,69.86-24.12,98.5-49.09,22.26-19.4,43.69-39.74,66.89-58.09Q-89.78-145-66.78-160.88Z" transform="translate(287 161.02)"/><path class="b" d="M1655.9,170c-12.46.31-24.33,4.16-36.51,6.16-31.64,5.2-63.71,7.64-95,15.11-32.69,7.8-60.45,22.63-81.89,49.64-18,22.73-37.93,44.07-57.77,65.3-25.77,27.57-40.3,60-46.26,97-3.64,22.53-9.85,44.35-24.14,63.08-26.32,34.5-77,40.92-110.88,13.74-22.31-17.91-26.6-40.65-12.28-66,10.38-18.36,24.28-34.19,37-50.87,23.47-30.76,47.28-61.3,63.67-96.72a165.39,165.39,0,0,0,13.91-44.72c3.09-20.27-.62-38.77-13.57-55-30.37-38-66-70.42-105.23-98.93-40.31-29.28-83.2-54.81-123.2-84.55S986.24-78.61,958-120.18c-8.77-12.89-17.62-25.84-23-40.7q357.06,0,714.12-.14c5.69,0,7,1.28,7,7Q1655.74,8,1655.9,170Z" transform="translate(287 161.02)"/><path class="b" d="M1379.66,931.92c2.82-41.5,14.72-80.35,34-117.07,31.68-60.16,60.09-122,93.6-181.24,13.45-23.78,23.91-49.12,34.63-74.19,23-53.93,63.6-91.58,111.17-123.11a9,9,0,0,1,2.79-.71q0,245.13.14,490.25c0,5.19-1,6.23-6.22,6.21Q1514.75,931.76,1379.66,931.92Z" transform="translate(287 161.02)"/><path class="a" d="M-66.78-160.88q-23,15.9-44.93,33.18c-23.2,18.35-44.63,38.69-66.89,58.09-28.64,25-61.28,41.56-98.5,49.09-3.17.64-6.5.54-9.76.79,0-45.18.1-90.37-.14-135.55,0-4.95,1.37-5.72,5.9-5.71Q-173.94-160.76-66.78-160.88Z" transform="translate(287 161.02)"/><path class="b" d="M593.1,400.44c-27.05-1.3-56.23-4.08-82.49-19.25-23.76-13.73-35.12-43.06-26.48-67.11,4.63-12.92,14.91-20.25,26.49-25.7a427.13,427.13,0,0,1,90.29-30.73c32.21-7.07,61.88-20.21,91.31-34.35,5.63-2.71,11.42-5,18.1-4.81,5.33.18,7.54,2.56,9,7.25,2.47,7.86.81,15.62-.31,23.27-3.7,25.5-7.61,51-9.95,76.62-2.74,30.11-19.4,49.6-46.36,61.3C641.29,396.22,618.78,400.24,593.1,400.44Z" transform="translate(287 161.02)"/><path class="b" d="M261.43,537.16c32.76,2.61,71.06,5.21,108.3,15.48A150.59,150.59,0,0,1,389,559.38c14.58,6.25,15.33,15.27,2.31,24.75a142.16,142.16,0,0,1-32.55,17.61c-45.3,17.56-87.57,13-126.22-17.54a59,59,0,0,1-15.8-18.14c-5.5-10.2-2.43-19.4,8-24.65C231.54,538,238.67,537,261.43,537.16Z" transform="translate(287 161.02)"/><path class="b" d="M650.55,658.73c-20.4-.36-38.68-7.17-55-19-14.7-10.69-28.88-22.1-43.34-33.12a47.89,47.89,0,0,1-10.53-11.85c-4.48-6.69-3.08-11.14,4.52-14.31,10-4.15,20.86-4.67,31.3-4.28a711.66,711.66,0,0,1,78.47,7A78.1,78.1,0,0,1,682.43,592c26.92,15,20.78,44.43,1.23,57.6C673.71,656.32,662.52,659,650.55,658.73Z" transform="translate(287 161.02)"/></svg>