<svg xmlns="http://www.w3.org/2000/svg" viewBox="0 0 1943.64 1093.68"><defs><style>.a{fill:#ffffff;}.b{fill:#41c7f6;}</style></defs><title>1800f_00233</title><path class="a" d="M-286.86-41V-145.7a32.92,32.92,0,0,0,19.73-15.18h631.4a295,295,0,0,0,20.29,41.54c22.67,38.28,39.53,79,53.56,121.12,12.13,36.44,27.33,71.82,37.64,108.9,2.84,10.24,5.48,20.59,6.35,31.14,1.13,13.59-3.37,18.05-16.54,15.86-3.66-.61-7.22-2.26-10.65-3.83-15-6.88-28.64-16.08-42-25.63-34.37-24.5-67.35-50.94-102.66-74.14-9.74-6.39-19.78-12.26-31.13-15.43-15.47-4.32-26.33-.33-35.36,12.91A103.34,103.34,0,0,0,232.11,74.5C223,99.44,207.4,120,189.9,139.56c-26.14,29.2-48.06,61.9-74.46,90.9C77,272.74,33.21,308.2-19.11,332.29-42.3,343-65.88,352.86-88,365.79c-19.43,11.39-38.56,23.26-54.2,39.8-8.59,9.08-8.5,17.61-.18,26.73a88.13,88.13,0,0,0,31.42,22.06c38.82,16.25,79.3,25.92,121.27,28.05,45,2.29,89.29-3.14,132.94-14.24,24.77-6.29,48.14-17,73.13-22.58,27.52-6.16,54.58-8,82.28.37a266.49,266.49,0,0,0,88.39,10.93c52-2.15,91.35-33.83,103.66-84.18,6.69-27.36,7-55.56,10.17-83.38,2.51-21.81,2.83-43.86,7-65.47,4-20.53,9.63-25.22,30.49-26.48,1.51-.09,3-.13,4.54-.18,34.23-1.06,65-11.25,91.1-34.12,15.7-13.77,28.88-29.7,40.48-47a281.12,281.12,0,0,1,46.32-53c7-6.25,14.45-11.92,23-16,16.11-7.7,29.45-4,39.37,10.9a95.26,95.26,0,0,1,9.22,17.4,347.44,347.44,0,0,1,24,100.65c2.83,33.42,11.4,64.53,31.13,92.15A618.75,618.75,0,0,1,889.8,335.7c12.28,22.9,31.51,37.64,56.16,45.83,30.24,10.05,61,10.69,92.17,6.4,22-3,43.6-9.13,66-8.64,6.22.14,13.82-.91,16.86,5.86,3.29,7.31-2.34,12.86-7,17.9a81.52,81.52,0,0,1-9,8.15,150.37,150.37,0,0,1-30.09,19A1381.48,1381.48,0,0,0,892.44,533.76c-9.88,6.62-19.64,13.37-28.57,21.26-19.65,17.37-23.76,36-13,59.92q4.18,9.34,8.94,18.41c12.08,23.12,23.21,46.58,30,71.95,8.58,32.28,11,65.27,11.43,98.4.58,42.73.31,85.48.41,128.22H528.19c1.3-2.76.3-5.43-.29-8.12-7.8-35.36-26.68-64.65-50.55-91-14.93-16.48-30.47-32.42-51-42.24-14.45-6.9-28.18-6.23-41.56,2.81-10.75,7.27-18.37,17.22-24.47,28.36-9.16,16.74-6.55,32.58,4.84,47.27a121.38,121.38,0,0,0,12,13.6c17.34,16.56,34.9,32.9,52.38,49.32H25.8c-.42-5.24,1.93-9.9,3.45-14.63,7.07-21.92,14.14-43.82,30.58-61.14,18.85-19.87,42.64-30.12,68.6-36.55,12-3,24.2-5.46,35.29-11.28,7.08-3.72,9.84-9.77,8.55-17.57a71.28,71.28,0,0,0-5.61-18.83c-16.22-34.55-32.61-69-46.8-104.48-15.85-39.61-44-67.75-81.29-87.55-57.95-30.74-119.64-48.56-184.82-55-22.34-2.21-44.87-3.68-66.27-11.57-22.93-8.47-27-20.07-13.82-40.44,7.13-11.07,15.61-21.13,23.77-31.42,12.42-15.67,12.73-22.28,1.08-38.5-5-7-10.49-13.6-16-20.15Q-286.38,301.6-285,195.16c.49-32.87,4.74-65.51,8.08-98.18,3.46-33.76,6.22-67.52.66-101.28C-278.29-16.89-279.69-29.81-286.86-41Z" transform="translate(287.59 161.62)"/><path class="b" d="M901.56,931.92c-.1-42.74.17-85.49-.41-128.22-.46-33.13-2.85-66.12-11.43-98.4-6.74-25.37-17.87-48.83-30-71.95q-4.74-9.06-8.94-18.41c-10.72-23.88-6.61-42.55,13-59.92,8.93-7.89,18.69-14.64,28.57-21.26A1381.48,1381.48,0,0,1,1075,430.2a150.37,150.37,0,0,0,30.09-19,81.52,81.52,0,0,0,9-8.15c4.65-5,10.28-10.59,7-17.9-3-6.77-10.64-5.72-16.86-5.86-22.45-.49-44,5.61-66,8.64-31.21,4.29-61.93,3.65-92.17-6.4-24.65-8.19-43.88-22.93-56.16-45.83a618.75,618.75,0,0,0-42.21-67.45c-19.73-27.62-28.3-58.73-31.13-92.15a347.44,347.44,0,0,0-24-100.65,95.26,95.26,0,0,0-9.22-17.4c-9.92-14.89-23.26-18.6-39.37-10.9-8.51,4.07-16,9.74-23,16a281.12,281.12,0,0,0-46.32,53c-11.6,17.28-24.78,33.21-40.48,47C608,186,577.2,196.16,543,197.22c-1.51.05-3,.09-4.54.18-20.86,1.26-26.51,5.95-30.49,26.48-4.2,21.61-4.52,43.66-7,65.47-3.21,27.82-3.48,56-10.17,83.38-12.31,50.35-51.69,82-103.66,84.18A266.49,266.49,0,0,1,298.69,446c-27.7-8.35-54.76-6.53-82.28-.37-25,5.61-48.36,16.29-73.13,22.58-43.65,11.1-88,16.53-132.94,14.24-42-2.13-82.45-11.8-121.27-28.05a88.13,88.13,0,0,1-31.42-22.06c-8.32-9.12-8.41-17.65.18-26.73,15.64-16.54,34.77-28.41,54.2-39.8,22.09-12.93,45.67-22.82,68.86-33.5C33.21,308.2,77,272.74,115.44,230.46c26.4-29,48.32-61.7,74.46-90.9C207.4,120,223,99.44,232.11,74.5a103.34,103.34,0,0,1,11.63-22.94c9-13.24,19.89-17.23,35.36-12.91,11.35,3.17,21.39,9,31.13,15.43,35.31,23.2,68.29,49.64,102.66,74.14,13.39,9.55,27,18.75,42,25.63,3.43,1.57,7,3.22,10.65,3.83,13.17,2.19,17.67-2.27,16.54-15.86-.87-10.55-3.51-20.9-6.35-31.14C465.45,73.6,450.25,38.22,438.12,1.78c-14-42.11-30.89-82.84-53.56-121.12a295,295,0,0,1-20.29-41.54h132c13.66,4.24,27.32,3.79,41,0H802.9a6.61,6.61,0,0,0,.57,2.15c19.87,28.21,44.48,48.32,80.86,51.17,33.48,2.62,59.11,19.6,79,46.53,15.07,20.4,27.53,42.34,40.57,64,13.74,22.79,28,45.44,48.43,62.76q77.45,65.74,178.47,50.54c35.08-5.23,69.4-13.34,103.41-23.07,22.09-6.32,44.53-9.69,67.39-5.64,47,8.31,89.46,28.17,130.21,52,13.68,8,21.91,20,22.89,36.92,1,16.54,6.12,20.92,22.5,24.3,6.52,1.34,13.08,1.4,19.62,1.27,19.69-.4,39.38-1.1,59.08-1.68V745.23c-3.57,4.19-4.12,9.64-6.08,14.5-6.23,15.42-9.31,32.14-18.89,46.19-18.88,27.66-47.17,41.17-81.51,19.21a226.17,226.17,0,0,1-35.88-29.08c-33.49-32.67-57.73-72.07-81.6-111.8-20.09-33.42-36.32-68.21-42.7-107.1-3.73-22.78-4.36-45.77-5.79-68.71-3-47.53-2.9-94.92,4.55-142.18,3.63-23,11.07-45.14,14.67-68.11,2.92-18.64-4.63-32-21.91-39.39-41.94-17.86-97.55-1.66-123.15,35.89-10.22,15-9.15,27.09,3.77,40.11,3.73,3.75,7.91,7.05,11.78,10.67,4.8,4.49,9.75,8.86,14.18,13.7,12.41,13.55,9.5,28.32,2.66,43.08-8.55,18.46-20.43,34.87-32.27,51.28-22,30.54-45.28,60.31-62.14,94.24-17.54,35.29-25.24,72.33-19.28,111.74,2.75,18.22,7.57,36,9.75,54.39,3,25.33-2.65,47.47-20.85,66.09-14.17,14.49-29.58,27.62-44.78,40.91-33.82,29.55-49.81,67.22-53.43,111.06Z" transform="translate(287.59 161.62)"/><path class="a" d="M1067,931.92c3.62-43.84,19.61-81.51,53.43-111.06,15.2-13.29,30.61-26.42,44.78-40.91,18.2-18.62,23.87-40.76,20.85-66.09-2.18-18.34-7-36.17-9.75-54.39-6-39.41,1.74-76.45,19.28-111.74,16.86-33.93,40.1-63.7,62.14-94.24,11.84-16.41,23.72-32.82,32.27-51.28,6.84-14.76,9.75-29.53-2.66-43.08-4.43-4.84-9.38-9.21-14.18-13.7-3.87-3.62-8.05-6.92-11.78-10.67-12.92-13-14-25.12-3.77-40.11,25.6-37.55,81.21-53.75,123.15-35.89,17.28,7.37,24.83,20.75,21.91,39.39-3.6,23-11,45.09-14.67,68.11-7.45,47.26-7.51,94.65-4.55,142.18,1.43,22.94,2.06,45.93,5.79,68.71,6.38,38.89,22.61,73.68,42.7,107.1,23.87,39.73,48.11,79.13,81.6,111.8a226.17,226.17,0,0,0,35.88,29.08c34.34,22,62.63,8.45,81.51-19.21,9.58-14,12.66-30.77,18.89-46.19,2-4.86,2.51-10.31,6.08-14.5,0,60.21-.09,120.41.15,180.62,0,5.2-1,6.22-6.23,6.21Q1358.42,931.81,1067,931.92Z" transform="translate(287.59 161.62)"/><path class="a" d="M1655.9,200.35c-19.7.58-39.39,1.28-59.08,1.68-6.54.13-13.1.07-19.62-1.27-16.38-3.38-21.55-7.76-22.5-24.3-1-17-9.21-28.92-22.89-36.92-40.75-23.84-83.25-43.7-130.21-52-22.86-4-45.3-.68-67.39,5.64-34,9.73-68.33,17.84-103.41,23.07q-101,15-178.47-50.54c-20.4-17.32-34.69-40-48.43-62.76-13-21.63-25.5-43.57-40.57-64-19.89-26.93-45.52-43.91-79-46.53-36.38-2.85-61-23-80.86-51.17a6.61,6.61,0,0,1-.57-2.15h704.25c-1,2.94,1.21,4.75,2.53,6.76,38.61,59,55.42,125.11,62.64,194.19,2.38,22.83,3,45.83,4.87,68.71,1,12.9,4.58,24.93,16.52,32.42,19.11,12,40.37,18.13,62.19,22.72Z" transform="translate(287.59 161.62)"/><path class="b" d="M-286.86-41c7.17,11.17,8.57,24.09,10.64,36.68,5.56,33.76,2.8,67.52-.66,101.28-3.34,32.67-7.59,65.31-8.08,98.18q-1.59,106.39,67.43,187.66c5.55,6.55,11,13.19,16,20.15,11.65,16.22,11.34,22.83-1.08,38.5-8.16,10.29-16.64,20.35-23.77,31.42-13.15,20.37-9.11,32,13.82,40.44,21.4,7.89,43.93,9.36,66.27,11.57,65.18,6.43,126.87,24.25,184.82,55,37.33,19.8,65.44,47.94,81.29,87.55,14.19,35.46,30.58,69.93,46.8,104.48a71.28,71.28,0,0,1,5.61,18.83c1.29,7.8-1.47,13.85-8.55,17.57-11.09,5.82-23.29,8.3-35.29,11.28-26,6.43-49.75,16.68-68.6,36.55-16.44,17.32-23.51,39.22-30.58,61.14-1.52,4.73-3.87,9.39-3.45,14.63H-151.78c-4.94-41.56-15.45-81.8-28.61-121.42-7.8-23.46-20.36-43.32-41.56-57-20.47-13.2-42.94-22.37-64.91-32.55Z" transform="translate(287.59 161.62)"/><path class="b" d="M1655.9,163.92c-21.82-4.59-43.08-10.73-62.19-22.72-11.94-7.49-15.47-19.52-16.52-32.42-1.86-22.88-2.49-45.88-4.87-68.71-7.22-69.08-24-135.18-62.64-194.19-1.32-2-3.54-3.82-2.53-6.76,47.48,0,95,.14,142.44-.19,5.87,0,6.43,1.7,6.42,6.77Q1655.79,4.81,1655.9,163.92Z" transform="translate(287.59 161.62)"/><path class="a" d="M-286.86,721c22,10.18,44.44,19.35,64.91,32.55,21.2,13.68,33.76,33.54,41.56,57,13.16,39.62,23.67,79.86,28.61,121.42-43.16,0-86.32-.1-129.48.14-4.94,0-5.72-1.38-5.71-5.9Q-286.73,823.55-286.86,721Z" transform="translate(287.59 161.62)"/><path class="b" d="M429.53,931.92c-17.48-16.42-35-32.76-52.38-49.32a121.38,121.38,0,0,1-12-13.6c-11.39-14.69-14-30.53-4.84-47.27,6.1-11.14,13.72-21.09,24.47-28.36,13.38-9,27.11-9.71,41.56-2.81,20.56,9.82,36.1,25.76,51,42.24,23.87,26.35,42.75,55.64,50.55,91,.59,2.69,1.59,5.36.29,8.12Z" transform="translate(287.59 161.62)"/><path class="b" d="M-267.13-160.88a32.92,32.92,0,0,1-19.73,15.18c0-5.06-2-12.1.56-14.63s9.56-.55,14.62-.55Z" transform="translate(287.59 161.62)"/><path class="a" d="M537.29-160.88c-13.66,3.79-27.32,4.24-41,0Z" transform="translate(287.59 161.62)"/></svg>