<svg xmlns="http://www.w3.org/2000/svg" viewBox="0 0 1943.06 1093.11"><defs><style>.a{fill:#ffffff;}.b{fill:#41c7f6;}</style></defs><title>1800f_00285</title><path class="a" d="M1618,931.92H31.87c.41-10.6,1-21.2,1.18-31.81.72-43.24,1.3-86.62,8.82-129.24,8.19-46.33,10.91-92.76,9.67-139.63C50.85,605,43.24,582,24.6,562.64q-40.5-42-78.54-86.33c-10-11.71-20.34-23.19-28.59-36.27-9-14.25-6.46-23.54,8.38-31.68A56,56,0,0,1-68,405.47a176.53,176.53,0,0,1,73.4-12.65c36.86,1.58,62.07,22.45,68.79,58.6,3.18,17.12,6,34.3,10,51.28,1.66,7.18,1.3,14.62.22,21.89-4.82,32.26,4.45,58.12,33.07,76,23.34,14.58,48,26.44,74.43,33.49,50,13.34,96.38,34.73,141.73,59,19.55,10.49,39.06,21.52,61,26.6,20.42,4.73,34.43-6.17,34.9-27.22.58-25.6-10.75-46.41-27.4-64.66C386.19,610.38,366,598.79,345,588.45c-14-6.93-29.19-12.36-40.88-23a920,920,0,0,0-71.37-58.73c-15-11.11-16.72-22.73-7.79-39.2a78.32,78.32,0,0,1,8.41-12.6c8.36-10.14,16.69-20.34,25.64-29.95,42.87-46,77.06-97.54,99.7-156.37a1070.66,1070.66,0,0,1,55.49-121.29,585.49,585.49,0,0,0,28.61-61.1c6.75-17,16.37-32.51,29.92-45.2,13.33-12.5,24.09-13.92,39.79-4.73a137.72,137.72,0,0,1,17.46,12c9.63,7.88,20.54,12.72,32.55,15.49,27.76,6.41,56.07,7.57,84.35,8.41,33.68,1,67.31.36,99.93-9.68,20-6.17,40-12.67,59.92-19.19,22.7-7.43,43.8-4.33,63.66,8.83,42.27,28,87.45,50.67,132.9,72.88,38.92,19,78.29,37.2,121,45.76,64.87,13,126.1,36.58,186.9,61.65,19.22,7.92,38,16.85,53.48,31.14,23.92,22.1,22.18,48.69-4,67.89-12.53,9.18-26.87,15.08-40.45,22.35-22.81,12.22-43.89,26.62-56.62,50a166.78,166.78,0,0,0-20.29,86.84c.63,18.18,9.85,31.53,27.21,38.43,18.47,7.35,36.46,3.84,53.74-3.69,34-14.83,64.65-35.44,94.11-57.84,15.66-11.91,30.24-25.37,48.3-33.92,13-6.15,25.83-6,38.73.18a70.55,70.55,0,0,1,19.07,13.57c20.73,20.46,32.74,45.95,41.61,73.11,9,27.67,13.38,56.54,21.29,84.52,11,39,22.36,77.78,41.56,113.72,7.25,13.57,15.24,26.73,27,37.09v145.7c-2.14.73-4.33,1.35-6.42,2.19C1635.6,909.36,1624.11,917.66,1618,931.92Z" transform="translate(287.03 161.04)"/><path class="b" d="M1655.9,755.86c-11.76-10.36-19.75-23.52-27-37.09-19.2-35.94-30.55-74.76-41.56-113.72-7.91-28-12.25-56.85-21.29-84.52-8.87-27.16-20.88-52.65-41.61-73.11a70.55,70.55,0,0,0-19.07-13.57c-12.9-6.19-25.74-6.33-38.73-.18-18.06,8.55-32.64,22-48.3,33.92-29.46,22.4-60.06,43-94.11,57.84-17.28,7.53-35.27,11-53.74,3.69-17.36-6.9-26.58-20.25-27.21-38.43a166.78,166.78,0,0,1,20.29-86.84c12.73-23.35,33.81-37.75,56.62-50,13.58-7.27,27.92-13.17,40.45-22.35,26.21-19.2,27.95-45.79,4-67.89-15.46-14.29-34.26-23.22-53.48-31.14-60.8-25.07-122-48.64-186.9-61.65-42.67-8.56-82-26.73-121-45.76-45.45-22.21-90.63-44.89-132.9-72.88-19.86-13.16-41-16.26-63.66-8.83-19.93,6.52-39.87,13-59.92,19.19-32.62,10-66.25,10.67-99.93,9.68-28.28-.84-56.59-2-84.35-8.41-12-2.77-22.92-7.61-32.55-15.49a137.72,137.72,0,0,0-17.46-12c-15.7-9.19-26.46-7.77-39.79,4.73-13.55,12.69-23.17,28.16-29.92,45.2a585.49,585.49,0,0,1-28.61,61.1,1070.66,1070.66,0,0,0-55.49,121.29C336.11,327.46,301.92,379,259.05,425c-9,9.61-17.28,19.81-25.64,29.95a78.32,78.32,0,0,0-8.41,12.6c-8.93,16.47-7.25,28.09,7.79,39.2a920,920,0,0,1,71.37,58.73c11.69,10.61,26.84,16,40.88,23,21,10.34,41.15,21.93,57.1,39.41,16.65,18.25,28,39.06,27.4,64.66-.47,21.05-14.48,32-34.9,27.22-21.95-5.08-41.46-16.11-61-26.6-45.35-24.32-91.72-45.71-141.73-59-26.4-7.05-51.09-18.91-74.43-33.49-28.62-17.89-37.89-43.75-33.07-76,1.08-7.27,1.44-14.71-.22-21.89-3.93-17-6.78-34.16-10-51.28-6.72-36.15-31.93-57-68.79-58.6A176.53,176.53,0,0,0-68,405.47a56,56,0,0,0-6.18,2.89C-89,416.5-91.52,425.79-82.53,440c8.25,13.08,18.6,24.56,28.59,36.27q37.9,44.4,78.54,86.33C43.24,582,50.85,605,51.54,631.24c1.24,46.87-1.48,93.3-9.67,139.63-7.52,42.62-8.1,86-8.82,129.24-.18,10.61-.77,21.21-1.18,31.81H-88c-.28-2.76,1.55-4.74,2.66-6.94A390.21,390.21,0,0,0-68,885.45c12.27-33,12.94-65.46-2.32-97.89-9.6-20.39-20.69-39.94-31.44-59.68-15.09-27.74-26.54-56.62-30.79-88.2-2.54-19-4.21-38.19-11.41-56.26-11-27.54-31.65-47.38-53.57-65.72-29.25-24.46-59.51-47.7-89.34-71.47V19.73a26.58,26.58,0,0,0,3.9-3.39,311.58,311.58,0,0,0,31.61-48.78c14-27,19.85-55.38,14.23-85.58-2.66-14.34-5.82-28.58-8.76-42.86H-33.39c-.36,4.08-3.38,6.68-5.63,9.6C-70.71-110.2-89.85-65-86.89-11.86c1.18,21.07,6.66,40.18,18.66,57.48C-48.06,74.73-17.81,87.69,14.39,80c21.4-5.12,39-17.5,55.22-31.91C94,26.41,113.26.35,131.88-26.07c29.41-41.71,66.19-73.9,113.82-93.32a470.2,470.2,0,0,0,51.83-25.09c8.51-4.76,17.51-9,24.24-16.4H426.5a10.43,10.43,0,0,0,1.15,2.73c17.78,21.88,32.15,45.82,44.41,71.21,12,24.9,27.37,26.44,44.38,4.57,18.45-23.72,31.34-50.58,42.1-78.51q545.26,0,1090.53-.14c5.69,0,7,1.28,7,7Q1655.8,300.9,1655.9,755.86Z" transform="translate(287.03 161.04)"/><path class="a" d="M-286.86,446.23c29.83,23.77,60.09,47,89.34,71.47,21.92,18.34,42.61,38.18,53.57,65.72,7.2,18.07,8.87,37.29,11.41,56.26,4.25,31.58,15.7,60.46,30.79,88.2,10.75,19.74,21.84,39.29,31.44,59.68C-55,820-55.72,852.5-68,885.45A390.21,390.21,0,0,1-85.37,925c-1.11,2.2-2.94,4.18-2.66,6.94-64.25,0-128.51-.08-192.76.15-5.2,0-6.22-1-6.21-6.22Q-286.74,686-286.86,446.23Z" transform="translate(287.03 161.04)"/><path class="a" d="M321.77-160.88c-6.73,7.45-15.73,11.64-24.24,16.4a470.2,470.2,0,0,1-51.83,25.09C198.07-100,161.29-67.78,131.88-26.07,113.26.35,94,26.41,69.61,48.07,53.37,62.48,35.79,74.86,14.39,80c-32.2,7.71-62.45-5.25-82.62-34.36-12-17.3-17.48-36.41-18.66-57.48C-89.85-65-70.71-110.2-39-151.28c2.25-2.92,5.27-5.52,5.63-9.6Z" transform="translate(287.03 161.04)"/><path class="a" d="M558.54-160.88c-10.76,27.93-23.65,54.79-42.1,78.51-17,21.87-32.35,20.33-44.38-4.57-12.26-25.39-26.63-49.33-44.41-71.21a10.43,10.43,0,0,1-1.15-2.73Z" transform="translate(287.03 161.04)"/><path class="a" d="M-245.88-160.88c2.94,14.28,6.1,28.52,8.76,42.86,5.62,30.2-.26,58.6-14.23,85.58A311.58,311.58,0,0,1-283,16.34a26.58,26.58,0,0,1-3.9,3.39c0-58.23.1-116.47-.17-174.7,0-5.47,1.46-6.22,6.37-6.05C-269.08-160.6-257.48-160.88-245.88-160.88Z" transform="translate(287.03 161.04)"/><path class="b" d="M1618,931.92c6.16-14.26,17.65-22.56,31.53-28.17,2.09-.84,4.28-1.46,6.42-2.19,0,8.86-.2,17.72.1,26.56.1,3.28-.63,4-3.9,3.9C1640.72,931.76,1629.33,931.92,1618,931.92Z" transform="translate(287.03 161.04)"/></svg>