<svg xmlns="http://www.w3.org/2000/svg" viewBox="0 0 1943.23 1093.13"><defs><style>.a{fill:#ffffff;}.b{fill:#41c7f6;}</style></defs><title>1800f_00278</title><path class="a" d="M-286.86,915.22V411.32c13.64-7.18,23.83-18.49,34.05-29.49,20.55-22.14,43.59-40.7,71.54-52.6,21-8.92,42-17.86,65.31-18.14,22.83-.27,32.35,11.07,28.58,33.73-4.93,29.63-11,59.05-8.62,89.48,2.84,36.74,18.77,64.85,52.35,81.11C-11.54,531,22.09,543,56.16,553.35c26.81,8.11,52.42,3.9,72.76-17.22,16.14-16.76,22.69-37.83,24.31-60.66,1.56-21.77-2.75-42.8-8.07-63.66-4.56-17.91-1.95-34.64,7.4-50.35a184.88,184.88,0,0,1,13.05-19.53c15.17-19.28,31-38,46-57.47,31.72-41.41,64.47-81.7,104.16-116.1,27.59-23.91,44.61-54.57,49.73-91.29,2.09-15,2.89-30.3,8.91-44.46,13.28-31.2,35.51-55.53,60.07-78.13,16.13-14.85,35-19.57,56.15-16.34a253.1,253.1,0,0,1,67.39,20c14.52,6.65,26.91,15.73,35.49,29.72C598.73-3.56,607.13,1.1,617,3.21c12.39,2.65,24.66,1.4,36.89-1,36.86-7.07,68.59-25,98.58-46.66,9.22-6.65,18.42-13.37,28.73-18.36,10.71-5.18,21.35-5.32,32,.2a134.44,134.44,0,0,1,19.16,12.24,416,416,0,0,0,119.8,62.67c66.79,22,135.23,38.24,204.26,51.17,45.37,8.49,87.42,22.55,123.59,52,17.84,14.54,37,27.26,56,40.32q92.79,64,142.73,165.18c15.91,32.37,26.2,66.8,38,100.67,14.13,40.56,30.77,80.23,41,122.14,8.24,33.78,10.08,68.47,16.12,102.53,3.76,21.21,8.42,42.23,20.28,60.73,10.53,16.41,23.88,21.17,42.41,14.88,6.65-2.27,12.9-5.73,19.34-8.64v145.7c-26.59-1.13-49.39-8.32-61.91-35-8.35-17.8-19.42-20.9-37.15-12.5-10.78,5.1-20.24,12.26-30.11,18.82-36.43,24.21-52.91,60.22-60.56,101.55H19.73c.47-15.74,0-31.32-6.12-46.21-8.34-20.21-23.63-27-44-19.53-6.15,2.27-12.38,4.43-18.72,6.08-20.9,5.43-39,.25-54.1-15.12-24.44-24.94-31.72-55.55-28.19-89.25,3.33-31.87,11.73-63,13.75-95.09,1.5-23.7.29-47.12-11-68.67-15-28.46-46.19-36.75-70.94-19-18,12.92-26.87,30.88-27.9,52.91-.79,17,4.11,33,8.35,49.05,10.38,39.4,16.43,79.36,8.18,119.75-7.42,36.37-21.19,70.19-50,95.64C-268.38,909-276.26,915-286.86,915.22Zm1573-669.49c-12.87-.24-24.33,4.29-34.81,11.17-29.27,19.23-48.2,46.23-58.3,79.52-3.45,11.35-6.24,23-2.89,35,1.77,6.33,5.69,9.71,12.61,9.52,7.4-.21,13.79-3.32,19.77-7,27.16-16.59,50.59-37.56,70.94-62,7.6-9.13,14.7-18.63,18.65-30.07C1319.48,260.49,1308.91,245.77,1286.14,245.73Z" transform="translate(287.19 161.03)"/><path class="b" d="M1655.9,713.36c-6.44,2.91-12.69,6.37-19.34,8.64-18.53,6.29-31.88,1.53-42.41-14.88-11.86-18.5-16.52-39.52-20.28-60.73-6-34.06-7.88-68.75-16.12-102.53-10.22-41.91-26.86-81.58-41-122.14-11.81-33.87-22.1-68.3-38-100.67Q1428.95,219.73,1336,155.87c-19-13.06-38.15-25.78-56-40.32-36.17-29.48-78.22-43.54-123.59-52-69-12.93-137.47-29.14-204.26-51.17a416,416,0,0,1-119.8-62.67,134.44,134.44,0,0,0-19.16-12.24c-10.69-5.52-21.33-5.38-32-.2-10.31,5-19.51,11.71-28.73,18.36-30,21.64-61.72,39.59-98.58,46.66-12.23,2.35-24.5,3.6-36.89,1-9.85-2.11-18.25-6.77-23.51-15.34-8.58-14-21-23.07-35.49-29.72a253.1,253.1,0,0,0-67.39-20c-21.18-3.23-40,1.49-56.15,16.34-24.56,22.6-46.79,46.93-60.07,78.13-6,14.16-6.82,29.48-8.91,44.46-5.12,36.72-22.14,67.38-49.73,91.29-39.69,34.4-72.44,74.69-104.16,116.1-14.91,19.47-30.79,38.19-46,57.47a184.88,184.88,0,0,0-13.05,19.53c-9.35,15.71-12,32.44-7.4,50.35,5.32,20.86,9.63,41.89,8.07,63.66-1.62,22.83-8.17,43.9-24.31,60.66C108.58,557.25,83,561.46,56.16,553.35,22.09,543-11.54,531-43.65,515.41-77.23,499.15-93.16,471-96,434.3c-2.35-30.43,3.69-59.85,8.62-89.48,3.77-22.66-5.75-34-28.58-33.73-23.32.28-44.36,9.22-65.31,18.14-27.95,11.9-51,30.46-71.54,52.6-10.22,11-20.41,22.31-34.05,29.49q0-282.69-.14-565.37c0-5.69,1.28-7,7-7q137,.32,274,.15c.58,7.28.86,14.61,1.8,21.85C-.76-111.71,14.3-93.72,40.54-85.58c28.85,9,56.05,3.53,81.39-11.65,27.12-16.25,48.79-39.09,71.18-61,.65-.63.79-1.78,1.17-2.68q727.4,0,1454.79-.14c5.69,0,7,1.28,7,7Q1655.8,279.65,1655.9,713.36Z" transform="translate(287.19 161.03)"/><path class="b" d="M-286.86,915.22c10.6-.19,18.48-6.24,25.84-12.73,28.84-25.45,42.61-59.27,50-95.64,8.25-40.39,2.2-80.35-8.18-119.75-4.24-16.1-9.14-32.07-8.35-49.05,1-22,9.89-40,27.9-52.91,24.75-17.76,56-9.47,70.94,19,11.33,21.55,12.54,45,11,68.67-2,32.06-10.42,63.22-13.75,95.09-3.53,33.7,3.75,64.31,28.19,89.25,15.06,15.37,33.2,20.55,54.1,15.12,6.34-1.65,12.57-3.81,18.72-6.08,20.36-7.49,35.65-.68,44,19.53,6.14,14.89,6.59,30.47,6.12,46.21q-149.53,0-299.06.18c-6.51,0-8.64-1.46-7.61-7.81C-286.46,921.34-286.86,918.25-286.86,915.22Z" transform="translate(287.19 161.03)"/><path class="b" d="M1466.17,931.92c7.65-41.33,24.13-77.34,60.56-101.55,9.87-6.56,19.33-13.72,30.11-18.82,17.73-8.4,28.8-5.3,37.15,12.5,12.52,26.69,35.32,33.88,61.91,35,0,22.52-.16,45,.13,67.54.06,4.54-.92,5.46-5.45,5.44Q1558.38,931.77,1466.17,931.92Z" transform="translate(287.19 161.03)"/><path class="a" d="M194.28-160.88c-.38.9-.52,2-1.17,2.68-22.39,21.88-44.06,44.72-71.18,61C96.59-82,69.39-76.63,40.54-85.58,14.3-93.72-.76-111.71-4.27-139c-.94-7.24-1.22-14.57-1.8-21.85Z" transform="translate(287.19 161.03)"/><path class="b" d="M1286.14,245.73c22.77,0,33.34,14.76,26,36.15-3.95,11.44-11,20.94-18.65,30.07-20.35,24.43-43.78,45.4-70.94,62-6,3.64-12.37,6.75-19.77,7-6.92.19-10.84-3.19-12.61-9.52-3.35-12-.56-23.61,2.89-35,10.1-33.29,29-60.29,58.3-79.52C1261.81,250,1273.27,245.49,1286.14,245.73Z" transform="translate(287.19 161.03)"/></svg>