<svg xmlns="http://www.w3.org/2000/svg" viewBox="0 0 1943.09 1093.11"><defs><style>.a{fill:#ffffff;}.b{fill:#41c7f6;}</style></defs><title>1800f_00174</title><path class="a" d="M1655.9,232.22v27.32c-11.08,10-24.2,16.45-38,21.48-23.52,8.57-47.06,17.07-70.73,25.19a95.82,95.82,0,0,0-47.44,35A251.84,251.84,0,0,0,1482.53,368c-23.61,42.7-45.16,86.52-70.29,128.41-26,43.31-54.18,84.86-92,119-19.34,17.44-40.47,32.09-65.88,39.29-20.78,5.89-41.76,8.09-62.52-.12-12.14-4.8-16-12.48-13.11-25.34a114.45,114.45,0,0,1,4.26-14.52c4.64-12.57,9.86-24.93,14.26-37.57,9-26,5.23-50.15-10.33-72.83-14.61-21.28-34.23-37.82-51.92-56.2-24.83-25.81-53.08-44.28-90.57-44.52-10.47-.07-17.33-6.24-20.4-16.31-1-3.38-1.87-6.82-2.82-10.23-3.63-13.14-6.31-26.62-12.93-38.75-7.78-14.26-21-21.23-36.44-19.13a91.81,91.81,0,0,0-22.66,6c-19.77,8.15-37.59,19.79-55.42,31.29-27.25,17.56-55.92,29.33-89.18,25.93a223.77,223.77,0,0,1-50.2-11.26c-27.49-9.44-54.77-19.52-82.32-28.79-20.19-6.79-40.8-11.79-62.46-10.16-23.37,1.77-35.66,18.09-30,40.69,4.83,19.25,16.38,34.79,29.8,48.65C665.73,479.71,733.79,519,811,541.76c48.1,14.19,97.18,22.4,147.13,7.71,19.42-5.7,34.37.65,46.39,16.63,15.8,21,31.63,42.12,53,58.14,11.52,8.66,23.24,17.06,34.53,26,16.43,13,17.61,27.62,4.13,43.75a77.07,77.07,0,0,1-32,22.44c-38.64,14.95-74.81,34.46-109.07,57.67-6.68,4.52-14.08,8-21,12.23-25.75,16-52.82,17.32-81.72,9.79-36.53-9.52-69.24-1.8-95.65,26.45-17.52,18.74-22.39,40-12.2,64.27,7.88,18.79,21,33.12,37,45.06H344.54C331.2,917.63,314,909.74,296.1,903.37c-35.17-12.51-72.19-14.4-108.81-18.53-26.36-3-52.69-5.85-78.57-12.16-34-8.3-57.35-27.52-66.57-62.23-2.6-9.76-5.82-19.35-8.74-29C25.58,755.52,18,729.49,4.22,705.94c-22-37.72-52-68.08-86.92-94-15.4-11.44-30.76-23.11-42.74-38.42-8.26-10.54-10.26-21.76-3.44-33.82,3-5.28,5.86-10.64,9.24-15.66,15.13-22.44,30.25-44.9,41.17-69.79,13.9-31.7,22.08-64.59,17.89-99.48-5.22-43.44-29.66-85.13-83-91.33-12.12-1.41-20.27-8.34-26-18.63a66.41,66.41,0,0,1-6.43-17c-5.85-24.4-4.66-48.6,2.15-72.63,8-28,11.4-56.42,7-85.45-2.9-19-8.37-37.47-12.76-56.15C-184.39-6.24-186-26.22-177-45.09c27.32-57.31,69-94.06,136.07-96.12,38.34-1.18,76.78-3,114.79-9,14.59-2.3,29.48-3.84,43-10.67H1165.65c-.51,2.69,1.69,4.08,2.95,5.85C1215.52-89,1260-21.46,1296.47,51c27.17,53.9,64.94,99,109.81,138.92,38.53,34.24,81.39,48.9,132.84,35.85a244,244,0,0,1,78.24-7.17C1631.41,219.62,1644.85,222.58,1655.9,232.22Z" transform="translate(287.04 161.05)"/><path class="b" d="M781.66,931.92c-16.09-11.94-29.16-26.27-37-45.06-10.19-24.24-5.32-45.53,12.2-64.27,26.41-28.25,59.12-36,95.65-26.45,28.9,7.53,56,6.19,81.72-9.79,6.88-4.26,14.28-7.71,21-12.23,34.26-23.21,70.43-42.72,109.07-57.67a77.07,77.07,0,0,0,32-22.44c13.48-16.13,12.3-30.72-4.13-43.75-11.29-9-23-17.36-34.53-26-21.33-16-37.16-37.13-53-58.14-12-16-27-22.33-46.39-16.63-49.95,14.69-99,6.48-147.13-7.71C733.79,519,665.73,479.71,609.42,421.49c-13.42-13.86-25-29.4-29.8-48.65-5.68-22.6,6.61-38.92,30-40.69,21.66-1.63,42.27,3.37,62.46,10.16,27.55,9.27,54.83,19.35,82.32,28.79a223.77,223.77,0,0,0,50.2,11.26c33.26,3.4,61.93-8.37,89.18-25.93,17.83-11.5,35.65-23.14,55.42-31.29a91.81,91.81,0,0,1,22.66-6c15.46-2.1,28.66,4.87,36.44,19.13,6.62,12.13,9.3,25.61,12.93,38.75.95,3.41,1.79,6.85,2.82,10.23,3.07,10.07,9.93,16.24,20.4,16.31,37.49.24,65.74,18.71,90.57,44.52,17.69,18.38,37.31,34.92,51.92,56.2,15.56,22.68,19.35,46.87,10.33,72.83-4.4,12.64-9.62,25-14.26,37.57a114.45,114.45,0,0,0-4.26,14.52c-2.87,12.86,1,20.54,13.11,25.34,20.76,8.21,41.74,6,62.52.12,25.41-7.2,46.54-21.85,65.88-39.29,37.82-34.12,66-75.67,92-119,25.13-41.89,46.68-85.71,70.29-128.41a251.84,251.84,0,0,1,17.17-26.81,95.82,95.82,0,0,1,47.44-35c23.67-8.12,47.21-16.62,70.73-25.19,13.83-5,27-11.49,38-21.48V453.82c-23.05,34.28-42.91,70.2-55.76,109.65-6.85,21-10.86,42.53-9.35,64.84,1.64,24.1,14,41.75,33.48,46,10.42,2.29,21.11,1.49,31.63-.45q0,126,.14,252c0,5.19-1,6.21-6.22,6.21Q1215.74,931.82,781.66,931.92Z" transform="translate(287.04 161.05)"/><path class="b" d="M116.87-160.88c-13.52,6.83-28.41,8.37-43,10.67-38,6-76.45,7.82-114.79,9C-108-139.15-149.67-102.4-177-45.09c-9,18.87-7.4,38.85-2.74,58.7,4.39,18.68,9.86,37.12,12.76,56.15,4.44,29,1,57.42-7,85.45-6.81,24-8,48.23-2.15,72.63a66.41,66.41,0,0,0,6.43,17c5.75,10.29,13.9,17.22,26,18.63,53.39,6.2,77.83,47.89,83.05,91.33,4.19,34.89-4,67.78-17.89,99.48-10.92,24.89-26,47.35-41.17,69.79-3.38,5-6.25,10.38-9.24,15.66-6.82,12.06-4.82,23.28,3.44,33.82,12,15.31,27.34,27,42.74,38.42,34.9,25.92,64.94,56.28,86.92,94C18,729.49,25.58,755.52,33.41,781.42c2.92,9.68,6.14,19.27,8.74,29,9.22,34.71,32.54,53.93,66.57,62.23,25.88,6.31,52.21,9.19,78.57,12.16,36.62,4.13,73.64,6,108.81,18.53,17.93,6.37,35.1,14.26,48.44,28.55q-312.42,0-624.83.12c-5.13,0-6.76-.63-6.75-6.45q.38-158.48.18-317c5-5.37,8.16-11.88,11.27-18.37,6.19-12.94,3-19.26-11.27-22.61q0-361-.12-722c0-5.17.69-6.73,6.46-6.72Q-81.83-160.72,116.87-160.88Z" transform="translate(287.04 161.05)"/><path class="b" d="M1655.9,232.22c-11.05-9.64-24.49-12.6-38.54-13.66a244,244,0,0,0-78.24,7.17c-51.45,13.05-94.31-1.61-132.84-35.85-44.87-39.88-82.64-85-109.81-138.92-36.5-72.42-81-140-127.87-206-1.26-1.77-3.46-3.16-2.95-5.85H1325a34,34,0,0,0,1.25,5.06,394.49,394.49,0,0,0,45.3,81.19c20.1,27.65,43.23,52.07,74.78,67,23.66,11.2,49,15.29,74.75,17.7,42.1,3.94,78.5-7.71,107.08-39.82,9.72-10.91,18.5-22.65,27.72-34Z" transform="translate(287.04 161.05)"/><path class="a" d="M1655.9-63.74c-9.22,11.36-18,23.1-27.72,34C1599.6,2.38,1563.2,14,1521.1,10.09c-25.75-2.41-51.09-6.5-74.75-17.7-31.55-14.95-54.68-39.37-74.78-67a394.49,394.49,0,0,1-45.3-81.19,34,34,0,0,1-1.25-5.06q162.4,0,324.8-.15c5.2,0,6.28,1,6.23,6.22C1655.73-124.46,1655.9-94.1,1655.9-63.74Z" transform="translate(287.04 161.05)"/><path class="a" d="M1655.9,673.9c-10.52,1.94-21.21,2.74-31.63.45-19.49-4.29-31.84-21.94-33.48-46-1.51-22.31,2.5-43.8,9.35-64.84C1613,524,1632.85,488.1,1655.9,453.82Z" transform="translate(287.04 161.05)"/><path class="a" d="M-286.86,567.65c14.23,3.35,17.46,9.67,11.27,22.61-3.11,6.49-6.29,13-11.27,18.37Z" transform="translate(287.04 161.05)"/></svg>