<svg xmlns="http://www.w3.org/2000/svg" viewBox="0 0 1943.07 1093.08"><defs><style>.a{fill:#ffffff;}.b{fill:#41c7f6;}</style></defs><title>1800f_00122</title><path class="a" d="M-286.86,475.07V160.89a618.15,618.15,0,0,1,96.1-3.43c33.39,1.28,66.68,3.09,99.15,11.74q31.14,8.3,62.57,15.36c49.1,11.07,97.18,9.42,144.58-8.77a745.53,745.53,0,0,0,87.59-39.9c62.53-33.81,127.6-62.44,191.2-94.06C418,30.06,441.09,31.3,463.63,45.2,484.43,58,503.4,73,519.52,91.44a92.1,92.1,0,0,0,26.62,21c23.16,12.21,47.87,11.1,72.65,8.21,50.12-5.87,100-14.12,150.52-16.18,45-1.84,88.8,1.81,130.7,19.94,21.12,9.13,43.11,15.92,65.36,21.92a548.86,548.86,0,0,1,54.06,17.59c13.63,5.23,21.85,14.8,25.15,29,4.08,17.51,3,35.14,2,52.83-1.54,27.26-3.9,54.71,3.28,81.49,13.51,50.36,39.26,94.53,70.8,135.51,9.81,12.75,21.88,23.18,37.27,29,15.14,5.71,29.37,1.2,38.7-11.94,4.76-6.71,7.67-14.2,10-22,15-49.91,31.73-99.12,54.14-146.35C1280,271,1295.56,229,1303,184.53c3.36-20.07,7.68-39.72,17.81-57.59,11.81-20.84,28.1-35.22,53.16-38,16.86-1.89,33.25,1,49.72,3.06,24.12,3.08,48.17,6,72.46,2.08,7.22-1.15,14.39-2.86,21.78-2.15,18.07,1.72,28,13.89,35.59,28.52,11.76,22.83,19.16,47.26,25,72.19a136.5,136.5,0,0,1,2.43,44.51,448.22,448.22,0,0,1-25.85,111.22c-25.06,68.07-36.87,137.91-31.62,210.53,3.13,43.19,8.44,86,18.78,128.08,10.12,41.14,29.85,75.71,69.75,95.12,14.22,6.92,28.22,14.52,43.94,17.8,0,42.25-.09,84.49.13,126.73,0,4.53-.92,5.47-5.45,5.45-39.21-.23-78.42-.13-117.62-.13-5.5-10.85-15.71-15.39-26.44-18-32.82-8.1-61.94,3.7-90.43,18H467.48a145.75,145.75,0,0,0,5.3-22.86c5.76-38.75,1.36-76.15-15.73-111.6-8-16.48-21.12-27-39.61-29.6-19.47-2.74-36.89-10.4-53-21.31C351.09,737.49,338,728,324.75,718.74c-12.84-9-25.42-18.43-40.89-22.65-16.85-4.59-29.07,2.45-33.38,19.28a85.82,85.82,0,0,0-2.83,21.71c.06,19.34,3.67,38.18,8.4,56.8,11,43.36,24.17,86.1,38.1,128.6,1,3,3.1,5.94,1.82,9.44q-288.15,0-576.29.12c-5.21,0-6.72-.74-6.71-6.47q.34-172.14.17-344.26c4.05-12,6.44-24.44,8.22-36.92C-275.25,520.62-274.15,497-286.86,475.07Z" transform="translate(287.03 161.03)"/><path class="b" d="M1655.9,799.87c-15.72-3.28-29.72-10.88-43.94-17.8-39.9-19.41-59.63-54-69.75-95.12-10.34-42.06-15.65-84.89-18.78-128.08-5.25-72.62,6.56-142.46,31.62-210.53a448.22,448.22,0,0,0,25.85-111.22,136.5,136.5,0,0,0-2.43-44.51c-5.79-24.93-13.19-49.36-25-72.19-7.54-14.63-17.52-26.8-35.59-28.52-7.39-.71-14.56,1-21.78,2.15-24.29,3.87-48.34,1-72.46-2.08-16.47-2.11-32.86-5-49.72-3.06-25.06,2.81-41.35,17.19-53.16,38-10.13,17.87-14.45,37.52-17.81,57.59-7.44,44.48-23,86.42-42.27,126.93-22.41,47.23-39.14,96.44-54.14,146.35-2.33,7.78-5.24,15.27-10,22-9.33,13.14-23.56,17.65-38.7,11.94-15.39-5.8-27.46-16.23-37.27-29-31.54-41-57.29-85.15-70.8-135.51-7.18-26.78-4.82-54.23-3.28-81.49,1-17.69,2.12-35.32-2-52.83-3.3-14.19-11.52-23.76-25.15-29a548.86,548.86,0,0,0-54.06-17.59c-22.25-6-44.24-12.79-65.36-21.92-41.9-18.13-85.72-21.78-130.7-19.94-50.57,2.06-100.4,10.31-150.52,16.18-24.78,2.89-49.49,4-72.65-8.21a92.1,92.1,0,0,1-26.62-21C503.4,73,484.43,58,463.63,45.2c-22.54-13.9-45.63-15.14-69.3-3.37-63.6,31.62-128.67,60.25-191.2,94.06a745.53,745.53,0,0,1-87.59,39.9C68.14,194,20.06,195.63-29,184.56q-31.44-7.08-62.57-15.36c-32.47-8.65-65.76-10.46-99.15-11.74a618.15,618.15,0,0,0-96.1,3.43V-47c8.35-1.37,15.93-4.93,23.12-9.06,40-23,69.91-55.84,92.57-95.64,1.57-2.75,3.74-5.52,2.7-9.13H34.91C47.74-144.66,64-134.23,84.49-130.1c18.6,3.75,39.87-8.29,49.07-30.78H1247.61c0,2.08-1.77,2.95-3,4.14a331.21,331.21,0,0,0-55.84,71.47c-14.71,25.12-31,49.14-47.5,73.05-18.32,26.51-35,53.6-38.53,87-2.66,25.23,6.23,34.89,30.94,28.46a825.3,825.3,0,0,0,105.53-35.37c19.93-8.17,38.89-18.14,56.07-31.34,23.21-17.84,38.24-42.1,53-66.61,7.82-13,15.25-26.26,19.32-41,3.8-13.79,1.92-26.45-7.8-37.58s-21.5-20.62-32-31.15c-7.26-7.25-16.13-12.78-22.46-21q172.26,0,344.53-.15c5.2,0,6.22,1,6.22,6.22Q1655.8,322.54,1655.9,799.87Z" transform="translate(287.03 161.03)"/><path class="a" d="M1305.29-160.88c6.33,8.24,15.2,13.77,22.46,21,10.54,10.53,22.2,19.89,32,31.15s11.6,23.79,7.8,37.58c-4.07,14.76-11.5,28-19.32,41-14.74,24.51-29.77,48.77-53,66.61-17.18,13.2-36.14,23.17-56.07,31.34a825.3,825.3,0,0,1-105.53,35.37c-24.71,6.43-33.6-3.23-30.94-28.46,3.53-33.37,20.21-60.46,38.53-87,16.51-23.91,32.79-47.93,47.5-73a331.21,331.21,0,0,1,55.84-71.47c1.22-1.19,3-2.06,3-4.14Z" transform="translate(287.03 161.03)"/><path class="b" d="M296,931.92c1.28-3.5-.82-6.41-1.82-9.44-13.93-42.5-27.08-85.24-38.1-128.6-4.73-18.62-8.34-37.46-8.4-56.8a85.82,85.82,0,0,1,2.83-21.71c4.31-16.83,16.53-23.87,33.38-19.28,15.47,4.22,28.05,13.68,40.89,22.65,13.25,9.26,26.34,18.75,39.72,27.81,16.08,10.91,33.5,18.57,53,21.31,18.49,2.6,31.65,13.12,39.61,29.6,17.09,35.45,21.49,72.85,15.73,111.6a145.75,145.75,0,0,1-5.3,22.86Z" transform="translate(287.03 161.03)"/><path class="a" d="M-168.47-160.88c1,3.61-1.13,6.38-2.7,9.13-22.66,39.8-52.55,72.67-92.57,95.64-7.19,4.13-14.77,7.69-23.12,9.06,0-36.31.09-72.62-.12-108.92,0-4.22.86-5.05,5-5C-244.12-160.8-206.29-160.88-168.47-160.88Z" transform="translate(287.03 161.03)"/><path class="a" d="M133.56-160.88c-9.2,22.49-30.47,34.53-49.07,30.78C64-134.23,47.74-144.66,34.91-160.88Z" transform="translate(287.03 161.03)"/><path class="b" d="M1416.09,931.92c28.49-14.34,57.61-26.14,90.43-18,10.73,2.65,20.94,7.19,26.44,18Z" transform="translate(287.03 161.03)"/><path class="b" d="M-286.86,475.07c12.71,21.92,11.61,45.55,8.22,69.32-1.78,12.48-4.17,24.91-8.22,36.92Z" transform="translate(287.03 161.03)"/></svg>