<svg xmlns="http://www.w3.org/2000/svg" viewBox="0 0 1366.32 768.24"><defs><style>.a{fill:#ffffff;}.b{fill:#41c7f6;}</style></defs><title>1800f_00077</title><path class="a" d="M1367.52,511.49v75.89c-33.93,14.71-66.93,31.1-96.88,53.06-11.11,8.15-15.3,19.3-13.21,32.57,5,32,9.72,64,8.4,96.51H136.6c27.22-19.64,57-33.72,90.21-39.32,44.4-7.49,80.29-29.13,109.54-62.74,14.12-16.23,26.08-33.54,29.34-55.51,2.2-14.85,2.11-29.8,1.06-44.66-3.11-44-3.37-87.8,2.89-131.62,2.4-16.75,1.89-33.87-3.77-50.28-6.89-19.94-22.41-25.32-40-13.71-12.51,8.27-21.4,19.87-28.8,32.72-9.2,16-16.89,32.86-28.26,47.54-12.57,16.24-27.4,19.38-45.3,9.47-13.23-7.31-24.17-17.4-34.06-28.69-21.55-24.61-28-52.65-18.55-84,4.36-14.52,9.37-28.84,14-43.29,12.25-38.53,8-74.76-14.88-108.54a240.16,240.16,0,0,0-75.45-71.35c-6.06-3.67-12-7.55-17.1-12.53-7.79-7.64-6.44-14.08,4-17.28,12.57-3.88,25-2.06,37.18,2.26,8.1,2.88,16.07,6.11,24.21,8.83,30,10,59.76,12.83,89.06-2.45,36.61-19.11,72.05-40.1,103.75-66.76,12.54-10.54,24.57-21.8,33.2-36.06h588.9c16.14,32,31.66,64.47,54,92.74q63.78,80.49,128.54,160.23c26.64,32.64,47.22,67.73,54.42,110,3.42,20.13,9.45,39.79,19,58.14,7.93,15.25,19.1,26.9,34.56,34.92,25.13,13,50.55,25.45,76.45,36.85C1338.78,500.6,1352.64,507.36,1367.52,511.49ZM709.39,732.73c2.84-.17,5.36-.3,7.88-.48,31.2-2.28,61-11.3,91.18-18.71a62.29,62.29,0,0,0,18.09-7.68c8.77-5.46,10.76-13.25,5.31-22a38.67,38.67,0,0,0-19.52-16.12c-11.81-4.48-24.21-5.54-36.56-5.25-27.53.66-54.1,6.64-79.86,16.23-10.45,3.89-20.67,8.35-29.24,15.73-13.1,11.27-11.56,23.1,3.86,30.88C682.88,731.55,696.34,731.8,709.39,732.73ZM1204,634.87c-7-.71-13.82,1.18-20.51,3.47-27.11,9.29-52.3,22.72-77.49,36.13-5.77,3.07-11.63,6.23-15.84,11.49-5,6.21-3.88,14.63,2.71,17.3,5.76,2.34,11.74,3.78,18.39,2.7,24.39-4,46-14.83,67.21-26.61,14.09-7.83,28.13-15.85,38.31-29,2.56-3.31,4.11-6.63,2.32-10.36s-5.57-4.91-9.55-5.1C1207.77,634.8,1206,634.87,1204,634.87ZM733,548.57c-3.55.48-9.65-1.37-10.45,4-.84,5.71,5.62,5.86,9.62,7.48a3.79,3.79,0,0,0,.73.21,20,20,0,0,0,14.36-3c1.22-.78,1.33-2,.41-3.26-3.38-4.51-8.12-5.65-13.41-5.44Z" transform="translate(-1.33 -1.41)"/><path class="b" d="M368.82,1.52c-8.63,14.26-20.66,25.52-33.2,36.06-31.7,26.66-67.14,47.65-103.75,66.76-29.3,15.28-59.1,12.45-89.06,2.45-8.14-2.72-16.11-6-24.21-8.83C106.44,93.64,94,91.82,81.42,95.7c-10.39,3.2-11.74,9.64-4,17.28,5.08,5,11,8.86,17.1,12.53A240.16,240.16,0,0,1,170,196.86c22.91,33.78,27.13,70,14.88,108.54-4.6,14.45-9.61,28.77-14,43.29-9.44,31.38-3,59.42,18.55,84,9.89,11.29,20.83,21.38,34.06,28.69,17.9,9.91,32.73,6.77,45.3-9.47,11.37-14.68,19.06-31.56,28.26-47.54,7.4-12.85,16.29-24.45,28.8-32.72,17.56-11.61,33.08-6.23,40,13.71,5.66,16.41,6.17,33.53,3.77,50.28-6.26,43.82-6,87.64-2.89,131.62,1.05,14.86,1.14,29.81-1.06,44.66-3.26,22-15.22,39.28-29.34,55.51-29.25,33.61-65.14,55.25-109.54,62.74-33.17,5.6-63,19.68-90.21,39.32-43.38,0-86.77-.08-130.15.11-4.17,0-5.08-.79-5.05-5,.2-40.36.12-80.71.12-121.07,3.37-.42,4.93-3.32,7-5.36a169.78,169.78,0,0,1,62.44-39c11.65-4.11,23.45-7.94,34.82-12.73,19-8,25.32-21.52,20.09-41.53a88.66,88.66,0,0,0-3.1-9.33C106.34,493,82.28,454.89,52.08,420.8c-14.73-16.62-32.46-30.05-50.56-42.87V252c5.93-7,9.65-15.22,13.15-23.56,5.58-13.27,7.12-26.77,1.49-40.35A136.8,136.8,0,0,0,1.52,160.89c0-51,.14-102-.19-153.08,0-5.89,1.73-6.41,6.78-6.4Q188.47,1.62,368.82,1.52Z" transform="translate(-1.33 -1.41)"/><path class="b" d="M1367.52,511.49c-14.88-4.13-28.74-10.89-42.78-17.07-25.9-11.4-51.32-23.81-76.45-36.85-15.46-8-26.63-19.67-34.56-34.92-9.55-18.35-15.58-38-19-58.14-7.2-42.29-27.78-77.38-54.42-110q-64.92-79.59-128.54-160.23c-22.39-28.27-37.91-60.73-54-92.74h318.73c3.39,8.39,10.68,13.1,17.71,17.62,24.3,15.61,48.88,30.78,73.36,46.13Z" transform="translate(-1.33 -1.41)"/><path class="a" d="M1.52,377.93c18.1,12.82,35.83,26.25,50.56,42.87,30.2,34.09,54.26,72.15,70.72,114.79a88.66,88.66,0,0,1,3.1,9.33c5.23,20-1.05,33.51-20.09,41.53-11.37,4.79-23.17,8.62-34.82,12.73a169.78,169.78,0,0,0-62.44,39c-2.1,2-3.66,4.94-7,5.36Z" transform="translate(-1.33 -1.41)"/><path class="b" d="M1265.83,769.52c1.32-32.53-3.37-64.52-8.4-96.51-2.09-13.27,2.1-24.42,13.21-32.57,29.95-22,62.95-38.35,96.88-53.06,0,58.94-.07,117.88.13,176.82,0,4.53-.91,5.48-5.45,5.45C1330.08,769.4,1298,769.52,1265.83,769.52Z" transform="translate(-1.33 -1.41)"/><path class="a" d="M1367.52,65.27c-24.48-15.35-49.06-30.52-73.36-46.13-7-4.52-14.32-9.23-17.71-17.62,28.84,0,57.68.08,86.51-.1,3.8,0,4.7.85,4.66,4.65C1367.4,25.8,1367.52,45.54,1367.52,65.27Z" transform="translate(-1.33 -1.41)"/><path class="a" d="M1.52,160.89A136.8,136.8,0,0,1,16.16,188c5.63,13.58,4.09,27.08-1.49,40.35C11.17,236.73,7.45,245,1.52,252Z" transform="translate(-1.33 -1.41)"/><path class="b" d="M709.39,732.73c-13-.93-26.51-1.18-38.86-7.41-15.42-7.78-17-19.61-3.86-30.88,8.57-7.38,18.79-11.84,29.24-15.73,25.76-9.59,52.33-15.57,79.86-16.23,12.35-.29,24.75.77,36.56,5.25a38.67,38.67,0,0,1,19.52,16.12c5.45,8.76,3.46,16.55-5.31,22a62.29,62.29,0,0,1-18.09,7.68c-30.15,7.41-60,16.43-91.18,18.71C714.75,732.43,712.23,732.56,709.39,732.73Z" transform="translate(-1.33 -1.41)"/><path class="b" d="M1204,634.87c2,0,3.79-.07,5.55,0,4,.19,7.76,1.37,9.55,5.1s.24,7-2.32,10.36c-10.18,13.16-24.22,21.18-38.31,29-21.21,11.78-42.82,22.62-67.21,26.61-6.65,1.08-12.63-.36-18.39-2.7-6.59-2.67-7.68-11.09-2.71-17.3,4.21-5.26,10.07-8.42,15.84-11.49,25.19-13.41,50.38-26.84,77.49-36.13C1190.16,636.05,1197,634.16,1204,634.87Z" transform="translate(-1.33 -1.41)"/><path class="b" d="M733,548.57h1.26c5.29-.21,10,.93,13.41,5.44.92,1.23.81,2.48-.41,3.26a20,20,0,0,1-14.36,3,3.79,3.79,0,0,1-.73-.21c-4-1.62-10.46-1.77-9.62-7.48C723.39,547.2,729.49,549.05,733,548.57Z" transform="translate(-1.33 -1.41)"/></svg>