<svg xmlns="http://www.w3.org/2000/svg" viewBox="0 0 1943.06 1093.1"><defs><style>.a{fill:#ffffff;}.b{fill:#41c7f6;}</style></defs><title>1800f_00168</title><path class="a" d="M1655.9,153.3V681.48c-3.15-.19-5,2.28-7.18,3.79a155.5,155.5,0,0,1-25.2,13.92c-21.37,9.4-37.59,5.25-51-13.68-15-21.1-18.84-45.66-19.31-70.63-.78-41.92,7.23-82.45,22.35-121.54,8.12-21,17.34-41.54,23.85-63.12,16-52.8,12.63-103.76-14.66-152.45-5.2-9.28-13.09-14.56-23.15-16.83-18.37-4.13-36.06-.28-53.82,4.35-38.39,10-68,31.1-87.69,66-7.43,13.22-15.1,26.31-22.09,39.78-21.91,42.18-43.88,84.33-68.9,124.8-19,30.82-41.46,58.74-71.71,79.35-40.87,27.84-86.81,39.35-135.63,39-31.09-.19-57.78,9.68-82.13,28.32-27,20.69-50.72,44.89-75,68.5-16.5,16-33,32-52.85,44.17-24,14.78-47.26,16.48-70.35-1.63a110.42,110.42,0,0,0-11.42-7.47c-7.82-4.71-15.91-8.85-24.74-11.38-47.57-13.66-96.68,17.58-115.12,46.33-9.62,15-9.48,29.65,1.86,43.46,13.16,16,26.83,31.63,43.33,44.39,18.06,14,38.53,14.87,59.92,10.57,15.45-3.11,30.68-4.49,43.74,7.3,17,15.37,32.94,32,52,45.06H321.77c.85-2.34-.21-4.44-.79-6.62-8.86-33.49-30.09-55.84-61.65-69.2-27.85-11.8-56.94-17.43-87-18.26-25.77-.71-51.58,0-77.32-1.77-17.93-1.27-35.65-3.86-52.86-9.32C16.69,818.67.28,802-6,775.9c-2.71-11.29-5.25-22.64-7.46-34-8-41.33-20.75-80.65-46.09-115.13-15.28-20.79-30.78-41.36-47.54-61-13.46-15.76-28-30.58-40.27-47.36-10.28-14.1-10.28-23.22.1-37.2,6.19-8.34,13.52-15.67,21.14-22.73,20-18.54,41.55-35.49,59.07-56.63,20.78-25.08,30.32-52.56,16.79-84.25-10.37-24.27-26-45.05-45.42-62.85C-108.84,242.64-124,238-142.41,240.78c-33.69,5-56.37-8.2-68.74-37.87-11.21-26.89-8.14-46.33,12.89-65.62s23.52-43,19.85-68.82c-3.42-24.07-13-46.11-23.82-67.63-20.86-41.35-22.91-83.22-3.34-125.61C-200-136.9-194-148.85-188.2-160.88H1200.56a52.26,52.26,0,0,0,1.35,5.85c13,37.14,29.8,72.35,52.07,104.92,18.48,27,40.13,51.32,63,74.6,29.58,30.09,60.29,59.19,86.22,92.58,24.28,31.28,56,43.6,94.68,42.64q48.52-1.2,96.79-5.7C1615,152.1,1635.45,150.09,1655.9,153.3Zm-1072,136.15c-12.22-.93-24.31-.31-35.92,3.78-19,6.71-25.63,20.59-18.92,39.54,5.46,15.4,15.58,27.76,27,38.91,53,51.59,114.91,88.95,184.3,114.09C799.1,507,859.41,518,922,511.68c28.24-2.88,52.27,4.64,73.14,23.84,11.34,10.43,23.13,20.46,35.42,29.73,23.8,17.94,50,22.56,78.83,13.46,26-8.22,45.35-25.15,61.6-46,24.61-31.5,21.2-57.44-8.79-84-44.19-39.14-85.76-80.82-118.26-130.55-16.87-25.81-41.15-34.13-70.51-32.21-21.23,1.39-42,6.14-63.08,8.44-49.73,5.42-99.52,10.25-149.24,15.77-37.33,4.15-74.07,2.64-110.42-7.67C628.83,296.32,606.8,290.45,583.89,289.45Z" transform="translate(287 161.04)"/><path class="b" d="M890.94,931.92c-19.07-13-35-29.69-52-45.06-13.06-11.79-28.29-10.41-43.74-7.3-21.39,4.3-41.86,3.4-59.92-10.57-16.5-12.76-30.17-28.38-43.33-44.39-11.34-13.81-11.48-28.48-1.86-43.46,18.44-28.75,67.55-60,115.12-46.33,8.83,2.53,16.92,6.67,24.74,11.38a110.42,110.42,0,0,1,11.42,7.47c23.09,18.11,46.33,16.41,70.35,1.63,19.82-12.19,36.35-28.15,52.85-44.17,24.31-23.61,48-47.81,75-68.5,24.35-18.64,51-28.51,82.13-28.32,48.82.3,94.76-11.21,135.63-39,30.25-20.61,52.66-48.53,71.71-79.35,25-40.47,47-82.62,68.9-124.8,7-13.47,14.66-26.56,22.09-39.78,19.64-34.93,49.3-56,87.69-66,17.76-4.63,35.45-8.48,53.82-4.35,10.06,2.27,18,7.55,23.15,16.83,27.29,48.69,30.61,99.65,14.66,152.45-6.51,21.58-15.73,42.14-23.85,63.12-15.12,39.09-23.13,79.62-22.35,121.54.47,25,4.31,49.53,19.31,70.63,13.45,18.93,29.67,23.08,51,13.68a155.5,155.5,0,0,0,25.2-13.92c2.2-1.51,4-4,7.18-3.79q0,122.19.14,244.37c0,5.19-1,6.22-6.22,6.21q-251.19-.25-502.38-.14c-6.93-7-13.1-14.64-19.32-22.26-13.91-17.06-32.12-24.15-53.75-20.61-38.5,6.3-71.55,26.44-106,42.87Z" transform="translate(287 161.04)"/><path class="b" d="M-188.2-160.88c-5.8,12-11.78,24-17.37,36.11C-225.14-82.38-223.09-40.51-202.23.84c10.85,21.52,20.4,43.56,23.82,67.63,3.67,25.77,1.16,49.54-19.85,68.82s-24.1,38.73-12.89,65.62c12.37,29.67,35.05,42.89,68.74,37.87,18.39-2.74,33.57,1.86,46.74,13.95,19.4,17.8,35.05,38.58,45.42,62.85,13.53,31.69,4,59.17-16.79,84.25-17.52,21.14-39.06,38.09-59.07,56.63-7.62,7.06-15,14.39-21.14,22.73-10.38,14-10.38,23.1-.1,37.2,12.23,16.78,26.81,31.6,40.27,47.36,16.76,19.62,32.26,40.19,47.54,61,25.34,34.48,38.08,73.8,46.09,115.13,2.21,11.4,4.75,22.75,7.46,34C.28,802,16.69,818.67,42.14,826.75c17.21,5.46,34.93,8,52.86,9.32,25.74,1.82,51.55,1.06,77.32,1.77,30.07.83,59.16,6.46,87,18.26,31.56,13.36,52.79,35.71,61.65,69.2.58,2.18,1.64,4.28.79,6.62q-300.9,0-601.8.14c-5.69,0-7-1.28-7-7q.24-539.58,0-1079.14c0-5.69,1.27-7,7-7C-249.42-160.71-218.81-160.88-188.2-160.88Z" transform="translate(287 161.04)"/><path class="b" d="M1655.9,153.3c-20.45-3.21-40.88-1.2-61.22.71q-48.32,4.55-96.79,5.7c-38.66,1-70.4-11.36-94.68-42.64-25.93-33.39-56.64-62.49-86.22-92.58-22.88-23.28-44.53-47.57-63-74.6-22.27-32.57-39.1-67.78-52.07-104.92a52.26,52.26,0,0,1-1.35-5.85h103.21c25,23.56,48.82,48.39,75.53,70.11,24.55,20,49.86,38.79,79,51.88,40.92,18.42,80,12.83,111-16.62,24.65-23.47,42.73-51.74,57.4-82.22,3.47-7.2,6.28-14.89,6.5-23.15,6.58,0,13.16.17,19.73-.09,2.64-.1,3.56.48,3.07,3.13a21.77,21.77,0,0,0,0,3.79Z" transform="translate(287 161.04)"/><path class="a" d="M1633.13-160.88c-.22,8.26-3,15.95-6.5,23.15-14.67,30.48-32.75,58.75-57.4,82.22-30.92,29.45-70,35-111,16.62-29.1-13.09-54.41-31.91-79-51.88-26.71-21.72-50.53-46.55-75.53-70.11Z" transform="translate(287 161.04)"/><path class="a" d="M968.34,931.92c34.48-16.43,67.53-36.57,106-42.87,21.63-3.54,39.84,3.55,53.75,20.61,6.22,7.62,12.39,15.26,19.32,22.26Z" transform="translate(287 161.04)"/><path class="b" d="M583.89,289.45c22.91,1,44.94,6.87,66.79,13.07,36.35,10.31,73.09,11.82,110.42,7.67,49.72-5.52,99.51-10.35,149.24-15.77,21.08-2.3,41.85-7.05,63.08-8.44,29.36-1.92,53.64,6.4,70.51,32.21,32.5,49.73,74.07,91.41,118.26,130.55,30,26.56,33.4,52.5,8.79,84-16.25,20.82-35.56,37.75-61.6,46-28.81,9.1-55,4.48-78.83-13.46-12.29-9.27-24.08-19.3-35.42-29.73-20.87-19.2-44.9-26.72-73.14-23.84C859.41,518,799.1,507,740.39,485.77,671,460.63,609.1,423.27,556.09,371.68c-11.46-11.15-21.58-23.51-27-38.91-6.71-18.95-.12-32.83,18.92-39.54C559.58,289.14,571.67,288.52,583.89,289.45Z" transform="translate(287 161.04)"/></svg>