<svg xmlns="http://www.w3.org/2000/svg" viewBox="0 0 1943.03 1093.11"><defs><style>.a{fill:#ffffff;}.b{fill:#41c7f6;}</style></defs><title>1800f_00121</title><path class="a" d="M1655.9,793.8c0,44.27-.09,88.54.12,132.8,0,4.53-.91,5.48-5.44,5.45-36.68-.23-73.36-.13-110-.13.87-3-1.28-4.69-2.79-6.6-10.32-13.08-24.35-19.4-40.5-20.7-34.94-2.81-65.37,10.7-94.82,27.3h-938c-.53-2.38.64-4.45,1.19-6.63,11-43.61,7.79-86.3-9.09-127.85-6.6-16.24-17-30.22-34.93-34.37-29.89-6.92-54.73-22.94-79.26-40.12-16.11-11.28-31.84-23.44-51-29.4-20-6.21-34.07,1.3-39.81,21.13-3.12,10.8-3.56,22-3.17,33C249.6,783,258,817.18,266.42,851.28c6.73,27.19,14.11,54.21,23.48,80.64q-285.19,0-570.37.16c-5.62,0-6.53-1.35-6.52-6.67q.23-384.54.13-769.08c18.11-1.63,36.2-3.37,54.4-3.77,43-.95,86-.43,128.41,7.9,27,5.32,53,15.1,79.9,21C18.35,190.8,60,189.64,101.28,175c27-9.59,53.44-20.42,78.49-34.19,71-39,146.53-68.59,218.85-104.84,21.41-10.74,42.79-10.2,63.9,1.6,21.37,12,41.16,26.21,57,44.73,22.72,26.5,51.51,33.85,84.55,30.76,56-5.26,111.56-15.25,168.06-16.71,41.38-1.07,81.88,1,120.62,16.8a647.17,647.17,0,0,0,97.41,31.05c9.59,2.23,18.93,5.49,28.35,8.38,16.26,5,24.85,16.22,27.36,32.87,3.13,20.76,1.2,41.35-.94,62-2.88,27.76-4.64,55.6,3.36,82.83,14.19,48.33,40.67,89.51,75.23,125.64,8,8.39,17.66,15.13,29.3,18.28,13.21,3.57,24.78-.54,32.45-11.78,4-5.91,6.66-12.47,8.84-19.22,16-49.6,33.59-98.52,56.69-145.44,18.69-38,32.77-77.82,40.2-119.68,3.87-21.84,9.17-43,21.44-61.85,16-24.66,37.23-39.7,68.3-35.73,11.06,1.42,21.81,4.27,32.46,7.45,29.59,8.84,59.1,17.35,90.64,15.79,13.75-.69,25.36,6.18,34.18,16.92,16.94,20.61,25.56,45.16,32.64,70.32a119.2,119.2,0,0,1,3.88,40.57c-2.71,39.48-13.22,77.19-27,114-21.51,57.5-33,116.62-31.15,178.11a649.69,649.69,0,0,0,23.37,154.8c9.14,32.81,23.72,62.46,51.77,83.54C1611,776.55,1633.32,785.48,1655.9,793.8Z" transform="translate(286.99 161.03)"/><path class="b" d="M1655.9,793.8c-22.58-8.32-44.9-17.25-64.32-31.85-28-21.08-42.63-50.73-51.77-83.54a649.69,649.69,0,0,1-23.37-154.8c-1.9-61.49,9.64-120.61,31.15-178.11,13.77-36.79,24.28-74.5,27-114A119.2,119.2,0,0,0,1570.7,191c-7.08-25.16-15.7-49.71-32.64-70.32-8.82-10.74-20.43-17.61-34.18-16.92-31.54,1.56-61.05-6.95-90.64-15.79-10.65-3.18-21.4-6-32.46-7.45-31.07-4-52.25,11.07-68.3,35.73-12.27,18.82-17.57,40-21.44,61.85-7.43,41.86-21.51,81.7-40.2,119.68-23.1,46.92-40.66,95.84-56.69,145.44-2.18,6.75-4.81,13.31-8.84,19.22-7.67,11.24-19.24,15.35-32.45,11.78-11.64-3.15-21.27-9.89-29.3-18.28-34.56-36.13-61-77.31-75.23-125.64-8-27.23-6.24-55.07-3.36-82.83,2.14-20.64,4.07-41.23.94-62-2.51-16.65-11.1-27.88-27.36-32.87-9.42-2.89-18.76-6.15-28.35-8.38a647.17,647.17,0,0,1-97.41-31.05c-38.74-15.76-79.24-17.87-120.62-16.8-56.5,1.46-112,11.45-168.06,16.71-33,3.09-61.83-4.26-84.55-30.76-15.88-18.52-35.67-32.78-57-44.73C441.41,25.75,420,25.21,398.62,36,326.3,72.2,250.78,101.76,179.77,140.79c-25.05,13.77-51.51,24.6-78.49,34.19C60,189.64,18.35,190.8-24.15,181.47c-26.95-5.91-52.87-15.69-79.9-21-42.4-8.33-85.38-8.85-128.41-7.9-18.2.4-36.29,2.14-54.4,3.77V-56.16c5.8-.91,11.05-3.42,16.25-5.92,32.18-15.44,56.76-39.66,77.47-68.1,6.89-9.47,14.24-18.88,17.08-30.7H36.43c12.88,15.16,29.17,24.26,49.15,23.24,15-.76,26.16-9.42,32.81-23.24H1240c.29,2.17-1.54,3-2.72,4.23a340.72,340.72,0,0,0-53.42,72.4,539.37,539.37,0,0,1-35.24,55.7c-11.17,15.62-22.21,31.34-31.77,48.05-10.82,18.9-16.48,39-15.06,60.89.63,9.76,5.83,15.12,15.29,17,6.66,1.29,13.21.49,19.52-1.06,37.59-9.2,74.63-20.2,110-36.12,27.54-12.4,50.76-30.33,67.53-55.71a393.82,393.82,0,0,0,33.76-62.66c10.08-23.64,8.44-45.27-9.66-64.59-2.59-2.76-4.82-5.86-7.38-8.65-9-9.85-18.07-19.63-27.11-29.44q173,0,346-.15c5.2,0,6.22,1,6.22,6.22Q1655.8,319.49,1655.9,793.8Z" transform="translate(286.99 161.03)"/><path class="b" d="M289.9,931.92c-9.37-26.43-16.75-53.45-23.48-80.64C258,817.18,249.6,783,248.34,747.72c-.39-11,0-22.24,3.17-33,5.74-19.83,19.81-27.34,39.81-21.13,19.19,6,34.92,18.12,51,29.4,24.53,17.18,49.37,33.2,79.26,40.12,17.92,4.15,28.33,18.13,34.93,34.37,16.88,41.55,20.1,84.24,9.09,127.85-.55,2.18-1.72,4.25-1.19,6.63Z" transform="translate(286.99 161.03)"/><path class="a" d="M1303.77-160.88c9,9.81,18.11,19.59,27.11,29.44,2.56,2.79,4.79,5.89,7.38,8.65,18.1,19.32,19.74,41,9.66,64.59a393.82,393.82,0,0,1-33.76,62.66c-16.77,25.38-40,43.31-67.53,55.71-35.38,15.92-72.42,26.92-110,36.12-6.31,1.55-12.86,2.35-19.52,1.06-9.46-1.84-14.66-7.2-15.29-17-1.42-21.87,4.24-42,15.06-60.89,9.56-16.71,20.6-32.43,31.77-48a539.37,539.37,0,0,0,35.24-55.7,340.72,340.72,0,0,1,53.42-72.4c1.18-1.23,3-2.06,2.72-4.23Z" transform="translate(286.99 161.03)"/><path class="a" d="M-176.06-160.88c-2.84,11.82-10.19,21.23-17.08,30.7-20.71,28.44-45.29,52.66-77.47,68.1-5.2,2.5-10.45,5-16.25,5.92,0-33.39.07-66.78-.1-100.17,0-3.79.86-4.67,4.65-4.65C-246.89-160.81-211.48-160.88-176.06-160.88Z" transform="translate(286.99 161.03)"/><path class="b" d="M1402.43,931.92c29.45-16.6,59.88-30.11,94.82-27.3,16.15,1.3,30.18,7.62,40.5,20.7,1.51,1.91,3.66,3.64,2.79,6.6Z" transform="translate(286.99 161.03)"/><path class="a" d="M118.39-160.88c-6.65,13.82-17.83,22.48-32.81,23.24-20,1-36.27-8.08-49.15-23.24Z" transform="translate(286.99 161.03)"/></svg>