<svg xmlns="http://www.w3.org/2000/svg" viewBox="0 0 1943.11 1093.11"><defs><style>.a{fill:#ffffff;}.b{fill:#41c7f6;}</style></defs><title>1800f_00177</title><path class="a" d="M197.31-160.88h956.2c-.18,2.36,1.7,3.54,3,5.06,38.1,46.37,70.08,96.49,93.27,152,13.58,32.53,29.06,64,51.72,91.42,18.11,21.9,38.89,41.13,59.62,60.44,31.07,29,61.62,58.51,96.16,83.48,20,14.48,41,27.11,66.14,30.37,15.32,2,30.76,2,46.18,2.09,7.11,0,14.18.51,21,2.82,8.12,2.77,9.67,7.4,5,14.45a39.61,39.61,0,0,1-10.45,10.9c-31.91,22-53.56,52.19-71,86.27a1414.23,1414.23,0,0,1-81.31,139.49c-30.66,46.06-64.54,89.38-106,126.26-22.89,20.35-47.62,37.73-78.5,43.87-15.1,3-30.2,3.42-44.71-2.7-12-5-16-13.21-14.14-26.1,2.31-15.6,7.64-30.36,12.39-45.28,7.17-22.49,10.24-45.13.21-67.4-16.66-37-44.87-63.8-78.65-85-15-9.4-30.34-7.82-45,1.87a87.44,87.44,0,0,0-13.94,11.66c-9.41,9.55-18.76,19.15-28.16,28.7a55.78,55.78,0,0,1-16.61,11.79c-8.25,3.75-15.79,2.45-22.53-3.41-7.81-6.79-11.56-15.85-13.55-25.68-3-14.9-3.3-30.11-4.66-45.19-1.2-13.33-2.17-26.71-6.84-39.44-5.48-15-15.7-20.14-31-15.62-14,4.14-26.16,12-38.68,19.07-34.08,19.22-69.41,25.26-107.13,11.94q-38.61-13.63-77.52-26.37c-17.6-5.73-35.59-9.71-54.37-8.45-17.4,1.17-28.66,10.87-29.66,26.54-.45,7.11,1.54,14,4.6,20.48,11.11,23.46,29.12,41.15,48.78,57.26a441,441,0,0,0,134.86,75.79c47.48,16.6,95.15,32.94,145.36,39.23,27.32,3.43,50.64,14.78,72,31.36,17,13.17,34.34,25.86,51.35,39a142.58,142.58,0,0,1,17,15c11.15,11.9,11.72,23.6,2.71,37.11-4.91,7.35-11.57,12.61-19.27,16.73-11.46,6.14-23.86,9.69-36.25,13.25-26.58,7.65-52.25,17.56-76.34,31.2-38.9,22-79.44,37.4-124.86,41-36.91,2.89-69.73,18.62-95.41,46.4-13.29,14.37-16.87,31.2-9.5,49.88,1.17,3,3.45,5.72,2.52,9.28H330.88c-3.78-2.76-8.34-3.44-12.66-4.64-31.38-8.69-63.68-10.95-95.93-13.49-34.56-2.72-68.8-7-102.35-16.4-28.48-8-45.31-25.82-51.59-54.58-3.66-16.78-7.92-33.48-13.9-49.61C34.71,740,2.86,694.39-35.22,652.85a100.88,100.88,0,0,0-47-29.32c-15.27-4.47-30.27-9.9-45.31-15.16a214.53,214.53,0,0,1-22.51-9c-8.79-4.24-8.88-10.72-.48-15.6,7.2-4.19,14.54-8.19,22-11.91,47.23-23.56,71.3-62.31,75.74-114.29,2.54-29.79-1.25-59.09-6.91-88.11-9.69-49.71-32.91-90.41-79.79-114.51-6.71-3.44-11-9.56-14.05-16.43-8.78-19.69-10.52-40.67-9.37-61.65,2.45-44.53,3.95-88.83-6.47-132.78-4.52-19-6.71-38.93,1.84-57.42,19.39-41.95,50.35-71.83,95.26-85.18,28.07-8.34,57.44-8.26,86.37-10.47,43.24-3.31,86-9,126.85-24.41C160.6-140.77,180-148.71,197.31-160.88Z" transform="translate(287.06 161.05)"/><path class="b" d="M751.3,931.92c.93-3.56-1.35-6.33-2.52-9.28-7.37-18.68-3.79-35.51,9.5-49.88,25.68-27.78,58.5-43.51,95.41-46.4,45.42-3.56,86-18.94,124.86-41,24.09-13.64,49.76-23.55,76.34-31.2,12.39-3.56,24.79-7.11,36.25-13.25,7.7-4.12,14.36-9.38,19.27-16.73,9-13.51,8.44-25.21-2.71-37.11a142.58,142.58,0,0,0-17-15c-17-13.13-34.36-25.82-51.35-39-21.38-16.58-44.7-27.93-72-31.36-50.21-6.29-97.88-22.63-145.36-39.23a441,441,0,0,1-134.86-75.79c-19.66-16.11-37.67-33.8-48.78-57.26-3.06-6.47-5-13.37-4.6-20.48,1-15.67,12.26-25.37,29.66-26.54,18.78-1.26,36.77,2.72,54.37,8.45q38.92,12.67,77.52,26.37c37.72,13.32,73,7.28,107.13-11.94,12.52-7.06,24.69-14.93,38.68-19.07,15.27-4.52,25.49.64,31,15.62,4.67,12.73,5.64,26.11,6.84,39.44,1.36,15.08,1.64,30.29,4.66,45.19,2,9.83,5.74,18.89,13.55,25.68,6.74,5.86,14.28,7.16,22.53,3.41a55.78,55.78,0,0,0,16.61-11.79c9.4-9.55,18.75-19.15,28.16-28.7a87.44,87.44,0,0,1,13.94-11.66c14.64-9.69,30-11.27,45-1.87,33.78,21.21,62,48,78.65,85,10,22.27,7,44.91-.21,67.4-4.75,14.92-10.08,29.68-12.39,45.28-1.91,12.89,2.19,21.06,14.14,26.1,14.51,6.12,29.61,5.71,44.71,2.7,30.88-6.14,55.61-23.52,78.5-43.87,41.5-36.88,75.38-80.2,106-126.26A1414.23,1414.23,0,0,0,1514,378.44c17.46-34.08,39.11-64.27,71-86.27a39.61,39.61,0,0,0,10.45-10.9c4.67-7,3.12-11.68-5-14.45-6.77-2.31-13.84-2.79-21-2.82-15.42-.07-30.86-.1-46.18-2.09-25.17-3.26-46.09-15.89-66.14-30.37-34.54-25-65.09-54.52-96.16-83.48-20.73-19.31-41.51-38.54-59.62-60.44-22.66-27.42-38.14-58.89-51.72-91.42-23.19-55.53-55.17-105.65-93.27-152-1.25-1.52-3.13-2.7-3-5.06h180.62a254.79,254.79,0,0,0,16.9,57.31c20.49,47.8,53.41,83,103,101.1,30.82,11.27,62.75,17.23,95.48,19.64,30.82,2.27,58.71-4.91,83.12-24.07,8.12-6.37,15.56-13.59,23.32-20.42V563.1c-1,4.09-2.29,8.15-3.08,12.29-3.41,17.9-5.14,35.74,3.08,53q0,148.74.14,297.49c0,5.19-1,6.21-6.22,6.21Q1200.57,931.82,751.3,931.92Z" transform="translate(287.06 161.05)"/><path class="b" d="M197.31-160.88C180-148.71,160.6-140.77,141-133.38,100.08-118,57.35-112.28,14.11-109c-28.93,2.21-58.3,2.13-86.37,10.47-44.91,13.35-75.87,43.23-95.26,85.18-8.55,18.49-6.36,38.38-1.84,57.42,10.42,43.95,8.92,88.25,6.47,132.78-1.15,21,.59,42,9.37,61.65,3.07,6.87,7.34,13,14.05,16.43,46.88,24.1,70.1,64.8,79.79,114.51,5.66,29,9.45,58.32,6.91,88.11-4.44,52-28.51,90.73-75.74,114.29-7.46,3.72-14.8,7.72-22,11.91-8.4,4.88-8.31,11.36.48,15.6a214.53,214.53,0,0,0,22.51,9c15,5.26,30,10.69,45.31,15.16a100.88,100.88,0,0,1,47,29.32C2.86,694.39,34.71,740,54.45,793.2c6,16.13,10.24,32.83,13.9,49.61,6.28,28.76,23.11,46.61,51.59,54.58,33.55,9.39,67.79,13.68,102.35,16.4,32.25,2.54,64.55,4.8,95.93,13.49,4.32,1.2,8.88,1.88,12.66,4.64q-305.19,0-610.36.14c-5.77,0-7.61-.63-7.58-7.17.32-71.52.2-143,.2-214.57,4.22-6.08,6.4-13.11,9.18-19.86,6.3-15.32,9.37-32,20.36-45.31,7.9-9.55,16.61-18.31,25.06-27.33,2.56-2.74,5.62-5.71,3.68-9.93-1.77-3.86-5.79-3.5-9.29-3.67a239.18,239.18,0,0,0-49,2.89q0-380.73-.13-761.46c0-5.24.78-6.71,6.49-6.7Q-41.6-160.74,197.31-160.88Z" transform="translate(287.06 161.05)"/><path class="a" d="M1655.9-27.32c-7.76,6.83-15.2,14.05-23.32,20.42-24.41,19.16-52.3,26.34-83.12,24.07C1516.73,14.76,1484.8,8.8,1454-2.47c-49.54-18.11-82.46-53.3-103-101.1a254.79,254.79,0,0,1-16.9-57.31q157.84,0,315.69-.15c5.2,0,6.26,1,6.23,6.22C1655.78-112.31,1655.9-69.82,1655.9-27.32Z" transform="translate(287.06 161.05)"/><path class="a" d="M-286.86,607.11a239.18,239.18,0,0,1,49-2.89c3.5.17,7.52-.19,9.29,3.67,1.94,4.22-1.12,7.19-3.68,9.93-8.45,9-17.16,17.78-25.06,27.33-11,13.27-14.06,30-20.36,45.31-2.78,6.75-5,13.78-9.18,19.86Z" transform="translate(287.06 161.05)"/><path class="a" d="M1655.9,628.36c-8.22-17.23-6.49-35.07-3.08-53,.79-4.14,2-8.2,3.08-12.29Z" transform="translate(287.06 161.05)"/></svg>