<svg xmlns="http://www.w3.org/2000/svg" viewBox="0 0 1943.05 1093.1"><defs><style>.a{fill:#ffffff;}.b{fill:#41c7f6;}</style></defs><title>1800f_00167</title><path class="a" d="M1655.9,142.67V676.93c-3.41-.09-5.34,2.64-7.75,4.28-10.29,7-20.85,13.33-32.79,17.21-14.49,4.71-26.84,1.36-37.49-9.18-8.26-8.17-13.71-18.12-17.67-28.89-10.76-29.21-10.77-59.48-8.24-89.89,3-35.29,12.93-69,24.38-102.24,12.93-37.58,21.14-75.91,19-116-1.37-25.25-4.44-50.29-7.28-75.4-3.06-27-20.42-34.14-39.59-31.49-53.44,7.39-99.88,28.46-131.46,75-16.37,24.13-29.4,50.14-43.38,75.63-21.16,38.56-41.58,77.58-67,113.63-33.1,46.94-76.13,79.83-132.73,93.55-20.94,5.07-42.14,4.32-63.39,3.86-11.61-.25-23.27-1.29-34.79,1.07-22.55,4.63-39.53,18.72-55.82,33.63-27.1,24.77-50.36,53.32-76.65,78.89-14.39,14-29.71,26.62-48.25,35-18,8.17-35.14,8-51.68-3.62-5.78-4.08-11.72-8-17.7-11.74-47.09-29.76-112.07-11.22-136,38.7-6.81,14.2-6.43,27.89,2.67,40.88a167.79,167.79,0,0,0,41.3,41.9c13.91,9.71,29.39,13,46.16,10,5-.88,10.11-1.1,14.95-2.42,21.57-5.91,38.81.3,53.89,16.59,17.72,19.14,37,36.7,62.11,46H317.22c-5.14-30.75-19.3-55.5-47-71.55-17.46-10.13-36.2-16.71-55.79-21.07-30.37-6.77-61.27-6-92.1-6.5-24.26-.43-48.41-2.13-72.28-7.23-35.29-7.54-57.86-27.26-64-63.89-1.57-9.46-3.93-18.79-5.89-28.19C-27.38,697-37,661.23-57.88,629.5a722.1,722.1,0,0,0-47.47-64.82c-15.51-18.68-32.87-35.77-47.45-55.22-8.84-11.8-8.52-20,.42-31.64s20.3-21.11,31.62-30.44c20.09-16.55,40.92-32.28,58.28-51.89,25.71-29,28.75-58.41,9.25-91.88C-63.82,285.42-76.78,269-91.11,253.52c-14.81-16-32-24.23-54.07-20.18a32.86,32.86,0,0,1-4.5.61c-19.62.88-38.48-1.39-54.21-14.62-17.13-14.41-25.47-33.77-29-55.22-4.49-27.61.86-33.92,22.73-44.49,11.72-5.67,20.35-14.12,22.2-27.72a66.88,66.88,0,0,0-.48-22.62c-3.49-16.89-13.07-30.84-20.86-45.86-18.17-35-24-72.75-17.42-111.87,4.31-25.69,15-49.19,26.32-72.43h1410a78.89,78.89,0,0,0,.92,9,270.61,270.61,0,0,0,22.56,63.41c21.2,42.75,51.57,78.39,85.95,110.94,32.86,31.1,67,60.81,98.68,93.23,16.9,17.31,37.59,28.1,61.82,31.18,27.45,3.48,55,3.14,82.54,1.18C1593.37,145.83,1624.44,140.94,1655.9,142.67ZM577.81,286.33c-6.06.3-12.15.33-18.17,1A72.2,72.2,0,0,0,547.83,290c-21.18,6-28.71,21.12-20.27,41.31,7.5,18,20.56,31.79,34.8,44.4,61.18,54.16,131,92.64,209.9,114.28,44.12,12.1,89,19.68,134.85,15.61,36.1-3.21,66.67,6.37,92.86,31.51a219.34,219.34,0,0,0,33.84,26.84c14.86,9.47,31.09,13.62,48.5,10.8,40.08-6.49,70.22-28.73,92.74-61.48,15.57-22.64,12.81-42.67-6.59-62.07-2.68-2.69-5.44-5.3-8.31-7.77a653.78,653.78,0,0,1-111.8-124.22c-14.41-20.82-33.1-33.62-58.41-36.37a195.68,195.68,0,0,0-29.55-.55c-24.48,1.06-48.79,4.43-73.34,5.06-42,1.08-83.79,4.4-125.21,11.34a313.91,313.91,0,0,1-129.31-4.87C614.64,289.33,596.41,286.24,577.81,286.33Z" transform="translate(287 161.04)"/><path class="b" d="M910.67,931.92c-25.15-9.33-44.39-26.89-62.11-46-15.08-16.29-32.32-22.5-53.89-16.59-4.84,1.32-10,1.54-14.95,2.42-16.77,3-32.25-.31-46.16-10a167.79,167.79,0,0,1-41.3-41.9c-9.1-13-9.48-26.68-2.67-40.88,23.93-49.92,88.91-68.46,136-38.7,6,3.79,11.92,7.66,17.7,11.74,16.54,11.65,33.64,11.79,51.68,3.62,18.54-8.4,33.86-21,48.25-35,26.29-25.57,49.55-54.12,76.65-78.89,16.29-14.91,33.27-29,55.82-33.63,11.52-2.36,23.18-1.32,34.79-1.07,21.25.46,42.45,1.21,63.39-3.86,56.6-13.72,99.63-46.61,132.73-93.55,25.42-36.05,45.84-75.07,67-113.63,14-25.49,27-51.5,43.38-75.63,31.58-46.51,78-67.58,131.46-75,19.17-2.65,36.53,4.51,39.59,31.49,2.84,25.11,5.91,50.15,7.28,75.4,2.17,40.09-6,78.42-19,116-11.45,33.29-21.43,66.95-24.38,102.24-2.53,30.41-2.52,60.68,8.24,89.89,4,10.77,9.41,20.72,17.67,28.89,10.65,10.54,23,13.89,37.49,9.18,11.94-3.88,22.5-10.23,32.79-17.21,2.41-1.64,4.34-4.37,7.75-4.28q0,124.46.14,248.92c0,5.19-1,6.22-6.22,6.21q-154-.28-308.1-.14c-18.72-4.56-37.44-4.09-56.16,0H1171.72a187.21,187.21,0,0,1-38.79-31.34,57.7,57.7,0,0,0-28-15.82c-22.47-5.67-43.58.32-64.45,7.66-31.51,11.08-60.62,27.78-91.86,39.5Z" transform="translate(287 161.04)"/><path class="b" d="M-200.35-160.88c-11.27,23.24-22,46.74-26.32,72.43-6.56,39.12-.75,76.88,17.42,111.87,7.79,15,17.37,29,20.86,45.86a66.88,66.88,0,0,1,.48,22.62c-1.85,13.6-10.48,22-22.2,27.72-21.87,10.57-27.22,16.88-22.73,44.49,3.48,21.45,11.82,40.81,29,55.22,15.73,13.23,34.59,15.5,54.21,14.62a32.86,32.86,0,0,0,4.5-.61c22.05-4.05,39.26,4.2,54.07,20.18,14.33,15.47,27.29,31.9,37.88,50.09,19.5,33.47,16.46,62.84-9.25,91.88-17.36,19.61-38.19,35.34-58.28,51.89-11.32,9.33-22.6,18.74-31.62,30.44s-9.26,19.84-.42,31.64c14.58,19.45,31.94,36.54,47.45,55.22A722.1,722.1,0,0,1-57.88,629.5c20.85,31.73,30.5,67.46,38.11,104,2,9.4,4.32,18.73,5.89,28.19,6.11,36.63,28.68,56.35,64,63.89,23.87,5.1,48,6.8,72.28,7.23,30.83.54,61.73-.27,92.1,6.5,19.59,4.36,38.33,10.94,55.79,21.07,27.66,16,41.82,40.8,47,71.55q-298.64,0-597.25.14c-5.69,0-7-1.28-7-7q.24-539.58,0-1079.14c0-5.69,1.27-7.06,7-7C-253.47-160.69-226.91-160.88-200.35-160.88Z" transform="translate(287 161.04)"/><path class="b" d="M1655.9,142.67c-31.46-1.73-62.53,3.16-93.76,5.38-27.5,2-55.09,2.3-82.54-1.18-24.23-3.08-44.92-13.87-61.82-31.18-31.65-32.42-65.82-62.13-98.68-93.23-34.38-32.55-64.75-68.19-85.95-110.94a270.61,270.61,0,0,1-22.56-63.41,78.89,78.89,0,0,1-.92-9h89.55c1,2.85,3.6,4.15,5.68,5.89q21.76,18.26,43.66,36.35c31.61,26.11,64.35,50.58,101.43,68.55,17.9,8.66,36.55,14.79,56.89,12.86,21.62-2.05,39.67-11.92,54.43-27.21,26.94-27.9,48-59.75,61.19-96.44,9.36,0,18.74.31,28.08-.14,4.56-.21,5.45.92,5.44,5.45Q1655.78-6.45,1655.9,142.67Z" transform="translate(287 161.04)"/><path class="a" d="M1622.5-160.88c-13.23,36.69-34.25,68.54-61.19,96.44-14.76,15.29-32.81,25.16-54.43,27.21-20.34,1.93-39-4.2-56.89-12.86-37.08-18-69.82-42.44-101.43-68.55q-21.9-18.09-43.66-36.35c-2.08-1.74-4.72-3-5.68-5.89Z" transform="translate(287 161.04)"/><path class="a" d="M948.61,931.92c31.24-11.72,60.35-28.42,91.86-39.5,20.87-7.34,42-13.33,64.45-7.66a57.7,57.7,0,0,1,28,15.82,187.21,187.21,0,0,0,38.79,31.34Z" transform="translate(287 161.04)"/><path class="a" d="M1285.56,931.92c18.72-4.09,37.44-4.56,56.16,0Z" transform="translate(287 161.04)"/><path class="b" d="M577.81,286.33c18.6-.09,36.83,3,54.72,7.46a313.91,313.91,0,0,0,129.31,4.87c41.42-6.94,83.25-10.26,125.21-11.34,24.55-.63,48.86-4,73.34-5.06a195.68,195.68,0,0,1,29.55.55c25.31,2.75,44,15.55,58.41,36.37a653.78,653.78,0,0,0,111.8,124.22c2.87,2.47,5.63,5.08,8.31,7.77,19.4,19.4,22.16,39.43,6.59,62.07-22.52,32.75-52.66,55-92.74,61.48-17.41,2.82-33.64-1.33-48.5-10.8A219.34,219.34,0,0,1,1000,537.08c-26.19-25.14-56.76-34.72-92.86-31.51-45.83,4.07-90.73-3.51-134.85-15.61-78.89-21.64-148.72-60.12-209.9-114.28-14.24-12.61-27.3-26.45-34.8-44.4-8.44-20.19-.91-35.35,20.27-41.31a72.2,72.2,0,0,1,11.81-2.66C565.66,286.66,571.75,286.63,577.81,286.33Z" transform="translate(287 161.04)"/></svg>