<svg xmlns="http://www.w3.org/2000/svg" viewBox="0 0 1943.03 1093.17"><defs><style>.a{fill:#ffffff;}.b{fill:#41c7f6;}</style></defs><title>1800f_00341</title><path class="a" d="M1655.9,632.92q0,146.08.14,292.17c0,5.69-1.28,7-7,7q-863.25-.22-1726.48-.14c.53-2-.81-3.37-1.67-4.84-15-25.52-27.34-52.33-39.74-79.13-12.6-27.24-24-55.1-40-80.68-23.4-37.42-57.23-63.47-94.15-86-10.91-6.67-21.62-13.86-33.93-18V561.58c16.47-4.07,32-10.89,47.72-17,35.6-13.69,70.78-28.57,108.63-35.47,32.88-6,66.27-7.27,99.37-11.14,32.64-3.8,61.61-15.17,85.58-38.24C68.9,445.86,81.4,430.38,93,414c17.19-24.36,32-50.31,50.92-73.54,17.1-21,38.94-28.64,65.21-25.81q44.1,4.75,87.73,12.79c33.59,6.27,66.88,8,99.44-4.16,42.6-15.91,85-32.38,127.36-49a103,103,0,0,0,27.79-16.84c11.46-9.45,20.57-20.9,23.39-35.43,5.93-30.72,15.74-60.67,17.85-92.15,1.8-26.79-10.15-48.08-33.15-57.28-9.74-3.89-20.09-5.19-30.42-5.66-62.4-2.79-120.81,11.47-175.62,41.25-21.55,11.7-41.66,25.92-64,36.19-20,9.21-40.61,15.2-63,13.52-29.44-2.22-46.79-20.35-47.18-49.76a119.41,119.41,0,0,1,2.46-25.6C196.4,10.3,211.28-61.94,225.86-134.25c1.79-8.83,5.59-17.33,4.84-26.63H988.07c-1.77,6.48-6.7,11.11-9.94,16.74C965.11-121.44,962-96.35,960.9-71c-1.35,32.12-9.6,61.7-27.58,88.54C920.94,36,909.08,54.83,897,73.52c-7,10.84-13.91,21.74-17.34,34.39q-6.24,23,15.11,33a61.12,61.12,0,0,0,16.66,4.92c20.33,3.23,39.72-.34,58.66-7.73,17-6.65,32-17.26,48.64-24.72,15-6.74,29.34-6,43.62,1.86a164.19,164.19,0,0,1,34,25.35c18.69,17.74,40.81,28.49,65.61,34.61,27,6.67,54.51,10.85,81.94,15.26,50.16,8.05,99.64,19.58,149.53,29,41.84,7.9,84.27,9.84,126.45,14.36,16.6,1.78,33.21,4,48.26,12,13.29,7.1,17.56,17.36,13,31.68a72.63,72.63,0,0,1-6.22,14.63c-11.55,19.88-15.87,41.31-14.82,64.08a160.39,160.39,0,0,1-2,34.75c-4.74,27.44-22.7,45-46.25,56.43-51.27,24.95-89.89,62.8-119.09,111.21a598,598,0,0,0-63.33,146.43c-12.48,44-19.91,88.77-17.8,134.71.52,11.34,1.88,22.66,5.82,33.47,4.19,11.53,12.36,14.46,22.42,7.64A120.06,120.06,0,0,0,1360,863.78a503.08,503.08,0,0,0,54.51-68.89c30.17-46.12,71.11-78,122.16-97.86a560.84,560.84,0,0,0,67.35-31.28C1622,655.87,1638.77,644.1,1655.9,632.92Z" transform="translate(286.99 161.12)"/><path class="b" d="M230.7-160.88c.75,9.3-3,17.8-4.84,26.63C211.28-61.94,196.4,10.3,181.69,82.57a119.41,119.41,0,0,0-2.46,25.6c.39,29.41,17.74,47.54,47.18,49.76,22.42,1.68,43-4.31,63-13.52,22.35-10.27,42.46-24.49,64-36.19,54.81-29.78,113.22-44,175.62-41.25,10.33.47,20.68,1.77,30.42,5.66,23,9.2,35,30.49,33.15,57.28-2.11,31.48-11.92,61.43-17.85,92.15-2.82,14.53-11.93,26-23.39,35.43a103,103,0,0,1-27.79,16.84c-42.36,16.58-84.76,33.05-127.36,49-32.56,12.16-65.85,10.43-99.44,4.16q-43.58-8.11-87.73-12.79c-26.27-2.83-48.11,4.8-65.21,25.81C125,363.7,110.14,389.65,93,414c-11.55,16.37-24,31.85-38.51,45.77C30.47,482.85,1.5,494.22-31.14,498c-33.1,3.87-66.49,5.15-99.37,11.14-37.85,6.9-73,21.78-108.63,35.47-15.75,6.06-31.25,12.88-47.72,17V-156.33c7.2-3.48,15.19-2.95,22.77-4.55Z" transform="translate(286.99 161.12)"/><path class="b" d="M1655.9,632.92c-17.13,11.18-33.87,23-51.84,32.83A560.84,560.84,0,0,1,1536.71,697c-51,19.84-92,51.74-122.16,97.86A503.08,503.08,0,0,1,1360,863.78a120.06,120.06,0,0,1-20.19,17.13c-10.06,6.82-18.23,3.89-22.42-7.64-3.94-10.81-5.3-22.13-5.82-33.47-2.11-45.94,5.32-90.7,17.8-134.71a598,598,0,0,1,63.33-146.43c29.2-48.41,67.82-86.26,119.09-111.21,23.55-11.46,41.51-29,46.25-56.43a160.39,160.39,0,0,0,2-34.75c-1-22.77,3.27-44.2,14.82-64.08a72.63,72.63,0,0,0,6.22-14.63c4.52-14.32.25-24.58-13-31.68-15-8-31.66-10.25-48.26-12-42.18-4.52-84.61-6.46-126.45-14.36-49.89-9.43-99.37-21-149.53-29-27.43-4.41-54.91-8.59-81.94-15.26-24.8-6.12-46.92-16.87-65.61-34.61a164.19,164.19,0,0,0-34-25.35c-14.28-7.83-28.6-8.6-43.62-1.86-16.62,7.46-31.61,18.07-48.64,24.72-18.94,7.39-38.33,11-58.66,7.73a61.12,61.12,0,0,1-16.66-4.92q-21.37-10-15.11-33C883.1,95.26,890,84.36,897,73.52c12.07-18.69,23.93-37.52,36.31-56C951.3-9.33,959.55-38.91,960.9-71c1.07-25.32,4.21-50.41,17.23-73.11,3.24-5.63,8.17-10.26,9.94-16.74q330.5,0,661-.14c5.69,0,7,1.28,7,7Q1655.79,239.43,1655.9,632.92Z" transform="translate(286.99 161.12)"/><path class="b" d="M-286.86,663.27c12.31,4.1,23,11.29,33.93,18,36.92,22.57,70.75,48.62,94.15,86,16,25.58,27.36,53.44,40,80.68,12.4,26.8,24.78,53.61,39.74,79.13.86,1.47,2.2,2.85,1.67,4.84q-102.06,0-204.14.12c-4.53,0-5.44-.91-5.44-5.43Q-286.73,794.94-286.86,663.27Z" transform="translate(286.99 161.12)"/><path class="a" d="M-264.09-160.88c-7.58,1.6-15.57,1.07-22.77,4.55.07-2.51-1-5.25,3.81-4.72C-276.8-160.36-270.42-160.88-264.09-160.88Z" transform="translate(286.99 161.12)"/></svg>