<svg xmlns="http://www.w3.org/2000/svg" viewBox="0 0 1366.46 768.32"><defs><style>.a{fill:#ffffff;}.b{fill:#41c7f6;}</style></defs><title>1800f_00034</title><path class="a" d="M1367.52,385.52v74.37a11.78,11.78,0,0,0-2.9.63c-37.85,19.2-75.47,38.85-110.65,62.7-18.11,12.27-34.08,26.84-45.41,46-10.57,17.85-15.38,37.79-21.63,57.23a429.82,429.82,0,0,0-18.6,84.9c-2.12,19.36-1.94,38.78-2.68,58.18H344.54a204.85,204.85,0,0,0-66.65-60.89C247,690.94,214,678.29,180.16,667.69c-8.67-2.72-17.44-5.28-25.47-9.69-5.42-3-6.16-7-2.3-11.81,4-5,9.23-8.62,14.43-12.19,19.79-13.62,39.74-27,59.45-40.72,30.54-21.24,45.91-50,44.41-87.79-.92-23.24-.64-46.54-.22-69.8.36-19.35,4-38.11,12.12-55.94,5.64-12.41,11.73-24.84,15.45-37.88,10.09-35.32,21.81-69.9,38.67-102.66,3.2-6.2,5.38-13.12,4.93-20.45-.46-7.57-4.3-10.34-11.62-8.18-9,2.65-16.13,8.41-23,14.39-29.38,25.65-61,48.3-93,70.5a89.59,89.59,0,0,1-18.53,10.29c-5.87,2.27-11.83,4.42-18.41,3-15.74-3.42-21.67-15.32-25.16-29.15-2.89-11.43-2-23.14-1.6-34.75a246,246,0,0,0-4-55.83c-8.42-44.23-20.26-87.63-31.16-131.27-3.78-15.16-1.1-20.16,13.47-25.37,10.7-3.83,21.73-6.81,32.25-11.08,13.24-5.37,26.75-10.43,38-19.78H915.22c-.14,5.51,3.91,9.07,6.41,13.26,20.17,33.77,48.07,61,75.39,88.73,20.75,21.06,42.77,41,60.9,64.43,17.46,22.56,32.95,46.61,52,68,6.87,7.7,10.09,17.38,11.8,27.53,3.11,18.49,2.72,37.25,4.23,55.87,1.16,14.14,3,28.07,7.41,41.64,3.81,11.8,11.45,18,24,18.24a120.93,120.93,0,0,1,15.1,1.15c33.63,4.9,67.28,6.63,101.17,2.49,21.78-2.66,43.6-5.68,65.65-1.89C1348.66,382.56,1357.79,385.93,1367.52,385.52ZM844.87,510.2c10.57.18,23.5-2.33,33.56-12.8,7.86-8.17,9-18.86,3.23-28.61-3.39-5.78-8.27-10.15-13.46-14.24-21.21-16.76-41.6-34.67-65.78-47.26-17.32-9-35.38-11.77-54.21-5.3-18,6.19-36.59,9.58-55.31,12.66-19.41,3.2-36.25,12.67-51.59,24.45-11.91,9.14-11.2,20.57.79,29.45A53.17,53.17,0,0,0,654,475.24c13.82,5.58,28.3,8.42,43,7.14C727,479.77,755,486,782.75,497,801.52,504.38,821,510.09,844.87,510.2ZM711.27,610.65c18,.05,32.35-2.82,46.59-6.27a39.74,39.74,0,0,0,16.27-7.78c5.7-4.71,8.28-10.51,6.35-18.09-3.05-12.07-10.91-19.7-22-24.17C726,541.28,695,560.49,679.9,583.5c-6,9.22-2.4,17.94,8,22.77C696.37,610.22,705.5,610.31,711.27,610.65Zm343-302.35c.58-10.91-7-16.35-16.52-11-19.63,10.88-31.26,28.19-36.38,49.7-2.23,9.38,4.13,14.26,13.56,11.47C1032.41,353.24,1053.25,326.69,1054.23,308.3Z" transform="translate(-1.2 -1.34)"/><path class="b" d="M198.83,1.52c-11.21,9.35-24.72,14.41-38,19.78-10.52,4.27-21.55,7.25-32.25,11.08-14.57,5.21-17.25,10.21-13.47,25.37,10.9,43.64,22.74,87,31.16,131.27a246,246,0,0,1,4,55.83c-.44,11.61-1.29,23.32,1.6,34.75,3.49,13.83,9.42,25.73,25.16,29.15,6.58,1.43,12.54-.72,18.41-3A89.59,89.59,0,0,0,214,295.47c32-22.2,63.65-44.85,93-70.5,6.84-6,14-11.74,23-14.39,7.32-2.16,11.16.61,11.62,8.18.45,7.33-1.73,14.25-4.93,20.45C319.84,272,308.12,306.55,298,341.87c-3.72,13-9.81,25.47-15.45,37.88-8.11,17.83-11.76,36.59-12.12,55.94-.42,23.26-.7,46.56.22,69.8,1.5,37.77-13.87,66.55-44.41,87.79C206.56,607,186.61,620.38,166.82,634c-5.2,3.57-10.42,7.19-14.43,12.19-3.86,4.84-3.12,8.83,2.3,11.81,8,4.41,16.8,7,25.47,9.69,33.86,10.6,66.83,23.25,97.73,40.94a204.85,204.85,0,0,1,66.65,60.89q-168.48,0-337,.14c-5.2,0-6.22-1-6.22-6.22q.25-377.93.15-755.85A19.36,19.36,0,0,1,3.61,9.54a40.37,40.37,0,0,0,43,14.14c8.81-2.48,10.43-7.87,4.82-15C49.26,5.88,45.42,5,44,1.52Z" transform="translate(-1.2 -1.34)"/><path class="b" d="M1367.52,385.52c-9.73.41-18.86-3-28.26-4.58-22-3.79-43.87-.77-65.65,1.89-33.89,4.14-67.54,2.41-101.17-2.49a120.93,120.93,0,0,0-15.1-1.15c-12.51-.25-20.15-6.44-24-18.24-4.39-13.57-6.25-27.5-7.41-41.64-1.51-18.62-1.12-37.38-4.23-55.87-1.71-10.15-4.93-19.83-11.8-27.53-19.07-21.36-34.56-45.41-52-68-18.13-23.45-40.15-43.37-60.9-64.43-27.32-27.73-55.22-55-75.39-88.73-2.5-4.19-6.55-7.75-6.41-13.26h98.66A47.27,47.27,0,0,0,1020.19,16c6.79,10.44,16.53,16.54,29,16.09,11.19-.4,19.24-6.84,24-17,2-4.32,3.87-8.75,4.45-13.57h165.44c11.36,8.74,22.88,17.3,34.06,26.27,16.09,12.92,25.14,29.3,23.87,50.54-.34,5.54,0,11.11-.3,16.65-1.27,23.17,5.21,44.35,16.15,64.46s27.33,32.62,50.68,34.84Z" transform="translate(-1.2 -1.34)"/><path class="b" d="M1165.65,769.52c.74-19.4.56-38.82,2.68-58.18a429.82,429.82,0,0,1,18.6-84.9c6.25-19.44,11.06-39.38,21.63-57.23,11.33-19.15,27.3-33.72,45.41-46,35.18-23.85,72.8-43.5,110.65-62.7a11.78,11.78,0,0,1,2.9-.63q0,151.77.14,303.55c0,5.2-1,6.24-6.21,6.22C1296.18,769.44,1230.92,769.52,1165.65,769.52Z" transform="translate(-1.2 -1.34)"/><path class="a" d="M1367.52,194.28c-23.35-2.22-39.67-14.61-50.68-34.84s-17.42-41.29-16.15-64.46c.3-5.54,0-11.11.3-16.65,1.27-21.24-7.78-37.62-23.87-50.54-11.18-9-22.7-17.53-34.06-26.27,39.72,0,79.43.09,119.14-.13,4.54,0,5.46.91,5.44,5.44Q1367.37,100.55,1367.52,194.28Z" transform="translate(-1.2 -1.34)"/><path class="a" d="M1077.62,1.52c-.58,4.82-2.44,9.25-4.45,13.57-4.74,10.16-12.79,16.6-24,17-12.47.45-22.21-5.65-29-16.09a47.27,47.27,0,0,1-6.31-14.48Z" transform="translate(-1.2 -1.34)"/><path class="a" d="M44,1.52c1.4,3.46,5.24,4.36,7.41,7.13,5.61,7.16,4,12.55-4.82,15a40.37,40.37,0,0,1-43-14.14A19.36,19.36,0,0,0,1.52,7.59C.37,2.4,2.36,1.15,7.6,1.36,19.72,1.86,31.87,1.52,44,1.52Z" transform="translate(-1.2 -1.34)"/><path class="b" d="M844.87,510.2c-23.85-.11-43.35-5.82-62.12-13.23C755,486,727,479.77,697,482.38c-14.72,1.28-29.2-1.56-43-7.14a53.17,53.17,0,0,1-11.85-6.69c-12-8.88-12.7-20.31-.79-29.45,15.34-11.78,32.18-21.25,51.59-24.45,18.72-3.08,37.31-6.47,55.31-12.66,18.83-6.47,36.89-3.72,54.21,5.3,24.18,12.59,44.57,30.5,65.78,47.26,5.19,4.09,10.07,8.46,13.46,14.24,5.72,9.75,4.63,20.44-3.23,28.61C868.37,507.87,855.44,510.38,844.87,510.2Z" transform="translate(-1.2 -1.34)"/><path class="b" d="M711.27,610.65c-5.77-.34-14.9-.43-23.39-4.38-10.38-4.83-14-13.55-8-22.77,15.1-23,46.06-42.22,78.54-29.16,11.13,4.47,19,12.1,22,24.17,1.93,7.58-.65,13.38-6.35,18.09a39.74,39.74,0,0,1-16.27,7.78C743.62,607.83,729.29,610.7,711.27,610.65Z" transform="translate(-1.2 -1.34)"/><path class="b" d="M1054.23,308.3c-1,18.39-21.82,44.94-39.34,50.13-9.43,2.79-15.79-2.09-13.56-11.47,5.12-21.51,16.75-38.82,36.38-49.7C1047.28,292,1054.81,297.39,1054.23,308.3Z" transform="translate(-1.2 -1.34)"/></svg>