<svg xmlns="http://www.w3.org/2000/svg" viewBox="0 0 1366.29 768.32"><defs><style>.a{fill:#ffffff;}.b{fill:#41c7f6;}</style></defs><title>1800f_00050</title><path class="a" d="M1367.52,425v71.34c-7.15,2.49-14.36,4.82-21.43,7.51-32.83,12.47-65.63,24.94-96.72,41.55-33,17.6-53.93,42.86-57.9,81.34-2.91,28.14-6.06,56.26-7.18,84.52-.76,19.39-2.4,38.84-.42,58.28H324.8c-14.65-11.8-31-20.89-47.91-28.82C239.6,723.24,200.24,712.28,160,704.11c-7.66-1.55-15.51-2.52-22.77-5.59-5.93-2.5-6.33-5.45-1-9.06a126.72,126.72,0,0,1,15.8-9c42.78-20.75,81.64-47.56,118.72-77,22.35-17.76,39.66-39.15,42.83-68.94a228.2,228.2,0,0,0-.2-48.46C309.19,447,300.83,408.38,300,368.76c-.41-20.34-7.47-39.65-19.48-56.63-10.6-15-24.77-22.73-43.43-20.88-5.26.52-10.49,1.49-15.69,2.47-26.78,5-38.74-2.14-46.52-28-.07-.24-.13-.48-.19-.73-12.25-51.27-33.23-99.65-49.37-149.64C119.67,97.75,112,81,104.16,64.26,98.41,52,101.35,47,114.87,45.64c8-.82,16.13-1.14,24.2-1.59,32.06-1.77,62.28-10.1,90.1-26.21,7.7-4.46,16.12-8.36,21.26-16.32H901.56c-.34,3.46,2.31,5.44,4,7.84,20.77,29.58,48,52.57,76.58,74,47.15,35.34,91.25,73.44,124.17,123.32,15.42,23.37,28.3,47.08,31.69,75.28,1.66,13.78,4.06,27.48,6.58,41.14,4.51,24.48,13.36,46.95,30,66.12,24.66,28.45,57,37.69,93,38.46C1300.88,428.4,1334.16,425.25,1367.52,425ZM849.14,530c19.89.15,32.84-6.74,39.88-22.6s1.45-29.07-9.28-40.95a60.35,60.35,0,0,0-8.38-7.67,193.79,193.79,0,0,0-42.07-24c-18-7.56-36.47-9.54-54.24-.05-27.56,14.72-57.65,17.81-87.86,20.87-11.8,1.2-23.7,1.91-35,6-3.23,1.16-6,3-6.64,6.58s2.35,5.24,4.78,7.06a59.44,59.44,0,0,0,13.34,7.13A154.68,154.68,0,0,0,700,492.89c40.39,6,79.84,15.26,118,30C828.78,527.09,840.12,530.21,849.14,530Zm-84.56,64.8c-8.76,0-18.3,3.23-26.62,9.45-9.22,6.9-11.78,17.1-5.19,26.59,14.16,20.39,33.87,32.4,58.74,34.34,15.59,1.21,25.39-11.48,22-26.83-2.47-11.2-8.41-20.46-16.25-28.62C788.76,600.87,779.15,594.36,764.58,594.79Z" transform="translate(-1.37 -1.35)"/><path class="b" d="M250.43,1.52c-5.14,8-13.56,11.86-21.26,16.32-27.82,16.11-58,24.44-90.1,26.21-8.07.45-16.16.77-24.2,1.59C101.35,47,98.41,52,104.16,64.26,112,81,119.67,97.75,125.35,115.34c16.14,50,37.12,98.37,49.37,149.64.06.25.12.49.19.73,7.78,25.87,19.74,33.05,46.52,28,5.2-1,10.43-2,15.69-2.47,18.66-1.85,32.83,5.88,43.43,20.88,12,17,19.07,36.29,19.48,56.63.8,39.62,9.16,78.2,13.34,117.32a228.2,228.2,0,0,1,.2,48.46c-3.17,29.79-20.48,51.18-42.83,68.94-37.08,29.45-75.94,56.26-118.72,77a126.72,126.72,0,0,0-15.8,9c-5.31,3.61-4.91,6.56,1,9.06,7.26,3.07,15.11,4,22.77,5.59,40.23,8.17,79.59,19.13,116.88,36.59,16.94,7.93,33.26,17,47.91,28.82q-158.6,0-317.21.14c-5.2,0-6.23-1-6.22-6.22q.3-148,.15-296c5.25-17.2,4.38-34.41,0-51.61Q1.52,212,1.39,8.06c0-5.21.75-6.73,6.48-6.71C88.72,1.6,169.58,1.52,250.43,1.52Z" transform="translate(-1.37 -1.35)"/><path class="b" d="M1367.52,425c-33.36.27-66.64,3.42-100,2.7-35.93-.77-68.29-10-93-38.46-16.63-19.17-25.48-41.64-30-66.12-2.52-13.66-4.92-27.36-6.58-41.14-3.39-28.2-16.27-51.91-31.69-75.28-32.92-49.88-77-88-124.17-123.32-28.59-21.43-55.81-44.42-76.58-74-1.68-2.4-4.33-4.38-4-7.84h346c9.72,11.36,21.31,20.78,32.72,30.24,21.75,18,28.93,40.07,22.74,67.59a172,172,0,0,0-.62,73.76c3.88,18.49,9.5,36.26,23.48,50,9.48,9.34,19.63,11,31.9,5.53,3.2-1.42,6-3.91,9.69-4Z" transform="translate(-1.37 -1.35)"/><path class="b" d="M1183.87,769.52c-2-19.44-.34-38.89.42-58.28,1.12-28.26,4.27-56.38,7.18-84.52,4-38.48,24.94-63.74,57.9-81.34,31.09-16.61,63.89-29.08,96.72-41.55,7.07-2.69,14.28-5,21.43-7.51q0,133.56.14,267.12c0,5.2-1,6.25-6.21,6.23C1302.25,769.43,1243.06,769.52,1183.87,769.52Z" transform="translate(-1.37 -1.35)"/><path class="a" d="M1367.52,224.63c-3.73.13-6.49,2.62-9.69,4-12.27,5.45-22.42,3.81-31.9-5.53-14-13.77-19.6-31.54-23.48-50a172,172,0,0,1,.62-73.76c6.19-27.52-1-49.55-22.74-67.59-11.41-9.46-23-18.88-32.72-30.24,38.2,0,76.4.1,114.59-.13,4.54,0,5.46.91,5.44,5.44Q1367.39,115.73,1367.52,224.63Z" transform="translate(-1.37 -1.35)"/><path class="a" d="M1.52,415.87c4.38,17.2,5.25,34.41,0,51.61Z" transform="translate(-1.37 -1.35)"/><path class="b" d="M849.14,530c-9,.22-20.36-2.9-31.14-7.07-38.15-14.77-77.6-24.06-118-30a154.68,154.68,0,0,1-36.35-10.51,59.44,59.44,0,0,1-13.34-7.13c-2.43-1.82-5.4-3.41-4.78-7.06s3.41-5.42,6.64-6.58c11.31-4.08,23.21-4.79,35-6,30.21-3.06,60.3-6.15,87.86-20.87,17.77-9.49,36.19-7.51,54.24.05a193.79,193.79,0,0,1,42.07,24,60.35,60.35,0,0,1,8.38,7.67c10.73,11.88,16.25,25.23,9.28,40.95S869,530.14,849.14,530Z" transform="translate(-1.37 -1.35)"/><path class="b" d="M764.58,594.79c14.57-.43,24.18,6.08,32.68,14.93,7.84,8.16,13.78,17.42,16.25,28.62,3.39,15.35-6.41,28-22,26.83-24.87-1.94-44.58-13.95-58.74-34.34-6.59-9.49-4-19.69,5.19-26.59C746.28,598,755.82,594.83,764.58,594.79Z" transform="translate(-1.37 -1.35)"/></svg>