<svg xmlns="http://www.w3.org/2000/svg" viewBox="0 0 1943.08 1093.09"><defs><style>.a{fill:#ffffff;}.b{fill:#41c7f6;}</style></defs><title>1800f_00210</title><path class="a" d="M1584.56,931.92H-217c1.3-10.89,5.23-21,9-31.21,12.7-34.45,29.93-66.9,44.81-100.39S-135,732.72-128,696.46c5.83-30.21,6.76-60.74,6.74-91.36,0-12.7,1.3-25.19,5.56-37.29,11.49-32.68,29.84-60.76,56.63-82.83,24.05-19.82,50.61-25,80-12,21.08,9.34,36.66,24.92,50.25,42.79,23.81,31.32,37.74,67.44,48.52,104.72,13.15,45.48,30,89.1,57.33,128.16,9.88,14.14,20.42,27.8,34.92,37.56,15.41,10.39,29.18,7.81,40.32-6.85a69.22,69.22,0,0,0,9.42-18.08c7.73-20.75,9.64-42.35,8.66-64.21-1.72-38.42-6.92-76.5-12.33-114.52-6.73-47.28-14.53-94.41-25.78-140.87-9-37.15-28.24-66.79-63.27-84.6-17.69-9-36.66-14.4-55.47-20.29S75.12,327.22,57,319.23c-12-5.3-12.72-10.4-3.79-19.76,7.91-8.29,17.14-15,26.61-21.27,53.34-35.5,111.1-59.94,173.59-75.31,64.22-15.79,115.5-53.79,156-105.64,16.31-20.88,29.88-43.88,45.39-65.41C487.37-13.33,523.94-55.35,558.41-99c12.37-15.66,24-32,38.94-45.45,14-12.57,26.4-13.21,41.85-2.51,9.67,6.69,17.5,15.31,24.9,24.31,19,23.14,37.47,46.6,42.59,77.45,1.28,7.71,3.44,15.28,5.14,22.93,7,31.52,25.57,53.69,54.32,68a239.85,239.85,0,0,0,61.49,21.09c65,12.62,130.07,12,195.3,1,28.13-4.74,56.47-8.63,85.24-5.57,25.27,2.69,44.29,12.85,51.8,39.15,2.83,9.93,7,19.51,11,29.07,19,45.36,43.62,87.88,68.09,130.35,32,55.53,63,111.32,80.87,173.4a122.6,122.6,0,0,0,22.6,43.53c13.21,16.25,29.78,19.17,47.73,8.46a80.86,80.86,0,0,0,10.06-6.78c41.2-34.07,78.2-71.78,103.78-119.46,6-11.12,12.2-22.21,21.34-31.17,15-14.67,29.38-13.3,41.1,3.86a134.42,134.42,0,0,1,12,21.88c14.33,32.66,28.86,65.24,48.17,95.37,9,14,17.41,28.37,29.15,40.36V862.1c-12.14,14.75-24.66,29.13-39.15,41.67C1606,913.1,1595.29,922.53,1584.56,931.92ZM840.91,349.79c0,17.14,9,26.16,26.08,26.4,14.62.21,27-5.64,38.41-14a226.55,226.55,0,0,0,43.93-42.56c12.08-15.31,23.14-31.37,28-50.64,5.53-21.73-8.22-36.13-30.55-32.68-13.88,2.15-26,8.24-37.06,16.36-25.3,18.5-44.14,42.77-60.26,69.27C844.37,330.37,840.51,339.5,840.91,349.79Z" transform="translate(286.99 161.03)"/><path class="b" d="M1655.9,490.24c-11.74-12-20.19-26.38-29.15-40.36-19.31-30.13-33.84-62.71-48.17-95.37a134.42,134.42,0,0,0-12-21.88c-11.72-17.16-26.14-18.53-41.1-3.86-9.14,9-15.38,20.05-21.34,31.17-25.58,47.68-62.58,85.39-103.78,119.46a80.86,80.86,0,0,1-10.06,6.78c-18,10.71-34.52,7.79-47.73-8.46a122.6,122.6,0,0,1-22.6-43.53c-17.92-62.08-48.87-117.87-80.87-173.4-24.47-42.47-49.08-85-68.09-130.35-4-9.56-8.16-19.14-11-29.07-7.51-26.3-26.53-36.46-51.8-39.15-28.77-3.06-57.11.83-85.24,5.57-65.23,11-130.29,11.66-195.3-1a239.85,239.85,0,0,1-61.49-21.09c-28.75-14.33-47.28-36.5-54.32-68-1.7-7.65-3.86-15.22-5.14-22.93-5.12-30.85-23.55-54.31-42.59-77.45-7.4-9-15.23-17.62-24.9-24.31-15.45-10.7-27.84-10.06-41.85,2.51-15,13.42-26.57,29.79-38.94,45.45-34.47,43.66-71,85.68-103.58,130.85-15.51,21.53-29.08,44.53-45.39,65.41-40.51,51.85-91.79,89.85-156,105.64C190.94,218.26,133.18,242.7,79.84,278.2c-9.47,6.3-18.7,13-26.61,21.27C44.3,308.83,45,313.93,57,319.23c18.1,8,37.6,11.71,56.41,17.59s37.78,11.3,55.47,20.29c35,17.81,54.26,47.45,63.27,84.6,11.25,46.46,19.05,93.59,25.78,140.87,5.41,38,10.61,76.1,12.33,114.52,1,21.86-.93,43.46-8.66,64.21a69.22,69.22,0,0,1-9.42,18.08c-11.14,14.66-24.91,17.24-40.32,6.85-14.5-9.76-25-23.42-34.92-37.56-27.29-39.06-44.18-82.68-57.33-128.16-10.78-37.28-24.71-73.4-48.52-104.72C57.52,497.93,41.94,482.35,20.86,473c-29.34-13-55.9-7.85-79.95,12-26.79,22.07-45.14,50.15-56.63,82.83-4.26,12.1-5.57,24.59-5.56,37.29,0,30.62-.91,61.15-6.74,91.36-7,36.26-20.32,70.3-35.24,103.86s-32.11,65.94-44.81,100.39c-3.74,10.17-7.67,20.32-9,31.21-21.5,0-43-.17-64.51.13-4.53.07-5.45-.92-5.44-5.44q.27-121.05.13-242.09c2.86-1.41,4.4-4.1,6.21-6.49,18.49-24.28,35-50,54.84-73.34,10.47-12.28,20.77-24.76,28.93-38.79,9.76-16.79,10.6-33.44-1.54-49.54a148.11,148.11,0,0,0-21.88-23c-21.79-18.74-46.26-34.21-66.56-54.75v-44c3.64-2.71,7.2-5.52,10.92-8.11,26.5-18.49,56-31,85.69-43.24,6.46-2.67,14.43-4.59,15.37-12.82,1-8.44-7-11.66-12.56-15.58-19.24-13.46-41.22-21.27-63-29.4-12-4.49-23.7-10-36.45-12.27V150.26c10.7-5.65,19.54-13.31,25.63-23.9,15.92-27.74-.92-57.39-25.63-65.65V-80.44a13.39,13.39,0,0,1,2.93.49c46.54,18.72,94.34,19.51,142.82,9.91,48.87-9.67,81.45-44,86.47-90.84H211c1.94,12.21,7.81,22.8,14.47,32.85,16.1,24.33,38,28.66,62.32,12.47,17.54-11.68,30.6-27.58,41.6-45.32q659.6,0,1319.2-.15c5.88,0,7.53.8,7.52,7.23Q1655.75,168.22,1655.9,490.24Z" transform="translate(286.99 161.03)"/><path class="a" d="M-54.64-160.88c-5,46.83-37.6,81.17-86.47,90.84-48.48,9.6-96.28,8.81-142.82-9.91a13.39,13.39,0,0,0-2.93-.49c0-25,.14-50.09-.13-75.13-.05-4.53.92-5.45,5.44-5.44Q-168.09-160.74-54.64-160.88Z" transform="translate(286.99 161.03)"/><path class="a" d="M-286.86,438.64c20.3,20.54,44.77,36,66.56,54.75a148.11,148.11,0,0,1,21.88,23c12.14,16.1,11.3,32.75,1.54,49.54-8.16,14-18.46,26.51-28.93,38.79C-245.66,628-262.16,653.75-280.65,678c-1.81,2.39-3.35,5.08-6.21,6.49Z" transform="translate(286.99 161.03)"/><path class="a" d="M-286.86,273.2c12.75,2.28,24.45,7.78,36.45,12.27,21.75,8.13,43.73,15.94,63,29.4,5.6,3.92,13.52,7.14,12.56,15.58-.94,8.23-8.91,10.15-15.37,12.82-29.65,12.28-59.19,24.75-85.69,43.24-3.72,2.59-7.28,5.4-10.92,8.11Z" transform="translate(286.99 161.03)"/><path class="a" d="M329.36-160.88c-11,17.74-24.06,33.64-41.6,45.32-24.3,16.19-46.22,11.86-62.32-12.47-6.66-10.05-12.53-20.64-14.47-32.85Z" transform="translate(286.99 161.03)"/><path class="b" d="M1584.56,931.92c10.73-9.39,21.41-18.82,32.19-28.15,14.49-12.54,27-26.92,39.15-41.67,0,22-.09,44,.09,66,0,3.27-.63,3.92-3.89,3.89C1629.59,931.83,1607.07,931.92,1584.56,931.92Z" transform="translate(286.99 161.03)"/><path class="a" d="M-286.86,60.71c24.71,8.26,41.55,37.91,25.63,65.65-6.09,10.59-14.93,18.25-25.63,23.9Z" transform="translate(286.99 161.03)"/><path class="b" d="M840.9,349.79c-.39-10.29,3.47-19.42,8.6-27.85,16.12-26.5,35-50.77,60.26-69.27,11.1-8.12,23.18-14.21,37.06-16.36,22.33-3.45,36.08,10.95,30.55,32.68-4.9,19.27-16,35.33-28,50.64a226.55,226.55,0,0,1-43.93,42.56c-11.4,8.36-23.79,14.21-38.41,14C849.88,376,840.88,366.93,840.9,349.79Z" transform="translate(286.99 161.03)"/></svg>