<svg xmlns="http://www.w3.org/2000/svg" viewBox="0 0 1943.02 1093.06"><defs><style>.a{fill:#ffffff;}.b{fill:#41c7f6;}</style></defs><title>1800f_00366</title><path class="a" d="M415.87,931.92h-598c18.94-30.49,35.91-62.13,54.1-93.07,9.64-16.4,21.13-31.07,40.22-37.22a120.83,120.83,0,0,1,59-4.21c23.24,4.1,43.23,15,62.54,27.8,14.94,9.89,29.47,20.62,46,27.71,20.58,8.8,34.1,6.54,47.93-10.76,24.89-31.09,45.27-65,49-105.76,3.51-38.35-12-64.29-53.07-68.26-27-2.6-47.5-15.52-64.67-35.34-20.35-23.5-35.34-50.44-50-77.6-23.12-42.9-53.17-79.91-96.41-103.36-38.18-20.72-76.77-40.76-115.33-60.83-11.68-6.08-23.8-11.06-36.8-13.75-23-4.77-35.28,5-35.25,28.33A94.61,94.61,0,0,0-270.85,431c5,18,11.05,35.72,14.4,54.17,8.84,48.7,16.81,97.54,20.62,146.92,1.76,22.76.52,45.52-8.79,67-9.64,22.21-25.73,39.66-42.24,56.79V-110.8c22.73-16,45.19-32.34,71.31-42.67,6.55-2.59,13.65-3.69,19.76-7.41H271.68c13.91,10,28.53,19,40.46,31.72,31.78,33.86,47.4,75.07,57,119.56,7.88,36.45-1.05,66.69-28.54,92-14.11,13-27.33,27-40.8,40.63-12.78,13-14.31,25.32-4.95,41.1a89.06,89.06,0,0,0,23.6,26.37c24.68,18.29,43.43,11.05,48.85-19q5.37-29.83,12-59.4c6.66-29.65,21.8-52.95,48.33-68.46,8.07-4.72,15.82-10,23.84-14.8,32.28-19.4,64.4-39,99.44-53.38,30.52-12.56,59.88-12,89.43,2.32,14.1,6.82,28.39,13.34,42.93,19.14C696.14,2,709.22,7,723.57,6.23c8.35-.46,12.16-4.4,12.39-12.89.18-6.67-1.22-13.13-3.1-19.38-5.05-16.78-1.28-31.87,7.75-46.22a170.4,170.4,0,0,1,23.8-29.42c17.69-17.71,35.75-35,53.59-52.61,1.89-1.87,4.61-3.34,4.64-6.59h605.59c3.89,27.69,4.56,55.53.72,83.16-10,71.56-20,143.13-31.32,214.47-10.54,66.23-27.26,131.08-48.43,194.73-5.91,17.77-13.2,35-24.6,50.19-13.83,18.39-31.13,23.65-52.88,16.32a80.19,80.19,0,0,1-17.2-7.88c-46.67-29.33-94.22-57.17-142-84.71-14.89-8.59-28.92-18.61-40.49-31.63-12.81-14.42-18.53-32.31-24.36-50.09-7.16-21.85-13.18-44.08-21.89-65.4-4.24-10.38-9.42-20.43-18.73-27.14-15.31-11-31.59-8.48-47.58-1.6-17.21,7.4-31.17,19.58-45,31.87-34.46,30.65-54.08,67.85-52.58,115.17,1.79,56.72,18.38,108.76,47.34,157.18,15.58,26.05,35.58,49.18,50.17,75.89,5.94,10.87,11.86,21.77,19.22,31.78,9.87,13.41,22.48,23,38.48,28.18,19.37,6.27,38.94,5.45,58.49,1.83s38.82-7,58.64-6.4c14.69.47,29.32,1.94,43,8,18.85,8.32,21.52,25,6.34,39a71.86,71.86,0,0,1-21.15,13.15c-14.55,6.12-29.78,9.74-45.28,12.21-35.69,5.68-71.5,10.5-105.14,25-29,12.51-57.11,27-85.93,40C902.6,713,879,723.32,857,737c-37.78,23.63-66.34,54.53-77.32,99-5,20.25-15.67,37-29.3,52.32s-28.63,29.2-43.14,43.61H526.67c-21.94-8.81-44-17.32-67.34-21.65C443.61,907.35,427.25,912.93,415.87,931.92Zm292-269.63c-.27,11.3,2.48,15.27,9,15.74,15.91,1.14,36.39-19.2,35.33-35.09-.8-11.91-12.22-19.34-21.93-13.77C716.52,637,710.23,649.89,707.83,662.29Z" transform="translate(286.97 161)"/><path class="b" d="M707.28,931.92c14.51-14.41,29.54-28.27,43.14-43.61s24.29-32.07,29.3-52.32c11-44.42,39.54-75.32,77.32-99,22-13.72,45.56-24.09,69.07-34.67,28.82-13,56.9-27.48,85.93-40,33.64-14.51,69.45-19.33,105.14-25,15.5-2.47,30.73-6.09,45.28-12.21A71.86,71.86,0,0,0,1183.61,612c15.18-14,12.51-30.69-6.34-39-13.66-6-28.29-7.49-43-8-19.82-.64-39.23,2.8-58.64,6.4s-39.12,4.44-58.49-1.83c-16-5.18-28.61-14.77-38.48-28.18-7.36-10-13.28-20.91-19.22-31.78-14.59-26.71-34.59-49.84-50.17-75.89-29-48.42-45.55-100.46-47.34-157.18-1.5-47.32,18.12-84.52,52.58-115.17,13.81-12.29,27.77-24.47,45-31.87,16-6.88,32.27-9.43,47.58,1.6,9.31,6.71,14.49,16.76,18.73,27.14,8.71,21.32,14.73,43.55,21.89,65.4,5.83,17.78,11.55,35.67,24.36,50.09,11.57,13,25.6,23,40.49,31.63,47.74,27.54,95.29,55.38,142,84.71a80.19,80.19,0,0,0,17.2,7.88c21.75,7.33,39,2.07,52.88-16.32,11.4-15.15,18.69-32.42,24.6-50.19,21.17-63.65,37.89-128.5,48.43-194.73C1409,65.41,1419-6.16,1429-77.72c3.84-27.63,3.17-55.47-.72-83.16q111,0,222-.12c4.69,0,5.83,1,5.82,5.78q-.27,101.14-.12,202.27c-3,5.09-4.5,10.71-5.76,16.36-5.57,24.89-10.89,49.84-16.51,74.72-8.73,38.65-21.91,76.27-26.91,115.8-2.39,18.88-3.66,37.68,1.81,56.35,7.59,25.89,25.84,42.79,47.37,57V721a21.58,21.58,0,0,1-3.37-2.83,302.67,302.67,0,0,0-51.08-50.6c-54.86-42.73-116.35-66.61-186.65-64.72-38,1-68.75,15.72-87.92,49.88A857.56,857.56,0,0,0,1287,733.59c-14,32.54-10,62.44,12.35,90.13,14.31,17.76,31.3,33,45.76,50.6a79.49,79.49,0,0,0,42.63,27.28c42.08,10.87,84.1,9.78,126-1,50.06-12.9,95.87-36.22,142.22-58.22,0,27.82-.18,55.65.15,83.47.06,5.21-1,6.23-6.23,6.22q-272.82-.25-545.64-.14Z" transform="translate(286.97 161)"/><path class="b" d="M-286.86,755.86c16.51-17.13,32.6-34.58,42.24-56.79,9.31-21.48,10.55-44.24,8.79-67-3.81-49.38-11.78-98.22-20.62-146.92-3.35-18.45-9.39-36.17-14.4-54.17a94.61,94.61,0,0,1-3.91-25.38c0-23.29,12.25-33.1,35.25-28.33,13,2.69,25.12,7.67,36.8,13.75,38.56,20.07,77.15,40.11,115.33,60.83C-44.14,475.3-14.09,512.31,9,555.21c14.64,27.16,29.63,54.1,50,77.6,17.17,19.82,37.68,32.74,64.67,35.34,41.08,4,56.58,29.91,53.07,68.26-3.74,40.79-24.12,74.67-49,105.76-13.83,17.3-27.35,19.56-47.93,10.76-16.57-7.09-31.1-17.82-46-27.71-19.31-12.79-39.3-23.7-62.54-27.8a120.83,120.83,0,0,0-59,4.21c-19.09,6.15-30.58,20.82-40.22,37.22-18.19,30.94-35.16,62.58-54.1,93.07-33.05,0-66.1-.14-99.15.14-5,0-5.7-1.42-5.68-5.91Q-286.73,841-286.86,755.86Z" transform="translate(286.97 161)"/><path class="a" d="M1655.9,842.37c-46.35,22-92.16,45.32-142.22,58.22-41.88,10.79-83.9,11.88-126,1a79.49,79.49,0,0,1-42.63-27.28c-14.46-17.55-31.45-32.84-45.76-50.6C1277,796,1273,766.13,1287,733.59a857.56,857.56,0,0,1,39.92-80.91c19.17-34.16,49.89-48.86,87.92-49.88,70.3-1.89,131.79,22,186.65,64.72a302.67,302.67,0,0,1,51.08,50.6,21.58,21.58,0,0,0,3.37,2.83Z" transform="translate(286.97 161)"/><path class="b" d="M822.64-160.88c0,3.25-2.75,4.72-4.64,6.59-17.84,17.57-35.9,34.9-53.59,52.61a170.4,170.4,0,0,0-23.8,29.42c-9,14.35-12.8,29.44-7.75,46.22,1.88,6.25,3.28,12.71,3.1,19.38-.23,8.49-4,12.43-12.39,12.89C709.22,7,696.14,2,683.27-3.11c-14.54-5.8-28.83-12.32-42.93-19.14-29.55-14.31-58.91-14.88-89.43-2.32-35,14.42-67.16,34-99.44,53.38-8,4.81-15.77,10.08-23.84,14.8C401.1,59.12,386,82.42,379.3,112.07q-6.65,29.58-12,59.4c-5.42,30.05-24.17,37.29-48.85,19a89.06,89.06,0,0,1-23.6-26.37C285.51,148.32,287,136,299.82,123c13.47-13.67,26.69-27.64,40.8-40.63,27.49-25.28,36.42-55.52,28.54-92-9.62-44.49-25.24-85.7-57-119.56-11.93-12.71-26.55-21.69-40.46-31.72Z" transform="translate(286.97 161)"/><path class="a" d="M1655.9,367.3c-21.53-14.23-39.78-31.13-47.37-57-5.47-18.67-4.2-37.47-1.81-56.35,5-39.53,18.18-77.15,26.91-115.8,5.62-24.88,10.94-49.83,16.51-74.72,1.26-5.65,2.79-11.27,5.76-16.36Z" transform="translate(286.97 161)"/><path class="b" d="M-195.79-160.88c-6.11,3.72-13.21,4.82-19.76,7.41-26.12,10.33-48.58,26.72-71.31,42.67,0-15.17.15-30.35-.1-45.53-.07-3.8.86-4.68,4.65-4.65C-253.47-160.8-224.63-160.88-195.79-160.88Z" transform="translate(286.97 161)"/><path class="b" d="M415.87,931.92c11.38-19,27.74-24.57,43.46-21.65,23.31,4.33,45.4,12.84,67.34,21.65Z" transform="translate(286.97 161)"/><path class="b" d="M707.83,662.29c2.4-12.4,8.69-25.26,22.38-33.12,9.71-5.57,21.13,1.86,21.93,13.77,1.06,15.89-19.42,36.23-35.33,35.09C710.31,677.56,707.56,673.59,707.83,662.29Z" transform="translate(286.97 161)"/></svg>