<svg xmlns="http://www.w3.org/2000/svg" viewBox="0 0 1943.06 1093.11"><defs><style>.a{fill:#ffffff;}.b{fill:#41c7f6;}</style></defs><title>1800f_00342</title><path class="a" d="M1655.9,658.72q0,133.18.14,266.37c0,5.69-1.28,7-7,7q-866.28-.22-1732.55-.14a20.44,20.44,0,0,0-1.44-4.16c-21.91-36.1-40.32-74-57.74-112.41-16-35.25-35.08-68.21-66-92.9-24.17-19.28-49.93-35.88-78.17-48.55V578.28c24.7-9,49-19.08,73.06-29.61,33.24-14.53,67.21-26.3,103.61-30.23,32.44-3.5,65.1-3.3,97.52-6.81,30.88-3.34,59.23-12.73,82.84-33.73C84.69,465,95.43,449,105.46,432.6c14.08-23.08,26.42-47.17,41.63-69.61,16.56-24.44,39-34.79,68.19-31.65,30.16,3.25,60.15,7.73,90,12.68,40.22,6.65,79,3.28,116.53-13.13,25.23-11,50.45-22.12,75.74-33,19.24-8.3,39.39-14.49,57.59-25.19,20.39-12,34.92-28.2,37.81-52.73.59-5,.89-10.07,1.6-15.07,2.95-21,8.79-41.6,7.88-63C600.57,97.58,575,83,537.77,84.28c-15.12.53-30.23,2.19-45.3,3.78-34.33,3.62-67.78,11-99.78,24.29-29.28,12.19-56.62,28.05-83.79,44.17-26.2,15.54-53.83,23.76-84.56,21.1s-45.94-17.24-48.71-47.53a100.64,100.64,0,0,1,3.1-33.8c15.15-60.25,33-119.83,45.5-180.76,5.22-25.46,11.55-50.71,15.58-76.41h772.55c-19.31,28-29.64,59.68-36.31,92.57-6.37,31.45-17.31,60.58-37.31,86.12-12,15.33-22.94,31.47-34.36,47.24-9,12.5-18.29,24.88-24.4,39.2-9.16,21.46-3,35.79,19,43.36,19.1,6.57,38.65,6.9,58.39,3.41,18.68-3.31,35.64-11.26,52.26-19.86,23.21-12,45.11-10,66.57,4.38,13.49,9.05,25.94,19.36,38.25,29.85,26.49,22.55,56.63,36.75,91.24,41.39,26.3,3.53,52.63,6.89,78.79,11.26,69.52,11.61,138.93,23.83,208.87,32.77,19,2.43,38.09,5.62,55.72,13.87,17.16,8,23.37,18.94,18.91,37.37-7,29.06-9,58.37-7.77,88.06.15,3.53,0,7.08-.13,10.62-1.23,29.14-12.68,52.78-37.59,69-8.69,5.64-17.48,11.16-26.53,16.19-26.69,14.84-52,31.55-71.52,55.44-51.51,62.9-80.57,135-86.65,216-1.11,14.8-.15,29.91,6.66,43.77,6.3,12.84,15.85,16.9,29.41,12.38a87.56,87.56,0,0,0,28.32-15.86,383.31,383.31,0,0,1,131-71.26,346.71,346.71,0,0,0,71.42-31.3C1622.81,684.45,1639.07,671.2,1655.9,658.72Z" transform="translate(287.01 161.05)"/><path class="b" d="M239.81-160.88c-4,25.7-10.36,50.95-15.58,76.41C211.75-23.54,193.88,36,178.73,96.29a100.64,100.64,0,0,0-3.1,33.8c2.77,30.29,18.12,44.87,48.71,47.53s58.36-5.56,84.56-21.1c27.17-16.12,54.51-32,83.79-44.17,32-13.34,65.45-20.67,99.78-24.29,15.07-1.59,30.18-3.25,45.3-3.78,37.26-1.28,62.8,13.3,64.7,57.55.91,21.44-4.93,42.07-7.88,63-.71,5-1,10-1.6,15.07-2.89,24.53-17.42,40.73-37.81,52.73-18.2,10.7-38.35,16.89-57.59,25.19-25.29,10.91-50.51,22-75.74,33-37.5,16.41-76.31,19.78-116.53,13.13-29.89-4.95-59.88-9.43-90-12.68-29.16-3.14-51.63,7.21-68.19,31.65-15.21,22.44-27.55,46.53-41.63,69.61C95.43,449,84.69,465,70.17,477.9c-23.61,21-52,30.39-82.84,33.73-32.42,3.51-65.08,3.31-97.52,6.81-36.4,3.93-70.37,15.7-103.61,30.23-24.08,10.53-48.36,20.6-73.06,29.61V-113.83a272.46,272.46,0,0,1,60.19-4.36c22.43,1,44.88,2.56,67.2-.61,27.44-3.9,47.88-18.68,62.33-42.08Z" transform="translate(287.01 161.05)"/><path class="b" d="M1655.9,658.72c-16.83,12.48-33.09,25.73-51.24,36.38a346.71,346.71,0,0,1-71.42,31.3,383.31,383.31,0,0,0-131,71.26,87.56,87.56,0,0,1-28.32,15.86c-13.56,4.52-23.11.46-29.41-12.38-6.81-13.86-7.77-29-6.66-43.77,6.08-81.07,35.14-153.14,86.65-216,19.56-23.89,44.83-40.6,71.52-55.44,9-5,17.84-10.55,26.53-16.19,24.91-16.19,36.36-39.83,37.59-69,.15-3.54.28-7.09.13-10.62-1.24-29.69.75-59,7.77-88.06,4.46-18.43-1.75-29.34-18.91-37.37-17.63-8.25-36.68-11.44-55.72-13.87-69.94-8.94-139.35-21.16-208.87-32.77-26.16-4.37-52.49-7.73-78.79-11.26-34.61-4.64-64.75-18.84-91.24-41.39-12.31-10.49-24.76-20.8-38.25-29.85-21.46-14.38-43.36-16.39-66.57-4.38-16.62,8.6-33.58,16.55-52.26,19.86-19.74,3.49-39.29,3.16-58.39-3.41-22-7.57-28.2-21.9-19-43.36,6.11-14.32,15.36-26.7,24.4-39.2,11.42-15.77,22.37-31.91,34.36-47.24,20-25.54,30.94-54.67,37.31-86.12,6.67-32.89,17-64.54,36.31-92.57q318.34,0,636.71-.15c5.69,0,7,1.29,7,7Q1655.79,252.33,1655.9,658.72Z" transform="translate(287.01 161.05)"/><path class="b" d="M-286.86,673.9c28.24,12.67,54,29.27,78.17,48.55,30.95,24.69,50.05,57.65,66,92.9,17.42,38.41,35.83,76.31,57.74,112.41a20.44,20.44,0,0,1,1.44,4.16q-99,0-198.07.12c-4.53,0-5.44-.91-5.44-5.43Q-286.72,800.25-286.86,673.9Z" transform="translate(287.01 161.05)"/><path class="a" d="M-97.14-160.88c-14.45,23.4-34.89,38.18-62.33,42.08-22.32,3.17-44.77,1.66-67.2.61a272.46,272.46,0,0,0-60.19,4.36c0-13.37.28-26.74-.14-40.09-.16-5.42.78-7.16,6.8-7.13C-219.18-160.77-158.16-160.88-97.14-160.88Z" transform="translate(287.01 161.05)"/></svg>