<svg xmlns="http://www.w3.org/2000/svg" viewBox="0 0 1943.03 1093.09"><defs><style>.a{fill:#ffffff;}.b{fill:#41c7f6;}</style></defs><title>1800f_00345</title><path class="a" d="M1655.9,708.8c0,72.1-.08,144.19.14,216.29,0,5.69-1.28,7-7,7q-877.66-.22-1755.31-.14c.12-2.89-2.2-4.43-3.66-6.37-24.09-32.14-47.66-64.62-66.82-100.07-9.83-18.2-19.28-36.69-32.59-52.75-21-25.38-47.22-43.72-77.55-56.34V617.74c3,.7,5.31-1.26,7.81-2.3,32.43-13.57,64.41-28.16,96-43.5,59.38-28.85,121.76-34.78,186.36-26.28,23.61,3.11,46.56,9.29,69.87,13.8,17.25,3.34,33.92,3.57,47.77-9.41,8.4-7.88,14.22-17.77,18.57-28.37,9.11-22.2,17.57-44.69,26.93-66.79,15.11-35.66,42.38-56,80.26-63.36,32.13-6.21,64.57-8.77,97.14-10.24,20.46-.91,40.9-2,61.19-4.84,23-3.27,45-10.08,65-22,40.82-24.34,82.26-47.6,123.33-71.52,18.5-10.77,32.12-26.06,35.87-48.32a213.85,213.85,0,0,0-1.17-79.11c-5.94-28.87-28.73-47.18-58.27-48.1-19.85-.61-38.76,3.8-56.91,11.07-33.55,13.46-67.05,27-100.93,39.63-41.67,15.51-81.64,35.38-124.67,47.41-25.38,7.09-50.51,14.72-77.3,13.14-21.11-1.25-35-12.79-39.45-33.39a92,92,0,0,1-1.9-17.29c-.51-24.12,5.64-47.12,13-69.74,27.65-85.36,54.27-171,71.87-259.14h805.94c-.54,1.93-1.24,3.83-1.6,5.8-5.56,30.31-10.07,60.81-18,90.67C1031.74-34,1017.66-7.66,992.3,12.05,977.94,23.21,964,34.91,950.36,47c-18.43,16.36-35.39,34.09-45,57.37-8.93,21.58-3.67,36.44,16.73,47.65,14.57,8,30.49,12,46.69,15.1,24.1,4.64,48.41,2.3,72.64,2.45,30.14.19,57.06,9.52,81,27.7,14.74,11.18,28,24,41.3,36.82a94.07,94.07,0,0,0,44.64,24.48c32.27,7.48,65,12.34,97.66,17.71,48.36,7.95,97.35,11.46,145.64,19.92,26.17,4.59,52.07,10.15,76.17,22.11,18.75,9.31,28.48,24,29.49,45,.89,18.42,2.21,36.84,4.11,55.18,4.38,42.36-6.87,78.39-40.47,106.37-14.56,12.12-28.34,25.2-42.21,38.13-38.23,35.63-64.1,78-69.49,131a264.49,264.49,0,0,0,8.22,97.67c4.47,16.18,13.35,29.84,31.48,33.6,12.89,2.68,25.19-.75,36.78-6.21,39.69-18.7,76.67-42.05,112.59-67C1618,738.24,1636.73,723.22,1655.9,708.8ZM436.82,739.38a75,75,0,0,0,40.56-11.16c28-16.78,43.7-42.2,50.15-73.53,8-38.79,26.51-71.09,56.47-97.05,27-23.42,56.73-39.43,93.83-37.39a171.9,171.9,0,0,0,34.74-2c19.07-2.84,36.37-10.43,52.48-20.75,18.26-11.69,37.59-21.89,53.17-37.38,7.78-7.74,6.95-11.12-3.57-14-27.68-7.52-55.87-8-84.14-5-21.72,2.32-42.13,10.3-63.09,15.92-54,14.47-98.55,41.68-128.53,90.57-13.85,22.58-33,40.8-55,55.73-13,8.79-27.08,15.8-39.55,25.36-19.87,15.23-37.65,32.27-48,55.69-7.55,17.12-5.26,33.17,6.3,43.3C412.65,736.46,424.62,739.84,436.82,739.38Zm511.67-295c11.24.17,24.32-1,37.33-2.91,42.62-6.16,82.82-18.94,117.45-45.49,27.64-21.2,42.72-49.49,43.82-84.5.46-14.73-9.31-23.89-24.12-24.42-15.43-.55-29,4.75-40.5,14.5-40.63,34.45-85.54,62.77-130.17,91.49-16.33,10.51-34.15,18.8-48.44,32.31-7.58,7.16-6.27,11.79,3.71,14.56C920.33,443.46,933.39,444.38,948.49,444.38ZM121.09,806.61c-9.25-.09-14.13,4-15.62,12.56-3.14,18.1,7.51,41.47,23.8,49.57,10.34,5.14,17.91,2.26,20.09-8.72,3.72-18.78-2.85-34.62-16.05-47.91C129.93,808.7,126,805.83,121.09,806.61Z" transform="translate(286.99 161.03)"/><path class="b" d="M253.47-160.88C235.87-72.74,209.25,12.9,181.6,98.26c-7.33,22.62-13.48,45.62-13,69.74a92,92,0,0,0,1.9,17.29c4.44,20.6,18.34,32.14,39.45,33.39,26.79,1.58,51.92-6.05,77.3-13.14,43-12,83-31.9,124.67-47.41,33.88-12.6,67.38-26.17,100.93-39.63,18.15-7.27,37.06-11.68,56.91-11.07,29.54.92,52.33,19.23,58.27,48.1a213.85,213.85,0,0,1,1.17,79.11c-3.75,22.26-17.37,37.55-35.87,48.32-41.07,23.92-82.51,47.18-123.33,71.52-19.95,11.89-42,18.7-65,22-20.29,2.89-40.73,3.93-61.19,4.84-32.57,1.47-65,4-97.14,10.24-37.88,7.32-65.15,27.7-80.26,63.36-9.36,22.1-17.82,44.59-26.93,66.79-4.35,10.6-10.17,20.49-18.57,28.37-13.85,13-30.52,12.75-47.77,9.41C49.88,555,26.93,548.77,3.32,545.66c-64.6-8.5-127-2.57-186.36,26.28-31.6,15.34-63.58,29.93-96,43.5-2.5,1-4.78,3-7.81,2.3v-554c3-1.35,4.7,1,6.68,2.36a126,126,0,0,0,21.35,11.38c18.71,7.9,34.15,2.57,44.56-14.87,7.47-12.51,12-26.24,15.16-40.18,7.29-31.81,24.71-56.73,48.47-78.4,22.71-20.72,46.54-40.46,64.8-65.59,9.15-12.6,19-24.82,25.13-39.33Z" transform="translate(286.99 161.03)"/><path class="b" d="M1655.9,708.8c-19.17,14.42-37.91,29.44-57.58,43.13-35.92,25-72.9,48.34-112.59,67-11.59,5.46-23.89,8.89-36.78,6.21-18.13-3.76-27-17.42-31.48-33.6a264.49,264.49,0,0,1-8.22-97.67c5.39-52.93,31.26-95.34,69.49-131,13.87-12.93,27.65-26,42.21-38.13,33.6-28,44.85-64,40.47-106.37-1.9-18.34-3.22-36.76-4.11-55.18-1-21-10.74-35.66-29.49-45-24.1-12-50-17.52-76.17-22.11-48.29-8.46-97.28-12-145.64-19.92-32.64-5.37-65.39-10.23-97.66-17.71a94.07,94.07,0,0,1-44.64-24.48c-13.32-12.78-26.56-25.64-41.3-36.82-24-18.18-50.87-27.51-81-27.7-24.23-.15-48.54,2.19-72.64-2.45C952.56,164,936.64,160,922.07,152c-20.4-11.21-25.66-26.07-16.73-47.65,9.63-23.28,26.59-41,45-57.37C964,34.91,977.94,23.21,992.3,12.05c25.36-19.71,39.44-46.07,47.51-76.46,7.93-29.86,12.44-60.36,18-90.67.36-2,1.06-3.87,1.6-5.8h248.91c6.37,31.09,18.31,60.35,29.82,89.73,10,25.42,20,50.86,36.5,73,10.89,14.57,23.75,26.81,42,31.94,28.44,8,53.4-6,57.83-33.65,5.42-33.89,9.09-68,9.64-102.37.31-19.79-2.51-39.21-5.83-58.6,57.17,0,114.34.09,171.5-.15,5.2,0,6.22,1,6.22,6.22Q1655.8,277,1655.9,708.8Z" transform="translate(286.99 161.03)"/><path class="a" d="M-60.71-160.88c-6.18,14.51-16,26.73-25.13,39.33C-104.1-96.42-127.93-76.68-150.64-56c-23.76,21.67-41.18,46.59-48.47,78.4-3.19,13.94-7.69,27.67-15.16,40.18-10.41,17.44-25.85,22.77-44.56,14.87a126,126,0,0,1-21.35-11.38c-2-1.33-3.71-3.71-6.68-2.36q0-109.47-.12-218.95c0-4.74,1.07-5.81,5.8-5.8Q-170.94-160.74-60.71-160.88Z" transform="translate(286.99 161.03)"/><path class="a" d="M1478.32-160.88c3.32,19.39,6.14,38.81,5.83,58.6-.55,34.38-4.22,68.48-9.64,102.37-4.43,27.67-29.39,41.62-57.83,33.65-18.29-5.13-31.15-17.37-42-31.94-16.5-22.09-26.53-47.53-36.5-72.95-11.51-29.38-23.45-58.64-29.82-89.73Z" transform="translate(286.99 161.03)"/><path class="b" d="M-286.86,716.39c30.33,12.62,56.52,31,77.55,56.34,13.31,16.06,22.76,34.55,32.59,52.75,19.16,35.45,42.73,67.93,66.82,100.07,1.46,1.94,3.78,3.48,3.66,6.37-58.44,0-116.87-.07-175.31.13-4.53,0-5.45-.92-5.44-5.44Q-286.72,821.49-286.86,716.39Z" transform="translate(286.99 161.03)"/><path class="b" d="M436.82,739.38c-12.2.46-24.17-2.92-34.15-11.67-11.56-10.13-13.85-26.18-6.3-43.3,10.31-23.42,28.09-40.46,48-55.69,12.47-9.56,26.58-16.57,39.55-25.36,22.05-14.93,41.16-33.15,55-55.73,30-48.89,74.5-76.1,128.53-90.57,21-5.62,41.37-13.6,63.09-15.92,28.27-3,56.46-2.53,84.14,5,10.52,2.86,11.35,6.24,3.57,14-15.58,15.49-34.91,25.69-53.17,37.38-16.11,10.32-33.41,17.91-52.48,20.75a171.9,171.9,0,0,1-34.74,2c-37.1-2-66.82,14-93.83,37.39-30,26-48.5,58.26-56.47,97.05-6.45,31.33-22.15,56.75-50.15,73.53A75,75,0,0,1,436.82,739.38Z" transform="translate(286.99 161.03)"/><path class="b" d="M948.49,444.38c-15.1,0-28.16-.92-40.92-4.46-10-2.77-11.29-7.4-3.71-14.56,14.29-13.51,32.11-21.8,48.44-32.31,44.63-28.72,89.54-57,130.17-91.49,11.49-9.75,25.07-15.05,40.5-14.5,14.81.53,24.58,9.69,24.12,24.42-1.1,35-16.18,63.3-43.82,84.5-34.63,26.55-74.83,39.33-117.45,45.49C972.81,443.35,959.73,444.55,948.49,444.38Z" transform="translate(286.99 161.03)"/><path class="b" d="M121.09,806.61c4.88-.78,8.84,2.09,12.22,5.5,13.2,13.29,19.77,29.13,16.05,47.91-2.18,11-9.75,13.86-20.09,8.72-16.29-8.1-26.94-31.47-23.8-49.57C107,810.58,111.84,806.52,121.09,806.61Z" transform="translate(286.99 161.03)"/></svg>