<svg xmlns="http://www.w3.org/2000/svg" viewBox="0 0 1366.27 768.27"><defs><style>.a{fill:#ffffff;}.b{fill:#41c7f6;}</style></defs><title>1800f_00064</title><path class="a" d="M1367.52,467.48v75.89c-2.86-1-5.44.31-8.09,1-32.86,8.89-65.39,19-98.86,25.64-22.87,4.56-44.84,12.1-63.59,26.88-20.36,16-22.85,40.67-6.26,60.54,5,6,11.81,10.22,15.15,17.69,4.3,9.61,5.77,19.76,6.92,30.07,2.4,21.45.43,42.87-.09,64.3H226.15c-1.38-2.1-3.61-1.42-5.52-1.64-26.59-3.07-53.34-4.7-79.78-9-11-1.8-22-3.51-32-8.85-8.94-4.79-9.61-11-2-17.9,5.28-4.78,11.48-8.24,17.9-11.29,13-6.2,26.73-10.73,40.48-15,47.22-14.72,90.44-36.51,126.19-71.4,24.84-24.24,44.89-51.41,51-86.74a306.46,306.46,0,0,0,4-43.73q1.21-43.2,5.08-86.25A68.83,68.83,0,0,0,347.83,387c-4.41-11.81-13.53-16.71-25.77-14a22.87,22.87,0,0,0-5.81,1.66c-23.58,12.59-48.64,22.47-70.48,38.25-8.38,6.06-15.14,14.19-24,19.6-9.89,6-17.65,3.89-23.69-5.92-12-19.54-11.32-40.95-9-62.48,1.84-17.12,7.59-33.49,10.49-50.41,4.65-27.16,5.18-53.91-10.06-78.6-6.13-9.91-14-18.61-20.42-28.24-27.7-41.38-54.93-83.06-82.26-124.68a33.18,33.18,0,0,1-3.41-7.58c-2.6-7.76-.4-12,7.6-14.2a42.79,42.79,0,0,1,10.47-1.31c15.76-.22,31.23,2.47,46.57,5.6,50.71,10.36,97,1.88,137.48-31.71,11-9.1,22.08-18.32,28.68-31.52H910.67c.7,2.63,3,4,4.68,5.82,13.2,13.69,28.09,25.41,43,37.13,48.3,37.89,93.88,78.56,128.64,129.82,20.85,30.74,42.28,61.18,57.24,95.45,9.43,21.58,15.94,44.19,23,66.61,7.39,23.62,13.89,47.54,26,69.43,12.63,22.83,29.67,39.51,56.85,43.05,7.26.94,14.46,2.33,21.69,3.48ZM768.71,697.81c17.4-.46,33.58-2.75,48.67-10,10.79-5.22,21.13-11.77,21.07-25.25-.05-13.19-9.74-20.53-20.5-26-25.31-12.77-51.27-11.1-77.34-2.67-13.63,4.4-26.16,10.85-35.81,21.82-9.81,11.15-7.53,23.84,5.67,30.79a66.41,66.41,0,0,0,13.39,5.15C738.8,695.73,754.13,697.15,768.71,697.81Zm79.52-167.08c19.13.28,30.57-13.66,27.52-31-2.36-13.44-9.78-23.21-22.62-28.15-12.52-4.81-22.69.66-31.76,8.74-6.61,5.88-12.78,12.23-17.6,19.75-3.23,5.06-3.1,9.75,2.05,13.21C819.41,522.35,834.3,528.32,848.23,530.73Zm-97.36-11.42c2.68-.31,6.14-1,6.09-4.61-.05-3-3.43-2-5.45-2-2.66,0-6.07-.26-6.08,3.58C745.43,519.08,748.19,519.22,750.87,519.31Z" transform="translate(-1.37 -1.37)"/><path class="b" d="M314.18,1.52c-6.6,13.2-17.72,22.42-28.68,31.52C245.07,66.63,198.73,75.11,148,64.75c-15.34-3.13-30.81-5.82-46.57-5.6A42.79,42.79,0,0,0,91,60.46c-8,2.16-10.2,6.44-7.6,14.2a33.18,33.18,0,0,0,3.41,7.58c27.33,41.62,54.56,83.3,82.26,124.68,6.44,9.63,14.29,18.33,20.42,28.24,15.24,24.69,14.71,51.44,10.06,78.6-2.9,16.92-8.65,33.29-10.49,50.41-2.31,21.53-3,42.94,9,62.48,6,9.81,13.8,11.93,23.69,5.92,8.89-5.41,15.65-13.54,24-19.6,21.84-15.78,46.9-25.66,70.48-38.25a22.87,22.87,0,0,1,5.81-1.66c12.24-2.74,21.36,2.16,25.77,14a68.83,68.83,0,0,1,3.66,30.63q-3.9,43.05-5.08,86.25a306.46,306.46,0,0,1-4,43.73c-6.1,35.33-26.15,62.5-51,86.74-35.75,34.89-79,56.68-126.19,71.4-13.75,4.29-27.43,8.82-40.48,15-6.42,3.05-12.62,6.51-17.9,11.29-7.57,6.85-6.9,13.11,2,17.9,10,5.34,21,7,32,8.85,26.44,4.34,53.19,6,79.78,9,1.91.22,4.14-.46,5.52,1.64q-109.67,0-219.32.12c-4.53,0-5.46-.91-5.44-5.44.2-55.4.13-110.79.13-166.19,7.85-5.87,12.32-14.51,17.92-22.17C39.05,549,46.13,519.46,37.26,487q-9.07-33.26-19.07-66.26A98.56,98.56,0,0,0,1.52,388.55q0-190.47-.15-381c0-5.2,1-6.23,6.22-6.22Q160.89,1.67,314.18,1.52Z" transform="translate(-1.37 -1.37)"/><path class="b" d="M1367.52,467.48l-95.77-15.17c-7.23-1.15-14.43-2.54-21.69-3.48-27.18-3.54-44.22-20.22-56.85-43.05-12.11-21.89-18.61-45.81-26-69.43-7-22.42-13.53-45-23-66.61-15-34.27-36.39-64.71-57.24-95.45C1052.25,123,1006.67,82.36,958.37,44.47c-14.93-11.72-29.82-23.44-43-37.13-1.72-1.79-4-3.19-4.68-5.82h346.05c8.35,14.93,20.28,27,31.48,39.69,15,16.88,23.59,35.71,20.24,58.82a203.52,203.52,0,0,1-8.12,33.06,54.57,54.57,0,0,0-.38,33.53c7.77,25.36,22.67,46.07,42.48,63.31,7.11,6.19,15.31,10.73,25.1,11.4Z" transform="translate(-1.37 -1.37)"/><path class="b" d="M1212.7,769.52c.52-21.43,2.49-42.85.09-64.3-1.15-10.31-2.62-20.46-6.92-30.07-3.34-7.47-10.18-11.73-15.15-17.69-16.59-19.87-14.1-44.5,6.26-60.54,18.75-14.78,40.72-22.32,63.59-26.88,33.47-6.69,66-16.75,98.86-25.64,2.65-.72,5.23-2,8.09-1q0,110.42.12,220.83c0,4.53-.91,5.46-5.44,5.44C1312.37,769.44,1262.54,769.52,1212.7,769.52Z" transform="translate(-1.37 -1.37)"/><path class="a" d="M1367.52,241.33c-9.79-.67-18-5.21-25.1-11.4-19.81-17.24-34.71-38-42.48-63.31a54.57,54.57,0,0,1,.38-33.53,203.52,203.52,0,0,0,8.12-33.06c3.35-23.11-5.29-41.94-20.24-58.82-11.2-12.65-23.13-24.76-31.48-39.69,35.16,0,70.32.11,105.48-.13,4.54,0,5.45.92,5.44,5.44Q1367.39,124.09,1367.52,241.33Z" transform="translate(-1.37 -1.37)"/><path class="a" d="M1.52,388.55a98.56,98.56,0,0,1,16.67,32.14q10,33,19.07,66.26c8.87,32.51,1.79,62.05-17.82,88.89C13.84,583.5,9.37,592.14,1.52,598Z" transform="translate(-1.37 -1.37)"/><path class="b" d="M768.71,697.81c-14.58-.66-29.91-2.08-44.85-6.17a66.41,66.41,0,0,1-13.39-5.15c-13.2-7-15.48-19.64-5.67-30.79,9.65-11,22.18-17.42,35.81-21.82,26.07-8.43,52-10.1,77.34,2.67,10.76,5.43,20.45,12.77,20.5,26,.06,13.48-10.28,20-21.07,25.25C802.29,695.06,786.11,697.35,768.71,697.81Z" transform="translate(-1.37 -1.37)"/><path class="b" d="M848.23,530.73c-13.93-2.41-28.82-8.38-42.41-17.48-5.15-3.46-5.28-8.15-2.05-13.21,4.82-7.52,11-13.87,17.6-19.75,9.07-8.08,19.24-13.55,31.76-8.74,12.84,4.94,20.26,14.71,22.62,28.15C878.8,517.07,867.36,531,848.23,530.73Z" transform="translate(-1.37 -1.37)"/><path class="b" d="M750.87,519.31c-2.68-.09-5.44-.23-5.44-3.07,0-3.84,3.42-3.62,6.08-3.58,2,0,5.4-.95,5.45,2C757,518.28,753.55,519,750.87,519.31Z" transform="translate(-1.37 -1.37)"/></svg>