<svg xmlns="http://www.w3.org/2000/svg" viewBox="0 0 1943.07 1093.07"><defs><style>.a{fill:#ffffff;}.b{fill:#41c7f6;}</style></defs><title>1800f_00123</title><path class="a" d="M-286.86,459.89V165.44c1-.05,2-.06,3-.17,53.06-5.93,106-4.24,158.78,3.14C-91,173.18-57.93,183-24.13,189.26c49,9.12,96.7,7.41,144.05-9.67,43.27-15.6,83.77-36.67,124.1-58.32,47.9-25.71,96.7-49.65,145.67-73.24,24.75-11.92,48.75-10.79,72.2,3.81,20.32,12.66,38.71,27.56,54.5,45.57a116.32,116.32,0,0,0,17.37,15.75c24.84,18.85,53.47,19.89,82.61,16.94,50.72-5.12,100.87-15.08,152-17,31.67-1.18,63.36-2.08,93.91,7.65,40.44,12.88,80.53,26.85,120.7,40.55,12.67,4.32,25.27,8.9,37.36,14.75,12.9,6.24,21.12,16.14,24.51,30.06a121.06,121.06,0,0,1,3.09,33.08c-1.42,41.31-2,82.47,14.57,121.68q15.52,36.71,33.92,72c8.09,15.49,17.21,30.36,28.42,43.83,9.94,12,21,22.7,35.47,29,18.12,7.92,33.72,3.64,45.45-12.19,6.45-8.71,9.67-18.83,12.66-29,14.64-50,32.12-99,54.26-146.3,17.48-37.36,32.3-75.8,40.95-116.33,3.69-17.28,6.15-34.85,13-51.33,11.05-26.62,28-46.78,57.8-52.75a224.15,224.15,0,0,1,36.86-4c29.58-1,58.93-3.25,87.59-11.83,23.74-7.11,38.34-1.43,48.61,20.91,18,39.05,30.76,80,29.84,123.48-1,45.37-12.39,88.95-27.08,131.67C1539.51,418.35,1527.32,480,1528.34,544a919.66,919.66,0,0,0,12.56,136.51c3.54,21.27,9.85,41.78,20,61,15,28.58,40.32,44.59,68.92,56.44,8.55,3.54,16.64,8.47,26.12,9.53,0,40-.07,79.94.09,119.9,0,3.8-.85,4.67-4.65,4.66-43-.16-86-.1-129-.1-5.23-6.51-12.78-8.91-20.37-10.53-24.3-5.15-47,.9-69.18,10.53H472c-.52-2.61.6-4.95,1.16-7.4,9.54-41.27,6.07-81.33-11.87-119.81C453.17,787.24,439.23,776.88,420,774c-5.24-.77-10.52-1.37-15.69-2.46-26-5.48-46.93-20.55-67.51-36.2-15.47-11.76-30.38-24.38-48-33-24.33-11.86-40.25-2.31-41.37,24.58,0,.75,0,1.51-.09,2.27-1.09,17.92,2.55,35.17,7.55,52.21,10.1,34.44,23.16,67.89,34.25,102,5.21,16,11.13,31.86,14.45,48.46q-291.93,0-583.86.12c-5.16,0-6.75-.67-6.73-6.45q.34-156.21.17-312.41c5.38-12.28,8.89-25.2,12.41-38.07,6.85-25.06,13.67-50.23,10-76.66C-266.71,482.63-272.86,468.94-286.86,459.89Zm414.19-6.12c-.09-5.46-7-13.56-11.29-13.44-3.85.1-3.65,2.74-3.55,5.3.25,6.29,6.28,14.22,10.64,14C126.92,459.45,127.44,456.81,127.33,453.77Z" transform="translate(287.03 161.03)"/><path class="b" d="M1655.9,807.46c-9.48-1.06-17.57-6-26.12-9.53-28.6-11.85-53.89-27.86-68.92-56.44-10.11-19.23-16.42-39.74-20-61A919.66,919.66,0,0,1,1528.34,544c-1-64,11.17-125.62,31.89-185.85,14.69-42.72,26.12-86.3,27.08-131.67.92-43.51-11.88-84.43-29.84-123.48-10.27-22.34-24.87-28-48.61-20.91-28.66,8.58-58,10.86-87.59,11.83a224.15,224.15,0,0,0-36.86,4c-29.77,6-46.75,26.13-57.8,52.75-6.84,16.48-9.3,34-13,51.33-8.65,40.53-23.47,79-40.95,116.33-22.14,47.31-39.62,96.26-54.26,146.3-3,10.21-6.21,20.33-12.66,29-11.73,15.83-27.33,20.11-45.45,12.19-14.5-6.35-25.53-17.09-35.47-29-11.21-13.47-20.33-28.34-28.42-43.83q-18.45-35.31-33.92-72c-16.58-39.21-16-80.37-14.57-121.68a121.06,121.06,0,0,0-3.09-33.08c-3.39-13.92-11.61-23.82-24.51-30.06-12.09-5.85-24.69-10.43-37.36-14.75-40.17-13.7-80.26-27.67-120.7-40.55-30.55-9.73-62.24-8.83-93.91-7.65-51.11,1.91-101.26,11.87-152,17-29.14,3-57.77,1.91-82.61-16.94a116.32,116.32,0,0,1-17.37-15.75c-15.79-18-34.18-32.91-54.5-45.57-23.45-14.6-47.45-15.73-72.2-3.81-49,23.59-97.77,47.53-145.67,73.24-40.33,21.65-80.83,42.72-124.1,58.32-47.35,17.08-95,18.79-144,9.67C-57.93,183-91,173.18-125,168.41c-52.76-7.38-105.72-9.07-158.78-3.14-1,.11-2,.12-3,.17V-39.46a110.76,110.76,0,0,0,29-12.77c35-22.22,63.6-51.08,87-85.1,4.93-7.17,10-14.57,11.49-23.55H34.91c.27.93.28,2.1.86,2.74C46.3-146.45,57.86-136,72.26-129.26c33.55,15.7,58.11,3.1,73.45-31.62H1255.2c0,1.77-1.39,2.6-2.54,3.53-16.89,13.61-30.91,30-43.26,47.57-28.64,40.75-55.06,83-81.7,125-13.8,21.79-20.84,45.85-23.06,71.46-1.73,19.94,6.13,27.36,25.82,23.53a135.9,135.9,0,0,0,17.5-4.94c15.8-5.36,31.52-10.92,47.28-16.41,21-7.33,41.56-15.81,62.22-24.08,59-23.63,95.71-69.38,123.46-123.87,12.07-23.72,8.21-37.65-13-54-20.81-16-41.74-31.9-62.62-47.84q172.26,0,344.53-.15c5.2,0,6.22,1,6.22,6.22Q1655.8,326.33,1655.9,807.46Z" transform="translate(287.03 161.03)"/><path class="a" d="M1305.29-160.88c20.88,15.94,41.81,31.81,62.62,47.84,21.22,16.34,25.08,30.27,13,54-27.75,54.49-64.43,100.24-123.46,123.87-20.66,8.27-41.21,16.75-62.22,24.08-15.76,5.49-31.48,11-47.28,16.41a135.9,135.9,0,0,1-17.5,4.94c-19.69,3.83-27.55-3.59-25.82-23.53,2.22-25.61,9.26-49.67,23.06-71.46,26.64-42.06,53.06-84.29,81.7-125,12.35-17.57,26.37-34,43.26-47.57,1.15-.93,2.52-1.76,2.54-3.53Z" transform="translate(287.03 161.03)"/><path class="b" d="M303.56,931.92c-3.32-16.6-9.24-32.44-14.45-48.46-11.09-34.1-24.15-67.55-34.25-102-5-17-8.64-34.29-7.55-52.21.05-.76.05-1.52.09-2.27,1.12-26.89,17-36.44,41.37-24.58,17.61,8.58,32.52,21.2,48,33,20.58,15.65,41.5,30.72,67.51,36.2,5.17,1.09,10.45,1.69,15.69,2.46,19.27,2.85,33.21,13.21,41.36,30.68,17.94,38.48,21.41,78.54,11.87,119.81-.56,2.45-1.68,4.79-1.16,7.4Z" transform="translate(287.03 161.03)"/><path class="a" d="M-159.37-160.88c-1.49,9-6.56,16.38-11.49,23.55-23.42,34-52,62.88-87,85.1a110.76,110.76,0,0,1-29,12.77c0-39,.06-77.91-.1-116.87,0-3.79.86-4.67,4.65-4.65C-241.33-160.82-200.35-160.88-159.37-160.88Z" transform="translate(287.03 161.03)"/><path class="a" d="M145.71-160.88c-15.34,34.72-39.9,47.32-73.45,31.62-14.4-6.73-26-17.19-36.49-28.88-.58-.64-.59-1.81-.86-2.74Z" transform="translate(287.03 161.03)"/><path class="b" d="M-286.86,459.89c14,9.05,20.15,22.74,22.37,38.56,3.71,26.43-3.11,51.6-10,76.66-3.52,12.87-7,25.79-12.41,38.07Z" transform="translate(287.03 161.03)"/><path class="b" d="M1432.78,931.92c22.13-9.63,44.88-15.68,69.18-10.53,7.59,1.62,15.14,4,20.37,10.53Z" transform="translate(287.03 161.03)"/><path class="b" d="M127.33,453.77c.11,3-.41,5.68-4.2,5.87-4.36.21-10.39-7.72-10.64-14-.1-2.56-.3-5.2,3.55-5.3C120.32,440.21,127.24,448.31,127.33,453.77Z" transform="translate(287.03 161.03)"/></svg>