<svg xmlns="http://www.w3.org/2000/svg" viewBox="0 0 1943.06 1093.12"><defs><style>.a{fill:#ffffff;}.b{fill:#41c7f6;}</style></defs><title>1800f_00188</title><path class="a" d="M-286.86,836.3V684.52c11.12-7.31,22.13-14.8,33.39-21.9,27.82-17.54,55.39-35.42,81.33-55.7A420.22,420.22,0,0,1-135.67,581c24.79-15.46,50.59-19.35,78.14-8.14,7.71,3.14,15.67,5.69,23.58,8.33,10.46,3.49,19.19.58,26.87-7.12,8.5-8.52,14.66-18.64,21-28.71C41.9,500.62,59.6,452.85,54.31,399c-3-30.46-4.11-61-5.62-91.52-3.16-64.22-24.35-120.45-72.94-164.62-9.54-8.67-18.5-18-27.52-27.2-10.54-10.78-13.75-22.53-6.82-37.16C-40.45,40.26-11.47,15.16,29.58,4.86,44.48,1.13,59.94-.36,75.14-2.89c48-7.95,94.19-21.24,136.78-45.27,41.21-23.24,75.87-54.5,107.49-89.32,6.75-7.44,14.13-14.44,19-23.4h751.3a118.49,118.49,0,0,1,38,49.05c5.87,13.72,13.25,26.71,20.71,39.63,23.56,40.77,54.43,73.22,100,89.65,11.38,4.11,21.79,10.62,31.89,17.42,26.77,18.06,48.08,41.7,67.45,67.1,48,63,98.9,123.51,157,177.69,23.5,21.92,48,42.6,72,63.93,19.59,17.43,28.09,39.38,26.87,64.91-2.15,44.93-11.58,88.2-34,127.73-43.49,76.54-95.45,146.54-161.38,205.44-38.26,34.19-81.58,59.5-131.53,72.65-15.67,4.12-31.47,6.86-47.83,7.07-24.17.31-43.71,12.82-62.76,26-21.64,14.94-43,30.52-67.56,40.36-42,16.78-85.84,24.68-130.95,25.57-43.7.85-87.51-.88-131,5-20.24,2.72-40.47,5.8-59.57,13.66H94.1c.76-12.43-.62-24.74-2.22-37-5.15-39.46-22.44-73.63-46.47-104.73C34,775.38,22.31,760.73,8.25,748.26c-12.72-11.29-21.5-11.8-35.32-2.09-11.61,8.15-21.78,18-32.11,27.69-14.64,13.68-26.1,29.25-31,49.31-3,12.27-8.5,23.77-14.68,34.84-5.83,10.42-12.65,20.2-21.88,27.87-23.62,19.59-47.14,20.14-77,2.58-19.84-11.68-38.25-25.52-57.67-37.8C-269.58,845.45-277.19,839-286.86,836.3Z" transform="translate(287.02 161.06)"/><path class="b" d="M338.46-160.88c-4.92,9-12.3,16-19,23.4-31.62,34.82-66.28,66.08-107.49,89.32-42.59,24-88.83,37.32-136.78,45.27-15.2,2.53-30.66,4-45.56,7.75-41,10.3-70,35.4-88.17,73.67-6.93,14.63-3.72,26.38,6.82,37.16,9,9.22,18,18.53,27.52,27.2,48.59,44.17,69.78,100.4,72.94,164.62C50.2,338,51.32,368.57,54.31,399,59.6,452.85,41.9,500.62,13.88,545.39c-6.3,10.07-12.46,20.19-21,28.71-7.68,7.7-16.41,10.61-26.87,7.12-7.91-2.64-15.87-5.19-23.58-8.33-27.55-11.21-53.35-7.32-78.14,8.14a420.22,420.22,0,0,0-36.47,25.89c-25.94,20.28-53.51,38.16-81.33,55.7-11.26,7.1-22.27,14.59-33.39,21.9q0-419.07-.16-838.14c0-6,1-7.45,7.31-7.44Q29.38-160.74,338.46-160.88Z" transform="translate(287.02 161.06)"/><path class="b" d="M777.1,931.92c19.1-7.86,39.33-10.94,59.57-13.66,43.49-5.85,87.3-4.12,131-5,45.11-.89,88.95-8.79,130.95-25.57,24.61-9.84,45.92-25.42,67.56-40.36,19-13.15,38.59-25.66,62.76-26,16.36-.21,32.16-2.95,47.83-7.07,50-13.15,93.27-38.46,131.53-72.65,65.93-58.9,117.89-128.9,161.38-205.44,22.45-39.53,31.88-82.8,34-127.73,1.22-25.53-7.28-47.48-26.87-64.91-24-21.33-48.54-42-72-63.93-58.08-54.18-108.93-114.66-157-177.69-19.37-25.4-40.68-49-67.45-67.1-10.1-6.8-20.51-13.31-31.89-17.42C1203,1,1172.08-31.43,1148.52-72.2c-7.46-12.92-14.84-25.91-20.71-39.63a118.49,118.49,0,0,0-38-49h343c-2.17,11.08-5.55,21.91-3.87,33.56,2.4,16.67,9,31.52,18.1,45.4,27.17,41.48,63.32,74.1,103.36,102.49,33.28,23.6,70.68,40.34,105.53,61.39q0,421.56.14,843.13c0,5.69-1.28,7-7,7Q1213.08,931.82,777.1,931.92Z" transform="translate(287.02 161.06)"/><path class="b" d="M-286.86,836.3c9.67,2.7,17.28,9.15,25.52,14.36,19.42,12.28,37.83,26.12,57.67,37.8,29.83,17.56,53.35,17,77-2.58,9.23-7.67,16-17.45,21.88-27.87,6.18-11.07,11.71-22.57,14.68-34.84,4.86-20.06,16.32-35.63,31-49.31,10.33-9.65,20.5-19.54,32.11-27.69,13.82-9.71,22.6-9.2,35.32,2.09C22.31,760.73,34,775.38,45.41,790.18c24,31.1,41.32,65.27,46.47,104.73,1.6,12.27,3,24.58,2.22,37q-187.44,0-374.89.14c-5.2,0-6.28-1-6.22-6.22C-286.7,896-286.86,866.15-286.86,836.3Z" transform="translate(287.02 161.06)"/><path class="a" d="M1655.9,82c-34.85-21-72.25-37.79-105.53-61.39-40-28.39-76.19-61-103.36-102.49-9.09-13.88-15.7-28.73-18.1-45.4-1.68-11.65,1.7-22.48,3.87-33.56q108.9,0,217.8-.13c4.53,0,5.45.91,5.44,5.44Q1655.77-36.8,1655.9,82Z" transform="translate(287.02 161.06)"/></svg>