<svg xmlns="http://www.w3.org/2000/svg" viewBox="0 0 1366.3 768.26"><defs><style>.a{fill:#ffffff;}.b{fill:#41c7f6;}</style></defs><title>1800f_00066</title><path class="a" d="M1367.52,473.55v75.89a74.85,74.85,0,0,0-7.36,1.47c-39.16,11.78-78,24.58-118.68,30.77-20.38,3.1-39.16,11.74-54,27.16-18.31,19.06-14.37,43.33,9.51,54.68,10.55,5,16.54,12.85,19.12,23.81,6.4,27.21,5,54.69,2.65,82.19H141.15c-1.19-1.72-3.13-1.34-4.8-1.73-9.61-2.21-19.38-4-28.1-8.86-9.51-5.32-10.42-11.69-2.87-19.38,4.65-4.73,10.37-8,16.17-11.17,17.45-9.5,36.49-14.85,55.19-21,31.8-10.52,62.75-22.66,90-42.75,51.42-37.84,82.72-86.23,82.81-152.23,0-30.05,2.9-60.05,6.5-89.94,1.42-11.79,1.27-23.78-2.32-35.35-4.82-15.51-15.16-20.69-30.43-15.51-7.52,2.55-14.14,6.75-20.47,11.38-19.62,14.34-38.85,29.12-55.51,47a85.36,85.36,0,0,1-17.31,14.68c-9.48,5.85-19.69,4.63-27.77-2.87a57.49,57.49,0,0,1-14.38-21.11c-7.39-18.39-8.16-37.22-5.14-56.6,3.25-20.83,11.1-40.42,15.58-60.92,6.88-31.56,1.91-60.23-19-85.51-4.83-5.85-9.85-11.58-14.19-17.78-25-35.86-50-71.81-76-107a46.86,46.86,0,0,1-7.45-14c-2.32-7.47,0-12.27,7.36-14.82a34.43,34.43,0,0,1,11.19-1.71c14-.1,27.71,2.3,41.24,5.49,16,3.78,32,7.83,48.54,7.81,58-.08,99.39-30.38,133.25-74.07H915.22c10.22,11.27,22,20.86,33.67,30.47,53.31,43.78,102.2,91.56,141.89,148.55,38.14,54.76,70.08,112.15,86.14,177.49a215.27,215.27,0,0,0,19.79,51.5c11.35,20.89,26.67,36.59,51.23,41.15,24.82,4.6,49.5,9.89,74.34,14.38C1337.38,467.79,1352.15,472.26,1367.52,473.55ZM760.74,701.35c9.1.12,18.19-.07,27.17-1.79,14.21-2.72,28.14-6.29,40.18-14.82,14.5-10.27,15.35-24.89,2.35-37.06a43.4,43.4,0,0,0-16.22-9.54c-39.42-12.9-75.74-5.63-109,18-7.76,5.51-13.94,13.42-11.85,23.78,2.16,10.69,11.7,13.91,20.85,16.36C729.4,700.39,745.07,701.06,760.74,701.35Zm87.84-212.22c-8.63.09-17,8.47-17.13,17.07-.09,7.21,10.76,15.31,20.06,15,7.69-.26,13.25-6.47,13.17-14.7C864.59,496.46,857.72,489,848.58,489.13Z" transform="translate(-1.34 -1.39)"/><path class="b" d="M323.29,1.52C289.43,45.21,248,75.51,190,75.59c-16.51,0-32.53-4-48.54-7.81-13.53-3.19-27.23-5.59-41.24-5.49A34.43,34.43,0,0,0,89.07,64c-7.35,2.55-9.68,7.35-7.36,14.82a46.86,46.86,0,0,0,7.45,14c26,35.17,51,71.12,76,107,4.34,6.2,9.36,11.93,14.19,17.78,20.9,25.28,25.87,54,19,85.51C193.86,323.6,186,343.19,182.76,364c-3,19.38-2.25,38.21,5.14,56.6a57.49,57.49,0,0,0,14.38,21.11c8.08,7.5,18.29,8.72,27.77,2.87a85.36,85.36,0,0,0,17.31-14.68c16.66-17.86,35.89-32.64,55.51-47,6.33-4.63,12.95-8.83,20.47-11.38,15.27-5.18,25.61,0,30.43,15.51,3.59,11.57,3.74,23.56,2.32,35.35-3.6,29.89-6.46,59.89-6.5,89.94-.09,66-31.39,114.39-82.81,152.23-27.29,20.09-58.24,32.23-90,42.75-18.7,6.19-37.74,11.54-55.19,21-5.8,3.15-11.52,6.44-16.17,11.17-7.55,7.69-6.64,14.06,2.87,19.38,8.72,4.88,18.49,6.65,28.1,8.86,1.67.39,3.61,0,4.8,1.73-44.91,0-89.83-.08-134.74.12-4.27,0-5-.95-5-5.08.18-53.49.12-107,.12-160.48,11.65-11.23,21-24.32,30.62-37.25,18.63-25.14,22.32-52.35,11.76-81.65-8-22.31-15.9-44.68-24.26-66.87C15.36,407,9.66,396.24,1.52,387V235.26c9.82-16.7,10-33.39,0-50.09,0-59.1.11-118.21-.18-177.31,0-5.76,1.54-6.47,6.72-6.47Q165.68,1.65,323.29,1.52Z" transform="translate(-1.34 -1.39)"/><path class="b" d="M1367.52,473.55c-15.37-1.29-30.14-5.76-45.24-8.49-24.84-4.49-49.52-9.78-74.34-14.38-24.56-4.56-39.88-20.26-51.23-41.15a215.27,215.27,0,0,1-19.79-51.5c-16.06-65.34-48-122.73-86.14-177.49-39.69-57-88.58-104.77-141.89-148.55-11.7-9.61-23.45-19.2-33.67-30.47h343c6.93,13.71,17.57,24.56,27.55,35.94,12.87,14.66,25.65,29.36,27.93,50,2,18-3.48,34.44-9.88,50.67-3,7.62-3.87,15.1-1.6,22.9,7.67,26.37,24.08,46.88,44.06,64.84,6.12,5.5,12.46,11.17,21.22,12.41Z" transform="translate(-1.34 -1.39)"/><path class="b" d="M1218.78,769.52c2.35-27.5,3.75-55-2.65-82.19-2.58-11-8.57-18.79-19.12-23.81-23.88-11.35-27.82-35.62-9.51-54.68,14.82-15.42,33.6-24.06,54-27.16,40.71-6.19,79.52-19,118.68-30.77a74.85,74.85,0,0,1,7.36-1.47q0,107.38.12,214.76c0,4.53-.91,5.46-5.44,5.44C1314.4,769.44,1266.59,769.52,1218.78,769.52Z" transform="translate(-1.34 -1.39)"/><path class="a" d="M1367.52,238.29c-8.76-1.24-15.1-6.91-21.22-12.41-20-18-36.39-38.47-44.06-64.84-2.27-7.8-1.41-15.28,1.6-22.9,6.4-16.23,11.86-32.71,9.88-50.67-2.28-20.65-15.06-35.35-27.93-50-10-11.38-20.62-22.23-27.55-35.94,34.65,0,69.31.11,104-.13,4.54,0,5.45.92,5.44,5.44Q1367.39,122.57,1367.52,238.29Z" transform="translate(-1.34 -1.39)"/><path class="a" d="M1.52,387c8.14,9.2,13.84,19.92,18.12,31.27C28,440.5,35.86,462.87,43.9,485.18c10.56,29.3,6.87,56.51-11.76,81.65-9.59,12.93-19,26-30.62,37.25Z" transform="translate(-1.34 -1.39)"/><path class="a" d="M1.52,185.17c10,16.7,9.82,33.39,0,50.09Z" transform="translate(-1.34 -1.39)"/><path class="b" d="M760.74,701.35c-15.67-.29-31.34-1-46.56-5.05-9.15-2.45-18.69-5.67-20.85-16.36-2.09-10.36,4.09-18.27,11.85-23.78,33.3-23.65,69.62-30.92,109-18a43.4,43.4,0,0,1,16.22,9.54c13,12.17,12.15,26.79-2.35,37.06-12,8.53-26,12.1-40.18,14.82C778.93,701.28,769.84,701.47,760.74,701.35Z" transform="translate(-1.34 -1.39)"/><path class="b" d="M848.58,489.13c9.14-.09,16,7.33,16.1,17.38.08,8.23-5.48,14.44-13.17,14.7-9.3.3-20.15-7.8-20.06-15C831.54,497.6,840,489.22,848.58,489.13Z" transform="translate(-1.34 -1.39)"/></svg>