<svg xmlns="http://www.w3.org/2000/svg" viewBox="0 0 1943.05 1093.09"><defs><style>.a{fill:#ffffff;}.b{fill:#41c7f6;}</style></defs><title>1800f_00375</title><path class="a" d="M924.33,931.92H256.5c-11.94-22.94-27.92-42.51-49.61-56.79-11-7.26-23.07-12.36-36.92-11.28-10.05.79-16.29,7-16.31,17,0,7.74,2.39,14.9,5.77,21.7,4.89,9.86,10.06,19.57,15.11,29.35H-12.14c2.15-2.85,1.62-6.25,2-9.46,1.83-17.06,3.77-34.11,5.48-51.18,1.89-18.89,10.08-35.84,16-53.51,12.06-36,2.65-67.33-26.48-91.47-15.2-12.59-32.78-20.78-50.48-28.78-28.56-12.89-57.52-25.14-81.92-45.36-42.62-35.3-89.57-63.6-139.29-87.54V113.84c6.27-1.68,10.77-6.32,16-9.7C-216.74,69.16-162.09,35-110-3.13A195.2,195.2,0,0,1-36-36.86c15.57-3.4,31.32-5.59,47.05-8,44.61-6.78,89.08-6.94,133.41,2.31C190.05-33,232.76-15.37,274.8,4,302.47,16.78,324,36.22,338,63.82a107.72,107.72,0,0,0,23.21,30.76c54.45,49.81,116.88,75,191.65,60.5,42-8.14,81.38-22.44,113.57-52.05C678,92.42,689,81.28,700.23,70.32c30.68-30,64.43-54.24,108-62.15,15-2.72,28.56-10.24,39.86-20.87,22.4-21.06,27.55-47.55,22.29-76.47-4.33-23.79-11.92-47.18-5.28-71.71h288.38c1.57,2.23,4.13,2.82,6.43,3.78a250.32,250.32,0,0,0,83.13,19c48,2.75,96,3.35,143.88,7.72,33,3,65.79,7.44,98,15.22,22.7,5.48,41.58,16.52,54.17,37.1,17.1,28,23.24,58.42,21.76,90.74-1.32,28.72-7.37,56.65-15.49,84.07-22.76,76.84-45.76,153.52-56.12,233.41-4.41,34-14.18,66.87-30.84,97.1-21.5,39-53.35,69-87.25,96.94-33.63,27.73-69.87,30.82-109.07,12.32-36.57-17.27-70.94-37.87-102-63.8-21-17.53-38.77-37.64-48.39-64-14.36-39.33-16.44-79.91-13.66-121.15,1.62-23.93,4.31-47.88.8-71.89-2.08-14.25-6.3-27.71-15.64-38.91-12.6-15.1-32.33-18.15-54.91-7.83-47.67,21.78-72.74,59.7-76.59,111.44-3.13,42,1.25,83.81,6.53,125.49,6.38,50.37,26.64,95.62,50.8,139.51,19.79,35.93,44.72,68.66,64.69,104.46,15.74,28.22,37.5,50.64,64.6,68.11A151.65,151.65,0,0,1,1161.8,736c11.34,11,15.39,24.12,11.78,39.42-6,25.49-17.48,48.4-33.36,69.14s-37.22,32.2-62.91,35.75a543.87,543.87,0,0,1-59.69,4.71C979.31,886.11,949.14,903.78,924.33,931.92ZM467.09,342.21a10.63,10.63,0,0,0,10.61-6.47c2.35-5.22.51-9.79-3-13.79-5.49-6.21-12.72-7.62-20.54-7.08-8.9.61-13.21,8.67-8.34,16.1C450.47,338.09,457.18,342.15,467.09,342.21Z" transform="translate(287.01 161.03)"/><path class="b" d="M924.33,931.92c24.81-28.14,55-45.81,93.29-46.86a543.87,543.87,0,0,0,59.69-4.71c25.69-3.55,47-15,62.91-35.75s27.36-43.65,33.36-69.14c3.61-15.3-.44-28.47-11.78-39.42A151.65,151.65,0,0,0,1138.43,718c-27.1-17.47-48.86-39.89-64.6-68.11-20-35.8-44.9-68.53-64.69-104.46-24.16-43.89-44.42-89.14-50.8-139.51-5.28-41.68-9.66-83.46-6.53-125.49,3.85-51.74,28.92-89.66,76.59-111.44,22.58-10.32,42.31-7.27,54.91,7.83,9.34,11.2,13.56,24.66,15.64,38.91,3.51,24,.82,48-.8,71.89-2.78,41.24-.7,81.82,13.66,121.15,9.62,26.35,27.42,46.46,48.39,64,31,25.93,65.39,46.53,102,63.8,39.2,18.5,75.44,15.41,109.07-12.32,33.9-28,65.75-57.93,87.25-96.94,16.66-30.23,26.43-63.14,30.84-97.1,10.36-79.89,33.36-156.57,56.12-233.41,8.12-27.42,14.17-55.35,15.49-84.07,1.48-32.32-4.66-62.78-21.76-90.74-12.59-20.58-31.47-31.62-54.17-37.1-32.26-7.78-65-12.21-98-15.22-47.87-4.37-95.93-5-143.88-7.72a250.32,250.32,0,0,1-83.13-19c-2.3-1-4.86-1.55-6.43-3.78q248.16,0,496.31-.15c5.2,0,6.23,1,6.22,6.22q-.26,274.71-.14,549.43a352.86,352.86,0,0,0-66.74,117.06c-12,35.23-8.85,70.67-2.2,106.26,9.87,52.76,15.29,105.94,14.36,159.67-.39,22.76-8,42.54-25.63,57.7-9.67,8.31-20.86,14.14-32.48,19.22-17.15,7.49-35.57,11.67-52.35,20-24.77,12.31-45.48,28.46-52,57.38Z" transform="translate(287.01 161.03)"/><path class="b" d="M865.13-160.88c-6.64,24.53,1,47.92,5.28,71.71,5.26,28.92.11,55.41-22.29,76.47C836.82-2.07,823.26,5.45,808.26,8.17c-43.6,7.91-77.35,32.18-108,62.15C689,81.28,678,92.42,666.44,103c-32.19,29.61-71.53,43.91-113.57,52.05-74.77,14.48-137.2-10.69-191.65-60.5A107.72,107.72,0,0,1,338,63.82c-14-27.6-35.54-47-63.21-59.8-42-19.39-84.75-37-130.35-46.55C100.12-51.78,55.65-51.62,11-44.84c-15.73,2.39-31.48,4.58-47,8A195.2,195.2,0,0,0-110-3.13C-162.09,35-216.74,69.16-270.86,104.14c-5.23,3.38-9.73,8-16,9.7q0-134-.15-267.89c0-5.69,1.29-7,7-7Q292.55-160.8,865.13-160.88Z" transform="translate(287.01 161.03)"/><path class="b" d="M-286.86,564.62c49.72,23.94,96.67,52.24,139.29,87.54,24.4,20.22,53.36,32.47,81.92,45.36,17.7,8,35.28,16.19,50.48,28.78C14,750.44,23.37,781.76,11.31,817.77c-5.92,17.67-14.11,34.62-16,53.51-1.71,17.07-3.65,34.12-5.48,51.18-.35,3.21.18,6.61-2,9.46H-220.08c-5.8-26.5-14.26-51.93-30.61-74C-261,844-272,830.62-286.86,821.12Z" transform="translate(287.01 161.03)"/><path class="a" d="M1438.85,931.92c6.53-28.92,27.24-45.07,52-57.38,16.78-8.34,35.2-12.52,52.35-20,11.62-5.08,22.81-10.91,32.48-19.22,17.65-15.16,25.24-34.94,25.63-57.7.93-53.73-4.49-106.91-14.36-159.67-6.65-35.59-9.79-71,2.2-106.26a352.86,352.86,0,0,1,66.74-117.06q0,265.62.14,531.23c0,5.19-1,6.23-6.22,6.22C1579.5,931.85,1509.18,931.92,1438.85,931.92Z" transform="translate(287.01 161.03)"/><path class="a" d="M-286.86,821.12C-272,830.62-261,844-250.69,857.89c16.35,22.1,24.81,47.53,30.61,74-20.74,0-41.48-.11-62.23.1-3.8,0-4.67-.86-4.65-4.66C-286.79,892-286.86,856.53-286.86,821.12Z" transform="translate(287.01 161.03)"/><path class="b" d="M174.54,931.92c-5-9.78-10.22-19.49-15.11-29.35-3.38-6.8-5.79-14-5.77-21.7,0-10,6.26-16.23,16.31-17,13.85-1.08,25.91,4,36.92,11.28,21.69,14.28,37.67,33.85,49.61,56.79Z" transform="translate(287.01 161.03)"/><path class="b" d="M467.09,342.21c-9.91-.06-16.62-4.12-21.29-11.24-4.87-7.43-.56-15.49,8.34-16.1,7.82-.54,15.05.87,20.54,7.08,3.53,4,5.37,8.57,3,13.79A10.63,10.63,0,0,1,467.09,342.21Z" transform="translate(287.01 161.03)"/></svg>