<svg xmlns="http://www.w3.org/2000/svg" viewBox="0 0 1943.56 1093.56"><defs><style>.a{fill:#ffffff;}.b{fill:#41c7f6;}</style></defs><title>1800f_00100</title><path class="a" d="M575.24,931.92H206.42c17.46-9,35.37-17.23,51.5-28.7,43.66-31,77.16-69.54,91.64-122.46,12.39-45.32,8.38-90.12-3.51-134.73-4.12-15.43-9.34-30.49-18.56-43.75-5.44-7.82-11.6-8.15-18.22-1.45-5.59,5.66-8.85,12.86-12.9,19.54-4.45,7.33-8.37,15-14.26,21.38C265.35,659.86,253,662.57,230,653.12c-18.78-7.72-35.62-19.11-53.59-28.36-35.13-18.09-66.9-40.67-94-69.53C64.22,536,51.5,514,49,487.08c-1.57-16.87-2.2-33.78-2.17-50.73.06-37.43-1.79-74.74-7.48-111.79-8-51.71-25.29-99.83-55.59-142.76-12-17.05-26.38-32-45.34-41.69-12.88-6.59-25.07-5.63-36.93,3-16.31,11.88-22.77,32.49-16,55,3.7,12.33,8.09,24.48,12.75,36.48,22.46,57.84,35,117.49,33.75,179.77-.76,39.14,4.88,77.5,13.39,115.64,9.85,44.1,30.71,81.22,64.72,111.36,17,15.05,33.41,30.89,47.13,49.24,32.21,43.09,27.48,85-10.75,121.08-15.86,15-35.6,22.82-56.57,27.64-26.57,6.09-51.78,15.49-75,29.95C-106.49,882.69-128,896-149.17,909.75c-10.73,7-22.07,13.22-31.45,22.17H-286.86V59.2a336,336,0,0,1,76.39-2c29.42,2.48,57.55,11,85.72,19,24.32,6.9,48,7.5,72.33-.08A576.15,576.15,0,0,1,24.93,57.63c35.89-5.94,71.78-11.91,106.65-22.77C197.46,14.35,254.87-20.52,305.78-66.7c14.41-13.07,28.23-26.89,44.28-38,19.17-13.3,34.53-13.37,54.11-.72A104.78,104.78,0,0,1,440.61-65.6c8.68,16.46,22.34,25.82,41,27.35a145,145,0,0,0,25-.34c14.85-1.34,29.7-2.78,44.58-3.59,32.07-1.74,64.14-2.42,96.26-.77,31,1.59,62.11,1.92,93.11,3.87C789.2-36,837.44-29.17,885.29-19.79q46.89,9.19,94.24,15.35c19.32,2.53,24.77,7.5,28.65,26.61,2,9.63,2.8,19.49,4.1,29.25,4.17,31.08,8.59,62.1,19.65,91.71,8,21.48,21.13,37.5,45,41.37a99.29,99.29,0,0,0,34-.12c43.76-8.15,71.73-37,80.45-82.83,2.9-15.25,7.41-29.9,15-43.55,14.15-25.51,35.61-39.34,64.93-37.84,33,1.68,64.69,11.19,90.91,30.54,40.06,29.56,63,71.69,74.88,119.74,7.33,29.71,7.13,60.26,7.1,90.52-.06,77.71,12.1,153.54,32.62,228.21,13.52,49.22,37,92.84,74.28,128.37,22.87,21.77,49.35,38.6,75.84,55.38,9.32,5.91,18.33,12.52,29,16.15v129c-29.32,7.72-56.82,19.51-81.76,36.85-14.67,10.19-27.53,22.15-35.55,38.59-5.94,12.19-6.38,25.3-7.15,38.4h-204.9c7.28-9.67,17.14-17,24.28-26.82,8.74-12.05,18.5-23.5,23-38.05,4.21-13.76-1-22.75-14.93-26.15a36.45,36.45,0,0,0-9.7-1.31c-39.72,1.4-69.31,20.74-91.31,52.67-8.68,12.6-10,26.18-1.12,39.66h-204.9c.68-3.65-2-5.52-4.13-7.59-12.7-12.59-28.52-19.91-44.93-26-48.43-18.07-99-19.37-149.66-17.24-65.52,2.75-130.16,13.17-194.26,26.79C630.43,913.88,602.73,922.58,575.24,931.92Z" transform="translate(287.01 161.54)"/><path class="b" d="M1655.9,689.07c-10.62-3.63-19.63-10.24-29-16.15-26.49-16.78-53-33.61-75.84-55.38-37.33-35.53-60.76-79.15-74.28-128.37-20.52-74.67-32.68-150.5-32.62-228.21,0-30.26.23-60.81-7.1-90.52-11.84-48-34.82-90.18-74.88-119.74-26.22-19.35-58-28.86-90.91-30.54-29.32-1.5-50.78,12.33-64.93,37.84-7.56,13.65-12.07,28.3-15,43.55-8.72,45.8-36.69,74.68-80.45,82.83a99.29,99.29,0,0,1-34,.12c-23.91-3.87-37-19.89-45-41.37-11.06-29.61-15.48-60.63-19.65-91.71-1.3-9.76-2.14-19.62-4.1-29.25-3.88-19.11-9.33-24.08-28.65-26.61q-47.37-6.21-94.24-15.35C837.44-29.17,789.2-36,740.53-39.08c-31-2-62.09-2.28-93.11-3.87-32.12-1.65-64.19-1-96.26.77-14.88.81-29.73,2.25-44.58,3.59a145,145,0,0,1-25,.34c-18.63-1.53-32.29-10.89-41-27.35a104.78,104.78,0,0,0-36.44-39.84c-19.58-12.65-34.94-12.58-54.11.72-16.05,11.13-29.87,25-44.28,38C254.87-20.52,197.46,14.35,131.58,34.86,96.71,45.72,60.82,51.69,24.93,57.63A576.15,576.15,0,0,0-52.42,76.15c-24.32,7.58-48,7-72.33.08-28.17-8-56.3-16.51-85.72-19a336,336,0,0,0-76.39,2c0-71.09.08-142.17-.15-213.25,0-5.7,1.29-7,7-7q676.55.22,1353.1.14c-5,7.8-13.14,12.24-19.71,18.36-18.55,17.26-36.56,34.89-47.95,58.05-10.62,21.58-9.11,42.4,3.69,62.6a17.39,17.39,0,0,0,12,8.27c12,2.29,23.7.75,35-3.24,23.41-8.28,42.39-23.33,59.35-40.91,28-29,43.36-64.68,53.2-103.13h473.55c-1.24,8.44-2.79,16.84-3.66,25.32-3.2,31.23,0,61.27,17.32,88.51Z" transform="translate(287.01 161.54)"/><path class="b" d="M-180.62,931.92c9.38-8.95,20.72-15.18,31.45-22.17C-128,896-106.49,882.69-85,869.31c23.19-14.46,48.4-23.86,75-29.95,21-4.82,40.71-12.67,56.57-27.64,38.23-36.12,43-78,10.75-121.08-13.72-18.35-30.15-34.19-47.13-49.24-34-30.14-54.87-67.26-64.72-111.36C-63.12,491.9-68.76,453.54-68,414.4c1.21-62.28-11.29-121.93-33.75-179.77-4.66-12-9-24.15-12.75-36.48-6.78-22.55-.32-43.16,16-55,11.86-8.63,24.05-9.59,36.93-3,19,9.69,33.31,24.64,45.34,41.69,30.3,42.93,47.64,91.05,55.59,142.76,5.69,37.05,7.54,74.36,7.48,111.79,0,16.95.6,33.86,2.17,50.73C51.5,514,64.22,536,82.34,555.23c27.14,28.86,58.91,51.44,94,69.53,18,9.25,34.81,20.64,53.59,28.36,23,9.45,35.38,6.74,52.14-11.37,5.89-6.36,9.81-14,14.26-21.38,4.05-6.68,7.31-13.88,12.9-19.54,6.62-6.7,12.78-6.37,18.22,1.45,9.22,13.26,14.44,28.32,18.56,43.75,11.89,44.61,15.9,89.41,3.51,134.73-14.48,52.92-48,91.42-91.64,122.46-16.13,11.47-34,19.66-51.5,28.7Z" transform="translate(287.01 161.54)"/><path class="b" d="M575.24,931.92c27.49-9.34,55.19-18,83.6-24.08,64.1-13.62,128.74-24,194.26-26.79,50.61-2.13,101.23-.83,149.66,17.24,16.41,6.13,32.23,13.45,44.93,26,2.09,2.07,4.81,3.94,4.13,7.59Z" transform="translate(287.01 161.54)"/><path class="a" d="M1168.69-160.88c-9.84,38.45-25.21,74.14-53.2,103.13-17,17.58-35.94,32.63-59.35,40.91-11.29,4-23,5.53-35,3.24a17.39,17.39,0,0,1-12-8.27c-12.8-20.2-14.31-41-3.69-62.6,11.39-23.16,29.4-40.79,47.95-58.05,6.57-6.12,14.71-10.56,19.71-18.36Z" transform="translate(287.01 161.54)"/><path class="b" d="M1531.44,931.92c.77-13.1,1.21-26.21,7.15-38.4,8-16.44,20.88-28.4,35.55-38.59,24.94-17.34,52.44-29.13,81.76-36.85,0,36.43-.07,72.86.1,109.28,0,3.8-.86,4.67-4.66,4.66C1611.37,931.86,1571.41,931.92,1531.44,931.92Z" transform="translate(287.01 161.54)"/><path class="b" d="M1256.72,931.92c-8.93-13.48-7.56-27.06,1.12-39.66,22-31.93,51.59-51.27,91.31-52.67a36.45,36.45,0,0,1,9.7,1.31c13.88,3.4,19.14,12.39,14.93,26.15-4.46,14.55-14.22,26-23,38.05-7.14,9.84-17,17.15-24.28,26.82Z" transform="translate(287.01 161.54)"/><path class="a" d="M1655.9-47c-17.34-27.24-20.52-57.28-17.32-88.51.87-8.48,2.42-16.88,3.66-25.32,4.55,0,10.88-1.78,13.16.5s.5,8.6.5,13.16Z" transform="translate(287.01 161.54)"/></svg>