<svg xmlns="http://www.w3.org/2000/svg" viewBox="0 0 1943.14 1093.09"><defs><style>.a{fill:#ffffff;}.b{fill:#41c7f6;}</style></defs><title>1800f_00200</title><path class="a" d="M1332.61,931.92q-806.32,0-1612.64.14c-5.69,0-7.17-1.26-7-7,.48-14.4.16-28.83.16-43.25a13.12,13.12,0,0,0,1.56-2.52c12.74-37,34.65-67.69,63.37-93.93,16.6-15.17,33.38-30.19,47.88-47.52,21.87-26.14,38.81-54.88,46.39-88.43,4.89-21.67-3.23-29.49-25.06-25.29-19.7,3.79-38.41,10.89-57.34,17.1-23.86,7.84-46.23,5.63-68-6.54-2.68-1.5-5.09-4.39-8.83-3.3V259.54c2.86,1.27,3.4,4.25,4.76,6.58,17.33,29.75,37.93,56.83,65.53,77.81,18.11,13.75,37,26.48,55.32,40a247.17,247.17,0,0,1,37.6,34c21.1,23.53,27.81,52.08,29.58,82.5,1.2,20.71-.48,41.41.18,62.1.57,18,4.65,24,23.28,23.56,20-.52,39.85-2.19,59.85-2,16.46.17,31.27,4.81,45.43,12.69C53.07,607,68.9,621,86.74,632c14.59,9,23.5,6,30.44-9.75,4.75-10.75,7.21-22,8.89-33.58a788.91,788.91,0,0,0,8.36-90.51c1.32-44.77.84-89.47-8.41-133.6-9.42-45-33.75-78.94-74.73-100.46-10.29-5.4-20.69-10.62-31-16-16.38-8.49-30.92-19.31-41.41-34.73-9.65-14.19-8.46-28,2.87-40.93a70.74,70.74,0,0,1,16.9-13.94C21.13,145.06,46,138.41,71.47,133.89c16.89-3,34.14-4,51-7.2,21.25-4,40.53-14,60.52-21.81C230.92,86.13,277.43,64.46,318.52,33,381.91-15.55,432.68-75.49,474.6-143.14c3.53-5.69,8.37-10.76,9.57-17.74h273.2c7,13.77,8.2,28.24,6.36,43.45-1.27,10.5-1.68,21.24.33,31.76,5.47,28.61,25.62,41.61,51.76,47.72,36.44,8.53,73,5.14,109.25-.77,46.43-7.56,92.79-10.49,139.64-4.29,21.29,2.82,42.16,1.23,62-9.14,16.76-8.76,34.19-16.18,53.46-18.45,27.46-3.22,48.63,11.09,54,38.09,4.19,21.15,9.31,41.93,18.65,61.49,18.13,38,32.86,77.13,42.81,118.12,5.66,23.28,16.83,43.85,35.19,59.91,12.09,10.58,26,18.26,40.2,25.59,27.44,14.19,54.42,29.13,77.78,49.71q73.18,64.5,152,122c17.69,13,35.47,25.86,55.12,35.85V637.47a25.74,25.74,0,0,0-2.32,2.91c-23.65,39.2-49.06,77.26-74.94,115-24.26,35.36-50.83,68.69-85.79,94.42-33.17,24.41-69.16,42.35-110.77,45.33C1357,896.93,1341.36,909.25,1332.61,931.92ZM1136.24,36c.1-12.19-10.47-23.19-22.27-23.16-12.44,0-23.34,13.77-23.46,29.59-.09,11.9,6.6,19.15,17.64,19.11C1122.28,61.46,1136.12,48.88,1136.24,36Z" transform="translate(287.03 161.02)"/><path class="b" d="M484.17-160.88c-1.2,7-6,12-9.57,17.74C432.68-75.49,381.91-15.55,318.52,33,277.43,64.46,230.92,86.13,183,104.88c-20,7.81-39.27,17.81-60.52,21.81-16.84,3.18-34.09,4.2-51,7.2C46,138.41,21.13,145.06-1.36,158.54a70.74,70.74,0,0,0-16.9,13.94c-11.33,12.9-12.52,26.74-2.87,40.93,10.49,15.42,25,26.24,41.41,34.73,10.32,5.36,20.72,10.58,31,16,41,21.52,65.31,55.46,74.73,100.46,9.25,44.13,9.73,88.83,8.41,133.6a788.91,788.91,0,0,1-8.36,90.51c-1.68,11.53-4.14,22.83-8.89,33.58C110.24,638,101.33,641,86.74,632c-17.84-11-33.67-25-52.07-35.23-14.16-7.88-29-12.52-45.43-12.69-20-.2-39.9,1.47-59.85,2-18.63.48-22.71-5.58-23.28-23.56-.66-20.69,1-41.39-.18-62.1-1.77-30.42-8.48-59-29.58-82.5a247.17,247.17,0,0,0-37.6-34c-18.32-13.48-37.21-26.21-55.32-40-27.6-21-48.2-48.06-65.53-77.81-1.36-2.33-1.9-5.31-4.76-6.58q0-207-.17-414.09c0-5.78,1.56-6.46,6.73-6.45Q101.93-160.8,484.17-160.88Z" transform="translate(287.03 161.02)"/><path class="b" d="M1655.9,440.16c-19.65-10-37.43-22.87-55.12-35.85q-78.65-57.71-152-122c-23.36-20.58-50.34-35.52-77.78-49.71-14.17-7.33-28.11-15-40.2-25.59-18.36-16.06-29.53-36.63-35.19-59.91-9.95-41-24.68-80.15-42.81-118.12-9.34-19.56-14.46-40.34-18.65-61.49-5.35-27-26.52-41.31-54-38.09-19.27,2.27-36.7,9.69-53.46,18.45-19.85,10.37-40.72,12-62,9.14-46.85-6.2-93.21-3.27-139.64,4.29-36.27,5.91-72.81,9.3-109.25.77-26.14-6.11-46.29-19.11-51.76-47.72-2-10.52-1.6-21.26-.33-31.76,1.84-15.21.64-29.68-6.36-43.45q445.84,0,891.7-.14c5.69,0,7.44,1.23,7,7-.57,6.78-.13,13.65-.13,20.48-16,2.12-32.09,3.92-48.05,6.45-25.06,4-49.67,9.58-71.31,23.83-19.39,12.77-30,30.49-28.87,54.08.61,12.73,4.79,24.7,9.79,36.4,11.54,27,28.36,50.63,45.46,74.16,18.86,25.94,37,52.51,60.88,74.31,9.35,8.52,19.26,16.35,32.1,19.15Z" transform="translate(287.03 161.02)"/><path class="b" d="M1332.61,931.92c8.75-22.67,24.35-35,49.47-36.8,41.61-3,77.6-20.92,110.77-45.33,35-25.73,61.53-59.06,85.79-94.42,25.88-37.73,51.29-75.79,74.94-115a25.74,25.74,0,0,1,2.32-2.91q0,144.18.14,288.38c0,5.19-1,6.22-6.22,6.21Q1491.23,931.78,1332.61,931.92Z" transform="translate(287.03 161.02)"/><path class="a" d="M1655.9,154.82c-12.84-2.8-22.75-10.63-32.1-19.15-23.9-21.8-42-48.37-60.88-74.31-17.1-23.53-33.92-47.21-45.46-74.16-5-11.7-9.18-23.67-9.79-36.4-1.11-23.59,9.48-41.31,28.87-54.08,21.64-14.25,46.25-19.87,71.31-23.83,16-2.53,32-4.33,48.05-6.45Z" transform="translate(287.03 161.02)"/><path class="b" d="M-286.86,631.4c3.74-1.09,6.15,1.8,8.83,3.3,21.74,12.17,44.11,14.38,68,6.54,18.93-6.21,37.64-13.31,57.34-17.1,21.83-4.2,30,3.62,25.06,25.29-7.58,33.55-24.52,62.29-46.39,88.43-14.5,17.33-31.28,32.35-47.88,47.52-28.72,26.24-50.63,57-63.37,93.93a13.12,13.12,0,0,1-1.56,2.52Z" transform="translate(287.03 161.02)"/><path class="b" d="M1136.24,36c-.12,12.9-14,25.48-28.09,25.54-11,0-17.73-7.21-17.64-19.11.12-15.82,11-29.56,23.46-29.59C1125.77,12.79,1136.34,23.79,1136.24,36Z" transform="translate(287.03 161.02)"/></svg>