<svg xmlns="http://www.w3.org/2000/svg" viewBox="0 0 1943.11 1093.3"><defs><style>.a{fill:#ffffff;}.b{fill:#41c7f6;}</style></defs><title>1800f_00307</title><path class="a" d="M-66.78,931.92H-232.22a32.78,32.78,0,0,0-14.68-7.21c-12-2.54-22.09,2.52-32.37,7.21-6.42,1.36-7.82-1.16-7.77-7.59.34-44.52.18-89,.18-133.57a25.27,25.27,0,0,0,4.39-.87c21.76-8.55,42.34-19.17,60.08-34.68,25.53-22.33,46-47.86,50.33-82.93,3.74-30.09-1.55-59-13.37-86.69-20-46.77-38.1-94.11-49.74-143.8-7.54-32.22-15.68-64.34-27.23-95.44-7.47-20.11-14.39-40.45-24.46-59.49q0-220.46-.14-440.91c0-5.69,1.28-7,7-7q920.16.22,1840.31.14c22.9,66.89,35.85,136.17,49.23,205.35,6.71,34.74,9.19,70.12,16.13,104.81,5.39,26.95,14.71,52.43,30.26,75.35V528.19c-10.16-12.46-14.91-27.53-19.17-42.5A151.18,151.18,0,0,0,1596.58,418c-42.87-42.12-93.09-73.58-146.9-99.54-24-11.58-49.39-14.86-76.06-11.34-25.64,3.38-51.17,8.33-77.45,5.23-29.44-3.47-59-21.14-60.89-56.74-1.45-27,5.56-47.74,27.39-63.75a36.37,36.37,0,0,0,13.17-17.06c6.75-18.53,5-36.78-.36-55-5.62-19.14-14.16-36.75-29.07-50.61-10.52-9.77-23.62-8.56-31.6,3.14-8.46,12.42-11.93,26.54-13.53,41.28-1.78,16.41.9,32.74.42,49.14-.71,23.77-8.85,35.34-31.44,43.39-21.66,7.71-44.12,10.73-66.92,11.55-27.36,1-51-8-71.21-26.61a208.06,208.06,0,0,1-30.93-36.27c-18-26.51-43.56-35.22-74.33-32.53-23,2-45.37,7.3-68.11,10.57-24.59,3.54-48.89,4.76-71.69-8-14.21-8-26.81-18-39.06-28.64-12.79-11.08-25.07-22.83-39.67-31.61-16.8-10.1-29.63-6.68-39.28,10.43a111.05,111.05,0,0,0-5.83,12.33c-10.75,26-11.17,53.38-8.44,80.68,5.18,51.69,21,100.24,45.73,145.93,10.38,19.22,20.69,38.38,41.48,48.86a159.14,159.14,0,0,0,41.63,13.74c37.69,7.31,75.76,12.45,113.54,19.4,33,6.08,62.12,17.59,83.12,45.08,2.59,3.39,6,6.17,9,9.2a199,199,0,0,0,70.08,45.56c35.83,13.61,73.5,18.53,111.31,21.43,65.83,5.06,129,21,191,42.84,11.69,4.12,23.17,8.91,33.18,16.45,17.1,12.89,16.07,27.47-2.58,37.92-11.52,6.46-24,10.71-36.36,15.13-25.94,9.28-52,18.16-76.53,31-37.35,19.54-71.53,43.84-105.14,69-21.06,15.78-43.39,28.74-69.83,33.24-21.7,3.7-43.35,2-65-.15-40.58-4-79,2-114.63,23.06-21.6,12.8-41.48,28-61.73,42.64C840.39,844.86,816.65,859,788,862.26c-42.47,4.83-85.18,6.24-127.82,8.45-66,3.43-131.93-3-197.94-2.77-22.64.07-44.73-4.23-66.16-11.67-31.16-10.82-60.11-26.5-89.77-40.63-25.57-12.17-51.19-24.15-78.17-33.06-30.47-10.07-59.61-10.52-88.3,6.57C83.09,823,26.27,856.53-25.95,897.18-40,908.16-54.67,918.58-66.78,931.92ZM627,410.13c.24-9.73-.49-19.51-3.84-28.47-18.44-49.25-38.61-97.76-66.8-142.4a98,98,0,0,0-33.91-33.08c-15.09-8.7-28.95-5.85-39.16,8.18-3.74,5.15-6.27,10.93-8.52,16.86-5.93,15.67-8.73,32.15-12.67,48.34-11.48,47.29-29.53,92.36-46.61,137.77-14.07,37.44-33,72.09-58.52,103a324.6,324.6,0,0,1-37.81,39.25A117.67,117.67,0,0,0,296.56,586c-17.64,27.9-5.28,57.36,27.2,63.1,28.71,5.08,57.36,4,85.32-5.16,32.69-10.72,62.32-27.69,91.19-45.93,38.64-24.4,73.19-53.27,96.35-93.66C613.38,475.08,626.1,444.49,627,410.13Z" transform="translate(287.04 161.02)"/><path class="b" d="M-66.78,931.92c12.11-13.34,26.73-23.76,40.83-34.74,52.22-40.65,109-74.23,165.75-108,28.69-17.09,57.83-16.64,88.3-6.57,27,8.91,52.6,20.89,78.17,33.06,29.66,14.13,58.61,29.81,89.77,40.63,21.43,7.44,43.52,11.74,66.16,11.67,66-.23,131.93,6.2,197.94,2.77,42.64-2.21,85.35-3.62,127.82-8.45,28.69-3.27,52.43-17.4,75.15-33.88,20.25-14.68,40.13-29.84,61.73-42.64,35.62-21.1,74-27.09,114.63-23.06,21.65,2.15,43.3,3.85,65,.15,26.44-4.5,48.77-17.46,69.83-33.24,33.61-25.19,67.79-49.49,105.14-69,24.53-12.85,50.59-21.73,76.53-31,12.37-4.42,24.84-8.67,36.36-15.13,18.65-10.45,19.68-25,2.58-37.92-10-7.54-21.49-12.33-33.18-16.45-62-21.84-125.19-37.78-191-42.84-37.81-2.9-75.48-7.82-111.31-21.43a199,199,0,0,1-70.08-45.56c-3.05-3-6.44-5.81-9-9.2-21-27.49-50.11-39-83.12-45.08-37.78-6.95-75.85-12.09-113.54-19.4A159.14,159.14,0,0,1,742,362.8c-20.79-10.48-31.1-29.64-41.48-48.86C675.82,268.25,660,219.7,654.79,168c-2.73-27.3-2.31-54.64,8.44-80.68A111.05,111.05,0,0,1,669.06,75c9.65-17.11,22.48-20.53,39.28-10.43,14.6,8.78,26.88,20.53,39.67,31.61,12.25,10.61,24.85,20.68,39.06,28.64,22.8,12.77,47.1,11.55,71.69,8,22.74-3.27,45.16-8.56,68.11-10.57,30.77-2.69,56.31,6,74.33,32.53a208.06,208.06,0,0,0,30.93,36.27c20.18,18.64,43.85,27.6,71.21,26.61,22.8-.82,45.26-3.84,66.92-11.55,22.59-8.05,30.73-19.62,31.44-43.39.48-16.4-2.2-32.73-.42-49.14,1.6-14.74,5.07-28.86,13.53-41.28,8-11.7,21.08-12.91,31.6-3.14,14.91,13.86,23.45,31.47,29.07,50.61,5.34,18.21,7.11,36.46.36,55a36.37,36.37,0,0,1-13.17,17.06c-21.83,16-28.84,36.71-27.39,63.75,1.92,35.6,31.45,53.27,60.89,56.74,26.28,3.1,51.81-1.85,77.45-5.23,26.67-3.52,52.05-.24,76.06,11.34,53.81,26,104,57.42,146.9,99.54a151.18,151.18,0,0,1,40.15,67.72c4.26,15,9,30,19.17,42.5V789.25c-.74,0-1.62.24-2.18-.07-17.9-10.26-34.44-6-50.35,4.69-17.15,11.53-30.52,27.1-44.2,42.23-19.8,21.91-40.3,43-62.7,62.35-12.76,11-26.5,20.91-37.89,33.47Z" transform="translate(287.04 161.02)"/><path class="b" d="M-286.86,286.86c10.07,19,17,39.38,24.46,59.49,11.55,31.1,19.69,63.22,27.23,95.44,11.64,49.69,29.72,97,49.74,143.8,11.82,27.64,17.11,56.6,13.37,86.69-4.36,35.07-24.8,60.6-50.33,82.93-17.74,15.51-38.32,26.13-60.08,34.68a25.27,25.27,0,0,1-4.39.87Z" transform="translate(287.04 161.02)"/><path class="b" d="M1655.9,224.63c-15.55-22.92-24.87-48.4-30.26-75.35-6.94-34.69-9.42-70.07-16.13-104.81-13.38-69.18-26.33-138.46-49.23-205.35,29.55,0,59.1.15,88.64-.14,5.41,0,7.15.78,7.14,6.81Q1655.73,35.21,1655.9,224.63Z" transform="translate(287.04 161.02)"/><path class="a" d="M1458.58,931.92c11.39-12.56,25.13-22.47,37.89-33.47,22.4-19.31,42.9-40.44,62.7-62.35,13.68-15.13,27-30.7,44.2-42.23,15.91-10.7,32.45-15,50.35-4.69.56.31,1.44.06,2.18.07,0,45.78-.09,91.57.12,137.35,0,4.53-.91,5.46-5.44,5.44Q1554.58,931.77,1458.58,931.92Z" transform="translate(287.04 161.02)"/><path class="b" d="M-279.27,931.92c10.28-4.69,20.41-9.75,32.37-7.21a32.78,32.78,0,0,1,14.68,7.21Z" transform="translate(287.04 161.02)"/><path class="b" d="M627,410.13c-.87,34.36-13.59,64.95-30.35,94.19-23.16,40.39-57.71,69.26-96.35,93.66-28.87,18.24-58.5,35.21-91.19,45.93-28,9.16-56.61,10.24-85.32,5.16-32.48-5.74-44.84-35.2-27.2-63.1a117.67,117.67,0,0,1,22.57-26.4,324.6,324.6,0,0,0,37.81-39.25c25.54-30.9,44.45-65.55,58.52-103,17.08-45.41,35.13-90.48,46.61-137.77,3.94-16.19,6.74-32.67,12.67-48.34,2.25-5.93,4.78-11.71,8.52-16.86,10.21-14,24.07-16.88,39.16-8.18a98,98,0,0,1,33.91,33.08c28.19,44.64,48.36,93.15,66.8,142.4C626.48,390.62,627.21,400.4,627,410.13Z" transform="translate(287.04 161.02)"/></svg>