<svg xmlns="http://www.w3.org/2000/svg" viewBox="0 0 1943.02 1093.1"><defs><style>.a{fill:#ffffff;}.b{fill:#41c7f6;}</style></defs><title>1800f_00304</title><path class="a" d="M-91.07,931.92H-238.29c-10.55-19.66-25.17-33.9-48.57-36.43v-126c11.9-10.78,20.46-24.28,29.84-37.06,17.47-23.84,35.24-47.48,43.81-76.56,10.34-35.1,12.25-71.08,12.5-107.27.11-15.94.34-31.87,2.89-47.62,6.88-42.65-1.94-81.18-28.75-115.53a775.71,775.71,0,0,1-49.95-72.34c-3.26-5.33-5.59-11.31-10.34-15.65q0-225.92-.12-451.82c0-5.18.7-6.74,6.46-6.73q125.83.39,251.68.18c4,12,10,18.29,19.1,16.85A66.43,66.43,0,0,0,25.8-160.88H1533c-.49,1.88.46,3.44,1.17,5,19.23,43.06,27.49,88.6,30.84,135.3,2.68,37.3,2.54,74.76,7.25,112,6.1,48.19,18.76,94.1,44,136.06,10.32,17.16,20.13,34.65,22.32,55.09,2.28,21.24.92,42-10.74,60.76-5.62,9.06-13.89,13.51-24.7,13.51-14.79,0-28.25-5.29-41.69-10.36-54.7-20.66-110.23-38.5-167.38-51.17-23.65-5.24-47.5-9.86-70.1-19.12-25.87-10.61-38.94-29.7-38.23-57.65.26-10.57,2-21.1,2.64-31.67,2.8-44.07-8.16-84.68-31-122.25-15.91-26.14-31.58-52.38-43.48-80.72-4.79-11.4-10.8-22.34-20-31.08-9.83-9.37-19.31-9.63-29.6-.78-7.21,6.2-12.36,14-16.91,22.23-16.38,29.57-27.58,61.26-37.89,93.3-3.26,10.12-6.54,20.24-11.11,29.83-6.9,14.48-14.86,28.33-29,37.13-13.8,8.58-27.35,4.93-35.35-9.2a71.43,71.43,0,0,1-6.53-16.12c-2.71-9.74-5.41-19.46-9.51-28.77-9.09-20.65-25-30.2-47.23-30.41-18.84-.18-37.21,3.25-55.57,6.87-23.28,4.59-46.25,11.12-70,12.75-57.33,3.9-100.72-22.72-136.46-64.3C697.85-7.2,690-22.23,680.21-35.76c-8.53-11.85-18.63-11.1-26.19,1.45A102.2,102.2,0,0,0,643.55-10a689.2,689.2,0,0,0-22.63,115.16c-5,44.85.91,87.68,23.78,127.47,17.4,30.29,39.11,57,64,81.45,18.57,18.3,40.77,27.33,66.06,30.74a291,291,0,0,0,64.28,1c29-2.53,57.86-5.57,87-4.71,20.4.6,38.79,6.75,54.74,19.49,9.87,7.88,19.47,16.13,28.92,24.52,34.61,30.68,72.42,55.91,117.07,69.69q92.37,28.5,184.75,57c23.15,7.17,46.83,12.85,68.64,23.9,6.82,3.46,13.25,7.48,18,13.61,6.8,8.76,6,18.22-2.07,25.76-4.51,4.23-10,6.88-15.61,9.17-15.29,6.19-31.43,9.46-47.32,13.62-24,6.28-47.81,13.21-68.36,28-22,15.82-44.16,31.29-65.86,47.46-40.22,30-81.44,58.2-127.51,78.75-24,10.7-47.75,22.05-71.38,33.58-29.33,14.31-53.26,34.61-68.52,64.1-9.81,18.95-16.32,39.14-22.25,59.52-2.17,7.47-6.08,14.49-6.17,22.54H819.6c3.41-8.3,3-16.83,1.18-25.31-4-18.36-14.12-34-23.33-49.92-7.48-12.94-18.87-20.54-34-22.84-20.71-3.16-40.9.79-61,4.35-43.49,7.72-86.84,7.91-130.54,1.73-35.27-5-70.4-11.1-105.89-14.54-45.23-4.38-89.39-13.12-131.81-30.16-47-18.85-91.94-40.64-129.95-75.08a174.62,174.62,0,0,0-52-32.26c-10.12-4.09-20.45-7.48-31.44-8.1-29.45-1.65-44.73,9.3-49.29,38.27C64,766.37,42.32,806.32,5.28,838.18Q-25.2,864.4-55,891.35C-68.5,903.52-82.52,915.32-91.07,931.92ZM294.36,654.7c29.45-.32,56-10.63,81-24.87,32.07-18.27,63.64-37.4,95.94-55.29,18.83-10.42,37.35-21.77,52.53-37.11,60.49-61.11,86.65-133.51,71.7-219.65C585,257,564.84,201,520.42,156.11c-13.17-13.31-26.07-26.94-43.26-35.29-18.49-9-34.1-4.58-45.09,12.8a100.39,100.39,0,0,0-11.77,27.85c-6.66,24.74-8.82,50.21-12.56,75.44-11,74.43-37.5,143.59-73.32,209.31-18.28,33.56-41,63.69-72.39,86.61C249,542.37,236.75,553.05,227,566.16,207.87,591.68,212,618.73,238,637.34,254.85,649.39,273.77,654.7,294.36,654.7Z" transform="translate(286.98 161.06)"/><path class="b" d="M903.08,931.92c.09-8,4-15.07,6.17-22.54,5.93-20.38,12.44-40.57,22.25-59.52,15.26-29.49,39.19-49.79,68.52-64.1,23.63-11.53,47.37-22.88,71.38-33.58,46.07-20.55,87.29-48.77,127.51-78.75,21.7-16.17,43.9-31.64,65.86-47.46,20.55-14.79,44.32-21.72,68.36-28,15.89-4.16,32-7.43,47.32-13.62,5.66-2.29,11.1-4.94,15.61-9.17,8-7.54,8.87-17,2.07-25.76-4.76-6.13-11.19-10.15-18-13.61-21.81-11-45.49-16.73-68.64-23.9q-92.37-28.57-184.75-57c-44.65-13.78-82.46-39-117.07-69.69-9.45-8.39-19-16.64-28.92-24.52-16-12.74-34.34-18.89-54.74-19.49-29.14-.86-58,2.18-87,4.71a291,291,0,0,1-64.28-1c-25.29-3.41-47.49-12.44-66.06-30.74-24.85-24.47-46.56-51.16-64-81.45-22.87-39.79-28.83-82.62-23.78-127.47A689.2,689.2,0,0,1,643.55-10,102.2,102.2,0,0,1,654-34.31c7.56-12.55,17.66-13.3,26.19-1.45C690-22.23,697.85-7.2,708.65,5.36c35.74,41.58,79.13,68.2,136.46,64.3,23.79-1.63,46.76-8.16,70-12.75,18.36-3.62,36.73-7,55.57-6.87,22.19.21,38.14,9.76,47.23,30.41,4.1,9.31,6.8,19,9.51,28.77a71.43,71.43,0,0,0,6.53,16.12c8,14.13,21.55,17.78,35.35,9.2,14.15-8.8,22.11-22.65,29-37.13,4.57-9.59,7.85-19.71,11.11-29.83,10.31-32,21.51-63.73,37.89-93.3,4.55-8.22,9.7-16,16.91-22.23,10.29-8.85,19.77-8.59,29.6.78,9.17,8.74,15.18,19.68,20,31.08,11.9,28.34,27.57,54.58,43.48,80.72,22.87,37.57,33.83,78.18,31,122.25-.67,10.57-2.38,21.1-2.64,31.67-.71,27.95,12.36,47,38.23,57.65,22.6,9.26,46.45,13.88,70.1,19.12,57.15,12.67,112.68,30.51,167.38,51.17,13.44,5.07,26.9,10.37,41.69,10.36,10.81,0,19.08-4.45,24.7-13.51,11.66-18.79,13-39.52,10.74-60.76-2.19-20.44-12-37.93-22.32-55.09-25.24-42-37.9-87.87-44-136.06-4.71-37.2-4.57-74.66-7.25-112-3.35-46.7-11.61-92.24-30.84-135.3-.71-1.61-1.66-3.17-1.17-5,39,0,77.91.13,116.86-.15,5.21,0,6.23,1,6.22,6.22q-.26,268.26-.14,536.53V796.84c-8.08-6-13.62-14.61-21.53-20.91-29.69-23.64-77.72-37.54-120.07-7.26-20.92,15-39.67,32.07-55.44,52.27-21.73,27.84-42.95,56.08-64.33,84.2-6.68,8.77-14.76,16.54-19.42,26.78Z" transform="translate(286.98 161.06)"/><path class="b" d="M-91.07,931.92c8.55-16.6,22.57-28.4,36-40.57q29.82-27,60.32-53.17c37-31.86,58.72-71.81,66.32-120.12,4.56-29,19.84-39.92,49.29-38.27,11,.62,21.32,4,31.44,8.1a174.62,174.62,0,0,1,52,32.26c38,34.44,83,56.23,130,75.08,42.42,17,86.58,25.78,131.81,30.16,35.49,3.44,70.62,9.55,105.89,14.54,43.7,6.18,87,6,130.54-1.73,20.07-3.56,40.26-7.51,61-4.35,15.1,2.3,26.49,9.9,34,22.84,9.21,15.93,19.29,31.56,23.33,49.92,1.87,8.48,2.23,17-1.18,25.31Z" transform="translate(286.98 161.06)"/><path class="a" d="M1375.11,931.92c4.66-10.24,12.74-18,19.42-26.78,21.38-28.12,42.6-56.36,64.33-84.2,15.77-20.2,34.52-37.3,55.44-52.27,42.35-30.28,90.38-16.38,120.07,7.26,7.91,6.3,13.45,14.88,21.53,20.91,0,43.25-.09,86.51.12,129.76,0,4.53-.91,5.45-5.44,5.44Q1512.85,931.8,1375.11,931.92Z" transform="translate(286.98 161.06)"/><path class="b" d="M-286.86,297.49c4.75,4.34,7.08,10.32,10.34,15.65a775.71,775.71,0,0,0,49.95,72.34c26.81,34.35,35.63,72.88,28.75,115.53-2.55,15.75-2.78,31.68-2.89,47.62-.25,36.19-2.16,72.17-12.5,107.27-8.57,29.08-26.34,52.72-43.81,76.56-9.38,12.78-17.94,26.28-29.84,37.06Z" transform="translate(286.98 161.06)"/><path class="b" d="M-286.86,895.49c23.4,2.53,38,16.77,48.57,36.43-14.93,0-29.85-.13-44.77.1-3.27.05-4-.63-3.9-3.9C-286.7,917.25-286.86,906.37-286.86,895.49Z" transform="translate(286.98 161.06)"/><path class="b" d="M25.8-160.88A66.43,66.43,0,0,1-9.74-144c-9.14,1.44-15.12-4.8-19.1-16.85Z" transform="translate(286.98 161.06)"/><path class="b" d="M294.36,654.7c-20.59,0-39.51-5.31-56.33-17.36-26-18.61-30.16-45.66-11.08-71.18,9.8-13.11,22-23.79,35.08-33.33,31.37-22.92,54.11-53.05,72.39-86.61,35.82-65.72,62.28-134.88,73.32-209.31,3.74-25.23,5.9-50.7,12.56-75.44a100.39,100.39,0,0,1,11.77-27.85c11-17.38,26.6-21.78,45.09-12.8,17.19,8.35,30.09,22,43.26,35.29C564.84,201,585,257,595.57,317.78c14.95,86.14-11.21,158.54-71.7,219.65-15.18,15.34-33.7,26.69-52.53,37.11-32.3,17.89-63.87,37-95.94,55.29C350.4,644.07,323.81,654.38,294.36,654.7Z" transform="translate(286.98 161.06)"/></svg>