<svg xmlns="http://www.w3.org/2000/svg" viewBox="0 0 1943.71 1093.77"><defs><style>.a{fill:#ffffff;}.b{fill:#41c7f6;}</style></defs><title>1800f_00115</title><path class="a" d="M1655.9,758.89c0,55.91-.07,111.81.12,167.72,0,4.52-.9,5.5-5.44,5.44-23-.29-46-.13-69.06-.13-3.34-8.24-10-14.28-14.3-22-4.87-8.83-12.38-15.18-21.19-20-14.69-8-30.55-11.8-47.13-12.51-36.85-1.57-70.83,8.81-103.05,25.67-15.81,8.27-31.39,17.06-45,28.8H434.08a211.17,211.17,0,0,0,16.68-100.71c-2.44-32.56-10.84-63.07-30.46-90-9.21-12.64-17.06-26.28-25.64-39.39-10.92-16.69-20.85-34.09-35.77-47.83-13.12-12.09-26.49-13.79-41.26-3.76-12.1,8.21-23.49,17.44-35.39,26-18.5,13.27-30.12,30.85-34.74,53.2-3.73,18.07-6.37,36.29-8.43,54.59a410.17,410.17,0,0,0-.17,90,127.55,127.55,0,0,0,20.64,57.87q-270,0-540,.16c-5.67,0-6.51-1.4-6.51-6.68q.23-396.67.13-793.35c13.34-1.16,26.69-2.28,40-3.5,59-5.39,117.84-4.26,175.93,7.59,57.55,11.74,114.55,9.86,171.5-2.45,30-6.48,56.65-21.41,83.63-35.27,38.25-19.67,76.67-39,117.82-52C338.68,34.83,375.63,24.31,411.38,10c18.29-7.3,37-6.71,55.7-.49,26.12,8.71,50.05,21.75,73,36.74a85.44,85.44,0,0,0,34.33,13.33c10.58,1.61,21.18,1.7,31.78,1.39,56.05-1.62,111.9-7.56,168-8,36.24-.26,72.34.68,107.34,11.4,40.92,12.52,79.82,30.38,119.41,46.37,24.27,9.79,36.83,29.91,41.71,55,4.09,21,1.26,41.85-2.52,62.53-5.36,29.27-9,58.55-1.95,88,5.92,24.53,15.8,47.06,36,63.44,14.27,11.56,29,10.76,42.12-2.17a129.74,129.74,0,0,0,14.43-16.56c22.29-31,44.62-62,66.34-93.37,23.76-34.35,42.51-71.19,51.59-112.33,3.86-17.5,5.61-35.44,11.15-52.6,4.6-14.26,10.72-28,24.15-35.58,22.16-12.48,46.87-15.67,71.84-14.46,16,.78,29.09,9.79,41,19.87,34.26,29,64.55,62,93.74,95.93,23.48,27.27,30.53,60.22,27.78,95.74-1.93,24.86-8.37,48.7-14,72.84q-28.56,123.18.46,246.5C1524.63,668.24,1573.5,728.07,1655.9,758.89ZM-77.38,286c-.13,14.92,7.57,32.14,19.16,47.49,19.41,25.71,43.37,47.23,66.7,69.22,11.35,10.7,23.55,20.67,38.16,27,16.06,6.94,25.92,1.66,29-15.45,3.57-19.5-2.13-37.57-9-55.26-12-30.89-31.81-57.3-50-84.61C8.53,262.11-.66,250.78-13.39,242.82c-13.32-8.32-27.53-11.08-41.69-3.62C-71.51,247.85-77.24,263.16-77.38,286Z" transform="translate(287.67 161.69)"/><path class="b" d="M1655.9,758.89c-82.4-30.82-131.27-90.65-151.08-175.3q-28.8-123.12-.46-246.5c5.6-24.14,12-48,14-72.84,2.75-35.52-4.3-68.47-27.78-95.74-29.19-33.9-59.48-66.92-93.74-95.93-11.9-10.08-25-19.09-41-19.87-25-1.21-49.68,2-71.84,14.46-13.43,7.56-19.55,21.32-24.15,35.58-5.54,17.16-7.29,35.1-11.15,52.6-9.08,41.14-27.83,78-51.59,112.33-21.72,31.4-44,62.37-66.34,93.37a129.74,129.74,0,0,1-14.43,16.56c-13.1,12.93-27.85,13.73-42.12,2.17-20.24-16.38-30.12-38.91-36-63.44-7.1-29.44-3.41-58.72,1.95-88,3.78-20.68,6.61-41.53,2.52-62.53-4.88-25.09-17.44-45.21-41.71-55-39.59-16-78.49-33.85-119.41-46.37-35-10.72-71.1-11.66-107.34-11.4-56.11.4-112,6.34-168,8-10.6.31-21.2.22-31.78-1.39a85.44,85.44,0,0,1-34.33-13.33c-22.92-15-46.85-28-73-36.74-18.66-6.22-37.41-6.81-55.7.49-35.75,14.27-72.7,24.79-109.33,36.38-41.15,13-79.57,32.33-117.82,52-27,13.86-53.62,28.79-83.63,35.27C43.65,146-13.35,147.88-70.9,136.14c-58.09-11.85-116.94-13-175.93-7.59-13.34,1.22-26.69,2.34-40,3.5V-144.19c11.35-3.33,21.27-9.25,30.36-16.69h1448c-4.63,5-9.31,9.95-13.86,15-12.19,13.59-24.35,27.47-30,45.11-8.34,25.87-19.81,50.25-32.41,74.21-6,11.42-11.31,23.16-14,35.88-4.12,19.31,2.72,33.19,20.55,41.51a72,72,0,0,0,27.07,6.66c28.66,1.41,56.28-4.7,83.38-13,14.6-4.48,25.06-14.72,32.34-28.18,17.6-32.54,26.75-68.06,36.16-103.43,6.74-25.36,4.16-50.11-7.49-73.76q178.33,0,356.67-.15c5.2,0,6.22,1,6.22,6.22Q1655.8,302,1655.9,758.89Z" transform="translate(287.67 161.69)"/><path class="b" d="M259.54,931.92a127.55,127.55,0,0,1-20.64-57.87,410.17,410.17,0,0,1,.17-90c2.06-18.3,4.7-36.52,8.43-54.59,4.62-22.35,16.24-39.93,34.74-53.2,11.9-8.53,23.29-17.76,35.39-26,14.77-10,28.14-8.33,41.26,3.76,14.92,13.74,24.85,31.14,35.77,47.83,8.58,13.11,16.43,26.75,25.64,39.39,19.62,26.92,28,57.43,30.46,90a211.17,211.17,0,0,1-16.68,100.71Z" transform="translate(287.67 161.69)"/><path class="a" d="M1293.15-160.88c11.65,23.65,14.23,48.4,7.49,73.76-9.41,35.37-18.56,70.89-36.16,103.43-7.28,13.46-17.74,23.7-32.34,28.18-27.1,8.32-54.72,14.43-83.38,13a72,72,0,0,1-27.07-6.66c-17.83-8.32-24.67-22.2-20.55-41.51,2.71-12.72,8-24.46,14-35.88,12.6-24,24.07-48.34,32.41-74.21,5.68-17.64,17.84-31.52,30-45.11,4.55-5.07,9.23-10,13.86-15Z" transform="translate(287.67 161.69)"/><path class="b" d="M1350.82,931.92c13.64-11.74,29.22-20.53,45-28.8,32.22-16.86,66.2-27.24,103.05-25.67,16.58.71,32.44,4.49,47.13,12.51,8.81,4.81,16.32,11.16,21.19,20,4.25,7.69,11,13.73,14.3,22Z" transform="translate(287.67 161.69)"/><path class="a" d="M-256.5-160.88c-9.09,7.44-19,13.36-30.36,16.69,0-5.56-2.17-13.3.61-16.08s10.52-.61,16.09-.61Z" transform="translate(287.67 161.69)"/><path class="b" d="M-77.38,286c.14-22.82,5.87-38.13,22.3-46.78,14.16-7.46,28.37-4.7,41.69,3.62,12.73,8,21.92,19.29,30.07,31.53,18.18,27.31,38,53.72,50,84.61,6.88,17.69,12.58,35.76,9,55.26-3.12,17.11-13,22.39-29,15.45-14.61-6.31-26.81-16.28-38.16-27-23.33-22-47.29-43.51-66.7-69.22C-69.81,318.12-77.51,300.9-77.38,286Z" transform="translate(287.67 161.69)"/></svg>