<svg xmlns="http://www.w3.org/2000/svg" viewBox="0 0 1943.07 1093.09"><defs><style>.a{fill:#ffffff;}.b{fill:#41c7f6;}</style></defs><title>1800f_00211</title><path class="a" d="M1613.4,931.92H-209.45c.54-2.46,1-4.95,1.65-7.37,7.51-27.41,19.3-53.18,30.31-79.26,13.46-31.9,27.37-63.63,37.79-96.72,12.89-40.91,17.32-83,17-125.71-.14-17.46-.14-35.1,6.15-51.67,12.66-33.33,31.55-62.74,58-86.87,28.69-26.14,59.52-28.47,92.09-7.05C52.93,490,67.22,507.7,79.78,526.85c20.71,31.59,33.57,66.76,45.72,102.18,14.13,41.15,32.75,80,57.87,115.58,10.67,15.11,22,29.79,37.72,40.08s30.75,7.56,41.75-7.6a70.64,70.64,0,0,0,7.33-13.21c10.24-23.45,11.12-48.26,8.65-73-5.18-51.79-10.18-103.62-19.18-154.94-5.93-33.84-11.36-67.82-22.73-100.43-9.19-26.36-24.24-48.23-48.75-62.71a159.86,159.86,0,0,0-40.34-17.23c-38.12-10.06-76.17-20.65-116.13-20-11.4.18-22.54,2.31-33.71,4.33-2.48.45-6.58,1.79-7.51-1.13C-10.64,335.22-6.29,335-4,334c11-5,22.45-9.1,32.71-15.67q31.3-20,62.61-40.05c37.93-24.23,78-43.6,121.62-55.59,15.9-4.38,32.79-4.1,48.24-9.58,57.39-20.31,106.11-53.8,146.83-99,17.68-19.62,30.42-42.87,46.49-63.68C495.78-3,539.57-54.44,580.63-108c7.07-9.23,14.68-18.06,24-25.18,13.41-10.22,25.48-10.24,38.77,0,8.74,6.73,15,15.63,21.51,24.36,18.49,24.85,28.18,53.58,36.11,83,10,37.15,30.56,65.6,65.72,82.71,14.59,7.1,29.48,13.38,45.14,17.61,64.48,17.44,129.81,17.59,195.64,10,29.57-3.43,59.14-7.33,89.13-5.75,29.68,1.56,51.38,13.33,63.31,42.05,22.59,54.38,52.93,104.62,84.92,153.86,30,46.27,55.12,94.71,69.77,148.28,6,22,14.63,43.15,28.68,61.54,6.55,8.56,14.33,15.72,25.29,18.31,14.79,3.5,27-2.79,37.85-11.39,47.61-37.87,87.84-81.46,107.17-140.95,3.9-12,8.18-24.25,16.89-33.69,17.42-18.89,29.29-16.13,41.93,2.4a42.75,42.75,0,0,1,2.16,4c8.8,16.39,13.72,34.23,18.95,51.9,12,40.73,27.36,79.9,52.73,114.44,2.94,4,5.1,8.73,9.57,11.49V886.38c-3.87,2.22-5.77,6.24-8.38,9.52C1637.17,908.89,1624.15,919.33,1613.4,931.92ZM957.17,248.76c-19.49-.26-32.24,5.18-44.21,12.51-26.83,16.45-48.52,38.69-68.69,62.48a67.79,67.79,0,0,0-14.74,30.41c-3.94,18.94,5.39,33.71,24.38,37.7,16.78,3.53,32.27-1.39,46.48-9.59,20.92-12.08,36.28-30.43,51.26-48.9,11.51-14.18,21.71-29.26,27.34-46.9C986.39,263.32,976,248.8,957.17,248.76Z" transform="translate(286.99 161.03)"/><path class="b" d="M1655.9,500.87c-4.47-2.76-6.63-7.48-9.57-11.49-25.37-34.54-40.69-73.71-52.73-114.44-5.23-17.67-10.15-35.51-18.95-51.9a42.75,42.75,0,0,0-2.16-4c-12.64-18.53-24.51-21.29-41.93-2.4-8.71,9.44-13,21.67-16.89,33.69-19.33,59.49-59.56,103.08-107.17,141-10.8,8.6-23.06,14.89-37.85,11.39-11-2.59-18.74-9.75-25.29-18.31-14-18.39-22.67-39.58-28.68-61.54-14.65-53.57-39.73-102-69.77-148.28-32-49.24-62.33-99.48-84.92-153.86-11.93-28.72-33.63-40.49-63.31-42-30-1.58-59.56,2.32-89.13,5.75-65.83,7.64-131.16,7.49-195.64-10-15.66-4.23-30.55-10.51-45.14-17.61C731.61,39.7,711.08,11.25,701.05-25.9c-7.93-29.38-17.62-58.11-36.11-83-6.49-8.73-12.77-17.63-21.51-24.36-13.29-10.25-25.36-10.23-38.77,0-9.35,7.12-17,15.95-24,25.18C539.57-54.44,495.78-3,454.52,50.42,438.45,71.23,425.71,94.48,408,114.1c-40.72,45.17-89.44,78.66-146.83,99-15.45,5.48-32.34,5.2-48.24,9.58-43.57,12-83.69,31.36-121.62,55.59q-31.32,20-62.61,40.05C18.47,324.86,7,329-4,334c-2.31,1.05-6.66,1.26-5.55,4.72.93,2.92,5,1.58,7.51,1.13,11.17-2,22.31-4.15,33.71-4.33,40-.6,78,10,116.13,20a159.86,159.86,0,0,1,40.34,17.23c24.51,14.48,39.56,36.35,48.75,62.71,11.37,32.61,16.8,66.59,22.73,100.43,9,51.32,14,103.15,19.18,154.94,2.47,24.78,1.59,49.59-8.65,73a70.64,70.64,0,0,1-7.33,13.21c-11,15.16-26,17.93-41.75,7.6s-27.05-25-37.72-40.08C158.25,709,139.63,670.18,125.5,629c-12.15-35.42-25-70.59-45.72-102.18C67.22,507.7,52.93,490,33.54,477.27,1,455.85-29.86,458.18-58.55,484.32c-26.48,24.13-45.37,53.54-58,86.87-6.29,16.57-6.29,34.21-6.15,51.67.35,42.73-4.08,84.8-17,125.71-10.42,33.09-24.33,64.82-37.79,96.72-11,26.08-22.8,51.85-30.31,79.26-.66,2.42-1.11,4.91-1.65,7.37-24,0-48.07-.15-72.1.13-4.53.05-5.45-.92-5.44-5.44q.27-118.77.13-237.54c1.65-1.87,3.4-3.67,4.95-5.63,11.15-14.14,19.41-30.08,28.36-45.58,11.85-20.53,25.53-40,35.69-61.51,11-23.26,8.07-41.22-10.14-59.17-17.36-17.11-37.91-29.93-58.86-42.11V376.41c35.69-9.28,70.55-21.55,106.68-29.24,4.76-1,11.34-1.72,12.24-7.35.89-5.47-5-8.43-9-11.1-15-9.91-30.24-19.4-46.85-26.38-21-8.82-42-17.41-63-26.1V162.4a133.46,133.46,0,0,0,28.11-17.65c24.51-20.4,28.9-52.71,10.52-77.11C-258,54.72-271.69,48.15-286.86,44V-68.3c2.78-1.1,4.83.83,7.07,1.77,14,5.87,28.2,11.37,43.31,13.24A269.72,269.72,0,0,0-110.58-67.4c23.63-8.48,40.88-24.33,51.79-47.16A248.55,248.55,0,0,0-42.5-160.88H211c3.82,17.83,11.39,33.91,23.74,47.34,13.81,15,29.82,18.4,48,8.89,24.11-12.64,41.09-32.75,54.29-56.23q655.8,0,1311.61-.15c5.89,0,7.53.81,7.52,7.23Q1655.75,173.53,1655.9,500.87Z" transform="translate(286.99 161.03)"/><path class="a" d="M-42.5-160.88a248.55,248.55,0,0,1-16.29,46.32C-69.7-91.73-86.95-75.88-110.58-67.4a269.72,269.72,0,0,1-125.9,14.11c-15.11-1.87-29.31-7.37-43.31-13.24-2.24-.94-4.29-2.87-7.07-1.77,0-29.09.13-58.18-.13-87.27,0-4.53.92-5.45,5.44-5.44Q-162-160.74-42.5-160.88Z" transform="translate(286.99 161.03)"/><path class="a" d="M-286.86,475.07c20.95,12.18,41.5,25,58.86,42.11,18.21,18,21.12,35.91,10.14,59.17-10.16,21.5-23.84,41-35.69,61.51-8.95,15.5-17.21,31.44-28.36,45.58-1.55,2-3.3,3.76-4.95,5.63Z" transform="translate(286.99 161.03)"/><path class="a" d="M-286.86,276.24c21,8.69,42.07,17.28,63,26.1,16.61,7,31.88,16.47,46.85,26.38,4,2.67,9.92,5.63,9,11.1-.9,5.63-7.48,6.33-12.24,7.35-36.13,7.69-71,20-106.68,29.24Z" transform="translate(286.99 161.03)"/><path class="a" d="M337-160.88c-13.2,23.48-30.18,43.59-54.29,56.23-18.13,9.51-34.14,6.13-48-8.89C222.36-127,214.79-143,211-160.88Z" transform="translate(286.99 161.03)"/><path class="a" d="M-286.86,44c15.17,4.13,28.9,10.7,38.63,23.62,18.38,24.4,14,56.71-10.52,77.11a133.46,133.46,0,0,1-28.11,17.65Z" transform="translate(286.99 161.03)"/><path class="b" d="M1613.4,931.92c10.75-12.59,23.77-23,34.12-36,2.61-3.28,4.51-7.3,8.38-9.52,0,13.92-.14,27.83.1,41.74,0,3.27-.63,4-3.9,3.9C1639.2,931.77,1626.3,931.92,1613.4,931.92Z" transform="translate(286.99 161.03)"/><path class="b" d="M957.17,248.76c18.83,0,29.22,14.56,21.82,37.71-5.63,17.64-15.83,32.72-27.34,46.9-15,18.47-30.34,36.82-51.26,48.9-14.21,8.2-29.7,13.12-46.48,9.59-19-4-28.32-18.76-24.38-37.7a67.79,67.79,0,0,1,14.74-30.41c20.17-23.79,41.86-46,68.69-62.48C924.93,253.94,937.68,248.5,957.17,248.76Z" transform="translate(286.99 161.03)"/></svg>