<svg xmlns="http://www.w3.org/2000/svg" viewBox="0 0 1366.28 768.28"><defs><style>.a{fill:#ffffff;}.b{fill:#41c7f6;}</style></defs><title>1800f_00070</title><path class="a" d="M1367.52,488.73V563.1c-7.52,0-14.12,3.48-20.87,6.06-21.48,8.2-42.74,16.94-64.23,25.09-8.48,3.22-17.41,5.89-26.62,4.69-23.92-3.09-45.69,2.46-65.47,15.83-9.92,6.69-18.67,14.78-22.94,26.44-3.65,10,1.09,18.84,11.32,21.79,8.42,2.42,17,2.26,25.53,1,10.71-1.53,17.36,1.62,22.33,11.28,6.29,12.2,7.81,25.53,8.81,38.89,1.39,18.42.2,36.88.09,55.32H98.66c.34-7.36,4.07-12.74,9.65-17.24,16.4-13.23,35.45-21.24,55-28.42,24-8.82,49-14.35,72.64-24.15C283.91,679.8,320,647.24,341,599.05c10.71-24.58,13.13-50.73,14.18-77.07,1.16-29,2.68-58,7-86.81,2.45-16.23,3.76-32.73-.64-48.95-5.64-20.78-19.3-26.32-38-15.49a92.06,92.06,0,0,0-10,6.82c-11.49,8.87-20.93,19.73-30,31-11.22,14-20.94,29.21-34.39,41.33-10.89,9.81-23.61,11.69-35.65,5.08a64.61,64.61,0,0,1-19.06-16c-21.34-26.15-24.52-55.86-16.4-87.35,4.28-16.61,10.24-32.78,15.12-49.25,9.45-31.92,6.91-62.24-14.32-89C152.55,180.07,128.13,145.2,98,115,91.2,108.27,84.79,101,80.58,92.19c-4.79-10-1.76-16.69,8.84-19.65a41.1,41.1,0,0,1,9.71-1.33c15.69-.5,30.42,3.7,45,9.08,38.78,14.29,76.65,14,113.08-7.69,23.55-14,45.75-29.85,64.72-49.76,6.19-6.5,12.85-12.81,16.53-21.32H931.92c1,3,3.69,4.75,5.82,6.83,41.24,40,79.06,83.13,115.89,127.1,31.51,37.62,57.76,79.15,84.95,119.92,19.79,29.67,33.65,62.1,42.47,96.66,5.06,19.83,10.19,39.61,19.3,58.11,9.65,19.64,21.92,36.37,44.27,42.85Q1306.09,470.81,1367.52,488.73ZM735.05,710.54a237.14,237.14,0,0,0,37-2.09c20.32-2.65,40.53-6.45,57.9-18.37,12.28-8.43,13.37-20.53,3.52-31.73-6.47-7.35-15-11.24-24.25-13.14-40.26-8.34-77.7-.81-112.26,21.21a45.13,45.13,0,0,0-13.85,13.83c-6.13,9.59-4.28,17.08,5.35,23,4.6,2.84,9.7,4.2,14.88,5.37C713.83,711,724.46,710.53,735.05,710.54Z" transform="translate(-1.37 -1.37)"/><path class="b" d="M338.46,1.52c-3.68,8.51-10.34,14.82-16.53,21.32-19,19.91-41.17,35.72-64.72,49.76-36.43,21.71-74.3,22-113.08,7.69-14.58-5.38-29.31-9.58-45-9.08a41.1,41.1,0,0,0-9.71,1.33c-10.6,3-13.63,9.65-8.84,19.65C84.79,101,91.2,108.27,98,115c30.16,30.16,54.58,65,80.92,98.3,21.23,26.81,23.77,57.13,14.32,89-4.88,16.47-10.84,32.64-15.12,49.25-8.12,31.49-4.94,61.2,16.4,87.35a64.61,64.61,0,0,0,19.06,16c12,6.61,24.76,4.73,35.65-5.08,13.45-12.12,23.17-27.36,34.39-41.33,9.05-11.27,18.49-22.13,30-31a92.06,92.06,0,0,1,10-6.82c18.67-10.83,32.33-5.29,38,15.49,4.4,16.22,3.09,32.72.64,48.95-4.35,28.8-5.87,57.77-7,86.81-1.05,26.34-3.47,52.49-14.18,77.07-21,48.19-57.08,80.75-105.08,100.66-23.61,9.8-48.68,15.33-72.64,24.15-19.51,7.18-38.56,15.19-55,28.42-5.58,4.5-9.31,9.88-9.65,17.24-30.77,0-61.54-.12-92.31.13-4.38,0-4.95-1.12-4.94-5.14.16-49.43.11-98.86.11-148.29q27.51-28.76,55-57.53C74.34,540,77.1,519.29,66,496,52,466.75,36.6,438.31,21,410c-5.22-9.49-11.48-18.45-19.49-26V247.4c19.07-23.09,19.07-51.64,0-74.37,0-55.15.09-110.29-.15-165.44,0-5.2,1-6.23,6.22-6.22Q173,1.67,338.46,1.52Z" transform="translate(-1.37 -1.37)"/><path class="b" d="M1367.52,488.73q-61.45-17.88-122.9-35.74c-22.35-6.48-34.62-23.21-44.27-42.85-9.11-18.5-14.24-38.28-19.3-58.11-8.82-34.56-22.68-67-42.47-96.66-27.19-40.77-53.44-82.3-84.95-119.92C1016.8,91.48,979,48.34,937.74,8.35c-2.13-2.08-4.78-3.79-5.82-6.83h330.87c2.18,10.44,9.47,17.78,16.62,24.53C1309,54,1335,85.88,1367.52,110.8v60.71c-6.44.78-12.87,1.82-19.33,2.26-6.16.41-8,3.51-6.51,9a50,50,0,0,0,3.28,8.41c6.21,13,14.62,24.58,22.56,36.48Z" transform="translate(-1.37 -1.37)"/><path class="b" d="M1235.47,769.52c.11-18.44,1.3-36.9-.09-55.32-1-13.36-2.52-26.69-8.81-38.89-5-9.66-11.62-12.81-22.33-11.28-8.53,1.23-17.11,1.39-25.53-1-10.23-3-15-11.82-11.32-21.79,4.27-11.66,13-19.75,22.94-26.44,19.78-13.37,41.55-18.92,65.47-15.83,9.21,1.2,18.14-1.47,26.62-4.69,21.49-8.15,42.75-16.89,64.23-25.09,6.75-2.58,13.35-6,20.87-6.06q0,100.54.12,201.1c0,4.53-.91,5.47-5.44,5.44C1320,769.43,1277.72,769.52,1235.47,769.52Z" transform="translate(-1.37 -1.37)"/><path class="a" d="M1.52,384c8,7.51,14.27,16.47,19.49,26,15.59,28.35,31,56.79,45,86,11.13,23.31,8.37,44-9.42,62.71q-27.46,28.81-55,57.53Z" transform="translate(-1.37 -1.37)"/><path class="a" d="M1367.52,110.8C1335,85.88,1309,54,1279.41,26.05,1272.26,19.3,1265,12,1262.79,1.52c33.39,0,66.78.07,100.17-.1,3.8,0,4.68.86,4.66,4.65C1367.45,41,1367.52,75.89,1367.52,110.8Z" transform="translate(-1.37 -1.37)"/><path class="a" d="M1367.52,227.67c-7.94-11.9-16.35-23.52-22.56-36.48a50,50,0,0,1-3.28-8.41c-1.5-5.5.35-8.6,6.51-9,6.46-.44,12.89-1.48,19.33-2.26Z" transform="translate(-1.37 -1.37)"/><path class="a" d="M1.52,173c19.07,22.73,19.07,51.28,0,74.37Z" transform="translate(-1.37 -1.37)"/><path class="b" d="M735.05,710.54c-10.59,0-21.22.47-31.68-1.91-5.18-1.17-10.28-2.53-14.88-5.37-9.63-5.93-11.48-13.42-5.35-23A45.13,45.13,0,0,1,697,666.42c34.56-22,72-29.55,112.26-21.21,9.21,1.9,17.78,5.79,24.25,13.14,9.85,11.2,8.76,23.3-3.52,31.73-17.37,11.92-37.58,15.72-57.9,18.37A237.14,237.14,0,0,1,735.05,710.54Z" transform="translate(-1.37 -1.37)"/></svg>