<svg xmlns="http://www.w3.org/2000/svg" viewBox="0 0 1943.07 1093.11"><defs><style>.a{fill:#ffffff;}.b{fill:#41c7f6;}</style></defs><title>1800f_00332</title><path class="a" d="M1655.9,294.45V843.89c-2.93-.43-5.41,1.11-8,1.9-30.85,9.26-61.77,11.39-92.09-1.33-26.33-11-49.77-27-70.7-46.38-16.8-15.57-30-33.75-35-56.54-11.89-53.83-7.82-106,17.74-155.6,13.93-27,31.58-51.79,47.85-77.39,13.45-21.17,26.21-42.68,32.82-67.19,6.68-24.73,5.44-48.62-8.48-70.8-8.23-13.12-18.28-15.77-32.49-9.51-11.48,5.06-21.3,12.56-30.68,20.69-26.79,23.25-50.88,49.22-75,75.13-33.6,36.1-66.25,73-93.74,114.15-24.46,36.61-54.59,67.47-91.43,91.79-13.23,8.73-22.35,21.28-28.07,36-19.29,49.53-11.25,95.33,20.19,137.32,19.68,26.29,44.12,48,69.48,68.61,11.7,9.51,24.08,18.17,36.16,27.21H71.34a652.6,652.6,0,0,0-49.76-77.78c-10-13.63-20.38-27-34.1-37.34C-29.26,804.2-49,801.48-69,800c-22.2-1.68-42.11-8.48-59.79-22.67-19.5-15.65-35.05-34.83-51.22-53.5-31.15-35.94-59.77-73.69-83-115.38-8.1-14.54-14.57-30-23.9-43.81V390.07a15.65,15.65,0,0,0,3-.27A562.08,562.08,0,0,1-150.2,368.45c25.38-1,48.44-9,65-29.5,29-35.93,49.29-76.32,59.5-121.5,5.53-24.45,6-49.65,10.54-74.26C-11,121-4.14,100,12.76,83.85c14.25-13.61,31.05-13.28,45.13.4,6.43,6.24,11.23,13.6,15.56,21.37,11.46,20.57,13.6,43.08,14.3,66s10.8,35.17,33.2,40.91c16.43,4.21,33.15,4.27,49.75,2.2,40.61-5.08,81-11.65,121.72-16,67.94-7.27,129.79-29.19,184.06-71.48,23.75-18.5,47.39-37,69-58.09,28.15-27.52,40.09-62.5,48.1-99.49,4-18.5,4.85-37.1-.28-55.57-7-25.07-25.51-37.32-51.3-34.37a104.13,104.13,0,0,0-31.19,9C483.62-99,456.65-86.12,427.57-78.75,370.49-64.28,312.86-52.19,255.43-39.27,218.66-31,183.64-37.63,150.12-54,125.74-66,112.66-85.29,110.26-112.38c-1.49-16.79,2.7-32.57,6.61-48.5h751.3c-2.42,11.25-9,20.34-16.07,28.85-30,36-58.57,73-84,112.27C761.45-9.56,755.37,1,752.38,12.92c-3.06,12.26.78,21.28,11.8,27.44a48.88,48.88,0,0,0,15,5.21c26.35,5,51.22,0,75.25-11.07,22-10.08,41.75-23.79,61.34-37.63,22.34-15.78,45.78-19.88,71.79-11.1,12.91,4.36,26,8.52,39.67,9.85,38,3.71,75.5,10.77,112.75,19.14,88.75,20,177.75,38.34,268.59,46.47,29,2.59,56.51,11.23,80.43,28.9,14.1,10.42,24,23.66,27.88,41.11,2.75,12.47,2.36,25.12,2.83,37.74.9,24.77,1.77,49.62,10.38,73.24,12,32.8,22.89,34.16,47.51,32.53,1-.07,2-.07,3-.18a104.87,104.87,0,0,1,39,3.21C1632.65,281.27,1643.88,288.71,1655.9,294.45ZM-36,567.3c-.32-12.13-5.94-23.12-14.39-32.93-4.67-5.43-10.35-8.29-17.42-5.72-4.73,1.72-7.87,11-6.4,18.06,3,14.57,11.31,25.68,23.46,33.89,7,4.75,12.55,2.27,14.36-6.14C-36,572.52-36.17,570.45-36,567.3ZM1005.62,96.06A31.46,31.46,0,0,0,999.9,78.3c-4.78-6.91-9.37-7.62-15.8-2.52-11.92,9.45-12.77,32.09-1.94,42.78,5.17,5.11,9.81,4.38,14.45-.06C1002.75,112.63,1005.39,105.17,1005.62,96.06Z" transform="translate(287.01 161.04)"/><path class="b" d="M116.87-160.88c-3.91,15.93-8.1,31.71-6.61,48.5C112.66-85.29,125.74-66,150.12-54c33.52,16.42,68.54,23,105.31,14.78,57.43-12.92,115.06-25,172.14-39.48,29.08-7.37,56.05-20.21,83.23-32.49a104.13,104.13,0,0,1,31.19-9c25.79-3,44.34,9.3,51.3,34.37,5.13,18.47,4.29,37.07.28,55.57-8,37-20,72-48.1,99.49-21.6,21.11-45.24,39.59-69,58.09-54.27,42.29-116.12,64.21-184.06,71.48-40.68,4.36-81.11,10.93-121.72,16-16.6,2.07-33.32,2-49.75-2.2-22.4-5.74-32.5-17.86-33.2-40.91s-2.84-45.44-14.3-66c-4.33-7.77-9.13-15.13-15.56-21.37-14.08-13.68-30.88-14-45.13-.4C-4.14,100-11,121-15.17,143.19c-4.56,24.61-5,49.81-10.54,74.26C-35.92,262.63-56.19,303-85.21,339c-16.55,20.5-39.61,28.46-65,29.5A562.08,562.08,0,0,0-283.86,389.8a15.65,15.65,0,0,1-3,.27q0-272.22-.13-544.45c0-5.31.89-6.67,6.52-6.66Q-81.81-160.74,116.87-160.88Z" transform="translate(287.01 161.04)"/><path class="b" d="M1655.9,294.45c-12-5.74-23.25-13.18-36.31-16.67a104.87,104.87,0,0,0-39-3.21c-1,.11-2,.11-3,.18-24.62,1.63-35.55.27-47.51-32.53-8.61-23.62-9.48-48.47-10.38-73.24-.47-12.62-.08-25.27-2.83-37.74-3.86-17.45-13.78-30.69-27.88-41.11-23.92-17.67-51.48-26.31-80.43-28.9C1317.71,53.1,1228.71,34.72,1140,14.76c-37.25-8.37-74.7-15.43-112.75-19.14-13.66-1.33-26.76-5.49-39.67-9.85-26-8.78-49.45-4.68-71.79,11.1-19.59,13.84-39.37,27.55-61.34,37.63-24,11-48.9,16-75.25,11.07a48.88,48.88,0,0,1-15-5.21c-11-6.16-14.86-15.18-11.8-27.44,3-12,9.07-22.48,15.68-32.68,25.47-39.32,54.06-76.31,84-112.27,7.1-8.51,13.65-17.6,16.07-28.85q390.58,0,781.18-.13c5.19,0,6.72.72,6.72,6.47Q1655.74,70,1655.9,294.45Z" transform="translate(287.01 161.04)"/><path class="b" d="M1314.4,931.92c-12.08-9-24.46-17.7-36.16-27.21-25.36-20.61-49.8-42.32-69.48-68.61-31.44-42-39.48-87.79-20.19-137.32,5.72-14.69,14.84-27.24,28.07-36,36.84-24.32,67-55.18,91.43-91.79,27.49-41.12,60.14-78,93.74-114.15,24.11-25.91,48.2-51.88,75-75.13,9.38-8.13,19.2-15.63,30.68-20.69,14.21-6.26,24.26-3.61,32.49,9.51,13.92,22.18,15.16,46.07,8.48,70.8-6.61,24.51-19.37,46-32.82,67.19-16.27,25.6-33.92,50.36-47.85,77.39-25.56,49.6-29.63,101.77-17.74,155.6,5,22.79,18.23,41,35,56.54,20.93,19.39,44.37,35.34,70.7,46.38,30.32,12.72,61.24,10.59,92.09,1.33,2.63-.79,5.11-2.33,8-1.9,0,27.32-.18,54.64.15,82,.06,5.21-1,6.23-6.23,6.22Q1482.11,931.78,1314.4,931.92Z" transform="translate(287.01 161.04)"/><path class="b" d="M-286.86,564.62c9.33,13.85,15.8,29.27,23.9,43.81,23.22,41.69,51.84,79.44,83,115.38,16.17,18.67,31.72,37.85,51.22,53.5C-111.07,791.5-91.16,798.3-69,800c20,1.5,39.7,4.22,56.44,16.82,13.72,10.31,24.08,23.71,34.1,37.34a652.6,652.6,0,0,1,49.76,77.78q-176.07,0-352.13.14c-5.2,0-6.22-1-6.22-6.21Q-286.73,745.24-286.86,564.62Z" transform="translate(287.01 161.04)"/><path class="b" d="M-36,567.3c-.15,3.15,0,5.22-.39,7.16-1.81,8.41-7.32,10.89-14.36,6.14-12.15-8.21-20.42-19.32-23.46-33.89-1.47-7,1.67-16.34,6.4-18.06,7.07-2.57,12.75.29,17.42,5.72C-42,544.18-36.34,555.17-36,567.3Z" transform="translate(287.01 161.04)"/><path class="b" d="M1005.62,96.06c-.23,9.11-2.87,16.57-9,22.44-4.64,4.44-9.28,5.17-14.45.06-10.83-10.69-10-33.33,1.94-42.78,6.43-5.1,11-4.39,15.8,2.52A31.46,31.46,0,0,1,1005.62,96.06Z" transform="translate(287.01 161.04)"/></svg>