<svg xmlns="http://www.w3.org/2000/svg" viewBox="0 0 1943.06 1093.09"><defs><style>.a{fill:#fcfdfd;}.b{fill:#41c7f6;}</style></defs><title>1800f_00354</title><path class="a" d="M-286.86,150.26q0-152.37-.16-304.74c0-5.57,1.28-6.55,6.64-6.54q187.24.27,374.48.14c0,13.61-2.27,27.14-1.07,40.82,3.22,36.58,11.33,72.29,18.76,108.12,5,24.16,8.77,48.3,1.82,72.68-6.13,21.49-18.49,39.69-30.92,57.86-11.82,17.29-24.42,34.12-33.43,53.18-6.26,13.26-4.24,24,6,34.58,12.82,13.25,28.58,19.83,46.8,19.69,15.69-.13,31.44,0,46.87,2.23,26.05,3.7,46.5-4.9,63.18-24.42,19.61-23,34.76-49,51.57-73.93,59.57-88.29,89.87-187.56,109.7-290.81h836.3c-8.23,42.47-7,85.49-7.64,128.43-.58,39.06-6.51,77.5-15.92,115.39-6.12,24.63-14.66,48.33-27.79,70.24-8,13.33-19.59,19.66-35.06,20-15.18.38-30.35,1.95-44.8,6.84-30.19,10.21-61.16,12.92-92.74,11-8.07-.49-16.16-1-24.23-.9-30,.38-46.47,17.41-46.54,47.45,0,20.85,9.86,36.37,26.19,47.87,34.38,24.23,73.62,30.71,114.61,29.53,22.83-.66,45.06-5.86,67.27-10.68,22.06-4.79,42-.9,60.48,12.1a310.63,310.63,0,0,1,28,22c29.15,26,62,46.12,98,61.06q74.93,31.05,149.84,62.16c23.64,9.88,46.83,20.93,65.14,39.38,27.25,27.47,43.46,61.25,52.38,98.48,5.06,21.1-.18,40.56-13.32,57.88-8.14,10.73-17.78,20-27.54,29.22-17.86,16.8-36.29,33-53.26,50.74-34.73,36.31-58.6,78.29-67.69,128.16-4,22.08-3.9,44.22-2,66.45H716.39a15.18,15.18,0,0,1,2.46-2.7c10.08-6.73,14.81-15.92,14.43-28.21-.5-16-7.43-29.75-14.52-43.45-10.57-20.44-23.57-39.54-33.38-60.4-8.82-18.73-14.9-38-14-59.13,1.29-29.67,17.71-50.15,40.09-67.17,9.49-7.22,19.26-14.16,30.63-17.91,15.65-5.16,30.45-.06,45,5.41,20.34,7.67,39.43,18.26,60,25.52,20.25,7.16,39.54,6.25,58.47-4.25,9.3-5.16,18.54-10.4,27.16-16.6a278.23,278.23,0,0,1,101.69-45.63,535.58,535.58,0,0,0,149.79-58.9c21.84-12.66,42.26-27,57.15-47.81,16.86-23.57,14.74-51.19-5.16-68.58-11.46-10-25.17-14.71-40.22-15.8-26.31-1.9-51.29,4.18-75.68,13.05-45.86,16.67-91.7,33.41-139.08,45.41-27.19,6.88-54.44,13.6-81.84,19.61-49.29,10.83-92.1,35.39-134.84,60.83-39.76,23.66-74.11,52.64-99.52,91.47-17.25,26.36-40.87,44.21-69.77,56-66.9,27.37-122.71,69.64-168.71,125.39-13,15.82-29.05,27.88-52,21-3.87-1.15-7.85-1.94-11.66-3.25-25.62-8.79-43.82-23.65-44.65-53.39-.42-15.38-1.67-30.74-2.66-46.1-.95-14.71-3.44-29.15-9.76-42.58-3.66-7.78-8-16.05-17.68-16.85-10.8-.9-14.93,8.26-19.06,15.94-14.25,26.51-15.28,54.93-11.75,84.06,2.37,19.56,4.09,39.19,1.34,58.91-3.61,25.84-13.42,50.26-17.32,76H-63.75c-.14-6.5-6.56-15.52-12.18-17.09a9.78,9.78,0,0,0-12.73,8.94c-.18,2.69.4,5.43.63,8.15q-96.76,0-193.52.12c-4.53,0-5.46-.91-5.44-5.44.21-48.31.13-96.63.13-144.94a9.46,9.46,0,0,0,2.22-.39c34.3-14.95,69.55-27.53,104.2-41.63,27.93-11.36,55.4-23.83,79.09-42.83C-66.88,669.16-34,639.56-1,610.24c17.37-15.4,36.48-26.41,60.17-29.32,23.33-2.86,46.76-3.82,70.14-5.52,39.49-2.88,75.76-14.15,108-37.69,20.87-15.25,42.58-29,67.58-36.91,30.88-9.71,62-7.19,93.08-2,34.2,5.68,68.33,11.48,103.19,9.68,23.3-1.2,45.78-6.07,65.8-18.37,47.93-29.44,78.84-71.94,92.71-126.26,7.38-28.91,4.17-57-14.73-81.4-12-15.58-27.77-24.5-48.12-21.13-13,2.16-23.83,9.48-34,17.52-13,10.21-23.9,22.55-35.35,34.32C512,329,493.81,340.66,473.64,349.29c-34,14.56-69.6,24.34-105,34.89-36.38,10.85-69.33,4.25-100.13-16.8-13.14-9-26.23-18.06-39.53-26.8-23.39-15.37-38.9-15.06-60.95,1.92-19.45,15-34,34.47-47.67,54.57C97.76,430.34,79,465.91,59.23,500.87,51.63,514.3,43.77,527.55,32,538c-9.37,8.31-18.58,8-27.16-1.12C.34,532-3,526.36-6.14,520.58c-14.61-27-26.09-55.32-36.8-84-15.7-42-39.2-79.78-63.19-117.27-27.56-43.09-56.09-85.42-95.17-119.37C-226.68,177.92-252.93,157.52-286.86,150.26Z" transform="translate(287.02 161.02)"/><path class="b" d="M1413.05,931.92c-1.86-22.23-2-44.37,2-66.45,9.09-49.87,33-91.85,67.69-128.16,17-17.74,35.4-33.94,53.26-50.74,9.76-9.18,19.4-18.49,27.54-29.22,13.14-17.32,18.38-36.78,13.32-57.88-8.92-37.23-25.13-71-52.38-98.48-18.31-18.45-41.5-29.5-65.14-39.38q-74.85-31.26-149.84-62.16c-36-14.94-68.86-35-98-61.06a310.63,310.63,0,0,0-28-22c-18.43-13-38.42-16.89-60.48-12.1-22.21,4.82-44.44,10-67.27,10.68-41,1.18-80.23-5.3-114.61-29.53-16.33-11.5-26.23-27-26.19-47.87.07-30,16.52-47.07,46.54-47.45,8.07-.1,16.16.41,24.23.9,31.58,1.95,62.55-.76,92.74-11,14.45-4.89,29.62-6.46,44.8-6.84,15.47-.38,27.07-6.71,35.06-20,13.13-21.91,21.67-45.61,27.79-70.24,9.41-37.89,15.34-76.33,15.92-115.39.64-42.94-.59-86,7.64-128.43h209.45c-6.87,24.27-9.1,49-8,74.17,1.28,30.1,6,59.75,11.33,89.32,7.06,39.54,14.75,79,30.24,116.31,8.46,20.39,18.39,40.09,35.69,54.67,25.88,21.81,57.16,27.91,89.71,29.35,26.82,1.18,52.68-4.23,77.85-13.22q0,367.7.14,735.37c0,5.69-1.28,7-7,7Q1531.05,931.75,1413.05,931.92Z" transform="translate(287.02 161.02)"/><path class="b" d="M-286.86,150.26c33.93,7.26,60.18,27.66,85.56,49.71,39.08,33.95,67.61,76.28,95.17,119.37,24,37.49,47.49,75.26,63.19,117.27,10.71,28.65,22.19,57,36.8,84C-3,526.36.34,532,4.87,536.83c8.58,9.1,17.79,9.43,27.16,1.12,11.74-10.4,19.6-23.65,27.2-37.08,19.78-35,38.53-70.53,61.16-103.8,13.67-20.1,28.22-39.59,47.67-54.57,22.05-17,37.56-17.29,60.95-1.92,13.3,8.74,26.39,17.81,39.53,26.8,30.8,21.05,63.75,27.65,100.13,16.8,35.37-10.55,71-20.33,105-34.89C493.81,340.66,512,329,527.4,313.13c11.45-11.77,22.38-24.11,35.35-34.32,10.22-8,21-15.36,34-17.52,20.35-3.37,36.08,5.55,48.12,21.13,18.9,24.44,22.11,52.49,14.73,81.4-13.87,54.32-44.78,96.82-92.71,126.26-20,12.3-42.5,17.17-65.8,18.37-34.86,1.8-69-4-103.19-9.68-31.07-5.16-62.2-7.68-93.08,2-25,7.87-46.71,21.66-67.58,36.91-32.22,23.54-68.49,34.81-108,37.69-23.38,1.7-46.81,2.66-70.14,5.52C35.48,583.83,16.37,594.84-1,610.24c-33,29.32-65.88,58.92-100.35,86.57-23.69,19-51.16,31.47-79.09,42.83-34.65,14.1-69.9,26.68-104.2,41.63a9.46,9.46,0,0,1-2.22.39Z" transform="translate(287.02 161.02)"/><path class="b" d="M241.33,931.92c3.9-25.77,13.71-50.19,17.32-76,2.75-19.72,1-39.35-1.34-58.91-3.53-29.13-2.5-57.55,11.75-84.06,4.13-7.68,8.26-16.84,19.06-15.94,9.71.8,14,9.07,17.68,16.85,6.32,13.43,8.81,27.87,9.76,42.58,1,15.36,2.24,30.72,2.66,46.1.83,29.74,19,44.6,44.65,53.39,3.81,1.31,7.79,2.1,11.66,3.25,22.93,6.83,38.94-5.23,52-21,46-55.75,101.81-98,168.71-125.39,28.9-11.82,52.52-29.67,69.77-56,25.41-38.83,59.76-67.81,99.52-91.47,42.74-25.44,85.55-50,134.84-60.83,27.4-6,54.65-12.73,81.84-19.61,47.38-12,93.22-28.74,139.08-45.41,24.39-8.87,49.37-14.95,75.68-13.05,15,1.09,28.76,5.78,40.22,15.8,19.9,17.39,22,45,5.16,68.58-14.89,20.83-35.31,35.15-57.15,47.81a535.58,535.58,0,0,1-149.79,58.9A278.23,278.23,0,0,0,932.7,663c-8.62,6.2-17.86,11.44-27.16,16.6-18.93,10.5-38.22,11.41-58.47,4.25-20.55-7.26-39.64-17.85-60-25.52-14.52-5.47-29.32-10.57-45-5.41-11.37,3.75-21.14,10.69-30.63,17.91-22.38,17-38.8,37.5-40.09,67.17-.92,21.08,5.16,40.4,14,59.13,9.81,20.86,22.81,40,33.38,60.4,7.09,13.7,14,27.42,14.52,43.45.38,12.29-4.35,21.48-14.43,28.21a15.18,15.18,0,0,0-2.46,2.7H534.26c-5.71-7.21-13-12.69-20.55-17.68-28-18.55-56.62-35.3-92.21-32.18a41,41,0,0,0-22.75,9c-14.77,11.94-25.56,27.69-39,40.89Z" transform="translate(287.02 161.02)"/><path class="b" d="M373.37-160.88C353.54-57.63,323.24,41.64,263.67,129.93c-16.81,24.92-32,51-51.57,73.93C195.42,223.38,175,232,148.92,228.28c-15.43-2.19-31.18-2.36-46.87-2.23-18.22.14-34-6.44-46.8-19.69C45,195.79,43,185,49.26,171.78c9-19.06,21.61-35.89,33.43-53.18,12.43-18.17,24.79-36.37,30.92-57.86,7-24.38,3.19-48.52-1.82-72.68C104.36-47.77,96.25-83.48,93-120.06c-1.2-13.68,1-27.21,1.07-40.82Z" transform="translate(287.02 161.02)"/><path class="a" d="M1655.9,189.72c-25.17,9-51,14.4-77.85,13.22-32.55-1.44-63.83-7.54-89.71-29.35-17.3-14.58-27.23-34.28-35.69-54.67-15.49-37.34-23.18-76.77-30.24-116.31-5.29-29.57-10.05-59.22-11.33-89.32-1.06-25.17,1.17-49.9,8-74.17h121.42c-.06,2,1.4,3.16,2.48,4.51a769.28,769.28,0,0,1,81.36,124.58c10.09,19.4,19.88,39,31.52,57.59Z" transform="translate(287.02 161.02)"/><path class="b" d="M1655.9,25.8c-11.64-18.57-21.43-38.19-31.52-57.59A769.28,769.28,0,0,0,1543-156.37c-1.08-1.35-2.54-2.52-2.48-4.51,36.68,0,73.36.1,110-.13,4.53,0,5.46.91,5.44,5.44C1655.83-95.11,1655.9-34.65,1655.9,25.8Z" transform="translate(287.02 161.02)"/><path class="a" d="M359.71,931.92c13.48-13.2,24.27-28.95,39-40.89a41,41,0,0,1,22.75-9c35.59-3.12,64.25,13.63,92.21,32.18,7.53,5,14.84,10.47,20.55,17.68Z" transform="translate(287.02 161.02)"/><path class="b" d="M-88,931.92c-.23-2.72-.81-5.46-.63-8.15a9.78,9.78,0,0,1,12.73-8.94c5.62,1.57,12,10.59,12.18,17.09Z" transform="translate(287.02 161.02)"/></svg>