<svg xmlns="http://www.w3.org/2000/svg" viewBox="0 0 1943.36 1093.09"><defs><style>.a{fill:#ffffff;}.b{fill:#41c7f6;}</style></defs><title>1800f_00136</title><path class="a" d="M1655.9,171.51V347.57c-3.58,10.23-7,20.51-10.75,30.66-20.54,55.42-45.25,109.19-65.16,164.87-16.07,44.95-28.27,90.66-30,138.64-1.87,52.84,8.47,103.42,28.22,152.32,16.12,39.92,37.33,75.68,76.14,97.86q-967.22,0-1934.42.14c-5.71,0-7.5-1.27-6.94-7s.12-11.62.12-17.44a9.54,9.54,0,0,0,2.28-1.78c15.27-23,31.09-45.55,45.57-69,26.11-42.26,38.22-88.28,34.55-138.16-1.29-17.64-2.75-35.32-2.91-53a566.78,566.78,0,0,1,13.82-131.66c11-48.39,3.47-93.44-25-134.43-16.6-23.89-38.13-40.26-68.27-42.68V245.88c5.5-.77,11-1.52,16.5-2.32,36.75-5.34,73.27-12.68,110.43-14.44q60.23-2.84,120.51-4c73.31-1.31,146.54-3.26,219.54-11,37.35-3.94,71.47-14.92,101.05-38.88,16.48-13.36,33.13-26.57,51.22-37.83,29.07-18.1,58.68-19.73,89.38-4.3,17.28,8.69,32.8,19.85,48.06,31.61,35.75,27.56,76.55,46.08,117.29,64.67,15,6.86,30.46,12,47,13.79,29.78,3.19,59-1,88.2-5.83,27.91-4.58,55.67-10.42,84.22-8.58,14.87,1,29.72,2.57,44.6,3,36.11,1,72.3-.21,108.23,5.07,37.8,5.56,74.23,15.23,107.8,34.07,21.17,11.88,34,29.56,38.2,53.61a177.27,177.27,0,0,1,0,63.36c-7.66,41.11-4.67,79.64,20.23,115.25,20.56,29.4,41.55,57.88,73,76.9s60.88,18.2,86.27-3.77c20.38-17.65,34.68-39.25,40.18-66.18,6.08-29.7,6.68-59.81,5.82-89.85-1.36-47.42,9.07-92.22,26.37-135.94,21.41-54.11,45.12-107.15,71.8-158.87,7.41-14.37,14.66-28.9,18.08-44.9,3.21-15-4.23-22.86-19.57-20.8a107,107,0,0,0-22.71,5.88c-19.27,7.08-37.3,16.8-55.58,26.05-37.07,18.76-75.08,35.28-116.06,43.56-24.13,4.88-32.38-3-26.81-27.1,6.68-28.95,0-53.33-20.09-74.7A155,155,0,0,1,1174.11,18c-11.21-15.52-17.95-32.26-12.86-51.83,3.24-12.45,9.63-23.33,17.63-33.25,29.34-36.37,61.24-70,102.12-93.78h74.38c14.41,8.36,29.08,16.3,42,27,43,35.42,89.36,65.25,141.52,85.68,14.72,5.77,28,14.58,37.33,27.74,31,43.87,56.64,90.44,69.18,143.24C1649.28,138.91,1652.43,155.25,1655.9,171.51ZM843.49,470.2c.19-14-1.21-27.87-7.15-40.65s-14.4-13.38-22.74-2.2c-15,20.16-26,42.64-36.3,65.42-6.13,13.62-10.42,27.91-9.1,43.31,1.11,12.95,9.69,19.84,22.26,16.65,18.49-4.68,32.67-15.53,42.22-32C841.7,505.09,843.21,487.74,843.49,470.2Z" transform="translate(287.08 161.03)"/><path class="b" d="M1281-160.88c-40.88,23.81-72.78,57.41-102.12,93.78-8,9.92-14.39,20.8-17.63,33.25-5.09,19.57,1.65,36.31,12.86,51.83a155,155,0,0,0,12.21,15.46c20.07,21.37,26.77,45.75,20.09,74.7-5.57,24.11,2.68,32,26.81,27.1,41-8.28,79-24.8,116.06-43.56,18.28-9.25,36.31-19,55.58-26.05a107,107,0,0,1,22.71-5.88c15.34-2.06,22.78,5.75,19.57,20.8-3.42,16-10.67,30.53-18.08,44.9-26.68,51.72-50.39,104.76-71.8,158.87-17.3,43.72-27.73,88.52-26.37,135.94.86,30,.26,60.15-5.82,89.85-5.5,26.93-19.8,48.53-40.18,66.18-25.39,22-55,22.71-86.27,3.77s-52.42-47.5-73-76.9c-24.9-35.61-27.89-74.14-20.23-115.25a177.27,177.27,0,0,0,0-63.36c-4.22-24.05-17-41.73-38.2-53.61-33.57-18.84-70-28.51-107.8-34.07-35.93-5.28-72.12-4.07-108.23-5.07-14.88-.41-29.73-2-44.6-3-28.55-1.84-56.31,4-84.22,8.58-29.19,4.79-58.42,9-88.2,5.83-16.58-1.78-32-6.93-47-13.79-40.74-18.59-81.54-37.11-117.29-64.67-15.26-11.76-30.78-22.92-48.06-31.61-30.7-15.43-60.31-13.8-89.38,4.3-18.09,11.26-34.74,24.47-51.22,37.83-29.58,24-63.7,34.94-101.05,38.88-73,7.7-146.23,9.65-219.54,11q-60.27,1.08-120.51,4c-37.16,1.76-73.68,9.1-110.43,14.44-5.5.8-11,1.55-16.5,2.32V-9.1l12.21-6.07c36.86-18.4,75.62-27.56,117-24.89,14.33.93,28.82,1.16,43-1.66,31.19-6.19,47.25-28.09,56.5-56.22,6.71-20.4,6.81-41.7,6.48-62.94H-1.52c10,20.49,23,39.14,36.39,57.5C54.07-77.08,73-50.54,92.76-24.71c9.11,11.88,21.32,20,37.28,20.29a62.85,62.85,0,0,0,63.05-53.06c1.69-10.55.9-21.17,1.35-31.75,1-24.25,2.59-48.41,10.46-71.65H431.05c-1.23,32.49,8.92,61.62,26.15,88.69,9.95,15.63,24,24.91,42.19,28.07,25.83,4.49,50.32-1.46,74.05-10.68,21.65-8.41,42.72-18.32,64.24-27.09C675-97.09,713.94-94.26,752.85-92c29,1.68,58.32,3.09,86.89-3,49.19-10.46,98.75-18,148.68-23.81,40.57-4.74,76.82-22.25,112-42.09Z" transform="translate(287.08 161.03)"/><path class="a" d="M1100.39-160.88c-35.15,19.84-71.4,37.35-112,42.09C938.49-113,888.93-105.44,839.74-95c-28.57,6.07-57.84,4.66-86.89,3C713.94-94.26,675-97.09,637.68-81.89c-21.52,8.77-42.59,18.68-64.24,27.09-23.73,9.22-48.22,15.17-74.05,10.68-18.17-3.16-32.24-12.44-42.19-28.07-17.23-27.07-27.38-56.2-26.15-88.69Z" transform="translate(287.08 161.03)"/><path class="b" d="M-286.86,337c30.14,2.42,51.67,18.79,68.27,42.68,28.51,41,36.06,86,25,134.43a566.78,566.78,0,0,0-13.82,131.66c.16,17.67,1.62,35.35,2.91,53,3.67,49.88-8.44,95.9-34.55,138.16-14.48,23.43-30.3,46-45.57,69a9.54,9.54,0,0,1-2.28,1.78Z" transform="translate(287.08 161.03)"/><path class="b" d="M1654.38,931.92c-38.81-22.18-60-57.94-76.14-97.86-19.75-48.9-30.09-99.48-28.22-152.32,1.7-48,13.9-93.69,30-138.64,19.91-55.68,44.62-109.45,65.16-164.87,3.77-10.15,7.17-20.43,10.75-30.66q0,288.77-.1,577.52C1655.8,927.31,1657.55,930.23,1654.38,931.92Z" transform="translate(287.08 161.03)"/><path class="b" d="M1655.9,171.51c-3.47-16.26-6.62-32.6-10.46-48.77-12.54-52.8-38.17-99.37-69.18-143.24-9.3-13.16-22.61-22-37.33-27.74-52.16-20.43-98.51-50.26-141.52-85.68-13-10.66-27.62-18.6-42-27q147.22,0,294.44-.15c5.2,0,6.23,1,6.22,6.22Q1655.76,8.35,1655.9,171.51Z" transform="translate(287.08 161.03)"/><path class="a" d="M-51.6-160.88c.33,21.24.23,42.54-6.48,62.94-9.25,28.13-25.31,50-56.5,56.22-14.21,2.82-28.7,2.59-43,1.66-41.42-2.67-80.18,6.49-117,24.89L-286.86-9.1c0-48.83.08-97.65-.13-146.47,0-4.53.92-5.45,5.44-5.44Q-166.57-160.74-51.6-160.88Z" transform="translate(287.08 161.03)"/><path class="a" d="M204.9-160.88c-7.87,23.24-9.43,47.4-10.46,71.65-.45,10.58.34,21.2-1.35,31.75A62.85,62.85,0,0,1,130-4.42c-16-.3-28.17-8.41-37.28-20.29C73-50.54,54.07-77.08,34.87-103.38c-13.4-18.36-26.35-37-36.39-57.5Z" transform="translate(287.08 161.03)"/><path class="b" d="M843.49,470.2c-.28,17.54-1.79,34.89-10.81,50.5-9.55,16.5-23.73,27.35-42.22,32-12.57,3.19-21.15-3.7-22.26-16.65-1.32-15.4,3-29.69,9.1-43.31,10.26-22.78,21.27-45.26,36.3-65.42,8.34-11.18,16.81-10.56,22.74,2.2S843.68,456.19,843.49,470.2Z" transform="translate(287.08 161.03)"/></svg>