<svg xmlns="http://www.w3.org/2000/svg" viewBox="0 0 1366.3 768.29"><defs><style>.a{fill:#ffffff;}.b{fill:#41c7f6;}</style></defs><title>1800f_00061</title><path class="a" d="M1367.52,456.85v75.89c-12.55,1.72-24.49,5.9-36.61,9.24-32.57,9-66,15-97.24,28.55a139.24,139.24,0,0,0-22.06,11.69c-27.36,18.21-33.59,40.21-20.68,72.2,4.23,10.49,9.7,20.46,11.35,32,4,27.68,3,55.39,1.32,83.13H277.75c-2.17-2-5-2.19-7.67-3-37.49-11.12-76.11-15.66-114.81-19.84-14.54-1.58-29.27-2.72-43-8.43-9.22-3.84-9.92-9.21-2.67-15.88A50.1,50.1,0,0,1,121,715c12.89-6.61,26.72-10.73,40.37-15.29Q239.76,673.5,298,614.94c20.31-20.54,35.28-44.16,39.73-73.45a328.49,328.49,0,0,0,3.42-43c.45-23.51.24-47,.82-70.54.24-9.38.61-18.75-1.13-27.94-3.81-20-15.56-28-35.08-22.34-22.9,6.68-44.81,3.59-67.06-2.59-16.71-4.64-25-15.39-28.06-31.91-2.9-15.69-4-31.55-5.32-47.36-2.08-24.86-9.88-47.53-24.53-67.53C154.7,192.62,135.34,153,113,115.18,104.46,100.83,95.52,86.71,87.64,72c-5.21-9.7-2.26-14.49,8.64-16.39,11.65-2,23.2.11,34.7,1.49,25.91,3.09,51.77,5.83,77.71.48C246.36,49.84,278.26,32.42,302,1.52H906.11c-.2,3.31,2.61,4.73,4.38,6.7,16,17.76,34.6,32.45,53.66,46.72,48.31,36.17,94.52,74.51,128.06,125.78,19.64,30,40.75,59.25,52,93.83,6.12,18.72,11.19,37.77,16.92,56.62,8.08,26.61,16.18,53.22,31.7,76.77,13.15,19.94,30.54,33.12,54.84,36.75C1287.47,450.63,1327.62,452.47,1367.52,456.85ZM883.58,502.74c.2-26.93-28-51.35-54.63-47.15-9.74,1.53-18.07,6.53-25.51,12.68-14.67,12.12-30.81,20.87-49.71,24.45a45.24,45.24,0,0,0-16.9,6.4c-3.29,2.19-6.49,4.72-6,8.89s4.3,6,7.87,7.39c7.77,3.08,16,2.48,24,1.85,17.2-1.35,33.61,1.67,49.85,7.09,11.45,3.82,22.58,8.81,34.8,10.17C868.07,536.81,883.44,523.48,883.58,502.74ZM774.18,691.88c18.89.12,33.4-2.68,46.55-10.59,18.92-11.37,20.52-28.88,4.09-43.51A55.89,55.89,0,0,0,816.9,632c-28.87-17.73-75.11-13-99.85,10.15-15.39,14.39-13.64,27.92,5.06,37.64C739.58,688.82,758.57,691.14,774.18,691.88Z" transform="translate(-1.37 -1.37)"/><path class="b" d="M302,1.52c-23.78,30.9-55.68,48.32-93.35,56.09-25.94,5.35-51.8,2.61-77.71-.48-11.5-1.38-23-3.51-34.7-1.49-10.9,1.9-13.85,6.69-8.64,16.39,7.88,14.68,16.82,28.8,25.31,43.15,22.39,37.83,41.75,77.44,67.86,113.07,14.65,20,22.45,42.67,24.53,67.53,1.32,15.81,2.42,31.67,5.32,47.36,3,16.52,11.35,27.27,28.06,31.91,22.25,6.18,44.16,9.27,67.06,2.59C325.3,372,337.05,380,340.86,400c1.74,9.19,1.37,18.56,1.13,27.94-.58,23.5-.37,47-.82,70.54a328.49,328.49,0,0,1-3.42,43c-4.45,29.29-19.42,52.91-39.73,73.45Q239.94,673.67,161.4,699.7c-13.65,4.56-27.48,8.68-40.37,15.29a50.1,50.1,0,0,0-11.41,7.41c-7.25,6.67-6.55,12,2.67,15.88,13.71,5.71,28.44,6.85,43,8.43,38.7,4.18,77.32,8.72,114.81,19.84,2.63.78,5.5,1,7.67,3q-135.08,0-270.16.14c-5.2,0-6.24-1-6.22-6.22.24-58.18.15-116.36.15-174.54,19.29-23.92,28.9-51.14,27.93-82C28.64,481,21.73,456,17.38,430.64A93.83,93.83,0,0,0,1.52,391.59q0-192-.15-384c0-5.2,1-6.23,6.22-6.22Q154.82,1.67,302,1.52Z" transform="translate(-1.37 -1.37)"/><path class="b" d="M1367.52,456.85c-39.9-4.38-80-6.22-119.81-12.16-24.3-3.63-41.69-16.81-54.84-36.75-15.52-23.55-23.62-50.16-31.7-76.77-5.73-18.85-10.8-37.9-16.92-56.62-11.29-34.58-32.4-63.81-52-93.83-33.54-51.27-79.75-89.61-128.06-125.78-19.06-14.27-37.69-29-53.66-46.72-1.77-2-4.58-3.39-4.38-6.7H1255.2c-.18,2,1.33,3.16,2.35,4.56,8.53,11.63,18.24,22.26,28.11,32.72,17,18,23.85,38.74,18.46,63.25-2.87,13-6.43,26.06-7.79,39.29-3.1,30.31,9.74,55.48,27.78,78.57,11,14.1,24.11,24.43,43.41,22.94Z" transform="translate(-1.37 -1.37)"/><path class="b" d="M1203.6,769.52c1.64-27.74,2.65-55.45-1.32-83.13-1.65-11.51-7.12-21.48-11.35-32-12.91-32-6.68-54,20.68-72.2a139.24,139.24,0,0,1,22.06-11.69c31.24-13.52,64.67-19.59,97.24-28.55,12.12-3.34,24.06-7.52,36.61-9.24q0,115.35.15,230.7c0,5.2-1,6.25-6.22,6.23C1308.83,769.42,1256.21,769.52,1203.6,769.52Z" transform="translate(-1.37 -1.37)"/><path class="a" d="M1367.52,242.85c-19.3,1.49-32.39-8.84-43.41-22.94-18-23.09-30.88-48.26-27.78-78.57,1.36-13.23,4.92-26.24,7.79-39.29,5.39-24.51-1.48-45.25-18.46-63.25-9.87-10.46-19.58-21.09-28.11-32.72-1-1.4-2.53-2.54-2.35-4.56,35.67,0,71.34.1,107-.13,4.54,0,5.45.92,5.44,5.44Q1367.39,124.84,1367.52,242.85Z" transform="translate(-1.37 -1.37)"/><path class="a" d="M1.52,391.59a93.83,93.83,0,0,1,15.86,39.05C21.73,456,28.64,481,29.45,506.92c1,30.84-8.64,58.06-27.93,82Z" transform="translate(-1.37 -1.37)"/><path class="b" d="M883.58,502.74c-.14,20.74-15.51,34.07-36.29,31.77-12.22-1.36-23.35-6.35-34.8-10.17-16.24-5.42-32.65-8.44-49.85-7.09-8,.63-16.2,1.23-24-1.85-3.57-1.41-7.41-3.2-7.87-7.39s2.74-6.7,6-8.89a45.24,45.24,0,0,1,16.9-6.4c18.9-3.58,35-12.33,49.71-24.45,7.44-6.15,15.77-11.15,25.51-12.68C855.61,451.39,883.78,475.81,883.58,502.74Z" transform="translate(-1.37 -1.37)"/><path class="b" d="M774.18,691.88c-15.61-.74-34.6-3.06-52.07-12.14-18.7-9.72-20.45-23.25-5.06-37.64C741.79,619,788,614.22,816.9,632a55.89,55.89,0,0,1,7.92,5.83c16.43,14.63,14.83,32.14-4.09,43.51C807.58,689.2,793.07,692,774.18,691.88Z" transform="translate(-1.37 -1.37)"/></svg>