<svg xmlns="http://www.w3.org/2000/svg" viewBox="0 0 1943.14 1093.09"><defs><style>.a{fill:#ffffff;}.b{fill:#41c7f6;}</style></defs><title>1800f_00367</title><path class="a" d="M722.46,931.92H-173c1.34-6,5.18-10.89,8-16.19,14.44-27,27.63-54.6,40.41-82.39,13.87-30.19,37.23-43.22,69.81-41.12,25.49,1.65,47,13,66.8,28,27.87,21.13,52.34,46.07,77.76,69.95A138.83,138.83,0,0,0,105.65,903c7.63,5.28,13.53,4.36,20.38-2.14a59,59,0,0,0,9.61-12.62c7.89-13,13.81-27,19.64-41,14.37-34.56,25.12-69.92,24-108-1.11-39-20.25-64.77-57.62-76.11C99.88,656.56,81.25,645,65.11,629.13c-22.35-22-39.49-48-56.21-74.2-32.49-50.94-74.19-91.22-131-114.22-29.72-12-59-25.36-91.11-30.3-22.3-3.43-36.77,5.54-39.75,25.42a48.11,48.11,0,0,0-.21,12.11c2.51,23.85,5,47.7,7.91,71.51,4.53,37.6,13.7,74.55,16.74,112.32,2.22,27.53,3.37,55.39-12.23,80.27-12.56,20-29,36.86-46.14,52.92V-88c2.32-1.48,4.74-2.82,6.93-4.45,22.58-16.8,46.27-31.64,72.48-42.19,29.62-11.93,61-15.54,92.21-20.26,11.13-1.68,22.6-1.69,33.28-5.95h324.8c3.77,3.57,8.78,4.88,13.22,7.23C317.84-121,357.92-72.6,366.6-1.51c4.22,34.64-1.15,67.21-24.15,94.86-10,12-21.29,23-32,34.43-7.5,8.05-14.05,16.64-14.57,28.29-1.13,25,22,59.71,45.5,68.24,11.73,4.25,22.27.26,28.24-10.77,4.81-8.89,6.51-18.54,6.55-28.51.05-13.61-1.31-27.14-.14-40.84,2.52-29.5,13.55-54,37.68-72.13,12.76-9.57,26-18.38,39.52-26.78C487.82,23.83,521.75,1.34,559-15.56c27.88-12.66,55.83-15.17,84.36-2.9,11.61,5,22.92,10.67,34.53,15.63,19.92,8.52,39,19.31,60.74,23.06,8.93,1.54,14-2.63,14.21-11.68C752.92,3,753-2.57,751.47-8c-7.17-25.66,3.2-46.58,18.43-65.85,13.94-17.63,28.77-34.55,42.67-52.21,8.68-11,17.4-22.12,23.73-34.8h604.07c.26,3.52.39,7,.79,10.56,2.8,24.43,3.7,48.9,1.18,73.41-3.16,30.66-6.52,61.3-9.81,91.95-4,36.93-7.52,73.9-14.42,110.45-12.62,66.9-31.11,132.3-50.45,197.48a333.35,333.35,0,0,1-18.39,48.93,144.13,144.13,0,0,1-12.1,21c-21.6,30.66-48.83,36.7-80.77,17-30.36-18.67-59.4-39.41-89.94-57.83-22.08-13.32-44-26.85-64.57-42.54-24.44-18.68-41.73-41.58-45.33-73.23Q1052,196,1050.41,155.5c-.48-12.14-1.58-24.21-6-35.73-5.32-13.93-14.82-20.35-29.74-19.7-10.92.47-20.69,4.77-29.79,10.33-42.58,26-73.33,63-97.4,106-13.79,24.65-17.86,51.38-15.92,79.16A299.19,299.19,0,0,0,914.31,431c23.93,39.57,50.33,77.62,69.44,120,5,11.1,13.08,20.39,23,27.79,22.54,16.75,48.31,19.17,75.12,17.06,23.92-1.89,47.88-5.16,71.79-.49,9.38,1.83,20,4,22.51,15.12,2.65,11.91-6.25,18.4-15,23.94-14.57,9.22-31,13.54-47.67,16.66-33.12,6.19-66,13.09-96.1,29.15q-64.56,34.44-129.12,68.93c-41.92,22.48-73.77,54.47-92.64,98.66-6.56,15.34-16.57,28.33-28.31,40C752.48,902.6,737.43,917.22,722.46,931.92ZM708.59,722.53c10.21-.46,21.87-5.89,32.87-12.77,19.25-12.06,37.12-25.73,47.06-47,8.14-17.45,0-33.94-18.53-38.94a33.11,33.11,0,0,0-23.67,2C718.71,639.24,701.61,662,690.63,690a38.8,38.8,0,0,0-2.9,14.8C687.91,716.8,693.53,722.5,708.59,722.53Z" transform="translate(287.08 161.03)"/><path class="b" d="M722.46,931.92c15-14.7,30-29.32,44.89-44.12,11.74-11.68,21.75-24.67,28.31-40,18.87-44.19,50.72-76.18,92.64-98.66q64.5-34.57,129.12-68.93c30.11-16.06,63-23,96.1-29.15,16.68-3.12,33.1-7.44,47.67-16.66,8.76-5.54,17.66-12,15-23.94-2.48-11.12-13.13-13.29-22.51-15.12-23.91-4.67-47.87-1.4-71.79.49-26.81,2.11-52.58-.31-75.12-17.06-9.95-7.4-18-16.69-23-27.79-19.11-42.38-45.51-80.43-69.44-120a299.19,299.19,0,0,1-42.72-135.42c-1.94-27.78,2.13-54.51,15.92-79.16,24.07-43,54.82-80,97.4-106,9.1-5.56,18.87-9.86,29.79-10.33,14.92-.65,24.42,5.77,29.74,19.7,4.39,11.52,5.49,23.59,6,35.73q1.6,40.55,6.15,80.86c3.6,31.65,20.89,54.55,45.33,73.23,20.53,15.69,42.49,29.22,64.57,42.54C1197,370.55,1226,391.29,1256.4,410c31.94,19.65,59.17,13.61,80.77-17a144.13,144.13,0,0,0,12.1-21A333.35,333.35,0,0,0,1367.66,323c19.34-65.18,37.83-130.58,50.45-197.48C1425,88.94,1428.58,52,1432.53,15c3.29-30.65,6.65-61.29,9.81-91.95,2.52-24.51,1.62-49-1.18-73.41-.4-3.51-.53-7-.79-10.56q105.11,0,210.21-.13c4.53,0,5.45.91,5.44,5.44q-.24,149.12-.12,298.24c-6.89,15.45-14,30.79-20.62,46.35-13.55,31.83-26.89,63.73-33.19,98.06-8.87,48.36,12.15,84.11,53.81,113.62v340a43.26,43.26,0,0,1-4.5-3.9,483.52,483.52,0,0,0-50.69-49c-57.16-47.81-122.78-72.08-197.46-71.3-30.41.32-54.9,12.54-72.78,37.11-18.68,25.66-33.41,53.66-46,82.71-12.25,28.33-7.77,54.68,11.09,79,16.65,21.52,37.34,39.12,56,58.73a101.14,101.14,0,0,0,37,24.51c44.73,17.48,90.7,19.32,137.2,9.43,45.53-9.68,88.06-28,130.1-47.45,0,21.76-.22,43.52.15,65.26.09,5.22-1,6.23-6.23,6.22q-280.41-.25-560.81-.14Z" transform="translate(287.08 161.03)"/><path class="b" d="M-286.86,765c17.19-16.06,33.58-32.89,46.14-52.92,15.6-24.88,14.45-52.74,12.23-80.27-3-37.77-12.21-74.72-16.74-112.32-2.87-23.81-5.4-47.66-7.91-71.51a48.11,48.11,0,0,1,.21-12.11c3-19.88,17.45-28.85,39.75-25.42,32.11,4.94,61.39,18.26,91.11,30.3,56.78,23,98.48,63.28,131,114.22,16.72,26.23,33.86,52.2,56.21,74.2,16.14,15.89,34.77,27.43,56.58,34.06,37.37,11.34,56.51,37.07,57.62,76.11,1.09,38-9.66,73.39-24,108-5.83,14-11.75,28-19.64,41A59,59,0,0,1,126,900.87c-6.85,6.5-12.75,7.42-20.38,2.14a138.83,138.83,0,0,1-15.88-12.84C64.35,866.29,39.88,841.35,12,820.22c-19.83-15-41.31-26.35-66.8-28-32.58-2.1-55.94,10.93-69.81,41.12-12.78,27.79-26,55.4-40.41,82.39-2.84,5.3-6.68,10.14-8,16.19-36.07,0-72.15-.12-108.22.14-4.92,0-5.73-1.33-5.72-5.89C-286.8,872.43-286.86,818.7-286.86,765Z" transform="translate(287.08 161.03)"/><path class="b" d="M836.3-160.88c-6.33,12.68-15,23.78-23.73,34.8-13.9,17.66-28.73,34.58-42.67,52.21C754.67-54.6,744.3-33.68,751.47-8,753-2.57,752.92,3,752.8,8.55c-.2,9.05-5.28,13.22-14.21,11.68-21.73-3.75-40.82-14.54-60.74-23.06-11.61-5-22.92-10.64-34.53-15.63-28.53-12.27-56.48-9.76-84.36,2.9-37.21,16.9-71.14,39.39-105.7,60.84-13.53,8.4-26.76,17.21-39.52,26.78-24.13,18.11-35.16,42.63-37.68,72.13-1.17,13.7.19,27.23.14,40.84,0,10-1.74,19.62-6.55,28.51-6,11-16.51,15-28.24,10.77-23.5-8.53-46.63-43.21-45.5-68.24.52-11.65,7.07-20.24,14.57-28.29,10.68-11.47,22-22.41,32-34.43,23-27.65,28.37-60.22,24.15-94.86C357.92-72.6,317.84-121,256.06-153.65c-4.44-2.35-9.45-3.66-13.22-7.23Z" transform="translate(287.08 161.03)"/><path class="a" d="M1655.9,860.58c-42,19.48-84.57,37.77-130.1,47.45-46.5,9.89-92.47,8.05-137.2-9.43a101.14,101.14,0,0,1-37-24.51c-18.62-19.61-39.31-37.21-56-58.73-18.86-24.36-23.34-50.71-11.09-79,12.56-29.05,27.29-57.05,46-82.71,17.88-24.57,42.37-36.79,72.78-37.11,74.68-.78,140.3,23.49,197.46,71.3a483.52,483.52,0,0,1,50.69,49,43.26,43.26,0,0,0,4.5,3.9Z" transform="translate(287.08 161.03)"/><path class="a" d="M1655.9,400.7c-41.66-29.51-62.68-65.26-53.81-113.62,6.3-34.33,19.64-66.23,33.19-98.06,6.62-15.56,13.73-30.9,20.62-46.35Z" transform="translate(287.08 161.03)"/><path class="b" d="M-82-160.88c-10.68,4.26-22.15,4.27-33.28,5.95-31.19,4.72-62.59,8.33-92.21,20.26-26.21,10.55-49.9,25.39-72.48,42.19-2.19,1.63-4.61,3-6.93,4.45,0-22,.34-43.9-.21-65.84-.17-6.55,1.81-7.18,7.58-7.16C-213.65-160.8-147.8-160.88-82-160.88Z" transform="translate(287.08 161.03)"/><path class="b" d="M708.59,722.53c-15.06,0-20.68-5.73-20.86-17.73a38.8,38.8,0,0,1,2.9-14.8c11-28,28.08-50.76,55.69-64.24a33.11,33.11,0,0,1,23.67-2c18.53,5,26.67,21.49,18.53,38.94-9.94,21.31-27.81,35-47.06,47C730.46,716.64,718.8,722.07,708.59,722.53Z" transform="translate(287.08 161.03)"/></svg>