<svg xmlns="http://www.w3.org/2000/svg" viewBox="0 0 1943.05 1093.09"><defs><style>.a{fill:#ffffff;}.b{fill:#41c7f6;}</style></defs><title>1800f_00316</title><path class="a" d="M-286.86,235.26V130.53c9.67-16.52,18.93-33.29,29.09-49.5,27.86-44.45,50.11-91.11,60.12-143.11,4.3-22.31,9.49-44.54,19.12-65.32,12.18-26.29,28.78-34.33,57.1-27.73,31,7.22,59.45,21.18,88,34.73,33.3,15.82,65.31,33.17,83.68,68,7,13.25,20.55,19.11,35.41,20.51a130.85,130.85,0,0,0,31-.76c25.74-3.74,51.43-7.89,77.23-11.13C242.94-50,292.15-55.31,340.61-65.64c44.22-9.42,88.44-18.75,133-26.4S562-111,604.42-127.2c14.9-5.71,30.53-9.71,46.59-9.2,23.28.74,40.88-10.8,57.79-24.48h640.5c9.6,5,20.25,5.92,30.65,7.5,33.06,5,66.46,5.73,99.76,7.69,32.57,1.93,50.84,6,59.91,45,4.61,19.84,17.82,33,37.09,39.79,6.19,2.18,12.35,4.81,18.75,5.92,25.86,4.47,42.89,20.1,55.13,42.2,1.57,2.85,3.53,5.48,5.31,8.21V517.56c-14.78-1.15-27.84,3.59-40.05,11.49-11.56,7.49-21.29,17-30.87,26.77-11.34,11.52-21.91,23.75-34.1,34.5-16.35,14.43-34.41,19.17-55.46,13.2-16.29-4.61-32.57-9.4-49.1-13C1408,582.28,1374.08,565,1343,541.7c-27.2-20.38-49.92-44.31-61-77.33-5-14.84-9.48-29.87-14.6-44.68-5.81-16.8-13.41-32.78-24.6-46.75-12-15-26.62-25-47-22.18-10.93,1.49-20.74,6.27-30.26,11.63-13.66,7.69-27.08,15.84-41,22.9-23,11.63-45.93,13.64-67.59-3.58-7.14-5.67-14.36-11.41-19.83-18.7-21.71-28.91-50.42-46.74-85.18-55.81-33.86-8.83-65.13-23.2-92.85-45-7.9-6.21-16.41-11.87-26.3-14.79-8.68-2.57-14.39-.55-19.6,7-4.39,6.34-6.88,13.52-8.71,20.88a760.6,760.6,0,0,0-19.18,115.78c-2.73,30.51,4.44,57.86,30.4,77.49a144.68,144.68,0,0,0,26.79,15.68c22.41,10.35,46.12,16.75,70.21,21.3,31.11,5.86,54.49,21.73,69.75,49.55,3.64,6.64,8,12.92,11.53,19.61,22.22,41.75,55.67,69.15,101.71,81.26,41.63,10.95,81.61,26.71,121.49,42.76,50.94,20.51,103.46,34.57,158.55,38,11.05.68,22.3.68,33.07,3.88,8.54,2.54,9.91,6.93,4.27,13.89-5.84,7.22-13.67,11.93-21.78,16.15-22.32,11.63-46,19.89-70.31,25.84a641.52,641.52,0,0,0-170.17,68.85c-44.53,25.79-92,45.46-141.34,60.21-7.09,2.12-14.85,2.07-21.28,6.39H332.39a7.29,7.29,0,0,0-1.93-1.12c-36.94-8.61-74.21-14.58-112.3-12.2C196,920,174.21,924,153.3,931.92H-47c2.8-34.18.51-68.19-4.05-102-5.43-40.4-15.93-79.73-26.16-119.1-14-53.79-26-108-42.06-161.33C-133,504-154.3,461.7-171.42,417.7-198.08,349.22-243.41,292.92-286.86,235.26ZM685.27,514.7c0-9.07-6.53-15.76-15.46-15.84-5.63-.05-10.25,6-10.24,13.35,0,8.67,6.13,15.27,14.06,15.16C681,527.27,685.27,522.63,685.27,514.7Z" transform="translate(287.01 161.03)"/><path class="b" d="M988.07,931.92c6.43-4.32,14.19-4.27,21.28-6.39,49.39-14.75,96.81-34.42,141.34-60.21a641.52,641.52,0,0,1,170.17-68.85c24.3-6,48-14.21,70.31-25.84,8.11-4.22,15.94-8.93,21.78-16.15,5.64-7,4.27-11.35-4.27-13.89-10.77-3.2-22-3.2-33.07-3.88-55.09-3.43-107.61-17.49-158.55-38-39.88-16.05-79.86-31.81-121.49-42.76-46-12.11-79.49-39.51-101.71-81.26-3.56-6.69-7.89-13-11.53-19.61-15.26-27.82-38.64-43.69-69.75-49.55-24.09-4.55-47.8-10.95-70.21-21.3a144.68,144.68,0,0,1-26.79-15.68c-26-19.63-33.13-47-30.4-77.49a760.6,760.6,0,0,1,19.18-115.78c1.83-7.36,4.32-14.54,8.71-20.88,5.21-7.52,10.92-9.54,19.6-7,9.89,2.92,18.4,8.58,26.3,14.79,27.72,21.78,59,36.15,92.85,45,34.76,9.07,63.47,26.9,85.18,55.81,5.47,7.29,12.69,13,19.83,18.7,21.66,17.22,44.57,15.21,67.59,3.58,14-7.06,27.39-15.21,41-22.9,9.52-5.36,19.33-10.14,30.26-11.63,20.35-2.79,35,7.22,47,22.18,11.19,14,18.79,29.95,24.6,46.75,5.12,14.81,9.59,29.84,14.6,44.68,11.13,33,33.85,57,61,77.33,31.13,23.32,65,40.58,103.37,48.85,16.53,3.57,32.81,8.36,49.1,13,21,6,39.11,1.23,55.46-13.2,12.19-10.75,22.76-23,34.1-34.5,9.58-9.74,19.31-19.28,30.87-26.77,12.21-7.9,25.27-12.64,40.05-11.49q0,204.15.14,408.29c0,5.19-1,6.22-6.22,6.21Q1319,931.81,988.07,931.92Z" transform="translate(287.01 161.03)"/><path class="b" d="M-286.86,235.26c43.45,57.66,88.78,114,115.44,182.44,17.12,44,38.42,86.28,52.1,131.74,16,53.28,28.09,107.54,42.06,161.33,10.23,39.37,20.73,78.7,26.16,119.1,4.56,33.86,6.85,67.87,4.05,102h-204.9a92.44,92.44,0,0,0-34.91-21.25Z" transform="translate(287.01 161.03)"/><path class="b" d="M708.8-160.88C691.89-147.2,674.29-135.66,651-136.4c-16.06-.51-31.69,3.49-46.59,9.2C562-111,518.29-99.71,473.63-92s-88.8,17-133,26.4C292.15-55.31,242.94-50,193.86-43.78c-25.8,3.24-51.49,7.39-77.23,11.13a130.85,130.85,0,0,1-31,.76C70.76-33.29,57.2-39.15,50.21-52.4c-18.37-34.83-50.38-52.18-83.68-68-28.51-13.55-56.95-27.51-88-34.73-28.32-6.6-44.92,1.44-57.1,27.73-9.63,20.78-14.82,43-19.12,65.32-10,52-32.26,98.66-60.12,143.11-10.16,16.21-19.42,33-29.09,49.5q0-142.66-.15-285.34c0-5.2,1-6.22,6.22-6.22Q214-160.79,708.8-160.88Z" transform="translate(287.01 161.03)"/><path class="b" d="M1655.9-4.55c-1.78-2.73-3.74-5.36-5.31-8.21-12.24-22.1-29.27-37.73-55.13-42.2-6.4-1.11-12.56-3.74-18.75-5.92-19.27-6.78-32.48-19.95-37.09-39.79-9.07-39.06-27.34-43.09-59.91-45-33.3-2-66.7-2.66-99.76-7.69-10.4-1.58-21-2.47-30.65-7.5q150.27,0,300.52-.15c5.2,0,6.25,1,6.23,6.22C1655.79-104.72,1655.9-54.64,1655.9-4.55Z" transform="translate(287.01 161.03)"/><path class="b" d="M153.3,931.92C174.21,924,196,920,218.16,918.6c38.09-2.38,75.36,3.59,112.3,12.2a7.29,7.29,0,0,1,1.93,1.12Z" transform="translate(287.01 161.03)"/><path class="a" d="M-286.86,910.67a92.44,92.44,0,0,1,34.91,21.25c-10.37,0-20.75-.17-31.11.1-3.28.08-4.09-.61-3.9-3.9C-286.61,922.32-286.86,916.49-286.86,910.67Z" transform="translate(287.01 161.03)"/><path class="b" d="M685.27,514.7c0,7.93-4.26,12.57-11.64,12.67-7.93.11-14.06-6.49-14.06-15.16,0-7.38,4.61-13.4,10.24-13.35C678.74,498.94,685.27,505.63,685.27,514.7Z" transform="translate(287.01 161.03)"/></svg>