<svg xmlns="http://www.w3.org/2000/svg" viewBox="0 0 1366.29 768.29"><defs><style>.a{fill:#ffffff;}.b{fill:#41c7f6;}</style></defs><title>1800f_00046</title><path class="a" d="M1177.8,769.52H332.39c-13-12.95-28.1-23-44-31.92-37.16-20.8-77.6-32.86-118.37-44a180.39,180.39,0,0,1-20.21-6.4c-7-2.83-7.39-5.86-1.5-10.87a87.87,87.87,0,0,1,11.79-8.23c35.56-21.4,70.38-43.89,102.58-70.17,19.87-16.22,36.2-35.08,38.74-61.95a283.85,283.85,0,0,0-1.82-68.85c-5-33.34-8.53-66.34-1.27-100.09,5.1-23.71,2.43-47.81-6.55-70.8-4.4-11.26-13-16.32-24.6-16.83-10.05-.44-19.51,2.12-28.77,5.77-12.91,5.1-25.38,11.43-39.08,14.37-12.06,2.58-20.68-1.51-26.39-12.46a61.77,61.77,0,0,1-6-17.89c-2.91-16.67-4.16-33.81-8.83-50-15-51.67-28-104-48-154.09-6.48-16.26-4.45-20.07,12.65-23,9.71-1.65,19.6-2.32,29.24-4.25,30.79-6.15,59.94-16.34,84.8-36.4H903.08c-.42,3.16,1.94,5.08,3.41,7.32,20.32,30.82,47.21,55.32,76,77.83,47.83,37.4,92.11,78,126.6,128.69,13.29,19.51,22.79,39.67,25,63.29,1.42,15.07,3.83,30.06,5.76,45.09,5.74,44.68,31.44,72.63,73.16,87,18.11,6.23,36.84,8.57,56,8.09,32.85-.81,65.64-3.72,98.54-2.94v69.82c-40.37,15.36-79.77,32.81-117.28,54.32-31.82,18.25-51,44.68-58.08,81.42C1182.73,670.46,1177.14,719.62,1177.8,769.52ZM843.25,525.43c29,.43,45-10.78,48.1-30,2.57-16-6.27-27.06-17.84-36.13-16-12.53-33.63-22.38-52.09-30.85-20.25-9.29-40.38-9.66-60.83-.48a123.76,123.76,0,0,1-41,10.49c-16.65,1.34-33.15,3.53-49.57,6.47-11.19,2-22.58,3.35-32.78,8.83-8.65,4.65-9.25,9.81-2.44,16.62a37.15,37.15,0,0,0,9.94,6.86,138.48,138.48,0,0,0,57,14.28,273.57,273.57,0,0,1,89.94,19.08C810.24,517.79,829,525,843.25,525.43ZM799.53,625.71c-2.13-16.91-8.65-33.59-27.52-43.14-17.3-8.75-32-2.19-45.86,7.54-12.33,8.63-11.95,16.9.49,25.37,9.8,6.68,19.72,13.18,29.64,19.68A76.41,76.41,0,0,0,777.47,645C791.53,649,799.68,642.82,799.53,625.71Z" transform="translate(-1.37 -1.37)"/><path class="b" d="M236.77,1.52c-24.86,20.06-54,30.25-84.8,36.4-9.64,1.93-19.53,2.6-29.24,4.25-17.1,2.91-19.13,6.72-12.65,23,20,50.12,33,102.42,48,154.09,4.67,16.15,5.92,33.29,8.83,50a61.77,61.77,0,0,0,6,17.89c5.71,11,14.33,15,26.39,12.46,13.7-2.94,26.17-9.27,39.08-14.37,9.26-3.65,18.72-6.21,28.77-5.77,11.65.51,20.2,5.57,24.6,16.83,9,23,11.65,47.09,6.55,70.8-7.26,33.75-3.71,66.75,1.27,100.09A283.85,283.85,0,0,1,301.43,536c-2.54,26.87-18.87,45.73-38.74,61.95-32.2,26.28-67,48.77-102.58,70.17a87.87,87.87,0,0,0-11.79,8.23c-5.89,5-5.55,8,1.5,10.87A180.39,180.39,0,0,0,170,693.6c40.77,11.14,81.21,23.2,118.37,44,15.89,8.89,31,19,44,31.92q-162.39,0-324.8.14c-5.2,0-6.22-1-6.22-6.22q.25-377.93,0-755.85c0-5.2,1-6.23,6.22-6.22Q122.18,1.7,236.77,1.52Z" transform="translate(-1.37 -1.37)"/><path class="b" d="M1367.52,415.87c-32.9-.78-65.69,2.13-98.54,2.94-19.14.48-37.87-1.86-56-8.09-41.72-14.35-67.42-42.3-73.16-87-1.93-15-4.34-30-5.76-45.09-2.22-23.62-11.72-43.78-25-63.29-34.49-50.65-78.77-91.29-126.6-128.69-28.77-22.51-55.66-47-76-77.83-1.47-2.24-3.83-4.16-3.41-7.32h341.5c13.64,11.59,27.44,23,40.89,34.82,15.29,13.41,22.16,29.91,19,50.64-2.57,16.92-5.28,34-3.65,51.21,2,21.44,5.43,42.6,15.9,61.85,10.21,18.78,23.31,23.79,43.52,17.11,2.34-.77,4.57-2.3,7.26-1.62Z" transform="translate(-1.37 -1.37)"/><path class="b" d="M1177.8,769.52c-.66-49.9,4.93-99.06,14.36-148.09,7.07-36.74,26.26-63.17,58.08-81.42,37.51-21.51,76.91-39,117.28-54.32q0,138.88.14,277.75c0,5.2-1,6.24-6.21,6.22C1300.23,769.43,1239,769.52,1177.8,769.52Z" transform="translate(-1.37 -1.37)"/><path class="a" d="M1367.52,215.53c-2.69-.68-4.92.85-7.26,1.62-20.21,6.68-33.31,1.67-43.52-17.11-10.47-19.25-13.88-40.41-15.9-61.85-1.63-17.24,1.08-34.29,3.65-51.21,3.14-20.73-3.73-37.23-19-50.64-13.45-11.81-27.25-23.23-40.89-34.82,39.21,0,78.42.1,117.62-.13,4.54,0,5.46.91,5.44,5.44Q1367.37,111.19,1367.52,215.53Z" transform="translate(-1.37 -1.37)"/><path class="b" d="M843.25,525.43c-14.24-.43-33-7.64-51.55-14.87a273.57,273.57,0,0,0-89.94-19.08,138.48,138.48,0,0,1-57-14.28,37.15,37.15,0,0,1-9.94-6.86c-6.81-6.81-6.21-12,2.44-16.62,10.2-5.48,21.59-6.82,32.78-8.83,16.42-2.94,32.92-5.13,49.57-6.47a123.76,123.76,0,0,0,41-10.49c20.45-9.18,40.58-8.81,60.83.48,18.46,8.47,36.11,18.32,52.09,30.85,11.57,9.07,20.41,20.16,17.84,36.13C888.25,514.65,872.21,525.86,843.25,525.43Z" transform="translate(-1.37 -1.37)"/><path class="b" d="M799.53,625.71c.15,17.11-8,23.28-22.06,19.32a76.41,76.41,0,0,1-21.19-9.87c-9.92-6.5-19.84-13-29.64-19.68-12.44-8.47-12.82-16.74-.49-25.37,13.89-9.73,28.56-16.29,45.86-7.54C790.88,592.12,797.4,608.8,799.53,625.71Z" transform="translate(-1.37 -1.37)"/></svg>