<svg xmlns="http://www.w3.org/2000/svg" viewBox="0 0 1943.07 1093.14"><defs><style>.a{fill:#ffffff;}.b{fill:#41c7f6;}</style></defs><title>1800f_00195</title><path class="a" d="M1284,931.92H15.18c-11-5.85-22.9-9.24-35.09-11.4-29-5.13-57.28-5.14-83.3,11.4-59.32,0-118.64-.06-178,.12-4.7,0-5.83-1-5.82-5.79.2-55.28.13-110.56.13-165.84,17-25.71,40.86-45.08,62.19-66.79,17.2-17.52,30.13-37.88,36.83-61.79,5.41-19.3,9.76-39,6.15-59-6.35-35.15-32.29-56.81-68.12-58.14-12.33-.45-24.7-.15-37.05-.19V296c2.83.89,3.26,3.7,4.47,5.79a444.18,444.18,0,0,0,48.44,68.69c19.16,22.17,43.25,37.77,68.68,51.65,14.21,7.76,27.75,16.43,38.29,29.23,12.86,15.62,17.5,34.43,22.15,53.37,8.12,33.05,24.39,61.12,50.09,83.84C-36.11,605-14.47,616.43,7.47,627.32c34.3,17,53.54,10.36,71-23.86,21-41.15,29.59-85.34,30.33-131.08A565.06,565.06,0,0,0,95.34,342.19c-9.28-42.46-28.47-79.27-62.94-107C22.56,227.23,12.62,219.4,3.23,211-10.32,198.76-23.41,186-32.15,169.69S-39.08,138.9-27,124.85c6.84-7.95,15.16-14.1,24.11-19.43C19.67,92,44.19,83.18,69.33,76.25c29-8,58.41-14.4,87.28-22.77,51.41-14.9,97-41.26,139.61-73.19,52.85-39.56,100.34-84.12,134.83-141.17H786.21c.2,1.7-.89,2.78-1.85,4-16.27,20.43-11.93,40.1,11.63,51,20.89,9.67,43.18,10.11,65.49,7.93s44.56-6.49,67-7.93c50.25-3.21,98.15,10.54,146.27,22.26,22.25,5.42,35.54,20,42.66,41.15a168.8,168.8,0,0,0,8.31,21.13C1130.37-11.9,1141-4,1153.61-6.95c10.65-2.53,20.68-6.54,31-9.85,29.25-9.4,54.33-4.11,76.33,18.15,25.39,25.7,44.46,55.65,61.21,87.21,17.6,33.15,37.12,64.91,61,93.94,25,30.31,53.06,57.67,80,86.13a1027.76,1027.76,0,0,0,118.36,107.5c24.41,18.84,51.52,34,74.36,54.92v88c-5.14,11.23-9.85,22.67-15.49,33.64-36.8,71.66-80.58,138.91-129.5,202.8-27.16,35.46-59.25,65.44-99.79,85.57-23.21,11.52-48.28,16-73.28,21-18.37,3.66-31.53,13.78-39.78,30.68C1291.93,905.33,1288,918.6,1284,931.92Z" transform="translate(287.03 161.07)"/><path class="b" d="M431.05-160.88c-34.49,57.05-82,101.61-134.83,141.17C253.57,12.22,208,38.58,156.61,53.48c-28.87,8.37-58.3,14.77-87.28,22.77C44.19,83.18,19.67,92-2.88,105.42c-8.95,5.33-17.27,11.48-24.11,19.43-12.09,14.05-13.91,28.5-5.16,44.84S-10.32,198.76,3.23,211c9.39,8.45,19.33,16.28,29.17,24.21,34.47,27.76,53.66,64.57,62.94,107a565.06,565.06,0,0,1,13.44,130.19c-.74,45.74-9.36,89.93-30.33,131.08-17.44,34.22-36.68,40.87-71,23.86C-14.47,616.43-36.11,605-54.74,588.54c-25.7-22.72-42-50.79-50.09-83.84-4.65-18.94-9.29-37.75-22.15-53.37-10.54-12.8-24.08-21.47-38.29-29.23-25.43-13.88-49.52-29.48-68.68-51.65a444.18,444.18,0,0,1-48.44-68.69c-1.21-2.09-1.64-4.9-4.47-5.79q0-225.24-.17-450.49c0-5.7,1.46-6.49,6.7-6.49Q75.37-160.79,431.05-160.88Z" transform="translate(287.03 161.07)"/><path class="b" d="M1655.9,431.05c-22.84-20.94-50-36.08-74.36-54.92a1027.76,1027.76,0,0,1-118.36-107.5c-26.94-28.46-55-55.82-80-86.13-23.93-29-43.45-60.79-61-93.94-16.75-31.56-35.82-61.51-61.21-87.21-22-22.26-47.08-27.55-76.33-18.15-10.3,3.31-20.33,7.32-31,9.85-12.58,3-23.24-4.95-27.93-14.41a168.8,168.8,0,0,1-8.31-21.13c-7.12-21.15-20.41-35.73-42.66-41.15-48.12-11.72-96-25.47-146.27-22.26-22.4,1.44-44.59,5.76-67,7.93s-44.6,1.74-65.49-7.93c-23.56-10.91-27.9-30.58-11.63-51,1-1.19,2-2.27,1.85-4h745.23c-1.71,2.07-4.28,2.57-6.57,3.58-39.69,17.49-57.88,52.25-46.23,93.89,12.45,44.48,37.41,82.14,70.37,114.27,23.26,22.69,50,41.06,77.4,58.31,9.57,6,18.73,12.83,29.49,16.81Z" transform="translate(287.03 161.07)"/><path class="b" d="M1284,931.92c3.94-13.32,7.89-26.59,14-39.16,8.25-16.9,21.41-27,39.78-30.68,25-5,50.07-9.47,73.28-21,40.54-20.13,72.63-50.11,99.79-85.57,48.92-63.89,92.7-131.14,129.5-202.8,5.64-11,10.35-22.41,15.49-33.64q0,203.38.14,406.77c0,5.19-1,6.22-6.22,6.21Q1466.94,931.79,1284,931.92Z" transform="translate(287.03 161.07)"/><path class="a" d="M1655.9,126c-10.76-4-19.92-10.8-29.49-16.81C1599,91.92,1572.27,73.55,1549,50.86c-33-32.13-57.92-69.79-70.37-114.27-11.65-41.64,6.54-76.4,46.23-93.89,2.29-1,4.86-1.51,6.57-3.58,39.39,0,78.78.17,118.16-.19,5.9-.06,6.42,1.73,6.41,6.78Q1655.77-14.16,1655.9,126Z" transform="translate(287.03 161.07)"/><path class="b" d="M-286.86,514.53c12.35,0,24.72-.26,37.05.19,35.83,1.33,61.77,23,68.12,58.14,3.61,20-.74,39.67-6.15,59-6.7,23.91-19.63,44.27-36.83,61.79-21.33,21.71-45.15,41.08-62.19,66.79Z" transform="translate(287.03 161.07)"/><path class="b" d="M-103.21,931.92c26-16.54,54.34-16.53,83.3-11.4,12.19,2.16,24.06,5.55,35.09,11.4Z" transform="translate(287.03 161.07)"/></svg>