<svg xmlns="http://www.w3.org/2000/svg" viewBox="0 0 1943.05 1093.14"><defs><style>.a{fill:#ffffff;}.b{fill:#41c7f6;}</style></defs><title>1800f_00400</title><path class="a" d="M-286.86,312.66q0-233.35-.14-466.71c0-5.69,1.28-7,7-7q631.77.22,1263.55.14c-.76,5.93,1,11.55,2.47,17.13,22.16,86.8,69.48,158.12,135.25,217.73,39,35.33,80.81,67.32,121.68,100.41,41.77,33.83,82.18,68.82,113.68,113,19.46,27.28,36.77,55.1,37.67,90.12.62,23.94-.54,47.5-9.68,70-10.72,26.46-31.83,42.28-55.89,55.36s-49,25.29-70.94,42.26c-15.42,11.92-27.41,26.17-31.7,45.75-1.94,8.87-4.28,17.71-5.44,26.69-3.36,26.07,8.27,39.33,34.64,41.38a311.44,311.44,0,0,0,37.79.15c34.09-1.49,68.21-2,102.28-3.6,25.78-1.17,50.7-6.3,72.81-20.62,19.23-12.45,33.69-28.51,35.41-52.63,1-14.46-2.48-28.64-4.71-42.83-5.52-35.07,8.46-60,41.79-72.14,37.52-13.69,76.25-13.61,115.27-8.94V664.79c-9.19,11.64-13.88,25.61-19.69,38.93-19.78,45.38-35.61,92.34-54.87,137.93-12.77,30.23-26.16,60.19-39.28,90.27H-50.09c-12.22-12-27.13-20-41.7-28.57-18.07-10.59-37.87-18.3-53.94-32.22-11.76-10.19-15.94-23-12.74-38.2a94.94,94.94,0,0,1,6.54-19.36c7.86-17.48,19.06-32.74,31.4-47.22a856,856,0,0,1,83.76-85.62c31-27.47,51.87-62,66.86-100,12.81-32.48,34.29-56.54,64.16-74.17,29.66-17.51,60.44-32.79,91.26-48.05,22.68-11.23,42.8-25.79,59.57-44.9a324.38,324.38,0,0,0,62.57-106.71c19.82-56.24,38.49-112.9,57-169.6C374.86,106,379.5,73.84,373.5,40.88c-4.21-23.1-10.58-45.31-26.28-63.67-11.23-13.12-23.65-16-39.31-9-10.22,4.56-19.52,10.64-28.56,17.16-26.18,18.86-48.24,42.34-71.73,64.2-31.45,29.28-67.05,50.29-110.33,56.29A437.28,437.28,0,0,0-10.09,134.48c-21.21,8.74-43.63,9.82-66.39,7.24-20.31-2.29-40.43-6.71-61.08-5.45-14,.86-26.7,5-37.82,13.76-13.18,10.4-22,24.33-30.91,38.1-24.84,38.44-47.6,78.19-73.42,116C-281.79,307.17-283,311.06-286.86,312.66ZM434.18,668a263.7,263.7,0,0,0-49.78,4.42,175.78,175.78,0,0,0-20.63,4.92c-37,11.54-56.6,38.46-57.45,77.43-.36,16.35,7.3,27.39,20.51,35.37,9.79,5.92,20.48,9.8,31.51,12.83,35.18,9.68,71.27,11,107.43,11.85,55.69,1.33,105.83,16.69,147,56.41,17.2,16.58,38.74,24.3,62.86,24.16,21.09-.13,41-5.66,60.26-13.62,34.34-14.18,67-32,101.5-46,21.89-8.88,41.51-21.88,60.2-36.33,25.68-19.86,38.44-45.83,36.75-78.24-1-18.38-4.2-36.58-6-54.93-2.41-25.1-18.2-36.22-43.08-31.94-18.25,3.13-34.05,12.49-50.75,19.62-44.7,19.12-91.6,31.87-137.83,46.45-45.63,14.4-91,12-134.78-7.51C521.17,674.76,478.21,668.92,434.18,668Z" transform="translate(287.01 161.03)"/><path class="b" d="M-286.86,312.66c3.85-1.6,5.07-5.49,7.15-8.53,25.82-37.81,48.58-77.56,73.42-116,8.91-13.77,17.73-27.7,30.91-38.1,11.12-8.77,23.78-12.9,37.82-13.76,20.65-1.26,40.77,3.16,61.08,5.45,22.76,2.58,45.18,1.5,66.39-7.24A437.28,437.28,0,0,1,97.29,105.87c43.28-6,78.88-27,110.33-56.29,23.49-21.86,45.55-45.34,71.73-64.2,9-6.52,18.34-12.6,28.56-17.16,15.66-7,28.08-4.13,39.31,9,15.7,18.36,22.07,40.57,26.28,63.67,6,33,1.36,65.1-8.86,96.41-18.5,56.7-37.17,113.36-57,169.6A324.38,324.38,0,0,1,245.08,413.6c-16.77,19.11-36.89,33.67-59.57,44.9-30.82,15.26-61.6,30.54-91.26,48.05-29.87,17.63-51.35,41.69-64.16,74.17-15,38-35.87,72.54-66.86,100a856,856,0,0,0-83.76,85.62c-12.34,14.48-23.54,29.74-31.4,47.22a94.94,94.94,0,0,0-6.54,19.36c-3.2,15.21,1,28,12.74,38.2,16.07,13.92,35.87,21.63,53.94,32.22,14.57,8.54,29.48,16.6,41.7,28.57-76.58,0-153.16-.11-229.74.2-6.51,0-7.18-1.78-7.18-7.57Q-286.74,618.61-286.86,312.66Z" transform="translate(287.01 161.03)"/><path class="b" d="M1655.9,458.37c-39-4.67-77.75-4.75-115.27,8.94-33.33,12.17-47.31,37.07-41.79,72.14,2.23,14.19,5.74,28.37,4.71,42.83-1.72,24.12-16.18,40.18-35.41,52.63-22.11,14.32-47,19.45-72.81,20.62-34.07,1.55-68.19,2.11-102.28,3.6a311.44,311.44,0,0,1-37.79-.15c-26.37-2.05-38-15.31-34.64-41.38,1.16-9,3.5-17.82,5.44-26.69,4.29-19.58,16.28-33.83,31.7-45.75,21.94-17,46.76-29.1,70.94-42.26s45.17-28.9,55.89-55.36c9.14-22.54,10.3-46.1,9.68-70-.9-35-18.21-62.84-37.67-90.12-31.5-44.17-71.91-79.16-113.68-113-40.87-33.09-82.69-65.08-121.68-100.41C1055.47,14.37,1008.15-56.95,986-143.75c-1.43-5.58-3.23-11.2-2.47-17.13H1212.7c22.86,20.4,45.4,17.94,63.75,0q186.69,0,373.37-.15c5.2,0,6.22,1,6.22,6.22Q1655.79,151.77,1655.9,458.37Z" transform="translate(287.01 161.03)"/><path class="b" d="M1542.06,931.92c13.12-30.08,26.51-60,39.28-90.27,19.26-45.59,35.09-92.55,54.87-137.93,5.81-13.32,10.5-27.29,19.69-38.93q0,130.53.14,261.06c0,5.19-1,6.26-6.22,6.22C1613.9,931.78,1578,931.92,1542.06,931.92Z" transform="translate(287.01 161.03)"/><path class="a" d="M1276.45-160.88c-18.35,17.94-40.89,20.4-63.75,0Z" transform="translate(287.01 161.03)"/><path class="b" d="M434.18,668c44,.92,87,6.76,127.79,24.9,43.81,19.47,89.15,21.91,134.78,7.51C743,685.83,789.88,673.08,834.58,654c16.7-7.13,32.5-16.49,50.75-19.62,24.88-4.28,40.67,6.84,43.08,31.94,1.76,18.35,5,36.55,6,54.93,1.69,32.41-11.07,58.38-36.75,78.24-18.69,14.45-38.31,27.45-60.2,36.33-34.46,14-67.16,31.81-101.5,46-19.24,8-39.17,13.49-60.26,13.62-24.12.14-45.66-7.58-62.86-24.16-41.2-39.72-91.34-55.08-147-56.41-36.16-.86-72.25-2.17-107.43-11.85-11-3-21.72-6.91-31.51-12.83-13.21-8-20.87-19-20.51-35.37.85-39,20.43-65.89,57.45-77.43a175.78,175.78,0,0,1,20.63-4.92A263.7,263.7,0,0,1,434.18,668Z" transform="translate(287.01 161.03)"/></svg>