<svg xmlns="http://www.w3.org/2000/svg" viewBox="0 0 1943.05 1093.09"><defs><style>.a{fill:#ffffff;}.b{fill:#41c7f6;}</style></defs><title>1800f_00294</title><path class="a" d="M1655.9,768c0,52.36-.11,104.72.15,157.09,0,5.69-1.29,7-7,7q-728.16-.22-1456.31-.14c1.28-12.11,4.71-23.77,7.83-35.46,6.69-25,14.86-49.55,30.35-70.68,14.1-19.23,31.95-32.45,57.53-30.46,13.83,1.08,25.67,7.3,36.81,14.95,29.49,20.23,60.89,36.18,96.48,42.29,23.9,4.11,47.94,7.31,71.87,11.23,16.2,2.65,32.27,6.13,48.82,5.75,37.63-.87,64.86-23.27,71.46-59.78,3.69-20.47-1.47-39.7-11.35-57.68-23.32-42.46-59.88-66.62-106.57-76.77-45.48-9.89-91.09-6.63-136.57-.79C307.66,681.17,256,686,203.88,678.46c-20.29-2.92-40.43-6.28-59.53-14.24-18.75-7.82-27.79-21-26.39-42,1.45-21.55,10.81-33.06,32.1-36.41,15.5-2.44,31.11-3.6,46.74-4.59,36-2.27,70.47-10.2,102.32-27.74,47.64-26.24,87.15-62.11,121.93-103.46,29.35-34.89,51.38-73.8,62.58-118.32,8.38-33.3,10.53-67.37,11.23-101.52,1-48.56,4-96.91,11.34-145,3-19.47,2.58-39.47-8.86-56.54C465-19.67,422.11-49.48,361.05-43.89c-33.15,3-58.88,18.21-74.57,48.69-14,27.22-20,56.53-24,86.48-3.09,23.27-4,46.83-9.69,69.75-9.05,36.45-25.65,69.64-43.68,102.21a886.54,886.54,0,0,1-98.79,143.42C97.11,422.3,83.12,437.32,75.6,456.9c-8,20.85-10.68,42.47-10.55,64.68.11,18.43-5.79,25.85-23.45,31.32-3.61,1.12-7.32,1.94-11,2.9-13.92,3.67-28,6.66-40.83,13.75-15.78,8.73-24.12,21.51-23.62,40,.3,11.19,3.67,21.42,8.19,31.31,12.39,27.07,11.8,53.32-4,78.9-2.92,4.73-5.6,9.61-8.45,14.38-10.32,17.35-22.58,33.67-28.79,53.22-6.86,21.57-1.1,39.24,16.77,53,10.77,8.28,23.05,13.58,35.49,18.59,20.38,8.21,41.51,14.66,61,25,20,10.58,37,24,41.61,48q-184.41,0-368.82.14c-5.2,0-6.22-1-6.21-6.21q.25-245.13.14-490.25a74.75,74.75,0,0,1,31.21-4.68c14.61.84,29,3.43,43.49,5.39,16.55,2.23,33.16,3.86,49.76,1.23,19.18-3.05,34.5-13.89,48.65-26.29,15.66-13.73,30-28.58,36.26-49.38,6.39-21.36-2.86-40.84-23.28-49.51a130.4,130.4,0,0,0-45.51-10.18c-40.25-1.82-72.1-20-98.79-49.19-15.76-17.25-28.19-36.88-41.79-55.68q0-175.68-.14-351.36c0-5.69,1.28-7,7-7q656.82.22,1313.64.14c-15.34,4-29,11.53-42,20.3-15.28,10.3-32.05,14.38-50.36,13.31-25.91-1.51-49.33,6.13-71.19,19.69C854.59-98,839.38-87.93,823-79.92s-33.62,10.33-51.68,7.6C755.94-74.64,741.38-79.6,726.94-85c-20.33-7.68-40.1-16.81-60.8-23.53A132.21,132.21,0,0,0,644-113.72c-23.21-3.36-36.16,10.41-46.47,28.18C583.48-61.29,575-34.8,567.37-8c-4.65,16.29-9.15,32.54-6.49,49.91,3.58,23.33,14.77,43.4,26.32,63.31,14.71,25.36,30.4,50.15,40,78.19,4.28,12.57,14.59,19.11,27.26,21.6,19.64,3.86,39.32,1.6,58.92-.54,47.21-5.16,93.8-14.65,141-20.22,32.11-3.79,62.23-1.13,90.7,15.68,22,13,45.61,22.86,69.7,31.53,29.76,10.7,59.26,22.12,86,39.43,62.61,40.58,125.55,80.58,192.53,113.75,9.51,4.71,18.67,10.22,26.42,17.63,9.35,8.93,11,17.79,5.79,29.58a52.56,52.56,0,0,1-7.2,11.55c-11.53,14.36-27.13,23.36-42.78,32.16-27.06,15.21-52.36,32.51-65.62,61.9-16.8,37.26-38.39,71.7-59.81,106.32-10,16.16-18.64,33.12-21.69,52.21-5.79,36.26,20,67.63,60.68,55.91,15.18-4.38,29.26-11.18,42.9-19,30.3-17.29,59.88-35.8,90.15-53.16,37.3-21.4,77.82-35,117.27-51.33,38.82-16,65-43.72,74.8-85.44,3.64-15.5,1.63-31.22,2.06-46.84.14-5-.56-10.08,1.32-15,2.54-6.62,8.28-8.5,13.62-3.92,3.44,3,7.06,6,9.48,9.79,20.3,31.39,42.86,61.37,60.5,94.43,24.41,45.75,38.1,95.06,47.15,145.85C1650.69,740.87,1651.26,754.82,1655.9,768Z" transform="translate(287 161.03)"/><path class="b" d="M1655.9,768c-4.64-13.18-5.21-27.13-7.63-40.72-9-50.79-22.74-100.1-47.15-145.85-17.64-33.06-40.2-63-60.5-94.43-2.42-3.75-6-6.83-9.48-9.79-5.34-4.58-11.08-2.7-13.62,3.92-1.88,4.92-1.18,10-1.32,15-.43,15.62,1.58,31.34-2.06,46.84-9.81,41.72-36,69.4-74.8,85.44-39.45,16.3-80,29.93-117.27,51.33-30.27,17.36-59.85,35.87-90.15,53.16-13.64,7.79-27.72,14.59-42.9,19-40.66,11.72-66.47-19.65-60.68-55.91,3.05-19.09,11.69-36.05,21.69-52.21,21.42-34.62,43-69.06,59.81-106.32,13.26-29.39,38.56-46.69,65.62-61.9,15.65-8.8,31.25-17.8,42.78-32.16a52.56,52.56,0,0,0,7.2-11.55c5.21-11.79,3.56-20.65-5.79-29.58-7.75-7.41-16.91-12.92-26.42-17.63-67-33.17-129.92-73.17-192.53-113.75-26.71-17.31-56.21-28.73-86-39.43C990.64,222.76,967,212.9,945,199.9c-28.47-16.81-58.59-19.47-90.7-15.68-47.19,5.57-93.78,15.06-141,20.22-19.6,2.14-39.28,4.4-58.92.54-12.67-2.49-23-9-27.26-21.6-9.56-28-25.25-52.83-40-78.19-11.55-19.91-22.74-40-26.32-63.31C558.22,24.51,562.72,8.26,567.37-8,575-34.8,583.48-61.29,597.55-85.54c10.31-17.77,23.26-31.54,46.47-28.18a132.21,132.21,0,0,1,22.12,5.14c20.7,6.72,40.47,15.85,60.8,23.53,14.44,5.45,29,10.41,44.37,12.73,18.06,2.73,35.27.4,51.68-7.6s31.6-18.07,47.06-27.66c21.86-13.56,45.28-21.2,71.19-19.69,18.31,1.07,35.08-3,50.36-13.31,13-8.77,26.67-16.3,42-20.3h18.21c4.77,1.54,9.6,2.91,14.29,4.66,19.59,7.31,34.11,21.48,47.61,36.58,22.57,25.23,45.48,50.11,69.44,74a687.36,687.36,0,0,1,55.27,62.23c9.81,12.51,20.2,24.66,34.59,32.34,11,5.87,17.54,3.82,23-2.6s11.42-12.81,17.47-18.87a458.79,458.79,0,0,0,44.29-50.7c16.11-21.7,32.24-43.52,40.88-69.56,7.32-22.09,8.19-45.09,8.36-68.12q121.43,0,242.84-.15c5.2,0,6.22,1,6.22,6.22Q1655.8,306.59,1655.9,768Z" transform="translate(287 161.03)"/><path class="b" d="M88,931.92c-4.58-24.06-21.56-37.44-41.61-48-19.52-10.3-40.65-16.75-61-25-12.44-5-24.72-10.31-35.49-18.59-17.87-13.76-23.63-31.43-16.77-53,6.21-19.55,18.47-35.87,28.79-53.22,2.85-4.77,5.53-9.65,8.45-14.38,15.79-25.58,16.38-51.83,4-78.9-4.52-9.89-7.89-20.12-8.19-31.31-.5-18.48,7.84-31.26,23.62-40,12.8-7.09,26.91-10.08,40.83-13.75,3.66-1,7.37-1.78,11-2.9,17.66-5.47,23.56-12.89,23.45-31.32-.13-22.21,2.53-43.83,10.55-64.68,7.52-19.58,21.51-34.6,34.73-50.24a886.54,886.54,0,0,0,98.79-143.42c18-32.57,34.63-65.76,43.68-102.21,5.69-22.92,6.6-46.48,9.69-69.75,4-29.95,10-59.26,24-86.48,15.69-30.48,41.42-45.65,74.57-48.69C422.11-49.48,465-19.67,497.34,28.65c11.44,17.07,11.83,37.07,8.86,56.54-7.33,48.09-10.34,96.44-11.34,145-.7,34.15-2.85,68.22-11.23,101.52-11.2,44.52-33.23,83.43-62.58,118.32-34.78,41.35-74.29,77.22-121.93,103.46C267.27,571,232.79,579,196.8,581.23c-15.63,1-31.24,2.15-46.74,4.59-21.29,3.35-30.65,14.86-32.1,36.41-1.4,21,7.64,34.17,26.39,42,19.1,8,39.24,11.32,59.53,14.24,52.09,7.51,103.78,2.71,155.54-3.94,45.48-5.84,91.09-9.1,136.57.79,46.69,10.15,83.25,34.31,106.57,76.77,9.88,18,15,37.21,11.35,57.68-6.6,36.51-33.83,58.91-71.46,59.78-16.55.38-32.62-3.1-48.82-5.75-23.93-3.92-48-7.12-71.87-11.23-35.59-6.11-67-22.06-96.48-42.29-11.14-7.65-23-13.87-36.81-14.95-25.58-2-43.43,11.23-57.53,30.46-15.49,21.13-23.66,45.68-30.35,70.68-3.12,11.69-6.55,23.35-7.83,35.46Z" transform="translate(287 161.03)"/><path class="a" d="M1407-160.88c-.17,23-1,46-8.36,68.12-8.64,26-24.77,47.86-40.88,69.56a458.79,458.79,0,0,1-44.29,50.7c-6,6.06-11.94,12.33-17.47,18.87s-12,8.47-23,2.6c-14.39-7.68-24.78-19.83-34.59-32.34a687.36,687.36,0,0,0-55.27-62.23c-24-23.93-46.87-48.81-69.44-74-13.5-15.1-28-29.27-47.61-36.58-4.69-1.75-9.52-3.12-14.29-4.66Z" transform="translate(287 161.03)"/><path class="b" d="M-286.86,197.31c13.6,18.8,26,38.43,41.79,55.68,26.69,29.2,58.54,47.37,98.79,49.19a130.4,130.4,0,0,1,45.51,10.18c20.42,8.67,29.67,28.15,23.28,49.51-6.23,20.8-20.6,35.65-36.26,49.38-14.15,12.4-29.47,23.24-48.65,26.29-16.6,2.63-33.21,1-49.76-1.23-14.48-2-28.88-4.55-43.49-5.39a74.75,74.75,0,0,0-31.21,4.68Z" transform="translate(287 161.03)"/></svg>