<svg xmlns="http://www.w3.org/2000/svg" viewBox="0 0 1366.28 768.28"><defs><style>.a{fill:#ffffff;}.b{fill:#41c7f6;}</style></defs><title>1800f_00069</title><path class="a" d="M1367.52,484.17v74.37c-18.88,5.74-37.24,12.92-55.62,20.05-20.24,7.86-40.2,15.83-62.88,15-17.27-.65-34,4.33-49.23,13.2-11.13,6.48-20.61,14.66-26.09,26.64s-1,22.77,11.55,27.34a49.66,49.66,0,0,0,18.61,2.89c9.86-.32,16.37,4,20.14,12.91a74.53,74.53,0,0,1,4.82,15.14c4.84,25.84,4,51.83,2.1,77.85H101.69c-4.57-8.14-1.42-14.24,4.84-19.87,8.58-7.72,18.56-13.12,28.88-17.92,26.67-12.43,55.2-19.63,82.92-29.1,39.59-13.51,72.53-36.42,98.47-69.23,24.25-30.68,34.9-66.21,36.63-104.83,1.32-29.27,2-58.57,6.33-87.64,2.47-16.76,4.56-33.61,1.22-50.53-4.68-23.65-18.57-30.14-39.59-18.42a81.7,81.7,0,0,0-10.06,6.74c-9.64,7.45-18,16.21-26.13,25.27-12.31,13.73-22.78,29.06-36.2,41.84q-23.59,22.5-47.35-.12c-23.54-22.51-29.09-50.54-24.74-81.42,2.74-19.38,10.33-37.46,16-56.07,9.57-31.72,9.83-62.48-11.17-90.31C162.5,192.5,143,167.35,123.32,142.29,110.54,126,95.09,111.84,83.79,94.36,74.14,79.42,78.6,70.61,96.24,68.69a53.92,53.92,0,0,1,11.36,0A153.6,153.6,0,0,1,143,76.49c31.61,11.13,63.73,15.4,95.46,1.76,39-16.78,71.67-42.26,96.94-76.73H927.36c8.36,10.53,18.95,18.79,28.57,28,62.88,60.46,118.67,126.64,166.29,200,27.42,42.23,49.06,86.35,60.78,135.34A203,203,0,0,0,1204.25,419c10.45,18.25,25.28,30,46.15,35,31.89,7.71,63.45,16.76,95.21,25C1352.86,480.91,1359.76,484.42,1367.52,484.17ZM737.1,707.29c8.84,0,17.68.23,26.51,0,18.89-.59,37-4.92,54.49-12a45.25,45.25,0,0,0,15.24-9.72c8.42-8.39,9.23-16.6,2.43-26.49s-17.07-14.35-28-16.63c-38.76-8-74.78-.57-107.88,20.93a41.71,41.71,0,0,0-14.74,16c-4.15,8.23-2.15,15.4,5.61,20.26a45.19,45.19,0,0,0,15.48,6A106.44,106.44,0,0,0,737.1,707.29Z" transform="translate(-1.37 -1.37)"/><path class="b" d="M335.43,1.52c-25.27,34.47-57.9,60-96.94,76.73-31.73,13.64-63.85,9.37-95.46-1.76a153.6,153.6,0,0,0-35.43-7.82,53.92,53.92,0,0,0-11.36,0C78.6,70.61,74.14,79.42,83.79,94.36c11.3,17.48,26.75,31.63,39.53,47.93,19.64,25.06,39.18,50.21,58.37,75.62,21,27.83,20.74,58.59,11.17,90.31-5.62,18.61-13.21,36.69-16,56.07-4.35,30.88,1.2,58.91,24.74,81.42q23.68,22.64,47.35.12c13.42-12.78,23.89-28.11,36.2-41.84,8.11-9.06,16.49-17.82,26.13-25.27A81.7,81.7,0,0,1,321.39,372c21-11.72,34.91-5.23,39.59,18.42,3.34,16.92,1.25,33.77-1.22,50.53-4.29,29.07-5,58.37-6.33,87.64-1.73,38.62-12.38,74.15-36.63,104.83-25.94,32.81-58.88,55.72-98.47,69.23-27.72,9.47-56.25,16.67-82.92,29.1-10.32,4.8-20.3,10.2-28.88,17.92-6.26,5.63-9.41,11.73-4.84,19.87-31.78,0-63.56-.12-95.34.13-4.37,0-4.95-1.11-4.94-5.14.16-50.44.11-100.88.11-151.33,16.62-17.92,33.58-35.52,49.32-54.26,16.86-20.09,19.65-41.78,8.92-65.52-12.88-28.51-26.33-56.75-40.83-84.46-4.5-8.61-9.51-17.18-17.41-23.42V245.88c17.73-24.84,17.73-46,0-71.33,0-55.66.09-111.31-.15-167,0-5.2,1-6.23,6.22-6.22Q171.51,1.67,335.43,1.52Z" transform="translate(-1.37 -1.37)"/><path class="b" d="M1367.52,484.17c-7.76.25-14.66-3.26-21.91-5.14-31.76-8.24-63.32-17.29-95.21-25-20.87-5-35.7-16.79-46.15-35A203,203,0,0,1,1183,364.87c-11.72-49-33.36-93.11-60.78-135.34C1074.6,156.19,1018.81,90,955.93,29.55c-9.62-9.24-20.21-17.5-28.57-28h333.91c3.3,9.85,9.91,17.63,17,24.71,27.17,27.28,52.35,56,68.44,91.5,8.44,18.62,6,26.6-9.23,35.43a53.48,53.48,0,0,1-5.42,2.68c-8.59,3.76-10.11,7-7.67,15.93,2,7.23,6.46,12.95,10.7,18.89,9.79,13.73,20.33,26.79,32.47,38.53Z" transform="translate(-1.37 -1.37)"/><path class="b" d="M1230.92,769.52c1.87-26,2.74-52-2.1-77.85a74.53,74.53,0,0,0-4.82-15.14c-3.77-8.95-10.28-13.23-20.14-12.91a49.66,49.66,0,0,1-18.61-2.89c-12.57-4.57-17.09-15.24-11.55-27.34s15-20.16,26.09-26.64c15.2-8.87,32-13.85,49.23-13.2,22.68.87,42.64-7.1,62.88-15,18.38-7.13,36.74-14.31,55.62-20.05q0,102.84.12,205.66c0,4.53-.91,5.47-5.44,5.44C1318.44,769.43,1274.68,769.52,1230.92,769.52Z" transform="translate(-1.37 -1.37)"/><path class="a" d="M1367.52,229.19c-12.14-11.74-22.68-24.8-32.47-38.53-4.24-5.94-8.73-11.66-10.7-18.89-2.44-8.92-.92-12.17,7.67-15.93a53.48,53.48,0,0,0,5.42-2.68c15.2-8.83,17.67-16.81,9.23-35.43-16.09-35.47-41.27-64.22-68.44-91.5-7-7.08-13.66-14.86-17-24.71,33.65,0,67.29.11,100.93-.13,4.54,0,5.45.92,5.44,5.44Q1367.39,118,1367.52,229.19Z" transform="translate(-1.37 -1.37)"/><path class="a" d="M1.52,385.52c7.9,6.24,12.91,14.81,17.41,23.42,14.5,27.71,28,55.95,40.83,84.46,10.73,23.74,7.94,45.43-8.92,65.52-15.74,18.74-32.7,36.34-49.32,54.26Z" transform="translate(-1.37 -1.37)"/><path class="a" d="M1.52,174.55c17.73,25.32,17.73,46.49,0,71.33Z" transform="translate(-1.37 -1.37)"/><path class="b" d="M737.1,707.29a106.44,106.44,0,0,1-30.9-1.7,45.19,45.19,0,0,1-15.48-6c-7.76-4.86-9.76-12-5.61-20.26a41.71,41.71,0,0,1,14.74-16c33.1-21.5,69.12-29,107.88-20.93,11,2.28,21.27,6.79,28,16.63s6,18.1-2.43,26.49a45.25,45.25,0,0,1-15.24,9.72c-17.47,7.11-35.6,11.44-54.49,12C754.78,707.52,745.94,707.29,737.1,707.29Z" transform="translate(-1.37 -1.37)"/></svg>