<svg xmlns="http://www.w3.org/2000/svg" viewBox="0 0 1943.04 1093.15"><defs><style>.a{fill:#ffffff;}.b{fill:#41c7f6;}</style></defs><title>1800f_00280</title><path class="a" d="M-133.56,931.92c-48.77,0-97.54-.18-146.3.2-6.59,0-7.15-1.87-7.14-7.6q.25-246,.14-491.95c2.22-.47,4.42-1.1,6.67-1.4,22.95-3.06,44.23-10.12,62.31-25.27,9.5-7.95,18.51-16.41,27.49-24.94,12.91-12.26,27.77-21.26,45.67-23.69,20.39-2.76,34.46,4.19,34.07,27.79a437.64,437.64,0,0,1-4.29,52c-2.14,15.73-4.86,31.33-2.1,47.4,3,17.36,11.36,29.86,28.18,36.18,14.06,5.28,28.89,7,43.56,9,33.73,4.5,65.44,13.84,94.38,32.56,25.78,16.67,54.2,25.23,85.44,24.18,18.16-.61,36.39.59,54.57,1.32,11.09.44,22.14,1.8,33.23,2.3,14.63.65,29.32,1.32,43.69-2.65,11.86-3.29,17-10.53,16.4-22.75-.42-8.32-5.12-14.65-9.76-20.94-11.56-15.7-27.2-27-42.55-38.51C208.41,488.87,187,472.44,173,448.41c-10.81-18.5-12-36.69.76-54.74,3.34-4.75,6.69-9.54,10.43-14,24.74-29.41,50.42-58.14,70-91.47,26.06-44.45,55.05-86.39,92.68-122.26,21.68-20.66,37.09-46.1,42.44-76.4,2-11.18,2.35-22.7,5-33.71C404.37,13.42,429.85-19.52,461-48.53c8.46-7.87,19.44-9.14,30.71-6.85A92.18,92.18,0,0,1,518.49-45c20.72,11.63,41.09,24.62,51.6,46.56C579.74,21.74,595,28.76,615.5,29.13c26.43.49,51.62-5.55,76.45-13.83,29.6-9.87,55.37-26.86,81.56-43.17,28.67-17.86,38.93-16.48,66.41,3.63C941.78,50.3,1053.63,96.79,1182,96.07c32-.18,60.8,9.27,85.29,30.28a589.12,589.12,0,0,0,68.35,50.22c31.89,20.23,59.47,45.24,79.18,78.18,17.39,29.08,36.07,57.39,53.1,86.67,29.5,50.76,56,103.1,78,157.6,16.72,41.43,22.45,85.36,29.59,129,4.38,26.73,10.45,53.13,24.4,76.9,12.53,21.36,30.08,33.82,56,31.19v126a284.38,284.38,0,0,1-52-10c-16.64-4.71-32.13-4.37-47.49,4.29-29.74,16.76-43.78,44.16-52.31,75.49H28.84c-.22-12.1.42-24.23-1.43-36.28C24.78,878.56,21.46,861.71,9.83,848c-7.57-8.9-15.69-10.72-26.45-6.55a74.23,74.23,0,0,0-17.12,9.6C-55.15,866.77-73.57,886-94.08,902.77-106.77,913.16-120.72,921.78-133.56,931.92ZM-90.29,636.1a84.5,84.5,0,0,0-23.22-57.62c-15.38-15.84-35.34-18.08-48.39-5.27-7.22,7.08-11.58,16-14.26,25.55-9,31.78-.09,59.65,21,83.53,18.09,20.43,39,17.87,53.53-5.15C-93.68,664.64-90.4,650.78-90.29,636.1ZM1199.25,364.19c-.14,18.2,8,23.6,25,16.55.93-.38,1.82-.88,2.73-1.3,19.92-9.25,35.81-23.62,49.74-40.16,6.49-7.7,11.76-16.44,13.78-26.68,1.89-9.59-2.7-17.59-11.93-20.83a31.29,31.29,0,0,0-15-1.12C1232.27,295.07,1199.49,332.61,1199.25,364.19Z" transform="translate(287 161.03)"/><path class="b" d="M1655.9,736.12c-25.92,2.63-43.47-9.83-56-31.19-14-23.77-20-50.17-24.4-76.9-7.14-43.65-12.87-87.58-29.59-129-22-54.5-48.45-106.84-78-157.6-17-29.28-35.71-57.59-53.1-86.67-19.71-32.94-47.29-57.95-79.18-78.18a589.12,589.12,0,0,1-68.35-50.22c-24.49-21-53.26-30.46-85.29-30.28-128.41.72-240.26-45.77-342.12-120.31-27.48-20.11-37.74-21.49-66.41-3.63-26.19,16.31-52,33.3-81.56,43.17-24.83,8.28-50,14.32-76.45,13.83-20.55-.37-35.76-7.39-45.41-27.55C559.58-20.36,539.21-33.35,518.49-45a92.18,92.18,0,0,0-26.76-10.4c-11.27-2.29-22.25-1-30.71,6.85-31.17,29-56.65,62-66.79,104.38-2.63,11-3,22.53-5,33.71-5.35,30.3-20.76,55.74-42.44,76.4-37.63,35.87-66.62,77.81-92.68,122.26-19.55,33.33-45.23,62.06-70,91.47-3.74,4.44-7.09,9.23-10.43,14-12.72,18.05-11.57,36.24-.76,54.74,14,24,35.44,40.46,57.13,56.74,15.35,11.52,31,22.81,42.55,38.51,4.64,6.29,9.34,12.62,9.76,20.94.62,12.22-4.54,19.46-16.4,22.75-14.37,4-29.06,3.3-43.69,2.65-11.09-.5-22.14-1.86-33.23-2.3-18.18-.73-36.41-1.93-54.57-1.32-31.24,1-59.66-7.51-85.44-24.18-28.94-18.72-60.65-28.06-94.38-32.56-14.67-2-29.5-3.7-43.56-9-16.82-6.32-25.19-18.82-28.18-36.18-2.76-16.07,0-31.67,2.1-47.4a437.64,437.64,0,0,0,4.29-52c.39-23.6-13.68-30.55-34.07-27.79-17.9,2.43-32.76,11.43-45.67,23.69-9,8.53-18,17-27.49,24.94-18.08,15.15-39.36,22.21-62.31,25.27-2.25.3-4.45.93-6.67,1.4q0-293.31-.14-586.62c0-5.69,1.28-7,7-7q134,.32,267.89.15c.59,3.2-1.1,5.91-2,8.75-5.9,18.27-12.94,36.2-16.77,55.09C-35-76.79-34.53-57.33-17.18-42.78-1-29.25,18.31-25.11,38.93-26.67,64.62-28.62,87.11-39.18,108.35-53c32.92-21.46,58.25-50.69,82.78-80.7,7.28-8.91,16.08-16.66,21.36-27.16q718.29,0,1436.58-.14c5.69,0,7,1.28,7,7Q1655.8,291,1655.9,736.12Z" transform="translate(287 161.03)"/><path class="a" d="M212.49-160.88c-5.28,10.5-14.08,18.25-21.36,27.16-24.53,30-49.86,59.24-82.78,80.7C87.11-39.18,64.62-28.62,38.93-26.67,18.31-25.11-1-29.25-17.18-42.78-34.53-57.33-35-76.79-30.93-97c3.83-18.89,10.87-36.82,16.77-55.09.92-2.84,2.61-5.55,2-8.75Z" transform="translate(287 161.03)"/><path class="b" d="M1504.12,931.92c8.53-31.33,22.57-58.73,52.31-75.49,15.36-8.66,30.85-9,47.49-4.29a284.38,284.38,0,0,0,52,10c0,21.5-.17,43,.13,64.5.06,4.54-.92,5.47-5.45,5.45C1601.76,931.84,1552.94,931.92,1504.12,931.92Z" transform="translate(287 161.03)"/><path class="b" d="M-133.56,931.92c12.84-10.14,26.79-18.76,39.48-29.15,20.51-16.79,38.93-36,60.34-51.71a74.23,74.23,0,0,1,17.12-9.6c10.76-4.17,18.88-2.35,26.45,6.55,11.63,13.7,15,30.55,17.58,47.63,1.85,12.05,1.21,24.18,1.43,36.28Z" transform="translate(287 161.03)"/><path class="b" d="M-90.29,636.1c-.11,14.68-3.39,28.54-11.3,41-14.55,23-35.44,25.58-53.53,5.15-21.13-23.88-30-51.75-21-83.53,2.68-9.55,7-18.47,14.26-25.55,13.05-12.81,33-10.57,48.39,5.27A84.5,84.5,0,0,1-90.29,636.1Z" transform="translate(287 161.03)"/><path class="b" d="M1199.25,364.19c.24-31.58,33-69.12,64.35-73.54a31.29,31.29,0,0,1,15,1.12c9.23,3.24,13.82,11.24,11.93,20.83-2,10.24-7.29,19-13.78,26.68-13.93,16.54-29.82,30.91-49.74,40.16-.91.42-1.8.92-2.73,1.3C1207.26,387.79,1199.11,382.39,1199.25,364.19Z" transform="translate(287 161.03)"/></svg>