<svg xmlns="http://www.w3.org/2000/svg" viewBox="0 0 1943.04 1093.11"><defs><style>.a{fill:#41c7f6;}.b{fill:#ffffff;}</style></defs><title>1800f_00292</title><path class="a" d="M1376.62-160.88q136.61,0,273.2-.15c5.2,0,6.22,1,6.22,6.22q-.24,453.06-.14,906.11c-2.53-3.43-2.38-7.65-3.14-11.54a767.68,767.68,0,0,0-28.63-106.87c-15.16-43.21-33.91-85-50.41-127.68a210.2,210.2,0,0,0-25.35-46.54c-5-7-10.47-13.67-17.51-18.79-11.8-8.57-22.3-7.8-32.71,2.25-5.9,5.69-10.17,12.54-14.06,19.67a297.12,297.12,0,0,0-18.59,42.34c-14,39.14-38.77,68.49-75.69,88.16-30.68,16.36-58.4,37.17-84.43,60.25-18.18,16.12-36.93,31.56-58,43.84-14.74,8.59-30.13,15.46-47.26,17.79-33.91,4.61-56.06-18.45-49.93-52,2.61-14.35,8.22-27.63,14.89-40.43,10.87-20.86,22.66-41.25,33.08-62.32,23.1-46.69,53.51-87.4,94.48-120A152.78,152.78,0,0,0,1321.05,410c13.82-19,11.74-32-7.24-45.63-10.94-7.83-22.85-14-34.85-20-46.43-23.06-92.89-46.05-137.45-72.65-26.27-15.67-52.55-31.46-80.94-43.1-47.53-19.49-94.43-40.2-138.88-66.17-20.11-11.74-41.88-15.43-65.07-12.3-30.84,4.17-61.06,11.66-91.81,16.24-26.5,4-53,8.55-79.95,5.47-17.17-2-31.28-8.83-41.33-23.62-8-11.78-18.46-21.49-29.53-30.37-22.68-18.2-45.6-36.11-68.44-54.12a66.76,66.76,0,0,0-15.71-9.1c-8-3.35-13.44-2.21-18.93,4.43a62.38,62.38,0,0,0-7,10.8,199.84,199.84,0,0,0-19.57,58.8c-8.15,46.82-14.6,93.91-24.2,140.51-18.41,89.35-59.1,165.48-129,225.37-47.25,40.47-98.75,72.08-160.79,84-10.9,2.09-21.58,5.4-32.27,8.46-22.21,6.38-33.73,22-37.36,44.14-3.55,21.61,3.2,34.17,23.08,43.31a98.75,98.75,0,0,0,23.18,7c40.36,7.59,78,.07,113-20.86,22.41-13.39,46.89-20.3,72.45-23.13,74.45-8.22,143.06,9.75,206.63,48.22,20.34,12.32,37.5,28.37,50.15,48.78,10,16.13,15.71,33.48,12.86,52.69-4.16,27.91-25.61,48.32-56.47,53.64-23,4-46.32,3.93-69.61,3.12-49.87-1.72-94-17.9-131.17-51.82-12.52-11.42-25.27-22.53-40.08-31.07-39.87-23-71.07-15.91-96.24,22.58-14.5,22.16-24.33,46.55-32.27,71.73-7.87,25-11.22,50.81-15.38,76.51H106.24a27.62,27.62,0,0,1-.9-4.43C104.56,907.72,94,894.6,77.1,885.74,60.35,877,42.49,871.68,24,868.18c-16.64-3.15-33.55-4.84-50-9.1-17-4.41-32.26-11.85-43.78-25.61-17.58-21-20-45.15-14.64-70.85,3.8-18.18,11.19-35.18,18-52.29C-55.86,684.11-53,657.07-55.5,629.17a238.72,238.72,0,0,1-.88-38.65c1.12-15.59,8-24,23-28.21a101.85,101.85,0,0,1,12.63-2.51c20-3,40.16-5,59.73-10.43,15.08-4.19,23.59-13.68,25-29.58,1-11.58,3-23.06,4.3-34.62,3.33-30.82,13.41-58.95,31.82-84.14,7.59-10.4,14.07-21.61,20.88-32.56,26.76-43,46.24-88.68,51.61-139.67,2.55-24.28,9.24-47.64,18.65-70.16C204.18,127.84,217,97,230.19,66.36c11.51-26.75,24.17-53,41.35-76.63,26.69-36.78,61.8-61.65,106.2-72.18,31.46-7.45,53.12,1.79,71.11,28.56,2.26,3.36,4.48,6.75,6.81,10,12.25,17.37,24.46,34.78,39.8,49.65,13.65,13.24,20.84,12.72,32.72-2.18.63-.79,1.18-1.65,1.79-2.45,11.51-15,19.33-32,27-49,10.62-23.5,19.76-47.67,32.41-70.23,10-17.85,19-22.4,39.19-19.51a389.83,389.83,0,0,1,43,9.19c26.91,7,53.4,15.61,80.68,21.27,35.26,7.33,69,4.36,100.36-14.43a233.7,233.7,0,0,1,69.46-27.65c10.81-2.41,21.69-5.13,31-11.65h138.12c13.14,15,26.36,29.85,39.38,44.91,17.06,19.74,37.37,35.35,59.86,48.36,34.39,19.9,69.61,26.38,106.92,8.08C1340.28-80.55,1371.11-110.78,1376.62-160.88Z" transform="translate(287.01 161.03)"/><path class="b" d="M160.88,931.92c4.16-25.7,7.51-51.55,15.38-76.51,7.94-25.18,17.77-49.57,32.27-71.73,25.17-38.49,56.37-45.56,96.24-22.58,14.81,8.54,27.56,19.65,40.08,31.07C382,826.09,426.15,842.27,476,844c23.29.81,46.57.85,69.61-3.12,30.86-5.32,52.31-25.73,56.47-53.64,2.85-19.21-2.87-36.56-12.86-52.69-12.65-20.41-29.81-36.46-50.15-48.78-63.57-38.47-132.18-56.44-206.63-48.22-25.56,2.83-50,9.74-72.45,23.13-35,20.93-72.66,28.45-113,20.86a98.75,98.75,0,0,1-23.18-7c-19.88-9.14-26.63-21.7-23.08-43.31,3.63-22.13,15.15-37.76,37.36-44.14,10.69-3.06,21.37-6.37,32.27-8.46,62-11.94,113.54-43.55,160.79-84,69.94-59.89,110.63-136,129-225.37,9.6-46.6,16.05-93.69,24.2-140.51A199.84,199.84,0,0,1,504,69.92a62.38,62.38,0,0,1,7-10.8c5.49-6.64,11-7.78,18.93-4.43a66.76,66.76,0,0,1,15.71,9.1c22.84,18,45.76,35.92,68.44,54.12,11.07,8.88,21.53,18.59,29.53,30.37,10.05,14.79,24.16,21.66,41.33,23.62,27,3.08,53.45-1.51,79.95-5.47,30.75-4.58,61-12.07,91.81-16.24,23.19-3.13,45,.56,65.07,12.3,44.45,26,91.35,46.68,138.88,66.17,28.39,11.64,54.67,27.43,80.94,43.1,44.56,26.6,91,49.59,137.45,72.65,12,6,23.91,12.14,34.85,20,19,13.59,21.06,26.67,7.24,45.63a152.78,152.78,0,0,1-28.43,29.37c-41,32.62-71.38,73.33-94.48,120-10.42,21.07-22.21,41.46-33.08,62.32-6.67,12.8-12.28,26.08-14.89,40.43-6.13,33.58,16,56.64,49.93,52,17.13-2.33,32.52-9.2,47.26-17.79,21.09-12.28,39.84-27.72,58-43.84,26-23.08,53.75-43.89,84.43-60.25,36.92-19.67,61.68-49,75.69-88.16a297.12,297.12,0,0,1,18.59-42.34c3.89-7.13,8.16-14,14.06-19.67,10.41-10.05,20.91-10.82,32.71-2.25,7,5.12,12.49,11.77,17.51,18.79a210.2,210.2,0,0,1,25.35,46.54c16.5,42.68,35.25,84.47,50.41,127.68a767.68,767.68,0,0,1,28.63,106.87c.76,3.89.61,8.11,3.14,11.54,0,57.9-.09,115.81.14,173.71,0,5.54-1,7.06-6.89,7.06Q905,931.82,160.88,931.92Z" transform="translate(287.01 161.03)"/><path class="b" d="M953.16-160.88c-9.34,6.52-20.22,9.24-31,11.65a233.7,233.7,0,0,0-69.46,27.65c-31.41,18.79-65.1,21.76-100.36,14.43-27.28-5.66-53.77-14.24-80.68-21.27a389.83,389.83,0,0,0-43-9.19c-20.17-2.89-29.18,1.66-39.19,19.51C576.78-95.54,567.64-71.37,557-47.87,549.3-30.81,541.48-13.8,530,1.18c-.61.8-1.16,1.66-1.79,2.45-11.88,14.9-19.07,15.42-32.72,2.18-15.34-14.87-27.55-32.28-39.8-49.65-2.33-3.3-4.55-6.69-6.81-10-18-26.77-39.65-36-71.11-28.56-44.4,10.53-79.51,35.4-106.2,72.18C254.36,13.4,241.7,39.61,230.19,66.36,217,97,204.18,127.84,191.3,158.64c-9.41,22.52-16.1,45.88-18.65,70.16-5.37,51-24.85,96.65-51.61,139.67-6.81,10.95-13.29,22.16-20.88,32.56-18.41,25.19-28.49,53.32-31.82,84.14-1.25,11.56-3.25,23-4.3,34.62-1.45,15.9-10,25.39-25,29.58-19.57,5.44-39.73,7.45-59.73,10.43a101.85,101.85,0,0,0-12.63,2.51c-15,4.25-21.9,12.62-23,28.21a238.72,238.72,0,0,0,.88,38.65c2.54,27.9-.36,54.94-10.87,81.16-6.85,17.11-14.24,34.11-18,52.29-5.38,25.7-2.94,49.86,14.64,70.85C-58.25,847.23-43,854.67-26,859.08c16.44,4.26,33.35,5.95,50,9.1,18.49,3.5,36.35,8.8,53.1,17.56,16.93,8.86,27.46,22,28.24,41.75a27.62,27.62,0,0,0,.9,4.43q-193.35,0-386.71.16c-5.62,0-6.53-1.34-6.53-6.66q.25-257.8.14-515.62c21.1-3,41.83.15,62.57,3.65,24.62,4.15,49.23,6.2,73.5-2.11,22.73-7.77,45.25-16.09,67.41-25.42,43.88-18.48,70.11-51.63,82-97,3.28-12.55-.86-20.44-12.74-25.56-6.59-2.85-13.68-3.49-20.77-3.59-26.7-.39-52.94,4.07-79.06,8.54-38.37,6.56-72.07-2.59-102.35-26.49-18.82-14.85-34.14-32.92-49.16-51.41-6.43-7.9-12.07-16.78-21.37-22q0-161.26-.15-322.53c0-5.69,1.29-7,7-7Q336.56-160.8,953.16-160.88Z" transform="translate(287.01 161.03)"/><path class="a" d="M-286.86,168.48c9.3,5.19,14.94,14.07,21.37,22,15,18.49,30.34,36.56,49.16,51.41,30.28,23.9,64,33.05,102.35,26.49,26.12-4.47,52.36-8.93,79.06-8.54,7.09.1,14.18.74,20.77,3.59,11.88,5.12,16,13,12.74,25.56-11.86,45.33-38.09,78.48-82,97-22.16,9.33-44.68,17.65-67.41,25.42-24.27,8.31-48.88,6.26-73.5,2.11-20.74-3.5-41.47-6.65-62.57-3.65Z" transform="translate(287.01 161.03)"/><path class="b" d="M1376.62-160.88c-5.51,50.1-36.34,80.33-79.18,101.35-37.31,18.3-72.53,11.82-106.92-8.08-22.49-13-42.8-28.62-59.86-48.36-13-15.06-26.24-29.95-39.38-44.91Z" transform="translate(287.01 161.03)"/></svg>