<svg xmlns="http://www.w3.org/2000/svg" viewBox="0 0 1943.1 1093.11"><defs><style>.a{fill:#ffffff;}.b{fill:#41c7f6;}</style></defs><title>1800f_00145</title><path class="a" d="M1655.9,106.25V484.17c-6.54,7.44-11.1,16.2-16.34,24.5-26,41.17-49.12,83.67-62.11,131-8.21,29.95-13.91,60.68-25.45,89.61-13.07,32.75-13.8,65.89-5.93,99.68,8.31,35.74,18.21,70.93,37,102.93H-223.11a8.55,8.55,0,0,1,1.05-2.7c16-17.71,33.11-34.08,54.79-45,35.7-17.91,71.37-35.9,105.88-56,24.52-14.31,49.93-17.58,77.15-9C39.22,826.7,61.41,837.06,83.83,847c16.86,7.45,33.25,16.14,51.37,20.37,30.3,7.07,52.55-10.64,53.38-41.75.47-17.88-6.46-32.56-17.9-45.36-20.31-22.72-46.26-36.52-74.94-45.48-15.53-4.86-31.43-7.17-47.85-5.27-24,2.77-44,14.54-63.4,27.43-17.24,11.42-35.66,17.53-56.5,15.64-18.06-1.63-35.68-4.74-50.72-15.75-16.69-12.23-24-30.29-29-49.37-8.41-32.14-11.82-65.1-15.14-98-2.59-25.66-5.14-51.46-1.42-77.16,3.07-21.2-1.78-40.52-10.34-59.56-19.39-43.15-46.63-80.31-83-110.68-7.38-6.16-14.44-12.72-20.06-20.61-7-9.78-5.19-18,5.2-24.11a90.7,90.7,0,0,1,22.48-9c15.36-4.18,30.7-8.47,46.14-12.33,67.25-16.82,135.6-27.69,204-38.25,55.56-8.58,110.73-8,165.82,3.36,18,3.7,36.11,7.9,54.55,8.88,28.48,1.51,54.83-7.51,80.8-17.82,30.82-12.24,59.72-28.63,90-42.05,37.46-16.61,73.73-18.25,109.71,5.35,26.84,17.61,54.21,34.43,81,52.16,65.33,43.29,137,58.88,214.58,50.28,26.1-2.89,52.33-5.7,78.6-2.06,24.16,3.35,48,1.55,71.45-4.39,59.74-15.12,118.81-10.25,177.62,5.18,22.63,5.94,30.83,14.4,32.73,35a94.56,94.56,0,0,1-.25,17.4,411.82,411.82,0,0,1-12.32,68.56c-5.47,20.42-4.11,39.94,5.93,58.82,6.3,11.82,12,23.95,17.9,36,11.82,24,19.26,50,33.12,73.18,22.56,37.65,51.92,67,95.41,79.55,21.2,6.1,42.5,11.3,64.85,10.14,24.25-1.27,39.57-13.76,44.44-36.87a87.6,87.6,0,0,0,2-16.52c.3-19-.12-37.94.36-56.9,1.19-47,3.54-94,3.88-141,.28-39.41,5.17-78.07,13.29-116.49,8.5-40.26,20.27-79.87,24.11-121.06.92-9.86,1.34-19.75.24-29.53-2.56-22.77-17.26-35.19-42.29-35.48-31.08-.36-58.81,11.14-85.46,25.66-26,14.18-49,33.13-74.3,48.48-6.06,3.68-12.23,7.27-19.22,8.83s-10.37-1.33-10.68-8.64c-.25-6,1.52-11.45,3.94-16.81,8.63-19.15,21.49-35.31,35.48-50.73,18.42-20.3,35.48-41.56,45.69-67.43,7.68-19.47,5.52-37.77-7.51-54.27-7.35-9.31-15.14-18.31-23.23-27-16.37-17.55-32.19-35.81-53.57-47.72-31.65-17.62-65.71-18.75-100.29-13.14-43.14,7-82.87,24-121.52,43.71-14.86,7.59-29.52,15.59-44.52,22.87-19.34,9.39-39,18-60.32,22.18-28.71,5.56-56.89,1.17-85-3.84-32.12-5.72-64.28-11.35-97-10.83-37.19.58-74,5.49-110.8,10.74-28.54,4.07-57.1,8-85.94,2.36-42-8.21-76-26.22-95.15-67.76-13.21-28.73-12.9-53.45,9-77.32,10.05-11,18.61-23.27,27.79-35,1.48-1.9,3.85-3.53,2.84-6.56H1340.2c-.66,3.6,1,6.28,3.31,8.82,4.54,4.91,9.71,8.94,16.11,10.95a132.69,132.69,0,0,1,57.71,36.24c4.31,4.59,9.28,8.55,13.89,12.87,29.92,28.09,62.94,51.3,101.42,66.44,16.43,6.46,32.59,13.66,47.93,22.59,15.63,9.1,26.11,22,31.15,39.36,2.19,7.51,4.11,15.1,6.22,22.64,3,10.78,6.85,21.28,14.29,29.82C1638.75,96.34,1645,104.56,1655.9,106.25Zm-684.57,459a93.06,93.06,0,0,0-13.56-49.69c-10.62-17.74-24.82-32.49-39.27-47-9.57-9.62-18-19.84-18.4-34.4a30.16,30.16,0,0,0-1.11-7.45c-.65-2.28-.68-5.65-4-5.64-2.94,0-3.7,3.09-4.86,5.21-.56,1-.43,2.46-.59,3.71-3.17,25.09-14.45,46.68-29.64,66.28-11.91,15.38-25,29.85-37.18,45-31.6,39.4-50.13,83.48-47,135,1,16.34,4.56,32.1,13.67,46,10.88,16.62,26.24,20.86,44,12.15a81.21,81.21,0,0,0,16.12-9.9c32.89-27.31,65-55.5,93.76-87.26C962.06,616.47,970.71,591.7,971.33,565.26Z" transform="translate(287.05 161.03)"/><path class="b" d="M453.82-160.88c1,3-1.36,4.66-2.84,6.56-9.18,11.75-17.74,24.07-27.79,35C401.26-95.43,401-70.71,414.16-42c19.11,41.54,53.19,59.55,95.15,67.76,28.84,5.64,57.4,1.71,85.94-2.36,36.78-5.25,73.61-10.16,110.8-10.74,32.75-.52,64.91,5.11,97,10.83,28.16,5,56.34,9.4,85,3.84,21.36-4.13,41-12.79,60.32-22.18,15-7.28,29.66-15.28,44.52-22.87,38.65-19.75,78.38-36.72,121.52-43.71,34.58-5.61,68.64-4.48,100.29,13.14,21.38,11.91,37.2,30.17,53.57,47.72,8.09,8.68,15.88,17.68,23.23,27,13,16.5,15.19,34.8,7.51,54.27-10.21,25.87-27.27,47.13-45.69,67.43-14,15.42-26.85,31.58-35.48,50.73-2.42,5.36-4.19,10.81-3.94,16.81.31,7.31,3.59,10.22,10.68,8.64s13.16-5.15,19.22-8.83c25.29-15.35,48.26-34.3,74.3-48.48,26.65-14.52,54.38-26,85.46-25.66,25,.29,39.73,12.71,42.29,35.48,1.1,9.78.68,19.67-.24,29.53-3.84,41.19-15.61,80.8-24.11,121.06-8.12,38.42-13,77.08-13.29,116.49-.34,47-2.69,94-3.88,141-.48,19-.06,37.94-.36,56.9a87.6,87.6,0,0,1-2,16.52c-4.87,23.11-20.19,35.6-44.44,36.87-22.35,1.16-43.65-4-64.85-10.14-43.49-12.53-72.85-41.9-95.41-79.55-13.86-23.14-21.3-49.14-33.12-73.18-5.91-12-11.6-24.16-17.9-36-10-18.88-11.4-38.4-5.93-58.82A411.82,411.82,0,0,0,1152.75,369a94.56,94.56,0,0,0,.25-17.4c-1.9-20.59-10.1-29.05-32.73-35-58.81-15.43-117.88-20.3-177.62-5.18-23.47,5.94-47.29,7.74-71.45,4.39-26.27-3.64-52.5-.83-78.6,2.06-77.54,8.6-149.25-7-214.58-50.28-26.77-17.73-54.14-34.55-81-52.16-36-23.6-72.25-22-109.71-5.35-30.27,13.42-59.17,29.81-90,42.05-26,10.31-52.32,19.33-80.8,17.82-18.44-1-36.5-5.18-54.55-8.88C106.9,249.74,51.73,249.12-3.83,257.7c-68.43,10.56-136.78,21.43-204,38.25-15.44,3.86-30.78,8.15-46.14,12.33a90.7,90.7,0,0,0-22.48,9c-10.39,6.13-12.16,14.33-5.2,24.11,5.62,7.89,12.68,14.45,20.06,20.61,36.4,30.37,63.64,67.53,83,110.68,8.56,19,13.41,38.36,10.34,59.56-3.72,25.7-1.17,51.5,1.42,77.16,3.32,32.94,6.73,65.9,15.14,98,5,19.08,12.27,37.14,29,49.37,15,11,32.66,14.12,50.72,15.75,20.84,1.89,39.26-4.22,56.5-15.64C3.93,744,23.93,732.24,47.89,729.47c16.42-1.9,32.32.41,47.85,5.27,28.68,9,54.63,22.76,74.94,45.48,11.44,12.8,18.37,27.48,17.9,45.36-.83,31.11-23.08,48.82-53.38,41.75-18.12-4.23-34.51-12.92-51.37-20.37-22.42-9.9-44.61-20.26-68.07-27.69-27.22-8.62-52.63-5.35-77.15,9-34.51,20.14-70.18,38.13-105.88,56-21.68,10.87-38.77,27.24-54.79,45a8.55,8.55,0,0,0-1.05,2.7h-63.75V100.18c2.44.53,4.92.94,7.33,1.61,18.87,5.3,38.09,8.07,57.68,6.47,45.62-3.72,91.28-6.3,137-3.27,18.17,1.21,36.17,3.78,53.11,11.24,15.05,6.62,30.61,11.86,46.25,16.9,46.68,15,91.33,11.52,134.42-13,29.48-16.76,60.14-31.23,93.1-40.12a228.93,228.93,0,0,0,29.26-10.36c20.26-8.56,32.3-23.33,35.29-45.48,4.36-32.26,7.62-65,18.87-95.62,10.74-29.26,12.18-59.07,11.46-89.46Z" transform="translate(287.05 161.03)"/><path class="a" d="M337-160.88c.72,30.39-.72,60.2-11.46,89.46C314.24-40.76,311-8.06,306.62,24.2c-3,22.15-15,36.92-35.29,45.48A228.93,228.93,0,0,1,242.07,80c-33,8.89-63.62,23.36-93.1,40.12-43.09,24.49-87.74,28-134.42,13-15.64-5-31.2-10.28-46.25-16.9-16.94-7.46-34.94-10-53.11-11.24-45.76-3-91.42-.45-137,3.27-19.59,1.6-38.81-1.17-57.68-6.47-2.41-.67-4.89-1.08-7.33-1.61,0-84.67.1-169.34-.19-254,0-6.49,1.72-7.2,7.55-7.2Q28.72-160.76,337-160.88Z" transform="translate(287.05 161.03)"/><path class="b" d="M1655.9,106.25c-10.9-1.69-17.15-9.91-23.67-17.4-7.44-8.54-11.28-19-14.29-29.82-2.11-7.54-4-15.13-6.22-22.64-5-17.32-15.52-30.26-31.15-39.36-15.34-8.93-31.5-16.13-47.93-22.59-38.48-15.14-71.5-38.35-101.42-66.44-4.61-4.32-9.58-8.28-13.89-12.87a132.69,132.69,0,0,0-57.71-36.24c-6.4-2-11.57-6-16.11-10.95-2.36-2.54-4-5.22-3.31-8.82q154.82,0,309.62-.15c5.2,0,6.24,1,6.22,6.22Q1655.74-24.28,1655.9,106.25Z" transform="translate(287.05 161.03)"/><path class="b" d="M1583,931.92c-18.76-32-28.66-67.19-37-102.93-7.87-33.79-7.14-66.93,5.93-99.68,11.54-28.93,17.24-59.66,25.45-89.61,13-47.36,36.14-89.86,62.11-131,5.24-8.3,9.8-17.06,16.34-24.5q0,220.84.14,441.68c0,5.19-1,6.31-6.22,6.22C1627.57,931.71,1605.3,931.92,1583,931.92Z" transform="translate(287.05 161.03)"/><path class="b" d="M971.33,565.26c-.62,26.44-9.27,51.21-28.11,72-28.76,31.76-60.87,60-93.76,87.26a81.21,81.21,0,0,1-16.12,9.9c-17.74,8.71-33.1,4.47-44-12.15-9.11-13.92-12.68-29.68-13.67-46-3.12-51.51,15.41-95.59,47-135,12.18-15.18,25.27-29.65,37.18-45,15.19-19.6,26.47-41.19,29.64-66.28.16-1.25,0-2.67.59-3.71,1.16-2.12,1.92-5.2,4.86-5.21,3.34,0,3.37,3.36,4,5.64a30.16,30.16,0,0,1,1.11,7.45c.4,14.56,8.83,24.78,18.4,34.4,14.45,14.55,28.65,29.3,39.27,47A93.06,93.06,0,0,1,971.33,565.26Z" transform="translate(287.05 161.03)"/></svg>