<svg xmlns="http://www.w3.org/2000/svg" viewBox="0 0 1943.04 1093.11"><defs><style>.a{fill:#ffffff;}.b{fill:#41c7f6;}</style></defs><title>1800f_00165</title><path class="a" d="M1655.9,124.46V664.79c-10.4,6.19-19.75,14-30.75,19.31-22.59,10.86-41.76,6.1-56.41-14.3-16.76-23.34-21.76-50.27-23.44-78.07-2.24-36.89,3.79-73.12,9.78-109.28,5.13-30.9,12.38-61.4,16.45-92.51,3.66-28.05,5.83-56.31,11.59-84.06,4.1-19.79,9.12-39.39,12.8-59.26s-7.54-32.37-27.59-32.8a80.47,80.47,0,0,0-32.53,6.4c-65.76,27-121.29,66.25-156.82,130-21.66,38.86-44.22,77.24-66.9,115.52s-49.3,73.54-86.06,99.86c-29.06,20.81-60.75,32.94-97.24,29.23a323.1,323.1,0,0,1-51.31-9.9c-16.78-4.51-31.33-1.33-44.72,9.47a211.91,211.91,0,0,0-24.91,23.28c-24.83,27.68-46.36,58.13-71.66,85.44-17.42,18.8-36.88,34.53-61.4,43.21-14.48,5.13-28.31,4.22-41.47-3.93-7.52-4.67-14.95-9.49-22.51-14.08-25.13-15.25-51-19.25-77.46-3.71-21.76,12.78-37.47,30.67-39.41,56.82C691.58,813,723,846.92,754.72,848.69c11.94.67,23.73-.58,35.49-2.41,21.74-3.37,41.16-.17,56.34,17.86,6.82,8.09,15.11,14.88,23.28,21.71,32.41,27.09,67.68,34.28,107.24,16.8,39.29-17.36,80.26-29.17,123-33.92,14.8-1.65,30.29-3.1,44.14,3.45,34.94,16.51,71.53,15.34,108.51,12.13,23-2,45.94-2.47,68.57,3.07,31,7.59,56.36,25.53,81.11,44.54H306.59c-2.8-16-6.24-31.75-14.81-45.89-13.59-22.39-34.76-34.72-58.24-43.89-33.77-13.2-69.31-15.37-105-16.86-28-1.16-55.93-3.06-83.6-8.51-38-7.49-62-28-69.12-67.36-4.34-24.1-9.84-48-16.07-71.72-12.37-47-39.41-86-69.25-123.38-16.28-20.37-35.38-38.2-52.37-57.93-9.53-11.07-8.93-17.86,1.27-28.32s22.2-19.13,34.13-27.65c24-17.18,49.36-32.7,70.33-53.88,26.27-26.54,30-51.58,10.79-83.47-17.42-28.87-38.76-55-62.61-78.77-14.61-14.57-31.81-22.23-53.66-15.31-14.61,4.63-30.16,6.79-45.61,3.53-32.41-6.84-57.47-23.39-69-55.79-8.18-23-7.67-46.69-2.32-70.3,7.25-32,15.19-63.89,20.11-96.4,4-26.22,6.25-52.69,12-78.64,5.55-25,15.35-48.6,24.85-72.26h1454c-8.25,18.58-6.51,37.31-.89,56.12,12.33,41.22,37.6,74,67.89,103.35,32.59,31.62,69.65,57.62,106.28,84.15,17.18,12.44,33.67,26,53.6,34,34.86,14,71.33,15.31,108.16,13C1597,128,1626.22,122.82,1655.9,124.46ZM594.28,280.86c-18,.67-35,1.07-50.8,8.35-16.19,7.48-20.92,20.53-13.84,36.9,4.68,10.83,11.74,20,19.79,28.5,22.27,23.53,48.74,41.68,75.79,59.05,78.29,50.28,164.16,75.74,257,78.15,10.61.28,21.23.38,31.84.51,28.5.36,51.95,12.86,73.64,30.08,14.64,11.63,28.63,24.11,44.21,34.53,11.23,7.51,23.23,9.48,36.08,4.88,8.32-3,16.78-5.69,24.86-9.23,30.31-13.31,57.33-31.29,76.81-58.59,13.71-19.22,11.71-35.9-5.11-52.3-8.49-8.29-17.92-15.63-26.32-24-31.92-31.83-60.75-66.35-87.33-102.74-16.71-22.88-38.84-37-66.74-42.47-18.21-3.58-36.61-4.38-55-5-21-.71-42,0-62.95-1-31.72-1.52-63.17.17-94.31,6.17-33,6.37-66.07,11.85-99.93,11.53C645.66,284,619.45,282.25,594.28,280.86Z" transform="translate(287 161.05)"/><path class="b" d="M1402.43,931.92c-24.75-19-50.12-36.95-81.11-44.54-22.63-5.54-45.59-5.06-68.57-3.07-37,3.21-73.57,4.38-108.51-12.13-13.85-6.55-29.34-5.1-44.14-3.45-42.77,4.75-83.74,16.56-123,33.92-39.56,17.48-74.83,10.29-107.24-16.8-8.17-6.83-16.46-13.62-23.28-21.71-15.18-18-34.6-21.23-56.34-17.86-11.76,1.83-23.55,3.08-35.49,2.41C723,846.92,691.58,813,693.93,781.45c1.94-26.15,17.65-44,39.41-56.82,26.46-15.54,52.33-11.54,77.46,3.71,7.56,4.59,15,9.41,22.51,14.08,13.16,8.15,27,9.06,41.47,3.93,24.52-8.68,44-24.41,61.4-43.21,25.3-27.31,46.83-57.76,71.66-85.44a211.91,211.91,0,0,1,24.91-23.28c13.39-10.8,27.94-14,44.72-9.47a323.1,323.1,0,0,0,51.31,9.9c36.49,3.71,68.18-8.42,97.24-29.23,36.76-26.32,63.35-61.51,86.06-99.86s45.24-76.66,66.9-115.52c35.53-63.77,91.06-103,156.82-130a80.47,80.47,0,0,1,32.53-6.4c20.05.43,31.23,13.07,27.59,32.8s-8.7,39.47-12.8,59.26c-5.76,27.75-7.93,56-11.59,84.06-4.07,31.11-11.32,61.61-16.45,92.51-6,36.16-12,72.39-9.78,109.28,1.68,27.8,6.68,54.73,23.44,78.07,14.65,20.4,33.82,25.16,56.41,14.3,11-5.29,20.35-13.12,30.75-19.31q0,130.53.14,261.06c0,5.19-1,6.23-6.22,6.22Q1526.13,931.76,1402.43,931.92Z" transform="translate(287 161.05)"/><path class="b" d="M-221.6-160.88c-9.5,23.66-19.3,47.22-24.85,72.26-5.74,26-8,52.42-12,78.64-4.92,32.51-12.86,64.38-20.11,96.4-5.35,23.61-5.86,47.3,2.32,70.3,11.52,32.4,36.58,48.95,69,55.79,15.45,3.26,31,1.1,45.61-3.53,21.85-6.92,39.05.74,53.66,15.31,23.85,23.79,45.19,49.9,62.61,78.77C-26.11,335-29.88,360-56.15,386.53c-21,21.18-46.28,36.7-70.33,53.88-11.93,8.52-23.84,17.11-34.13,27.65s-10.8,17.25-1.27,28.32c17,19.73,36.09,37.56,52.37,57.93,29.84,37.35,56.88,76.37,69.25,123.38,6.23,23.68,11.73,47.62,16.07,71.72,7.07,39.34,31.09,59.87,69.12,67.36,27.67,5.45,55.59,7.35,83.6,8.51,35.7,1.49,71.24,3.66,105,16.86,23.48,9.17,44.65,21.5,58.24,43.89,8.57,14.14,12,29.9,14.81,45.89q-293.31,0-586.62.14c-5.69,0-7-1.28-7-7q.24-539.58,0-1079.14c0-5.69,1.26-7.11,7-7C-260.56-160.63-241.07-160.88-221.6-160.88Z" transform="translate(287 161.05)"/><path class="b" d="M1655.9,124.46c-29.68-1.64-59,3.49-88.42,5.33-36.83,2.3-73.3,1-108.16-13-19.93-8-36.42-21.6-53.6-34C1369.09,56.21,1332,30.21,1299.44-1.41c-30.29-29.38-55.56-62.13-67.89-103.35-5.62-18.81-7.36-37.54.89-56.12H1281c4.83,4.22,11,6.16,16.44,9.22,29.19,16.27,56.08,36.22,84.9,53.05,26.87,15.7,53.81,31.3,84.16,39.6,25.94,7.1,49.81,3.44,70-15.14,26.37-24.22,43.57-54.8,58.65-86.73,18.47,0,36.94.19,55.4-.14,4.54-.08,5.45.92,5.44,5.45Q1655.77-15.56,1655.9,124.46Z" transform="translate(287 161.05)"/><path class="a" d="M1595.18-160.88c-15.08,31.93-32.28,62.51-58.65,86.73-20.22,18.58-44.09,22.24-70,15.14-30.35-8.3-57.29-23.9-84.16-39.6-28.82-16.83-55.71-36.78-84.9-53-5.48-3.06-11.61-5-16.44-9.22Z" transform="translate(287 161.05)"/><path class="b" d="M594.28,280.86c25.17,1.39,51.38,3.11,77.69,3.35,33.86.32,66.89-5.16,99.93-11.53,31.14-6,62.59-7.69,94.31-6.17,20.95,1,42,.25,62.95,1,18.41.62,36.81,1.42,55,5,27.9,5.48,50,19.59,66.74,42.47,26.58,36.39,55.41,70.91,87.33,102.74,8.4,8.38,17.83,15.72,26.32,24,16.82,16.4,18.82,33.08,5.11,52.3-19.48,27.3-46.5,45.28-76.81,58.59-8.08,3.54-16.54,6.25-24.86,9.23-12.85,4.6-24.85,2.63-36.08-4.88-15.58-10.42-29.57-22.9-44.21-34.53-21.69-17.22-45.14-29.72-73.64-30.08-10.61-.13-21.23-.23-31.84-.51-92.86-2.41-178.73-27.87-257-78.15-27.05-17.37-53.52-35.52-75.79-59.05-8-8.5-15.11-17.67-19.79-28.5-7.08-16.37-2.35-29.42,13.84-36.9C559.24,281.93,576.26,281.53,594.28,280.86Z" transform="translate(287 161.05)"/></svg>