<svg xmlns="http://www.w3.org/2000/svg" viewBox="0 0 1943.07 1093.1"><defs><style>.a{fill:#ffffff;}.b{fill:#41c7f6;}</style></defs><title>1800f_00329</title><path class="a" d="M1655.9,329.36V784.69c-18.41,9.5-36.42,19.81-56.13,26.58-14.15,4.86-27.75,4.13-41-2.89-18-9.48-34-21.82-50.51-33.47-15.1-10.66-30.6-21.13-42.12-35.67-32.23-40.64-62.74-82.5-85.18-129.61-8.15-17.11-15.78-34.48-24.36-51.37-10.25-20.16-26.26-33.32-49.41-35.51-18.37-1.74-34.87,5-50.27,14.13-33.41,19.78-63.35,44.29-92.53,69.7-15.74,13.7-27.47,30.17-32.51,50.95-7.76,32-5.77,63.72,1.62,95.33,10.3,44.1,34.71,76.84,77.23,94.85,13,5.52,26.07,11.08,38.31,18.25,37.49,22,73.72,46.09,112.44,66H69.82C57.64,904.69,44,878.21,30.08,851.82,21,834.61,11.9,817.41.22,801.75c-20.07-26.93-37.44-31.22-67.41-16.81-8.64,4.16-17.45,8-26.27,11.72-20.59,8.75-31.89,6.05-46-11a66.33,66.33,0,0,1-7.32-10.56c-7.9-14.68-15.38-29.58-23.31-44.24C-194,686.62-219.56,643.3-241,597.77c-8.93-19-17.94-37.91-27.45-56.6-4.9-9.63-10.43-19-18.4-26.64V352.13c2.77-.13,5.53-.35,8.3-.35,28.22,0,55.88,4.63,83.35,10.44,23.29,4.93,43.81,1.47,59.35-18.25q7-8.91,13.39-18.37c15.07-22.46,27.62-46.52,43.48-68.5,17.79-24.65,38.85-46.58,58.15-70C-3.27,165.84,3.48,142.73-5,115.87a195.52,195.52,0,0,1-4.83-19.1C-12.43,84.66-15.27,72.54-12.34,60c4-17,14.81-22.86,31.16-16.58,12.59,4.84,22.24,13.78,31.29,23.43,17.13,18.27,27.3,40.59,36.51,63.39,5.39,13.35,14.76,22,28.18,26.72,20.39,7.18,41.45,8.43,62.8,7.74,23.78-.78,47.22-5.15,70.9-6.59,68.44-4.18,132.86-21.81,192.83-55.42,31.15-17.45,62.15-35.14,88.81-59.17,29.8-26.88,47.15-59.81,45-101-1.17-22-9.94-42.15-17.94-62.38-5.37-13.59-11.89-26.77-15.32-41.09H810.49c-.13,7.18-5.06,12.45-7.56,18.69-16.81,42-31.37,84.88-46.23,127.62-3.47,10-7.19,20-7.34,30.86-.2,13.84,5.92,21.16,19.4,23.56,6.67,1.19,13.09.28,19.51-1.2,19.49-4.49,35.52-15.5,51.14-27.26,21.25-16,39.87-35.06,60.39-51.92,21.44-17.61,44.78-22.55,70.79-12.1,21,8.45,42.83,11.57,65.37,10.39,56.75-3,112.37,6,168,15.74,57.84,10.13,114.07,27,171.26,39.9,24.4,5.5,48.76,11.34,71.21,23.06,25.24,13.16,41.3,31.73,39.84,62.28a60.43,60.43,0,0,0,9.85,36.13c22.21,33.86,41.55,69.42,62.29,104.15,15.19,25.44,30.52,50.87,54.6,69.25C1625.82,318.08,1639.21,327.16,1655.9,329.36ZM-14.75,613.77c-1.19-21.6-5.21-40.15-17.82-55.27a401.2,401.2,0,0,0-53.27-52.6c-7.25-6-14.86-11.15-24.14-13.62-10.14-2.7-17.39,2.63-18.27,12.87-1.08,12.67,5,22.66,12,31.84,19.67,25.88,41.13,50.35,59.2,77.49,5.43,8.15,12.18,15.45,21.37,19.93,8,3.87,14.35,2.54,17-4.64C-16.61,623.92-15.68,617.62-14.75,613.77Zm1015-587.13c-.06-19.32-12.82-27.51-30.47-19.33-11,5.09-19.92,13-27.21,22.48-14.84,19.38-24.91,40.61-21.24,65.84,3.07,21.05,19,27.13,35.54,13.69C974,95.41,983.62,76.09,992.55,56.5,996.85,47.06,1000.21,37.24,1000.2,26.64Z" transform="translate(287.01 161.04)"/><path class="b" d="M541.85-160.88c3.43,14.32,9.95,27.5,15.32,41.09,8,20.23,16.77,40.33,17.94,62.38,2.18,41.15-15.17,74.08-45,101-26.66,24-57.66,41.72-88.81,59.17-60,33.61-124.39,51.24-192.83,55.42-23.68,1.44-47.12,5.81-70.9,6.59-21.35.69-42.41-.56-62.8-7.74-13.42-4.73-22.79-13.37-28.18-26.72-9.21-22.8-19.38-45.12-36.51-63.39-9-9.65-18.7-18.59-31.29-23.43C2.47,37.17-8.38,43.08-12.34,60c-2.93,12.51-.09,24.63,2.46,36.74A195.52,195.52,0,0,0-5,115.87c8.53,26.86,1.78,50-15.79,71.26-19.3,23.39-40.36,45.32-58.15,70-15.86,22-28.41,46-43.48,68.5Q-128.8,335-135.86,344c-15.54,19.72-36.06,23.18-59.35,18.25-27.47-5.81-55.13-10.48-83.35-10.44-2.77,0-5.53.22-8.3.35q0-253.26-.14-506.52c0-5.35.95-6.66,6.54-6.65q199.43.3,398.85.16c4.42,15.16,14,27,26.13,36.23C178.19-99,216.75-92.23,257.83-98.08c38.47-5.47,71.78-23.26,103-45.35,7.56-5.35,15.74-10,21.63-17.45Z" transform="translate(287.01 161.04)"/><path class="b" d="M1655.9,329.36c-16.69-2.2-30.08-11.28-42.94-21.09-24.08-18.38-39.41-43.81-54.6-69.25-20.74-34.73-40.08-70.29-62.29-104.15a60.43,60.43,0,0,1-9.85-36.13c1.46-30.55-14.6-49.12-39.84-62.28-22.45-11.72-46.81-17.56-71.21-23.06C1318,.52,1261.75-16.37,1203.91-26.5c-55.58-9.74-111.2-18.7-168-15.74-22.54,1.18-44.34-1.94-65.37-10.39-26-10.45-49.35-5.51-70.79,12.1-20.52,16.86-39.14,35.92-60.39,51.92-15.62,11.76-31.65,22.77-51.14,27.26-6.42,1.48-12.84,2.39-19.51,1.2-13.48-2.4-19.6-9.72-19.4-23.56.15-10.84,3.87-20.89,7.34-30.86,14.86-42.74,29.42-85.59,46.23-127.62,2.5-6.24,7.43-11.51,7.56-18.69q419.43,0,838.86-.13c5.19,0,6.72.73,6.71,6.47Q1655.75,87.41,1655.9,329.36Z" transform="translate(287.01 161.04)"/><path class="b" d="M1361.45,931.92c-38.72-19.87-75-44-112.44-66-12.24-7.17-25.28-12.73-38.31-18.25-42.52-18-66.93-50.75-77.23-94.85-7.39-31.61-9.38-63.37-1.62-95.33,5-20.78,16.77-37.25,32.51-50.95,29.18-25.41,59.12-49.92,92.53-69.7,15.4-9.1,31.9-15.87,50.27-14.13,23.15,2.19,39.16,15.35,49.41,35.51,8.58,16.89,16.21,34.26,24.36,51.37,22.44,47.11,53,89,85.18,129.61,11.52,14.54,27,25,42.12,35.67,16.51,11.65,32.56,24,50.51,33.47,13.28,7,26.88,7.75,41,2.89,19.71-6.77,37.72-17.08,56.13-26.58,0,47.31-.08,94.61.12,141.91,0,4.53-.91,5.45-5.44,5.44Q1506,931.8,1361.45,931.92Z" transform="translate(287.01 161.04)"/><path class="b" d="M-286.86,514.53c8,7.6,13.5,17,18.4,26.64,9.51,18.69,18.52,37.63,27.45,56.6,21.45,45.53,47,88.85,70.93,133.07,7.93,14.66,15.41,29.56,23.31,44.24a66.33,66.33,0,0,0,7.32,10.56c14.1,17.07,25.4,19.77,46,11,8.82-3.76,17.63-7.56,26.27-11.72,30-14.41,47.34-10.12,67.41,16.81C11.9,817.41,21,834.61,30.08,851.82c13.87,26.39,27.56,52.87,39.74,80.1q-175.3,0-350.61.14c-5.2,0-6.22-1-6.22-6.21Q-286.73,720.19-286.86,514.53Z" transform="translate(287.01 161.04)"/><path class="a" d="M382.48-160.88c-5.89,7.44-14.07,12.1-21.63,17.45-31.24,22.09-64.55,39.88-103,45.35-41.08,5.85-79.64-.92-113.31-26.57-12.15-9.26-21.71-21.07-26.13-36.23Z" transform="translate(287.01 161.04)"/><path class="b" d="M-14.75,613.77c-.93,3.85-1.86,10.15-4,16-2.63,7.18-9,8.51-17,4.64-9.19-4.48-15.94-11.78-21.37-19.93-18.07-27.14-39.53-51.61-59.2-77.49-7-9.18-13-19.17-12-31.84.88-10.24,8.13-15.57,18.27-12.87,9.28,2.47,16.89,7.65,24.14,13.62a401.2,401.2,0,0,1,53.27,52.6C-20,573.62-15.94,592.17-14.75,613.77Z" transform="translate(287.01 161.04)"/><path class="b" d="M1000.2,26.64c0,10.6-3.35,20.42-7.65,29.86-8.93,19.59-18.56,38.91-35.73,52.82-16.59,13.44-32.47,7.36-35.54-13.69-3.67-25.23,6.4-46.46,21.24-65.84,7.29-9.52,16.22-17.39,27.21-22.48C987.38-.87,1000.14,7.32,1000.2,26.64Z" transform="translate(287.01 161.04)"/></svg>