<svg xmlns="http://www.w3.org/2000/svg" viewBox="0 0 1366.3 768.29"><defs><style>.a{fill:#ffffff;}.b{fill:#41c7f6;}</style></defs><title>1800f_00057</title><path class="a" d="M1367.52,444.71v74.37a18.4,18.4,0,0,0-3.74.3c-28.37,8.25-56.94,15.8-84.94,25.27-21.35,7.23-42.18,15.62-60.81,28.64-12.76,8.92-22.9,19.85-26.79,35.44-3.29,13.22-2.89,26.77-.72,39.86,6.64,40.19,5.3,80.53,4,120.93H302a31.6,31.6,0,0,0-3.78-2.4c-44.6-20.29-91.54-31.71-140.09-37.2-13.77-1.56-27.81-2-40.92-7.19-7.71-3-8.21-6.7-1.87-12,7.51-6.28,16.63-9.66,25.74-12.63,55.34-18,103-49,146.3-87,25-21.94,41.19-48.66,43.92-82.87,2.51-31.46.16-62.63-2.77-93.85-1-11.06-1.12-22.23-3.87-33.08-2.94-11.61-8.73-21.26-20.34-25.73-15.19-5.84-27.88-15.22-39.52-26.26-13.21-12.52-25.95-25.56-39.61-37.57-8.68-7.63-16.76-15.58-21.64-26-22.63-48.34-50.69-93.92-72.26-142.8-11.24-25.46-24.12-50.09-37.82-74.33-6.33-11.19-2.89-16.85,9.86-17.14,11.86-.27,23.78.08,35.63.86,36.33,2.41,71.14-3.07,103.65-19.93,15-7.8,29.27-16.93,39.66-30.85H901.56c2.24,3,4.36,6.18,6.74,9.1C928,34.8,952.8,53.08,977.58,71.5c43.51,32.33,85.13,66.37,116.31,111.93,25.82,37.75,47.46,76.6,55.58,122.39,5.16,29.12,14.16,57.36,29.33,83.23,15.45,26.33,36,45.59,67.72,49.36a603.57,603.57,0,0,0,74.83,4.71C1336.74,443,1352.19,442.47,1367.52,444.71ZM822,443.14c-11-.7-21.37,4.08-31,10.27a216.69,216.69,0,0,1-48.2,23.45,62.79,62.79,0,0,0-17,8.19c-8.77,6.31-8.57,14,.67,19.77,6.78,4.22,14.44,6,22.31,6.6a250.08,250.08,0,0,1,63.49,13.41c11.39,4,22.72,8.26,34.87,9.89,28.48,3.81,49.26-22.07,39.18-49.08C878,463.53,848,443.37,822,443.14Zm-36.1,241.14c9.78-.34,19-1.6,27.51-6,19.59-10,22.81-28.7,7.72-44.81-24.51-26.17-66.16-28.22-93.32-4.58-14.66,12.75-14.18,27.32,1.83,38.27C746.58,678.8,766.05,682.81,785.86,684.28Z" transform="translate(-1.37 -1.37)"/><path class="b" d="M282.31,1.52c-10.39,13.92-24.63,23.05-39.66,30.85C210.14,49.23,175.33,54.71,139,52.3c-11.85-.78-23.77-1.13-35.63-.86-12.75.29-16.19,6-9.86,17.14,13.7,24.24,26.58,48.87,37.82,74.33,21.57,48.88,49.63,94.46,72.26,142.8,4.88,10.42,13,18.37,21.64,26,13.66,12,26.4,25.05,39.61,37.57,11.64,11,24.33,20.42,39.52,26.26,11.61,4.47,17.4,14.12,20.34,25.73,2.75,10.85,2.83,22,3.87,33.08,2.93,31.22,5.28,62.39,2.77,93.85-2.73,34.21-18.92,60.93-43.92,82.87-43.34,38-91,69-146.3,87-9.11,3-18.23,6.35-25.74,12.63-6.34,5.29-5.84,9,1.87,12,13.11,5.16,27.15,5.63,40.92,7.19,48.55,5.49,95.49,16.91,140.09,37.2a31.6,31.6,0,0,1,3.78,2.4q-147.23,0-294.45.14c-5.2,0-6.24-1-6.22-6.22.23-64.25.15-128.5.15-192.75C9.29,557.1,13,542.21,15,526.88c4.11-31.54,1-63-2-94.39-1.15-12.23-4.21-24.36-11.49-34.83q0-195-.15-390.07c0-5.2,1-6.23,6.22-6.22Q144.95,1.69,282.31,1.52Z" transform="translate(-1.37 -1.37)"/><path class="b" d="M1367.52,444.71c-15.33-2.24-30.78-1.68-46.17-1.59a603.57,603.57,0,0,1-74.83-4.71c-31.75-3.77-52.27-23-67.72-49.36-15.17-25.87-24.17-54.11-29.33-83.23-8.12-45.79-29.76-84.64-55.58-122.39-31.18-45.56-72.8-79.6-116.31-111.93C952.8,53.08,928,34.8,908.3,10.62c-2.38-2.92-4.5-6.06-6.74-9.1h350.61a10.59,10.59,0,0,0,1.32,2.65c11,11.83,22.13,23.54,33.08,35.42,9,9.79,16.14,20.55,17.78,34.34,1.71,14.37-1.48,28.17-4.55,41.89-7.87,35.17-3.45,68.11,15.86,98.87,14.79,23.53,25.75,29,51.13,24.92.23,0,.49.13.73.2Z" transform="translate(-1.37 -1.37)"/><path class="b" d="M1194.49,769.52c1.33-40.4,2.67-80.74-4-120.93-2.17-13.09-2.57-26.64.72-39.86,3.89-15.59,14-26.52,26.79-35.44,18.63-13,39.46-21.41,60.81-28.64,28-9.47,56.57-17,84.94-25.27a18.4,18.4,0,0,1,3.74-.3q0,122.19.15,244.36c0,5.2-1,6.25-6.22,6.23C1305.8,769.42,1250.14,769.52,1194.49,769.52Z" transform="translate(-1.37 -1.37)"/><path class="a" d="M1367.52,239.81c-.24-.07-.5-.24-.73-.2-25.38,4.08-36.34-1.39-51.13-24.92-19.31-30.76-23.73-63.7-15.86-98.87,3.07-13.72,6.26-27.52,4.55-41.89-1.64-13.79-8.75-24.55-17.78-34.34-11-11.88-22.08-23.59-33.08-35.42a10.59,10.59,0,0,1-1.32-2.65c36.68,0,73.36.1,110-.13,4.54,0,5.45.92,5.44,5.44Q1367.39,123.32,1367.52,239.81Z" transform="translate(-1.37 -1.37)"/><path class="a" d="M1.52,397.66C8.8,408.13,11.86,420.26,13,432.49c3,31.38,6.08,62.85,2,94.39-2,15.33-5.69,30.22-13.46,43.81Z" transform="translate(-1.37 -1.37)"/><path class="b" d="M822,443.14c26,.23,56.06,20.39,64.32,42.5,10.08,27-10.7,52.89-39.18,49.08-12.15-1.63-23.48-5.9-34.87-9.89a250.08,250.08,0,0,0-63.49-13.41c-7.87-.61-15.53-2.38-22.31-6.6-9.24-5.74-9.44-13.46-.67-19.77a62.79,62.79,0,0,1,17-8.19A216.69,216.69,0,0,0,791,453.41C800.59,447.22,810.92,442.44,822,443.14Z" transform="translate(-1.37 -1.37)"/><path class="b" d="M785.86,684.28c-19.81-1.47-39.28-5.48-56.26-17.09-16-11-16.49-25.52-1.83-38.27,27.16-23.64,68.81-21.59,93.32,4.58,15.09,16.11,11.87,34.76-7.72,44.81C804.84,682.68,795.64,683.94,785.86,684.28Z" transform="translate(-1.37 -1.37)"/></svg>