<svg xmlns="http://www.w3.org/2000/svg" viewBox="0 0 1943.83 1093.81"><defs><style>.a{fill:#ffffff;}.b{fill:#41c7f6;}</style></defs><title>1800f_00097</title><path class="a" d="M569.17,931.92H186.69c2.2-1.16,4.34-2.45,6.61-3.44,34.44-15,64.23-36.28,87.71-65.81,40-50.3,60-107.25,55.58-171.85-1.15-16.9-4.11-33.69-11.37-49.25-10.18-21.83-21.31-29.91-44.86-13.88-17.6,12-36.91,16.75-57.59,9.36-39.63-14.16-78-30.74-111.37-57.34-38.47-30.69-65.59-68-74.85-117.47-6.91-37-16.84-73.35-27.2-109.55a144.57,144.57,0,0,1-4.56-55.56c1.73-16.19,2.59-32.31-.45-48.29-8.92-47-30.39-87.05-67.47-117.93-14.73-12.27-31.56-13.66-47.2-4.88A73.39,73.39,0,0,0-126,137.8c-16,15.83-18.72,32.12-8.78,52.28,1.79,3.62,3.55,7.28,5.55,10.79,15,26.34,28.69,53.4,41.8,80.75C-68,322.1-62.33,364.5-70.7,408.48c-6.81,35.81-9.54,71.61-3.57,107.74,6.45,39,19.35,75.39,44.39,106.6,13.63,17,29.82,31.63,45,47.23C26.71,682,37.78,694.5,46.3,709c14.32,24.35,12.85,47.71-4.17,69.91C32.07,792,18.56,800.06,3.62,806.1c-22,8.89-45.23,14.76-66.11,26.41-43.95,24.53-86.29,51.72-128.69,78.78-10,6.37-20.23,12.41-28.9,20.63-21,0-42-.1-63,.1-3.27,0-4.48-.63-3.83-3.9a16.12,16.12,0,0,0,0-3V45.54c33-4.94,66-6.2,98.81.32,22.59,4.48,44,13.43,65.85,20.42,16.59,5.3,33.24,8,50.65,4C-24.76,59.69,21.83,48.18,68.65,37.6,128.17,24.16,184.83,3,236.56-30.14c26.57-17,49.58-38.26,72-60.27,11.72-11.52,23.15-23.34,36.19-33.42,14.29-11,29.83-13.34,46.31-6.06,22.21,9.8,41.69,24,54.39,44.6,15,24.41,36.41,31.64,63.11,29.94,42.61-2.71,85.12-7.43,127.89-6.6,19.94.39,39.86,1.61,59.79,2.36,35.1,1.31,69.89,5.39,104.64,10.32C838.6-43.91,876.45-39.16,914.7-39c8.89,0,17.7-.52,26.17-3.5,10.63-3.75,17.56-10.5,18.81-22.33a66.09,66.09,0,0,1,4.49-18.34c9.17-22.3,26.38-37.91,43.71-53.54,9.3-8.4,20.56-14.44,28.76-24.13h101.69c-.21,10.42-2.27,20.62-4.71,30.65C1121-78.5,1098.94-32.72,1052.43-2.41c-13.43,8.74-21.07,21.5-23.8,37.23a106.23,106.23,0,0,0-1.84,12.74c-1.18,23.9-.35,47.68,10.13,69.77,9,19,22.63,22.09,38.24,21.61,18.19-.55,35.08-6.73,51.62-14,23-10.11,40.42-27.09,58.06-44.34C1219,47.16,1259.67,31,1308.26,37.82c38.2,5.34,67.51,22.59,86.63,57.38,19.87,36.17,30.47,74.71,34.73,115.31,4.46,42.46,6.67,85.14,13.55,127.36,7.75,47.66,15.64,95.24,30.46,141.38,18.31,57,50.15,104.58,97.79,141.14,26.72,20.51,55.45,38,84.48,55V796.84c-15.87,7-32.18,13.07-47.19,22-27.54,16.41-49.18,37.54-57.82,69.62-3.84,14.27-3.89,28.86-4.27,43.45H1300.74c19.1-10.9,34.13-26.52,48.77-42.5,11.07-12.09,22.49-24,29-39.45,6.8-16.13.35-26.83-17-28.66-2-.21-4-.28-6-.29-33.67-.17-62.21,13.41-88.22,33.36-13.31,10.2-25.19,21.89-32.49,37.35-6.85,14.52-2.55,28.68,11,37.4a36.1,36.1,0,0,1,3.41,2.79H1073.07c-1.43-5.56-4.57-10-8.58-14-12.26-12.29-27.57-19.41-43.38-25.64-35.32-13.92-72.49-17.76-109.93-19.15-69.37-2.57-138.3,3.28-207,12.11C655.93,891.39,611.07,907.42,569.17,931.92Z" transform="translate(287.06 161.76)"/><path class="b" d="M1655.9,675.41c-29-17-57.76-34.51-84.48-55-47.64-36.56-79.48-84.14-97.79-141.14-14.82-46.14-22.71-93.72-30.46-141.38-6.88-42.22-9.09-84.9-13.55-127.36-4.26-40.6-14.86-79.14-34.73-115.31-19.12-34.79-48.43-52-86.63-57.38C1259.67,31,1219,47.16,1184.84,80.6c-17.64,17.25-35.08,34.23-58.06,44.34-16.54,7.27-33.43,13.45-51.62,14-15.61.48-29.25-2.66-38.24-21.61-10.48-22.09-11.31-45.87-10.13-69.77a106.23,106.23,0,0,1,1.84-12.74c2.73-15.73,10.37-28.49,23.8-37.23,46.51-30.31,68.6-76.09,81.19-127.82,2.44-10,4.5-20.23,4.71-30.65H1410c2.44,2.47,4.85,5,7.34,7.41,9.49,9.26,15.64,7.59,19.4-5.26.2-.72.38-1.44.58-2.15h200.34c1.24,14.51.85,29.14,3.31,43.56,2.51,14.69,6.36,28.91,14.91,41.43Z" transform="translate(287.06 161.76)"/><path class="b" d="M1036.64-160.88c-8.2,9.69-19.46,15.73-28.76,24.13-17.33,15.63-34.54,31.24-43.71,53.54a66.09,66.09,0,0,0-4.49,18.34C958.43-53,951.5-46.29,940.87-42.54c-8.47,3-17.28,3.53-26.17,3.5-38.25-.12-76.1-4.87-113.86-10.23-34.75-4.93-69.54-9-104.64-10.32-19.93-.75-39.85-2-59.79-2.36-42.77-.83-85.28,3.89-127.89,6.6-26.7,1.7-48.08-5.53-63.11-29.94-12.7-20.63-32.18-34.8-54.39-44.6-16.48-7.28-32-5-46.31,6.06-13,10.08-24.47,21.9-36.19,33.42-22.38,22-45.39,43.25-72,60.27C184.83,3,128.17,24.16,68.65,37.6,21.83,48.18-24.76,59.69-71.55,70.33c-17.41,4-34.06,1.25-50.65-4-21.9-7-43.26-15.94-65.85-20.42-32.83-6.52-65.86-5.26-98.81-.32,0-66.53.08-133.06-.15-199.59,0-5.7,1.29-7,7-7Q378.31-160.8,1036.64-160.88Z" transform="translate(287.06 161.76)"/><path class="b" d="M-220.08,931.92c8.67-8.22,18.93-14.26,28.9-20.63,42.4-27.06,84.74-54.25,128.69-78.78C-41.61,820.86-18.38,815,3.62,806.1c14.94-6,28.45-14.1,38.51-27.2,17-22.2,18.49-45.56,4.17-69.91-8.52-14.49-19.59-27-31.22-38.94-15.14-15.6-31.33-30.23-45-47.23-25-31.21-37.94-67.62-44.39-106.6-6-36.13-3.24-71.93,3.57-107.74,8.37-44,2.65-86.38-16.77-126.86-13.11-27.35-26.76-54.41-41.8-80.75-2-3.51-3.76-7.17-5.55-10.79-9.94-20.16-7.22-36.45,8.78-52.28A73.39,73.39,0,0,1-110.33,126c15.64-8.78,32.47-7.39,47.2,4.88C-26,161.79-4.58,201.84,4.34,248.84c3,16,2.18,32.1.45,48.29a144.57,144.57,0,0,0,4.56,55.56c10.36,36.2,20.29,72.56,27.2,109.55,9.26,49.5,36.38,86.78,74.85,117.47,33.36,26.6,71.74,43.18,111.37,57.34,20.68,7.39,40,2.61,57.59-9.36,23.55-16,34.68-8,44.86,13.88,7.26,15.56,10.22,32.35,11.37,49.25C341,755.42,321,812.37,281,862.67c-23.48,29.53-53.27,50.8-87.71,65.81-2.27,1-4.41,2.28-6.61,3.44Z" transform="translate(287.06 161.76)"/><path class="b" d="M569.17,931.92c41.9-24.5,86.76-40.53,135-46.72,68.72-8.83,137.65-14.68,207-12.11,37.44,1.39,74.61,5.23,109.93,19.15,15.81,6.23,31.12,13.35,43.38,25.64,4,4,7.15,8.48,8.58,14Z" transform="translate(287.06 161.76)"/><path class="b" d="M1546.62,931.92c.38-14.59.43-29.18,4.27-43.45,8.64-32.08,30.28-53.21,57.82-69.62,15-8.94,31.32-15,47.19-22,0,43.25-.09,86.51.12,129.76,0,4.53-.91,5.48-5.44,5.45C1615.93,931.81,1581.27,931.92,1546.62,931.92Z" transform="translate(287.06 161.76)"/><path class="b" d="M1249.13,931.92a36.1,36.1,0,0,0-3.41-2.79c-13.57-8.72-17.87-22.88-11-37.4,7.3-15.46,19.18-27.15,32.49-37.35,26-20,54.55-33.53,88.22-33.36,2,0,4,.08,6,.29,17.4,1.83,23.85,12.53,17,28.66-6.51,15.42-17.93,27.36-29,39.45-14.64,16-29.67,31.6-48.77,42.5Z" transform="translate(287.06 161.76)"/><path class="a" d="M1655.9-75.89c-8.55-12.52-12.4-26.74-14.91-41.43-2.46-14.42-2.07-29.05-3.31-43.56,6.07,0,14.51-2.37,17.55.66s.67,11.48.67,17.55Z" transform="translate(287.06 161.76)"/><path class="a" d="M1437.34-160.88c-.2.71-.38,1.43-.58,2.15-3.76,12.85-9.91,14.52-19.4,5.26-2.49-2.43-4.9-4.94-7.34-7.41Z" transform="translate(287.06 161.76)"/></svg>