<svg xmlns="http://www.w3.org/2000/svg" viewBox="0 0 1943.24 1093.09"><defs><style>.a{fill:#ffffff;}.b{fill:#41c7f6;}</style></defs><title>1800f_00198</title><path class="a" d="M1309.84,931.92q-794.94,0-1589.87.14c-5.69,0-7-1.27-7-7,.31-32.63.15-65.27.15-97.9a28.94,28.94,0,0,0,2.51-3.66c11.79-24.51,28.38-45.25,49.09-62.79,16.56-14,33.95-27.15,48.37-43.54,11.26-12.8,21.31-26.48,25-43.51,2.18-10,3-20.18-6.59-27.71-7.2-5.65-15.65-8.25-24.38-9.6a175.91,175.91,0,0,1-63-22.54c-10.19-6-20.65-11.58-31-17.35V270.17c2.12,1.28,2.6,3.65,3.66,5.61,19.77,36.46,45.83,67,81.84,88.55,13.44,8,26.57,16.62,39.6,25.33,16,10.7,30.91,22.71,43.32,37.66,17.58,21.19,22,46.55,24.29,72.81,1.61,18.6,1.56,37.34,4.63,55.83,2.85,17.13,11.45,29.35,28.58,34.74,7.72,2.43,15.45,5,23.5,5.8a183.23,183.23,0,0,1,77.69,25.88,107.43,107.43,0,0,0,27.69,12.17c9,2.43,17,.81,23.69-5.89,12-12,16.93-27.49,20.63-43.23,17.7-75.32,16.23-150.9,1.37-226.39-5.91-30-18.4-57.23-40.26-79.38-15.78-16-34.87-27.48-53.79-39.21C1.56,229.27-14.26,215.56-26,197.7c-11.55-17.64-9.58-33.69,5.32-48.62A84.3,84.3,0,0,1-1.09,134.85c15.62-8.52,32.31-14.29,49.29-19.38C78,106.53,109.13,103,139,94.79,283.41,55,390.57-32.72,466-160.88H777.1c.08,11.4-5.53,21.37-8.11,32.12-8,33.49,6.11,58.47,39.18,68.25,29.14,8.62,58.57,5.89,88,2.13,22.05-2.81,43.77-8.22,66-9.56,45.2-2.74,89.25,4.78,132.28,17.84,16.12,4.89,30.75,6.83,45.6-2.93,6.29-4.13,13.73-6.36,21-8.51,21.62-6.36,40.12-.16,53.78,16.66,36.8,45.33,68.81,93.92,90.55,148.34,16.7,41.79,41.1,77.34,75.21,106.7,24,20.6,48.54,40.5,71.2,62.59,31.7,30.89,63.67,61.49,98.74,88.63,33.8,26.15,67.82,52,105.37,72.71V588.9a15.56,15.56,0,0,0-1.85,2.32c-16.12,30.12-34,59.19-52.52,87.86-27,41.81-52.23,84.95-85.47,122.36-28.89,32.52-63,57.55-105.42,69.85-15.46,4.48-31.41,5-47.27,5.87-20.52,1.16-35.62,9.84-44,29.2A204.72,204.72,0,0,0,1309.84,931.92ZM1151.16,8.43c1.34-14.32-6.91-23.67-16.34-32.49s-12.35-8.66-20.76.47c-1.36,1.48-3,2.73-4.26,4.29-11.6,14.25-19.32,30.12-18.91,48.92C1091.12,40,1095,49,1104.63,54.08s18.6,2.1,26.88-3.69C1146.12,40.18,1150.34,25.05,1151.16,8.43Z" transform="translate(287.03 161.03)"/><path class="b" d="M466-160.88C390.57-32.72,283.41,55,139,94.79,109.13,103,78,106.53,48.2,115.47c-17,5.09-33.67,10.86-49.29,19.38a84.3,84.3,0,0,0-19.55,14.23c-14.9,14.93-16.87,31-5.32,48.62,11.7,17.86,27.52,31.57,45.54,42.75,18.92,11.73,38,23.23,53.79,39.21C95.23,301.81,107.72,329,113.63,359c14.86,75.49,16.33,151.07-1.37,226.39-3.7,15.74-8.64,31.26-20.63,43.23-6.72,6.7-14.67,8.32-23.69,5.89a107.43,107.43,0,0,1-27.69-12.17A183.23,183.23,0,0,0-37.44,596.5c-8.05-.81-15.78-3.37-23.5-5.8-17.13-5.39-25.73-17.61-28.58-34.74-3.07-18.49-3-37.23-4.63-55.83-2.26-26.26-6.71-51.62-24.29-72.81-12.41-14.95-27.31-27-43.32-37.66-13-8.71-26.16-17.3-39.6-25.33-36-21.52-62.07-52.09-81.84-88.55-1.06-2-1.54-4.33-3.66-5.61q0-212.35-.17-424.71c0-5.75,1.53-6.47,6.72-6.47Q92.83-160.79,466-160.88Z" transform="translate(287.03 161.03)"/><path class="b" d="M1655.9,434.09c-37.55-20.72-71.57-46.56-105.37-72.71-35.07-27.14-67-57.74-98.74-88.63-22.66-22.09-47.25-42-71.2-62.59-34.11-29.36-58.51-64.91-75.21-106.7C1283.64,49,1251.63.45,1214.83-44.88c-13.66-16.82-32.16-23-53.78-16.66-7.29,2.15-14.73,4.38-21,8.51-14.85,9.76-29.48,7.82-45.6,2.93-43-13.06-87.08-20.58-132.28-17.84-22.21,1.34-43.93,6.75-66,9.56-29.43,3.76-58.86,6.49-88-2.13C775.1-70.29,761-95.27,769-128.76c2.58-10.75,8.19-20.72,8.11-32.12q436.36,0,872.72-.15c5.2,0,7.22,1,6.08,6.22-22.13,2.16-44.06,5.76-65.92,9.7-19.93,3.58-39.56,8.29-57.61,18-32.43,17.45-45.16,44.94-37.57,81,2.42,11.48,6.87,22.2,11.85,32.7,26.24,55.29,67.19,98.62,113.06,137.74,10.66,9.09,22.2,17.53,36.19,21.38Z" transform="translate(287.03 161.03)"/><path class="b" d="M1309.84,931.92a204.72,204.72,0,0,1,9.48-25.56c8.43-19.36,23.53-28,44-29.2,15.86-.9,31.81-1.39,47.27-5.87,42.43-12.3,76.53-37.33,105.42-69.85,33.24-37.41,58.45-80.55,85.47-122.36,18.52-28.67,36.4-57.74,52.52-87.86a15.56,15.56,0,0,1,1.85-2.32q0,168.48.14,337c0,5.19-1,6.22-6.22,6.21Q1479.84,931.78,1309.84,931.92Z" transform="translate(287.03 161.03)"/><path class="a" d="M1655.9,145.71c-14-3.85-25.53-12.29-36.19-21.38-45.87-39.12-86.82-82.45-113.06-137.74-5-10.5-9.43-21.22-11.85-32.7-7.59-36.06,5.14-63.55,37.57-81,18.05-9.71,37.68-14.42,57.61-18,21.86-3.94,43.79-7.54,65.92-9.7Z" transform="translate(287.03 161.03)"/><path class="b" d="M-286.86,596.49c10.33,5.77,20.79,11.34,31,17.35a175.91,175.91,0,0,0,63,22.54c8.73,1.35,17.18,4,24.38,9.6,9.59,7.53,8.77,17.72,6.59,27.71-3.7,17-13.75,30.71-25,43.51-14.42,16.39-31.81,29.52-48.37,43.54-20.71,17.54-37.3,38.28-49.09,62.79a28.94,28.94,0,0,1-2.51,3.66Z" transform="translate(287.03 161.03)"/><path class="b" d="M1151.16,8.43c-.82,16.62-5,31.75-19.65,42-8.28,5.79-17.21,8.81-26.88,3.69s-13.51-14.1-13.74-24.46c-.41-18.8,7.31-34.67,18.91-48.92,1.26-1.56,2.9-2.81,4.26-4.29,8.41-9.13,11.47-9.16,20.76-.47S1152.5-5.89,1151.16,8.43Z" transform="translate(287.03 161.03)"/></svg>