<svg xmlns="http://www.w3.org/2000/svg" viewBox="0 0 1366.62 768.45"><defs><style>.a{fill:#ffffff;}.b{fill:#41c7f6;}</style></defs><title>1800f_00033</title><path class="a" d="M1367.52,384v74.37c-1.6-.5-3,.19-4.31.89-38.08,19.84-76.17,39.68-111.46,64.32-23.23,16.23-42.25,36.27-52.22,63.34-21.69,58.9-37.48,119-33.88,182.6H344.54c-15.93-25-37.19-44.47-62.28-59.91-34.1-21-71.47-34.26-109.39-46.21-6.27-2-12.6-3.83-18.34-7.15-6.42-3.71-7.06-7.2-2.3-12.73,3.81-4.44,8.53-7.87,13.26-11.27,19.52-14,40.09-26.45,59.62-40.47,30.11-21.6,45.08-50.1,43.72-87.43-.8-21.72-.42-43.5-.2-65.25.23-22,4.69-43.12,14.38-63.06a259.25,259.25,0,0,0,11.49-26.41c12.62-35.43,22.1-72,39.67-105.6a48.79,48.79,0,0,0,6-23.28c-.12-8.47-3.95-11.36-12.16-9.07-7.24,2-13.21,6.38-18.86,11-22.65,18.63-45.53,37-69.27,54.2-14.12,10.24-27.68,21.38-43.76,28.53-19,8.44-34.46,2-42.35-17.18-5.65-13.74-5.61-28.18-4.39-42.6a190.61,190.61,0,0,0-1.48-45.35c-7.25-47.05-20.51-92.73-31.79-138.87-5.07-20.72-3.26-24.69,16.88-31.17,18.82-6.06,37.24-13,54.52-22.68,3-1.65,6.75-2.36,8.25-6.06H915.22a294.36,294.36,0,0,0,21.89,34.56c23.21,32.15,52.41,58.88,79.56,87.44,17.95,18.87,36.6,37.14,51.06,59,11.6,17.53,24,34.37,38.17,50a60.67,60.67,0,0,1,15.77,37c1.17,15.37,2,30.76,3,46.13,1,15.65,2.36,31.27,7.48,46.25,4.31,12.6,9.8,16.27,22.95,16.59,10.35.26,20.73.69,31,1.72a416.44,416.44,0,0,0,78.71,0c22.06-2,44-7.66,66.35-3.76C1343.38,378.53,1355.42,381.44,1367.52,384ZM840.77,508.76c8.7.21,17.15-.76,25.16-4.46,21.21-9.79,24.81-28.87,7.55-44.63C853.32,441.26,832.12,424,808.9,409.5c-20.88-13.05-43-16.7-66.63-7.95a196.14,196.14,0,0,1-41.94,9.95c-23,3.13-42.92,13.2-60.1,28.38-9.73,8.59-8.78,19,1.3,27.16a54.94,54.94,0,0,0,15.12,8.52c14.73,5.6,30.07,6.87,45.53,5.73,24.18-1.8,47.07,2.4,69.67,11.07C794,500.86,816.58,508.46,840.77,508.76ZM713.38,610.31c17.35-.13,34.31-3.08,50.26-9.75,20.18-8.43,22.14-28,4.66-41.51a41,41,0,0,0-10.48-6c-33-12.34-61.94,3.83-79.56,30.16-5.71,8.52-2.62,16.57,6.42,21.62S703.42,610.5,713.38,610.31Zm340-301.31c0-13.95-5.84-17.79-16.11-13.06a35.75,35.75,0,0,0-6.48,3.88c-13.08,9.84-21.83,23-28.07,37.87a33.08,33.08,0,0,0-2.22,9.54c-.88,9.56,4.39,13.67,13.5,10.89a39.27,39.27,0,0,0,14.27-8.4C1041.56,338.13,1051.47,324.5,1053.41,309Z" transform="translate(-1.05 -1.22)"/><path class="b" d="M195.79,1.52c-1.5,3.7-5.3,4.41-8.25,6.06C170.26,17.25,151.84,24.2,133,30.26c-20.14,6.48-22,10.45-16.88,31.17,11.28,46.14,24.54,91.82,31.79,138.87a190.61,190.61,0,0,1,1.48,45.35c-1.22,14.42-1.26,28.86,4.39,42.6,7.89,19.21,23.38,25.62,42.35,17.18,16.08-7.15,29.64-18.29,43.76-28.53,23.74-17.23,46.62-35.57,69.27-54.2,5.65-4.64,11.62-9,18.86-11,8.21-2.29,12,.6,12.16,9.07a48.79,48.79,0,0,1-6,23.28c-17.57,33.59-27.05,70.17-39.67,105.6A259.25,259.25,0,0,1,283,376c-9.69,19.94-14.15,41-14.38,63.06-.22,21.75-.6,43.53.2,65.25,1.36,37.33-13.61,65.83-43.72,87.43-19.53,14-40.1,26.45-59.62,40.47-4.73,3.4-9.45,6.83-13.26,11.27-4.76,5.53-4.12,9,2.3,12.73,5.74,3.32,12.07,5.18,18.34,7.15,37.92,12,75.29,25.23,109.39,46.21,25.09,15.44,46.35,34.91,62.28,59.91q-168.48,0-337,.14c-5.2,0-6.22-1-6.22-6.22Q1.63,387,1.52,10.63c2,.14,2.83,1.92,4.08,3.08,12.75,11.77,27.54,15,44.1,10.46,8.81-2.43,10.32-7,4.84-14.36a110.5,110.5,0,0,0-7.49-8.29Z" transform="translate(-1.05 -1.22)"/><path class="b" d="M1367.52,384c-12.1-2.56-24.14-5.47-36.32-7.59-22.35-3.9-44.29,1.79-66.35,3.76a416.44,416.44,0,0,1-78.71,0c-10.29-1-20.67-1.46-31-1.72-13.15-.32-18.64-4-22.95-16.59-5.12-15-6.45-30.6-7.48-46.25-1-15.37-1.85-30.76-3-46.13a60.67,60.67,0,0,0-15.77-37c-14.14-15.59-26.57-32.43-38.17-50-14.46-21.85-33.11-40.12-51.06-59C989.52,95,960.32,68.23,937.11,36.08A294.36,294.36,0,0,1,915.22,1.52h98.66c2.65,16.79,15.95,30.43,30.79,31.57,15.83,1.22,27.68-7.76,32.91-25,.65-2.15,1.05-4.38,1.56-6.58h163.92c10.82,8.24,21.75,16.35,32.45,24.75,17.21,13.5,26.35,30.88,25.16,53.18-.34,6.3-.05,12.63-.19,19-.56,25,8.12,47.09,21.83,67.37,10.76,15.91,25.87,25.14,45.21,27Z" transform="translate(-1.05 -1.22)"/><path class="b" d="M1165.65,769.52c-3.6-63.63,12.19-123.7,33.88-182.6,10-27.07,29-47.11,52.22-63.34,35.29-24.64,73.38-44.48,111.46-64.32,1.35-.7,2.71-1.39,4.31-.89q0,152.53.14,305.07c0,5.2-1,6.24-6.21,6.22C1296.18,769.44,1230.92,769.52,1165.65,769.52Z" transform="translate(-1.05 -1.22)"/><path class="a" d="M1367.52,192.76c-19.34-1.85-34.45-11.08-45.21-27-13.71-20.28-22.39-42.37-21.83-67.37.14-6.32-.15-12.65.19-19,1.19-22.3-8-39.68-25.16-53.18-10.7-8.4-21.63-16.51-32.45-24.75,39.72,0,79.43.09,119.14-.13,4.54,0,5.46.91,5.44,5.44Q1367.37,99.8,1367.52,192.76Z" transform="translate(-1.05 -1.22)"/><path class="a" d="M1079.14,1.52c-.51,2.2-.91,4.43-1.56,6.58-5.23,17.23-17.08,26.21-32.91,25-14.84-1.14-28.14-14.78-30.79-31.57Z" transform="translate(-1.05 -1.22)"/><path class="a" d="M47.05,1.52a110.5,110.5,0,0,1,7.49,8.29c5.48,7.4,4,11.93-4.84,14.36C33.14,28.74,18.35,25.48,5.6,13.71c-1.25-1.16-2.06-2.94-4.08-3.08C-.2,2.84,2.77.75,10.64,1.3,22.72,2.14,34.91,1.52,47.05,1.52Z" transform="translate(-1.05 -1.22)"/><path class="b" d="M840.77,508.76c-24.19-.3-46.78-7.9-68.92-16.4-22.6-8.67-45.49-12.87-69.67-11.07-15.46,1.14-30.8-.13-45.53-5.73A54.94,54.94,0,0,1,641.53,467c-10.08-8.15-11-18.57-1.3-27.16,17.18-15.18,37.11-25.25,60.1-28.38a196.14,196.14,0,0,0,41.94-9.95c23.65-8.75,45.75-5.1,66.63,7.95,23.22,14.51,44.42,31.76,64.58,50.17,17.26,15.76,13.66,34.84-7.55,44.63C857.92,508,849.47,509,840.77,508.76Z" transform="translate(-1.05 -1.22)"/><path class="b" d="M713.38,610.31c-10,.19-19.75-.45-28.7-5.46s-12.13-13.1-6.42-21.62c17.62-26.33,46.56-42.5,79.56-30.16a41,41,0,0,1,10.48,6c17.48,13.52,15.52,33.08-4.66,41.51C747.69,607.23,730.73,610.18,713.38,610.31Z" transform="translate(-1.05 -1.22)"/><path class="b" d="M1053.41,309c-1.94,15.5-11.85,29.13-25.11,40.72a39.27,39.27,0,0,1-14.27,8.4c-9.11,2.78-14.38-1.33-13.5-10.89a33.08,33.08,0,0,1,2.22-9.54c6.24-14.9,15-28,28.07-37.87a35.75,35.75,0,0,1,6.48-3.88C1047.57,291.21,1053.46,295.05,1053.41,309Z" transform="translate(-1.05 -1.22)"/></svg>