<svg xmlns="http://www.w3.org/2000/svg" viewBox="0 0 1366.28 768.27"><defs><style>.a{fill:#ffffff;}.b{fill:#41c7f6;}</style></defs><title>1800f_00074</title><path class="a" d="M1367.52,502.39v74.37c-4.51-.22-8.25,2.15-12.12,3.84-26.62,11.68-52.52,24.87-78.66,37.56a192.72,192.72,0,0,1-21,8.5c-4.78,1.67-10,2.65-14.4-1.08-9.18-7.79-19.73-8.46-30.73-6-28.09,6.3-50.5,22.21-70.33,42.3-3.5,3.55-8.19,7.66-6,12.78,2.42,5.69,8.82,5.93,14.54,5.83a33.93,33.93,0,0,0,3.78-.15c19.22-2.57,37.31-8.81,54.44-17.63,23-11.88,31.81-8,38.35,17.24,7.62,29.46,8.56,59.4,6.82,89.56H112.32c1.31-3,4.39-4.06,6.81-5.75,31.57-22,66.59-35.93,104-44.31,31.42-7.05,59.5-20.49,83.51-42.45,26.74-24.46,46.47-52.66,51.07-89.54,2.76-22.11,3.19-44.37,3.24-66.62.05-23.79,1.08-47.48,4.61-71.06,2.81-18.76,4.86-37.6,1.71-56.61-5-30-23.86-37.37-47.77-18.62-13.16,10.32-22.67,23.66-31.42,37.65C280.43,424.43,273,436.8,263.91,448c-15,18.5-29.86,21.39-49.53,8-33.61-22.9-52.56-57.74-41.79-102.26,4.17-17.25,10.82-33.68,15.93-50.61,9.42-31.18,9.19-61.66-8.71-89.87A348.18,348.18,0,0,0,124,145.53c-13.28-12.44-27.43-23.93-40.83-36.24-4.61-4.24-9.41-9.67-6.75-16.59,2.82-7.32,10.15-8.55,17.06-9.2,11-1,21.66.94,32,4.88,8.26,3.16,16.42,6.61,24.82,9.36,29.67,9.74,59.2,10.9,87.66-3.92,35.11-18.28,68.39-39.41,96.8-67.29,7.66-7.52,15.81-14.9,20.43-25H948.61c15.95,22.73,31,46.18,48,68.06,45.18,58,91,115.49,135,174.5,28.48,38.26,51.47,78.38,60,126a171.8,171.8,0,0,0,19.73,53.88c7.64,13.59,17.8,24.55,32.55,30.49C1284.9,470.92,1326,487.18,1367.52,502.39ZM716.35,722.79a384.79,384.79,0,0,0,95.32-16.52c6.77-2.11,13.29-5,18.87-9.52,8.42-6.87,9.57-15,3.76-24.1-6.3-9.93-15.92-14.91-26.89-16.8-45.64-7.85-87.8,2-126.89,26.17a34.3,34.3,0,0,0-9.94,9.25c-7.11,9.91-5.44,18,5.2,23.74C688.47,721.87,702.31,722.69,716.35,722.79Z" transform="translate(-1.37 -1.37)"/><path class="b" d="M355.16,1.52c-4.62,10.11-12.77,17.49-20.43,25-28.41,27.88-61.69,49-96.8,67.29-28.46,14.82-58,13.66-87.66,3.92-8.4-2.75-16.56-6.2-24.82-9.36-10.3-3.94-20.93-5.92-32-4.88-6.91.65-14.24,1.88-17.06,9.2-2.66,6.92,2.14,12.35,6.75,16.59,13.4,12.31,27.55,23.8,40.83,36.24a348.18,348.18,0,0,1,55.8,67.76c17.9,28.21,18.13,58.69,8.71,89.87-5.11,16.93-11.76,33.36-15.93,50.61-10.77,44.52,8.18,79.36,41.79,102.26,19.67,13.4,34.53,10.51,49.53-8,9.1-11.24,16.52-23.61,24.16-35.83,8.75-14,18.26-27.33,31.42-37.65,23.91-18.75,42.8-11.35,47.77,18.62,3.15,19,1.1,37.85-1.71,56.61-3.53,23.58-4.56,47.27-4.61,71.06-.05,22.25-.48,44.51-3.24,66.62-4.6,36.88-24.33,65.08-51.07,89.54-24,22-52.09,35.4-83.51,42.45-37.4,8.38-72.42,22.31-104,44.31-2.42,1.69-5.5,2.71-6.81,5.75-35.31,0-70.62-.1-105.93.12-4.29,0-5-1-5-5.09.19-44.89.12-89.78.12-134.67a277,277,0,0,1,62.12-50.55c9.34-5.54,18.73-11.05,27.69-17.18,11.91-8.16,15.43-18.2,11.89-32.29a129.6,129.6,0,0,0-13.74-32.77C72.6,467.64,53.17,439.9,32.21,413.27,23,401.59,13.35,390.21,1.52,381V252c3.31-5.35,7-10.49,9.85-16.09,12.54-24.79,9-48.72-9.85-68.9,0-53.12.09-106.25-.15-159.37,0-5.2,1-6.22,6.22-6.22Q181.38,1.66,355.16,1.52Z" transform="translate(-1.37 -1.37)"/><path class="b" d="M1367.52,502.39c-41.52-15.21-82.62-31.47-123.64-48-14.75-5.94-24.91-16.9-32.55-30.49a171.8,171.8,0,0,1-19.73-53.88c-8.52-47.59-31.51-87.71-60-126-43.93-59-89.79-116.48-135-174.5-17-21.88-32.08-45.33-48-68.06h318.73c5.08,11.83,14.57,19.76,24.44,27.22,23.81,18,50,32.19,75.74,47.15Z" transform="translate(-1.37 -1.37)"/><path class="b" d="M1252.17,769.52c1.74-30.16.8-60.1-6.82-89.56-6.54-25.28-15.31-29.12-38.35-17.24-17.13,8.82-35.22,15.06-54.44,17.63a33.93,33.93,0,0,1-3.78.15c-5.72.1-12.12-.14-14.54-5.83-2.19-5.12,2.5-9.23,6-12.78,19.83-20.09,42.24-36,70.33-42.3,11-2.47,21.55-1.8,30.73,6,4.39,3.73,9.62,2.75,14.4,1.08a192.72,192.72,0,0,0,21-8.5c26.14-12.69,52-25.88,78.66-37.56,3.87-1.69,7.61-4.06,12.12-3.84q0,93.72.12,187.44c0,4.53-.9,5.47-5.44,5.45C1325.53,769.41,1288.85,769.52,1252.17,769.52Z" transform="translate(-1.37 -1.37)"/><path class="a" d="M1.52,381c11.83,9.25,21.51,20.63,30.69,32.31,21,26.63,40.39,54.37,57.27,83.82a129.6,129.6,0,0,1,13.74,32.77c3.54,14.09,0,24.13-11.89,32.29-9,6.13-18.35,11.64-27.69,17.18A277,277,0,0,0,1.52,629.88Z" transform="translate(-1.37 -1.37)"/><path class="a" d="M1367.52,75.89c-25.72-15-51.93-29.15-75.74-47.15-9.87-7.46-19.36-15.39-24.44-27.22,31.88,0,63.75.08,95.62-.1,3.8,0,4.69.86,4.66,4.65C1367.42,29.35,1367.52,52.62,1367.52,75.89Z" transform="translate(-1.37 -1.37)"/><path class="a" d="M1.52,167c18.86,20.18,22.39,44.11,9.85,68.9C8.55,241.46,4.83,246.6,1.52,252Z" transform="translate(-1.37 -1.37)"/><path class="b" d="M716.35,722.79c-14-.1-27.88-.92-40.57-7.78-10.64-5.75-12.31-13.83-5.2-23.74a34.3,34.3,0,0,1,9.94-9.25c39.09-24.18,81.25-34,126.89-26.17,11,1.89,20.59,6.87,26.89,16.8,5.81,9.15,4.66,17.23-3.76,24.1-5.58,4.55-12.1,7.41-18.87,9.52A384.79,384.79,0,0,1,716.35,722.79Z" transform="translate(-1.37 -1.37)"/></svg>