<svg xmlns="http://www.w3.org/2000/svg" viewBox="0 0 1943.12 1093.11"><defs><style>.a{fill:#ffffff;}.b{fill:#41c7f6;}</style></defs><title>1800f_00108</title><path class="a" d="M1300.74,931.92H953.16c-8.13-9.23-19.5-12.31-30.64-15-66.23-16-130.61-6.65-194,15q-504.07,0-1008.15.16c-6.07,0-7.42-1.1-7.41-7.33q.3-412.29.17-824.57c2.53-.12,5.06-.15,7.58-.36,52.57-4.4,105-4.29,157.22,4.51,25.19,4.24,50.53,7.69,76.05,1.84,33.58-7.71,67.7-11.39,102-14s68.26-8,100.48-21.1C182.1,60.66,205.78,46.51,230,33.43c39.17-21.12,78.35-42.27,120.3-57.52,21.47-7.8,43.19-11.15,64.47,1A102.94,102.94,0,0,0,446.07-12c24.83,4.92,50.12,6.26,75.11,9.87,34.77,5,69.6,9.31,104.72,10.88,41.19,1.84,82.39,1.5,123.6,1.55,18.45,0,37-.3,55.35.8,50,3,97.31,17.22,143.32,36.21,24.79,10.23,46.41,24.4,60.46,48.35,22,37.48,29.74,78,27.29,120.93-.79,13.9-1.5,27.82-.58,41.69,1.25,18.79,4.56,37.17,14.55,53.63,9.29,15.32,22.27,19,38.11,10.6a87.44,87.44,0,0,0,13.9-9.17c27.6-22.33,52.09-48,76.18-73.86a154.55,154.55,0,0,0,40.19-83.61c5-33.89,2.85-68.15.65-102.15-1.31-20.21-7.35-25.05-27.13-30-1.22-.3-2.46-.56-3.67-.91-26.46-7.71-53-15.35-77.71-27.79-18.83-9.47-26.94-26.27-24.42-47,4.39-36.11,18.78-67.91,41-96.39,3.24-4.16,7.49-7.53,9.78-12.44h129A233.86,233.86,0,0,1,1263.3-114c-4.49,30.21-13.21,59.68-15.16,90.34-1.62,25.65,4,35.13,24.85,42.25,13.12,4.49,26.47,8.5,40,11.77C1344.61,38,1374.6,48.44,1396,75.08c5.54,6.89,11.73,13.26,17.2,20.2,20.44,25.93,39,53,47.69,85.45,9.66,36,11.49,72.73,8.8,109.78-1.5,20.65-3.9,41.24-3.51,62,1,53,8.6,105.18,17.55,157.23,6.16,35.81,17,70.12,35,102,22,39.17,55.6,66.31,92.68,89.78,14.23,9,28.44,18.24,44.5,23.94V880.31c-17.89-.58-35.81,1.36-53.67-1.1s-35.85-6-54.07-6.26a911.6,911.6,0,0,0-162.75,12.48C1352.05,890.92,1323.74,906.92,1300.74,931.92ZM247,929.75c9-.41,16-.08,23.08-1.29,23.39-4,46.78-8,70.24-11.61,31.11-4.78,54.94-19.28,68-49.07,12.21-27.95,14.06-57,6.69-86.11-13.61-53.89-28.2-107.55-48.74-159.34-7.27-18.31-13.95-36.89-23-54.44-2-3.77-3.94-8.3-8.93-8.27-5.35,0-7.35,4.65-9.23,8.89-4.19,9.5-6.85,19.53-10,29.39-7.73,24.31-14.41,49.09-28.88,70.6-17.34,25.79-42.65,29.19-66.53,9.22-19.19-16-36.14-34.6-56.06-49.78-18.91-14.4-38-28.77-60.71-36.73-16.42-5.76-28.66-.53-28.1,18.83.42,14.21,5.39,26.73,12.34,38.51q26.19,44.37,53.22,88.24c20.5,33.12,30.7,68.28,24.64,107.52a172.7,172.7,0,0,0-1.95,36.24c.85,14.6,7,25.9,19.64,33.77C203.09,927,225.73,929.34,247,929.75ZM72.45,383c-.74-15.37-1.73-31.71-5.09-47.88-10-47.83-33.55-88.51-64.86-125.21-12.22-14.32-25.75-27.17-43.21-35.06-15.57-7-30.67-7-43.65,5.34C-96.23,191.43-99,206.26-98.11,222A498.4,498.4,0,0,0-75.85,341.57c14.53,46.62,31.23,92,65.16,128.74C0,481.86,10.51,493.47,25,500.34c11.15,5.28,19.17,2.89,26-7.3,4.44-6.59,7.08-14,9.29-21.48C68.74,443,71.59,413.62,72.45,383Z" transform="translate(287.03 161.03)"/><path class="b" d="M1136.82-160.88c-2.29,4.91-6.54,8.28-9.78,12.44C1104.77-120,1090.38-88.16,1086-52c-2.52,20.75,5.59,37.55,24.42,47,24.71,12.44,51.25,20.08,77.71,27.79,1.21.35,2.45.61,3.67.91,19.78,5,25.82,9.82,27.13,30,2.2,34,4.38,68.26-.65,102.15a154.55,154.55,0,0,1-40.19,83.61C1154,265.34,1129.5,291,1101.9,313.32a87.44,87.44,0,0,1-13.9,9.17c-15.84,8.4-28.82,4.72-38.11-10.6-10-16.46-13.3-34.84-14.55-53.63-.92-13.87-.21-27.79.58-41.69,2.45-42.9-5.32-83.45-27.29-120.93-14-24-35.67-38.12-60.46-48.35-46-19-93.32-33.2-143.32-36.21-18.4-1.1-36.9-.77-55.35-.8-41.21,0-82.41.29-123.6-1.55C590.78,7.16,556,2.87,521.18-2.15c-25-3.61-50.28-4.95-75.11-9.87A102.94,102.94,0,0,1,414.8-23.13c-21.28-12.11-43-8.76-64.47-1C308.38-8.84,269.2,12.31,230,33.43c-24.25,13.08-47.93,27.23-73.54,37.66C124.27,84.22,90.38,89.59,56,92.19s-68.44,6.27-102,14c-25.52,5.85-50.86,2.4-76.05-1.84-52.24-8.8-104.65-8.91-157.22-4.51-2.52.21-5.05.24-7.58.36q0-127.12-.15-254.23c0-5.69,1.29-7,7-7Q428.39-160.8,1136.82-160.88Z" transform="translate(287.03 161.03)"/><path class="b" d="M1655.9,725.5c-16.06-5.7-30.27-14.93-44.5-23.94-37.08-23.47-70.67-50.61-92.68-89.78-17.92-31.9-28.81-66.21-35-102-9-52.05-16.56-104.27-17.55-157.23-.39-20.78,2-41.37,3.51-62,2.69-37,.86-73.76-8.8-109.78-8.7-32.44-27.25-59.52-47.69-85.45-5.47-6.94-11.66-13.31-17.2-20.2-21.42-26.64-51.41-37.08-83.08-44.77-13.48-3.27-26.83-7.28-40-11.77-20.82-7.12-26.47-16.6-24.85-42.25,1.95-30.66,10.67-60.13,15.16-90.34a233.86,233.86,0,0,0,2.53-46.83q192,0,384-.15c5.2,0,6.54,1,6.23,6.23-.55,9.07-.15,18.2-.15,27.31a6.58,6.58,0,0,0-2.11.73c-17.9,14.71-33.13,31.74-43.68,52.5-7,13.89-10.24,28.78-5.36,44,8.38,26.07,27,43,51.15,54.6Z" transform="translate(287.03 161.03)"/><path class="b" d="M1300.74,931.92c23-25,51.31-41,84.67-46.49A911.6,911.6,0,0,1,1548.16,873c18.22.29,36.09,3.78,54.07,6.26s35.78.52,53.67,1.1c0,15.43-.22,30.87.13,46.29.11,4.55-.92,5.45-5.45,5.44q-157.08-.24-314.18-.12Z" transform="translate(287.03 161.03)"/><path class="a" d="M1655.9,24.29c-24.1-11.61-42.77-28.53-51.15-54.6-4.88-15.17-1.69-30.06,5.36-43.95,10.55-20.76,25.78-37.79,43.68-52.5a6.58,6.58,0,0,1,2.11-.73Z" transform="translate(287.03 161.03)"/><path class="b" d="M728.53,931.92c63.38-21.64,127.76-31,194-15,11.14,2.68,22.51,5.76,30.64,15Z" transform="translate(287.03 161.03)"/><path class="b" d="M247,929.75c-21.28-.41-43.92-2.77-64.32-15.43-12.67-7.87-18.79-19.17-19.64-33.77A172.7,172.7,0,0,1,165,844.31c6.06-39.24-4.14-74.4-24.64-107.52Q113.26,693,87.14,648.55c-7-11.78-11.92-24.3-12.34-38.51-.56-19.36,11.68-24.59,28.1-18.83,22.68,8,41.8,22.33,60.71,36.73,19.92,15.18,36.87,33.75,56.06,49.78,23.88,20,49.19,16.57,66.53-9.22,14.47-21.51,21.15-46.29,28.88-70.6,3.13-9.86,5.79-19.89,10-29.39,1.88-4.24,3.88-8.86,9.23-8.89,5,0,7,4.5,8.93,8.27,9.07,17.55,15.75,36.13,23,54.44,20.54,51.79,35.13,105.45,48.74,159.34,7.37,29.15,5.52,58.16-6.69,86.11-13,29.79-36.85,44.29-68,49.07-23.46,3.61-46.85,7.63-70.24,11.61C263.05,929.67,256,929.34,247,929.75Z" transform="translate(287.03 161.03)"/><path class="b" d="M72.45,383c-.86,30.67-3.71,60-12.1,88.61-2.21,7.53-4.85,14.89-9.29,21.48-6.87,10.19-14.89,12.58-26,7.3-14.51-6.87-25-18.48-35.71-30-33.93-36.77-50.63-82.12-65.16-128.74A498.4,498.4,0,0,1-98.11,222c-.91-15.7,1.88-30.53,13.75-41.82,13-12.34,28.08-12.37,43.65-5.34,17.46,7.89,31,20.74,43.21,35.06,31.31,36.7,54.91,77.38,64.86,125.21C70.72,351.24,71.71,367.58,72.45,383Z" transform="translate(287.03 161.03)"/></svg>