<svg xmlns="http://www.w3.org/2000/svg" viewBox="0 0 1943.04 1093.09"><defs><style>.a{opacity:0;fill:#ffffff;}.b{fill:#ffffff;}</style></defs><title>1800f_00389</title><path class="a" d="M1655.9,142.67V408.28a27.5,27.5,0,0,0-3.88,2.15c-49.75,38.82-88.71,86-113.28,144.63-18.62,44.43-40.88,86.61-72.46,123.77-34.4,40.48-61.62,86.39-93.36,128.93a127.54,127.54,0,0,0-24.87,65.08,489.48,489.48,0,0,0-1.78,59.08H100.17c.12-3-2.38-4.31-3.94-6.14-18.18-21.42-37.59-41.69-57.71-61.29-48-46.83-102.25-86.63-150.82-132.86-25.15-23.92-54.21-43.11-80.62-65.53-21.72-18.44-35.5-41.17-37-70.38-1-19.05,3-37.22,9.71-54.82,13.34-35.06,30.48-68.31,49.33-100.68,22.15-38.06,52.87-67.43,91.16-89C-54,336.7-25.89,328.07,1.93,318.81c20.65-6.88,41-14.39,59.71-25.84,32.16-19.7,55.53-47.61,73.79-80,19.39-34.35,41.77-65.25,77.31-85.36,35.09-19.85,64-47.39,89.72-78.47C337,7.47,344.19-37.51,321.34-87.13c-12.83-27.87-32.25-46.8-63.89-50.61-18-2.17-35.79-.94-53.59,1.83-23.35,3.64-45.27,12.59-68.11,18-36.67,8.72-72,6.48-103.36-17-9.34-7-19-14.21-23.28-25.95H938c-.2,1.95,1.14,3.27,2,4.77,24.65,42.53,58.48,75.75,100.88,100.58,26.16,15.32,53.47,28.73,78.38,46.16,62.31,43.59,115.19,97.65,168,151.72,1.23,1.26,2.2,2.77,3.37,4.1,13.37,15.12,14.75,31.89,7.39,50.17-7.24,18-17.36,34.29-28.91,49.66-27.18,36.17-55.7,71.35-80.37,109.36-10.46,16.1-21,32.16-28,50.26-11.6,30.43-4.92,58.08,19.3,79.75,19.2,17.18,39.64,19.21,61.94,6.26a99.85,99.85,0,0,0,21-16.11c22.3-22.49,37.36-49.78,49.37-78.5,18.66-44.62,39.07-88.24,64-129.72,11.63-19.35,20.84-39.94,26.23-61.93,6.5-26.46,23.52-42.71,48-52.59,26.29-10.61,53.75-14,81.76-12.77C1573.57,142.09,1614.67,145.51,1655.9,142.67ZM574,373.47c3.54,0,7.09.16,10.62,0,52.22-2.63,93-24.1,119.33-70.86,17-30.22,33.56-60.63,47.46-92.39,9.32-21.28,19.18-42.43,23.16-65.61,2.58-15-4.91-21.62-19.57-17.47-10.89,3.08-20.31,9-29.55,15.19-28.34,19-55,40.46-84,58.56-27.38,17.09-56,29.52-89.33,25.22-13.78-1.77-27.58-3.41-41.34-5.39-27.76-4-55.4-9.26-83.64-8-15.28.69-30.22,3.15-43.45,11.58-9.71,6.19-14.63,14.94-13.63,26.74,1.39,16.38,10.54,29,21,40.24C440.49,344.09,501.67,371.35,574,373.47ZM460,508.55c-4.55,0-9.11-.26-13.64.05-18.27,1.23-36.25,3.93-52.39,13.38-13.14,7.7-13.42,17.78-1.09,26.52,10.46,7.41,22.34,11.74,34.3,15.79,22.47,7.63,45.56,13.33,67.58,22.45,31.51,13,63,26.46,96.73,32.8,13.81,2.59,27.65,6.49,41.89,2.39,17-4.9,21.27-20.15,8.27-32.17-10.72-9.92-22.24-19-33.9-27.88C564,528.81,515.22,509.6,460,508.55Z" transform="translate(287 161.02)"/><path class="b" d="M9.11-160.88c4.3,11.74,13.94,18.95,23.28,25.95,31.38,23.51,66.69,25.75,103.36,17,22.84-5.42,44.76-14.37,68.11-18,17.8-2.77,35.63-4,53.59-1.83,31.64,3.81,51.06,22.74,63.89,50.61C344.19-37.51,337,7.47,302.46,49.18c-25.71,31.08-54.63,58.62-89.72,78.47-35.54,20.11-57.92,51-77.31,85.36-18.26,32.35-41.63,60.26-73.79,80-18.7,11.45-39.06,19-59.71,25.84C-25.89,328.07-54,336.7-79.7,351.21c-38.29,21.58-69,51-91.16,89-18.85,32.37-36,65.62-49.33,100.68-6.7,17.6-10.67,35.77-9.71,54.82,1.48,29.21,15.26,51.94,37,70.38,26.41,22.42,55.47,41.61,80.62,65.53,48.57,46.23,102.79,86,150.82,132.86,20.12,19.6,39.53,39.87,57.71,61.29,1.56,1.83,4.06,3.18,3.94,6.14q-190.47,0-381,.14c-5.2,0-6.22-1-6.21-6.21q.24-489.5.14-979a70,70,0,0,0,7.17-2.21c22.29-9.41,38-27,54-44,12.65-13.38,26-26,39.82-38.1,9.49-8.26,20.57-14.48,29.5-23.41Z" transform="translate(287 161.02)"/><path class="b" d="M1655.9,142.67c-41.23,2.84-82.33-.58-123.47-2.38-28-1.23-55.47,2.16-81.76,12.77-24.47,9.88-41.49,26.13-48,52.59-5.39,22-14.6,42.58-26.23,61.93-25,41.48-45.36,85.1-64,129.72-12,28.72-27.07,56-49.37,78.5a99.85,99.85,0,0,1-21,16.11c-22.3,12.95-42.74,10.92-61.94-6.26-24.22-21.67-30.9-49.32-19.3-79.75,6.9-18.1,17.49-34.16,28-50.26,24.67-38,53.19-73.19,80.37-109.36,11.55-15.37,21.67-31.67,28.91-49.66,7.36-18.28,6-35.05-7.39-50.17-1.17-1.33-2.14-2.84-3.37-4.1-52.86-54.07-105.74-108.13-168-151.72-24.91-17.43-52.22-30.84-78.38-46.16-42.4-24.83-76.23-58-100.88-100.58-.87-1.5-2.21-2.82-2-4.77q355.53,0,711.08-.14c5.69,0,7,1.28,7,7Q1655.74-5.69,1655.9,142.67Z" transform="translate(287 161.02)"/><path class="b" d="M1346.27,931.92a489.48,489.48,0,0,1,1.78-59.08,127.54,127.54,0,0,1,24.87-65.08c31.74-42.54,59-88.45,93.36-128.93,31.58-37.16,53.84-79.34,72.46-123.77,24.57-58.64,63.53-105.81,113.28-144.63a27.5,27.5,0,0,1,3.88-2.15q0,258.79.14,517.57c0,5.19-1,6.22-6.22,6.21Q1498.05,931.78,1346.27,931.92Z" transform="translate(287 161.02)"/><path class="a" d="M-156.33-160.88c-8.93,8.93-20,15.15-29.5,23.41-13.87,12.09-27.17,24.72-39.82,38.1-16.06,17-31.75,34.63-54,44a70,70,0,0,1-7.17,2.21c0-34.29.1-68.59-.13-102.88,0-4.28,1-5,5.08-5C-240-160.81-198.19-160.88-156.33-160.88Z" transform="translate(287 161.02)"/><path class="b" d="M574,373.47c-72.3-2.12-133.48-29.38-182.89-82.2-10.49-11.22-19.64-23.86-21-40.24-1-11.8,3.92-20.55,13.63-26.74,13.23-8.43,28.17-10.89,43.45-11.58,28.24-1.27,55.88,4,83.64,8,13.76,2,27.56,3.62,41.34,5.39,33.36,4.3,61.95-8.13,89.33-25.22,29-18.1,55.64-39.53,84-58.56,9.24-6.2,18.66-12.11,29.55-15.19,14.66-4.15,22.15,2.47,19.57,17.47-4,23.18-13.84,44.33-23.16,65.61-13.9,31.76-30.47,62.17-47.46,92.39-26.29,46.76-67.11,68.23-119.33,70.86C581.06,373.63,577.51,373.47,574,373.47Z" transform="translate(287 161.02)"/><path class="b" d="M460,508.55c55.25,1.05,104.06,20.26,147.75,53.33,11.66,8.83,23.18,18,33.9,27.88,13,12,8.74,27.27-8.27,32.17-14.24,4.1-28.08.2-41.89-2.39-33.77-6.34-65.22-19.76-96.73-32.8-22-9.12-45.11-14.82-67.58-22.45-12-4-23.84-8.38-34.3-15.79-12.33-8.74-12.05-18.82,1.09-26.52,16.14-9.45,34.12-12.15,52.39-13.38C450.86,508.29,455.42,508.55,460,508.55Z" transform="translate(287 161.02)"/></svg>