<svg xmlns="http://www.w3.org/2000/svg" viewBox="0 0 1366.29 768.28"><defs><style>.a{opacity:0;fill:#ffffff;}.b{fill:#ffffff;}</style></defs><title>1800f_00031</title><path class="a" d="M1367.52,377.93v75.89c-40,20.1-79.19,41.68-115.91,67.41-24.11,16.89-43,38.23-53.3,66.35-21.48,58.75-38,118.43-34.17,181.94H346.05c-20.39-31.88-48-55.65-81.33-73.28-30.31-16-62.4-27.45-95.09-37.4-5.8-1.77-11.68-3.46-16.92-6.61-6.3-3.78-6.89-7.31-2.18-12.83a59.07,59.07,0,0,1,12.11-10.29c19.06-12.88,38.3-25.49,57.18-38.63,27.92-19.43,45.31-44.55,45.08-80.32-.13-19.7-1.23-39.4-.52-59.12.95-26.49,4.42-52.34,16.89-76.3A276.67,276.67,0,0,0,293,349.28c13.7-34.5,23.78-70.37,39.52-104.12a47.32,47.32,0,0,0,4.65-21.32c-.24-9.3-5-12.73-13.9-9.57-8,2.83-14.83,7.62-21.39,12.8-17.66,13.93-35,28.22-52.87,41.92-17.6,13.52-34.43,28.37-55.21,37.11-16.78,7.06-30.94,1.79-39.67-14.17-7.66-14-7.5-29.11-6.25-44.35,1.22-14.9,1.67-29.79-.11-44.66-3.5-29.18-10.59-57.61-17.93-86q-7.87-30.45-15.27-61c-3.57-14.7-.5-20.27,13.7-25.56,6.87-2.56,13.89-4.72,20.69-7.45,14.68-5.9,29.62-11.36,42.24-21.37h727c4.92,10.29,11.39,19.66,17.65,29.13,21.76,32.88,50.14,60.09,76.58,88.95,21.17,23.1,43.11,45.54,59.52,72.56a222.27,222.27,0,0,0,30.19,39.78,63.07,63.07,0,0,1,18.19,42.18c.88,17.65,1.76,35.31,3,52.95.89,12.85,2.36,25.7,6.52,38,3.59,10.6,10.1,15.22,19.87,13.59,14.57-2.43,29.19-2.36,43.85-2.26,29.6.2,59.16-1.19,88.37-6,26.25-4.3,51.77-3.61,76.74,6.22C1361.49,377.72,1364.38,379,1367.52,377.93Zm-658,101.64c18.51-2.54,39.38,2.8,60,10.52,17,6.38,34.42,11.78,52.46,14.63,13.87,2.19,27.7,2.6,41.09-2.57,21.08-8.15,25.63-27.6,9.38-42.95-19.29-18.21-39.31-35.68-61.25-50.73-17.5-12-36.83-19.08-58-13.52-23.2,6.1-46.57,11.41-69.78,17.34C668,416.24,655.1,425.62,643.26,436s-10.72,22.5,2,31.69a61.57,61.57,0,0,0,19.15,8.87C678,480.47,691.93,480.05,709.56,479.57ZM712.7,610c17.75-1.14,37.37-4.48,54.91-15.11,11.32-6.86,13.46-16,7.63-27.94a29.57,29.57,0,0,0-12.91-13.48c-36.3-19.26-71.29,2-86.85,30-4.41,7.93-1.5,15.17,6.35,20.15C690.54,609.14,700.38,609.8,712.7,610Zm295.22-252.14c1.8-.52,4.26-1.08,6.61-1.94a37.36,37.36,0,0,0,11.5-7.18c13.13-11.32,22.89-24.85,26.15-42.23,1.78-9.55-3.36-15.78-11-14.08-17,3.76-43.21,38.75-42,56.16C999.51,353.6,1001.55,357.33,1007.92,357.87Z" transform="translate(-1.37 -1.39)"/><path class="b" d="M191.24,1.52C178.62,11.53,163.68,17,149,22.89c-6.8,2.73-13.82,4.89-20.69,7.45C114.11,35.63,111,41.2,114.61,55.9q7.44,30.56,15.27,61c7.34,28.39,14.43,56.82,17.93,86,1.78,14.87,1.33,29.76.11,44.66-1.25,15.24-1.41,30.36,6.25,44.35,8.73,16,22.89,21.23,39.67,14.17,20.78-8.74,37.61-23.59,55.21-37.11,17.83-13.7,35.21-28,52.87-41.92,6.56-5.18,13.43-10,21.39-12.8,8.86-3.16,13.66.27,13.9,9.57a47.32,47.32,0,0,1-4.65,21.32c-15.74,33.75-25.82,69.62-39.52,104.12a276.67,276.67,0,0,1-11.77,25.46c-12.47,24-15.94,49.81-16.89,76.3-.71,19.72.39,39.42.52,59.12.23,35.77-17.16,60.89-45.08,80.32-18.88,13.14-38.12,25.75-57.18,38.63a59.07,59.07,0,0,0-12.11,10.29c-4.71,5.52-4.12,9.05,2.18,12.83,5.24,3.15,11.12,4.84,16.92,6.61,32.69,9.95,64.78,21.35,95.09,37.4,33.29,17.63,60.94,41.4,81.33,73.28q-169.23,0-338.46.14c-5.2,0-6.22-1-6.22-6.22q.25-374.88.15-749.78c2.59,0,3.89,2.21,5.56,3.59,14.35,11.86,30.5,13.64,47.8,8.61,9.58-2.79,10.92-7.36,5.25-15.64-2.13-3.1-5.86-4.86-7-8.7Z" transform="translate(-1.37 -1.39)"/><path class="b" d="M1367.52,377.93c-3.14,1-6-.21-8.8-1.3-25-9.83-50.49-10.52-76.74-6.22-29.21,4.78-58.77,6.17-88.37,6-14.66-.1-29.28-.17-43.85,2.26-9.77,1.63-16.28-3-19.87-13.59-4.16-12.28-5.63-25.13-6.52-38-1.22-17.64-2.1-35.3-3-52.95a63.07,63.07,0,0,0-18.19-42.18A222.27,222.27,0,0,1,1072,192.16c-16.41-27-38.35-49.46-59.52-72.56-26.44-28.86-54.82-56.07-76.58-88.95-6.26-9.47-12.73-18.84-17.65-29.13h94.1A55,55,0,0,0,1018.17,17C1028,34,1049,40.27,1064,30.84c10.91-6.82,15.08-17.7,18.15-29.32h160.88c10.84,8.21,21.87,16.19,32.47,24.69,15.9,12.75,24.34,29.23,23.81,49.94-.16,6.31,0,12.62.09,18.92.35,14.77,3,29.05,9.07,42.61,11.83,26.51,28.64,47.5,59,53.56Z" transform="translate(-1.37 -1.39)"/><path class="b" d="M1164.14,769.52c-3.84-63.51,12.69-123.19,34.17-181.94,10.28-28.12,29.19-49.46,53.3-66.35,36.72-25.73,75.9-47.31,115.91-67.41q0,154.82.14,309.62c0,5.2-1,6.24-6.21,6.22C1295.68,769.44,1229.91,769.52,1164.14,769.52Z" transform="translate(-1.37 -1.39)"/><path class="a" d="M1367.52,191.24c-30.38-6.06-47.19-27.05-59-53.56-6.06-13.56-8.72-27.84-9.07-42.61-.14-6.3-.25-12.61-.09-18.92.53-20.71-7.91-37.19-23.81-49.94-10.6-8.5-21.63-16.48-32.47-24.69,39.72,0,79.43.09,119.14-.13,4.54,0,5.46.91,5.45,5.44C1367.46,68.3,1367.52,129.77,1367.52,191.24Z" transform="translate(-1.37 -1.39)"/><path class="a" d="M1082.18,1.52c-3.07,11.62-7.24,22.5-18.15,29.32C1049,40.27,1028,34,1018.17,17a55,55,0,0,1-5.81-15.47Z" transform="translate(-1.37 -1.39)"/><path class="a" d="M53.12,1.52c1.15,3.84,4.88,5.6,7,8.7,5.67,8.28,4.33,12.85-5.25,15.64-17.3,5-33.45,3.25-47.8-8.61-1.67-1.38-3-3.56-5.56-3.59,0-12.14,0-12.14,12.14-12.14Z" transform="translate(-1.37 -1.39)"/><path class="b" d="M709.56,479.57c-17.63.48-31.53.9-45.12-3a61.57,61.57,0,0,1-19.15-8.87c-12.75-9.19-13.86-21.34-2-31.69s24.75-19.73,40.19-23.68c23.21-5.93,46.58-11.24,69.78-17.34,21.15-5.56,40.48,1.52,58,13.52,21.94,15,42,32.52,61.25,50.73,16.25,15.35,11.7,34.8-9.38,42.95-13.39,5.17-27.22,4.76-41.09,2.57-18-2.85-35.42-8.25-52.46-14.63C748.94,482.37,728.07,477,709.56,479.57Z" transform="translate(-1.37 -1.39)"/><path class="b" d="M712.7,610c-12.32-.21-22.16-.87-30.87-6.39-7.85-5-10.76-12.22-6.35-20.15,15.56-28,50.55-49.25,86.85-30A29.57,29.57,0,0,1,775.24,567c5.83,11.95,3.69,21.08-7.63,27.94C750.07,605.53,730.45,608.87,712.7,610Z" transform="translate(-1.37 -1.39)"/><path class="b" d="M1007.92,357.87c-6.37-.54-8.41-4.27-8.77-9.27-1.23-17.41,25-52.4,42-56.16,7.69-1.7,12.83,4.53,11,14.08-3.26,17.38-13,30.91-26.15,42.23a37.36,37.36,0,0,1-11.5,7.18C1012.18,356.79,1009.72,357.35,1007.92,357.87Z" transform="translate(-1.37 -1.39)"/></svg>