<svg xmlns="http://www.w3.org/2000/svg" viewBox="0 0 1943.06 1093.09"><defs><style>.a{opacity:0;fill:#ffffff;}.b{fill:#ffffff;}</style></defs><title>1800f_00105</title><path class="a" d="M1281,931.92H992.63c-14.5-14.22-32.24-22.32-51.65-27.14-19.72-4.89-39.86-6.75-60.09-7.52a416.52,416.52,0,0,0-115.83,11.47c-31.88,7.82-64.08,14.34-95.72,23.19H226.15c1.59-2.07,4.13-1.76,6.23-2.31,39.33-10.3,76.62-25.86,112.67-44.37,29.34-15.06,45.78-39.42,50-72.28,2.91-22.7-1.23-44.85-4.19-67.1-8.26-62.09-28.5-120.87-49.71-179.37-1.79-5-4.05-9.74-7.77-13.77s-6.89-3.38-9.93.57-4.68,8.93-6,13.82c-4.16,15.88-8,31.84-12.4,47.65-4.59,16.61-10.13,32.92-19.83,47.38-10.95,16.33-24.15,20.56-42.67,14.19-9.92-3.42-18.66-9-27-15.13-23.36-17.28-46.53-34.81-70.31-51.55-24.14-17-48.41-33.91-69.76-54.61-17-16.52-23-36.49-20.54-59.28,3.66-33.38,9.14-66.55,10.94-100.17,1.73-32.11-.36-63.71-10.38-94.38-13.4-41-36.92-76.3-63.84-109.41-11-13.6-24.33-25.06-40.57-32.42-21-9.5-39.87-2.67-50.33,17.76-5.8,11.32-6.73,23.25-4.47,35.43,12.06,65.11,28.07,129.35,42.77,193.88,9.43,41.4,29.7,78.22,50.23,114.93,11.19,20,25.12,38.67,32.39,60.71,9.19,27.85,24.74,51.89,43.43,74.08,20.46,24.29,35.86,51.18,44.63,81.9,5.65,19.8,11.16,39.52,6.51,60.26C105.34,847.05,74.77,879.8,31,901.23,5.86,913.56-20.79,922.29-47,931.92q-116.86,0-233.74.15c-5.2,0-6.22-1-6.21-6.22q.24-420.44.14-840.85c2.75-.39,5.49-.91,8.26-1.13A532.79,532.79,0,0,1-127,93.41c24.9,5.13,49.83,8.88,75,1.47C-17,84.56,18.89,78.92,55.24,75.69c49.06-4.36,96.09-16.12,139.92-39.33,31.31-16.57,61.45-35.12,91.73-53.46C310.44-31.37,332.6-48,357.65-59.74c24.8-11.65,47.94-6.61,63.83,15.58C434.94-25.37,453-17.73,475.12-16.29c26.29,1.7,52.59,0,78.87,1.15,44.92,2,89.84,4.09,134.77,5.72,34.59,1.25,69.23.64,103.8,2.92,57,3.75,111.47,18.44,164.49,39,24.74,9.61,41,27.19,51,51.86,18.49,45.23,27,92.5,31.54,140.74,1.56,16.45,3.89,32.71,14.13,46.53a25.14,25.14,0,0,0,27.47,9.7,78.72,78.72,0,0,0,22-10c18.6-11.79,36.16-25.1,53.51-38.57,38.66-30,55-70.51,53.15-118.89-1.16-30.64.12-61.13,6.83-91.16,3.39-15.2,10-19.13,25-16.51a346.89,346.89,0,0,1,41.14,10.14c24,7.25,47.71,15.28,70.46,25.81,20.55,9.52,35.12,26.24,49.1,43.27,23.78,29,44.31,59.86,51.6,97.52,6,30.94,6.81,62.28,5.52,93.69-.93,22.47-3.15,44.92-1.9,67.45,3.36,60.54,13.47,120.08,28.29,178.74,12.39,49,35.18,92.64,73.93,126.4,24.46,21.32,51.42,39.26,79.79,55,5.2,2.88,9.86,7.1,16.21,7.6V854.51c-19.49,2.79-38.93,5.83-58.46,8.3-38.17,4.84-75.24,14.71-112.3,24.48s-72.73,8.83-107.68-7.6a43,43,0,0,0-18.4-3.78C1328,875.89,1291.83,901.75,1281,931.92Z" transform="translate(287.01 161.02)"/><path class="b" d="M1655.9,711.84c-6.35-.5-11-4.72-16.21-7.6-28.37-15.75-55.33-33.69-79.79-55-38.75-33.76-61.54-77.4-73.93-126.4-14.82-58.66-24.93-118.2-28.29-178.74-1.25-22.53,1-45,1.9-67.45,1.29-31.41.47-62.75-5.52-93.69-7.29-37.66-27.82-68.56-51.6-97.52-14-17-28.55-33.75-49.1-43.27-22.75-10.53-46.48-18.56-70.46-25.81a346.89,346.89,0,0,0-41.14-10.14c-15-2.62-21.65,1.31-25,16.51-6.71,30-8,60.52-6.83,91.16,1.83,48.38-14.49,88.88-53.15,118.89-17.35,13.47-34.91,26.78-53.51,38.57a78.72,78.72,0,0,1-22,10,25.14,25.14,0,0,1-27.47-9.7c-10.24-13.82-12.57-30.08-14.13-46.53-4.57-48.24-13.05-95.51-31.54-140.74-10.08-24.67-26.3-42.25-51-51.86C904,11.94,849.6-2.75,792.56-6.5,758-8.78,723.35-8.17,688.76-9.42,643.83-11,598.91-13.19,554-15.14c-26.28-1.14-52.58.55-78.87-1.15-22.12-1.44-40.18-9.08-53.64-27.87-15.89-22.19-39-27.23-63.83-15.58C332.6-48,310.44-31.37,286.89-17.1c-30.28,18.34-60.42,36.89-91.73,53.46-43.83,23.21-90.86,35-139.92,39.33C18.89,78.92-17,84.56-52,94.88c-25.16,7.41-50.09,3.66-75-1.47A532.79,532.79,0,0,0-278.6,83.87c-2.77.22-5.51.74-8.26,1.13q0-119.53-.15-239c0-5.69,1.29-7,7-7q698.55.22,1397.11.14c-1.11,3.53-4,5.78-6.32,8.35a280.86,280.86,0,0,0-28.57,38.25c-8.82,14-16.38,28.43-19.43,45C1058.46-46,1068-31,1091.24-27.11c17.42,2.93,35,4.52,52.6,6.66,20.23,2.46,39.06,10.14,58.5,15.51,8.45,2.34,16.05-1.81,18-9.34,1.31-5.13,2.33-10.33,3.3-15.53,4.85-25.81,6.45-52.11,12-77.85,3.76-17.53,6.94-35.21,7.48-53.22h402.21c10.63,0,10.63,0,10.63,10.62-14.57,17.2-23.12,37.65-31.58,58.17-16.65,40.37-1.76,75.31,31.58,102.72Z" transform="translate(287.01 161.02)"/><path class="b" d="M-47,931.92c26.26-9.63,52.91-18.36,78.06-30.69,43.76-21.43,74.33-54.18,85.25-102.9,4.65-20.74-.86-40.46-6.51-60.26-8.77-30.72-24.17-57.61-44.63-81.9C46.43,634,30.88,609.94,21.69,582.09c-7.27-22-21.2-40.7-32.39-60.71-20.53-36.71-40.8-73.53-50.23-114.93-14.7-64.53-30.71-128.77-42.77-193.88-2.26-12.18-1.33-24.11,4.47-35.43,10.46-20.43,29.36-27.26,50.33-17.76,16.24,7.36,29.52,18.82,40.57,32.42,26.92,33.11,50.44,68.41,63.84,109.41,10,30.67,12.11,62.27,10.38,94.38-1.8,33.62-7.28,66.79-10.94,100.17-2.5,22.79,3.51,42.76,20.54,59.28,21.35,20.7,45.62,37.61,69.76,54.61,23.78,16.74,46.95,34.27,70.31,51.55,8.35,6.18,17.09,11.71,27,15.13,18.52,6.37,31.72,2.14,42.67-14.19,9.7-14.46,15.24-30.77,19.83-47.38,4.37-15.81,8.24-31.77,12.4-47.65,1.28-4.89,2.82-9.73,6-13.82s6.12-4.71,9.93-.57,6,8.81,7.77,13.77c21.21,58.5,41.45,117.28,49.71,179.37,3,22.25,7.1,44.4,4.19,67.1-4.2,32.86-20.64,57.22-50,72.28-36.05,18.51-73.34,34.07-112.67,44.37-2.1.55-4.64.24-6.23,2.31Z" transform="translate(287.01 161.02)"/><path class="a" d="M1243.06-160.88c-.54,18-3.72,35.69-7.48,53.22-5.52,25.74-7.12,52-12,77.85-1,5.2-2,10.4-3.3,15.53-1.92,7.53-9.52,11.68-18,9.34-19.44-5.37-38.27-13-58.5-15.51-17.55-2.14-35.18-3.73-52.6-6.66C1068-31,1058.46-46,1062.76-69.32c3-16.53,10.61-31,19.43-45a280.86,280.86,0,0,1,28.57-38.25c2.31-2.57,5.21-4.82,6.32-8.35Z" transform="translate(287.01 161.02)"/><path class="b" d="M1281,931.92c10.83-30.17,47-56,78.06-56a43,43,0,0,1,18.4,3.78c35,16.43,70.77,17.32,107.68,7.6s74.13-19.64,112.3-24.48c19.53-2.47,39-5.51,58.46-8.3,0,23.78-.2,47.56.15,71.33.08,5.22-1,6.23-6.23,6.22Q1465.41,931.79,1281,931.92Z" transform="translate(287.01 161.02)"/><path class="b" d="M669.34,931.92c31.64-8.85,63.84-15.37,95.72-23.19a416.52,416.52,0,0,1,115.83-11.47c20.23.77,40.37,2.63,60.09,7.52,19.41,4.82,37.15,12.92,51.65,27.14Z" transform="translate(287.01 161.02)"/><path class="a" d="M1655.9,10.63c-33.34-27.41-48.23-62.35-31.58-102.72,8.46-20.52,17-41,31.58-58.17Z" transform="translate(287.01 161.02)"/></svg>