<svg xmlns="http://www.w3.org/2000/svg" viewBox="0 0 1943.05 1093.09"><defs><style>.a{opacity:0;fill:#ffffff;}.b{fill:#ffffff;}</style></defs><title>1800f_00396</title><path class="a" d="M1655.9,294.45V534.26a13.41,13.41,0,0,0-3.65.52c-20.26,9.19-40.7,18-59.72,29.69-23.12,14.23-40.52,33.28-50,59-6.77,18.36-9.92,37.59-12.65,56.86-7.77,54.76-20.69,108.1-41.53,159.51-12.25,30.19-23.94,60.65-32.8,92.08H59.19c-6.5-10.58-14.45-20.08-22-29.85-20.75-26.72-46.43-47-78.1-59.42-21.22-8.32-43.23-14.06-65.14-20.13-17.29-4.79-34.66-9.4-50.3-18.68-16.3-9.66-23.39-23.78-21.17-42.65A67.06,67.06,0,0,1-171,739.55c7.77-16,18.53-30.11,29.1-44.3,14.65-19.66,29.67-39.06,43.87-59,20.6-29,29-63.16,39-96.52,7.9-26.2,17.38-51.32,40.67-68.41a203.27,203.27,0,0,1,30.17-18.89,676.84,676.84,0,0,1,124.65-47c26.41-7.07,50.6-17.54,67.91-40,13-16.87,21.4-36,27.88-56.05,6.89-21.4,13.41-42.91,22-63.75,13.73-33.35,35.06-61.89,56.08-90.7,26.46-36.29,49-74.35,53.31-120.48,1.93-20.87,1.36-41.42-7-61.11-9.22-21.8-26.07-29.52-48.48-22.28-11.93,3.86-22.79,10-32.84,17.14C243.26-8.86,208.16-.3,169.17-7.65a260.9,260.9,0,0,0-33.07-4c-18.16-1-34.91,4.22-50.78,12.83-23.83,13-48.25,24.44-75.07,30-20.82,4.3-42,5.95-63,8.69a287.15,287.15,0,0,0-76.47,21.21c-35.85,15.42-72.32,16.47-109.9,8-15.59-3.51-31.24-8.85-47.73-5.3,0-72.6.08-145.2-.15-217.8,0-5.7,1.29-7,7-7q607.48.22,1215,.14c14,30.75,32.52,58.78,52.24,86.1,40,55.4,84.68,105.58,145,140.13,72.25,41.34,131.23,98.47,185.56,160.67,30,34.4,48.51,73.14,42.06,120.58-2.35,17.32-4.43,34.6-11.89,50.69-11.46,24.71-31.14,41.23-54.1,54.58-20.53,11.94-41.8,22.82-59.25,39.35-9.14,8.66-16.95,18.26-17.63,31.63-.94,18.9,10,34.54,30.54,43.57,26.68,11.76,54.65,13.44,82.51,7.06,57.69-13.22,107-38.73,131.8-97,14-33.07,37.6-58.05,65.1-80.47C1569.36,361.39,1618.83,335.79,1655.9,294.45Zm-871.51,358c-28.14.31-55.83,5.1-83.61,8.82-16.57,2.23-32.95,5.53-47.91,13.51-16.21,8.65-19.92,19.74-12.4,36.48a96.42,96.42,0,0,0,4.59,8.71c9.29,16,21,30.33,31.58,45.41,8.46,12,20.1,19.73,33.76,24.59,27.92,9.93,55.73,8.27,83.16-1.7,26.16-9.51,48.37-25,62.6-49.2,19.47-33.14,11.78-66.53-28.43-80.74C813.68,653.33,799.15,652.09,784.39,652.42Zm-386.66,76c40.52-2.43,76-18.53,108.53-41.92,10.51-7.56,9.74-19.35-.54-27.44-10.59-8.34-22.47-14.61-34.65-20.16-39.48-18-80.48-31.44-123.29-38.83-20-3.44-40.08-5.93-60.18-.65-14.77,3.88-23.11,12.84-24.19,26.57-.77,9.9,2.4,19.15,7.53,27.37C300.14,700.12,342.83,724.2,397.73,728.45ZM667.77,442a124.32,124.32,0,0,0,26.41-2c22.52-4.51,43.33-12.31,57.6-31.71,11.92-16.2,8.31-33.54-9-43.85-9.15-5.45-19.4-7.09-29.81-7.5-30.17-1.19-58.49,6.79-86,18.18a105.1,105.1,0,0,0-26.66,15.74c-12.48,10.22-13,21.61-1.47,32.63a34.51,34.51,0,0,0,8.65,6C626.5,439,646.87,441.81,667.77,442Z" transform="translate(287.01 161.03)"/><path class="b" d="M-286.86,63.75c16.49-3.55,32.14,1.79,47.73,5.3,37.58,8.48,74,7.43,109.9-8A287.15,287.15,0,0,1-52.76,39.85c21-2.74,42.19-4.39,63-8.69,26.82-5.53,51.24-17,75.07-30,15.87-8.61,32.62-13.88,50.78-12.83a260.9,260.9,0,0,1,33.07,4c39,7.35,74.09-1.21,106.22-24.15C285.44-39,296.3-45.08,308.23-48.94c22.41-7.24,39.26.48,48.48,22.28,8.33,19.69,8.9,40.24,7,61.11-4.28,46.13-26.85,84.19-53.31,120.48-21,28.81-42.35,57.35-56.08,90.7-8.59,20.84-15.11,42.35-22,63.75-6.48,20.09-14.87,39.18-27.88,56.05-17.31,22.46-41.5,32.93-67.91,40a676.84,676.84,0,0,0-124.65,47,203.27,203.27,0,0,0-30.17,18.89C-41.61,488.37-51.09,513.49-59,539.69-69,573.05-77.41,607.2-98,636.21c-14.2,20-29.22,39.38-43.87,59-10.57,14.19-21.33,28.27-29.1,44.3a67.06,67.06,0,0,0-6.58,21.64c-2.22,18.87,4.87,33,21.17,42.65,15.64,9.28,33,13.89,50.3,18.68,21.91,6.07,43.92,11.81,65.14,20.13,31.67,12.42,57.35,32.7,78.1,59.42,7.59,9.77,15.54,19.27,22,29.85q-170,0-340,.14c-5.2,0-6.22-1-6.21-6.21Q-286.76,494.8-286.86,63.75Z" transform="translate(287.01 161.03)"/><path class="b" d="M1655.9,294.45c-37.07,41.34-86.54,66.94-129,101.52-27.5,22.42-51.06,47.4-65.1,80.47-24.76,58.31-74.11,83.82-131.8,97-27.86,6.38-55.83,4.7-82.51-7.06-20.49-9-31.48-24.67-30.54-43.57.68-13.37,8.49-23,17.63-31.63,17.45-16.53,38.72-27.41,59.25-39.35,23-13.35,42.64-29.87,54.1-54.58,7.46-16.09,9.54-33.37,11.89-50.69,6.45-47.44-12-86.18-42.06-120.58-54.33-62.2-113.31-119.33-185.56-160.67-60.37-34.55-105.06-84.73-145-140.13C967.47-102.1,949-130.13,935-160.88h608.63c20.74,12.14,41.49,10.71,62.23,0,14.92,0,29.85.22,44.77-.14,4.55-.11,5.45.92,5.44,5.45q-.27,107-.12,214Z" transform="translate(287.01 161.03)"/><path class="b" d="M1455.55,931.92c8.86-31.43,20.55-61.89,32.8-92.08,20.84-51.41,33.76-104.75,41.53-159.51,2.73-19.27,5.88-38.5,12.65-56.86,9.48-25.72,26.88-44.77,50-59,19-11.7,39.46-20.5,59.72-29.69a13.41,13.41,0,0,1,3.65-.52q0,195.79.14,391.59c0,5.19-1,6.24-6.22,6.22C1585.07,931.84,1520.31,931.92,1455.55,931.92Z" transform="translate(287.01 161.03)"/><path class="a" d="M1605.81-160.88c-20.74,10.71-41.49,12.14-62.23,0Z" transform="translate(287.01 161.03)"/><path class="b" d="M784.39,652.42c14.76-.33,29.29.91,43.34,5.88,40.21,14.21,47.9,47.6,28.43,80.74-14.23,24.22-36.44,39.69-62.6,49.2-27.43,10-55.24,11.63-83.16,1.7-13.66-4.86-25.3-12.56-33.76-24.59-10.6-15.08-22.29-29.42-31.58-45.41a96.42,96.42,0,0,1-4.59-8.71c-7.52-16.74-3.81-27.83,12.4-36.48,15-8,31.34-11.28,47.91-13.51C728.56,657.52,756.25,652.73,784.39,652.42Z" transform="translate(287.01 161.03)"/><path class="b" d="M397.73,728.45c-54.9-4.25-97.59-28.33-126.79-75.06-5.13-8.22-8.3-17.47-7.53-27.37,1.08-13.73,9.42-22.69,24.19-26.57,20.1-5.28,40.22-2.79,60.18.65,42.81,7.39,83.81,20.83,123.29,38.83,12.18,5.55,24.06,11.82,34.65,20.16,10.28,8.09,11,19.88.54,27.44C473.75,709.92,438.25,726,397.73,728.45Z" transform="translate(287.01 161.03)"/><path class="b" d="M667.77,442c-20.9-.23-41.27-3-60.26-12.51a34.51,34.51,0,0,1-8.65-6c-11.52-11-11-22.41,1.47-32.63A105.1,105.1,0,0,1,627,375.12c27.52-11.39,55.84-19.37,86-18.18,10.41.41,20.66,2.05,29.81,7.5,17.28,10.31,20.89,27.65,9,43.85-14.27,19.4-35.08,27.2-57.6,31.71A124.32,124.32,0,0,1,667.77,442Z" transform="translate(287.01 161.03)"/></svg>