<svg xmlns="http://www.w3.org/2000/svg" viewBox="0 0 1943.07 1093.09"><defs><style>.a{opacity:0;fill:#ffffff;}.b{fill:#ffffff;}</style></defs><title>1800f_00265</title><path class="a" d="M1655.9,206.42v503.9c-3.33,1.82-6.65,3.65-10,5.45-19.94,10.77-40.9,17.05-63.9,15.76-38.13-2.15-67.59-27.52-72.81-64.09-3.75-26.24-6.4-52.64-9.72-79-2.07-16.37-5-32.54-15.25-46.21-12.43-16.52-27.58-16.18-39.2.91-7.7,11.32-10.91,24.35-13.71,37.48-3.83,18-5.55,36.43-13.37,53.51-12,26.1-27.32,50.08-43.8,73.47s-38,41.94-58,61.89a195.37,195.37,0,0,0-54.11,99.05c-4.53,20.88-4.73,42.12-5.34,63.33H-135.08c-3.15-7.92.5-14.91,3.43-21.77,7-16.36,17.16-30.91,26.87-45.71,9.56-14.58,19.81-28.77,26.68-44.93,4.6-10.81,7.77-22,5.9-33.91-4.49-28.67-20.84-49.73-44.44-64.9-17.18-11.05-30.35-25-39.34-43-18.59-37.39-23.13-77.19-19.39-118.19,2.06-22.6,9.23-43.46,24.21-61.06,10.22-12,22.36-21.94,34.91-31.36,29.25-21.94,56.78-45.4,76.53-76.95,20.15-32.17,38.38-65.41,56.65-98.64,4.78-8.7,7.4-18.22,9.19-28,3.66-20,4.09-40.22,5.31-60.37C34.32,155.67,55.57,118.4,92,88.79c26.52-21.58,55.63-39.55,82.87-60.13,29.14-22,55.14-46.61,72-79.8,5.7-11.21,13-21.68,20.33-32C289.45-114.6,316.09-141,353-155.28c3.9-1.51,8.38-2.08,11.32-5.6H470.51c13.69,10,20.15,23.26,22.08,40.26,2.15,19,15.42,27.64,34.47,25.36,14.25-1.7,26.46-8.08,37.74-16.45,18.44-13.68,33.07-31,46.86-49.17h459.89c10.5,8.43,22.76,13.87,34.46,20.24,24.41,13.3,49,26.14,71.15,43.27,38.68,30,70.43,66.53,100.73,104.57,19.85,24.92,40.09,49.56,66,68.63,22.18,16.31,39.27,16.37,60.36-1.41,20.48-17.26,37.94-37.73,56.4-57.08,9.2-9.64,13.07-22.11,11.19-35.71a228.9,228.9,0,0,0-13-50.42c-3.88-10.14-8.25-20.12-11.45-30.47-8.57-27.63.29-42.88,28.3-50.15a144.08,144.08,0,0,1,29.92-4.1c23.71-1.07,47.44-1.78,71.12-3.35,9.7-.64,19.66-.55,29-4,14.92,0,29.85.22,44.77-.14,4.55-.11,5.46.92,5.44,5.45-.2,49.33-.12,98.66-.12,148-8.11,1.21-15.11,5.31-22.47,8.49-12.86,5.55-24.73,13.77-39.26,15-7.82.64-15.35,2.62-22.82,4.9-10.09,3.09-15.23,12.32-11.07,21.66,3,6.81,6.18,13.67,11,19.65,22.47,28,43.46,57,58.85,89.58Q1643,179,1655.9,206.42Z" transform="translate(287.02 161.03)"/><path class="b" d="M364.27-160.88c-2.94,3.52-7.42,4.09-11.32,5.6-36.86,14.25-63.5,40.68-85.79,72.16-7.29,10.3-14.63,20.77-20.33,32C230-17.95,204,6.63,174.83,28.66,147.59,49.24,118.48,67.21,92,88.79,55.57,118.4,34.32,155.67,31.43,203.12c-1.22,20.15-1.65,40.42-5.31,60.37-1.79,9.76-4.41,19.28-9.19,28-18.27,33.23-36.5,66.47-56.65,98.64-19.75,31.55-47.28,55-76.53,76.95-12.55,9.42-24.69,19.34-34.91,31.36-15,17.6-22.15,38.46-24.21,61.06-3.74,41,.8,80.8,19.39,118.19,9,18.07,22.16,32,39.34,43,23.6,15.17,40,36.23,44.44,64.9,1.87,11.93-1.3,23.1-5.9,33.91-6.87,16.16-17.12,30.35-26.68,44.93-9.71,14.8-19.88,29.35-26.87,45.71-2.93,6.86-6.58,13.85-3.43,21.77-48.57,0-97.14-.11-145.71.15-5.2,0-6.22-1-6.21-6.22q.25-246.65.14-493.28c14.26-5.42,23.52-15.79,27.52-30.18,11.18-40.17-1.25-74.42-27.52-104.9q0-226-.16-452c0-5.65,1.38-6.52,6.67-6.51Q42-160.79,364.27-160.88Z" transform="translate(287.02 161.03)"/><path class="b" d="M1256.72,931.92c.61-21.21.81-42.45,5.34-63.33a195.37,195.37,0,0,1,54.11-99.05c20-19.95,41.53-38.54,58-61.89s31.85-47.37,43.8-73.47c7.82-17.08,9.54-35.52,13.37-53.51,2.8-13.13,6-26.16,13.71-37.48,11.62-17.09,26.77-17.43,39.2-.91,10.28,13.67,13.18,29.84,15.25,46.21,3.32,26.31,6,52.71,9.72,79,5.22,36.57,34.68,61.94,72.81,64.09,23,1.29,44-5,63.9-15.76,3.33-1.8,6.65-3.63,10-5.45,0,71.84-.08,143.69.14,215.53,0,5.2-1,6.22-6.22,6.21Q1453.28,931.79,1256.72,931.92Z" transform="translate(287.02 161.03)"/><path class="b" d="M1605.81-160.88c-9.38,3.47-19.34,3.38-29,4-23.68,1.57-47.41,2.28-71.12,3.35a144.08,144.08,0,0,0-29.92,4.1c-28,7.27-36.87,22.52-28.3,50.15,3.2,10.35,7.57,20.33,11.45,30.47a228.9,228.9,0,0,1,13,50.42c1.88,13.6-2,26.07-11.19,35.71-18.46,19.35-35.92,39.82-56.4,57.08-21.09,17.78-38.18,17.72-60.36,1.41-25.94-19.07-46.18-43.71-66-68.63-30.3-38-62.05-74.59-100.73-104.57-22.11-17.13-46.74-30-71.15-43.27-11.7-6.37-24-11.81-34.46-20.24Z" transform="translate(287.02 161.03)"/><path class="b" d="M1655.9,206.42Q1643,179,1630.11,151.64C1614.72,119,1593.73,90,1571.26,62.06c-4.8-6-7.94-12.84-11-19.65-4.16-9.34,1-18.57,11.07-21.66,7.47-2.28,15-4.26,22.82-4.9,14.53-1.18,26.4-9.4,39.26-14.95,7.36-3.18,14.36-7.28,22.47-8.49Z" transform="translate(287.02 161.03)"/><path class="b" d="M611.66-160.88c-13.79,18.13-28.42,35.49-46.86,49.17-11.28,8.37-23.49,14.75-37.74,16.45-19,2.28-32.32-6.36-34.47-25.36-1.93-17-8.39-30.3-22.08-40.26Z" transform="translate(287.02 161.03)"/><path class="a" d="M-286.86,297.49c26.27,30.48,38.7,64.73,27.52,104.9-4,14.39-13.26,24.76-27.52,30.18Z" transform="translate(287.02 161.03)"/></svg>