<svg xmlns="http://www.w3.org/2000/svg" viewBox="0 0 1943.06 1093.14"><defs><style>.a{opacity:0;fill:#ffffff;}.b{fill:#ffffff;}</style></defs><title>1800f_00249</title><path class="a" d="M1655.9,317.22v88c-6.09,7.42-12.08,14.93-18.29,22.25-28.48,33.55-57,67.07-80.16,104.71-18.45,30-34.27,61.35-50.66,92.44-8.38,15.89-16.87,31.77-29,45.24-10.32,11.48-22,20.77-38.86,17.26-11.87-2.48-21-9.87-28.55-19-23.78-28.95-34-63.08-31.24-99.63,2.31-30.57-3.47-57.28-23.07-80.63-17.85-21.28-27.22-45.64-29.93-73.18-1.73-17.65-7.92-34.1-20.29-47.3-19.7-21-44.69-25.38-71.74-20.55-39,7-78,14.05-116.81,22.17-47.77,10-93.8,24.81-134.22,53.61-19.06,13.58-35,29.42-44.67,51.28-18.41,41.41-4.2,82.91,36.32,103.15,32,16,66.43,18.51,101.34,17.22,18.42-.69,36.8-2.66,55.2-3.95,7.79-.54,15.56-1.73,23.42-.06,10.12,2.14,14.62,8.31,13.17,18.6-1.2,8.46-4.76,15.92-9.52,22.9-10.76,15.79-24.22,29.18-38.21,42-24.26,22.22-45.35,46.78-60,76.6-6.33,12.91-12.71,25.9-21,37.78-13.93,20-26.45,24.57-49.48,16.41-14.51-5.14-28.49-11.77-42.74-17.67-35.62-14.75-72.4-22.2-111.08-17.37-11.86,1.49-23.5,4-33.53,11-8.43,5.87-10.33,13.94-6,23.19a56.75,56.75,0,0,0,11,15.3c18.08,18.71,40,32.5,61.15,47.17,33.09,22.92,66.75,44.88,104.94,58.76,4.22,1.53,8.42,3.47,11.52,7H377.93c-1.56-2.35-4.27-2.49-6.58-3.32-24.56-8.89-50-14.3-75.54-19.55-26.21-5.38-50.49-14.45-70.09-33.61-8.52-8.32-16.55-17.05-24.29-26.09-21.38-25-39.55-52.57-61.82-76.82C89,717.41,26.73,692.79-48.21,700.61c-48.45,5-94.65,18.32-140,35.48-16.53,6.26-32.9,13.19-50.49,16.08-11.93,2-17.32-3-16.51-14.91a40.5,40.5,0,0,1,1.86-9.64,111.16,111.16,0,0,1,25.9-43.19c15.57-16.24,34.19-28.37,53-40.23,11.77-7.4,23.75-14.45,34.61-23.23,16.4-13.26,20.33-27.42,12.68-46.9C-132.12,561.22-140,550-148,539c-14-19.23-28.54-38-37.43-60.4-11.87-30-17.3-61.24-19.29-93.15-1.46-23.46-2-47,2.26-70.31,5.76-31.43,19-60.11,32.26-88.83,10.38-22.48,22-44.47,29.06-68.34,17.11-57.76,20-116.53,9.69-175.63-6.33-36.47,3.12-65.63,32.21-88.79,14.67-11.67,29.52-23,45.43-32.89,11.77-7.31,23.71-14.36,35.57-21.52q833.3,0,1666.59-.19c6.61,0,7.71,1.6,7.68,7.84-.29,53.61-.16,107.22-.16,160.82C1651.25,8.73,1646.64,10,1642,11c-26.81,5.38-36.2,15-40.78,41.37-4.34,25-1.54,49.78,1,74.61,5.3,52.17,21.93,101.47,38.73,150.69C1645.46,291,1649.71,304.47,1655.9,317.22ZM709.58,174.79c62.62,0,106.82-35.31,116.81-82.37,5-23.4-5-39.11-28.37-44.2-16.8-3.66-33.71-1.51-50.55-.34-21.67,1.51-43.26,3.44-65.05,1.28-11.73-1.17-23.59-2.06-35.5-.53-16.11,2.07-25,13.13-21.66,29C629.7,99,640,117.83,651.47,136.05,668.11,162.48,692.56,174.58,709.58,174.79Z" transform="translate(287 161.07)"/><path class="b" d="M985,931.92c-3.1-3.55-7.3-5.49-11.52-7-38.19-13.88-71.85-35.84-104.94-58.76-21.18-14.67-43.07-28.46-61.15-47.17a56.75,56.75,0,0,1-11-15.3c-4.34-9.25-2.44-17.32,6-23.19,10-7,21.67-9.46,33.53-11,38.68-4.83,75.46,2.62,111.08,17.37,14.25,5.9,28.23,12.53,42.74,17.67,23,8.16,35.55,3.63,49.48-16.41,8.25-11.88,14.63-24.87,21-37.78,14.61-29.82,35.7-54.38,60-76.6,14-12.82,27.45-26.21,38.21-42,4.76-7,8.32-14.44,9.52-22.9,1.45-10.29-3.05-16.46-13.17-18.6-7.86-1.67-15.63-.48-23.42.06-18.4,1.29-36.78,3.26-55.2,3.95-34.91,1.29-69.35-1.25-101.34-17.22-40.52-20.24-54.73-61.74-36.32-103.15,9.72-21.86,25.61-37.7,44.67-51.28,40.42-28.8,86.45-43.6,134.22-53.61,38.78-8.12,77.8-15.2,116.81-22.17,27-4.83,52-.47,71.74,20.55,12.37,13.2,18.56,29.65,20.29,47.3,2.71,27.54,12.08,51.9,29.93,73.18,19.6,23.35,25.38,50.06,23.07,80.63-2.75,36.55,7.46,70.68,31.24,99.63,7.5,9.13,16.68,16.52,28.55,19,16.85,3.51,28.54-5.78,38.86-17.26,12.11-13.47,20.6-29.35,29-45.24,16.39-31.09,32.21-62.47,50.66-92.44,23.17-37.64,51.68-71.16,80.16-104.71,6.21-7.32,12.2-14.83,18.29-22.25q0,260.29.14,520.6c0,5.19-1,6.26-6.22,6.22-35.41-.29-70.83-.15-106.24-.15-6.84-3.71-13.51-7.79-20.57-11-9.64-4.4-19.53-7.6-30.56-5.24-10.5,2.25-17.56,9.24-24.76,16.26Z" transform="translate(287 161.07)"/><path class="b" d="M-18.21-160.88c-11.86,7.16-23.8,14.21-35.57,21.52-15.91,9.88-30.76,21.22-45.43,32.89-29.09,23.16-38.54,52.32-32.21,88.79,10.26,59.1,7.42,117.87-9.69,175.63-7.08,23.87-18.68,45.86-29.06,68.34-13.25,28.72-26.5,57.4-32.26,88.83-4.28,23.33-3.72,46.85-2.26,70.31,2,31.91,7.42,63.17,19.29,93.15C-176.51,501-161.93,519.75-148,539c8,11,15.85,22.24,20.9,35.09,7.65,19.48,3.72,33.64-12.68,46.9-10.86,8.78-22.84,15.83-34.61,23.23-18.86,11.86-37.48,24-53,40.23a111.16,111.16,0,0,0-25.9,43.19,40.5,40.5,0,0,0-1.86,9.64c-.81,11.94,4.58,16.87,16.51,14.91,17.59-2.89,34-9.82,50.49-16.08,45.31-17.16,91.51-30.43,140-35.48,74.94-7.82,137.19,16.8,187.82,71.92,22.27,24.25,40.44,51.84,61.82,76.82,7.74,9,15.77,17.77,24.29,26.09,19.6,19.16,43.88,28.23,70.09,33.61,25.5,5.25,51,10.66,75.54,19.55,2.31.83,5,1,6.58,3.32q-329,0-658,.14c-5.69,0-7-1.28-7-7q.24-539.58,0-1079.14c0-5.69,1.28-7,7-7Q-149.12-160.71-18.21-160.88Z" transform="translate(287 161.07)"/><path class="b" d="M1655.9,317.22c-6.19-12.75-10.44-26.23-15-39.58-16.8-49.22-33.43-98.52-38.73-150.69-2.53-24.83-5.33-49.65-1-74.61,4.58-26.33,14-36,40.78-41.37,4.68-.94,9.29-2.24,13.94-3.38Z" transform="translate(287 161.07)"/><path class="a" d="M1467.69,931.92c7.2-7,14.26-14,24.76-16.26,11-2.36,20.92.84,30.56,5.24,7.06,3.23,13.73,7.31,20.57,11Z" transform="translate(287 161.07)"/><path class="b" d="M709.58,174.79c-17-.21-41.47-12.31-58.11-38.74C640,117.83,629.7,99,625.26,77.63c-3.3-15.87,5.55-26.93,21.66-29,11.91-1.53,23.77-.64,35.5.53,21.79,2.16,43.38.23,65.05-1.28,16.84-1.17,33.75-3.32,50.55.34,23.33,5.09,33.34,20.8,28.37,44.2C816.4,139.48,772.2,174.82,709.58,174.79Z" transform="translate(287 161.07)"/></svg>