<svg xmlns="http://www.w3.org/2000/svg" viewBox="0 0 1943.05 1093.1"><defs><style>.a{opacity:0;fill:#ffffff;}.b{fill:#ffffff;}</style></defs><title>1800f_00155</title><path class="a" d="M1508.67,931.92H238.29c-.41-14.61,1.19-29.26-2.21-43.78-6.81-29.06-25-49.61-48.69-66.15-37.07-25.83-79.18-37.27-123.19-43.49-24.74-3.5-49.65-5.94-74-12-33.78-8.45-55.15-28.9-63.73-62.94-8.2-32.51-10.86-65.77-14.27-98.91-4.46-43.44-24.24-78-58.09-105.09-14-11.18-30.57-17.68-46-26.24-22.58-12.52-44.92-25.56-63.37-43.91-13.39-13.31-11.62-25.25,4.3-35.35,11.53-7.32,24.56-10.56,37.77-13,30.32-5.51,61.12-7.83,91.4-13.67,45.83-8.85,86.58-27.34,119-61.89,4.5-4.79,8.48-9.87,9.11-16.92,1-10.76-6.9-15.81-13.71-21.14-13.12-10.27-26.84-19.73-39.4-30.75C-67,219-82.14,198-89.74,171.91a105.81,105.81,0,0,0-6.19-16.27c-10.15-21.08-24.71-26.72-46.65-18.27-20.19,7.78-37.58,20.74-56.54,30.78-27.78,14.7-56.15,27.84-87.74,32.2q0-177.19-.14-354.4c0-5.69,1.28-7,7-7q866.27.22,1732.54.14c-12.62,19-30.75,29.53-52.87,33.35-19,3.28-38.3,1.67-57.44,3-46.25,3.2-85.38,21.24-116.18,56.15-17,19.3-14.86,37.46,5.52,53.1C1243.77-5.9,1258-.67,1272.28,4.4c50.11,17.79,101.62,25.72,154.87,23a425.28,425.28,0,0,1,71.16,2.19A442.46,442.46,0,0,1,1619.41,62c11.61,4.9,23.65,8.87,36.49,9.32V608.63c-1.59,1.2-3.27,2.29-4.76,3.61-13.25,11.78-26.72,23.3-42.41,31.77-16.73,9-34.44,15.51-53.73,12-39.44-7.06-66.3-30-79.5-67.7-12.16-34.76-12.49-71-10.06-107.25a183.52,183.52,0,0,1,11.89-54.61c15.83-40.71,40.65-76.17,65.2-111.78,28.42-41.21,58.93-81,85.47-123.49,9.79-15.67,19.17-31.61,23.86-49.73,7.06-27.28-7.57-45.68-35.54-44.66a64.46,64.46,0,0,0-12,1.58c-25.26,5.78-48.09,17.31-69.43,31.47-55.66,36.92-109.37,76.59-162.26,117.35-26.48,20.41-50.52,43.55-74.13,67.23-34.67,34.79-56.6,76.64-70.66,123-13.92,46-34.53,89-56.25,131.65-13.29,26.08-21.4,27.82-48.2,15.65-51.09-23.21-89.82-62.32-130.25-99.31-5.77-5.28-5.35-10.73,0-16.59,6.51-7.22,14.5-12.56,22.68-17.64,20-12.4,41.5-22.18,60.15-36.74a57.55,57.55,0,0,0,20.52-31c5.51-19.7,3.82-39.09-1.33-58.34-6.47-24.18-12.83-48.16-12-73.68.54-16.11-4.86-31.4-13.37-45.27-15.71-25.57-36-47.41-60.56-64.08-37.23-25.3-79.15-30.3-122.82-21.36-23.75,4.86-45.14,16.21-67.07,25.92-36.82,16.31-75.14,23.49-115.32,19.95-14.86-1.31-29.69-3.12-44.64-2.51-30.07,1.23-58.55,7.91-83.7,25.42-31.45,21.89-36.5,47.83-15.89,80.24,9.91,15.58,22.55,28.49,36.93,39.87,26.85,21.24,56.44,38.38,85,57,15.89,10.37,31.59,20.93,49.37,28,30,12,60.92,10.47,92,6.53,24.73-3.13,48.62-2,69.6,13.41,22.46,16.51,42.48,35.9,63,54.66,6.88,6.28,7.38,12,2.33,19.71C939.08,517.88,919.1,545.8,892.17,568a438.13,438.13,0,0,0-39.37,36.74c-32.36,34.17-55.22,73.5-64.37,120-3.64,18.45-5.37,37.19,1.52,55.39,5.37,14.21,15.87,18.25,29.77,12.1,6.75-3,12.75-7.21,18.52-11.76C849,772,859,762.72,868.88,753.29c19.51-18.61,41.09-33.66,68-39.38,22.72-4.82,45.41-2.78,67.78,1.78,30.33,6.17,56.72.2,80.38-20.49,19.88-17.38,37.47-36.78,54.94-56.41,14.22-16,22-20.45,43.35-9.19,2,1.06,4,2.16,5.94,3.34,19.35,11.75,36.26,26.54,52.7,41.95,14.38,13.49,28.35,27.43,43.59,40,28.52,23.55,60.84,40.92,94,56.65,39.38,18.71,68.09,48.2,90.68,84.68C1485.2,880.39,1496.73,906.25,1508.67,931.92Zm-1259-641.24c31.71-.46,63.09-5.78,92-21.55,16.23-8.86,30.46-19.87,38.11-37.55,8.49-19.62.25-38.29-20-44.62-9.17-2.88-18.5-2-27.66,0-19.47,4.38-36.94,13.45-53.94,23.54-28.44,16.86-56.25,34.89-87,47.51a26.11,26.11,0,0,0-9.49,6.08c-4.62,4.93-4.58,8.37.71,12.58a30.54,30.54,0,0,0,5.87,3.4C207.45,289.32,228.09,290.32,249.64,290.68Z" transform="translate(287 161.02)"/><path class="b" d="M1508.67,931.92c-11.94-25.67-23.47-51.53-38.43-75.7-22.59-36.48-51.3-66-90.68-84.68-33.13-15.73-65.45-33.1-94-56.65-15.24-12.57-29.21-26.51-43.59-40-16.44-15.41-33.35-30.2-52.7-41.95-1.94-1.18-3.93-2.28-5.94-3.34-21.36-11.26-29.13-6.79-43.35,9.19-17.47,19.63-35.06,39-54.94,56.41-23.66,20.69-50,26.66-80.38,20.49-22.37-4.56-45.06-6.6-67.78-1.78-26.94,5.72-48.52,20.77-68,39.38C859,762.72,849,772,838.24,780.47c-5.77,4.55-11.77,8.77-18.52,11.76-13.9,6.15-24.4,2.11-29.77-12.1-6.89-18.2-5.16-36.94-1.52-55.39,9.15-46.52,32-85.85,64.37-120A438.13,438.13,0,0,1,892.17,568c26.93-22.18,46.91-50.1,65.84-78.89,5-7.68,4.55-13.43-2.33-19.71-20.51-18.76-40.53-38.15-63-54.66-21-15.42-44.87-16.54-69.6-13.41-31.07,3.94-62,5.48-92-6.53-17.78-7.11-33.48-17.67-49.37-28-28.58-18.65-58.17-35.79-85-57-14.38-11.38-27-24.29-36.93-39.87-20.61-32.41-15.56-58.35,15.89-80.24,25.15-17.51,53.63-24.19,83.7-25.42,15-.61,29.78,1.2,44.64,2.51,40.18,3.54,78.5-3.64,115.32-19.95,21.93-9.71,43.32-21.06,67.07-25.92,43.67-8.94,85.59-3.94,122.82,21.36,24.55,16.67,44.85,38.51,60.56,64.08,8.51,13.87,13.91,29.16,13.37,45.27-.86,25.52,5.5,49.5,12,73.68,5.15,19.25,6.84,38.64,1.33,58.34a57.55,57.55,0,0,1-20.52,31c-18.65,14.56-40.19,24.34-60.15,36.74-8.18,5.08-16.17,10.42-22.68,17.64-5.3,5.86-5.72,11.31,0,16.59,40.43,37,79.16,76.1,130.25,99.31,26.8,12.17,34.91,10.43,48.2-15.65,21.72-42.6,42.33-85.68,56.25-131.65,14.06-46.4,36-88.25,70.66-123,23.61-23.68,47.65-46.82,74.13-67.23,52.89-40.76,106.6-80.43,162.26-117.35,21.34-14.16,44.17-25.69,69.43-31.47a64.46,64.46,0,0,1,12-1.58c28-1,42.6,17.38,35.54,44.66-4.69,18.12-14.07,34.06-23.86,49.73-26.54,42.5-57,82.28-85.47,123.49-24.55,35.61-49.37,71.07-65.2,111.78a183.52,183.52,0,0,0-11.89,54.61c-2.43,36.28-2.1,72.49,10.06,107.25,13.2,37.7,40.06,60.64,79.5,67.7,19.29,3.46,37-3,53.73-12,15.69-8.47,29.16-20,42.41-31.77,1.49-1.32,3.17-2.41,4.76-3.61q0,158.61.14,317.22c0,5.19-1,6.25-6.22,6.22C1602.77,931.81,1555.72,931.92,1508.67,931.92Z" transform="translate(287 161.02)"/><path class="b" d="M-286.86,200.35c31.59-4.36,60-17.5,87.74-32.2,19-10,36.35-23,56.54-30.78,21.94-8.45,36.5-2.81,46.65,18.27a105.81,105.81,0,0,1,6.19,16.27C-82.14,198-67,219-46.83,236.7c12.56,11,26.28,20.48,39.4,30.75,6.81,5.33,14.67,10.38,13.71,21.14-.63,7.05-4.61,12.13-9.11,16.92-32.4,34.55-73.15,53-119,61.89-30.28,5.84-61.08,8.16-91.4,13.67-13.21,2.4-26.24,5.64-37.77,13-15.92,10.1-17.69,22-4.3,35.35,18.45,18.35,40.79,31.39,63.37,43.91,15.45,8.56,32,15.06,46,26.24C-112,526.59-92.26,561.18-87.8,604.62c3.41,33.14,6.07,66.4,14.27,98.91,8.58,34,30,54.49,63.73,62.94,24.35,6.09,49.26,8.53,74,12,44,6.22,86.12,17.66,123.19,43.49,23.74,16.54,41.88,37.09,48.69,66.15,3.4,14.52,1.8,29.17,2.21,43.78q-259.38,0-518.77.16c-5.64,0-6.52-1.37-6.51-6.67Q-286.76,562.88-286.86,200.35Z" transform="translate(287 161.02)"/><path class="b" d="M1655.9,71.34c-12.84-.45-24.88-4.42-36.49-9.32a442.46,442.46,0,0,0-121.1-32.42,425.28,425.28,0,0,0-71.16-2.19c-53.25,2.71-104.76-5.22-154.87-23C1258-.67,1243.77-5.9,1231.54-15.28c-20.38-15.64-22.55-33.8-5.52-53.1,30.8-34.91,69.93-52.95,116.18-56.15,19.14-1.33,38.45.28,57.44-3,22.12-3.82,40.25-14.31,52.87-33.35q99,0,198.07-.13c4.53,0,5.45.91,5.44,5.44Q1655.75-42.11,1655.9,71.34Z" transform="translate(287 161.02)"/><path class="b" d="M249.64,290.68c-21.55-.36-42.19-1.36-61.41-10.57a30.54,30.54,0,0,1-5.87-3.4c-5.29-4.21-5.33-7.65-.71-12.58a26.11,26.11,0,0,1,9.49-6.08c30.76-12.62,58.57-30.65,87-47.51,17-10.09,34.47-19.16,53.94-23.54,9.16-2.06,18.49-2.92,27.66,0,20.23,6.33,28.47,25,20,44.62-7.65,17.68-21.88,28.69-38.11,37.55C312.73,284.9,281.35,290.22,249.64,290.68Z" transform="translate(287 161.02)"/></svg>