<svg xmlns="http://www.w3.org/2000/svg" viewBox="0 0 1943.07 1093.1"><defs><style>.a{opacity:0;fill:#ffffff;}.b{fill:#ffffff;}</style></defs><title>1800f_00378</title><path class="a" d="M-286.86,558.54V198.83c2.84-.34,4.05-2.83,5.82-4.51A650.25,650.25,0,0,1-112.63,78C-77.08,60.93-40.54,46-5.06,28.78c27.68-13.44,57.42-19,88.12-19.7C128.59,8,173.3,13.94,217.44,24.79c43.82,10.77,82.39,29.31,113.24,64.37C363,125.93,404,153.3,443.58,181.87c9.27,6.7,19.84,11,30.86,14.19,35,10,69.82,6.6,103.94-3.41,40.08-11.78,76.36-30.8,100.35-66.56,18.68-27.85,40-53.27,62.35-78.15,28.77-32.1,62.78-55.19,104.86-66.09C870.23-24.44,874.53-34,864.77-57c-8-18.82-18.86-36.41-24.5-56.24-5-17.7-12.14-34.25-25.22-47.67h300.52a15.17,15.17,0,0,0,1.62,2.51c42,43.77,92.42,69.57,153.56,73.4,59.53,3.74,119.14,6.23,178.51,12.26,26.89,2.73,53.94,4,80.56,9.12,39.72,7.59,59.71,28.16,65.38,68.11,3.28,23.09,2.91,46.33,2,69.62a498.16,498.16,0,0,1-26,142c-17.38,51.32-40.37,100.34-61.79,150-16.33,37.88-32.93,75.54-58.3,108.63-19.85,25.9-39,52.29-63,74.69s-51.45,30.12-83.25,20.72c-17-5-33.63-11.36-48.72-20.75-51.06-31.73-89.34-75.49-117.87-127.93-10.19-18.71-12.9-39.13-9.37-60.36s11.45-40.79,21.44-59.66c11.84-22.34,26.26-43.24,37.16-66.1,7.18-15,11.59-30.69,10.25-47.62-1.51-19.1-15.85-32.68-35-32.92-14.79-.19-27.83,5.42-39.72,13.29a466.92,466.92,0,0,0-86.69,73.28c-21.82,23.74-34.76,51.83-39.66,83.74a307.69,307.69,0,0,0-2.84,62.73c2.59,51,13.21,100.17,40.19,143.88,32.39,52.46,60.74,106.67,83,164.18,9.15,23.64,25.08,42.54,46.07,57,7.49,5.17,14.77,10.65,22.09,16.06,15.63,11.57,22.64,27.45,17.59,45.94-10.87,39.81-18,81-40.2,117H18.21c0-2.53,0-5,0-7.58-.32-32.56,2.63-65.26-1.63-97.65-6.23-47.34-24.52-89.25-58.88-123.47a198.19,198.19,0,0,0-70.28-45c-59.57-22.7-112.12-57.62-164.27-93.31C-280.09,562.65-282.55,559.11-286.86,558.54Z" transform="translate(287.03 161.03)"/><path class="b" d="M1162.62,931.92c22.15-36,29.33-77.17,40.2-117,5-18.49-2-34.37-17.59-45.94-7.32-5.41-14.6-10.89-22.09-16.06-21-14.49-36.92-33.39-46.07-57-22.26-57.51-50.61-111.72-83-164.18-27-43.71-37.6-92.89-40.19-143.88a307.69,307.69,0,0,1,2.84-62.73c4.9-31.91,17.84-60,39.66-83.74a466.92,466.92,0,0,1,86.69-73.28c11.89-7.87,24.93-13.48,39.72-13.29,19.17.24,33.51,13.82,35,32.92,1.34,16.93-3.07,32.58-10.25,47.62-10.9,22.86-25.32,43.76-37.16,66.1-10,18.87-17.91,38.43-21.44,59.66s-.82,41.65,9.37,60.36c28.53,52.44,66.81,96.2,117.87,127.93,15.09,9.39,31.69,15.71,48.72,20.75,31.8,9.4,59.31,1.63,83.25-20.72s43.18-48.79,63-74.69c25.37-33.09,42-70.75,58.3-108.63,21.42-49.67,44.41-98.69,61.79-150a498.16,498.16,0,0,0,26-142c.86-23.29,1.23-46.53-2-69.62-5.67-39.95-25.66-60.52-65.38-68.11-26.62-5.08-53.67-6.39-80.56-9.12-59.37-6-119-8.52-178.51-12.26-61.14-3.83-111.61-29.63-153.56-73.4a15.17,15.17,0,0,1-1.62-2.51q267.12,0,534.25-.15c5.2,0,6.22,1,6.22,6.22q-.26,292.94-.14,585.86a199.81,199.81,0,0,0-37,20.64c-54.93,38.89-80.48,90.24-68,158.29,5.9,32.1,15.19,63.35,22.2,95.16,10.42,47.26,16.8,94.5,4,142.42-8.6,32.17-19.86,62.73-47.19,84.36Z" transform="translate(287.03 161.03)"/><path class="b" d="M815.05-160.88c13.08,13.42,20.18,30,25.22,47.67,5.64,19.83,16.52,37.42,24.5,56.24,9.76,23,5.46,32.53-18.83,38.82-42.08,10.9-76.09,34-104.86,66.09-22.31,24.88-43.67,50.3-62.35,78.15-24,35.76-60.27,54.78-100.35,66.56-34.12,10-68.93,13.4-103.94,3.41-11-3.15-21.59-7.49-30.86-14.19C404,153.3,363,125.93,330.68,89.16c-30.85-35.06-69.42-53.6-113.24-64.37C173.3,13.94,128.59,8,83.06,9.08c-30.7.71-60.44,6.26-88.12,19.7C-40.54,46-77.08,60.93-112.63,78A650.25,650.25,0,0,0-281,194.32c-1.77,1.68-3,4.17-5.82,4.51q0-176.68-.17-353.37c0-5.77,1.54-6.47,6.72-6.47q317.75.22,635.47.13c2.2,4,4.13,8.1,6.64,11.86,24.79,37.24,59.33,62.16,100.39,78.52,33,13.17,66.89,16.92,101.46,6.41,24.93-7.57,47.2-20.47,68.09-35.76,27.09-19.82,52-42.56,80.1-61Z" transform="translate(287.03 161.03)"/><path class="b" d="M-286.86,558.54c4.31.57,6.77,4.11,10,6.34,52.15,35.69,104.7,70.61,164.27,93.31a198.19,198.19,0,0,1,70.28,45c34.36,34.22,52.65,76.13,58.88,123.47,4.26,32.39,1.31,65.09,1.63,97.65,0,2.53,0,5,0,7.58H-233.74c-1.18-3.87-2.13-7.82-3.58-11.58-9.49-24.67-23.78-45.1-49.54-55.2Z" transform="translate(287.03 161.03)"/><path class="a" d="M1529.92,931.92c27.33-21.63,38.59-52.19,47.19-84.36,12.81-47.92,6.43-95.16-4-142.42-7-31.81-16.3-63.06-22.2-95.16-12.51-68.05,13-119.4,68-158.29a199.81,199.81,0,0,1,37-20.64q0,247.4.14,494.8c0,5.19-1,6.26-6.22,6.22C1609.86,931.79,1569.89,931.92,1529.92,931.92Z" transform="translate(287.03 161.03)"/><path class="a" d="M711.84-160.88c-28.13,18.47-53,41.21-80.1,61-20.89,15.29-43.16,28.19-68.09,35.76-34.57,10.51-68.42,6.76-101.46-6.41C421.13-86.86,386.59-111.78,361.8-149c-2.51-3.76-4.44-7.9-6.64-11.86Z" transform="translate(287.03 161.03)"/><path class="a" d="M-286.86,865.14c25.76,10.1,40.05,30.53,49.54,55.2,1.45,3.76,2.4,7.71,3.58,11.58-16.44,0-32.88-.12-49.32.1-3.27,0-3.93-.63-3.9-3.9C-286.77,907.13-286.86,886.13-286.86,865.14Z" transform="translate(287.03 161.03)"/></svg>