<svg xmlns="http://www.w3.org/2000/svg" viewBox="0 0 1366.28 768.27"><defs><style>.a{opacity:0;fill:#ffffff;}.b{fill:#ffffff;}</style></defs><title>1800f_00072</title><path class="a" d="M1367.52,494.8v74.37c-5.73,1.94-11.63,3.49-17.16,5.89-23.4,10.15-46.6,20.79-70.06,30.79-12.82,5.47-26,10.55-40,3.53-1.27-.64-3-.51-4.48-.54-31.89-.72-56.33,13.61-75.14,38.25-7.71,10.1-4.13,18.22,8.25,21.19a27.21,27.21,0,0,0,8.25.63,130.25,130.25,0,0,0,30.27-6.36c15.21-5,21.78-2,28.11,12.58a55.41,55.41,0,0,1,3.08,9.33c6.58,28.07,7.66,56.46,4.47,85.06H101.69c2.7-5.41,7.46-8.85,12.16-12.21,21-15,44.13-25.54,68.6-33.28,19.51-6.18,39.63-10.72,58.59-18.22,55.54-21.95,95-59.65,110.47-119,5.26-20.15,5.95-41,6.51-61.69.73-27,1.82-54,5.85-80.82,2.44-16.2,4.58-32.58,1.93-49-1.86-11.62-3.75-23.84-15.95-29.19-12.38-5.43-22.48,1.84-31.9,8.85-14.62,10.89-25.12,25.48-35.31,40.31-8.3,12.07-16.12,24.54-26.49,35-13.6,13.78-27.23,15.15-43.65,4.63-33.31-21.36-47.53-60-37.61-101.67,4.27-18,11.63-35,16.55-52.77,9-32.45,6.6-63.13-14.28-90.79-24.7-32.71-50-64.89-80.84-92.24-6-5.37-11.67-11.26-15.92-18.21C74.09,88.9,77.23,81.12,88.91,78a40.47,40.47,0,0,1,8.25-1c13.94-.75,27,2.77,39.76,8,32.07,13.12,65,19.24,97.85,4.26C276.62,70.19,313.55,44,342.94,8c1.5-1.83,3.85-3.49,3.11-6.49H941c.55,2.63,2.59,4.26,4.19,6.18,37,44.48,74.41,88.7,111,133.52,26.89,32.9,49.9,68.71,75.06,102.91,26.68,36.28,46.74,75.51,55.85,120a206.52,206.52,0,0,0,19.51,54.82c9.59,18.28,23.52,31,43.71,37.22,26.53,8.23,52.66,17.76,79.05,26.5C1342.07,486.85,1354.33,492.3,1367.52,494.8ZM723.2,716.59c20.73-.55,41.37-2.43,61.65-6.69,15.77-3.31,31.74-6.76,45.27-16.39,10.82-7.7,12-18.38,3.84-28.8-7-8.87-16.72-12.71-27.29-15-24.32-5.29-48.27-2.44-71.88,4-20.11,5.49-39.49,12.86-54.52,28.21-12.28,12.54-9.5,23.78,7.09,29.9C699,716.07,711,716.7,723.2,716.59Z" transform="translate(-1.37 -1.37)"/><path class="b" d="M346.05,1.52c.74,3-1.61,4.66-3.11,6.49-29.39,36-66.32,62.18-108.17,81.26-32.86,15-65.78,8.86-97.85-4.26-12.8-5.24-25.82-8.76-39.76-8a40.47,40.47,0,0,0-8.25,1C77.23,81.12,74.09,88.9,80.4,99.24c4.25,7,9.87,12.84,15.92,18.21,30.83,27.35,56.14,59.53,80.84,92.24C198,237.35,200.43,268,191.44,300.48c-4.92,17.78-12.28,34.78-16.55,52.77-9.92,41.7,4.3,80.31,37.61,101.67,16.42,10.52,30.05,9.15,43.65-4.63,10.37-10.49,18.19-23,26.49-35C292.83,400.43,303.33,385.84,318,375c9.42-7,19.52-14.28,31.9-8.85,12.2,5.35,14.09,17.57,15.95,29.19,2.65,16.46.51,32.84-1.93,49-4,26.83-5.12,53.78-5.85,80.82-.56,20.71-1.25,41.54-6.51,61.69-15.5,59.32-54.93,97-110.47,119-19,7.5-39.08,12-58.59,18.22-24.47,7.74-47.64,18.29-68.6,33.28-4.7,3.36-9.46,6.8-12.16,12.21-31.77,0-63.55-.12-95.33.13-4.35,0-5-1.08-4.95-5.12.17-47.42.11-94.83.11-142.24,8.19-8.21,16-16.8,24.66-24.54,14.45-13,29.36-25.46,44.13-38.1,18-15.45,21.57-29.86,12.44-51.84a138,138,0,0,0-6.26-13c-16-29.26-33.57-57.57-52.17-85.23-6.59-9.8-13.6-19.44-22.8-27.14v-132A80,80,0,0,0,12.13,233c10.1-22.17,6-46.33-10.61-63,0-54.13.09-108.27-.15-162.4,0-5.2,1-6.22,6.22-6.22Q176.82,1.67,346.05,1.52Z" transform="translate(-1.37 -1.37)"/><path class="b" d="M1367.52,494.8c-13.19-2.5-25.45-7.95-38.1-12.14-26.39-8.74-52.52-18.27-79.05-26.5-20.19-6.26-34.12-18.94-43.71-37.22a206.52,206.52,0,0,1-19.51-54.82c-9.11-44.48-29.17-83.71-55.85-120-25.16-34.2-48.17-70-75.06-102.91-36.62-44.82-74-89-111-133.52-1.6-1.92-3.64-3.55-4.19-6.18h323.29c1.32,5.33,4.63,9.56,8.19,13.43,27.27,29.67,59.81,52.4,95,71.57Z" transform="translate(-1.37 -1.37)"/><path class="b" d="M1243.06,769.52c3.19-28.6,2.11-57-4.47-85.06a55.41,55.41,0,0,0-3.08-9.33c-6.33-14.63-12.9-17.56-28.11-12.58a130.25,130.25,0,0,1-30.27,6.36,27.21,27.21,0,0,1-8.25-.63c-12.38-3-16-11.09-8.25-21.19,18.81-24.64,43.25-39,75.14-38.25,1.51,0,3.21-.1,4.48.54,14.09,7,27.23,1.94,40-3.53,23.46-10,46.66-20.64,70.06-30.79,5.53-2.4,11.43-3.95,17.16-5.89q0,97.51.12,195c0,4.53-.9,5.47-5.44,5.45C1322.49,769.42,1282.78,769.52,1243.06,769.52Z" transform="translate(-1.37 -1.37)"/><path class="a" d="M1.52,382.48c9.2,7.7,16.21,17.34,22.8,27.14,18.6,27.66,36.18,56,52.17,85.23a138,138,0,0,1,6.26,13c9.13,22,5.6,36.39-12.44,51.84-14.77,12.64-29.68,25.11-44.13,38.1-8.62,7.74-16.47,16.33-24.66,24.54Z" transform="translate(-1.37 -1.37)"/><path class="a" d="M1367.52,86.52c-35.21-19.17-67.75-41.9-95-71.57-3.56-3.87-6.87-8.1-8.19-13.43,32.88,0,65.77.07,98.65-.1,3.8,0,4.69.86,4.66,4.65C1367.43,32.89,1367.52,59.7,1367.52,86.52Z" transform="translate(-1.37 -1.37)"/><path class="a" d="M1.52,170c16.61,16.67,20.71,40.83,10.61,63A80,80,0,0,1,1.52,250.44Z" transform="translate(-1.37 -1.37)"/><path class="b" d="M723.2,716.59c-12.18.11-24.25-.52-35.84-4.79-16.59-6.12-19.37-17.36-7.09-29.9,15-15.35,34.41-22.72,54.52-28.21,23.61-6.43,47.56-9.28,71.88-4,10.57,2.3,20.29,6.14,27.29,15,8.21,10.42,7,21.1-3.84,28.8-13.53,9.63-29.5,13.08-45.27,16.39C764.57,714.16,743.93,716,723.2,716.59Z" transform="translate(-1.37 -1.37)"/></svg>