<svg xmlns="http://www.w3.org/2000/svg" viewBox="0 0 1943.05 1093.09"><defs><style>.a{opacity:0;fill:#ffffff;}.b{fill:#ffffff;}</style></defs><title>1800f_00374</title><path class="a" d="M890.94,931.92H250.43c-15.42-33.67-36.58-63.55-67-84.53A1339.06,1339.06,0,0,1,54.72,746.82a121.08,121.08,0,0,0-23.94-17C17,722.58,2,722.42-12.61,721.5c-29.87-1.87-55.07-14.77-79.36-30.64-24.65-16.11-45.31-36.93-67.07-56.47-11.05-9.94-22.33-19.65-34.94-27.65A151.3,151.3,0,0,0-245,586.44c-15-3.09-28.1-11-41.82-17.27V91.07c9.38-6,18.62-12.18,28.17-17.88,47.12-28.11,94.15-56.27,137-90.88,21.25-17.16,45.35-29.56,72.51-34.75A731.64,731.64,0,0,1,59.92-64.81c78.62-3,151.16,19.86,220.68,54.34,30.58,15.16,52,38.35,63.7,70.85,6.54,18.19,18.7,33,34.11,44.66,45.33,34.26,97.08,43.43,152.2,36.93,57.78-6.81,109-28.18,151.91-68.82C708.77,48.3,738.4,27.9,774.85,20.26c28.74-6,51.51-21.11,69.48-44.14s31.15-47.86,29.34-77.65c-1.26-20.62.35-40.26,8.16-59.35h338.46c1.54,1.72,3.7,1.43,5.65,1.67,41.18,5,82.67,5.91,124,9.25,35,2.83,70,5.4,104.84,10.2,38.56,5.3,64,25,78.33,61.39,16.38,41.5,18.6,83.45,9.37,126.52-8.08,37.7-22.36,73.46-34.72,109.82-15,44.13-28,88.61-31.63,135.44-2,25.66-3.57,51.43-8.49,76.8-5.55,28.61-14,56.32-33,79a311.08,311.08,0,0,1-81.7,69.4c-24,14-49.66,18.5-76.59,9.88-44.42-14.21-85.56-35-122.82-63.15-15.27-11.52-28.35-25.31-37.35-42.38-17.19-32.61-26.83-67.56-30.8-104.07-4.39-40.41-.69-80.81.76-121.21.56-15.66,1.4-31.41-3.47-46.63-5.26-16.43-17.39-23.15-34.15-19.36-13.64,3.09-25.09,10.52-36.17,18.56-50,36.31-77.89,83.76-74.79,147.24,1,20.72,2.3,41.38,4.88,61.94,4.68,37.18,10.76,74.14,24.93,109.07C992.54,530.56,1026,588.26,1063,644a166.22,166.22,0,0,0,54.51,51.76c11.94,7.07,24,14,34.14,23.81,11.15,10.87,15,23.83,11.38,38.76-6.21,25.43-18,48.19-34.11,68.76a84.08,84.08,0,0,1-47.44,30.8,133.07,133.07,0,0,1-40.62,3.43c-11.86-.8-23.75-2-35.57,0-42,7.16-76.38,28.24-105.47,58.63C896.44,923.48,892.3,926.75,890.94,931.92ZM445.67,293.16c-22.9,0-30.83,13.37-21,29.87,7.77,13,19.67,21,34.56,23.77,8.46,1.57,16.33-.76,21.53-8.1,4.83-6.83,4.33-14.47.58-21.59A43.86,43.86,0,0,0,445.67,293.16Z" transform="translate(287.01 161.03)"/><path class="b" d="M890.94,931.92c1.36-5.17,5.5-8.44,8.88-12,29.09-30.39,63.46-51.47,105.47-58.63,11.82-2,23.71-.83,35.57,0a133.07,133.07,0,0,0,40.62-3.43,84.08,84.08,0,0,0,47.44-30.8c16.07-20.57,27.9-43.33,34.11-68.76,3.65-14.93-.23-27.89-11.38-38.76-10.09-9.85-22.2-16.74-34.14-23.81A166.22,166.22,0,0,1,1063,644c-37-55.7-70.46-113.4-95.65-175.51-14.17-34.93-20.25-71.89-24.93-109.07-2.58-20.56-3.87-41.22-4.88-61.94-3.1-63.48,24.76-110.93,74.79-147.24,11.08-8,22.53-15.47,36.17-18.56,16.76-3.79,28.89,2.93,34.15,19.36,4.87,15.22,4,31,3.47,46.63-1.45,40.4-5.15,80.8-.76,121.21,4,36.51,13.61,71.46,30.8,104.07,9,17.07,22.08,30.86,37.35,42.38,37.26,28.13,78.4,48.94,122.82,63.15,26.93,8.62,52.56,4.16,76.59-9.88a311.08,311.08,0,0,0,81.7-69.4c19-22.63,27.44-50.34,33-79,4.92-25.37,6.49-51.14,8.49-76.8,3.65-46.83,16.63-91.31,31.63-135.44,12.36-36.36,26.64-72.12,34.72-109.82,9.23-43.07,7-85-9.37-126.52-14.38-36.4-39.77-56.09-78.33-61.39-34.85-4.8-69.85-7.37-104.84-10.2-41.3-3.34-82.79-4.22-124-9.25-2-.24-4.11.05-5.65-1.67q214.77,0,429.53-.15c5.2,0,6.23,1,6.22,6.22q-.26,259.55-.14,519.08c-10,8.3-15.9,19.57-21,31.06-11.27,25.44-20.13,51.8-28.17,78.41-12.67,42-17.36,84.53-8.24,127.9,12.34,58.66,16,118,15,177.8-.39,25.46-11.69,43.26-35.58,52.78-15.61,6.23-32,9.14-48.47,11.8-22.16,3.56-44.64,5.74-65.47,15.13-13.08,5.91-24.9,13.55-33.63,25.15-11.3,15-9.42,31.21-3.66,47.62Z" transform="translate(287.01 161.03)"/><path class="b" d="M881.83-160.88c-7.81,19.09-9.42,38.73-8.16,59.35,1.81,29.79-11.47,54.73-29.34,77.65s-40.74,38.12-69.48,44.14c-36.45,7.64-66.08,28-92.33,52.89-42.94,40.64-94.13,62-151.91,68.82-55.12,6.5-106.87-2.67-152.2-36.93C363,93.39,350.84,78.57,344.3,60.38c-11.69-32.5-33.12-55.69-63.7-70.85C211.08-44.95,138.54-67.85,59.92-64.81A731.64,731.64,0,0,0-49.17-52.44c-27.16,5.19-51.26,17.59-72.51,34.75-42.86,34.61-89.89,62.77-137,90.88-9.55,5.7-18.79,11.91-28.17,17.88q0-122.56-.15-245.12c0-5.69,1.29-7,7-7Q300.9-160.8,881.83-160.88Z" transform="translate(287.01 161.03)"/><path class="b" d="M-286.86,569.17c13.72,6.31,26.83,14.18,41.82,17.27A151.3,151.3,0,0,1-194,606.74c12.61,8,23.89,17.71,34.94,27.65,21.76,19.54,42.42,40.36,67.07,56.47,24.29,15.87,49.49,28.77,79.36,30.64,14.64.92,29.56,1.08,43.39,8.37a121.08,121.08,0,0,1,23.94,17A1339.06,1339.06,0,0,0,183.41,847.39c30.44,21,51.6,50.86,67,84.53H157.85c-16.86-19.09-33.53-38.35-50.63-57.22-18.83-20.78-38.8-40.4-63.1-54.87C27.7,810.06,9,808-6.19,827.15c-8.18,10.32-11.64,22.13-14.49,34.43-5.35,23.15-6.07,46.94-9.68,70.34H-233.74c-5.94-24.9-13.64-49.19-26.28-71.58-7.8-13.82-15.82-27.57-26.84-39.22Z" transform="translate(287.01 161.03)"/><path class="a" d="M1426.71,931.92c-5.76-16.41-7.64-32.62,3.66-47.62,8.73-11.6,20.55-19.24,33.63-25.15,20.83-9.39,43.31-11.57,65.47-15.13,16.47-2.66,32.86-5.57,48.47-11.8,23.89-9.52,35.19-27.32,35.58-52.78.93-59.78-2.68-119.14-15-177.8-9.12-43.37-4.43-85.94,8.24-127.9,8-26.61,16.9-53,28.17-78.41,5.09-11.49,11-22.76,21-31.06q0,280.41.14,560.82c0,5.69-1.28,7-7,7C1575,931.84,1500.83,931.92,1426.71,931.92Z" transform="translate(287.01 161.03)"/><path class="a" d="M-30.36,931.92c3.61-23.4,4.33-47.19,9.68-70.34,2.85-12.3,6.31-24.11,14.49-34.43C9,808,27.7,810.06,44.12,819.83c24.3,14.47,44.27,34.09,63.1,54.87,17.1,18.87,33.77,38.13,50.63,57.22Z" transform="translate(287.01 161.03)"/><path class="a" d="M-286.86,821.12c11,11.65,19,25.4,26.84,39.22,12.64,22.39,20.34,46.68,26.28,71.58-16.19,0-32.38-.14-48.57.1-3.8.06-4.67-.86-4.65-4.66C-286.79,892-286.86,856.53-286.86,821.12Z" transform="translate(287.01 161.03)"/><path class="b" d="M445.67,293.16a43.86,43.86,0,0,1,35.68,23.95c3.75,7.12,4.25,14.76-.58,21.59-5.2,7.34-13.07,9.67-21.53,8.1C444.35,344,432.45,336,424.68,323,414.84,306.53,422.77,293.18,445.67,293.16Z" transform="translate(287.01 161.03)"/></svg>