<svg xmlns="http://www.w3.org/2000/svg" viewBox="0 0 1943.86 1093.89"><defs><style>.a{opacity:0;fill:#ffffff;}.b{fill:#ffffff;}</style></defs><title>1800f_00095</title><path class="a" d="M579.79,931.92H168.47c2-1,4-2.11,6-2.94,96.94-39.28,157.23-135.19,150.2-239.54-1.16-17.25-4.58-34.13-15-48.67-10.11-14.13-22.87-21.13-41-17.5-11.79,2.36-23.85,4.58-36.09,3.27a223.78,223.78,0,0,1-75.31-22.09c-56.59-27.91-99.21-69.53-123.57-128.92C17.3,435.51-2,396.86-25.64,360.44c-5.59-8.61-9.71-18.34-8.12-29.33a131.86,131.86,0,0,1,15.2-45.74c10.91-19.48,11.88-39.8,7.88-61-7.22-38.19-25.67-70.6-52-98.52-14.51-15.37-32.14-23.64-54-16.71a120.06,120.06,0,0,0-42.54,24.15c-6.2,5.37-13,10.57-16.13,18.79-6,15.75-2.36,29.82,8.12,42.12,11.77,13.82,24.71,26.66,36.29,40.63,19.47,23.49,37.82,47.88,55.61,72.68,10.71,14.93,21.07,29.91,18.29,49.72-1.47,10.53-5.18,20.51-8.13,30.66-5,17.22-12.08,33.83-15.78,51.42-10.69,50.72-2,98.85,19.15,145.49C-48.17,615-27.55,640.1-5.65,664.41c13.52,15,27.18,30,35.87,48.63,11.53,24.69,5,49.51-16.8,65.91-8.76,6.59-18.33,11.67-28.18,16.27-17.87,8.35-36,16.17-53,26.23q-61,36.13-121.74,72.76c-19,11.51-38,23.12-54.85,37.71h-42.5V36.43a52.44,52.44,0,0,0,6.76-.12c49.27-6.91,97.18-4,143.09,17.61,20.08,9.44,41.3,15,64,10.3,67.58-14,134.66-29.92,199.9-52.68,69.83-24.36,132.12-60.68,182.34-116,8.3-9.15,17.67-17.35,26.74-25.79,16.94-15.78,35.89-18.19,56.64-8.17,23.79,11.48,44.59,26.78,61,47.68,9.48,12.09,21.68,19.63,36.82,22.06a135.33,135.33,0,0,0,30.24,1.36c44.6-2.83,89.09-7.24,133.93-6.11A1081.76,1081.76,0,0,1,782.73-62.81c32,4.65,64,9.56,96.49,7.94,12.12-.61,24.21-1.74,35.77-5.87,10.62-3.8,18.18-10.41,21.51-21.65,2.76-9.3,7.87-17.46,13.89-25.06,11.41-14.4,25.47-25.9,39.78-37.2,6.88-5.43,14.91-9.39,20.67-16.23h115.35c-.08,20-1.37,40-7.56,59.14C1105.91-62.46,1091.76-24.2,1062,6.73c-20,20.81-23.79,47.4-15.51,75.07,4.39,14.68,16.59,21.67,31.69,19.34A189.5,189.5,0,0,0,1104,95.29c33.84-10.17,66.81-23.25,101.79-29.63,37.75-6.89,75.23-15.12,114.12-11.23,25.64,2.56,47,11.09,59.76,35.16,4.86,9.17,9.7,18.31,13.55,28,18,45.21,25.53,92.9,33.33,140.55,9.72,59.33,19.22,118.71,33.37,177.21,17.62,72.89,54.46,133.37,115.41,178.16,25.69,18.89,53,35.26,80.54,51.33v119.9c-17.32,5.75-33.45,13.94-48.92,23.53-29.1,18-46.86,43.63-52.23,77.69-2.41,15.29-1.68,30.66-2.06,46H1285.56c7.13-5.08,15.64-7.64,22.69-13,22.62-17.31,41.56-38.41,61.13-58.83a93.88,93.88,0,0,0,12.8-17.8c10.51-18,4.52-29.55-16.21-31.8a54.61,54.61,0,0,0-9.79-.54c-33.66,2.57-63.86,14.7-91.21,34-17,12-33,25.33-42.31,44.64-6.24,12.88-3.46,22.79,7.13,32.43,5.37,4.88,12.34,6.55,17.82,10.91h-170c-.07-7.27-3.39-13-8.33-18.08-11.22-11.43-25.24-18.38-39.73-24.47-36.49-15.34-75.17-19.52-114.14-20.82-65.45-2.19-130.85-.58-196,5.87-24.67,2.44-48.8,7.75-72.64,14.73C620.09,896.94,599.47,913.56,579.79,931.92Z" transform="translate(287.01 161.84)"/><path class="b" d="M1655.9,664.79c-27.52-16.07-54.85-32.44-80.54-51.33-60.95-44.79-97.79-105.27-115.41-178.16-14.15-58.5-23.65-117.88-33.37-177.21-7.8-47.65-15.28-95.34-33.33-140.55-3.85-9.64-8.69-18.78-13.55-27.95-12.76-24.07-34.12-32.6-59.76-35.16-38.89-3.89-76.37,4.34-114.12,11.23-35,6.38-68,19.46-101.79,29.63a189.5,189.5,0,0,1-25.83,5.85c-15.1,2.33-27.3-4.66-31.69-19.34-8.28-27.67-4.5-54.26,15.51-75.07,29.74-30.93,43.89-69.19,56.61-108.47,6.19-19.11,7.48-39.11,7.56-59.14h244.36c10.52,16,19.33,33.1,30.54,48.69,7.56,10.51,15.58,20.65,27.4,26.59,8.18,4.11,15,4.92,21.51-3.5,9.21-11.82,8.57-25.76,8.48-39.63-.06-10.74-3.76-21.31-1.41-32.15h179.09c.61,5.48,1.11,11,1.85,16.46,2.79,20.76,6.6,41.22,17.89,59.43Z" transform="translate(287.01 161.84)"/><path class="b" d="M-244.36,931.92c16.89-14.59,35.87-26.2,54.85-37.71q60.66-36.74,121.74-72.76c17-10.06,35.14-17.88,53-26.23,9.85-4.6,19.42-9.68,28.18-16.27,21.81-16.4,28.33-41.22,16.8-65.91-8.69-18.59-22.35-33.61-35.87-48.63C-27.55,640.1-48.17,615-61.83,584.84-82.94,538.2-91.67,490.07-81,439.35c3.7-17.59,10.78-34.2,15.78-51.42,3-10.15,6.66-20.13,8.13-30.66,2.78-19.81-7.58-34.79-18.29-49.72-17.79-24.8-36.14-49.19-55.61-72.68-11.58-14-24.52-26.81-36.29-40.63-10.48-12.3-14.13-26.37-8.12-42.12,3.13-8.22,9.93-13.42,16.13-18.79a120.06,120.06,0,0,1,42.54-24.15c21.86-6.93,39.49,1.34,54,16.71,26.36,27.92,44.81,60.33,52,98.52,4,21.16,3,41.48-7.88,61a131.86,131.86,0,0,0-15.2,45.74c-1.59,11,2.53,20.72,8.12,29.33C-2,396.86,17.3,435.51,33.71,475.53c24.36,59.39,67,101,123.57,128.92a223.78,223.78,0,0,0,75.31,22.09c12.24,1.31,24.3-.91,36.09-3.27,18.17-3.63,30.93,3.37,41,17.5,10.4,14.54,13.82,31.42,15,48.67,7,104.35-53.26,200.26-150.2,239.54-2.07.83-4,1.95-6,2.94Z" transform="translate(287.01 161.84)"/><path class="b" d="M1010.84-160.88c-5.76,6.84-13.79,10.8-20.67,16.23-14.31,11.3-28.37,22.8-39.78,37.2-6,7.6-11.13,15.76-13.89,25.06C933.17-71.15,925.61-64.54,915-60.74c-11.56,4.13-23.65,5.26-35.77,5.87-32.5,1.62-64.5-3.29-96.49-7.94A1081.76,1081.76,0,0,0,654.58-73.45c-44.84-1.13-89.33,3.28-133.93,6.11a135.33,135.33,0,0,1-30.24-1.36c-15.14-2.43-27.34-10-36.82-22.06-16.39-20.9-37.19-36.2-61-47.68-20.75-10-39.7-7.61-56.64,8.17-9.07,8.44-18.44,16.64-26.74,25.79C259-49.14,196.72-12.82,126.89,11.54,61.65,34.3-5.43,50.22-73,64.22c-22.7,4.71-43.92-.86-64-10.3C-182.92,32.36-230.83,29.4-280.1,36.31a52.44,52.44,0,0,1-6.76.12c0-63.49.09-127-.15-190.48,0-5.7,1.29-7,7-7Q365.41-160.8,1010.84-160.88Z" transform="translate(287.01 161.84)"/><path class="b" d="M579.79,931.92c19.68-18.36,40.3-35,66.94-42.77,23.84-7,48-12.29,72.64-14.73,65.2-6.45,130.6-8.06,196-5.87,39,1.3,77.65,5.48,114.14,20.82,14.49,6.09,28.51,13,39.73,24.47,4.94,5,8.26,10.81,8.33,18.08Z" transform="translate(287.01 161.84)"/><path class="b" d="M1247.61,931.92c-5.48-4.36-12.45-6-17.82-10.91-10.59-9.64-13.37-19.55-7.13-32.43C1232,869.27,1248,856,1265,843.94c27.35-19.32,57.55-31.45,91.21-34a54.61,54.61,0,0,1,9.79.54c20.73,2.25,26.72,13.75,16.21,31.8a93.88,93.88,0,0,1-12.8,17.8c-19.57,20.42-38.51,41.52-61.13,58.83-7,5.39-15.56,8-22.69,13Z" transform="translate(287.01 161.84)"/><path class="b" d="M1552.69,931.92c.38-15.35-.35-30.72,2.06-46,5.37-34.06,23.13-59.64,52.23-77.69,15.47-9.59,31.6-17.78,48.92-23.53,0,47.31-.08,94.61.12,141.91,0,4.53-.91,5.48-5.44,5.45C1618,931.8,1585.32,931.92,1552.69,931.92Z" transform="translate(287.01 161.84)"/><path class="a" d="M1457.07-160.88c-2.35,10.84,1.35,21.41,1.41,32.15.09,13.87.73,27.81-8.48,39.63-6.56,8.42-13.33,7.61-21.51,3.5-11.82-5.94-19.84-16.08-27.4-26.59-11.21-15.59-20-32.67-30.54-48.69Z" transform="translate(287.01 161.84)"/><path class="a" d="M1655.9-85c-11.29-18.21-15.1-38.67-17.89-59.43-.74-5.47-1.24-11-1.85-16.46,6.58,0,15.72-2.57,19,.72s.73,12.43.73,19Z" transform="translate(287.01 161.84)"/></svg>