<svg xmlns="http://www.w3.org/2000/svg" viewBox="0 0 1943.05 1093.24"><defs><style>.a{opacity:0;fill:#ffffff;}.b{fill:#ffffff;}</style></defs><title>1800f_00103</title><path class="a" d="M623.81,931.92H220.08a20.79,20.79,0,0,1,3.18-1.84,389.23,389.23,0,0,0,73.44-35.89c20.44-12.72,40.42-26.08,56.08-44.75,22.44-26.73,26.66-58.89,26-92-1.18-58.36-16.13-113.86-36.68-168-2.58-6.81-5-13.75-9.77-19.57-5.94-7.29-10-7-14.52,1.52-5.91,11.27-8.65,23.69-12.58,35.67-5.5,16.82-10.71,33.73-21,48.49-11,15.77-23,19.88-41.28,13.86a86.34,86.34,0,0,1-19.17-9c-9.4-5.93-18.77-11.93-28-18.13-36.47-24.51-74.34-47.07-106.49-77.56-22.4-21.25-37-45.33-35.36-77.88,1.53-29.53,4.66-58.93,6-88.47,1.17-26.88.72-53.63-4.9-80-9.74-45.69-33.15-85-59.33-122.73-11.89-17.14-26.52-31.84-45-42.14-24.82-13.81-49.88-2.87-57.33,24.69-2.8,10.38-2.29,20.57.16,30.67,4.36,17.92,9.55,35.63,13.91,53.54C-80.45,312.43-70,362.82-63.34,414c4.77,36.79,17,71.71,30,106.31,7.87,21,14.76,42.48,26.08,62.12,17.81,30.91,41.43,57.19,65.3,83.32,19.28,21.09,33.3,44.84,38.56,73.49,4.35,23.69,2.78,46.26-8.8,67.7C65.89,847.49,30,869-13.31,878.75c-42.95,9.64-81.1,29-117.22,53.17H-286.86V74.37c11.33-.89,22.64-2.11,34-2.63,44.12-2,87.14,5.57,129.83,15.51,23,5.35,45.69,7.61,68.82.44A513.51,513.51,0,0,1,39.05,67.81c34.4-4,68.62-9.07,101.74-19.87C196.1,29.93,244.41-.82,291.45-34,313.13-49.29,333.1-66.95,356-80.56c17.78-10.57,35.06-10.26,51.62,2.37,8.28,6.32,16,13.51,20.71,22.92,12.87,25.92,35.18,33.31,61.8,31.9,33.08-1.76,66.14-3.56,99.3-2.4,40.9,1.44,81.8,2.94,122.7,4.12,45,1.3,89.91,2.4,134.18,11.25,41.16,8.21,82.09,17.46,121.15,33.28,17.51,7.09,29.75,19.54,36,37.69,11.68,33.73,20,68.36,28.53,103a493.27,493.27,0,0,0,16.49,55.18c9,24.07,22.55,30.41,47,22,15.13-5.2,29.13-12.9,43.35-20,35.08-17.6,55.08-46.47,61.85-84.8,2.91-16.5,1.63-33.29,3-49.91,1.49-18.72,4.23-37.19,12.92-54.19,7.26-14.21,19-21.31,34.91-21,22.09.45,42.62,7.73,63.16,14.89,31.51,11,59.55,26.45,81.28,53.18,33.85,41.63,56.71,86.8,57.18,141.86q.33,38.69-.3,77.33c-1.25,77,12.77,152,34.12,225.54C1503.84,582,1538.13,628.43,1589,662.49c21.87,14.65,43.92,28.9,66.88,41.76V839.33c-2.73.52-5.47.94-8.16,1.57-39.89,9.33-79.64,19.22-115.47,40-19.66,11.42-38.87,23.75-37.26,51h-119.9c-1.57-2.14.21-3.8.84-5.6,3.7-10.53,6.46-21.46,5.5-32.52-1.94-22.28-10.52-33.28-33.51-32.79-36.85.8-72.75,31.88-80.6,70.91H1020c-14.54-15.28-33-24.4-52.62-30.15-51.8-15.17-104.85-14.75-157.71-8.2-45.32,5.62-90,15.78-134.53,25.74C657.91,923.15,640.49,926.07,623.81,931.92Z" transform="translate(287.01 161.19)"/><path class="b" d="M1655.9,704.25c-23-12.86-45-27.11-66.88-41.76-50.89-34.06-85.18-80.5-102.12-138.87-21.35-73.55-35.37-148.5-34.12-225.54q.63-38.68.3-77.33c-.47-55.06-23.33-100.23-57.18-141.86-21.73-26.73-49.77-42.19-81.28-53.18-20.54-7.16-41.07-14.44-63.16-14.89-15.91-.33-27.65,6.77-34.91,21-8.69,17-11.43,35.47-12.92,54.19-1.33,16.62-.05,33.41-3,49.91-6.77,38.33-26.77,67.2-61.85,84.8-14.22,7.14-28.22,14.84-43.35,20-24.4,8.39-38,2-47-22A493.27,493.27,0,0,1,1032,163.54c-8.48-34.61-16.85-69.24-28.53-103-6.28-18.15-18.52-30.6-36-37.69-39.06-15.82-80-25.07-121.15-33.28-44.27-8.85-89.23-10-134.18-11.25-40.9-1.18-81.8-2.68-122.7-4.12-33.16-1.16-66.22.64-99.3,2.4-26.62,1.41-48.93-6-61.8-31.9-4.68-9.41-12.43-16.6-20.71-22.92C391.07-90.82,373.79-91.13,356-80.56,333.1-66.95,313.13-49.29,291.45-34c-47,33.18-95.35,63.93-150.66,81.94-33.12,10.8-67.34,15.9-101.74,19.87A513.51,513.51,0,0,0-54.22,87.69c-23.13,7.17-45.85,4.91-68.82-.44-42.69-9.94-85.71-17.53-129.83-15.51-11.35.52-22.66,1.74-34,2.63q0-114.21-.15-228.42c0-5.7,1.29-7,7-7q691,.22,1381.94.14c-5.24,8.07-12.56,14.31-18.89,21.42-15.17,17-29.85,34.37-39.17,55.52-3.18,7.22-5.5,14.64-5.8,22.61-.92,24.44,13.49,37.06,37.74,33.17,28.33-4.54,55.28-14,82.39-22.89,19.3-6.31,32-19,39.35-38a441.54,441.54,0,0,0,21.25-71.81h431c.78,2.22-.73,3.86-1.53,5.64-4.46,9.88-8.59,19.91-11.39,30.37-4.8,18-9.9,36-8.73,54.87,1.48,24.23,13,44,27.73,62.41Z" transform="translate(287.01 161.19)"/><path class="b" d="M-130.53,931.92c36.12-24.22,74.27-43.53,117.22-53.17C30,869,65.89,847.49,87.79,807c11.58-21.44,13.15-44,8.8-67.7-5.26-28.65-19.28-52.4-38.56-73.49-23.87-26.13-47.49-52.41-65.3-83.32-11.32-19.64-18.21-41.08-26.08-62.12-12.95-34.6-25.22-69.52-30-106.31-6.63-51.2-17.11-101.59-29.3-151.68-4.36-17.91-9.55-35.62-13.91-53.54-2.45-10.1-3-20.29-.16-30.67,7.45-27.56,32.51-38.5,57.33-24.69,18.51,10.3,33.14,25,45,42.14,26.18,37.75,49.59,77,59.33,122.73,5.62,26.34,6.07,53.09,4.9,80-1.29,29.54-4.42,58.94-6,88.47-1.68,32.55,13,56.63,35.36,77.88,32.15,30.49,70,53,106.49,77.56,9.22,6.2,18.59,12.2,28,18.13a86.34,86.34,0,0,0,19.17,9c18.29,6,30.29,1.91,41.28-13.86,10.29-14.76,15.5-31.67,21-48.49,3.93-12,6.67-24.4,12.58-35.67,4.48-8.52,8.58-8.81,14.52-1.52,4.75,5.82,7.19,12.76,9.77,19.57,20.55,54.19,35.5,109.69,36.68,168,.67,33.13-3.55,65.29-26,92-15.66,18.67-35.64,32-56.08,44.75a389.23,389.23,0,0,1-73.44,35.89,20.79,20.79,0,0,0-3.18,1.84Z" transform="translate(287.01 161.19)"/><path class="a" d="M1218.78-160.88a441.54,441.54,0,0,1-21.25,71.81c-7.35,19.07-20,31.71-39.35,38-27.11,8.89-54.06,18.35-82.39,22.89-24.25,3.89-38.66-8.73-37.74-33.17.3-8,2.62-15.39,5.8-22.61,9.32-21.15,24-38.5,39.17-55.52,6.33-7.11,13.65-13.35,18.89-21.42Z" transform="translate(287.01 161.19)"/><path class="b" d="M623.81,931.92c16.68-5.85,34.1-8.77,51.28-12.61,44.58-10,89.21-20.12,134.53-25.74,52.86-6.55,105.91-7,157.71,8.2,19.65,5.75,38.08,14.87,52.62,30.15Z" transform="translate(287.01 161.19)"/><path class="b" d="M1495,931.92c-1.61-27.23,17.6-39.56,37.26-51,35.83-20.82,75.58-30.71,115.47-40,2.69-.63,5.43-1,8.16-1.57,0,29.09-.13,58.19.13,87.27,0,4.54-.92,5.46-5.45,5.45C1598.73,931.84,1546.87,931.92,1495,931.92Z" transform="translate(287.01 161.19)"/><path class="b" d="M1267.34,931.92c7.85-39,43.75-70.11,80.6-70.91,23-.49,31.57,10.51,33.51,32.79,1,11.06-1.8,22-5.5,32.52-.63,1.8-2.41,3.46-.84,5.6Z" transform="translate(287.01 161.19)"/><path class="a" d="M1655.9-7.59C1641.2-26,1629.65-45.77,1628.17-70c-1.17-18.92,3.93-36.9,8.73-54.87,2.8-10.46,6.93-20.49,11.39-30.37.8-1.78,2.31-3.42,1.53-5.64,5.2-1.15,6.25.87,6.23,6.07C1655.79-105.74,1655.9-56.66,1655.9-7.59Z" transform="translate(287.01 161.19)"/></svg>