<svg xmlns="http://www.w3.org/2000/svg" viewBox="0 0 1943.07 1093.09"><defs><style>.a{opacity:0;fill:#ffffff;}.b{fill:#ffffff;}</style></defs><title>1800f_00256</title><path class="a" d="M798.35,931.92H262.58c-10.15-11.28-20.38-22.49-30.43-33.85-24.77-28-52.73-51.64-88.3-65-23.43-8.8-46.94-17.34-70.86-24.76-47.88-14.86-96.37-19.88-145.94-9.78a896.63,896.63,0,0,0-111,30.6c-7.65,2.61-15.31,5.34-23.48,5.82-11.26.66-15.44-4.21-13.1-15.21,2.73-12.82,8.86-24.24,15.58-35.23,11.34-18.55,23-36.94,35-55,16.81-25.14,16.47-49.54-1.63-73.76-7.4-9.92-13.93-20.62-22.16-29.79-25.47-28.38-43.87-60.38-53.29-97.49-8.36-32.93-14.91-66.07-13.23-100.3.9-18.21,10.14-31.09,23.8-32.48a96.69,96.69,0,0,1,24.2.59c17,2.56,34,4.94,51.17,1.4,25.77-5.33,44.59-20.73,59.12-41.89,19-27.62,30.68-58.56,40.44-90.33,20-65.23,19.83-129.92-5.37-193.89-3.7-9.4-8.15-18.5-11-28.25C-82.69,27-79.12,12.91-67,.92A120.94,120.94,0,0,1-47.38-14.52Q17.56-56.65,85.51-93.73c29.8-16.2,61.43-28.59,91.44-44.32,12.49-6.55,25.08-13.07,35.54-22.83h989.59a15.86,15.86,0,0,0,2.3,2.91c25.18,19.7,51.71,37.17,81.66,48.86,32,12.48,65.7,17.93,99.25,24,21.61,3.88,42.42,9.78,59.62,24.28,15.07,12.72,27.27,28.33,42,41.52,37,33.18,79.67,50.71,129.67,49.66,18.27-.39,28.63-9.65,31.7-27.94,3.28-19.48-.16-38.34-4.9-56.93-11.19-43.8-37.65-74.3-80.89-88.92-25.61-8.67-52-5.21-78.11-2.79-16.56,1.53-33,5.28-49.72,3.65-14.75-1.44-28.52-5.91-38.29-18.26q126.73,0,253.46-.15c5.2,0,6.23,1,6.22,6.22q-.27,207.18-.14,414.35a107.74,107.74,0,0,0,0,69.82V569.17c-10.34,9.46-17.54,21.35-24.74,33.09-13.61,22.19-26.33,44.92-39.89,67.13-10,16.29-21.64,31.17-38.4,41.23-22.41,13.44-46.13,8.29-60.23-13.23a70.43,70.43,0,0,1-10.87-28.12c-3.48-23-13.8-42.66-29-59.86-21.12-23.88-42.53-47.44-55.76-77.08a152.7,152.7,0,0,0-19.14-31.75c-15.58-19.89-38.69-19.33-53.07,1.33A84.07,84.07,0,0,0,1314.19,522c-18.82,53.32-45.87,102.46-78.26,148.46-23.32,33.13-42,68.39-57.29,105.7-10.86,26.46-17.13,54.49-28.18,80.86-6.18,14.74-12.89,29.21-24.08,40.94-14.85,15.56-28.91,17-46.56,5-4.59-3.12-8.92-6.63-13.31-10-13.37-10.36-26-21.73-42.09-28.1C986,849.54,946.13,845,905.32,850.38c-35.35,4.68-66.84,17.89-90.44,46C806.22,906.67,798,917.37,798.35,931.92Zm180.4-332c.73,34.79,10.54,66,38.27,88.88,34,28.1,90.42,31.06,129.33,8,21.77-12.88,35.6-31,38.47-56.63.9-8,2.47-16,3.12-24,.8-10,1.86-20,.3-30.17-1.52-10-8.41-17.75-18-19.8-13.27-2.83-26.11.82-39,2.4-23.42,2.87-46.21,2.76-68.21-7.66-11.36-5.38-22.86-10.71-35.31-13.52-24.15-5.46-38.47,2.67-45.64,26.22C979.42,582.23,978.68,591,978.75,599.94Z" transform="translate(287.03 161.03)"/><path class="b" d="M212.49-160.88C202-151.12,189.44-144.6,177-138c-30,15.73-61.64,28.12-91.44,44.32q-68,37-132.89,79.21A120.94,120.94,0,0,0-67,.92c-12.09,12-15.66,26-10.87,42.38,2.85,9.75,7.3,18.85,11,28.25,25.2,64,25.41,128.66,5.37,193.89C-71.29,297.21-83,328.15-102,355.77c-14.53,21.16-33.35,36.56-59.12,41.89-17.14,3.54-34.19,1.16-51.17-1.4a96.69,96.69,0,0,0-24.2-.59c-13.66,1.39-22.9,14.27-23.8,32.48-1.68,34.23,4.87,67.37,13.23,100.3,9.42,37.11,27.82,69.11,53.29,97.49,8.23,9.17,14.76,19.87,22.16,29.79,18.1,24.22,18.44,48.62,1.63,73.76-12.08,18.08-23.7,36.47-35,55-6.72,11-12.85,22.41-15.58,35.23-2.34,11,1.84,15.87,13.1,15.21,8.17-.48,15.83-3.21,23.48-5.82a896.63,896.63,0,0,1,111-30.6c49.57-10.1,98.06-5.08,145.94,9.78,23.92,7.42,47.43,16,70.86,24.76,35.57,13.36,63.53,37,88.3,65,10,11.36,20.28,22.57,30.43,33.85q-271.22,0-542.42.12c-5.33,0-7.19-.63-7.19-6.76q.28-539.74,0-1079.51c0-6.09,1.81-6.78,7.17-6.77Q-33.68-160.77,212.49-160.88Z" transform="translate(287.03 161.03)"/><path class="b" d="M798.35,931.92c-.31-14.55,7.87-25.25,16.53-35.55,23.6-28.1,55.09-41.31,90.44-46,40.81-5.4,80.65-.84,119.1,14.39,16.07,6.37,28.72,17.74,42.09,28.1,4.39,3.41,8.72,6.92,13.31,10,17.65,12,31.71,10.57,46.56-5,11.19-11.73,17.9-26.2,24.08-40.94,11-26.37,17.32-54.4,28.18-80.86,15.33-37.31,34-72.57,57.29-105.7,32.39-46,59.44-95.14,78.26-148.46a84.07,84.07,0,0,1,10.59-20.05c14.38-20.66,37.49-21.22,53.07-1.33A152.7,152.7,0,0,1,1397,532.33c13.23,29.64,34.64,53.2,55.76,77.08,15.22,17.2,25.54,36.82,29,59.86a70.43,70.43,0,0,0,10.87,28.12c14.1,21.52,37.82,26.67,60.23,13.23,16.76-10.06,28.45-24.94,38.4-41.23,13.56-22.21,26.28-44.94,39.89-67.13,7.2-11.74,14.4-23.63,24.74-33.09q0,178.33.14,356.68c0,5.19-1,6.21-6.22,6.21Q1224.09,931.82,798.35,931.92Z" transform="translate(287.03 161.03)"/><path class="b" d="M1396.36-160.88c9.77,12.35,23.54,16.82,38.29,18.26,16.68,1.63,33.16-2.12,49.72-3.65,26.15-2.42,52.5-5.88,78.11,2.79,43.24,14.62,69.7,45.12,80.89,88.92,4.74,18.59,8.18,37.45,4.9,56.93-3.07,18.29-13.43,27.55-31.7,27.94-50,1.05-92.62-16.48-129.67-49.66-14.72-13.19-26.92-28.8-42-41.52-17.2-14.5-38-20.4-59.62-24.28-33.55-6-67.27-11.48-99.25-24-30-11.69-56.48-29.16-81.66-48.86a15.86,15.86,0,0,1-2.3-2.91Z" transform="translate(287.03 161.03)"/><path class="b" d="M1655.9,329.36a107.74,107.74,0,0,1,0-69.82Z" transform="translate(287.03 161.03)"/><path class="b" d="M978.75,599.94c-.07-8.94.67-17.71,3.27-26.27,7.17-23.55,21.49-31.68,45.64-26.22,12.45,2.81,23.95,8.14,35.31,13.52,22,10.42,44.79,10.53,68.21,7.66,12.92-1.58,25.76-5.23,39-2.4,9.62,2,16.51,9.84,18,19.8,1.56,10.13.5,20.15-.3,30.17-.65,8-2.22,16-3.12,24-2.87,25.67-16.7,43.75-38.47,56.63-38.91,23-95.28,20.06-129.33-8C989.29,665.94,979.48,634.73,978.75,599.94Z" transform="translate(287.03 161.03)"/></svg>