<svg xmlns="http://www.w3.org/2000/svg" viewBox="0 0 1943.05 1093.09"><defs><style>.a{opacity:0;fill:#ffffff;}.b{fill:#ffffff;}</style></defs><title>1800f_00392</title><path class="a" d="M1394.84,931.92H89.55C82.55,920.4,73,911,63.8,901.35,18.13,853.45-34.92,815.64-94,785.88-119.92,772.8-146.59,761.1-171.5,746c-27.83-16.9-40.85-41-36.54-73.86,2.95-22.48,11.22-43.11,22.82-62.23,20.85-34.37,42.42-68.3,63.81-102.34,16.15-25.69,32.54-51.22,52.94-73.9C-41,403-7.69,380.25,29.38,363.19c57.31-26.38,103.06-65.91,139.3-117.3,21.73-30.82,45.45-60.11,73.25-85.85a411.65,411.65,0,0,0,55-61.59c23.43-32.61,42.76-67.18,45.31-108.37,2.09-33.63-10.65-66.2-59-61.93a248.22,248.22,0,0,1-44.7-.44q-35.46-3.33-71-6.26C140.4-80.81,114.48-72.41,88-68.86,44.83-63.08,5.4-68-25.57-103.2c-9.84-11.16-23.17-14.43-38.08-10C-77.7-109.07-90.09-102-101.73-93.39c-19,14-35.48,30.8-53.48,45.9-19,16-39.37,29.75-64.57,33.17-22.25,3-44.71,4.55-67.08,6.73,0-48.82.11-97.64-.15-146.46,0-5.7,1.29-7,7-7q607.48.22,1215,.14c-.63,1.92.46,3.41,1.27,5,6.53,12.56,13.31,25,21.4,36.65,35.45,51,79.94,93.09,129.74,129.72,32,23.54,66.85,42.79,99.49,65.39a488.11,488.11,0,0,1,106.94,100.26c13.74,17.51,19.6,37.54,18.37,59.51-1.54,27.26-11.06,52.22-23.56,76.19-15.53,29.81-36.65,55.69-57.53,81.73-9.64,12-19.89,23.58-26.31,37.87-6.77,15.08-5.88,29.42,3.54,43.14,6.1,8.87,14,15.92,22.61,22.21,51.36,37.49,106.4,4.95,122.51-31.2a79.65,79.65,0,0,0,6.54-31.67c.28-17.19-1.63-34.43.5-51.55,3.43-27.69,20.65-47,40.2-64.9,18.49-16.9,38.8-31.6,57.84-47.81,22.31-19,46.27-35,73.46-46.22,40.47-16.77,82.44-29.07,123.94-42.79V449.26c-7.67,3.43-14,9-21,13.5-41.25,26.84-72.2,62.21-93.72,106.89-43.59,90.46-81.76,183.31-123.34,274.65A273.07,273.07,0,0,0,1394.84,931.92ZM607.21,411.58c23.82-.45,52.09-3.74,78.06-17.4,20.16-10.6,34-26,32.07-50.43-1.29-16.24-6.78-31.55-14.88-45.81s-20.79-21.2-36.86-23.33c-23.29-3.09-45.94,0-68.16,6.48-31.5,9.24-60.3,23.43-82.46,48.65-15.21,17.31-18.32,36.45-8.13,52,6.37,9.74,16.35,14.87,26.84,18.89C555.74,409.1,578.82,411.33,607.21,411.58Zm-344,130.51c-11.14.24-20.68.88-29.83,4.29-15.27,5.7-19.78,16.69-12.69,31.26,5.68,11.67,14.82,20.4,25,28.05C279.2,631,316.13,642.64,358,631.2c17.05-4.66,32.53-12.78,43.46-27.32,7.69-10.22,6.64-17.87-2.88-26.58-7.39-6.76-16.41-10.83-25.64-14.36C337.09,549.22,299.64,544.27,263.18,542.09ZM659.41,667.65c6,.4,11.74-.82,17.38-2.06,15.91-3.48,28.11-16.22,29.92-30.62,1.65-13.2-6.63-27.23-21.67-34.21-31.28-14.51-63-12-94.28-.11-11.51,4.39-13.62,13.1-8,24.09a45.7,45.7,0,0,0,3.91,6.48C604.83,655.59,630.49,664.94,659.41,667.65Z" transform="translate(287.01 161.02)"/><path class="b" d="M-286.86-7.59c22.37-2.18,44.83-3.7,67.08-6.73,25.2-3.42,45.56-17.21,64.57-33.17,18-15.1,34.53-31.92,53.48-45.9,11.64-8.6,24-15.68,38.08-19.83,14.91-4.41,28.24-1.14,38.08,10C5.4-68,44.83-63.08,88-68.86c26.47-3.55,52.39-12,79.55-9.69q35.5,3,71,6.26a248.22,248.22,0,0,0,44.7.44c48.33-4.27,61.07,28.3,59,61.93-2.55,41.19-21.88,75.76-45.31,108.37a411.65,411.65,0,0,1-55,61.59c-27.8,25.74-51.52,55-73.25,85.85-36.24,51.39-82,90.92-139.3,117.3C-7.69,380.25-41,403-68.47,433.64c-20.4,22.68-36.79,48.21-52.94,73.9-21.39,34-43,68-63.81,102.34-11.6,19.12-19.87,39.75-22.82,62.23-4.31,32.84,8.71,57,36.54,73.86,24.91,15.13,51.58,26.83,77.53,39.91,59.05,29.76,112.1,67.57,157.77,115.47,9.19,9.64,18.75,19,25.75,30.57q-185.17,0-370.34.14c-5.2,0-6.22-1-6.21-6.21Q-286.76,459.13-286.86-7.59Z" transform="translate(287.01 161.02)"/><path class="b" d="M1655.9,180.62c-41.5,13.72-83.47,26-123.94,42.79-27.19,11.26-51.15,27.22-73.46,46.22-19,16.21-39.35,30.91-57.84,47.81-19.55,17.85-36.77,37.21-40.2,64.9-2.13,17.12-.22,34.36-.5,51.55a79.65,79.65,0,0,1-6.54,31.67c-16.11,36.15-71.15,68.69-122.51,31.2-8.62-6.29-16.51-13.34-22.61-22.21-9.42-13.72-10.31-28.06-3.54-43.14,6.42-14.29,16.67-25.85,26.31-37.87,20.88-26,42-51.92,57.53-81.73,12.5-24,22-48.93,23.56-76.19,1.23-22-4.63-42-18.37-59.51A488.11,488.11,0,0,0,1186.85,75.85c-32.64-22.6-67.49-41.85-99.49-65.39-49.8-36.63-94.29-78.7-129.74-129.72-8.09-11.64-14.87-24.09-21.4-36.65-.81-1.56-1.9-3.05-1.27-5q357.06,0,714.12-.14c5.69,0,7,1.28,7,7Q1655.76,13.28,1655.9,180.62Z" transform="translate(287.01 161.02)"/><path class="b" d="M1394.84,931.92a273.07,273.07,0,0,1,23.05-87.62c41.58-91.34,79.75-184.19,123.34-274.65,21.52-44.68,52.47-80,93.72-106.89,7-4.53,13.28-10.07,21-13.5q0,238.31.14,476.59c0,5.19-1,6.23-6.22,6.22Q1522.34,931.76,1394.84,931.92Z" transform="translate(287.01 161.02)"/><path class="b" d="M607.21,411.58c-28.39-.25-51.47-2.48-73.52-10.93-10.49-4-20.47-9.15-26.84-18.89-10.19-15.57-7.08-34.71,8.13-52,22.16-25.22,51-39.41,82.46-48.65,22.22-6.51,44.87-9.57,68.16-6.48,16.07,2.13,28.71,9,36.86,23.33s13.59,29.57,14.88,45.81c1.94,24.41-11.91,39.83-32.07,50.43C659.3,407.84,631,411.13,607.21,411.58Z" transform="translate(287.01 161.02)"/><path class="b" d="M263.18,542.09c36.46,2.18,73.91,7.13,109.71,20.85,9.23,3.53,18.25,7.6,25.64,14.36,9.52,8.71,10.57,16.36,2.88,26.58C390.48,618.42,375,626.54,358,631.2c-41.82,11.44-78.75-.19-112.33-25.51-10.14-7.65-19.28-16.38-25-28.05-7.09-14.57-2.58-25.56,12.69-31.26C242.5,543,252,542.33,263.18,542.09Z" transform="translate(287.01 161.02)"/><path class="b" d="M659.41,667.65c-28.92-2.71-54.58-12.06-72.72-36.43a45.7,45.7,0,0,1-3.91-6.48c-5.64-11-3.53-19.7,8-24.09,31.27-11.91,63-14.4,94.28.11,15,7,23.32,21,21.67,34.21-1.81,14.4-14,27.14-29.92,30.62C671.15,666.83,665.4,668.05,659.41,667.65Z" transform="translate(287.01 161.02)"/></svg>