<svg xmlns="http://www.w3.org/2000/svg" viewBox="0 0 1943.04 1093.09"><defs><style>.a{opacity:0;fill:#ffffff;}.b{fill:#ffffff;}</style></defs><title>1800f_00279</title><path class="a" d="M1482.87,931.92H24.28c.23-3.28.67-6.55.65-9.83-.11-20.43-2.06-40.48-14.17-57.92-8.28-11.93-19.88-15.28-33.19-9.51a265.58,265.58,0,0,0-24.45,12.1C-74.4,882.18-104,889-135.36,889.93a122.16,122.16,0,0,0-42.72,9c-20.93,8.59-39,22.24-58.69,33-14.93,0-29.86-.23-44.77.13-4.55.11-5.47-.92-5.45-5.44.2-52.62.13-105.24.13-157.85V420.43c3.38,1.68,5.82-.83,8.36-2.12,18.93-9.59,34.76-23.37,50-37.82,24.48-23.21,52-40.87,85.45-48.07a109.56,109.56,0,0,1,12.7-2.11C-105.89,328-93.73,341-96.93,365.39c-3.55,27.06-6.85,54.19-5.37,81.57,1.12,20.67,7.87,38.89,23.59,53.31,13.63,12.5,30.09,19.64,47.26,24.85a565,565,0,0,1,80.51,31.19c41.61,20,81.91,15,121-7.5,15.12-8.69,19-17.81,14.7-34.78A484.9,484.9,0,0,0,160,442.53c-13.57-31.59-8.53-58.47,14.2-83.09.35-.37.63-.79,1-1.17,32.71-37,61.81-76.8,89.92-117.37A328.4,328.4,0,0,1,314,185.1c6.72-6.13,13.27-12.47,19.7-18.91,24.42-24.53,40.94-53,44.95-88.09,2-17.28,3.15-34.79,11.37-50.74,14.42-28,33.67-52.24,56.6-73.59,11.91-11.08,26-16.07,42.54-13.11,29.23,5.23,55.48,16.92,78.37,35.89,5.08,4.22,9.76,9.15,12.46,15.15,10.1,22.48,29.11,27.11,50.94,25.74C661.69,15.52,690.29,5.83,717.61-8c14-7.12,27.12-15.7,40-24.68,6.84-4.77,13.91-9.21,20.92-13.73,16.38-10.58,32.2-9.74,47.87,1.85,16.26,12,32,24.8,49.58,35,89.87,52,186.79,81.76,290.1,89.92,40.29,3.18,77,13.7,108.11,40.24,19.48,16.6,40.45,31.07,62,45,27.34,17.65,51.72,39,72,64.58,16.65,21,31.27,43.52,45.42,66.31,25.62,41.22,44.14,85.82,62.48,130.52,16,39,33.12,77.65,43.25,118.88,7.8,31.77,10,64.4,16.11,96.42,4.45,23.41,9.79,46.58,23.4,66.79,12.7,18.84,28.58,24.89,50.47,19.49,2.2-.54,4.42-1,6.64-1.44V860.58c-21.94-2.3-43-7.45-59.81-22.7-9.91-9-20.47-11.59-32.71-6.79-25.93,10.17-47,26.28-60.94,50.91C1493.5,897.73,1488.23,914.82,1482.87,931.92ZM-108.51,643.33a84.5,84.5,0,0,0-13.65-48.11c-16-25-46.8-26.82-64.6-3.5q-17.88,23.44-12.85,52.79c4.52,26.11,15.14,49.11,34.33,67.67,12.2,11.8,25.7,10.82,35.73-2.17C-114.36,690.35-109.66,667.39-108.51,643.33ZM1190.24,366c0,1.52-.06,3,0,4.55.62,12.86,7.91,18.09,20.26,14.42a50,50,0,0,0,7-2.89c15-7,28-17.19,40.23-28.14,16.81-15,32.69-31,42.08-52.08,2.58-5.8,4.5-11.79,2.84-18.34-3.2-12.57-15.94-19.57-31.34-17A73.44,73.44,0,0,0,1239,280.66C1210.48,302.09,1193.66,330.24,1190.24,366Z" transform="translate(287 161.03)"/><path class="b" d="M1655.9,727c-2.22.47-4.44.9-6.64,1.44-21.89,5.4-37.77-.65-50.47-19.49-13.61-20.21-19-43.38-23.4-66.79-6.09-32-8.31-64.65-16.11-96.42-10.13-41.23-27.23-79.84-43.25-118.88-18.34-44.7-36.86-89.3-62.48-130.52-14.15-22.79-28.77-45.26-45.42-66.31-20.28-25.62-44.66-46.93-72-64.58-21.5-13.88-42.47-28.35-62-44.95C1243,94,1206.36,83.46,1166.07,80.28,1062.76,72.12,965.84,42.33,876-9.64c-17.55-10.15-33.32-22.93-49.58-34.95C810.72-56.18,794.9-57,778.52-46.44c-7,4.52-14.08,9-20.92,13.73-12.87,9-26,17.56-40,24.68-27.32,13.86-55.92,23.55-86.7,25.47C609.08,18.81,590.07,14.18,580-8.3c-2.7-6-7.38-10.93-12.46-15.15-22.89-19-49.14-30.66-78.37-35.89-16.52-3-30.63,2-42.54,13.11C423.67-24.88,404.42-.6,390,27.36c-8.22,16-9.39,33.46-11.37,50.74-4,35-20.53,63.56-44.95,88.09-6.43,6.44-13,12.78-19.7,18.91a328.4,328.4,0,0,0-48.93,55.8c-28.11,40.57-57.21,80.34-89.92,117.37-.34.38-.62.8-1,1.17-22.73,24.62-27.77,51.5-14.2,83.09A484.9,484.9,0,0,1,184.73,514c4.31,17,.42,26.09-14.7,34.78-39.06,22.46-79.36,27.46-121,7.5a565,565,0,0,0-80.51-31.19c-17.17-5.21-33.63-12.35-47.26-24.85-15.72-14.42-22.47-32.64-23.59-53.31-1.48-27.38,1.82-54.51,5.37-81.57,3.2-24.36-9-37.39-33.41-35.08a109.56,109.56,0,0,0-12.7,2.11c-33.44,7.2-61,24.86-85.45,48.07-15.25,14.45-31.08,28.23-50,37.82-2.54,1.29-5,3.8-8.36,2.12q0-287.25-.14-574.48c0-5.69,1.28-7,7-7q135.46.32,270.92.15c-1.73,13.22-3.84,26.41-5.11,39.69-3.29,34.68,9.81,57,46.31,64.72,28.28,6,54.55-1.08,79.34-14.9,27.41-15.28,48.25-38.06,69-60.82,8.47-9.26,17.71-17.93,24.44-28.69q722.09,0,1444.17-.14c5.69,0,7,1.28,7,7Q1655.8,286.48,1655.9,727Z" transform="translate(287 161.03)"/><path class="a" d="M204.9-160.88c-6.73,10.76-16,19.43-24.44,28.69-20.78,22.76-41.62,45.54-69,60.82C86.64-57.55,60.37-50.48,32.09-56.47c-36.5-7.74-49.6-30-46.31-64.72,1.27-13.28,3.38-26.47,5.11-39.69Z" transform="translate(287 161.03)"/><path class="b" d="M1482.87,931.92c5.36-17.1,10.63-34.19,19.57-49.92,14-24.63,35-40.74,60.94-50.91,12.24-4.8,22.8-2.18,32.71,6.79,16.83,15.25,37.87,20.4,59.81,22.7,0,22-.17,44,.13,66,.06,4.54-.92,5.46-5.45,5.45C1594.68,931.85,1538.77,931.92,1482.87,931.92Z" transform="translate(287 161.03)"/><path class="b" d="M-236.77,931.92c19.71-10.72,37.76-24.37,58.69-33a122.16,122.16,0,0,1,42.72-9c31.36-1,61-7.75,88.48-23.17a265.58,265.58,0,0,1,24.45-12.1c13.31-5.77,24.91-2.42,33.19,9.51,12.11,17.44,14.06,37.49,14.17,57.92,0,3.28-.42,6.55-.65,9.83Z" transform="translate(287 161.03)"/><path class="b" d="M-108.51,643.33c-1.15,24.06-5.85,47-21,66.68-10,13-23.53,14-35.73,2.17-19.19-18.56-29.81-41.56-34.33-67.67q-5.05-29.29,12.85-52.79c17.8-23.32,48.65-21.45,64.6,3.5A84.5,84.5,0,0,1-108.51,643.33Z" transform="translate(287 161.03)"/><path class="b" d="M1190.24,366c3.42-35.75,20.24-63.9,48.74-85.33a73.44,73.44,0,0,1,32.33-14.17c15.4-2.55,28.14,4.45,31.34,17,1.66,6.55-.26,12.54-2.84,18.34-9.39,21.08-25.27,37-42.08,52.08-12.23,10.95-25.18,21.11-40.23,28.14a50,50,0,0,1-7,2.89c-12.35,3.67-19.64-1.56-20.26-14.42C1190.18,369,1190.24,367.51,1190.24,366Z" transform="translate(287 161.03)"/></svg>