<svg xmlns="http://www.w3.org/2000/svg" viewBox="0 0 1943.04 1093.11"><defs><style>.a{opacity:0;fill:#ffffff;}.b{fill:#ffffff;}</style></defs><title>1800f_00291</title><path class="a" d="M1655.9,749.78c0,58.42-.09,116.84.13,175.26,0,5.56-1.09,7-6.91,7q-710.11-.26-1420.23-.15-254.53,0-509.07.16c-6,0-6.81-1.73-6.81-7.14q.24-258.33.13-516.66a175.59,175.59,0,0,1,44.5,2.37c27,4.61,54,8.77,81.09,1.71,22.72-5.91,45.36-12.17,68-18.49,20-5.58,39.56-12.12,57.89-22.19,20.88-11.49,36.2-28.81,51.09-46.74,17.23-20.76,35.54-40.67,48.43-64.71,7.17-13.36,4.83-20.92-9.15-26.81a42.41,42.41,0,0,0-7.17-2.37c-19.49-4.25-39.16-3.41-58.72-1.12-27.35,3.19-54.2,9.28-81,15.52-20.1,4.67-40.33,6.89-60.83,3-26.79-5.13-49.61-17.95-69.9-35.89-16.55-14.63-29.15-32.92-45.14-48-5.75-5.42-10.91-11.93-19.07-14.25Q-286.86-1.9-287-154c0-5.69,1.29-7,7-7q594.59.22,1189.18.14c-1.35,2.61-4.12,2.69-6.43,3.48a498.29,498.29,0,0,0-47,19.38,198.45,198.45,0,0,1-22.54,8.92c-32.5,10.46-65.47,7.79-98.31,2.32-37.63-6.27-75.11-13.37-112.66-20.06-20.57-3.66-29,.73-38.12,19.64-2.08,4.33-4,8.72-6,13.08-12,25.94-22.45,52.58-36.76,77.4-5.58,9.68-11.77,18.87-20.21,26.37-10.92,9.7-20.74,9.76-31.59-.14A104.2,104.2,0,0,1,477.2-23.84c-11-14.29-19.25-30.25-27.88-46-13.6-24.81-33.6-35.55-59.15-31.62-13.12,2-25.28,7.13-37,13.25-49.31,25.8-86.52,64.2-115.78,111-17.45,27.91-31.58,57.66-48.15,86-14.28,24.44-29,48.65-43.77,72.77-10.88,17.74-15.23,36.31-10.75,57.05,7,32.45,4.24,64.23-8,95.2-9.23,23.33-20.74,45.56-32.66,67.57-8.5,15.68-15.14,32-18.19,49.62-3.93,22.66-6.89,45.44-7.74,68.48-.82,22.15-7.37,30.22-29,33.7a221.28,221.28,0,0,1-56.69,1.4c-11.55-1.13-23.09-2.81-34.77-2.11-9.79.58-17,5.17-18.67,12.63a57.16,57.16,0,0,0-1.11,19.51c2.49,20.78,4.74,41.42,1.5,62.57C-74.46,672.07-81.41,696-87.5,720.28c-7.75,30.8-9.3,61.56,2.4,91.68,10.36,26.65,26.88,47.56,56.71,54A99.66,99.66,0,0,0-2.76,868c31.17-1.48,62.07,2.65,93.1,4.19,36.46,1.81,41.65-4.44,55.36-30,2.63-4.9,5-9.92,7.53-14.89,10.08-20.13,19.93-40.38,30.29-60.36,6.93-13.37,16-25.27,28.83-33.55,17-11,35.1-9.2,53.28-3.53,30.79,9.6,56.67,27.45,80.74,48.32,20.32,17.62,41.74,33.58,66.67,44.33,35.07,15.12,71.57,16.25,108.73,11.68,12.39-1.53,24.38-4.29,35.55-10,30.46-15.71,42.15-47.25,29.25-79-6.81-16.76-17.72-30.64-31.19-42.39-38.63-33.68-83.73-55.31-132.43-70-36.39-11-73.39-14.21-110.94-7.37-25.58,4.66-50.49,11-68.78,31.82-4.14,4.71-9.18,8.65-13.94,12.79-11.84,10.31-23.85,20.67-39.84,23.69-26,4.91-50.75.23-74.06-12.09-28.34-15-35.26-59.71-13.2-83.42,10.12-10.88,23.58-13.18,37.06-15.22,36.26-5.5,70.08-16.95,100.35-38.27q31.05-21.87,60.37-45.91c60-49.12,105-109,130.75-182.68,19.42-55.57,31.49-112.87,41.35-170.73,4.14-24.33,10-48,24-68.9C505.66,62.2,516,58.76,532,64.18a79.24,79.24,0,0,1,11.84,5.06q19.08,10.16,38,20.66c26.95,15,54,30,76,52.28,5.73,5.81,13.33,9.08,21.23,11.31,18.9,5.31,38,4.37,57.2,2.07,34.17-4.1,67.79-11.22,101.2-19.28,29.14-7,56.17-3.48,82.34,12.08a995.35,995.35,0,0,0,122.6,61.56,872.19,872.19,0,0,1,93.75,46.41q45.81,26.13,93.75,48.17,32.06,14.69,63.86,29.94c9.8,4.7,19.39,9.92,27.92,16.75,14.74,11.8,16.62,23.17,6.37,38.94-8.35,12.84-19.53,23.16-30.6,33.55-16.8,15.75-33.33,31.73-47.22,50.25-29,38.69-49.92,82-71,125.17-7.43,15.26-13.63,31-16,48-2.83,20,7.73,36.95,27.13,42.26,10,2.72,20.08,2,30-.55,19.17-4.94,36.16-14.47,51.66-26.43,33.23-25.62,65.17-53,99.36-77.27,38.83-27.52,69.58-61.28,92.33-102.87,7.63-13.93,16.06-27.57,27.55-38.88,15.75-15.49,31.27-15.47,47.08-.15,11.45,11.1,19.12,24.72,26.39,38.66,12.6,24.13,19.43,50.45,29.12,75.68,18.77,48.84,37.87,97.57,50.81,148.4Q1650.21,727.88,1655.9,749.78Z" transform="translate(287.01 161.03)"/><path class="b" d="M1655.9,749.78q-5.65-21.91-11.29-43.85c-12.94-50.83-32-99.56-50.81-148.4-9.69-25.23-16.52-51.55-29.12-75.68-7.27-13.94-14.94-27.56-26.39-38.66-15.81-15.32-31.33-15.34-47.08.15-11.49,11.31-19.92,25-27.55,38.88-22.75,41.59-53.5,75.35-92.33,102.87-34.19,24.23-66.13,51.65-99.36,77.27-15.5,12-32.49,21.49-51.66,26.43-9.92,2.55-20,3.27-30,.55-19.4-5.31-30-22.3-27.13-42.26,2.41-17,8.61-32.72,16-48,21.06-43.19,42-86.48,71-125.17,13.89-18.52,30.42-34.5,47.22-50.25,11.07-10.39,22.25-20.71,30.6-33.55,10.25-15.77,8.37-27.14-6.37-38.94-8.53-6.83-18.12-12.05-27.92-16.75q-31.8-15.26-63.86-29.94-48-22-93.75-48.17a872.19,872.19,0,0,0-93.75-46.41,995.35,995.35,0,0,1-122.6-61.56c-26.17-15.56-53.2-19.1-82.34-12.08-33.41,8.06-67,15.18-101.2,19.28-19.16,2.3-38.3,3.24-57.2-2.07-7.9-2.23-15.5-5.5-21.23-11.31-22-22.31-49-37.24-76-52.28q-18.87-10.53-38-20.66A79.24,79.24,0,0,0,532,64.18c-16.06-5.42-26.35-2-35.9,12.24-14,20.85-19.9,44.57-24,68.9-9.86,57.86-21.93,115.16-41.35,170.73C405,389.77,360,449.61,300,498.73q-29.39,24-60.37,45.91c-30.27,21.32-64.09,32.77-100.35,38.27-13.48,2-26.94,4.34-37.06,15.22-22.06,23.71-15.14,68.43,13.2,83.42,23.31,12.32,48,17,74.06,12.09,16-3,28-13.38,39.84-23.69,4.76-4.14,9.8-8.08,13.94-12.79,18.29-20.8,43.2-27.16,68.78-31.82,37.55-6.84,74.55-3.58,110.94,7.37,48.7,14.67,93.8,36.3,132.43,70,13.47,11.75,24.38,25.63,31.19,42.39,12.9,31.75,1.21,63.29-29.25,79-11.17,5.76-23.16,8.52-35.55,10-37.16,4.57-73.66,3.44-108.73-11.68-24.93-10.75-46.35-26.71-66.67-44.33-24.07-20.87-49.95-38.72-80.74-48.32-18.18-5.67-36.31-7.43-53.28,3.53-12.83,8.28-21.9,20.18-28.83,33.55-10.36,20-20.21,40.23-30.29,60.36-2.49,5-4.9,10-7.53,14.89-13.71,25.61-18.9,31.86-55.36,30-31-1.54-61.93-5.67-93.1-4.19a99.66,99.66,0,0,1-25.63-2.06c-29.83-6.41-46.35-27.32-56.71-54-11.7-30.12-10.15-60.88-2.4-91.68,6.09-24.24,13-48.21,16.86-73.06,3.24-21.15,1-41.79-1.5-62.57A57.16,57.16,0,0,1-71,565.14c1.67-7.46,8.88-12,18.67-12.63,11.68-.7,23.22,1,34.77,2.11a221.28,221.28,0,0,0,56.69-1.4c21.66-3.48,28.21-11.55,29-33.7.85-23,3.81-45.82,7.74-68.48,3-17.59,9.69-33.94,18.19-49.62,11.92-22,23.43-44.24,32.66-67.57,12.26-31,15-62.75,8-95.2-4.48-20.74-.13-39.31,10.75-57.05,14.8-24.12,29.49-48.33,43.77-72.77,16.57-28.38,30.7-58.13,48.15-86C266.67-24,303.88-62.4,353.19-88.2c11.7-6.12,23.86-11.24,37-13.25,25.55-3.93,45.55,6.81,59.15,31.62,8.63,15.74,16.84,31.7,27.88,46a104.2,104.2,0,0,0,12.34,13.35c10.85,9.9,20.67,9.84,31.59.14,8.44-7.5,14.63-16.69,20.21-26.37,14.31-24.82,24.8-51.46,36.76-77.4,2-4.36,4-8.75,6-13.08,9.08-18.91,17.55-23.3,38.12-19.64,37.55,6.69,75,13.79,112.66,20.06,32.84,5.47,65.81,8.14,98.31-2.32A198.45,198.45,0,0,0,855.77-138a498.29,498.29,0,0,1,47-19.38c2.31-.79,5.08-.87,6.43-3.48h192.76c6.28,9.24,14.77,16.54,22,24.95,45.85,53.26,105.78,69.77,169,46.55,34.44-12.64,60.24-33.71,68.51-71.5q144.18,0,288.37-.15c5.2,0,6.22,1,6.22,6.22Q1655.8,297.48,1655.9,749.78Z" transform="translate(287.01 161.03)"/><path class="b" d="M-286.86,150.26c8.16,2.32,13.32,8.83,19.07,14.25,16,15.09,28.59,33.38,45.14,48,20.29,17.94,43.11,30.76,69.9,35.89,20.5,3.93,40.73,1.71,60.83-3,26.79-6.24,53.64-12.33,81-15.52,19.56-2.29,39.23-3.13,58.72,1.12A42.41,42.41,0,0,1,55,233.42c14,5.89,16.32,13.45,9.15,26.81-12.89,24-31.2,43.95-48.43,64.71C.79,342.87-14.53,360.19-35.41,371.68c-18.33,10.07-37.91,16.61-57.89,22.19-22.61,6.32-45.25,12.58-68,18.49-27.14,7.06-54.14,2.9-81.09-1.71a175.59,175.59,0,0,0-44.5-2.37Z" transform="translate(287.01 161.03)"/><path class="a" d="M1361.45-160.88c-8.27,37.79-34.07,58.86-68.51,71.5-63.24,23.22-123.17,6.71-169-46.55-7.24-8.41-15.73-15.71-22-24.95Z" transform="translate(287.01 161.03)"/></svg>