<svg xmlns="http://www.w3.org/2000/svg" viewBox="0 0 1944.06 1094.01"><defs><style>.a{opacity:0;fill:#ffffff;}.b{fill:#ffffff;}</style></defs><title>1800f_00092</title><path class="a" d="M1655.9,646.58V765a304.78,304.78,0,0,0-50.64,25.35c-27.37,17.11-43.49,41-46.89,73.61-2.36,22.69-.95,45.33-1.13,68H1071.55c4.68-14.5-3.4-23.76-13.61-31.62-20-15.42-43.31-23.69-67.7-29.19-33.49-7.55-67.65-9-101.73-10-59.35-1.77-118.75-6.58-178,1-25.67,3.29-50.94,8.29-74.24,20.27-20.1,10.34-34.58,24.1-29.12,49.53H130.53c2.05-2.19,5-2.26,7.57-3,37.41-10.85,72.16-26.72,99.61-55.28,40-41.58,64.16-91.08,71.46-148.33,4.92-38.6-3.79-73.39-32.45-101.51a68,68,0,0,0-35.11-18.24c-14.17-2.84-28.61-2.8-42.89-4.44-16-1.84-32.29-2.63-47.37-9.3-38-16.83-69.42-42.39-95.18-74.56-22.73-28.37-42.62-59-66.35-86.61-10.18-11.87-20.11-24.08-33.4-32.76-10.48-6.84-21-5.52-29,3.9-5.88,6.9-11.68,14.07-14.74,22.77-13.44,38.16-13.2,76.53-1.68,115.12,12,40.19,32.15,76.23,55.55,110.69C-22.86,666-11.94,681.53-4.6,699.19Q13,741.5-23.1,769.77c-29.33,23-61.15,42.23-93,61.28-36.2,21.68-73.64,41.27-110.22,62.34a405.32,405.32,0,0,0-56,38.53c-2.51-.08-5.87.94-4.59-3.81a11.7,11.7,0,0,0,0-3V27.32c30.19-6.36,60.59-6.93,91.21-3.85,23.21,2.34,43.72,12.24,64.09,22.35,17.53,8.7,35.75,12.49,55.08,10,14-1.82,28.08-3.74,41.86-6.8C28.27,35.05,88.9,14.12,147.86-11.68c44.44-19.45,86.75-42.43,123-75.33,18.38-16.68,35.55-34.56,52.94-52.22C343.32-159,365-163,390.05-151c25.27,12,49,26.4,69.55,45.51a71.08,71.08,0,0,0,38.2,18.75c14.05,2.2,28.2,2.06,42.37,1,25.2-1.8,50.39-3.82,75.62-5.06,61.09-3,121.49,4.41,181.82,12.71,24.07,3.31,48.23,5.68,72.42.76,17.2-3.49,31.88-10.7,41.74-26.24,6.1-9.63,14.51-17.42,23-25.12,12.94-11.79,27.64-21.25,41.2-32.2h138.12c2.7,30.79-1,61-8,90.95-5.1,21.63-8.93,43.53-8.69,66,.21,19.64,9,33.67,26.17,42.81a195.79,195.79,0,0,0,35.71,14.71c52.23,15.75,104,33.54,158.21,41.43,23.22,3.38,37.63,16.12,47.68,36.27,18,36.07,31.43,73.94,45.07,111.74,17.32,48,25.48,98.25,36.2,147.86,9.07,41.95,20.91,82.75,44.5,119.37,31,48.15,73.26,83.88,122.13,112.51C1627.1,631,1640.64,640.35,1655.9,646.58Zm-1776.21-567a44.25,44.25,0,0,0-8.4.5c-32.71,6.79-64.61,16.81-90.54,38.31-29.64,24.57-49.73,55.22-45.64,96.38,1.73,17.46,7.79,33.18,19.92,46.41,16.6,18.11,38.75,24.13,61.5,27.93,25,4.18,49.69,8.64,71.81,21.94,7.14,4.3,14.36,8.44,22.31,11.13,13.17,4.46,20.87,1.79,29.7-9.3,10.74-13.5,18.59-28.78,27.67-43.3,9.54-15.25,12.32-32.16,10.8-49.46C-25,176.44-42.65,138.23-70.36,104.81-82.48,90.2-97.34,78.76-120.31,79.54ZM1258,928.38c18-.77,34-7.68,47.83-19.44,20.35-17.36,40.38-35.11,60.28-53a137.32,137.32,0,0,0,25.53-29.83c9.57-15.5,3.81-27.14-14.12-29.28a94.82,94.82,0,0,0-27.08,1.1,241.19,241.19,0,0,0-97,39c-16.1,11-31.31,23.17-42,39.89-9.33,14.55-6.54,30,6.93,39.18C1230.16,924.05,1243.41,927.61,1258,928.38Z" transform="translate(287.18 161.96)"/><path class="b" d="M1655.9,646.58c-15.26-6.23-28.8-15.56-42.92-23.84-48.87-28.63-91.11-64.36-122.13-112.51-23.59-36.62-35.43-77.42-44.5-119.37-10.72-49.61-18.88-99.85-36.2-147.86-13.64-37.8-27.06-75.67-45.07-111.74-10-20.15-24.46-32.89-47.68-36.27-54.22-7.89-106-25.68-158.21-41.43a195.79,195.79,0,0,1-35.71-14.71c-17.15-9.14-26-23.17-26.17-42.81-.24-22.44,3.59-44.34,8.69-66,7.08-30,10.75-60.16,8-90.95h230.7c12.48,22.79,24.7,45.74,37.55,68.33,8.09,14.22,16.47,28.33,28.49,39.86,7.34,7,15.18,9.17,24.76,5.17,13.49-5.64,21.76-15.9,26.83-29.17,7.83-20.48,6.84-41.48,3.95-62.7-1-7.08-4.11-14.11-1.67-21.49h168.47c2.54,24.45,11.17,46.87,22.77,68.3Z" transform="translate(287.18 161.96)"/><path class="b" d="M-282.31,931.92a405.32,405.32,0,0,1,56-38.53c36.58-21.07,74-40.66,110.22-62.34,31.83-19,63.65-38.32,93-61.28Q13,741.49-4.6,699.19c-7.34-17.66-18.26-33.17-28.9-48.84C-56.9,615.89-77,579.85-89,539.66c-11.52-38.59-11.76-77,1.68-115.12,3.06-8.7,8.86-15.87,14.74-22.77,8-9.42,18.57-10.74,29.05-3.9,13.29,8.68,23.22,20.89,33.4,32.76,23.73,27.64,43.62,58.24,66.35,86.61,25.76,32.17,57.18,57.73,95.18,74.56,15.08,6.67,31.33,7.46,47.37,9.3,14.28,1.64,28.72,1.6,42.89,4.44a68,68,0,0,1,35.11,18.24c28.66,28.12,37.37,62.91,32.45,101.51-7.3,57.25-31.51,106.75-71.46,148.33-27.45,28.56-62.2,44.43-99.61,55.28-2.61.76-5.52.83-7.57,3Z" transform="translate(287.18 161.96)"/><path class="b" d="M975.93-160.88c-13.56,10.95-28.26,20.41-41.2,32.2-8.45,7.7-16.86,15.49-23,25.12C901.91-88,887.23-80.81,870-77.32c-24.19,4.92-48.35,2.55-72.42-.76-60.33-8.3-120.73-15.7-181.82-12.71-25.23,1.24-50.42,3.26-75.62,5.06-14.17,1-28.32,1.16-42.37-1a71.08,71.08,0,0,1-38.2-18.75C439-124.63,415.32-139,390.05-151c-25.07-12-46.73-8-66.24,11.8-17.39,17.66-34.56,35.54-52.94,52.22-36.26,32.9-78.57,55.88-123,75.33C88.9,14.12,28.27,35.05-34.62,49c-13.78,3.06-27.84,5-41.86,6.8-19.33,2.52-37.55-1.27-55.08-10-20.37-10.11-40.88-20-64.09-22.35-30.62-3.08-61-2.51-91.21,3.85,0-60.46.09-120.91-.15-181.37,0-5.7,1.29-7,7-7Q347.94-160.8,975.93-160.88Z" transform="translate(287.18 161.96)"/><path class="b" d="M607.11,931.92c-5.46-25.43,9-39.19,29.12-49.53,23.3-12,48.57-17,74.24-20.27,59.29-7.61,118.69-2.8,178-1,34.08,1,68.24,2.47,101.73,10,24.39,5.5,47.66,13.77,67.7,29.19,10.21,7.86,18.29,17.12,13.61,31.62Z" transform="translate(287.18 161.96)"/><path class="b" d="M1557.24,931.92c.18-22.67-1.23-45.31,1.13-68,3.4-32.58,19.52-56.5,46.89-73.61A304.78,304.78,0,0,1,1655.9,765c0,53.88-.07,107.76.12,161.65,0,4.52-.91,5.48-5.44,5.44C1619.47,931.8,1588.35,931.92,1557.24,931.92Z" transform="translate(287.18 161.96)"/><path class="a" d="M1464.66-160.88c-2.44,7.38.7,14.41,1.67,21.49,2.89,21.22,3.88,42.22-3.95,62.7-5.07,13.27-13.34,23.53-26.83,29.17-9.58,4-17.42,1.88-24.76-5.17-12-11.53-20.4-25.64-28.49-39.86-12.85-22.59-25.07-45.54-37.55-68.33Z" transform="translate(287.18 161.96)"/><path class="a" d="M1655.9-92.58c-11.6-21.43-20.23-43.85-22.77-68.3,7.52,0,17.76-2.91,21.79.85,3.75,3.49.95,14.07,1,21.54Q1655.94-115.54,1655.9-92.58Z" transform="translate(287.18 161.96)"/><path class="b" d="M-120.31,79.54c23-.78,37.83,10.66,50,25.27C-42.65,138.23-25,176.44-21.18,220.08c1.52,17.3-1.26,34.21-10.8,49.46-9.08,14.52-16.93,29.8-27.67,43.3-8.83,11.09-16.53,13.76-29.7,9.3-8-2.69-15.17-6.83-22.31-11.13-22.12-13.3-46.81-17.76-71.81-21.94-22.75-3.8-44.9-9.82-61.5-27.93-12.13-13.23-18.19-28.95-19.92-46.41-4.09-41.16,16-71.81,45.64-96.38,25.93-21.5,57.83-31.52,90.54-38.31A44.25,44.25,0,0,1-120.31,79.54Z" transform="translate(287.18 161.96)"/><path class="b" d="M1258,928.38c-14.56-.77-27.81-4.33-39.62-12.37-13.47-9.15-16.26-24.63-6.93-39.18,10.73-16.72,25.94-28.91,42-39.89a241.19,241.19,0,0,1,97-39,94.82,94.82,0,0,1,27.08-1.1c17.93,2.14,23.69,13.78,14.12,29.28A137.32,137.32,0,0,1,1366.08,856c-19.9,17.88-39.93,35.63-60.28,53C1292,920.7,1275.93,927.61,1258,928.38Z" transform="translate(287.18 161.96)"/></svg>