<svg xmlns="http://www.w3.org/2000/svg" viewBox="0 0 1943.08 1093.11"><defs><style>.a{opacity:0;fill:#ffffff;}.b{fill:#ffffff;}</style></defs><title>1800f_00173</title><path class="a" d="M1655.9,214v57.67c-9.06,3-18,6.57-27.2,9q-44.35,11.69-88.9,22.65c-23.19,5.66-41.51,18.08-55,37.68q-6,8.75-11.45,17.88c-15.34,25.92-27.7,53.41-42,79.89-24.75,45.84-49,92-82.47,132.41-21.93,26.48-46.17,50.45-77.91,65.18-27.19,12.62-55.51,17.23-84.81,8.49-14.41-4.3-18.18-12.49-13.78-26.76a73.91,73.91,0,0,1,3.31-8.47c5.2-11.52,10.61-22.94,15.72-34.5,13.43-30.39,11-59.57-11.3-84.31-37.34-41.48-73.92-84.31-128.32-105.27-11.22-4.33-18.33-13.08-22.58-24.27-3.31-8.75-6.44-17.6-10.39-26.06-10.16-21.76-25.79-29.31-49.45-24.73-21.47,4.17-40.36,14.43-59.21,24.79-15.5,8.52-30.5,18-47.15,24.29-36.29,13.79-72.86,11.81-109.56,2-30.82-8.23-60.24-20.69-90.68-30.06-20.56-6.32-41.17-12.45-63.09-11.31-28.44,1.46-41.69,21.66-31.61,48.18,5.67,14.93,14.88,27.59,25.54,39.17,49,53.26,109.47,89.55,176.25,115.22,59.85,23,121.49,34.82,185.52,17.57,18-4.84,32.88.32,45,14.22,3.15,3.62,6.45,7.12,9.46,10.86,13.64,16.94,26.66,34.5,44.38,47.57,12,8.86,24.48,17.06,36.57,25.8,16.67,12.05,18.15,22.4,5.85,39-1.51,2-3.25,3.87-5,5.74-10.59,11.69-23.92,19.43-38.14,25.63a476.33,476.33,0,0,0-86.88,49.4,355.33,355.33,0,0,1-46.63,28.34c-17.82,9-36.09,10.78-55.13,4.57C857,788.84,849,786.3,841,784c-31.37-8.91-60.23-3.47-85.86,16.51-16.52,12.88-28.22,29.38-24.28,51.5,5.49,30.86,22.79,54,50.44,69.14,7,3.85,14.38,7.17,21.58,10.74H343c-14-18.72-33.35-29.85-54.61-38-30.56-11.74-62.83-14.87-95-18.16-28.39-2.89-56.82-5.07-85-10.14-43.29-7.78-70.14-31.33-79.86-75-5.69-25.6-12.27-51.19-23-75.32-17.75-39.76-47.22-70.19-79.19-98.59-18.33-16.27-37.42-31.74-52.74-51.15-11.31-14.35-11.62-29.1-2.41-44.36q7.64-12.64,15.92-24.91c15.12-22.45,30.53-44.75,40.88-70,14.26-34.7,20-70,5.39-106.15-12.78-31.53-34.34-52.62-69.49-57-5-.62-10.19-.27-15.07-1.36-17-3.81-24.65-16.78-29.12-31.9a115.55,115.55,0,0,1,1.94-73.06c10.73-30,15.57-60.58,9.87-92.35-3.35-18.7-8.43-37-13.71-55.16-9.63-33.12-3.87-63.27,14.81-91.83,28-42.86,64.47-70,118.34-69.68,30.28.17,60.66-1.2,90.88-4,10.92-1,22.15-.31,32.6-4.69H1170.21c-.66,2,.76,3.39,1.75,4.75,19.53,26.76,36.58,55.15,54.67,82.86,32.33,49.5,64.91,98.78,92.88,151a379.64,379.64,0,0,0,84.13,106.5c27.73,24.43,58.86,39.16,96.8,34.16,17-2.24,33.86-5.58,50.82-8.22C1586.37,204.73,1621.45,200.87,1655.9,214Z" transform="translate(287.03 161.05)"/><path class="b" d="M802.9,931.92c-7.2-3.57-14.53-6.89-21.58-10.74-27.65-15.1-45-38.28-50.44-69.14-3.94-22.12,7.76-38.62,24.28-51.5,25.63-20,54.49-25.42,85.86-16.51,8,2.27,16,4.81,23.9,7.4,19,6.21,37.31,4.43,55.13-4.57a355.33,355.33,0,0,0,46.63-28.34,476.33,476.33,0,0,1,86.88-49.4c14.22-6.2,27.55-13.94,38.14-25.63,1.7-1.87,3.44-3.72,5-5.74,12.3-16.55,10.82-26.9-5.85-39-12.09-8.74-24.58-16.94-36.57-25.8-17.72-13.07-30.74-30.63-44.38-47.57-3-3.74-6.31-7.24-9.46-10.86-12.11-13.9-27-19.06-45-14.22-64,17.25-125.67,5.43-185.52-17.57-66.78-25.67-127.25-62-176.25-115.22C583,396,573.76,383.32,568.09,368.39c-10.08-26.52,3.17-46.72,31.61-48.18,21.92-1.14,42.53,5,63.09,11.31,30.44,9.37,59.86,21.83,90.68,30.06,36.7,9.8,73.27,11.78,109.56-2,16.65-6.33,31.65-15.77,47.15-24.29,18.85-10.36,37.74-20.62,59.21-24.79,23.66-4.58,39.29,3,49.45,24.73,3.95,8.46,7.08,17.31,10.39,26.06,4.25,11.19,11.36,19.94,22.58,24.27,54.4,21,91,63.79,128.32,105.27,22.27,24.74,24.73,53.92,11.3,84.31-5.11,11.56-10.52,23-15.72,34.5a73.91,73.91,0,0,0-3.31,8.47c-4.4,14.27-.63,22.46,13.78,26.76,29.3,8.74,57.62,4.13,84.81-8.49,31.74-14.73,56-38.7,77.91-65.18,33.46-40.4,57.72-86.57,82.47-132.41,14.3-26.48,26.66-54,42-79.89q5.42-9.13,11.45-17.88c13.47-19.6,31.79-32,55-37.68q44.57-10.87,88.9-22.65c9.22-2.43,18.14-6,27.2-9V434.09c-8,10.42-14.4,21.91-21.34,33-23.71,37.95-43.22,77.73-52.15,122-4.66,23-6.3,46.08,2.26,68.72,7.69,20.33,23.83,29.71,45.25,27.11,8.81-1.07,17.31-3.34,26-5q0,122.94.14,245.88c0,5.19-1,6.21-6.22,6.21Q1226.37,931.82,802.9,931.92Z" transform="translate(287.03 161.05)"/><path class="b" d="M74.37-160.88c-10.45,4.38-21.68,3.67-32.6,4.69-30.22,2.81-60.6,4.18-90.88,4-53.87-.3-90.31,26.82-118.34,69.68-18.68,28.56-24.44,58.71-14.81,91.83,5.28,18.18,10.36,36.46,13.71,55.16,5.7,31.77.86,62.31-9.87,92.35a115.55,115.55,0,0,0-1.94,73.06c4.47,15.12,12.13,28.09,29.12,31.9,4.88,1.09,10.06.74,15.07,1.36,35.15,4.35,56.71,25.44,69.49,57,14.65,36.16,8.87,71.45-5.39,106.15-10.35,25.2-25.76,47.5-40.88,70q-8.26,12.25-15.92,24.91c-9.21,15.26-8.9,30,2.41,44.36,15.32,19.41,34.41,34.88,52.74,51.15,32,28.4,61.44,58.83,79.19,98.59,10.77,24.13,17.35,49.72,23,75.32,9.72,43.71,36.57,67.26,79.86,75,28.19,5.07,56.62,7.25,85,10.14,32.2,3.29,64.47,6.42,95,18.16,21.26,8.17,40.61,19.3,54.61,38q-311.67,0-623.32.12c-5.17,0-6.74-.68-6.73-6.46q.34-168.33.17-336.68c3.52-3,5.61-7.13,7.93-11,7-11.73,5-17.3-7.93-22.39q0-354.78-.14-709.56c0-5.69,1.28-7,7-7Q-102.84-160.73,74.37-160.88Z" transform="translate(287.03 161.05)"/><path class="b" d="M1655.9,214c-34.45-13.14-69.53-9.28-104.64-3.83-17,2.64-33.82,6-50.82,8.22-37.94,5-69.07-9.73-96.8-34.16a379.64,379.64,0,0,1-84.13-106.5c-28-52.23-60.55-101.51-92.88-151-18.09-27.71-35.14-56.1-54.67-82.86-1-1.36-2.41-2.72-1.75-4.75H1322c7.64,18.24,17.61,35.25,28.3,51.8,17.32,26.85,36.74,52,60.67,73.45,31.72,28.51,69.64,39.41,111.21,41.76C1564.53,8.52,1598.57-7,1625.73-39c10.82-12.74,20.19-26.54,30.17-39.9Z" transform="translate(287.03 161.05)"/><path class="a" d="M1655.9-78.92c-10,13.36-19.35,27.16-30.17,39.9-27.16,32-61.2,47.54-103.57,45.15C1480.59,3.78,1442.67-7.12,1411-35.63c-23.93-21.5-43.35-46.6-60.67-73.45-10.69-16.55-20.66-33.56-28.3-51.8q163.63,0,327.25-.17c6,0,6.87,1.72,6.8,7.14C1655.72-128.92,1655.9-103.92,1655.9-78.92Z" transform="translate(287.03 161.05)"/><path class="a" d="M1655.9,680c-8.67,1.62-17.17,3.89-26,5-21.42,2.6-37.56-6.78-45.25-27.11-8.56-22.64-6.92-45.67-2.26-68.72,8.93-44.25,28.44-84,52.15-122,6.94-11.12,13.31-22.61,21.34-33Z" transform="translate(287.03 161.05)"/><path class="a" d="M-286.86,555.51c12.89,5.09,14.93,10.66,7.93,22.39-2.32,3.87-4.41,8-7.93,11Z" transform="translate(287.03 161.05)"/></svg>