<svg xmlns="http://www.w3.org/2000/svg" viewBox="0 0 1366.88 768.88"><defs><style>.a{opacity:0;fill:#ffffff;}.b{fill:#ffffff;}</style></defs><title>1800f_00026</title><path class="a" d="M1367.52,367.3v78.93c-1.61-.52-3,.22-4.29.94-39.14,21.1-77.72,43.11-113.65,69.48-26.68,19.58-45.59,44.73-55.75,76.37-4.4,13.7-8.83,27.4-13.73,40.93-15.88,43.87-21.29,89.17-19,135.57H347.57a184,184,0,0,0-38.15-48.69c-34.4-31.32-75.65-50-119.5-63.58-12.55-3.9-25.29-7.21-37.65-11.62-12.2-4.37-13-9.56-3.71-18.34,5.36-5.08,11.55-9,17.65-13.08,17.24-11.5,35.27-21.77,52-34.1,26.29-19.4,40.35-44.37,38.71-77.79-.92-18.67-.88-37.44-.14-56.12.93-23.42,5.25-46.44,16.69-67.14,19.54-35.36,33.55-73,47.43-110.7,4.1-11.15,8.12-22.4,8.38-34.46.28-12.59-6.17-17.17-18-12.89a73.43,73.43,0,0,0-17.84,9.92c-16.84,12.14-32,26.37-48.26,39.2C229.29,282.63,214,296,195.38,304.52c-17.27,7.86-33,3-43.54-12.73-8.78-13.13-9.26-27.84-7.1-42.42a238.71,238.71,0,0,0-6.19-99.11q-13.61-49.72-26.82-99.54c-3.29-12.36-1.38-16.15,10.19-21.56,3.88-1.82,8-3.25,12-4.83C150.05,18,166.46,12.06,180.62,1.52H925.84c.73,1.58,1.34,3.23,2.19,4.75,22.32,39.68,51.21,74.51,80.57,109,25.93,30.45,51.34,61.23,69.54,97.21a83.56,83.56,0,0,0,19.56,24.93c11.38,10.07,17.15,22.66,18.45,37.8.81,9.35.79,18.68,1.2,28,.92,21.2.47,42.5,4.27,63.48,2.67,14.75,9.12,18.2,23.14,12.64,9.63-3.81,19-8.19,29.1-10.8,34.39-8.85,69.7-11.66,104.69-16.7,26.67-3.84,51.79.1,76.12,11.18C1358.75,364.86,1362.85,367,1367.52,367.3Zm-535.19,132a64,64,0,0,0,25.3-3.91c20.42-7.88,24.57-23.53,9.7-39.42-14.67-15.67-30-30.76-45.51-45.59-23.09-22.06-50.2-30.6-81.51-21.59-16.26,4.68-32.52,9.31-48.92,13.47-17.7,4.49-32.07,14.49-44.38,27.7-12.86,13.82-10.69,27.91,5.72,37.45a65.1,65.1,0,0,0,38.75,8.33c28.87-2.53,56.19,2.16,83.15,12.18A177.88,177.88,0,0,0,832.33,499.31ZM705.8,608.24c21.73-1,41.45-6.38,58.65-19.29,10.72-8.05,12.46-21.48,4.18-32.08a34.44,34.44,0,0,0-15.72-11.5c-35.49-12.65-62.21,2.07-80,34.13-5.1,9.18-1.45,17.91,7.8,23.11C688.66,607.08,697.54,607.56,705.8,608.24Zm348.1-41.52c-.21,9.16,3.58,13.43,12,11.73,18.65-3.74,33.78-13,42.64-30.55,4.38-8.67,1-15.78-8-19.24-4.07-1.54-7.87-.92-11.84,0C1072.53,532.58,1054.22,552.54,1053.9,566.72Zm-6.64-266.61c.31-9.84-4.17-12.7-13.35-8.41-7.51,3.51-13,9.55-18.14,15.74-8.11,9.78-15,20.41-16.66,33.38-1.16,9,3.28,12.34,11.66,9.3C1026.42,344.46,1046.74,316.6,1047.26,300.11Z" transform="translate(-0.78 -0.79)"/><path class="b" d="M180.62,1.52C166.46,12.06,150.05,18,133.87,24.33c-4,1.58-8.07,3-12,4.83-11.57,5.41-13.48,9.2-10.19,21.56q13.24,49.82,26.82,99.54a238.71,238.71,0,0,1,6.19,99.11c-2.16,14.58-1.68,29.29,7.1,42.42,10.55,15.77,26.27,20.59,43.54,12.73,18.63-8.48,33.91-21.89,49.78-34.39,16.28-12.83,31.42-27.06,48.26-39.2A73.43,73.43,0,0,1,311.26,221c11.84-4.28,18.29.3,18,12.89C329,246,325,257.21,320.89,268.36,307,306.08,293,343.7,273.46,379.06c-11.44,20.7-15.76,43.72-16.69,67.14-.74,18.68-.78,37.45.14,56.12,1.64,33.42-12.42,58.39-38.71,77.79-16.72,12.33-34.75,22.6-52,34.1-6.1,4.07-12.29,8-17.65,13.08-9.25,8.78-8.49,14,3.71,18.34,12.36,4.41,25.1,7.72,37.65,11.62,43.85,13.63,85.1,32.26,119.5,63.58a184,184,0,0,1,38.15,48.69q-170,0-340,.14c-5.2,0-6.22-1-6.22-6.22q.25-373.37.15-746.74a21.53,21.53,0,0,1,2.4,1.81C23.07,37.6,46.14,36.35,69.68,30.6c9.5-2.32,10.89-7.64,5.15-15.8-3.31-4.7-7.36-8.87-11.08-13.28Z" transform="translate(-0.78 -0.79)"/><path class="b" d="M1367.52,367.3c-4.67-.27-8.77-2.44-12.85-4.3-24.33-11.08-49.45-15-76.12-11.18-35,5-70.3,7.85-104.69,16.7-10.1,2.61-19.47,7-29.1,10.8-14,5.56-20.47,2.11-23.14-12.64-3.8-21-3.35-42.28-4.27-63.48-.41-9.33-.39-18.66-1.2-28-1.3-15.14-7.07-27.73-18.45-37.8a83.56,83.56,0,0,1-19.56-24.93c-18.2-36-43.61-66.76-69.54-97.21C979.24,80.78,950.35,46,928,6.27c-.85-1.52-1.46-3.17-2.19-4.75h86.52c1.15,3.86,2.12,7.79,3.48,11.57,7,19.55,30.19,29.8,47.5,20.48,12.67-6.82,20.18-18,23.39-32h157.85c2.59,3.61,6.61,5.44,10.18,7.69,27.7,17.43,43.62,40.79,42,75.13-.88,19.12,5,37.42,14.68,54.23,13.08,22.6,30.31,40.28,56,48.12Z" transform="translate(-0.78 -0.79)"/><path class="b" d="M1161.1,769.52c-2.29-46.4,3.12-91.7,19-135.57,4.9-13.53,9.33-27.23,13.73-40.93,10.16-31.64,29.07-56.79,55.75-76.37,35.93-26.37,74.51-48.38,113.65-69.48,1.34-.72,2.68-1.46,4.29-.94q0,158.61.14,317.21c0,5.2-1,6.24-6.21,6.22C1294.66,769.44,1227.88,769.52,1161.1,769.52Z" transform="translate(-0.78 -0.79)"/><path class="a" d="M1367.52,186.69c-25.72-7.84-43-25.52-56-48.12-9.72-16.81-15.56-35.11-14.68-54.23,1.57-34.34-14.35-57.7-42-75.13-3.57-2.25-7.59-4.08-10.18-7.69,39.21,0,78.42.1,117.62-.13,4.54,0,5.46.91,5.45,5.44C1367.45,66.78,1367.52,126.74,1367.52,186.69Z" transform="translate(-0.78 -0.79)"/><path class="a" d="M63.75,1.52c3.72,4.41,7.77,8.58,11.08,13.28,5.74,8.16,4.35,13.48-5.15,15.8-23.54,5.75-46.61,7-65.76-12.09a21.53,21.53,0,0,0-2.4-1.81c0-5.06-2-12.1.55-14.62s9.57-.56,14.63-.56Z" transform="translate(-0.78 -0.79)"/><path class="a" d="M1086.73,1.52c-3.21,14-10.72,25.23-23.39,32.05-17.31,9.32-40.47-.93-47.5-20.48-1.36-3.78-2.33-7.71-3.48-11.57Z" transform="translate(-0.78 -0.79)"/><path class="b" d="M832.33,499.31a177.88,177.88,0,0,1-57.7-11.38c-27-10-54.28-14.71-83.15-12.18a65.1,65.1,0,0,1-38.75-8.33c-16.41-9.54-18.58-23.63-5.72-37.45,12.31-13.21,26.68-23.21,44.38-27.7,16.4-4.16,32.66-8.79,48.92-13.47,31.31-9,58.42-.47,81.51,21.59,15.52,14.83,30.84,29.92,45.51,45.59,14.87,15.89,10.72,31.54-9.7,39.42A64,64,0,0,1,832.33,499.31Z" transform="translate(-0.78 -0.79)"/><path class="b" d="M705.8,608.24c-8.26-.68-17.14-1.16-25.11-5.63-9.25-5.2-12.9-13.93-7.8-23.11,17.81-32.06,44.53-46.78,80-34.13a34.44,34.44,0,0,1,15.72,11.5c8.28,10.6,6.54,24-4.18,32.08C747.25,601.86,727.53,607.2,705.8,608.24Z" transform="translate(-0.78 -0.79)"/><path class="b" d="M1053.9,566.72c.32-14.18,18.63-34.14,34.81-38,4-1,7.77-1.57,11.84,0,9.08,3.46,12.42,10.57,8,19.24-8.86,17.51-24,26.81-42.64,30.55C1057.48,580.15,1053.69,575.88,1053.9,566.72Z" transform="translate(-0.78 -0.79)"/><path class="b" d="M1047.26,300.11c-.52,16.49-20.84,44.35-36.49,50-8.38,3-12.82-.26-11.66-9.3,1.65-13,8.55-23.6,16.66-33.38,5.14-6.19,10.63-12.23,18.14-15.74C1043.09,287.41,1047.57,290.27,1047.26,300.11Z" transform="translate(-0.78 -0.79)"/></svg>