<svg xmlns="http://www.w3.org/2000/svg" viewBox="0 0 1943.05 1093.09"><defs><style>.a{opacity:0;fill:#ffffff;}.b{fill:#ffffff;}</style></defs><title>1800f_00125</title><path class="a" d="M-286.86,438.64V174.55c13.6-.93,27.19-2.37,40.8-2.68,51.22-1.16,101.95,3.62,152.39,12.55,38.57,6.83,77.36,12.39,116.42,15.65,48.86,4.07,94.75-8.54,139.78-25.55,43.29-16.37,82.28-41,122.25-63.78,32.5-18.52,64.73-37.61,99.57-51.61,24.87-10,48.78-8.37,71.93,5.61a240.9,240.9,0,0,1,52.76,43c26.09,28.24,57.6,43.61,96.89,41.54,22.76-1.2,45.31-3.95,67.8-7.32,36.7-5.5,73.35-11.3,110.53-12.59a252.8,252.8,0,0,1,89.55,12.81c46.24,15.43,93.41,28.16,137.78,49,21.93,10.28,35.88,25.74,38.31,50.39.67,6.79,1.27,13.58,1.76,20.39,1.45,19.9,2.13,39.86,5.46,59.61,5.55,32.93,18.83,63.38,30.17,94.46,9.48,26,20.59,51.14,36.94,73.64,11.24,15.47,23.86,29.58,41.54,38,19.72,9.38,38.56,4.46,51.63-13.1,7.38-9.91,11.7-21.18,15.23-32.85C1245.22,440,1259.77,399,1278,359.47c25.46-55.14,49-110.89,64.88-169.77,9.49-35.2,30.09-63.19,62.81-81.08,16-8.77,33.12-15,50.09-21.61,23.78-9.27,47.23-19.43,71.08-28.51,16-6.08,29.43-1.55,38.62,11.87a76.34,76.34,0,0,1,6.9,12.61c8.14,18.68,12.12,38.55,15.91,58.4,5.3,27.79,11.56,55.51,10.88,84.05a455.14,455.14,0,0,1-22.36,131.88,766.94,766.94,0,0,0-37.49,282.5c1.38,26.26,2.82,52.49,8.72,78.26,7.28,31.8,20.81,59.6,49.14,78.14,18.3,12,38.41,20.16,58.71,27.95,0,34.15-.11,68.3.13,102.44,0,4.54-.92,5.45-5.45,5.44q-159-.24-318-.12H478.1a33,33,0,0,1,.57-4.46c9-33.86,6.6-67.16-5.41-99.82-6.49-17.65-16.48-32.59-35.38-39.1a98.59,98.59,0,0,0-26.69-5.32A108.49,108.49,0,0,1,353.33,763c-13.65-9.65-26-20.83-38.81-31.51-12.6-10.52-25-21.39-40.65-27.37-14.52-5.55-25.07-.08-28.36,15-2.43,11.1-1,22.1,2.08,32.92,6.12,21.28,16,41,26.18,60.45,19.94,38,36.71,77.12,45,119.49q-299.37,0-598.76.14c-5.69,0-7-1.28-7-7q.31-133.19.15-266.37c.52-.52,1.27-.94,1.52-1.56,12.61-32.23,26.37-64,35.93-97.39,7.27-25.34,12.23-51,9.5-77.67-2.62-25.6-14.14-38.25-39.55-41.89C-281.95,439.86-284.4,439.17-286.86,438.64Z" transform="translate(287.01 161.03)"/><path class="b" d="M1655.9,824.16c-20.3-7.79-40.41-16-58.71-27.95-28.33-18.54-41.86-46.34-49.14-78.14-5.9-25.77-7.34-52-8.72-78.26a766.94,766.94,0,0,1,37.49-282.5,455.14,455.14,0,0,0,22.36-131.88c.68-28.54-5.58-56.26-10.88-84.05-3.79-19.85-7.77-39.72-15.91-58.4a76.34,76.34,0,0,0-6.9-12.61c-9.19-13.42-22.63-18-38.62-11.87-23.85,9.08-47.3,19.24-71.08,28.51-17,6.61-34.07,12.84-50.09,21.61-32.72,17.89-53.32,45.88-62.81,81.08C1327,248.58,1303.47,304.33,1278,359.47c-18.24,39.54-32.79,80.51-45.38,122.18-3.53,11.67-7.85,22.94-15.23,32.85-13.07,17.56-31.91,22.48-51.63,13.1-17.68-8.42-30.3-22.53-41.54-38-16.35-22.5-27.46-47.66-36.94-73.64-11.34-31.08-24.62-61.53-30.17-94.46-3.33-19.75-4-39.71-5.46-59.61-.49-6.81-1.09-13.6-1.76-20.39-2.43-24.65-16.38-40.11-38.31-50.39-44.37-20.82-91.54-33.55-137.78-49a252.8,252.8,0,0,0-89.55-12.81c-37.18,1.29-73.83,7.09-110.53,12.59-22.49,3.37-45,6.12-67.8,7.32-39.29,2.07-70.8-13.3-96.89-41.54a240.9,240.9,0,0,0-52.76-42.95c-23.15-14-47.06-15.61-71.93-5.61-34.84,14-67.07,33.09-99.57,51.61-40,22.78-79,47.41-122.25,63.78-45,17-90.92,29.62-139.78,25.55-39.06-3.26-77.85-8.82-116.42-15.65-50.44-8.93-101.17-13.71-152.39-12.55-13.61.31-27.2,1.75-40.8,2.68V-30.35c10-1.51,18.53-6.58,26.85-11.66a453.93,453.93,0,0,0,97.81-80.73c10.14-11,18.19-23.57,22.56-38.14h173c2.43,5.76,7.26,9.68,11.31,14.08,14.38,15.65,30.54,28.92,51.59,34.55,11.31,3,22.88,3.1,32.94-3.7,16.25-11,25.73-27.28,33.17-44.93H1271.9c-18.81,11.34-34.13,26.6-48.75,42.78-28.83,31.92-50.58,68.7-73.07,105-20.94,33.84-34.78,70-38.22,109.92a37.27,37.27,0,0,0,.59,12c1.87,7.88,5.66,10.9,13.84,11.21s16-2.11,23.56-5.06c40-15.65,80.75-29.32,120.53-45.56C1310,53.26,1347.9,34.79,1375.53.25c14.87-18.58,30-36.9,41-58.11,11.5-22.19,8.14-35.45-12.85-48.76-11.08-7-23-12.63-34.45-19.13-20.37-11.61-40.62-23.41-60.93-35.13q170.76,0,341.5-.15c5.2,0,6.22,1,6.22,6.22Q1655.8,334.67,1655.9,824.16Z" transform="translate(287.01 161.03)"/><path class="a" d="M1308.32-160.88c20.31,11.72,40.56,23.52,60.93,35.13,11.41,6.5,23.37,12.1,34.45,19.13,21,13.31,24.35,26.57,12.85,48.76-11,21.21-26.15,39.53-41,58.11-27.63,34.54-65.52,53-105.15,69.19-39.78,16.24-80.53,29.91-120.53,45.56-7.53,3-15.26,5.38-23.56,5.06s-12-3.33-13.84-11.21a37.27,37.27,0,0,1-.59-12c3.44-39.89,17.28-76.08,38.22-109.92,22.49-36.31,44.24-73.09,73.07-105,14.62-16.18,29.94-31.44,48.75-42.78Z" transform="translate(287.01 161.03)"/><path class="b" d="M318.73,931.92c-8.25-42.37-25-81.51-45-119.49C263.54,793,253.71,773.26,247.59,752c-3.1-10.82-4.51-21.82-2.08-32.92,3.29-15.06,13.84-20.53,28.36-15,15.65,6,28.05,16.85,40.65,27.37,12.8,10.68,25.16,21.86,38.81,31.51a108.49,108.49,0,0,0,57.86,20.26,98.59,98.59,0,0,1,26.69,5.32c18.9,6.51,28.89,21.45,35.38,39.1,12,32.66,14.41,66,5.41,99.82a33,33,0,0,0-.57,4.46Z" transform="translate(287.01 161.03)"/><path class="a" d="M-139.64-160.88c-4.37,14.57-12.42,27.1-22.56,38.14A453.93,453.93,0,0,1-260-42c-8.32,5.08-16.87,10.15-26.85,11.66,0-41.88.08-83.76-.12-125.64,0-4.24.91-5,5.06-5C-234.49-160.82-187.06-160.88-139.64-160.88Z" transform="translate(287.01 161.03)"/><path class="b" d="M-286.86,438.64c2.46.53,4.91,1.22,7.4,1.57,25.41,3.64,36.93,16.29,39.55,41.89,2.73,26.7-2.23,52.33-9.5,77.67-9.56,33.34-23.32,65.16-35.93,97.39-.25.62-1,1-1.52,1.56Z" transform="translate(287.01 161.03)"/><path class="a" d="M162.4-160.88c-7.44,17.65-16.92,34-33.17,44.93-10.06,6.8-21.63,6.73-32.94,3.7-21.05-5.63-37.21-18.9-51.59-34.55-4.05-4.4-8.88-8.32-11.31-14.08Z" transform="translate(287.01 161.03)"/></svg>