<svg xmlns="http://www.w3.org/2000/svg" viewBox="0 0 1366.36 768.61"><defs><style>.a{opacity:0;fill:#ffffff;}.b{fill:#ffffff;}</style></defs><title>1800f_00036</title><path class="a" d="M1367.52,391.59v72.85c-1.57-.83-3-.1-4.3.57-38.4,19.32-76.84,38.58-112.47,62.83-28.17,19.17-47.94,44.54-56.7,78-2.89,11-6.63,21.75-9.74,32.69-12.16,42.83-18.62,86.36-15.62,131H343c-15.74-22.21-35.67-39.87-58.94-53.78-31.88-19.07-66.4-32-101.61-43.33-7.69-2.47-15.42-5-22.83-8.17-11.11-4.78-11.71-9.41-2.45-17.48a165.12,165.12,0,0,1,14.54-10.92c19.13-13.23,38.38-26.29,57.5-39.52,31.54-21.82,47.29-51.48,45.85-90.29-.91-24.51-.53-49.06-.69-73.59A130.17,130.17,0,0,1,284.86,380c6.32-14.88,13.3-29.66,16.67-45.51,6.74-31.62,16.43-61.95,33.29-89.82a70.06,70.06,0,0,0,8.89-24.07c.76-4.37.34-8.11-3.07-11s-6.87-1-10,.35a37.5,37.5,0,0,0-9.78,5.66c-25.6,21.78-51.18,43.53-79.63,61.67-15.11,9.62-28.81,21.59-45.73,28.17-18.93,7.37-32.59.79-39.46-18.46-3.27-9.17-4.17-18.68-4.29-28.34-.19-14.4,1.22-28.85-.77-43.2-5.25-37.87-14.87-74.81-24.19-111.8-3.89-15.43-8.16-30.77-12.1-46.2-3.36-13.13-.81-18.13,11.81-22.74,6.39-2.33,13.07-3.88,19.56-6,20.71-6.68,40.87-14.6,58.85-27.2H912.18c3.61,11,11.09,19.68,17.56,28.91,21.19,30.26,48.82,54.58,74.94,80.27,21.08,20.73,43.32,40.41,61,64.34,13.81,18.71,27.35,37.61,42.75,55.09,10.07,11.43,14.85,25.18,16.13,40.13,1.34,15.61,2,31.27,3.35,46.87,1.4,16.12,3.18,32.22,10.22,47.15,3.28,7,8.06,12.41,15.83,14.11,29.1,6.37,58.06,13.68,88.22,13.2a402.52,402.52,0,0,0,43.09-3C1312.85,385.2,1340.23,386.91,1367.52,391.59ZM838.37,513c19.14,0,29.73-3.07,38.06-9.65,11.61-9.18,13.84-23.69,5.27-35.74a43.11,43.11,0,0,0-7.67-8.34c-20-16.3-40.45-32-62.87-44.94-19.36-11.14-39.76-16.44-61.74-8.44-17.23,6.27-35.1,9.24-53.17,11.77-20.94,2.93-39.67,11.87-56.75,24-11,7.79-10.87,17.72-.69,26.49a52.78,52.78,0,0,0,15,8.66c19,7.72,39,8.17,59,7.16a119.29,119.29,0,0,1,49.08,7.5c10.15,3.85,20.43,7.4,30.74,10.84C809.24,507.77,826,512.69,838.37,513ZM719.28,611.57c15.78-1.39,31.83-1.35,47.09-6.16,16.82-5.31,21.34-19.57,11.31-34a37.31,37.31,0,0,0-18.92-14.46c-27.49-9.38-52.47.56-73.24,24.47-9.72,11.2-5.92,22.09,8.35,26.66A74.42,74.42,0,0,0,719.28,611.57Zm284.2-263.36c.12,9.41,5,13,13.2,10.76,6.44-1.79,11.86-5.58,16.66-10.12,10.83-10.25,19.67-21.89,21.11-37.29,1.07-11.46-6.83-16.75-16.78-11.15-16.57,9.31-26.71,24.12-33,41.76A35.36,35.36,0,0,0,1003.48,348.21Z" transform="translate(-1.3 -1.06)"/><path class="b" d="M204.9,1.52c-18,12.6-38.14,20.52-58.85,27.2-6.49,2.1-13.17,3.65-19.56,6-12.62,4.61-15.17,9.61-11.81,22.74,3.94,15.43,8.21,30.77,12.1,46.2,9.32,37,18.94,73.93,24.19,111.8,2,14.35.58,28.8.77,43.2.12,9.66,1,19.17,4.29,28.34,6.87,19.25,20.53,25.83,39.46,18.46,16.92-6.58,30.62-18.55,45.73-28.17,28.45-18.14,54-39.89,79.63-61.67a37.5,37.5,0,0,1,9.78-5.66c3.14-1.32,6.7-3.19,10-.35s3.83,6.67,3.07,11a70.06,70.06,0,0,1-8.89,24.07c-16.86,27.87-26.55,58.2-33.29,89.82-3.37,15.85-10.35,30.63-16.67,45.51a130.17,130.17,0,0,0-10.47,52.41c.16,24.53-.22,49.08.69,73.59,1.44,38.81-14.31,68.47-45.85,90.29-19.12,13.23-38.37,26.29-57.5,39.52a165.12,165.12,0,0,0-14.54,10.92c-9.26,8.07-8.66,12.7,2.45,17.48,7.41,3.19,15.14,5.7,22.83,8.17,35.21,11.3,69.73,24.26,101.61,43.33,23.27,13.91,43.2,31.57,58.94,53.78q-167.71,0-335.43.14c-5.2,0-6.22-1-6.22-6.22Q1.63,387,1.3,10.63c0-7.79,1.54-10.82,9.32-9.11-2.5,3.72-4,7.13-.23,11.32,7,7.78,22.1,12.24,31.83,8.87,7.61-2.63,8.84-8.29,2.53-13.35C41.34,5.62,37.2,3.77,33.39,1.52Z" transform="translate(-1.3 -1.06)"/><path class="b" d="M1367.52,391.59c-27.29-4.68-54.67-6.39-82.27-3a402.52,402.52,0,0,1-43.09,3c-30.16.48-59.12-6.83-88.22-13.2-7.77-1.7-12.55-7.15-15.83-14.11-7-14.93-8.82-31-10.22-47.15-1.35-15.6-2-31.26-3.35-46.87-1.28-14.95-6.06-28.7-16.13-40.13-15.4-17.48-28.94-36.38-42.75-55.09-17.66-23.93-39.9-43.61-61-64.34-26.12-25.69-53.75-50-74.94-80.27-6.47-9.23-14-17.91-17.56-28.91h104.73c2,12.4,9.86,20.41,20.7,25.08,9.49,4.09,18.62,2.35,26.42-5.27,5.7-5.57,7.42-13,10.56-19.81h168.47c11.15,8.6,22.24,17.28,33.45,25.8q30.09,22.86,25.36,60.29c-3.09,24.75,1.76,48,11.94,70.63,10.58,23.5,27.53,37.41,53.71,39.07Z" transform="translate(-1.3 -1.06)"/><path class="b" d="M1168.69,769.52c-3-44.66,3.46-88.19,15.62-131,3.11-10.94,6.85-21.7,9.74-32.69,8.76-33.43,28.53-58.8,56.7-78,35.63-24.25,74.07-43.51,112.47-62.83,1.33-.67,2.73-1.4,4.3-.57q0,149.51.14,299c0,5.2-1,6.24-6.21,6.22C1297.19,769.44,1232.94,769.52,1168.69,769.52Z" transform="translate(-1.3 -1.06)"/><path class="a" d="M1367.52,197.31c-26.18-1.66-43.13-15.57-53.71-39.07-10.18-22.63-15-45.88-11.94-70.63q4.68-37.41-25.36-60.29c-11.21-8.52-22.3-17.2-33.45-25.8,39.72,0,79.43.09,119.14-.13,4.54,0,5.46.91,5.44,5.44Q1367.37,102.08,1367.52,197.31Z" transform="translate(-1.3 -1.06)"/><path class="a" d="M1074.59,1.52c-3.14,6.8-4.86,14.24-10.56,19.81-7.8,7.62-16.93,9.36-26.42,5.27-10.84-4.67-18.69-12.68-20.7-25.08Z" transform="translate(-1.3 -1.06)"/><path class="a" d="M33.39,1.52c3.81,2.25,8,4.1,11.36,6.84,6.31,5.06,5.08,10.72-2.53,13.35-9.73,3.37-24.8-1.09-31.83-8.87-3.79-4.19-2.27-7.6.23-11.32Z" transform="translate(-1.3 -1.06)"/><path class="b" d="M838.37,513c-12.41-.29-29.13-5.21-45.7-10.73-10.31-3.44-20.59-7-30.74-10.84a119.29,119.29,0,0,0-49.08-7.5c-20,1-40,.56-59-7.16a52.78,52.78,0,0,1-15-8.66c-10.18-8.77-10.3-18.7.69-26.49,17.08-12.09,35.81-21,56.75-24,18.07-2.53,35.94-5.5,53.17-11.77,22-8,42.38-2.7,61.74,8.44C833.58,427.21,854,443,874,459.25a43.11,43.11,0,0,1,7.67,8.34c8.57,12.05,6.34,26.56-5.27,35.74C868.1,509.91,857.51,513,838.37,513Z" transform="translate(-1.3 -1.06)"/><path class="b" d="M719.28,611.57a74.42,74.42,0,0,1-25.41-3.52c-14.27-4.57-18.07-15.46-8.35-26.66,20.77-23.91,45.75-33.85,73.24-24.47a37.31,37.31,0,0,1,18.92,14.46c10,14.46,5.51,28.72-11.31,34C751.11,610.22,735.06,610.18,719.28,611.57Z" transform="translate(-1.3 -1.06)"/><path class="b" d="M1003.48,348.21a35.36,35.36,0,0,1,1.24-6c6.24-17.64,16.38-32.45,33-41.76,9.95-5.6,17.85-.31,16.78,11.15-1.44,15.4-10.28,27-21.11,37.29-4.8,4.54-10.22,8.33-16.66,10.12C1008.5,361.25,1003.6,357.62,1003.48,348.21Z" transform="translate(-1.3 -1.06)"/></svg>