<svg xmlns="http://www.w3.org/2000/svg" viewBox="0 0 1943.06 1093.12"><defs><style>.a{opacity:0;fill:#ffffff;}.b{fill:#ffffff;}</style></defs><title>1800f_00190</title><path class="a" d="M850,931.92H92.58c-.08-2-.21-4-.24-6.06C91.66,882.3,78,843.34,49.56,810.27c-23-26.74-39.95-28.68-66.89-13-2,1.14-3.87,2.38-5.83,3.53C-47,814.76-64.15,835.67-82,856.07c-24.6,28.14-49.43,56.19-81.95,75.85H-188.2c-10.45-4.9-18.67-12.62-26.64-20.73a322.1,322.1,0,0,0-32.38-29.42c-12.49-9.64-24.9-19.52-39.64-25.74V699.7c10.17-7.33,20.13-15,30.56-21.93,34.67-23.07,66.69-49.24,95.41-79.43a208.75,208.75,0,0,1,32.72-28.15c21.22-14.64,42.64-14.91,64.74-2,13.35,7.8,25.67,17,38,26.28,14.89,11.25,24,10,35-4.9C25.28,568.06,37,544.19,48,520.05c15.5-34,24.27-69.71,23.3-107.28-.94-36.37-2.16-72.76-7.5-108.84C57.14,259.21,42,218.28,10.34,184.77-1.47,172.27-13.52,160-25,147.23-45.94,124-47.45,103.32-30.49,77-18.87,58.88-3,45.47,15.8,35.31c21.55-11.64,45.39-15.19,68.91-19.9,59.86-12,116.54-31.55,166.06-68.65,41.51-31.11,78.87-66.39,110.46-107.64H766.48c7.86,6.59,22,6.59,30.35,0h220.08c2.12,2.57,5.34,2.59,8.18,3.41,14.31,4.16,28.72,8,43,12.35,24.72,7.55,43.17,22.23,53.83,46.47a230.45,230.45,0,0,0,24.27,42c19.89,27.52,44.3,48.1,79.17,54.15,23.7,4.11,44.12,15.43,61.91,31.76,20.63,19,38.11,40.57,53.6,63.7,52.9,79,115.1,150,184.92,214.35,21.19,19.53,43.2,38.18,64.37,57.73s30.51,44,29.36,72.79c-1.51,38-10.74,74-28.79,107.42a907.79,907.79,0,0,1-130.78,183.69c-41.38,45-89,80.78-147.56,100.66-21.57,7.32-42.83,15.44-61,29.92-7.3,5.83-14.6,11.72-22.36,16.9-9.26,6.18-16.88,5.48-24.58-2-5.32-5.16-11.66-5.54-18.28-5.24s-12.94,2.14-19.16,4.32c-15.8,5.53-30.68,13.12-45.52,20.73-44.81,23-92.51,33.25-142.65,32.95-30.59-.19-61.17-2.2-91.75,0C874.64,928,862,927.74,850,931.92Z" transform="translate(287.02 161.06)"/><path class="b" d="M361.23-160.88c-31.59,41.25-69,76.53-110.46,107.64C201.25-16.14,144.57,3.43,84.71,15.41c-23.52,4.71-47.36,8.26-68.91,19.9C-3,45.47-18.87,58.88-30.49,77c-17,26.36-15.45,47.07,5.46,70.27,11.51,12.77,23.56,25,35.37,37.54C42,218.28,57.14,259.21,63.75,303.93c5.34,36.08,6.56,72.47,7.5,108.84,1,37.57-7.8,73.27-23.3,107.28-11,24.14-22.67,48-38.46,69.54-10.95,14.93-20.06,16.15-34.95,4.9-12.3-9.28-24.62-18.48-38-26.28-22.1-12.93-43.52-12.66-64.74,2a208.75,208.75,0,0,0-32.72,28.15c-28.72,30.19-60.74,56.36-95.41,79.43-10.43,6.94-20.39,14.6-30.56,21.93q0-426.66-.16-853.32c0-6,1-7.45,7.31-7.44Q40.76-160.74,361.23-160.88Z" transform="translate(287.02 161.06)"/><path class="b" d="M850,931.92c12-4.18,24.68-3.93,37.15-4.8,30.58-2.15,61.16-.14,91.75,0,50.14.3,97.84-10,142.65-32.95,14.84-7.61,29.72-15.2,45.52-20.73,6.22-2.18,12.55-4,19.16-4.32s13,.08,18.28,5.24c7.7,7.46,15.32,8.16,24.58,2,7.76-5.18,15.06-11.07,22.36-16.9,18.13-14.48,39.39-22.6,61-29.92,58.56-19.88,106.18-55.65,147.56-100.66a907.79,907.79,0,0,0,130.78-183.69c18-33.44,27.28-69.41,28.79-107.42,1.15-28.78-8.23-53.29-29.36-72.79s-43.18-38.2-64.37-57.73C1456,242.9,1393.75,172,1340.85,92.93c-15.49-23.13-33-44.75-53.6-63.7C1269.46,12.9,1249,1.58,1225.34-2.53c-34.87-6.05-59.28-26.63-79.17-54.15a230.45,230.45,0,0,1-24.27-42c-10.66-24.24-29.11-38.92-53.83-46.47-14.26-4.35-28.67-8.19-43-12.35-2.84-.82-6.06-.84-8.18-3.41h435.6c-9.17,20-9.89,40.28-2.93,61.05,4.18,12.5,9,24.76,16.1,35.84,25.88,40.36,57.27,75.84,97.39,102.44,30.28,20.06,61.84,38.18,92.83,57.17q0,414.74.14,829.47c0,5.69-1.28,7-7,7Q1249.52,931.82,850,931.92Z" transform="translate(287.02 161.06)"/><path class="a" d="M1655.9,95.62c-31-19-62.55-37.11-92.83-57.17C1523,11.85,1491.56-23.63,1465.68-64c-7.11-11.08-11.92-23.34-16.1-35.84-7-20.77-6.24-41.09,2.93-61q99,0,198.07-.13c4.53,0,5.45.91,5.44,5.44Q1655.77-30,1655.9,95.62Z" transform="translate(287.02 161.06)"/><path class="b" d="M-163.92,931.92c32.52-19.66,57.35-47.71,81.95-75.85,17.82-20.4,35-41.31,58.81-55.25,2-1.15,3.87-2.39,5.83-3.53,26.94-15.7,43.88-13.76,66.89,13,28.45,33.07,42.1,72,42.78,115.59,0,2,.16,4,.24,6.06Z" transform="translate(287.02 161.06)"/><path class="b" d="M-286.86,856c14.74,6.22,27.15,16.1,39.64,25.74a322.1,322.1,0,0,1,32.38,29.42c8,8.11,16.19,15.83,26.64,20.73-31.24,0-62.47-.1-93.7.11-4.09,0-5.14-.67-5.09-5C-286.72,903.38-286.86,879.7-286.86,856Z" transform="translate(287.02 161.06)"/><path class="b" d="M796.83-160.88c-8.36,6.59-22.49,6.59-30.35,0Z" transform="translate(287.02 161.06)"/></svg>