<svg xmlns="http://www.w3.org/2000/svg" viewBox="0 0 1943.05 1093.1"><defs><style>.a{opacity:0;fill:#ffffff;}.b{fill:#ffffff;}</style></defs><title>1800f_00372</title><path class="a" d="M834.78,931.92H224.63c-2.14-14.79-5.28-29.35-11-43.2C182,812.27,139.44,742.24,87.61,678,55,637.55,20.94,598.07-20.64,566c-20.82-16-41.49-32.31-65.8-42.92-18-7.86-36.81-12.41-55.86-5.11-27.59,10.57-52.84,25.78-72.78,47.68-28.43,31.21-47.59,67.9-58.45,108.82-4.38,16.5-8.88,33-13.33,49.47V41c21.59-13.1,42.72-27.1,66.09-36.94,28.46-12,54.06-28.31,77.78-48,22.69-18.84,48-32.75,77.6-37.49C-23.94-88.1,17.93-90.68,59.73-93.8c34.77-2.61,69.06,2.7,103.39,7.39,45.91,6.28,88.94,20.1,128.64,44.59,34.41,21.22,56.36,49.7,60.6,90.91,1.74,16.84,8.2,32.31,20.05,45,19.52,20.87,44.67,23.94,71.2,22.15,24.55-1.67,48.46-7.09,72.26-13C557.74,92.87,598.59,80,635.12,56,646.32,48.68,658.62,43.2,671,38c28-11.91,56-14.17,84.45-1.17a107.91,107.91,0,0,0,17.9,6c12.61,3.29,17.21.67,18.81-12A95.1,95.1,0,0,1,813-17.95c8.09-10,16.12-20.14,24.73-29.71,20.85-23.2,40.82-46.87,52.9-76.21,4.52-11,11.3-20.86,18.5-30.37,1.47-1.94,3.52-3.75,3-6.64H1485.9c9.52,18.47,15,38.32,20.69,58.19,15.94,56.1,19.21,112.37,3.4,169.07-8.7,31.24-21.43,61-33.24,91.13-18.51,47.23-33.39,95.31-38.59,146.11-2.83,27.65-3.76,55.49-8.51,82.93-4.36,25.25-12.74,48.43-33.66,65.13-18.46,14.74-38.22,27.4-60,36.74-25.38,10.9-51.56,14.43-78.48,6.74a503.32,503.32,0,0,1-86.14-33.38c-20-9.94-37.25-23.31-50.4-41.61A322.86,322.86,0,0,1,1083.33,352c-12.15-30.24-18.18-61.35-15-94.11,2.76-28.87,10.42-56.58,18.18-84.32,5.32-19,10.6-38,9.39-58.09-1.65-27.2-21.08-39.12-45.88-28.1a96.7,96.7,0,0,0-22,13.3c-33.73,27.55-63.09,59.13-86.38,96-18.45,29.22-26.75,61.62-25.77,96a431.48,431.48,0,0,0,34.86,157.52c21.59,50.73,48.93,98.74,72.48,148.55,17.63,37.27,45.38,62.56,84.8,75.12,9.59,3,19.18,6.52,27.61,12.33,9.84,6.77,13.43,16,11,27.66-1.65,8.06-5.13,15.35-9.3,22.3a420.65,420.65,0,0,1-33.16,48c-16.57,20.53-37.15,33.6-64.27,35.82a266.08,266.08,0,0,0-56.46,11C923.48,849.33,875.82,885.74,834.78,931.92ZM397.71,261.74c-11.53-.07-14.23,3.57-9.13,14.29,8,16.7,21.14,28,38.76,33.71a16.66,16.66,0,0,0,7.47.44,10.53,10.53,0,0,0,8.45-13.57C438.31,279.62,415.09,261.84,397.71,261.74Z" transform="translate(287.01 161.03)"/><path class="b" d="M834.78,931.92c41-46.18,88.7-82.59,148.63-101a266.08,266.08,0,0,1,56.46-11c27.12-2.22,47.7-15.29,64.27-35.82a420.65,420.65,0,0,0,33.16-48c4.17-6.95,7.65-14.24,9.3-22.3,2.38-11.62-1.21-20.89-11-27.66-8.43-5.81-18-9.28-27.61-12.33-39.42-12.56-67.17-37.85-84.8-75.12-23.55-49.81-50.89-97.82-72.48-148.55A431.48,431.48,0,0,1,915.8,292.67c-1-34.41,7.32-66.81,25.77-96,23.29-36.88,52.65-68.46,86.38-96a96.7,96.7,0,0,1,22-13.3c24.8-11,44.23.9,45.88,28.1,1.21,20.07-4.07,39.09-9.39,58.09-7.76,27.74-15.42,55.45-18.18,84.32-3.13,32.76,2.9,63.87,15,94.11A322.86,322.86,0,0,0,1121,420.17c13.15,18.3,30.45,31.67,50.4,41.61a503.32,503.32,0,0,0,86.14,33.38c26.92,7.69,53.1,4.16,78.48-6.74,21.75-9.34,41.51-22,60-36.74,20.92-16.7,29.3-39.88,33.66-65.13,4.75-27.44,5.68-55.28,8.51-82.93,5.2-50.8,20.08-98.88,38.59-146.11,11.81-30.1,24.54-59.89,33.24-91.13,15.81-56.7,12.54-113-3.4-169.07-5.65-19.87-11.17-39.72-20.69-58.19,54.64,0,109.28.09,163.92-.15,5.2,0,6.23,1,6.22,6.22q-.27,213.24-.14,426.49c-14.32,1.4-25.09,8.93-33.32,20.15-14.9,20.33-20,43.79-21.29,68.46-1.14,22.49,4.24,44.15,7.58,66.11,6.68,44,12.55,88,21.09,131.66,8,40.63,15.54,81.38,15.49,123.1,0,36.68-5.19,73.09-5.14,109.79,0,16.83-9.76,25.84-26.53,29-14.53,2.77-28.68.25-42.85-2.44-30.77-5.83-60.57-16-91.82-19.8-35.59-4.29-68.44,2.67-98.2,22.78-20.21,13.65-25.07,33.88-13.88,55.66,7.07,13.77,17.71,24.57,29.41,34.34,8.86,7.39,18.14,14.27,27.24,21.38Z" transform="translate(287.01 161.03)"/><path class="b" d="M912.18-160.88c.5,2.89-1.55,4.7-3,6.64-7.2,9.51-14,19.4-18.5,30.37-12.08,29.34-32,53-52.9,76.21C829.15-38.09,821.12-28,813-17.95a95.1,95.1,0,0,0-20.89,48.77c-1.6,12.65-6.2,15.27-18.81,12a107.91,107.91,0,0,1-17.9-6C727,23.78,699,26,671,38,658.62,43.2,646.32,48.68,635.12,56c-36.53,24-77.38,36.84-119.25,47.21-23.8,5.89-47.71,11.31-72.26,13-26.53,1.79-51.68-1.28-71.2-22.15-11.85-12.67-18.31-28.14-20.05-45-4.24-41.21-26.19-69.69-60.6-90.91C252.06-66.31,209-80.13,163.12-86.41c-34.33-4.69-68.62-10-103.39-7.39-41.8,3.12-83.67,5.7-125.12,12.35C-95-76.71-120.3-62.8-143-44c-23.72,19.69-49.32,36-77.78,48-23.37,9.84-44.5,23.84-66.09,36.94,0-65,.08-130-.15-195,0-5.7,1.29-7,7-7Q316.07-160.8,912.18-160.88Z" transform="translate(287.01 161.03)"/><path class="b" d="M-286.86,724c4.45-16.49,8.95-33,13.33-49.47,10.86-40.92,30-77.61,58.45-108.82,19.94-21.9,45.19-37.11,72.78-47.68,19.05-7.3,37.87-2.75,55.86,5.11,24.31,10.61,45,26.88,65.8,42.92,41.58,32,75.59,71.51,108.25,112,51.83,64.22,94.41,134.25,126,210.7,5.73,13.85,8.87,28.41,11,43.2H122.94C88.53,900.76,54,869.71,23.2,834.83c-23.69-26.81-46.87-54-67.77-83-4.85-6.76-9.57-6.78-12,.57-6.32,19.49-12.1,39.19-14.79,59.6-2.26,17.22-3.75,34.57-6.63,51.68-3.84,22.84-8.7,45.51-13.12,68.25q-95.24,0-190.48.12c-4.53,0-5.45-.91-5.44-5.43Q-286.71,825.28-286.86,724Z" transform="translate(287.01 161.03)"/><path class="a" d="M1423.68,931.92c-9.1-7.11-18.38-14-27.24-21.38-11.7-9.77-22.34-20.57-29.41-34.34-11.19-21.78-6.33-42,13.88-55.66,29.76-20.11,62.61-27.07,98.2-22.78,31.25,3.76,61.05,14,91.82,19.8,14.17,2.69,28.32,5.21,42.85,2.44,16.77-3.21,26.55-12.22,26.53-29,0-36.7,5.1-73.11,5.14-109.79,0-41.72-7.54-82.47-15.49-123.1-8.54-43.67-14.41-87.71-21.09-131.66-3.34-22-8.72-43.62-7.58-66.11,1.25-24.67,6.39-48.13,21.29-68.46,8.23-11.22,19-18.75,33.32-20.15q0,326.71.14,653.41c0,5.69-1.28,7-7,7C1573.94,931.84,1498.81,931.92,1423.68,931.92Z" transform="translate(287.01 161.03)"/><path class="a" d="M-91.07,931.92c4.42-22.74,9.28-45.41,13.12-68.25,2.88-17.11,4.37-34.46,6.63-51.68,2.69-20.41,8.47-40.11,14.79-59.6,2.39-7.35,7.11-7.33,12-.57,20.9,29,44.08,56.2,67.77,83,30.84,34.88,65.33,65.93,99.74,97.09Z" transform="translate(287.01 161.03)"/><path class="b" d="M397.71,261.74c17.38.1,40.6,17.88,45.55,34.87a10.53,10.53,0,0,1-8.45,13.57,16.66,16.66,0,0,1-7.47-.44c-17.62-5.76-30.8-17-38.76-33.71C383.48,265.31,386.18,261.67,397.71,261.74Z" transform="translate(287.01 161.03)"/></svg>