<svg xmlns="http://www.w3.org/2000/svg" viewBox="0 0 1943.08 1093.15"><defs><style>.a{opacity:0;fill:#ffffff;}.b{fill:#ffffff;}</style></defs><title>1800f_00246</title><path class="a" d="M1655.9,308.11v41c-14.14,20.43-31.24,38.35-47.84,56.71-30.93,34.23-60,69.83-80.42,111.65-16.72,34.15-28.48,70.24-41.89,105.69-8.43,22.29-17.46,44.29-35,61.4-18,17.5-38.85,17.8-57.4.87-13.66-12.47-20.79-28.33-24.3-46.14-5-25.47-2.35-50.85.76-76.24a117.86,117.86,0,0,0-.21-32.49c-2.81-18.3-11.8-33.9-22.1-48.62-15.94-22.75-23.21-47.68-24-75.35-.63-23-4.56-45.85-13.57-67.3-13.38-31.84-38.75-51.86-68.67-66.64-22.38-11.06-45.77-17.26-71.07-10.9-18.26,4.6-31.19,17.2-44.71,28.9-27.72,24-55.63,47.7-86.42,67.72-24.6,16-50.89,29.07-76.35,43.58-11,6.26-23.14,12.43-26.61,25.52C928.8,455,923,483,926,511.85c.67,6.34.44,13.11,3.6,19,8.34,15.62,22.3,23.52,38.8,27.66,23.94,6,48.17,4.36,72.4,2.32,22.9-1.93,45.68-5.57,68.76-5.11a54.53,54.53,0,0,1,18.58,3.22c8.06,3.09,11.89,9,11.7,17.59-.19,9-4.07,16.58-9.22,23.64-9.76,13.38-21.74,24.7-34.37,35.21-38.52,32.06-75.82,65.41-110.37,101.78-3.64,3.83-7.79,7.19-11.77,10.7-9.22,8.11-19.16,10.17-30.78,4.87-14-6.39-27.59-13.76-42.83-17.23-46.95-10.68-94.51-13.64-142.42-11.1-15.89.84-31.67,3.6-46,11.43-15.43,8.42-17.16,20.35-4.79,33,6.09,6.24,13.36,10.77,21,14.87,23.26,12.54,47.94,21.45,73.3,28.67,27.55,7.84,55.39,11,84,7.29,16.89-2.17,32.91-7.68,49.37-11.49,11.59-2.69,19.59,1.07,25.22,11.49,4.64,8.58,6.73,17.91,8.38,27.42,4.91,28.2,1.47,56.51,1.35,84.78H406.76c-1.52-2.64-4.46-3.15-6.86-4.39a654,654,0,0,0-92-39.3c-47.17-15.74-85.19-43.4-115.3-82.67-13.84-18.06-27.89-36-42.83-53.15C118,715.88,79.1,690.83,30.83,681.68a587,587,0,0,0-82.73-9.84c-46.28-2.11-92.49-2.92-138.27,6.3-9.38,1.89-18.56,5.08-28.29,5-1.47,0-3.17.25-4.07-1.32-1.11-1.94.14-3.37,1.33-4.7a60.4,60.4,0,0,1,12.8-10.63c19-12,38.22-23.77,57-36.16,14.37-9.48,28.06-19.91,38.43-34,9.9-13.47,10.54-26,2.15-40.22-6.33-10.76-14.75-19.84-22.94-29.14-13.68-15.52-29.95-29-39.95-47.47-33-61-42.28-125.86-29.92-193.83,5.77-31.73,18.08-61.56,28.66-91.84,18.7-53.54,26.57-108.37,20.22-164.88-2.9-25.74-9.39-50-29.42-68.88a84.34,84.34,0,0,1-19.69-27.66c-5-11.51-2.82-20.35,6.89-28.32,8.06-6.62,17.21-11.51,26.16-16.75a580.19,580.19,0,0,0,70.65-48.24q874.26,0,1748.54-.18c6.57,0,7.74,1.54,7.69,7.82-.31,44.5-.16,89-.16,133.51-11.77,25.84-32,42.07-57.87,52.71-17.85,7.34-25.32,23.29-28.46,41.23-5,28.33-.15,55.94,8.08,83C1594.41,212.3,1624.56,260.53,1655.9,308.11ZM617.54,1.57c-5,0-10.13-.31-15.15.05Q569.21,4,572.23,37.18c.67,7.37,3.11,14.29,5.84,21.1,16.87,42.18,43.26,77.46,78,106.45,31.69,26.41,67.22,27.55,99.95,2.44,29-22.25,50.13-51,65.45-84.11a96,96,0,0,0,8.11-28.3c3-23.14-10.49-39.74-33.7-40.87a168.59,168.59,0,0,0-27.25.49c-25.33,2.89-50.37,1.3-75.41-2.9S643.21,1.5,617.54,1.57ZM867.2,330.91c-7,0-10.91,3.84-12.85,9.86-6.69,20.76,21,50.38,42.07,52.11a10.36,10.36,0,0,0,10.75-12.29A75.4,75.4,0,0,0,879.61,336C875.94,333.07,872,330,867.2,330.91Zm-744,201.19c-16.25-.2-29.52,3.18-41.51,10.92-4.52,2.91-9,6.38-7.66,12.72,1.21,5.9,6.58,7.27,11.31,8.71a60.91,60.91,0,0,0,27,1.8c11.42-1.76,23-4,32-12.4,7-6.66,5.61-14.14-3.19-18.43A36.59,36.59,0,0,0,123.18,532.1Z" transform="translate(287.02 161.06)"/><path class="b" d="M969.86,931.92c.12-28.27,3.56-56.58-1.35-84.78-1.65-9.51-3.74-18.84-8.38-27.42-5.63-10.42-13.63-14.18-25.22-11.49-16.46,3.81-32.48,9.32-49.37,11.49-28.6,3.67-56.44.55-84-7.29-25.36-7.22-50-16.13-73.3-28.67-7.59-4.1-14.86-8.63-21-14.87-12.37-12.68-10.64-24.61,4.79-33,14.35-7.83,30.13-10.59,46-11.43,47.91-2.54,95.47.42,142.42,11.1,15.24,3.47,28.84,10.84,42.83,17.23,11.62,5.3,21.56,3.24,30.78-4.87,4-3.51,8.13-6.87,11.77-10.7,34.55-36.37,71.85-69.72,110.37-101.78,12.63-10.51,24.61-21.83,34.37-35.21,5.15-7.06,9-14.66,9.22-23.64.19-8.63-3.64-14.5-11.7-17.59a54.53,54.53,0,0,0-18.58-3.22c-23.08-.46-45.86,3.18-68.76,5.11-24.23,2-48.46,3.68-72.4-2.32-16.5-4.14-30.46-12-38.8-27.66-3.16-5.92-2.93-12.69-3.6-19C923,483,928.8,455,936.1,427.45c3.47-13.09,15.62-19.26,26.61-25.52,25.46-14.51,51.75-27.59,76.35-43.58,30.79-20,58.7-43.75,86.42-67.72,13.52-11.7,26.45-24.3,44.71-28.9,25.3-6.36,48.69-.16,71.07,10.9,29.92,14.78,55.29,34.8,68.67,66.64,9,21.45,12.94,44.26,13.57,67.3.76,27.67,8,52.6,24,75.35,10.3,14.72,19.29,30.32,22.1,48.62a117.86,117.86,0,0,1,.21,32.49c-3.11,25.39-5.77,50.77-.76,76.24,3.51,17.81,10.64,33.67,24.3,46.14,18.55,16.93,39.42,16.63,57.4-.87,17.57-17.11,26.6-39.11,35-61.4,13.41-35.45,25.17-71.54,41.89-105.69,20.47-41.82,49.49-77.42,80.42-111.65,16.6-18.36,33.7-36.28,47.84-56.71q0,288,.14,576c0,5.69-1.26,7.17-7,7-14.4-.47-28.83-.15-43.25-.15-13-14.18-27.85-26.39-42.21-39.08-16.67-14.74-33.71-29.16-54-38.94-19.27-9.29-38.67-11.52-57.81.5-10.4,6.53-18.64,15.41-26.54,24.66-14.14,16.57-23.7,36.43-38,52.86Z" transform="translate(287.02 161.06)"/><path class="b" d="M-100.17-160.88a580.19,580.19,0,0,1-70.65,48.24c-9,5.24-18.1,10.13-26.16,16.75-9.71,8-11.89,16.81-6.89,28.32a84.34,84.34,0,0,0,19.69,27.66c20,18.84,26.52,43.14,29.42,68.88,6.35,56.51-1.52,111.34-20.22,164.88-10.58,30.28-22.89,60.11-28.66,91.84-12.36,68-3.09,132.83,29.92,193.83,10,18.48,26.27,32,39.95,47.47,8.19,9.3,16.61,18.38,22.94,29.14,8.39,14.26,7.75,26.75-2.15,40.22-10.37,14.11-24.06,24.54-38.43,34-18.77,12.39-38,24.12-57,36.16a60.4,60.4,0,0,0-12.8,10.63c-1.19,1.33-2.44,2.76-1.33,4.7.9,1.57,2.6,1.32,4.07,1.32,9.73,0,18.91-3.15,28.29-5,45.78-9.22,92-8.41,138.27-6.3a587,587,0,0,1,82.73,9.84c48.27,9.15,87.15,34.2,119,70.73,14.94,17.14,29,35.09,42.83,53.15,30.11,39.27,68.13,66.93,115.3,82.67a654,654,0,0,1,92,39.3c2.4,1.24,5.34,1.75,6.86,4.39h-516c-10.85-5.61-22.46-9.08-34.26-11.95-26.82-6.53-54.27-9.23-81.48-13.34-21.35-3.23-41.79-9.44-61.84-17.21q0-521.73-.14-1043.47c0-5.69,1.28-7,7-7C-220.08-160.79-160.13-160.88-100.17-160.88Z" transform="translate(287.02 161.06)"/><path class="b" d="M1655.9,308.11c-31.34-47.58-61.49-95.81-78.25-150.9-8.23-27.06-13-54.67-8.08-83,3.14-17.94,10.61-33.89,28.46-41.23,25.9-10.64,46.1-26.87,57.87-52.71Z" transform="translate(287.02 161.06)"/><path class="a" d="M1387.25,931.92c14.33-16.43,23.89-36.29,38-52.86,7.9-9.25,16.14-18.13,26.54-24.66,19.14-12,38.54-9.79,57.81-.5,20.26,9.78,37.3,24.2,54,38.94,14.36,12.69,29.21,24.9,42.21,39.08Z" transform="translate(287.02 161.06)"/><path class="a" d="M-286.86,889.42c20.05,7.77,40.49,14,61.84,17.21,27.21,4.11,54.66,6.81,81.48,13.34,11.8,2.87,23.41,6.34,34.26,11.95-57,0-113.95-.12-170.92.17-6,0-7-1.7-6.8-7.13C-286.56,913.13-286.86,901.27-286.86,889.42Z" transform="translate(287.02 161.06)"/><path class="b" d="M617.54,1.57c25.67-.07,50.6,5.69,75.72,9.91s50.08,5.79,75.41,2.9a168.59,168.59,0,0,1,27.25-.49c23.21,1.13,36.67,17.73,33.7,40.87a96,96,0,0,1-8.11,28.3c-15.32,33.08-36.47,61.86-65.45,84.11-32.73,25.11-68.26,24-99.95-2.44-34.78-29-61.17-64.27-78-106.45-2.73-6.81-5.17-13.73-5.84-21.1Q569.25,4,602.39,1.62C607.41,1.26,612.49,1.57,617.54,1.57Z" transform="translate(287.02 161.06)"/><path class="b" d="M867.2,330.91c4.75-.91,8.74,2.16,12.41,5.08a75.4,75.4,0,0,1,27.56,44.6,10.36,10.36,0,0,1-10.75,12.29c-21.09-1.73-48.76-31.35-42.07-52.11C856.29,334.75,860.17,330.93,867.2,330.91Z" transform="translate(287.02 161.06)"/><path class="b" d="M123.18,532.1a36.59,36.59,0,0,1,17.91,3.32c8.8,4.29,10.23,11.77,3.19,18.43-8.93,8.44-20.53,10.64-31.95,12.4a60.91,60.91,0,0,1-27-1.8c-4.73-1.44-10.1-2.81-11.31-8.71-1.29-6.34,3.14-9.81,7.66-12.72C93.66,535.28,106.93,531.9,123.18,532.1Z" transform="translate(287.02 161.06)"/></svg>