<svg xmlns="http://www.w3.org/2000/svg" viewBox="0 0 1943.06 1093.15"><defs><style>.a{opacity:0;fill:#ffffff;}.b{fill:#ffffff;}</style></defs><title>1800f_00237</title><path class="a" d="M918.26,931.92H400.69c.3-3.82-1.89-6.78-3.61-9.81-4.6-8.13-9.25-16.24-14.24-24.14-18.63-29.49-40.3-56.26-69.17-76.53-19.53-13.72-40.81-24.38-62.24-34.63-39-18.68-71.94-44.65-98.76-78.68-29.52-37.48-66.54-65.1-110.42-84.2-54.31-23.64-110.16-43-166-62.52-14.07-4.91-28.3-9.56-41.39-16.84-18.41-10.25-23.79-20.09-19.46-40.53,5.76-27.18,1.57-52.55-9.46-77.57-10.09-22.9-19.92-46-26-70.37A1191.65,1191.65,0,0,1-253.18,136c-2.95-52.28-3.41-104.62-3.17-157a495.55,495.55,0,0,1,8.17-85.92c3.23-17.85,6.65-35.75,6.85-54H388.55c1.77,33.15,13.11,63.13,30.53,91a573.86,573.86,0,0,0,35.52,50.1c31.28,39.85,55.72,82.77,66.63,133,5,23.29,18,43.2,36.13,59.39,25.52,22.85,51.31,24.65,79.28,5,5-3.48,9.64-7.37,14.29-11.27,23.27-19.49,43.68-42.13,67.3-61.24,19.85-16.06,39.59-32.41,63.5-42.34,23.59-9.8,43.51-4.42,55.95,17.87,22.29,39.94,23.18,80.93.39,121.31-5.82,10.31-14.78,17.7-26.09,22.2-9.85,3.91-19.73,7.88-28.56,13.95-16.7,11.5-20.5,28-10.49,45.53,6.5,11.37,15.5,20.56,25.37,28.91C822.43,333,847.76,351.89,871,373.35c20.88,19.26,43.69,36,69.84,47.74,26.31,11.79,53.53,18.13,82.55,14.35,18.57-2.43,36.75-6.82,55-10.86,11.83-2.63,23.73-5.66,35.93-4.75,13.84,1,16.83,6.94,10.27,19.08s-16,22.17-26,31.4C1049.69,515.17,999.23,558,941,590.6c-19,10.63-37.35,22.19-53.77,36.68-23.56,20.78-26.49,42.55-8.61,68.26a121.6,121.6,0,0,0,16.67,19.61c17.84,16.67,26.64,37.78,30.47,61.31,5.68,34.87,1.1,69.55-2.22,104.27C921.88,897.8,918.37,914.69,918.26,931.92ZM307,536.89c6.82-.36,13.73-.11,20.44-1.15,67.48-10.47,131.1-31.75,187.82-70.46a98.69,98.69,0,0,0,41.78-62c4.78-22.06-4.71-33.51-27.18-33.53-6.3,0-12.65.74-18.87-1-44.37-12.12-71.76-41.92-85.07-84.66-8.21-26.35-16.7-51.64-38.17-70.9-19.34-17.35-40.26-24.46-65.31-15.31-24.44,8.93-49.08,9.64-74.41,4-26.23-5.88-48.81,1.5-65.26,23-22.83,29.89-44,61-67.62,90.35C97.38,337.39,77.37,356,50.82,366.57c-23.21,9.29-47.15,16.9-68.6,30.16-16.06,9.94-31,21.07-39.79,38.49-6.33,12.58-4.54,23.13,5.15,33.32,13.38,14.1,30.73,21.2,48.72,26.54,38.89,11.53,78.91,14.53,119.26,13.66a117.06,117.06,0,0,0,30.65-4.35c10.24-3,11.79-6.93,6-15.77-5.65-8.67-11.63-17.15-16.91-26-14.21-23.92-11.34-45.87,8-65.5,15.74-16,34.83-26.65,55.27-35.15,13.85-5.75,28.1-9.73,43.38-9,23.65,1.17,38.77,20.33,35.8,43.84-2.34,18.59-9.53,35-19.06,50.62-12.67,20.7-27.5,39.45-51,49.12a20.69,20.69,0,0,0-5.6,3.8c-5.56,4.93-5.66,8.74-.78,14.14,7.23,8,16.39,12.59,26.67,15.06C254,535.79,280.4,537.24,307,536.89Z" transform="translate(287 161.09)"/><path class="b" d="M918.26,931.92c.11-17.23,3.62-34.12,5.25-51.19,3.32-34.72,7.9-69.4,2.22-104.27-3.83-23.53-12.63-44.64-30.47-61.31a121.6,121.6,0,0,1-16.67-19.61c-17.88-25.71-15-47.48,8.61-68.26,16.42-14.49,34.8-26,53.77-36.68,58.26-32.64,108.72-75.43,157.6-120.29,10.06-9.23,19.46-19.22,26-31.4s3.57-18.06-10.27-19.08c-12.2-.91-24.1,2.12-35.93,4.75-18.25,4-36.43,8.43-55,10.86-29,3.78-56.24-2.56-82.55-14.35-26.15-11.72-49-28.48-69.84-47.74-23.27-21.46-48.6-40.37-72.73-60.75-9.87-8.35-18.87-17.54-25.37-28.91-10-17.53-6.21-34,10.49-45.53,8.83-6.07,18.71-10,28.56-13.95,11.31-4.5,20.27-11.89,26.09-22.2,22.79-40.38,21.9-81.37-.39-121.31C825.24,58.41,805.32,53,781.73,62.83c-23.91,9.93-43.65,26.28-63.5,42.34-23.62,19.11-44,41.75-67.3,61.24-4.65,3.9-9.33,7.79-14.29,11.27-28,19.62-53.76,17.82-79.28-5-18.09-16.19-31.08-36.1-36.13-59.39C510.32,63,485.88,20.07,454.6-19.78a573.86,573.86,0,0,1-35.52-50.1c-17.42-27.87-28.76-57.85-30.53-91h78.93c0,3.13,2.85,4,4.67,5.5,12.52,10.31,26.34,18.74,40,27.4,44,27.85,89.64,34.92,138.57,13.64a391.27,391.27,0,0,1,53.73-18.53c45.1-12.24,83.16-2.76,111.56,36,17.58,24,42,36.37,69.89,43.67,14.23,3.73,27.9,9,40.07,17.56,19.66,13.86,30.48,34.05,39.62,55.38,10.27,24,16.65,49.3,26,73.63,10.28,26.77,27.37,45.07,56.81,49.67a274.28,274.28,0,0,0,37.72,3.33c42.47.74,84.95,1.1,127.43,1.79,38.28.63,76.23-2.83,114-8.7,27.21-4.22,54.35-5.47,81.12,2.56,16.94,5.08,34.08,9.92,47.14,23,6.79,6.8,7.3,12,1.8,20.05a49.33,49.33,0,0,1-6.21,7.59,268.36,268.36,0,0,1-74.25,51.53c-19.05,8.88-35.82,20.81-49.74,36.58-19.14,21.69-28.34,45.62-18,74.66a73,73,0,0,1,4.22,32.79c-2.27,20.72-12,38.48-21.22,56.42-14.74,28.52-31.07,56.18-44.91,85.2-18,37.76-18.66,74.86,2,111.88,14.53,26,28.59,52.36,44.58,77.57,6.5,10.25,12.89,20.55,18,31.61,9.31,20.19,5.47,33.67-13.41,45.77-7.68,4.93-16,8.7-24.35,12.28-34.39,14.7-69.72,27.16-103.17,44.1-34.88,17.67-63.33,41.52-78.32,78.86Z" transform="translate(287 161.09)"/><path class="a" d="M1092.8,931.92c15-37.34,43.44-61.19,78.32-78.86,33.45-16.94,68.78-29.4,103.17-44.1,8.37-3.58,16.67-7.35,24.35-12.28,18.88-12.1,22.72-25.58,13.41-45.77-5.09-11.06-11.48-21.36-18-31.61-16-25.21-30-51.52-44.58-77.57-20.65-37-20-74.12-2-111.88,13.84-29,30.17-56.68,44.91-85.2,9.26-17.94,18.95-35.7,21.22-56.42a73,73,0,0,0-4.22-32.79c-10.33-29-1.13-53,18-74.66,13.92-15.77,30.69-27.7,49.74-36.58a268.36,268.36,0,0,0,74.25-51.53,49.33,49.33,0,0,0,6.21-7.59c5.5-8.08,5-13.25-1.8-20.05-13.06-13.09-30.2-17.93-47.14-23-26.77-8-53.91-6.78-81.12-2.56-37.77,5.87-75.72,9.33-114,8.7-42.48-.69-85-1-127.43-1.79a274.28,274.28,0,0,1-37.72-3.33c-29.44-4.6-46.53-22.9-56.81-49.67-9.34-24.33-15.72-49.67-26-73.63-9.14-21.33-20-41.52-39.62-55.38-12.17-8.59-25.84-13.83-40.07-17.56C858-60.5,833.61-72.9,816-96.87c-28.4-38.76-66.46-48.24-111.56-36a391.27,391.27,0,0,0-53.73,18.53C601.81-93.06,556.12-100.13,512.17-128c-13.68-8.66-27.5-17.09-40-27.4-1.82-1.5-4.67-2.37-4.67-5.5H1525.37c-1.07,3.33,1.65,5.06,3.19,7.19,9.35,12.88,19.2,25.39,27.24,39.16,23.38,40,34.63,83.1,28.08,129.25-4.36,30.78-17.91,58.78-33.19,85.72-11.48,20.25-25.63,38.66-39.3,57.4-6.45,8.84-5.07,18.78,2.21,26.81,9.12,10,20,17.68,31.79,24.17,24.9,13.7,50.76,18.94,78.61,9.77a118.68,118.68,0,0,1,31.9-6.1v31.87c-14.15.42-28.29,1.09-42.44,1.16a71.22,71.22,0,0,0-34.71,9.42,172.12,172.12,0,0,0-26.92,18.32c-56.65,47.23-98.23,105.88-127.69,172.92-21.69,49.37-26.11,100.61-10.71,153.28q18.71,64,31.17,129.64c4.75,25.22,15.34,47.51,32.43,66.63,34.41,38.48,74.12,64.92,129.11,57.52,16.5-2.22,33.17-3.24,49.76-4.81,0,25.8-.19,51.61.15,77.4.07,5.21-1,6.23-6.23,6.22Q1371.32,931.81,1092.8,931.92Z" transform="translate(287 161.09)"/><path class="b" d="M-241.33-160.88c-.2,18.27-3.62,36.17-6.85,54a495.55,495.55,0,0,0-8.17,85.92c-.24,52.35.22,104.69,3.17,157A1191.65,1191.65,0,0,0-220,356.1c6,24.37,15.87,47.47,26,70.37,11,25,15.22,50.39,9.46,77.57-4.33,20.44,1,30.28,19.46,40.53,13.09,7.28,27.32,11.93,41.39,16.84,55.84,19.51,111.69,38.88,166,62.52,43.88,19.1,80.9,46.72,110.42,84.2,26.82,34,59.72,60,98.76,78.68,21.43,10.25,42.71,20.91,62.24,34.63,28.87,20.27,50.54,47,69.17,76.53,5,7.9,9.64,16,14.24,24.14,1.72,3,3.91,6,3.61,9.81H253.47c-24.68-11.49-49.3-23.12-74.08-34.39-11.48-5.22-23.36-9.58-35.84-11.81-25.9-4.63-47.43,2-62.71,24.64A178.26,178.26,0,0,0,68.3,931.92H-119.9c-.65-5.13-3.17-9.57-5.48-14-18.68-36-43.88-67-71.83-96.15-24.77-25.78-55.9-39.08-89.65-47.69Q-286.86,310-287-154c0-5.69,1.25-7.21,7-7C-267.14-160.54-254.23-160.88-241.33-160.88Z" transform="translate(287 161.09)"/><path class="b" d="M1655.9,848.44c-16.59,1.57-33.26,2.59-49.76,4.81-55,7.4-94.7-19-129.11-57.52-17.09-19.12-27.68-41.41-32.43-66.63q-12.37-65.58-31.17-129.64c-15.4-52.67-11-103.91,10.71-153.28,29.46-67,71-125.69,127.69-172.92a172.12,172.12,0,0,1,26.92-18.32,71.22,71.22,0,0,1,34.71-9.42c14.15-.07,28.29-.74,42.44-1.16Z" transform="translate(287 161.09)"/><path class="b" d="M1655.9,212.49a118.68,118.68,0,0,0-31.9,6.1c-27.85,9.17-53.71,3.93-78.61-9.77-11.79-6.49-22.67-14.12-31.79-24.17-7.28-8-8.66-18-2.21-26.81,13.67-18.74,27.82-37.15,39.3-57.4,15.28-26.94,28.83-54.94,33.19-85.72,6.55-46.15-4.7-89.22-28.08-129.25-8-13.77-17.89-26.28-27.24-39.16-1.54-2.13-4.26-3.86-3.19-7.19,41.17,0,82.34.2,123.51-.21,6.55-.06,7.17,1.82,7.16,7.59Q1655.76,29.5,1655.9,212.49Z" transform="translate(287 161.09)"/><path class="a" d="M-286.86,774.07c33.75,8.61,64.88,21.91,89.65,47.69,28,29.11,53.15,60.18,71.83,96.15,2.31,4.44,4.83,8.88,5.48,14-53.76,0-107.52-.07-161.27.12-4.71,0-5.83-1-5.82-5.79C-286.78,875.52-286.86,824.8-286.86,774.07Z" transform="translate(287 161.09)"/><path class="a" d="M68.3,931.92a178.26,178.26,0,0,1,12.54-21.56c15.28-22.61,36.81-29.27,62.71-24.64,12.48,2.23,24.36,6.59,35.84,11.81,24.78,11.27,49.4,22.9,74.08,34.39Z" transform="translate(287 161.09)"/><path class="b" d="M307,536.89c-26.6.35-53-1.1-79-7.36-10.28-2.47-19.44-7.07-26.67-15.06-4.88-5.4-4.78-9.21.78-14.14a20.69,20.69,0,0,1,5.6-3.8c23.47-9.67,38.3-28.42,51-49.12,9.53-15.57,16.72-32,19.06-50.62,3-23.51-12.15-42.67-35.8-43.84-15.28-.75-29.53,3.23-43.38,9-20.44,8.5-39.53,19.17-55.27,35.15-19.31,19.63-22.18,41.58-8,65.5,5.28,8.89,11.26,17.37,16.91,26,5.77,8.84,4.22,12.77-6,15.77a117.06,117.06,0,0,1-30.65,4.35c-40.35.87-80.37-2.13-119.26-13.66-18-5.34-35.34-12.44-48.72-26.54-9.69-10.19-11.48-20.74-5.15-33.32,8.77-17.42,23.73-28.55,39.79-38.49,21.45-13.26,45.39-20.87,68.6-30.16,26.55-10.62,46.56-29.18,64.33-51.32,23.58-29.39,44.79-60.46,67.62-90.35,16.45-21.54,39-28.92,65.26-23,25.33,5.67,50,5,74.41-4,25.05-9.15,46-2,65.31,15.31,21.47,19.26,30,44.55,38.17,70.9,13.31,42.74,40.7,72.54,85.07,84.66,6.22,1.7,12.57,1,18.87,1,22.47,0,32,11.47,27.18,33.53a98.69,98.69,0,0,1-41.78,62c-56.72,38.71-120.34,60-187.82,70.46C320.73,536.78,313.82,536.53,307,536.89Z" transform="translate(287 161.09)"/></svg>