<svg xmlns="http://www.w3.org/2000/svg" viewBox="0 0 1943.05 1093.2"><defs><style>.a{opacity:0;fill:#ffffff;}.b{fill:#ffffff;}</style></defs><title>1800f_00398</title><path class="a" d="M1655.9,394.62V607.11c-25.62,18-40.71,43.59-51.57,72.18-21.25,56-44.13,111.22-69.24,165.56-13.24,28.63-26.2,57.41-37,87.07H22.77c-4.4-7.67-8.84-15.31-13.19-23-10.83-19.14-27-31.64-47.45-39.26-18.28-6.83-37.19-11.41-55.91-16.71-19-5.38-38.23-10-54.75-21.55-12.55-8.77-17.74-20.76-15.73-36.07,2.4-18.3,11.78-33.16,22.75-47.22,18.57-23.77,39.72-45.25,61.27-66.21,33-32.09,51.74-70.19,55-116.39,1.32-18.81,4.72-37.79,15.66-54.08C3.7,491.65,23.59,480.63,45,472.15c34.24-13.58,70.23-20.77,106.28-27.23,36.89-6.61,65.52-24.76,86.57-55.87a294.68,294.68,0,0,0,41.43-93c12.34-48.3,29.62-94.39,55.54-137.22C348,137,359.6,114.08,366.67,89.36c10.45-36.54,10.57-72.92-4-108.49C350-49.95,327.47-57.07,299.5-39.32,287.77-31.88,276-24.26,265.26-15.55,232,11.33,194.62,28.29,151.91,33.15A305.38,305.38,0,0,0,41.75,67.25c-44.68,23.84-92,35.93-142.76,34.36a226.57,226.57,0,0,0-46.08,3.11c-22.82,4-44.81,11-64.77,22.72-21.07,12.42-32.28,33.61-44.27,53.85-10.54,17.82-19.32,36.64-30.73,54q0-194.19-.13-388.37c0-5.93.61-8,7.53-8q611,.34,1222,.21C963-112.17,993.1-69.45,1024.48-27.43A422.93,422.93,0,0,0,1130.32,72.66a794.46,794.46,0,0,1,94.74,73.26c36.14,32.78,73.71,64.07,106,100.92,7.32,8.37,14.09,17.22,20.92,26,26.55,34.1,33.38,72.15,25.75,114.47-7.35,40.74-27.63,70.36-65.21,88.07-9.82,4.63-19.35,9.92-28.85,15.19-16.8,9.33-33.88,18.32-47.76,32-23.28,22.89-20.45,48,7.3,65.36a80.15,80.15,0,0,0,10.74,5.64c23,9.93,47.21,12.76,72,11.37,32.28-1.82,63-11.49,94.17-19.11,3.43-.83,6.72-2.23,10.14-3.14,31.9-8.44,48.41-29.6,52.85-61.88,4.36-31.64,17.24-58.78,43.63-78.71C1565,413.1,1608.76,399.39,1655.9,394.62ZM363,634.29c-22.65.1-38.79.91-53.65,8.61-15.51,8-22.42,22.14-18.71,39.16a166.67,166.67,0,0,0,11.18,33.78c6.77,14.81,17.59,25.62,32,33.16,21.09,11,43.72,17,66.93,21.3,33.7,6.23,67.53,9.13,101.82,5.64,19.08-1.94,38.29-3.65,57.4.25,27.34,5.58,48,22.06,63.61,43.68,21.62,30,49.86,40.45,84.68,33,48.18-10.33,94.22-26.43,135.9-53.87,36.39-24,57.38-57.4,65.78-99.55,5.94-29.76-7.08-50.19-36.56-56.84a85.87,85.87,0,0,0-30.9-1.22c-33.18,4.62-64.94,15-97,24.19-36.93,10.54-73.66,21.78-111.19,30.16-27,6-51.64,1.22-74.19-14.71a105.42,105.42,0,0,0-24.56-13.42C477.74,646.47,417.54,638.4,363,634.29ZM685.89,449.11c22.41-.49,43-5.83,58.65-23.3,5.89-6.58,10.11-14,6.54-23.43s-12.18-10.6-20.44-11.5c-7.07-.77-14.15.83-20.88,2.88-20.51,6.24-40,14.53-53.31,32.45-5.68,7.64-3.19,14.86,5.7,18.81A51.23,51.23,0,0,0,685.89,449.11Z" transform="translate(287.01 161.09)"/><path class="b" d="M-286.86,235.26c11.41-17.33,20.19-36.15,30.73-54,12-20.24,23.2-41.43,44.27-53.85,20-11.75,42-18.72,64.77-22.72A226.57,226.57,0,0,1-101,101.61c50.75,1.57,98.08-10.52,142.76-34.36a305.38,305.38,0,0,1,110.16-34.1c42.71-4.86,80-21.82,113.35-48.7C276-24.26,287.77-31.88,299.5-39.32c28-17.75,50.49-10.63,63.14,20.19,14.6,35.57,14.48,72,4,108.49C359.6,114.08,348,137,334.78,158.79c-25.92,42.83-43.2,88.92-55.54,137.22a294.68,294.68,0,0,1-41.43,93c-21.05,31.11-49.68,49.26-86.57,55.87-36.05,6.46-72,13.65-106.28,27.23-21.37,8.48-41.26,19.5-54.55,39.28-10.94,16.29-14.34,35.27-15.66,54.08-3.25,46.2-22,84.3-55,116.39-21.55,21-42.7,42.44-61.27,66.21-11,14.06-20.35,28.92-22.75,47.22-2,15.31,3.18,27.3,15.73,36.07,16.52,11.53,35.8,16.17,54.75,21.55,18.72,5.3,37.63,9.88,55.91,16.71,20.41,7.62,36.62,20.12,47.45,39.26,4.35,7.69,8.79,15.33,13.19,23q-151.29,0-302.57.19c-6.47,0-7.21-1.7-7.21-7.54Q-286.74,579.92-286.86,235.26Z" transform="translate(287.01 161.09)"/><path class="b" d="M1655.9,394.62c-47.14,4.77-90.87,18.48-129.24,47.45-26.39,19.93-39.27,47.07-43.63,78.71-4.44,32.28-21,53.44-52.85,61.88-3.42.91-6.71,2.31-10.14,3.14-31.14,7.62-61.89,17.29-94.17,19.11-24.76,1.39-49-1.44-72-11.37a80.15,80.15,0,0,1-10.74-5.64c-27.75-17.4-30.58-42.47-7.3-65.36,13.88-13.65,31-22.64,47.76-32,9.5-5.27,19-10.56,28.85-15.19,37.58-17.71,57.86-47.33,65.21-88.07,7.63-42.32.8-80.37-25.75-114.47-6.83-8.78-13.6-17.63-20.92-26-32.24-36.85-69.81-68.14-106-100.92a794.46,794.46,0,0,0-94.74-73.26A422.93,422.93,0,0,1,1024.48-27.43c-31.38-42-61.51-84.74-81.94-133.45h588.9c18.88,19.19,45.18,19.19,66.78,0,17.71,0,35.42.13,53.12-.11,3.8,0,4.67.87,4.65,4.66-.16,38.45-.09,76.9-.09,115.35Z" transform="translate(287.01 161.09)"/><path class="b" d="M1498.05,931.92c10.84-29.66,23.8-58.44,37-87.07,25.11-54.34,48-109.61,69.24-165.56,10.86-28.59,26-54.14,51.57-72.18q0,159.38.14,318.74c0,5.19-1,6.24-6.22,6.22C1599.23,931.82,1548.64,931.92,1498.05,931.92Z" transform="translate(287.01 161.09)"/><path class="a" d="M1598.22-160.88c-21.6,19.19-47.9,19.19-66.78,0Z" transform="translate(287.01 161.09)"/><path class="b" d="M363,634.29c54.58,4.11,114.78,12.18,172.56,33.3A105.42,105.42,0,0,1,560.08,681c22.55,15.93,47.16,20.74,74.19,14.71,37.53-8.38,74.26-19.62,111.19-30.16,32-9.14,63.81-19.57,97-24.19a85.87,85.87,0,0,1,30.9,1.22c29.48,6.65,42.5,27.08,36.56,56.84-8.4,42.15-29.39,75.58-65.78,99.55-41.68,27.44-87.72,43.54-135.9,53.87-34.82,7.47-63.06-3-84.68-33-15.57-21.62-36.27-38.1-63.61-43.68-19.11-3.9-38.32-2.19-57.4-.25-34.29,3.49-68.12.59-101.82-5.64C377.51,766,354.88,760,333.79,749c-14.42-7.54-25.24-18.35-32-33.16a166.67,166.67,0,0,1-11.18-33.78c-3.71-17,3.2-31.12,18.71-39.16C324.17,635.2,340.31,634.39,363,634.29Z" transform="translate(287.01 161.09)"/><path class="b" d="M685.89,449.11A51.23,51.23,0,0,1,662.15,445c-8.89-3.95-11.38-11.17-5.7-18.81,13.32-17.92,32.8-26.21,53.31-32.45,6.73-2.05,13.81-3.65,20.88-2.88,8.26.9,16.84,2,20.44,11.5s-.65,16.85-6.54,23.43C728.91,443.28,708.3,448.62,685.89,449.11Z" transform="translate(287.01 161.09)"/></svg>