<svg xmlns="http://www.w3.org/2000/svg" viewBox="0 0 1943.05 1093.1"><defs><style>.a{opacity:0;fill:#ffffff;}.b{fill:#ffffff;}</style></defs><title>1800f_00288</title><path class="a" d="M1655.9,754.34c0,56.91-.1,113.83.14,170.75,0,5.69-1.28,7-7,7q-818.47-.22-1636.93-.14C10.73,912.35,15,894.05,26,877.86c23.29-34.22,38.93-71.94,51.77-111,6.3-19.14,10.38-38.78,5.4-58.9q-11.82-47.81-24.55-95.4A78.2,78.2,0,0,0,33.5,572.82C22.68,563.48,10.11,557-1.93,549.56-32.38,530.81-60,508.36-86.7,484.63c-12.63-11.24-25.56-22.29-35.29-36.35-14.37-20.77-10.55-32.74,13.55-39.83,17.19-5.07,34.8-8.71,52.21-13,27-6.67,53.12-16.44,80.57-21.38,30.89-5.55,46.66,5.6,51.52,36.58,3.26,20.82,3.23,41.81,4,62.76,1.8,47.72,20.42,85.93,62.45,110.77,28.92,17.1,54.11,37.74,71.55,67.18,10.23,17.25,25.28,30.14,42.71,40C301.91,717,348,741.28,391.8,769.6c20.52,13.26,42.49,23.25,67.11,26.72,25.36,3.57,49.52-9,57.79-31.62,5.9-16.15,3.23-32.19-4.51-47-26.26-50.25-67.33-84.56-118.4-107.49-27-12.15-56-14.8-85.25-15.37-27-.54-50.21-9.23-69-29.48-18.62-20-20.31-36.71-4.59-59,13.07-18.54,29.57-33.9,45.89-49.39,43.14-41,79-87.13,103.64-141.77,24-53.43,41.79-108.95,57.5-165.26,6.78-24.34,14.49-48.49,29.9-69.24,14.4-19.38,30.21-24.49,53.06-16.88,9.35,3.11,18.66,6.38,28.11,9.18,38,11.29,77.27,18.49,114.63,31.94,25.93,9.33,51.78,9.9,78.37,5.33s52.55-12.75,78.62-19.85c25.37-6.91,48.79-5,71.09,9.73,11,7.22,22.6,13.45,34.2,19.63,82.64,44,168,82.14,254.06,118.89,35.19,15,72.17,24.81,108.1,37.65,18.11,6.48,36.18,13.19,51.81,24.81,17.28,12.85,19.33,28,6.43,45.13-7.07,9.39-16.07,16.79-25.2,24-25.47,20.13-50.13,41-67.2,69.31-18.11,30.07-31.93,62-42.44,95.4-4,12.86-6.69,25.93-5.8,39.53,1.11,17.14,10.8,28.91,27.39,32.93,10,2.43,20.11,2.12,30.11.33,24.11-4.33,45.59-15,65.45-28.81,42.6-29.7,78.26-67.06,114.09-104.2,11.57-12,22.45-24.79,36.55-34.05,17-11.18,33.07-10.36,49,2.31,10.93,8.7,18.31,20.17,24.82,32.23,11.13,20.61,18,42.78,24,65.34,15.46,58.51,38,114.65,58.31,171.53C1644.46,726.33,1649,740.82,1655.9,754.34Z" transform="translate(287 161.03)"/><path class="b" d="M1655.9,754.34c-7-13.52-11.44-28-16.52-42.23-20.32-56.88-42.85-113-58.31-171.53-6-22.56-12.82-44.73-24-65.34-6.51-12.06-13.89-23.53-24.82-32.23-15.93-12.67-32-13.49-49-2.31-14.1,9.26-25,22.05-36.55,34.05-35.83,37.14-71.49,74.5-114.09,104.2-19.86,13.86-41.34,24.48-65.45,28.81-10,1.79-20.12,2.1-30.11-.33-16.59-4-26.28-15.79-27.39-32.93-.89-13.6,1.76-26.67,5.8-39.53,10.51-33.42,24.33-65.33,42.44-95.4,17.07-28.35,41.73-49.18,67.2-69.31,9.13-7.22,18.13-14.62,25.2-24,12.9-17.12,10.85-32.28-6.43-45.13-15.63-11.62-33.7-18.33-51.81-24.81-35.93-12.84-72.91-22.62-108.1-37.65-86-36.75-171.42-74.91-254.06-118.89-11.6-6.18-23.25-12.41-34.2-19.63C873.45,85.43,850,83.5,824.66,90.41c-26.07,7.1-51.9,15.24-78.62,19.85s-52.44,4-78.37-5.33C630.31,91.48,591.08,84.28,553,73c-9.45-2.8-18.76-6.07-28.11-9.18-22.85-7.61-38.66-2.5-53.06,16.88-15.41,20.75-23.12,44.9-29.9,69.24-15.71,56.31-33.45,111.83-57.5,165.26C359.86,369.83,324,416,280.83,457c-16.32,15.49-32.82,30.85-45.89,49.39-15.72,22.31-14,39,4.59,59,18.8,20.25,42,28.94,69,29.48,29.24.57,58.21,3.22,85.25,15.37,51.07,22.93,92.14,57.24,118.4,107.49,7.74,14.8,10.41,30.84,4.51,47-8.27,22.59-32.43,35.19-57.79,31.62-24.62-3.47-46.59-13.46-67.11-26.72C348,741.28,301.91,717,256.59,691.36c-17.43-9.87-32.48-22.76-42.71-40-17.44-29.44-42.63-50.08-71.55-67.18-42-24.84-60.65-63-62.45-110.77-.79-20.95-.76-41.94-4-62.76-4.86-31-20.63-42.13-51.52-36.58C-3.11,379-29.25,388.77-56.23,395.44c-17.41,4.3-35,7.94-52.21,13-24.1,7.09-27.92,19.06-13.55,39.83,9.73,14.06,22.66,25.11,35.29,36.35C-60,508.36-32.38,530.81-1.93,549.56c12,7.41,24.61,13.92,35.43,23.26a78.2,78.2,0,0,1,25.15,39.77Q71.34,660.19,83.2,708c5,20.12.9,39.76-5.4,58.9-12.84,39-28.48,76.75-51.77,111-11,16.19-15.3,34.49-13.89,54.06h-88c0-6.19,2.92-11.67,4.54-17.45,4.88-17.42,7.53-35,5.17-53.11-3.91-30.11-14.62-58.22-25.26-86.31-10-26.31-18.81-52.76-20.16-81.21-1-20.28,1.78-40.34,2.9-60.48,1.3-23.28-3.33-44.66-16.18-64.11-31.38-47.45-70.38-87.72-116-121.49-14.13-10.46-28.72-20.65-46-25.82V65.27C-250.59,32.1-222.18-7.3-196.58-48.89c11.86-19.27,20.59-39.81,24.26-62.32,2.68-16.46,2.51-33.12,3.85-49.67H-56.16c-8.53,10.69-19,19.49-28.4,29.36-29.49,31-49.16,67-56.59,109.34q-7.57,43.23-15.19,86.45c-3,16.92-5.65,33.81-3,51.13,3.73,24.24,14.4,44,35.7,57.07,14.76,9.05,31.07,13.11,48.24,14.05,20.2,1.11,39.63-3.7,59.19-7.6C24.85,170.71,60.4,152.83,89,121.47c25.4-27.84,45.55-59.3,64.89-91.31C178-9.62,208.41-41.52,253-58.7c24.39-9.41,46-24.15,66.36-40.68C337.36-114,355.5-128.71,376.58-139c20.39-10,37.86-7,54.09,8.83C444.13-117,453.11-101,460.11-83.75c4.59,11.28,9.5,22.34,17.07,32C490.75-34.41,503.5-33.46,519-48.89c18.42-18.36,29.17-41.65,41.13-64.21,8.38-15.78,12.41-33.77,24.24-47.78h33.4c22.26,5.15,44.52,6.34,66.78,0H1149c1.48,2.66,4.31,3.4,6.76,4.59,41.62,20.28,84.76,20,128.5,8.95,8.21-2.08,16-6,21.07-13.54q172.26,0,344.53-.15c5.2,0,6.22,1,6.22,6.22Q1655.8,299.77,1655.9,754.34Z" transform="translate(287 161.03)"/><path class="a" d="M584.34-160.88c-11.83,14-15.86,32-24.24,47.78-12,22.56-22.71,45.85-41.13,64.21-15.47,15.43-28.22,14.48-41.79-2.85-7.57-9.67-12.48-20.73-17.07-32-7-17.23-16-33.28-29.44-46.43C414.44-146,397-149,376.58-139c-21.08,10.3-39.22,25-57.27,39.63C299-82.85,277.34-68.11,253-58.7c-44.54,17.18-75,49.08-99,88.86-19.34,32-39.49,63.47-64.89,91.31C60.4,152.83,24.85,170.71-16.21,178.92c-19.56,3.9-39,8.71-59.19,7.6-17.17-.94-33.48-5-48.24-14.05-21.3-13.07-32-32.83-35.7-57.07-2.65-17.32,0-34.21,3-51.13Q-148.8,21-141.15-22.18c7.43-42.37,27.1-78.35,56.59-109.34,9.39-9.87,19.87-18.67,28.4-29.36Z" transform="translate(287 161.03)"/><path class="a" d="M-286.86,421.94c17.25,5.17,31.84,15.36,46,25.82,45.63,33.77,84.63,74,116,121.49,12.85,19.45,17.48,40.83,16.18,64.11-1.12,20.14-3.87,40.2-2.9,60.48,1.35,28.45,10.19,54.9,20.16,81.21,10.64,28.09,21.35,56.2,25.26,86.31,2.36,18.14-.29,35.69-5.17,53.11-1.62,5.78-4.49,11.26-4.54,17.45-68.3,0-136.6-.08-204.9.15-5.2,0-6.22-1-6.21-6.22Q-286.74,673.9-286.86,421.94Z" transform="translate(287 161.03)"/><path class="a" d="M-168.47-160.88c-1.34,16.55-1.17,33.21-3.85,49.67-3.67,22.51-12.4,43.05-24.26,62.32-25.6,41.59-54,81-90.28,114.16q0-110.17-.1-220.35c0-4.45.63-6,5.66-5.95C-243.69-160.76-206.08-160.88-168.47-160.88Z" transform="translate(287 161.03)"/><path class="a" d="M1305.29-160.88c-5.06,7.56-12.86,11.46-21.07,13.54-43.74,11.09-86.88,11.33-128.5-8.95-2.45-1.19-5.28-1.93-6.76-4.59Z" transform="translate(287 161.03)"/><path class="a" d="M684.52-160.88c-22.26,6.34-44.52,5.15-66.78,0Z" transform="translate(287 161.03)"/></svg>