<svg xmlns="http://www.w3.org/2000/svg" viewBox="0 0 1943.09 1093.09"><defs><style>.a{opacity:0;fill:#ffffff;}.b{fill:#ffffff;}</style></defs><title>1800f_00172</title><path class="a" d="M1655.9,200.35v82c-37.54,5-75.14,9.67-112.72,14.23-40.17,4.87-66.64,26.16-84.36,61-18.67,36.73-37.35,73.47-56.69,109.85-19.6,36.85-40.16,73.18-68,104.71-31.36,35.52-67.64,62.37-117,66.15-16.26,1.24-32.42.78-47.83-5.15-10.27-3.94-12.38-9.94-7.7-19.78,2.17-4.55,4.67-9,7.23-13.32,6.81-11.55,13.68-23,19.45-35.16,13.74-28.89,11.24-55.84-9.42-80.64-4.2-5.05-8.49-10.06-13.13-14.7q-24.42-24.4-49.15-48.48c-13.46-13.05-27.61-25.51-43.84-34.88-21.46-12.4-37.69-28.61-45-52.79a33.73,33.73,0,0,0-3-6.11c-11.06-20.38-27.54-28.3-50.52-24.36-26,4.46-49.7,15.35-72.77,27.48-53.15,27.94-108.47,33-166.24,17.77-30.85-8.12-60.49-19.92-91-28.92-18.5-5.45-37.21-10-56.7-8.12-13.87,1.36-26.54,5.57-32,20.21-3.54,9.44-2.05,19,1.55,28.13,6.79,17.29,18.15,31.52,31.1,44.44,61.92,61.83,135.92,103,220,125.68,43.56,11.78,88.27,16.83,132.76,5.87,27.17-6.7,48.17-.43,65.35,21,1.9,2.37,4,4.55,6,6.88,16.73,20.12,34.67,38.89,57.82,51.88,8.15,4.58,16.29,9.22,24.22,14.17,14.23,8.88,15.65,15.43,5.9,29-11,15.29-25.8,26.23-42.08,35.3-17,9.47-34.56,17.9-51.12,28.21-23.22,14.46-44.63,31.45-67,47.09-30.09,21-60,25.93-94.41,8.79-38.9-19.37-75.93-9.76-109.27,15.76-18.13,13.87-23.09,31.15-15.12,52.54,13.79,37,37.71,63.54,78.08,72.14,12.11,2.58,23.8,6.47,34.06,13.77H340c-1.41-4.17-4.34-7.38-7-10.72-18.59-23.43-43.89-36.06-71.94-43.85-34.83-9.66-70.7-11.72-106.55-13.87-24.5-1.47-48.82-4-72.66-10.43-30.06-8.11-50.36-26-58.53-56.52-3.27-12.2-7-24.33-9.42-36.7-8.72-44-28-82.48-58.65-115.42C-61.86,626.07-80,608.81-97.62,591c-11.41-11.48-22.9-22.86-32.57-35.95-10.84-14.66-12-29.67-2.18-45.14q7.91-12.49,16.54-24.51c16.67-23.18,34.67-45.54,46.35-71.9C-56,383.2-51,352.35-63.41,320.11c-14.72-38.31-41.89-59.24-78.44-59.42-22.73-.11-35.46-8.76-42.61-30.35-8.57-25.9-8-51.67,3-77,10.78-24.7,16.4-50.22,13.37-77.48-2.59-23.31-9.31-45.53-16-67.76-8.27-27.33-11.26-54.41.91-81.48a192.6,192.6,0,0,1,21-35.95c17.81-24,37.75-45.16,69.3-50.3.66-.11,1.22-.84,1.83-1.27H1174.76c-.37,1.68.64,2.9,1.45,4.16,22.32,34.94,44.44,70,67.06,104.76,23.72,36.45,50.54,70.8,72.53,108.42,21.17,36.22,41.49,73.07,70,104.39,21.17,23.29,45,42.29,77.68,46.3,16.79,2,33.31-.33,49.76-3.13,35.66-6.05,71.3-12.16,107.72-9.76C1632.8,195,1644.59,196.3,1655.9,200.35Z" transform="translate(287.03 161.03)"/><path class="b" d="M833.26,931.92c-10.26-7.3-22-11.19-34.06-13.77-40.37-8.6-64.29-35.1-78.08-72.14-8-21.39-3-38.67,15.12-52.54,33.34-25.52,70.37-35.13,109.27-15.76,34.43,17.14,64.32,12.25,94.41-8.79,22.38-15.64,43.79-32.63,67-47.09,16.56-10.31,34.12-18.74,51.12-28.21,16.28-9.07,31.08-20,42.08-35.3,9.75-13.55,8.33-20.1-5.9-29-7.93-5-16.07-9.59-24.22-14.17-23.15-13-41.09-31.76-57.82-51.88-1.94-2.33-4.07-4.51-6-6.88C989,535,968,528.75,940.87,535.45c-44.49,11-89.2,5.91-132.76-5.87C724,506.85,650,465.73,588.09,403.9c-13-12.92-24.31-27.15-31.1-44.44-3.6-9.16-5.09-18.69-1.55-28.13,5.49-14.64,18.16-18.85,32-20.21,19.49-1.9,38.2,2.67,56.7,8.12,30.54,9,60.18,20.8,91,28.92,57.77,15.21,113.09,10.17,166.24-17.77,23.07-12.13,46.74-23,72.77-27.48,23-3.94,39.46,4,50.52,24.36a33.73,33.73,0,0,1,3,6.11c7.32,24.18,23.55,40.39,45,52.79,16.23,9.37,30.38,21.83,43.84,34.88q24.8,24,49.15,48.48c4.64,4.64,8.93,9.65,13.13,14.7,20.66,24.8,23.16,51.75,9.42,80.64-5.77,12.12-12.64,23.61-19.45,35.16-2.56,4.35-5.06,8.77-7.23,13.32-4.68,9.84-2.57,15.84,7.7,19.78,15.41,5.93,31.57,6.39,47.83,5.15,49.32-3.78,85.6-30.63,117-66.15,27.85-31.53,48.41-67.86,68-104.71,19.34-36.38,38-73.12,56.69-109.85,17.72-34.87,44.19-56.16,84.36-61,37.58-4.56,75.18-9.23,112.72-14.23V414.36c-8.63,14-17.15,28-25.9,41.93-25.07,39.85-45.81,81.57-55.17,128.14-5.42,27-8,54,2.13,80.68,8.5,22.32,25.79,31.69,49.19,27.54,10.23-1.81,19.42-7,29.75-8.13q0,120.66.14,241.33c0,5.19-1,6.22-6.22,6.21q-273.94-.25-547.91-.14c-9.13-9.36-20.65-12.2-33.09-11.13-14.83,1.27-29,5.5-42.8,11.13Z" transform="translate(287.03 161.03)"/><path class="b" d="M-91.07-160.88c-.61.43-1.17,1.16-1.83,1.27-31.55,5.14-51.49,26.29-69.3,50.3a192.6,192.6,0,0,0-21,36c-12.17,27.07-9.18,54.15-.91,81.48,6.73,22.23,13.45,44.45,16,67.76,3,27.26-2.59,52.78-13.37,77.48-11.06,25.31-11.58,51.08-3,77,7.15,21.59,19.88,30.24,42.61,30.35,36.55.18,63.72,21.11,78.44,59.42C-51,352.35-56,383.2-69.48,413.54c-11.68,26.36-29.68,48.72-46.35,71.9q-8.62,12-16.54,24.51c-9.79,15.47-8.66,30.48,2.18,45.14,9.67,13.09,21.16,24.47,32.57,35.95,17.64,17.77,35.76,35,52.85,53.37,30.69,32.94,49.93,71.38,58.65,115.42,2.45,12.37,6.15,24.5,9.42,36.7,8.17,30.55,28.47,48.41,58.53,56.52,23.84,6.43,48.16,9,72.66,10.43,35.85,2.15,71.72,4.21,106.55,13.87,28,7.79,53.35,20.42,71.94,43.85,2.66,3.34,5.59,6.55,7,10.72q-310.14,0-620.29.12c-5.2,0-6.73-.71-6.72-6.47q.34-177.44.17-354.88c2.53-1.43,3.77-4,5.21-6.28,5.94-9.6,4.77-13.59-5.21-18q0-350.22-.14-700.45c0-5.69,1.28-7,7-7C-217-160.79-154-160.88-91.07-160.88Z" transform="translate(287.03 161.03)"/><path class="b" d="M1655.9,200.35c-11.31-4-23.1-5.31-35-6.09-36.42-2.4-72.06,3.71-107.72,9.76-16.45,2.8-33,5.18-49.76,3.13-32.71-4-56.51-23-77.68-46.3-28.47-31.32-48.79-68.17-70-104.39-22-37.62-48.81-72-72.53-108.42-22.62-34.75-44.74-69.82-67.06-104.76-.81-1.26-1.82-2.48-1.45-4.16H1319c26.19,46.87,57.16,90,98.48,124.91C1449.52-8.83,1487.49,1.37,1528.62.94c37.7-.4,67-18.16,90.8-46.36,13.4-15.85,24.15-33.59,36.48-50.2Z" transform="translate(287.03 161.03)"/><path class="a" d="M1655.9-95.62c-12.33,16.61-23.08,34.35-36.48,50.2-23.85,28.2-53.1,46-90.8,46.36-41.13.43-79.1-9.77-111.19-36.91-41.32-34.93-72.29-78-98.48-124.91q165.43,0,330.87-.15c5.2,0,6.34,1,6.23,6.22C1655.66-135.08,1655.9-115.35,1655.9-95.62Z" transform="translate(287.03 161.03)"/><path class="a" d="M1655.9,684.52c-10.33,1.15-19.52,6.32-29.75,8.13-23.4,4.15-40.69-5.22-49.19-27.54-10.15-26.65-7.55-53.67-2.13-80.68,9.36-46.57,30.1-88.29,55.17-128.14,8.75-13.9,17.27-28,25.9-41.93Z" transform="translate(287.03 161.03)"/><path class="a" d="M1026,931.92c13.77-5.63,28-9.86,42.8-11.13,12.44-1.07,24,1.77,33.09,11.13Z" transform="translate(287.03 161.03)"/><path class="a" d="M-286.86,546.4c10,4.42,11.15,8.41,5.21,18-1.44,2.33-2.68,4.85-5.21,6.28Z" transform="translate(287.03 161.03)"/></svg>