<svg xmlns="http://www.w3.org/2000/svg" viewBox="0 0 1943 1093.1"><defs><style>.a{opacity:0;fill:#ffffff;}.b{fill:#ffffff;}</style></defs><title>1800f_00101</title><path class="a" d="M1655.9,693.63V824.16c-26.57,8.23-53.06,16.73-77.4,30.54-30.25,17.15-56.92,37-54.65,77.22H1335.64c1.12-3.3,4.14-5,6.29-7.41,12.19-13.64,22.77-28.35,29.68-45.39,7.67-18.93-.45-31.57-20.95-32.18-33.55-1-59,15.24-79.86,39.62-11.14,13-17.3,27.83-11,45.36h-217c-1.72-5.76-6.54-8.85-11-12a166,166,0,0,0-56.92-26c-49.91-12.36-100.67-12.72-151.43-8.17C776.09,890,729.33,898.5,682.72,907.6a935.66,935.66,0,0,0-96.86,24.32H212.49c.92-2.15,3.12-2.43,4.9-3.19a300.74,300.74,0,0,0,83.37-53.23c25.33-22.66,45-49,54.84-82.15,8.43-28.35,10.16-57.1,7.18-86.3-3.71-36.45-11.73-71.81-27.16-105.21-3.13-6.78-6.06-15.49-14.74-15.45-8.24,0-11,8.51-14.22,15-7.14,14.49-12.84,29.7-22.19,43.07-12.53,17.93-26.07,22.61-46.48,15.6a138.16,138.16,0,0,1-24.59-11.78c-16.39-9.54-32.63-19.33-49-28.82-31.71-18.35-60.77-40.07-85.3-67.43C62.78,533.9,52.16,513.32,51,488.17c-.75-15.95-1.08-31.86-.45-47.75,1.06-26.8,1.11-53.52-.1-80.33-2.8-62.33-25.64-117.52-59-169C-20.1,173.38-34.67,158.26-52.86,147c-15.73-9.71-30.06-10.06-42.38-.35C-110,158.32-115.72,173.87-113,192.35c2,13.31,6.4,26,10.88,38.62,19.55,55.09,32.5,111.72,34.84,170.13,1.94,48.65,10.22,95.9,23.88,142.37,7.53,25.63,18,49.67,36.25,70.08,13.49,15.12,27.61,29.55,41.91,43.83,10.2,10.19,20.19,20.54,28.83,32.15,27.5,37,28.79,78.43,2.85,113.92C47.78,829,21.66,842.89-8.53,850c-19.2,4.53-38.25,9.47-56,18.5-35.91,18.29-69.28,40.67-102.44,63.4-37.94,0-75.89-.13-113.83.15-5.2,0-6.22-1-6.21-6.22q.24-313.05.14-626.09v-236c1.51-.08,3-.09,4.54-.26,28.24-3.19,56.49-3.77,84.7.25,26.82,3.82,53,10.88,79.16,17.49,20.54,5.18,40.77,5.67,61.34-.37,22.78-6.68,45.67-13,69.12-17.2,32.33-5.73,65-9.41,97-17.33C180.38,28.64,242.51-6.58,298.6-53.43c17.65-14.74,34.12-30.95,53.27-43.83,19.41-13.06,36.52-12.4,55.44,1.31,13.59,9.85,23.61,22.58,31.48,37.33,8.87,16.6,23.27,24.9,41.93,25.45a238.62,238.62,0,0,0,28.81-.58c28.47-2.63,57-4.11,85.57-4,39.93.1,79.78,2.69,119.67,3.82,52.66,1.5,104.8,6.89,156.36,17.43C904.54-9.71,938-3,970.93,6c19.8,5.43,31.59,18,35.62,38.1,3.78,18.83,7.58,37.66,11.79,56.39,5.37,23.93,10.5,48,21.79,70.05,11,21.51,26.94,36.09,53.48,32.77,3.26-.41,6.5-.94,9.76-1.33,50.55-6,85.46-40.9,91.26-91.48,2.4-20.92,5.32-41.67,15.26-60.64,11.59-22.1,29.3-34,54.91-33.36,23.24.6,44.63,8.14,65.76,16.7,13.11,5.32,26.66,10.25,37.36,19.84,35.29,31.61,60.63,69.7,72.33,116,7.88,31.18,7.82,63.24,7.13,95-1.56,72.39,9.25,143.08,26.33,213.09,11,45.21,28,87.55,57.72,124.07,24.39,29.91,55.79,51.14,87.75,71.65C1631,680.46,1642.43,688.9,1655.9,693.63Z" transform="translate(287.01 161.02)"/><path class="b" d="M1655.9,693.63c-13.47-4.73-24.9-13.17-36.72-20.75-32-20.51-63.36-41.74-87.75-71.65-29.77-36.52-46.69-78.86-57.72-124.07-17.08-70-27.89-140.7-26.33-213.09.69-31.79.75-63.85-7.13-95-11.7-46.29-37-84.38-72.33-116-10.7-9.59-24.25-14.52-37.36-19.84-21.13-8.56-42.52-16.1-65.76-16.7-25.61-.66-43.32,11.26-54.91,33.36-9.94,19-12.86,39.72-15.26,60.64-5.8,50.58-40.71,85.49-91.26,91.48-3.26.39-6.5.92-9.76,1.33-26.54,3.32-42.44-11.26-53.48-32.77-11.29-22-16.42-46.12-21.79-70.05-4.21-18.73-8-37.56-11.79-56.39-4-20.1-15.82-32.67-35.62-38.1C938-3,904.54-9.71,871.13-16.54,819.57-27.08,767.43-32.47,714.77-34,674.88-35.1,635-37.69,595.1-37.79c-28.6-.07-57.1,1.41-85.57,4a238.62,238.62,0,0,1-28.81.58c-18.66-.55-33.06-8.85-41.93-25.45-7.87-14.75-17.89-27.48-31.48-37.33-18.92-13.71-36-14.37-55.44-1.31-19.15,12.88-35.62,29.09-53.27,43.83C242.51-6.58,180.38,28.64,109,46.33,77,54.25,44.33,57.93,12,63.66c-23.45,4.15-46.34,10.52-69.12,17.2-20.57,6-40.8,5.55-61.34.37-26.21-6.61-52.34-13.67-79.16-17.49-28.21-4-56.46-3.44-84.7-.25-1.5.17-3,.18-4.54.26,0-72.6.08-145.2-.15-217.8,0-5.7,1.29-7,7-7q681.85.22,1363.72.14c-.4,3.16-3.22,4.39-5.19,6.17-13.87,12.55-27.63,25.2-39.57,39.66-13,15.73-24.13,32.38-27.3,53.22-3.38,22.17,9.81,40.72,31.21,42.89,8.69.89,17.12-1.34,25.09-4.68,62-26,100.21-72.15,115.94-137.26h459.88c-3.42,19.08-7.77,38-8.14,57.54-.47,25.11,6.1,47.82,20.29,68.43Z" transform="translate(287.01 161.02)"/><path class="b" d="M-167,931.92c33.16-22.73,66.53-45.11,102.44-63.4,17.74-9,36.79-14,56-18.5,30.19-7.13,56.31-21.06,75-46.57,25.94-35.49,24.65-77-2.85-113.92-8.64-11.61-18.63-22-28.83-32.15C20.45,643.1,6.33,628.67-7.16,613.55c-18.21-20.41-28.72-44.45-36.25-70.08C-57.07,497-65.35,449.75-67.29,401.1c-2.34-58.41-15.29-115-34.84-170.13-4.48-12.63-8.93-25.31-10.88-38.62-2.71-18.48,3-34,17.77-45.66,12.32-9.71,26.65-9.36,42.38.35,18.19,11.22,32.76,26.34,44.26,44.07,33.39,51.46,56.23,106.65,59,169,1.21,26.81,1.16,53.53.1,80.33-.63,15.89-.3,31.8.45,47.75,1.18,25.15,11.8,45.73,28.08,63.89,24.53,27.36,53.59,49.08,85.3,67.43,16.41,9.49,32.65,19.28,49,28.82A138.16,138.16,0,0,0,238,660.09c20.41,7,33.95,2.33,46.48-15.6,9.35-13.37,15-28.58,22.19-43.07,3.21-6.52,6-15,14.22-15,8.68,0,11.61,8.67,14.74,15.45,15.43,33.4,23.45,68.76,27.16,105.21,3,29.2,1.25,58-7.18,86.3-9.85,33.13-29.51,59.49-54.84,82.15a300.74,300.74,0,0,1-83.37,53.23c-1.78.76-4,1-4.9,3.19Z" transform="translate(287.01 161.02)"/><path class="a" d="M1183.87-160.88c-15.73,65.11-53.9,111.3-115.94,137.26-8,3.34-16.4,5.57-25.09,4.68-21.4-2.17-34.59-20.72-31.21-42.89,3.17-20.84,14.32-37.49,27.3-53.22,11.94-14.46,25.7-27.11,39.57-39.66,2-1.78,4.79-3,5.19-6.17Z" transform="translate(287.01 161.02)"/><path class="b" d="M585.86,931.92a935.66,935.66,0,0,1,96.86-24.32c46.61-9.1,93.37-17.58,140.68-21.83,50.76-4.55,101.52-4.19,151.43,8.17a166,166,0,0,1,56.92,26c4.42,3.15,9.24,6.24,11,12Z" transform="translate(287.01 161.02)"/><path class="b" d="M1523.85,931.92c-2.27-40.24,24.4-60.07,54.65-77.22,24.34-13.81,50.83-22.31,77.4-30.54,0,34.4-.07,68.8.1,103.2,0,3.8-.86,4.67-4.66,4.66C1608.84,931.86,1566.35,931.92,1523.85,931.92Z" transform="translate(287.01 161.02)"/><path class="b" d="M1259.76,931.92c-6.26-17.53-.1-32.38,11-45.36,20.91-24.38,46.31-40.61,79.86-39.62,20.5.61,28.62,13.25,20.95,32.18-6.91,17-17.49,31.75-29.68,45.39-2.15,2.41-5.17,4.11-6.29,7.41Z" transform="translate(287.01 161.02)"/><path class="a" d="M1655.9-34.91c-14.19-20.61-20.76-43.32-20.29-68.43.37-19.58,4.72-38.46,8.14-57.54,12.15,0,12.15,0,12.15,12Z" transform="translate(287.01 161.02)"/></svg>