<svg xmlns="http://www.w3.org/2000/svg" viewBox="0 0 1943.04 1093.1"><defs><style>.a{opacity:0;fill:#ffffff;}.b{fill:#ffffff;}</style></defs><title>1800f_00281</title><path class="a" d="M1526.88,931.92H31.87c-.25-16.64-.08-33.31-3-49.79-3.14-17.71-6.78-35.27-18.11-50C4.08,823.45-3.79,821.41-14,825.38c-10.44,4.06-18.45,11.22-25.23,19.93-22.62,29.05-43.63,59.37-68.55,86.61-57.68,0-115.35-.09-173,.15-5.2,0-6.22-1-6.21-6.22q.25-242.08.14-484.17c29.42,4.39,58.31,11.22,87.11,18.51,20.09,5.08,31.37,17.91,34.86,38.07,2.54,14.65,5.28,29.43,4.52,44.22-.67,13.25-4.29,26.32-6,39.55-3.69,28.14-1.93,55.58,13.12,80.64,11.19,18.63,24.89,34.68,47.94,38.4,11.35,1.83,22.87,1.73,32.28-6.52,17-14.91,21.61-34.14,18-55.61-3-17.82-9.22-35-8.56-53.57.56-15.75,8.4-26.55,21-32.52,20.31-9.61,41.71-11.14,62.77-.58,14.74,7.4,27.52,17.86,41.54,26.37a149.1,149.1,0,0,0,64.81,21.51q29.76,2.65,59.51,5.51c31.15,3,62.14,8.11,93.59,6.55,7.88-.39,15.58-1.71,22.56-5.61s11-9.72,11.27-18.28c.4-14.08-6.3-25.31-13.84-36.09-15.32-21.88-36.25-37.8-57.64-53.18-16.39-11.79-33.94-22-48.19-36.65-15.11-15.5-17.3-32.67-5.78-51a196.34,196.34,0,0,1,14.8-20.15c24.67-29.84,49.27-59.71,68-93.83,10.34-18.84,20.83-37.61,30.77-56.65,15.54-29.79,39.17-53.25,60.62-78.41,18.78-22,34-45.93,39.42-75,1.8-9.68,2.5-19.61,4.92-29.12,9.67-38,31.11-69.4,57.1-97.87,11.78-12.9,22.94-14.61,38.23-6.17,26,14.33,47.56,33.49,60.4,60.87,5.51,11.76,14.29,18.62,26.57,21.61a86.4,86.4,0,0,0,18.73,2.64c38,.72,74.23-7.54,109.21-22,23.45-9.69,45-23.07,67-35.38,19.82-11.06,37.85-9.57,55.52,4.53,52.5,41.91,111.92,71.16,174,96,55.14,22,111.85,32.59,171.2,29.19,25.16-1.44,48.75,3.84,69.7,18.63a327.5,327.5,0,0,1,27.71,22.4c19.65,17.39,43.17,29,64.64,43.75,28.29,19.36,51.54,42.92,66.36,74.33,5,10.49,11,20.48,17,30.44,23.06,38.38,49,74.87,72.87,112.77,27.18,43.25,50.35,88.4,61.35,138.71,6.53,29.85,11.16,60.11,17.43,90,5.16,24.57,12.36,48.61,26.88,69.59,11.49,16.59,25.9,29.06,47.49,29.82V865.14c-17.52-1.75-34.94-3.46-52.69-1.72C1567.22,866.94,1534.2,896.06,1526.88,931.92ZM1262.2,320.74c-18.82-.06-39.78,18.11-42.53,36.87-1.86,12.66,5.79,19.34,18,15.44,16.58-5.26,29.33-15.54,37.52-30.87C1282,329.61,1276.34,320.79,1262.2,320.74Z" transform="translate(287 161.03)"/><path class="b" d="M1655.9,742.2c-21.59-.76-36-13.23-47.49-29.82-14.52-21-21.72-45-26.88-69.59-6.27-29.91-10.9-60.17-17.43-90-11-50.31-34.17-95.46-61.35-138.71-23.82-37.9-49.81-74.39-72.87-112.77-6-10-12.08-20-17-30.44-14.82-31.41-38.07-55-66.36-74.33-21.47-14.7-45-26.36-64.64-43.75a327.5,327.5,0,0,0-27.71-22.4c-21-14.79-44.54-20.07-69.7-18.63-59.35,3.4-116.06-7.14-171.2-29.19-62-24.83-121.47-54.08-174-96C821.6-27.54,803.57-29,783.75-18c-22.06,12.31-43.58,25.69-67,35.38-35,14.44-71.19,22.7-109.21,22a86.4,86.4,0,0,1-18.73-2.64c-12.28-3-21.06-9.85-26.57-21.61-12.84-27.38-34.44-46.54-60.4-60.87-15.29-8.44-26.45-6.73-38.23,6.17-26,28.47-47.43,59.86-57.1,97.87-2.42,9.51-3.12,19.44-4.92,29.12-5.4,29-20.64,52.93-39.42,75-21.45,25.16-45.08,48.62-60.62,78.41-9.94,19-20.43,37.81-30.77,56.65-18.73,34.12-43.33,64-68,93.83A196.34,196.34,0,0,0,188,411.43c-11.52,18.3-9.33,35.47,5.78,51,14.25,14.62,31.8,24.86,48.19,36.65,21.39,15.38,42.32,31.3,57.64,53.18,7.54,10.78,14.24,22,13.84,36.09-.24,8.56-4.17,14.32-11.27,18.28s-14.68,5.22-22.56,5.61c-31.45,1.56-62.44-3.6-93.59-6.55q-29.74-2.8-59.51-5.51a149.1,149.1,0,0,1-64.81-21.51c-14-8.51-26.8-19-41.54-26.37-21.06-10.56-42.46-9-62.77.58-12.62,6-20.46,16.77-21,32.52-.66,18.62,5.52,35.75,8.56,53.57,3.66,21.47-1,40.7-18,55.61-9.41,8.25-20.93,8.35-32.28,6.52-23-3.72-36.75-19.77-47.94-38.4-15.05-25.06-16.81-52.5-13.12-80.64,1.74-13.23,5.36-26.3,6-39.55.76-14.79-2-29.57-4.52-44.22-3.49-20.16-14.77-33-34.86-38.07-28.8-7.29-57.69-14.12-87.11-18.51q0-297.87-.14-595.73c0-5.69,1.28-7,7-7q132.42.32,264.85.15c-1.76,7.71-5.84,14.45-9,21.58-8.61,19.35-19,38-23.61,59-6.1,27.9,3.4,52.46,26.29,66.3C-.29-1.21,22.5,1.58,46.36-4.71s43.47-19.93,62.34-35c31.64-25.19,58.05-55.49,83.83-86.36,9.69-11.61,20.47-22.33,29.07-34.85q713.73,0,1427.47-.14c5.69,0,7,1.28,7,7Q1655.8,294.08,1655.9,742.2Z" transform="translate(287 161.03)"/><path class="a" d="M221.6-160.88c-8.6,12.52-19.38,23.24-29.07,34.85-25.78,30.87-52.19,61.17-83.83,86.36-18.87,15-38.57,28.7-62.34,35S-.29-1.21-21.51-14C-44.4-27.88-53.9-52.44-47.8-80.34c4.59-21,15-39.61,23.61-59,3.17-7.13,7.25-13.87,9-21.58Z" transform="translate(287 161.03)"/><path class="b" d="M-107.76,931.92c24.92-27.24,45.93-57.56,68.55-86.61,6.78-8.71,14.79-15.87,25.23-19.93,10.19-4,18.06-1.93,24.75,6.76,11.33,14.72,15,32.28,18.11,50,2.91,16.48,2.74,33.15,3,49.79Z" transform="translate(287 161.03)"/><path class="b" d="M1526.88,931.92c7.32-35.86,40.34-65,76.33-68.5,17.75-1.74,35.17,0,52.69,1.72,0,20.74-.12,41.48.1,62.22,0,3.8-.86,4.67-4.66,4.66C1609.86,931.86,1568.37,931.92,1526.88,931.92Z" transform="translate(287 161.03)"/><path class="b" d="M1262.2,320.74c14.14.05,19.75,8.87,13,21.44-8.19,15.33-20.94,25.61-37.52,30.87-12.25,3.9-19.9-2.78-18-15.44C1222.42,338.85,1243.38,320.68,1262.2,320.74Z" transform="translate(287 161.03)"/></svg>