<svg xmlns="http://www.w3.org/2000/svg" viewBox="0 0 1942.98 1093.09"><defs><style>.a{opacity:0;fill:#ffffff;}.b{fill:#ffffff;}</style></defs><title>1800f_00311</title><path class="a" d="M-286.86,253.47V-77.4c2.41-1.84,2.61-4.79,3.57-7.32,9.73-25.68,19.3-51.43,31.34-76.16H9.11c1.06,3.07,4.14,3.48,6.5,4.71,16.81,8.75,34.23,16.25,51.35,24.35,29.13,13.78,59.6,18.45,91.46,16.49a548.32,548.32,0,0,0,109.77-17.73c52.85-14.29,106.39-21.27,161.1-20.09,22.48.49,45,.15,67.48,0,13.93-.12,27.71-1.46,40.52-7.69H1575.45c.37,2.74.61,5.51,1.14,8.22,4.91,25.21,14.21,48.93,24.74,72.21,8.83,19.56,18.33,38.8,26.06,58.87C1642,16.47,1646,56.28,1648.3,96.48c1,18.61,2.32,37.25,7.6,55.3V510c-5.35-2.85-7.83-8.4-11.81-12.55-40-41.83-88.95-70.52-140.91-94.35-20.11-9.23-40.6-6.66-59.33,5.51-11.43,7.43-22.43,15.5-33.76,23.09-29.23,19.57-61.81,25.07-95,16.16-56.53-15.18-101.17-47.21-128.45-100.59-5.4-10.57-10.79-21.19-18.86-30.08-15.4-17-35.74-24.69-57.36-28.54-25.82-4.61-48.56-13.4-67.23-33.09-16.65-17.55-38.67-26.21-62.66-29.57-15.5-2.18-31.23-3.51-46.41-7.1-53-12.54-101.18-36.22-146.84-65.36-9.16-5.84-17.74-12.72-28-16.6-11-4.15-21.11-3.1-30.13,5.47-10,9.49-13.74,21.68-15.78,34.51-6.06,38.11-4.19,76.1,2.75,113.9,8.85,48.26,33.52,86,74.89,112.85A328.33,328.33,0,0,0,879.79,444c40.29,11.49,74.57,30.91,102.2,63,17.52,20.34,41.29,32,67.08,39.55,63,18.51,126.11,37,187.65,60.22,39.1,14.76,79.11,26.31,120.72,31.65,17.79,2.29,35.8,3.11,53.28,7.35,6.43,1.56,14.84,2.8,15.68,10.93.8,7.7-7,10.52-12.61,13.54-13,6.92-27,11.33-41,15.71-43.73,13.66-86.81,28.78-126.88,51.57-23,13.08-43,30.26-64.18,45.72-50.61,36.85-104.6,48.8-164.09,22.9-15-6.52-31-6.75-46.9-3.74-23.27,4.4-43.85,15-63.61,27.57-28.53,18.13-53,41.27-78.35,63.36-22.37,19.52-47.31,33.68-77.43,37-1.25.14-2.55.17-3.08,1.65H664.79c-6.61-3.26-13.8-1.41-20.69-2.25-44-5.36-88.23-6.06-132.48-3.17-38.31,2.5-75-2.44-109.48-20.75-26.34-14-52.27-28.75-79.3-41.46-39.14-18.41-79-25-121.37-11.42C154.28,868,107.22,883.5,61.84,903.53c-18.68,8.24-37.27,16.82-54.25,28.39H-127.49c-.68-2.85.16-5.51,1-8.16,13.6-42.56,18.53-86.25,17.42-130.8-.62-25,.58-50,2.48-75,2-26.66,5.12-53.26,2.13-80.14-4.55-41-20.8-75.63-53.46-101.76a154.12,154.12,0,0,1-26-26.34c-23.91-31-37.21-66.94-48.08-103.94-9.39-32-15.57-64.87-27.37-96.15C-266.78,290.1-274.14,270.46-286.86,253.47Zm951,214c-.32-4.71-.45-9-.91-13.27-2.65-24.65-15.77-43.92-32.26-61.19-11-11.54-23.16-21.88-38.06-28.34s-26.81-2.48-34.34,11.86A109.84,109.84,0,0,0,552,391.79c-8.59,25-11.81,51.11-16.69,76.89C531.05,491,528.64,513.77,517,534c-10.09,17.45-24,31.75-37.75,46.22-11.12,11.69-22.54,23.21-29.65,38.09-2.86,6-4.59,12.31-1.22,18.09,3.78,6.48,10.93,5.11,17.22,4.86a19.08,19.08,0,0,0,3.69-.77c12.67-3.1,24.14-9.1,35.14-15.77,36.07-21.85,71.31-45,107.85-66.19C646.58,538.59,662.34,506.38,664.1,467.44Z" transform="translate(286.96 161.06)"/><path class="b" d="M748.26,931.92c.53-1.48,1.83-1.51,3.08-1.65,30.12-3.28,55.06-17.44,77.43-37,25.34-22.09,49.82-45.23,78.35-63.36,19.76-12.55,40.34-23.17,63.61-27.57,15.95-3,31.93-2.78,46.9,3.74,59.49,25.9,113.48,14,164.09-22.9,21.23-15.46,41.17-32.64,64.18-45.72,40.07-22.79,83.15-37.91,126.88-51.57,14-4.38,28-8.79,41-15.71,5.65-3,13.41-5.84,12.61-13.54-.84-8.13-9.25-9.37-15.68-10.93-17.48-4.24-35.49-5.06-53.28-7.35-41.61-5.34-81.62-16.89-120.72-31.65-61.54-23.24-124.6-41.71-187.65-60.22C1023.28,539,999.51,527.32,982,507c-27.63-32.08-61.91-51.5-102.2-63A328.33,328.33,0,0,1,791,403.64c-41.37-26.8-66-64.59-74.89-112.85-6.94-37.8-8.81-75.79-2.75-113.9,2-12.83,5.81-25,15.78-34.51,9-8.57,19.16-9.62,30.13-5.47,10.25,3.88,18.83,10.76,28,16.6,45.66,29.14,93.86,52.82,146.84,65.36,15.18,3.59,30.91,4.92,46.41,7.1,24,3.36,46,12,62.66,29.57,18.67,19.69,41.41,28.48,67.23,33.09,21.62,3.85,42,11.58,57.36,28.54,8.07,8.89,13.46,19.51,18.86,30.08,27.28,53.38,71.92,85.41,128.45,100.59,33.19,8.91,65.77,3.41,95-16.16,11.33-7.59,22.33-15.66,33.76-23.09,18.73-12.17,39.22-14.74,59.33-5.51,52,23.83,100.89,52.52,140.91,94.35,4,4.15,6.46,9.7,11.81,12.55V859.06c-9.39.3-18.61,1.66-27.35,5.16a198.27,198.27,0,0,0-31,15.84c-22.47,13.94-42.36,30.81-58.54,51.86Z" transform="translate(286.96 161.06)"/><path class="b" d="M-286.86,253.47c12.72,17,20.08,36.63,27.47,56.21,11.8,31.28,18,64.18,27.37,96.15,10.87,37,24.17,72.92,48.08,103.94a154.12,154.12,0,0,0,26,26.34c32.66,26.13,48.91,60.72,53.46,101.76,3,26.88-.1,53.48-2.13,80.14-1.9,25-3.1,49.94-2.48,75,1.11,44.55-3.82,88.24-17.42,130.8-.85,2.65-1.69,5.31-1,8.16H-235.26c-3-12.47-6.46-24.85-8.92-37.43-2.17-11.12-3.44-22.43-7.93-32.94-7.19-16.84-17.2-31.27-34.75-38.91Z" transform="translate(286.96 161.06)"/><path class="b" d="M7.59,931.92c17-11.57,35.57-20.15,54.25-28.39,45.38-20,92.44-35.49,139.63-50.66,42.38-13.62,82.23-7,121.37,11.42,27,12.71,53,27.48,79.3,41.46,34.5,18.31,71.17,23.25,109.48,20.75,44.25-2.89,88.44-2.19,132.48,3.17,6.89.84,14.08-1,20.69,2.25Z" transform="translate(286.96 161.06)"/><path class="b" d="M537.29-160.88c-12.81,6.23-26.59,7.57-40.52,7.69-22.49.19-45,.53-67.48,0-54.71-1.18-108.25,5.8-161.1,20.09a548.32,548.32,0,0,1-109.77,17.73c-31.86,2-62.33-2.71-91.46-16.49-17.12-8.1-34.54-15.6-51.35-24.35-2.36-1.23-5.44-1.64-6.5-4.71Z" transform="translate(286.96 161.06)"/><path class="b" d="M1655.9,151.78c-5.28-18.05-6.55-36.69-7.6-55.3-2.28-40.2-6.26-80-20.91-118.06-7.73-20.07-17.23-39.31-26.06-58.87-10.53-23.28-19.83-47-24.74-72.21-.53-2.71-.77-5.48-1.14-8.22,25,0,50.09.14,75.13-.14,4.54,0,5.45.92,5.44,5.45Q1655.78-1.9,1655.9,151.78Z" transform="translate(286.96 161.06)"/><path class="a" d="M1539,931.92c16.18-21,36.07-37.92,58.54-51.86a198.27,198.27,0,0,1,31-15.84c8.74-3.5,18-4.86,27.35-5.16,0,22.77-.11,45.54.1,68.3,0,3.8-.86,4.67-4.66,4.66C1613.9,931.85,1576.47,931.92,1539,931.92Z" transform="translate(286.96 161.06)"/><path class="a" d="M-286.86,822.64c17.55,7.64,27.56,22.07,34.75,38.91,4.49,10.51,5.76,21.82,7.93,32.94,2.46,12.58,5.91,25,8.92,37.43-15.68,0-31.37-.15-47.05.1-3.8.06-4.67-.86-4.65-4.66C-286.79,892.46-286.86,857.55-286.86,822.64Z" transform="translate(286.96 161.06)"/><path class="b" d="M-251.95-160.88c-12,24.73-21.61,50.48-31.34,76.16-1,2.53-1.16,5.48-3.57,7.32,0-25.89.1-51.78-.09-77.67,0-4.35.46-6.24,5.6-6C-271.58-160.51-261.75-160.88-251.95-160.88Z" transform="translate(286.96 161.06)"/><path class="b" d="M664.1,467.44c-1.76,38.94-17.52,71.15-51.86,91.05-36.54,21.18-71.78,44.34-107.85,66.19-11,6.67-22.47,12.67-35.14,15.77a19.08,19.08,0,0,1-3.69.77c-6.29.25-13.44,1.62-17.22-4.86-3.37-5.78-1.64-12.11,1.22-18.09,7.11-14.88,18.53-26.4,29.65-38.09C493,565.71,506.87,551.41,517,534c11.68-20.19,14.09-43,18.31-65.28,4.88-25.78,8.1-51.93,16.69-76.89a109.84,109.84,0,0,1,6.57-15.29c7.53-14.34,19.36-18.34,34.34-11.86s27,16.8,38.06,28.34c16.49,17.27,29.61,36.54,32.26,61.19C663.65,458.43,663.78,462.73,664.1,467.44Z" transform="translate(286.96 161.06)"/></svg>