<svg xmlns="http://www.w3.org/2000/svg" viewBox="0 0 1366.34 768.27"><defs><style>.a{opacity:0;fill:#ffffff;}.b{fill:#ffffff;}</style></defs><title>1800f_00080</title><path class="a" d="M1367.52,522.12v77.4c-27.71,12.36-54.88,25.67-79.18,44.16-12.73,9.69-19.87,22-18.08,38.46.78,7.26,1.41,14.56,2.47,21.79,3.18,21.76,5.3,43.56,3.72,65.59H163.92c1.61-2.44,4.33-3.37,6.63-4.86,20.92-13.61,44.11-21.47,68.51-25.36,41.77-6.66,75.87-26.74,104.13-57.52,16.58-18.07,30.94-37.5,35.4-62.45,2.55-14.27-.77-28.24-3-42.13-6.52-40-11.67-80.07-6.59-120.69a238.38,238.38,0,0,0,1.38-42.39c-.54-9.9-2.42-19.57-6.82-28.58-8.32-17.08-23.34-20.85-38.76-9.82-11.25,8-18.63,19.1-24.38,31.38-6.87,14.65-13,29.66-21.23,43.64-12.56,21.44-29,25.82-50.46,13.32-20.85-12.15-37.93-28.55-51.66-48.33-11.14-16.06-15.35-33.71-11.92-53.26,3.51-20.07,11.47-38.73,17.46-58,6.25-20.1,8.87-40.57,4.72-61.33-10.83-54.22-43.76-90.33-93.41-112.37-8.31-3.69-17.07-6.51-24.44-12-6.42-4.8-6-9.17,1.36-12.24,8.36-3.5,17.19-3.8,26.09-2.67,14.72,1.86,28.15,8.07,42,12.66,34.47,11.41,67.53,10.18,99.34-8.64,14.13-8.37,28.82-15.8,43-24,33.32-19.34,65.62-40.13,91.7-69.08,3.62-4,8.3-7.4,9.49-13.21H529.7c12.83,4.2,26,5.8,39.49,6.14,21.54.54,42.89-2,64.26-3.91,6.88-.61,14.09,1,20.71-2.23h60.71c1.42,2.07,3.6,1.36,5.5,1.38,14.5.14,29,.35,43.51.22,4.92-.05,10,.82,14.74-1.6H965.31c.54,9.56,6.36,17.28,9.09,26.1,11.57,37.29,31.48,69.8,57,99.12q57.72,66.32,115.15,132.9c21.07,24.46,40.06,50.17,47.37,82.63,4,17.72,8,35.46,13,53,6.21,22.14,14.62,43.64,33.91,57.8C1279.88,481.7,1322.52,504.14,1367.52,522.12ZM770.29,673.57c-25.5,0-50.12,5.45-74.49,12.25-12.44,3.48-24.7,7.65-34.93,15.91-13.18,10.63-12.35,22.8,1.91,31.79a40.6,40.6,0,0,0,6.05,3.1c19.36,8.08,39.4,7.28,59.64,4.68,21.41-2.76,41.34-11.42,62.46-15.33,11.42-2.12,22.86-4.29,33.65-8.74,10.6-4.37,12.6-10.48,6.07-19.39-8.5-11.58-19.61-19.44-34-22.35C788,673.71,779.14,673.55,770.29,673.57Zm320.55,53a32.38,32.38,0,0,0,13.41-2.07,225.22,225.22,0,0,0,43.22-20c18.42-11,36.87-22.13,51.53-38.18,3.58-3.92,8.88-8.35,6.27-14.37-2.86-6.6-10.12-5.42-16-6.19a14.32,14.32,0,0,0-3.74.45c-28.84,4.08-55.24,15.74-81.94,26.45-12.93,5.19-25.58,10.93-34.94,21.93-6.6,7.76-6.35,17.19.74,24.46C1075.35,725.13,1082.88,726.47,1090.84,726.61ZM736.4,567.06a46,46,0,0,0,6-.32c2.44-.45,5.37-1,6.11-3.66.91-3.31-2-5.1-4.32-6.29-5.65-2.94-11.74-4.42-18.13-2.77-2.47.63-4.91,2-5.42,4.67-.57,3.07,2.12,4.24,4.24,5.51A19.34,19.34,0,0,0,736.4,567.06Z" transform="translate(-1.31 -1.38)"/><path class="b" d="M382.48,1.52c-1.19,5.81-5.87,9.2-9.49,13.21-26.08,29-58.38,49.74-91.7,69.08-14.21,8.24-28.9,15.67-43,24-31.81,18.82-64.87,20.05-99.34,8.64-13.88-4.59-27.31-10.8-42-12.66C88,102.7,79.16,103,70.8,106.5c-7.32,3.07-7.78,7.44-1.36,12.24,7.37,5.51,16.13,8.33,24.44,12,49.65,22,82.58,58.15,93.41,112.37,4.15,20.76,1.53,41.23-4.72,61.33-6,19.28-13.95,37.94-17.46,58-3.43,19.55.78,37.2,11.92,53.26,13.73,19.78,30.81,36.18,51.66,48.33,21.47,12.5,37.9,8.12,50.46-13.32,8.19-14,14.36-29,21.23-43.64,5.75-12.28,13.13-23.33,24.38-31.38,15.42-11,30.44-7.26,38.76,9.82,4.4,9,6.28,18.68,6.82,28.58A238.38,238.38,0,0,1,369,456.51c-5.08,40.62.07,80.67,6.59,120.69,2.27,13.89,5.59,27.86,3,42.13-4.46,24.95-18.82,44.38-35.4,62.45-28.26,30.78-62.36,50.86-104.13,57.52-24.4,3.89-47.59,11.75-68.51,25.36-2.3,1.49-5,2.42-6.63,4.86-52.21,0-104.43-.07-156.64.1-4.54,0-5.94-.76-5.9-5.7.27-33,.14-66.09.14-99.13A37.54,37.54,0,0,0,6,662,179.29,179.29,0,0,1,74.27,627c13.41-3.61,26.89-7.09,39.69-12.66,21.67-9.44,32.15-25.5,30.21-46.63a69.78,69.78,0,0,0-4.93-19c-11-28-25.08-54.68-37.36-82.13C81.53,421,44.62,394,1.52,373.38V252a127.15,127.15,0,0,0,12.9-24.65c4.94-12.2,7.79-24.94,3.25-37.51-6.81-18.9-13.47-37.73-16.15-57.74,0-41.17.2-82.35-.21-123.51C1.25,2,3.14,1.37,8.9,1.38Q195.7,1.67,382.48,1.52Z" transform="translate(-1.31 -1.38)"/><path class="b" d="M1367.52,522.12c-45-18-87.64-40.42-126.73-69.1-19.29-14.16-27.7-35.66-33.91-57.8-4.9-17.49-9-35.23-13-53-7.31-32.46-26.3-58.17-47.37-82.63q-57.37-66.62-115.15-132.9c-25.53-29.32-45.44-61.83-57-99.12-2.73-8.82-8.55-16.54-9.09-26.1h180.61c5.3,8.51,12.77,14.61,21.58,19.12,8.64,4.43,13.21,3.63,18.8-4,3.36-4.6,6.83-9.33,8.19-15.1h98.66l74.37,56.16Z" transform="translate(-1.31 -1.38)"/><path class="a" d="M1.52,373.38C44.62,394,81.53,421,101.88,466.5c12.28,27.45,26.37,54.09,37.36,82.13a69.78,69.78,0,0,1,4.93,19c1.94,21.13-8.54,37.19-30.21,46.63-12.8,5.57-26.28,9.05-39.69,12.66A179.29,179.29,0,0,0,6,662a37.54,37.54,0,0,1-4.48,2.75Z" transform="translate(-1.31 -1.38)"/><path class="b" d="M1276.45,769.52c1.58-22-.54-43.83-3.72-65.59-1.06-7.23-1.69-14.53-2.47-21.79-1.79-16.49,5.35-28.77,18.08-38.46,24.3-18.49,51.47-31.8,79.18-44.16,0,54.9-.07,109.79.13,164.68,0,4.53-.91,5.49-5.45,5.45C1333.62,769.39,1305,769.52,1276.45,769.52Z" transform="translate(-1.31 -1.38)"/><path class="a" d="M1367.52,57.68,1293.15,1.52c23.39,0,46.78.08,70.16-.09,3.42,0,4.38.48,4.33,4.19C1367.37,23,1367.52,40.32,1367.52,57.68Z" transform="translate(-1.31 -1.38)"/><path class="a" d="M1.52,132.05c2.68,20,9.34,38.84,16.15,57.74,4.54,12.57,1.69,25.31-3.25,37.51A127.15,127.15,0,0,1,1.52,252Z" transform="translate(-1.31 -1.38)"/><path class="a" d="M1194.49,1.52c-1.36,5.77-4.83,10.5-8.19,15.1-5.59,7.65-10.16,8.45-18.8,4-8.81-4.51-16.28-10.61-21.58-19.12Z" transform="translate(-1.31 -1.38)"/><path class="b" d="M654.16,1.52c-6.62,3.18-13.83,1.62-20.71,2.23-21.37,1.9-42.72,4.45-64.26,3.91-13.46-.34-26.66-1.94-39.49-6.14Z" transform="translate(-1.31 -1.38)"/><path class="b" d="M778.62,1.52c-4.7,2.42-9.82,1.55-14.74,1.6-14.51.13-29-.08-43.51-.22-1.9,0-4.08.69-5.5-1.38Z" transform="translate(-1.31 -1.38)"/><path class="b" d="M770.29,673.57c8.85,0,17.66.14,26.4,1.92,14.35,2.91,25.46,10.77,34,22.35,6.53,8.91,4.53,15-6.07,19.39-10.79,4.45-22.23,6.62-33.65,8.74-21.12,3.91-41,12.57-62.46,15.33-20.24,2.6-40.28,3.4-59.64-4.68a40.6,40.6,0,0,1-6.05-3.1c-14.26-9-15.09-21.16-1.91-31.79,10.23-8.26,22.49-12.43,34.93-15.91C720.17,679,744.79,673.59,770.29,673.57Z" transform="translate(-1.31 -1.38)"/><path class="b" d="M1090.84,726.61c-8-.14-15.49-1.48-21.43-7.56-7.09-7.27-7.34-16.7-.74-24.46,9.36-11,22-16.74,34.94-21.93,26.7-10.71,53.1-22.37,81.94-26.45a14.32,14.32,0,0,1,3.74-.45c5.86.77,13.12-.41,16,6.19,2.61,6-2.69,10.45-6.27,14.37-14.66,16-33.11,27.13-51.53,38.18a225.22,225.22,0,0,1-43.22,20A32.38,32.38,0,0,1,1090.84,726.61Z" transform="translate(-1.31 -1.38)"/><path class="b" d="M736.4,567.06a19.34,19.34,0,0,1-11.52-2.86c-2.12-1.27-4.81-2.44-4.24-5.51.51-2.72,3-4,5.42-4.67,6.39-1.65,12.48-.17,18.13,2.77,2.28,1.19,5.23,3,4.32,6.29-.74,2.7-3.67,3.21-6.11,3.66A46,46,0,0,1,736.4,567.06Z" transform="translate(-1.31 -1.38)"/></svg>