<svg xmlns="http://www.w3.org/2000/svg" viewBox="0 0 1943.28 1093.42"><defs><style>.a{opacity:0;fill:#ffffff;}.b{fill:#ffffff;}</style></defs><title>1800f_00299</title><path class="a" d="M21.25,931.92h-299c-1.79-10.49-3.95-20.88-9.11-30.36V705.77c3.06-1.48,3.62-4.72,5-7.31,19.49-36.62,36.84-74.33,50.76-113.33,15.59-43.64,41.29-78,81.11-102.15,17.67-10.73,33.92-23.92,46.65-40.6,21.92-28.7,29.37-59.94,15.09-94.46-12.58-30.37-45.44-49.54-77.95-46.26-20.08,2-40.15,4.08-60.42,3.89-19.83-.2-37.88-5.13-54.17-16.45-1.82-1.27-3.45-3.11-6.07-2.24V-160.88h258c2.75,3.25,6.63,4.53,10.44,5.78,26.64,8.67,52.26,3.23,77.59-5.78H1476.8c-1.29,2.92.44,5.41,1.25,8,4.66,14.71,9.23,29.42,11.61,44.72,4.84,31,3.36,60.85-13.57,88.68-8,13.16-14.2,27.39-19.46,41.93-6.29,17.4-12,34.9-8.91,53.93,2.45,15.23,9.89,28.05,18.91,40.05,10.64,14.14,22,27.74,32.49,42,18.51,25.13,29.61,52.54,26.42,84.74-3.89,39.16-31.65,61.56-70.35,56.31-27.71-3.75-52.14-15.55-75.77-29.53-44-26-72.3-62.48-75.89-115.22-2.35-34.69-15.85-64.38-40-89.38-20.32-21-37.37-44.46-52.56-69.4-13.82-22.68-28.58-44.76-45.2-65.53-9.35-11.68-19.23-22.87-31.9-31.13-20.65-13.47-39.3-11.63-57.1,5.34-10.15,9.67-18,21.12-26.09,32.47-7.75,10.93-15.15,22.11-25.18,31.23-8.25,7.51-17.6,9.31-28.15,6.19-8.07-2.39-15.34-6.52-22.92-10C963.6-40.45,953-45.7,941-47.36c-20-2.74-38.62,2.64-57.22,8.45-27,8.43-53.76,17.6-82,21.57-35.3,5-64.8-3.86-87.92-32.26-9-11.1-18.33-22.27-30.17-30.8-13.42-9.67-26.44-8.71-38.1,3-12,12-18.21,27.37-23,43.07C606.71,17,597,69.7,588.75,122.67c-3,19.46-5.23,39.11-10.75,58.09-3.07,10.56-7.75,11.79-16.39,4.9a42.74,42.74,0,0,1-3.85-3.65c-12.72-13-21.43-28.66-29.44-44.81-7.56-15.23-11.58-31.83-18.47-47.31C500.68,69.26,488,51.45,466.38,42.41,420,23,368.93,45.75,350.55,93.48c-8.19,21.29-13.4,43.46-19.77,65.29C314,216.54,298.52,274.37,294.09,335c-4,55.43-28.76,102.57-67.65,142.2-10.68,10.89-24.16,18.3-35.42,28.47-11.79,10.63-21.6,22.82-20.9,39.54,1.6,38.37,21.86,58.41,56.15,66.39,35.33,8.22,68.89,1.76,100.72-14.43,40.32-20.52,76.4-47.45,111.72-75.43,37.59-29.8,67.41-66.07,90.05-108.34,18.42-34.39,33.88-70.09,47.73-106.5,5-13.23,9.23-26.77,14-40.11,6.57-18.54,13.42-22.57,32.7-18.7,11.63,2.33,23.24,4.94,34.69,8.05,42.74,11.59,85.87,18.71,130.38,13.77a847.75,847.75,0,0,0,91.83-15.8c33.06-7.4,64.15-4.92,93.19,14a217,217,0,0,0,27.42,14.65c38.08,17.63,72.91,40.4,106.07,65.93,48.7,37.5,100.32,70.12,157.94,92.3,29.25,11.26,58.82,21.65,88.15,32.7,10.2,3.84,20,8.7,27.74,16.68,10.78,11.07,10.27,24.22-1.3,34.46-7.51,6.65-16.84,9-26.31,10.86-24.15,4.67-48.79,4.49-73.13,7.47-27.68,3.39-49.89,14-61.4,41.3-2.41,5.73-6.42,10.9-10.27,15.88-16.42,21.29-36.28,39.42-54.53,59-20.52,22.08-40.57,44.55-54.68,71.48-11.46,21.89-18.79,44.72-13.77,70,5.18,26,28.36,52.5,61.42,49.49,21-1.9,40.22-9.73,59.09-18.21,35.51-16,70.89-32.18,106.69-47.49,47.9-20.5,95.4-41.89,139.76-69.53,17.4-10.84,34.81-21.6,54-29.14,15.92-6.26,32.35-10.19,49.49-9.86,26.79.53,43.82,15.74,55.84,38.12,9.26,17.25,14.78,36,21.5,54.23,6.78,18.45,13.24,37.06,23,54.28,0,34.4-.15,68.8.15,103.21,0,5.2-1,6.22-6.23,6.21q-259.15-.25-518.32-.14H680c1.27-3.55,2.36-7.17,3.82-10.64,4.82-11.42,9.24-23,12.07-35.07,5-21.5.42-33.18-18.31-44.87A191.31,191.31,0,0,0,654.1,829a217.93,217.93,0,0,1-31.89-17.45c-36.37-24.19-76.07-39.68-119.36-45.72-40.28-5.63-80.82-9.19-121-16.06-69.63-11.91-135.52-32.17-191.31-78.33-29.64-24.53-64.2-39.14-103-42.28-16.24-1.32-31.52,1.26-42.09,15.41-7.41,9.94-9,21.81-9.31,33.82a148.8,148.8,0,0,1-15.41,62c-8.34,17.09-18.7,33-28.9,49-11.3,17.7-22.4,35.57-28.91,55.73-5.23,16.18-3.9,31.5,7.79,44.81a134.61,134.61,0,0,0,17.66,16.58C-.7,915.06,11.75,921.6,21.25,931.92Z" transform="translate(287.23 161.03)"/><path class="b" d="M1655.9,822.64c-9.72-17.22-16.18-35.83-23-54.28-6.72-18.26-12.24-37-21.5-54.23-12-22.38-29-37.59-55.84-38.12-17.14-.33-33.57,3.6-49.49,9.86-19.17,7.54-36.58,18.3-54,29.14-44.36,27.64-91.86,49-139.76,69.53-35.8,15.31-71.18,31.53-106.69,47.49-18.87,8.48-38.08,16.31-59.09,18.21-33.06,3-56.24-23.44-61.42-49.49-5-25.24,2.31-48.07,13.77-70,14.11-26.93,34.16-49.4,54.68-71.48,18.25-19.62,38.11-37.75,54.53-59,3.85-5,7.86-10.15,10.27-15.88,11.51-27.34,33.72-37.91,61.4-41.3,24.34-3,49-2.8,73.13-7.47,9.47-1.83,18.8-4.21,26.31-10.86,11.57-10.24,12.08-23.39,1.3-34.46-7.77-8-17.54-12.84-27.74-16.68-29.33-11.05-58.9-21.44-88.15-32.7-57.62-22.18-109.24-54.8-157.94-92.3-33.16-25.53-68-48.3-106.07-65.93A217,217,0,0,1,973.24,268c-29-18.89-60.13-21.37-93.19-14a847.75,847.75,0,0,1-91.83,15.8c-44.51,4.94-87.64-2.18-130.38-13.77-11.45-3.11-23.06-5.72-34.69-8.05-19.28-3.87-26.13.16-32.7,18.7-4.73,13.34-8.93,26.88-14,40.11-13.85,36.41-29.31,72.11-47.73,106.5-22.64,42.27-52.46,78.54-90.05,108.34-35.32,28-71.4,54.91-111.72,75.43-31.83,16.19-65.39,22.65-100.72,14.43-34.29-8-54.55-28-56.15-66.39-.7-16.72,9.11-28.91,20.9-39.54,11.26-10.17,24.74-17.58,35.42-28.47,38.89-39.63,63.6-86.77,67.65-142.2,4.43-60.59,19.86-118.42,36.69-176.19,6.37-21.83,11.58-44,19.77-65.29C368.93,45.75,420,23,466.38,42.41c21.64,9,34.3,26.85,43.47,47.48,6.89,15.48,10.91,32.08,18.47,47.31,8,16.15,16.72,31.79,29.44,44.81a42.74,42.74,0,0,0,3.85,3.65c8.64,6.89,13.32,5.66,16.39-4.9,5.52-19,7.72-38.63,10.75-58.09,8.26-53,18-105.65,33.75-157,4.83-15.7,11.06-31,23-43.07,11.66-11.73,24.68-12.69,38.1-3,11.84,8.53,21.13,19.7,30.17,30.8,23.12,28.4,52.62,37.22,87.92,32.26,28.24-4,55-13.14,82-21.57C902.33-44.72,921-50.1,941-47.36,953-45.7,963.6-40.45,974.38-35.51c7.58,3.48,14.85,7.61,22.92,10,10.55,3.12,19.9,1.32,28.15-6.19,10-9.12,17.43-20.3,25.18-31.23,8-11.35,15.94-22.8,26.09-32.47,17.8-17,36.45-18.81,57.1-5.34,12.67,8.26,22.55,19.45,31.9,31.13,16.62,20.77,31.38,42.85,45.2,65.53,15.19,24.94,32.24,48.42,52.56,69.4,24.2,25,37.7,54.69,40,89.38,3.59,52.74,31.87,89.18,75.89,115.22,23.63,14,48.06,25.78,75.77,29.53,38.7,5.25,66.46-17.15,70.35-56.31,3.19-32.2-7.91-59.61-26.42-84.74-10.5-14.25-21.85-27.85-32.49-42-9-12-16.46-24.82-18.91-40-3.08-19,2.62-36.53,8.91-53.93,5.26-14.54,11.45-28.77,19.46-41.93,16.93-27.83,18.41-57.68,13.57-88.68-2.38-15.3-7-30-11.61-44.72-.81-2.57-2.54-5.06-1.25-8,57.67,0,115.35.09,173-.15,5.2,0,6.22,1,6.22,6.22Q1655.8,333.92,1655.9,822.64Z" transform="translate(287.23 161.03)"/><path class="b" d="M21.25,931.92c-9.5-10.32-21.95-16.86-32.8-25.45a134.61,134.61,0,0,1-17.66-16.58c-11.69-13.31-13-28.63-7.79-44.81,6.51-20.16,17.61-38,28.91-55.73,10.2-16,20.56-31.86,28.9-49a148.8,148.8,0,0,0,15.41-62c.32-12,1.9-23.88,9.31-33.82,10.57-14.15,25.85-16.73,42.09-15.41,38.77,3.14,73.33,17.75,103,42.28,55.79,46.16,121.68,66.42,191.31,78.33,40.13,6.87,80.67,10.43,121,16.06,43.29,6,83,21.53,119.36,45.72A217.93,217.93,0,0,0,654.1,829a191.31,191.31,0,0,1,23.44,12.38c18.73,11.69,23.34,23.37,18.31,44.87-2.83,12.09-7.25,23.65-12.07,35.07-1.46,3.47-2.55,7.09-3.82,10.64H437.12c-23.06-18.89-47.75-34.74-77.31-41.58-24.89-5.75-48.21-3.79-68.4,13.68a131.2,131.2,0,0,0-24.28,27.9Z" transform="translate(287.23 161.03)"/><path class="b" d="M-286.86,286.86c2.62-.87,4.25,1,6.07,2.24,16.29,11.32,34.34,16.25,54.17,16.45,20.27.19,40.34-1.87,60.42-3.89,32.51-3.28,65.37,15.89,77.95,46.26,14.28,34.52,6.83,65.76-15.09,94.46-12.73,16.68-29,29.87-46.65,40.6-39.82,24.19-65.52,58.51-81.11,102.15-13.92,39-31.27,76.71-50.76,113.33-1.38,2.59-1.94,5.83-5,7.31Z" transform="translate(287.23 161.03)"/><path class="a" d="M267.13,931.92A131.2,131.2,0,0,1,291.41,904c20.19-17.47,43.51-19.43,68.4-13.68,29.56,6.84,54.25,22.69,77.31,41.58Z" transform="translate(287.23 161.03)"/><path class="b" d="M59.19-160.88c-25.33,9-50.95,14.45-77.59,5.78-3.81-1.25-7.69-2.53-10.44-5.78Z" transform="translate(287.23 161.03)"/><path class="b" d="M-286.86,901.56c5.16,9.48,7.32,19.87,9.11,30.36-7.79,1.71-10.24-1.25-9.29-9.13C-286.2,915.81-286.86,908.65-286.86,901.56Z" transform="translate(287.23 161.03)"/></svg>