<svg xmlns="http://www.w3.org/2000/svg" viewBox="0 0 1943.06 1093.12"><defs><style>.a{opacity:0;fill:#ffffff;}.b{fill:#ffffff;}</style></defs><title>1800f_00189</title><path class="a" d="M807.46,931.92H94.1c-.46-7.31-.82-14.62-1.4-21.92-4.41-54.72-29-99.23-69.28-135.53-10.78-9.72-23.68-14.5-37.6-6.59C-39,782-61.48,799.12-75.54,824.9c-13.48,24.71-28,48.61-48.74,68.11-27.28,25.63-51.05,27.8-81.71,6.86-13.13-9-25.64-18.84-38.66-28-13.61-9.55-26.86-19.7-42.21-26.49V692.11c13.71-9.42,27.29-19.05,41.16-28.23,23.84-15.78,47.09-32.31,68.59-51.25,14.4-12.69,28.7-25.51,44.74-36.24,22.64-15.14,46.13-18.34,71-6.24,11.13,5.42,22,11.3,33.15,16.72,11.47,5.58,17.65,4.43,26.51-4.41,14.2-14.17,22.69-32.11,32.17-49.33,22-39.9,35.47-82.28,32.77-128.3-2.11-36.05-2.48-72.23-7.13-108.11-5.56-42.91-18.76-82.83-47.3-116.31C-3.66,165.8-17.12,152.05-30,137.77-50.48,115-52.44,94.34-36.71,68c13.45-22.54,32.89-38,56.87-48.15C36.41,13,53.73,10.63,70.91,7.72,117-.08,161.81-12.13,203.43-33.9c50.46-26.4,91.77-64.16,129.33-106.34,5.82-6.54,12.36-12.6,16.33-20.64h716.39c1.74,2.9,5,3.22,7.72,4.34,21.64,8.93,38.37,22.91,48.28,44.67a351.42,351.42,0,0,0,25.63,47.32C1167.81-33,1192.75-6.8,1230.75,4c33.32,9.5,60,29.48,82.9,55.09a566.85,566.85,0,0,1,38.67,48.67c54.85,76.95,118.06,146.32,188.77,208.94,15,13.23,30.51,25.78,44.64,39.95,15.92,15.95,24.55,35,25,57.61.8,42.48-7.44,83.18-27.4,120.7-41.86,78.65-93.83,149.94-158.87,211.22-31,29.23-65.9,52.86-105.89,68.07-25.27,9.61-51,17.86-76.57,26.81-8.68,3-17.48,4.81-26.75,4.11-7.94-.6-15.56,1.23-23,3.75-19.56,6.6-37.16,17.18-54.76,27.59-49.8,29.45-103.81,43-161.33,43.33-39.68.26-79.42-1.46-119,2.88C840.37,924.57,823.53,926.27,807.46,931.92Z" transform="translate(287.02 161.06)"/><path class="b" d="M349.09-160.88c-4,8-10.51,14.1-16.33,20.64C295.2-98.06,253.89-60.3,203.43-33.9,161.81-12.13,117-.08,70.91,7.72,53.73,10.63,36.41,13,20.16,19.82-3.82,29.93-23.26,45.43-36.71,68c-15.73,26.37-13.77,47,6.74,69.8,12.85,14.28,26.31,28,38.76,42.64,28.54,33.48,41.74,73.4,47.3,116.31,4.65,35.88,5,72.06,7.13,108.11,2.7,46-10.8,88.4-32.77,128.3-9.48,17.22-18,35.16-32.17,49.33-8.86,8.84-15,10-26.51,4.41-11.13-5.42-22-11.3-33.15-16.72-24.86-12.1-48.35-8.9-71,6.24-16,10.73-30.34,23.55-44.74,36.24-21.5,18.94-44.75,35.47-68.59,51.25-13.87,9.18-27.45,18.81-41.16,28.23q0-422.86-.16-845.73c0-6,1-7.45,7.31-7.44Q34.69-160.74,349.09-160.88Z" transform="translate(287.02 161.06)"/><path class="b" d="M807.46,931.92c16.07-5.65,32.91-7.35,49.65-9.18,39.56-4.34,79.3-2.62,119-2.88,57.52-.37,111.53-13.88,161.33-43.33,17.6-10.41,35.2-21,54.76-27.59,7.49-2.52,15.11-4.35,23-3.75,9.27.7,18.07-1.07,26.75-4.11,25.52-9,51.3-17.2,76.57-26.81,40-15.21,74.88-38.84,105.89-68.07,65-61.28,117-132.57,158.87-211.22,20-37.52,28.2-78.22,27.4-120.7-.43-22.6-9.06-41.66-25-57.61C1571.6,342.5,1556,330,1541.09,316.72c-70.71-62.62-133.92-132-188.77-208.94a566.85,566.85,0,0,0-38.67-48.67c-22.88-25.61-49.58-45.59-82.9-55.09-38-10.82-62.94-37-83.64-68.57a351.42,351.42,0,0,1-25.63-47.32c-9.91-21.76-26.64-35.74-48.28-44.67-2.71-1.12-6-1.44-7.72-4.34h376.41c-.45,7.57-4.26,14.34-4.76,22-1.35,20.81,5.29,39.44,15.14,57.08,23.23,41.59,56.65,74.17,93.61,103.25,28.3,22.28,61,37.74,91.62,56.41,6,3.63,11.45,8.27,18.4,10.17q0,418.53.14,837.06c0,5.69-1.28,7-7,7Q1228.26,931.82,807.46,931.92Z" transform="translate(287.02 161.06)"/><path class="a" d="M1655.9,88c-7-1.9-12.43-6.54-18.4-10.17-30.63-18.67-63.32-34.13-91.62-56.41-37-29.08-70.38-61.66-93.61-103.25-9.85-17.64-16.49-36.27-15.14-57.08.5-7.66,4.31-14.43,4.76-22q104.34,0,208.69-.13c4.53,0,5.45.91,5.44,5.44Q1655.77-33.77,1655.9,88Z" transform="translate(287.02 161.06)"/><path class="b" d="M-286.86,845.4c15.35,6.79,28.6,16.94,42.21,26.49,13,9.14,25.53,19,38.66,28,30.66,20.94,54.43,18.77,81.71-6.86,20.75-19.5,35.26-43.4,48.74-68.11,14.06-25.78,36.49-42.88,61.36-57,13.92-7.91,26.82-3.13,37.6,6.59C63.69,810.77,88.29,855.28,92.7,910c.58,7.3.94,14.61,1.4,21.92q-187.44,0-374.89.14c-5.2,0-6.29-1-6.23-6.22C-286.68,899-286.86,872.22-286.86,845.4Z" transform="translate(287.02 161.06)"/></svg>