<svg xmlns="http://www.w3.org/2000/svg" viewBox="0 0 1943.06 1093.1"><defs><style>.a{opacity:0;fill:#ffffff;}.b{fill:#ffffff;}</style></defs><title>1800f_00277</title><path class="a" d="M-286.86,889.42V400.7c2.79-.51,4.08-2.91,5.65-4.77,7.16-8.5,14.36-17,21.15-25.77,16.5-21.36,37.68-36.19,62.29-46.89,28.53-12.41,56.64-26.24,88.39-27.85,19.63-1,32.8,5.81,30.68,28.81a148.65,148.65,0,0,1-4.22,22.3c-6.55,26.36-10.86,52.94-8.32,80.25,3.32,35.71,17.27,65.57,49,84.37a273.32,273.32,0,0,0,98.5,35.49c21.84,3.32,41.22-3.39,55.36-21.14,27.46-34.47,36.25-73.75,28.86-116.9-2.17-12.68-5.22-25.21-2.78-38.29,3.28-17.65,11.81-32.86,22.35-46.82,40.7-53.93,82.77-106.67,133.92-151.42,30-26.24,50.36-58.26,57.35-98.22,2.55-14.63,4.17-29.65,10-43.49,13.92-33.12,37.86-58.23,65.6-80a70.9,70.9,0,0,1,51.83-15.27c30.83,2.81,61,8.59,90.13,19.43,12.48,4.65,23.58,11.25,32.26,21.8,6.49,7.89,15.39,11.93,25.58,13.49,14.13,2.15,27.68-.53,41.13-4.26,29.29-8.11,54-24.79,78.49-42,9.93-7,20-13.78,31.07-18.87a34.23,34.23,0,0,1,29.36-.1c8.38,3.7,16,8.7,23.52,13.81,43.18,29.27,90.6,48.85,140.88,62,25.7,6.72,52,10.3,78,15.92,46.29,10,90.26,27.84,135.59,41.14a261,261,0,0,1,71.7,34c51.1,34.18,100.07,71,146.41,111.64,52.18,45.7,86.87,101.33,103.76,168.29,9.52,37.76,20.81,75,33.11,111.92q10.05,30.21,17.57,61.18c8.18,33.53,9.66,68,15.13,101.9,3.18,19.71,6.88,39.4,17.42,56.9,9,15,19.06,17.87,35.15,10.6,11.71-5.28,21.34-13.41,30.9-21.71V857.55c-4,1-8.08.47-12.06,0-24.77-2.95-45.11-12.74-50.27-41.88a84.12,84.12,0,0,0-5.8-18c-5.43-12.74-13.6-15.83-26.16-10.35a64.65,64.65,0,0,0-6.68,3.55c-19.28,11.27-36.22,25.71-53.47,39.7-32.15,26.08-45.31,62.07-52,101.32H12.14c2.36-9.36,1.12-18.66-1.11-27.75-6.34-25.83-21.38-35.3-47-29-18.91,4.66-34.45.17-47.05-14.53a94.89,94.89,0,0,1-8.21-10.86c-14.87-23.6-21.11-50.13-25.65-77.17-4.89-29.06-4.19-58.42-4.48-87.73-.18-18.75-1.48-37.43-6.43-55.56-6.15-22.54-17-42.05-40.25-50.86-36-13.66-81,13-88.36,51.48-2,10.65-.56,21.09-.21,31.66,1,29.82-.4,59.62-1.07,89.43-.63,28.54-.58,57.1-3.35,85.52C-263.07,857.22-269.72,876-286.86,889.42Zm1612-635.75c.13-12.23-5.56-20-17.27-23.67-13.7-4.27-26.89-1.59-38.89,4.86-44.53,23.91-68.7,62.18-75.23,111.61-2.63,19.88,8.85,27.14,27.2,18.73a58.36,58.36,0,0,0,5.43-2.7c33.58-19.73,61.67-45.63,85.16-76.53C1318.72,276.49,1324.83,266.21,1325.12,253.67Z" transform="translate(287.02 161.03)"/><path class="b" d="M1655.9,692.11c-9.56,8.3-19.19,16.43-30.9,21.71-16.09,7.27-26.13,4.39-35.15-10.6-10.54-17.5-14.24-37.19-17.42-56.9-5.47-33.9-7-68.37-15.13-101.9q-7.56-31-17.57-61.18c-12.3-36.94-23.59-74.16-33.11-111.92-16.89-67-51.58-122.59-103.76-168.29-46.34-40.6-95.31-77.46-146.41-111.64a261,261,0,0,0-71.7-34c-45.33-13.3-89.3-31.09-135.59-41.14-25.92-5.62-52.26-9.2-78-15.92-50.28-13.13-97.7-32.71-140.88-62-7.54-5.11-15.14-10.11-23.52-13.81a34.23,34.23,0,0,0-29.36.1c-11.08,5.09-21.14,11.88-31.07,18.87-24.45,17.2-49.2,33.88-78.49,42-13.45,3.73-27,6.41-41.13,4.26-10.19-1.56-19.09-5.6-25.58-13.49-8.68-10.55-19.78-17.15-32.26-21.8-29.09-10.84-59.3-16.62-90.13-19.43A70.9,70.9,0,0,0,427-49.68c-27.74,21.81-51.68,46.92-65.6,80-5.82,13.84-7.44,28.86-10,43.49-7,40-27.34,72-57.35,98.22-51.15,44.75-93.22,97.49-133.92,151.42-10.54,14-19.07,29.17-22.35,46.82-2.44,13.08.61,25.61,2.78,38.29,7.39,43.15-1.4,82.43-28.86,116.9C97.52,543.25,78.14,550,56.3,546.64a273.32,273.32,0,0,1-98.5-35.49c-31.77-18.8-45.72-48.66-49-84.37-2.54-27.31,1.77-53.89,8.32-80.25a148.65,148.65,0,0,0,4.22-22.3c2.12-23-11-29.8-30.68-28.81-31.75,1.61-59.86,15.44-88.39,27.85-24.61,10.7-45.79,25.53-62.29,46.89-6.79,8.8-14,17.27-21.15,25.77-1.57,1.86-2.86,4.26-5.65,4.77q0-277.38-.14-554.75c0-5.69,1.28-7,7-7q138.49.32,277,.15c14.68,40,55.39,57.29,93.81,50.38,35.06-6.3,61.89-28.29,88.33-50.38q735,0,1470-.14c5.69,0,7,1.28,7,7Q1655.8,269,1655.9,692.11Z" transform="translate(287.02 161.03)"/><path class="b" d="M-286.86,889.42c17.14-13.44,23.79-32.2,25.81-52.85,2.77-28.42,2.72-57,3.35-85.52.67-29.81,2-59.61,1.07-89.43-.35-10.57-1.83-21,.21-31.66,7.39-38.46,52.39-65.14,88.36-51.48,23.21,8.81,34.1,28.32,40.25,50.86,5,18.13,6.25,36.81,6.43,55.56.29,29.31-.41,58.67,4.48,87.73,4.54,27,10.78,53.57,25.65,77.17A94.89,94.89,0,0,0-83,860.66c12.6,14.7,28.14,19.19,47.05,14.53,25.64-6.32,40.68,3.15,47,29,2.23,9.09,3.47,18.39,1.11,27.75q-146.52,0-293,.16c-5.38,0-6.28-1.31-6.1-6.32C-286.57,913.66-286.86,901.54-286.86,889.42Z" transform="translate(287.02 161.03)"/><path class="b" d="M1449.48,931.92c6.67-39.25,19.83-75.24,52-101.32,17.25-14,34.19-28.43,53.47-39.7a64.65,64.65,0,0,1,6.68-3.55c12.56-5.48,20.73-2.39,26.16,10.35a84.12,84.12,0,0,1,5.8,18c5.16,29.14,25.5,38.93,50.27,41.88,4,.47,8,1,12.06,0,0,23-.16,46,.13,69.05.06,4.54-.92,5.46-5.45,5.44Q1550,931.77,1449.48,931.92Z" transform="translate(287.02 161.03)"/><path class="a" d="M179.1-160.88c-26.44,22.09-53.27,44.08-88.33,50.38C52.35-103.59,11.64-120.88-3-160.88Z" transform="translate(287.02 161.03)"/><path class="b" d="M1325.12,253.67c-.29,12.54-6.4,22.82-13.6,32.3-23.49,30.9-51.58,56.8-85.16,76.53a58.36,58.36,0,0,1-5.43,2.7c-18.35,8.41-29.83,1.15-27.2-18.73,6.53-49.43,30.7-87.7,75.23-111.61,12-6.45,25.19-9.13,38.89-4.86C1319.56,233.64,1325.25,241.44,1325.12,253.67Z" transform="translate(287.02 161.03)"/></svg>