<svg xmlns="http://www.w3.org/2000/svg" viewBox="0 0 1943.08 1093.09"><defs><style>.a{opacity:0;fill:#ffffff;}.b{fill:#ffffff;}</style></defs><title>1800f_00267</title><path class="a" d="M1655.9,217V740.68c-8.73,1.13-17,4.54-26,4.8-32.26.94-61.25-8.65-87.75-26.5-20.67-13.93-32.6-33-35.29-58.17-2.17-20.4-2.72-40.8-2.7-61.26a73.79,73.79,0,0,0-3.77-23.82c-2-6.09-5.45-11.4-12.14-12.13s-10,4.77-12.83,10c-5.18,9.74-7.12,20.45-9.26,31.1-3.16,15.79-4.82,32-13.89,46.07-27.49,42.79-59.45,81.65-98.66,114.33-33.72,28.12-58.11,62.22-67.87,105.85-4.5,20.12-5.54,40.48-6.3,60.93H-121.42c1.9-3.85,3.69-7.75,5.73-11.52,10.59-19.56,22.33-38.5,31.65-58.74,7.8-16.92,14.1-34.41,12.17-53.34-3.41-33.26-18.87-61.14-43.92-82.3-23.92-20.21-39.77-44.72-49.56-73.81-15.09-44.87-16.69-91.27-14.85-137.92,1-25.41,13.38-43.24,37.76-52.38,15.15-5.67,30.16-11.94,45.87-15.69,42.54-10.15,76.4-33.14,104-66.68,14.6-17.74,28.2-36.52,45.25-52,15.7-14.3,21.17-31.44,18.47-51.87-.67-5-1.3-10-2.16-15-9.27-54,3.77-101.67,39.91-143,19.25-22,42-40.11,64.41-58.64,25.11-20.78,51.31-40.39,72.46-65.53,14.42-17.12,24.67-37,35.88-56.17,31.64-54.08,76.83-87.61,140.16-94.31,28.34-3,60.24,7.68,63,44.21,1,13,9.8,21.89,22.64,25.87,16.07,5,32.05,3.62,47.69-1.59,38.06-12.68,61.81-42.43,85.37-72.31h374.89c.41,1.68,1.85,2.3,3.15,3,24.28,14.06,48.9,27.44,74.78,38.45,22.3,9.49,45.18,17.74,66,30.46,31.19,19,55.26,45.49,77.63,73.76,26.19,33.11,51.66,66.85,83,95.41,11.93,10.85,23.07,22.71,37.74,30.23,12.39,6.36,24.1,5.85,35.78-1.88,10.16-6.74,19-15.06,28.41-22.69,31.59-25.57,70.26-28.48,103.45-6.86,16.73,10.9,31.87,24,46.36,37.77A578.84,578.84,0,0,1,1655.9,217Z" transform="translate(287.01 161.03)"/><path class="b" d="M640.5-160.88c-23.56,29.88-47.31,59.63-85.37,72.31C539.49-83.36,523.51-82,507.44-87c-12.84-4-21.66-12.86-22.64-25.87-2.76-36.53-34.66-47.21-63-44.21-63.33,6.7-108.52,40.23-140.16,94.31C270.43-43.58,260.18-23.7,245.76-6.58,224.61,18.56,198.41,38.17,173.3,59c-22.4,18.53-45.16,36.61-64.41,58.64C72.75,159,59.71,206.65,69,260.63c.86,5,1.49,10,2.16,15,2.7,20.43-2.77,37.57-18.47,51.87C35.62,343,22,361.8,7.42,379.54c-27.59,33.54-61.45,56.53-104,66.68-15.71,3.75-30.72,10-45.87,15.69-24.38,9.14-36.76,27-37.76,52.38-1.84,46.65-.24,93.05,14.85,137.92,9.79,29.09,25.64,53.6,49.56,73.81,25.05,21.16,40.51,49,43.92,82.3,1.93,18.93-4.37,36.42-12.17,53.34-9.32,20.24-21.06,39.18-31.65,58.74-2,3.77-3.83,7.67-5.73,11.52-53.12,0-106.25-.1-159.37.15-5.2,0-6.22-1-6.21-6.22q.25-246.65.14-493.28a90.82,90.82,0,0,0,25-8.28A36,36,0,0,0-243.58,404a90.32,90.32,0,0,0,4.18-46.94c-5-29.84-23.18-50.74-47.46-67.15q0-222.36-.15-444.71c0-5.2,1-6.22,6.22-6.22Q179.86-160.79,640.5-160.88Z" transform="translate(287.01 161.03)"/><path class="b" d="M1655.9,217a578.84,578.84,0,0,0-84.15-100.22c-14.49-13.76-29.63-26.87-46.36-37.77-33.19-21.62-71.86-18.71-103.45,6.86-9.42,7.63-18.25,16-28.41,22.69-11.68,7.73-23.39,8.24-35.78,1.88C1343.08,103,1331.94,91.1,1320,80.25c-31.39-28.56-56.86-62.3-83-95.41-22.37-28.27-46.44-54.74-77.63-73.76-20.83-12.72-43.71-21-66-30.46-25.88-11-50.5-24.39-74.78-38.45-1.3-.75-2.74-1.37-3.15-3q316.84,0,633.68-.15c5.69,0,7.26,1.25,7,7-.53,10.85-.15,21.74-.15,32.62-8.65.77-17.12-1-25.6-2.08-28.53-3.69-57-8.23-85.91-6.88-16.76.78-33.18,3.46-48.49,10.68-13.46,6.35-23.65,15.72-25.06,31.59-2.16,24.44,8.23,43.59,26.05,59.27C1512.66-15,1531.83-8,1551.62-2.38c28.65,8.2,57,10.21,85-2.72,6.36-2.94,12.18-7.17,19.24-8.56Z" transform="translate(287.01 161.03)"/><path class="b" d="M1279.49,931.92c.76-20.45,1.8-40.81,6.3-60.93,9.76-43.63,34.15-77.73,67.87-105.85,39.21-32.68,71.17-71.54,98.66-114.33,9.07-14.11,10.73-30.28,13.89-46.07,2.14-10.65,4.08-21.36,9.26-31.1,2.8-5.27,6-10.77,12.83-10s10.09,6,12.14,12.13a73.79,73.79,0,0,1,3.77,23.82c0,20.46.53,40.86,2.7,61.26,2.69,25.17,14.62,44.24,35.29,58.17,26.5,17.85,55.49,27.44,87.75,26.5,9-.26,17.22-3.67,26-4.8,0,61.72-.09,123.44.15,185.17,0,5.2-1,6.22-6.23,6.21Q1464.66,931.79,1279.49,931.92Z" transform="translate(287.01 161.03)"/><path class="a" d="M1655.9-13.66C1648.84-12.27,1643-8,1636.66-5.1c-28,12.93-56.39,10.92-85,2.72-19.79-5.66-39-12.6-54.73-26.46-17.82-15.68-28.21-34.83-26.05-59.27,1.41-15.87,11.6-25.24,25.06-31.59,15.31-7.22,31.73-9.9,48.49-10.68,28.92-1.35,57.38,3.19,85.91,6.88,8.48,1.1,17,2.85,25.6,2.08Z" transform="translate(287.01 161.03)"/><path class="a" d="M-286.86,289.9c24.28,16.41,42.49,37.31,47.46,67.15A90.32,90.32,0,0,1-243.58,404a36,36,0,0,1-18.25,20.3,90.82,90.82,0,0,1-25,8.28Z" transform="translate(287.01 161.03)"/></svg>