<svg xmlns="http://www.w3.org/2000/svg" viewBox="0 0 1943.05 1093.09"><defs><style>.a{opacity:0;fill:#ffffff;}.b{fill:#ffffff;}</style></defs><title>1800f_00386</title><path class="a" d="M1655.9,91.07v256.5c-1.75.28-2.3,1.82-3.15,3a796.39,796.39,0,0,0-68.5,115.29c-19.5,40-37.68,80.67-58.9,119.81-11,20.3-23.35,39.75-41.21,54.9-27,22.94-59.74,32.12-93.75,37.79-26.79,4.47-53.9,3.77-80.92,4.47-17.46.46-30.37,8.25-38.23,24-14,28.15-13.83,58.07-10.71,88.26,2.63,25.36,11.67,49.09,19.26,73.19,6.54,20.75,12.49,41.65,13.36,63.61H98.66c-7.19-13.13-17.34-24.06-26.93-35.31C28.94,846.37-15,797.06-57,746.2c-39.83-48.2-85.57-88.61-141.1-117.73-13-6.8-25.53-14.64-36.28-24.71C-268.3,572-275.95,530.53-273.5,487.08c2.25-39.89,19.79-74.91,43.11-106.9,28.34-38.89,67.28-62.85,112.2-77.79,41.72-13.87,83.45-27.71,124.3-44.06C44.4,243,71.71,217.27,84.43,177.27c1.91-6,4.45-11.83,6.89-17.66,12.44-29.69,33.2-50.23,64.75-59.13,15.83-4.47,31.87-7.91,48-10.83,30.09-5.43,58.58-14.29,84.42-31.7C315.1,40,328.42,14.76,325.24-15.5c-5.18-49.18-8.49-99.17-29.27-145.38H965.31c2.45,1.74,4.78,3.68,7.37,5.19,16.82,9.77,33.77,19.34,50.55,29.19,44.06,25.83,88.19,51.62,127.6,84.39,29.92,24.88,59.11,50.65,88.8,75.81,20.54,17.4,42.89,31.37,70.54,34.15,18.9,1.9,37.84,1,56.79.87,70.75-.38,141.47-4.75,212.25-1.85C1606.94,68,1633.36,73.4,1655.9,91.07Zm-1237.76,74c-13.79.45-29.22-.14-44.57,1.86-13.59,1.77-26.9,4.16-39.05,11.09s-17.66,17.53-16,31.41c1.39,11.47,8,20.52,13,30.41,22.16,44,59.4,68.28,105.31,81.46a435.69,435.69,0,0,0,69.85,13.62c45.75,5.34,90.41,1.94,132.8-17.63,42.84-19.78,77.41-48.68,97.68-92.24,11-23.71,17.39-48.58,12.48-75.06-2.93-15.84-11.19-22.5-27.23-22.65-19.45-.19-37.15,6.91-54.89,13.51-56.56,21-115.19,27.88-175.1,25.61C468.22,165.52,444,163.35,418.14,165.05Zm907.61,106c-.15-2.95-.21-8.77-.79-14.55-2.43-24.28-8.77-47.18-24.33-66.67-13.26-16.6-33.62-20-51.48-8.6-9.93,6.31-18.1,14.57-25.63,23.47-26.92,31.76-49.4,66.54-68.9,103.24-24.94,47-36.62,96.36-23.84,149.23,7.69,31.82,20.55,61.42,44.61,84.75,14.85,14.38,32,14.1,47.26,0a77.92,77.92,0,0,0,20.42-31.56c17.08-47.64,37.44-93.8,59.84-139.18C1318,340.71,1325.73,308.07,1325.75,271ZM452.13,462.94c-15.19.68-31.43,1.4-45.83,10.16-11.48,7-14.12,16.4-8.47,28.48a37.76,37.76,0,0,0,8.43,11.58C441,545.75,482.81,563,529.67,566.78c29.06,2.36,44.56-22.28,32.73-48.92-7.72-17.41-21-29.57-37.5-38.24C502.48,467.85,478.2,463.69,452.13,462.94Z" transform="translate(287 161.03)"/><path class="b" d="M296-160.88c20.78,46.21,24.09,96.2,29.27,145.38C328.42,14.76,315.1,40,288.51,58c-25.84,17.41-54.33,26.27-84.42,31.7-16.15,2.92-32.19,6.36-48,10.83-31.55,8.9-52.31,29.44-64.75,59.13-2.44,5.83-5,11.65-6.89,17.66-12.72,40-40,65.73-78.32,81.06-40.85,16.35-82.58,30.19-124.3,44.06-44.92,14.94-83.86,38.9-112.2,77.79-23.32,32-40.86,67-43.11,106.9-2.45,43.45,5.2,84.9,39.14,116.68,10.75,10.07,23.3,17.91,36.28,24.71C-142.55,657.59-96.81,698-57,746.2c42,50.86,85.92,100.17,128.71,150.41,9.59,11.25,19.74,22.18,26.93,35.31q-189.73,0-379.45.14c-5.2,0-6.22-1-6.21-6.21q.22-540.33,0-1080.66c0-5.2,1-6.23,6.21-6.22q158.61.3,317.22.15c35.41,13.83,70.83,10.93,106.24,0Z" transform="translate(287 161.03)"/><path class="b" d="M1293.15,931.92c-.87-22-6.82-42.86-13.36-63.61-7.59-24.1-16.63-47.83-19.26-73.19-3.12-30.19-3.33-60.11,10.71-88.26,7.86-15.76,20.77-23.55,38.23-24,27-.7,54.13,0,80.92-4.47,34-5.67,66.72-14.85,93.75-37.79,17.86-15.15,30.2-34.6,41.21-54.9,21.22-39.14,39.4-79.81,58.9-119.81a796.39,796.39,0,0,1,68.5-115.29c.85-1.2,1.4-2.74,3.15-3q0,288.77.14,577.52c0,5.69-1.28,7-7,7Q1471.11,931.78,1293.15,931.92Z" transform="translate(287 161.03)"/><path class="b" d="M1655.9,91.07c-22.54-17.67-49-23.07-76.69-24.2-70.78-2.9-141.5,1.47-212.25,1.85-19,.09-37.89,1-56.79-.87-27.65-2.78-50-16.75-70.54-34.15-29.69-25.16-58.88-50.93-88.8-75.81-39.41-32.77-83.54-58.56-127.6-84.39-16.78-9.85-33.73-19.42-50.55-29.19-2.59-1.51-4.92-3.45-7.37-5.19q341.88,0,683.76-.14c5.69,0,7,1.28,7,7Q1655.73-31.5,1655.9,91.07Z" transform="translate(287 161.03)"/><path class="a" d="M142.67-160.88c-35.41,10.93-70.83,13.83-106.24,0Z" transform="translate(287 161.03)"/><path class="b" d="M418.14,165.05c25.89-1.7,50.08.47,74.31,1.39,59.91,2.27,118.54-4.57,175.1-25.61,17.74-6.6,35.44-13.7,54.89-13.51,16,.15,24.3,6.81,27.23,22.65,4.91,26.48-1.44,51.35-12.48,75.06-20.27,43.56-54.84,72.46-97.68,92.24-42.39,19.57-87,23-132.8,17.63a435.69,435.69,0,0,1-69.85-13.62C391,308.1,353.71,283.81,331.55,239.82c-5-9.89-11.61-18.94-13-30.41-1.69-13.88,3.68-24.39,16-31.41s25.46-9.32,39.05-11.09C388.92,164.91,404.35,165.5,418.14,165.05Z" transform="translate(287 161.03)"/><path class="b" d="M1325.75,271c0,37.05-7.8,69.69-22.84,100.17-22.4,45.38-42.76,91.54-59.84,139.18a77.92,77.92,0,0,1-20.42,31.56c-15.27,14.06-32.41,14.34-47.26,0-24.06-23.33-36.92-52.93-44.61-84.75-12.78-52.87-1.1-102.26,23.84-149.23,19.5-36.7,42-71.48,68.9-103.24,7.53-8.9,15.7-17.16,25.63-23.47,17.86-11.36,38.22-8,51.48,8.6,15.56,19.49,21.9,42.39,24.33,66.67C1325.54,262.25,1325.6,268.07,1325.75,271Z" transform="translate(287 161.03)"/><path class="b" d="M452.13,462.94c26.07.75,50.35,4.91,72.77,16.68,16.53,8.67,29.78,20.83,37.5,38.24,11.83,26.64-3.67,51.28-32.73,48.92-46.86-3.81-88.68-21-123.41-53.62a37.76,37.76,0,0,1-8.43-11.58c-5.65-12.08-3-21.49,8.47-28.48C420.7,464.34,436.94,463.62,452.13,462.94Z" transform="translate(287 161.03)"/></svg>