<svg xmlns="http://www.w3.org/2000/svg" viewBox="0 0 1366.29 768.31"><defs><style>.a{opacity:0;fill:#ffffff;}.b{fill:#ffffff;}</style></defs><title>1800f_00052</title><path class="a" d="M1367.52,431.05v71.34c-11,3.61-22.18,6.91-33.08,10.88-34.16,12.45-68.73,24-99.85,43.49-23.75,14.88-39.14,34.72-42.21,63.73-4,37.75-4.7,75.6-5.82,113.46-.35,11.85-.78,23.71-1.18,35.57H318.73c-1.61-3.55-5.28-4.48-8.2-6.24-45.25-27.29-95-41.87-146.48-51.44-10.66-2-21.34-4-32-6.05-2.75-.54-5.72-1.54-6.22-4.74s2.37-4.93,4.68-6.27a125,125,0,0,1,14.13-7.3C195,666.19,239.43,635.61,281,600.72c19.9-16.69,33.9-37.37,37.53-63.88,2.91-21.19,2.1-42.4-.72-63.48C314.6,449.1,309.92,425,307,400.71c-2.85-24-9.92-46.44-22.66-66.89-13.88-22.3-30.55-40.5-60.3-38.35-26.38,1.91-39.37-13.35-46.51-36.58-8.78-28.52-20.08-56.12-31.29-83.76-15-37-26.27-75.45-45.53-110.66a22.09,22.09,0,0,1-1.83-5c-1.57-5.92.29-9.7,6.6-11.27,8-2,16.08-1.44,24.14-1.56,26.45-.41,52.42-3.61,77.26-13.22,19.41-7.52,37.87-16.7,52.63-31.93h642c-.87,2.38,1,3.81,2.07,5.35A257,257,0,0,0,937.82,45.4c21.63,19.9,45.25,37.39,68.88,54.7,46.7,34.19,83.09,77.24,113.28,126.17,14.25,23.09,18.46,48.92,22.87,74.85,4.17,24.47,8.91,48.81,21.36,70.75,17.19,30.31,41.14,51.8,76.84,57.07a326.12,326.12,0,0,0,62.78,2.87C1325,430.83,1346.27,430.16,1367.52,431.05ZM891.25,495.57c.31-11.36-4.61-20.57-12.14-28.5-12.07-12.7-27.2-20.73-43-27.83-20.46-9.22-40.63-9.41-60.35,1.86-20.55,11.73-42.91,17.33-66.09,20.7-12.21,1.77-24.6,2.68-36.54,6.09-2.89.83-6.09,1.61-6.55,5.37-.4,3.31,2.17,5,4.31,6.65a36.88,36.88,0,0,0,5.91,3.37,171.43,171.43,0,0,0,41.4,14.43c31.3,6.89,62.86,12.57,92.92,24.27,12.22,4.76,24.81,8.48,38,10C871.55,534.55,891.17,517.72,891.25,495.57ZM769.12,600.88c-11.3-.22-21.4,3.38-30.43,10-12,8.76-14.56,21.55-5.05,32.78,15.67,18.48,36.37,28.17,60.55,28.16,18.06,0,28.55-13.65,25.09-30.09C814.93,621,790.24,600.87,769.12,600.88Z" transform="translate(-1.37 -1.35)"/><path class="b" d="M259.54,1.52c-14.76,15.23-33.22,24.41-52.63,31.93-24.84,9.61-50.81,12.81-77.26,13.22-8.06.12-16.15-.43-24.14,1.56-6.31,1.57-8.17,5.35-6.6,11.27a22.09,22.09,0,0,0,1.83,5c19.26,35.21,30.53,73.7,45.53,110.66,11.21,27.64,22.51,55.24,31.29,83.76,7.14,23.23,20.13,38.49,46.51,36.58,29.75-2.15,46.42,16,60.3,38.35,12.74,20.45,19.81,42.85,22.66,66.89,2.89,24.3,7.57,48.39,10.82,72.65,2.82,21.08,3.63,42.29.72,63.48C314.94,563.35,300.94,584,281,600.72c-41.61,34.89-86.05,65.47-136.38,86.76a125,125,0,0,0-14.13,7.3c-2.31,1.34-5.19,3-4.68,6.27s3.47,4.2,6.22,4.74c10.64,2.1,21.32,4.07,32,6.05,51.49,9.57,101.23,24.15,146.48,51.44,2.92,1.76,6.59,2.69,8.2,6.24q-155.56,0-311.14.14c-5.2,0-6.23-1-6.22-6.22q.31-132,.15-264.09a3.29,3.29,0,0,0,1.87-3C6.14,473.9,9,451.43,6.7,428.8c-.61-6-.33-12.6-5.18-17.48q0-201.63-.13-403.27c0-5.23.78-6.72,6.49-6.7Q133.7,1.73,259.54,1.52Z" transform="translate(-1.37 -1.35)"/><path class="b" d="M1367.52,431.05c-21.25-.89-42.48-.22-63.69.76a326.12,326.12,0,0,1-62.78-2.87c-35.7-5.27-59.65-26.76-76.84-57.07-12.45-21.94-17.19-46.28-21.36-70.75-4.41-25.93-8.62-51.76-22.87-74.85-30.19-48.93-66.58-92-113.28-126.17-23.63-17.31-47.25-34.8-68.88-54.7A257,257,0,0,1,903.63,6.87c-1.11-1.54-2.94-3-2.07-5.35h346c11.25,10.55,22.16,21.5,33.82,31.57C1302.3,51.1,1309,73,1302.92,99.8c-5.43,24-7.28,48.46-2.11,73,4.28,20.32,10.78,39.52,26.07,54.55,9,8.87,19.15,11.57,31.14,6.28,3.2-1.41,5.74-4.24,9.5-4.41Z" transform="translate(-1.37 -1.35)"/><path class="b" d="M1185.38,769.52c.4-11.86.83-23.72,1.18-35.57,1.12-37.86,1.83-75.71,5.82-113.46,3.07-29,18.46-48.85,42.21-63.73,31.12-19.49,65.69-31,99.85-43.49,10.9-4,22-7.27,33.08-10.88q0,130.53.15,261.05c0,5.2-1,6.25-6.22,6.23C1302.76,769.43,1244.07,769.52,1185.38,769.52Z" transform="translate(-1.37 -1.35)"/><path class="a" d="M1367.52,229.19c-3.76.17-6.3,3-9.5,4.41-12,5.29-22.12,2.59-31.14-6.28-15.29-15-21.79-34.23-26.07-54.55-5.17-24.51-3.32-48.93,2.11-73,6.07-26.85-.62-48.7-21.49-66.71-11.66-10.07-22.57-21-33.82-31.57,38.2,0,76.4.1,114.59-.13,4.54,0,5.45.92,5.44,5.44Q1367.39,118,1367.52,229.19Z" transform="translate(-1.37 -1.35)"/><path class="a" d="M1.52,411.32c4.85,4.88,4.57,11.5,5.18,17.48,2.32,22.63-.56,45.1-3.31,67.53a3.29,3.29,0,0,1-1.87,3Z" transform="translate(-1.37 -1.35)"/><path class="b" d="M891.25,495.57c-.08,22.15-19.7,39-42.1,36.41-13.17-1.52-25.76-5.24-38-10-30.06-11.7-61.62-17.38-92.92-24.27a171.43,171.43,0,0,1-41.4-14.43,36.88,36.88,0,0,1-5.91-3.37c-2.14-1.66-4.71-3.34-4.31-6.65.46-3.76,3.66-4.54,6.55-5.37,11.94-3.41,24.33-4.32,36.54-6.09,23.18-3.37,45.54-9,66.09-20.7,19.72-11.27,39.89-11.08,60.35-1.86,15.75,7.1,30.88,15.13,43,27.83C886.64,475,891.56,484.21,891.25,495.57Z" transform="translate(-1.37 -1.35)"/><path class="b" d="M769.12,600.88c21.12,0,45.81,20.07,50.16,40.8,3.46,16.44-7,30.08-25.09,30.09-24.18,0-44.88-9.68-60.55-28.16-9.51-11.23-7-24,5.05-32.78C747.72,604.26,757.82,600.66,769.12,600.88Z" transform="translate(-1.37 -1.35)"/></svg>