<svg xmlns="http://www.w3.org/2000/svg" viewBox="0 0 1943.05 1093.1"><defs><style>.a{opacity:0;fill:#ffffff;}.b{fill:#ffffff;}</style></defs><title>1800f_00154</title><path class="a" d="M-286.86,194.28q0-174.16-.14-348.33c0-5.69,1.28-7,7-7q858.69.22,1717.37.14c.22,3-2.29,4.34-4,6.1-16.7,17.49-38.06,24-61.36,25.76a242.77,242.77,0,0,0-91.32,25.4c-33.32,16.72-63,39.14-94,59.6-6.21,4.11-12.06,9.08-16,15.9-7.22,12.56-3,24,10.53,29,11.2,4.16,22.85,6.11,34.52,8,27.86,4.61,55.9,7.87,84,10.2,23.63,2,47.3,2.89,71.11,1.16,28.91-2.1,57.72-6.34,86.91-4,61.14,5,119.77,18.17,173.19,49.86,7.6,4.5,15.59,8.44,24.86,8.2v31.88c-4.34-9.51-9.84-17.86-21.34-19.25-6.32-.76-12.6.57-18.73,2-28.13,6.66-53.67,19.44-78.06,34.44-38.34,23.57-74.6,50.29-112,75.33-52,34.82-101.53,72.5-145.2,117.73-27.79,28.78-46.54,62-57.54,100.09-7.35,25.48-13.27,51.37-22.6,76.27-11.25,30-22.81,60-32.16,90.73-5.44,17.88-3.08,24.57,11.5,36,15.69,12.33,31.46,24.55,46.41,37.81,21.17,18.77,41.1,38.93,63.85,55.92,31.07,23.21,66.31,38.61,101.22,54.63,18.55,8.51,35.81,18.7,50.18,33.41,36.3,37.16,58.34,82.65,76.33,130.52H229.18c.94-7.77,2.46-15.51,2.71-23.3,1.19-36.85-15.21-65.16-43.54-87.34C152.18,793,110.08,780,65.31,774,39,770.43,12.52,768.8-13.54,763.43c-38.37-7.9-62.7-29.47-70.18-68.91a524.31,524.31,0,0,1-7.37-57.84c-1.53-20.15-1.1-40.53-5.17-60.38-8-38.86-31.3-66.82-64.65-86.71-18.44-11-37.75-20.52-55-33.51-14.74-11.11-30-21.59-42.39-35.48-12.7-14.27-10.68-26.77,5.63-36.91a72.56,72.56,0,0,1,6.66-3.62c12.4-6.1,25.77-8.81,39.24-11.13,33.86-5.81,68.09-9.31,101.72-16.56,41.9-9,78.2-28.27,108.19-59.05,9.7-10,9.84-16.52-.73-25.44-10.21-8.61-21.42-16-32.14-24-27.4-20.42-48.94-45.19-58.49-78.87A57.21,57.21,0,0,0-95,150.62c-7.36-11.85-17.9-17.52-31.87-16.25-12.84,1.17-24.33,6.53-35.67,12.16-25.13,12.47-49.64,26.3-76.21,35.63C-254.35,187.66-269.54,195.29-286.86,194.28Zm1388.8,119.31c.9-20.69-5.21-40.35-5.81-60.51-.56-18.67-6.17-35.72-15.05-51.86-15.7-28.54-38.08-51.49-61.94-73.09-6.19-5.6-13.7-9.53-21.42-12.74C958.44,99,918.21,97.58,877.43,108.48c-22,5.9-42.37,16.47-63.4,25.08-38.16,15.62-77.53,24.49-118.93,22.36-15.16-.78-30.3-1.74-45.46-.95-31.74,1.67-61.14,10-86.55,30.18-24.17,19.18-28.85,43-13.27,69.59,13.26,22.68,31.41,40.71,52.65,55.84,34.63,24.69,72,45,108.14,67.26,15.82,9.74,33.42,15.25,52.11,17.32,20.85,2.31,41.42-.27,61.9-3.05,31.35-4.25,58.52,2.85,81.16,25.77,13.13,13.3,27.07,25.78,41.39,37.82,9.21,7.74,17.83,9.94,25.16,4.39,23.68-17.94,50.22-31.12,75.58-46.27,13.91-8.3,27-17.51,35.63-32.12C1096,360.47,1103.07,338,1101.94,313.59Zm-81.77,389c20.12,3.45,38.59-1.38,55.59-12.24,14.88-9.5,27.26-21.71,38.49-35.14,8.43-10.07,16.7-20.28,20.94-33.1,1.93-5.83,1.08-10.67-2.62-15.53-7.54-9.89-18.16-15.95-28-22.84-27.42-19.12-54.18-38.77-76.36-64.27-15.34-17.63-34.63-30.92-54.77-42.76-4.07-2.39-8.55-4.17-12.61-.33-5.11,4.83-10.73,9.16-14.84,15-19.53,27.78-40.11,54.62-66.77,76.21-11.21,9.08-21.3,19.43-31,30.09-37.81,41.46-61.11,89.55-65.81,145.87-1.25,15-.44,29.91,7.25,43.5,4.65,8.21,11.35,10.91,20.47,8.76,8.65-2,15.56-7.17,22.26-12.57,16.38-13.18,30.78-28.53,46.1-42.86C905.31,715.21,937,702.25,974,702.55,989.36,702.67,1004.76,702.57,1020.17,702.57Zm-794-405A245.26,245.26,0,0,0,261,295.72c31.86-4,62.59-11.8,90.36-28.59,20.88-12.62,38.12-28.53,43.79-53.58,4.09-18.09-5.76-34.68-23.33-40.5-10.75-3.56-21.43-2.69-32.07.12-22.75,6-43.29,17.1-63,29.36C241.11,224.68,203.1,238.6,161.08,242c-17,1.4-34.09,4.62-49.42,13.11-4.61,2.55-10.28,6.07-10.44,11.14-.17,5.54,6.15,8,11,10.22a55.27,55.27,0,0,0,7,2.84C154,290.17,189.52,297.42,226.18,297.55Z" transform="translate(287 161.02)"/><path class="b" d="M1517.78,931.92c-18-47.87-40-93.36-76.33-130.52-14.37-14.71-31.63-24.9-50.18-33.41-34.91-16-70.15-31.42-101.22-54.63-22.75-17-42.68-37.15-63.85-55.92-15-13.26-30.72-25.48-46.41-37.81-14.58-11.45-16.94-18.14-11.5-36,9.35-30.72,20.91-60.68,32.16-90.73,9.33-24.9,15.25-50.79,22.6-76.27,11-38.1,29.75-71.31,57.54-100.09,43.67-45.23,93.21-82.91,145.2-117.73,37.38-25,73.64-51.76,112-75.33,24.39-15,49.93-27.78,78.06-34.44,6.13-1.45,12.41-2.78,18.73-2,11.5,1.39,17,9.74,21.34,19.25v27.32a251.7,251.7,0,0,1-20,42.28c-26.53,44-58.09,84.55-88.39,125.94-21.64,29.58-43.15,59.19-61.72,90.9-21,35.87-30.29,74.64-31.37,115.73-.83,31.47,1.46,62.46,11.35,92.78,13.53,41.45,67.92,75.76,118.55,52.62,16.75-7.66,31.5-18,45.84-29.28,8.89-7,15.86-16.18,25.74-22q0,161.64.14,323.29c0,5.19-1,6.25-6.22,6.22C1605.81,931.8,1561.79,931.92,1517.78,931.92Z" transform="translate(287 161.02)"/><path class="b" d="M-286.86,194.28c17.32,1,32.51-6.62,48.15-12.12,26.57-9.33,51.08-23.16,76.21-35.63,11.34-5.63,22.83-11,35.67-12.16,14-1.27,24.51,4.4,31.87,16.25A57.21,57.21,0,0,1-88.21,165c9.55,33.68,31.09,58.45,58.49,78.87,10.72,8,21.93,15.41,32.14,24,10.57,8.92,10.43,15.48.73,25.44-30,30.78-66.29,50-108.19,59.05-33.63,7.25-67.86,10.75-101.72,16.56-13.47,2.32-26.84,5-39.24,11.13a72.56,72.56,0,0,0-6.66,3.62C-269,393.83-271,406.33-258.29,420.6c12.36,13.89,27.65,24.37,42.39,35.48,17.24,13,36.55,22.5,55,33.51,33.35,19.89,56.67,47.85,64.65,86.71,4.07,19.85,3.64,40.23,5.17,60.38a524.31,524.31,0,0,0,7.37,57.84c7.48,39.44,31.81,61,70.18,68.91,26.06,5.37,52.57,7,78.85,10.54,44.77,6,86.87,19,123,47.31,28.33,22.18,44.73,50.49,43.54,87.34-.25,7.79-1.77,15.53-2.71,23.3q-254.82,0-509.66.16c-5.66,0-6.52-1.39-6.51-6.68Q-286.76,559.85-286.86,194.28Z" transform="translate(287 161.02)"/><path class="b" d="M1655.9,74.37c-9.27.24-17.26-3.7-24.86-8.2-53.42-31.69-112-44.91-173.19-49.86-29.19-2.36-58,1.88-86.91,4-23.81,1.73-47.48.8-71.11-1.16-28.12-2.33-56.16-5.59-84-10.2-11.67-1.93-23.32-3.88-34.52-8-13.58-5-17.75-16.45-10.53-29,3.91-6.82,9.76-11.79,16-15.9,30.94-20.46,60.65-42.88,94-59.6A242.77,242.77,0,0,1,1372-129c23.3-1.77,44.66-8.27,61.36-25.76,1.67-1.76,4.18-3.08,4-6.1q106.62,0,213.24-.13c4.53,0,5.45.91,5.44,5.44Q1655.77-40.59,1655.9,74.37Z" transform="translate(287 161.02)"/><path class="a" d="M1655.9,602.56c-9.88,5.8-16.85,15-25.74,22-14.34,11.28-29.09,21.62-45.84,29.28-50.63,23.14-105-11.17-118.55-52.62-9.89-30.32-12.18-61.31-11.35-92.78,1.08-41.09,10.37-79.86,31.37-115.73,18.57-31.71,40.08-61.32,61.72-90.9,30.3-41.39,61.86-81.9,88.39-125.94a251.7,251.7,0,0,0,20-42.28Z" transform="translate(287 161.02)"/><path class="b" d="M1101.94,313.59c1.13,24.41-5.93,46.88-18.4,68.11-8.58,14.61-21.72,23.82-35.63,32.12-25.36,15.15-51.9,28.33-75.58,46.27-7.33,5.55-16,3.35-25.16-4.39-14.32-12-28.26-24.52-41.39-37.82-22.64-22.92-49.81-30-81.16-25.77-20.48,2.78-41,5.36-61.9,3.05-18.69-2.07-36.29-7.58-52.11-17.32-36.15-22.25-73.51-42.57-108.14-67.26-21.24-15.13-39.39-33.16-52.65-55.84-15.58-26.63-10.9-50.41,13.27-69.59C588.5,165,617.9,156.64,649.64,155c15.16-.79,30.3.17,45.46.95,41.4,2.13,80.77-6.74,118.93-22.36,21-8.61,41.35-19.18,63.4-25.08,40.78-10.9,81-9.44,120.29,6.91,7.72,3.21,15.23,7.14,21.42,12.74,23.86,21.6,46.24,44.55,61.94,73.09,8.88,16.14,14.49,33.19,15.05,51.86C1096.73,273.24,1102.84,292.9,1101.94,313.59Z" transform="translate(287 161.02)"/><path class="b" d="M1020.17,702.57c-15.41,0-30.81.1-46.22,0-37-.3-68.64,12.66-95.52,37.82-15.32,14.33-29.72,29.68-46.1,42.86-6.7,5.4-13.61,10.54-22.26,12.57C801,798,794.25,795.25,789.6,787c-7.69-13.59-8.5-28.55-7.25-43.5,4.7-56.32,28-104.41,65.81-145.87,9.72-10.66,19.81-21,31-30.09C905.84,546,926.42,519.15,946,491.37c4.11-5.85,9.73-10.18,14.84-15,4.06-3.84,8.54-2.06,12.61.33,20.14,11.84,39.43,25.13,54.77,42.76,22.18,25.5,48.94,45.15,76.36,64.27,9.88,6.89,20.5,12.95,28,22.84,3.7,4.86,4.55,9.7,2.62,15.53-4.24,12.82-12.51,23-20.94,33.1-11.23,13.43-23.61,25.64-38.49,35.14C1058.76,701.19,1040.29,706,1020.17,702.57Z" transform="translate(287 161.02)"/><path class="b" d="M226.18,297.55c-36.66-.13-72.14-7.38-107-18.21a55.27,55.27,0,0,1-7-2.84c-4.81-2.27-11.13-4.68-11-10.22.16-5.07,5.83-8.59,10.44-11.14C127,246.65,144,243.43,161.08,242c42-3.43,80-17.35,115.65-39.5,19.72-12.26,40.26-23.35,63-29.36,10.64-2.81,21.32-3.68,32.07-.12,17.57,5.82,27.42,22.41,23.33,40.5-5.67,25-22.91,41-43.79,53.58-27.77,16.79-58.5,24.56-90.36,28.59A245.26,245.26,0,0,1,226.18,297.55Z" transform="translate(287 161.02)"/></svg>