<svg xmlns="http://www.w3.org/2000/svg" viewBox="0 0 1942.93 1093.16"><defs><style>.a{opacity:0;fill:#ffffff;}.b{fill:#ffffff;}</style></defs><title>1800f_00138</title><path class="a" d="M-286.86,327.84V262.58c11.11-2.31,22.18-4.82,33.33-6.89,32-6,63.89-13.44,96.44-15.88q60.86-4.58,121.85-7.1c75.52-3.19,150.94-7.86,226.38-12.39,33.16-2,63.39-11.47,90.21-31.57,15.57-11.66,31.12-23.37,47.46-34,30-19.52,60.76-21.43,92.73-5.31a364.64,364.64,0,0,1,37.27,21.86c45.06,29.86,93.78,53,142.59,75.65,36.61,17,75.88,14.91,114.85,10.19,31.07-3.77,61.86-10.25,93.42-8.58,22.21,1.18,44.42,3.26,66.67,1.45,19.95-1.62,39.91-1.71,59.88-1.38,49.16.82,96.34,10.15,140.63,32.42,23.08,11.6,36.69,29.52,39.62,55.3a176.42,176.42,0,0,1,.77,26.51c-.7,19.1-5.79,37.42-10,55.87-5.54,24.49-1.72,47,11.57,68.33a555.36,555.36,0,0,0,32.48,46.68c20.09,25.84,41.55,50.4,69.34,68.38,15.89,10.27,33.38,16.74,52.47,13.24,39.81-7.28,64.35-32.61,75.86-70.11,9.76-31.8,5.92-64.61,2.61-97.1-2.15-21.12-6-42.1-6.42-63.33-.74-41.67,10.72-80.91,25.52-119.34,17.27-44.83,37.74-88.32,55.8-132.82,4.56-11.23,9-22.64,9.35-35,.39-12.89-5.27-18.7-18-19-12.16-.33-23.39,3.55-34.57,7.65-23.09,8.47-44.21,21.19-66.63,31.1-24.51,10.82-48.93,22-75.52,26.92-16.31,3-22.82-3.82-18.71-19.73,2.91-11.24,6.68-22.26,10-33.41,5.1-17.3,2.38-33.25-9.61-46.83s-24.73-26-36.64-39.39c-14.53-16.37-23.25-34.85-18-57.57,2.33-10.2,6.9-19.51,11.32-28.87,6.14-13,13.56-25.45,17.31-39.48s-1.77-20.69-16.47-21.17c-20.68-.68-39.86,5.68-58.87,12.51-20.43,7.34-40.55,15.54-61,22.82C1011.69-89.54,961.08-79,911.83-63.95,865.26-49.71,818.69-47.71,771-53.34c-23.57-2.78-47.2-5.44-71-6.11-35.76-1-69.49,7.93-102.56,20.8-26.68,10.38-54,18.88-83.17,18.15-32.2-.8-55.22-16.07-65.7-43.58-11.94-31.38-16-63.57-10-96.8h918.25c.88.86,1.61,2,2.65,2.54,19.79,9.55,36.72,23.14,53.41,37.15,27.94,23.46,56.76,45.63,90.54,60.39,18.53,8.1,37.69,14.69,55.73,23.93,14.8,7.58,27,18,34.53,33,14.55,28.91,29.1,57.82,43.1,87,7,14.51,12.74,29.59,19.05,44.42v258c-.35.36-.84.65-1,1.08C1631,441.48,1604,495,1582.83,551c-17.09,45.23-28.65,91.49-30,140a415.44,415.44,0,0,0,20.39,141.76c12.07,37,25.49,73.19,56.88,99.08H-283.82c-.3-2,1.17-3.26,2.16-4.66,16.48-23.33,32.56-46.92,50.06-69.52,15.1-19.5,27.6-40.5,35.91-63.83,11.87-33.26,9.79-67,3.83-101-9.68-55.28-10.1-110.59.61-165.79,3.27-16.86,8.58-33.67,7-50.88C-190.75,407.8-220.46,355-286.86,327.84ZM861.74,438.73c-.64-14.38-.12-27.64-6.34-39.77-5.58-10.89-16.84-11.82-24.16-2a77.11,77.11,0,0,0-11.09,22.31c-7.9,24-16,47.9-27,70.74-8,16.62-14.39,33.9-16.59,52.51-1.9,15.94,5.79,30.69,18.49,32,28.36,3,67.13-13,66.55-55.35-.16-11.86-.93-23.7-1.22-35.56A423.08,423.08,0,0,1,861.74,438.73ZM85.05,774c3-.18,6.13.07,9-.6,8.29-1.93,11.89-9.09,7.66-14.69-8.26-11-32-16.73-44.31-10.79-7.2,3.48-8,11.35-1.83,16.46C64.18,771.52,74.15,774.09,85.05,774Z" transform="translate(286.89 161.03)"/><path class="b" d="M438.64-160.88c-6.06,33.23-2,65.42,10,96.8,10.48,27.51,33.5,42.78,65.7,43.58,29.2.73,56.49-7.77,83.17-18.15,33.07-12.87,66.8-21.79,102.56-20.8,23.75.67,47.38,3.33,71,6.11,47.69,5.63,94.26,3.63,140.83-10.61,49.25-15,99.86-25.59,148.49-42.89,20.46-7.28,40.58-15.48,61-22.82,19-6.83,38.19-13.19,58.87-12.51,14.7.48,20.18,7.26,16.47,21.17s-11.17,26.48-17.31,39.48c-4.42,9.36-9,18.67-11.32,28.87-5.2,22.72,3.52,41.2,18,57.57,11.91,13.41,24.77,26,36.64,39.39s14.71,29.53,9.61,46.83c-3.28,11.15-7,22.17-10,33.41-4.11,15.91,2.4,22.74,18.71,19.73,26.59-4.91,51-16.1,75.52-26.92,22.42-9.91,43.54-22.63,66.63-31.1,11.18-4.1,22.41-8,34.57-7.65,12.77.35,18.43,6.16,18,19-.39,12.35-4.79,23.76-9.35,35-18.06,44.5-38.53,88-55.8,132.82-14.8,38.43-26.26,77.67-25.52,119.34.38,21.23,4.27,42.21,6.42,63.33,3.31,32.49,7.15,65.3-2.61,97.1-11.51,37.5-36,62.83-75.86,70.11-19.09,3.5-36.58-3-52.47-13.24-27.79-18-49.25-42.54-69.34-68.38a555.36,555.36,0,0,1-32.48-46.68c-13.29-21.29-17.11-43.84-11.57-68.33,4.18-18.45,9.27-36.77,10-55.87a176.42,176.42,0,0,0-.77-26.51c-2.93-25.78-16.54-43.7-39.62-55.3-44.29-22.27-91.47-31.6-140.63-32.42-20-.33-39.93-.24-59.88,1.38-22.25,1.81-44.46-.27-66.67-1.45-31.56-1.67-62.35,4.81-93.42,8.58-39,4.72-78.24,6.82-114.85-10.19-48.81-22.67-97.53-45.79-142.59-75.65a364.64,364.64,0,0,0-37.27-21.86c-32-16.12-62.75-14.21-92.73,5.31-16.34,10.64-31.89,22.35-47.46,34-26.82,20.1-57.05,29.57-90.21,31.57-75.44,4.53-150.86,9.2-226.38,12.39q-61,2.58-121.85,7.1c-32.55,2.44-64.4,9.91-96.44,15.88-11.15,2.07-22.22,4.58-33.33,6.89V1.52c27.34-12.26,55.58-19.48,86-17.27C-176.45-14-153.27-7-130-.12c20,5.93,37.16,2,51.85-13.28,14.15-14.73,22.82-32.68,30.83-51,6.69-15.25,11.81-31.19,18.58-46.4,6-13.51,15.21-14.93,26.34-4.93A240.16,240.16,0,0,1,24.3-86.76C43.93-62.21,57.66-34.71,68.71-5.32,82.19,30.53,115,42.76,149.62,26.79,166.54,19,181.38,8.27,195-4.44c17.57-16.39,22.91-36.74,21.36-59.83-1.34-19.92-3.38-39.85-2.14-59.81.77-12.31,2.85-24.54,4.34-36.8Z" transform="translate(286.89 161.03)"/><path class="a" d="M218.56-160.88c-1.49,12.26-3.57,24.49-4.34,36.8-1.24,20,.8,39.89,2.14,59.81,1.55,23.09-3.79,43.44-21.36,59.83C181.38,8.27,166.54,19,149.62,26.79,115,42.76,82.19,30.53,68.71-5.32c-11-29.39-24.78-56.89-44.41-81.44A240.16,240.16,0,0,0-2.43-115.69c-11.13-10-20.33-8.58-26.34,4.93-6.77,15.21-11.89,31.15-18.58,46.4-8,18.28-16.68,36.23-30.83,51C-92.87,1.9-110,5.81-130-.12-153.27-7-176.45-14-200.91-15.75c-30.37-2.21-58.61,5-86,17.27v-162.4Z" transform="translate(286.89 161.03)"/><path class="b" d="M-286.86,327.84c66.4,27.19,96.11,80,102.57,148.37,1.62,17.21-3.69,34-7,50.88-10.71,55.2-10.29,110.51-.61,165.79,6,34,8,67.77-3.83,101-8.31,23.33-20.81,44.33-35.91,63.83-17.5,22.6-33.58,46.19-50.06,69.52-1,1.4-2.46,2.64-2.16,4.66-1-.63-3.22,1.48-3.06-1.52.1-1.77,0-3.54,0-5.31Z" transform="translate(286.89 161.03)"/><path class="b" d="M1630.09,931.92c-31.39-25.89-44.81-62.11-56.88-99.08a415.44,415.44,0,0,1-20.39-141.76c1.36-48.55,12.92-94.81,30-140C1604,495,1631,441.48,1654.87,386.6c.19-.43.68-.72,1-1.08q0,269.78.14,539.57c0,5.69-1.24,7.48-7,7C1642.78,931.48,1636.42,931.92,1630.09,931.92Z" transform="translate(286.89 161.03)"/><path class="b" d="M1655.9,127.5c-6.31-14.83-12.08-29.91-19.05-44.42-14-29.17-28.55-58.08-43.1-87-7.55-15-19.73-25.38-34.53-33-18-9.24-37.2-15.83-55.73-23.93-33.78-14.76-62.6-36.93-90.54-60.39-16.69-14-33.62-27.6-53.41-37.15-1-.5-1.77-1.68-2.65-2.54q146.47,0,292.93-.15c5.2,0,6.23,1,6.22,6.22Q1655.74-13.66,1655.9,127.5Z" transform="translate(286.89 161.03)"/><path class="b" d="M861.74,438.73a423.08,423.08,0,0,0-1.37,44.89c.29,11.86,1.06,23.7,1.22,35.56.58,42.38-38.19,58.31-66.55,55.35-12.7-1.32-20.39-16.07-18.49-32,2.2-18.61,8.56-35.89,16.59-52.51,11.05-22.84,19.11-46.74,27-70.74A77.11,77.11,0,0,1,831.24,397c7.32-9.82,18.58-8.89,24.16,2C861.62,411.09,861.1,424.35,861.74,438.73Z" transform="translate(286.89 161.03)"/><path class="b" d="M85.05,774c-10.9.07-20.87-2.5-29.45-9.62-6.17-5.11-5.37-13,1.83-16.46,12.31-5.94,36.05-.16,44.31,10.79,4.23,5.6.63,12.76-7.66,14.69C91.18,774.09,88.07,773.84,85.05,774Z" transform="translate(286.89 161.03)"/></svg>