<svg xmlns="http://www.w3.org/2000/svg" viewBox="0 0 1943.09 1093.12"><defs><style>.a{opacity:0;fill:#ffffff;}.b{fill:#ffffff;}</style></defs><title>1800f_00325</title><path class="a" d="M1379.66,931.92H51.6c-3.29-8.2-6.41-16.48-9.92-24.59C17,850.27-8.75,793.63-30.65,735.38-44,699.74-60.47,665.73-83.8,635.27a293,293,0,0,1-49.29-98.42C-147.08,488-156.62,438-169.92,389a163.89,163.89,0,0,1-1.47-80.27c11.49-50.81,35-93.49,81.5-120.76,17-10,35-18.2,52.48-27.32,12.8-6.68,25.17-14.07,36-23.69,16.75-14.81,24.11-34.37,28.29-55.69,2.4-12.21,7.37-15.06,19.53-11.75A201.15,201.15,0,0,1,72.37,78C124.16,100,178,104.55,233,95.92c72.47-11.39,142.17-32.65,209.65-61.53,42.26-18.09,74.17-45.65,89.25-90.32,11-32.57,22.29-65,33.43-97.56.82-2.38,1.64-4.81.8-7.39H731.57c-4.7,7.08-9.72,14-14,21.29C704.31-117.23,710-97.9,732.88-85.86c17.67,9.3,36.9,13.43,56.18,17.71,11.59,2.57,22,.52,32.2-4.76,11.94-6.17,22.92-13.87,34.09-21.26,20.49-13.56,42.72-19.08,67.09-15.5a792.1,792.1,0,0,0,142.11,8.35c18-.61,35.9.48,53.78,1.91,44,3.53,86.75,13.92,129.67,23.3,38,8.31,76.32,15.52,112.93,29.16,27.61,10.3,53.77,23.24,76.38,42.66,16.66,14.3,21,31.35,13.35,51.75-1.68,4.49-3.06,9.1-4.61,13.65a124.2,124.2,0,0,0-6.38,31.09c-1.77,23.75,9.68,38.29,32.94,41.73a123.34,123.34,0,0,0,18.9.89c35.18-.25,74.89,23.49,87,62.7a329.38,329.38,0,0,1,9.11,36c5.77,30.65,17.41,58.59,38.15,82.18,8.12,9.24,16.58,18.58,30.17,19.76V705.77c-11.87,8.57-23.51,17.46-35.64,25.63-26.17,17.66-54.49,22.67-85.28,14.4-47.6-12.78-89.92-35.92-129.36-64.83-30.16-22.1-50.07-51.34-61.55-87-8.61-26.72-16.07-53.73-23.64-80.73-5.11-18.26-10.58-36.41-20.9-52.64s-25.59-22.6-44.29-18.15c-10.43,2.48-20,7.09-29.31,12.2-53.53,29.41-102.88,65.11-152,101.13-17.5,12.83-27.78,29.14-23.48,52,.93,5,1.33,10,2.42,15,14.5,65,45.42,122.42,82,177.15,16.66,25,40.92,37.38,70.77,39.76,22.65,1.8,45.33,3.68,66.86,12.13,33.64,13.21,66.79,27.61,99.93,42a49,49,0,0,1,14.64,9.33c5.07,4.87,5.88,10.25,2.62,16.47C1387.1,924.37,1383.05,927.86,1379.66,931.92Z" transform="translate(287.01 161.03)"/><path class="b" d="M566.13-160.88c.84,2.58,0,5-.8,7.39C554.19-121,542.9-88.5,531.9-55.93c-15.08,44.67-47,72.23-89.25,90.32C375.17,63.27,305.47,84.53,233,95.92c-55,8.63-108.84,4-160.63-18a201.15,201.15,0,0,0-25.92-8.45c-12.16-3.31-17.13-.46-19.53,11.75C22.74,102.59,15.38,122.15-1.37,137c-10.87,9.62-23.24,17-36,23.69C-54.9,169.77-72.85,178-89.89,188c-46.46,27.27-70,70-81.5,120.76A163.89,163.89,0,0,0-169.92,389c13.3,49,22.84,99,36.83,147.85A293,293,0,0,0-83.8,635.27C-60.47,665.73-44,699.74-30.65,735.38c21.9,58.25,47.61,114.89,72.33,172,3.51,8.11,6.63,16.39,9.92,24.59q-166,0-332.1.17c-5.72,0-6.49-1.48-6.49-6.71q.24-269.18.13-538.34c15.9-10.76,25.54-25.73,28.1-44.61,2.19-16.21-8.46-29.61-28.1-37.35q0-229.95-.14-459.89c0-5.2,1-6.22,6.21-6.22Q142.68-160.78,566.13-160.88Z" transform="translate(287.01 161.03)"/><path class="b" d="M1379.66,931.92c3.39-4.06,7.44-7.55,10-12.36,3.26-6.22,2.45-11.6-2.62-16.47a49,49,0,0,0-14.64-9.33c-33.14-14.39-66.29-28.79-99.93-42-21.53-8.45-44.21-10.33-66.86-12.13-29.85-2.38-54.11-14.8-70.77-39.76-36.54-54.73-67.46-112.18-82-177.15-1.09-4.92-1.49-10-2.42-15-4.3-22.82,6-39.13,23.48-52,49.14-36,98.49-71.72,152-101.13,9.3-5.11,18.88-9.72,29.31-12.2,18.7-4.45,33.92,1.84,44.29,18.15s15.79,34.38,20.9,52.64c7.57,27,15,54,23.64,80.73,11.48,35.63,31.39,64.87,61.55,87,39.44,28.91,81.76,52,129.36,64.83,30.79,8.27,59.11,3.26,85.28-14.4,12.13-8.17,23.77-17.06,35.64-25.63q0,110.41.12,220.84c0,4.52-.91,5.44-5.44,5.43Q1515.13,931.8,1379.66,931.92Z" transform="translate(287.01 161.03)"/><path class="b" d="M1655.9,335.43c-13.59-1.18-22.05-10.52-30.17-19.76-20.74-23.59-32.38-51.53-38.15-82.18a329.38,329.38,0,0,0-9.11-36c-12.07-39.21-51.78-63-87-62.7a123.34,123.34,0,0,1-18.9-.89c-23.26-3.44-34.71-18-32.94-41.73a124.2,124.2,0,0,1,6.38-31.09c1.55-4.55,2.93-9.16,4.61-13.65,7.66-20.4,3.31-37.45-13.35-51.75-22.61-19.42-48.77-32.36-76.38-42.66C1324.32-60.59,1286-67.8,1248-76.11c-42.92-9.38-85.7-19.77-129.67-23.3-17.88-1.43-35.83-2.52-53.78-1.91a792.1,792.1,0,0,1-142.11-8.35c-24.37-3.58-46.6,1.94-67.09,15.5-11.17,7.39-22.15,15.09-34.09,21.26-10.21,5.28-20.61,7.33-32.2,4.76-19.28-4.28-38.51-8.41-56.18-17.71-22.9-12-28.57-31.37-15.35-53.73,4.32-7.31,9.34-14.21,14-21.29q458.51,0,917-.15c5.91,0,7.51.84,7.5,7.24Q1655.74,90.82,1655.9,335.43Z" transform="translate(287.01 161.03)"/><path class="a" d="M-286.86,305.08c19.64,7.74,30.29,21.14,28.1,37.35-2.56,18.88-12.2,33.85-28.1,44.61Z" transform="translate(287.01 161.03)"/></svg>