<svg xmlns="http://www.w3.org/2000/svg" viewBox="0 0 1943.06 1093.11"><defs><style>.a{opacity:0;fill:#ffffff;}.b{fill:#ffffff;}</style></defs><title>1800f_00369</title><path class="a" d="M-286.86,771v-809a24.36,24.36,0,0,0,3.92-2.16c26.34-21.41,56-36.91,87.08-50.22,42.21-18.1,85-33.61,131.24-38,40.48-3.79,80.86-8.68,121.33-12.59,37.48-3.63,75-6.68,112.68-2C219.66-136.7,265.7-121,304.74-87.34c25.27,21.82,46,46.1,52.88,80,3.64,18,3.9,36.12,3.57,54.35-.27,14.63-.88,29.3,2.95,43.72,3.93,14.78,10.36,18.57,25,14.1,13.36-4.09,25.79-10.35,38.19-16.63,44-22.29,85.89-48.39,128.72-72.78,20.53-11.69,42-21.16,65.75-24.29,30.19-4,57,5.94,82,21.43,18.88,11.71,36.92,24.76,55.44,37.06,7.42,4.92,15.42,8.8,24.48,9.39,5.78.38,8.84-1.57,7.57-8.58-1.43-7.86-4.38-15-7.72-22.07-11.81-24.77-10.4-47.87,7.8-69.18.16-.19.32-.39.47-.59,16-22,36.17-40.18,54.23-60.28,15.45-17.19,25.21-37.57,32.76-59.15h584.35a19,19,0,0,0,.06,3c8.47,47.08,7.9,94.62,7.28,142.16-.59,44.92-5.75,89.2-17.84,132.61C1442.52,153.2,1430,188.74,1419,224.75c-13.66,44.75-22.23,90.81-35,135.78-9.38,33-23.9,61.74-55.32,80.08-29.06,17-57.06,20.11-86.38,1.82-10.29-6.42-21.15-11.91-31.77-17.78-41.17-22.76-79.33-49.44-111.06-84.63-27.71-30.74-41.35-65.91-35.79-107.76,3.26-24.61,8.8-48.7,14.55-72.78,4.53-19,8.62-37.95,7.25-57.68-1.9-27.53-21-40.07-46.9-30.44a82.67,82.67,0,0,0-23.09,12.9C968.41,122,931.65,168.09,904.69,222c-14.74,29.5-17.88,60.69-14.39,93.07,5.24,48.65,22.08,93.34,46.45,135.25,21.12,36.31,42,72.64,58.16,111.53,1.65,4,3.63,7.79,5.35,11.72,16.66,38.08,47.07,55.75,87.26,59.52,16.57,1.55,33.38,1.55,49.62,5.88,15.6,4.16,18.06,13.68,6.67,25.1-1.07,1.07-2.28,2-3.44,3-9.83,8.19-21.19,13.72-32.82,18.73-17.88,7.7-36.14,14.67-52.68,25.07C1005.23,742.14,957.93,777,907.45,807c-56.73,33.66-99.84,83.57-150.08,125H168.47c2.26-11.89,7.27-23,9.18-35,6-38,5.49-76,1.64-114.11-5.29-52.3-26.08-95.12-70.66-125.64C70.47,631,41.37,595.3,12.2,560c-25.94-31.37-54.22-60.1-88.94-81.75-27.18-16.95-55.8-29.89-89.11-26-21.66,2.55-39.41,11.94-51.41,30.78-11.5,18.07-15.63,38.28-16.15,59.21-.85,34.48,7.66,68.13,9.81,102.41,1.76,27.95-1.24,53.75-19.5,76.43-9.19,11.42-18.53,22.68-28.25,33.64C-276.31,760.37-280.15,767.09-286.86,771ZM701,763.28c.89-.11,3.67-.28,6.39-.8,28.93-5.56,53-20.73,75.43-38.81,15.84-12.75,30.46-26.76,39.2-45.64,9.08-19.61,2.42-36.2-17.51-44.35-15.89-6.51-31.35-4.15-46.28,2.81-23.89,11.12-42.7,28.59-59.06,48.89-11.71,14.53-21.34,30.12-24.27,49C672.16,751.84,681.61,763.16,701,763.28ZM306.61,192.22c-.76,6.58,1.56,14.36,4.64,21.87,7.71,18.79,19.37,34.4,38,43.51,17.57,8.58,33.83.78,38.82-18a52.75,52.75,0,0,0,1.07-21.8c-3.58-23-15.24-42.58-26.72-62.25-4.87-8.35-12.48-9.76-20.3-7.56C321.71,153.69,306.65,163.9,306.61,192.22Z" transform="translate(287.01 161.03)"/><path class="b" d="M757.37,931.92c50.24-41.4,93.35-91.31,150.08-125,50.48-30,97.78-64.81,147.42-96.06,16.54-10.4,34.8-17.37,52.68-25.07,11.63-5,23-10.54,32.82-18.73,1.16-1,2.37-1.91,3.44-3,11.39-11.42,8.93-20.94-6.67-25.1-16.24-4.33-33.05-4.33-49.62-5.88-40.19-3.77-70.6-21.44-87.26-59.52-1.72-3.93-3.7-7.76-5.35-11.72-16.12-38.89-37-75.22-58.16-111.53-24.37-41.91-41.21-86.6-46.45-135.25-3.49-32.38-.35-63.57,14.39-93.07,27-53.95,63.72-100,110.8-137.78a82.67,82.67,0,0,1,23.09-12.9c25.87-9.63,45,2.91,46.9,30.44,1.37,19.73-2.72,38.72-7.25,57.68-5.75,24.08-11.29,48.17-14.55,72.78-5.56,41.85,8.08,77,35.79,107.76,31.73,35.19,69.89,61.87,111.06,84.63,10.62,5.87,21.48,11.36,31.77,17.78,29.32,18.29,57.32,15.15,86.38-1.82,31.42-18.34,45.94-47.12,55.32-80.08,12.8-45,21.37-91,35-135.78,11-36,23.49-71.55,33.61-107.84,12.09-43.41,17.25-87.69,17.84-132.61.62-47.54,1.19-95.08-7.28-142.16a19,19,0,0,1-.06-3c62.23,0,124.46.08,186.68-.15,5.2,0,6.23,1,6.22,6.22q-.29,182.9-.14,365.78c-23.7,18.63-44,40-56.64,67.94-20,44.24-18.69,86.59,9.78,127a434.15,434.15,0,0,0,46.86,55.51V778.62C1639,776.76,1625,768.16,1611.28,759c-22.88-15.31-44.29-32.79-68.09-46.73-45.16-26.44-92.67-46.32-145.71-49.42-24.29-1.41-45.89,5.53-63.25,23.49a204.62,204.62,0,0,0-41.58,63.75c-7.51,17.93-6.69,36,2.16,53.5a127.38,127.38,0,0,0,13.85,21.68c12.43,15.7,26.95,29.44,40.68,43.93,17.53,18.49,38.5,31.78,61.84,41.54,55.4,23.14,112.47,24,170.46,12.71,25.65-5,50.16-13.51,74.26-23.41,0,9.62-.13,19.23.08,28.84.06,2.64-.48,3.56-3.13,3.08a20.72,20.72,0,0,0-3.78,0Z" transform="translate(287.01 161.03)"/><path class="b" d="M-286.86,771c6.71-3.94,10.55-10.66,15.51-16.26,9.72-11,19.06-22.22,28.25-33.64,18.26-22.68,21.26-48.48,19.5-76.43-2.15-34.28-10.66-67.93-9.81-102.41.52-20.93,4.65-41.14,16.15-59.21,12-18.84,29.75-28.23,51.41-30.78,33.31-3.92,61.93,9,89.11,26C-42,499.92-13.74,528.65,12.2,560c29.17,35.28,58.27,71,96.43,97.11,44.58,30.52,65.37,73.34,70.66,125.64,3.85,38.15,4.37,76.13-1.64,114.11-1.91,12-6.92,23.15-9.18,35h-68.3c-.41-.63-.8-1.29-1.26-1.89A1253.32,1253.32,0,0,0-13.82,802.27,138,138,0,0,0-36.3,784.39c-21.11-13.52-44.8-14.11-62.46-.85-12.42,9.33-16.88,23.69-20.93,37.76-10.75,37.36-20.7,75-36.64,110.62-41.88,0-83.77-.09-125.65.12-4.28,0-5-1-5-5.08C-286.8,875-286.86,823-286.86,771Z" transform="translate(287.01 161.03)"/><path class="b" d="M878.79-160.88c-7.55,21.58-17.31,42-32.76,59.15C828-81.63,807.79-63.43,791.8-41.45c-.15.2-.31.4-.47.59-18.2,21.31-19.61,44.41-7.8,69.18,3.34,7,6.29,14.21,7.72,22.07,1.27,7-1.79,9-7.57,8.58-9.06-.59-17.06-4.47-24.48-9.39-18.52-12.3-36.56-25.35-55.44-37.06C678.79-3,652-12.9,621.77-8.91,598.06-5.78,576.55,3.69,556,15.38c-42.83,24.39-84.7,50.49-128.72,72.78-12.4,6.28-24.83,12.54-38.19,16.63-14.61,4.47-21,.68-25-14.1-3.83-14.42-3.22-29.09-2.95-43.72.33-18.23.07-36.36-3.57-54.35-6.84-33.86-27.61-58.14-52.88-80-39-33.71-85.08-49.36-135.35-55.55-37.72-4.65-75.2-1.6-112.68,2-40.47,3.91-80.85,8.8-121.33,12.59-46.22,4.34-89,19.85-131.24,38-31,13.31-60.74,28.81-87.08,50.22a24.36,24.36,0,0,1-3.92,2.16c0-39,.13-77.92-.15-116.87,0-5.2,1-6.23,6.22-6.22q164.3.28,328.6.15Z" transform="translate(287.01 161.03)"/><path class="a" d="M1655.9,900c-24.1,9.9-48.61,18.42-74.26,23.41-58,11.29-115.06,10.43-170.46-12.71-23.34-9.76-44.31-23-61.84-41.54-13.73-14.49-28.25-28.23-40.68-43.93a127.38,127.38,0,0,1-13.85-21.68c-8.85-17.54-9.67-35.57-2.16-53.5a204.62,204.62,0,0,1,41.58-63.75c17.36-18,39-24.9,63.25-23.49,53,3.1,100.55,23,145.71,49.42,23.8,13.94,45.21,31.42,68.09,46.73,13.68,9.16,27.69,17.76,44.62,19.62Z" transform="translate(287.01 161.03)"/><path class="a" d="M-156.33,931.92c15.94-35.65,25.89-73.26,36.64-110.62,4-14.07,8.51-28.43,20.93-37.76,17.66-13.26,41.35-12.67,62.46.85a138,138,0,0,1,22.48,17.88A1253.32,1253.32,0,0,1,98.91,930c.46.6.85,1.26,1.26,1.89Z" transform="translate(287.01 161.03)"/><path class="a" d="M1655.9,461.41A434.15,434.15,0,0,1,1609,405.9c-28.47-40.4-29.82-82.75-9.78-127,12.66-28,32.94-49.31,56.64-67.94Z" transform="translate(287.01 161.03)"/><path class="b" d="M701,763.28c-19.35-.12-28.8-11.44-26.1-28.87,2.93-18.91,12.56-34.5,24.27-49,16.36-20.3,35.17-37.77,59.06-48.89,14.93-7,30.39-9.32,46.28-2.81C824.4,641.83,831.06,658.42,822,678c-8.74,18.88-23.36,32.89-39.2,45.64-22.45,18.08-46.5,33.25-75.43,38.81C704.63,763,701.85,763.17,701,763.28Z" transform="translate(287.01 161.03)"/><path class="b" d="M306.61,192.22c0-28.32,15.1-38.53,35.54-44.27,7.82-2.2,15.43-.79,20.3,7.56,11.48,19.67,23.14,39.22,26.72,62.25a52.75,52.75,0,0,1-1.07,21.8c-5,18.82-21.25,26.62-38.82,18-18.66-9.11-30.32-24.72-38-43.51C308.17,206.58,305.85,198.8,306.61,192.22Z" transform="translate(287.01 161.03)"/></svg>