<svg xmlns="http://www.w3.org/2000/svg" viewBox="0 0 1943.04 1093.1"><defs><style>.a{opacity:0;fill:#ffffff;}.b{fill:#ffffff;}</style></defs><title>1800f_00164</title><path class="a" d="M-286.86,170V57.68c2.42-2.87,2.33-6.57,3.15-9.92,10.21-41.44,17.23-83.54,25.6-125.36,5.77-28.86,16.6-56.07,27.41-83.28H1580c-11.86,26.38-26.14,51.26-46,72.56-19.35,20.79-43,27-70.43,20.52-21.08-5-40.72-13.56-60.1-22.88-29.87-14.37-58-32-87.2-47.54-15.64-8.29-31.54-16-49.3-18.94-17.2-2.83-29.37,4.9-33.31,21.76-3.45,14.77-1,29.2,3.62,43.26,12.28,37.16,36.4,66.11,64.74,92,34.72,31.67,74.77,55.94,113.36,82.36,43.28,29.62,90.79,40.47,142.16,38.83,32.81-1.05,65.4-6.11,98.31-5.66V658.72c-9.31,6-18.33,12.58-28,18-23.26,13-43.59,8.58-60.17-12.44-12.91-16.36-19-35.52-22.66-55.6-7.23-39.61-2.07-79.18.92-118.69,2.14-28.24,8.29-56,12.87-83.87,8.53-51.93,18.71-103.43,38-152.7,4.06-10.4,7-21.12,6.29-32.51-.65-10.74-6.69-18.69-17-21.73a42.24,42.24,0,0,0-18-1.24c-24.19,3.32-44.67,15.41-65.33,27.23-58.42,33.45-106.84,76.92-139.92,136.48-17.92,32.26-36.93,63.91-55.78,95.64-20.74,34.91-43.81,68.06-74.89,94.84-53,45.71-95.83,47.91-163.8,19.7-3.53-1.46-7.84-3.27-8.2-8.13-.39-5.42,4.29-7.23,7.89-9.16,10.9-5.87,22.27-10.89,33.05-17,23.41-13.23,46.16-27.57,62.76-49.36,15.61-20.5,14.36-36-4.59-53.29-38.49-35.08-71.6-74.85-102.93-116.25-8.24-10.89-16.9-21.41-27.4-30.31-24.77-21-54.72-27.38-85.78-30.36-40.34-3.86-80.81-3.29-121.26-3a204.32,204.32,0,0,0-39.18,4,768.24,768.24,0,0,1-121,14.59c-23.72,1-47.42,2.67-71.12,4.2a127.1,127.1,0,0,0-38.43,8.05C532.66,293.46,527,308.24,536,327.16a89.67,89.67,0,0,0,20.12,27.35c47.47,44,101.48,77.46,162.37,99.75C775.19,475,833.78,484,894,484.47c24.83.18,48.75,4.59,70,18.71a478.6,478.6,0,0,1,68.31,55.26c5.65,5.47,5.38,9.65-.34,15.56-8.09,8.35-16.59,16.34-24.28,25-24.64,27.86-45.33,58.91-69.71,87-19.6,22.59-41.19,42.33-69.84,53.17-17.11,6.47-33,5.5-48.6-4.13-7.95-4.92-15.92-9.86-24.22-14.15-33.85-17.47-66.13-8.59-86.6,23.56a58.08,58.08,0,0,0,39.38,88.92c15,2.61,29.78.28,44.53-1.18,20.09-2,37.48,2.1,51.65,17.46A196.36,196.36,0,0,0,865,868.62c29.07,23.64,61.41,36.27,99.25,26.55,15.63-4,30.57-10.68,46.19-14.73,42.53-11,85.77-19.4,127.11-34.87,8.08-3,17.18-4,25.46-1.89,32.11,8.09,65.1,6.89,97.64,10.35,30.39,3.23,59.58,11.13,86.8,25.27,26.25,13.64,48.14,33.27,70.17,52.62H300.52c-.52-3.25-1.06-6.49-1.56-9.73-5.1-32.9-21.54-57.73-51.48-73.28A212.71,212.71,0,0,0,194.83,830c-32.5-7.13-65.7-7.62-98.66-10.41-25.48-2.16-50.8-5.09-75.12-13.62C-1.71,798-17.19,783.15-24,759.57a385.91,385.91,0,0,1-10.72-45.73c-8.62-53.49-29.3-101.67-61.66-145.1-20.8-27.91-44.77-52.8-69.69-76.92-12-11.62-11.5-18.48,1.27-29.27,16.67-14.07,35.23-25.45,53.42-37.36,22.62-14.83,45.7-29.08,64.25-49.22,11.6-12.59,18.9-26.94,16.63-44.64-1.5-11.72-6-22.42-12.47-32.28-15.29-23.31-33.64-44.25-50.94-66-12.63-15.88-26.27-30.71-42.79-42.69-9.75-7.07-20.1-7.29-28.49.06-20.51,17.94-44.46,21.79-70.21,16.64C-258,202.54-276.15,191.27-286.86,170Z" transform="translate(287 161.02)"/><path class="b" d="M1417.6,931.92c-22-19.35-43.92-39-70.17-52.62-27.22-14.14-56.41-22-86.8-25.27-32.54-3.46-65.53-2.26-97.64-10.35-8.28-2.09-17.38-1.13-25.46,1.89C1096.19,861,1053,869.4,1010.42,880.44c-15.62,4-30.56,10.72-46.19,14.73-37.84,9.72-70.18-2.91-99.25-26.55a196.36,196.36,0,0,1-20.69-18.92c-14.17-15.36-31.56-19.46-51.65-17.46-14.75,1.46-29.56,3.79-44.53,1.18a58.08,58.08,0,0,1-39.38-88.92c20.47-32.15,52.75-41,86.6-23.56,8.3,4.29,16.27,9.23,24.22,14.15,15.55,9.63,31.49,10.6,48.6,4.13,28.65-10.84,50.24-30.58,69.84-53.17,24.38-28.1,45.07-59.15,69.71-87,7.69-8.7,16.19-16.69,24.28-25,5.72-5.91,6-10.09.34-15.56A478.6,478.6,0,0,0,964,503.18c-21.3-14.12-45.22-18.53-70-18.71C833.78,484,775.19,475,718.52,454.26c-60.89-22.29-114.9-55.73-162.37-99.75A89.67,89.67,0,0,1,536,327.16c-9-18.92-3.37-33.7,16.16-41.33a127.1,127.1,0,0,1,38.43-8.05c23.7-1.53,47.4-3.21,71.12-4.2a768.24,768.24,0,0,0,121-14.59,204.32,204.32,0,0,1,39.18-4c40.45-.3,80.92-.87,121.26,3,31.06,3,61,9.35,85.78,30.36,10.5,8.9,19.16,19.42,27.4,30.31,31.33,41.4,64.44,81.17,102.93,116.25,19,17.26,20.2,32.79,4.59,53.29-16.6,21.79-39.35,36.13-62.76,49.36-10.78,6.09-22.15,11.11-33.05,17-3.6,1.93-8.28,3.74-7.89,9.16.36,4.86,4.67,6.67,8.2,8.13,68,28.21,110.75,26,163.8-19.7,31.08-26.78,54.15-59.93,74.89-94.84,18.85-31.73,37.86-63.38,55.78-95.64,33.08-59.56,81.5-103,139.92-136.48,20.66-11.82,41.14-23.91,65.33-27.23a42.24,42.24,0,0,1,18,1.24c10.31,3,16.35,11,17,21.73.7,11.39-2.23,22.11-6.29,32.51-19.25,49.27-29.43,100.77-38,152.7C1554.3,434,1548.15,461.74,1546,490c-3,39.51-8.15,79.08-.92,118.69,3.67,20.08,9.75,39.24,22.66,55.6,16.58,21,36.91,25.47,60.17,12.44,9.65-5.41,18.67-12,28-18q0,133.56.14,267.13c0,5.19-1,6.23-6.22,6.22Q1533.72,931.74,1417.6,931.92Z" transform="translate(287 161.02)"/><path class="b" d="M-286.86,170c10.71,21.28,28.89,32.55,51.43,37.06,25.75,5.15,49.7,1.3,70.21-16.64,8.39-7.35,18.74-7.13,28.49-.06,16.52,12,30.16,26.81,42.79,42.69,17.3,21.76,35.65,42.7,50.94,66,6.46,9.86,11,20.56,12.47,32.28,2.27,17.7-5,32.05-16.63,44.64-18.55,20.14-41.63,34.39-64.25,49.22-18.19,11.91-36.75,23.29-53.42,37.36-12.77,10.79-13.28,17.65-1.27,29.27,24.92,24.12,48.89,49,69.69,76.92,32.36,43.43,53,91.61,61.66,145.1A385.91,385.91,0,0,0-24,759.57C-17.19,783.15-1.71,798,21.05,806c24.32,8.53,49.64,11.46,75.12,13.62,33,2.79,66.16,3.28,98.66,10.41a212.71,212.71,0,0,1,52.65,18.88c29.94,15.55,46.38,40.38,51.48,73.28.5,3.24,1,6.48,1.56,9.73q-290.49,0-581,.16c-5.61,0-6.54-1.32-6.54-6.66Q-286.76,547.71-286.86,170Z" transform="translate(287 161.02)"/><path class="b" d="M1655.9,115.35c-32.91-.45-65.5,4.61-98.31,5.66-51.37,1.64-98.88-9.21-142.16-38.83-38.59-26.42-78.64-50.69-113.36-82.36-28.34-25.85-52.46-54.8-64.74-92-4.64-14.06-7.07-28.49-3.62-43.26,3.94-16.86,16.11-24.59,33.31-21.76,17.76,2.92,33.66,10.65,49.3,18.94,29.25,15.5,57.33,33.17,87.2,47.54,19.38,9.32,39,17.9,60.1,22.88,27.47,6.49,51.08.27,70.43-20.52,19.82-21.3,34.1-46.18,46-72.56,23.52,0,47,.15,70.57-.14,4.54,0,5.45.92,5.44,5.45Q1655.77-20.11,1655.9,115.35Z" transform="translate(287 161.02)"/><path class="b" d="M-230.7-160.88c-10.81,27.21-21.64,54.42-27.41,83.28-8.37,41.82-15.39,83.92-25.6,125.36-.82,3.35-.73,7.05-3.15,9.92q0-106.62-.13-213.25c0-4.53.9-5.54,5.44-5.45C-264.6-160.68-247.65-160.88-230.7-160.88Z" transform="translate(287 161.02)"/></svg>