<svg xmlns="http://www.w3.org/2000/svg" viewBox="0 0 1943.06 1093.12"><defs><style>.a{opacity:0;fill:#ffffff;}.b{fill:#ffffff;}</style></defs><title>1800f_00184</title><path class="a" d="M-286.86,801.39V658.72a14.82,14.82,0,0,0,3.41-1.22c33.7-22.69,70.17-40.09,107.19-56.48,34.07-15.08,69.14-24.21,106.77-18.41,23.33,3.59,39.92-5.29,51.63-25.7,7.8-13.6,15.81-27,22.43-41.27,17.22-37,21.17-74.53,4.4-112.89C.55,383.49-9.82,365.63-28.32,354.34a34.86,34.86,0,0,1-14-15.36c-8.19-17.49-8.1-36-7.35-54.86C-49,267.17-40.95,254.6-29,243.73c5-4.6,6.2-10.88,7.16-17.09,3.26-21.16-11.82-33.74-31.27-26.18a23.55,23.55,0,0,1-17,.39c-25.87-9.58-46.49-25.09-57.74-51.32a265.79,265.79,0,0,1-12.59-34.91c-7.66-28.07-4.68-54.36,14.85-77,30-34.74,67.3-57.91,112.2-67.77,27.19-6,55.25-5.51,82.8-9.05,75.46-9.73,143-37.14,199.36-89.31,10.83-10,22.39-19.53,30.27-32.37h822.64c24.67,33.55,44.64,69.92,62.13,107.53,24.06,51.72,59.16,92.87,108.33,122.44,27.83,16.73,52,38.42,74.13,62.28,19.78,21.32,39.31,42.88,59.5,63.79,40.28,41.72,82.52,81.35,130.23,114.58,23.78,16.56,31.06,37.32,24.27,65.63-15.38,64.05-41.43,122.73-80.62,175.86-46.79,63.44-99,121.52-161.92,169.4-24.69,18.79-51.41,34.2-82.35,40.54-17.18,3.51-34.68,3.53-52.12,3.38-15.68-.14-27.69,6.14-37.07,18.5-8.7,11.48-17.72,22.73-26.73,34-17.31,21.59-38.78,36.72-66.2,42.72-66.71,14.59-133.56,28-202.28,28.51-35.4.3-70,5.82-102.89,19.66-13.93,5.87-28,11.78-38,24H101.69c-7.14-13.67-9.32-28.54-11.15-43.61a262.27,262.27,0,0,0-8.23-40.81A220.93,220.93,0,0,0,51.42,782C26.61,746.32.55,711.53-21.89,674.23c-9.13-15.17-16.22-15.61-30.19-5.35-9,6.62-16.93,14.38-25.27,21.7C-95.2,706.24-113.23,721.7-131,737.45c-10.8,9.58-15.74,21.89-16,36.31-.24,11.36-.86,22.71-1.64,34C-150.41,833-166,845-191.22,841.42c-22.72-3.2-42.91-12.73-62.91-23.13C-265,812.63-274.61,804.43-286.86,801.39Zm1145-288.71c-10.63.05-21.23.13-31.75,1.89-14.3,2.4-28.32,5.54-39.87,15.14-7.83,6.5-9.55,14.63-5.1,23.61,3.93,7.94,10.21,13.93,17.24,18.83,47.64,33.2,100,55.77,156.6,68.51,28.87,6.51,57.73,6.25,86-3,18.31-6,22.76-4.93,33.2,11.22,13.49,20.86,28,40.86,46.91,57.27,8.6,7.49,17.64,14.41,28.86,17.68,11.73,3.42,20.7.94,27.31-8.89,18.3-27.22,21.14-56.39,8.37-86.47s-30.18-38-61.78-29.78c-13.46,3.52-26.36,8.64-39.32,13.67-16,6.22-19.53,4.74-28-10.08-.25-.43-.48-.88-.73-1.32-19.28-35.4-47.57-60-86.68-70.94C933.05,519.83,896,513.36,858.16,512.68Z" transform="translate(287.02 161.06)"/><path class="b" d="M730.05,931.92c10-12.23,24.07-18.14,38-24,32.86-13.84,67.49-19.36,102.89-19.66,68.72-.56,135.57-13.92,202.28-28.51,27.42-6,48.89-21.13,66.2-42.72,9-11.24,18-22.49,26.73-34,9.38-12.36,21.39-18.64,37.07-18.5,17.44.15,34.94.13,52.12-3.38,30.94-6.34,57.66-21.75,82.35-40.54,62.88-47.88,115.13-106,161.92-169.4,39.19-53.13,65.24-111.81,80.62-175.86,6.79-28.31-.49-49.07-24.27-65.63-47.71-33.23-90-72.86-130.23-114.58-20.19-20.91-39.72-42.47-59.5-63.79-22.12-23.86-46.3-45.55-74.13-62.28-49.17-29.57-84.27-70.72-108.33-122.44-17.49-37.61-37.46-74-62.13-107.53h271.68c-.62,2.7-1.2,5.42-1.86,8.11-5.63,23.27-1.92,44.51,13.15,63.58a138.53,138.53,0,0,0,19.3,20.3c55.4,46.52,116.62,82.54,186.72,102.24,15,4.22,29.81,9.48,45.27,12.19q0,439.77.14,879.55c0,5.69-1.28,7-7,7Q1189.56,931.82,730.05,931.92Z" transform="translate(287.02 161.06)"/><path class="b" d="M299-160.88c-7.88,12.84-19.44,22.35-30.27,32.37C212.38-76.34,144.83-48.93,69.37-39.2c-27.55,3.54-55.61,3.08-82.8,9.05-44.9,9.86-82.24,33-112.2,67.77-19.53,22.64-22.51,48.93-14.85,77a265.79,265.79,0,0,0,12.59,34.91c11.25,26.23,31.87,41.74,57.74,51.32a23.55,23.55,0,0,0,17-.39c19.45-7.56,34.53,5,31.27,26.18-1,6.21-2.12,12.49-7.16,17.09-11.93,10.87-20,23.44-20.66,40.39-.75,18.82-.84,37.37,7.35,54.86a34.86,34.86,0,0,0,14,15.36C-9.82,365.63.55,383.49,9,402.75c16.77,38.36,12.82,75.9-4.4,112.89C-2,529.86-10.06,543.31-17.86,556.91c-11.71,20.41-28.3,29.29-51.63,25.7-37.63-5.8-72.7,3.33-106.77,18.41-37,16.39-73.49,33.79-107.19,56.48a14.82,14.82,0,0,1-3.41,1.22q0-406.17-.16-812.33c0-6,1-7.46,7.3-7.45Q9.64-160.73,299-160.88Z" transform="translate(287.02 161.06)"/><path class="b" d="M-286.86,801.39c12.25,3,21.84,11.24,32.73,16.9,20,10.4,40.19,19.93,62.91,23.13C-166,845-150.41,833-148.68,807.8c.78-11.33,1.4-22.68,1.64-34,.31-14.42,5.25-26.73,16-36.31,17.76-15.75,35.79-31.21,53.64-46.87,8.34-7.32,16.28-15.08,25.27-21.7,14-10.26,21.06-9.82,30.19,5.35C.55,711.53,26.61,746.32,51.42,782A220.93,220.93,0,0,1,82.31,847.5a262.27,262.27,0,0,1,8.23,40.81c1.83,15.07,4,29.94,11.15,43.61q-191.23,0-382.48.14c-5.2,0-6.26-1-6.22-6.21C-286.74,884.36-286.86,842.87-286.86,801.39Z" transform="translate(287.02 161.06)"/><path class="a" d="M1655.9,45.54c-15.46-2.71-30.23-8-45.27-12.19-70.1-19.7-131.32-55.72-186.72-102.24a138.53,138.53,0,0,1-19.3-20.3c-15.07-19.07-18.78-40.31-13.15-63.58.66-2.69,1.24-5.41,1.86-8.11q128.43,0,256.85-.11c4.62,0,5.87.9,5.86,5.75C1655.83-88.32,1655.9-21.39,1655.9,45.54Z" transform="translate(287.02 161.06)"/><path class="b" d="M858.16,512.68c37.87.68,74.89,7.15,111.25,17.33,39.11,11,67.4,35.54,86.68,70.94.25.44.48.89.73,1.32,8.52,14.82,12,16.3,28,10.08,13-5,25.86-10.15,39.32-13.67,31.6-8.25,49-.26,61.78,29.78s9.93,59.25-8.37,86.47c-6.61,9.83-15.58,12.31-27.31,8.89-11.22-3.27-20.26-10.19-28.86-17.68-18.88-16.41-33.42-36.41-46.91-57.27-10.44-16.15-14.89-17.22-33.2-11.22-28.31,9.26-57.17,9.52-86,3-56.58-12.74-109-35.31-156.6-68.51-7-4.9-13.31-10.89-17.24-18.83-4.45-9-2.73-17.11,5.1-23.61,11.55-9.6,25.57-12.74,39.87-15.14C836.93,512.81,847.53,512.73,858.16,512.68Z" transform="translate(287.02 161.06)"/></svg>