<svg xmlns="http://www.w3.org/2000/svg" viewBox="0 0 1943.05 1093.09"><defs><style>.a{opacity:0;fill:#ffffff;}.b{fill:#ffffff;}</style></defs><title>1800f_00321</title><path class="a" d="M1133.78,931.92H7.59C6.41,925.71,5.41,919.47,4,913.31c-22.3-99.42-49.7-197-99.73-286.86a516.76,516.76,0,0,1-52.48-136.94c-5.9-25.86-11.35-51.83-19.95-77-14.1-41.24-36.87-76.25-72-102.71-10.9-8.2-21.54-16.77-31.14-26.55-12.22-12.44-15.95-26.42-9.05-43,4.41-10.56,10.2-20.3,16.2-30,24.17-39,53-74.57,81.54-110.34C-156,66.69-135.89,30.45-127.06-11.64a122.38,122.38,0,0,1,10.24-29.29c10.1-20.32,23.74-26.41,44.79-18,27.69,11.06,51,27.85,64.43,55.69,9,18.57,23.67,29.64,43.79,34.08,20.37,4.5,41.08,5.38,61.76,6.22C160.34,39.62,222.1,34,283.42,22.44,335.29,12.65,385.75-1.82,434.05-23c54.19-23.76,99.83-60.06,142.55-100.36,13.63-12.86,28.08-24.7,44.81-33.46,1.7-.89,4-1.41,3.91-4.06h37.95c1.19,7.61.26,15-1.67,22.45-3.64,14-10.66,26.7-15.24,40.33-5.36,15.93.8,24.51,17.9,25.16,13.74.52,26.44-3.38,38.82-8.69,24.71-10.58,45.88-26.55,65.41-44.58C791.05-147,816-160.89,847.85-159c8.23.48,16.58-1.19,24.87-1.87h182.14c1.07,1.28,2.58,1.46,4.1,1.61,57.89,5.66,115,15.38,171.3,30.38,37.59,10,76.49,14.2,114,24.44,44.45,12.13,82.21,34.59,108,74.17,8.12,12.43,11.51,26.82,17.06,40.31,9,22,29.07,30.52,51.27,21.73,13.21-5.23,25.12-12.88,37.79-19.12,22-10.85,42.24-8.85,61.49,6.34,13.36,10.55,24.45,23.29,36,35.66V551c-9.81,11.07-16.07,24.38-23.1,37.17-15.37,27.93-30.37,56.12-51.72,80.12-29.62,33.3-58.26,44-100.3,24-22.43-10.69-43.63-23.48-64.23-37.28-18.53-12.42-36.46-25.73-50.49-43.31-34.78-43.58-52.09-94.19-59.29-148.85-2.66-20.26-4.66-40.66-10.54-60.39-7.08-23.76-24.06-33.62-48.28-27.9a106.15,106.15,0,0,0-21.3,7.86c-22.51,10.75-42.14,26-62.35,40.29-15.28,10.84-30.79,21.32-47.81,29.27-19.94,9.31-33.29,6.89-48.75-8.57-7.51-7.51-14.65-15.42-22.47-22.58-31.06-28.48-87.06-42.64-132.12-13.26-14.86,9.69-28.65,20.75-42.85,31.27-14.81,11-17.73,23.17-10.08,39.82a63.68,63.68,0,0,0,9.17,13.87c15.42,18.62,34.81,32.6,55.55,44.14,45.46,25.3,79.16,60.46,101.81,107.73,27.38,57.13,69.9,101,125,132.7,28.2,16.21,57,30.26,90.26,30.05,43.55-.27,87,2,130.32,5.22,11.8.87,23.83.94,35.13,5.18,8,3,9.63,8.22,5.18,15.52-3.74,6.15-9,10.88-14.62,15.28-23.71,18.68-50.2,32-79,41.09-33.51,10.56-68.37,13.31-102.88,18.16C1187.54,911.57,1159.93,919.26,1133.78,931.92Z" transform="translate(287 161.03)"/><path class="b" d="M625.32-160.88c0,2.65-2.21,3.17-3.91,4.06-16.73,8.76-31.18,20.6-44.81,33.46C533.88-83.06,488.24-46.76,434.05-23c-48.3,21.18-98.76,35.65-150.63,45.44C222.1,34,160.34,39.62,98,37.06c-20.68-.84-41.39-1.72-61.76-6.22C16.07,26.4,1.38,15.33-7.6-3.24-21.06-31.08-44.34-47.87-72-58.93c-21-8.41-34.69-2.32-44.79,18a122.38,122.38,0,0,0-10.24,29.29c-8.83,42.09-29,78.33-55.56,111.61-28.53,35.77-57.37,71.34-81.54,110.34-6,9.67-11.79,19.41-16.2,30-6.9,16.54-3.17,30.52,9.05,43,9.6,9.78,20.24,18.35,31.14,26.55,35.17,26.46,57.94,61.47,72,102.71,8.6,25.18,14,51.15,19.95,77A516.76,516.76,0,0,0-95.7,626.45c50,89.87,77.43,187.44,99.73,286.86,1.38,6.16,2.38,12.4,3.56,18.61q-144.2,0-288.38.14c-5.2,0-6.22-1-6.21-6.21q.22-540.33,0-1080.66c0-5.2,1-6.22,6.21-6.22Q172.27-160.78,625.32-160.88Z" transform="translate(287 161.03)"/><path class="b" d="M1133.78,931.92c26.15-12.66,53.76-20.35,82.46-24.39,34.51-4.85,69.37-7.6,102.88-18.16,28.75-9.07,55.24-22.41,79-41.09,5.57-4.4,10.88-9.13,14.62-15.28,4.45-7.3,2.82-12.51-5.18-15.52-11.3-4.24-23.33-4.31-35.13-5.18-43.37-3.23-86.77-5.49-130.32-5.22-33.21.21-62.06-13.84-90.26-30.05-55.15-31.71-97.67-75.57-125-132.7C1004.1,597.06,970.4,561.9,924.94,536.6c-20.74-11.54-40.13-25.52-55.55-44.14a63.68,63.68,0,0,1-9.17-13.87c-7.65-16.65-4.73-28.86,10.08-39.82,14.2-10.52,28-21.58,42.85-31.27,45.06-29.38,101.06-15.22,132.12,13.26,7.82,7.16,15,15.07,22.47,22.58,15.46,15.46,28.81,17.88,48.75,8.57,17-8,32.53-18.43,47.81-29.27,20.21-14.32,39.84-29.54,62.35-40.29a106.15,106.15,0,0,1,21.3-7.86c24.22-5.72,41.2,4.14,48.28,27.9,5.88,19.73,7.88,40.13,10.54,60.39,7.2,54.66,24.51,105.27,59.29,148.85,14,17.58,32,30.89,50.49,43.31,20.6,13.8,41.8,26.59,64.23,37.28,42,20,70.68,9.33,100.3-24,21.35-24,36.35-52.19,51.72-80.12,7-12.79,13.29-26.1,23.1-37.17q0,187.44.14,374.89c0,5.19-1,6.22-6.22,6.21Q1391.8,931.81,1133.78,931.92Z" transform="translate(287 161.03)"/><path class="b" d="M1655.9,54.64c-11.51-12.37-22.6-25.11-36-35.66-19.25-15.19-39.47-17.19-61.49-6.34-12.67,6.24-24.58,13.89-37.79,19.12-22.2,8.79-42.23.26-51.27-21.73-5.55-13.49-8.94-27.88-17.06-40.31-25.84-39.58-63.6-62-108-74.17-37.53-10.24-76.43-14.41-114-24.44-56.26-15-113.41-24.72-171.3-30.38-1.52-.15-3-.33-4.1-1.61q297.11,0,594.21-.15c5.69,0,7,1.28,7,7C1655.82-84.49,1655.9-14.92,1655.9,54.64Z" transform="translate(287 161.03)"/><path class="b" d="M872.72-160.88c-8.29.68-16.64,2.35-24.87,1.87-31.9-1.88-56.8,12-79.36,32.8-19.53,18-40.7,34-65.41,44.58-12.38,5.31-25.08,9.21-38.82,8.69-17.1-.65-23.26-9.23-17.9-25.16,4.58-13.63,11.6-26.33,15.24-40.33,1.93-7.43,2.86-14.84,1.67-22.45Z" transform="translate(287 161.03)"/></svg>