<svg xmlns="http://www.w3.org/2000/svg" viewBox="0 0 1943.04 1093.11"><defs><style>.a{opacity:0;fill:#ffffff;}.b{fill:#ffffff;}</style></defs><title>1800f_00162</title><path class="a" d="M-286.86,200.35V-21.25c2.35-3.18,2.29-7.09,3.07-10.71,7.59-34.89,14.41-70,27.09-103.54,3.19-8.42,7.51-16.45,9.3-25.38H1549.65c0,1,.24,2.11-.15,2.92-8.14,17.16-17,33.92-29.35,48.51-14.84,17.55-33.62,26-56.81,24.74-16.83-.92-32.91-5.09-48.81-10.19-31.82-10.21-61.76-25.15-92.87-37.17-16.28-6.3-32.75-12-50.73-10.86-14.8.91-25.22,8.36-30,22.54-5.41,16.21-2.62,32,3.47,47.34,11.13,28.09,31.06,49.46,53.61,68.6,41.43,35.17,88.79,60.64,137.92,83.06,25.79,11.76,53.18,17.31,81.29,20.07,46.18,4.55,92.42,1.34,138.63,1.5v546.4c-8.81,6.35-17.31,13.12-26.85,18.44-23.1,12.89-45.24,9.91-63.32-9.31-15.77-16.76-23.39-37.59-28.09-59.63-6.79-31.86-5.56-64.39-7.32-96.65-2.54-46.65,8.71-91.29,21.73-135.56,13-44.11,32.52-85.46,52.84-126.49,5.51-11.13,10.35-22.51,12.5-34.86,3.22-18.56-5.55-31.23-24-34.54-13.86-2.48-26.59,1.71-38.92,7.14-28.24,12.45-52.64,31-77.2,49.26-35.57,26.44-70.21,53.91-98.44,88.55-25.69,31.52-45.77,66.64-66.08,101.63-21.83,37.6-42.78,75.77-71.2,109.08-13.17,15.45-27.46,29.67-44,41.54-20.45,14.67-43,19.35-67.61,14.92-21.83-3.93-42.78-10.39-61.83-21.9-13.76-8.32-13.7-16.18-.46-25,2.31-1.54,4.73-2.92,7.09-4.38,14.84-9.18,29.85-18.08,44.46-27.61,13.14-8.58,25.83-17.88,35.32-30.7,11.8-15.93,11.42-27.35-1.55-42.17-40.14-45.86-79.68-92.17-115.26-141.77-22.91-31.93-55-49.41-93.64-54.47-46.45-6.06-92.86-3.06-139.15,2.35-30.85,3.6-61.51,8.65-92.74,9-20.42.22-40.92,1.51-61.08,5.49-29.89,5.89-59,14.21-85.4,29.94-16.87,10-21.55,25.66-13.54,43.58,4.49,10.06,11.15,18.65,18.93,26.34,31.43,31.08,68,55.15,107.13,74.92,55.2,27.89,114.35,41.11,176.18,42.51,14.64.33,29.31,1,43.81,3.33,43,6.91,75.93,31.81,105.85,61.22,10.65,10.47,10.21,18.6-.11,31.6-24.84,31.29-48.08,63.81-74.13,94.16-27.05,31.51-58.62,57-95.91,75.43-16.39,8.08-32.33,8.8-48.11-1.83a193.16,193.16,0,0,0-21-12.14c-8.73-4.39-18.21-5.21-27.18-1.36-24.48,10.5-31.64,46.77-13.34,66.09C738,797.2,755.66,797.92,773.58,796c16.71-1.83,32.25.33,46.43,9.66,11,7.23,21.72,14.8,32.76,21.93,33.74,21.77,70.48,33.87,110.91,33.25,28.82-.45,57.31-5.21,86-7.77,18-1.6,33.27-9.58,46.25-22.14,9.92-9.6,17.34-21,24.31-32.75,9.26-15.63,16.09-32.64,27.3-47.17,15.57-20.18,40.19-22,58.63-4.23a97.06,97.06,0,0,1,13.34,15.46c8.74,13,20.22,23.07,33,31.84,24.27,16.62,50.63,29.58,76.5,43.29,43.62,23.12,77.26,57.28,108.31,94.59H286.86c-.56-22-5.93-42.53-19.66-60.16-16-20.61-38.57-31.41-62.4-39.83-35.6-12.57-73-15.7-110.11-20-28.11-3.27-56.24-6.51-83-16.55-20.93-7.85-35.38-21.83-42.53-43.28a339,339,0,0,1-10.08-38.86c-6.87-33.4-12.46-67.18-27.48-98.27-27-55.91-63.13-104-117.36-136.59-4.85-2.91-12.13-5.16-12.08-11.35.06-6.72,7.66-8.76,12.87-11.56,28.07-15.06,56.39-29.65,83.85-45.81,22-13,44.11-25.83,61.94-44.61,17.47-18.41,20.45-38.61,9.14-61.23-5.37-10.74-13-19.87-20.67-28.92-23.92-28.13-47.5-56.5-66.06-88.62-5.21-9-10.94-17.61-18.66-24.71-8.42-7.73-17.28-8.26-26.75-1.72a64.33,64.33,0,0,0-15.1,14.8c-13.18,17.87-31.09,28.14-52.37,32.15C-249.17,210.44-268.9,212.14-286.86,200.35Z" transform="translate(287 161.03)"/><path class="b" d="M1437.34,931.92c-31-37.31-64.69-71.47-108.31-94.59-25.87-13.71-52.23-26.67-76.5-43.29-12.83-8.77-24.31-18.83-33-31.84a97.06,97.06,0,0,0-13.34-15.46c-18.44-17.79-43.06-16-58.63,4.23-11.21,14.53-18,31.54-27.3,47.17-7,11.77-14.39,23.15-24.31,32.75-13,12.56-28.27,20.54-46.25,22.14-28.66,2.56-57.15,7.32-86,7.77-40.43.62-77.17-11.48-110.91-33.25-11-7.13-21.79-14.7-32.76-21.93-14.18-9.33-29.72-11.49-46.43-9.66-17.92,2-35.55,1.24-49.24-13.23-18.3-19.32-11.14-55.59,13.34-66.09,9-3.85,18.45-3,27.18,1.36a193.16,193.16,0,0,1,21,12.14c15.78,10.63,31.72,9.91,48.11,1.83,37.29-18.39,68.86-43.92,95.91-75.43,26-30.35,49.29-62.87,74.13-94.16,10.32-13,10.76-21.13.11-31.6-29.92-29.41-62.8-54.31-105.85-61.22-14.5-2.33-29.17-3-43.81-3.33-61.83-1.4-121-14.62-176.18-42.51-39.13-19.77-75.7-43.84-107.13-74.92-7.78-7.69-14.44-16.28-18.93-26.34-8-17.92-3.33-33.54,13.54-43.58,26.41-15.73,55.51-24,85.4-29.94,20.16-4,40.66-5.27,61.08-5.49,31.23-.34,61.89-5.39,92.74-9,46.29-5.41,92.7-8.41,139.15-2.35,38.65,5.06,70.73,22.54,93.64,54.47,35.58,49.6,75.12,95.91,115.26,141.77,13,14.82,13.35,26.24,1.55,42.17-9.49,12.82-22.18,22.12-35.32,30.7-14.61,9.53-29.62,18.43-44.46,27.61-2.36,1.46-4.78,2.84-7.09,4.38-13.24,8.81-13.3,16.67.46,25,19,11.51,40,18,61.83,21.9,24.65,4.43,47.16-.25,67.61-14.92,16.56-11.87,30.85-26.09,44-41.54,28.42-33.31,49.37-71.48,71.2-109.08,20.31-35,40.39-70.11,66.08-101.63,28.23-34.64,62.87-62.11,98.44-88.55,24.56-18.25,49-36.81,77.2-49.26,12.33-5.43,25.06-9.62,38.92-7.14,18.41,3.31,27.18,16,24,34.54-2.15,12.35-7,23.73-12.5,34.86-20.32,41-39.86,82.38-52.84,126.49-13,44.27-24.27,88.91-21.73,135.56,1.76,32.26.53,64.79,7.32,96.65,4.7,22,12.32,42.87,28.09,59.63,18.08,19.22,40.22,22.2,63.32,9.31,9.54-5.32,18-12.09,26.85-18.44q0,139.63.14,279.27c0,5.19-1,6.23-6.22,6.22C1579,931.85,1508.17,931.92,1437.34,931.92Z" transform="translate(287 161.03)"/><path class="b" d="M-286.86,200.35c18,11.79,37.69,10.09,57.18,6.42,21.28-4,39.19-14.28,52.37-32.15a64.33,64.33,0,0,1,15.1-14.8c9.47-6.54,18.33-6,26.75,1.72,7.72,7.1,13.45,15.7,18.66,24.71,18.56,32.12,42.14,60.49,66.06,88.62,7.69,9.05,15.3,18.18,20.67,28.92,11.31,22.62,8.33,42.82-9.14,61.23C-57,383.8-79.14,396.67-101.15,409.63c-27.46,16.16-55.78,30.75-83.85,45.81-5.21,2.8-12.81,4.84-12.87,11.56,0,6.19,7.23,8.44,12.08,11.35C-131.56,510.91-95.44,559-68.43,614.94c15,31.09,20.61,64.87,27.48,98.27a339,339,0,0,0,10.08,38.86c7.15,21.45,21.6,35.43,42.53,43.28,26.79,10,54.92,13.28,83,16.55,37.14,4.33,74.51,7.46,110.11,20,23.83,8.42,46.36,19.22,62.4,39.83,13.73,17.63,19.1,38.15,19.66,60.16q-283.67,0-567.32.15c-5.6,0-6.54-1.3-6.54-6.65Q-286.76,562.89-286.86,200.35Z" transform="translate(287 161.03)"/><path class="b" d="M1655.9,100.18c-46.21-.16-92.45,3-138.63-1.5-28.11-2.76-55.5-8.31-81.29-20.07-49.13-22.42-96.49-47.89-137.92-83.06C1275.51-23.59,1255.58-45,1244.45-73c-6.09-15.37-8.88-31.13-3.47-47.34,4.73-14.18,15.15-21.63,30-22.54,18-1.11,34.45,4.56,50.73,10.86,31.11,12,61,27,92.87,37.17,15.9,5.1,32,9.27,48.81,10.19,23.19,1.27,42-7.19,56.81-24.74,12.34-14.59,21.21-31.35,29.35-48.51.39-.81.12-1.94.15-2.92,33.65,0,67.29.11,100.93-.13,4.53,0,5.45.91,5.44,5.44Q1655.77-27.69,1655.9,100.18Z" transform="translate(287 161.03)"/><path class="b" d="M-247.4-160.88c-1.79,8.93-6.11,17-9.3,25.38C-269.38-101.93-276.2-66.85-283.79-32c-.78,3.62-.72,7.53-3.07,10.71,0-44.77.08-89.55-.13-134.32,0-4.53.89-5.61,5.45-5.45C-270.17-160.61-258.78-160.88-247.4-160.88Z" transform="translate(287 161.03)"/></svg>