<svg xmlns="http://www.w3.org/2000/svg" viewBox="0 0 1367.05 769.06"><defs><style>.a{opacity:0;fill:#ffffff;}.b{fill:#ffffff;}</style></defs><title>1800f_00091</title><path class="a" d="M1367.52,564.62v83.47c-15.68,5.17-29.9,13.12-43.29,22.68-14.79,10.56-23,24.85-25.27,42.91a215.6,215.6,0,0,0-1.31,25.63c-.05,10.07,0,20.14,0,30.21h-343c1.91-14.32-6.49-22.45-17.44-29A127.58,127.58,0,0,0,904.44,727c-21.62-5.82-43.81-7.24-66-8.24-43.09-1.94-86.15-7-129.34-2.24-21.15,2.31-42.16,5.66-60.71,17.06-16.24,10-18.8,19.17-10.94,35.95H285.34c7.77-4.33,16.58-5.58,24.85-8.44C374.88,738.77,420.94,671,417.58,602.72c-1.95-39.57-33.64-70.79-72.87-71.41-15.27-.24-30.26-1.14-44.29-8.14a176.18,176.18,0,0,1-55.89-43.49c-17.37-20.37-33.5-41.8-51.7-61.5-7-7.61-13.92-15.38-22.41-21.44-9.58-6.86-17.31-5.34-24.9,3.55-12,14-12.68,31.11-13.41,47.91-1.42,32.93,10.78,62.31,25.49,90.89,10.18,19.79,23.72,37.65,33.1,57.89,11.14,24,7.23,41.55-13.24,58.49-21.29,17.62-44.68,32.19-68.54,46-30.19,17.44-62,32-91.37,50.94-5.21,3.36-9.53,8.33-16,9.55V130.53c3.25-.28,6.51-.47,9.75-.85,33-3.89,65.8-5.05,95.83,12.78,19,11.26,39,10.41,59.55,7.19,39-6.11,75.57-20.21,112.1-34.39C333.66,94,383.55,65,422.84,20.05c6.34-7.27,14.27-12.72,21.87-18.53h22.77a12.13,12.13,0,0,0,2.41,1.7A219.24,219.24,0,0,1,529.6,38.7a50.16,50.16,0,0,0,28.49,11.22,243.3,243.3,0,0,0,39.39-.49c42.38-3.48,84.7-4.23,127,1.23,23,3,46,7.07,69.3,6.71C813,57.07,830.2,52,842.15,35.26c4.85-6.81,11.75-11.8,18.26-17,7.06-5.67,14.27-11.15,21.42-16.72H985c1.58,25.89-3.09,51.26-5.67,76.86-4,40.08,4.3,54.14,41.23,70.47,34.17,15.11,67.88,31.61,104,41.87,16.82,4.78,28.11,15,36.2,29.92,24.92,46,44.41,94,53.68,145.83,4.75,26.57,10.32,53.14,21.72,77.9,18.33,39.8,47.81,69.79,84.07,93.41C1335.42,547.67,1350.58,557.75,1367.52,564.62ZM9.79,272a58.31,58.31,0,0,0,7.67,32.33c9,15.34,23.71,22.08,40.29,25.58,10.89,2.3,22.07,2.25,33.06,3.63,14.69,1.85,27.82,8.77,41.36,14.28,12.12,4.94,19.36,2.85,26.61-8,7.84-11.8,14-24.55,20.79-36.95A58.84,58.84,0,0,0,187,271.54c-1.65-35.13-14.78-65.73-38-91.9-11.88-13.38-26.82-18-44.55-13.76a247.75,247.75,0,0,0-26.17,7.54C37.33,188,9.7,227.36,9.79,272Zm1081.1,493.32c6.68.54,17.38-4.3,26.5-11.7,20.18-16.41,40.43-32.8,58.55-51.56,4.24-4.39,7.91-9.26,10-15.07,2.41-6.78-.33-12-7.17-14.16a39.77,39.77,0,0,0-17.27-1.31c-33.81,4.59-64.34,17.1-91,38.45-7.7,6.15-14.89,13-19.34,22.08-3.94,8-2.89,14.36,3.23,20.77C1062.74,761.67,1073.46,764.61,1090.89,765.35Z" transform="translate(-1.17 -0.63)"/><path class="b" d="M1367.52,564.62c-16.94-6.87-32.1-17-47.28-26.84-36.26-23.62-65.74-53.61-84.07-93.41-11.4-24.76-17-51.33-21.72-77.9-9.27-51.87-28.76-99.79-53.68-145.83-8.09-14.94-19.38-25.14-36.2-29.92-36.09-10.26-69.8-26.76-104-41.87-36.93-16.33-45.27-30.39-41.23-70.47,2.58-25.6,7.25-51,5.67-76.86h160.88c4.92,9.66,9.72,19.37,14.78,29,8.82,16.71,16.1,34.25,27,49.85,10.28,14.74,19,15.66,31.89,2.76,14.94-15,17.65-34,16.31-53.88-.62-9.26-2.27-18.45-3.45-27.68H1349.3c.64,2.42,1.19,4.86,1.92,7.25,4.07,13.34,7.78,26.83,16.3,38.28Z" transform="translate(-1.17 -0.63)"/><path class="b" d="M1.52,761.93c6.5-1.22,10.82-6.19,16-9.55,29.37-19,61.18-33.5,91.37-50.94,23.86-13.78,47.25-28.35,68.54-46C197.93,638.53,201.84,621,190.7,597c-9.38-20.24-22.92-38.1-33.1-57.89-14.71-28.58-26.91-58-25.49-90.89.73-16.8,1.45-33.92,13.41-47.91,7.59-8.89,15.32-10.41,24.9-3.55,8.49,6.06,15.38,13.83,22.41,21.44,18.2,19.7,34.33,41.13,51.7,61.5a176.18,176.18,0,0,0,55.89,43.49c14,7,29,7.9,44.29,8.14,39.23.62,70.92,31.84,72.87,71.41,3.36,68.27-42.7,136-107.39,158.36-8.27,2.86-17.08,4.11-24.85,8.44q-138.13,0-276.27.17C2.61,769.71.19,768.28,1.52,761.93Z" transform="translate(-1.17 -0.63)"/><path class="b" d="M444.71,1.52c-7.6,5.81-15.53,11.26-21.87,18.53C383.55,65,333.66,94,278.75,115.26c-36.53,14.18-73.08,28.28-112.1,34.39-20.56,3.22-40.6,4.07-59.55-7.19-30-17.83-62.79-16.67-95.83-12.78-3.24.38-6.5.57-9.75.85,0-41,.12-82-.15-122.94,0-5.2,1-6.22,6.22-6.22Q226.16,1.66,444.71,1.52Z" transform="translate(-1.17 -0.63)"/><path class="b" d="M881.83,1.52c-7.15,5.57-14.36,11.05-21.42,16.72-6.51,5.22-13.41,10.21-18.26,17C830.2,52,813,57.07,793.83,57.37c-23.32.36-46.29-3.74-69.3-6.71-42.35-5.46-84.67-4.71-127-1.23a243.3,243.3,0,0,1-39.39.49A50.16,50.16,0,0,1,529.6,38.7,219.24,219.24,0,0,0,469.89,3.22a12.13,12.13,0,0,1-2.41-1.7Z" transform="translate(-1.17 -0.63)"/><path class="b" d="M637.47,769.52c-7.86-16.78-5.3-26,10.94-35.95,18.55-11.4,39.56-14.75,60.71-17.06,43.19-4.72,86.25.3,129.34,2.24,22.17,1,44.36,2.42,66,8.24a127.58,127.58,0,0,1,32.8,13.51c11,6.57,19.35,14.7,17.44,29Z" transform="translate(-1.17 -0.63)"/><path class="b" d="M1297.7,769.52c0-10.07-.1-20.14,0-30.21a215.6,215.6,0,0,1,1.31-25.63c2.27-18.06,10.48-32.35,25.27-42.91,13.39-9.56,27.61-17.51,43.29-22.68,0,39-.06,77.92.1,116.87,0,3.8-.86,4.69-4.66,4.66C1341.21,769.41,1319.45,769.52,1297.7,769.52Z" transform="translate(-1.17 -0.63)"/><path class="a" d="M1232.44,1.52c1.18,9.23,2.83,18.42,3.45,27.68,1.34,19.92-1.37,38.88-16.31,53.88-12.85,12.9-21.61,12-31.89-2.76-10.89-15.6-18.17-33.14-27-49.85-5.06-9.58-9.86-19.29-14.78-28.95Z" transform="translate(-1.17 -0.63)"/><path class="a" d="M1367.52,47.05c-8.52-11.45-12.23-24.94-16.3-38.28-.73-2.39-1.28-4.83-1.92-7.25,6,0,14.89-2.35,17.28.59,3.05,3.75.9,11.77.93,17.94C1367.54,29.05,1367.52,38.05,1367.52,47.05Z" transform="translate(-1.17 -0.63)"/><path class="b" d="M9.79,272c-.09-44.67,27.54-84,68.47-98.61a247.75,247.75,0,0,1,26.17-7.54c17.73-4.21,32.67.38,44.55,13.76,23.24,26.17,36.37,56.77,38,91.9a58.84,58.84,0,0,1-7.43,31.32c-6.78,12.4-12.95,25.15-20.79,36.95-7.25,10.89-14.49,13-26.61,8-13.54-5.51-26.67-12.43-41.36-14.28-11-1.38-22.17-1.33-33.06-3.63-16.58-3.5-31.32-10.24-40.29-25.58A58.31,58.31,0,0,1,9.79,272Z" transform="translate(-1.17 -0.63)"/><path class="b" d="M1090.89,765.35c-17.43-.74-28.15-3.68-36.56-12.5-6.12-6.41-7.17-12.72-3.23-20.77,4.45-9.09,11.64-15.93,19.34-22.08,26.7-21.35,57.23-33.86,91-38.45a39.77,39.77,0,0,1,17.27,1.31c6.84,2.13,9.58,7.38,7.17,14.16-2.07,5.81-5.74,10.68-10,15.07-18.12,18.76-38.37,35.15-58.55,51.56C1108.27,761.05,1097.57,765.89,1090.89,765.35Z" transform="translate(-1.17 -0.63)"/></svg>