<svg xmlns="http://www.w3.org/2000/svg" viewBox="0 0 1943.06 1093.12"><defs><style>.a{opacity:0;fill:#ffffff;}.b{fill:#ffffff;}</style></defs><title>1800f_00141</title><path class="a" d="M-286.86,327.84v-41c5.59-1.53,11.21-3,16.77-4.59C-185.54,257.71-98.42,250.08-11.22,243c32.24-2.62,64.48-5.46,96.77-7,29.27-1.44,58.58-2.78,87.94-1.33,38.93,1.91,76.88-1.79,111.25-22.6,12.33-7.46,24.54-15.11,36.83-22.64,22.38-13.71,45.8-23.69,72.95-21,17.57,1.77,34.11,7.25,50.26,13.88,46.2,19,89.64,43.55,132.62,68.63,46.82,27.3,96.57,37.83,149.94,33.18,42.83-3.73,85.65-6.94,128.69-5.24,12.92.51,25.79-.72,38.58-2.42,36.45-4.84,73-7,109.67-3.22,34.33,3.51,66.81,13.47,97.88,28.18,17.14,8.11,26.35,22,28.91,40.78,1.73,12.71.8,25.21-1.07,37.73-2.63,17.59-8.51,34.34-13.8,51.19-6.21,19.76-3.77,37.73,8,54.79,24,34.77,47.5,69.84,71.56,104.54,10.83,15.62,23.27,29.93,38.31,41.81,21.83,17.25,46.07,26,74.16,21.16,38.31-6.61,59.74-30.73,68.36-67.26,11-46.46,10.13-93.23,2.23-140.06-3.56-21.17-8.59-42.1-9.71-63.65-2.24-42.81,5.76-84.1,19.12-124.44,9.53-28.78,20.5-57.08,30.31-85.77,4.82-14.1,8.91-28.53,8.14-43.74-.69-13.81-8.84-21.9-22.56-22.61a77.41,77.41,0,0,0-24,2.51c-20.17,5.36-38.89,14.19-57.38,23.63-22.07,11.27-44.14,22.6-67.87,30.06-5.82,1.83-13,5-17.75-.78-4.56-5.64-1.59-12.49,1.24-18.58,8.85-19,20.81-36.5,27.61-56.5,4.85-14.24,7.53-28.6-1-42.39a84.27,84.27,0,0,0-11.34-14.16c-23.29-23.88-46.84-47.52-68.5-72.95-12-14.08-25.62-25.59-45.18-28.14-20.33-2.65-40.34-.59-60.32,2.39-46,6.84-89.12,22.11-130.31,43.42C915.06-7.93,878.49-2.15,840.37-5.11S764.85-15.92,727-20.43c-28.67-3.42-57.33-5.82-86.1-.72-22.18,3.94-43.79,10.2-65.56,15.81-25.43,6.55-51.18,10.39-77.27,5.1-24.32-4.95-45-16.3-55.74-39.95-8.83-19.44-11.05-40.3-9-61.59,2-20.6,9.1-39.81,15.91-59.1h900c1.6,1.21,3,2.81,4.82,3.58,28.34,12.24,51.08,32.2,73.76,52.47,26.32,23.53,54.94,43.72,88,57,13.36,5.34,26.46,11.36,39.85,16.63,27.31,10.75,45.1,29.62,54.89,57.71,10.42,29.91,26.65,57.13,45.25,82.82V425c-4,7.28-8.21,14.49-12.1,21.84-19.54,36.87-38.08,74.21-54.25,112.71-19.11,45.49-28.21,93.08-32.33,142-3.94,47-3.52,93.38,9.17,139.15,9,32.5,18.32,64.83,40.94,91.21H-261.06c7.3-12.45,17.21-22.92,25.93-34.29,15.43-20.12,34.78-36.62,51.4-55.67,22-25.19,30.06-52.63,22.51-86.13-8.48-37.62-19.27-74.85-23.18-113.47-4.28-42.14-5.88-84.1,3.18-125.93a119.76,119.76,0,0,0-3.11-62.87C-202.13,398.28-237.37,357.26-286.86,327.84ZM887.63,414.08c0-2.42.2-5.46,0-8.48-.91-12.28-7.91-21.2-18.1-23.27-8.9-1.8-17.16,3.55-22.87,14.81s-7.83,23.49-8.48,35.86c-1.36,26-8.12,50.07-22.88,71.9a238.79,238.79,0,0,0-23.58,43.16c-7.73,18.88-13,38.07-10,58.93,4.82,33.71,36.56,60.67,74.85,39.22,17.77-10,32-23.69,43.51-40.27,12.08-17.37,18.27-36.27,15.18-57.81-2.53-17.62-9.49-33.48-18.07-48.69-9.51-16.84-16.19-33.92-12.87-54C886,435.33,888.39,425.14,887.63,414.08ZM129,825.5c1.77,0,3.54,0,5.31,0,19.37-.56,32.49-14.13,32.58-33.4.07-15.36-8.23-26.36-19.2-35.33-20.16-16.49-43.52-26.42-69.18-30.66-19.77-3.26-38.82-1.53-55.8,10.43C1.45,751.51,1.1,770,21.63,785.66,36.88,797.3,54.41,804.56,72,811.51,90.32,818.73,108.88,825.48,129,825.5Z" transform="translate(287.02 161.03)"/><path class="b" d="M449.26-160.88c-6.81,19.29-13.89,38.5-15.91,59.1-2.09,21.29.13,42.15,9,61.59,10.74,23.65,31.42,35,55.74,39.95,26.09,5.29,51.84,1.45,77.27-5.1,21.77-5.61,43.38-11.87,65.56-15.81,28.77-5.1,57.43-2.7,86.1.72,37.87,4.51,75.31,12.37,113.39,15.32s74.69-2.82,108.87-20.5C990.43-46.92,1033.6-62.19,1079.55-69c20-3,40-5,60.32-2.39,19.56,2.55,33.18,14.06,45.18,28.14,21.66,25.43,45.21,49.07,68.5,73a84.27,84.27,0,0,1,11.34,14.16c8.56,13.79,5.88,28.15,1,42.39-6.8,20-18.76,37.49-27.61,56.5-2.83,6.09-5.8,12.94-1.24,18.58,4.71,5.82,11.93,2.61,17.75.78,23.73-7.46,45.8-18.79,67.87-30.06,18.49-9.44,37.21-18.27,57.38-23.63a77.41,77.41,0,0,1,24-2.51c13.72.71,21.87,8.8,22.56,22.61.77,15.21-3.32,29.64-8.14,43.74-9.81,28.69-20.78,57-30.31,85.77-13.36,40.34-21.36,81.63-19.12,124.44,1.12,21.55,6.15,42.48,9.71,63.65,7.9,46.83,8.72,93.6-2.23,140.06-8.62,36.53-30,60.65-68.36,67.26-28.09,4.84-52.33-3.91-74.16-21.16-15-11.88-27.48-26.19-38.31-41.81-24.06-34.7-47.59-69.77-71.56-104.54-11.76-17.06-14.2-35-8-54.79,5.29-16.85,11.17-33.6,13.8-51.19,1.87-12.52,2.8-25,1.07-37.73-2.56-18.78-11.77-32.67-28.91-40.78-31.07-14.71-63.55-24.67-97.88-28.18-36.71-3.76-73.22-1.62-109.67,3.22-12.79,1.7-25.66,2.93-38.58,2.42-43-1.7-85.86,1.51-128.69,5.24-53.37,4.65-103.12-5.88-149.94-33.18-43-25.08-86.42-49.64-132.62-68.63-16.15-6.63-32.69-12.11-50.26-13.88-27.15-2.72-50.57,7.26-72.95,21-12.29,7.53-24.5,15.18-36.83,22.64-34.37,20.81-72.32,24.51-111.25,22.6-29.36-1.45-58.67-.11-87.94,1.33-32.29,1.59-64.53,4.43-96.77,7-87.2,7.07-174.32,14.7-258.87,39.26-5.56,1.62-11.18,3.06-16.77,4.59V33.39c27.3-4.43,53.79.62,80.09,7.12,28.68,7.08,56.2,18.32,85.45,23.45C-96,68.4-71.15,69.72-47.64,56.41c12.81-7.24,21.72-18.63,31.82-28.79,12.93-13,20.68-12.11,30.33,3.29a104.32,104.32,0,0,1,5.66,10.72,34.1,34.1,0,0,0,6.57,9.18c30.77,31.73,83.12,39.31,121.6,17.5,27.36-15.51,52.18-34.56,76.47-54.42C241.38.34,250.1-16.83,253.32-37.8c3.89-25.28,1.3-50.41.29-75.6-.63-15.86-2.05-31.74,1.38-47.48Z" transform="translate(287.02 161.03)"/><path class="a" d="M255-160.88c-3.43,15.74-2,31.62-1.38,47.48,1,25.19,3.6,50.32-.29,75.6-3.22,21-11.94,38.14-28.51,51.69C200.52,33.75,175.7,52.8,148.34,68.31c-38.48,21.81-90.83,14.23-121.6-17.5a34.1,34.1,0,0,1-6.57-9.18,104.32,104.32,0,0,0-5.66-10.72c-9.65-15.4-17.4-16.3-30.33-3.29-10.1,10.16-19,21.55-31.82,28.79C-71.15,69.72-96,68.4-121.32,64c-29.25-5.13-56.77-16.37-85.45-23.45-26.3-6.5-52.79-11.55-80.09-7.12,0-62.73.08-125.47-.15-188.2,0-5.2,1-6.22,6.22-6.22Q-12.9-160.76,255-160.88Z" transform="translate(287.02 161.03)"/><path class="b" d="M-286.86,327.84c49.49,29.42,84.73,70.44,102.53,125.72a119.76,119.76,0,0,1,3.11,62.87c-9.06,41.83-7.46,83.79-3.18,125.93,3.91,38.62,14.7,75.85,23.18,113.47,7.55,33.5-.53,60.94-22.51,86.13-16.62,19-36,35.55-51.4,55.67-8.72,11.37-18.63,21.84-25.93,34.29-7.59,0-15.18-.16-22.76.08-2.65.08-3.56-.47-3.08-3.12a21.78,21.78,0,0,0,0-3.79Z" transform="translate(287.02 161.03)"/><path class="b" d="M1607.33,931.92c-22.62-26.38-31.93-58.71-40.94-91.21-12.69-45.77-13.11-92.2-9.17-139.15,4.12-48.95,13.22-96.54,32.33-142,16.17-38.5,34.71-75.84,54.25-112.71,3.89-7.35,8.06-14.56,12.1-21.84q0,250.44.14,500.87c0,5.19-1,6.4-6.22,6.23C1635.67,931.61,1621.49,931.92,1607.33,931.92Z" transform="translate(287.02 161.03)"/><path class="b" d="M1655.9,109.28c-18.6-25.69-34.83-52.91-45.25-82.82-9.79-28.09-27.58-47-54.89-57.71-13.39-5.27-26.49-11.29-39.85-16.63-33.09-13.23-61.71-33.42-88-56.95-22.68-20.27-45.42-40.23-73.76-52.47-1.79-.77-3.22-2.37-4.82-3.58q150.27,0,300.52-.15c5.2,0,6.24,1,6.22,6.22Q1655.74-22.76,1655.9,109.28Z" transform="translate(287.02 161.03)"/><path class="b" d="M887.63,414.08c.76,11.06-1.67,21.25-3.35,31.38-3.32,20.06,3.36,37.14,12.87,54,8.58,15.21,15.54,31.07,18.07,48.69,3.09,21.54-3.1,40.44-15.18,57.81-11.53,16.58-25.74,30.32-43.51,40.27-38.29,21.45-70-5.51-74.85-39.22-3-20.86,2.28-40,10-58.93a238.79,238.79,0,0,1,23.58-43.16C830,483.07,836.79,459,838.15,433c.65-12.37,2.76-24.59,8.48-35.86s14-16.61,22.87-14.81c10.19,2.07,17.19,11,18.1,23.27C887.83,408.62,887.63,411.66,887.63,414.08Z" transform="translate(287.02 161.03)"/><path class="b" d="M129,825.5c-20.13,0-38.69-6.77-57-14-17.6-7-35.13-14.21-50.38-25.85C1.1,770,1.45,751.51,22.72,736.53c17-12,36-13.69,55.8-10.43,25.66,4.24,49,14.17,69.18,30.66,11,9,19.27,20,19.2,35.33-.09,19.27-13.21,32.84-32.58,33.4C132.55,825.55,130.78,825.5,129,825.5Z" transform="translate(287.02 161.03)"/></svg>