<svg xmlns="http://www.w3.org/2000/svg" viewBox="0 0 1943.16 1093.1"><defs><style>.a{opacity:0;fill:#ffffff;}.b{fill:#ffffff;}</style></defs><title>1800f_00382</title><path class="a" d="M-286.86,546.4V338.47a800.66,800.66,0,0,1,54.53-60c37.89-37.67,80.16-68.57,130.35-88.14,24.12-9.4,46.62-22,66.32-39.13,14.35-12.45,27.18-26.45,40.74-39.71,20.31-19.86,42.56-36.58,70.7-43.83,14.48-3.73,29.28-5.55,44-7.67,44-6.31,87.67-5.59,130.92,5.32C270,70.12,287.4,77.9,299.53,94.76c28.49,39.59,55,80.53,80.86,121.82,17.82,28.47,42.07,45.7,73.87,53.71,30.87,7.77,62.06,8.2,93.31,3,41.59-6.86,82-18,119.66-37.28,30.95-15.85,39.48-32.84,34.34-67.3-5.1-34.24-1.91-66.88,14.67-97.87,7.15-13.35,13.31-27.27,19.31-41.19,8.73-20.25,16.56-40.7,12.76-63.65C744.47-57.19,729-73.76,706.07-77.67c-20-3.39-38,3.19-55.18,12.15-20.33,10.57-37.56,25.57-55.22,39.88-28.35,23-57.52,44.62-92.08,57.69C467,45.91,429.69,52.7,391,42.42c-23.92-6.35-42.75-18.55-50.15-44.33C337.62-13,333.77-24,330.58-35.18c-10-34.9-17.5-70.12-13.28-106.81.72-6.27,1-12.59,1.43-18.89h746.75a13,13,0,0,0,1.84,2.35c29.24,23.75,58.2,47.84,87.84,71.08,36,28.23,74.1,52.76,119.45,63.81,34.6,8.43,69.79,11.72,105.17,12.56,42,1,84,.36,125.92,1,22,.32,43.93.9,65.78,4.09,32.41,4.73,53.47,21.48,61.61,54.07,5.39,21.58,10.39,43.22,14.66,65,7.06,36,3.73,70.75-11,104.58A623.22,623.22,0,0,1,1591,304c-12,18.75-24.47,37.19-33.87,57.45-9.15,19.71-15.54,40-13.78,62.19,1.55,19.56,12.51,33.29,31.47,37.83,7.82,1.87,15.93,2.56,23.9,3.82,19.87,3.14,38.26,11.15,57.2,17.36v296c-1.45-1-1.32-2.59-1.58-4.07-4.09-23.48-12.42-45.3-26.65-64.52-29.63-40-65.41-73.44-107.81-99.67-12.47-7.71-25.86-13.19-40.56-13.21-12.33,0-24.69,1.43-37,2.86-48.77,5.68-94.62-2.78-137-27.93-25.67-15.22-48.55-33.81-60.3-62.06-21.47-51.62-30.69-105-19.46-160.82,10.06-50,22.73-99.48,33.49-149.35,3.87-17.95,6-35.91.83-54-10.25-36.19-49.11-47.63-77.2-22.68a100.8,100.8,0,0,0-20.9,25.85c-9.71,17.15-18.46,34.89-28.79,51.65-14.31,23.23-30.1,45.55-44.57,68.69-20.55,32.9-28.74,68.63-23.24,107.37,5.44,38.35,14.68,75.92,24.12,113.36,27.16,107.77,66.39,210.55,130,302.76,9.9,14.37,17.08,30,18.82,47.46,3,30.45,1.55,61.1,3.45,91.62H60.71c-2.79-10.23-5.27-20.54-8.41-30.66-11.72-37.76-31.22-71.74-52-105-31-49.64-67.2-94.84-114.09-130.61-26.47-20.19-56.31-34.68-85.74-49.83C-233.23,598.45-265.3,579.06-286.86,546.4Z" transform="translate(287.02 161.03)"/><path class="b" d="M318.73-160.88c-.46,6.3-.71,12.62-1.43,18.89-4.22,36.69,3.27,71.91,13.28,106.81,3.19,11.16,7,22.15,10.24,33.27,7.4,25.78,26.23,38,50.15,44.33,38.72,10.28,76,3.49,112.62-10.37C538.15,19,567.32-2.64,595.67-25.64c17.66-14.31,34.89-29.31,55.22-39.88,17.23-9,35.23-15.54,55.18-12.15,23,3.91,38.4,20.48,42.24,43.72,3.8,23-4,43.4-12.76,63.65-6,13.92-12.16,27.84-19.31,41.19-16.58,31-19.77,63.63-14.67,97.87,5.14,34.46-3.39,51.45-34.34,67.3-37.66,19.28-78.07,30.42-119.66,37.28-31.25,5.15-62.44,4.72-93.31-3-31.8-8-56.05-25.24-73.87-53.71C354.55,175.29,328,134.35,299.53,94.76,287.4,77.9,270,70.12,250.72,65.27c-43.25-10.91-87-11.63-130.92-5.32-14.74,2.12-29.54,3.94-44,7.67-28.14,7.25-50.39,24-70.7,43.83-13.56,13.26-26.39,27.26-40.74,39.71-19.7,17.09-42.2,29.73-66.32,39.13-50.19,19.57-92.46,50.47-130.35,88.14a800.66,800.66,0,0,0-54.53,60q0-246.48-.16-492.94c0-5.57,1.27-6.56,6.64-6.55Q19.18-160.78,318.73-160.88Z" transform="translate(287.02 161.03)"/><path class="b" d="M1241.54,931.92c-1.9-30.52-.43-61.17-3.45-91.62-1.74-17.47-8.92-33.09-18.82-47.46-63.61-92.21-102.84-195-130-302.76-9.44-37.44-18.68-75-24.12-113.36-5.5-38.74,2.69-74.47,23.24-107.37,14.47-23.14,30.26-45.46,44.57-68.69,10.33-16.76,19.08-34.5,28.79-51.65a100.8,100.8,0,0,1,20.9-25.85c28.09-25,66.95-13.51,77.2,22.68,5.13,18.1,3,36.06-.83,54-10.76,49.87-23.43,99.32-33.49,149.35C1214.3,405,1223.52,458.4,1245,510c11.75,28.25,34.63,46.84,60.3,62.06,42.42,25.15,88.27,33.61,137,27.93,12.28-1.43,24.64-2.87,37-2.86,14.7,0,28.09,5.5,40.56,13.21C1562.26,636.59,1598,670,1627.67,710c14.23,19.22,22.56,41,26.65,64.52.26,1.48.13,3.07,1.58,4.07V853c-.85,23.58-2.72,47.12-2.4,70.73,0,2.73-.42,5.47-.64,8.2Z" transform="translate(287.02 161.03)"/><path class="b" d="M1655.9,482.66c-18.94-6.21-37.33-14.22-57.2-17.36-8-1.26-16.08-1.95-23.9-3.82-19-4.54-29.92-18.27-31.47-37.83-1.76-22.19,4.63-42.48,13.78-62.19,9.4-20.26,21.89-38.7,33.87-57.45a623.22,623.22,0,0,0,45.74-86.34c14.76-33.83,18.09-68.58,11-104.58-4.27-21.82-9.27-43.46-14.66-65C1625,15.46,1603.89-1.29,1571.48-6c-21.85-3.19-43.82-3.77-65.78-4.09-42-.61-84,0-125.92-1-35.38-.84-70.57-4.13-105.17-12.56-45.35-11-83.44-35.58-119.45-63.81-29.64-23.24-58.6-47.33-87.84-71.08a13,13,0,0,1-1.84-2.35q291.8,0,583.59-.15c5.69,0,7,1.29,7,7Q1655.79,164.3,1655.9,482.66Z" transform="translate(287.02 161.03)"/><path class="b" d="M-286.86,546.4c21.56,32.66,53.63,52.05,87.35,69.42,29.43,15.15,59.27,29.64,85.74,49.83,46.89,35.77,83.11,81,114.09,130.61,20.76,33.26,40.26,67.24,52,105,3.14,10.12,5.62,20.43,8.41,30.66q-170.74,0-341.5.14c-5.2,0-6.22-1-6.22-6.21Q-286.73,736.13-286.86,546.4Z" transform="translate(287.02 161.03)"/><path class="a" d="M1652.86,931.92c.22-2.73.67-5.47.64-8.2-.32-23.61,1.55-47.15,2.4-70.73q0,37.18-.06,74.37C1655.84,929.29,1657.54,932.85,1652.86,931.92Z" transform="translate(287.02 161.03)"/></svg>