<svg xmlns="http://www.w3.org/2000/svg" viewBox="0 0 1943.07 1093.1"><defs><style>.a{opacity:0;fill:#ffffff;}.b{fill:#ffffff;}</style></defs><title>1800f_00252</title><path class="a" d="M1655.9,330.88v136.6c-3.84,1.7-6.11,5.15-8.76,8.08-12.57,13.86-25.19,27.68-37.42,41.83-34.38,39.76-65.23,81.86-86.07,130.59a119,119,0,0,1-14.71,25.59c-13.41,17.53-28,19.55-45.54,6a204.19,204.19,0,0,1-35.19-35.44c-19.56-24.87-37-51.06-40.4-83.53-2.28-21.58-9.43-40.94-22.75-57.73-18-22.68-33.77-46.51-45.61-73.1-9.37-21-27.06-30.73-50-30.35-22.09.36-42.92,7.12-63,15.26-32.69,13.22-65.6,16.93-100.12,8.35-17.41-4.33-35.38-5.76-53.31-1.7-30.41,6.89-54.6,23.34-72.82,48.35-15.68,21.51-26.17,44.76-22.63,72.55,6.87,53.91,58.66,111,130.06,97.73,25.63-4.77,49.31-14.73,72.74-25.61,7.56-3.51,15.15-7,22.88-10.1,4.66-1.87,10-4,14.43-.33s3,9.28,2,14.25c-.88,4.2-2,8.36-3.17,12.48-8.52,29.43-25.36,54.47-42.79,79-20.48,28.83-37.66,59.21-49.65,92.58-5.2,14.49-11.68,28.58-21.31,40.89-10.91,13.94-21.48,16.15-37.11,7.67-2.66-1.45-5.17-3.18-7.77-4.74-45.15-27.14-93.55-41.68-146.65-37-17.25,1.52-33.93,5.58-48.33,16.14-13.6,10-18.17,23-13.59,39.26,6.57,23.28,21.31,40.43,40.77,53.92,6.81,4.71,13.9,9,20.86,13.53H305.07c-2.62-2.25-6.05-2.36-9.13-3.29-23.43-7-44.26-18.46-61.61-35.9-7.84-7.89-15.85-15.61-23.49-23.69C173.74,829.76,134,793.71,88.45,764.16c-48.56-31.52-99.81-40.94-156.29-24.78C-117,753.44-165.53,769-212.71,788.67a90.85,90.85,0,0,1-19.47,6.21c-9.33,1.6-13.92-2.37-14-11.79a46,46,0,0,1,2.42-14.91c9.08-27.88,22.82-53.38,39.53-77.38,9.53-13.68,19.79-26.87,27.17-42,8-16.34,7.78-32.67.38-49a192.16,192.16,0,0,0-14.79-27.32,148.51,148.51,0,0,1-21.05-49.22c-10.15-43.74-10.1-87.69-2.22-131.68,5.76-32.23,14.14-63.64,31.53-92a583.88,583.88,0,0,1,38.61-55.33C-111.45,202.11-97,154.44-98.13,101c-.63-29.57-5.14-58.38-11.83-86.94-8.37-35.79.43-64.69,31.5-86.14,47.53-32.81,98-59.49,153.29-76.8,13.45-4.22,27.43-6.62,40.52-12q766.91,0,1533.8-.16c5.89,0,6.9,1.53,6.88,7.07-.22,61.44-.13,122.88-.13,184.33-4.34-2.14-6.66-5.77-8.49-10.17-6.74-16.12-10-33.33-16.05-49.69-6.87-18.73-18.12-33.79-35.32-44s-35.37-16-55.62-12.39c-16.59,2.94-22.78,14.71-15.6,30.05,5.53,11.8,13.93,21.63,22.84,30.93,18.23,19,38.13,36.29,60.68,49.91,20.63,12.46,30.19,29,29.27,53.58-1.08,28.74.5,57.58.89,86.39.52,38.16,2.09,76.27,6.56,114.19C1647.12,296.69,1649.47,314.24,1655.9,330.88ZM753.33,153.31a57.9,57.9,0,0,0,46.43-22.66c15-19.85,8.09-39.3-16.07-43-22-3.37-43,1.77-61.22,14.28-18.08,12.38-17.19,30,.89,42.37A49.14,49.14,0,0,0,753.33,153.31Z" transform="translate(287.03 161.04)"/><path class="b" d="M890.94,931.92c-7-4.5-14.05-8.82-20.86-13.53-19.46-13.49-34.2-30.64-40.77-53.92-4.58-16.22,0-29.29,13.59-39.26,14.4-10.56,31.08-14.62,48.33-16.14,53.1-4.7,101.5,9.84,146.65,37,2.6,1.56,5.11,3.29,7.77,4.74,15.63,8.48,26.2,6.27,37.11-7.67,9.63-12.31,16.11-26.4,21.31-40.89,12-33.37,29.17-63.75,49.65-92.58,17.43-24.53,34.27-49.57,42.79-79,1.19-4.12,2.29-8.28,3.17-12.48,1-5,2.45-10.55-2-14.25s-9.77-1.54-14.43.33c-7.73,3.11-15.32,6.59-22.88,10.1-23.43,10.88-47.11,20.84-72.74,25.61-71.4,13.29-123.19-43.82-130.06-97.73-3.54-27.79,6.95-51,22.63-72.55,18.22-25,42.41-41.46,72.82-48.35,17.93-4.06,35.9-2.63,53.31,1.7,34.52,8.58,67.43,4.87,100.12-8.35,20.12-8.14,41-14.9,63-15.26,22.89-.38,40.58,9.31,50,30.35,11.84,26.59,27.6,50.42,45.61,73.1,13.32,16.79,20.47,36.15,22.75,57.73,3.42,32.47,20.84,58.66,40.4,83.53a204.19,204.19,0,0,0,35.19,35.44c17.49,13.55,32.13,11.53,45.54-6A119,119,0,0,0,1523.65,648c20.84-48.73,51.69-90.83,86.07-130.59,12.23-14.15,24.85-28,37.42-41.83,2.65-2.93,4.92-6.38,8.76-8.08q0,229.18.14,458.37c0,5.19-1,6.21-6.22,6.21Q1270.38,931.82,890.94,931.92Z" transform="translate(287.03 161.04)"/><path class="b" d="M115.35-160.88c-13.09,5.42-27.07,7.82-40.52,12C19.56-131.53-30.93-104.85-78.46-72-109.53-50.59-118.33-21.69-110,14.1c6.69,28.56,11.2,57.37,11.83,86.94,1.14,53.4-13.32,101.07-46.51,143.28a583.88,583.88,0,0,0-38.61,55.33c-17.39,28.31-25.77,59.72-31.53,92-7.88,44-7.93,87.94,2.22,131.68a148.51,148.51,0,0,0,21.05,49.22,192.16,192.16,0,0,1,14.79,27.32c7.4,16.34,7.61,32.67-.38,49-7.38,15.1-17.64,28.29-27.17,42-16.71,24-30.45,49.5-39.53,77.38a46,46,0,0,0-2.42,14.91c.12,9.42,4.71,13.39,14,11.79a90.85,90.85,0,0,0,19.47-6.21C-165.53,769-117,753.44-67.84,739.38c56.48-16.16,107.73-6.74,156.29,24.78C134,793.71,173.74,829.76,210.84,869c7.64,8.08,15.65,15.8,23.49,23.69,17.35,17.44,38.18,28.87,61.61,35.9,3.08.93,6.51,1,9.13,3.29q-292.44,0-584.89.12c-5.3,0-7.21-.57-7.21-6.73q.28-539.76,0-1079.51c0-6,1.72-6.82,7.13-6.81Q-82.26-160.77,115.35-160.88Z" transform="translate(287.03 161.04)"/><path class="b" d="M1655.9,330.88c-6.43-16.64-8.78-34.19-10.84-51.68-4.47-37.92-6-76-6.56-114.19-.39-28.81-2-57.65-.89-86.39.92-24.54-8.64-41.12-29.27-53.58-22.55-13.62-42.45-30.88-60.68-49.91-8.91-9.3-17.31-19.13-22.84-30.93-7.18-15.34-1-27.11,15.6-30,20.25-3.59,38.5,2.27,55.62,12.39s28.45,25.23,35.32,44c6,16.36,9.31,33.57,16.05,49.69,1.83,4.4,4.15,8,8.49,10.17Z" transform="translate(287.03 161.04)"/><path class="b" d="M753.33,153.31a49.14,49.14,0,0,1-30-9c-18.08-12.35-19-30-.89-42.37,18.27-12.51,39.22-17.65,61.22-14.28,24.16,3.69,31,23.14,16.07,43A57.9,57.9,0,0,1,753.33,153.31Z" transform="translate(287.03 161.04)"/></svg>