<svg xmlns="http://www.w3.org/2000/svg" viewBox="0 0 1367.03 769.02"><defs><style>.a{opacity:0;fill:#ffffff;}.b{fill:#ffffff;}</style></defs><title>1800f_00022</title><path class="a" d="M1367.52,359.72v80.44c-2.82-.87-4.84,1-7,2.19A995,995,0,0,0,1263,502c-27.17,18.8-51.42,40.4-63.89,72.07-11.39,28.9-21.89,58.17-30.26,88.07-9.83,35.07-11.77,71.13-10.74,107.4h-809c-13-24-29.53-45.24-50.71-62.68-35.86-29.52-77.4-47.23-121.93-58.77-9.29-2.41-18.62-4.82-27.66-8-13.4-4.69-14.5-10.37-3.88-19.49a172.84,172.84,0,0,1,17.8-12.87c17.53-11.49,36.26-21.15,52.86-34.1s30.15-27.77,34.34-49.23c2.55-13,2.34-26.19,1.34-39.3-3.32-43.67,3.31-85.07,26.38-123.15,19.52-32.21,32.72-67.17,43.07-103.26A57.5,57.5,0,0,0,323.13,237c-1.07-10.65-7.49-15.08-17.79-12.44-6.21,1.6-11.68,4.77-16.92,8.33-12,8.11-22.4,18.09-33.35,27.44-17.1,14.63-34.19,29.33-54,40.24-26.17,14.38-53,1.26-58.53-28.14-1.84-9.71-.69-19.18,1.11-28.58,6.16-32.11,5.35-63.81-4.44-95.15-8.51-27.26-16.87-54.57-25.49-81.79-2.75-8.67-6.16-17.1-11.19-24.81a12.24,12.24,0,0,0-12.17-6c-4.76.43-9.46,1.5-14.2,2.16C48.81,42,22.46,41.76,1.52,19.73c0-6.07-2.37-14.51.66-17.54s11.48-.67,17.55-.67H71.34c7.38,7.59,15,15,22.07,22.84,4.7,5.26,9.79,6,16.28,4.42A227.58,227.58,0,0,0,154.91,12C161.16,9,168,6.71,173,1.52H931.92c-.29,2.28,1.42,3.68,2.43,5.37,24.54,41.37,52.81,80.14,82.37,118,22.92,29.34,44.84,59.24,58.87,94.12,4,10,11.31,17.18,19.71,23.51,10.76,8.1,15.8,19.28,17.42,32.4,1.82,14.86,1.06,29.77,1.35,44.66.31,16.15-.77,32.35,1.1,48.46,2.42,20.74,8.76,24,26.34,12,29.6-20.17,62.26-31.56,97.23-38.2,37.59-7.14,73.78-5.11,108.93,10.73C1354.05,355.49,1360.41,358.75,1367.52,359.72ZM702.19,472.3c19.18-1.54,39.44,1.86,59.22,8.8a231.32,231.32,0,0,0,37.27,10c18.51,3.19,37.18,5.32,55.34-1.5C871.57,483,875.86,470,864.59,455.2c-14.53-19.07-29.54-37.86-47.27-54.17-18.58-17.1-40.46-24.11-65.6-20.49-23.62,3.41-46.05,11.3-68.5,18.82-15.79,5.28-27.69,16.48-37,30.12-9,13.07-6.15,25.73,7.25,34.36a53.07,53.07,0,0,0,16,6.62C679.67,473,690.05,472.12,702.19,472.3Zm3.16,133.62c21.15-.29,40.12-6.62,56.28-20.6,3.87-3.35,6.83-7.28,8-12.49,3-12.74-4.51-25.16-19.85-30.59-35.93-12.71-59.83.8-77.51,34.23-5.43,10.28-1.06,19.87,9.43,25.17C689.16,605.39,697.17,606.06,705.35,605.92Zm385.46-91.09c-.86.11-4.09-.11-6.8,1-22.4,8.91-36.59,25.83-43.41,48.31-3.88,12.78,3.58,21.07,17,19.56,24.71-2.76,43.49-15.61,55.15-37.6C1121.44,529.75,1111.66,515,1090.81,514.83Zm-89.87-179c0,6.35,4.07,9.08,10.26,5.55,17-9.66,26.73-24.81,30.39-43.76,1-5.42-2.75-8-7.9-6.41C1020.56,295.34,1001,322,1000.94,335.86Z" transform="translate(-0.64 -0.64)"/><path class="b" d="M1.52,19.73C22.46,41.76,48.81,42,76.13,38.22c4.74-.66,9.44-1.73,14.2-2.16a12.24,12.24,0,0,1,12.17,6c5,7.71,8.44,16.14,11.19,24.81,8.62,27.22,17,54.53,25.49,81.79,9.79,31.34,10.6,63,4.44,95.15-1.8,9.4-3,18.87-1.11,28.58,5.57,29.4,32.36,42.52,58.53,28.14,19.84-10.91,36.93-25.61,54-40.24,10.95-9.35,21.38-19.33,33.35-27.44,5.24-3.56,10.71-6.73,16.92-8.33,10.3-2.64,16.72,1.79,17.79,12.44a57.5,57.5,0,0,1-2.43,21.73c-10.35,36.09-23.55,71.05-43.07,103.26-23.07,38.08-29.7,79.48-26.38,123.15,1,13.11,1.21,26.27-1.34,39.3-4.19,21.46-17.84,36.36-34.34,49.23s-35.33,22.61-52.86,34.1a172.84,172.84,0,0,0-17.8,12.87c-10.62,9.12-9.52,14.8,3.88,19.49,9,3.17,18.37,5.58,27.66,8,44.53,11.54,86.07,29.25,121.93,58.77,21.18,17.44,37.69,38.64,50.71,62.68q-170.74,0-341.5.14c-5.2,0-6.22-1-6.22-6.22Q1.63,391.59,1.52,19.73Z" transform="translate(-0.64 -0.64)"/><path class="b" d="M1367.52,359.72c-7.11-1-13.47-4.23-19.85-7.1-35.15-15.84-71.34-17.87-108.93-10.73-35,6.64-67.63,18-97.23,38.2-17.58,12-23.92,8.69-26.34-12-1.87-16.11-.79-32.31-1.1-48.46-.29-14.89.47-29.8-1.35-44.66-1.62-13.12-6.66-24.3-17.42-32.4-8.4-6.33-15.7-13.55-19.71-23.51-14-34.88-35.95-64.78-58.87-94.12C987.16,87,958.89,48.26,934.35,6.89c-1-1.69-2.72-3.09-2.43-5.37h83.47c.52,2.46,1,4.93,1.57,7.36,5.8,23.69,30.11,33.66,50.86,20.75,10.71-6.66,16.93-16.94,21.94-28.11H1246.1c1.6,3.14,4.85,4.32,7.54,6,25.31,16.15,40,37.89,40.1,69.14.1,21.72,6.71,42.2,18.85,60.59,13.76,20.88,30.73,37.89,54.93,46.36Z" transform="translate(-0.64 -0.64)"/><path class="b" d="M1158.06,769.52c-1-36.27.91-72.33,10.74-107.4,8.37-29.9,18.87-59.17,30.26-88.07,12.47-31.67,36.72-53.27,63.89-72.07a995,995,0,0,1,97.59-59.63c2.14-1.14,4.16-3.06,7-2.19q0,161.64.14,323.28c0,5.2-1,6.24-6.21,6.22C1293.65,769.44,1225.86,769.52,1158.06,769.52Z" transform="translate(-0.64 -0.64)"/><path class="a" d="M1367.52,183.65c-24.2-8.47-41.17-25.48-54.93-46.36-12.14-18.39-18.75-38.87-18.85-60.59-.14-31.25-14.79-53-40.1-69.14-2.69-1.72-5.94-2.9-7.54-6,38.7,0,77.4.1,116.1-.13,4.54,0,5.46.91,5.45,5.44C1367.45,65.77,1367.52,124.71,1367.52,183.65Z" transform="translate(-0.64 -0.64)"/><path class="a" d="M1089.76,1.52c-5,11.17-11.23,21.45-21.94,28.11-20.75,12.91-45.06,2.94-50.86-20.75-.6-2.43-1.05-4.9-1.57-7.36Z" transform="translate(-0.64 -0.64)"/><path class="b" d="M173,1.52C168,6.71,161.16,9,154.91,12a227.58,227.58,0,0,1-45.22,16.74c-6.49,1.62-11.58.84-16.28-4.42C86.35,16.47,78.72,9.11,71.34,1.52Z" transform="translate(-0.64 -0.64)"/><path class="b" d="M702.19,472.3c-12.14-.18-22.52.74-32.72-1.84a53.07,53.07,0,0,1-16-6.62c-13.4-8.63-16.21-21.29-7.25-34.36,9.34-13.64,21.24-24.84,37-30.12,22.45-7.52,44.88-15.41,68.5-18.82,25.14-3.62,47,3.39,65.6,20.49,17.73,16.31,32.74,35.1,47.27,54.17,11.27,14.8,7,27.79-10.57,34.38-18.16,6.82-36.83,4.69-55.34,1.5a231.32,231.32,0,0,1-37.27-10C741.63,474.16,721.37,470.76,702.19,472.3Z" transform="translate(-0.64 -0.64)"/><path class="b" d="M705.35,605.92c-8.18.14-16.19-.53-23.61-4.28-10.49-5.3-14.86-14.89-9.43-25.17C690,543,713.89,529.53,749.82,542.24c15.34,5.43,22.81,17.85,19.85,30.59-1.21,5.21-4.17,9.14-8,12.49C745.47,599.3,726.5,605.63,705.35,605.92Z" transform="translate(-0.64 -0.64)"/><path class="b" d="M1090.81,514.83c20.85.12,30.63,14.92,22,31.24-11.66,22-30.44,34.84-55.15,37.6-13.46,1.51-20.92-6.78-17-19.56,6.82-22.48,21-39.4,43.41-48.31C1086.72,514.72,1090,514.94,1090.81,514.83Z" transform="translate(-0.64 -0.64)"/><path class="b" d="M1000.94,335.86c.07-13.87,19.62-40.52,32.75-44.62,5.15-1.6,8.94,1,7.9,6.41-3.66,19-13.43,34.1-30.39,43.76C1005,344.94,1000.91,342.21,1000.94,335.86Z" transform="translate(-0.64 -0.64)"/></svg>