<svg xmlns="http://www.w3.org/2000/svg" viewBox="0 0 1943.07 1093.1"><defs><style>.a{opacity:0;fill:#ffffff;}.b{fill:#ffffff;}</style></defs><title>1800f_00171</title><path class="a" d="M1655.9,186.69V300.52c-5.94-.21-11-3.39-16.71-4.62-37.21-8.1-74.64-8.85-112.27-3.76-10,1.36-19.92,3.32-29.4,7.1-22.57,9-36,27.19-47.4,47.22-18.94,33.17-34.07,68.31-52.08,102-19.44,36.33-38.42,72.89-64,105.58-44.62,57.11-102.09,83.23-174.69,73.42-6.11-.82-13.77-.74-16.53-7.25-2.94-6.91,3.34-11.67,7.51-16.1,12-12.8,22-27.07,30.81-42.13,7.09-12.09,12.61-24.82,13.27-39.11,1-21.72-9.47-38.62-24.06-52.94-34.81-34.17-68.34-69.73-106.88-99.93a86,86,0,0,1-25.39-31.65,180.29,180.29,0,0,0-11.65-21.26c-10.39-16.16-26-21.83-44.44-20.2-26.56,2.35-51,12.22-75.32,22.3C849.19,343,790.13,351.12,728.61,338.5c-27.6-5.66-54-15.08-80.74-23.52-22.24-7-44.64-13.17-68.37-11.48-28.74,2-41.91,22.3-31.49,49.07,6.17,15.83,16.87,28.75,28.53,40.76C617,435,664.8,466.45,717.13,491.12c74.37,35.07,151.43,53.13,234,36.3,11.18-2.27,22.08.24,32,6.35,14.46,8.88,25.44,21.54,36.66,33.85,16.61,18.22,35.86,32.59,58.47,42.45,7.18,3.14,14.37,6.24,21.47,9.54,13.22,6.14,14.29,11.52,4.34,22.09a210.08,210.08,0,0,1-47.13,37.93c-32.82,19.13-64.55,39.78-94,63.94-15.85,13-32.46,25-51.12,33.81-12.2,5.76-24.8,8.65-38.23,5.15-11.62-3-22-9-32.5-14.48-49.79-26.17-105.22.36-130.13,26.3-11.54,12-12.51,20.61-5.07,35.83a239.38,239.38,0,0,0,25.26,40.43c16.33,21.33,37.2,35.38,64.43,36.55,23.09,1,41.51,11.2,58.9,24.76H335.43c.81-3.42-1.59-5.7-3.06-8.23-17.45-30.17-45.11-46.19-77.46-55.53-30.84-8.9-62.5-11.56-94.43-12.42-26.27-.71-52.45-2.26-78.4-7.3-37.91-7.36-62.54-27.94-70-66.91-1.28-6.69-3.41-13.24-4.47-20-8.18-51.59-30.95-95.7-67-133.38q-33-34.53-64.76-70.27c-24.86-28.08-24.87-41.34-2.29-71.22,16.6-22,35.68-42,50.4-65.45,25-39.85,31.79-80.49,5.23-122.51-16.7-26.42-38.75-44.93-71.92-41.58-26.45,2.67-41.91-14.14-47.62-32.16-7.89-24.85-7.92-49.2,4.84-72.71C-170.06,123.92-165,94-171.16,62.1-175,41.92-181.44,22.52-187.37,2.94c-5.64-18.62-11.44-37.18-9.06-57.18,3.05-25.65,14.72-47.53,28.68-68.55,9.55-14.38,21.31-26.73,34.19-38.09H1180.83c.12,6.83,5.3,11.16,8.37,16.46,28.57,49.22,57.8,98,93,142.94a975.94,975.94,0,0,1,61.65,88.26c13.7,22.14,27.18,44.42,43.39,64.89,24.58,31,55.54,48.12,96.1,43.86,16.83-1.77,33.59-4.2,50.35-6.54C1574.33,183.32,1615,179.34,1655.9,186.69Z" transform="translate(287 161.03)"/><path class="b" d="M854.51,931.92c-17.39-13.56-35.81-23.76-58.9-24.76-27.23-1.17-48.1-15.22-64.43-36.55a239.38,239.38,0,0,1-25.26-40.43c-7.44-15.22-6.47-23.82,5.07-35.83,24.91-25.94,80.34-52.47,130.13-26.3,10.49,5.52,20.88,11.45,32.5,14.48,13.43,3.5,26,.61,38.23-5.15,18.66-8.82,35.27-20.79,51.12-33.81,29.4-24.16,61.13-44.81,94-63.94a210.08,210.08,0,0,0,47.13-37.93c10-10.57,8.88-16-4.34-22.09-7.1-3.3-14.29-6.4-21.47-9.54-22.61-9.86-41.86-24.23-58.47-42.45-11.22-12.31-22.2-25-36.66-33.85-9.94-6.11-20.84-8.62-32-6.35-82.53,16.83-159.59-1.23-234-36.3C664.8,466.45,617,435,576.54,393.33c-11.66-12-22.36-24.93-28.53-40.76-10.42-26.77,2.75-47,31.49-49.07,23.73-1.69,46.13,4.46,68.37,11.48,26.74,8.44,53.14,17.86,80.74,23.52,61.52,12.62,120.58,4.52,178.1-19.33,24.28-10.08,48.76-19.95,75.32-22.3,18.43-1.63,34.05,4,44.44,20.2a180.29,180.29,0,0,1,11.65,21.26A86,86,0,0,0,1063.51,370c38.54,30.2,72.07,65.76,106.88,99.93,14.59,14.32,25.06,31.22,24.06,52.94-.66,14.29-6.18,27-13.27,39.11-8.84,15.06-18.79,29.33-30.81,42.13-4.17,4.43-10.45,9.19-7.51,16.1,2.76,6.51,10.42,6.43,16.53,7.25,72.6,9.81,130.07-16.31,174.69-73.42,25.54-32.69,44.52-69.25,64-105.58,18-33.67,33.14-68.81,52.08-102,11.44-20,24.83-38.24,47.4-47.22,9.48-3.78,19.37-5.74,29.4-7.1,37.63-5.09,75.06-4.34,112.27,3.76,5.67,1.23,10.77,4.41,16.71,4.62V387c-10.24,22.52-21.06,44.73-34.1,65.81-30.8,49.81-53.47,102.57-57.55,161.86-1.49,21.7.55,42.95,10.81,62.66,9.39,18,24.17,25.46,43.93,21.75,6.41-1.21,12.56-3.76,18.84-5.65s11.53-6.22,18.07-7.43q0,119.9.14,239.81c0,5.19-1,6.22-6.22,6.21q-267.88-.25-535.77-.14c-10.36-18.06-27.8-23.45-42.21-21.66-22.83,2.84-43.33,12.56-64,21.66Z" transform="translate(287 161.03)"/><path class="b" d="M-133.56-160.88c-12.88,11.36-24.64,23.71-34.19,38.09-14,21-25.63,42.9-28.68,68.55-2.38,20,3.42,38.56,9.06,57.18,5.93,19.58,12.34,39,16.21,59.16,6.12,31.9,1.1,61.82-14.29,90.19-12.76,23.51-12.73,47.86-4.84,72.71,5.71,18,21.17,34.83,47.62,32.16,33.17-3.35,55.22,15.16,71.92,41.58,26.56,42,19.81,82.66-5.23,122.51-14.72,23.42-33.8,43.48-50.4,65.45-22.58,29.88-22.57,43.14,2.29,71.22q31.66,35.76,64.76,70.27c36,37.68,58.79,81.79,67,133.38,1.06,6.72,3.19,13.27,4.47,20,7.43,39,32.06,59.55,70,66.91,26,5,52.13,6.59,78.4,7.3,31.93.86,63.59,3.52,94.43,12.42,32.35,9.34,60,25.36,77.46,55.53,1.47,2.53,3.87,4.81,3.06,8.23q-307.73,0-615.46.14c-5.69,0-7-1.28-7-7q.24-539.58,0-1079.14c0-5.69,1.27-7,7-7C-231.21-160.77-182.39-160.88-133.56-160.88Z" transform="translate(287 161.03)"/><path class="b" d="M1655.9,186.69c-40.9-7.35-81.57-3.37-122.22,2.3-16.76,2.34-33.52,4.77-50.35,6.54-40.56,4.26-71.52-12.85-96.1-43.86-16.21-20.47-29.69-42.75-43.39-64.89a975.94,975.94,0,0,0-61.65-88.26c-35.19-44.93-64.42-93.72-93-142.94-3.07-5.3-8.25-9.63-8.37-16.46h135.08c7.44,10.83,14.68,21.8,22.35,32.46,24.18,33.6,51.38,64.47,84.24,89.9,35.41,27.4,75.6,38.06,119.78,30.86C1575-13,1598-33.77,1617.63-58.82c14.37-18.28,26.44-38.08,38.27-58Z" transform="translate(287 161.03)"/><path class="a" d="M1655.9-116.87c-11.83,20-23.9,39.77-38.27,58.05C1598-33.77,1575-13,1542.28-7.66c-44.18,7.2-84.37-3.46-119.78-30.86-32.86-25.43-60.06-56.3-84.24-89.9-7.67-10.66-14.91-21.63-22.35-32.46q167,0,333.91-.15c5.2,0,6.43,1,6.23,6.22C1655.57-142.18,1655.9-129.51,1655.9-116.87Z" transform="translate(287 161.03)"/><path class="a" d="M1655.9,686c-6.54,1.21-11.8,5.55-18.07,7.43s-12.43,4.44-18.84,5.65c-19.76,3.71-34.54-3.72-43.93-21.75-10.26-19.71-12.3-41-10.81-62.66,4.08-59.29,26.75-112,57.55-161.86,13-21.08,23.86-43.29,34.1-65.81Z" transform="translate(287 161.03)"/><path class="a" d="M1007.8,931.92c20.71-9.1,41.21-18.82,64-21.66,14.41-1.79,31.85,3.6,42.21,21.66Z" transform="translate(287 161.03)"/></svg>