<svg xmlns="http://www.w3.org/2000/svg" viewBox="0 0 1943.07 1093.11"><defs><style>.a{opacity:0;fill:#ffffff;}.b{fill:#ffffff;}</style></defs><title>1800f_00327</title><path class="a" d="M1391.8,931.92H63.75C41.41,882.37,19.49,832.61-7.45,785.3c-13.26-23.27-25-47.42-40.44-69.41-10.28-14.66-23.75-24.4-42.48-23.11-21.43,1.48-35.72-9.29-47.73-25.25-15.28-20.32-27.32-42.46-37.11-65.81-6.22-14.83-12.64-29.76-12.07-46.46.29-8.45,3.95-12.42,12.58-12.3,7.3.11,14.57,1.17,21.87,1.36,13.38.35,19.77-6.15,20.33-19.46.64-15.06-3.67-29-9.27-42.58-6.63-16.06-12.49-32.67-24.93-45.56-9-9.31-15.33-9.1-24.54-.33-7.59,7.22-12.38,16.53-19,24.44-18.75,22.34-22.5,29.35-55.74,15.32-6.94-2.93-13.53-6.71-20.87-8.67V324.81a99.18,99.18,0,0,1,37.12,18.35c12.12,9.42,23.82,19.36,35.87,28.87a220.59,220.59,0,0,0,20.2,14.67c8.12,5,13.79,3.91,20.09-3.3,5.7-6.53,9.55-14.25,13.15-22.07,11-23.89,20.22-48.53,31.36-72.37,14.14-30.24,32.63-56.8,59.22-77.6,20.52-16.07,42.63-29.91,62.77-46.49,30.15-24.83,34-46.4,14.23-80C.52,73.53-7.29,62.77-10.92,49.9c-1.39-4.93-2.89-10,1.55-14.18s9.91-2.85,15-1C13.28,37.43,20,41.92,26.42,46.92,41.69,58.83,54.23,73.42,66.71,88c18.55,21.7,40.58,36.84,69.77,40.33A360.88,360.88,0,0,0,188.63,131a592.47,592.47,0,0,0,195.45-38.2c40.27-15.2,79.55-32.45,115.62-56.4C527.39,18,543.86-7.43,550.19-39.79a174.71,174.71,0,0,0,3-30.15c.59-30.32,3.14-60.59,2.36-90.94h214c-.16,1.22,0,2.64-.54,3.64-11.23,20-12.4,41.33-8.63,63.26,4.5,26.15,9.66,52.21,8,79a18.7,18.7,0,0,0,.58,4.5C771.19,1.33,777.8,5.84,789.55,3.4c13.8-2.86,24.87-11,35.76-19.22,18-13.61,33.63-29.88,50.68-44.55,13.21-11.38,27.37-21,45.34-22.71,14.53-1.37,28.73,1.27,42.72,4.92,22.9,6,46.13,9,69.79,7.84,39.18-2,78.24-1.81,117.26,3.4,85.78,11.44,169.05,32.74,250.1,62.8,19.72,7.31,38.77,16.24,53.85,31.63,9.4,9.6,14.11,20.8,11.2,34.46-1.42,6.67-2.9,13.33-4.13,20-5.11,27.66,3.34,44.75,28.51,56.66,15.27,7.22,27.25,18.23,37.68,31.1,20.14,24.85,32.58,54,45.51,82.83,11.47,25.57,24.75,49.89,45.38,69.31,10.46,9.85,21.48,19.28,36.7,21.12V745.23c-11.36,7.08-22.64,14.28-34.08,21.21-24.53,14.87-49.12,15.74-75.86,4.06-45.15-19.73-85.46-46.46-123.6-77.31-37-29.94-64.51-65.57-76.81-112.42-5.63-21.44-13.21-42.48-23.9-62.16-17.2-31.66-40.86-40.34-74.11-27-14.38,5.76-27.65,13.64-40.59,22-30.31,19.67-60.68,39.19-86,65.63-23,24.09-30.72,52.61-27.5,85,4.06,40.82,18.18,78.61,35.14,115.46s43.64,61.31,85.52,66.59A129.28,129.28,0,0,1,1254,858c44,21.17,86.66,44.77,130,67.21C1387,926.76,1390.52,928.15,1391.8,931.92ZM975.7,22.63c.11-17.12-10.4-23.12-25.3-17-25.58,10.46-45.66,46.57-41.11,74,2.57,15.51,13.28,20.23,26.29,11.37,12.76-8.69,20.14-21.73,27.25-34.86C969,44.73,975.18,33.38,975.7,22.63Z" transform="translate(287 161.03)"/><path class="b" d="M555.51-160.88c.78,30.35-1.77,60.62-2.36,90.94a174.71,174.71,0,0,1-3,30.15C543.86-7.43,527.39,18,499.7,36.41c-36.07,24-75.35,41.2-115.62,56.4A592.47,592.47,0,0,1,188.63,131a360.88,360.88,0,0,1-52.15-2.65C107.29,124.87,85.26,109.73,66.71,88c-12.48-14.61-25-29.2-40.29-41.11-6.41-5-13.14-9.49-20.83-12.24-5-1.81-10.37-3.27-15,1S-12.31,45-10.92,49.9C-7.29,62.77.52,73.53,7.15,84.83c19.74,33.64,15.92,55.21-14.23,80-20.14,16.58-42.25,30.42-62.77,46.49-26.59,20.8-45.08,47.36-59.22,77.6-11.14,23.84-20.37,48.48-31.36,72.37-3.6,7.82-7.45,15.54-13.15,22.07-6.3,7.21-12,8.34-20.09,3.3A220.59,220.59,0,0,1-213.87,372c-12-9.51-23.75-19.45-35.87-28.87a99.18,99.18,0,0,0-37.12-18.35q0-239.61-.14-479.23c0-5.42,1.05-6.62,6.57-6.61q216.86.28,433.73.15c1.17.9,2.22,2.12,3.55,2.65,46.58,18.81,94.59,24.61,144,14.66,14.55-2.93,28.68-7.82,40.63-17.31Z" transform="translate(287 161.03)"/><path class="b" d="M1655.9,343c-15.22-1.84-26.24-11.27-36.7-21.12-20.63-19.42-33.91-43.74-45.38-69.31-12.93-28.81-25.37-58-45.51-82.83-10.43-12.87-22.41-23.88-37.68-31.1-25.17-11.91-33.62-29-28.51-56.66,1.23-6.7,2.71-13.36,4.13-20,2.91-13.66-1.8-24.86-11.2-34.46C1440,12.12,1420.92,3.19,1401.2-4.12c-81-30.06-164.32-51.36-250.1-62.8-39-5.21-78.08-5.4-117.26-3.4-23.66,1.2-46.89-1.86-69.79-7.84-14-3.65-28.19-6.29-42.72-4.92-18,1.69-32.13,11.33-45.34,22.71-17,14.67-32.72,30.94-50.68,44.55C814.42-7.56,803.35.54,789.55,3.4c-11.75,2.44-18.36-2.07-20.63-13.91a18.7,18.7,0,0,1-.58-4.5c1.66-26.76-3.5-52.82-8-79-3.77-21.93-2.6-43.3,8.63-63.26.56-1,.38-2.42.54-3.64q439.92,0,879.83-.13c5.19,0,6.73.71,6.73,6.47Q1655.74,94.23,1655.9,343Z" transform="translate(287 161.03)"/><path class="b" d="M1391.8,931.92c-1.28-3.77-4.84-5.16-7.81-6.7-43.3-22.44-86-46-130-67.21a129.28,129.28,0,0,0-39.87-11.74c-41.88-5.28-68.57-29.75-85.52-66.59S1097.56,705,1093.5,664.22c-3.22-32.36,4.46-60.88,27.5-85,25.27-26.44,55.64-46,86-65.63,12.94-8.4,26.21-16.28,40.59-22,33.25-13.31,56.91-4.63,74.11,27,10.69,19.68,18.27,40.72,23.9,62.16,12.3,46.85,39.78,82.48,76.81,112.42,38.14,30.85,78.45,57.58,123.6,77.31,26.74,11.68,51.33,10.81,75.86-4.06,11.44-6.93,22.72-14.13,34.08-21.21,0,60.46-.07,120.92.12,181.38,0,4.52-.91,5.44-5.44,5.43Q1521.19,931.79,1391.8,931.92Z" transform="translate(287 161.03)"/><path class="b" d="M-286.86,467.48c7.34,2,13.93,5.74,20.87,8.67,33.24,14,37,7,55.74-15.32,6.63-7.91,11.42-17.22,19-24.44,9.21-8.77,15.55-9,24.54.33,12.44,12.89,18.3,29.5,24.93,45.56,5.6,13.57,9.91,27.52,9.27,42.58-.56,13.31-6.95,19.81-20.33,19.46-7.3-.19-14.57-1.25-21.87-1.36-8.63-.12-12.29,3.85-12.58,12.3-.57,16.7,5.85,31.63,12.07,46.46,9.79,23.35,21.83,45.49,37.11,65.81,12,16,26.3,26.73,47.73,25.25,18.73-1.29,32.2,8.45,42.48,23.11,15.42,22,27.18,46.14,40.44,69.41,26.94,47.31,48.86,97.07,71.2,146.62q-172.11,0-344.22.16c-5.61,0-6.53-1.34-6.53-6.66Q-286.74,696.45-286.86,467.48Z" transform="translate(287 161.03)"/><path class="a" d="M341.5-160.88c-11.95,9.49-26.08,14.38-40.63,17.31-49.43,9.95-97.44,4.15-144-14.66-1.33-.53-2.38-1.75-3.55-2.65Z" transform="translate(287 161.03)"/><path class="b" d="M975.7,22.63c-.52,10.75-6.74,22.1-12.87,33.42-7.11,13.13-14.49,26.17-27.25,34.86-13,8.86-23.72,4.14-26.29-11.37-4.55-27.38,15.53-63.49,41.11-73.95C965.3-.49,975.81,5.51,975.7,22.63Z" transform="translate(287 161.03)"/></svg>