<svg xmlns="http://www.w3.org/2000/svg" viewBox="0 0 1943.07 1093.15"><defs><style>.a{opacity:0;fill:#ffffff;}.b{fill:#ffffff;}</style></defs><title>1800f_00213</title><path class="a" d="M-286.86,367.3v-82a16.68,16.68,0,0,1,3.58,1C-256.77,300-229.91,313-204.7,329.06c26.1,16.66,54.65,24.57,85.75,22.66,36.69-2.26,72.51-9.39,108.35-17.36,38.69-8.6,74.91-22.28,108.68-43,20.88-12.83,42.23-25,65-34.27,21.87-8.89,44.26-17.23,68.2-15.17,17.89,1.54,33.41-3.11,48.54-11.28,21-11.33,39.94-25.74,59.55-39.16,33.29-22.78,64.76-47.83,90.4-79.22C451.55,85.6,473,58.77,496.22,33.36c30.93-33.85,57-71.57,84.48-108.16,9.56-12.73,19.3-25.44,32.4-34.89,14.82-10.7,26.88-8.93,38.23,5.24,7.84,9.78,13.36,20.88,17.93,32.41,8.85,22.31,17.12,44.86,26,67.15C708,27.05,728.37,52.75,758,70.86c45.11,27.54,94.41,40.88,146.8,43,44.28,1.83,88.41-2.07,132.53-5.42,23.93-1.82,47.89-3.72,71.91-.64,21.54,2.76,38.27,12.27,47.78,32.58,4.29,9.15,8.89,18.16,13.12,27.35,14.66,31.87,32.52,61.69,55.83,88.09a433.36,433.36,0,0,1,44,58.88c20.57,33.27,32.55,69.89,43.12,107.24,8.5,30,19.74,59.06,40.63,83.15,8.25,9.51,17.88,17.22,30.56,20,16,3.54,29.53-2.93,41.48-12.3a684,684,0,0,0,74.69-67.65,94.44,94.44,0,0,0,24.23-47.31c3.26-16.44,3.3-33.14,4.16-49.75.68-13.15,3.68-25.44,10.28-36.83,10.94-18.86,28.66-19.61,40.87-1.69a65.17,65.17,0,0,1,4.25,7.16c13.8,27.11,17.48,56.15,16.4,86.11-.43,11.88-1.87,23.95.32,35.6,6.77,36,29.47,62.31,55,86.66q0,200,.14,399.94c0,5.69-1.28,7-7,7q-920.92-.22-1841.83-.14c.29-1.23.5-2.48.88-3.68,14-45.14,30.46-89.47,44.1-134.74C-138,761-129.48,728.34-127,694.32c1.9-26.25,1.76-52.55,2.7-78.82.52-14.46,2.16-28.94,8.44-42.12,15.78-33.1,35.7-63.47,62.2-89.07C-36.5,467.73-17,457,8,465c14.45,4.61,26.9,12.78,37.82,23.24,33.67,32.26,55.44,72.48,75.65,113.69,22.27,45.42,44.14,91.06,73.44,132.56,11.82,16.74,24,33.35,41.17,45.17,22.12,15.21,41.52,10,53.62-14.16,10.5-21,12-43.51,8.58-66-6.15-40.49-10-81.25-15.94-121.75-5.75-39.29-12.67-78.29-25.5-116.07C242.32,419,214.31,390.89,171,377.93A445.92,445.92,0,0,0,105,364c-23.14-3.25-45.38-.23-66.95,8.3-9.63,3.81-19.26,7.74-28.51,12.4-30.3,15.26-60.76,16.64-92.18,3.24-14.16-6-29.11-10.17-43.57-15.5-32.13-11.86-65.11-12.69-98.7-9C-245.44,365.7-266.07,368.19-286.86,367.3ZM860.79,416.42c21.72-.81,41.71-6.12,59.82-16.8,26.83-15.83,48-38.48,69.31-60.68,8.21-8.54,15.69-17.88,20.64-28.81,6-13.31,2.29-23.71-10.6-30.32-20.76-10.66-42.51-10.24-64.25-4.5-34.3,9.06-64,27.32-91.86,48.6a78.93,78.93,0,0,0-24.61,32.24c-5.16,12.06-6.93,24.38-1.21,36.72C826.61,411.37,843.22,415.36,860.79,416.42Z" transform="translate(286.99 161.03)"/><path class="b" d="M1655.9,525.15c-25.48-24.35-48.18-50.62-55-86.66-2.19-11.65-.75-23.72-.32-35.6,1.08-30-2.6-59-16.4-86.11a65.17,65.17,0,0,0-4.25-7.16c-12.21-17.92-29.93-17.17-40.87,1.69-6.6,11.39-9.6,23.68-10.28,36.83-.86,16.61-.9,33.31-4.16,49.75a94.44,94.44,0,0,1-24.23,47.31,684,684,0,0,1-74.69,67.65c-12,9.37-25.44,15.84-41.48,12.3-12.68-2.8-22.31-10.51-30.56-20C1332.82,481,1321.58,452,1313.08,422c-10.57-37.35-22.55-74-43.12-107.24a433.36,433.36,0,0,0-44-58.88c-23.31-26.4-41.17-56.22-55.83-88.09-4.23-9.19-8.83-18.2-13.12-27.35-9.51-20.31-26.24-29.82-47.78-32.58-24-3.08-48-1.18-71.91.64-44.12,3.35-88.25,7.25-132.53,5.42-52.39-2.16-101.69-15.5-146.8-43-29.64-18.11-50-43.81-62.73-75.75-8.9-22.29-17.17-44.84-26-67.15-4.57-11.53-10.09-22.63-17.93-32.41-11.35-14.17-23.41-15.94-38.23-5.24-13.1,9.45-22.84,22.16-32.4,34.89C553.22-38.21,527.15-.49,496.22,33.36,473,58.77,451.55,85.6,429.79,112.22c-25.64,31.39-57.11,56.44-90.4,79.22-19.61,13.42-38.57,27.83-59.55,39.16-15.13,8.17-30.65,12.82-48.54,11.28-23.94-2.06-46.33,6.28-68.2,15.17-22.79,9.27-44.14,21.44-65,34.27-33.77,20.76-70,34.44-108.68,43-35.84,8-71.66,15.1-108.35,17.36-31.1,1.91-59.65-6-85.75-22.66-25.21-16.1-52.07-29.11-78.58-42.77a16.68,16.68,0,0,0-3.58-1V182.14c14.05-8,28.49-15.42,42.07-24.16C-204.24,131.9-191,94.66-204.72,48.55c-3.17-10.61-7.29-21-8.45-32.17-.85-8.29,1.33-14.82,8.34-19.61a116.28,116.28,0,0,1,23.56-12.09c19.77-7.74,39.72-15,59.42-22.91C-84.93-53-54.27-74.76-39.57-113.83c5.77-15.35,12.24-30.47,13.77-47H212.49c6.2,19.62,13.32,38.83,27.65,54.23,16.75,18,34.39,20,54.9,6.42,15.67-10.34,27.45-24.55,38.31-39.55,4.81-6.64,10.79-12.68,12.7-21.1q651.27,0,1302.52-.15c5.9,0,7.52.83,7.51,7.24Q1655.75,185.68,1655.9,525.15Zm-315.61-514c-.15,18,8.5,27.33,23.16,27.72A50.11,50.11,0,0,0,1401.07,24c12.4-12.25,10.89-30.95-3-39.9-11.85-7.61-24.73-9.31-37.37-2.55C1347.74-11.56,1341-.11,1340.29,11.15Z" transform="translate(286.99 161.03)"/><path class="b" d="M-286.86,367.3c20.79.89,41.42-1.6,62-3.87,33.59-3.7,66.57-2.87,98.7,9,14.46,5.33,29.41,9.47,43.57,15.5,31.42,13.4,61.88,12,92.18-3.24,9.25-4.66,18.88-8.59,28.51-12.4,21.57-8.53,43.81-11.55,67-8.3A445.92,445.92,0,0,1,171,377.93c43.36,13,71.37,41.08,85.86,83.74,12.83,37.78,19.75,76.78,25.5,116.07,5.92,40.5,9.79,81.26,15.94,121.75,3.42,22.45,1.92,45-8.58,66-12.1,24.14-31.5,29.37-53.62,14.16-17.19-11.82-29.35-28.43-41.17-45.17-29.3-41.5-51.17-87.14-73.44-132.56-20.21-41.21-42-81.43-75.65-113.69C34.87,477.73,22.42,469.56,8,465-17,457-36.5,467.73-53.68,484.31c-26.5,25.6-46.42,56-62.2,89.07-6.28,13.18-7.92,27.66-8.44,42.12-.94,26.27-.8,52.57-2.7,78.82-2.46,34-11,66.67-20.76,99.18-13.64,45.27-30.09,89.6-44.1,134.74-.38,1.2-.59,2.45-.88,3.68-29.27,0-58.55-.24-87.82.19-5.93.09-6.4-1.77-6.39-6.79q.24-113.57.11-227.14a150.07,150.07,0,0,0,21.3-33.76,310.31,310.31,0,0,0,21.84-63.52c7.89-35.07-7.36-60.16-43.14-83.34Z" transform="translate(286.99 161.03)"/><path class="a" d="M-25.8-160.88c-1.53,16.58-8,31.7-13.77,47.05C-54.27-74.76-84.93-53-121.85-38.23c-19.7,7.89-39.65,15.17-59.42,22.91A116.28,116.28,0,0,0-204.83-3.23c-7,4.79-9.19,11.32-8.34,19.61,1.16,11.2,5.28,21.56,8.45,32.17,13.76,46.11.48,83.35-40.07,109.43-13.58,8.74-28,16.14-42.07,24.16V-1.52c9.34-7.77,9.34-25.42,0-33.39,0-40.22.09-80.44-.13-120.66,0-4.53.92-5.45,5.44-5.44Q-153.68-160.75-25.8-160.88Z" transform="translate(286.99 161.03)"/><path class="a" d="M346.05-160.88c-1.91,8.42-7.89,14.46-12.7,21.1-10.86,15-22.64,29.21-38.31,39.55-20.51,13.55-38.15,11.58-54.9-6.42-14.33-15.4-21.45-34.61-27.65-54.23Z" transform="translate(286.99 161.03)"/><path class="a" d="M-286.86,517.56c35.78,23.18,51,48.27,43.14,83.34a310.31,310.31,0,0,1-21.84,63.52,150.07,150.07,0,0,1-21.3,33.76Z" transform="translate(286.99 161.03)"/><path class="b" d="M-286.86-34.91c9.34,8,9.34,25.62,0,33.39Z" transform="translate(286.99 161.03)"/><path class="b" d="M860.79,416.42c-17.57-1.06-34.18-5.05-42.76-23.55-5.72-12.34-3.95-24.66,1.21-36.72a78.93,78.93,0,0,1,24.61-32.24c27.87-21.28,57.56-39.54,91.86-48.6,21.74-5.74,43.49-6.16,64.25,4.5,12.89,6.61,16.61,17,10.6,30.32-4.95,10.93-12.43,20.27-20.64,28.81-21.35,22.2-42.48,44.85-69.31,60.68C902.5,410.3,882.51,415.61,860.79,416.42Z" transform="translate(286.99 161.03)"/><path class="a" d="M1340.29,11.15c.73-11.26,7.45-22.71,20.36-29.63,12.64-6.76,25.52-5.06,37.37,2.55,13.94,9,15.45,27.65,3,39.9a50.11,50.11,0,0,1-37.62,14.9C1348.79,38.48,1340.14,29.11,1340.29,11.15Z" transform="translate(286.99 161.03)"/></svg>