<svg xmlns="http://www.w3.org/2000/svg" viewBox="0 0 1943.4 1093.16"><defs><style>.a{opacity:0;fill:#ffffff;}.b{fill:#ffffff;}</style></defs><title>1800f_00135</title><path class="a" d="M1655.9,212.49V318.74a10.77,10.77,0,0,0-1.31,2.63c-4.88,25.67-13,50.4-22.11,74.79C1612.49,449.38,1590.82,502,1573,556c-14.21,43-23.83,86.78-24.31,132.18-.62,57.8,13.52,112,40.53,163.08,15.84,29.93,36.52,55.12,66.72,71.55,1.71,7.79-1.33,9.32-9.11,9.32q-963.4-.35-1926.82-.07c-5.69,0-7.26-1.25-7-7,.52-10.85.15-21.75.15-32.62,9.48-11.52,15.92-25,24.33-37.24q54.06-78.47,50.39-173.71c-2.12-56.07,3.88-111.5,15.82-166.29,9.29-42.66,6.86-84-15-122.72-16.55-29.36-39.44-49.19-75.54-48V238.29c38.62-4.72,77-11.37,115.89-13.8,36.11-2.26,72.29-1.64,108.43-2.39,79.84-1.65,159.77-.16,239.25-10.83,37.13-5,71.28-16,101-39.58,18-14.29,35.71-29,55.33-41.19,29.86-18.54,60.19-20.06,91.5-4.06,13.57,6.94,26.69,14.69,38.12,24.69,30.63,26.78,65.71,46.18,102.44,62.84,20.43,9.26,40.59,19.39,63.56,21.66,28,2.77,55.44-1.4,82.91-5.75,30.14-4.77,59.93-12.67,90.8-11,16.38.87,32.7,2.93,49.08,3.91,32.53,1.93,65.2,1.55,97.53,6.5,38.47,5.89,75.71,15.45,110.07,34.52,23.27,12.91,36.88,32.24,41.43,58.39,3.69,21.12,3.23,42.23,1.6,63.47-1.55,20.11-4.54,40.23-.93,60.45,5.7,31.89,22.95,58,41.77,83.25,15.32,20.59,33.51,37.77,57.13,48.66,27,12.46,52.6,9.52,72.62-9.11a132.16,132.16,0,0,0,37.22-60.67c8-27.36,9.78-55.66,12.18-83.85,2.09-24.42,3.53-48.93,10-72.74,15-55.38,38.94-107.32,62.27-159.45,14.68-32.79,33.39-63.55,49.5-95.63,4.43-8.83,8.56-17.81,11-27.4,3.88-15.23-2.86-22.25-18.44-19.63-23.12,3.9-43.61,14.57-63.78,25.56-37.21,20.28-75.8,37.15-116.31,49.55-14.73,4.51-29.46,9.33-45.15,9-10.08-.2-15.56-5.14-16.34-15.15a70.08,70.08,0,0,1,.52-15.11c3-21.66-.47-41.76-13.23-59.92-4.51-6.41-8.79-13-13-19.57a85.38,85.38,0,0,1-9.76-19.65c-7.8-23.86.08-44.41,14.43-63,20.63-26.73,45-49.9,70.68-71.68,13.73-11.64,29.09-20.85,44.19-30.45h65.27c13.62,8.12,27.87,15.24,40.42,25.06,42.53,33.27,87.52,62.45,137,84.39,13.25,5.87,25.13,14.24,34.25,25.75,10.51,13.25,21.1,26.48,30.77,40.34,31.16,44.64,45,95.42,52,148.64C1650.47,179.74,1651.87,196.33,1655.9,212.49ZM783.47,544.18c11.27-1,21.84-8.74,31.38-18.57,18.44-19,24.32-54.9,12.76-78.59-5.47-11.22-14-12.72-23-4.35-6.94,6.45-12.18,14.15-17.19,22.05-11.06,17.43-19.81,35.78-22.49,56.56C763.28,534.33,769.78,544.07,783.47,544.18Z" transform="translate(287.04 161.03)"/><path class="b" d="M1288.59-160.88c-15.1,9.6-30.46,18.81-44.19,30.45-25.71,21.78-50.05,45-70.68,71.68-14.35,18.58-22.23,39.13-14.43,63a85.38,85.38,0,0,0,9.76,19.65c4.24,6.59,8.52,13.16,13,19.57,12.76,18.16,16.24,38.26,13.23,59.92a70.08,70.08,0,0,0-.52,15.11c.78,10,6.26,15,16.34,15.15,15.69.32,30.42-4.5,45.15-9,40.51-12.4,79.1-29.27,116.31-49.55,20.17-11,40.66-21.66,63.78-25.56,15.58-2.62,22.32,4.4,18.44,19.63-2.44,9.59-6.57,18.57-11,27.4-16.11,32.08-34.82,62.84-49.5,95.63C1371,244.31,1347.08,296.25,1332,351.63c-6.46,23.81-7.9,48.32-10,72.74-2.4,28.19-4.16,56.49-12.18,83.85a132.16,132.16,0,0,1-37.22,60.67c-20,18.63-45.6,21.57-72.62,9.11-23.62-10.89-41.81-28.07-57.13-48.66-18.82-25.29-36.07-51.36-41.77-83.25-3.61-20.22-.62-40.34.93-60.45,1.63-21.24,2.09-42.35-1.6-63.47-4.55-26.15-18.16-45.48-41.43-58.39-34.36-19.07-71.6-28.63-110.07-34.52-32.33-4.95-65-4.57-97.53-6.5-16.38-1-32.7-3-49.08-3.91-30.87-1.64-60.66,6.26-90.8,11-27.47,4.35-54.89,8.52-82.91,5.75-23-2.27-43.13-12.4-63.56-21.66-36.73-16.66-71.81-36.06-102.44-62.84-11.43-10-24.55-17.75-38.12-24.69-31.31-16-61.64-14.48-91.5,4.06-19.62,12.19-37.33,26.9-55.33,41.19-29.7,23.57-63.85,34.59-101,39.58C97.23,221.94,17.3,220.45-62.54,222.1c-36.14.75-72.32.13-108.43,2.39-38.89,2.43-77.27,9.08-115.89,13.8V-12.14c23.92-12.7,48.28-24.31,74.61-31.34,26.1-7,53-7.2,79.59-9.68,40.91-3.8,64.18-25.56,70.73-66.15,2.24-13.86.33-27.73,1.22-41.57H7.59c-.43,3.33,1.77,5.68,3.2,8.28C32.58-112.92,61.71-78.69,91.51-45,101.66-33.56,113.86-24.16,130-23c26.88,2,49.32-16.06,53.29-44.1,4.46-31.4,5.44-63.34,15.54-93.8H428c-.15,21.51,5.12,41.58,16.48,59.86,9.08,14.61,18.25,29.31,34.36,37.52,19.82,10.1,40.65,8.93,61.5,4.72,29.08-5.88,55.09-19.73,81.59-32.27,23.32-11,47.61-18.51,73.66-18.54,27.31,0,54.63.39,81.94.55,15.69.1,31.44.1,46.87-2.86,54.39-10.43,109.09-17.83,164.49-20.64,31.72-1.61,61.35-12,88.72-28.34Z" transform="translate(287.04 161.03)"/><path class="b" d="M1655.9,922.81c-30.2-16.43-50.88-41.62-66.72-71.55-27-51-41.15-105.28-40.53-163.08.48-45.4,10.1-89.22,24.31-132.18,17.86-54,39.53-106.62,59.52-159.84,9.15-24.39,17.23-49.12,22.11-74.79a10.77,10.77,0,0,1,1.31-2.63Z" transform="translate(287.04 161.03)"/><path class="b" d="M-286.86,344.54c36.1-1.23,59,18.6,75.54,48,21.86,38.77,24.29,80.06,15,122.72-11.94,54.79-17.94,110.22-15.82,166.29q3.62,95.41-50.39,173.71c-8.41,12.22-14.85,25.72-24.33,37.24Z" transform="translate(287.04 161.03)"/><path class="a" d="M1077.62-160.88c-27.37,16.34-57,26.73-88.72,28.34-55.4,2.81-110.1,10.21-164.49,20.64-15.43,3-31.18,3-46.87,2.86-27.31-.16-54.63-.59-81.94-.55-26.05,0-50.34,7.5-73.66,18.54-26.5,12.54-52.51,26.39-81.59,32.27-20.85,4.21-41.68,5.38-61.5-4.72-16.11-8.21-25.28-22.91-34.36-37.52-11.36-18.28-16.63-38.35-16.48-59.86Z" transform="translate(287.04 161.03)"/><path class="b" d="M1655.9,212.49c-4-16.16-5.43-32.75-7.57-49.19-6.95-53.22-20.82-104-52-148.64-9.67-13.86-20.26-27.09-30.77-40.34-9.12-11.51-21-19.88-34.25-25.75-49.53-21.94-94.52-51.12-137-84.39-12.55-9.82-26.8-16.94-40.42-25.06q148,0,296-.15c5.2,0,6.23,1,6.22,6.22Q1655.76,28.84,1655.9,212.49Z" transform="translate(287.04 161.03)"/><path class="a" d="M-60.71-160.88c-.89,13.84,1,27.71-1.22,41.57C-68.48-78.72-91.75-57-132.66-53.16c-26.61,2.48-53.49,2.71-79.59,9.68-26.33,7-50.69,18.64-74.61,31.34,0-47.71.09-95.43-.14-143.14,0-4.93,1.36-5.72,5.9-5.71Q-170.91-160.76-60.71-160.88Z" transform="translate(287.04 161.03)"/><path class="a" d="M198.83-160.88c-10.1,30.46-11.08,62.4-15.54,93.8C179.32-39,156.88-21,130-23c-16.14-1.18-28.34-10.58-38.49-22C61.71-78.69,32.58-112.92,10.79-152.6c-1.43-2.6-3.63-5-3.2-8.28Z" transform="translate(287.04 161.03)"/><path class="b" d="M783.47,544.18c-13.69-.11-20.19-9.85-18.51-22.9,2.68-20.78,11.43-39.13,22.49-56.56,5-7.9,10.25-15.6,17.19-22.05,9-8.37,17.5-6.87,23,4.35,11.56,23.69,5.68,59.6-12.76,78.59C805.31,535.44,794.74,543.22,783.47,544.18Z" transform="translate(287.04 161.03)"/></svg>