<svg xmlns="http://www.w3.org/2000/svg" viewBox="0 0 1366.79 768.72"><defs><style>.a{opacity:0;fill:#ffffff;}.b{fill:#ffffff;}</style></defs><title>1800f_00028</title><path class="a" d="M1367.52,371.86v77.4a23.46,23.46,0,0,0-4.24,1.3c-37.74,19.95-74.81,41-109.8,65.58-29.55,20.76-50.18,47.83-60.65,82.61-4.8,15.94-10.75,31.54-15.57,47.49-12.14,40.2-17.81,81.23-14.64,123.28H346.05c.56-2.62-1.39-4.21-2.58-6A203.22,203.22,0,0,0,283,702.61c-33.41-21.7-70-35.92-108.1-46.93-8.72-2.53-17.7-4.51-25.58-9.26-5.91-3.56-6.43-7.14-2-12.38,4.27-5.08,9.83-8.69,15.21-12.46,18.43-12.91,38-24.1,56.27-37.27,28.13-20.27,43-46.61,41.19-82.06-1-18.92-.72-37.94-.09-56.89.72-21.35,3.71-42.76,13.92-61.67,21.26-39.37,34.72-81.85,51.15-123.15,4.1-10.32,7.87-20.88,7.54-32.27-.28-9.39-5.72-13.29-14.67-10.45-8,2.55-15.19,7-21.74,12.15C280.38,242.38,265,255,249.34,267.49c-15.81,12.61-31.25,25.8-49.24,35.29-24.58,13-46.14,3.07-52.94-23.95-3-11.74-1.89-23.62-.78-35.45,1.93-20.47,2-40.87-1.49-61.21-7-40.69-19.77-79.94-29.52-119.93-6-24.56-5-27.77,18.64-36.42,17.79-6.51,35.51-13.24,51.16-24.3H922.81c.73,1.58,1.37,3.22,2.21,4.75,22.15,39.9,52.15,73.83,82.23,107.68,26.23,29.51,52,59.3,71.17,94.19a97.59,97.59,0,0,0,19.91,25.69c13.64,12.33,19.3,28,20.08,45.92.26,6.07.27,12.14.61,18.2,1.24,21.93.6,44,5.33,65.65,3.42,15.68,9.79,19.33,25.11,14.47a180.69,180.69,0,0,1,34.68-7.79c30.13-3.38,60.38-6,90.32-10.59,29-4.47,56.85-3.69,83.7,9.18C1361.09,370.27,1364.39,370.88,1367.52,371.86ZM836.23,502.24c8.64-.32,17.66-1.22,26.09-5.18,18.81-8.84,22-24.52,7.43-39.4-16.25-16.64-33.22-32.55-51-47.55-22.55-19-47.92-26.9-76.85-18.19-17.2,5.18-34.57,9.51-52,13.77-18.76,4.58-34,15.47-46.72,29.6-8.7,9.62-7.73,19.91,1.85,28.65a39.37,39.37,0,0,0,10.81,6.89c14.26,6.27,29.24,7.63,44.54,6.54a184,184,0,0,1,28.75,0c17.38,1.49,33.23,8.43,49.57,13.59C797.29,496.83,816.11,501.47,836.23,502.24Zm-128,106.48c20.66-.51,40-5.72,57.2-17.38,11.6-7.85,13.38-21.15,4.9-32.38a33.66,33.66,0,0,0-15-11.19c-35.37-13.66-64,2.25-81.47,32.9-5.2,9.13-2,17,7.25,22.46C689.46,608.13,698.77,608.79,708.23,608.72ZM998.86,341.88c-.26,12.24,5.26,15.74,14.85,10.29,18.89-10.74,30.85-27.16,35.84-48.34,1-4.33,1.35-9.39-3.3-12.34-4.48-2.85-8.92-.78-12.8,1.58-10.57,6.42-18.45,15.56-24.91,25.95C1003.73,326.75,999.33,334.69,998.86,341.88Zm95.69,194.61c-12.74,0-30.25,14.69-32.57,27.39-1.19,6.51,3,10.75,10.24,10.41,10.87-.52,28.46-13.47,32.13-23.65C1107.67,541.43,1104.27,536.52,1094.55,536.49Z" transform="translate(-0.88 -0.95)"/><path class="b" d="M185.17,1.52C169.52,12.58,151.8,19.31,134,25.82c-23.59,8.65-24.64,11.86-18.64,36.42,9.75,40,22.55,79.24,29.52,119.93,3.48,20.34,3.42,40.74,1.49,61.21-1.11,11.83-2.18,23.71.78,35.45,6.8,27,28.36,36.9,52.94,23.95,18-9.49,33.43-22.68,49.24-35.29C265,255,280.38,242.38,296,230c6.55-5.2,13.69-9.6,21.74-12.15,9-2.84,14.39,1.06,14.67,10.45.33,11.39-3.44,21.95-7.54,32.27-16.43,41.3-29.89,83.78-51.15,123.15-10.21,18.91-13.2,40.32-13.92,61.67-.63,18.95-.9,38,.09,56.89,1.86,35.45-13.06,61.79-41.19,82.06-18.28,13.17-37.84,24.36-56.27,37.27-5.38,3.77-10.94,7.38-15.21,12.46-4.4,5.24-3.88,8.82,2,12.38,7.88,4.75,16.86,6.73,25.58,9.26,38,11,74.69,25.23,108.1,46.93a203.22,203.22,0,0,1,60.51,60.86c1.19,1.84,3.14,3.43,2.58,6q-169.23,0-338.46.14c-5.2,0-6.22-1-6.22-6.22q.25-374.13.15-748.26c1,.78,2.05,1.48,3,2.35C22,34.21,42.58,34.32,64,28.34c9.09-2.53,10.48-7.59,5-15.34C66.1,8.92,62.49,5.33,59.19,1.52Z" transform="translate(-0.88 -0.95)"/><path class="b" d="M1367.52,371.86c-3.13-1-6.43-1.59-9.36-3-26.85-12.87-54.71-13.65-83.7-9.18-29.94,4.61-60.19,7.21-90.32,10.59a180.69,180.69,0,0,0-34.68,7.79c-15.32,4.86-21.69,1.21-25.11-14.47-4.73-21.62-4.09-43.72-5.33-65.65-.34-6.06-.35-12.13-.61-18.2-.78-17.88-6.44-33.59-20.08-45.92a97.59,97.59,0,0,1-19.91-25.69c-19.13-34.89-44.94-64.68-71.17-94.19C977.17,80.1,947.17,46.17,925,6.27c-.84-1.53-1.48-3.17-2.21-4.75h89.55a48.49,48.49,0,0,0,4.77,15.06c9.14,17.83,29.93,25.26,46.63,16.43,12.63-6.68,18-18.47,21.45-31.49h159.37c5.73,6.49,13.53,10.28,20.3,15.43,17.24,13.11,30.92,28.32,32.31,51.3.41,6.79.51,13.6.64,20.41.55,28.45,11,53.13,29.25,74.49a75.52,75.52,0,0,0,40.44,25.06Z" transform="translate(-0.88 -0.95)"/><path class="b" d="M1162.62,769.52c-3.17-42,2.5-83.08,14.64-123.28,4.82-16,10.77-31.55,15.57-47.49,10.47-34.78,31.1-61.85,60.65-82.61,35-24.58,72.06-45.63,109.8-65.58a23.46,23.46,0,0,1,4.24-1.3q0,157.1.14,314.18c0,5.2-1,6.24-6.21,6.22C1295.17,769.44,1228.89,769.52,1162.62,769.52Z" transform="translate(-0.88 -0.95)"/><path class="a" d="M1367.52,188.21a75.52,75.52,0,0,1-40.44-25.06c-18.26-21.36-28.7-46-29.25-74.49-.13-6.81-.23-13.62-.64-20.41-1.39-23-15.07-38.19-32.31-51.3-6.77-5.15-14.57-8.94-20.3-15.43,39.21,0,78.42.1,117.62-.13,4.54,0,5.46.91,5.45,5.44C1367.45,67.29,1367.52,127.75,1367.52,188.21Z" transform="translate(-0.88 -0.95)"/><path class="a" d="M1085.21,1.52c-3.44,13-8.82,24.81-21.45,31.49-16.7,8.83-37.49,1.4-46.63-16.43a48.49,48.49,0,0,1-4.77-15.06Z" transform="translate(-0.88 -0.95)"/><path class="a" d="M59.19,1.52C62.49,5.33,66.1,8.92,69,13c5.51,7.75,4.12,12.81-5,15.34C42.58,34.32,22,34.21,4.48,17.53c-.91-.87-2-1.57-3-2.35,0-4.51-1.74-10.59.51-13,2.05-2.25,8.4-.6,12.86-.6Q37,1.5,59.19,1.52Z" transform="translate(-0.88 -0.95)"/><path class="b" d="M836.23,502.24c-20.12-.77-38.94-5.41-57.55-11.3-16.34-5.16-32.19-12.1-49.57-13.59a184,184,0,0,0-28.75,0c-15.3,1.09-30.28-.27-44.54-6.54A39.37,39.37,0,0,1,645,463.94c-9.58-8.74-10.55-19-1.85-28.65,12.77-14.13,28-25,46.72-29.6,17.42-4.26,34.79-8.59,52-13.77,28.93-8.71,54.3-.81,76.85,18.19,17.81,15,34.78,30.91,51,47.55,14.53,14.88,11.38,30.56-7.43,39.4C853.89,501,844.87,501.92,836.23,502.24Z" transform="translate(-0.88 -0.95)"/><path class="b" d="M708.23,608.72c-9.46.07-18.77-.59-27.14-5.59-9.2-5.49-12.45-13.33-7.25-22.46,17.45-30.65,46.1-46.56,81.47-32.9a33.66,33.66,0,0,1,15,11.19c8.48,11.23,6.7,24.53-4.9,32.38C748.21,603,728.89,608.21,708.23,608.72Z" transform="translate(-0.88 -0.95)"/><path class="b" d="M998.86,341.88c.47-7.19,4.87-15.13,9.68-22.86,6.46-10.39,14.34-19.53,24.91-25.95,3.88-2.36,8.32-4.43,12.8-1.58,4.65,2.95,4.32,8,3.3,12.34-5,21.18-17,37.6-35.84,48.34C1004.12,357.62,998.6,354.12,998.86,341.88Z" transform="translate(-0.88 -0.95)"/><path class="b" d="M1094.55,536.49c9.72,0,13.12,4.94,9.8,14.15-3.67,10.18-21.26,23.13-32.13,23.65-7.25.34-11.43-3.9-10.24-10.41C1064.3,551.18,1081.81,536.46,1094.55,536.49Z" transform="translate(-0.88 -0.95)"/></svg>