<svg xmlns="http://www.w3.org/2000/svg" viewBox="0 0 1943.05 1093.11"><defs><style>.a{opacity:0;fill:#ffffff;}.b{fill:#ffffff;}</style></defs><title>1800f_00183</title><path class="a" d="M728.53,931.92H109.28a53.47,53.47,0,0,1-17.8-33.21c-.6-4.25-1.42-8.48-1.94-12.74-5.69-46.42-22.34-88.25-50.76-125.65-17-22.32-33.52-45-48.1-69-5.89-9.71-11-19.92-18-28.92-9.29-11.89-15.93-13.26-28.21-4.48-23.43,16.74-46.54,33.93-69.84,50.86-9.4,6.83-19.07,13.28-27.58,21.3-7.39,7-12.55,15-14.17,25.24-1.73,11-3.78,21.88-6,32.77-3.59,18-13.08,27.45-28.51,28.55-13,.93-25.61-1.36-37.88-5.83-16.13-5.89-30.8-15.23-47.39-20V652.65c1.73.48,2.85-.71,4.08-1.52,32.29-21.16,66.93-37.6,102.94-51.31,33.47-12.75,67.69-20.23,103.8-15.77,18.51,2.28,35.29-.45,46.87-17.45C-14.28,544.72-2,521.5,5.28,496c13.8-48.44.81-90-35.36-124-11.39-10.7-21-21.45-25.54-36.54A269.89,269.89,0,0,1-65.25,285c-3.09-29.86-11.28-57.22-33.92-78.81C-112,194-123.3,180.42-129.9,163.44c-8-20.56-14.48-41.5-18.48-63.2-4.49-24.32-2.31-47.7,12.86-68C-105.44-8-65.52-32.93-15.68-40.71c31.7-4.95,64-4.22,95.75-9.14,79.8-12.36,148.71-45.81,204.49-104.91,1.63-1.73,4.19-3.06,3.82-6.12h839.33c-.58,1.74.59,2.85,1.51,4,28.2,35.86,49.29,75.86,67.67,117.34,20,45,48.95,82.44,90.21,109.85,40.27,26.74,75.6,59,108.35,94.49a1229.6,1229.6,0,0,0,102.71,98.89c19.82,17,41.79,31.08,62.66,46.63,15.84,11.8,21.09,27,16.61,46a497.72,497.72,0,0,1-42.28,114.21c-28.49,55.18-66,104.15-107.72,149.9-34.32,37.64-70.75,72.94-113.11,101.75-35.84,24.38-74.5,35.6-117.79,27.87-14.47-2.59-25.54,1.9-33.56,14.69-8.45,13.49-17.73,26.43-27.28,39.2-18.44,24.65-42,40.51-72.83,44.86-12.26,1.72-24.55,3.58-36.57,6.46-59.13,14.18-119,22.73-179.69,27a223.53,223.53,0,0,0-95.86,28.8C741.77,916.16,733.1,922,728.53,931.92ZM846.18,502.45c-10.19-.6-20.28.5-30.28,1.87-13.31,1.84-26.38,4.83-37.71,12.76-12.26,8.6-14.26,20.38-5.66,32.72,6.19,8.88,14.43,15.56,23.18,21.6,30.56,21.13,64.24,36.2,98.41,50.3,40.93,16.89,83.26,27.2,127.79,24.09,21.11-1.48,37.9,4.47,52.12,20.07a379.75,379.75,0,0,0,35.41,34.29c12.6,10.65,25.63,20.67,41.28,26.5,13.44,5,20.71,2.33,28.17-9.74a123.7,123.7,0,0,0,14.64-35.66c8.06-32.75,4.7-63.87-15.78-91.64-9.14-12.4-21.57-19.37-37.68-19-12.27.32-23,5.54-34.09,9.57-10.43,3.79-20.69,8.21-32.28,6.19-10.45-1.81-18.5-7.9-26.24-14.42-20.38-17.18-41.4-33.44-66.56-43.07C937.55,512.33,892.52,503.9,846.18,502.45Z" transform="translate(287.01 161.04)"/><path class="b" d="M728.53,931.92c4.57-10,13.24-15.76,22.21-20.87a223.53,223.53,0,0,1,95.86-28.8c60.66-4.22,120.56-12.77,179.69-27,12-2.88,24.31-4.74,36.57-6.46,30.88-4.35,54.39-20.21,72.83-44.86,9.55-12.77,18.83-25.71,27.28-39.2,8-12.79,19.09-17.28,33.56-14.69,43.29,7.73,82-3.49,117.79-27.87,42.36-28.81,78.79-64.11,113.11-101.75,41.72-45.75,79.23-94.72,107.72-149.9a497.72,497.72,0,0,0,42.28-114.21c4.48-19-.77-34.22-16.61-46-20.87-15.55-42.84-29.62-62.66-46.63a1229.6,1229.6,0,0,1-102.71-98.89c-32.75-35.47-68.08-67.75-108.35-94.49-41.26-27.41-70.25-64.82-90.21-109.85C1178.51-81,1157.42-121,1129.22-156.86c-.92-1.17-2.09-2.28-1.51-4h253.47c.87,2.83-.24,5.46-.78,8.16-2.47,12.21-3.69,24.49-1.13,36.83,4.59,22.16,19,37.84,35.84,51.08,43.39,34.2,91.55,60.19,143.23,79.49,31.41,11.73,64.27,17.2,97.56,20.23q0,445.1.14,890.18c0,5.69-1.28,7-7,7Q1188.8,931.82,728.53,931.92Z" transform="translate(287.01 161.04)"/><path class="b" d="M288.38-160.88c.37,3.06-2.19,4.39-3.82,6.12C228.78-95.66,159.87-62.21,80.07-49.85c-31.76,4.92-64,4.19-95.75,9.14C-65.52-32.93-105.44-8-135.52,32.23c-15.17,20.31-17.35,43.69-12.86,68,4,21.7,10.48,42.64,18.48,63.2,6.6,17,17.92,30.52,30.73,42.74,22.64,21.59,30.83,48.95,33.92,78.81a269.89,269.89,0,0,0,9.63,50.47c4.56,15.09,14.15,25.84,25.54,36.54C6.09,406,19.08,447.59,5.28,496-2,521.5-14.28,544.72-29.17,566.6c-11.58,17-28.36,19.73-46.87,17.45-36.11-4.46-70.33,3-103.8,15.77-36,13.71-70.65,30.15-102.94,51.31-1.23.81-2.35,2-4.08,1.52q0-403.51-.13-807c0-5.29.86-6.68,6.51-6.67Q3.95-160.75,288.38-160.88Z" transform="translate(287.01 161.04)"/><path class="b" d="M-286.86,790.76c16.59,4.8,31.26,14.14,47.39,20,12.27,4.47,24.83,6.76,37.88,5.83,15.43-1.1,24.92-10.55,28.51-28.55,2.17-10.89,4.22-21.81,6-32.77C-165.51,745-160.35,737-153,730.06c8.51-8,18.18-14.47,27.58-21.3,23.3-16.93,46.41-34.12,69.84-50.86,12.28-8.78,18.92-7.41,28.21,4.48,7,9,12.12,19.21,18,28.92,14.58,24,31.14,46.7,48.1,69C67.2,797.72,83.85,839.55,89.54,886c.52,4.26,1.34,8.49,1.94,12.74a53.47,53.47,0,0,0,17.8,33.21q-195,0-390.07.14c-5.2,0-6.25-1-6.22-6.21C-286.75,880.82-286.86,835.79-286.86,790.76Z" transform="translate(287.01 161.04)"/><path class="a" d="M1655.9,34.91c-33.29-3-66.15-8.5-97.56-20.23-51.68-19.3-99.84-45.29-143.23-79.49-16.8-13.24-31.25-28.92-35.84-51.08-2.56-12.34-1.34-24.62,1.13-36.83.54-2.7,1.65-5.33.78-8.16q134.49,0,269-.11c4.58,0,5.9.83,5.88,5.73C1655.83-91.87,1655.9-28.48,1655.9,34.91Z" transform="translate(287.01 161.04)"/><path class="b" d="M846.18,502.45c46.34,1.45,91.37,9.88,134.72,26.47,25.16,9.63,46.18,25.89,66.56,43.07,7.74,6.52,15.79,12.61,26.24,14.42,11.59,2,21.85-2.4,32.28-6.19,11.12-4,21.82-9.25,34.09-9.57,16.11-.41,28.54,6.56,37.68,19,20.48,27.77,23.84,58.89,15.78,91.64a123.7,123.7,0,0,1-14.64,35.66c-7.46,12.07-14.73,14.74-28.17,9.74-15.65-5.83-28.68-15.85-41.28-26.5A379.75,379.75,0,0,1,1074,665.86c-14.22-15.6-31-21.55-52.12-20.07-44.53,3.11-86.86-7.2-127.79-24.09-34.17-14.1-67.85-29.17-98.41-50.3-8.75-6-17-12.72-23.18-21.6-8.6-12.34-6.6-24.12,5.66-32.72,11.33-7.93,24.4-10.92,37.71-12.76C825.9,503,836,501.85,846.18,502.45Z" transform="translate(287.01 161.04)"/></svg>