<svg xmlns="http://www.w3.org/2000/svg" viewBox="0 0 1943.04 1093.14"><defs><style>.a{opacity:0;fill:#ffffff;}.b{fill:#ffffff;}</style></defs><title>1800f_00218</title><path class="a" d="M-286.86,393.11q0-273.59-.14-547.16c0-5.69,1.28-7,7-7q146.85.3,293.69.15c-5.31,35-7.58,70.32-10.3,105.57C-1.32,5.17-24.67,56.91-67.3,100c-37.59,38-81.12,68.3-126,96.75-17.39,11-34,22.69-46.57,39.42-17.57,23.47-20.74,47.65-7.15,69.09,14,22,32.51,39.2,57.42,48.69,32.05,12.22,65.35,17.2,99.45,18.1,25.15.66,49.89-3.31,74.74-6.14,41.7-4.76,83.46-9.56,123.45-23,31.8-10.73,63.6-12.33,97-8.52,41.55,4.74,77.62-9.08,105.32-42a498.1,498.1,0,0,0,34.54-47c23.89-36.26,52.85-67.59,88.5-92.65,43.23-30.38,79.62-67.71,111.09-110C562.73,18.07,580.3-7,599.8-30.61,609-41.73,618.44-52.73,631.22-60c12.94-7.34,23.46-5.14,32.87,6.34,5.34,6.51,9.22,13.89,12.8,21.44,13,27.42,25.35,55.13,39.4,82,32.06,61.42,83.26,98.43,149.39,115.58,28.31,7.34,57.44,7.83,86.63,6.73,31.58-1.18,63.14-2.69,94.65-5,23.93-1.78,47.73-5.5,71.83-4.78s34.86,10.56,37.87,34.5c1.48,11.77,1.5,23.72,4.41,35.31,2.65,10.56,8.64,18,19.26,21.55,10.1,3.39,20.33,6.68,30.88,7.48,28.88,2.2,49,17.15,63,41.52,4,7,7.79,14.18,11.26,21.48,11.72,24.62,17.73,51,23.59,77.42C1323.79,468,1355.3,526.43,1395,580.88c10,13.76,21.3,26.4,35.9,35.57,14.83,9.32,29.75,10,45,.58,10.61-6.54,20-14.57,29.53-22.49,25.42-21.17,53.87-33.06,87.63-31.9,21,.72,42,.47,62.89,2q0,179.79.14,359.58c0,6.08-.83,7.91-7.6,7.91q-893.28-.32-1786.56-.19c17.53-50.25,22.41-100.95,5.47-152.45a187.57,187.57,0,0,1-9-46c-2.86-42.49,4.61-83.39,23.49-121.4,21.05-42.38,52.92-76.91,86.8-109.24,16.46-15.7,31.61-15.38,51.13-3C34.32,509,49.4,517.25,64.47,525.52c27.31,15,54,30.8,77.63,51.38,28.38,24.73,45.83,56.82,61.36,90.27,18.55,39.94,37.2,79.86,66.92,113.2,12.31,13.81,25.11,27.15,42.49,34.81,18.81,8.29,34.33,1.64,41.17-17.61a65.34,65.34,0,0,0,2.67-9.47c3.44-18,2-35.85-2.33-53.38-9.84-39.48-19.85-78.92-27.36-118.93-5.6-29.82-11-59.67-21.89-88.18-11-29.05-26.45-55.17-50.83-75.15-20.16-16.52-44-25.77-68.57-33-31.6-9.32-63.68-13.77-96.59-8.05-29.12,5.06-55.43,17.39-80.65,32-16.92,9.82-34.14,13.22-53,7.66-8-2.36-16.17-4.14-24.13-6.6-42-13-84.25-25.18-127.72-32.7C-226.72,406.52-257.48,403.09-286.86,393.11ZM940.41,463.22c24.62.8,46.42-6.31,65.19-22.32,7.49-6.39,14.68-13.14,22.38-19.27,30.84-24.56,61.85-48.92,89.79-76.85,12.92-12.92,22.5-27.85,27.21-45.71,6.9-26.19-1.45-37.37-28.44-38a201.1,201.1,0,0,0-86.36,17.13,1359.44,1359.44,0,0,1-141.72,53.54c-16.72,5.22-32.7,12.22-46.33,23.61-12.19,10.18-21.73,22.14-22.66,38.76-1.31,23.4,11.34,39,30.74,49C878.38,457.48,909.34,461.08,940.41,463.22ZM842.23,895.66h-.18c0-1.26,0-2.52,0-3.78-.12-3.75-1.79-6.49-5.74-6.59-4.36-.11-4.22,3.37-4.34,6.46a23.8,23.8,0,0,0,1.44,10.36c.85,2,1.66,3.83,4.17,3.47a5,5,0,0,0,4.14-3.93A32.84,32.84,0,0,0,842.23,895.66Z" transform="translate(287 161.03)"/><path class="b" d="M1655.9,564.62c-20.94-1.51-41.94-1.26-62.89-2-33.76-1.16-62.21,10.73-87.63,31.9-9.5,7.92-18.92,16-29.53,22.49-15.24,9.38-30.16,8.74-45-.58-14.6-9.17-25.88-21.81-35.9-35.57-39.66-54.45-71.17-112.88-85.88-179.27-5.86-26.44-11.87-52.8-23.59-77.42-3.47-7.3-7.23-14.48-11.26-21.48-14-24.37-34.14-39.32-63-41.52-10.55-.8-20.78-4.09-30.88-7.48-10.62-3.57-16.61-11-19.26-21.55-2.91-11.59-2.93-23.54-4.41-35.31-3-23.94-13.64-33.78-37.87-34.5s-47.9,3-71.83,4.78c-31.51,2.33-63.07,3.84-94.65,5-29.19,1.1-58.32.61-86.63-6.73-66.13-17.15-117.33-54.16-149.39-115.58-14-26.91-26.42-54.62-39.4-82-3.58-7.55-7.46-14.93-12.8-21.44-9.41-11.48-19.93-13.68-32.87-6.34C618.44-52.73,609-41.73,599.8-30.61,580.3-7,562.73,18.07,544.47,42.61c-31.47,42.31-67.86,79.64-111.09,110-35.65,25.06-64.61,56.39-88.5,92.65a498.1,498.1,0,0,1-34.54,47c-27.7,32.94-63.77,46.76-105.32,42-33.4-3.81-65.2-2.21-97,8.52-40,13.49-81.75,18.29-123.45,23C-40.28,368.73-65,372.7-90.17,372c-34.1-.9-67.4-5.88-99.45-18.1-24.91-9.49-43.46-26.68-57.42-48.69-13.59-21.44-10.42-45.62,7.15-69.09,12.54-16.73,29.18-28.4,46.57-39.42,44.9-28.45,88.43-58.76,126-96.75,42.63-43.08,66-94.82,70.66-155.3,2.72-35.25,5-70.57,10.3-105.57H223.11c1.64,4,3.14,8,4.92,11.88,13,28.45,28,55.57,52.85,75.56,25,20.11,43.89,15,55.64-14.8,9.22-23.34,14.49-47.7,17.12-72.64h749.78c2.47,2.43,5.83,3,8.9,4a458.15,458.15,0,0,1,83.54,37.32c23.84,13.74,46.92,28.78,71.82,40.68,21.45,10.25,43.85,15,67.56,13.3,13.43-1,25.7-4.61,35.06-15.36,9.68-11.13,12.39-24.55,13.69-38.51s-1-27.67-2.81-41.42q134.33,0,268.64-.15c5.2,0,6.23,1,6.22,6.22q-.26,258-.14,516c-20.76,34.41-14.57,68.81,0,103.21ZM1364.41,122.67c17.17-.6,33.39-5.3,49-12,20.23-8.73,40.22-18.11,56.34-33.62,12.2-11.73,13.32-23.7,3.31-37.24-12.51-17-29.5-28.14-49.21-35.23-16.26-5.86-31.65-3.61-45.12,7-23.85,18.8-39.8,43.65-50.44,71.63-6.71,17.62,2.79,33.08,21.08,37.61C1354.27,122,1359.27,123.05,1364.41,122.67Z" transform="translate(287 161.03)"/><path class="b" d="M-286.86,393.11c29.38,10,60.14,13.41,90.48,18.66,43.47,7.52,85.67,19.73,127.72,32.7,8,2.46,16.13,4.24,24.13,6.6,18.88,5.56,36.1,2.16,53-7.66,25.22-14.64,51.53-27,80.65-32,32.91-5.72,65-1.27,96.59,8.05,24.61,7.26,48.41,16.51,68.57,33,24.38,20,39.79,46.1,50.83,75.15C316,556.12,321.42,586,327,615.79c7.51,40,17.52,79.45,27.36,118.93,4.37,17.53,5.77,35.42,2.33,53.38a65.34,65.34,0,0,1-2.67,9.47c-6.84,19.25-22.36,25.9-41.17,17.61-17.38-7.66-30.18-21-42.49-34.81C240.66,747,222,707.11,203.46,667.17c-15.53-33.45-33-65.54-61.36-90.27-23.61-20.58-50.32-36.41-77.63-51.38C49.4,517.25,34.32,509,19.78,499.83c-19.52-12.34-34.67-12.66-51.13,3-33.88,32.33-65.75,66.86-86.8,109.24-18.88,38-26.35,78.91-23.49,121.4a187.57,187.57,0,0,0,9,46c16.94,51.5,12.06,102.2-5.47,152.45-47.7,0-95.41-.09-143.11.13-4.87,0-5.75-1.26-5.74-5.86q.24-95.79.11-191.58a254.93,254.93,0,0,0,27.26-40,72.36,72.36,0,0,0,9.06-40.09c-1.81-30.38-15.83-54.84-36.32-76.27Z" transform="translate(287 161.03)"/><path class="a" d="M1381.18-160.88c1.79,13.75,4.11,27.48,2.81,41.42s-4,27.38-13.69,38.51c-9.36,10.75-21.63,14.37-35.06,15.36-23.71,1.75-46.11-3-67.56-13.3-24.9-11.9-48-26.94-71.82-40.68a458.15,458.15,0,0,0-83.54-37.32c-3.07-1-6.43-1.56-8.9-4Z" transform="translate(287 161.03)"/><path class="a" d="M353.64-160.88c-2.63,24.94-7.9,49.3-17.12,72.64-11.75,29.76-30.63,34.91-55.64,14.8C256-93.43,241-120.55,228-149c-1.78-3.9-3.28-7.92-4.92-11.88Z" transform="translate(287 161.03)"/><path class="a" d="M-286.86,578.28c20.49,21.43,34.51,45.89,36.32,76.27a72.36,72.36,0,0,1-9.06,40.09,254.93,254.93,0,0,1-27.26,40Z" transform="translate(287 161.03)"/><path class="a" d="M1655.9,464.44c-14.57-34.4-20.76-68.8,0-103.21Z" transform="translate(287 161.03)"/><path class="b" d="M940.41,463.22c-31.07-2.14-62-5.74-90.2-20.15-19.4-9.92-32.05-25.56-30.74-49,.93-16.62,10.47-28.58,22.66-38.76C855.76,344,871.74,337,888.46,331.74a1359.44,1359.44,0,0,0,141.72-53.54,201.1,201.1,0,0,1,86.36-17.13c27,.63,35.34,11.81,28.44,38-4.71,17.86-14.29,32.79-27.21,45.71-27.94,27.93-59,52.29-89.79,76.85-7.7,6.13-14.89,12.88-22.38,19.27C986.83,456.91,965,464,940.41,463.22Z" transform="translate(287 161.03)"/><path class="b" d="M842.23,895.66a32.84,32.84,0,0,1-.51,6,5,5,0,0,1-4.14,3.93c-2.51.36-3.32-1.47-4.17-3.47A23.8,23.8,0,0,1,832,891.74c.12-3.09,0-6.57,4.34-6.46,4,.1,5.62,2.84,5.74,6.59,0,1.26,0,2.52,0,3.78Z" transform="translate(287 161.03)"/><path class="a" d="M1364.41,122.67c-5.14.38-10.14-.66-15-1.88-18.29-4.53-27.79-20-21.08-37.61,10.64-28,26.59-52.83,50.44-71.63,13.47-10.62,28.86-12.87,45.12-7,19.71,7.09,36.7,18.28,49.21,35.23,10,13.54,8.89,25.51-3.31,37.24-16.12,15.51-36.11,24.89-56.34,33.62C1397.8,117.37,1381.58,122.07,1364.41,122.67Z" transform="translate(287 161.03)"/></svg>