<svg xmlns="http://www.w3.org/2000/svg" viewBox="0 0 1943.03 1093.11"><defs><style>.a{opacity:0;fill:#ffffff;}.b{fill:#ffffff;}</style></defs><title>1800f_00120</title><path class="a" d="M1655.9,787.73c0,46.29-.09,92.58.12,138.87,0,4.53-.91,5.48-5.44,5.45-34.15-.24-68.3-.13-102.45-.13a32.35,32.35,0,0,0-6-11.28c-15.53-19-36.53-24.47-59.68-22.71-33.82,2.58-63.47,17.14-92.16,34H459.89c.33-1.47.6-3,1-4.41,12-42.44,9.8-84.49-3.94-126.08-5.06-15.32-12.54-29.23-26.17-39-6.92-5-15.08-7-22.69-10.36-26.57-11.61-49.88-28.7-74.24-44-12.41-7.82-25.06-15.29-39.51-18.8-21.09-5.13-37.81,5.54-42.32,26.76-6.26,29.45-3.62,58.88.88,88.15,6.69,43.43,14.77,86.59,30.91,127.76q-282.13,0-564.29.16c-5.63,0-6.53-1.36-6.52-6.67q.23-386.82.13-773.63c14.34-1.05,28.66-2.41,43-3.08,67-3.12,133.12-.81,197.61,21.78,56,19.63,111.85,14.9,166.41-8.56q42.58-18.31,83.23-40.34C268.46,86.39,339.07,63.4,404.73,29.49c19.82-10.24,40.17-8.12,59.65,2.46a242.27,242.27,0,0,1,60.08,45.78c5.07,5.31,10.17,10.53,16.42,14.55,19.86,12.79,42,14,64.39,11.91,53-5,105.62-13.53,159-15.44,48-1.72,94.87,1,139.75,20,26.33,11.18,53.37,20.21,81.61,25.55a197.14,197.14,0,0,1,35.64,10.33c13.62,5.38,21.84,15,24.42,29.43,3.7,20.69,2,41.3-.78,61.9-3.25,23.84-6.16,47.77-2.9,71.77,6.29,46.44,29.25,84.5,60.87,117.94,9.24,9.77,19.13,18.81,31.48,24.65,17.92,8.48,32.17,3.59,40.91-14.06,1.57-3.17,3-6.43,4.27-9.72,16.88-42.78,32.54-86.06,54.11-126.89a508.6,508.6,0,0,0,49.48-138c4.18-20.79,12.18-40.23,25.35-57,16-20.46,35.62-34.65,63.39-31.59,15.78,1.73,30.2,8.13,44.52,14.5,26.35,11.72,52.61,23.34,81.75,27,14.24,1.77,26.17,9.51,35.18,20.74,27.5,34.29,39,73.12,32.14,116.94-5.24,33.39-15.56,65.33-27.32,96.88-23.42,62.87-31.4,127.71-25.54,194.52,4.21,48.08,12.94,95.13,29.22,140.62,14.48,40.46,40.44,70.77,80,88.66C1633.14,778,1644.55,782.78,1655.9,787.73Z" transform="translate(286.99 161.03)"/><path class="b" d="M1655.9,787.73c-11.35-5-22.76-9.78-34-14.88-39.58-17.89-65.54-48.2-80-88.66-16.28-45.49-25-92.54-29.22-140.62-5.86-66.81,2.12-131.65,25.54-194.52,11.76-31.55,22.08-63.49,27.32-96.88,6.87-43.82-4.64-82.65-32.14-116.94-9-11.23-20.94-19-35.18-20.74-29.14-3.62-55.4-15.24-81.75-27-14.32-6.37-28.74-12.77-44.52-14.5-27.77-3.06-47.35,11.13-63.39,31.59-13.17,16.81-21.17,36.25-25.35,57a508.6,508.6,0,0,1-49.48,138c-21.57,40.83-37.23,84.11-54.11,126.89-1.3,3.29-2.7,6.55-4.27,9.72-8.74,17.65-23,22.54-40.91,14.06-12.35-5.84-22.24-14.88-31.48-24.65-31.62-33.44-54.58-71.5-60.87-117.94-3.26-24-.35-47.93,2.9-71.77,2.81-20.6,4.48-41.21.78-61.9-2.58-14.45-10.8-24-24.42-29.43a197.14,197.14,0,0,0-35.64-10.33C957.41,129,930.37,119.94,904,108.76c-44.88-19.05-91.73-21.73-139.75-20-53.4,1.91-106,10.41-159,15.44-22.42,2.12-44.53.88-64.39-11.91-6.25-4-11.35-9.24-16.42-14.55A242.27,242.27,0,0,0,464.38,32c-19.48-10.58-39.83-12.7-59.65-2.46C339.07,63.4,268.46,86.39,203.4,121.58q-40.69,22-83.23,40.34C65.61,185.38,9.79,190.11-46.24,170.48c-64.49-22.59-130.62-24.9-197.61-21.78-14.35.67-28.67,2-43,3.08V-68.3c3.71.34,6.86-1.47,10-2.86,37.52-16.47,65.16-44,86.61-78.22,2.2-3.51,5.39-6.79,5.05-11.5H37.94c8.18,7,17.34,12,28,14.1a33.71,33.71,0,0,0,34.2-14.1H1232.44c.1,3.31-2.8,4.61-4.58,6.58-18,20-34.28,41.28-46.45,65.3A451.19,451.19,0,0,1,1144-28.46c-10.07,13.92-19.86,28-28.44,43-8.7,15.14-14.61,31.08-14.76,48.75-.18,20.24,10,29.43,30,26.9,36.37-4.57,70.87-16,104.75-29.44,21.71-8.59,41-21.09,55.89-39.28,21.7-26.56,35.75-57.36,46.9-89.49,7.23-20.83,3.45-40.22-9-58.32-8.34-12.08-18-23.06-27.1-34.52q173.79,0,347.57-.15c5.2,0,6.22,1,6.22,6.22Q1655.8,316.46,1655.9,787.73Z" transform="translate(286.99 161.03)"/><path class="b" d="M283.82,931.92c-16.14-41.17-24.22-84.33-30.91-127.76-4.5-29.27-7.14-58.7-.88-88.15,4.51-21.22,21.23-31.89,42.32-26.76,14.45,3.51,27.1,11,39.51,18.8,24.36,15.34,47.67,32.43,74.24,44,7.61,3.33,15.77,5.4,22.69,10.36,13.63,9.75,21.11,23.66,26.17,39C470.7,843,472.9,885.07,460.9,927.51c-.41,1.45-.68,2.94-1,4.41Z" transform="translate(286.99 161.03)"/><path class="a" d="M1302.25-160.88c9.09,11.46,18.76,22.44,27.1,34.52,12.48,18.1,16.26,37.49,9,58.32-11.15,32.13-25.2,62.93-46.9,89.49-14.86,18.19-34.18,30.69-55.89,39.28-33.88,13.4-68.38,24.87-104.75,29.44-20.09,2.53-30.23-6.66-30-26.9.15-17.67,6.06-33.61,14.76-48.75,8.58-14.94,18.37-29.06,28.44-43A451.19,451.19,0,0,0,1181.41-89c12.17-24,28.43-45.33,46.45-65.3,1.78-2,4.68-3.27,4.58-6.58Z" transform="translate(286.99 161.03)"/><path class="a" d="M-185.17-160.88c.34,4.71-2.85,8-5.05,11.5-21.45,34.26-49.09,61.75-86.61,78.22-3.17,1.39-6.32,3.2-10,2.86,0-29.34.08-58.69-.1-88,0-3.8.86-4.67,4.65-4.65C-249.93-160.81-217.55-160.88-185.17-160.88Z" transform="translate(286.99 161.03)"/><path class="b" d="M1390.28,931.92c28.69-16.85,58.34-31.41,92.16-34,23.15-1.76,44.15,3.69,59.68,22.71a32.35,32.35,0,0,1,6,11.28Z" transform="translate(286.99 161.03)"/><path class="a" d="M100.17-160.88A33.71,33.71,0,0,1,66-146.78c-10.69-2.05-19.85-7.09-28-14.1Z" transform="translate(286.99 161.03)"/></svg>