<svg xmlns="http://www.w3.org/2000/svg" viewBox="0 0 1943.02 1093.1"><defs><style>.a{opacity:0;fill:#ffffff;}.b{fill:#ffffff;}</style></defs><title>1800f_00365</title><path class="a" d="M-286.86,353.64v-487.2c14.85-8.05,28.4-18.11,42.5-27.32H292.93a13.44,13.44,0,0,0,2,2.24c25,17.93,40.09,43,51.14,71,7.22,18.32,12.2,37.35,18.13,56.08C368.61-17.66,374-4,376.51,10.48c2.33,13.65.75,26.4-10.84,35.77-30.24,24.46-61.35,47.69-96.85,64.17-10.61,4.92-15.82,14.26-11.3,22.62,1.78,3.28,4,6.75,6.85,9,18.54,14.18,38.46,26,61.12,32.36,8,2.24,15.43.08,21.63-5.86,5.22-5,8.75-11,11.64-17.52,11.4-25.82,17.67-53.07,22.69-80.65,2.86-15.68,8.13-30,23.1-38,42.88-22.68,84.92-47.17,130.82-63.6,22.5-8,45.36-14.5,69.66-8,15.73,4.22,30.29,11.27,45,18.05C665.4-14,680.88-7,698.05-5.45c12.82,1.18,21.37-2.6,20-17.94a103.8,103.8,0,0,0-2.91-17.15c-3.66-14.07-1.14-26.95,6.6-39.12,13.56-21.32,33.11-36.6,52.16-52.45,11.62-9.66,24.5-17.8,35.05-28.77H1417.6c0,4.28-.18,8.57,0,12.84,1.23,27.36.56,54.68-4,81.69-12.14,72.27-24.39,144.52-37.32,216.65A1235,1235,0,0,1,1335.44,315c-5.88,18.06-13,35.67-25.41,50.54-10,12.06-22.52,17.45-38.35,14a104.18,104.18,0,0,1-30.87-12.3c-42.86-25.41-86.42-49.54-130.89-72-26-13.16-48.06-30.78-62.52-56.77-5-9.06-10.48-17.89-15.76-26.81-12.11-20.43-23.21-41.56-40.88-58.09-15.37-14.37-33-20.29-53.62-13.93a229.5,229.5,0,0,0-23.46,8.63c-28.62,12.32-47.91,32.85-56.25,63.43-5.88,21.57-6.43,43.3-4.86,65.4,3.67,51.53,17.88,99.82,43.24,144.83,18.73,33.21,43.59,62,66.44,92.26,23.17,30.63,53.65,40.32,90.78,29.63,32-9.22,64.5-12.17,97.55-7.83,16.89,2.21,33.39,6.07,47.69,16.06,17,11.87,18.2,28.35,3.14,42.68a76.86,76.86,0,0,1-21.54,14c-23.34,10.57-48.32,14.7-73.39,17.93C1065,632,1024,639,985,655,953.25,668.1,921.3,680.8,889.53,694c-21.31,8.81-41.71,19.4-60.53,32.87-38.07,27.24-64.26,61.77-69,110-1.13,11.63-5.73,22.49-12,32.5-15.49,24.78-36.06,44.78-59,62.55H544.88c-29.93-12.31-56.46-29.93-81-50.87a79.57,79.57,0,0,0-30.73-15.86C410.89,859,395.21,868.26,390,890.6c-3.17,13.6-2,27.65-4.48,41.32H-191.24a51.78,51.78,0,0,1,2.41-4.69c17-26.35,33.75-52.81,51-79,12-18.31,25.53-35.31,47.23-43.21,25.54-9.3,51.89-10.2,78.52-7.39,20.26,2.13,39.16,9.66,58.38,15.8,26.11,8.34,49.6,5.37,69.94-14.74a284.42,284.42,0,0,0,29.9-35.09c8.93-12.25,15.11-25.77,17.15-40.81,2.95-21.65-4.33-39-31-41.59a140.52,140.52,0,0,0-19.64-1c-11,.45-20.26-3.74-28.89-9.76-11.15-7.77-19.6-18.17-27.24-29.23-18.61-27-32.42-56.5-45.9-86.21-20.59-45.36-50.52-82.63-94.21-107.74-13.79-7.93-28.25-14.71-42-22.69C-154.22,408-180.06,387-208,369.34c-14.75-9.33-29.59-18.64-47-22.41C-266.46,344.43-277.65,344.73-286.86,353.64ZM746.37,515.86c.07-12.7-1.07-25.21-5.27-37.27-3-8.67-10-10.25-16.77-4-10.87,10-19.12,22.1-26.91,34.51-12.36,19.71-24.17,39.78-28.27,63.13-3.19,18.2,0,34.52,15.16,47.15,11.22,9.37,24.29,9.25,34.52-.86,5.71-5.63,9.36-12.48,12.27-19.79C741.67,572.11,745.6,544.27,746.37,515.86Z" transform="translate(286.97 161.03)"/><path class="b" d="M689.07,931.92c22.93-17.77,43.5-37.77,59-62.55,6.25-10,10.85-20.87,12-32.5,4.7-48.28,30.89-82.81,69-110,18.82-13.47,39.22-24.06,60.53-32.87C921.3,680.8,953.25,668.1,985,655c39-16,80-23.06,121.44-28.41,25.07-3.23,50-7.36,73.39-17.93a76.86,76.86,0,0,0,21.54-14c15.06-14.33,13.87-30.81-3.14-42.68-14.3-10-30.8-13.85-47.69-16.06-33-4.34-65.5-1.39-97.55,7.83-37.13,10.69-67.61,1-90.78-29.63-22.85-30.23-47.71-59-66.44-92.26-25.36-45-39.57-93.3-43.24-144.83-1.57-22.1-1-43.83,4.86-65.4,8.34-30.58,27.63-51.11,56.25-63.43a229.5,229.5,0,0,1,23.46-8.63c20.64-6.36,38.25-.44,53.62,13.93,17.67,16.53,28.77,37.66,40.88,58.09,5.28,8.92,10.73,17.75,15.76,26.81,14.46,26,36.53,43.61,62.52,56.77,44.47,22.5,88,46.63,130.89,72a104.18,104.18,0,0,0,30.87,12.3c15.83,3.46,28.32-1.93,38.35-14,12.36-14.87,19.53-32.48,25.41-50.54a1235,1235,0,0,0,40.87-164.72c12.93-72.13,25.18-144.38,37.32-216.65,4.54-27,5.21-54.33,4-81.69-.19-4.27,0-8.56,0-12.84q116.12,0,232.22-.15c5.2,0,6.25,1,6.23,6.22-.26,47.56-.15,95.11-.15,142.67-9.15,2.76-15.94,8.56-20.78,16.63a85.55,85.55,0,0,0-9.44,21.41c-6.41,23.5-8.19,47.67-10.52,71.75-2.79,28.86-4.6,57.8-8.75,86.54-4,27.94-8,55.86-5.17,84.33,3.56,35.57,23.31,58.49,54.66,73V704.25c-38.71-48.47-88-81.36-147.19-99.44-36.77-11.22-74.1-15.79-112.22-8.12-29.73,6-54.3,19.9-67.32,48.62-13.77,30.37-26.7,61.12-39.48,91.92-14.62,35.2-9.93,68,12.78,98.69,13.81,18.64,28.3,36.79,39.84,57.1,5.42,9.54,14.66,15.64,26.14,15.91,35.89.86,71.75,1.23,107.08-7.12,44.15-10.44,84.78-29.63,125.19-49.49,18.33-9,36.78-17.77,55.18-26.65,0,33.39-.15,66.79.15,100.18,0,5.2-1,6.22-6.23,6.21q-263.7-.25-527.42-.14Z" transform="translate(286.97 161.03)"/><path class="b" d="M-286.86,353.64c9.21-8.91,20.4-9.21,31.87-6.71,17.36,3.77,32.2,13.08,47,22.41,28,17.7,53.82,38.63,82.48,55.28,13.75,8,28.21,14.76,42,22.69,43.69,25.11,73.62,62.38,94.21,107.74,13.48,29.71,27.29,59.24,45.9,86.21,7.64,11.06,16.09,21.46,27.24,29.23,8.63,6,17.94,10.21,28.89,9.76a140.52,140.52,0,0,1,19.64,1c26.63,2.62,33.91,19.94,31,41.59-2,15-8.22,28.56-17.15,40.81a284.42,284.42,0,0,1-29.9,35.09c-20.34,20.11-43.83,23.08-69.94,14.74-19.22-6.14-38.12-13.67-58.38-15.8-26.63-2.81-53-1.91-78.52,7.39-21.7,7.9-35.18,24.9-47.23,43.21-17.24,26.17-34,52.63-51,79a51.78,51.78,0,0,0-2.41,4.69c-30,0-60-.16-90.07.15-5.06,0-5.66-1.54-5.65-6q.22-94.23.1-188.47c12.62-12.37,21.45-27.27,28.63-43.23,8.51-18.89,9.89-39.17,10.19-59.36.63-41.25-3.21-82.26-9-123.07-5-35-16.78-68-29.8-100.66Z" transform="translate(286.97 161.03)"/><path class="a" d="M1655.9,825.67c-18.4,8.88-36.85,17.65-55.18,26.65-40.41,19.86-81,39-125.19,49.49-35.33,8.35-71.19,8-107.08,7.12-11.48-.27-20.72-6.37-26.14-15.91-11.54-20.31-26-38.46-39.84-57.1-22.71-30.65-27.4-63.49-12.78-98.69,12.78-30.8,25.71-61.55,39.48-91.92,13-28.72,37.59-42.63,67.32-48.62,38.12-7.67,75.45-3.1,112.22,8.12,59.22,18.08,108.48,51,147.19,99.44Z" transform="translate(286.97 161.03)"/><path class="b" d="M809-160.88c-10.55,11-23.43,19.11-35.05,28.77-19,15.85-38.6,31.13-52.16,52.45-7.74,12.17-10.26,25-6.6,39.12a103.8,103.8,0,0,1,2.91,17.15c1.34,15.34-7.21,19.12-20,17.94C680.88-7,665.4-14,650-21.16c-14.68-6.78-29.24-13.83-45-18-24.3-6.53-47.16-.08-69.66,8-45.9,16.43-87.94,40.92-130.82,63.6-15,7.92-20.24,22.29-23.1,38-5,27.58-11.29,54.83-22.69,80.65-2.89,6.55-6.42,12.52-11.64,17.52-6.2,5.94-13.63,8.1-21.63,5.86C302.83,168,282.91,156.18,264.37,142c-2.89-2.21-5.07-5.68-6.85-9-4.52-8.36.69-17.7,11.3-22.62,35.5-16.48,66.61-39.71,96.85-64.17,11.59-9.37,13.17-22.12,10.84-35.77C374-4,368.61-17.66,364.2-31.6c-5.93-18.73-10.91-37.76-18.13-56.08-11.05-28-26.14-53-51.14-71a13.44,13.44,0,0,1-2-2.24Z" transform="translate(286.97 161.03)"/><path class="a" d="M1655.9,341.5c-31.35-14.49-51.1-37.41-54.66-73-2.85-28.47,1.13-56.39,5.17-84.33,4.15-28.74,6-57.68,8.75-86.54,2.33-24.08,4.11-48.25,10.52-71.75a85.55,85.55,0,0,1,9.44-21.41c4.84-8.07,11.63-13.87,20.78-16.63Z" transform="translate(286.97 161.03)"/><path class="a" d="M-286.86,411.32C-273.84,444-262,477-257.06,512c5.81,40.81,9.65,81.82,9,123.07-.3,20.19-1.68,40.47-10.19,59.36-7.18,16-16,30.86-28.63,43.23Z" transform="translate(286.97 161.03)"/><path class="b" d="M385.52,931.92c2.48-13.67,1.31-27.72,4.48-41.32,5.21-22.34,20.89-31.56,43.12-25.41a79.57,79.57,0,0,1,30.73,15.86c24.57,20.94,51.1,38.56,81,50.87Z" transform="translate(286.97 161.03)"/><path class="b" d="M-244.36-160.88c-14.1,9.21-27.65,19.27-42.5,27.32,0-7.84.21-15.69-.1-23.52-.13-3.28.63-4,3.9-3.9C-270.17-160.74-257.26-160.88-244.36-160.88Z" transform="translate(286.97 161.03)"/><path class="b" d="M746.37,515.86c-.77,28.41-4.7,56.25-15.27,82.86-2.91,7.31-6.56,14.16-12.27,19.79-10.23,10.11-23.3,10.23-34.52.86-15.12-12.63-18.35-29-15.16-47.15,4.1-23.35,15.91-43.42,28.27-63.13,7.79-12.41,16-24.49,26.91-34.51,6.77-6.24,13.75-4.66,16.77,4C745.3,490.65,746.44,503.16,746.37,515.86Z" transform="translate(286.97 161.03)"/></svg>