<svg xmlns="http://www.w3.org/2000/svg" viewBox="0 0 1943.1 1093.22"><defs><style>.a{opacity:0;fill:#ffffff;}.b{fill:#ffffff;}</style></defs><title>1800f_00158</title><path class="a" d="M-286.86,209.46V-116.87q6.83-22,13.66-44H1493.49c-13.28,28.46-34.84,45.19-66.81,47.15-28.37,1.74-55.76-4.71-83.32-9.87-21-3.92-42-6.3-63.12-.65-43.3,11.59-56.83,55.81-27.34,89.44a158.41,158.41,0,0,0,31.35,27.33c60.91,40.67,128.13,61.19,201.16,63.76A607.4,607.4,0,0,1,1589.86,69.2c21.77,4.59,43.72,7.89,66,8.21V625.33c-9.89,7.44-19.34,15.44-30.14,21.65-26.61,15.28-52.41,14-75.72-4.3a101.17,101.17,0,0,1-23.68-27.43c-15.16-24.9-21.82-52.64-26.63-80.9-4.51-26.48-7.36-53.16-3.72-80,4.59-33.83,18.44-64.47,33.73-94.54,24.12-47.42,53.31-91.81,81.49-136.82,11.81-18.84,23.89-37.7,28.75-59.86,4.31-19.64-5.28-34.7-24.83-39.32-10.54-2.49-21.1-1.59-31.52,1.13-18.63,4.88-35.33,13.93-50.78,25-57.57,41.33-113.1,85.25-164.81,133.78-34.71,32.56-64.24,69.42-86.38,111.77-13.11,25.1-25.35,50.66-38.45,75.76-16.32,31.26-35.16,60.82-59.36,86.76-15.64,16.75-34.2,21.4-55.88,15.15a241.55,241.55,0,0,1-75.38-36.55,73.46,73.46,0,0,1-16.86-17.34c-7.31-10.38-6.87-15,2-23.71,6.93-6.8,15.18-11.75,23.34-16.82,15.24-9.47,31.07-18,45.15-29.28,20-16.05,23.75-29.06,15.07-53.17-.51-1.43-1.11-2.82-1.69-4.23-8.33-20.28-20.78-38.17-33.12-56.06-14.67-21.27-25.89-43.82-30.77-69.46-2.9-15.18-7.48-30.06-16.34-43-25.34-37-60.67-56.25-105.37-57.93-41.4-1.55-80.74,8.36-119.15,22.69-22,8.22-44.59,13.39-68.23,11.61-17.89-1.34-35.72-3.52-53.6-5-28.82-2.33-57.1-.33-84,11.61a116.84,116.84,0,0,0-28.77,18.12c-23.66,20.25-22.8,48.51-9.47,70.62,10.21,16.93,24.35,30.32,39.2,43,21,17.9,44,33.24,66.42,49.21q69.7,49.53,154.77,41.13c27.35-2.65,53.36,1.9,77.11,16.81A482.24,482.24,0,0,1,961,483.93c21.36,17.86,21.73,25.58,5.52,48.34C944.59,563,918,589,889.35,613.42c-28.19,24.05-53.9,50.55-72.89,82.77-10.9,18.51-18.87,38-18.29,60.14.77,29.35,19.79,41.47,46.6,29.47,5.53-2.47,10.83-5.47,16.1-8.47,5.5-3.11,10.83-6.53,16.24-9.79,37-22.36,75.09-26.7,114.83-7.06a211.59,211.59,0,0,0,30.14,12.4c13.56,4.27,25.73,2.21,37.05-6.56,10-7.72,17.26-17.69,24.69-27.57,19.81-26.29,40.15-52.09,66.86-71.93,14.88-11.05,30.83-13,47.8-4.79a140.25,140.25,0,0,1,46.22,36.33c30,35.45,64.66,65.26,103.4,90.66,15.2,10,30.6,19.71,44.38,31.74,26.39,23.06,46.47,51.22,65.1,80.51,6.32,10,13.44,19.49,17.7,30.65H259.54c1.66-44-17.5-76.18-55.12-98.25-33.92-19.9-71-30-109.31-36.95-29.33-5.29-59-8.75-87.85-16.65-29.45-8.06-49.31-25.74-58-55.35-1.35-4.6-3-9.14-4-13.83-6.1-28.92-11.19-58.09-18.2-86.79-17.92-73.42-57.83-128.28-132.13-153.56-13.61-4.63-26.91-10.5-38.69-19-12.3-8.91-11.55-18.42,1.92-25.43,10.66-5.55,22.33-8,34-10.13,40.85-7.29,81.6-14.77,119.29-33.47,23.39-11.61,47.24-22.77,64.83-42.69,22.38-25.32,20.87-42.72-.56-63.13-8.43-8-16.94-15.95-25.32-24C-72,231-90.94,206.94-100.19,176.44-103.35,166-107.64,156-114,147.07c-7.58-10.58-18.29-13.81-30.61-9.56a57.58,57.58,0,0,0-16.45,9.25c-14.2,11-27.64,23-42.49,33C-228.67,196.65-256.22,207.67-286.86,209.46Z" transform="translate(287.06 161.14)"/><path class="b" d="M1475.28,931.92c-4.26-11.16-11.38-20.7-17.7-30.65-18.63-29.29-38.71-57.45-65.1-80.51-13.78-12-29.18-21.77-44.38-31.74-38.74-25.4-73.41-55.21-103.4-90.66A140.25,140.25,0,0,0,1198.48,662c-17-8.16-32.92-6.26-47.8,4.79-26.71,19.84-47,45.64-66.86,71.93-7.43,9.88-14.73,19.85-24.69,27.57-11.32,8.77-23.49,10.83-37.05,6.56a211.59,211.59,0,0,1-30.14-12.4c-39.74-19.64-77.78-15.3-114.83,7.06-5.41,3.26-10.74,6.68-16.24,9.79-5.27,3-10.57,6-16.1,8.47-26.81,12-45.83-.12-46.6-29.47-.58-22.1,7.39-41.63,18.29-60.14,19-32.22,44.7-58.72,72.89-82.77C918,589,944.59,563,966.49,532.27c16.21-22.76,15.84-30.48-5.52-48.34a482.24,482.24,0,0,0-52.64-38.47c-23.75-14.91-49.76-19.46-77.11-16.81Q746,436.92,676.45,387.52C654,371.55,631,356.21,610,338.31c-14.85-12.66-29-26.05-39.2-43-13.33-22.11-14.19-50.37,9.47-70.62a116.84,116.84,0,0,1,28.77-18.12c26.88-11.94,55.16-13.94,84-11.61,17.88,1.44,35.71,3.62,53.6,5,23.64,1.78,46.18-3.39,68.23-11.61C853.29,174,892.63,164.09,934,165.64c44.7,1.68,80,21,105.37,57.93,8.86,12.93,13.44,27.81,16.34,43,4.88,25.64,16.1,48.19,30.77,69.46,12.34,17.89,24.79,35.78,33.12,56.06.58,1.41,1.18,2.8,1.69,4.23,8.68,24.11,4.94,37.12-15.07,53.17-14.08,11.28-29.91,19.81-45.15,29.28-8.16,5.07-16.41,10-23.34,16.82-8.9,8.75-9.34,13.33-2,23.71a73.46,73.46,0,0,0,16.86,17.34A241.55,241.55,0,0,0,1128,573.18c21.68,6.25,40.24,1.6,55.88-15.15,24.2-25.94,43-55.5,59.36-86.76,13.1-25.1,25.34-50.66,38.45-75.76,22.14-42.35,51.67-79.21,86.38-111.77,51.71-48.53,107.24-92.45,164.81-133.78,15.45-11.09,32.15-20.14,50.78-25,10.42-2.72,21-3.62,31.52-1.13,19.55,4.62,29.14,19.68,24.83,39.32-4.86,22.16-16.94,41-28.75,59.86-28.18,45-57.37,89.4-81.49,136.82-15.29,30.07-29.14,60.71-33.73,94.54-3.64,26.84-.79,53.52,3.72,80,4.81,28.26,11.47,56,26.63,80.9A101.17,101.17,0,0,0,1550,642.68c23.31,18.33,49.11,19.58,75.72,4.3,10.8-6.21,20.25-14.21,30.14-21.65q0,150.26.14,300.52c0,5.19-1,6.24-6.22,6.22C1591.64,931.83,1533.46,931.92,1475.28,931.92Z" transform="translate(287.06 161.14)"/><path class="b" d="M-286.86,209.46c30.64-1.79,58.19-12.81,83.26-29.68,14.85-10,28.29-22.05,42.49-33a57.58,57.58,0,0,1,16.45-9.25c12.32-4.25,23-1,30.61,9.56,6.41,8.93,10.7,18.92,13.86,29.37C-90.94,206.94-72,231-49.55,252.65c8.38,8.07,16.89,16,25.32,24,21.43,20.41,22.94,37.81.56,63.13-17.59,19.92-41.44,31.08-64.83,42.69-37.69,18.7-78.44,26.18-119.29,33.47-11.71,2.08-23.38,4.58-34,10.13-13.47,7-14.22,16.52-1.92,25.43,11.78,8.52,25.08,14.39,38.69,19,74.3,25.28,114.21,80.14,132.13,153.56,7,28.7,12.1,57.87,18.2,86.79,1,4.69,2.65,9.23,4,13.83,8.68,29.61,28.54,47.29,58,55.35,28.86,7.9,58.52,11.36,87.85,16.65,38.28,6.9,75.39,17,109.31,36.95,37.62,22.07,56.78,54.26,55.12,98.25q-270,0-540,.16c-5.61,0-6.53-1.33-6.53-6.66Q-286.76,567.43-286.86,209.46Z" transform="translate(287.06 161.14)"/><path class="b" d="M1655.9,77.41c-22.32-.32-44.27-3.62-66-8.21a607.4,607.4,0,0,0-104.45-12.92c-73-2.57-140.25-23.09-201.16-63.76a158.41,158.41,0,0,1-31.35-27.33c-29.49-33.63-16-77.85,27.34-89.44,21.09-5.65,42.14-3.27,63.12.65,27.56,5.16,55,11.61,83.32,9.87,32-2,53.53-18.69,66.81-47.15,52.37,0,104.73.07,157.09-.13,4.53,0,5.45.91,5.44,5.44Q1655.77-39.08,1655.9,77.41Z" transform="translate(287.06 161.14)"/><path class="b" d="M-273.2-160.88q-6.82,22-13.66,44c0-12.73.38-25.48-.18-38.19-.24-5.54,1.58-6.59,6.36-5.89A51.8,51.8,0,0,0-273.2-160.88Z" transform="translate(287.06 161.14)"/></svg>