<svg xmlns="http://www.w3.org/2000/svg" viewBox="0 0 1943.17 1093.09"><defs><style>.a{opacity:0;fill:#ffffff;}.b{fill:#ffffff;}</style></defs><title>1800f_00266</title><path class="a" d="M1655.9,212.49v510c-32.24,16.46-65.26,19.07-98.65,4.22-26.29-11.7-44-30.46-47.78-60.58-2.73-21.83-4.07-43.72-5.58-65.63-1.07-15.59-2-31.38-11.07-45.06-9.65-14.61-22.85-14.62-32.63,0-6.89,10.31-9.48,22.19-12.19,34-3.59,15.72-4.31,32.19-11.48,47a384.52,384.52,0,0,1-80,110.53c-17.12,16.45-35.69,31.44-50,50.61-29.83,39.93-39.87,85.44-37.62,134.38H-130.53c1.25-7.38,4.94-13.8,8.56-20.11,10.71-18.63,21.94-37,32.67-55.57,9.4-16.3,18.19-33.2,17.82-52.53-.68-34.86-18.84-61-45.62-80.89-19.41-14.4-33.5-32-42.66-53.9-17.4-41.67-20.84-85.13-15.86-129.52,3.23-28.84,16.65-51.59,41.9-66.78,8.88-5.34,17.42-11.31,26.59-16.07,34.41-17.84,64.29-40.72,86.74-72.93,18.5-26.55,35.85-53.89,55.4-79.72,6-7.93,9.32-17.29,10.84-27.23,2.85-18.63,1.08-37.37,1.27-56.05.5-48.73,20.22-88.47,55.47-121.14,26.22-24.3,56.08-44,84.15-65.95C217.17,9.73,243.66-17.13,261.45-52c5.83-11.43,13.4-22,20.82-32.56,21.61-30.63,48.43-54.91,84.42-67.7,7.83-2.78,15.59-5.75,23.38-8.63h69.82c18.76,9.11,27.7,24,29.44,44.9,1.32,15.91,11.33,24.12,27.28,26.9,9.47,1.66,18.6.16,27.6-2.5,22.84-6.72,40.44-21.36,56.14-38.4,9-9.73,18.75-18.91,25-30.9h417.39c17.63,11.94,36.7,21.25,55.81,30.47,21.85,10.54,44.37,19.7,64.79,33.06,34.78,22.76,62.28,52.94,87.48,85.46,24,31,47.35,62.52,76.53,89,9.17,8.32,18.34,16.72,29.7,22.1,12.63,6,24.93,5.53,36.78-2.14,9.81-6.35,18.31-14.3,26.84-22.19,12.13-11.21,25.1-21.2,40.4-27.77,23.28-10,46-10.65,66,7,28.4,25.12,55.84,51.31,79.15,81.42C1624.93,159.77,1640.87,185.84,1655.9,212.49Z" transform="translate(287.02 161.03)"/><path class="b" d="M390.07-160.88c-7.79,2.88-15.55,5.85-23.38,8.63-36,12.79-62.81,37.07-84.42,67.7C274.85-74,267.28-63.42,261.45-52c-17.79,34.86-44.28,61.72-74.71,85.52-28.07,21.95-57.93,41.65-84.15,66-35.25,32.67-55,72.41-55.47,121.14-.19,18.68,1.58,37.42-1.27,56.05C44.33,286.61,41,296,35,303.9c-19.55,25.83-36.9,53.17-55.4,79.72-22.45,32.21-52.33,55.09-86.74,72.93-9.17,4.76-17.71,10.73-26.59,16.07-25.25,15.19-38.67,37.94-41.9,66.78-5,44.39-1.54,87.85,15.86,129.52,9.16,21.94,23.25,39.5,42.66,53.9,26.78,19.85,44.94,46,45.62,80.89.37,19.33-8.42,36.23-17.82,52.53-10.73,18.61-22,36.94-32.67,55.57-3.62,6.31-7.31,12.73-8.56,20.11-50.09,0-100.17-.1-150.26.15-5.2,0-6.22-1-6.21-6.22q.25-246.65.14-493.28c20.69-6.24,32.39-20.49,36.54-41.32,8-40.26-6.88-72-36.54-98.32q0-223.71-.16-447.44c0-5.68,1.41-6.51,6.68-6.5Q54.86-160.79,390.07-160.88Z" transform="translate(287.02 161.03)"/><path class="b" d="M1268.86,931.92c-2.25-48.94,7.79-94.45,37.62-134.38,14.32-19.17,32.89-34.16,50-50.61a384.52,384.52,0,0,0,80-110.53c7.17-14.78,7.89-31.25,11.48-47,2.71-11.83,5.3-23.71,12.19-34,9.78-14.62,23-14.61,32.63,0,9,13.68,10,29.47,11.07,45.06,1.51,21.91,2.85,43.8,5.58,65.63,3.77,30.12,21.49,48.88,47.78,60.58,33.39,14.85,66.41,12.24,98.65-4.22,0,67.8-.08,135.59.14,203.39,0,5.2-1,6.22-6.22,6.21Q1459.35,931.79,1268.86,931.92Z" transform="translate(287.02 161.03)"/><path class="b" d="M1655.9,212.49c-15-26.65-31-52.72-49.73-77-23.31-30.11-50.75-56.3-79.15-81.42-19.94-17.63-42.7-17-66-7-15.3,6.57-28.27,16.56-40.4,27.77-8.53,7.89-17,15.84-26.84,22.19-11.85,7.67-24.15,8.11-36.78,2.14-11.36-5.38-20.53-13.78-29.7-22.1-29.18-26.51-52.52-58-76.53-89-25.2-32.52-52.7-62.7-87.48-85.46-20.42-13.36-42.94-22.52-64.79-33.06-19.11-9.22-38.18-18.53-55.81-30.47q303.18,0,606.36-.15c5.69,0,7.65,1.25,6.93,7-.53,4.23-.1,8.59-.1,12.89-16.34,2.49-32.79,2.34-49.16,1.07-28.49-2.21-57-3.89-85.45-.74-14.83,1.64-29.55,4.11-43,11.25-13.17,7-21,17.55-19.75,32.94,2.33,29.85,12.53,57,29.76,81.41,10.21,14.48,24.52,22,41.86,24.15,19.61,2.41,39.34,1.36,59,1.82,15.78.36,30.41-3.64,44.54-10.33C1641-3,1648.07-7,1655.9-9.1Z" transform="translate(287.02 161.03)"/><path class="a" d="M1655.9-9.1C1648.07-7,1641-3,1633.74.42c-14.13,6.69-28.76,10.69-44.54,10.33-19.67-.46-39.4.59-59-1.82-17.34-2.14-31.65-9.67-41.86-24.15-17.23-24.45-27.43-51.56-29.76-81.41-1.2-15.39,6.58-25.93,19.75-32.94,13.42-7.14,28.14-9.61,43-11.25,28.49-3.15,57-1.47,85.45.74,16.37,1.27,32.82,1.42,49.16-1.07Z" transform="translate(287.02 161.03)"/><path class="b" d="M625.32-160.88c-6.22,12-16,21.17-25,30.9-15.7,17-33.3,31.68-56.14,38.4-9,2.66-18.13,4.16-27.6,2.5-15.95-2.78-26-11-27.28-26.9-1.74-20.89-10.68-35.79-29.44-44.9Z" transform="translate(287.02 161.03)"/><path class="a" d="M-286.86,292.93c29.66,26.28,44.56,58.06,36.54,98.32-4.15,20.83-15.85,35.08-36.54,41.32Z" transform="translate(287.02 161.03)"/></svg>