<svg xmlns="http://www.w3.org/2000/svg" viewBox="0 0 1366.28 768.28"><defs><style>.a{opacity:0;fill:#ffffff;}.b{fill:#ffffff;}</style></defs><title>1800f_00071</title><path class="a" d="M1367.52,491.76v74.37c-3.2-.45-5.89,1.22-8.71,2.18-26.32,9-51,22.08-77.09,31.6-9.48,3.45-19.18,7.43-29.44,5.33-8.8-1.8-17.4-2.55-26.24-1.11-25.39,4.15-46.16,16-60.38,37.68-6.38,9.73-4.36,20.75,9.35,23.51,9.84,2,19.53.61,29.22-1.6,15.4-3.52,23.15,1,28.58,15.8,4,11,5.72,22.53,6.52,34.1,1.28,18.63,2.14,37.31-.82,55.9H100.17c-.37-5.93,4-9,7.72-12.24,13.19-11.36,28.7-18.81,44.49-25.67,23.72-10.31,49-16.05,73.36-24.3C285.92,687,329.11,648.91,348.36,587c7.41-23.82,7.83-48.78,8.59-73.57.7-22.72,2.06-45.39,5.38-68,2.9-19.72,5.74-39.6.55-59.47-5.45-20.84-19.93-26.81-38.49-15.77-12.58,7.49-22.43,18-31.65,29.13-13.21,16-23.52,34.23-38.1,49.09s-29.83,16.09-46.09,3.59c-27.85-21.4-38.94-50-34.86-84.72,2.38-20.28,10-39.11,16.43-58.25C203,270.79,199,236,172.54,203.79c-25.83-31.46-50.3-64-79.84-92.25A58.82,58.82,0,0,1,79.94,94.68c-4.67-9.78-2-16.1,8.32-19.17A43.58,43.58,0,0,1,98.71,74c15.22-.63,29.37,3.65,43.39,9.18C181.23,98.64,219.46,98.36,256.37,76c19.28-11.68,38-24.14,54.9-39.09C323.18,26.39,334.64,15.29,343,1.52H936.47a40.52,40.52,0,0,0,3.07,4.21c40.11,42.46,77.47,87.33,115,132,25.88,30.78,47,65.15,70.7,97.56,30,40.93,51.71,85.36,62.1,135.28,3.67,17.59,10.58,34.23,19.33,50,9.49,17.12,23,29,42.21,34.47s38.19,11.55,57.24,17.46C1326.63,478.88,1347.06,485.35,1367.52,491.76ZM724.23,713.57c19.6,0,35.53-1.19,51.21-3.74,18.67-3,37.45-6.63,53.67-17.34,12.79-8.44,14-20.8,3.72-32.12-7.36-8.11-17.11-11.52-27.35-13.6-23-4.67-45.75-2.34-68.19,3.74-19.71,5.33-38.45,12.75-53.14,27.65-12.93,13.13-10.13,24.65,7.09,30.91C703.13,713.4,715.47,713.69,724.23,713.57Z" transform="translate(-1.37 -1.37)"/><path class="b" d="M343,1.52c-8.38,13.77-19.84,24.87-31.75,35.41-16.89,15-35.62,27.41-54.9,39.09-36.91,22.34-75.14,22.62-114.27,7.17-14-5.53-28.17-9.81-43.39-9.18a43.58,43.58,0,0,0-10.45,1.5c-10.32,3.07-13,9.39-8.32,19.17A58.82,58.82,0,0,0,92.7,111.54c29.54,28.24,54,60.79,79.84,92.25C199,236,203,270.79,190.12,309.09c-6.41,19.14-14.05,38-16.43,58.25-4.08,34.68,7,63.32,34.86,84.72,16.26,12.5,31.63,11.15,46.09-3.59s24.89-33.12,38.1-49.09c9.22-11.14,19.07-21.64,31.65-29.13,18.56-11,33-5.07,38.49,15.77,5.19,19.87,2.35,39.75-.55,59.47-3.32,22.57-4.68,45.24-5.38,68-.76,24.79-1.18,49.75-8.59,73.57-19.25,61.89-62.44,100-122.62,120.29-24.4,8.25-49.64,14-73.36,24.3-15.79,6.86-31.3,14.31-44.49,25.67-3.74,3.23-8.09,6.31-7.72,12.24-31.27,0-62.54-.12-93.81.13-4.37,0-5-1.1-4.95-5.13.17-48.42.11-96.84.11-145.26,4.16-4.39,8.18-8.93,12.5-13.15,15.9-15.5,31.94-30.86,47.84-46.36,6.53-6.37,12.33-13.36,15.83-22,5.24-12.86,1.54-24.94-4-36.46-16.2-33.7-35.11-65.9-55.13-97.43C13.9,396.56,9,389.11,1.52,384V248.92c20.42-24.09,20.42-54.93,0-77.41,0-54.64.09-109.28-.15-163.92,0-5.2,1-6.23,6.22-6.22Q175.31,1.67,343,1.52Z" transform="translate(-1.37 -1.37)"/><path class="b" d="M1367.52,491.76c-20.46-6.41-40.89-12.88-61.37-19.23-19.05-5.91-38.05-12-57.24-17.46s-32.72-17.35-42.21-34.47c-8.75-15.8-15.66-32.44-19.33-50-10.39-49.92-32.15-94.35-62.1-135.28-23.72-32.41-44.82-66.78-70.7-97.56-37.56-44.67-74.92-89.54-115-132a40.52,40.52,0,0,1-3.07-4.21h326.32c3.87,9,9.9,16.42,16.67,23.25,18.52,18.68,38.87,35.31,59.3,51.79,8.74,7,17.73,14.07,28.76,17.54Z" transform="translate(-1.37 -1.37)"/><path class="b" d="M1238.51,769.52c3-18.59,2.1-37.27.82-55.9-.8-11.57-2.49-23.08-6.52-34.1-5.43-14.84-13.18-19.32-28.58-15.8-9.69,2.21-19.38,3.57-29.22,1.6-13.71-2.76-15.73-13.78-9.35-23.51,14.22-21.7,35-33.53,60.38-37.68,8.84-1.44,17.44-.69,26.24,1.11,10.26,2.1,20-1.88,29.44-5.33,26.11-9.52,50.77-22.59,77.09-31.6,2.82-1,5.51-2.63,8.71-2.18q0,99,.12,198.07c0,4.53-.9,5.47-5.44,5.45C1321,769.42,1279.74,769.52,1238.51,769.52Z" transform="translate(-1.37 -1.37)"/><path class="a" d="M1.52,384c7.45,5.11,12.38,12.56,17,19.91,20,31.53,38.93,63.73,55.13,97.43,5.54,11.52,9.24,23.6,4,36.46-3.5,8.59-9.3,15.58-15.83,22C46,575.25,29.92,590.61,14,606.11c-4.32,4.22-8.34,8.76-12.5,13.15Z" transform="translate(-1.37 -1.37)"/><path class="a" d="M1367.52,94.1c-11-3.47-20-10.49-28.76-17.54-20.43-16.48-40.78-33.11-59.3-51.79-6.77-6.83-12.8-14.29-16.67-23.25,33.39,0,66.78.07,100.17-.1,3.8,0,4.68.86,4.66,4.65C1367.44,35.42,1367.52,64.76,1367.52,94.1Z" transform="translate(-1.37 -1.37)"/><path class="a" d="M1.52,171.51c20.42,22.48,20.42,53.32,0,77.41Z" transform="translate(-1.37 -1.37)"/><path class="b" d="M724.23,713.57c-8.76.12-21.1-.17-33-4.5-17.22-6.26-20-17.78-7.09-30.91,14.69-14.9,33.43-22.32,53.14-27.65,22.44-6.08,45.17-8.41,68.19-3.74,10.24,2.08,20,5.49,27.35,13.6,10.27,11.32,9.07,23.68-3.72,32.12-16.22,10.71-35,14.3-53.67,17.34C759.76,712.38,743.83,713.53,724.23,713.57Z" transform="translate(-1.37 -1.37)"/></svg>