<svg xmlns="http://www.w3.org/2000/svg" viewBox="0 0 1366.3 768.29"><defs><style>.a{opacity:0;fill:#ffffff;}.b{fill:#ffffff;}</style></defs><title>1800f_00054</title><path class="a" d="M1367.52,435.6v72.86c-23.55,7.64-47.24,14.88-70.61,23-26.27,9.16-52.23,19.24-74.85,36.06-14.64,10.88-25.68,24.38-28.94,42.91a212.92,212.92,0,0,0-3,36.2c-.13,35.4-.36,70.79-.49,106.19,0,5.55.2,11.1.32,16.66H312.66c-1.14-3-4.18-3.44-6.52-4.72-47.49-25.84-98.7-39.72-151.94-47.1-10.23-1.42-20.7-1.9-30.44-5.79-6.23-2.49-6.64-5.59-1.44-9.76s11.27-6.88,17.42-9.1c48.71-17.58,91-46,131.34-77.63,18.84-14.75,36-31.2,45.57-53.86,6.52-15.4,8-31.67,8.58-48.21,1.19-34.65-5.65-68.42-10.39-102.43-2-14.43-5.49-28.3-14.26-40.3s-17.08-24.53-26.68-35.89c-13-15.45-26.49-31.14-47.84-35.33-18.94-3.72-31.77-14.14-39.36-31.87-13.43-31.38-27.41-62.51-41-93.83C130.28,138,118,100.89,98.28,67.09a19.68,19.68,0,0,1-1.22-2.78c-3.93-9.86-1.47-14.54,9.2-15.38a271.37,271.37,0,0,1,28.81-.33,207.44,207.44,0,0,0,64.46-8c26-7.64,49.92-19.3,69.12-39.12H901.56c-.4,3.51,2.39,5.4,4.13,7.72,21.12,28.05,48.64,49.07,76.47,69.81,42.88,32,83.87,65.54,114.73,110.43,23.42,34.07,42.67,69,48,110.72A226.06,226.06,0,0,0,1158,352.31c11.1,28.91,26.47,54.65,54.45,70.54,17.27,9.8,36.51,11.4,55.71,12.49C1301.25,437.21,1334.39,435,1367.52,435.6Zm-476.76,59c-.21-8.93-4.92-18.49-12.48-26.77-9.73-10.66-22-17.69-34.82-23.81-20.75-9.9-41.31-10.8-61.51,1.46-19.21,11.65-40.05,19.08-61.77,24.4-6.12,1.5-12.12,3.52-18.12,5.45-2.86.92-6,1.77-6.6,5.44-.65,3.89,1.78,6,4.62,7.94,12,8.32,25,14.49,39.47,16.59A358.93,358.93,0,0,1,810,522.92c12.81,4.62,25.72,9.06,39.42,10.6C871.31,536,890.64,519.07,890.76,494.59ZM788.59,677.3c4.56-.27,7.61-.24,10.6-.66,19.47-2.72,30.11-18.81,23.68-35.69-13.25-34.8-62-46.4-89.24-21.22-12.13,11.21-12.73,23.37-.7,34.66C748.89,669.36,768.55,675.83,788.59,677.3Z" transform="translate(-1.37 -1.37)"/><path class="b" d="M268.65,1.52c-19.2,19.82-43.1,31.48-69.12,39.12a207.44,207.44,0,0,1-64.46,8,271.37,271.37,0,0,0-28.81.33c-10.67.84-13.13,5.52-9.2,15.38a19.68,19.68,0,0,0,1.22,2.78c19.73,33.8,32,70.91,47.46,106.61,13.55,31.32,27.53,62.45,41,93.83,7.59,17.73,20.42,28.15,39.36,31.87,21.35,4.19,34.79,19.88,47.84,35.33,9.6,11.36,17.88,23.85,26.68,35.89s12.25,25.87,14.26,40.3c4.74,34,11.58,67.78,10.39,102.43-.56,16.54-2.06,32.81-8.58,48.21-9.59,22.66-26.73,39.11-45.57,53.86-40.35,31.6-82.63,60.05-131.34,77.63-6.15,2.22-12.23,4.94-17.42,9.1s-4.79,7.27,1.44,9.76c9.74,3.89,20.21,4.37,30.44,5.79,53.24,7.38,104.45,21.26,151.94,47.1,2.34,1.28,5.38,1.73,6.52,4.72q-152.54,0-305.07.14c-5.2,0-6.24-1-6.22-6.22q.33-110,.15-220.07a56.6,56.6,0,0,0,1.79-5.73C10,503.87,11.23,469.7,9.78,435.45c-.46-10.9-1.93-22.09-8.26-31.72q0-198.07-.15-396.14c0-5.2,1-6.23,6.22-6.22Q138.12,1.69,268.65,1.52Z" transform="translate(-1.37 -1.37)"/><path class="b" d="M1367.52,435.6c-33.13-.65-66.27,1.61-99.38-.26-19.2-1.09-38.44-2.69-55.71-12.49-28-15.89-43.35-41.63-54.45-70.54a226.06,226.06,0,0,1-13.07-52.11c-5.35-41.7-24.6-76.65-48-110.72C1066,144.59,1025,111,982.16,79.05c-27.83-20.74-55.35-41.76-76.47-69.81C904,6.92,901.16,5,901.56,1.52h347.57c10.39,10.31,20.41,21,31.25,30.85,20,18.07,28.68,39.18,22.66,66.4-4.39,19.88-7.83,40.08-5.36,60.78,2.58,21.64,8,42.23,21.15,60,14.44,19.53,27.37,26.54,47.21,14.3.37-.23,1-.06,1.48-.08Z" transform="translate(-1.37 -1.37)"/><path class="b" d="M1189.94,769.52c-.12-5.56-.35-11.11-.32-16.66.13-35.4.36-70.79.49-106.19a212.92,212.92,0,0,1,3-36.2c3.26-18.53,14.3-32,28.94-42.91,22.62-16.82,48.58-26.9,74.85-36.06,23.37-8.16,47.06-15.4,70.61-23q0,127.49.15,255c0,5.2-1,6.25-6.22,6.23C1304.28,769.43,1247.11,769.52,1189.94,769.52Z" transform="translate(-1.37 -1.37)"/><path class="a" d="M1367.52,233.74c-.5,0-1.11-.15-1.48.08-19.84,12.24-32.77,5.23-47.21-14.3-13.12-17.74-18.57-38.33-21.15-60-2.47-20.7,1-40.9,5.36-60.78,6-27.22-2.68-48.33-22.66-66.4-10.84-9.81-20.86-20.54-31.25-30.85,37.69,0,75.38.1,113.07-.13,4.54,0,5.45.92,5.44,5.44Q1367.39,120.29,1367.52,233.74Z" transform="translate(-1.37 -1.37)"/><path class="a" d="M1.52,403.73c6.33,9.63,7.8,20.82,8.26,31.72,1.45,34.25.18,68.42-6.47,102.19a56.6,56.6,0,0,1-1.79,5.73Z" transform="translate(-1.37 -1.37)"/><path class="b" d="M890.76,494.59c-.12,24.48-19.45,41.4-41.37,38.93-13.7-1.54-26.61-6-39.42-10.6a358.93,358.93,0,0,0-70.42-17.63c-14.51-2.1-27.47-8.27-39.47-16.59-2.84-2-5.27-4.05-4.62-7.94.61-3.67,3.74-4.52,6.6-5.44,6-1.93,12-3.95,18.12-5.45,21.72-5.32,42.56-12.75,61.77-24.4,20.2-12.26,40.76-11.36,61.51-1.46,12.85,6.12,25.09,13.15,34.82,23.81C885.84,476.1,890.55,485.66,890.76,494.59Z" transform="translate(-1.37 -1.37)"/><path class="b" d="M788.59,677.3c-20-1.47-39.7-7.94-55.66-22.91-12-11.29-11.43-23.45.7-34.66,27.24-25.18,76-13.58,89.24,21.22,6.43,16.88-4.21,33-23.68,35.69C796.2,677.06,793.15,677,788.59,677.3Z" transform="translate(-1.37 -1.37)"/></svg>