<svg xmlns="http://www.w3.org/2000/svg" viewBox="0 0 1943.05 1093.1"><defs><style>.a{opacity:0;fill:#ffffff;}.b{fill:#ffffff;}</style></defs><title>1800f_00156</title><path class="a" d="M-286.86,203.38q0-178.71-.14-357.43c0-5.69,1.28-7,7-7q873.1.22,1746.2.14a59.79,59.79,0,0,1-3,5.22c-21,29.35-51.4,35.07-84.6,33.57-21.91-1-43.76-4-65.77-.94-29.11,4-54.27,15.52-73.45,38.3-6.4,7.59-11,16.2-11.66,26.58-1.25,18.36,9.83,29.86,22.7,39.55,29.57,22.25,64,34.16,99.1,44.21,34.82,10,70.75,10.72,106.68,11.22,30.33.42,60.46,2.78,90.39,8.47,37,7,71.71,23.08,109.34,27.56V614.7c-11.41,8.32-21.75,18-33.77,25.57-31.56,19.84-62.44,20.09-90.84.16a117.6,117.6,0,0,1-37.43-43.11c-11.4-22.2-15.76-46.37-17.8-70.89-3.17-38.11-1.91-75.68,13.76-111.7,12.47-28.66,27.88-55.61,45-81.59,29.36-44.55,59.49-88.6,88.82-133.16,11.11-16.89,21.43-34.42,25.42-54.71,3.58-18.22-5.51-34-22.25-38.62a52,52,0,0,0-22.54-1.19c-27.11,4.45-50.65,17.15-73,32.2-46,31-89.2,65.65-133,99.52-31.07,24-59.62,50.79-86.82,79.16-35.61,37.15-58.29,81.64-76,129.17-15.68,42.15-35.73,82.08-61.5,118.93-13.9,19.86-24.09,22.67-46.94,14.4C1080.79,562.1,1043,533,1009.78,497.43c-7.21-7.74-6.79-13.61.76-21.11,8.14-8.08,18-13.82,27.84-19.59,16.11-9.48,32.63-18.27,47.62-29.62,14.3-10.83,20.78-24.95,20.23-42.63-.5-16.44-4.9-32-11.74-46.76-12.33-26.55-21.91-53.4-22.2-83.43-.22-23.19-10.37-43.35-26-60.75a286.85,286.85,0,0,0-24.41-23.79c-32.39-28.37-70.32-39.65-112.9-36.5-28.21,2.08-54.26,11.68-79.54,23.53-39.44,18.49-80.25,26.27-123.86,19.77-27-4-54.44-4.68-81.36,2.51-17,4.55-32.79,11.71-46.93,22.37-26.48,20-31.33,44.24-14.85,73.13,10.11,17.72,24.45,31.46,40.08,44.05,26.24,21.15,55.49,38,82.6,57.89,42.09,30.82,88.47,41.74,139.76,33.89,27.85-4.26,53.87.22,76.82,17.73,18.71,14.28,36.81,29.31,54,45.37,12.3,11.49,13.13,16.91,3.82,31-15.38,23.22-32,45.53-53.07,64.09-15.76,13.85-32.06,27.12-46.77,42.14-31.49,32.15-56.08,68.39-66.56,112.9-4,17.15-6.08,34.47-.58,51.68,5.22,16.33,16.84,21.41,32.68,14.74a67,67,0,0,0,8.05-4.22c14.67-8.69,27.17-20.2,40-31.24,25.86-22.25,54.78-36.1,89.87-33.45,17,1.28,33.25,6.22,49.75,9.95,18.74,4.25,36.74,3.89,52.76-8.38q9.63-7.36,18.71-15.43c20.07-17.81,37.72-38.07,57-56.68,18.63-18,32.73-19.75,55.22-6.9,21.76,12.43,39.86,29.43,57,47.39a404.48,404.48,0,0,0,109.33,82c42,21.46,74.83,52,99.28,92.11,13.19,21.63,24.63,44.16,36,66.78H245.88c-.07-3.53-.25-7.06-.2-10.59.46-35.18-12.75-63.84-40.53-85.7-27.54-21.69-59.08-34.73-92.71-43.33-31.16-8-63.24-10.71-94.75-16.69A259.73,259.73,0,0,1-11,768.43c-31.59-9.8-47.84-32.91-55.59-63.56-8.14-32.16-11-65.23-16.82-97.79-10.32-58-41.11-100.72-94.71-126.15-16.45-7.81-32.82-15.74-48.44-25.11-9.54-5.73-19-11.57-26.88-19.63-11.22-11.55-10.06-21.84,3.32-30.61,6.84-4.49,14.45-7.2,22.27-9.37,17.35-4.84,35.2-6.76,53-9,35.45-4.49,70.39-10.9,103.18-26,26.05-12,49.64-27.2,66.9-50.73,9.07-12.36,8.2-22.2-2.26-33.11-8.61-9-18.61-16.3-28.27-24C-63.11,231-85.52,205-94.55,169.41a70.83,70.83,0,0,0-4.85-12.73c-10.76-22.86-26.07-28.26-48.72-17.35-10.74,5.18-20.66,11.75-30.39,18.55-25.9,18.08-53.67,32.3-83.93,41.49C-270.39,201.79-278.26,204.87-286.86,203.38Zm556,78.64a108,108,0,0,0,25.21-1.66c25.35-4.64,48.88-13.14,66.15-33.53,7.65-9,12.39-19.3,7-31.37s-16-15.25-27.85-16.13A51.17,51.17,0,0,0,321,201.78c-34.11,10.34-62.33,30.5-88.25,54.13-11.51,10.48-9.11,18.37,6.09,22.72A90.65,90.65,0,0,0,269.18,282Z" transform="translate(287 161.02)"/><path class="b" d="M1498.05,931.92c-11.32-22.62-22.76-45.15-36-66.78-24.45-40.08-57.28-70.65-99.28-92.11a404.48,404.48,0,0,1-109.33-82c-17.1-18-35.2-35-57-47.39-22.49-12.85-36.59-11.07-55.22,6.9-19.28,18.61-36.93,38.87-57,56.68q-9.07,8-18.71,15.43c-16,12.27-34,12.63-52.76,8.38-16.5-3.73-32.76-8.67-49.75-9.95-35.09-2.65-64,11.2-89.87,33.45-12.83,11-25.33,22.55-40,31.24a67,67,0,0,1-8.05,4.22c-15.84,6.67-27.46,1.59-32.68-14.74-5.5-17.21-3.46-34.53.58-51.68,10.48-44.51,35.07-80.75,66.56-112.9,14.71-15,31-28.29,46.77-42.14,21.1-18.56,37.69-40.87,53.07-64.09,9.31-14.05,8.48-19.47-3.82-31-17.18-16.06-35.28-31.09-54-45.37-22.95-17.51-49-22-76.82-17.73-51.29,7.85-97.67-3.07-139.76-33.89-27.11-19.86-56.36-36.74-82.6-57.89-15.63-12.59-30-26.33-40.08-44.05-16.48-28.89-11.63-53.16,14.85-73.13,14.14-10.66,29.9-17.82,46.93-22.37,26.92-7.19,54.31-6.53,81.36-2.51,43.61,6.5,84.42-1.28,123.86-19.77,25.28-11.85,51.33-21.45,79.54-23.53,42.58-3.15,80.51,8.13,112.9,36.5a286.85,286.85,0,0,1,24.41,23.79c15.67,17.4,25.82,37.56,26,60.75.29,30,9.87,56.88,22.2,83.43,6.84,14.73,11.24,30.32,11.74,46.76.55,17.68-5.93,31.8-20.23,42.63-15,11.35-31.51,20.14-47.62,29.62-9.82,5.77-19.7,11.51-27.84,19.59-7.55,7.5-8,13.37-.76,21.11,33.18,35.59,71,64.67,117.25,81.41,22.85,8.27,33,5.46,46.94-14.4,25.77-36.85,45.82-76.78,61.5-118.93,17.68-47.53,40.36-92,76-129.17,27.2-28.37,55.75-55.14,86.82-79.16,43.82-33.87,87-68.55,133-99.52,22.33-15,45.87-27.75,73-32.2a52,52,0,0,1,22.54,1.19c16.74,4.65,25.83,20.4,22.25,38.62-4,20.29-14.31,37.82-25.42,54.71-29.33,44.56-59.46,88.61-88.82,133.16-17.11,26-32.52,52.93-45,81.59-15.67,36-16.93,73.59-13.76,111.7,2,24.52,6.4,48.69,17.8,70.89a117.6,117.6,0,0,0,37.43,43.11c28.4,19.93,59.28,19.68,90.84-.16,12-7.56,22.36-17.25,33.77-25.57q0,155.58.14,311.15c0,5.19-1,6.24-6.22,6.22C1599.23,931.82,1548.64,931.92,1498.05,931.92Z" transform="translate(287 161.02)"/><path class="b" d="M-286.86,203.38c8.6,1.49,16.47-1.59,24.42-4,30.26-9.19,58-23.41,83.93-41.49,9.73-6.8,19.65-13.37,30.39-18.55,22.65-10.91,38-5.51,48.72,17.35a70.83,70.83,0,0,1,4.85,12.73c9,35.58,31.44,61.61,59.28,83.87,9.66,7.73,19.66,15,28.27,24,10.46,10.91,11.33,20.75,2.26,33.11C-22,334-45.59,349.13-71.64,361.15c-32.79,15.14-67.73,21.55-103.18,26-17.79,2.26-35.64,4.18-53,9-7.82,2.17-15.43,4.88-22.27,9.37-13.38,8.77-14.54,19.06-3.32,30.61,7.83,8.06,17.34,13.9,26.88,19.63,15.62,9.37,32,17.3,48.44,25.11,53.6,25.43,84.39,68.14,94.71,126.15,5.8,32.56,8.68,65.63,16.82,97.79,7.75,30.65,24,53.76,55.59,63.56a259.73,259.73,0,0,0,28.65,7.18c31.51,6,63.59,8.72,94.75,16.69,33.63,8.6,65.17,21.64,92.71,43.33,27.78,21.86,41,50.52,40.53,85.7-.05,3.53.13,7.06.2,10.59q-263.17,0-526.35.16c-5.63,0-6.53-1.36-6.52-6.67Q-286.76,564.41-286.86,203.38Z" transform="translate(287 161.02)"/><path class="b" d="M1655.9,72.86c-37.63-4.48-72.32-20.52-109.34-27.56-29.93-5.69-60.06-8-90.39-8.47-35.93-.5-71.86-1.23-106.68-11.22-35-10-69.53-22-99.1-44.21-12.87-9.69-24-21.19-22.7-39.55.7-10.38,5.26-19,11.66-26.58,19.18-22.78,44.34-34.28,73.45-38.3,22-3,43.86-.06,65.77.94,33.2,1.5,63.63-4.22,84.6-33.57a59.79,59.79,0,0,0,3-5.22c61.36,0,122.72.07,184.08-.13,4.84,0,5.77,1.21,5.76,5.85Q1655.77-41.16,1655.9,72.86Z" transform="translate(287 161.02)"/><path class="b" d="M269.18,282a90.65,90.65,0,0,1-30.37-3.39c-15.2-4.35-17.6-12.24-6.09-22.72,25.92-23.63,54.14-43.79,88.25-54.13a51.17,51.17,0,0,1,18.68-2.45c11.86.88,22.48,4.2,27.85,16.13s.69,22.35-7,31.37c-17.27,20.39-40.8,28.89-66.15,33.53A108,108,0,0,1,269.18,282Z" transform="translate(287 161.02)"/></svg>