<svg xmlns="http://www.w3.org/2000/svg" viewBox="0 0 1943.06 1093.14"><defs><style>.a{opacity:0;fill:#ffffff;}.b{fill:#ffffff;}</style></defs><title>1800f_00349</title><path class="a" d="M1416.09,931.92q-847.74,0-1695.46.19c-6.67,0-7.66-1.7-7.65-7.87.24-77.88.16-155.77.16-233.65a20.39,20.39,0,0,0,3.6-.9A673.19,673.19,0,0,0-167,623c27.78-19.83,53.55-42.34,82.17-61.06,35-22.86,70-27,107.43-4.76C46.73,571.53,73,582,100.15,589.55c42.22,11.82,66.39.09,83.81-40.06,8-18.53,13.78-38.19,24.61-55.39,23-36.56,58.29-56.52,98.52-67.18,46-12.18,92.41-6.95,138.31,2.3,17.76,3.58,34.8,3,51.2-4.37C545,403.14,577.9,367.3,593.25,316.3c10.69-35.55,14.45-72.34,16.36-109.21,1.45-27.9-14-46-41.45-51.05-23.57-4.33-44.4,3.45-64.29,15s-37.3,26.88-55.15,41.39c-19.05,15.48-39.29,28.64-64,33-23.79,4.15-47.86,3.51-71.87,3.72-26.18.22-51.82,3.27-76.75,12.13-15.16,5.38-30.51,10.92-47.08,10.64-10.45-.18-17.72-4.62-21.79-14.49-3.7-8.95-3.92-18.29-3.47-27.61C166.36,175.41,178,122.63,199.27,73c32.37-75.51,55.08-153.55,70.89-233.88h836.3c-.9,15.76,1.49,31.27,3.73,46.76,4.8,33.14,7.59,66.29,2.28,99.66-5,31.21-17.06,57.88-42.67,78.52a577.62,577.62,0,0,0-76.68,74.38c-11.37,13.31-21.87,27.27-26.78,44.49-7.39,25.89,2.74,46.33,27.82,55.84a94.15,94.15,0,0,0,15.33,4.18c26.37,5.12,52.5,2,78.17-4,26.33-6.19,49-1.14,68.49,17.7,4.36,4.21,9.2,7.91,13.69,12,17.12,15.5,35,29.53,56.73,38.61,61,25.55,124.46,43.44,188.29,60.2,32.48,8.53,65.38,15.82,96.5,28.91,15.81,6.64,28.16,17.37,34.6,33.37,15.21,37.87,20.27,76.61,7.07,116.24-8.93,26.81-25.23,49.5-42.13,71.6-40.22,52.57-71.52,109.62-88.66,173.86C1409.87,837.71,1402.58,884.39,1416.09,931.92ZM958,514.69a209.49,209.49,0,0,0,90.65-17.17c35.57-15.28,69.59-33.74,103-53.25,17.49-10.21,34.31-21.43,48.26-36.4,8.79-9.43,14.77-20,9.11-32.92-8.73-19.9-22.72-34.67-44.83-39.5-19.08-4.17-37.14-.07-54.48,8.12-70.87,33.44-141.9,66.55-212.53,100.48C865,459.51,832,468.1,796.08,464.6c-18.62-1.81-37.37-3.13-56.05-1.79-49.22,3.54-90.17,24.69-123.56,60.49-10.34,11.08-17.14,24.43-17,40.3.11,9.86,4.09,15.42,13.09,19.19A95.61,95.61,0,0,0,649.53,590a201,201,0,0,0,91.33-21.53C763.39,557.22,783.71,542.55,804,528c25.9-18.6,54.29-22.69,85.06-18.79C911.84,512.09,934.66,515.33,958,514.69ZM492.24,764.79a91.72,91.72,0,0,0,33.21-4.6c10.93-3.8,19.15-10.9,21.78-22.33,5.2-22.62-1.38-42.36-16.77-59.29-5.32-5.85-12.44-8.51-20.26-9.15-27.27-2.26-58.64,15.54-70.58,40-7.48,15.33-4.94,30.65,7.74,42.06S475.46,765.64,492.24,764.79ZM200.7,906.93c-.64-13.71-4.64-23.6-13.45-31.46-4.18-3.74-8.93-3.73-13.38-2-4.72,1.78-4.86,6.82-4.65,11,.56,11.1,5.86,20,13.68,27.67,3.4,3.31,7.25,6.08,12.09,4S201.16,909.79,200.7,906.93Z" transform="translate(287.02 161.04)"/><path class="b" d="M270.16-160.88C254.35-80.55,231.64-2.51,199.27,73,178,122.63,166.36,175.41,163.74,229.73c-.45,9.32-.23,18.66,3.47,27.61,4.07,9.87,11.34,14.31,21.79,14.49,16.57.28,31.92-5.26,47.08-10.64,24.93-8.86,50.57-11.91,76.75-12.13,24-.21,48.08.43,71.87-3.72,24.73-4.31,45-17.47,64-33,17.85-14.51,35.13-29.79,55.15-41.39s40.72-19.29,64.29-15c27.47,5,42.9,23.15,41.45,51.05-1.91,36.87-5.67,73.66-16.36,109.21-15.35,51-48.28,86.84-96.65,108.55-16.4,7.36-33.44,7.95-51.2,4.37-45.9-9.25-92.36-14.48-138.31-2.3-40.23,10.66-75.49,30.62-98.52,67.18C197.74,511.3,192,531,184,549.49c-17.42,40.15-41.59,51.88-83.81,40.06C73,582,46.73,571.53,22.62,557.2-14.83,534.93-49.86,539.1-84.81,562-113.43,580.68-139.2,603.19-167,623a673.19,673.19,0,0,1-116.28,66.67,20.39,20.39,0,0,1-3.6.9V116.87c1.4-.46,2.42.27,3.4,1.09a324.26,324.26,0,0,1,36.28,35.49c11.73,13.54,20.13,29.8,33.72,41.81,13.27,11.71,27.65,20.08,46,11.88,9.73-4.35,16.83-12.16,23-20.47,22.18-29.82,45.32-58.8,71.93-84.87C-57.35,86.94-42.72,71.54-29,55.33-11.14,34.19,2.06,11.05-.12-18.07A185.61,185.61,0,0,0-6.71-53.74c-8.53-30.76-7.35-60.89,4.32-90.65,2.11-5.37,3.63-11,5.43-16.49Z" transform="translate(287.02 161.04)"/><path class="b" d="M1416.09,931.92c-13.51-47.53-6.22-94.21,6.15-140.54,17.14-64.24,48.44-121.29,88.66-173.86,16.9-22.1,33.2-44.79,42.13-71.6,13.2-39.63,8.14-78.37-7.07-116.24-6.44-16-18.79-26.73-34.6-33.37-31.12-13.09-64-20.38-96.5-28.91-63.83-16.76-127.25-34.65-188.29-60.2-21.7-9.08-39.61-23.11-56.73-38.61-4.49-4.07-9.33-7.77-13.69-12-19.53-18.84-42.16-23.89-68.49-17.7-25.67,6-51.8,9.16-78.17,4a94.15,94.15,0,0,1-15.33-4.18c-25.08-9.51-35.21-30-27.82-55.84,4.91-17.22,15.41-31.18,26.78-44.49a577.62,577.62,0,0,1,76.68-74.38c25.61-20.64,37.7-47.31,42.67-78.52,5.31-33.37,2.52-66.52-2.28-99.66-2.24-15.49-4.63-31-3.73-46.76H1319c.19,3.76,2.61,6.52,4.48,9.44,29.33,45.81,57.22,92.39,79.28,142.26a175.38,175.38,0,0,0,17.71,30.86c18.34,25.69,42,45.65,68.19,62.75,18.49,12.09,38,22,60.21,25.67,19.32,3.2,33.46-4.21,36.62-20.18a54.2,54.2,0,0,0-.35-20.34c-1.83-9.91-4-19.81-5.08-29.81-3.6-32.12-3.55-64.55-7.85-96.6-4.36-32.52-11.93-64.07-29.59-92.4-2.34-3.77-6.09-6.82-6.58-11.65,38,0,75.89.13,113.83-.16,5.21,0,6.23,1,6.22,6.23q-.26,273.58-.14,547.16V786.21c-3,1.31-6.06,2.43-8.92,4a538.78,538.78,0,0,0-116.74,84.61c-20.46,19.46-41.68,38.11-62.55,57.13Z" transform="translate(287.02 161.04)"/><path class="a" d="M3-160.88c-1.8,5.5-3.32,11.12-5.43,16.49C-14.06-114.63-15.24-84.5-6.71-53.74A185.61,185.61,0,0,1-.12-18.07c2.18,29.12-11,52.26-28.9,73.4-13.7,16.21-28.33,31.61-43.5,46.47-26.61,26.07-49.75,55.05-71.93,84.87-6.18,8.31-13.28,16.12-23,20.47-18.35,8.2-32.73-.17-46-11.88-13.59-12-22-28.27-33.72-41.81A324.26,324.26,0,0,0-283.46,118c-1-.82-2-1.55-3.4-1.09q0-135.66-.15-271.32c0-5.49,1.15-6.59,6.6-6.58Q-138.69-160.71,3-160.88Z" transform="translate(287.02 161.04)"/><path class="a" d="M1536-160.88c.49,4.83,4.24,7.88,6.58,11.65,17.66,28.33,25.23,59.88,29.59,92.4,4.3,32.05,4.25,64.48,7.85,96.6,1.12,10,3.25,19.9,5.08,29.81a54.2,54.2,0,0,1,.35,20.34c-3.16,16-17.3,23.38-36.62,20.18-22.19-3.68-41.72-13.58-60.21-25.67-26.18-17.1-49.85-37.06-68.19-62.75a175.38,175.38,0,0,1-17.71-30.86c-22.06-49.87-50-96.45-79.28-142.26-1.87-2.92-4.29-5.68-4.48-9.44Z" transform="translate(287.02 161.04)"/><path class="a" d="M1467.69,931.92c20.87-19,42.09-37.67,62.55-57.13A538.78,538.78,0,0,1,1647,790.18c2.86-1.54,5.94-2.66,8.92-4,0,46.8-.09,93.6.12,140.39,0,4.53-.91,5.46-5.44,5.44Q1559.14,931.77,1467.69,931.92Z" transform="translate(287.02 161.04)"/><path class="b" d="M958,514.69c-23.37.64-46.19-2.6-69-5.5-30.77-3.9-59.16.19-85.06,18.79-20.29,14.57-40.61,29.24-63.14,40.46A201,201,0,0,1,649.53,590a95.61,95.61,0,0,1-36.94-7.18c-9-3.77-13-9.33-13.09-19.19-.17-15.87,6.63-29.22,17-40.3,33.39-35.8,74.34-56.95,123.56-60.49,18.68-1.34,37.43,0,56.05,1.79,35.88,3.5,69-5.09,101.14-20.55,70.63-33.93,141.66-67,212.53-100.48,17.34-8.19,35.4-12.29,54.48-8.12,22.11,4.83,36.1,19.6,44.83,39.5,5.66,12.88-.32,23.49-9.11,32.92-14,15-30.77,26.19-48.26,36.4-33.42,19.51-67.44,38-103,53.25A209.49,209.49,0,0,1,958,514.69Z" transform="translate(287.02 161.04)"/><path class="b" d="M492.24,764.79c-16.78.85-32.27-2-44.88-13.3s-15.22-26.73-7.74-42.06c11.94-24.47,43.31-42.27,70.58-40,7.82.64,14.94,3.3,20.26,9.15,15.39,16.93,22,36.67,16.77,59.29-2.63,11.43-10.85,18.53-21.78,22.33A91.72,91.72,0,0,1,492.24,764.79Z" transform="translate(287.02 161.04)"/><path class="b" d="M200.7,906.93c.46,2.86-1,7.16-5.71,9.19s-8.69-.69-12.09-4c-7.82-7.62-13.12-16.57-13.68-27.67-.21-4.2-.07-9.24,4.65-11,4.45-1.69,9.2-1.7,13.38,2C196.06,883.33,200.06,893.22,200.7,906.93Z" transform="translate(287.02 161.04)"/></svg>