<svg xmlns="http://www.w3.org/2000/svg" viewBox="0 0 1943.05 1093.11"><defs><style>.a{opacity:0;fill:#ffffff;}.b{fill:#ffffff;}</style></defs><title>1800f_00133</title><path class="a" d="M1655.9,901.56c0,9.11-.14,18.22.08,27.32.06,2.64-.48,3.56-3.13,3.08a20.72,20.72,0,0,0-3.78,0H461.4c-1.44-4.54,2-7.6,3.61-11.09,13.74-29.83-.1-69.68-29.81-83.3-29.07-13.31-56.88-2.46-58.56,35.58-.89,20.13,2,39.57,7.36,58.81q-332.05,0-664.11.15c-5.87,0-7-1.49-6.9-7.05.35-23,.15-46,.15-69,2.55-4.35,5.19-8.64,7.63-13,26.88-48.53,44.83-100.26,51.12-155.3,6.8-59.53,16-118.6,27.18-177.44,6.3-33.16,6.83-66.4-5.25-98.7-6.59-17.62-16.17-33.14-32.88-43.17-15.5-9.31-31.62-6.26-47.8-2.59V223.12c2.77-.13,5.58,0,8.31-.4,75.17-10.95,150.83-8.68,226.41-8.07,69.23.55,138.43,4,207.45-6.29,46.53-6.92,89.2-21.22,126.05-51.36,17.59-14.39,35.37-28.67,55.09-40.22,28.85-16.89,58.36-19.76,89.08-5.22,17.27,8.18,33.45,18.13,47.35,31.15,29.39,27.53,63.52,47.2,100,63.51,28,12.49,56.76,17.44,87.2,13.43,21.8-2.86,43.41-6.82,65-10.84,27.81-5.18,55.62-11.18,84.16-8.35,38.45,3.81,77,7.27,115.23,12.54,40,5.51,78.7,15.94,115.07,34.15,28.34,14.19,44.69,36.63,50.42,67.76,5.39,29.32,5.26,58.92,5.25,88.43,0,37.89,10,72.37,30.4,104,13.65,21.11,27.91,42.08,50.24,54.89,36.39,20.88,71,15.55,93.09-23.22,13.69-24,21.19-50.33,27.08-77,13.54-61.29,28.84-121.87,54.69-179.49,19-42.41,34.66-86.35,58.09-126.76C1429,121,1451.33,87.51,1472.3,53.21c4.87-8,10-15.89,11.93-25.23,1.16-5.49-1.12-8.88-6.93-9.21a40.34,40.34,0,0,0-15.69,2c-21.64,7.43-41.78,18-61.49,29.4-34.2,19.71-68.49,39.14-106.15,51.77-30.43,10.2-60.47,21.76-92.24,27.26-21.1,3.65-28.7-2.34-28.06-23.64a167.06,167.06,0,0,0-14.82-74.37c-12.52-28-8.93-54.79,8.77-79.64,20.27-28.45,46-51.64,72.24-74.31a295.86,295.86,0,0,1,56.32-38.12h50.09c9,4.59,18.37,8.53,26.85,13.9,28.61,18.15,56.82,36.92,85.33,55.22,18.08,11.61,37,21.94,54.15,35,11,8.36,17.89,19.18,20.23,32.7,1.15,6.63,4.8,11,10.4,14a68.43,68.43,0,0,0,12.43,5.58c24.19,7.25,39.91,23.77,51.21,45.53a231.7,231.7,0,0,1,18.62,48.79c12.62,48.48,14.52,98.44,19.33,147.92,5.18,53.28-5.8,104.68-23,154.9-19.57,57.16-40,114-56.29,172.26-16.2,58-24.62,116.78-14.27,176.89,9.28,54,32.52,100.81,73.2,138.14C1633.84,888.51,1643.44,897.22,1655.9,901.56ZM816,481.06c0-2.77.35-5.6-.06-8.3-1.21-7.92-3.42-16.19-11.44-19.16s-14.38,2.56-19.82,8a88.12,88.12,0,0,0-17.4,25.47c-5.34,11.61-10.95,23.47-8.36,36.88,1.83,9.48,7.94,12.88,17.19,10.21C798.4,527.78,816.1,504.31,816,481.06Z" transform="translate(287.01 161.03)"/><path class="b" d="M1296.18-160.88a295.86,295.86,0,0,0-56.32,38.12c-26.23,22.67-52,45.86-72.24,74.31-17.7,24.85-21.29,51.62-8.77,79.64a167.06,167.06,0,0,1,14.82,74.37c-.64,21.3,7,27.29,28.06,23.64,31.77-5.5,61.81-17.06,92.24-27.26,37.66-12.63,72-32.06,106.15-51.77,19.71-11.37,39.85-22,61.49-29.4a40.34,40.34,0,0,1,15.69-2c5.81.33,8.09,3.72,6.93,9.21-2,9.34-7.06,17.27-11.93,25.23-21,34.3-43.27,67.76-63.44,102.56-23.43,40.41-39,84.35-58.09,126.76-25.85,57.62-41.15,118.2-54.69,179.49-5.89,26.65-13.39,52.94-27.08,77-22.08,38.77-56.7,44.1-93.09,23.22-22.33-12.81-36.59-33.78-50.24-54.89-20.43-31.62-30.41-66.1-30.4-104,0-29.51.14-59.11-5.25-88.43-5.73-31.13-22.08-53.57-50.42-67.76-36.37-18.21-75.12-28.64-115.07-34.15-38.26-5.27-76.78-8.73-115.23-12.54-28.54-2.83-56.35,3.17-84.16,8.35-21.61,4-43.22,8-65,10.84-30.44,4-59.21-.94-87.2-13.43-36.52-16.31-70.65-36-100-63.51-13.9-13-30.08-23-47.35-31.15C394.81,97,365.3,99.89,336.45,116.78,316.73,128.33,299,142.61,281.36,157c-36.85,30.14-79.52,44.44-126,51.36-69,10.28-138.22,6.84-207.45,6.29-75.58-.61-151.24-2.88-226.41,8.07-2.73.39-5.54.27-8.31.4V-16.69c2.5-1.17,5.06-2.22,7.49-3.53,37.25-20.11,75.27-38.16,117.35-46,17.38-3.25,34.75-6.69,51.05-14,18-8,30.14-20.78,33.77-40.74,2.42-13.27,3.22-26.54,1.31-39.93h94.1c-.21,2.48,1.38,4.29,2.5,6.21,15.77,26.95,34.13,51.93,57,73.3C88.1-71.7,99-62.57,112.52-57.52c26.22,9.78,47.65-.3,55.86-27,5.2-16.87,9.35-34.08,13.7-51.2,2.16-8.52,6.91-16.24,7.64-25.17H423.46c.11,20.18,7.33,37.52,21.31,51.91,22.7,23.37,50.65,28.42,81.59,23.08,27.19-4.68,52.31-15.11,77-26.91,29.52-14.12,60.22-23.36,93.34-22.89,20.44.28,40.9.2,61.34.62a341.11,341.11,0,0,0,71.61-5.68c42.25-8.12,84.75-13.9,127.9-12.19a445,445,0,0,0,46.93-.83c11.94-.79,24.23-1.06,35.22-7.11Z" transform="translate(287.01 161.03)"/><path class="b" d="M1655.9,901.56c-12.46-4.34-22.06-13-31.44-21.66-40.68-37.33-63.92-84.19-73.2-138.14-10.35-60.11-1.93-118.86,14.27-176.89,16.26-58.24,36.72-115.1,56.29-172.26,17.2-50.22,28.18-101.62,23-154.9-4.81-49.48-6.71-99.44-19.33-147.92A231.7,231.7,0,0,0,1606.87,41c-11.3-21.76-27-38.28-51.21-45.53a68.43,68.43,0,0,1-12.43-5.58c-5.6-3-9.25-7.37-10.4-14-2.34-13.52-9.19-24.34-20.23-32.7-17.19-13-36.07-23.34-54.15-34.95-28.51-18.3-56.72-37.07-85.33-55.22-8.48-5.37-17.88-9.31-26.85-13.9q151.77,0,303.55-.15c5.2,0,6.22,1,6.22,6.22Q1655.8,373.37,1655.9,901.56Z" transform="translate(287.01 161.03)"/><path class="b" d="M-286.86,365.79c16.18-3.67,32.3-6.72,47.8,2.59,16.71,10,26.29,25.55,32.88,43.17,12.08,32.3,11.55,65.54,5.25,98.7-11.17,58.84-20.38,117.91-27.18,177.44-6.29,55-24.24,106.77-51.12,155.3-2.44,4.4-5.08,8.69-7.63,13Z" transform="translate(287.01 161.03)"/><path class="a" d="M-75.89-160.88c1.91,13.39,1.11,26.66-1.31,39.93C-80.83-101-93-88.22-111-80.21c-16.3,7.27-33.67,10.71-51.05,14-42.08,7.87-80.1,25.92-117.35,46-2.43,1.31-5,2.36-7.49,3.53,0-46.2.09-92.39-.14-138.58,0-4.91,1.33-5.73,5.89-5.72Q-178.49-160.75-75.89-160.88Z" transform="translate(287.01 161.03)"/><path class="a" d="M1039.68-160.88c-11,6-23.28,6.32-35.22,7.11a445,445,0,0,1-46.93.83c-43.15-1.71-85.65,4.07-127.9,12.19A341.11,341.11,0,0,1,758-135.07c-20.44-.42-40.9-.34-61.34-.62-33.12-.47-63.82,8.77-93.34,22.89-24.67,11.8-49.79,22.23-77,26.91-30.94,5.34-58.89.29-81.59-23.08-14-14.39-21.2-31.73-21.31-51.91Z" transform="translate(287.01 161.03)"/><path class="a" d="M189.72-160.88c-.73,8.93-5.48,16.65-7.64,25.17-4.35,17.12-8.5,34.33-13.7,51.2-8.21,26.69-29.64,36.77-55.86,27C99-62.57,88.1-71.7,77.75-81.37c-22.91-21.37-41.27-46.35-57-73.3-1.12-1.92-2.71-3.73-2.5-6.21Z" transform="translate(287.01 161.03)"/><path class="b" d="M384,931.92c-5.39-19.24-8.25-38.68-7.36-58.81,1.68-38,29.49-48.89,58.56-35.58,29.71,13.62,43.55,53.47,29.81,83.3-1.61,3.49-5.05,6.55-3.61,11.09Z" transform="translate(287.01 161.03)"/><path class="b" d="M816,481.06c.08,23.25-17.62,46.72-39.89,53.15-9.25,2.67-15.36-.73-17.19-10.21-2.59-13.41,3-25.27,8.36-36.88a88.12,88.12,0,0,1,17.4-25.47c5.44-5.49,11.81-11,19.82-8s10.23,11.24,11.44,19.16C816.37,475.46,816,478.29,816,481.06Z" transform="translate(287.01 161.03)"/></svg>