<svg xmlns="http://www.w3.org/2000/svg" viewBox="0 0 1943.07 1093.1"><defs><style>.a{opacity:0;fill:#ffffff;}.b{fill:#ffffff;}</style></defs><title>1800f_00197</title><path class="a" d="M1302.25,931.92q-791.16,0-1582.34.15c-5.83,0-7-1.48-6.91-7,.26-40.7.14-81.41.14-122.12,4.69-7.48,9.24-15,14.09-22.4,14.83-22.49,35.9-38.88,55.55-56.65,13-11.77,24.59-24.73,31.91-41,8.79-19.47,5.72-35.34-8.92-50.62-16.44-17.15-36.13-29.91-56.15-42.18-11.56-7.08-23.14-14.34-36.48-17.91V277.76c2.05,1,2.47,3.09,3.42,4.82,22,40.39,51.58,73.38,92.41,95.79a403.94,403.94,0,0,1,46.63,29.77C-118.94,427.06-101.81,451-98,483.25c2.16,18.56,4.35,37.12,7,55.6,2.4,16.47,7,32.13,20.21,43.74a79.92,79.92,0,0,0,31.94,16.83c25.2,6.92,49.55,15.8,72.68,28.07a79.33,79.33,0,0,0,18.33,7.12c16.62,4.07,27,.32,36.69-13.64,13.63-19.62,18.94-42.34,23.41-65.16C124.68,492.39,121.33,429,110,365.88c-5.36-29.94-15.28-58.17-34.35-82.49-14.74-18.8-33.78-32.52-53.45-45.54C3.28,225.32-13.51,210.4-26.41,191.6c-13.68-19.95-11.38-37.63,6.35-54.12,7.1-6.61,15.36-11.5,24-15.79,24.38-12.1,50.41-19.36,76.66-26,30.1-7.66,61-12,90.54-22,56.59-19.27,107.61-48.53,154.4-85.68C378-53.73,422.2-102.44,455.33-160.88H783.17c-3.6,8.28-7.53,16.45-10.74,24.88-7.3,19.17-3.17,37.38,11,49.92a67.31,67.31,0,0,0,28.77,14.67c25.54,6.38,51.17,4.32,76.83.94,22.79-3,45.3-8.13,68.27-9.63,33.68-2.2,66.41,4.57,99.08,11.46,15.33,3.24,30.74,6.32,44,15.48,7.64,5.27,11.94,11.83,11,21.67-.67,6.69-3.26,12.65-5.33,18.82-4,11.82-7.51,23.6-4,36.26,4.89,17.54,22,22.37,35.19,9.78a39.54,39.54,0,0,0,4.78-5.84c9.39-13.24,14.32-28.3,17.45-44,3-15,10.67-23.76,23.9-25.58,7.41-1,14.4,1.62,21.21,4.46,19.92,8.31,35.28,22.39,48.8,38.74,25,30.24,44.52,64,60.31,99.63,18.86,42.61,46.07,78.78,79.5,110.75,26.49,25.34,53.56,50.07,79.22,76.28a910.11,910.11,0,0,0,118,101c21.07,15.23,42.59,29.78,65.43,42.27V566.13a15,15,0,0,0-1.82,2.35c-17.88,35.45-38.46,69.34-59.93,102.67-27.34,42.45-53.11,86.1-87,123.87-38.36,42.77-83.88,71.87-143.51,75.27C1326.1,872.43,1302.93,897.18,1302.25,931.92Z" transform="translate(287.03 161.03)"/><path class="b" d="M455.33-160.88C422.2-102.44,378-53.73,325.54-12.06c-46.79,37.15-97.81,66.41-154.4,85.68-29.5,10-60.44,14.38-90.54,22-26.25,6.67-52.28,13.93-76.66,26-8.64,4.29-16.9,9.18-24,15.79-17.73,16.49-20,34.17-6.35,54.12,12.9,18.8,29.69,33.72,48.63,46.25,19.67,13,38.71,26.74,53.45,45.54,19.07,24.32,29,52.55,34.35,82.49,11.31,63.15,14.66,126.51,2.24,189.93-4.47,22.82-9.78,45.54-23.41,65.16-9.69,14-20.07,17.71-36.69,13.64a79.33,79.33,0,0,1-18.33-7.12c-23.13-12.27-47.48-21.15-72.68-28.07a79.92,79.92,0,0,1-31.94-16.83C-84,571-88.6,555.32-91,538.85c-2.7-18.48-4.89-37-7-55.6-3.76-32.29-20.89-56.19-46.35-75.11A403.94,403.94,0,0,0-191,378.37c-40.83-22.41-70.38-55.4-92.41-95.79-.95-1.73-1.37-3.86-3.42-4.82q0-216.15-.17-432.29c0-5.74,1.51-6.48,6.71-6.48Q87.51-160.79,455.33-160.88Z" transform="translate(287.03 161.03)"/><path class="b" d="M1655.9,431.05c-22.84-12.49-44.36-27-65.43-42.27a910.11,910.11,0,0,1-118-101c-25.66-26.21-52.73-50.94-79.22-76.28-33.43-32-60.64-68.14-79.5-110.75C1298,65.1,1278.42,31.39,1253.43,1.15c-13.52-16.35-28.88-30.43-48.8-38.74-6.81-2.84-13.8-5.47-21.21-4.46-13.23,1.82-20.92,10.63-23.9,25.58-3.13,15.7-8.06,30.76-17.45,44a39.54,39.54,0,0,1-4.78,5.84c-13.2,12.59-30.3,7.76-35.19-9.78-3.53-12.66,0-24.44,4-36.26,2.07-6.17,4.66-12.13,5.33-18.82,1-9.84-3.31-16.4-11-21.67-13.3-9.16-28.71-12.24-44-15.48C1023.75-75.53,991-82.3,957.34-80.1c-23,1.5-45.48,6.63-68.27,9.63-25.66,3.38-51.29,5.44-76.83-.94a67.31,67.31,0,0,1-28.77-14.67c-14.21-12.54-18.34-30.75-11-49.92,3.21-8.43,7.14-16.6,10.74-24.88H1618c-6.94,3.4-14.65,3.26-22,4.67-24.57,4.71-49.26,8.83-71.47,21.48-28.63,16.32-41.89,42.43-37.12,74.82,4,27.12,17,50.68,31.09,73.49,23.47,37.86,55.21,68.23,89.57,96,14.72,11.89,30.13,22.92,47.89,30.09Z" transform="translate(287.03 161.03)"/><path class="b" d="M1302.25,931.92c.68-34.74,23.85-59.49,61.39-61.63,59.63-3.4,105.15-32.5,143.51-75.27,33.89-37.77,59.66-81.42,87-123.87,21.47-33.33,42-67.22,59.93-102.67a15,15,0,0,1,1.82-2.35q0,179.86.14,359.72c0,5.19-1,6.22-6.22,6.21Q1476,931.78,1302.25,931.92Z" transform="translate(287.03 161.03)"/><path class="a" d="M1655.9,139.64c-17.76-7.17-33.17-18.2-47.89-30.09-34.36-27.74-66.1-58.11-89.57-96-14.13-22.81-27.1-46.37-31.09-73.49-4.77-32.39,8.49-58.5,37.12-74.82,22.21-12.65,46.9-16.77,71.47-21.48,7.36-1.41,15.07-1.27,22-4.67,10.88,0,21.77.28,32.63-.14,4.55-.17,5.45.92,5.44,5.45Q1655.78-8,1655.9,139.64Z" transform="translate(287.03 161.03)"/><path class="b" d="M-286.86,572.2c13.34,3.57,24.92,10.83,36.48,17.91,20,12.27,39.71,25,56.15,42.18,14.64,15.28,17.71,31.15,8.92,50.62-7.32,16.22-18.89,29.18-31.91,41-19.65,17.77-40.72,34.16-55.55,56.65-4.85,7.36-9.4,14.92-14.09,22.4Z" transform="translate(287.03 161.03)"/></svg>