<svg xmlns="http://www.w3.org/2000/svg" viewBox="0 0 1943.08 1093.11"><defs><style>.a{opacity:0;fill:#ffffff;}.b{fill:#ffffff;}</style></defs><title>1800f_00163</title><path class="a" d="M-286.86,189.72V13.66c4.17-9.8,5.23-20.38,7.47-30.65,8.7-39.86,15.29-80.24,30.28-118.52,3.28-8.38,7.74-16.35,9.3-25.37H1564.83a233.44,233.44,0,0,1-35,59c-15.42,19-34.89,28.41-59.7,26.38-18.64-1.52-36.1-7.26-53.33-13.87-32.15-12.33-62.36-28.86-93.46-43.45-16.25-7.62-32.73-14.55-50.91-16.58-17.85-2-31.71,7.8-35.47,25.38-2.18,10.17-1.31,20.15,1,30,6.89,29.56,23.65,53.56,44.58,74.52,49.26,49.31,108.67,83.77,171,113.42,28.06,13.36,58.85,15.47,89.54,16.87,37.7,1.73,75.17-4.35,112.85-3V652.65c-10.91,6.79-20.6,15.43-32.48,20.76-19.41,8.7-37.13,5.72-52.25-9.09A85.24,85.24,0,0,1,1555.51,643c-11.77-22.42-16.31-46.72-17.68-71.61-4.41-80.29,5.84-158.84,28.6-235.91,9.91-33.57,24.11-65.42,37.45-97.63,3.58-8.66,6.53-17.53,6.75-27.07.42-17.92-9.5-28.3-27.58-28.83-13.24-.4-25.44,3.59-37.28,8.93-24.35,11-45.77,26.72-67.88,41.42-53.16,35.35-96.18,80-128.07,135.47q-27.6,48-56.18,95.41c-21.45,35.76-46,69.05-78.92,95.33-15.74,12.57-32.65,23.19-53.21,25.89-31.53,4.15-60.54-4.84-88.72-17.66-5.51-2.51-12.23-5.38-12.79-11.79-.64-7.25,6.66-10.11,12-13.24,12.21-7.15,24.87-13.57,36.88-21,19.79-12.29,39.45-25,53-44.59,11-15.94,9.84-29.25-3.77-43-38-38.3-73.37-78.88-105.09-122.52-24.79-34.09-56.65-56.62-98.81-63.07-50.32-7.7-100.87-6.14-151.32-2.22-22.61,1.75-44.92,7.23-67.53,9.31-43.51,4-87.16,6.57-130.08,15.54-16.82,3.51-33.86,6.2-49.13,14.77-16.62,9.34-20.86,23-12.75,40.29,5.91,12.6,14.76,23,24.9,32.2,31.07,28.26,65.87,51.33,103.22,70.15,61.45,31,127.07,45.89,195.81,47.76,23.72.65,47.72,1,70,10.72,30.85,13.44,56.57,34.19,79.65,58.28,7.55,7.87,7.6,14.63-.14,23.51C988.62,600.33,964.46,636,937,669.07c-21.54,25.95-45.64,48.5-77.12,62.36-19.4,8.55-37.81,10.05-56.31-1.66-6-3.78-12.23-7.14-18.45-10.51-9.68-5.24-19.9-8.9-31.08-8-19.12,1.5-32.07,12.37-41.39,28.29-14.47,24.74-5.92,58.06,18.72,71.16,14.8,7.88,31.17,8.73,47.33,6.38,26.81-3.89,50,1.58,69,22,8.1,8.67,18.25,15.17,28.46,21.32,25.59,15.41,52.92,23.53,83.13,20.27a187.16,187.16,0,0,0,30.42-6c21-5.86,42.55-8.71,64-12.14,29.58-4.72,54-19.14,75.47-39.23,10.5-9.83,20.34-20.44,32-28.87,11.21-8.09,22-10.58,33.74,1.78,3.41,3.6,7.74,6.47,12,9.11,18,11.14,38.28,17.09,58.24,23.24,63.85,19.66,118.8,53,163,103.41H294.45c-.51-3-1.12-6-1.5-9-4.34-34.61-21.35-60.43-52.63-76.57A214.29,214.29,0,0,0,198,830c-36.1-9.82-73.36-11.06-110.25-15-24.89-2.7-49.67-6-73.28-15-20.91-8-35.07-22.26-41.88-43.83a359.29,359.29,0,0,1-11.82-49.35c-8.49-51-26.68-97.81-57.17-139.74-21.82-30-46.48-57.3-75.75-80.27-15.62-12.27-15.55-17.33.82-28.87,18.19-12.83,37.62-23.73,56.54-35.41,24.51-15.13,49.73-29.3,70.06-50.26,20.61-21.26,23.45-44.08,8.71-69.77C-44.9,287-56.89,273.88-67.83,260c-22-28-43.82-56.15-65.91-84.1-11-13.9-24-14.07-35.69-.9-1,1.12-1.81,2.42-2.75,3.6C-200,213.56-253.55,218.75-286.86,189.72Z" transform="translate(287.03 161.03)"/><path class="b" d="M1428.23,931.92c-44.23-50.42-99.18-83.75-163-103.41-20-6.15-40.21-12.1-58.24-23.24-4.26-2.64-8.59-5.51-12-9.11-11.72-12.36-22.53-9.87-33.74-1.78-11.69,8.43-21.53,19-32,28.87-21.46,20.09-45.89,34.51-75.47,39.23-21.44,3.43-43,6.28-64,12.14a187.16,187.16,0,0,1-30.42,6c-30.21,3.26-57.54-4.86-83.13-20.27-10.21-6.15-20.36-12.65-28.46-21.32-19.06-20.43-42.21-25.9-69-22-16.16,2.35-32.53,1.5-47.33-6.38-24.64-13.1-33.19-46.42-18.72-71.16C722,723.6,734.92,712.73,754,711.23c11.18-.87,21.4,2.79,31.08,8,6.22,3.37,12.47,6.73,18.45,10.51,18.5,11.71,36.91,10.21,56.31,1.66C891.36,717.57,915.46,695,937,669.07c27.46-33.07,51.62-68.74,79.9-101.19,7.74-8.88,7.69-15.64.14-23.51-23.08-24.09-48.8-44.84-79.65-58.28-22.29-9.72-46.29-10.07-70-10.72C798.64,473.5,733,458.59,671.57,427.61c-37.35-18.82-72.15-41.89-103.22-70.15-10.14-9.23-19-19.6-24.9-32.2C535.34,308,539.58,294.31,556.2,285c15.27-8.57,32.31-11.26,49.13-14.77,42.92-9,86.57-11.52,130.08-15.54,22.61-2.08,44.92-7.56,67.53-9.31,50.45-3.92,101-5.48,151.32,2.22,42.16,6.45,74,29,98.81,63.07,31.72,43.64,67.09,84.22,105.09,122.52,13.61,13.71,14.79,27,3.77,43-13.58,19.63-33.24,32.3-53,44.59-12,7.46-24.67,13.88-36.88,21-5.36,3.13-12.66,6-12,13.24.56,6.41,7.28,9.28,12.79,11.79,28.18,12.82,57.19,21.81,88.72,17.66,20.56-2.7,37.47-13.32,53.21-25.89,32.9-26.28,57.47-59.57,78.92-95.33q28.47-47.47,56.18-95.41c31.89-55.44,74.91-100.12,128.07-135.47,22.11-14.7,43.53-30.44,67.88-41.42,11.84-5.34,24-9.33,37.28-8.93,18.08.53,28,10.91,27.58,28.83-.22,9.54-3.17,18.41-6.75,27.07-13.34,32.21-27.54,64.06-37.45,97.63-22.76,77.07-33,155.62-28.6,235.91,1.37,24.89,5.91,49.19,17.68,71.61a85.24,85.24,0,0,0,15.66,21.29c15.12,14.81,32.84,17.79,52.25,9.09,11.88-5.33,21.57-14,32.48-20.76q0,136.59.14,273.2c0,5.19-1,6.23-6.22,6.22Q1539,931.74,1428.23,931.92Z" transform="translate(287.03 161.03)"/><path class="b" d="M-286.86,189.72c33.31,29,86.81,23.84,114.68-11.13.94-1.18,1.75-2.48,2.75-3.6,11.72-13.17,24.71-13,35.69.9,22.09,28,43.87,56.12,65.91,84.1C-56.89,273.88-44.9,287-36,302.42c14.74,25.69,11.9,48.51-8.71,69.77-20.33,21-45.55,35.13-70.06,50.26-18.92,11.68-38.35,22.58-56.54,35.41-16.37,11.54-16.44,16.6-.82,28.87,29.27,23,53.93,50.25,75.75,80.27,30.49,41.93,48.68,88.79,57.17,139.74a359.29,359.29,0,0,0,11.82,49.35c6.81,21.57,21,35.81,41.88,43.83,23.61,9.06,48.39,12.34,73.28,15,36.89,4,74.15,5.23,110.25,15a214.29,214.29,0,0,1,42.34,16.38c31.28,16.14,48.29,42,52.63,76.57.38,3,1,6,1.5,9q-287.46,0-574.91.16c-5.6,0-6.54-1.31-6.54-6.66Q-286.76,557.58-286.86,189.72Z" transform="translate(287.03 161.03)"/><path class="b" d="M1655.9,107.76c-37.68-1.32-75.15,4.76-112.85,3-30.69-1.4-61.48-3.51-89.54-16.87-62.3-29.65-121.71-64.11-171-113.42-20.93-21-37.69-45-44.58-74.52-2.3-9.87-3.17-19.85-1-30,3.76-17.58,17.62-27.38,35.47-25.38,18.18,2,34.66,9,50.91,16.58,31.1,14.59,61.31,31.12,93.46,43.45C1434-82.78,1451.5-77,1470.14-75.52c24.81,2,44.28-7.43,59.7-26.38a233.44,233.44,0,0,0,35-59c28.58,0,57.17.13,85.75-.13,4.54-.05,5.45.91,5.44,5.44Q1655.77-23.9,1655.9,107.76Z" transform="translate(287.03 161.03)"/><path class="b" d="M-239.81-160.88c-1.56,9-6,17-9.3,25.37-15,38.28-21.58,78.66-30.28,118.52-2.24,10.27-3.3,20.85-7.47,30.65,0-56,.12-111.93-.17-167.9,0-6,1.74-6.94,7.14-6.78C-266.54-160.61-253.17-160.88-239.81-160.88Z" transform="translate(287.03 161.03)"/></svg>