<svg xmlns="http://www.w3.org/2000/svg" viewBox="0 0 1943.06 1093.09"><defs><style>.a{opacity:0;fill:#ffffff;}.b{fill:#ffffff;}</style></defs><title>1800f_00297</title><path class="a" d="M-286.86,255q0-204.53-.14-409c0-5.69,1.28-7,7-7q865.52.22,1731,.14c1.73,10.95,3.59,21.88,5.18,32.85,4.75,32.53,2.74,63.91-14.08,93.36-8.52,14.91-15.74,30.58-23.14,46.1-6.64,13.9-13.8,27.65-17.13,42.87-3.42,15.7-1,30,9.88,42.57a199.27,199.27,0,0,0,19.14,19.41c14.62,12.85,30,24.91,43.54,38.92,21.61,22.3,36,47.88,32.58,80.14-3.71,34.93-25.62,59.74-64.62,45.9-64.39-22.86-114-62.28-130.82-132.59-7.63-32-22.57-59.17-46.23-81.93a270.33,270.33,0,0,1-30.6-34.66c-24.71-33.6-47.8-68.42-75-100.17-14.48-16.9-28.64-34.22-47.35-46.76-24.95-16.71-48.12-15.08-70.8,4.47-2.3,2-4.45,4.14-6.74,6.13C1024.33-95.16,1015.73-84,1004.17-76c-9.46,6.52-19.1,7.4-29.11,1.36-2.81-1.7-5.71-3.27-8.52-5-21.08-12.72-43-15.24-66.07-5.84A231.3,231.3,0,0,0,876.41-74.3c-23,12.62-45.52,26.31-71.08,33.78C781-33.39,757.87-35,736-48.47c-9-5.55-17.95-11.34-26.91-17-10.66-6.77-21.09-14-33.07-18.38-18.26-6.76-34.64-2.09-46.63,13a102.81,102.81,0,0,0-16.21,29c-30.85,85.35-36.42,171.94-12.71,260,3.53,13.12,11.81,19.61,24.31,21.61,46.74,7.49,93.57,6.91,140.58,2.34,41.77-4.07,82.86-12.83,124.6-16.89,19.92-1.94,39.28-.65,57.69,8.49,21.51,10.67,42.9,21.7,65.54,29.85,35.58,12.8,67.55,31.87,97.71,54.4,28.16,21,56.32,42.08,86.29,60.56,38,23.46,79,40.94,119.74,58.76,13.45,5.88,26.76,12.28,36.91,23.37,11.45,12.5,9.78,28.06-3.81,38.15-7.54,5.6-16.33,8.07-25.36,9.42-18.74,2.79-37.54,5.19-56.32,7.69-30.29,4-51.71,18.78-60.88,49.16-4.65,15.41-12.9,29.11-22.6,41.86-8.88,11.66-18,23.13-27.14,34.62-15.58,19.61-31.46,39-42.42,61.78s-16.54,46.18-7.49,71.08c8.27,22.78,28.18,35.93,50.32,32.82,12.46-1.76,23.87-6.86,34.27-13.7,38.12-25.08,78.61-44.89,123.17-55.48,68.36-16.26,131.84-43.5,190.33-82.56,16.16-10.8,32.55-21.44,50.85-28.52,16.83-6.5,29.67-3.46,41.87,9.63,9.49,10.18,15.48,22.41,20.77,35.05,12.12,28.93,16.74,59.74,22.71,90.25,3.23,16.51,6.54,33.11,13.76,48.54,0,38.45-.13,76.9.15,115.35,0,5.2-1,6.22-6.23,6.21q-231.84-.27-463.68-.14H625.32c4.73-12.47,9.93-24.72,12.93-37.84,5.63-24.57,6.46-48.43-6.22-71.42-9.56-17.34-20.41-33.75-33.62-48.48-17.64-19.67-37.86-35.86-63.87-43.06-19.93-5.53-40.47-5.49-61-5-38.64.92-77.26,3.15-115.83-2-65.73-8.75-127.52-28.45-184.06-63.76-26.54-16.58-51.93-35.19-80.87-47.73C77.62,606.07,62,601.76,45.1,604c-12.34,1.65-22.24,9.64-24.94,21.11a59.7,59.7,0,0,0-1.07,23.3C23,673.2,24,697.63,11.36,720.76a443.8,443.8,0,0,1-25.69,41.12c-8.39,12-16.88,24-23.13,37.34-13.8,29.4-9.2,48.47,16.35,68.37C-4.32,880.66,15,889.93,31.79,903c10.37,8.06,20.6,16.3,25.89,28.94q-169,0-338.08.14c-5.41,0-6.63-1-6.61-6.57q.31-151.59.15-303.2c2.36-2.43,3.34-5.61,4.59-8.62q12.93-31.14,25.81-62.29c10.32-25.07,26.34-44.67,52.26-54.88,8.92-3.52,17.7-7.44,26.73-10.66,32.57-11.64,61.42-28.37,81.11-58,13.3-20,21.12-41.63,16.58-65.87-5.49-29.29-29.36-50.79-61.92-56.72-18.92-3.44-38.28-1.84-57.3-4.59-30.26-4.38-57.76-14.3-79.13-37.4C-280.85,260.34-283.94,257.74-286.86,255Zm525.61,343.5c26.43,0,51.48-5.84,76.91-17.83,42.16-19.87,77.73-48.9,111.78-80.11C484.75,448,521.62,382.43,549.82,311.06c11.11-28.12,11.35-55.25-1.3-83-14.52-31.84-25.45-64.95-30.36-99.8-2.72-19.24-4-38.75-11-57.17-12.22-31.9-33.11-52.67-69-55-23.13-1.53-45.82,2.86-68.72,4.43C347.08,22,334.48,35.42,328,55.87c-5.54,17.48-7.82,35.55-9.23,53.68-3.19,41.31-11.87,80.85-33,117.19s-40.81,73.37-62,109.57c-24.54,41.88-53.58,79.87-92.21,110.46-33.95,26.88-37.87,62.84-10.21,94.81C151.9,576.87,189.84,599.71,238.75,598.49Z" transform="translate(287.01 161.03)"/><path class="b" d="M1655.9,810.5c-7.22-15.43-10.53-32-13.76-48.54-6-30.51-10.59-61.32-22.71-90.25-5.29-12.64-11.28-24.87-20.77-35.05-12.2-13.09-25-16.13-41.87-9.63-18.3,7.08-34.69,17.72-50.85,28.52-58.49,39.06-122,66.3-190.33,82.56-44.56,10.59-85,30.4-123.17,55.48-10.4,6.84-21.81,11.94-34.27,13.7-22.14,3.11-42.05-10-50.32-32.82-9-24.9-3.45-48.37,7.49-71.08s26.84-42.17,42.42-61.78c9.11-11.49,18.26-23,27.14-34.62,9.7-12.75,17.95-26.45,22.6-41.86,9.17-30.38,30.59-45.13,60.88-49.16,18.78-2.5,37.58-4.9,56.32-7.69,9-1.35,17.82-3.82,25.36-9.42,13.59-10.09,15.26-25.65,3.81-38.15-10.15-11.09-23.46-17.49-36.91-23.37-40.79-17.82-81.71-35.3-119.74-58.76-30-18.48-58.13-39.53-86.29-60.56-30.16-22.53-62.13-41.6-97.71-54.4-22.64-8.15-44-19.18-65.54-29.85-18.41-9.14-37.77-10.43-57.69-8.49-41.74,4.06-82.83,12.82-124.6,16.89-47,4.57-93.84,5.15-140.58-2.34-12.5-2-20.78-8.49-24.31-21.61-23.71-88.1-18.14-174.69,12.71-260a102.81,102.81,0,0,1,16.21-29c12-15.13,28.37-19.8,46.63-13,12,4.43,22.41,11.61,33.07,18.38,9,5.69,17.86,11.48,26.91,17C757.87-35,781-33.39,805.33-40.52c25.56-7.47,48-21.16,71.08-33.78a231.3,231.3,0,0,1,24.06-11.19c23-9.4,45-6.88,66.07,5.84,2.81,1.7,5.71,3.27,8.52,5,10,6,19.65,5.16,29.11-1.36,11.56-8,20.16-19.12,30.65-28.23,2.29-2,4.44-4.15,6.74-6.13,22.68-19.55,45.85-21.18,70.8-4.47,18.71,12.54,32.87,29.86,47.35,46.76,27.19,31.75,50.28,66.57,75,100.17a270.33,270.33,0,0,0,30.6,34.66c23.66,22.76,38.6,49.94,46.23,81.93C1328.32,219,1378,258.38,1442.35,281.24c39,13.84,60.91-11,64.62-45.9,3.42-32.26-11-57.84-32.58-80.14-13.57-14-28.92-26.07-43.54-38.92a199.27,199.27,0,0,1-19.14-19.41c-10.87-12.54-13.3-26.87-9.88-42.57,3.33-15.22,10.49-29,17.13-42.87,7.4-15.52,14.62-31.19,23.14-46.1,16.82-29.45,18.83-60.83,14.08-93.36-1.59-11-3.45-21.9-5.18-32.85,66.27,0,132.55.07,198.82-.15,5.2,0,6.22,1,6.22,6.22Q1655.8,327.85,1655.9,810.5Z" transform="translate(287.01 161.03)"/><path class="b" d="M57.68,931.92C52.39,919.28,42.16,911,31.79,903,15,889.93-4.32,880.66-21.11,867.59c-25.55-19.9-30.15-39-16.35-68.37,6.25-13.34,14.74-25.31,23.13-37.34a443.8,443.8,0,0,0,25.69-41.12C24,697.63,23,673.2,19.09,648.42a59.7,59.7,0,0,1,1.07-23.3c2.7-11.47,12.6-19.46,24.94-21.11,16.89-2.25,32.52,2.06,47.72,8.64,28.94,12.54,54.33,31.15,80.87,47.73,56.54,35.31,118.33,55,184.06,63.76,38.57,5.13,77.19,2.9,115.83,2,20.49-.49,41-.53,61,5,26,7.2,46.23,23.39,63.87,43.06,13.21,14.73,24.06,31.14,33.62,48.48,12.68,23,11.85,46.85,6.22,71.42-3,13.12-8.2,25.37-12.93,37.84h-126c-52.65-42.08-114.29-63.83-179-78.2-29.62-6.59-52.93,4-69.44,29.79-9.77,15.23-16.58,31.77-23.29,48.41Z" transform="translate(287.01 161.03)"/><path class="b" d="M-286.86,255c2.92,2.75,6,5.35,8.73,8.29,21.37,23.1,48.87,33,79.13,37.4,19,2.75,38.38,1.15,57.3,4.59,32.56,5.93,56.43,27.43,61.92,56.72,4.54,24.24-3.28,45.87-16.58,65.87-19.69,29.61-48.54,46.34-81.11,58-9,3.22-17.81,7.14-26.73,10.66-25.92,10.21-41.94,29.81-52.26,54.88q-12.84,31.17-25.81,62.29c-1.25,3-2.23,6.19-4.59,8.62Z" transform="translate(287.01 161.03)"/><path class="a" d="M227.67,931.92c6.71-16.64,13.52-33.18,23.29-48.41,16.51-25.76,39.82-36.38,69.44-29.79,64.66,14.37,126.3,36.12,179,78.2Z" transform="translate(287.01 161.03)"/><path class="b" d="M238.75,598.49c-48.91,1.22-86.85-21.62-117.39-56.91-27.66-32-23.74-67.93,10.21-94.81,38.63-30.59,67.67-68.58,92.21-110.46,21.21-36.2,41-73.28,62-109.57s29.79-75.88,33-117.19c1.41-18.13,3.69-36.2,9.23-53.68,6.47-20.45,19.07-33.86,41.41-35.39,22.9-1.57,45.59-6,68.72-4.43,35.87,2.37,56.76,23.14,69,55,7,18.42,8.32,37.93,11,57.17,4.91,34.85,15.84,68,30.36,99.8,12.65,27.75,12.41,54.88,1.3,83-28.2,71.37-65.07,137-122.38,189.49-34.05,31.21-69.62,60.24-111.78,80.11C290.23,592.65,265.18,598.48,238.75,598.49Z" transform="translate(287.01 161.03)"/></svg>