<svg xmlns="http://www.w3.org/2000/svg" viewBox="0 0 1943.05 1093.1"><defs><style>.a{opacity:0;fill:#ffffff;}.b{fill:#42c7f6;}</style></defs><title>1800f_00150</title><path class="a" d="M-286.86,163.92q0-159-.15-318c0-5.69,1.29-7,7-7q819.22.22,1638.44.14c-.05,4-3.47,6.08-5.48,8.78-12.82,17.2-5.16,37.1,14,41.42,14.48,3.26,25,13,34.53,23.5,34.73,38.21,74.53,68.83,124,85.76,19.11,6.53,38,13.83,56.14,22.92,11.41,5.73,21.93,12.68,29.06,23.67,6.47,10,5.61,18.88-2.33,27.64a73.21,73.21,0,0,1-19.07,14.87C1536,117.08,1483,147.28,1426.25,170c-40.7,16.26-80.47,34.33-116.07,60.46-34.15,25.05-64.46,54.53-95.86,82.74-10.66,9.57-16.19,22.46-19.85,36.09-7.83,29.14-10.75,59.09-14.75,88.89-4.92,36.68-7.46,73.24-5.17,110.35,2.12,34.44,11.71,64.52,36.59,89.55,63.5,63.87,137,104.55,229.83,102.76,17.08-.33,30,7.48,38.62,22.31,2.91,5,5.88,10.06,8.31,15.32,23.21,50.29,42.41,102.24,63.27,153.5H176.06c6.8-5.21,13.69-10.24,18.62-17.52,22.22-32.85,18.73-75.34-10.14-105.11-45.24-46.64-101.47-61.85-164.83-55.7C-4.16,755.91-28,758.17-52.13,756c-42.83-3.82-64.07-23.66-69.55-66.16-3-23.37-2.81-46.92-3.79-70.39-.83-19.93-1.43-39.92.89-59.86,1.88-16.14-3-30.47-12.84-43.22a124.15,124.15,0,0,0-17.64-18.74C-169.86,485-185.15,472.9-198,458.12c-18.92-21.79-39-42.46-59.61-62.64a97.62,97.62,0,0,1-8.08-9c-12.45-15.71-9.81-28.35,7.91-37.49,12.21-6.3,25.31-10.33,38.63-13.29,74.75-16.57,149.65-32.36,221.87-58.72,22.53-8.22,46.44-8.28,70.34-4.23,26.24,4.44,51.79,11.43,77.22,19,23,6.83,45.88,14.33,70.51,11.82a312,312,0,0,0,58.54-12.11c36.71-11.09,72.26-24.75,103.07-48.41,17.9-13.75,33.21-30.34,49.54-45.8,8.83-8.36,18.3-16,30.06-20,8-2.69,15.18-1.76,21.55,4.68a162.17,162.17,0,0,1,16.3,19.89c28,39.14,62.86,71.27,103,97.42,33.8,22,71.26,37.06,108.17,53a133.83,133.83,0,0,0,63.73,10.56c19.64-1.46,39.27-3.14,58.83-5.39,25-2.88,47.13,2.86,65.72,20.4,4.78,4.51,9.81,8.76,14.6,13.26,9.48,8.94,19.76,10.29,31.16,3.84,11.22-6.35,22.54-12.52,33.82-18.78,34.36-19.08,69.38-36.39,108.69-43.16,18.66-3.22,37.21-7.05,54.94-14.18,18.19-7.32,30-19.92,31.91-39.7a448.21,448.21,0,0,1,7.95-48.51c7-33,21-61.08,50.39-80.33C1262,131,1286.53,106.57,1305,76.67c11.09-17.92,17.7-37.32,10.92-58.38-6.23-19.35-9.63-39.12-12.18-59.15-2-15.6-8.18-20.87-23.92-23.09-11.44-1.6-22.66,0-34-.08-28.31-.25-56.62-1.34-84.92-1.24-21.32.08-41.34,6.13-60.12,16.3-26.13,14.16-48.06,33.63-67.91,55.31-13.78,15-30.52,23.67-49.74,28.71-30.54,8-61.26,15.42-91.3,25.3a199.39,199.39,0,0,1-52.85,9.44,424.53,424.53,0,0,0-96.28,15.63c-30.86,8.79-61.8,18.45-94.27,17.69-41.1-1-81.72,1.46-122,10.25-8.91,1.94-17.35-.47-24.15-7.68-9.2-9.74-18.66-19.26-28.48-28.37-11.74-10.9-24.57-20.34-40.4-24.53-12.05-3.18-22.79-1.09-32.14,7.9-9.05,8.7-13.77,19.9-18.94,30.81a67.44,67.44,0,0,1-21.18,25.33c-11.14,8.3-23,15.7-34,24.16-40.12,30.86-84.34,50.77-135.76,51.54-39.05.58-76.66,8.74-113.63,20.59-17.72,5.68-35.82,10.61-54.27,5.79-38.2-10-68-32.42-90.57-64.56-4.52-6.42-8.84-12.79-15.58-17.31-15.31-10.26-32.24-9.56-49.1-7.15C-158.49,133.71-184,143-210,150.54-235.08,157.87-259.67,168.46-286.86,163.92ZM774.38,730.38c.51,11,1.23,22.38,4.22,33.44C785.79,790.4,801.84,796,824,779.58c15.32-11.33,28.29-25.2,41.2-39.07,26.18-28.13,55.67-51.39,92.47-64.16,16.94-5.88,33.95-11.58,50.79-17.76a84.56,84.56,0,0,0,16.94-8.39c18.28-11.89,23.92-28.34,17.64-50-5.8-20-16.59-38-23.44-57.5-11.67-33.23-36-54.89-65.22-72-15.71-9.2-26.27-6.52-37.83,7.49-11.09,13.45-20.72,28-32.34,41.09-15.13,17-32.28,32-47.08,49.37C797.45,615.28,776.41,668.92,774.38,730.38Z" transform="translate(287.01 161.03)"/><path class="b" d="M-286.86,163.92c27.19,4.54,51.78-6,76.89-13.38,25.94-7.58,51.48-16.83,78.35-20.66,16.86-2.41,33.79-3.11,49.1,7.15,6.74,4.52,11.06,10.89,15.58,17.31,22.6,32.14,52.37,54.6,90.57,64.56,18.45,4.82,36.55-.11,54.27-5.79,37-11.85,74.58-20,113.63-20.59,51.42-.77,95.64-20.68,135.76-51.54,11-8.46,22.82-15.86,34-24.16a67.44,67.44,0,0,0,21.18-25.33c5.17-10.91,9.89-22.11,18.94-30.81,9.35-9,20.09-11.08,32.14-7.9,15.83,4.19,28.66,13.63,40.4,24.53,9.82,9.11,19.28,18.63,28.48,28.37,6.8,7.21,15.24,9.62,24.15,7.68,40.24-8.79,80.86-11.22,122-10.25,32.47.76,63.41-8.9,94.27-17.69a424.53,424.53,0,0,1,96.28-15.63,199.39,199.39,0,0,0,52.85-9.44c30-9.88,60.76-17.27,91.3-25.3,19.22-5,36-13.67,49.74-28.71,19.85-21.68,41.78-41.15,67.91-55.31,18.78-10.17,38.8-16.22,60.12-16.3,28.3-.1,56.61,1,84.92,1.24,11.31.1,22.53-1.52,34,.08,15.74,2.22,21.93,7.49,23.92,23.09,2.55,20,6,39.8,12.18,59.15,6.78,21.06.17,40.46-10.92,58.38-18.51,29.9-43,54.32-72.28,73.47-29.43,19.25-43.43,47.36-50.39,80.33a448.21,448.21,0,0,0-7.95,48.51c-2,19.78-13.72,32.38-31.91,39.7-17.73,7.13-36.28,11-54.94,14.18-39.31,6.77-74.33,24.08-108.69,43.16-11.28,6.26-22.6,12.43-33.82,18.78-11.4,6.45-21.68,5.1-31.16-3.84-4.79-4.5-9.82-8.75-14.6-13.26-18.59-17.54-40.67-23.28-65.72-20.4-19.56,2.25-39.19,3.93-58.83,5.39A133.83,133.83,0,0,1,711,352.13c-36.91-15.91-74.37-30.95-108.17-53-40.12-26.15-75-58.28-103-97.42a162.17,162.17,0,0,0-16.3-19.89c-6.37-6.44-13.57-7.37-21.55-4.68-11.76,4-21.23,11.64-30.06,20-16.33,15.46-31.64,32.05-49.54,45.8-30.81,23.66-66.36,37.32-103.07,48.41a312,312,0,0,1-58.54,12.11c-24.63,2.51-47.46-5-70.51-11.82-25.43-7.53-51-14.52-77.22-19-23.9-4-47.81-4-70.34,4.23-72.22,26.36-147.12,42.15-221.87,58.72-13.32,3-26.42,7-38.63,13.29-17.72,9.14-20.36,21.78-7.91,37.49a97.62,97.62,0,0,0,8.08,9C-237,415.66-216.9,436.33-198,458.12c12.83,14.78,28.12,26.89,42.92,39.53a124.15,124.15,0,0,1,17.64,18.74c9.82,12.75,14.72,27.08,12.84,43.22-2.32,19.94-1.72,39.93-.89,59.86,1,23.47.78,47,3.79,70.39C-116.2,732.36-95,752.2-52.13,756c24.13,2.15,48-.11,71.84-2.43,63.36-6.15,119.59,9.06,164.83,55.7,28.87,29.77,32.36,72.26,10.14,105.11-4.93,7.28-11.82,12.31-18.62,17.52H-71.34c-5-.65-10-1.39-15-1.92-18.36-1.92-36.73-4.15-54.81,1.92H-286.86Z" transform="translate(287.01 161.03)"/><path class="b" d="M1551.17,931.92c-20.86-51.26-40.06-103.21-63.27-153.5-2.43-5.26-5.4-10.29-8.31-15.32-8.57-14.83-21.54-22.64-38.62-22.31-92.78,1.79-166.33-38.89-229.83-102.76-24.88-25-34.47-55.11-36.59-89.55-2.29-37.11.25-73.67,5.17-110.35,4-29.8,6.92-59.75,14.75-88.89,3.66-13.63,9.19-26.52,19.85-36.09,31.4-28.21,61.71-57.69,95.86-82.74,35.6-26.13,75.37-44.2,116.07-60.46C1483,147.28,1536,117.08,1589.34,87.68a73.21,73.21,0,0,0,19.07-14.87c7.94-8.76,8.8-17.68,2.33-27.64-7.13-11-17.65-17.94-29.06-23.67-18.12-9.09-37-16.39-56.14-22.92-49.52-16.93-89.32-47.55-124-85.76-9.57-10.53-20-20.24-34.53-23.5-19.19-4.32-26.85-24.22-14-41.42,2-2.7,5.43-4.78,5.48-8.78q145.71,0,291.41-.15c5.2,0,6.23,1,6.22,6.22q-.3,139.64-.14,279.27c-1.61,1.92-3.38,3.72-4.81,5.76-28,40-56.61,79.4-87.58,117.14-30.61,37.29-61.62,74.34-87.44,115.27-17.58,27.86-34.15,56.38-41,89a445.49,445.49,0,0,0-8,134.17,243.27,243.27,0,0,0,40.08,113.09c9,13.56,21.22,18.12,37.21,15.19,25.15-4.61,44.94-17.56,60.41-37.39,16.32-20.9,32.09-42.23,48.37-63.17,13.3-17.11,27-33.95,42.71-48.94q0,180.61.14,361.23c0,5.19-1,6.27-6.22,6.22C1616.94,931.77,1584.05,931.92,1551.17,931.92Z" transform="translate(287.01 161.03)"/><path class="a" d="M1655.9,564.62c-15.76,15-29.41,31.83-42.71,48.94-16.28,20.94-32,42.27-48.37,63.17-15.47,19.83-35.26,32.78-60.41,37.39-16,2.93-28.21-1.63-37.21-15.19a243.27,243.27,0,0,1-40.08-113.09,445.49,445.49,0,0,1,8-134.17c6.84-32.66,23.41-61.18,41-89,25.82-40.93,56.83-78,87.44-115.27,31-37.74,59.6-77.18,87.58-117.14,1.43-2,3.2-3.84,4.81-5.76Z" transform="translate(287.01 161.03)"/><path class="a" d="M-141.15,931.92c18.08-6.07,36.45-3.84,54.81-1.92,5,.53,10,1.27,15,1.92Z" transform="translate(287.01 161.03)"/><path class="b" d="M774.38,730.38c2-61.46,23.07-115.1,62.78-161.64,14.8-17.34,32-32.38,47.08-49.37,11.62-13.05,21.25-27.64,32.34-41.09,11.56-14,22.12-16.69,37.83-7.49,29.18,17.07,53.55,38.73,65.22,72,6.85,19.54,17.64,37.51,23.44,57.5,6.28,21.61.64,38.06-17.64,50a84.56,84.56,0,0,1-16.94,8.39c-16.84,6.18-33.85,11.88-50.79,17.76-36.8,12.77-66.29,36-92.47,64.16-12.91,13.87-25.88,27.74-41.2,39.07C801.84,796,785.79,790.4,778.6,763.82,775.61,752.76,774.89,741.43,774.38,730.38Z" transform="translate(287.01 161.03)"/></svg>