<svg xmlns="http://www.w3.org/2000/svg" viewBox="0 0 1943.07 1093.11"><defs><style>.a{opacity:0;fill:#ffffff;}.b{fill:#ffffff;}</style></defs><title>1800f_00336</title><path class="a" d="M-286.86,607.11V453.82c2.56.73,5-.1,7.46-.6,56.35-11.29,113-20.11,170.74-17.77,34.77,1.4,63.51-11.21,87.64-35.88,18.06-18.46,34.36-38.45,51.15-58,43.64-50.82,97.72-79.5,165.52-81.2,24.77-.62,49.53,1.22,74.28-.7,58.93-4.59,115.51-19.4,170.61-40a140.65,140.65,0,0,0,59.3-42.33c16.66-20,32.95-40.33,49.12-60.74,18.39-23.22,34.28-47.95,38-78.12,3.21-26.07,6.27-52.15,9.74-78.19,2.27-17,4.08-34.17-.11-51.21-4.25-17.31-14.88-22.39-31.28-15.1-11,4.87-20.62,11.81-29.89,19.25A1166.26,1166.26,0,0,1,434.59-14.09C386.7,16.61,335.06,27.44,279,21.79c-23.84-2.41-47.84-3.7-71.9-2.58-14.87.69-29.79,1.12-44.68-.91-19.06-2.6-31.84-13.53-35.84-31.92a95.42,95.42,0,0,1-2-17.28C123.8-56.53,130-81,137.41-105.24c5.82-19.15,14.25-37.25,22-55.64H912.18c-.52,45.91,1.69,92.05-14.69,136.33-9.31,25.18-8.71,49.38,9.37,71.42,8.73,10.65,19.17,15,32.64,13.06S965.41,53.09,977.77,48c26.25-10.79,51.59-9.64,76.76,3.44,19.17,10,39.58,16.42,60.87,20.38,32.53,6,65,12.55,97,21.18,67.16,18.1,135.15,31.91,204.38,39.41,27.1,2.93,54.39,4.7,81.12,10.45,21.54,4.63,41.87,12,57.46,28.58,11.29,12,10.14,23.07-3.32,32.4A182.18,182.18,0,0,1,1533.93,215c-27.18,14.49-45.36,36.58-55.76,65.34-3.17,8.79-6.61,17.51-9.33,26.44-14,46.05-34.67,88.83-60.81,129.23-27.07,41.83-52.36,84.73-72.25,130.57-16.4,37.79-31.48,76.21-49.37,113.28-20.17,41.8-32.55,85.27-36.62,131.34-3.84,43.37,3.14,84.14,28.18,120.73H33.39c-.87-2.3-3-3.31-4.78-4.68a281.5,281.5,0,0,0-37-23.64c-25.29-13.77-45.2-32.57-58.87-58.23-8.77-16.48-19-32.19-28.73-48.15-22.3-36.56-50.79-67.75-82.33-96.54-33.21-30.31-65.09-62.09-100.8-89.57C-281.42,609.35-283.33,606.58-286.86,607.11Z" transform="translate(287.01 161.04)"/><path class="b" d="M159.37-160.88c-7.71,18.39-16.14,36.49-22,55.64C130-81,123.8-56.53,124.56-30.9a95.42,95.42,0,0,0,2,17.28c4,18.39,16.78,29.32,35.84,31.92,14.89,2,29.81,1.6,44.68.91,24.06-1.12,48.06.17,71.9,2.58,56.09,5.65,107.73-5.18,155.62-35.88A1166.26,1166.26,0,0,0,535.41-86.76c9.27-7.44,18.93-14.38,29.89-19.25,16.4-7.29,27-2.21,31.28,15.1,4.19,17,2.38,34.17.11,51.21-3.47,26-6.53,52.12-9.74,78.19-3.71,30.17-19.6,54.9-38,78.12-16.17,20.41-32.46,40.73-49.12,60.74a140.65,140.65,0,0,1-59.3,42.33c-55.1,20.59-111.68,35.4-170.61,40-24.75,1.92-49.51.08-74.28.7-67.8,1.7-121.88,30.38-165.52,81.2C13.34,361.12-3,381.11-21,399.57c-24.13,24.67-52.87,37.28-87.64,35.88-57.76-2.34-114.39,6.48-170.74,17.77-2.48.5-4.9,1.33-7.46.6q0-304.09-.13-608.2c0-5.3.88-6.67,6.52-6.66Q-60.56-160.74,159.37-160.88Z" transform="translate(287.01 161.04)"/><path class="b" d="M1278,931.92c-25-36.59-32-77.36-28.18-120.73,4.07-46.07,16.45-89.54,36.62-131.34,17.89-37.07,33-75.49,49.37-113.28C1355.67,520.73,1381,477.83,1408,436c26.14-40.4,46.82-83.18,60.81-129.23,2.72-8.93,6.16-17.65,9.33-26.44,10.4-28.76,28.58-50.85,55.76-65.34A182.18,182.18,0,0,0,1552,203.86c13.46-9.33,14.61-20.4,3.32-32.4-15.59-16.57-35.92-24-57.46-28.58-26.73-5.75-54-7.52-81.12-10.45-69.23-7.5-137.22-21.31-204.38-39.41-32-8.63-64.43-15.13-97-21.18-21.29-4-41.7-10.42-60.87-20.38C1029.36,38.38,1004,37.23,977.77,48c-12.36,5.07-24.85,10-38.27,11.91s-23.91-2.41-32.64-13.06c-18.08-22-18.68-46.24-9.37-71.42,16.38-44.28,14.17-90.42,14.69-136.33q368.6,0,737.17-.13c5.22,0,6.72.75,6.71,6.48q-.32,220.7-.16,441.39c-7.18-5.54-12.5-13.1-20.22-18.09-14.13-9.13-26.77-8.82-39.77,1.75a85.68,85.68,0,0,0-16.15,17c-18.82,26.61-22.52,56.12-17.2,87.53,3.5,20.65,7.42,41.3,4.58,62.47-3.25,24.29-13.63,45.88-25,67.1-20.89,39-43.43,77.15-60.08,118.24-18.42,45.45-36.6,91.09-40.58,140.69-3.51,43.89,13,70.79,50.82,86,39.41,15.83,80.53,26.82,120.86,40,13.83,4.53,28.22,5.52,42.74,4.42,0,10.88-.29,21.77.13,32.63.18,4.56-.92,5.45-5.45,5.44q-145.69-.24-291.41-.12Z" transform="translate(287.01 161.04)"/><path class="a" d="M1655.9,894c-14.52,1.1-28.91.11-42.74-4.42-40.33-13.21-81.45-24.2-120.86-40-37.8-15.18-54.33-42.08-50.82-86,4-49.6,22.16-95.24,40.58-140.69,16.65-41.09,39.19-79.26,60.08-118.24,11.37-21.22,21.75-42.81,25-67.1,2.84-21.17-1.08-41.82-4.58-62.47-5.32-31.41-1.62-60.92,17.2-87.53a85.68,85.68,0,0,1,16.15-17c13-10.57,25.64-10.88,39.77-1.75,7.72,5,13,12.55,20.22,18.09Z" transform="translate(287.01 161.04)"/><path class="b" d="M-286.86,607.11c3.53-.53,5.44,2.24,7.74,4,35.71,27.48,67.59,59.26,100.8,89.57,31.54,28.79,60,60,82.33,96.54,9.73,16,20,31.67,28.73,48.15C-53.59,871-33.68,889.83-8.39,903.6a281.5,281.5,0,0,1,37,23.64c1.79,1.37,3.91,2.38,4.78,4.68q-157.09,0-314.18.14c-5.2,0-6.23-1-6.22-6.21Q-286.71,766.48-286.86,607.11Z" transform="translate(287.01 161.04)"/></svg>