<svg xmlns="http://www.w3.org/2000/svg" viewBox="0 0 1943.04 1093.17"><defs><style>.a{opacity:0;fill:#ffffff;}.b{fill:#ffffff;}</style></defs><title>1800f_00368</title><path class="a" d="M-286.86,769.52V-63.74c2,.19,3.18-1.35,4.53-2.41C-238-101.1-187.62-122.57-132.56-134c49.8-10.37,100.45-14.15,150.74-20.79,13.69-1.81,27.64-2,41-6H189.72c2.33,2.31,5.51,2.3,8.4,3,50.64,12,94,36.26,128.59,75.65,16.68,19,28.2,40.51,33.49,65.39,5.39,25.33,3.87,50.53,1.61,76.13-2.83,32-15.44,57.45-41.13,76.78-12.92,9.73-21.59,22.54-20,39.51,2.81,29.69,17.42,52.52,43.25,67.3,14,8,27.65,2.59,34.56-12.12,6-12.72,5.16-26.16,3-39.46-2.08-12.95-6.1-25.53-7.61-38.63-2.48-21.62,3.09-39.81,20.74-53.8,22.1-17.5,46.64-31.15,70.62-45.69,33.5-20.31,66.16-42.09,101.62-59,15.64-7.47,32-12.33,49.53-12.84C639-19.34,659.1-11.39,678.61-1.5c22.55,11.43,44.82,23.4,67.24,35.08A35,35,0,0,0,761.75,38c6.37.1,9.76-2.4,9-9-.62-5.49-1-11.15-2.68-16.36-8-25.21-1.84-47,14.08-67.36,12-15.34,24.68-30.09,37.48-44.73,15.79-18.06,24.67-39.67,33.34-61.48h598c4,26.27,7,52.65,5.54,79.27-1.66,31.3-3.7,62.58-5.73,93.86-2.51,38.64-7.2,77-16.09,114.74-11,46.52-25.48,92.06-38,138.16-9.53,35.11-17.66,70.62-30.73,104.71-9.68,25.25-23.9,46.44-48.11,60.35-19.81,11.38-39,12.08-59,1.26-13.39-7.23-25.93-15.76-38.64-24-37.71-24.53-76.28-47.8-111-76.65-33.84-28.1-52.72-62.22-48.63-107.75,2.37-26.44,5.62-52.74,8.69-79.09,1.75-15.06,3-30.29-2-45.08s-18-22.23-33.41-19.18c-15.87,3.15-29,11.66-41.3,21.55-35.43,28.59-63.66,63.4-87.17,102.22-18.74,31-28.09,64.08-24.72,100.55C885.17,353.25,901,398.7,926,441.1c17.17,29.18,36.76,56.95,50.45,88.14,5.39,12.26,10.94,24.47,17,36.42q20.18,39.92,64.4,47.89c15.29,2.76,30.68,2.7,46.11,2.62,12.88-.07,25.86-.93,38.56,1.82,8,1.73,17.75,2.69,20,12.44s-6.05,14.85-12.83,19.61c-12.82,9-27.61,13.79-42.58,17.5a331.2,331.2,0,0,0-96.55,41.11c-42.89,26.81-85.4,54.2-128,81.47-24.59,15.75-45.93,34.88-63.12,58.35-16.09,22-34.65,41.45-54.94,59.5-8.65,7.69-17.69,15.06-25.24,23.95H145.71a11.88,11.88,0,0,1,.48-2.9c23.35-53.64,34.74-109.69,32.82-168.17-1.52-45.85-20.82-81.05-63.64-101.31-10.77-5.1-20.51-12-29.92-19.24C57.53,618.68,36,591.2,15.33,563.08c-26.53-36.14-55.94-69.23-94.19-93.39-33.53-21.18-69.6-34.67-109.91-34-22.3.37-39,10.66-44.22,28.06-5.89,19.51-6.93,39.74-6.21,60,1.22,34.68,10.23,68.36,13.68,102.74,1.87,18.56,3.78,37.23.91,55.91-1.2,7.78-3.24,15.4-7.07,22.3C-245.71,730-266.34,749.72-286.86,769.52ZM776.2,623.73c-9.7-.48-18.65,2.37-26.8,7.12-31.11,18.13-54,43.72-68.27,76.84a46.64,46.64,0,0,0-4,22.16c.78,10.47,7.4,17.34,17.81,18.26a41.66,41.66,0,0,0,12.82-.79c26.95-6.05,49-21,69.84-38.2,13.36-11,25.43-23.27,33.05-39.09,9-18.68,3.4-33.67-15.29-42.45A39.43,39.43,0,0,0,776.2,623.73Z" transform="translate(286.99 161.05)"/><path class="b" d="M739.16,931.92c7.55-8.89,16.59-16.26,25.24-23.95,20.29-18.05,38.85-37.53,54.94-59.5,17.19-23.47,38.53-42.6,63.12-58.35,42.59-27.27,85.1-54.66,128-81.47A331.2,331.2,0,0,1,1107,667.54c15-3.71,29.76-8.48,42.58-17.5,6.78-4.76,15.05-9.78,12.83-19.61s-11.9-10.71-20-12.44c-12.7-2.75-25.68-1.89-38.56-1.82-15.43.08-30.82.14-46.11-2.62q-44.18-8-64.4-47.89c-6-11.95-11.59-24.16-17-36.42-13.69-31.19-33.28-59-50.45-88.14-25-42.4-40.79-87.85-45.34-137.09-3.37-36.47,6-69.59,24.72-100.55,23.51-38.82,51.74-73.63,87.17-102.22,12.25-9.89,25.43-18.4,41.3-21.55,15.41-3,28.31,4.25,33.41,19.18s3.8,30,2,45.08c-3.07,26.35-6.32,52.65-8.69,79.09-4.09,45.53,14.79,79.65,48.63,107.75,34.75,28.85,73.32,52.12,111,76.65,12.71,8.27,25.25,16.8,38.64,24,20,10.82,39.2,10.12,59-1.26,24.21-13.91,38.43-35.1,48.11-60.35,13.07-34.09,21.2-69.6,30.73-104.71,12.51-46.1,27-91.64,38-138.16,8.89-37.77,13.58-76.1,16.09-114.74,2-31.28,4.07-62.56,5.73-93.86,1.41-26.62-1.52-53-5.54-79.27,66.27,0,132.55.07,198.82-.15,5.2,0,6.23,1,6.22,6.22q-.29,170-.14,340c-23.05,31.16-44.8,63.13-57.05,100.35-9.48,28.78-11,57.74,3.39,85.52,13,25,32,45.26,53.66,63V760.41a62.06,62.06,0,0,1-6.29-4.07c-15.75-13.07-31.31-26.37-47.16-39.32-25.12-20.52-51.36-39.38-81.07-52.86-36.27-16.46-74.53-25.64-114-29.08-30.46-2.66-57.19,6.31-77,30.65-18,22-32,46.63-43.55,72.62-11.22,25.27-8.86,49.47,7.36,71.73a368.08,368.08,0,0,0,74.29,75.37c33.87,25.91,74.48,34,116.36,35.55,42.88,1.6,83.73-8.79,123.83-22.58,16-5.49,31.55-12,47.31-18.11,0,15.94-.12,31.88.09,47.81,0,3.27-.62,4.48-3.89,3.83a15.32,15.32,0,0,0-3,0Z" transform="translate(286.99 161.05)"/><path class="b" d="M-286.86,769.52c20.52-19.8,41.15-39.51,55.18-64.8,3.83-6.9,5.87-14.52,7.07-22.3,2.87-18.68,1-37.35-.91-55.91C-229,592.13-238,558.45-239.2,523.77c-.72-20.26.32-40.49,6.21-60,5.25-17.4,21.92-27.69,44.22-28.06,40.31-.69,76.38,12.8,109.91,34,38.25,24.16,67.66,57.25,94.19,93.39C36,591.2,57.53,618.68,85.45,640.3c9.41,7.28,19.15,14.14,29.92,19.24C158.19,679.8,177.49,715,179,760.85c1.92,58.48-9.47,114.53-32.82,168.17a11.88,11.88,0,0,0-.48,2.9h-41a19,19,0,0,0-1.08-2,666.89,666.89,0,0,0-101.5-113C-14,802.67-31.34,789.39-53.27,785.82c-27.61-4.49-50.52,1.31-63.75,29.39-6.25,13.29-11.41,27-16.33,40.74-9.26,25.93-21,50.81-32.09,76-38.85,0-77.7-.09-116.55.13-4.32,0-5-1-5-5.11C-286.8,874.47-286.86,822-286.86,769.52Z" transform="translate(286.99 161.05)"/><path class="b" d="M853-160.88c-8.67,21.81-17.55,43.42-33.34,61.48C806.85-84.76,794.17-70,782.17-54.67c-15.92,20.32-22.11,42.15-14.08,67.36,1.66,5.21,2.06,10.87,2.68,16.36.74,6.56-2.65,9.06-9,9a35,35,0,0,1-15.9-4.43C723.43,21.9,701.16,9.93,678.61-1.5,659.1-11.39,639-19.34,616.42-18.68c-17.56.51-33.89,5.37-49.53,12.84-35.46,16.92-68.12,38.7-101.62,59-24,14.54-48.52,28.19-70.62,45.69-17.65,14-23.22,32.18-20.74,53.8,1.51,13.1,5.53,25.68,7.61,38.63,2.14,13.3,3,26.74-3,39.46-6.91,14.71-20.59,20.11-34.56,12.12-25.83-14.78-40.44-37.61-43.25-67.3-1.6-17,7.07-29.78,20-39.51,25.69-19.33,38.3-44.78,41.13-76.78,2.26-25.6,3.78-50.8-1.61-76.13-5.29-24.88-16.81-46.37-33.49-65.39-34.55-39.39-77.95-63.64-128.59-75.65-2.89-.69-6.07-.68-8.4-3Z" transform="translate(286.99 161.05)"/><path class="a" d="M1655.9,880.31c-15.76,6.07-31.36,12.62-47.31,18.11-40.1,13.79-80.95,24.18-123.83,22.58-41.88-1.56-82.49-9.64-116.36-35.55a368.08,368.08,0,0,1-74.29-75.37c-16.22-22.26-18.58-46.46-7.36-71.73,11.53-26,25.56-50.57,43.55-72.62,19.85-24.34,46.58-33.31,77-30.65,39.51,3.44,77.77,12.62,114,29.08,29.71,13.48,55.95,32.34,81.07,52.86,15.85,13,31.41,26.25,47.16,39.32a62.06,62.06,0,0,0,6.29,4.07Z" transform="translate(286.99 161.05)"/><path class="a" d="M-165.44,931.92c11.09-25.16,22.83-50,32.09-76,4.92-13.78,10.08-27.45,16.33-40.74,13.23-28.08,36.14-33.88,63.75-29.39,21.93,3.57,39.25,16.85,55.42,31.11a666.89,666.89,0,0,1,101.5,113,19,19,0,0,1,1.08,2Z" transform="translate(286.99 161.05)"/><path class="b" d="M59.19-160.88c-13.37,4-27.32,4.23-41,6C-32.11-148.2-82.76-144.42-132.56-134c-55.06,11.48-105.43,33-149.77,67.9-1.35,1.06-2.5,2.6-4.53,2.41,0-30.06.14-60.11-.13-90.16-.05-5.38.73-7.16,6.78-7.15Q-110.5-160.7,59.19-160.88Z" transform="translate(286.99 161.05)"/><path class="a" d="M1655.9,434.09c-21.69-17.79-40.71-38-53.66-63-14.35-27.78-12.87-56.74-3.39-85.52,12.25-37.22,34-69.19,57.05-100.35Z" transform="translate(286.99 161.05)"/><path class="b" d="M776.2,623.73a39.43,39.43,0,0,1,19.11,3.85C814,636.36,819.59,651.35,810.6,670c-7.62,15.82-19.69,28.08-33.05,39.09-20.83,17.16-42.89,32.15-69.84,38.2a41.66,41.66,0,0,1-12.82.79c-10.41-.92-17-7.79-17.81-18.26a46.64,46.64,0,0,1,4-22.16c14.3-33.12,37.16-58.71,68.27-76.84C757.55,626.1,766.5,623.25,776.2,623.73Z" transform="translate(286.99 161.05)"/></svg>