<svg xmlns="http://www.w3.org/2000/svg" viewBox="0 0 1943.07 1093.09"><defs><style>.a{opacity:0;fill:#ffffff;}.b{fill:#ffffff;}</style></defs><title>1800f_00257</title><path class="a" d="M1655.9,312.66V599.52c-1.93,2.31-4,4.48-5.76,6.93-16.87,24-33.39,48.21-50.6,71.95-11,15.25-24,28.71-41.45,37-23.9,11.35-47,4.78-61.28-17.56a71.36,71.36,0,0,1-10.94-30.44,117.55,117.55,0,0,0-30.2-66.61c-22.7-25.17-42.18-52.27-55.06-83.85a61,61,0,0,0-14.38-21.2C1374,484,1359.8,484,1347.32,495.8c-11.72,11-17.16,25.51-21.84,40.19-16.94,53.16-43.72,101.32-77.76,144.91a401.68,401.68,0,0,0-62,112.19c-8.32,23.07-13.92,47-23.12,69.79-6.66,16.47-14,32.59-26.78,45.4-15,15-29.76,17.08-48.07,6.76-5.49-3.09-10.57-6.9-15.76-10.5-14.71-10.21-28.19-22.28-45-29.31C1003.57,865.44,979,861,953.9,859.74c-47.85-2.48-92.79,5.77-130.53,38-10.94,9.34-21.67,19.13-25,34.16H256.5c-2.64-5.57-7.41-9.48-11.12-14.21-32.59-41.51-72.06-72.08-124.94-84.38C78.05,823.46,36,812.68-7.76,811.05c-36.91-1.37-73.14,3.82-108.88,12.47-23.82,5.77-47.35,12.69-71.11,18.67-7.22,1.82-15.73,4.42-21.21-2.85-5.15-6.85-1.51-14.66,1.24-21.7,7-17.83,18-33.28,28.83-48.87,9.21-13.3,19.41-25.91,27.5-40,8.67-15.08,9.12-29.89.19-45.22-11.12-19.08-25.28-35.95-38.05-53.84-13.65-19.11-28.79-37.15-38.68-58.79-15.89-34.74-24.58-71.61-33.1-108.56a196.66,196.66,0,0,1-5.39-36.61c-.21-5.28-.68-11.18,3-15.92,5.26-6.78,12.29-7.52,19.81-5,13.42,4.45,26.59,9.74,40.15,13.7,25,7.32,48.87,5,70.89-10.31,17-11.83,29.59-27.44,39.81-45.12,18.86-32.62,31.43-67.78,41.6-103.91a306.51,306.51,0,0,0,9-120.88C-45.13,113-52.81,89-60.18,64.81-68.5,37.48-64.3,24.35-41.06,7.88,11-29,64.28-63.81,120.28-94.41c26.85-14.66,54.19-28.49,79.19-46.27,8.76-6.23,18.32-11.56,25.16-20.2h965.31c4,7.89,11.58,12.45,17.82,18.15,33.5,30.6,71.79,52.19,116.6,61.61,24.78,5.2,49.86,8.14,75,11,22.45,2.6,42,10.33,56.65,28.5A319.47,319.47,0,0,0,1491.15-5a134.31,134.31,0,0,0,47.21,28.15c26.3,8.89,53.42,8,80.34,6.06,18.26-1.33,26.34-10.71,29.75-29,3.36-18.06.35-35.76-3.43-53.34-9.42-43.78-33.74-75.77-75.62-93-26.58-10.94-54.06-8.09-81.45-3.35-18.84,3.25-37.1,10.34-56.68,8.69a61.28,61.28,0,0,1-41-20.07q129.78,0,259.54-.15c5.2,0,6.23,1,6.22,6.22q-.27,214-.14,428A94.89,94.89,0,0,0,1655.9,312.66Zm-561,408.58a108.41,108.41,0,0,0,35.94-5c22.87-7.26,42.68-18.8,52.78-42,7.84-18,5.84-36.69,1.79-55.1-3.87-17.65-14.94-26.51-32.74-28.59a284.84,284.84,0,0,0-33.28-1.44c-24,0-47.21-3.95-69.19-14.18a148.57,148.57,0,0,0-20.64-7.47c-20.48-6-35.46,1.72-40.51,22.36-8.77,35.89-1.77,68.94,22.26,97.24C1033,712.58,1062.83,720.06,1094.86,721.24Z" transform="translate(287.03 161.03)"/><path class="b" d="M224.63-160.88c-6.84,8.64-16.4,14-25.16,20.2-25,17.78-52.34,31.61-79.19,46.27C64.28-63.81,11-29-41.06,7.88-64.3,24.35-68.5,37.48-60.18,64.81-52.81,89-45.13,113-42.1,138.28a306.51,306.51,0,0,1-9,120.88c-10.17,36.13-22.74,71.29-41.6,103.91-10.22,17.68-22.78,33.29-39.81,45.12-22,15.28-45.84,17.63-70.89,10.31-13.56-4-26.73-9.25-40.15-13.7-7.52-2.48-14.55-1.74-19.81,5-3.69,4.74-3.22,10.64-3,15.92A196.66,196.66,0,0,0-261,462.37c8.52,36.95,17.21,73.82,33.1,108.56,9.89,21.64,25,39.68,38.68,58.79,12.77,17.89,26.93,34.76,38.05,53.84,8.93,15.33,8.48,30.14-.19,45.22-8.09,14.08-18.29,26.69-27.5,40-10.79,15.59-21.87,31-28.83,48.87-2.75,7-6.39,14.85-1.24,21.7,5.48,7.27,14,4.67,21.21,2.85,23.76-6,47.29-12.9,71.11-18.67,35.74-8.65,72-13.84,108.88-12.47,43.74,1.63,85.81,12.41,128.2,22.28,52.88,12.3,92.35,42.87,124.94,84.38,3.71,4.73,8.48,8.64,11.12,14.21q-268.17,0-536.34.12c-5.34,0-7.19-.64-7.19-6.76q.28-539.76,0-1079.52c0-6.09,1.82-6.77,7.18-6.76Q-27.61-160.79,224.63-160.88Z" transform="translate(287.03 161.03)"/><path class="b" d="M798.35,931.92c3.35-15,14.08-24.82,25-34.16,37.74-32.25,82.68-40.5,130.53-38,25.11,1.3,49.67,5.7,73.05,15.49,16.8,7,30.28,19.1,45,29.31,5.19,3.6,10.27,7.41,15.76,10.5,18.31,10.32,33.11,8.21,48.07-6.76,12.8-12.81,20.12-28.93,26.78-45.4,9.2-22.76,14.8-46.72,23.12-69.79a401.68,401.68,0,0,1,62-112.19c34-43.59,60.82-91.75,77.76-144.91,4.68-14.68,10.12-29.15,21.84-40.19,12.48-11.77,26.67-11.79,38.91-.06a61,61,0,0,1,14.38,21.2c12.88,31.58,32.36,58.68,55.06,83.85a117.55,117.55,0,0,1,30.2,66.61,71.36,71.36,0,0,0,10.94,30.44c14.31,22.34,37.38,28.91,61.28,17.56,17.44-8.29,30.4-21.75,41.45-37,17.21-23.74,33.73-48,50.6-71.95,1.72-2.45,3.83-4.62,5.76-6.93q0,163.17.14,326.33c0,5.19-1,6.21-6.22,6.21Q1224.09,931.82,798.35,931.92Z" transform="translate(287.03 161.03)"/><path class="b" d="M1390.28-160.88a61.28,61.28,0,0,0,41,20.07c19.58,1.65,37.84-5.44,56.68-8.69,27.39-4.74,54.87-7.59,81.45,3.35,41.88,17.23,66.2,49.22,75.62,93,3.78,17.58,6.79,35.28,3.43,53.34C1645,18.53,1637,27.91,1618.7,29.24c-26.92,2-54,2.83-80.34-6.06A134.31,134.31,0,0,1,1491.15-5,319.47,319.47,0,0,1,1456-41.58c-14.64-18.17-34.2-25.9-56.65-28.5-25.09-2.9-50.17-5.84-75-11-44.81-9.42-83.1-31-116.6-61.61-6.24-5.7-13.77-10.26-17.82-18.15Z" transform="translate(287.03 161.03)"/><path class="b" d="M1655.9,312.66a94.89,94.89,0,0,1,0-39.46Z" transform="translate(287.03 161.03)"/><path class="b" d="M1094.86,721.24c-32-1.18-61.86-8.66-83.59-34.24-24-28.3-31-61.35-22.26-97.24,5-20.64,20-28.37,40.51-22.36a148.57,148.57,0,0,1,20.64,7.47c22,10.23,45.14,14.17,69.19,14.18a284.84,284.84,0,0,1,33.28,1.44c17.8,2.08,28.87,10.94,32.74,28.59,4.05,18.41,6.05,37.09-1.79,55.1-10.1,23.22-29.91,34.76-52.78,42A108.41,108.41,0,0,1,1094.86,721.24Z" transform="translate(287.03 161.03)"/></svg>