<svg xmlns="http://www.w3.org/2000/svg" viewBox="0 0 1943.11 1093.11"><defs><style>.a{opacity:0;fill:#ffffff;}.b{fill:#ffffff;}</style></defs><title>1800f_00179</title><path class="a" d="M236.77-160.88h909.15c-.5,3.08,2.15,4.38,3.69,6.2,33.18,39.33,60.76,82.05,79.09,130.38,13.17,34.7,29,67.89,54,96,18.42,20.64,39.31,38.6,60.33,56.44,34.15,29,65.38,61.15,99.29,90.38,32.38,27.9,65.78,53.92,108,65.58a44.67,44.67,0,0,1,6.33,2.53c15,6.76,18.07,14.2,10.59,28.88-31.47,61.69-60.81,124.5-98.8,182.72-40.56,62.14-85.92,120.06-142.9,168.17-22.41,18.92-46.18,35.49-75.7,41.37-15.88,3.16-31.68,3.45-46.79-3.58-8.09-3.76-12.49-10-12-19.25a62.53,62.53,0,0,1,1.56-12.76c4.48-17.11,9-34.22,13.2-51.39,3.25-13.16,4.07-26.56,1.42-39.87-6.36-31.87-25.35-55.66-49.69-75.79-9.85-8.14-20.7-14.7-33.71-16.22-16.27-1.9-28.46,7-40.36,16.23-9.58,7.43-18.4,15.78-28.48,22.64-17.69,12-35.33,11.64-53.38,1a114.88,114.88,0,0,1-33.73-30.13c-15.09-20.09-33-35.56-59.24-38.32-14.82-1.57-29.62-3.35-44.43-5-32.65-3.61-65.31-6.84-97.09-16-17-4.9-34.24-8.8-52.19-8.41-27.32.6-37.88,17.73-25.26,42.07,10.61,20.46,27.8,35.1,45.3,49.37,29.3,23.88,62.45,41.18,97,55.8,37.21,15.74,73.83,33.15,113.2,43.3,15.21,3.93,30.73,6.23,46.26,8.17,23.64,3,45,11,64,25.58,21,16.19,43.45,30.63,62.63,49.11,12.09,11.63,13.37,23.85,4.78,38.31a61.54,61.54,0,0,1-7.3,9.64c-12.28,13.61-28.42,19.91-45.84,23.29a386,386,0,0,0-97.43,32.8c-25,12.31-50.91,22.45-78.05,29-18.66,4.52-37.55,8.07-56.18,12.74-28.14,7.05-55.18,17-78.19,35.34-14.8,11.83-25,26-19.11,46.52H258c-1.08-1.95-3-1.5-4.72-1.63-14.61-1.08-29.24-1.93-43.84-3.2-29-2.51-57.62-7-85.65-15.24-25.72-7.55-40.36-23.89-45-50.45-4.2-23.86-9.39-47.6-19.15-70C47.11,762.63,29.09,737.24,10.7,712.2c-16-21.77-30.8-44.52-49.61-64.12-9.61-10-21.11-15.33-35.36-13.78-8,.88-16.11,1.43-24.18,1.83-32.31,1.59-63.69,7.68-93.74,19.77-23.57,9.49-44.44,22.29-58.94,44.41a165.44,165.44,0,0,1-35.73,38.85V626.84c16.82-7.6,33.82-14.77,51.11-21.24,41-15.36,83.8-22.73,126.88-28.82,29.62-4.19,50.8-19.35,63.84-46.4,14.91-30.91,18.2-62.82,9.37-95.88s-21.45-64.75-33.07-96.82c-12-33.18-28.65-63.81-54.12-88.52-13.73-13.32-22.1-28.52-25.46-47a348,348,0,0,1-4.89-38.33c-2.26-33-4.55-66-10.14-98.74-3.87-22.64-5.56-45.65,6.44-66.64,23.06-40.36,56.34-67.76,102.67-77.27,28.59-5.87,57.8-5.7,86.78-7.32,58.54-3.27,113.61-18.31,164.8-46.95C211.41-141,225.39-149.12,236.77-160.88Z" transform="translate(287.06 161.05)"/><path class="b" d="M740.68,931.92c-5.91-20.55,4.31-34.69,19.11-46.52,23-18.38,50.05-28.29,78.19-35.34,18.63-4.67,37.52-8.22,56.18-12.74,27.14-6.58,53-16.72,78.05-29a386,386,0,0,1,97.43-32.8c17.42-3.38,33.56-9.68,45.84-23.29a61.54,61.54,0,0,0,7.3-9.64c8.59-14.46,7.31-26.68-4.78-38.31-19.18-18.48-41.6-32.92-62.63-49.11-18.92-14.57-40.32-22.63-64-25.58-15.53-1.94-31-4.24-46.26-8.17-39.37-10.15-76-27.56-113.2-43.3-34.56-14.62-67.71-31.92-97-55.8-17.5-14.27-34.69-28.91-45.3-49.37-12.62-24.34-2.06-41.47,25.26-42.07,18-.39,35.22,3.51,52.19,8.41,31.78,9.18,64.44,12.41,97.09,16,14.81,1.64,29.61,3.42,44.43,5,26.26,2.76,44.15,18.23,59.24,38.32a114.88,114.88,0,0,0,33.73,30.13c18,10.65,35.69,11,53.38-1,10.08-6.86,18.9-15.21,28.48-22.64,11.9-9.23,24.09-18.13,40.36-16.23,13,1.52,23.86,8.08,33.71,16.22,24.34,20.13,43.33,43.92,49.69,75.79,2.65,13.31,1.83,26.71-1.42,39.87-4.24,17.17-8.72,34.28-13.2,51.39a62.53,62.53,0,0,0-1.56,12.76c-.49,9.26,3.91,15.49,12,19.25,15.11,7,30.91,6.74,46.79,3.58,29.52-5.88,53.29-22.45,75.7-41.37,57-48.11,102.34-106,142.9-168.17,38-58.22,67.33-121,98.8-182.72,7.48-14.68,4.37-22.12-10.59-28.88a44.67,44.67,0,0,0-6.33-2.53c-42.19-11.66-75.59-37.68-108-65.58-33.91-29.23-65.14-61.4-99.29-90.38-21-17.84-41.91-35.8-60.33-56.44-25-28.06-40.83-61.25-54-95.95-18.33-48.33-45.91-91-79.09-130.38-1.54-1.82-4.19-3.12-3.69-6.2h198.83c-.1,24.8,3.94,48.78,14.55,71.39,17.43,37.15,48.23,59.49,84.46,75.58,29.92,13.29,61.3,22.05,93.32,28.42,30.73,6.12,61.31,7,90.72-6.15,9.6-4.3,18.74-9.59,28.1-14.43q0,465.59.14,931.16c0,5.69-1.28,7-7,7Q1194.87,931.82,740.68,931.92Z" transform="translate(287.06 161.05)"/><path class="b" d="M236.77-160.88c-11.38,11.76-25.36,19.92-39.42,27.79-51.19,28.64-106.26,43.68-164.8,47-29,1.62-58.19,1.45-86.78,7.32-46.33,9.51-79.61,36.91-102.67,77.27-12,21-10.31,44-6.44,66.64,5.59,32.72,7.88,65.71,10.14,98.74a348,348,0,0,0,4.89,38.33c3.36,18.48,11.73,33.68,25.46,47,25.47,24.71,42.1,55.34,54.12,88.52,11.62,32.07,24.26,63.81,33.07,96.82s5.54,65-9.37,95.88c-13,27-34.22,42.21-63.84,46.4-43.08,6.09-85.89,13.46-126.88,28.82-17.29,6.47-34.29,13.64-51.11,21.24q0-390.6-.13-781.2c0-5.26.82-6.69,6.5-6.69Q-21.86-160.75,236.77-160.88Z" transform="translate(287.06 161.05)"/><path class="b" d="M-286.86,739.16a165.44,165.44,0,0,0,35.73-38.85c14.5-22.12,35.37-34.92,58.94-44.41,30.05-12.09,61.43-18.18,93.74-19.77,8.07-.4,16.15-1,24.18-1.83,14.25-1.55,25.75,3.76,35.36,13.78C-20.1,667.68-5.3,690.43,10.7,712.2c18.39,25,36.41,50.43,48.92,79.17,9.76,22.43,14.95,46.17,19.15,70,4.68,26.56,19.32,42.9,45,50.45,28,8.22,56.65,12.73,85.65,15.24,14.6,1.27,29.23,2.12,43.84,3.2,1.68.13,3.64-.32,4.72,1.63q-268.74,0-537.5.14c-5.77,0-7.62-.62-7.58-7.16C-286.72,863-286.86,801.07-286.86,739.16Z" transform="translate(287.06 161.05)"/><path class="a" d="M1655.9-6.07c-9.36,4.84-18.5,10.13-28.1,14.43-29.41,13.18-60,12.27-90.72,6.15-32-6.37-63.4-15.13-93.32-28.42-36.23-16.09-67-38.43-84.46-75.58-10.61-22.61-14.65-46.59-14.55-71.39q152.54,0,305.07-.15c5.2,0,6.25,1,6.23,6.22C1655.79-105.23,1655.9-55.65,1655.9-6.07Z" transform="translate(287.06 161.05)"/></svg>