<svg xmlns="http://www.w3.org/2000/svg" viewBox="0 0 1943.32 1093.24"><defs><style>.a{opacity:0;fill:#ffffff;}.b{fill:#ffffff;}</style></defs><title>1800f_00286</title><path class="a" d="M1645.27,931.92H28.84c.6-49.54,9.56-98,19.27-146.33,7.28-36.19,16-72.12,12.49-109.52-1-10.55-2.19-21.1-2.84-31.68-2.33-37.68-18.7-67.87-47.13-92.45a957.8,957.8,0,0,1-90.51-89.58c-7.69-8.68-15.5-17.41-20.26-28.24-4-9-1.76-16.57,6.69-21.46a89.71,89.71,0,0,1,15.75-7.4c24.92-8.52,50.23-15.61,76.61-17.74,16.83-1.36,33.48-.28,48.56,8.44,19,11,26,29.51,29.8,49.65,3.52,18.81,3.22,38.28,10.88,56.37,4.95,11.71,6.93,24.17,7.67,36.92.88,15.28,6.44,29,15.9,41.08,14.34,18.3,33.86,30.12,53.25,42,24.45,14.93,51.52,24.67,76.8,37.91,44.8,23.45,89.16,47.74,133.73,71.62,14.28,7.65,28.59,15.15,45,17.31,16.85,2.22,30-6.08,34.64-22.35a55.67,55.67,0,0,0,.94-26.31C449.28,666,430.06,639.76,403,618.83c-22.68-17.52-49.21-26.58-76.29-34.39-10.72-3.1-21.52-6.32-30.57-13-22.58-16.67-43.42-35.49-64.27-54.23-10-9-10.88-20.57-4.92-32.63a81.8,81.8,0,0,1,11.51-17.78c8.31-9.53,16.43-19.27,25.31-28.24C310.2,391.61,347,338.23,371.36,276.68c23.48-59.22,46.6-118.58,73.53-176.37,7.76-16.63,16.22-32.54,30-45.13,11.76-10.73,24.76-12.88,39.22-6.7a83.84,83.84,0,0,1,12.2,6.13C539.13,62.8,553.34,67,568,70c33,6.67,66.57,9,100,12.71,33.75,3.73,66.52,1,98.84-9.21,16.85-5.34,33.81-10.44,50.89-15C838.18,53,857.72,55,876,66.72c49.76,31.84,103.33,56.53,156,82.84a469,469,0,0,0,73.83,29.61c66.33,20,131.57,43.32,197.09,65.74,20.12,6.88,39.76,15.34,56,29.57,21.06,18.4,21.1,39.68.39,58.47a110.45,110.45,0,0,1-13.19,10.2q-13.58,9-27.53,17.49c-29.66,18.1-53.35,41.44-66.84,74.21-9.67,23.49-17.15,47.44-20.07,72.82-3.61,31.37,16,54.54,47.47,55.48,20.25.61,38.29-6.32,55.15-16.55,26.87-16.3,51.52-35.72,75.7-55.69,17.93-14.81,34.88-30.83,53.06-45.31,23.7-18.89,46.2-17.14,67.71,4.26,15.19,15.11,24.6,33.83,32.51,53.42,11.33,28,15.59,58.05,24.09,86.88,14.12,47.81,29,95.31,51.95,139.82,4.68,9.08,8.9,18.62,16.54,25.88V924.33C1652.05,926.44,1647.24,927.18,1645.27,931.92Z" transform="translate(287.01 161.1)"/><path class="b" d="M1655.9,755.86c-7.64-7.26-11.86-16.8-16.54-25.88-22.9-44.51-37.83-92-51.95-139.82-8.5-28.83-12.76-58.84-24.09-86.88-7.91-19.59-17.32-38.31-32.51-53.42-21.51-21.4-44-23.15-67.71-4.26-18.18,14.48-35.13,30.5-53.06,45.31-24.18,20-48.83,39.39-75.7,55.69-16.86,10.23-34.9,17.16-55.15,16.55-31.5-.94-51.08-24.11-47.47-55.48,2.92-25.38,10.4-49.33,20.07-72.82,13.49-32.77,37.18-56.11,66.84-74.21q13.92-8.5,27.53-17.49a110.45,110.45,0,0,0,13.19-10.2c20.71-18.79,20.67-40.07-.39-58.47-16.28-14.23-35.92-22.69-56-29.57-65.52-22.42-130.76-45.72-197.09-65.74A469,469,0,0,1,1032,149.56c-52.7-26.31-106.27-51-156-82.84C857.72,55,838.18,53,817.74,58.5c-17.08,4.57-34,9.67-50.89,15C734.53,83.76,701.76,86.45,668,82.72c-33.4-3.68-67-6-100-12.71-14.7-3-28.91-7.21-41.72-15.4a83.84,83.84,0,0,0-12.2-6.13c-14.46-6.18-27.46-4-39.22,6.7-13.79,12.59-22.25,28.5-30,45.13C418,158.1,394.84,217.46,371.36,276.68,347,338.23,310.2,391.61,263.73,438.56c-8.88,9-17,18.71-25.31,28.24a81.8,81.8,0,0,0-11.51,17.78c-6,12.06-5.09,23.63,4.92,32.63,20.85,18.74,41.69,37.56,64.27,54.23,9,6.68,19.85,9.9,30.57,13,27.08,7.81,53.61,16.87,76.29,34.39,27.1,20.93,46.32,47.13,53.15,81.29a55.67,55.67,0,0,1-.94,26.31c-4.62,16.27-17.79,24.57-34.64,22.35-16.44-2.16-30.75-9.66-45-17.31-44.57-23.88-88.93-48.17-133.73-71.62-25.28-13.24-52.35-23-76.8-37.91-19.39-11.84-38.91-23.66-53.25-42-9.46-12.08-15-25.8-15.9-41.08-.74-12.75-2.72-25.21-7.67-36.92-7.66-18.09-7.36-37.56-10.88-56.37C73.5,425.47,66.48,407,47.47,396c-15.08-8.72-31.73-9.8-48.56-8.44-26.38,2.13-51.69,9.22-76.61,17.74a89.71,89.71,0,0,0-15.75,7.4c-8.45,4.89-10.64,12.45-6.69,21.46,4.76,10.83,12.57,19.56,20.26,28.24a957.8,957.8,0,0,0,90.51,89.58c28.43,24.58,44.8,54.77,47.13,92.45.65,10.58,1.83,21.13,2.84,31.68,3.56,37.4-5.21,73.33-12.49,109.52-9.71,48.32-18.67,96.79-19.27,146.33H-86.51c1.22-3,2.34-6.09,3.68-9.06,10.26-22.68,19-45.83,20.25-71,1.37-27.89-7.33-53.46-20.07-77.64-25.6-48.62-44.2-99-45.46-154.89-.55-24.31-10.66-45.95-26.57-64.77-17.73-21-38.14-39-59.41-56.17-24.17-19.51-48.51-38.82-72.77-58.21V31.88c15.48-17.36,28.89-36.25,41.15-56,26.23-42.18,39.9-86.88,27.15-136.8h179.1c.12,2.9-2.22,4.42-3.69,6.37C-57.73-135.09-72.33-115.72-82-93.16-96.17-60-100.21-25-100.22,10.59A123.35,123.35,0,0,0-78,81.83C-53.23,118-12.88,126.77,25.07,104.65c27-15.76,49.23-36.88,69.08-60.76,18.78-22.59,34.43-47.45,51.43-71.32,22.35-31.37,50-55.28,87.59-66.64,13-3.94,25.84-8.78,38.57-13.69a260.87,260.87,0,0,0,84.94-53.12h60.71c22.81,21.82,38.8,48.14,50.93,77a58.22,58.22,0,0,0,12.76,19.51c8.92,8.7,18.55,9.35,28.35,1.51a77.62,77.62,0,0,0,13.69-14.07c19.32-25.81,33.2-54.62,46-84q539.94,0,1079.9-.14c5.69,0,7,1.28,7,7Q1655.8,300.9,1655.9,755.86Z" transform="translate(287.01 161.1)"/><path class="a" d="M-286.86,440.16c24.26,19.39,48.6,38.7,72.77,58.21,21.27,17.16,41.68,35.2,59.41,56.17,15.91,18.82,26,40.46,26.57,64.77,1.26,55.93,19.86,106.27,45.46,154.89,12.74,24.18,21.44,49.75,20.07,77.64-1.23,25.19-10,48.34-20.25,71-1.34,3-2.46,6-3.68,9.06-64.76,0-129.52-.08-194.28.15-5.2,0-6.22-1-6.21-6.22Q-286.74,683-286.86,440.16Z" transform="translate(287.01 161.1)"/><path class="a" d="M356.68-160.88a260.87,260.87,0,0,1-84.94,53.12C259-102.85,246.21-98,233.17-94.07c-37.56,11.36-65.24,35.27-87.59,66.64-17,23.87-32.65,48.73-51.43,71.32-19.85,23.88-42,45-69.08,60.76C-12.88,126.77-53.23,118-78,81.83a123.35,123.35,0,0,1-22.21-71.24C-100.21-25-96.17-60-82-93.16c9.65-22.56,24.25-41.93,38.83-61.35,1.47-2,3.81-3.47,3.69-6.37Z" transform="translate(287.01 161.1)"/><path class="a" d="M-218.56-160.88c12.75,49.92-.92,94.62-27.15,136.8-12.26,19.71-25.67,38.6-41.15,56,0-61.8.09-123.6-.15-185.39,0-5.77.61-7.77,7.16-7.58C-259.43-160.52-239-160.88-218.56-160.88Z" transform="translate(287.01 161.1)"/><path class="a" d="M569.17-160.88c-12.85,29.37-26.73,58.18-46,84a77.62,77.62,0,0,1-13.69,14.07c-9.8,7.84-19.43,7.19-28.35-1.51a58.22,58.22,0,0,1-12.76-19.51c-12.13-28.9-28.12-55.22-50.93-77Z" transform="translate(287.01 161.1)"/><path class="b" d="M1645.27,931.92c2-4.74,6.78-5.48,10.63-7.59C1658.21,935.05,1650.28,931.44,1645.27,931.92Z" transform="translate(287.01 161.1)"/></svg>