<svg xmlns="http://www.w3.org/2000/svg" viewBox="0 0 1943.05 1093.09"><defs><style>.a{opacity:0;fill:#ffffff;}.b{fill:#ffffff;}</style></defs><title>1800f_00127</title><path class="a" d="M-286.86,421.94V185.17c13.86-.92,27.7-2.19,41.58-2.7,48.69-1.79,96.88,4.22,145.12,9.57,44.21,4.9,88.42,10,132.83,12.48,53.5,3,104.42-9.39,153.9-28.5C223.39,161.8,255.89,139.68,289,118.7c25-15.84,49.79-32,77.12-43.7,24.43-10.45,49.08-13.69,74.16-2.16A184.5,184.5,0,0,1,499,115.2c38.42,41.47,84.74,59.17,141.22,51.23,33-4.65,65.78-10.83,98.8-15.41,29.11-4,58.27-6.22,87.56-2,23.59,3.37,46.2,10.89,69.25,16.56,42.1,10.38,83,23.93,121.91,43.32,20.09,10,33.14,25.26,37.1,47.71,1,5.47,2.35,10.89,3,16.39,4.8,39.68,10.9,79.08,22.83,117.4,9,28.93,15.75,58.62,30.17,85.65,12.49,23.42,27.06,45.17,49.08,60.82,24.65,17.51,51.39,12.49,68.44-12.57a95.76,95.76,0,0,0,12.83-28.2c11.53-41,27.37-80.4,45-119.07,25.33-55.7,50.68-111.32,70-169.55a214.92,214.92,0,0,1,57.35-89.92c18.87-17.77,40.13-32.33,62.23-45.71,19.92-12.05,40-23.85,62-31.65,16.37-5.8,29-1.51,39.08,12.7a84.7,84.7,0,0,1,12.4,26.7c12.72,46.3,18.71,93.69,20.61,141.47,2.22,55.42-9.26,109-24.7,161.94-15.24,52.21-27.83,105-34.55,159.11a950.86,950.86,0,0,0-7.53,105.83c-.37,30.65.87,61.11,8,91.11,9,37.68,30.29,65.65,64.8,83.36,13.28,6.81,26.69,13.33,40.05,20,0,28.08-.14,56.16.13,84.23,0,4.54-.92,5.45-5.45,5.44q-161.26-.24-322.52-.12H482.65a20.5,20.5,0,0,1,.27-4.46c8.05-28.1,6.49-56-1.95-83.66-8-26.26-23.87-44.19-52-49.2A195.22,195.22,0,0,0,408,792.12c-12-.83-24.19-.55-35.92-4.7-19.23-6.82-33.51-20.34-47.7-34-9.64-9.31-18.78-19.13-29.19-27.61-9.22-7.52-18.47-15-30.09-18.6-11.36-3.51-19.41,1.06-22.37,12.38a35.87,35.87,0,0,0-.15,17.23c5.11,22.91,18.7,41.18,32.48,59.33,14.05,18.5,28.49,36.68,38.13,58.12,11.14,24.78,14.61,51.36,19.25,77.69q-306.21,0-612.42.14c-5.69,0-7-1.28-7-7q.33-112.7.15-225.39c6.63-16.36,13.18-32.75,19.9-49.06,19-46.09,37.86-92.25,42.87-142.47,2.1-21.11,3.52-42.45-2.93-63.2-6.38-20.54-20-28.55-41.15-25.33C-274.36,420.58-280.47,422.47-286.86,421.94Z" transform="translate(287.01 161.03)"/><path class="b" d="M1655.9,842.37c-13.36-6.66-26.77-13.18-40.05-20-34.51-17.71-55.83-45.68-64.8-83.36-7.13-30-8.37-60.46-8-91.11a950.86,950.86,0,0,1,7.53-105.83c6.72-54.09,19.31-106.9,34.55-159.11,15.44-52.93,26.92-106.52,24.7-161.94-1.9-47.78-7.89-95.17-20.61-141.47a84.7,84.7,0,0,0-12.4-26.7c-10-14.21-22.71-18.5-39.08-12.7-22.06,7.8-42.13,19.6-62,31.65-22.1,13.38-43.36,27.94-62.23,45.71a214.92,214.92,0,0,0-57.35,89.92c-19.29,58.23-44.64,113.85-70,169.55-17.59,38.67-33.43,78.07-45,119.07a95.76,95.76,0,0,1-12.83,28.2c-17,25.06-43.79,30.08-68.44,12.57-22-15.65-36.59-37.4-49.08-60.82-14.42-27-21.16-56.72-30.17-85.65-11.93-38.32-18-77.72-22.83-117.4-.67-5.5-2.06-10.92-3-16.39-4-22.45-17-37.69-37.1-47.71-38.89-19.39-79.81-32.94-121.91-43.32-23-5.67-45.66-13.19-69.25-16.56-29.29-4.18-58.45-2-87.56,2-33,4.58-65.78,10.76-98.8,15.41-56.48,7.94-102.8-9.76-141.22-51.23a184.5,184.5,0,0,0-58.71-42.36C415.18,61.31,390.53,64.55,366.1,75,338.77,86.7,314,102.86,289,118.7c-33.09,21-65.59,43.1-102.41,57.32-49.48,19.11-100.4,31.55-153.9,28.5C-11.74,202-55.95,196.94-100.16,192c-48.24-5.35-96.43-11.36-145.12-9.57-13.88.51-27.72,1.78-41.58,2.7V-24.28a58.86,58.86,0,0,0,6.31-2.37c47.13-23.68,89.67-54.39,131.24-86.46,15.51-12,26.71-27.47,29.41-47.77H31.87C47.29-138.66,65-118.77,89.58-106.34c24.91,12.61,44,8.17,60.19-14.31C158.71-133,167-146,171.51-160.88h258c3.08,8.45,9.53,11.71,18.09,11.87,13.12.24,24.06-5.84,35-11.87h802.91c-9.57,5.48-19.65,10-28.38,17-21.45,17.13-40.39,36.77-57.62,58-30.07,37-54.66,77.14-66.45,124a339.38,339.38,0,0,0-9.66,69.67c-.54,14.09,6.33,19.46,20,16.83a101.46,101.46,0,0,0,15.3-4.25c49.66-18,99.14-36.53,148.93-54.15C1369,44.52,1410.42.56,1442.64-53.47c12.72-21.32,8.56-34.08-12.22-48a242.25,242.25,0,0,0-30.42-17c-29.14-13.92-57-30.47-87.12-42.37q168.46,0,336.94-.15c5.2,0,6.22,1,6.22,6.22Q1655.8,343.78,1655.9,842.37Z" transform="translate(287.01 161.03)"/><path class="a" d="M1312.88-160.88c30.12,11.9,58,28.45,87.12,42.37a242.25,242.25,0,0,1,30.42,17c20.78,13.93,24.94,26.69,12.22,48-32.22,54-73.66,98-135,119.68-49.79,17.62-99.27,36.14-148.93,54.15a101.46,101.46,0,0,1-15.3,4.25c-13.66,2.63-20.53-2.74-20-16.83a339.38,339.38,0,0,1,9.66-69.67c11.79-46.85,36.38-87,66.45-124,17.23-21.24,36.17-40.88,57.62-58,8.73-7,18.81-11.51,28.38-17Z" transform="translate(287.01 161.03)"/><path class="b" d="M332.39,931.92c-4.64-26.33-8.11-52.91-19.25-77.69-9.64-21.44-24.08-39.62-38.13-58.12-13.78-18.15-27.37-36.42-32.48-59.33a35.87,35.87,0,0,1,.15-17.23c3-11.32,11-15.89,22.37-12.38,11.62,3.6,20.87,11.08,30.09,18.6,10.41,8.48,19.55,18.3,29.19,27.61,14.19,13.7,28.47,27.22,47.7,34,11.73,4.15,23.88,3.87,35.92,4.7A195.22,195.22,0,0,1,429,794.6c28.1,5,44,22.94,52,49.2,8.44,27.71,10,55.56,1.95,83.66a20.5,20.5,0,0,0-.27,4.46Z" transform="translate(287.01 161.03)"/><path class="a" d="M-119.9-160.88c-2.7,20.3-13.9,35.8-29.41,47.77C-190.88-81-233.42-50.33-280.55-26.65a58.86,58.86,0,0,1-6.31,2.37c0-43.91.08-87.81-.13-131.72,0-4.28,1-5,5.09-5Q-200.9-160.74-119.9-160.88Z" transform="translate(287.01 161.03)"/><path class="b" d="M-286.86,421.94c6.39.53,12.5-1.36,18.69-2.3C-247,416.42-233.4,424.43-227,445c6.45,20.75,5,42.09,2.93,63.2-5,50.22-23.88,96.38-42.87,142.47-6.72,16.31-13.27,32.7-19.9,49.06Z" transform="translate(287.01 161.03)"/><path class="a" d="M171.51-160.88C167-146,158.71-133,149.77-120.65c-16.19,22.48-35.28,26.92-60.19,14.31C65-118.77,47.29-138.66,31.87-160.88Z" transform="translate(287.01 161.03)"/><path class="a" d="M482.65-160.88c-11,6-21.91,12.11-35,11.87-8.56-.16-15-3.42-18.09-11.87Z" transform="translate(287.01 161.03)"/></svg>