<svg xmlns="http://www.w3.org/2000/svg" viewBox="0 0 1943.1 1093.09"><defs><style>.a{opacity:0;fill:#ffffff;}.b{fill:#ffffff;}</style></defs><title>1800f_00376</title><path class="a" d="M192.76,931.92H1.52C4,900.75,5,869.44,11.73,838.72A137.29,137.29,0,0,0,11.11,778c-10.35-45.11-39-75.26-80.72-91.55-46.7-18.24-90.35-41-130.42-71.16-27.25-20.49-57.26-36.78-86.83-53.66V139.64c59.35-42.22,120.67-81.47,182-120.7C-32.56-27.32,46.77-40.32,130.72-27.59c48.07,7.29,93.19,24.68,137.51,44a149.24,149.24,0,0,1,63.83,51.88c32.24,45.76,78.08,74.45,128.5,95.67,34,14.32,69.94,11.28,105.24,3.32C612.4,156.8,653,136,684,98.26c15.1-18.35,32.49-34.67,49.8-51C755.9,26.44,780.61,10.62,811.3,5.39A162.9,162.9,0,0,0,847-4.78c19.68-8.22,29.27-22.41,28.67-43.64-.44-15.62-5.31-30.33-10.83-44.73C856.42-115,849-136.94,851.47-160.88h285.35c12.36,11,26.86,18.68,41.67,25.71,27.37,13,56.85,15.6,86.5,16.59,43.7,1.46,87.45,1.89,131,6.38,37.46,3.87,74.78,8.83,111.37,18.12,25.16,6.38,43,21.55,54.13,44.88a129,129,0,0,1,12.16,52.05c1.17,38-6.13,74.93-14.38,111.72-13.29,59.2-31.46,117.14-45.61,176.11-8.73,36.41-19,72.32-33.15,107.08-22.17,54.59-60.58,96.95-102.75,136.35-32.75,30.59-69.4,33.77-109.22,14.51-44.48-21.51-83.09-50.74-117.51-86-29.55-30.24-43-66.51-42.84-108.4.12-27.55,6.18-54.12,12.48-80.7,3.79-16,7.68-32,7-48.59-.89-22.31-13.11-44.84-45.39-41.4a159.28,159.28,0,0,0-25.26,4.93c-50.53,14-81.95,45.43-89,98.48-5.51,41.36-3.36,82.77,1.07,124.06,5.41,50.53,24.33,96.36,50.94,139.08,23.79,38.17,50.28,74.65,69.8,115.42,13.87,29,34.69,52,61.63,69.5,8,5.23,15.88,10.83,22.56,17.85,9.17,9.64,12.94,20.92,10.44,34.08-4.84,25.51-16.21,48.3-29.73,70.1-14.57,23.48-35.44,38.29-62.41,44.69q-23.23,5.5-46.24,11.94c-17.24,4.82-34.51,9.67-50.42,18.24H258c-2.46-5.64-6.54-10.22-10.46-14.74-10.15-11.72-21.19-22.48-36.83-26.64-13.76-3.66-21.9,2.88-22.46,17C187.93,916.15,191.65,923.74,192.76,931.92Z" transform="translate(287.06 161.03)"/><path class="b" d="M995.66,931.92c15.91-8.57,33.18-13.42,50.42-18.24q23-6.43,46.24-11.94c27-6.4,47.84-21.21,62.41-44.69,13.52-21.8,24.89-44.59,29.73-70.1,2.5-13.16-1.27-24.44-10.44-34.08-6.68-7-14.53-12.62-22.56-17.85-26.94-17.55-47.76-40.54-61.63-69.5-19.52-40.77-46-77.25-69.8-115.42C993.42,507.38,974.5,461.55,969.09,411c-4.43-41.29-6.58-82.7-1.07-124.06,7.06-53,38.48-84.53,89-98.48a159.28,159.28,0,0,1,25.26-4.93c32.28-3.44,44.5,19.09,45.39,41.4.66,16.63-3.23,32.62-7,48.59-6.3,26.58-12.36,53.15-12.48,80.7-.17,41.89,13.29,78.16,42.84,108.4,34.42,35.24,73,64.47,117.51,86,39.82,19.26,76.47,16.08,109.22-14.51,42.17-39.4,80.58-81.76,102.75-136.35,14.11-34.76,24.42-70.67,33.15-107.08,14.15-59,32.32-116.91,45.61-176.11,8.25-36.79,15.55-73.74,14.38-111.72a129,129,0,0,0-12.16-52c-11.12-23.33-29-38.5-54.13-44.88-36.59-9.29-73.91-14.25-111.37-18.12-43.54-4.49-87.29-4.92-131-6.38-29.65-1-59.13-3.6-86.5-16.59-14.81-7-29.31-14.66-41.67-25.71q256.5,0,513-.15c5.2,0,6.22,1,6.22,6.22q-.26,283.83-.14,567.65c-23.6,20.55-44.15,43.69-60.5,70.49-19.37,31.75-29.54,65.59-25.4,103.24,3.34,30.41,9.54,60.34,14,90.56,5,34.53,9,69.18,8.07,104.12-.84,30.68-12.12,57-35.45,77.68-12.42,11-27,18.58-41.38,26.53-22,12.16-43.07,25.58-58.13,46.46Z" transform="translate(287.06 161.03)"/><path class="b" d="M851.47-160.88c-2.5,23.94,4.95,45.88,13.32,67.73,5.52,14.4,10.39,29.11,10.83,44.73.6,21.23-9,35.42-28.67,43.64A162.9,162.9,0,0,1,811.3,5.39c-30.69,5.23-55.4,21.05-77.53,41.89-17.31,16.31-34.7,32.63-49.8,51C653,136,612.4,156.8,565.8,167.31c-35.3,8-71.2,11-105.24-3.32-50.42-21.22-96.26-49.91-128.5-95.67a149.24,149.24,0,0,0-63.83-51.88c-44.32-19.35-89.44-36.74-137.51-44-83.95-12.73-163.28.27-235.59,46.53-61.32,39.23-122.64,78.48-182,120.7q0-146.74-.2-293.48c0-6.52,1.77-7.19,7.57-7.19q384.11.25,768.21.15a184.27,184.27,0,0,0,43.45,9.41c24.62,2.41,48.75-.09,71.91-9.41Z" transform="translate(287.06 161.03)"/><path class="b" d="M-286.86,561.58c29.57,16.88,59.58,33.17,86.83,53.66,40.07,30.14,83.72,52.92,130.42,71.16C-27.9,702.69.76,732.84,11.11,778a137.29,137.29,0,0,1,.62,60.77C5,869.44,4,900.75,1.52,931.92H-217c-.66-2.43-1.36-4.84-2-7.27-5.52-21.6-12.91-42.39-26.66-60.33-11.27-14.69-24.16-27.55-41.18-35.61Z" transform="translate(287.06 161.03)"/><path class="a" d="M1457.07,931.92c15.06-20.88,36.13-34.3,58.13-46.46,14.38-8,29-15.55,41.38-26.53,23.33-20.63,34.61-47,35.45-77.68,1-34.94-3-69.59-8.07-104.12-4.42-30.22-10.62-60.15-14-90.56-4.14-37.65,6-71.49,25.4-103.24,16.35-26.8,36.9-49.94,60.5-70.49q0,256.5.14,513c0,5.19-1,6.24-6.22,6.22C1585.57,931.84,1521.32,931.92,1457.07,931.92Z" transform="translate(287.06 161.03)"/><path class="a" d="M-286.86,828.71c17,8.06,29.91,20.92,41.18,35.61,13.75,17.94,21.14,38.73,26.66,60.33.62,2.43,1.32,4.84,2,7.27-21.76,0-43.51-.11-65.27.1-3.8,0-4.67-.86-4.65-4.66C-286.79,894.48-286.86,861.59-286.86,828.71Z" transform="translate(287.06 161.03)"/><path class="b" d="M192.76,931.92c-1.11-8.18-4.83-15.77-4.49-24.35.56-14.15,8.7-20.69,22.46-17,15.64,4.16,26.68,14.92,36.83,26.64,3.92,4.52,8,9.1,10.46,14.74Z" transform="translate(287.06 161.03)"/><path class="a" d="M604.08-160.88c-23.16,9.32-47.29,11.82-71.91,9.41a184.27,184.27,0,0,1-43.45-9.41Z" transform="translate(287.06 161.03)"/></svg>