<svg xmlns="http://www.w3.org/2000/svg" viewBox="0 0 1943.05 1093.1"><defs><style>.a{opacity:0;fill:#ffffff;}.b{fill:#ffffff;}</style></defs><title>1800f_00373</title><path class="a" d="M898.52-160.88h546.4c2.9,2.55,6.7,2.22,10,2.66,27.14,3.52,44.76,18.33,55.59,43.35,24.55,56.71,31.26,114.67,15,174.76-10.33,38.15-26.38,74.28-39.7,111.37-14.41,40.11-25.88,80.78-29.38,123.53-2.32,28.45-2.42,57.09-7,85.36-5,31-15.6,59.09-40.64,79.92a448.15,448.15,0,0,1-45.15,33.27c-36.36,23.23-74.46,28.16-115.1,12.65-26-9.92-51.82-20.27-76.25-33.69-25.8-14.17-47.2-32.87-61-59.46-5.25-10.1-10.46-20.2-14.92-30.68-19.82-46.56-27.9-94.7-20.75-145.24,3.57-25.3,9.22-50.18,13.45-75.33,2.19-13,3.31-26.14-.77-39-4.88-15.41-16.68-22.09-32.37-18.58a66.9,66.9,0,0,0-20.84,8.83c-22.76,14.22-41.4,33.12-59.59,52.52-35.35,37.71-52.5,82.09-49.53,134,2.67,46.91,9.62,93.16,25,137.58,22.4,64.8,56,124.31,89.93,183.59q25.11,43.92,71.53,64.28a188.2,188.2,0,0,1,22.14,11.64c18.36,11.22,23.84,26.1,17.42,46.64-5.78,18.51-15.65,35-25.71,51.42-20.71,33.77-50.58,49.78-90.35,46.71a118.17,118.17,0,0,0-32.47,1.9c-58.32,11.75-104.63,42.73-141.4,88.83H239.81c-11-34.21-30.11-64-52-91.92-24.11-30.84-49.09-61-73.93-91.29C91.35,721.21,69.43,693,39.19,673c-10.1-6.68-19.83-6.27-28.69,2.1C.11,684.94-7.4,696.86-14.56,709c-3.84,6.52-7.84,12.9-13.32,18.28-9.67,9.5-16.44,10.46-27.4,2.87-13.57-9.41-25-21.07-35.18-34.05-18.81-24-35.09-49.88-52.54-74.88-8.79-12.59-19.16-23.5-33.31-29.94-18.14-8.26-36.88-6.8-55.39-1.55-16.8,4.77-33.11,6.44-48.92-3-1.83-1.09-3.87-2.72-6.24-.87V66.78c11.19-6.89,22-14.46,33.63-20.55,45.74-24,90-50.13,129.71-83.64,20.82-17.56,45.89-27.18,73-31.21,19-2.83,38.1-4.62,57.19-6.64,44.08-4.65,88-6.52,132.15.84,51,8.51,100.06,22.16,145.56,47.37,30.93,17.14,54.12,40.1,62.49,75.9,10.3,44,40,67.68,83.11,75.67,33.44,6.2,67,4.25,100.31-1.61,45.49-8,88.91-21.43,126.11-50.45,8.15-6.36,17.05-11.78,25.65-17.56,23.5-15.78,48.47-26.88,77.64-26.47,17.84.25,32.52-6.72,44.29-20.82,16.18-19.4,32.71-38.51,47.89-58.73,14-18.58,25.32-38.26,28.65-61.89,1.59-11.26,5.61-22,10.47-32.36C893.47-150.57,897.56-155,898.52-160.88ZM471.78,319.06c0-21.53-32.28-45.59-53.37-39.79-11.07,3.05-15.06,10.43-10.82,21.31,7.19,18.46,21.13,29.92,39.78,35.24C461.77,339.93,471.78,332.52,471.78,319.06Z" transform="translate(287.01 161.03)"/><path class="b" d="M862.1,931.92c36.77-46.1,83.08-77.08,141.4-88.83a118.17,118.17,0,0,1,32.47-1.9c39.77,3.07,69.64-12.94,90.35-46.71,10.06-16.39,19.93-32.91,25.71-51.42,6.42-20.54.94-35.42-17.42-46.64a188.2,188.2,0,0,0-22.14-11.64q-46.37-20.44-71.53-64.28C1007,561.22,973.41,501.71,951,436.91c-15.35-44.42-22.3-90.67-25-137.58-3-51.93,14.18-96.31,49.53-134,18.19-19.4,36.83-38.3,59.59-52.52A66.9,66.9,0,0,1,1056,104c15.69-3.51,27.49,3.17,32.37,18.58,4.08,12.91,3,26,.77,39.05-4.23,25.15-9.88,50-13.45,75.33-7.15,50.54.93,98.68,20.75,145.24,4.46,10.48,9.67,20.58,14.92,30.68,13.81,26.59,35.21,45.29,61,59.46,24.43,13.42,50.23,23.77,76.25,33.69,40.64,15.51,78.74,10.58,115.1-12.65a448.15,448.15,0,0,0,45.15-33.27c25-20.83,35.66-48.9,40.64-79.92,4.54-28.27,4.64-56.91,7-85.36,3.5-42.75,15-83.42,29.38-123.53,13.32-37.09,29.37-73.22,39.7-111.37,16.27-60.09,9.56-118-15-174.76-10.83-25-28.45-39.83-55.59-43.35-3.35-.44-7.15-.11-10-2.66,68.3,0,136.6.07,204.9-.15,5.2,0,6.23,1,6.22,6.22q-.27,234.5-.14,469c-7.62,2.05-12.16,8-16.53,13.78-15.17,20.1-20.36,43.69-22.73,68.07-2,20.34-2.84,40.82-5.23,61.11-5.48,46.46-5.54,92.81,3.3,138.78C1624,644.24,1629,692.79,1627.3,742c-.49,14.14,0,28.31-.11,42.46-.12,23.28-11.28,36.77-34,41.42-16.24,3.32-32.64,3.3-49,2.47-24-1.21-47.89-3.28-71.87-.92-19.33,1.9-37.76,6.9-54.51,17-29.51,17.81-33.75,39.72-13.06,67.5,5.08,6.82,10.61,13.32,15.94,20Z" transform="translate(287.01 161.03)"/><path class="b" d="M898.52-160.88c-1,5.91-5,10.31-7.5,15.51-4.86,10.36-8.88,21.1-10.47,32.36-3.33,23.63-14.69,43.31-28.65,61.89C836.72-30.9,820.19-11.79,804,7.61c-11.77,14.1-26.45,21.07-44.29,20.82C730.55,28,705.58,39.12,682.08,54.9c-8.6,5.78-17.5,11.2-25.65,17.56-37.2,29-80.62,42.44-126.11,50.45-33.28,5.86-66.87,7.81-100.31,1.61-43.1-8-72.81-31.63-83.11-75.67-8.37-35.8-31.56-58.76-62.49-75.9-45.5-25.21-94.56-38.86-145.56-47.37C94.71-81.78,50.78-79.91,6.7-75.26c-19.09,2-38.18,3.81-57.19,6.64-27.14,4-52.21,13.65-73,31.21-39.73,33.51-84,59.61-129.71,83.64-11.61,6.09-22.44,13.66-33.63,20.55,0-73.61.08-147.22-.15-220.83,0-5.7,1.29-7,7-7Q309.25-160.8,898.52-160.88Z" transform="translate(287.01 161.03)"/><path class="b" d="M-286.86,585.86c2.37-1.85,4.41-.22,6.24.87,15.81,9.48,32.12,7.81,48.92,3,18.51-5.25,37.25-6.71,55.39,1.55,14.15,6.44,24.52,17.35,33.31,29.94,17.45,25,33.73,50.83,52.54,74.88,10.16,13,21.61,24.64,35.18,34.05,11,7.59,17.73,6.63,27.4-2.87,5.48-5.38,9.48-11.76,13.32-18.28,7.16-12.18,14.67-24.1,25.06-33.9,8.86-8.37,18.59-8.78,28.69-2.1,30.24,20,52.16,48.17,74.73,75.67C138.76,779,163.74,809.16,187.85,840c21.85,28,41,57.71,52,91.92H138.12a21.48,21.48,0,0,0-2.29-2.93C100.36,896.69,65,864.25,29.3,832.24,18.82,822.85,7.79,814-5.1,807.76c-9.6-4.65-16.92-3.8-24.84,3.14-5.66,5-8.35,11.45-10.06,18.24-8.51,33.79-12.87,68.33-17.68,102.78q-111.55,0-223.11.15c-5.2,0-6.22-1-6.22-6.22Q-286.71,755.86-286.86,585.86Z" transform="translate(287.01 161.03)"/><path class="a" d="M1420.64,931.92c-5.33-6.65-10.86-13.15-15.94-20-20.69-27.78-16.45-49.69,13.06-67.5,16.75-10.11,35.18-15.11,54.51-17,24-2.36,47.92-.29,71.87.92,16.41.83,32.81.85,49-2.47,22.72-4.65,33.88-18.14,34-41.42.07-14.15-.38-28.32.11-42.46,1.72-49.22-3.3-97.77-12.59-146.09-8.84-46-8.78-92.32-3.3-138.78,2.39-20.29,3.25-40.77,5.23-61.11,2.37-24.38,7.56-48,22.73-68.07,4.37-5.79,8.91-11.73,16.53-13.78q0,305.46.14,610.91c0,5.69-1.28,7-7,7Q1534.85,931.75,1420.64,931.92Z" transform="translate(287.01 161.03)"/><path class="a" d="M-57.68,931.92c4.81-34.45,9.17-69,17.68-102.78,1.71-6.79,4.4-13.28,10.06-18.24C-22,804-14.7,803.11-5.1,807.76,7.79,814,18.82,822.85,29.3,832.24c35.73,32,71.06,64.45,106.53,96.75a21.48,21.48,0,0,1,2.29,2.93Z" transform="translate(287.01 161.03)"/><path class="b" d="M471.78,319.06c0,13.46-10,20.87-24.41,16.76-18.65-5.32-32.59-16.78-39.78-35.24-4.24-10.88-.25-18.26,10.82-21.31C439.5,273.47,471.76,297.53,471.78,319.06Z" transform="translate(287.01 161.03)"/></svg>