<svg xmlns="http://www.w3.org/2000/svg" viewBox="0 0 1943.04 1093.13"><defs><style>.a{opacity:0;fill:#ffffff;}.b{fill:#ffffff;}</style></defs><title>1800f_00114</title><path class="a" d="M1655.9,754.34c0,57.42-.07,114.84.12,172.27,0,4.52-.9,5.53-5.44,5.44-16.94-.34-33.89-.13-50.84-.13-12.36-8.08-23.18-17.73-31.58-30-1.8-2.63-4.52-4.75-7.1-6.74-21.1-16.33-45.86-20.46-71.47-20-55.59,1-102.9,24.07-146.36,56.75H426.5c12.55-22.5,18.56-47,20.53-72.35,3-39.13-3.09-76.67-23.08-111.05-10.55-18.13-21.16-36.2-31.05-54.71-9.27-17.37-18.61-34.73-31.48-49.88-12-14.18-25.83-15.81-40.45-4.29a44.33,44.33,0,0,0-3.41,3c-14.84,14.41-29.1,29.42-44.63,43.14-14.29,12.63-22.84,28.86-27,47.22-9.15,40.21-15.41,80.71-13.3,122.24C234,883.34,238.69,910,258,931.92q-269.25,0-538.51.16c-5.67,0-6.5-1.41-6.5-6.68q.23-399,.13-797.9c15.62-1.19,31.25-2.2,46.84-3.6a589.94,589.94,0,0,1,135.44,3c44.36,6.29,88.59,12.3,133.6,8.31,23.66-2.11,47.36-3.51,70.68-8.47,28.28-6,53.86-18.69,79.33-31.72,31.07-15.88,61.91-32.23,94.5-44.93C318.6,32.57,366,22.56,411.66,6.74c17.36-6,35.22-5.83,53-1,26.82,7.27,51.52,19.45,75.69,32.76,10,5.54,20.3,10.1,31.71,12,30.51,5.2,61.1,1.79,91.57.42,45.43-2.05,90.83-5,136.33-4.2,22.49.37,44.89,2.29,66.86,7.58,43.54,10.5,83.7,29.92,124.5,47.56,34.45,14.89,49.77,42.72,51.64,79,1,19.6-2.44,38.8-5.74,58-5.35,31.1-5.76,61.92,5.28,92,6.08,16.59,14.3,31.89,28.72,42.89,13.21,10.09,26.17,9.64,38.46-1.52a150.76,150.76,0,0,0,15.13-15.92c23-28,43.16-58,64.79-87,27.7-37.12,48.27-77.75,55.63-124,3.09-19.46,5.1-39.07,11.38-57.91,6-18.11,17.59-29.78,36.83-32.91,8.72-1.41,17.47-2.6,26.21-3.89,30.52-4.52,57.18,2.06,80.16,24.21,24.3,23.42,45.61,49.35,67.68,74.71,36.94,42.44,48.39,91.21,38.16,145.62-7.52,40-16.09,79.62-17.53,120.6-2.14,61.34,1.77,121.85,19.53,180.83,13.47,44.76,36.52,83.72,73.16,113.81C1603.52,729.1,1629.28,742.44,1655.9,754.34Zm-1739.2-484c0,23.59,5.62,43.64,15.22,59.67,20.65,34.47,48.7,62.41,78.73,88.52,9.14,7.94,18.83,15.33,30.2,20,18.5,7.54,28.86,2.36,34.05-16.81.33-1.21.52-2.46.76-3.7,3.67-19.16.72-37.85-5.18-56-12.31-37.87-33-71.49-55.29-104.06-9.6-14-21.69-26-37.77-33-17.12-7.52-33.54-4.57-46.3,9.07C-80.1,246-83.13,260.9-83.3,270.35Z" transform="translate(287.01 161.05)"/><path class="b" d="M1655.9,754.34c-26.62-11.9-52.38-25.24-75.08-43.89-36.64-30.09-59.69-69.05-73.16-113.81-17.76-59-21.67-119.49-19.53-180.83,1.44-41,10-80.63,17.53-120.6,10.23-54.41-1.22-103.18-38.16-145.62-22.07-25.36-43.38-51.29-67.68-74.71-23-22.15-49.64-28.73-80.16-24.21-8.74,1.29-17.49,2.48-26.21,3.89-19.24,3.13-30.8,14.8-36.83,32.91-6.28,18.84-8.29,38.45-11.38,57.91-7.36,46.3-27.93,86.93-55.63,124.05-21.63,29-41.83,59-64.79,87a150.76,150.76,0,0,1-15.13,15.92c-12.29,11.16-25.25,11.61-38.46,1.52-14.42-11-22.64-26.3-28.72-42.89-11-30.11-10.63-60.93-5.28-92,3.3-19.19,6.75-38.39,5.74-58-1.87-36.32-17.19-64.15-51.64-79-40.8-17.64-81-37.06-124.5-47.56-22-5.29-44.37-7.21-66.86-7.58-45.5-.76-90.9,2.15-136.33,4.2-30.47,1.37-61.06,4.78-91.57-.42-11.41-1.95-21.66-6.51-31.71-12C516.19,25.18,491.49,13,464.67,5.73c-17.79-4.82-35.65-5-53,1C366,22.56,318.6,32.57,273.53,50.13,240.94,62.83,210.1,79.18,179,95.06c-25.47,13-51,25.7-79.33,31.72-23.32,5-47,6.36-70.68,8.47-45,4-89.24-2-133.6-8.31a589.94,589.94,0,0,0-135.44-3c-15.59,1.4-31.22,2.41-46.84,3.6q0-140.77-.15-281.55c0-5.69,1.29-7,7-7q731.19.22,1462.38.14c-3.57,3.9-7.08,7.87-10.73,11.71-16.42,17.26-29.6,36.37-36,59.75-3.75,13.65-9.66,26.58-15.28,39.57-6.92,16-15.19,31.45-19.13,48.6-4.89,21.33,1.9,36.44,20.61,45.14a97,97,0,0,0,50.29,8.4c13.57-1.21,27-4,40.56-5.34,27.75-2.68,45-17.5,54.35-43.5a981,981,0,0,0,28.94-97.3,99.73,99.73,0,0,0,1.39-43.62c-1.57-7.87-3.77-15.61-5.69-23.41q178.8,0,357.61-.17c6,0,6.84,1.76,6.79,7.15-.28,30.56-.13,61.11-.13,91.67-5.19,1.63-10.52.35-15.78.71-13.21.93-26.21,12.38-28.58,25.43-2,11,5.58,23,17.77,28.82,8.59,4.09,17.54,3.62,26.59,2.72Z" transform="translate(287.01 161.05)"/><path class="b" d="M258,931.92c-19.33-22-24-48.58-25.41-76.66-2.11-41.53,4.15-82,13.3-122.24,4.18-18.36,12.73-34.59,27-47.22,15.53-13.72,29.79-28.73,44.63-43.14a44.33,44.33,0,0,1,3.41-3c14.62-11.52,28.41-9.89,40.45,4.29,12.87,15.15,22.21,32.51,31.48,49.88,9.89,18.51,20.5,36.58,31.05,54.71,20,34.38,26.1,71.92,23.08,111.05-2,25.38-8,49.85-20.53,72.35Z" transform="translate(287.01 161.05)"/><path class="a" d="M1291.63-160.88c1.92,7.8,4.12,15.54,5.69,23.41a99.73,99.73,0,0,1-1.39,43.62A981,981,0,0,1,1267,3.45c-9.32,26-26.6,40.82-54.35,43.5-13.57,1.31-27,4.13-40.56,5.34a97,97,0,0,1-50.29-8.4c-18.71-8.7-25.5-23.81-20.61-45.14,3.94-17.15,12.21-32.61,19.13-48.6,5.62-13,11.53-25.92,15.28-39.57,6.43-23.38,19.61-42.49,36-59.75,3.65-3.84,7.16-7.81,10.73-11.71Z" transform="translate(287.01 161.05)"/><path class="b" d="M1343.23,931.92c43.46-32.68,90.77-55.73,146.36-56.75,25.61-.47,50.37,3.66,71.47,20,2.58,2,5.3,4.11,7.1,6.74,8.4,12.29,19.22,21.94,31.58,30Z" transform="translate(287.01 161.05)"/><path class="a" d="M1655.9-4.55c-9.05.9-18,1.37-26.59-2.72-12.19-5.78-19.76-17.87-17.77-28.82,2.37-13,15.37-24.5,28.58-25.43,5.26-.36,10.59.92,15.78-.71Z" transform="translate(287.01 161.05)"/><path class="b" d="M-83.3,270.35c.17-9.45,3.2-24.39,14.42-36.36,12.76-13.64,29.18-16.59,46.3-9.07,16.08,7.07,28.17,19,37.77,33,22.3,32.57,43,66.19,55.29,104.06,5.9,18.14,8.85,36.83,5.18,56-.24,1.24-.43,2.49-.76,3.7-5.19,19.17-15.55,24.35-34.05,16.81-11.37-4.64-21.06-12-30.2-20-30-26.11-58.08-54.05-78.73-88.52C-77.68,314-83.29,293.94-83.3,270.35Z" transform="translate(287.01 161.05)"/></svg>