<svg xmlns="http://www.w3.org/2000/svg" viewBox="0 0 1943.08 1093.11"><defs><style>.a{opacity:0;fill:#ffffff;}.b{fill:#ffffff;}</style></defs><title>1800f_00402</title><path class="a" d="M1655.9,511.49V696.66c-2.91,2.4-3.45,6-4.67,9.25-9.74,25.59-15,52.32-19.54,79.18-8.56,51-23.28,100.1-45.61,146.83H-171.51c-1.07-1.07-2.09-2.18-3.21-3.19-14.14-12.83-16.17-25.94-6.7-42.76,5.74-10.2,13-19.26,20.78-27.94,28.77-32.27,57.51-64.58,86.55-96.6,24.7-27.24,50.75-53,83.6-70.63,27.11-14.58,44.59-37.36,55.62-65.69C75.18,599.26,88,575,107.07,554.44c9.09-9.84,18-19.84,27-29.83,24.64-27.53,49.85-54.31,80.53-75.57,33.92-23.51,63.42-51.88,86.23-86.54,42.61-64.75,67.61-135.95,75.94-212.87,5-46-6.85-87.7-35.57-124.29C322,1,300.36-1.95,275.27,16.25c-12.63,9.15-22.66,20.84-32.58,32.64-19.18,22.8-36,47.6-58.22,67.83-19.06,17.36-40.22,30.48-66.27,34.41-16.34,2.46-32.78,2.62-49.17,1.57-27.4-1.76-54.67-1-81.51,4.57-28.23,5.89-56.36,7.88-85,4-27.75-3.73-52.49,1.28-71.31,25.06a1340.42,1340.42,0,0,0-83.8,119c-12.08,19.22-22.86,39.26-34.22,58.93q0-259.15-.14-518.32c0-5.69,1.28-7,7-7q663.65.22,1327.3.14c-.67,21.46-2.31,42.91-1.45,64.41,1,25.67,5.23,50.67,14.47,74.81,11.76,30.74,29.38,58.13,47.69,85.15,21.46,31.68,44.06,62.37,74.61,86.25,22.35,17.47,46.3,32.6,69.81,48.37,30.2,20.25,58.19,42.92,80.43,72,13.5,17.69,26.66,35.64,40.48,53.07,30.77,38.8,41.6,83.49,40,132-.88,26.32-12,47-33.51,62.31s-45.1,27-68.51,38.93c-48.7,24.87-96.34,51.49-139.38,85.54-16.73,13.24-32,28-42,47.29-3.45,6.72-6.19,13.84-4.3,21.81,3.45,14.47,14.94,20.31,27.18,25,26.25,10,53.6,9,80.9,6.85,25.17-2,50-6.79,75.25-8.71,26.42-2,52.93-3.63,79-8.76,48-9.43,88-32,118.15-71,16.65-21.59,20.33-44.91,9.46-70.51-6.12-14.39-14.33-28-17.88-43.39-3.15-13.68.63-23,12.67-30.22,11.16-6.66,23.67-8.69,36.35-9.4C1583.65,498.89,1619.79,505.1,1655.9,511.49ZM697.2,925.66c5.3,0,10.63.23,15.92-.07a106.44,106.44,0,0,0,13.53-1.7c74.28-13.74,142.8-40.44,201.57-89.29,17.88-14.86,36.57-28.77,49.41-48.77C992.9,762,992,743.2,974,721.31,957.67,701.5,939,683.6,930.33,658.18c-4.2-12.31-16-15.71-28.38-11.37-9.18,3.2-17.29,8.4-24.79,14.46-22.06,17.8-47,29.13-74.58,35.61-28,6.58-55.75,14.55-83.59,21.94-18.34,4.86-36.74,9.16-55.84,10.09-28,1.37-54.76-4.68-81.36-12.16-31.34-8.82-62.16-19.55-95.28-20.67-54.48-1.84-104.58,9.24-146.07,47.07-17.36,15.83-35.24,31.3-45.18,53.48-8.76,19.58-3.35,35.16,15.69,45,14.45,7.42,30,10.33,46,11.32,27,1.67,53.58-1.85,79.66-8.24,31.7-7.76,62.84-8.3,94.11,2.08,27.61,9.17,51.44,24.08,73.26,43.18C630.49,913.11,661.07,927.09,697.2,925.66Z" transform="translate(287 161.03)"/><path class="b" d="M1655.9,511.49c-36.11-6.39-72.25-12.6-109.16-10.54-12.68.71-25.19,2.74-36.35,9.4-12,7.18-15.82,16.54-12.67,30.22,3.55,15.44,11.76,29,17.88,43.39,10.87,25.6,7.19,48.92-9.46,70.51-30.11,39-70.19,61.58-118.15,71-26.1,5.13-52.61,6.74-79,8.76-25.22,1.92-50.08,6.72-75.25,8.71-27.3,2.17-54.65,3.16-80.9-6.85-12.24-4.67-23.73-10.51-27.18-25-1.89-8,.85-15.09,4.3-21.81,9.91-19.31,25.22-34,42-47.29,43-34,90.68-60.67,139.38-85.54,23.41-12,47-23.61,68.51-38.93s32.63-36,33.51-62.31c1.63-48.54-9.2-93.23-40-132-13.82-17.43-27-35.38-40.48-53.07-22.24-29.11-50.23-51.78-80.43-72-23.51-15.77-47.46-30.9-69.81-48.37C1152,125.86,1129.44,95.17,1108,63.49c-18.31-27-35.93-54.41-47.69-85.15-9.24-24.14-13.44-49.14-14.47-74.81-.86-21.5.78-42.95,1.45-64.41h150.26c9.85,16.83,20.81,32.93,34.62,46.75,14.73,14.72,28.84,16.26,43.13,4.77,17.08-13.73,28.4-31.91,37.6-51.52q168.46,0,336.94-.15c5.2,0,6.46,1,6.23,6.23-.5,11.61-.15,23.26-.15,34.9-8.79,12.53-13,26.25-11.84,41.71,1.1,15.27,6,29.38,11.84,43.28Z" transform="translate(287 161.03)"/><path class="b" d="M-286.86,364.27c11.36-19.67,22.14-39.71,34.22-58.93a1340.42,1340.42,0,0,1,83.8-119c18.82-23.78,43.56-28.79,71.31-25.06,28.69,3.84,56.82,1.85,85.05-4,26.84-5.61,54.11-6.33,81.51-4.57,16.39,1.05,32.83.89,49.17-1.57,26.05-3.93,47.21-17,66.27-34.41,22.2-20.23,39-45,58.22-67.83,9.92-11.8,19.95-23.49,32.58-32.64C300.36-1.95,322,1,341.15,25.34c28.72,36.59,40.55,78.28,35.57,124.29-8.33,76.92-33.33,148.12-75.94,212.87-22.81,34.66-52.31,63-86.23,86.54-30.68,21.26-55.89,48-80.53,75.57-8.94,10-17.86,20-27,29.83C88,575,75.18,599.26,65.13,625.11c-11,28.33-28.51,51.11-55.62,65.69-32.85,17.67-58.9,43.39-83.6,70.63-29,32-57.78,64.33-86.55,96.6-7.74,8.68-15,17.74-20.78,27.94-9.47,16.82-7.44,29.93,6.7,42.76,1.12,1,2.14,2.12,3.21,3.19-36.43,0-72.85-.14-109.28.15-5.2,0-6.22-1-6.21-6.22Q-286.74,645.05-286.86,364.27Z" transform="translate(287 161.03)"/><path class="b" d="M1586.08,931.92c22.33-46.73,37.05-95.8,45.61-146.83,4.51-26.86,9.8-53.59,19.54-79.18,1.22-3.22,1.76-6.85,4.67-9.25q0,114.6.14,229.19c0,5.2-1,6.32-6.22,6.23C1628.58,931.7,1607.33,931.92,1586.08,931.92Z" transform="translate(287 161.03)"/><path class="a" d="M1312.88-160.88c-9.2,19.61-20.52,37.79-37.6,51.52-14.29,11.49-28.4,10-43.13-4.77-13.81-13.82-24.77-29.92-34.62-46.75Z" transform="translate(287 161.03)"/><path class="a" d="M1655.9-34.91c-5.86-13.9-10.74-28-11.84-43.28-1.11-15.46,3-29.18,11.84-41.71Z" transform="translate(287 161.03)"/><path class="b" d="M697.2,925.66c-36.13,1.43-66.71-12.55-93.19-35.74-21.82-19.1-45.65-34-73.26-43.18-31.27-10.38-62.41-9.84-94.11-2.08-26.08,6.39-52.66,9.91-79.66,8.24-16-1-31.58-3.9-46-11.32-19-9.79-24.45-25.37-15.69-45,9.94-22.18,27.82-37.65,45.18-53.48,41.49-37.83,91.59-48.91,146.07-47.07,33.12,1.12,63.94,11.85,95.28,20.67,26.6,7.48,53.38,13.53,81.36,12.16,19.1-.93,37.5-5.23,55.84-10.09,27.84-7.39,55.55-15.36,83.59-21.94,27.6-6.48,52.52-17.81,74.58-35.61,7.5-6.06,15.61-11.26,24.79-14.46,12.41-4.34,24.18-.94,28.38,11.37C939,683.6,957.67,701.5,974,721.31c18,21.89,18.94,40.73,3.67,64.52-12.84,20-31.53,33.91-49.41,48.77-58.77,48.85-127.29,75.55-201.57,89.29a106.44,106.44,0,0,1-13.53,1.7C707.83,925.89,702.5,925.66,697.2,925.66Z" transform="translate(287 161.03)"/></svg>