<svg xmlns="http://www.w3.org/2000/svg" viewBox="0 0 1943.07 1093.09"><defs><style>.a{opacity:0;fill:#ffffff;}.b{fill:#ffffff;}</style></defs><title>1800f_00363</title><path class="a" d="M344.54,931.92H-221.6a39.89,39.89,0,0,1,2.2-3.95c19.09-26.76,40-52.06,61.18-77.19,25.7-30.48,58.23-47.55,97.28-53.52,20.94-3.19,42.1-5.24,62.58-11,28.26-8,46.35-26.2,52.9-54.79,5-22,2.73-44.25-.61-66.24-6-39.27-20.67-75.93-34.79-112.72-18.43-48-49.8-85.77-93.69-111.78-37.28-22.1-70-49.48-102.34-77.84-19.54-17.17-37.62-36.05-58.81-51.28-15.21-10.93-31.36-19.64-51.16-17.13q0-224.47-.16-448.94c0-5.61,1.33-6.53,6.66-6.53q298,.24,596.06.14l4.59,6.91c18.21,27.43,17.53,65.1-16.86,83.6C278.58-57,259-39.58,246.87-13.69c-13.19,28.11-33.89,50-59.71,67-8.2,5.42-13.18,13-15.82,22.36-6.7,23.61-.11,45.15,11.51,65.26,16.84,29.14,39.87,37.39,72,27.31,14.58-4.58,28-11.57,40.85-19.65,22.74-14.31,42.84-31.17,54.43-56.39,8.46-18.42,11.73-38,14-57.86,1.19-10.53,2.1-21.12,5-31.36,6.36-22.83,23.63-33,45-37.84,34.74-7.86,69.57-15.29,104.73-21,23.23-3.78,46.57-6.69,70.05-1.77C605.26-54.15,620.44-47.12,636-41c9.86,3.88,19.63,8.28,30.36,9.16,16.53,1.34,24.43-5.73,22-22.09-3.21-21.55,5.3-37.74,19.46-52.45,18-18.69,39.12-33.47,60.09-48.47,2.31-1.65,5.78-2.34,6.21-6h614.7c-.94,46.11-6.64,91.74-14.36,137.12a2483.39,2483.39,0,0,1-55.77,249.23c-8.19,29.44-15.12,59.36-29.06,86.87-17.23,34-38.45,40.77-71.74,21.9a793.23,793.23,0,0,0-104-49.43c-15.06-5.85-30-12.17-43.65-21.08-45-29.45-82.66-67.27-119.76-105.66-10.88-11.26-20.48-23.77-31.53-34.84-16.64-16.67-34.77-18-51.58-4.49a67.34,67.34,0,0,0-17.44,20.79c-12.53,23.3-16.39,48.78-18,74.59-1.88,29.69,1.91,59,7.39,88.2,10.19,54.27,30,104.45,64,148.3,23.17,29.91,52.82,44.55,92,38.72,46.81-6.95,94-10,141.39-6.49,32.49,2.4,63.34,10.46,90.36,29.71,11.68,8.33,21.82,18.1,27.14,31.88,4.85,12.53,1.8,20.84-10,27.21-7,3.75-14.48,6-22,8.09-36.12,10.09-73,16.17-110.11,21.18-64.91,8.75-129.5,19.1-192.77,36.51C872.9,650.19,828,666.06,790.1,697.08c-30.08,24.63-54,53.88-67,91.1-5.1,14.63-6.75,30.05-9.86,45.13-11.4,55.17-47,83.66-103.22,81.84-12.61-.4-25.19-1.86-37.76-3.13-38-3.87-70.7-18-95.5-48.24a231.27,231.27,0,0,0-23.27-23.9c-30.64-28-67.31-35.53-107.24-29.71C327,813,320.57,823.28,324,842.32c3.28,18.24,9.15,35.72,15.3,53.13C343.45,907.27,345.82,919.32,344.54,931.92Zm419.54-450.8a154.11,154.11,0,0,0-3.76-33.44c-4.53-20.21-11.26-39.49-26.56-54.42-11.61-11.33-23-11-34.31.55a48.76,48.76,0,0,0-6.26,7.59c-9.32,14.44-18,29.3-27.8,43.41-17.89,25.79-39,49.08-58.34,73.76-14,17.91-28.31,35.68-37.26,56.94C558,603.66,568.54,628.39,597.26,639c22.85,8.41,45.83,7.13,67.07-3.69C727.21,603.26,759.11,550.67,764.08,481.12Z" transform="translate(287.02 161.03)"/><path class="b" d="M344.54,931.92c1.28-12.6-1.09-24.65-5.26-36.47-6.15-17.41-12-34.89-15.3-53.13-3.41-19,3-29.34,22.29-32.15,39.93-5.82,76.6,1.71,107.24,29.71a231.27,231.27,0,0,1,23.27,23.9c24.8,30.27,57.53,44.37,95.5,48.24,12.57,1.27,25.15,2.73,37.76,3.13,56.21,1.82,91.82-26.67,103.22-81.84,3.11-15.08,4.76-30.5,9.86-45.13,13-37.22,36.9-66.47,67-91.1,37.89-31,82.8-46.89,129.16-59.65C982.53,620,1047.12,609.67,1112,600.92c37.08-5,74-11.09,110.11-21.18,7.55-2.11,15.08-4.34,22-8.09,11.79-6.37,14.84-14.68,10-27.21-5.32-13.78-15.46-23.55-27.14-31.88-27-19.25-57.87-27.31-90.36-29.71-47.35-3.5-94.58-.46-141.39,6.49-39.22,5.83-68.87-8.81-92-38.72-34-43.85-53.84-94-64-148.3-5.48-29.16-9.27-58.51-7.39-88.2,1.64-25.81,5.5-51.29,18-74.59a67.34,67.34,0,0,1,17.44-20.79c16.81-13.47,34.94-12.18,51.58,4.49,11,11.07,20.65,23.58,31.53,34.84,37.1,38.39,74.76,76.21,119.76,105.66,13.62,8.91,28.59,15.23,43.65,21.08a793.23,793.23,0,0,1,104,49.43c33.29,18.87,54.51,12.12,71.74-21.9,13.94-27.51,20.87-57.43,29.06-86.87a2483.39,2483.39,0,0,0,55.77-249.23c7.72-45.38,13.42-91,14.36-137.12q130.53,0,261-.15c5.2,0,6.27,1,6.23,6.22-.29,35.92-.15,71.84-.15,107.76-2.25.23-3.7-1.41-5.45-2.33-20.92-11.06-39-7-53.16,12.16a103.74,103.74,0,0,0-18.66,44.29c-4.61,26.14-5.87,52.64-7.5,79.07a730.46,730.46,0,0,0,7.35,159.23c5,31.89,20.92,54.69,51.57,66.22,8.5,3.19,17.23,5.79,25.85,8.66V676.93c-1-1.1-2.12-2.14-3.06-3.3-24.85-30.8-56-53.1-92.4-68.17-51.17-21.18-104.45-26.83-159.15-20.59-16.53,1.88-33.21,3.06-49.2,8.41-13.77,4.6-22.14,13.45-24.22,28.1-3.36,23.74-6.6,47.46-14.82,70.28a757.14,757.14,0,0,0-31.17,110.78c-3,15.06-7.25,29.49-19.76,39.88-8.65,7.19-18.45,12.34-28.7,16.73-21.58,9.26-43.73,17.37-63.72,30-16.93,10.67-31.6,23.49-39,42.91h-129c-8.07-5.57-15.92-11.51-24.27-16.62-19.12-11.72-38.28-23.74-60.84-27.64-17.81-3.08-34.77-1.25-47.92,13.26-8,8.82-9,19.86-9.64,31Z" transform="translate(287.02 161.03)"/><path class="b" d="M-286.86,294.45c19.8-2.51,36,6.2,51.16,17.13,21.19,15.23,39.27,34.11,58.81,51.28,32.3,28.36,65.06,55.74,102.34,77.84,43.89,26,75.26,63.81,93.69,111.78C33.26,589.27,48,625.93,53.93,665.2c3.34,22,5.64,44.26.61,66.24C48,760,29.9,778.24,1.64,786.23c-20.48,5.79-41.64,7.84-62.58,11-39,6-71.58,23-97.28,53.52-21.19,25.13-42.09,50.43-61.18,77.19a39.89,39.89,0,0,0-2.2,3.95c-20,0-40-.18-60,.13-4.54.07-5.44-.92-5.44-5.44q.25-152.16.13-304.32C-275,578.88-269,534.91-275.61,490c-2.25-15.41-4.91-30.83-11.25-45.28Z" transform="translate(287.02 161.03)"/><path class="a" d="M1130.74,931.92c7.36-19.42,22-32.24,39-42.91,20-12.59,42.14-20.7,63.72-30,10.25-4.39,20-9.54,28.7-16.73,12.51-10.39,16.8-24.82,19.76-39.88a757.14,757.14,0,0,1,31.17-110.78c8.22-22.82,11.46-46.54,14.82-70.28,2.08-14.65,10.45-23.5,24.22-28.1,16-5.35,32.67-6.53,49.2-8.41,54.7-6.24,108-.59,159.15,20.59,36.4,15.07,67.55,37.37,92.4,68.17.94,1.16,2,2.2,3.06,3.3V792.28c-8.92,2.91-16.3,8.83-24.77,12.65-46.85,21.12-91.64,46.13-135.91,72.13-23.53,13.81-47.4,27-70.85,41-5.36,3.19-11.24,6.78-12.84,13.86Z" transform="translate(287.02 161.03)"/><path class="b" d="M774.07-160.88c-.43,3.68-3.9,4.37-6.21,6-21,15-42.08,29.78-60.09,48.47-14.16,14.71-22.67,30.9-19.46,52.45,2.43,16.36-5.47,23.43-22,22.09-10.73-.88-20.5-5.28-30.36-9.16-15.51-6.11-30.69-13.14-47.12-16.58-23.48-4.92-46.82-2-70.05,1.77-35.16,5.71-70,13.14-104.73,21C392.65-30,375.38-19.81,369,3c-2.86,10.24-3.77,20.83-5,31.36-2.23,19.87-5.5,39.44-14,57.86-11.59,25.22-31.69,42.08-54.43,56.39-12.85,8.08-26.27,15.07-40.85,19.65-32.1,10.08-55.13,1.83-72-27.31-11.62-20.11-18.21-41.65-11.51-65.26C174,66.39,179,58.77,187.16,53.35c25.82-17.07,46.52-38.93,59.71-67C259-39.58,278.58-57,303.43-70.37c34.39-18.5,35.07-56.17,16.86-83.6l-4.59-6.91Z" transform="translate(287.02 161.03)"/><path class="a" d="M1655.9,320.25c-8.62-2.87-17.35-5.47-25.85-8.66-30.65-11.53-46.53-34.33-51.57-66.22a730.46,730.46,0,0,1-7.35-159.23c1.63-26.43,2.89-52.93,7.5-79.07a103.74,103.74,0,0,1,18.66-44.29c14.15-19.12,32.24-23.22,53.16-12.16,1.75.92,3.2,2.56,5.45,2.33Z" transform="translate(287.02 161.03)"/><path class="b" d="M1411.53,931.92c1.6-7.08,7.48-10.67,12.84-13.86,23.45-14,47.32-27.19,70.85-41,44.27-26,89.06-51,135.91-72.13,8.47-3.82,15.85-9.74,24.77-12.65,0,44.78-.09,89.55.12,134.32,0,4.53-.91,5.45-5.44,5.44Q1531.06,931.79,1411.53,931.92Z" transform="translate(287.02 161.03)"/><path class="a" d="M859.06,931.92c.61-11.14,1.64-22.18,9.64-31,13.15-14.51,30.11-16.34,47.92-13.26,22.56,3.9,41.72,15.92,60.84,27.64,8.35,5.11,16.2,11.05,24.27,16.62Z" transform="translate(287.02 161.03)"/><path class="a" d="M-286.86,444.71c6.34,14.45,9,29.87,11.25,45.28,6.56,44.92.6,88.89-11.25,132.3Z" transform="translate(287.02 161.03)"/><path class="b" d="M764.08,481.12c-5,69.55-36.87,122.14-99.75,154.16-21.24,10.82-44.22,12.1-67.07,3.69-28.72-10.58-39.31-35.31-27.47-63.46,9-21.26,23.23-39,37.26-56.94,19.32-24.68,40.45-48,58.34-73.76,9.79-14.11,18.48-29,27.8-43.41a48.76,48.76,0,0,1,6.26-7.59c11.3-11.59,22.7-11.88,34.31-.55,15.3,14.93,22,34.21,26.56,54.42A154.11,154.11,0,0,1,764.08,481.12Z" transform="translate(287.02 161.03)"/></svg>