<svg xmlns="http://www.w3.org/2000/svg" viewBox="0 0 1943.07 1093.07"><defs><style>.a{opacity:0;fill:#ffffff;}.b{fill:#ffffff;}</style></defs><title>1800f_00308</title><path class="a" d="M-53.12,931.92q-114.21,0-228.43.12c-4.52,0-5.46-.91-5.44-5.44.22-42.74.13-85.5.13-128.25,17.65-.62,35.35-.7,53-2a57.24,57.24,0,0,0,37.54-17.61,171.6,171.6,0,0,0,26.1-34.27c24.94-43,29.82-87.78,10.92-134.46-6.89-17-17.26-31.94-27.3-47.11-25.45-38.45-40.77-81.1-51.52-125.59-9.43-39-17.46-78.43-31.65-116.15-5.14-13.67-9.42-27.71-17-40.33q0-217.8-.15-435.6c0-5.2,1-6.23,6.22-6.22q197.31.28,394.62.15c31.88,7.35,63.75,6.13,95.62,0h1356.9c29.91,97.38,57,195.33,65.41,297.5A172.33,172.33,0,0,0,1655.9,211V528.19c-7.13-7.44-10.61-17-14.91-26-5.85-12.32-10.29-25.29-17.08-37.19-13.62-23.87-32.46-43.17-53.17-60.78-33.08-28.14-68.73-52.3-107.92-71.3-29.71-14.4-58.81-14.87-89.15-1.74-29,12.53-59.2,18.15-90.92,11.16-31.32-6.9-55.54-22.33-67.48-53.45-10-26.07-28.24-41.9-56.31-45.67-13.26-1.78-26.46-4.27-39.78-5.26-29.36-2.2-56.79-9.53-80.51-27.77q-15.93-12.26-31.57-24.88c-16.75-13.59-33.57-27-55.58-31.2a189.44,189.44,0,0,0-36.92-3.46c-24,.14-48,1.7-72,1.08-27.39-.7-52-8.86-74-25.51-15.68-11.88-30.16-25.52-47.91-34.51-17.47-8.84-30.13-4.86-40.32,12-9.36,15.49-12.24,32.67-12.28,50.22-.16,64.45,15.34,125.08,45.6,182,9.29,17.45,23.57,29.42,41.33,37.55a184,184,0,0,0,30.71,10.85c36.2,9.35,72.72,17.46,109,26.29,32.21,7.82,60.55,20.9,81.45,47.5a71,71,0,0,0,6.4,6.47,203.18,203.18,0,0,0,86.82,50.75c39.28,11.47,79.7,16.1,120.16,20.39a796.61,796.61,0,0,1,177.13,39.75c11.71,4.06,23.21,8.81,33,16.76,14.5,11.79,13.8,24.11-2,33.83-10.19,6.25-21.37,10.42-32.66,14.11-70,22.84-133.9,56.69-190.52,104.06-34.75,29.07-74.52,38.1-118.63,28.12-14.52-3.28-28.85-7.48-43.78-8.79-30.61-2.69-57.68,7.75-83.57,22.49s-49.51,33.26-73,51.6c-29.33,22.87-61,39.3-99.11,41.2-41.93,2.09-83.85,3.63-125.85,3.5-50.82-.15-101.65-1.61-152.48.49-21,.87-41.9-1.12-62.28-7-25.19-7.31-48.22-19.5-71.47-31.22-25.74-13-51.4-26.06-78.52-36.07-32.83-12.13-65.34-13.33-98.36-.15Q129,823.62,91.52,840.94C39.36,865-9.24,894.7-53.12,931.92ZM403.47,649.51c14.45.3,28-3.64,41.11-9.19,34-14.41,64.34-34.87,93.69-56.91,35.51-26.65,64.35-58.75,82.82-99.79,19.28-42.82,21.82-84.47-3.59-126-15.44-25.21-29.35-51.33-43.47-77.3-8.73-16.05-19.32-31-34.19-42.07-21.41-16-38.37-10.81-47.78,14.24a122.85,122.85,0,0,0-5,16.66c-2,9.11-3.3,18.39-5.28,27.51-10.8,49.84-21.86,99.62-32.58,149.48A228,228,0,0,1,404,541.1c-13.32,16.78-27.38,33-40.56,49.88-16.51,21.15-11.38,41.44,12.81,53C384.88,648.16,394,649.65,403.47,649.51ZM1267.6,135.32c0-9.87-1.89-17.7-5.3-22.59-4.62-6.63-10.24-6.78-16.4-1.46-7.88,6.82-8.6,32.4,2.09,41.44a10.45,10.45,0,0,0,14.77-1.46A20.75,20.75,0,0,0,1267.6,135.32Z" transform="translate(287.01 161.03)"/><path class="b" d="M-53.12,931.92c43.88-37.22,92.48-66.94,144.64-91q37.55-17.3,75.93-32.64c33-13.18,65.53-12,98.36.15,27.12,10,52.78,23.1,78.52,36.07,23.25,11.72,46.28,23.91,71.47,31.22,20.38,5.92,41.25,7.91,62.28,7,50.83-2.1,101.66-.64,152.48-.49,42,.13,83.92-1.41,125.85-3.5,38.15-1.9,69.78-18.33,99.11-41.2,23.51-18.34,47-36.79,73-51.6s53-25.18,83.57-22.49c14.93,1.31,29.26,5.51,43.78,8.79,44.11,10,83.88,1,118.63-28.12C1231.14,696.8,1295.05,663,1365,640.11c11.29-3.69,22.47-7.86,32.66-14.11,15.83-9.72,16.53-22,2-33.83-9.77-7.95-21.27-12.7-33-16.76a796.61,796.61,0,0,0-177.13-39.75c-40.46-4.29-80.88-8.92-120.16-20.39a203.18,203.18,0,0,1-86.82-50.75,71,71,0,0,1-6.4-6.47c-20.9-26.6-49.24-39.68-81.45-47.5-36.33-8.83-72.85-16.94-109-26.29A184,184,0,0,1,755,373.41c-17.76-8.13-32-20.1-41.33-37.55-30.26-56.89-45.76-117.52-45.6-182,0-17.55,2.92-34.73,12.28-50.22,10.19-16.86,22.85-20.84,40.32-12,17.75,9,32.23,22.63,47.91,34.51,22,16.65,46.57,24.81,74,25.51,24,.62,48-.94,72-1.08a189.44,189.44,0,0,1,36.92,3.46c22,4.24,38.83,17.61,55.58,31.2q15.61,12.66,31.57,24.88c23.72,18.24,51.15,25.57,80.51,27.77,13.32,1,26.52,3.48,39.78,5.26,28.07,3.77,46.32,19.6,56.31,45.67,11.94,31.12,36.16,46.55,67.48,53.45,31.72,7,62,1.37,90.92-11.16,30.34-13.13,59.44-12.66,89.15,1.74,39.19,19,74.84,43.16,107.92,71.3,20.71,17.61,39.55,36.91,53.17,60.78,6.79,11.9,11.23,24.87,17.08,37.19,4.3,9,7.78,18.6,14.91,26V798.35c-1.23,0-2.57.44-3.68.11-13-3.94-24.33.21-35.12,7.13-10,6.45-18.79,14.46-27.15,22.9-35.74,36.06-74,69.47-111.63,103.43Z" transform="translate(287.01 161.03)"/><path class="b" d="M-286.86,280.79c7.62,12.62,11.9,26.66,17,40.33,14.19,37.72,22.22,77.12,31.65,116.15,10.75,44.49,26.07,87.14,51.52,125.59,10,15.17,20.41,30.1,27.3,47.11,18.9,46.68,14,91.46-10.92,134.46a171.6,171.6,0,0,1-26.1,34.27,57.24,57.24,0,0,1-37.54,17.61c-17.6,1.34-35.3,1.42-53,2Z" transform="translate(287.01 161.03)"/><path class="b" d="M1655.9,211a172.33,172.33,0,0,1-24.14-74.35c-8.41-102.17-35.5-200.12-65.41-297.5,27.52,0,55.05.16,82.58-.14,5.42-.06,7.14.8,7.13,6.81Q1655.73,28.39,1655.9,211Z" transform="translate(287.01 161.03)"/><path class="a" d="M1478.32,931.92c37.68-34,75.89-67.37,111.63-103.43,8.36-8.44,17.1-16.45,27.15-22.9,10.79-6.92,22.11-11.07,35.12-7.13,1.11.33,2.45-.06,3.68-.11,0,42.75-.09,85.51.12,128.25,0,4.53-.91,5.46-5.44,5.45C1593.16,931.85,1535.74,931.92,1478.32,931.92Z" transform="translate(287.01 161.03)"/><path class="b" d="M209.45-160.88c-31.87,6.13-63.74,7.35-95.62,0Z" transform="translate(287.01 161.03)"/><path class="b" d="M403.47,649.5c-9.47.15-18.59-1.34-27.2-5.48-24.19-11.6-29.32-31.89-12.81-53,13.18-16.89,27.24-33.1,40.56-49.88a228,228,0,0,0,45.15-94.93c10.72-49.86,21.78-99.64,32.58-149.48,2-9.12,3.26-18.4,5.28-27.51a122.85,122.85,0,0,1,5-16.66c9.41-25.05,26.37-30.21,47.78-14.24,14.87,11.08,25.46,26,34.19,42.07,14.12,26,28,52.09,43.47,77.3,25.41,41.5,22.87,83.15,3.59,126-18.47,41-47.31,73.14-82.82,99.79-29.35,22-59.72,42.5-93.69,56.91C431.5,645.87,417.92,649.81,403.47,649.5Z" transform="translate(287.01 161.03)"/><path class="b" d="M1267.6,135.32a20.75,20.75,0,0,1-4.84,15.93,10.45,10.45,0,0,1-14.77,1.46c-10.69-9-10-34.62-2.09-41.44,6.16-5.32,11.78-5.17,16.4,1.46C1265.71,117.62,1267.64,125.45,1267.6,135.32Z" transform="translate(287.01 161.03)"/></svg>