<svg xmlns="http://www.w3.org/2000/svg" viewBox="0 0 1943.06 1093.09"><defs><style>.a{opacity:0;fill:#ffffff;}.b{fill:#ffffff;}</style></defs><title>1800f_00358</title><path class="a" d="M-286.86,168.48q0-161.65-.15-323.29c0-5.2,1-6.22,6.22-6.22q228.42.27,456.85.15c-8.19,20.73-13.22,42.46-20.2,63.57-14.38,43.49-23.85,88-21.73,134,1.87,40.67,10,80.67,17.32,120.66,3.61,19.72,9.75,38.75,21.72,55.32,12.27,17,29.14,19.68,46.06,7.4a92.41,92.41,0,0,0,19.09-18.32c30.27-39.31,56.79-81.2,83.47-122.93,30.12-47.12,51-98.09,60.11-153.58,2.57-15.71,4.88-31.48,8.28-47,4.46-20.37,15.32-28.91,36.23-29.9,20.09-1,39.84,2.15,59.53,5.44,28.7,4.8,56.56,13.33,84.94,19.51,15,3.28,30.13,6.86,45.74,4.41,21.73-3.41,39.59-14.76,56.38-28,3.74-2.95,9.19-4.65,10-10.52h595c-6.75,26.25-10.57,53-13.84,79.86-5.15,42.48-4.41,85.3-7.56,127.9-3.28,44.43-8.25,88.59-20,131.72-5.91,21.7-11.73,43.45-22.59,63.43-8.7,16-21.7,24.37-40.06,23.36-15.38-.85-30.82-1.58-46.1-3.4-57.63-6.88-110.25-28.77-161.26-55.11-13.37-6.9-23.66-17.25-29.42-31.51a138.44,138.44,0,0,1-8.35-32.21c-3.17-22.07-2.53-44.38-4.32-66.54-.82-10.11-2-20.17-6.22-29.52C911.71,32.62,900.43,31,890,43c-5.88,6.77-9.56,14.87-12.68,23.18a378.15,378.15,0,0,0-16.81,60.57c-6.41,33-13.15,65.78-24,97.79-10.73,31.6-9.31,63.91,3.08,95.1,9.94,25,26.08,44,54.39,48.63,12.47,2,25.17,2.06,37.82,1.81a299.32,299.32,0,0,1,80.33,9.58,379.94,379.94,0,0,0,141.44,9.23c28.73-3.54,53.79,2.18,76,21.67a335.37,335.37,0,0,0,53.69,38.27c71.73,41.32,145.36,78.74,222.83,108.3,28.57,10.9,57.73,20.47,84.79,35s45.7,36.54,55.56,65.51c9,26.53,1.66,47.46-21.22,63.59-14.59,10.29-30.84,17.26-47.41,23.57-28.59,10.88-58.2,19-86.41,30.86-23.74,10-45.46,22.74-55.48,48.47-7.64,19.63-6.81,40.12-5.39,60.63,1.11,15.9,4.51,31.47,6.82,47.2H716.39c1.14-2.8,2.12-5.68,3.45-8.38,11.78-23.81,25.83-46.41,37.91-70,22.64-44.23,58.38-73.49,103-93.07,21-9.23,43.3-13.59,66-15.79,11.78-1.15,23.49-2.13,35.42-.18,12.14,2,18.74,8.19,18.93,20.42.21,14.41-.17,28.85.44,43.24.48,11,.6,22.19,6,32.46,7.82,14.81,21.82,20.14,37,13.13a135.66,135.66,0,0,0,17-9.87c21.75-14.26,44-27.86,62.15-46.9,12.34-13,13.49-28.07,2.44-41.66-13.91-17.1-31.18-30.24-51.77-38.17-12.95-5-15.66-11.6-9.15-25.46,4.21-9,10.7-16.49,17.52-23.64,13.16-13.81,28.91-24.45,44.31-35.47,32.26-23.08,63.9-47.18,100.7-63.06a62.31,62.31,0,0,0,11.73-6.94c22-15.87,21.25-41.7-1.59-56.25-13.64-8.69-29-11.35-44.87-11.93-33.22-1.2-64.71,7.18-95.59,17.93-41.27,14.37-83.18,24.89-127.08,27-21.94,1-43.8,3.69-65.2,9.24-32.11,8.33-60.86,24.4-90.56,38.44-48.57,23-88.31,56.44-121.49,98.37-23.23,29.35-47,58.31-76.44,81.9-24.5,19.6-48.78,39.48-77.31,53.18-22.57,10.83-44.91,10.77-66.71-2.09A219.5,219.5,0,0,1,432.42,805c-18-13.52-35-28.3-53.45-41.23-22.77-16-43.08-35.2-66.68-50.06-18.54-11.67-30.9-8-40.25,11.69-.32.68-.49,1.43-.78,2.13-11.21,26.56-12.47,54.46-10.9,82.66,1.79,32.23,7.74,64.27,3.84,96.77-1,8.22-.12,16.66-.11,25q-272.05,0-544.12.14c-5.69,0-7.05-1.27-7-7,.33-28.58.15-57.17.15-85.76,53.22-25.54,108.45-44.27,167.61-50,36.62-3.56,68-17.92,93.13-45.49C3.48,711.31,29,676,48.81,636.68a126.58,126.58,0,0,0,7.32-19.07c7.83-25,1.21-46.4-16.82-64.53C25,538.73,11,524.17-1.52,508.27-55.33,440.12-103.44,368-149.41,294.45c-23.3-37.28-48.72-72.73-82.84-101C-248.11,180.33-264.72,168.18-286.86,168.48ZM347.57,448.19c-36.87-3.94-71.59,6.18-106.1,17.17a89.84,89.84,0,0,0-39.07,25.16c-22.34,24.06-25.11,55.76-6.35,82.55,10.48,15,25.83,23.89,41.65,32,19.23,9.88,37.21,8.68,54.42-5.21,9.61-7.76,19.39-15.52,30.38-21.33,27.66-14.6,57.34-23.88,87.32-32.17,20.56-5.69,41.63-9,63-7.34,30.9,2.46,58.61,10.89,74,41.74C552.32,591.87,562.71,595.5,575,594a72.2,72.2,0,0,0,26.39-9c33.86-18.68,61.31-44.43,82.81-76.45C697.78,488.39,701.91,466,698.77,442c-3.65-28.07-6.44-56.24-9.95-84.32-2.56-20.46-6.89-40.43-20.08-57.22-13.34-17-31.26-19.3-48.45-6.24-14,10.63-23.45,25.08-32.69,39.55C570.2,361,549.86,385.54,525,406.38c-32.77,27.42-69.11,44.11-113,42C390.57,447.34,369.05,448.19,347.57,448.19Z" transform="translate(287.02 161.03)"/><path class="b" d="M1437.34,931.92c-2.31-15.73-5.71-31.3-6.82-47.2-1.42-20.51-2.25-41,5.39-60.63,10-25.73,31.74-38.45,55.48-48.47,28.21-11.91,57.82-20,86.41-30.86,16.57-6.31,32.82-13.28,47.41-23.57,22.88-16.13,30.26-37.06,21.22-63.59-9.86-29-28.52-51-55.56-65.51s-56.22-24.06-84.79-35c-77.47-29.56-151.1-67-222.83-108.3a335.37,335.37,0,0,1-53.69-38.27c-22.22-19.49-47.28-25.21-76-21.67a379.94,379.94,0,0,1-141.44-9.23,299.32,299.32,0,0,0-80.33-9.58c-12.65.25-25.35.21-37.82-1.81-28.31-4.59-44.45-23.62-54.39-48.63-12.39-31.19-13.81-63.5-3.08-95.1,10.86-32,17.6-64.81,24-97.79a378.15,378.15,0,0,1,16.81-60.57c3.12-8.31,6.8-16.41,12.68-23.18,10.44-12,21.72-10.38,28.27,4.1,4.23,9.35,5.4,19.41,6.22,29.52,1.79,22.16,1.15,44.47,4.32,66.54a138.44,138.44,0,0,0,8.35,32.21c5.76,14.26,16.05,24.61,29.42,31.51,51,26.34,103.63,48.23,161.26,55.11,15.28,1.82,30.72,2.55,46.1,3.4,18.36,1,31.36-7.36,40.06-23.36,10.86-20,16.68-41.73,22.59-63.43,11.74-43.13,16.71-87.29,20-131.72,3.15-42.6,2.41-85.42,7.56-127.9,3.27-26.86,7.09-53.61,13.84-79.86h195.79c-6,7.33-13.29,13.51-17.08,22.77-10,24.41-10.37,49.63-4.49,74.49a1224.94,1224.94,0,0,1,29.61,188.41c2.64,34.29,17.14,64.15,41.24,89.07,21.73,22.47,48.26,36.41,78.31,43.9,18.09,4.51,36,9.81,54.55,12.41q0,327.45.14,654.92c0,5.69-1.28,7-7,7C1578.49,931.84,1507.91,931.92,1437.34,931.92Z" transform="translate(287.02 161.03)"/><path class="b" d="M264.09,931.92c0-8.34-.87-16.78.11-25,3.9-32.5-2.05-64.54-3.84-96.77-1.57-28.2-.31-56.1,10.9-82.66.29-.7.46-1.45.78-2.13,9.35-19.7,21.71-23.36,40.25-11.69,23.6,14.86,43.91,34.1,66.68,50.06,18.45,12.93,35.46,27.71,53.45,41.23a219.5,219.5,0,0,0,20.22,13.37c21.8,12.86,44.14,12.92,66.71,2.09,28.53-13.7,52.81-33.58,77.31-53.18,29.48-23.59,53.21-52.55,76.44-81.9C706.28,643.41,746,609.94,794.59,587c29.7-14,58.45-30.11,90.56-38.44,21.4-5.55,43.26-8.2,65.2-9.24,43.9-2.09,85.81-12.61,127.08-27,30.88-10.75,62.37-19.13,95.59-17.93,15.88.58,31.23,3.24,44.87,11.93,22.84,14.55,23.55,40.38,1.59,56.25a62.31,62.31,0,0,1-11.73,6.94c-36.8,15.88-68.44,40-100.7,63.06-15.4,11-31.15,21.66-44.31,35.47-6.82,7.15-13.31,14.66-17.52,23.64-6.51,13.86-3.8,20.48,9.15,25.46,20.59,7.93,37.86,21.07,51.77,38.17,11,13.59,9.9,28.71-2.44,41.66-18.13,19-40.4,32.64-62.15,46.9a135.66,135.66,0,0,1-17,9.87c-15.15,7-29.15,1.68-37-13.13-5.42-10.27-5.54-21.44-6-32.46-.61-14.39-.23-28.83-.44-43.24-.19-12.23-6.79-18.44-18.93-20.42-11.93-2-23.64-1-35.42.18-22.72,2.2-45,6.56-66,15.79-44.6,19.58-80.34,48.84-103,93.07-12.08,23.61-26.13,46.21-37.91,70-1.33,2.7-2.31,5.58-3.45,8.38Z" transform="translate(287.02 161.03)"/><path class="b" d="M-286.86,168.48c22.14-.3,38.75,11.85,54.61,25,34.12,28.26,59.54,63.71,82.84,101,46,73.55,94.08,145.67,147.89,213.82C11,524.17,25,538.73,39.31,553.08c18,18.13,24.65,39.58,16.82,64.53a126.58,126.58,0,0,1-7.32,19.07C29,676,3.48,711.31-26.12,743.82c-25.11,27.57-56.51,41.93-93.13,45.49-59.16,5.75-114.39,24.48-167.61,50Z" transform="translate(287.02 161.03)"/><path class="b" d="M683-160.88c-.81,5.87-6.26,7.57-10,10.52-16.79,13.25-34.65,24.6-56.38,28-15.61,2.45-30.69-1.13-45.74-4.41-28.38-6.18-56.24-14.71-84.94-19.51-19.69-3.29-39.44-6.4-59.53-5.44-20.91,1-31.77,9.53-36.23,29.9-3.4,15.53-5.71,31.3-8.28,47-9.08,55.49-30,106.46-60.11,153.58-26.68,41.73-53.2,83.62-83.47,122.93A92.41,92.41,0,0,1,219.23,220c-16.92,12.28-33.79,9.59-46.06-7.4-12-16.57-18.11-35.6-21.72-55.32-7.31-40-15.45-80-17.32-120.66-2.12-46,7.35-90.47,21.73-134,7-21.11,12-42.84,20.2-63.57Z" transform="translate(287.02 161.03)"/><path class="a" d="M1655.9,270.17c-18.54-2.6-36.46-7.9-54.55-12.41-30-7.49-56.58-21.43-78.31-43.9-24.1-24.92-38.6-54.78-41.24-89.07a1224.94,1224.94,0,0,0-29.61-188.41c-5.88-24.86-5.49-50.08,4.49-74.49,3.79-9.26,11.06-15.44,17.08-22.77h33.39c11.55,7.11,23.28,13.92,33.93,22.43,36,28.8,66.94,62.79,98.38,96.27,5.29,5.63,9.78,12.1,16.44,16.38Z" transform="translate(287.02 161.03)"/><path class="b" d="M1655.9-25.8c-6.66-4.28-11.15-10.75-16.44-16.38-31.44-33.48-62.36-67.47-98.38-96.27-10.65-8.51-22.38-15.32-33.93-22.43,47.81,0,95.62.08,143.43-.13,4.53,0,5.47.91,5.44,5.44C1655.81-112.31,1655.9-69.06,1655.9-25.8Z" transform="translate(287.02 161.03)"/><path class="b" d="M347.57,448.19c21.48,0,43-.85,64.43.18,43.85,2.12,80.19-14.57,113-42,24.9-20.84,45.24-45.37,62.64-72.64,9.24-14.47,18.71-28.92,32.69-39.55,17.19-13.06,35.11-10.75,48.45,6.24,13.19,16.79,17.52,36.76,20.08,57.22,3.51,28.08,6.3,56.25,9.95,84.32,3.14,24.07-1,46.42-14.54,66.61-21.5,32-49,57.77-82.81,76.45A72.2,72.2,0,0,1,575,594c-12.32,1.49-22.71-2.14-28.24-13.23-15.37-30.85-43.08-39.28-74-41.74-21.36-1.71-42.43,1.65-63,7.34-30,8.29-59.66,17.57-87.32,32.17-11,5.81-20.77,13.57-30.38,21.33-17.21,13.89-35.19,15.09-54.42,5.21-15.82-8.13-31.17-17.05-41.65-32-18.76-26.79-16-58.49,6.35-82.55a89.84,89.84,0,0,1,39.07-25.16C276,454.37,310.7,444.25,347.57,448.19Z" transform="translate(287.02 161.03)"/></svg>