<svg xmlns="http://www.w3.org/2000/svg" viewBox="0 0 1943.04 1093.13"><defs><style>.a{opacity:0;fill:#ffffff;}.b{fill:#ffffff;}</style></defs><title>1800f_00238</title><path class="a" d="M921.29,931.92H415.87c-16.51-17.06-32.84-34.29-47.82-52.74-29.66-36.5-63.73-67.56-106.79-87.88C218,770.87,180.42,743,149.3,706.13,120.89,672.5,85.19,648.77,44.1,632.6c-45.16-17.77-91.33-32.71-136.76-49.7-18.93-7.08-38-13.83-55.83-23.54-15.88-8.64-25-21-25-40A180.31,180.31,0,0,0-187.59,450c-5.13-12.36-9.65-25-14.49-37.47-21.31-54.95-25.89-113-31.44-170.84C-236.85,207-237.78,172-242,137.45c-6-49.26-8.61-98.64-9.53-148.17-.71-38.76,3.54-77.18,8-115.59,1.33-11.51,2.47-23.05,3.69-34.57H397.66C394.73-121,410.15-87.29,433.25-56.31c10.42,14,21,27.92,32.28,41.19C494.86,19.25,516.9,57,527.06,101.72c6.11,26.91,21.06,49.75,42.42,67.72,17.88,15.05,37.48,23.19,60.72,12.32a89.24,89.24,0,0,0,18-11.18c31-24.79,61.69-50,93-74.37C760.09,81.46,779,66.45,801.72,57.58c20.73-8.1,40.08-1.93,50.8,17.48,18.35,33.22,19,68.2,6.61,103.39-9.26,26.43-26.7,44-55.91,48.26-11.42,1.66-22.72,5.13-32.71,11.49-15.94,10.15-20.7,26.39-12.65,43.42,6.86,14.53,17.75,25.91,30.15,35.58C822.5,344.09,857.36,370.49,892.1,397a327.57,327.57,0,0,0,59.48,36.25c22.33,10.53,45.32,17.26,70.37,14.28,16.6-2,32.85-5.64,49.11-9.37,13.3-3.05,26.58-6.59,40.31-6.67,14.77-.08,18.75,6.58,12.35,19.77a98.08,98.08,0,0,1-14.43,21.31,816,816,0,0,1-110,105.26c-23,18.16-49.78,29.93-75,44.39-16.46,9.44-32.93,19-46.42,32.57-17.18,17.34-16.94,33.49.08,50.78,6.25,6.35,13.33,11.63,20.57,16.7a68.88,68.88,0,0,1,21.56,25c9.51,18.14,12.66,37.78,13.11,57.91C934.12,847.91,926.87,889.84,921.29,931.92Zm-651-382.26c30.28.59,56.78-.88,82.68-7.38,46.18-11.59,90.64-28.37,134.64-46.32,28.21-11.5,52.1-29,68.41-55.28,11-17.78,19.4-36.64,18.36-58.36-.7-14.77-6.62-20.39-21.17-20.43-6,0-11.49,1.41-17,3.29a89.5,89.5,0,0,1-47.79,3.19c-27.46-5.68-50.31-20.06-71.1-38.36-13.07-11.5-21.84-26.37-32.72-39.58-11.46-13.92-24.81-24-44.65-20.88-17.32,2.68-30.73,17.06-30.83,34.55-.07,13.14.1,26.3-.05,39.44-.14,11.7-2.73,23-6.54,34-9.57,27.57-24.58,52-43.74,73.83-14.15,16.12-29.87,30.48-52.21,34.16-12.55,2.06-25.3,2.16-37.68-.73-32.89-7.66-60.81-21.33-71.4-57.49-5.71-19.5-17.72-27.38-38-27.1-30.25.43-56.87,11-79,31.48-20.76,19.19-18.52,42.46,4.81,58.54,13.89,9.57,29.37,15.57,45.33,20.65C69.3,523.16,109.1,530,149,536.42,190.46,543.09,231.68,551.14,270.29,549.66Zm-77.83-262c0,10.44,3.07,12.8,10.83,10.31,11.81-3.78,19.37-12.53,24.94-22.88,2.45-4.57,2.94-10.39-1.71-14.69s-10.71-3.92-15.43-.93C200.11,266.47,194.63,277.31,192.46,287.68Z" transform="translate(287 161.09)"/><path class="b" d="M921.29,931.92c5.58-42.08,12.83-84,11.89-126.68-.45-20.13-3.6-39.77-13.11-57.91a68.88,68.88,0,0,0-21.56-25c-7.24-5.07-14.32-10.35-20.57-16.7-17-17.29-17.26-33.44-.08-50.78,13.49-13.61,30-23.13,46.42-32.57,25.2-14.46,52-26.23,75-44.39a816,816,0,0,0,110-105.26,98.08,98.08,0,0,0,14.43-21.31c6.4-13.19,2.42-19.85-12.35-19.77-13.73.08-27,3.62-40.31,6.67-16.26,3.73-32.51,7.39-49.11,9.37-25.05,3-48-3.75-70.37-14.28A327.57,327.57,0,0,1,892.1,397c-34.74-26.55-69.6-53-104.09-79.84-12.4-9.67-23.29-21.05-30.15-35.58-8.05-17-3.29-33.27,12.65-43.42,10-6.36,21.29-9.83,32.71-11.49,29.21-4.23,46.65-21.83,55.91-48.26,12.34-35.19,11.74-70.17-6.61-103.39-10.72-19.41-30.07-25.58-50.8-17.48C779,66.45,760.09,81.46,741.18,96.21c-31.28,24.41-62,49.58-93,74.37a89.24,89.24,0,0,1-18,11.18c-23.24,10.87-42.84,2.73-60.72-12.32-21.36-18-36.31-40.81-42.42-67.72C516.9,57,494.86,19.25,465.53-15.12c-11.31-13.27-21.86-27.21-32.28-41.19-23.1-31-38.52-64.68-35.59-104.57h65.26c.71,2.67,3,4,4.88,5.61,20,17.16,41.14,32.7,62.65,47.86,39.29,27.7,80.41,32.61,124.72,12.91a315.67,315.67,0,0,1,67.71-21.85c34.35-6.72,65.56-1.39,88.91,26.63,22.57,27.07,49.51,46.39,83.55,56.18C920.05-26.43,937.16-9.87,948.51,13a251.39,251.39,0,0,1,13.92,35.23c7.24,22.61,12.17,45.92,21.09,68,8.75,21.69,23.76,35,47.21,39,21.73,3.7,43.36,1.42,65,.19,37.64-2.15,75.25-2.91,112.89.1,30.5,2.43,61,4.39,91.65,3.19,13.9-.54,27.8-1.1,41.69-.64s27.7,2.35,40.44,8.67c18.54,9.19,22.43,23.42,11.52,41.19-7,11.37-16.29,20.72-26.43,29a189.09,189.09,0,0,0-43.21,50.4c-12.43,21-19.87,43.47-14.19,68.08,6.63,28.75,1.3,55.4-10.42,81.84-14.14,31.87-27.6,64.07-37.93,97.47-8.33,26.93-13.4,54.13-5.38,82a328.74,328.74,0,0,0,39.88,88.11c11.39,17.6,24.53,34.07,35.75,51.75,16,25.25,10.74,41.52-17,52.22-33.23,12.84-66.94,24.44-100.23,37.14-27.44,10.46-54.49,22-77.8,40.37-15.44,12.18-28.44,26.46-35.12,45.51Z" transform="translate(287 161.09)"/><path class="a" d="M1101.91,931.92c6.68-19,19.68-33.33,35.12-45.51,23.31-18.39,50.36-29.91,77.8-40.37,33.29-12.7,67-24.3,100.23-37.14,27.69-10.7,33-27,17-52.22-11.22-17.68-24.36-34.15-35.75-51.75a328.74,328.74,0,0,1-39.88-88.11c-8-27.86-3-55.06,5.38-82,10.33-33.4,23.79-65.6,37.93-97.47,11.72-26.44,17-53.09,10.42-81.84-5.68-24.61,1.76-47,14.19-68.08a189.09,189.09,0,0,1,43.21-50.4c10.14-8.32,19.45-17.67,26.43-29,10.91-17.77,7-32-11.52-41.19-12.74-6.32-26.52-8.21-40.44-8.67s-27.79.1-41.69.64c-30.6,1.2-61.15-.76-91.65-3.19-37.64-3-75.25-2.25-112.89-.1-21.66,1.23-43.29,3.51-65-.19-23.45-4-38.46-17.34-47.21-39-8.92-22.12-13.85-45.43-21.09-68A251.39,251.39,0,0,0,948.51,13c-11.35-22.87-28.46-39.43-53.17-46.54-34-9.79-61-29.11-83.55-56.18-23.35-28-54.56-33.35-88.91-26.63A315.67,315.67,0,0,0,655.17-94.5c-44.31,19.7-85.43,14.79-124.72-12.91-21.51-15.16-42.69-30.7-62.65-47.86-1.86-1.6-4.17-2.94-4.88-5.61H1531.44c-.5,3.53,2.25,5.44,4,7.73,10.08,13,21.07,25.36,29,39.8,28.68,52.44,38.6,106.06,8.87,161.81-6.54,12.26-12.78,24.69-19.17,37-8,15.49-16.38,30.81-24,46.49-10.48,21.58-11.44,42.86,4.6,62.53a113.33,113.33,0,0,0,15.76,16.34c18.28,14.91,38.4,25.81,63.07,22.25,14.21-2,28.21-5.59,42.31-8.47V255c-25.25,1.18-50.56,1.89-73,15.94a220.06,220.06,0,0,0-31.41,23.73c-45.72,41.57-81.84,90.6-111.63,144.5-27.24,49.29-34.63,101.05-20.55,155.94,11.19,43.61,18.89,87.92,21.25,132.94,1.69,32.17,12.81,59.31,37.9,80.36,16.53,13.86,33.65,26.69,53.07,36.21,10.28,5,21,8.72,32.46,9.89,30.64,3.14,61.3,6.09,92,9.12,0,21.25-.11,42.5.1,63.74,0,3.8-.86,4.67-4.66,4.66-38.95-.16-77.91-.1-116.87-.1Z" transform="translate(287 161.09)"/><path class="b" d="M-239.81-160.88c-1.22,11.52-2.36,23.06-3.69,34.57-4.46,38.41-8.71,76.83-8,115.59.92,49.53,3.56,98.91,9.53,148.17,4.19,34.58,5.12,69.54,8.45,104.23,5.55,57.82,10.13,115.89,31.44,170.84,4.84,12.49,9.36,25.11,14.49,37.47a180.31,180.31,0,0,1,14.1,69.36c0,19,9.12,31.37,25,40,17.83,9.71,36.9,16.46,55.83,23.54,45.43,17,91.6,31.93,136.76,49.7,41.09,16.17,76.79,39.9,105.2,73.53,31.12,36.84,68.65,64.74,112,85.17,43.06,20.32,77.13,51.38,106.79,87.88,15,18.45,31.31,35.68,47.82,52.74H235.26c-27.32-15.27-55.12-29.54-86.14-35.62-28.33-5.55-53.73,8.92-64.12,35.62H-112.32c-2.73-5.13-5.11-10.47-8.24-15.34a381.9,381.9,0,0,0-96.61-102.49c-20.71-15.19-44.67-23.05-69.69-27.88q0-470.13-.14-940.26c0-5.69,1.25-7.2,7-7C-266.64-160.55-253.22-160.88-239.81-160.88Z" transform="translate(287 161.09)"/><path class="b" d="M1655.9,863.62c-30.65-3-61.31-6-92-9.12-11.42-1.17-22.18-4.85-32.46-9.89-19.42-9.52-36.54-22.35-53.07-36.21-25.09-21-36.21-48.19-37.9-80.36-2.36-45-10.06-89.33-21.25-132.94-14.08-54.89-6.69-106.65,20.55-155.94,29.79-53.9,65.91-102.93,111.63-144.5a220.06,220.06,0,0,1,31.41-23.73c22.48-14.05,47.79-14.76,73-15.94Z" transform="translate(287 161.09)"/><path class="b" d="M1655.9,224.63c-14.1,2.88-28.1,6.42-42.31,8.47-24.67,3.56-44.79-7.34-63.07-22.25a113.33,113.33,0,0,1-15.76-16.34c-16-19.67-15.08-40.95-4.6-62.53,7.61-15.68,16-31,24-46.49,6.39-12.34,12.63-24.77,19.17-37,29.73-55.75,19.81-109.37-8.87-161.81-7.9-14.44-18.89-26.83-29-39.8-1.79-2.29-4.54-4.2-4-7.73,39.15,0,78.3.21,117.45-.21,6.57-.07,7.16,1.86,7.15,7.6Q1655.76,35.57,1655.9,224.63Z" transform="translate(287 161.09)"/><path class="a" d="M-286.86,786.21c25,4.83,49,12.69,69.69,27.88a381.9,381.9,0,0,1,96.61,102.49c3.13,4.87,5.51,10.21,8.24,15.34-56.27,0-112.55-.07-168.83.11-4.65,0-5.86-.94-5.84-5.76C-286.77,879.59-286.86,832.9-286.86,786.21Z" transform="translate(287 161.09)"/><path class="a" d="M85,931.92c10.39-26.7,35.79-41.17,64.12-35.62,31,6.08,58.82,20.35,86.14,35.62Z" transform="translate(287 161.09)"/><path class="b" d="M270.29,549.66c-38.61,1.48-79.83-6.57-121.25-13.24C109.1,530,69.3,523.16,30.64,510.87c-16-5.08-31.44-11.08-45.33-20.65C-38,474.14-40.26,450.87-19.5,431.68c22.17-20.49,48.79-31.05,79-31.48,20.24-.28,32.25,7.6,38,27.1,10.59,36.16,38.51,49.83,71.4,57.49,12.38,2.89,25.13,2.79,37.68.73,22.34-3.68,38.06-18,52.21-34.16C278,429.55,293,405.1,302.53,377.53c3.81-11,6.4-22.29,6.54-34,.15-13.14,0-26.3.05-39.44.1-17.49,13.51-31.87,30.83-34.55,19.84-3.08,33.19,7,44.65,20.88,10.88,13.21,19.65,28.08,32.72,39.58,20.79,18.3,43.64,32.68,71.1,38.36a89.5,89.5,0,0,0,47.79-3.19c5.51-1.88,11-3.31,17-3.29,14.55,0,20.47,5.66,21.17,20.43,1,21.72-7.32,40.58-18.36,58.36C539.71,467,515.82,484.46,487.61,496c-44,17.95-88.46,34.73-134.64,46.32C327.07,548.78,300.57,550.25,270.29,549.66Z" transform="translate(287 161.09)"/><path class="b" d="M192.46,287.68c2.17-10.37,7.65-21.21,18.63-28.19,4.72-3,10.65-3.49,15.43.93s4.16,10.12,1.71,14.69c-5.57,10.35-13.13,19.1-24.94,22.88C195.53,300.48,192.43,298.12,192.46,287.68Z" transform="translate(287 161.09)"/></svg>