<svg xmlns="http://www.w3.org/2000/svg" viewBox="0 0 1943 1093.06"><defs><style>.a{opacity:0;fill:#ffffff;}.b{fill:#ffffff;}</style></defs><title>1800f_00313</title><path class="a" d="M-286.86,236.78V36.43c2-1.79,2.46-4.35,3.4-6.67,11.26-27.7,18.94-56.54,27-85.24,10.17-36,20.61-71.93,37.86-105.4H-36.43c3.87,2.36,7.64,4.9,11.61,7.07,33.51,18.23,68,34.71,99.07,57.22C84-89.5,95.44-86.23,107.45-84.67c21.3,2.77,42.38-.21,63.5-2,49.51-4.09,97.72-15.62,146.09-26.09,36.72-8,73.62-12.55,111.3-10.66,21.93,1.1,43.89,2.08,65.89-.26,34.53-3.66,67.16-14,99.2-26.75,8.64-3.42,17.89-5.35,25.82-10.5H1570.9a159.47,159.47,0,0,0,30,82.14c14.9,20.67,31,40.45,40.49,64.56,5.92,15.05,9.95,30.61,14.49,46.06V508.46c-41.72-29.7-86.1-34.93-133.32-14.6-16,6.89-31.25,15.66-48.09,20.49-32,9.19-64.44,8.42-96.81,2.31-29.94-5.64-58-16-81.78-35.79-17.22-14.31-30.17-32.57-43.84-50.09-18-23.09-34.3-47.61-56.23-67.4-12.4-11.19-26.38-19.21-43.15-22.26-16.57-3-33.27-3.18-49.87-2.27-29.61,1.64-51.11-8.89-64.54-36.41-12.72-26.05-35.41-39.56-63.81-41.22-45.32-2.63-83.76-20.14-118.38-48.69-22.21-18.31-45.3-35.61-68.61-52.58-20.86-15.18-30.11-5.6-37.7,12.75a43,43,0,0,0-1.74,5.8c-8,32-8.15,64.59-6.54,97.23,1.36,27.64,5.49,54.77,15.91,80.69,12.73,31.69,29.54,60.39,57.49,81.3,21.87,16.36,46.78,26.74,73,32.45,40.58,8.83,72.47,28.78,96.36,63,14.26,20.42,34.45,33.78,59,40.12,15.41,4,30.61,8.78,45.79,13.59,49.08,15.54,95.12,38.37,141.75,59.74,53.18,24.35,108,41.66,167.37,40a87.41,87.41,0,0,1,20.28,2.22c6.34,1.33,7.15,5,2.8,9.68-4,4.34-9.18,7.1-14.35,9.77-22.13,11.46-45.93,18.45-69.51,26-38.55,12.35-77.14,24.58-111.51,46.85-14,9.08-27.82,18.45-42,27.2-31.3,19.27-63.34,37.15-99.67,45.24-29.3,6.53-58.11,6.82-85.42-8.53-7.77-4.37-16.52-5.83-25.57-6.09-20.8-.58-39.1,6.85-56.71,16.75C882,875.06,856.69,905,828.71,931.92H411.32c-.41-1.74-2-2.17-3.3-2.83-26.32-13.39-52.56-26.9-79.69-38.69-42.66-18.53-86.07-21.72-130.94-9.44q-44.62,12.21-87.75,28.74c-17.18,6.56-34.39,13.1-50.45,22.22H-83.48a17,17,0,0,0,1.08-2.82c7.38-39.33,7.78-78.84,2.63-118.42-5.57-42.82-11.9-85.54-13.27-128.8-.67-20.94-1.81-41.89-5.56-62.59-7.36-40.66-20.78-78.71-48.81-110.1-20.43-22.87-36-48.68-48.62-76.43-14.19-31.06-25.61-63.2-37.27-95.24C-246.45,301.4-265,268.21-286.86,236.78ZM622.65,567.23c26.5,0,43.87-7.16,60.29-24.82,18.56-20,22.21-51.3,8.17-74.56-12.18-20.19-31.94-29.51-53.69-35.15-21.27-5.51-37,.89-47.36,19.88-16.31,29.83-23.16,62.18-23.49,96-.08,8.14,5,12.47,11.81,13.54C593,564.45,607.72,567.07,622.65,567.23Z" transform="translate(286.99 161.04)"/><path class="b" d="M828.71,931.92c28-26.89,53.29-56.86,87.79-76.23,17.61-9.9,35.91-17.33,56.71-16.75,9,.26,17.8,1.72,25.57,6.09,27.31,15.35,56.12,15.06,85.42,8.53,36.33-8.09,68.37-26,99.67-45.24,14.21-8.75,28-18.12,42-27.2,34.37-22.27,73-34.5,111.51-46.85,23.58-7.56,47.38-14.55,69.51-26,5.17-2.67,10.34-5.43,14.35-9.77,4.35-4.71,3.54-8.35-2.8-9.68a87.41,87.41,0,0,0-20.28-2.22c-59.41,1.68-114.19-15.63-167.37-40-46.63-21.37-92.67-44.2-141.75-59.74-15.18-4.81-30.38-9.62-45.79-13.59-24.6-6.34-44.79-19.7-59-40.12-23.89-34.21-55.78-54.16-96.36-63-26.2-5.71-51.11-16.09-73-32.45-27.95-20.91-44.76-49.61-57.49-81.3-10.42-25.92-14.55-53.05-15.91-80.69-1.61-32.64-1.51-65.22,6.54-97.23a43,43,0,0,1,1.74-5.8c7.59-18.35,16.84-27.93,37.7-12.75,23.31,17,46.4,34.27,68.61,52.58,34.62,28.55,73.06,46.06,118.38,48.69,28.4,1.66,51.09,15.17,63.81,41.22,13.43,27.52,34.93,38.05,64.54,36.41,16.6-.91,33.3-.75,49.87,2.27,16.77,3.05,30.75,11.07,43.15,22.26,21.93,19.79,38.23,44.31,56.23,67.4,13.67,17.52,26.62,35.78,43.84,50.09,23.73,19.74,51.84,30.15,81.78,35.79,32.37,6.11,64.79,6.88,96.81-2.31,16.84-4.83,32.08-13.6,48.09-20.49,47.22-20.33,91.6-15.1,133.32,14.6V904.6c-22.93,1.3-41.12,12.58-57.68,27.32Z" transform="translate(286.99 161.04)"/><path class="b" d="M-286.86,236.78c21.89,31.43,40.41,64.62,53.56,100.74,11.66,32,23.08,64.18,37.27,95.24,12.67,27.75,28.19,53.56,48.62,76.43,28,31.39,41.45,69.44,48.81,110.1,3.75,20.7,4.89,41.65,5.56,62.59,1.37,43.26,7.7,86,13.27,128.8,5.15,39.58,4.75,79.09-2.63,118.42a17,17,0,0,1-1.08,2.82H-239.81c-4.5-12.52-8.7-25.15-13.57-37.51-7.42-18.83-16.54-36.63-33.48-49Z" transform="translate(286.99 161.04)"/><path class="b" d="M619.25-160.88c-7.93,5.15-17.18,7.08-25.82,10.5-32,12.72-64.67,23.09-99.2,26.75-22,2.34-44,1.36-65.89.26-37.68-1.89-74.58,2.71-111.3,10.66-48.37,10.47-96.58,22-146.09,26.09-21.12,1.74-42.2,4.72-63.5,2-12-1.56-23.41-4.83-33.2-11.92-31.06-22.51-65.56-39-99.07-57.22-4-2.17-7.74-4.71-11.61-7.07Z" transform="translate(286.99 161.04)"/><path class="b" d="M59.19,931.92c16.06-9.12,33.27-15.66,50.45-22.22q43.17-16.47,87.75-28.74c44.87-12.28,88.28-9.09,130.94,9.44,27.13,11.79,53.37,25.3,79.69,38.69,1.29.66,2.89,1.09,3.3,2.83Z" transform="translate(286.99 161.04)"/><path class="b" d="M1655.9,31.88c-4.54-15.45-8.57-31-14.49-46.06-9.5-24.11-25.59-43.89-40.49-64.56a159.47,159.47,0,0,1-30-82.14c26.49,0,53,.18,79.46-.16,5.11-.06,5.64,1.6,5.63,6Q1655.78-61.59,1655.9,31.88Z" transform="translate(286.99 161.04)"/><path class="b" d="M-218.56-160.88c-17.25,33.47-27.69,69.39-37.86,105.4-8.1,28.7-15.78,57.54-27,85.24-.94,2.32-1.41,4.88-3.4,6.67q0-96-.13-192c0-4.53.91-5.51,5.44-5.45C-260.55-160.71-239.56-160.88-218.56-160.88Z" transform="translate(286.99 161.04)"/><path class="a" d="M-286.86,845.4c16.94,12.38,26.06,30.18,33.48,49,4.87,12.36,9.07,25,13.57,37.51-14.16,0-28.33-.16-42.49.1-3.81.07-4.69-.86-4.66-4.66C-286.77,900.05-286.86,872.72-286.86,845.4Z" transform="translate(286.99 161.04)"/><path class="a" d="M1598.22,931.92c16.56-14.74,34.75-26,57.68-27.32,0,7.84-.21,15.69.1,23.52.12,3.28-.64,3.93-3.9,3.9C1634.14,931.81,1616.18,931.92,1598.22,931.92Z" transform="translate(286.99 161.04)"/><path class="b" d="M622.65,567.23c-14.93-.16-29.61-2.78-44.27-5.08-6.84-1.07-11.89-5.4-11.81-13.54.33-33.85,7.18-66.2,23.49-96,10.39-19,26.09-25.39,47.36-19.88,21.75,5.64,41.51,15,53.69,35.15,14,23.26,10.39,54.6-8.17,74.56C666.52,560.07,649.15,567.21,622.65,567.23Z" transform="translate(286.99 161.04)"/></svg>