<svg xmlns="http://www.w3.org/2000/svg" viewBox="0 0 1943.04 1093.15"><defs><style>.a{opacity:0;fill:#ffffff;}.b{fill:#ffffff;}</style></defs><title>1800f_00272</title><path class="a" d="M1358.41,931.92H-65.26c1.42-2.24,1.37-4.8,1.73-7.3,2.31-15.9-1-31.22-5.12-46.36-21.43-78.92-50.63-155-81.57-230.65-29.92-73.12-80.37-130.12-136.64-183.17V311.15c2.14.56,3.29-1,4.45-2.25,10.17-11,23.24-17,37.41-20.36,33.8-8.08,68.4-4,102.61-5.87,9.28-.5,13.49,4.8,16,14.13,2.18,8,2.61,16.37,5.29,24.33,10.83,32.13,25.4,62.76,37.68,94.31,12,30.94,31.57,56.36,60.55,73.61C7,506.81,51.48,507.6,78.81,470.54c12-16.22,21.41-33.64,29.41-52,12.29-28.21,17.74-57,11.68-87.92-4.89-24.94-.24-49.29,9.14-72.75,8.7-21.73,22.87-39.87,38.26-57,21.14-23.59,41.62-47.51,55.68-76.32,4.29-8.79,10.17-16.92,16.09-24.77C267.87,61.58,295.9,23,320.47-18.15c10.51-17.58,23.67-33.37,38.15-48C382.8-90.59,411-97,443.44-86c7.42,2.51,14.69,5.76,22.3,7.32,40.59,8.31,81.78,9.32,123,8.93,26.36-.25,50-8.85,71.26-24.41,15.5-11.35,30.3-23.63,46.39-34.21,21.2-13.94,43.44-17.45,67-7.42,29.79,12.67,61.19,17,93.09,19.18,27,1.86,54,4.53,79.89,12.91,52.41,17,104.59,34.67,157,51.74,29.36,9.57,55.49,24.61,77.92,45.63a965.22,965.22,0,0,0,113.45,91.1,330.25,330.25,0,0,1,56.71,49c8.19,8.94,15.45,18.69,24.26,27.1,5.63,5.37,12,6.92,19.44,5.25,8-1.79,15.15-5.52,22.45-9,24.77-11.75,50.05-15.45,76.27-4.91,9.88,4,19.59,8.44,28.37,14.36,42.32,28.54,85,56.52,128.26,83.58,1.68,1.05,3.08,2.76,5.41,1.82V831.74c-6.23.8-12.43,1.79-18.67,2.36-23.75,2.15-49.53-2.36-53.75-36.64-2.24-18.16-6.89-36.3-19.38-51C1555,735.72,1544,731,1529.86,734.29a76.9,76.9,0,0,0-24.81,10.94c-23.22,15.22-46,31.2-69.34,46.15-28.07,18-47.41,42.65-59.78,73.27C1367.18,886.33,1362.4,909,1358.41,931.92Z" transform="translate(287.01 161.08)"/><path class="b" d="M1655.9,252c-2.33.94-3.73-.77-5.41-1.82-43.27-27.06-85.94-55-128.26-83.58-8.78-5.92-18.49-10.39-28.37-14.36-26.22-10.54-51.5-6.84-76.27,4.91-7.3,3.46-14.47,7.19-22.45,9-7.45,1.67-13.81.12-19.44-5.25-8.81-8.41-16.07-18.16-24.26-27.1a330.25,330.25,0,0,0-56.71-49,965.22,965.22,0,0,1-113.45-91.1c-22.43-21-48.56-36.06-77.92-45.63-52.38-17.07-104.56-34.75-157-51.74-25.89-8.38-52.87-11.05-79.89-12.91-31.9-2.2-63.3-6.51-93.09-19.18-23.57-10-45.81-6.52-67,7.42C690.31-117.83,675.51-105.55,660-94.2,638.75-78.64,615.11-70,588.75-69.79c-41.23.39-82.42-.62-123-8.93-7.61-1.56-14.88-4.81-22.3-7.32C411-97,382.8-90.59,358.62-66.15c-14.48,14.63-27.64,30.42-38.15,48C295.9,23,267.87,61.58,239.07,99.74c-5.92,7.85-11.8,16-16.09,24.77-14.06,28.81-34.54,52.73-55.68,76.32-15.39,17.17-29.56,35.31-38.26,57-9.38,23.46-14,47.81-9.14,72.75,6.06,30.88.61,59.71-11.68,87.92-8,18.36-17.45,35.78-29.41,52C51.48,507.6,7,506.81-22.84,489.05c-29-17.25-48.52-42.67-60.55-73.61-12.28-31.55-26.85-62.18-37.68-94.31-2.68-8-3.11-16.31-5.29-24.33-2.54-9.33-6.75-14.63-16-14.13-34.21,1.83-68.81-2.21-102.61,5.87-14.17,3.39-27.24,9.34-37.41,20.36-1.16,1.26-2.31,2.81-4.45,2.25q0-232.72-.12-465.45c0-5.08.57-6.79,6.43-6.76,71.25.28,142.51.18,213.77.18,12.65,7,25.29,4.94,37.94,0q838.65,0,1677.3-.2c6.82,0,7.58,1.91,7.58,7.93Q1655.76,49.41,1655.9,252Z" transform="translate(287.01 161.08)"/><path class="b" d="M-286.86,464.44c56.27,53.05,106.72,110.05,136.64,183.17,30.94,75.62,60.14,151.73,81.57,230.65,4.11,15.14,7.43,30.46,5.12,46.36-.36,2.5-.31,5.06-1.73,7.3-71.85,0-143.69-.07-215.53.15-5.2,0-6.22-1-6.21-6.22Q-286.74,695.15-286.86,464.44Z" transform="translate(287.01 161.08)"/><path class="b" d="M1358.41,931.92c4-22.91,8.77-45.59,17.52-67.27,12.37-30.62,31.71-55.32,59.78-73.27,23.39-15,46.12-30.93,69.34-46.15a76.9,76.9,0,0,1,24.81-10.94c14.12-3.27,25.16,1.43,34.24,12.15,12.49,14.72,17.14,32.86,19.38,51,4.22,34.28,30,38.79,53.75,36.64,6.24-.57,12.44-1.56,18.67-2.36,0,31.62-.12,63.25.13,94.86,0,4.54-.92,5.45-5.45,5.44Q1504.5,931.8,1358.41,931.92Z" transform="translate(287.01 161.08)"/><path class="a" d="M-28.84-160.88c-12.65,4.94-25.29,7-37.94,0Z" transform="translate(287.01 161.08)"/></svg>