<svg xmlns="http://www.w3.org/2000/svg" viewBox="0 0 1366.29 768.29"><defs><style>.a{opacity:0;fill:#ffffff;}.b{fill:#ffffff;}</style></defs><title>1800f_00038</title><path class="a" d="M1367.52,396.14v71.34a9.26,9.26,0,0,0-2.2.48c-35.49,17.17-70.78,34.74-104.31,55.54-21.43,13.29-40.9,28.81-53.66,51.31-9.59,16.93-13.78,35.73-19.25,54.1-13.66,45.9-20.23,92.68-17.89,140.61H341.5c-21-28-48.8-47.25-79.91-62.35C230.32,692,197.2,681.79,164.44,670.6c-5.1-1.73-11.74-3.05-12.62-9.5-.82-6,5-9.15,9.13-12.1,15.24-10.84,30.8-21.25,46.25-31.8C224.12,605.65,241,594,255.25,579.09c11-11.43,18.44-24.62,21.4-40.26,5.33-28.13,3.1-56.48,1.73-84.72-1.34-27.57,0-54.45,11.13-80.31,8.65-20,14.05-41.08,17.32-62.69,2.55-16.88,7.64-32.91,16.58-47.66,5.77-9.51,11.13-19.27,16.21-29.16,3-5.81,5.46-12,5-18.84-.39-5.8-3.29-8.21-9.08-6.77-5,1.25-9.16,4.16-13.25,7.17-10.86,8-19.38,18.47-29.56,27.19-21.06,18-46.07,30.17-68.46,46.2a127.08,127.08,0,0,1-26.31,15c-19.76,8-33.53,1.73-40.15-18.53-3.41-10.44-4-21.32-4.28-32.2-.34-11.87.5-23.76-1.14-35.61-3.64-26.34-10.31-52-16.58-77.81C128.94,111.86,121,83.9,113.75,55.75c-2.68-10.44-.09-15.08,9.94-18.75,5.68-2.07,11.62-3.48,17.47-5.05C166,25.31,189.61,16,211,1.52H909.15C910.43,4,911.6,6.47,913,8.83c21.24,35.7,51.29,63.55,81.24,91.55,22.89,21.4,46.92,41.73,66.83,66.08,17.27,21.12,33,43.46,50.48,64.47,8.76,10.55,13.08,23.31,14.41,36.93,1.28,13.07,2.16,26.17,3.21,39.26,1.37,17.15,3,34.26,9.13,50.53,3.31,8.71,7.62,16.88,16.81,20.49,35.69,14,72.45,22.17,111.09,18.93,27.69-2.33,55.36-5.21,83.2-2.32C1355.43,395.37,1361.48,395.69,1367.52,396.14ZM845.44,515.84a55.33,55.33,0,0,0,17.22-2.36c12-3.65,21.81-10.2,25-23s-3-22.73-12.59-30.47c-20.84-16.9-42.64-32.45-66.51-44.85-19.32-10-39.16-12.57-60-4.48-10.36,4-21.1,7.31-32.23,8.18-23.47,1.82-45.79,7.54-66.85,18.14-5.2,2.62-10.42,5.16-14.57,9.39-6.59,6.71-6.81,13-.44,20,5.25,5.74,12.1,9.06,19.23,11.77,15.08,5.74,30.76,7.72,46.83,7.71,12.11,0,24.25-1.24,36.34.64,17.64,2.75,33.85,10,50.54,15.8C806.28,508.81,825.22,515.07,845.44,515.84ZM736.11,611.77c10.48-.92,21.43,1,32.09-1.95,14.87-4.12,20.78-18.12,13.22-31.52a40,40,0,0,0-21.54-18.14c-29.57-11.15-58.63,8-72,25.71-6,8-3.86,15.25,4.91,20.26a43.64,43.64,0,0,0,10.6,3.87C714.05,612.81,725,611.67,736.11,611.77Zm318.36-298.22c-.06-9.51-6.38-13.89-15.15-10-9.79,4.31-16.35,12.38-22.39,20.83-4.87,6.82-8.87,14.13-10.09,22.55-1.26,8.7,3.51,13.13,11.79,11.29C1034.94,354.58,1054.58,330.11,1054.47,313.55Z" transform="translate(-1.37 -1.37)"/><path class="b" d="M211,1.52C189.61,16,166,25.31,141.16,32c-5.85,1.57-11.79,3-17.47,5.05-10,3.67-12.62,8.31-9.94,18.75,7.23,28.15,15.19,56.11,22.07,84.33,6.27,25.77,12.94,51.47,16.58,77.81,1.64,11.85.8,23.74,1.14,35.61.31,10.88.87,21.76,4.28,32.2,6.62,20.26,20.39,26.5,40.15,18.53a127.08,127.08,0,0,0,26.31-15c22.39-16,47.4-28.17,68.46-46.2,10.18-8.72,18.7-19.22,29.56-27.19,4.09-3,8.21-5.92,13.25-7.17,5.79-1.44,8.69,1,9.08,6.77.45,6.84-2,13-5,18.84-5.08,9.89-10.44,19.65-16.21,29.16-8.94,14.75-14,30.78-16.58,47.66-3.27,21.61-8.67,42.67-17.32,62.69-11.17,25.86-12.47,52.74-11.13,80.31,1.37,28.24,3.6,56.59-1.73,84.72-3,15.64-10.44,28.83-21.4,40.26C241,594,224.12,605.65,207.2,617.2c-15.45,10.55-31,21-46.25,31.8-4.15,3-9.95,6.06-9.13,12.1.88,6.45,7.52,7.77,12.62,9.5,32.76,11.19,65.88,21.39,97.15,36.57,31.11,15.1,58.87,34.39,79.91,62.35q-167,0-333.91.14c-5.2,0-6.22-1-6.22-6.22q.25-377.93,0-755.85c0-5.19,1-6.24,6.22-6.22C75.38,1.6,143.18,1.52,211,1.52ZM25.23,6.46c-3.25.18-7.35,0-8.45,3.44-1.2,3.77,2.78,5.35,5.51,6.94A19.26,19.26,0,0,0,37.51,19c4.49-1.27,5.59-4.15,1.65-7.55S30.31,7,25.23,6.46Z" transform="translate(-1.37 -1.37)"/><path class="b" d="M1367.52,396.14c-6-.45-12.09-.77-18.11-1.39-27.84-2.89-55.51,0-83.2,2.32-38.64,3.24-75.4-4.91-111.09-18.93-9.19-3.61-13.5-11.78-16.81-20.49-6.18-16.27-7.76-33.38-9.13-50.53-1-13.09-1.93-26.19-3.21-39.26-1.33-13.62-5.65-26.38-14.41-36.93-17.46-21-33.21-43.35-50.48-64.47-19.91-24.35-43.94-44.68-66.83-66.08-30-28-60-55.85-81.24-91.55-1.41-2.36-2.58-4.87-3.86-7.31H1020c1.2,2.49,2.12,5.17,3.65,7.43,5.59,8.23,12.65,14.69,23.27,14.41,8.87-.24,14.75-5.81,18.72-13.32,1.38-2.62,2-5.67,2.93-8.52h174.54q17.55,13.7,35.09,27.39c17.42,13.68,27.13,30.86,24.54,53.74-.53,4.75-.12,9.61-.7,14.35-2.66,21.67,2.49,41.93,9.87,62.06,9.61,26.19,26.62,41.66,55.66,41.29Z" transform="translate(-1.37 -1.37)"/><path class="b" d="M1170.21,769.52c-2.34-47.93,4.23-94.71,17.89-140.61,5.47-18.37,9.66-37.17,19.25-54.1,12.76-22.5,32.23-38,53.66-51.31,33.53-20.8,68.82-38.37,104.31-55.54a9.26,9.26,0,0,1,2.2-.48q0,148,.14,296c0,5.2-1,6.24-6.21,6.22C1297.7,769.44,1234,769.52,1170.21,769.52Z" transform="translate(-1.37 -1.37)"/><path class="a" d="M1367.52,200.35c-29,.37-46-15.1-55.66-41.29-7.38-20.13-12.53-40.39-9.87-62.06.58-4.74.17-9.6.7-14.35,2.59-22.88-7.12-40.06-24.54-53.74q-17.51-13.74-35.09-27.39c39.62,0,79.25.11,118.87-.14,5,0,5.7,1.39,5.69,5.91Q1367.4,103.82,1367.52,200.35Z" transform="translate(-1.37 -1.37)"/><path class="a" d="M1068.52,1.52c-1,2.85-1.55,5.9-2.93,8.52-4,7.51-9.85,13.08-18.72,13.32-10.62.28-17.68-6.18-23.27-14.41-1.53-2.26-2.45-4.94-3.65-7.43Z" transform="translate(-1.37 -1.37)"/><path class="b" d="M845.44,515.84c-20.22-.77-39.16-7-58-13.58-16.69-5.78-32.9-13.05-50.54-15.8-12.09-1.88-24.23-.65-36.34-.64-16.07,0-31.75-2-46.83-7.71-7.13-2.71-14-6-19.23-11.77-6.37-7-6.15-13.26.44-20,4.15-4.23,9.37-6.77,14.57-9.39,21.06-10.6,43.38-16.32,66.85-18.14,11.13-.87,21.87-4.15,32.23-8.18,20.8-8.09,40.64-5.56,60,4.48,23.87,12.4,45.67,27.95,66.51,44.85,9.55,7.74,15.74,17.64,12.59,30.47s-13,19.37-25,23A55.33,55.33,0,0,1,845.44,515.84Z" transform="translate(-1.37 -1.37)"/><path class="b" d="M736.11,611.77c-11.15-.1-22.06,1-32.72-1.77a43.64,43.64,0,0,1-10.6-3.87c-8.77-5-10.92-12.29-4.91-20.26,13.37-17.75,42.43-36.86,72-25.71a40,40,0,0,1,21.54,18.14c7.56,13.4,1.65,27.4-13.22,31.52C757.54,612.78,746.59,610.85,736.11,611.77Z" transform="translate(-1.37 -1.37)"/><path class="b" d="M1054.47,313.55c.11,16.56-19.53,41-35.84,44.64-8.28,1.84-13-2.59-11.79-11.29,1.22-8.42,5.22-15.73,10.09-22.55,6-8.45,12.6-16.52,22.39-20.83C1048.09,299.66,1054.41,304,1054.47,313.55Z" transform="translate(-1.37 -1.37)"/><path class="a" d="M25.23,6.46c5.08.5,10,1.54,13.93,5S42,17.7,37.51,19a19.26,19.26,0,0,1-15.22-2.13c-2.73-1.59-6.71-3.17-5.51-6.94C17.88,6.48,22,6.64,25.23,6.46Z" transform="translate(-1.37 -1.37)"/></svg>