<svg xmlns="http://www.w3.org/2000/svg" viewBox="0 0 1943.04 1093.1"><defs><style>.a{opacity:0;fill:#ffffff;}.b{fill:#ffffff;}</style></defs><title>1800f_00283</title><path class="a" d="M1655.9,751.3v126c-34.91-.8-66.75,20.43-82,54.64H33.39c.36-5.79,1.11-11.58,1-17.36-.54-35-4.73-69.52-10.62-104-4.08-23.83-11.44-47.3-9.35-71.92,1.42-16.86,5.26-33.52,6.38-50.3,2.34-35,4.05-70,6.46-105,.36-5.22.91-10.17,5.78-13.18s8.3,2,12.46,3.07c.88.22,1.5,1.34,2.34,1.89,25.27,16.47,52,29.11,81.74,36,61.54,14.3,124.55,20.67,186,35.43,9.88,2.37,20.4,3.72,30.78.79C354.89,645,358.85,640,359.18,631c.32-8.5-2.67-16-7.11-22.8-20.51-31.28-46.55-57.78-73.74-83.13C262.19,510,242.53,499.63,224.57,487c-20-14.08-22.8-29.52-9.94-50.24,6.56-10.57,14.44-20.15,22.51-29.53,34.32-39.93,64.54-82.61,84.08-131.77,16.85-42.41,39.34-81.32,66.43-117.87,18.69-25.21,31.58-53,39.46-83.78,8.14-31.76,25.64-59.31,47-84,11.57-13.39,20.54-13,33.32-.84A202.73,202.73,0,0,1,540,28.76c10.56,17,26,23.9,44.67,26,35,4,69.67,1.11,104.08-5.55,33-6.38,63.66-19.59,94.2-33.11,10.16-4.5,20.44-8.78,31.7-9.87,17-1.64,30.22,7,43.06,16.07C899.81,52,944.92,76.17,991.46,98.08c57.72,27.18,117,47.35,181.72,48.17,32,.4,61.57,10.1,88.36,28.14,18.46,12.43,38,23.06,57.82,33.28a314.17,314.17,0,0,1,40.15,24.38c21.75,15.72,35.91,36.06,39,63.21,1.3,11.54,2.32,23.12,3.21,34.7,1.25,16.28,6.29,30.39,20.09,40.63,10,7.38,20.41,14,30.69,20.89,17.8,12,37.24,21.71,52.53,37.14,31.29,31.59,49.84,70.25,61.08,112.7,8.41,31.75,12.71,64.45,21.39,96.16,8.1,29.58,16.71,59,34.75,84.37C1631.05,734.28,1641.11,745.56,1655.9,751.3ZM1332,356.31c-20.81-.56-34.7,2.29-47.56,9.57-12.24,6.92-18.48,22.12-14.25,34.85,4,12.18,20.44,24.1,33.52,24.88,14.17.85,27.15-2.25,40-8.46,14.88-7.2,26.3-17.33,33.41-32.13,4-8.41,1.61-14.31-6.17-18.81C1357,358.09,1341.46,357.09,1332,356.31Z" transform="translate(287 161.03)"/><path class="b" d="M1655.9,751.3c-14.79-5.74-24.85-17-33.68-29.45-18-25.41-26.65-54.79-34.75-84.37-8.68-31.71-13-64.41-21.39-96.16-11.24-42.45-29.79-81.11-61.08-112.7-15.29-15.43-34.73-25.18-52.53-37.14-10.28-6.9-20.72-13.51-30.69-20.89-13.8-10.24-18.84-24.35-20.09-40.63-.89-11.58-1.91-23.16-3.21-34.7-3.06-27.15-17.22-47.49-39-63.21a314.17,314.17,0,0,0-40.15-24.38c-19.79-10.22-39.36-20.85-57.82-33.28-26.79-18-56.31-27.74-88.36-28.14-64.73-.82-124-21-181.72-48.17C944.92,76.17,899.81,52,857.7,22.3c-12.84-9-26.08-17.71-43.06-16.07-11.26,1.09-21.54,5.37-31.7,9.87-30.54,13.52-61.2,26.73-94.2,33.11-34.41,6.66-69.08,9.5-104.08,5.55-18.69-2.1-34.11-9-44.67-26a202.73,202.73,0,0,0-32.57-39.84c-12.78-12.15-21.75-12.55-33.32.84-21.35,24.72-38.85,52.27-47,84-7.88,30.73-20.77,58.57-39.46,83.78-27.09,36.55-49.58,75.46-66.43,117.87-19.54,49.16-49.76,91.84-84.08,131.77-8.07,9.38-15.95,19-22.51,29.53-12.86,20.72-10,36.16,9.94,50.24,18,12.65,37.62,23.06,53.76,38.11,27.19,25.35,53.23,51.85,73.74,83.13,4.44,6.76,7.43,14.3,7.11,22.8-.33,9-4.29,14-12.81,16.41-10.38,2.93-20.9,1.58-30.78-.79-61.44-14.76-124.45-21.13-186-35.43-29.76-6.91-56.47-19.55-81.74-36-.84-.55-1.46-1.67-2.34-1.89-4.16-1-7.44-6.18-12.46-3.07s-5.42,8-5.78,13.18c-2.41,35-4.12,70-6.46,105-1.12,16.78-5,33.44-6.38,50.3-2.09,24.62,5.27,48.09,9.35,71.92,5.89,34.44,10.08,69,10.62,104,.09,5.78-.66,11.57-1,17.36h-126c-.17-2.82,2-4.58,3.23-6.67,12.74-21,24.37-42.49,33.5-65.36C-41.11,823-45.08,788.64-69.19,756.94c-9.16-12.05-18.39-24.13-28.44-35.44-29.36-33-48.39-70.63-53-115-4.06-39.13-22.34-70.87-51.27-96.8-19.42-17.41-40.69-32.43-62.82-46.17-7.23-4.49-13.62-10.49-22.15-12.73q0-302.41-.14-604.83c0-5.69,1.28-7,7-7q128.62.32,257.26.15c-4.68,10.13-11.2,19.18-17,28.68C-53.54-109.4-66.63-86.37-69-59c-3.4,40.08,10,73,48.82,89.39C9.69,43,38.35,37.33,65.22,20.64c22-13.67,39.11-32.76,55.66-52.2,31.67-37.2,64.84-72.89,101.29-105.5,8.6-7.7,18.22-14.4,25.23-23.82H438.64c0,.49-.22,1.13,0,1.46,13.83,19.55,28.71,38.25,45.64,55.22,3.52,3.53,7.89,2.87,11.87.53a28.1,28.1,0,0,0,8.61-8.38c10.43-15,17.9-31.46,23.42-48.83q560.43,0,1120.88-.14c5.69,0,7,1.28,7,7Q1655.8,298.62,1655.9,751.3Z" transform="translate(287 161.03)"/><path class="a" d="M-286.86,450.78c8.53,2.24,14.92,8.24,22.15,12.73,22.13,13.74,43.4,28.76,62.82,46.17,28.93,25.93,47.21,57.67,51.27,96.8,4.6,44.39,23.63,82,53,115,10,11.31,19.28,23.39,28.44,35.44,24.11,31.7,28.08,66,13.34,102.95-9.13,22.87-20.76,44.38-33.5,65.36-1.27,2.09-3.4,3.85-3.23,6.67-62.74,0-125.47-.08-188.21.15-5.2,0-6.22-1-6.21-6.22Q-286.74,688.31-286.86,450.78Z" transform="translate(287 161.03)"/><path class="a" d="M247.4-160.88c-7,9.42-16.63,16.12-25.23,23.82-36.45,32.61-69.62,68.3-101.29,105.5C104.33-12.12,87.22,7,65.22,20.64,38.35,37.33,9.69,43-20.14,30.41-59,14-72.36-18.9-69-59c2.33-27.39,15.42-50.42,29.23-73.22,5.76-9.5,12.28-18.55,17-28.68Z" transform="translate(287 161.03)"/><path class="b" d="M1573.94,931.92c15.21-34.21,47-55.44,82-54.64,0,16.69-.14,33.39.1,50.08,0,3.81-.86,4.69-4.66,4.66C1625.54,931.83,1599.74,931.92,1573.94,931.92Z" transform="translate(287 161.03)"/><path class="a" d="M528.19-160.88c-5.52,17.37-13,33.82-23.42,48.83a28.1,28.1,0,0,1-8.61,8.38c-4,2.34-8.35,3-11.87-.53-16.93-17-31.81-35.67-45.64-55.22-.23-.33,0-1,0-1.46Z" transform="translate(287 161.03)"/><path class="b" d="M1332,356.31c9.42.78,24.93,1.78,39,9.9,7.78,4.5,10.21,10.4,6.17,18.81-7.11,14.8-18.53,24.93-33.41,32.13-12.85,6.21-25.83,9.31-40,8.46-13.08-.78-29.49-12.7-33.52-24.88-4.23-12.73,2-27.93,14.25-34.85C1297.34,358.6,1311.23,355.75,1332,356.31Z" transform="translate(287 161.03)"/></svg>