<svg xmlns="http://www.w3.org/2000/svg" viewBox="0 0 1943.05 1093.11"><defs><style>.a{opacity:0;fill:#ffffff;}.b{fill:#ffffff;}</style></defs><title>1800f_00147</title><path class="a" d="M1655.9,112.32V519.08a16.16,16.16,0,0,0-2.8,2.37c-29.3,38.57-54.94,79.17-71.9,124.91-10.7,28.85-21,58-38.69,83.64-12.09,17.49-17.27,36.75-15.88,58,1.73,26.49,9.87,51.45,17.61,76.52a475.06,475.06,0,0,0,26.66,67.44H-200.35c15.23-15.2,32.34-27.28,53.17-33.85,36.39-11.47,73.09-22,108.61-36.1,17.25-6.84,35-11.76,53.69-11.86,24.52-.12,47.15,7.92,69.44,17.1,17.51,7.21,34.31,16.14,52.74,21.11,28.37,7.65,50.56-5.27,57.26-33.9,4.59-19.64,0-37.66-11.29-54-16.58-23.92-40.2-38.83-66.25-50.17C93.54,740,69.08,734.44,43.18,737.61c-19.51,2.39-37.68,9.51-56,15.88s-37.08,9.48-56.59,8.39c-43-2.42-65.75-22.39-73.26-64.73-4.06-22.92-6.41-46.06-8.49-69.2-2.71-30.17-6.69-60.32-3.7-90.77,1.46-14.88-2.83-28.6-10.38-41.24-6.22-10.41-13.09-20.44-19.55-30.71-21-33.33-44.82-64.28-74.71-90.26a88.32,88.32,0,0,1-15.63-17.5c-7.75-11.59-5.67-20.93,6.46-27.82,7.52-4.26,15.74-6.9,24-9.2C-163.28,298-80.62,281,2.13,264.44a268.07,268.07,0,0,1,76.2-4c33.46,2.92,65.68,11.37,97.61,21.11,20.3,6.19,40.49,10.2,61.85,5.92,43.32-8.67,83.51-25.49,122.39-45.89,21.26-11.17,40.78-25.35,62.54-35.73,23.29-11.12,45.12-10,66.69,4.47C506.84,222,523.55,234.7,540.58,247c30.75,22.14,60.76,45.15,96.08,60.37,54.71,23.58,110.51,36.83,170.45,27,30.47-5,60.76-4.45,90.41,6.64,12.26,4.59,25.49,3.58,38.15,0C952.43,336.1,969,330.62,985.82,326c24.2-6.6,48.67-11.69,74-9.74,18.64,1.43,37.3,2.69,55.93,4.33,9.8.87,19.68.75,29.43,2.58,11,2.07,17.5,8.21,19.63,19.24a73.93,73.93,0,0,1,.85,20.4c-1.9,22.67-4.59,45.27-8.74,67.62-4.92,26.53-6,52.64,3.16,78.57,7.47,21.22,13.73,42.83,20.13,64.4a169.17,169.17,0,0,0,25.38,51.48c25.45,35.1,59.09,59,99.76,73.58,25.38,9.12,50.81,17.07,78.29,15,21.2-1.6,35.12-13.74,36.89-33.24a133.36,133.36,0,0,0-.8-32.55,549.26,549.26,0,0,1-7-89.85c.27-25,1.17-50,3.18-75,3.55-43.87,12.49-86.43,28.82-127.42,15.47-38.84,35.06-75.7,53.22-113.25,7.89-16.32,16.55-32.45,20-50.59,3.1-16.28-1.28-24.19-17.09-29.42-20.9-6.91-42.72-8.08-64.39-8.15-38.68-.12-74.81,10.51-108.81,28.86-27.12,14.64-50.71,34.1-74.49,53.37-12,9.7-23.65,20-38.19,25.82-10.67,4.3-17.24-.27-17.72-11.71-.53-12.54,3.61-23.93,8.66-35,11.55-25.27,29.52-45.73,49.29-64.8,17.35-16.74,33-34.88,45.46-55.63,17.86-29.72,17-52.3-3.72-79.92-9.71-12.91-20.25-25.21-30.18-38a89.59,89.59,0,0,0-38.95-29.22A194.09,194.09,0,0,0,1125.84-63c-34.06,5.47-64.43,20.5-94.09,37-30,16.73-60,33.18-91.5,47.36C896.85,41,853,48.7,806,39.94c-21.32-4-43.09-6.32-64.91-4.48C689,39.87,637.2,47.54,584.83,49.22c-32,1-63.08-2.28-93.23-12.71-31.58-10.93-59.87-28-86.53-48C383.38-27.69,367.41-23.94,355.81.19c-6.88,14.31-10.12,29.78-11,45.37-1.87,32.63-18.2,54.66-46.74,69a183.79,183.79,0,0,1-44.89,15.92c-22.71,4.76-45.57,8.83-68.38,13.15-30.21,5.72-58.46,17.71-87.53,27.09-18.6,6-37.58,7.32-56.8,3-31.54-7.15-60-21.21-86.29-39.58-16.62-11.62-34.77-16.79-54.71-17.44-31.53-1-62.52,3.43-93.46,8.57-23.37,3.88-46.36,11.08-70.49,8.46-7.48-.81-14.91-2.09-22.36-3.16q0-142.66-.15-285.34c0-5.2,1-6.22,6.22-6.22q330.87.25,661.75.15c1.86,13.26,12.34,23.28,25.27,23.28,18.76,0,32.44-10.26,44.55-23.28H1340.2c-.85,14.47,6.62,23.16,19.52,28.06a115.74,115.74,0,0,0,11.38,4.15c13.85,3.68,25.16,11.47,35.37,21.18,10.63,10.1,21.36,20.08,31.94,30.22,26.72,25.63,56.71,46.12,91.18,60.15,19.85,8.07,40,15.87,58,27.76,15.45,10.17,24.58,24.11,26.33,42.93,1.12,11.94-1.2,23.67-.74,35.55.6,15.09,7,22.24,22.23,23.14C1642.23,112.66,1649.07,112.32,1655.9,112.32ZM774.2,694.22c0,3.53-.27,7.1,0,10.61,1.48,16.68,3.69,33.21,13.56,47.5,8.07,11.68,19.28,15.17,32.41,9.75a76.83,76.83,0,0,0,13.25-7.26c12-8.06,22.34-18.13,32.65-28.2,23.71-23.14,48.37-45.18,75.16-64.77,12.84-9.4,27-18,35.53-31.56,20.62-32.74,22.8-68.36,8.55-103.67-11.51-28.54-34.65-48.12-60.08-64.42-11.82-7.57-19.76-5.82-28.38,6.85-20,29.39-44.37,55-67.35,81.89C794.34,592.14,775,639.67,774.2,694.22Z" transform="translate(287.01 161.03)"/><path class="b" d="M-286.86,130.53c7.45,1.07,14.88,2.35,22.36,3.16,24.13,2.62,47.12-4.58,70.49-8.46,30.94-5.14,61.93-9.59,93.46-8.57,19.94.65,38.09,5.82,54.71,17.44,26.29,18.37,54.75,32.43,86.29,39.58,19.22,4.36,38.2,3,56.8-3,29.07-9.38,57.32-21.37,87.53-27.09,22.81-4.32,45.67-8.39,68.38-13.15a183.79,183.79,0,0,0,44.89-15.92c28.54-14.34,44.87-36.37,46.74-69,.9-15.59,4.14-31.06,11-45.37,11.6-24.13,27.57-27.88,49.26-11.65,26.66,19.94,54.95,37,86.53,48,30.15,10.43,61.22,13.74,93.23,12.71C637.2,47.54,689,39.87,741.05,35.46c21.82-1.84,43.59.52,64.91,4.48,47,8.76,90.89,1,134.29-18.52,31.46-14.18,61.48-30.63,91.5-47.36,29.66-16.52,60-31.55,94.09-37A194.09,194.09,0,0,1,1227.9-52.14a89.59,89.59,0,0,1,38.95,29.22c9.93,12.75,20.47,25.05,30.18,38,20.76,27.62,21.58,50.2,3.72,79.92-12.47,20.75-28.11,38.89-45.46,55.63-19.77,19.07-37.74,39.53-49.29,64.8-5,11.07-9.19,22.46-8.66,35,.48,11.44,7.05,16,17.72,11.71,14.54-5.86,26.23-16.12,38.19-25.82,23.78-19.27,47.37-38.73,74.49-53.37,34-18.35,70.13-29,108.81-28.86,21.67.07,43.49,1.24,64.39,8.15,15.81,5.23,20.19,13.14,17.09,29.42-3.44,18.14-12.1,34.27-20,50.59-18.16,37.55-37.75,74.41-53.22,113.25-16.33,41-25.27,83.55-28.82,127.42-2,25-2.91,50-3.18,75a549.26,549.26,0,0,0,7,89.85,133.36,133.36,0,0,1,.8,32.55c-1.77,19.5-15.69,31.64-36.89,33.24-27.48,2.06-52.91-5.89-78.29-15-40.67-14.62-74.31-38.48-99.76-73.58a169.17,169.17,0,0,1-25.38-51.48c-6.4-21.57-12.66-43.18-20.13-64.4-9.12-25.93-8.08-52-3.16-78.57,4.15-22.35,6.84-45,8.74-67.62a73.93,73.93,0,0,0-.85-20.4c-2.13-11-8.65-17.17-19.63-19.24-9.75-1.83-19.63-1.71-29.43-2.58-18.63-1.64-37.29-2.9-55.93-4.33-25.37-1.95-49.84,3.14-74,9.74-16.82,4.58-33.39,10.06-50.15,14.87-12.66,3.63-25.89,4.64-38.15,0-29.65-11.09-59.94-11.64-90.41-6.64-59.94,9.84-115.74-3.41-170.45-27-35.32-15.22-65.33-38.23-96.08-60.37-17-12.26-33.74-25-51.17-36.67-21.57-14.48-43.4-15.59-66.69-4.47-21.76,10.38-41.28,24.56-62.54,35.73-38.88,20.4-79.07,37.22-122.39,45.89-21.36,4.28-41.55.27-61.85-5.92-31.93-9.74-64.15-18.19-97.61-21.11a268.07,268.07,0,0,0-76.2,4C-80.62,281-163.28,298-244.69,320.45c-8.29,2.3-16.51,4.94-24,9.2-12.13,6.89-14.21,16.23-6.46,27.82A88.32,88.32,0,0,0-259.55,375c29.89,26,53.72,56.93,74.71,90.26,6.46,10.27,13.33,20.3,19.55,30.71,7.55,12.64,11.84,26.36,10.38,41.24-3,30.45,1,60.6,3.7,90.77,2.08,23.14,4.43,46.28,8.49,69.2,7.51,42.34,30.26,62.31,73.26,64.73,19.51,1.09,38.22-2,56.59-8.39S23.67,740,43.18,737.61c25.9-3.17,50.36,2.43,73.84,12.64,26.05,11.34,49.67,26.25,66.25,50.17,11.32,16.34,15.88,34.36,11.29,54-6.7,28.63-28.89,41.55-57.26,33.9-18.43-5-35.23-13.9-52.74-21.11C62.27,858,39.64,850,15.12,850.11c-18.68.1-36.44,5-53.69,11.86-35.52,14.09-72.22,24.63-108.61,36.1-20.83,6.57-37.94,18.65-53.17,33.85h-86.51Z" transform="translate(287.01 161.03)"/><path class="b" d="M1655.9,112.32c-6.83,0-13.67.34-20.47-.06-15.22-.9-21.63-8.05-22.23-23.14-.46-11.88,1.86-23.61.74-35.55-1.75-18.82-10.88-32.76-26.33-42.93-18.06-11.89-38.17-19.69-58-27.76-34.47-14-64.46-34.52-91.18-60.15-10.58-10.14-21.31-20.12-31.94-30.22-10.21-9.71-21.52-17.5-35.37-21.18a115.74,115.74,0,0,1-11.38-4.15c-12.9-4.9-20.37-13.59-19.52-28.06q154.82,0,309.62-.15c5.2,0,6.23,1,6.22,6.22Q1655.74-21.25,1655.9,112.32Z" transform="translate(287.01 161.03)"/><path class="b" d="M1570.9,931.92a475.06,475.06,0,0,1-26.66-67.44c-7.74-25.07-15.88-50-17.61-76.52-1.39-21.21,3.79-40.47,15.88-58,17.72-25.63,28-54.79,38.69-83.64,17-45.74,42.6-86.34,71.9-124.91a16.16,16.16,0,0,1,2.8-2.37q0,203.38.14,406.77c0,5.19-1,6.29-6.22,6.22C1623.52,931.73,1597.21,931.92,1570.9,931.92Z" transform="translate(287.01 161.03)"/><path class="b" d="M450.78-160.88c-12.11,13-25.79,23.27-44.55,23.28-12.93,0-23.41-10-25.27-23.28Z" transform="translate(287.01 161.03)"/><path class="b" d="M774.2,694.22c.82-54.55,20.14-102.08,55.35-143.28,23-26.87,47.37-52.5,67.35-81.89,8.62-12.67,16.56-14.42,28.38-6.85,25.43,16.3,48.57,35.88,60.08,64.42,14.25,35.31,12.07,70.93-8.55,103.67-8.53,13.53-22.69,22.16-35.53,31.56-26.79,19.59-51.45,41.63-75.16,64.77-10.31,10.07-20.64,20.14-32.65,28.2a76.83,76.83,0,0,1-13.25,7.26c-13.13,5.42-24.34,1.93-32.41-9.75-9.87-14.29-12.08-30.82-13.56-47.5C773.93,701.32,774.2,697.75,774.2,694.22Z" transform="translate(287.01 161.03)"/></svg>