<svg xmlns="http://www.w3.org/2000/svg" viewBox="0 0 1943.07 1093.11"><defs><style>.a{opacity:0;fill:#ffffff;}.b{fill:#ffffff;}</style></defs><title>1800f_00255</title><path class="a" d="M1655.9,338.47V537.3a302.8,302.8,0,0,0-47.07,62.07c-12,21.13-20.54,44-32,65.39-7.92,14.81-17,28.72-30.66,39.07-22.18,16.77-46.64,12-60.5-12.06-3-5.27-5.88-10.74-7.14-16.69-5.35-25.14-19.21-45.36-36.18-63.89-19.9-21.72-37.52-44.8-49.41-72.24-8-18.55-19.24-35.57-34.45-49.48-13.34-12.2-29.1-14.35-43.72-5.31a39.74,39.74,0,0,0-17.16,22.4c-4.14,13-7.37,26.34-12.46,38.95-13.64,33.85-31.12,65.9-49.87,97.07-36.72,61-70.64,123.24-91.36,191.9-5.26,17.41-13,34.07-24.41,48.59-14.87,19-29.71,20.83-48.9,6.36-5.24-4-10.36-8.1-15.37-12.36-9.68-8.21-19.77-15.87-31.62-20.67-45.74-18.55-92.74-24.18-141.08-12.33-31.68,7.77-57.11,24.24-71.46,54.79-4.91,10.46-7.67,21.38-5.16,33.06H267.13c-16.69-17.54-33.31-35.15-50.07-52.61-16-16.68-33.37-31.9-53.83-42.81-39.52-21.09-80-40.1-123.18-52.68-28.77-8.37-58-11-87.74-5.77-46.94,8.29-92.33,22.1-137.06,38.32A268.09,268.09,0,0,1-211.41,825c-15,3.71-20.2-1.75-16.47-16.62s11.08-28.2,18.68-41.32c11.39-19.69,23.57-38.93,34.68-58.77,11.36-20.29,10.46-40.68-2.22-60.3-4.94-7.64-10.07-15.15-15.3-22.58-9.45-13.43-21.65-24.75-30.08-39-15.74-26.54-24.07-55.57-28.21-85.85-3.6-26.36-5.48-52.84,1.47-79,5-18.62,16.15-31.63,35-37.59a157.64,157.64,0,0,1,27.3-6c37.36-4.82,66.77-21.85,86.17-54.86,37.25-63.39,51.51-131.12,39-204C-65.85,93.19-76,69.23-85.22,44.89c-12.55-33-6.71-50.68,21.84-71.36,1-.74,2.05-1.47,3.11-2.16,46.94-30.44,96-57.14,146.06-82,29.46-14.62,61.06-24.28,90.88-38.1,7.24-3.36,14.91-6.16,20.64-12.16h1023c3,1.88,5.89,3.9,9,5.62,42,23.51,87.47,36.87,134.4,45.55,38.31,7.09,71.27,23.13,97,53A247.78,247.78,0,0,0,1493-25.9c35.88,29.06,74.52,52,121.81,56.85,17.38,1.79,28.2-4.41,31.81-21.26,4.53-21.11,1.05-41.89-4.93-62.1-14.28-48.24-46.13-77.78-95.85-87.29-17-3.26-34.3-1.09-51.46-1.26-18.9-.19-37.85,2.18-56.68,0-15-1.76-28.85-6.89-38.29-19.9q125.07,0,250.15-.17c5.7,0,6.49,1.46,6.48,6.7q-.24,200.12-.12,400.23C1645.23,276.74,1644.82,307.61,1655.9,338.47ZM974.64,585.72a130.28,130.28,0,0,0,17.9,65.87c22.51,38.55,67.87,56.25,114.42,44.49,34-8.61,59.87-27.27,72.19-61.71,9-25.23,20.43-49.48,31.08-74,6.41-14.78,13.94-29.17,17.23-45.14,1.63-8-2.18-12.69-10.42-12-7.21.64-14.51,1.3-21.33,4.41-19.29,8.8-38.5,17.81-58.06,26-20.94,8.76-42.22,11.21-63.93,1.56A180.51,180.51,0,0,0,1046,525.09c-29.66-7.74-64.65,5.69-69.89,42.53C975.26,573.6,975.11,579.69,974.64,585.72Z" transform="translate(287.03 161.05)"/><path class="b" d="M197.31-160.88c-5.73,6-13.4,8.8-20.64,12.16-29.82,13.82-61.42,23.48-90.88,38.1-50.06,24.85-99.12,51.55-146.06,82-1.06.69-2.09,1.42-3.11,2.16C-91.93-5.79-97.77,11.87-85.22,44.89c9.25,24.34,19.37,48.3,23.81,74.18,12.51,72.91-1.75,140.64-39,204-19.4,33-48.81,50-86.17,54.86a157.64,157.64,0,0,0-27.3,6c-18.83,6-30,19-35,37.59-6.95,26.18-5.07,52.66-1.47,79,4.14,30.28,12.47,59.31,28.21,85.85,8.43,14.22,20.63,25.54,30.08,39,5.23,7.43,10.36,14.94,15.3,22.58,12.68,19.62,13.58,40,2.22,60.3-11.11,19.84-23.29,39.08-34.68,58.77-7.6,13.12-15,26.44-18.68,41.32s1.5,20.33,16.47,16.62a268.09,268.09,0,0,0,26.66-8.65c44.73-16.22,90.12-30,137.06-38.32,29.72-5.25,59-2.6,87.74,5.77,43.17,12.58,83.66,31.59,123.18,52.68,20.46,10.91,37.81,26.13,53.83,42.81,16.76,17.46,33.38,35.07,50.07,52.61q-273.48,0-547,.12c-5.32,0-7.19-.63-7.19-6.75q.28-539.76,0-1079.52c0-6.07,1.8-6.78,7.17-6.78Q-41.27-160.77,197.31-160.88Z" transform="translate(287.03 161.05)"/><path class="b" d="M805.94,931.92c-2.51-11.68.25-22.6,5.16-33.06,14.35-30.55,39.78-47,71.46-54.79,48.34-11.85,95.34-6.22,141.08,12.33,11.85,4.8,21.94,12.46,31.62,20.67,5,4.26,10.13,8.4,15.37,12.36,19.19,14.47,34,12.6,48.9-6.36,11.38-14.52,19.15-31.18,24.41-48.59,20.72-68.66,54.64-130.85,91.36-191.9,18.75-31.17,36.23-63.22,49.87-97.07,5.09-12.61,8.32-26,12.46-38.95a39.74,39.74,0,0,1,17.16-22.4c14.62-9,30.38-6.89,43.72,5.31,15.21,13.91,26.42,30.93,34.45,49.48,11.89,27.44,29.51,50.52,49.41,72.24,17,18.53,30.83,38.75,36.18,63.89,1.26,5.95,4.09,11.42,7.14,16.69,13.86,24,38.32,28.83,60.5,12.06,13.69-10.35,22.74-24.26,30.66-39.07,11.44-21.41,19.94-44.26,32-65.39a302.8,302.8,0,0,1,47.07-62.07q0,194.27.14,388.55c0,5.19-1,6.21-6.22,6.21Q1227.89,931.82,805.94,931.92Z" transform="translate(287.03 161.05)"/><path class="b" d="M1399.39-160.88c9.44,13,23.24,18.14,38.29,19.9,18.83,2.2,37.78-.17,56.68,0,17.16.17,34.42-2,51.46,1.26,49.72,9.51,81.57,39,95.85,87.29,6,20.21,9.46,41,4.93,62.1C1643,26.54,1632.17,32.74,1614.79,31,1567.5,26.08,1528.86,3.16,1493-25.9a247.78,247.78,0,0,1-32.33-30.79c-25.72-29.89-58.68-45.93-97-53-46.93-8.68-92.43-22-134.4-45.55-3.08-1.72-6-3.74-9-5.62Z" transform="translate(287.03 161.05)"/><path class="b" d="M1655.9,338.47c-11.08-30.86-10.67-61.73,0-92.59Z" transform="translate(287.03 161.05)"/><path class="b" d="M974.64,585.72c.47-6,.62-12.12,1.47-18.1,5.24-36.84,40.23-50.27,69.89-42.53a180.51,180.51,0,0,1,27.72,10.09c21.71,9.65,43,7.2,63.93-1.56,19.56-8.18,38.77-17.19,58.06-26,6.82-3.11,14.12-3.77,21.33-4.41,8.24-.73,12,4,10.42,12-3.29,16-10.82,30.36-17.23,45.14-10.65,24.57-22.06,48.82-31.08,74-12.32,34.44-38.14,53.1-72.19,61.71-46.55,11.76-91.91-5.94-114.42-44.49A130.28,130.28,0,0,1,974.64,585.72Z" transform="translate(287.03 161.05)"/></svg>