<svg xmlns="http://www.w3.org/2000/svg" viewBox="0 0 1943.05 1093.13"><defs><style>.a{opacity:0;fill:#ffffff;}.b{fill:#ffffff;}</style></defs><title>1800f_00234</title><path class="a" d="M435.6,931.92H34.91c3.19-14.65,9-28.32,15.47-41.77,10.93-22.8,29.6-36.09,53.29-42.7,28.73-8,56-2.2,82.56,9.68,26,11.64,51.89,24,81,26.27,19.65,1.52,38.27-1.78,55.39-11.77,6.57-3.84,7.38-9.49,3-16-4.71-6.87-11.68-11.13-18.48-15.41-20.78-13.07-43.06-23.41-64.85-34.63-30.76-15.85-58.08-35.67-77.46-65.13-11.41-17.34-21.81-35.28-31.5-53.59C109.68,642.23,74.92,609.5,29.82,587c-58.68-29.33-120.6-47.72-185.33-57.31-17.23-2.56-34.63-4.76-50.68-12.17-15.11-7-18.37-16.49-11.1-31.26a54.87,54.87,0,0,1,3.31-6c5.69-8.66,11.22-17.44,17.25-25.85,11.08-15.42,11.45-30.56.43-46.25-21.09-30-40.5-61-54.79-95.07-21-49.86-29.62-101.5-25.65-155.54,2.92-39.81,6.67-79.6,7.58-119.53.77-34.21-3.25-68.09-7.84-101.93-2.08-15.37-2.1-30.39,5.45-45.07,8.52-16.6,16-33.82,21.12-51.89H368.82C377-136,389-112.93,400.9-89.78c27.73,53.7,53.73,108.22,76.51,164.22,9.35,23,15.45,47,21.88,71,9.1,33.85,30.22,49.88,65.36,50.83,24.57.66,45.41-8.45,64.3-23,20-15.43,36-34.66,51.07-54.72C697.76,94.92,717.46,73.23,743,57.75c21.69-13.16,39.19-9.07,51.91,12.84,25,43.12,32,90,26.87,139-2.3,22,.23,43,12.06,62.05,15.61,25.1,31.75,49.88,47.79,74.72,15.44,23.91,37.16,39.48,64.11,48.25,32.39,10.54,65.06,10.08,98.12,3.89,21.32-4,42.31-10.23,64.28-10.11,6.27,0,13.57-.78,16.91,5.87,3.54,7-1.73,12.54-5.94,17.51-13.65,16.12-31,27.57-49.6,36.88a1523.16,1523.16,0,0,0-167.71,97.55c-12,8.06-23.75,16.35-33.74,26.89-13.59,14.35-18.66,30.75-12.6,50.16,3.86,12.38,9.41,24,15.06,35.56,11.52,23.66,22.44,47.55,29.52,73,9.12,32.79,10.08,66.35,9.23,100-.83,33.34-2.06,66.68-3.12,100h-381c1.41-2.53.16-4.88-.44-7.3C513.79,881,490.09,845.33,456.3,816.28c-21.8-18.73-40.47-20.9-61.48-7.91-10.34,6.4-18.87,15.11-26.59,24.51-4,4.88-8,9.87-10.12,15.88-3.33,9.3,1.34,18,12.77,27.39C392.88,894.23,415.58,911.52,435.6,931.92ZM36.31,487.7a381.49,381.49,0,0,0,40.14-2c34.16-3.52,67.44-10.22,98.22-26.45a146.9,146.9,0,0,1,39.94-14c23.24-4.62,45.35-2.92,64.65,12.62,5.2,4.2,11.13,6.95,17.18,9.52,13.64,5.79,28,8.64,42.66,10,46.91,4.29,90.9-3.15,128.31-34.24,22.12-18.38,34-41.45,30.78-71.12-2.08-19.07-3.39-38.22-5.14-57.32-2.28-24.91-.94-50-4.22-74.87-2.51-19.1-8.47-36.21-23.15-49.65-17.36-15.89-36.06-30.14-54.35-44.88-23.8-19.19-47.2-39-73.9-54.24a159,159,0,0,0-19-9.35c-26.53-10.79-42.61-6.17-60.19,16.69-7.71,10-15.75,19.8-26.69,26.59-32.5,20.19-58.5,47.09-80.84,77.86C104.8,266.05,48.3,316.31-24.19,347.62a370.94,370.94,0,0,0-73,41.63c-10.41,7.66-20.55,15.67-28,26.41-7.25,10.45-6.5,18.66,2,28.07,7.33,8.11,16.92,12.83,26.71,16.91C-54,478.32-9.91,488.26,36.31,487.7Z" transform="translate(287 161.07)"/><path class="b" d="M906.11,931.92c1.06-33.35,2.29-66.69,3.12-100,.85-33.69-.11-67.25-9.23-100-7.08-25.46-18-49.35-29.52-73-5.65-11.58-11.2-23.18-15.06-35.56-6.06-19.41-1-35.81,12.6-50.16,10-10.54,21.77-18.83,33.74-26.89a1523.16,1523.16,0,0,1,167.71-97.55c18.55-9.31,36-20.76,49.6-36.88,4.21-5,9.48-10.46,5.94-17.51-3.34-6.65-10.64-5.83-16.91-5.87-22-.12-43,6.12-64.28,10.11-33.06,6.19-65.73,6.65-98.12-3.89-27-8.77-48.67-24.34-64.11-48.25-16-24.84-32.18-49.62-47.79-74.72-11.83-19-14.36-40-12.06-62.05,5.13-49-1.84-95.91-26.87-139-12.72-21.91-30.22-26-51.91-12.84-25.5,15.48-45.2,37.17-62.94,60.72-15.11,20.06-31.08,39.29-51.07,54.72-18.89,14.59-39.73,23.7-64.3,23-35.14-.95-56.26-17-65.36-50.83-6.43-23.93-12.53-48-21.88-71-22.78-56-48.78-110.52-76.51-164.22C389-112.93,377-136,368.82-160.88H482.65a19.49,19.49,0,0,0,3.59,2.64c34.61,14.82,68.78,11.43,102.66-2.64H792.28c8.66,10.54,17.65,20.82,25.9,31.68,12.76,16.8,29.3,27.51,49.56,32.84,8.55,2.25,17,4.9,25.59,7,26.66,6.45,49,19.47,66.09,41.42,13.27,17,24.05,35.54,34.81,54.13,12.52,21.64,23.64,44.39,41,62.67,43.07,45.36,99.11,57.76,158.38,57.54,46.9-.17,92.63-11,137.93-23,18.57-4.9,37.43-8.31,56.89-6.9,29.4,2.13,56.57,12.59,84,21.94,17.45,6,34.62,12.81,52.92,15.84,12.52,2.07,24.28,1.15,32.81-10.06a52,52,0,0,0,7.89-16.29c8.41-26.9,9.71-54.51,8.22-82.43-3.32-62.12-20.77-119.66-54.83-172-3-4.55-7.06-8.61-7.77-14.42,46,0,91.93.15,137.9-.19,5.89,0,6.41,1.74,6.4,6.78q-.23,165.18-.11,330.35c-17.56-1.59-35.15-2.91-52.67-4.85-16.82-1.86-35.11,7.94-42.08,23.23-3.41,7.48-1.89,11.45,5.74,14.15a50,50,0,0,0,16.26,3.15q36.38.33,72.75.75V781.66c-8.26,16-17.35,31.29-31.46,43.17-23.75,20-50.37,22.71-77.15,7.11a133.18,133.18,0,0,1-13.23-8.86c-22.8-17.26-41.6-38.35-58.18-61.49-22.07-30.8-37.11-65.48-54-99.1A320.18,320.18,0,0,1,1402.19,614c-19.65-62.89-16.86-126.88-7.85-190.8,6.05-42.93,22.35-82.81,42.24-121.2,4-7.62,7.91-15.27,10-23.71,2.54-10.46-.3-15.72-10.75-17.4-11.19-1.81-22.55-2.6-33.84-3.73-22.71-2.25-45.44-3.43-67.8,2.53-23.65,6.3-44,18-57.88,38.78-8.86,13.21-7.57,24.78,3.32,36.45,3.62,3.88,7.53,7.5,11.17,11.36,18.48,19.57,20.44,32.52,8.93,56.94-8,17-18.84,32.3-29.92,47.39-19.44,26.49-40.51,51.81-57.24,80.23-19.87,33.74-29.73,69.11-17.65,108,6.1,19.65,16.15,37.6,24.74,56.17,17.76,38.36,10.62,68.55-22.39,94.56-10.54,8.31-21.48,16-32.45,23.71-17.79,12.49-35.34,25.22-51.07,40.43-22.28,21.57-32.59,48.83-39.13,78.13Z" transform="translate(287 161.07)"/><path class="a" d="M1511.71-160.88c.71,5.81,4.81,9.87,7.77,14.42,34.06,52.32,51.51,109.86,54.83,172,1.49,27.92.19,55.53-8.22,82.43a52,52,0,0,1-7.89,16.29c-8.53,11.21-20.29,12.13-32.81,10.06-18.3-3-35.47-9.89-52.92-15.84-27.48-9.35-54.65-19.81-84-21.94-19.46-1.41-38.32,2-56.89,6.9-45.3,11.93-91,22.79-137.93,23-59.27.22-115.31-12.18-158.38-57.54-17.35-18.28-28.47-41-41-62.67C983.47-12.42,972.69-30.93,959.42-48c-17.11-21.95-39.43-35-66.09-41.42-8.59-2.08-17-4.73-25.59-7-20.26-5.33-36.8-16-49.56-32.84-8.25-10.86-17.24-21.14-25.9-31.68Z" transform="translate(287 161.07)"/><path class="b" d="M-250.43-160.88c-5.14,18.07-12.6,35.29-21.12,51.89-7.55,14.68-7.53,29.7-5.45,45.07,4.59,33.84,8.61,67.72,7.84,101.93-.91,39.93-4.66,79.72-7.58,119.53-4,54,4.7,105.68,25.65,155.54,14.29,34,33.7,65,54.79,95.07,11,15.69,10.65,30.83-.43,46.25-6,8.41-11.56,17.19-17.25,25.85a54.87,54.87,0,0,0-3.31,6c-7.27,14.77-4,24.28,11.1,31.26,16.05,7.41,33.45,9.61,50.68,12.17,64.73,9.59,126.65,28,185.33,57.31,45.1,22.55,79.86,55.28,103.49,100,9.69,18.31,20.09,36.25,31.5,53.59,19.38,29.46,46.7,49.28,77.46,65.13,21.79,11.22,44.07,21.56,64.85,34.63,6.8,4.28,13.77,8.54,18.48,15.41,4.42,6.46,3.61,12.11-3,16-17.12,10-35.74,13.29-55.39,11.77-29.13-2.24-55-14.63-81-26.27-26.61-11.88-53.83-17.7-82.56-9.68-23.69,6.61-42.36,19.9-53.29,42.7-6.44,13.45-12.28,27.12-15.47,41.77h-179.1c.69-3.32-.14-6.52-.87-9.71-8.51-37.05-22.8-72-37.55-106.93-19.83-46.95-61.71-64.71-104.25-82.19q0-443.57-.14-887.14c0-5.69,1.24-7.3,7-7C-270.19-160.49-260.3-160.88-250.43-160.88Z" transform="translate(287 161.07)"/><path class="a" d="M1074.59,931.92c6.54-29.3,16.85-56.56,39.13-78.13,15.73-15.21,33.28-27.94,51.07-40.43,11-7.7,21.91-15.4,32.45-23.71,33-26,40.15-56.2,22.39-94.56-8.59-18.57-18.64-36.52-24.74-56.17-12.08-38.93-2.22-74.3,17.65-108,16.73-28.42,37.8-53.74,57.24-80.23,11.08-15.09,21.89-30.35,29.92-47.39,11.51-24.42,9.55-37.37-8.93-56.94-3.64-3.86-7.55-7.48-11.17-11.36-10.89-11.67-12.18-23.24-3.32-36.45,13.93-20.77,34.23-32.48,57.88-38.78,22.36-6,45.09-4.78,67.8-2.53,11.29,1.13,22.65,1.92,33.84,3.73,10.45,1.68,13.29,6.94,10.75,17.4-2.06,8.44-6,16.09-10,23.71-19.89,38.39-36.19,78.27-42.24,121.2-9,63.92-11.8,127.91,7.85,190.8a320.18,320.18,0,0,0,19.65,48.45c16.93,33.62,32,68.3,54,99.1,16.58,23.14,35.38,44.23,58.18,61.49a133.18,133.18,0,0,0,13.23,8.86c26.78,15.6,53.4,12.88,77.15-7.11,14.11-11.88,23.2-27.16,31.46-43.17,0,48.06-.11,96.12.15,144.19,0,5.2-1,6.22-6.23,6.21Q1362.21,931.81,1074.59,931.92Z" transform="translate(287 161.07)"/><path class="a" d="M-286.86,733.09c42.54,17.48,84.42,35.24,104.25,82.19,14.75,34.93,29,69.88,37.55,106.93.73,3.19,1.56,6.39.87,9.71-45.68,0-91.37-.1-137,.13-4.89,0-5.74-1.29-5.73-5.87Q-286.73,829.63-286.86,733.09Z" transform="translate(287 161.07)"/><path class="b" d="M435.6,931.92c-20-20.4-42.72-37.69-64.72-55.77-11.43-9.39-16.1-18.09-12.77-27.39,2.15-6,6.12-11,10.12-15.88,7.72-9.4,16.25-18.11,26.59-24.51,21-13,39.68-10.82,61.48,7.91,33.79,29.05,57.49,64.72,68.41,108.34.6,2.42,1.85,4.77.44,7.3Z" transform="translate(287 161.07)"/><path class="a" d="M1655.9,212.49q-36.37-.39-72.75-.75a50,50,0,0,1-16.26-3.15c-7.63-2.7-9.15-6.67-5.74-14.15,7-15.29,25.26-25.09,42.08-23.23,17.52,1.94,35.11,3.26,52.67,4.85Z" transform="translate(287 161.07)"/><path class="a" d="M588.9-160.88c-33.88,14.07-68,17.46-102.66,2.64a19.49,19.49,0,0,1-3.59-2.64Z" transform="translate(287 161.07)"/><path class="b" d="M36.31,487.7c-46.22.56-90.32-9.38-132.8-27.06-9.79-4.08-19.38-8.8-26.71-16.91-8.52-9.41-9.27-17.62-2-28.07,7.45-10.74,17.59-18.75,28-26.41a370.94,370.94,0,0,1,73-41.63c72.49-31.31,129-81.57,174.87-144.78C173,172.07,199,145.17,231.52,125c10.94-6.79,19-16.57,26.69-26.59,17.58-22.86,33.66-27.48,60.19-16.69a159,159,0,0,1,19,9.35c26.7,15.24,50.1,35.05,73.9,54.24,18.29,14.74,37,29,54.35,44.88,14.68,13.44,20.64,30.55,23.15,49.65,3.28,24.87,1.94,50,4.22,74.87,1.75,19.1,3.06,38.25,5.14,57.32,3.24,29.67-8.66,52.74-30.78,71.12C430,474.22,386,481.66,339.1,477.37c-14.62-1.33-29-4.18-42.66-10-6.05-2.57-12-5.32-17.18-9.52-19.3-15.54-41.41-17.24-64.65-12.62a146.9,146.9,0,0,0-39.94,14c-30.78,16.23-64.06,22.93-98.22,26.45A381.49,381.49,0,0,1,36.31,487.7Z" transform="translate(287 161.07)"/></svg>