<svg xmlns="http://www.w3.org/2000/svg" viewBox="0 0 1366.28 768.27"><defs><style>.a{opacity:0;fill:#ffffff;}.b{fill:#ffffff;}</style></defs><title>1800f_00075</title><path class="a" d="M1367.52,505.42v74.37c-38.28,15.3-74.58,34.45-109.38,56.46-10.1,6.39-12.88,15.85-10.49,27.59,6.8,33.42,12,67,9.75,101.34-.09,1.42.54,2.89.84,4.34H119.9c1.81-3.34,5.4-4.39,8.27-6.32a269.18,269.18,0,0,1,98.1-40.69c40.48-8.08,73.44-28.65,100.75-59.23,18.19-20.37,30.4-43.22,33.16-70.79,2.09-20.92,2.3-41.87,2.19-62.84-.13-25.28-.3-50.58,3.61-75.65a242.84,242.84,0,0,0,2.94-51.37c-.54-9.42-2.44-18.55-7.26-26.82-5.82-10-14.87-13.46-25.8-10.06-7.41,2.31-13.54,6.71-19.25,11.78-11.3,10-19.64,22.34-27.32,35.21-8,13.45-15.67,27.16-26,39.12-11.43,13.32-24.21,16.81-39.18,9.57-29-14-65.36-53.48-53.48-103.79,4-17,10-33.39,15.46-49.93,11.81-35.78,10.77-70.24-11-102.27C154.42,174.9,129.87,147.88,100,125.9c-7.72-5.67-15.79-11.07-21.59-18.92-6-8.08-3.88-14.85,5.63-18.23,7.3-2.6,14.82-2.47,22.46-1.52,13,1.61,24.4,8.08,36.57,12.18,30.07,10.16,60.21,14.11,89.91-.66,35.66-17.73,69.18-38.9,98.91-65.57,10.47-9.39,20.83-19.11,27.82-31.66H951.65C967.52,26.16,982.09,51.7,1000,75c45.34,58.87,91.84,116.84,136.85,176,26.08,34.27,47.07,70.41,54.83,113.47A198.77,198.77,0,0,0,1211,421.67c8.65,16.5,20.91,28.91,38.6,35.69,8.73,3.35,17.15,7.48,25.77,11.09C1305.94,481.21,1336.3,494.39,1367.52,505.42ZM714.65,725.85c33.21-1.66,65.56-8.16,97.32-17.84,7.29-2.22,14.28-5.15,19.8-10.71,6.23-6.27,7.05-12.19,2.62-19.84-6.12-10.57-15.82-16-27.35-18.63-19.58-4.5-39.19-3.42-58.72.08-25.54,4.58-50.18,11.89-71.86,26.8-7.41,5.1-14.9,11.35-12.71,21.48,2,9.5,11,12.47,19.34,15C693.34,725.4,704,726,714.65,725.85Zm497.92-99.51v-.2c-2.26.11-4.62-.16-6.78.39-29.12,7.38-53.52,22.83-74.44,44.05-2.13,2.17-3.53,5.26-2.21,8.36,1.44,3.4,4.75,4.3,8.15,4.48a34.19,34.19,0,0,0,6.79-.15,168.4,168.4,0,0,0,63.41-23.22c7.28-4.41,14.68-9.06,19.43-16.5,5.52-8.65,2-15.91-8.3-17.18A48.66,48.66,0,0,0,1212.57,626.34Z" transform="translate(-1.37 -1.37)"/><path class="b" d="M359.71,1.52c-7,12.55-17.35,22.27-27.82,31.66C302.16,59.85,268.64,81,233,98.75c-29.7,14.77-59.84,10.82-89.91.66-12.17-4.1-23.53-10.57-36.57-12.18-7.64-1-15.16-1.08-22.46,1.52C74.53,92.13,72.44,98.9,78.41,107c5.8,7.85,13.87,13.25,21.59,18.92,29.87,22,54.42,49,75.16,79.54,21.75,32,22.79,66.49,11,102.27-5.46,16.54-11.44,32.89-15.46,49.93C158.8,408,195.16,447.41,224.16,461.43c15,7.24,27.75,3.75,39.18-9.57,10.28-12,17.93-25.67,26-39.12,7.68-12.87,16-25.17,27.32-35.21,5.71-5.07,11.84-9.47,19.25-11.78,10.93-3.4,20,.09,25.8,10.06,4.82,8.27,6.72,17.4,7.26,26.82A242.84,242.84,0,0,1,366,454c-3.91,25.07-3.74,50.37-3.61,75.65.11,21-.1,41.92-2.19,62.84-2.76,27.57-15,50.42-33.16,70.79-27.31,30.58-60.27,51.15-100.75,59.23a269.18,269.18,0,0,0-98.1,40.69c-2.87,1.93-6.46,3-8.27,6.32-37.83,0-75.66-.09-113.49.12-4.26,0-5-.93-5-5.07.19-43.88.12-87.77.12-131.65,3.22-.77,4.72-3.65,6.82-5.72,15-14.85,31.38-27.88,50-37.82,11.83-6.29,24.08-11.79,35.87-18.14,17.73-9.53,22.29-21.43,16.09-40.44-.78-2.4-1.72-4.76-2.63-7.11-10.28-26.41-26.14-49.54-42.35-72.49C46.76,424.88,26,400.53,1.52,379.45V252c23.86-33.19,22.06-54.6,5.29-79.78-1.81-2.72-3.53-5.5-5.29-8.25,0-52.11.09-104.22-.15-156.33,0-5.2,1-6.22,6.22-6.22Q183.65,1.66,359.71,1.52Z" transform="translate(-1.37 -1.37)"/><path class="b" d="M1367.52,505.42c-31.22-11-61.58-24.21-92.11-37-8.62-3.61-17-7.74-25.77-11.09-17.69-6.78-30-19.19-38.6-35.69a198.77,198.77,0,0,1-19.36-57.26c-7.76-43.06-28.75-79.2-54.83-113.47-45-59.15-91.51-117.12-136.85-176C982.09,51.7,967.52,26.16,951.65,1.52h317.21a63.21,63.21,0,0,0,14.62,17.25c25.83,21,55.55,35.81,84,52.57Z" transform="translate(-1.37 -1.37)"/><path class="b" d="M1258.24,769.52c-.3-1.45-.93-2.92-.84-4.34,2.22-34.31-3-67.92-9.75-101.34-2.39-11.74.39-21.2,10.49-27.59,34.8-22,71.1-41.16,109.38-56.46,0,61.47-.06,122.94.13,184.41,0,4.53-.91,5.48-5.45,5.45C1327.55,769.41,1292.89,769.52,1258.24,769.52Z" transform="translate(-1.37 -1.37)"/><path class="a" d="M1.52,379.45C26,400.53,46.76,424.88,65.36,451.2c16.21,22.95,32.07,46.08,42.35,72.49.91,2.35,1.85,4.71,2.63,7.11,6.2,19,1.64,30.91-16.09,40.44-11.79,6.35-24,11.85-35.87,18.14-18.66,9.94-35.05,23-50,37.82-2.1,2.07-3.6,4.95-6.82,5.72Z" transform="translate(-1.37 -1.37)"/><path class="a" d="M1367.52,71.34c-28.49-16.76-58.21-31.55-84-52.57a63.21,63.21,0,0,1-14.62-17.25c31.37,0,62.74.08,94.1-.1,3.8,0,4.7.85,4.66,4.65C1367.41,27.83,1367.52,49.58,1367.52,71.34Z" transform="translate(-1.37 -1.37)"/><path class="a" d="M1.52,163.92c1.76,2.75,3.48,5.53,5.29,8.25C23.58,197.35,25.38,218.76,1.52,252Z" transform="translate(-1.37 -1.37)"/><path class="b" d="M714.65,725.85c-10.7.12-21.31-.45-31.56-3.62-8.29-2.57-17.29-5.54-19.34-15-2.19-10.13,5.3-16.38,12.71-21.48,21.68-14.91,46.32-22.22,71.86-26.8,19.53-3.5,39.14-4.58,58.72-.08,11.53,2.66,21.23,8.06,27.35,18.63,4.43,7.65,3.61,13.57-2.62,19.84-5.52,5.56-12.51,8.49-19.8,10.71C780.21,717.69,747.86,724.19,714.65,725.85Z" transform="translate(-1.37 -1.37)"/><path class="b" d="M1212.57,626.34a48.66,48.66,0,0,1,6,0c10.26,1.27,13.82,8.53,8.3,17.18-4.75,7.44-12.15,12.09-19.43,16.5a168.4,168.4,0,0,1-63.41,23.22,34.19,34.19,0,0,1-6.79.15c-3.4-.18-6.71-1.08-8.15-4.48-1.32-3.1.08-6.19,2.21-8.36,20.92-21.22,45.32-36.67,74.44-44.05,2.16-.55,4.52-.28,6.78-.39Z" transform="translate(-1.37 -1.37)"/></svg>