<svg xmlns="http://www.w3.org/2000/svg" viewBox="0 0 1943.08 1093.11"><defs><style>.a{opacity:0;fill:#ffffff;}.b{fill:#ffffff;}</style></defs><title>1800f_00209</title><path class="a" d="M1555.72,931.92H-224.63c1.19-12.75,6.16-24.43,10.72-36.14,12.95-33.3,30.32-64.52,46.49-96.27,31.9-62.61,50.78-128.12,47.6-199a100.36,100.36,0,0,1,2.47-26.35c7.31-32.89,25.13-59.45,50.43-80.94s54.15-28.7,86.12-15.89C45.93,488,64.46,508.15,79.87,531.53c21,31.94,32.58,67.8,41.52,104.52,10.81,44.43,27.16,86.29,54.22,123.49,8,11.08,16.75,21.67,28.53,29.06,14.36,9,28.05,6.29,37.78-7.43a68.24,68.24,0,0,0,7-12.56c13-30.15,14.58-62,11.57-93.89-7.46-79.1-22.81-157-37.44-235-6.37-33.93-21.2-63.13-50.21-83.68-17.52-12.41-37.27-20.19-57.1-27.88C98.79,321.59,81,317,65.31,307.47c-9.85-6-10.62-13.32-2.92-21.88,6.65-7.39,14.53-13.3,22.83-18.68C123.59,242,165,223.35,207.31,206.31c21.88-8.82,45.26-12.83,67.22-21.16C336,161.85,384,121.93,418.46,66Q436,37.53,456.12,10.85c44.06-58.61,90-115.72,137.33-171.73H636a6.6,6.6,0,0,0,1.19,1.86c20.06,15.29,36.24,34.44,53,53.08,18.54,20.69,31,43.18,31.38,72.47.38,30.39,16.22,53,43.54,67.1a220.3,220.3,0,0,0,37.1,15.26c24.82,7.58,50.33,10.78,76.08,12.77C912.3,64.28,946.26,65,980.3,59.93c36.47-5.42,72.35-14.7,109.34-16.65,20.51-1.09,41-1.05,60.87,5,13,4,17.21,9.82,16.85,23.37-.59,21.9,4,42.72,12.37,62.74,18.55,44.1,41.22,86.23,63,128.71,28.28,55.08,59.29,108.76,78.11,168.26,4.71,14.9,12.13,28.89,23.66,40.18,9.46,9.25,20.29,10.58,32.19,6.15a58,58,0,0,0,17.4-10.65c32.88-28.15,64.49-57.54,91.22-91.84,9.3-11.93,18.53-24,31-33.13,16.6-12.14,31-11.05,44.79,4.23a113.63,113.63,0,0,1,12,16.5c20.45,33.15,41,66.24,64.79,97.12,5.64,7.32,10.47,15.4,18,21.17V842.37a425.72,425.72,0,0,1-67.08,63.27C1577.63,914.19,1565.72,921.86,1555.72,931.92Zm-700.9-602c-.12,20.55,10.38,28.94,27.1,25.26a57.5,57.5,0,0,0,12.83-4.44c27.15-13.11,47.34-34,64.44-58.17,8.48-12,15.89-24.59,18.77-39.33,3.15-16.21-6.16-27.91-22.67-28.55a51.62,51.62,0,0,0-24.87,5.54c-25.7,12.49-43.63,33-58.24,56.86C863.43,301.32,856.5,316.38,854.82,329.88Z" transform="translate(287 161.06)"/><path class="b" d="M593.45-160.88c-47.32,56-93.27,113.12-137.33,171.73Q436.05,37.53,418.46,66c-34.51,56-82.48,95.9-143.93,119.2-22,8.33-45.34,12.34-67.22,21.16-42.28,17-83.72,35.71-122.09,60.6-8.3,5.38-16.18,11.29-22.83,18.68-7.7,8.56-6.93,15.91,2.92,21.88,15.7,9.51,33.48,14.12,50.42,20.7,19.83,7.69,39.58,15.47,57.1,27.88,29,20.55,43.84,49.75,50.21,83.68,14.63,78,30,155.89,37.44,235,3,31.91,1.39,63.74-11.57,93.89a68.24,68.24,0,0,1-7,12.56c-9.73,13.72-23.42,16.43-37.78,7.43-11.78-7.39-20.48-18-28.53-29.06-27.06-37.2-43.41-79.06-54.22-123.49-8.94-36.72-20.47-72.58-41.52-104.52C64.46,508.15,45.93,488,19.2,477.29c-32-12.81-60.71-5.7-86.12,15.89s-43.12,48.05-50.43,80.94a100.36,100.36,0,0,0-2.47,26.35c3.18,70.92-15.7,136.43-47.6,199-16.17,31.75-33.54,63-46.49,96.27-4.56,11.71-9.53,23.39-10.72,36.14-19,0-37.95-.19-56.92.13-4.54.08-5.45-.92-5.44-5.44q.27-123.33.13-246.64c3.48-1.36,5.53-4.39,7.69-7.07C-253.35,641-224,612.45-195.61,583a132.92,132.92,0,0,0,19.39-25.17c7.63-13.11,8.82-26.54,2.24-40.53-5.56-11.84-13.72-21.75-22.55-31.17-14.33-15.3-30.14-29.14-43.68-45.24-17.77-21.14-18.85-42.15-2.67-62.32a129.8,129.8,0,0,1,22.79-22.08c9.64-7.34,19.65-14.19,29.25-21.58,10.77-8.29,10.73-17.76.06-26.17a74.1,74.1,0,0,0-10.71-7.13c-27.08-14.52-56.12-24-85.37-32.94V132.05c2.16-.45,3.26-2.08,4.47-3.72C-270,111.68-271.47,95-286.86,77.41v-170c1.85-.64,3.45.2,5.11.79,40.36,14.48,81.8,17.68,124,11.2,23-3.54,45.17-9.61,61.69-27.7,13.77-15.1,21.2-33.64,27.76-52.59H211c4.58,11,9.66,21.66,17.34,30.92,12.37,14.91,29.56,19,46.86,10.38,18.46-9.14,31.58-23.92,42.05-41.3Z" transform="translate(287 161.06)"/><path class="b" d="M1655.9,481.14c-7.5-5.77-12.33-13.85-18-21.17-23.82-30.88-44.34-64-64.79-97.12a113.63,113.63,0,0,0-12-16.5c-13.81-15.28-28.19-16.37-44.79-4.23-12.44,9.1-21.67,21.2-31,33.13-26.73,34.3-58.34,63.69-91.22,91.84a58,58,0,0,1-17.4,10.65c-11.9,4.43-22.73,3.1-32.19-6.15-11.53-11.29-19-25.28-23.66-40.18-18.82-59.5-49.83-113.18-78.11-168.26-21.82-42.48-44.49-84.61-63-128.71-8.42-20-13-40.84-12.37-62.74.36-13.55-3.8-19.37-16.85-23.37-19.87-6.1-40.36-6.14-60.87-5-37,1.95-72.87,11.23-109.34,16.65-34,5.05-68,4.35-102.11,1.73-25.75-2-51.26-5.19-76.08-12.77A220.3,220.3,0,0,1,765,33.63c-27.32-14.13-43.16-36.71-43.54-67.1-.37-29.29-12.84-51.78-31.38-72.47-16.71-18.64-32.89-37.79-53-53.08a6.6,6.6,0,0,1-1.19-1.86q506.33,0,1012.65-.16c6,0,7.48.94,7.48,7.28Q1655.75,163.69,1655.9,481.14Z" transform="translate(287 161.06)"/><path class="a" d="M-286.86,268.65c29.25,8.93,58.29,18.42,85.37,32.94a74.1,74.1,0,0,1,10.71,7.13c10.67,8.41,10.71,17.88-.06,26.17-9.6,7.39-19.61,14.24-29.25,21.58a129.8,129.8,0,0,0-22.79,22.08c-16.18,20.17-15.1,41.18,2.67,62.32,13.54,16.1,29.35,29.94,43.68,45.24,8.83,9.42,17,19.33,22.55,31.17,6.58,14,5.39,27.42-2.24,40.53A132.92,132.92,0,0,1-195.61,583c-28.39,29.47-57.74,58-83.56,89.92-2.16,2.68-4.21,5.71-7.69,7.07Z" transform="translate(287 161.06)"/><path class="a" d="M-68.3-160.88c-6.56,18.95-14,37.49-27.76,52.59-16.52,18.09-38.69,24.16-61.69,27.7-42.2,6.48-83.64,3.28-124-11.2-1.66-.59-3.26-1.43-5.11-.79,0-20.44.2-40.88-.13-61.31-.09-5.35.68-7.19,6.76-7.17C-209.59-160.78-138.94-160.88-68.3-160.88Z" transform="translate(287 161.06)"/><path class="b" d="M1555.72,931.92c10-10.06,21.91-17.73,33.1-26.28a425.72,425.72,0,0,0,67.08-63.27c0,28.33-.09,56.66.1,85,0,3.8-.86,4.68-4.66,4.66C1619.47,931.84,1587.6,931.92,1555.72,931.92Z" transform="translate(287 161.06)"/><path class="a" d="M317.22-160.88c-10.47,17.38-23.59,32.16-42.05,41.3C257.87-111,240.68-115,228.31-130c-7.68-9.26-12.76-19.94-17.34-30.92Z" transform="translate(287 161.06)"/><path class="a" d="M-286.86,77.41c15.39,17.57,16.83,34.27,4.47,50.92-1.21,1.64-2.31,3.27-4.47,3.72Z" transform="translate(287 161.06)"/><path class="b" d="M854.82,329.88c1.68-13.5,8.61-28.56,17.36-42.83,14.61-23.82,32.54-44.37,58.24-56.86a51.62,51.62,0,0,1,24.87-5.54c16.51.64,25.82,12.34,22.67,28.55-2.88,14.74-10.29,27.32-18.77,39.33-17.1,24.21-37.29,45.06-64.44,58.17a57.5,57.5,0,0,1-12.83,4.44C865.2,358.82,854.7,350.43,854.82,329.88Z" transform="translate(287 161.06)"/></svg>