<svg xmlns="http://www.w3.org/2000/svg" viewBox="0 0 1943.05 1093.1"><defs><style>.a{opacity:0;fill:#ffffff;}.b{fill:#ffffff;}</style></defs><title>1800f_00379</title><path class="a" d="M1196,931.92H25.8A492.56,492.56,0,0,0,23.08,863C11.36,762.6-37.84,689.32-131.8,647.8c-54-23.87-106-51.57-151.72-89.61-1-.81-1.91-1.68-3.34-1.16V238.29c1.21-1.27,2.5-2.48,3.62-3.83C-234.76,176-176.16,130.6-105.7,101.93-70.92,87.77-37.12,72.28-5.23,52.42A145.14,145.14,0,0,1,47.61,32.14c65.81-11,131-7.83,195.19,10.55,22.28,6.38,44.27,14.47,60.73,31.33,38.07,39,79.94,73.65,120.75,109.56,17.13,15.07,36,26.29,58.37,30.55,46.82,8.89,90.79-.8,133.17-21,32.51-15.51,57.16-38.63,72.29-71.56a139.67,139.67,0,0,1,14-23.4A648.84,648.84,0,0,1,786.19,2.62c10.75-10,21.77-19.65,32-30.13,11.61-11.84,17.82-25.7,15.24-42.55-1.72-11.22-3.64-22.43-5.93-33.55-2.7-13.08-7.65-25.36-17.43-34.76-20.71-19.92-45.84-24.26-73.13-19-21,4-38.22,15.62-54.76,28.31-24.66,18.92-48.25,39.2-74.4,56.21-39.18,25.49-80.89,39.41-128.37,33.62-36.86-4.5-70.64-15.46-97.73-41.86-22.58-22-39.05-47.64-43.27-79.76h766.48c4.62,6.73,11.15,11.61,16.9,17.25,46.57,45.7,102.33,71.44,167.43,76.68,60.22,4.84,120.57,7.67,180.88,11.17,25.22,1.47,50.51,2.43,75.4,7.34,35,6.9,52.28,24.22,59.26,59.24,3.72,18.66,4.16,37.65,5.21,56.56,3.79,68.22-11.19,132.47-40.55,193.85-21.38,44.71-45,88.32-64.71,133.84-12.37,28.57-25.87,56.53-44.06,82-20,28-40,55.88-66.51,78.48-23.56,20.12-49.66,27-79.67,18-20.68-6.25-41-13.64-58.62-26.23-49.26-35.3-84.63-82.08-109.33-137-5.61-12.48-7-26.19-5.82-40.12,2.23-25.5,13.68-47.34,26.3-68.79,14-23.74,30.76-45.8,42.62-70.79,8.41-17.72,14.75-36.06,13.68-56.14-1.52-28.31-24.29-44.94-51.58-37.49A67.87,67.87,0,0,0,1145,150.8c-37.68,32.69-73.77,67-103.36,107.43a159.7,159.7,0,0,0-30.7,82.91c-4.07,51.23,4.5,100.73,21.11,149.06,10.09,29.33,25.33,56.19,40,83.32,21.83,40.41,37,83.66,54,126.13,9,22.48,22.32,41.89,41.51,57,7.56,5.93,15.11,11.88,22.82,17.61,18.76,13.93,26.07,32.17,21.26,55.17-2.8,13.35-5.25,26.78-8.23,40.09C1198.72,890.05,1198.93,911.16,1196,931.92Z" transform="translate(287.01 161.03)"/><path class="b" d="M1196,931.92c2.92-20.76,2.71-41.87,7.31-62.44,3-13.31,5.43-26.74,8.23-40.09,4.81-23-2.5-41.24-21.26-55.17-7.71-5.73-15.26-11.68-22.82-17.61-19.19-15.07-32.52-34.48-41.51-57-17-42.47-32.12-85.72-54-126.13-14.66-27.13-29.9-54-40-83.32-16.61-48.33-25.18-97.83-21.11-149.06a159.7,159.7,0,0,1,30.7-82.91c29.59-40.41,65.68-74.74,103.36-107.43a67.87,67.87,0,0,1,26.8-13.83c27.29-7.45,50.06,9.18,51.58,37.49,1.07,20.08-5.27,38.42-13.68,56.14-11.86,25-28.64,47-42.62,70.79-12.62,21.45-24.07,43.29-26.3,68.79-1.22,13.93.21,27.64,5.82,40.12,24.7,54.93,60.07,101.71,109.33,137,17.58,12.59,37.94,20,58.62,26.23,30,9.06,56.11,2.14,79.67-18,26.46-22.6,46.52-50.45,66.51-78.48,18.19-25.5,31.69-53.46,44.06-82,19.71-45.52,43.33-89.13,64.71-133.84,29.36-61.38,44.34-125.63,40.55-193.85-1-18.91-1.49-37.9-5.21-56.56-7-35-24.31-52.34-59.26-59.24-24.89-4.91-50.18-5.87-75.4-7.34-60.31-3.5-120.66-6.33-180.88-11.17-65.1-5.24-120.86-31-167.43-76.68-5.75-5.64-12.28-10.52-16.9-17.25q272.07,0,544.13-.15c5.69,0,7,1.29,7,7q-.26,296.34-.14,592.69c-39.73,9.34-72,30.7-95.87,63.3-23.58,32.18-26.53,69-18.47,107.11,7.08,33.43,19.86,65.18,29.73,97.79a338.71,338.71,0,0,1,12.37,139.22c-3.34,28.55-5.51,57.23-8.21,85.86Z" transform="translate(287.01 161.03)"/><path class="b" d="M338.46-160.88c4.22,32.12,20.69,57.76,43.27,79.76,27.09,26.4,60.87,37.36,97.73,41.86,47.48,5.79,89.19-8.13,128.37-33.62,26.15-17,49.74-37.29,74.4-56.21,16.54-12.69,33.8-24.3,54.76-28.31,27.29-5.23,52.42-.89,73.13,19,9.78,9.4,14.73,21.68,17.43,34.76,2.29,11.12,4.21,22.33,5.93,33.55,2.58,16.85-3.63,30.71-15.24,42.55C808-17,796.94-7.36,786.19,2.62a648.84,648.84,0,0,0-84.06,95.53,139.67,139.67,0,0,0-14,23.4c-15.13,32.93-39.78,56.05-72.29,71.56-42.38,20.22-86.35,29.91-133.17,21-22.42-4.26-41.24-15.48-58.37-30.55C383.47,147.67,341.6,113,303.53,74c-16.46-16.86-38.45-24.95-60.73-31.33C178.57,24.31,113.42,21.14,47.61,32.14A145.14,145.14,0,0,0-5.23,52.42C-37.12,72.28-70.92,87.77-105.7,101.93c-70.46,28.67-129.06,74-177.54,132.53-1.12,1.35-2.41,2.56-3.62,3.83q0-196.54-.15-393.1c0-5.2,1-6.22,6.22-6.22Q28.84-160.78,338.46-160.88Z" transform="translate(287.01 161.03)"/><path class="b" d="M-286.86,557c1.43-.52,2.37.35,3.34,1.16,45.75,38,97.7,65.74,151.72,89.61,94,41.52,143.16,114.8,154.88,215.2a492.56,492.56,0,0,1,2.72,68.92H-251.95c-6.45-17.75-18.47-30.56-34.91-39.46Z" transform="translate(287.01 161.03)"/><path class="a" d="M1575.45,931.92c2.7-28.63,4.87-57.31,8.21-85.86a338.71,338.71,0,0,0-12.37-139.22c-9.87-32.61-22.65-64.36-29.73-97.79-8.06-38.07-5.11-74.93,18.47-107.11,23.89-32.6,56.14-54,95.87-63.3q0,243.6.14,487.21c0,5.19-1,6.3-6.22,6.22C1625,931.72,1600.24,931.92,1575.45,931.92Z" transform="translate(287.01 161.03)"/><path class="a" d="M-286.86,892.46c16.44,8.9,28.46,21.71,34.91,39.46-10.37,0-20.75-.17-31.11.1-3.28.08-4-.63-3.9-3.9C-286.71,916.24-286.86,904.34-286.86,892.46Z" transform="translate(287.01 161.03)"/></svg>