<svg xmlns="http://www.w3.org/2000/svg" viewBox="0 0 1943.06 1093.09"><defs><style>.a{opacity:0;fill:#ffffff;}.b{fill:#ffffff;}</style></defs><title>1800f_00128</title><path class="a" d="M-286.86,414.36V191.24a570,570,0,0,1,99.21-2.55c30,1.9,59.94,4.91,89.9,7.41q51,4.26,102,8.45c32.83,2.65,65.54,3.1,98.33-1.69,66.25-9.66,125.47-35.56,179.71-74.3,24-17.18,48.82-33.42,75.79-45.93,30.95-14.34,61.48-15.07,91.41,2.69,6.95,4.12,13.61,8.73,20.35,13.19,18.07,12,31.43,29.26,48.33,42.57,31.51,24.8,66.43,39.09,107.3,36.22,26.52-1.87,52.62-6.54,78.74-11.15,37-6.53,74-13.68,112-9.62,24.71,2.65,48.46,10,72.66,15.07A598.56,598.56,0,0,1,1014,212.54c26.94,12.26,42.37,32.44,47,61.48,7.17,44.65,14.33,89.26,25.58,133.18,9,35,19.77,69,40.71,98.95,11.39,16.28,24.13,31.24,42.06,40.82s35.23,7.13,51.23-4.58c15.39-11.27,21.7-28.23,26.52-45.68a639,639,0,0,1,30-85c18.77-43.1,38.46-85.81,56.83-129.09,12.13-28.59,21.88-58.21,34-86.8,22.1-52,59.12-91.82,104.41-124.54,21.17-15.29,43-29.48,67.93-38,18.77-6.39,31.32-2,42.44,14.49,7.76,11.49,12.37,24.35,15.43,37.7,11.43,50,16.69,100.75,17.51,151.85.65,41.13-5.58,81.72-16.77,121.3-24.24,85.69-46.74,171.66-53.17,261-2.8,38.95-3.55,77.79,4,116.33,6.48,33.07,20.9,61.67,48.43,82.37,17.87,13.43,38,23.08,57.79,33.18,0,24.79-.2,49.58.15,74.36.08,5.22-1,6.23-6.23,6.22q-161.25-.28-322.52-.14H484.17c-1.11-2.32.05-4.43.6-6.6,7.1-27.75,5.53-55.11-3.85-82.07-8.21-23.6-24.24-38.56-48.89-44-12.21-2.68-24.59-2.48-37-2.63-11.4-.13-22.64-1.29-33.32-5.94-20.21-8.8-33.43-25.66-47.95-41.05-14.23-15.1-28.3-30.39-47.86-38.9-13.22-5.75-22.55-.75-24.65,13.43-1.64,11,2.36,20.81,7.48,30.23,9.05,16.65,22.33,29.8,35.27,43.34s26.5,27,35.07,44.4c8.88,18,12.31,37.35,14.84,56.9,1.41,11,5.48,21.56,4.52,32.84q-309.24,0-618.49.14c-5.69,0-7-1.28-7-7,.23-67.54.15-135.08.15-202.63a14.57,14.57,0,0,0,1.56-2.54c15.46-41.44,31.48-82.69,46.15-124.42,15.36-43.69,24.78-88.6,22.13-135.34-.66-11.67-2.38-23.17-7.89-33.7-6.15-11.76-15.75-17.95-29.28-18C-265.48,408.41-275.95,412.5-286.86,414.36Z" transform="translate(287.01 161.03)"/><path class="b" d="M1655.9,851.48c-19.82-10.1-39.92-19.75-57.79-33.18-27.53-20.7-41.95-49.3-48.43-82.37-7.55-38.54-6.8-77.38-4-116.33,6.43-89.32,28.93-175.29,53.17-261,11.19-39.58,17.42-80.17,16.77-121.3-.82-51.1-6.08-101.89-17.51-151.85-3.06-13.35-7.67-26.21-15.43-37.7-11.12-16.47-23.67-20.88-42.44-14.49-25,8.49-46.76,22.68-67.93,38C1427,104,1390,143.83,1367.9,195.79c-12.16,28.59-21.91,58.21-34,86.8-18.37,43.28-38.06,86-56.83,129.09a639,639,0,0,0-30,85c-4.82,17.45-11.13,34.41-26.52,45.68-16,11.71-33.16,14.23-51.23,4.58s-30.67-24.54-42.06-40.82c-20.94-29.94-31.74-63.92-40.71-98.95-11.25-43.92-18.41-88.53-25.58-133.18-4.66-29-20.09-49.22-47-61.48A598.56,598.56,0,0,0,888.86,171.6c-24.2-5.1-48-12.42-72.66-15.07-38-4.06-75,3.09-112,9.62-26.12,4.61-52.22,9.28-78.74,11.15-40.87,2.87-75.79-11.42-107.3-36.22-16.9-13.31-30.26-30.6-48.33-42.57-6.74-4.46-13.4-9.07-20.35-13.19-29.93-17.76-60.46-17-91.41-2.69-27,12.51-51.75,28.75-75.79,45.93C228,167.3,168.81,193.2,102.56,202.86c-32.79,4.79-65.5,4.34-98.33,1.69q-51-4.11-102-8.45c-30-2.5-59.9-5.51-89.9-7.41a570,570,0,0,0-99.21,2.55v-214c12.27-4.16,23.44-10.62,34.36-17.31,37.26-22.82,75.2-44.56,111.28-69.25,18.07-12.36,28.94-29.27,30.42-51.56H31.87c1.37,6.79,6.61,11.14,10.57,16.19,14.11,18,29.82,34.32,50.77,44.55,23.72,11.58,43.65,6.4,58.54-15.46,9.69-14.21,17.17-29.67,24.31-45.28H425c2.53,15.74,16.11,26,31.71,22.94,26.07-5.14,50.28-16.65,76.05-22.94h758.89c-6.53,3.19-13.38,5.86-19.53,9.66-27.66,17-49.81,40.31-71.08,64.4-19.31,21.88-36,45.6-48.25,72.26-13.13,28.72-17.73,59.39-20.11,90.49-.87,11.32-2.6,22.59-2.14,34,.52,13,5,17.11,18,16.21,6.12-.43,11.9-2.3,17.62-4.32,46-16.22,91.75-33.06,138-48.62,43.74-14.72,80.8-38.94,111.2-73.52,15-17.09,30.36-34,40.4-54.71,7.91-16.37,5.33-27.44-8.78-38.69-10.74-8.55-22.69-15.17-34.86-21.35-31.25-15.86-61.57-33.66-94.61-45.83q166.2,0,332.39-.15c5.2,0,6.22,1,6.22,6.22Q1655.8,348.34,1655.9,851.48Z" transform="translate(287.01 161.03)"/><path class="a" d="M1317.43-160.88c33,12.17,63.36,30,94.61,45.83,12.17,6.18,24.12,12.8,34.86,21.35,14.11,11.25,16.69,22.32,8.78,38.69-10,20.75-25.38,37.62-40.4,54.71-30.4,34.58-67.46,58.8-111.2,73.52-46.21,15.56-92,32.4-138,48.62-5.72,2-11.5,3.89-17.62,4.32-13,.9-17.46-3.22-18-16.21-.46-11.43,1.27-22.7,2.14-34,2.38-31.1,7-61.77,20.11-90.49,12.2-26.66,28.94-50.38,48.25-72.26,21.27-24.09,43.42-47.36,71.08-64.4,6.15-3.8,13-6.47,19.53-9.66Z" transform="translate(287.01 161.03)"/><path class="b" d="M338.46,931.92c1-11.28-3.11-21.88-4.52-32.84-2.53-19.55-6-38.89-14.84-56.9-8.57-17.36-22-30.74-35.07-44.4s-26.22-26.69-35.27-43.34c-5.12-9.42-9.12-19.21-7.48-30.23,2.1-14.18,11.43-19.18,24.65-13.43,19.56,8.51,33.63,23.8,47.86,38.9,14.52,15.39,27.74,32.25,47.95,41.05,10.68,4.65,21.92,5.81,33.32,5.94,12.38.15,24.76,0,37,2.63,24.65,5.39,40.68,20.35,48.89,44,9.38,27,10.95,54.32,3.85,82.07-.55,2.17-1.71,4.28-.6,6.6Z" transform="translate(287.01 161.03)"/><path class="a" d="M-110.8-160.88c-1.48,22.29-12.35,39.2-30.42,51.56-36.08,24.69-74,46.43-111.28,69.25-10.92,6.69-22.09,13.15-34.36,17.31,0-44.42.08-88.83-.13-133.25,0-4.3,1-5,5.1-5Q-196.35-160.75-110.8-160.88Z" transform="translate(287.01 161.03)"/><path class="b" d="M-286.86,414.36c10.91-1.86,21.38-5.95,32.67-5.91,13.53.06,23.13,6.25,29.28,18,5.51,10.53,7.23,22,7.89,33.7,2.65,46.74-6.77,91.65-22.13,135.34-14.67,41.73-30.69,83-46.15,124.42a14.57,14.57,0,0,1-1.56,2.54Z" transform="translate(287.01 161.03)"/><path class="a" d="M176.06-160.88c-7.14,15.61-14.62,31.07-24.31,45.28-14.89,21.86-34.82,27-58.54,15.46-20.95-10.23-36.66-26.55-50.77-44.55-4-5.05-9.2-9.4-10.57-16.19Z" transform="translate(287.01 161.03)"/><path class="a" d="M532.74-160.88c-25.77,6.29-50,17.8-76.05,22.94-15.6,3.08-29.18-7.2-31.71-22.94Z" transform="translate(287.01 161.03)"/></svg>