<svg xmlns="http://www.w3.org/2000/svg" viewBox="0 0 1943.04 1093.09"><defs><style>.a{opacity:0;fill:#ffffff;}.b{fill:#ffffff;}</style></defs><title>1800f_00160</title><path class="a" d="M-286.86,209.46V-74.37c5.31-18.33,9.06-37.07,15.13-55.21,3.49-10.46,8.4-20.43,10.67-31.3H1522.33c-2,3.82-3.81,7.71-5.89,11.47-8,14.48-17,28.1-31.24,37.48-19.1,12.62-40.29,12.05-61.58,9.35-24.68-3.12-48.25-10.94-71.95-18.18-21-6.41-41.94-13.34-64.37-13-34.09.51-53.92,25.85-46.11,59.17,4.17,17.81,14.11,32.28,26.42,45.31,21.63,22.87,47.58,40,74.94,55,47.64,26.11,97.66,45.39,152.34,50.13,53.62,4.64,107.18,10.23,161,12.19V636c-10.22,7.4-20,15.53-31.46,21-22.54,10.74-43.5,9.07-62.71-7.66-16.22-14.12-25.78-32.37-31.66-52.53-10.18-34.87-13.56-70.92-16.68-106.92-3-34.16,4.76-66.81,15.86-98.84,18.74-54,46.23-103.81,74.75-153.09,10.38-17.93,21.24-35.72,25.51-56.41,3.84-18.64-4.78-32.42-23.11-37.44-7.72-2.11-15.51-2-23.3-.53-17.29,3.13-32.38,11.36-46.84,20.76-41.88,27.22-79.67,59.77-117.94,91.64-40.55,33.77-75,73-102,118.45-16.36,27.62-31.73,55.82-47.49,83.79-19.2,34.05-40.95,66.16-68.79,93.94-22.23,22.18-47.75,30-78.26,20.6-12.82-4-25.52-8.12-37.66-13.86-9.63-4.55-19.07-9.4-27.34-16.2-10.93-9-11.18-17.83-.79-27.15,1.69-1.52,3.5-2.9,5.32-4.27,14.79-11.11,31.16-19.77,46.49-30,10.32-6.9,20.43-14.06,28.76-23.39,11-12.28,12.28-22,5-36.78-1.56-3.17-3.27-6.28-5.06-9.33-10.15-17.29-22.64-32.9-35.13-48.48-23.6-29.46-46.12-59.51-61.33-94.47A113.37,113.37,0,0,0,1017.25,235c-23.69-24.4-53.16-34.94-86.59-36-37.61-1.21-74.81,2.26-111.27,11.46-27.68,7-55.48,11-84,9.2-23-1.42-45.92-3-68.92-1.07-29.56,2.45-57.58,10.23-80.74,29.3-28.45,23.43-31,46.85-11.11,75.49a154.87,154.87,0,0,0,30.75,32.33c30.41,24.4,61.36,48.1,97.15,64.26,41.09,18.56,84.18,28.2,129.47,27.65,20.72-.26,41.47,0,61.7,5.68,30.65,8.68,55.69,27.08,80.27,46.27A82.28,82.28,0,0,1,989,514.41c5.31,6.94,6.3,14.19,1.93,21.89a113.14,113.14,0,0,1-6.42,10.27A616.11,616.11,0,0,1,903,639.24c-26,24-52.79,47.21-76.29,73.8a114.38,114.38,0,0,0-16.77,24.27c-7.45,14.87-8.54,29.79,1.44,43.81,10.34,14.52,25.45,19.47,42.62,18,37.73-3.22,75.22-3.22,112.07,6.92,16.32,4.5,32.38,10,48.81,14,36.09,8.75,55.47-.23,72.94-33.13,6.28-11.83,12.07-23.93,18.09-35.9,9.29-18.48,21.21-34.92,36.66-48.82,18.45-16.6,39.78-20.72,59.32-10.67a104.61,104.61,0,0,1,33.62,27.88c9.35,11.61,18.32,23.5,28.82,34.15,21.42,21.76,46,39.55,71.51,56,33.7,21.69,63.52,47.46,88,79.24,10.91,14.16,22.78,27.61,31.74,43.2H273.2c.27-31.2-9.23-58.18-34-78.47-12-9.85-25.55-17.21-39.82-23.27-36.94-15.68-76.18-21.63-115.48-27.39-24.74-3.63-49.47-7.28-73.46-14.89-26.15-8.3-43.27-25.06-51.15-51.42Q-46.3,717.93-50,699c-6.77-34.22-12.37-68.87-27.57-100.66-28.47-59.53-66.57-109.35-134-128.5a92.34,92.34,0,0,1-16.12-6.59c-3.94-2-9-3.9-8.95-9.3.08-5.59,5.48-6.86,9.54-8.48a117.4,117.4,0,0,1,16.63-5.2,475.21,475.21,0,0,0,122-47c20-11,39.86-22.18,56-38.63,20.23-20.65,21.59-43.86,4.16-66.83-8.12-10.69-17.78-20-26.93-29.82C-72,240-87.59,221-98.94,199.05c-6.72-13-11.42-27-18.79-39.76-12.4-21.42-27.39-24-46.36-8.35-10.76,8.89-19.45,20-30.15,28.8C-221.08,201.87-251.75,212.77-286.86,209.46Z" transform="translate(287 161.01)"/><path class="b" d="M1455.55,931.92c-9-15.59-20.83-29-31.74-43.2-24.49-31.78-54.31-57.55-88-79.24-25.51-16.42-50.09-34.21-71.51-56-10.5-10.65-19.47-22.54-28.82-34.15a104.61,104.61,0,0,0-33.62-27.88c-19.54-10.05-40.87-5.93-59.32,10.67-15.45,13.9-27.37,30.34-36.66,48.82-6,12-11.81,24.07-18.09,35.9-17.47,32.9-36.85,41.88-72.94,33.13-16.43-4-32.49-9.45-48.81-14-36.85-10.14-74.34-10.14-112.07-6.92-17.17,1.46-32.28-3.49-42.62-18-10-14-8.89-28.94-1.44-43.81A114.38,114.38,0,0,1,826.67,713c23.5-26.59,50.3-49.8,76.29-73.8a616.11,616.11,0,0,0,81.55-92.67,113.14,113.14,0,0,0,6.42-10.27c4.37-7.7,3.38-14.95-1.93-21.89a82.28,82.28,0,0,0-15.08-14.87c-24.58-19.19-49.62-37.59-80.27-46.27-20.23-5.73-41-5.94-61.7-5.68-45.29.55-88.38-9.09-129.47-27.65-35.79-16.16-66.74-39.86-97.15-64.26a154.87,154.87,0,0,1-30.75-32.33c-19.87-28.64-17.34-52.06,11.11-75.49,23.16-19.07,51.18-26.85,80.74-29.3,23-1.91,46-.35,68.92,1.07,28.56,1.78,56.36-2.21,84-9.2,36.46-9.2,73.66-12.67,111.27-11.46,33.43,1.07,62.9,11.61,86.59,36a113.37,113.37,0,0,1,22.83,33.78c15.21,35,37.73,65,61.33,94.47,12.49,15.58,25,31.19,35.13,48.48,1.79,3.05,3.5,6.16,5.06,9.33,7.27,14.79,5.94,24.5-5,36.78-8.33,9.33-18.44,16.49-28.76,23.39-15.33,10.27-31.7,18.93-46.49,30-1.82,1.37-3.63,2.75-5.32,4.27-10.39,9.32-10.14,18.18.79,27.15,8.27,6.8,17.71,11.65,27.34,16.2,12.14,5.74,24.84,9.9,37.66,13.86,30.51,9.42,56,1.58,78.26-20.6,27.84-27.78,49.59-59.89,68.79-93.94,15.76-28,31.13-56.17,47.49-83.79,26.93-45.48,61.42-84.68,102-118.45,38.27-31.87,76.06-64.42,117.94-91.64,14.46-9.4,29.55-17.63,46.84-20.76,7.79-1.42,15.58-1.58,23.3.53,18.33,5,26.95,18.8,23.11,37.44-4.27,20.69-15.13,38.48-25.51,56.41-28.52,49.28-56,99-74.75,153.09-11.1,32-18.81,64.68-15.86,98.84,3.12,36,6.5,72,16.68,106.92,5.88,20.16,15.44,38.41,31.66,52.53,19.21,16.73,40.17,18.4,62.71,7.66,11.51-5.49,21.24-13.62,31.46-21q0,144.94.14,289.9c0,5.19-1,6.24-6.22,6.22C1585.07,931.84,1520.31,931.92,1455.55,931.92Z" transform="translate(287 161.01)"/><path class="b" d="M-286.86,209.46c35.11,3.31,65.78-7.59,92.62-29.72,10.7-8.84,19.39-19.91,30.15-28.8,19-15.69,34-13.07,46.36,8.35,7.37,12.74,12.07,26.73,18.79,39.76C-87.59,221-72,240-55.24,258c9.15,9.79,18.81,19.13,26.93,29.82,17.43,23,16.07,46.18-4.16,66.83-16.13,16.45-36,27.63-56,38.63a475.21,475.21,0,0,1-122,47,117.4,117.4,0,0,0-16.63,5.2c-4.06,1.62-9.46,2.89-9.54,8.48-.08,5.4,5,7.31,8.95,9.3a92.34,92.34,0,0,0,16.12,6.59c67.42,19.15,105.52,69,134,128.5C-62.41,630.1-56.81,664.75-50,699q3.75,19,9.29,37.51c7.88,26.36,25,43.12,51.15,51.42,24,7.61,48.72,11.26,73.46,14.89,39.3,5.76,78.54,11.71,115.48,27.39,14.27,6.06,27.79,13.42,39.82,23.27,24.81,20.29,34.31,47.27,34,78.47q-276.82,0-553.66.16c-5.6,0-6.54-1.32-6.54-6.66Q-286.76,567.44-286.86,209.46Z" transform="translate(287 161.01)"/><path class="b" d="M1655.9,88c-53.83-2-107.39-7.55-161-12.19-54.68-4.74-104.7-24-152.34-50.13-27.36-15-53.31-32.12-74.94-55-12.31-13-22.25-27.5-26.42-45.31-7.81-33.32,12-58.66,46.11-59.17,22.43-.34,43.36,6.59,64.37,13,23.7,7.24,47.27,15.06,71.95,18.18,21.29,2.7,42.48,3.27,61.58-9.35,14.19-9.38,23.23-23,31.24-37.48,2.08-3.76,3.93-7.65,5.89-11.47,42.75,0,85.5.09,128.25-.13,4.53,0,5.45.91,5.44,5.44Q1655.77-33.77,1655.9,88Z" transform="translate(287 161.01)"/><path class="b" d="M-261.06-160.88c-2.27,10.87-7.18,20.84-10.67,31.3-6.07,18.14-9.82,36.88-15.13,55.21,0-27.32.09-54.64-.1-82,0-3.8.84-4.84,4.66-4.65C-275.24-160.63-268.14-160.88-261.06-160.88Z" transform="translate(287 161.01)"/></svg>