<svg xmlns="http://www.w3.org/2000/svg" viewBox="0 0 1943.11 1093.13"><defs><style>.a{opacity:0;fill:#ffffff;}.b{fill:#ffffff;}</style></defs><title>1800f_00230</title><path class="a" d="M-286.86,44c0-66,.13-131.93-.2-197.89,0-6.58,1.86-7.16,7.6-7.15q318.08.24,636.14.14c10.33,15.95,22.7,30.37,34.17,45.47,13.93,18.33,26.29,37.67,28.88,61a382.35,382.35,0,0,1-2.4,105.05c-2.92,17.59-13.22,23.91-30.64,20.27C371.51,67.7,358.32,60.36,346.16,51,316,27.8,292.23-1.41,269.72-31.74c-9.93-13.38-18.75-27.61-31.2-39-21.32-19.53-48.25-13-58,14.16-5.7,15.91-5.09,32.32-3.74,48.74,2,24.93,5.11,49.78,4.15,74.89a91.53,91.53,0,0,1-6.68,31c-9,22.25-23.88,40.33-40.29,57.35C93,197.79,43.51,228.89-5.85,260.16c-35.22,22.32-72.3,41.65-106.24,66-18.95,13.6-37.07,28.2-50.17,47.91-9.5,14.3-8.24,26.67,3.72,39.06A145.83,145.83,0,0,0-105.81,448c46.4,18,94.81,22.73,143.94,19a917.22,917.22,0,0,0,194.1-36.48c25.87-7.77,51.78-15.84,78.88-18.32,24.19-2.22,48.51-1.47,72.76-2.47,23.64-1,45-8.34,63.31-24,18.9-16.15,31.68-36.54,41.62-59,12.81-28.87,18.87-59.67,25.63-90.27,1.09-4.93,2.38-9.82,3.42-14.76,5.16-24.46,20.19-38.9,44-46.2,42.44-13.05,76.09-37.18,97.94-77.29,15.81-29,39.84-51.41,66.21-71.11a53.53,53.53,0,0,1,9.85-5.63c11.41-5.16,20.29-3.25,28.73,5.95,4.86,5.3,8.11,11.59,10.81,18.17a174.17,174.17,0,0,1,10.73,38.64c3,18.46,6,36.92,8,55.5,4.24,39.73,25.55,69.36,54,95.36,19.77,18.08,39.83,35.92,57.15,56.51a197.63,197.63,0,0,0,24.93,25.42c22.22,18.39,48.84,25.82,76.51,30.69,15.91,2.8,32.24,3.47,47.62,8.93,12.62,4.47,14.52,11.55,5.59,21.52a128.92,128.92,0,0,1-14.43,13.39,335.19,335.19,0,0,1-34.83,24.29c-40.33,25.16-81.62,48.8-120.42,76.36-15.65,11.11-32.2,21.13-45.79,34.9-14.77,15-17.38,30.85-8.89,50,5.35,12.06,12.52,23.11,19.28,34.37,18.84,31.35,31.52,64.5,29.69,101.83-1,20-4.78,39.61-8,59.31-5.38,32.82-7.41,65.74-4.2,99,2,20.45,6.88,40.29,11,60.31H510c.24-22.8-7.87-43.08-19.38-62.13-19.08-31.58-43.22-59.13-69.71-84.6-9.81-9.43-20.15-18.42-32.78-24.23-16.53-7.61-30.56-3.12-38.83,13-11.43,22.26-8.73,44.68.74,66.56,14.61,33.72,39.65,59.44,66.16,83.89,2.57,2.37,5.74,4.16,7.29,7.52H-3a15.35,15.35,0,0,0,1.18-2.79c10.53-51.56,32.46-98,62.15-141.23,11.86-17.26,23-35.21,29.32-55.45,10.7-34.19,11.86-69.6,11.43-105-.34-27.88-14.39-49-37.25-64.22-58-38.58-121.58-57.21-191.52-52.79-30.86,1.95-61.64,1.59-92-5.37-16.25-3.72-32.69-7.14-47.06-16.19-14.08-8.87-18.23-19.84-13.39-35.69,2.43-7.94,5.92-15.57,8.93-23.34,4.26-11,7.67-22.19,3.7-33.9a497.2,497.2,0,0,0-19.33-48.42V77.41A102.78,102.78,0,0,0-286.86,44Z" transform="translate(287.06 161.02)"/><path class="b" d="M883.35,931.92c-4.15-20-9.05-39.86-11-60.31-3.21-33.22-1.18-66.14,4.2-99,3.22-19.7,7-39.33,8-59.31,1.83-37.33-10.85-70.48-29.69-101.83-6.76-11.26-13.93-22.31-19.28-34.37-8.49-19.11-5.88-35,8.89-50,13.59-13.77,30.14-23.79,45.79-34.9,38.8-27.56,80.09-51.2,120.42-76.36a335.19,335.19,0,0,0,34.83-24.29,128.92,128.92,0,0,0,14.43-13.39c8.93-10,7-17.05-5.59-21.52-15.38-5.46-31.71-6.13-47.62-8.93-27.67-4.87-54.29-12.3-76.51-30.69a197.63,197.63,0,0,1-24.93-25.42c-17.32-20.59-37.38-38.43-57.15-56.51-28.45-26-49.76-55.63-54-95.36-2-18.58-5.07-37-8-55.5a174.17,174.17,0,0,0-10.73-38.64c-2.7-6.58-6-12.87-10.81-18.17-8.44-9.2-17.32-11.11-28.73-5.95A53.53,53.53,0,0,0,726,27.18c-26.37,19.7-50.4,42.08-66.21,71.11-21.85,40.11-55.5,64.24-97.94,77.29-23.77,7.3-38.8,21.74-44,46.2-1,4.94-2.33,9.83-3.42,14.76-6.76,30.6-12.82,61.4-25.63,90.27-9.94,22.42-22.72,42.81-41.62,59-18.28,15.62-39.67,23-63.31,24-24.25,1-48.57.25-72.76,2.47-27.1,2.48-53,10.55-78.88,18.32A917.22,917.22,0,0,1,38.13,467c-49.13,3.77-97.54-.94-143.94-19a145.83,145.83,0,0,1-52.73-34.9c-12-12.39-13.22-24.76-3.72-39.06,13.1-19.71,31.22-34.31,50.17-47.91,33.94-24.36,71-43.69,106.24-66C43.51,228.89,93,197.79,134,155.33c16.41-17,31.33-35.1,40.29-57.35A91.53,91.53,0,0,0,180.92,67c1-25.11-2.11-50-4.15-74.89-1.35-16.42-2-32.83,3.74-48.74,9.76-27.2,36.69-33.69,58-14.16,12.45,11.41,21.27,25.64,31.2,39C292.23-1.41,316,27.8,346.16,51c12.16,9.34,25.35,16.68,40.53,19.86,17.42,3.64,27.72-2.68,30.64-20.27a382.35,382.35,0,0,0,2.4-105c-2.59-23.3-15-42.64-28.88-61-11.47-15.1-23.84-29.52-34.17-45.47H933.43c5.39,9.18,13.64,16,20,24.45,25.11,33.64,48.23,68.67,71.94,103.28,24.35,35.54,51.85,67.85,89.23,90.55,32.64,19.83,67.26,32.73,106.14,30.42,24.07-1.43,47.49-6.46,70.42-13.95s44.53-17.9,67.74-24.34c19.65-5.45,39.42-9.76,59.78-6.33,30.53,5.14,53.36,22.73,72,46.55,12.42,15.84,20.65,34.12,30.15,51.64,10.37,19.15,25.3,31.29,47.53,33,16.2,1.22,32.36.78,48.34-2.34,13.09-2.56,26.13-5.39,39.2-8.1v230.7c-11,34.41-7.67,68.81,0,103.21V657.2c-1.92,1.5-2.37,3.81-3.25,5.88-11.55,27.09-18.57,55.56-25.48,84.07-3.09,12.73-4.52,26-10.74,37.8-8.65,16.45-22.4,22.74-40.46,18.53-14.61-3.4-27.27-10.86-38.9-19.87a722.36,722.36,0,0,1-112-108.57c-23.61-28.28-38.21-60.6-42.7-97.24-7.64-62.26-18.7-123.95-32-185.21-7.22-33.4-7.37-66.09,3.11-98.76a211.37,211.37,0,0,0,5.71-24.34c5.31-27.61-6.76-45.45-34.34-50.36-9.23-1.65-18.83-2.11-27.89.57-53.7,15.88-93,47.75-111.46,102.11a33.5,33.5,0,0,0,1.74,26.53,186.63,186.63,0,0,0,9.31,17.37c15.73,24.77,20.37,51.13,13.46,79.85-8.07,33.56-21.3,65.31-32.76,97.7-12.66,35.76-30.83,67.9-57.17,95.55-33.06,34.7-58.53,74.67-79.29,117.8-17.28,35.94-23.23,73.22-17,112.82,3.24,20.66,6.36,41.46,6.73,62.49Z" transform="translate(287.06 161.02)"/><path class="a" d="M1030.57,931.92c-.37-21-3.49-41.83-6.73-62.49-6.21-39.6-.26-76.88,17-112.82,20.76-43.13,46.23-83.1,79.29-117.8,26.34-27.65,44.51-59.79,57.17-95.55,11.46-32.39,24.69-64.14,32.76-97.7,6.91-28.72,2.27-55.08-13.46-79.85a186.63,186.63,0,0,1-9.31-17.37,33.5,33.5,0,0,1-1.74-26.53c18.5-54.36,57.76-86.23,111.46-102.11,9.06-2.68,18.66-2.22,27.89-.57,27.58,4.91,39.65,22.75,34.34,50.36a211.37,211.37,0,0,1-5.71,24.34c-10.48,32.67-10.33,65.36-3.11,98.76,13.25,61.26,24.31,123,32,185.21,4.49,36.64,19.09,69,42.7,97.24a722.36,722.36,0,0,0,112,108.57c11.63,9,24.29,16.47,38.9,19.87,18.06,4.21,31.81-2.08,40.46-18.53,6.22-11.85,7.65-25.07,10.74-37.8,6.91-28.51,13.93-57,25.48-84.07.88-2.07,1.33-4.38,3.25-5.88q0,134.32.14,268.65c0,5.19-1,6.22-6.22,6.21Q1340.21,931.81,1030.57,931.92Z" transform="translate(287.06 161.02)"/><path class="a" d="M1655.9,163.92c-13.07,2.71-26.11,5.54-39.2,8.1-16,3.12-32.14,3.56-48.34,2.34-22.23-1.68-37.16-13.82-47.53-33-9.5-17.52-17.73-35.8-30.15-51.64-18.68-23.82-41.51-41.41-72-46.55-20.36-3.43-40.13.88-59.78,6.33-23.21,6.44-44.92,16.89-67.74,24.34s-46.35,12.52-70.42,13.95c-38.88,2.31-73.5-10.59-106.14-30.42-37.38-22.7-64.88-55-89.23-90.55-23.71-34.61-46.83-69.64-71.94-103.28-6.32-8.45-14.57-15.27-20-24.45H1485.9c5,9.34,10.28,18.56,15,28,17.78,35.44,25.53,73.9,33.41,112.29,8.74,42.61,25.49,80.92,58.67,110.5,19,16.94,40.85,29.67,62.89,42.11Z" transform="translate(287.06 161.02)"/><path class="b" d="M-286.86,347.57A497.2,497.2,0,0,1-267.53,396c4,11.71.56,22.93-3.7,33.9-3,7.77-6.5,15.4-8.93,23.34-4.84,15.85-.69,26.82,13.39,35.69,14.37,9.05,30.81,12.47,47.06,16.19,30.34,7,61.12,7.32,92,5.37,69.94-4.42,133.5,14.21,191.52,52.79,22.86,15.21,36.91,36.34,37.25,64.22.43,35.36-.73,70.77-11.43,105-6.34,20.24-17.46,38.19-29.32,55.45C30.6,831.11,8.67,877.57-1.86,929.13A15.35,15.35,0,0,1-3,931.92H-180.62a17.24,17.24,0,0,0,.93-2.88c6.22-44.3,9.48-88.82,7.77-133.55-.87-22.59-9.17-42.15-27.63-56.61-11.45-9-24.13-15.6-37.47-21.07-16.52-6.78-32.66-14.53-49.84-19.63Z" transform="translate(287.06 161.02)"/><path class="b" d="M1655.9,132.05c-22-12.44-43.89-25.17-62.89-42.11-33.18-29.58-49.93-67.89-58.67-110.5-7.88-38.39-15.63-76.85-33.41-112.29-4.75-9.47-10-18.69-15-28,54.9,0,109.79.07,164.68-.13,4.53,0,5.45.91,5.44,5.44Q1655.78-11.77,1655.9,132.05Z" transform="translate(287.06 161.02)"/><path class="a" d="M-286.86,698.18c17.18,5.1,33.32,12.85,49.84,19.63,13.34,5.47,26,12.1,37.47,21.07,18.46,14.46,26.76,34,27.63,56.61,1.71,44.73-1.55,89.25-7.77,133.55a17.24,17.24,0,0,1-.93,2.88c-33.31,0-66.63-.2-99.94.19-5.88.07-6.43-1.7-6.42-6.77Q-286.73,811.76-286.86,698.18Z" transform="translate(287.06 161.02)"/><path class="b" d="M423.46,931.92c-1.55-3.36-4.72-5.15-7.29-7.52C389.66,900,364.62,874.23,350,840.51c-9.47-21.88-12.17-44.3-.74-66.56,8.27-16.11,22.3-20.6,38.83-13,12.63,5.81,23,14.8,32.78,24.23,26.49,25.47,50.63,53,69.71,84.6,11.51,19.05,19.62,39.33,19.38,62.13Z" transform="translate(287.06 161.02)"/><path class="a" d="M1655.9,497.83c-7.67-34.4-11-68.8,0-103.21Z" transform="translate(287.06 161.02)"/><path class="b" d="M-286.86,44a102.78,102.78,0,0,1,0,33.39Z" transform="translate(287.06 161.02)"/></svg>