<svg xmlns="http://www.w3.org/2000/svg" viewBox="0 0 1943.05 1093.14"><defs><style>.a{opacity:0;fill:#ffffff;}.b{fill:#ffffff;}</style></defs><title>1800f_00319</title><path class="a" d="M-286.86,252V197.31c4.25-4.56,5.33-10.72,7.91-16.1C-262,145.82-239,114.38-214.81,83.87c28.84-36.35,51.32-75.54,61-121.49a174.06,174.06,0,0,1,12.93-38.77c10.18-21.45,24.32-28.2,47.56-22.78,18.21,4.24,34.6,12.7,50.47,22.2,22.5,13.48,41.53,30,52.2,55.17C16.51-4.94,31,4.54,48.51,9c21.42,5.46,43.22,4.39,64.86,2.25,38.7-3.82,77.31-8.49,116-12.68,50.06-5.43,99.75-13.08,147.67-29A2134.56,2134.56,0,0,0,603.92-120c5.79-2.69,11.58-5,18.15-4.58,7.72.46,12.16,4.61,12.45,12.35.15,4.29-.22,8.59-.32,12.89-.27,11.52,4.95,16.91,16.71,17.52,11.56.6,21.83-3.4,31.79-8.61,31.61-16.55,54.47-43.18,78.63-68.3.45-.46.41-1.4.59-2.12h449.27c1.15,2.12,3.44,2,5.3,2.45,17.38,4.33,34.69,9.11,52.23,12.68,58.27,11.86,115.22,28.14,170.59,49.87,19.73,7.75,36.57,18.45,46.82,38.33,7.2,13.95,17.74,25.55,32,33.37,21.3,11.64,43.68,10.35,66.38,6.57,17.49-2.91,33.4-.74,47.29,11.77,9.1,8.19,16.42,17.73,24.06,27.09V529.71c-5.92,1.22-9,6.25-12.75,10.08-19.35,19.53-33.05,43.36-49.21,65.33-15.15,20.61-30.75,40.78-51.83,55.94-16.47,11.84-33.56,14.46-51.82,4.4-4.43-2.44-9-4.69-13.37-7.17-17.19-9.65-34.18-19.7-51.56-29-76.22-40.76-121.56-102.92-132.62-189.36-2.46-19.27-5.5-38.53-15.41-55.91-11.51-20.16-29.95-28.47-52.51-23-18.37,4.42-33.62,14.85-48.74,25.49-16.52,11.64-31.89,24.94-49.6,34.88-23.66,13.29-42.5,11-62.21-7.49-3.88-3.63-7.67-7.35-11.48-11.05-29.13-28.32-62.74-48.44-103.1-56-34.79-6.51-67.12-1.69-94.4,22.7-11.11,9.93-21.37,20.81-31.91,31.37-19.82,19.87-21.71,45.34-5.15,67.9,11.35,15.48,26.82,25.9,43.34,35,21.15,11.59,43.82,19.63,66.52,27.46,28.85,9.94,50.62,27.9,64.81,55,6.92,13.21,14.08,26.29,21.21,39.4,21.31,39.21,48.45,73,89.69,92.75,28.27,13.51,56.6,27,86,38,24.78,9.29,50.32,15.08,76.81,16.32,34.84,1.62,69.71,2.91,104.54,4.82,13.33.72,26.82,1.24,39.74,5.2,10.45,3.21,12.4,9.45,5.94,18.26a55.4,55.4,0,0,1-11.39,11.08c-28.78,21.9-62,33.82-96.62,42.12-25,6-50.39,10.8-75.6,16.14-36.26,7.67-69,24.46-102.26,39.75-15.35,7-31.17,13.13-45.73,21.85H-16.7c-.09-4.79.11-9.61-.33-14.37A806.67,806.67,0,0,0-78,675.41c-18-42.56-37.08-84.75-50.21-129.17-10.38-35.1-19.33-70.62-29.54-105.78-12-41.41-30.15-79.75-58.61-112.75C-238.95,301.57-267,280.54-286.86,252Z" transform="translate(287.01 161.03)"/><path class="b" d="M1085.21,931.92c14.56-8.72,30.38-14.8,45.73-21.85,33.28-15.29,66-32.08,102.26-39.75,25.21-5.34,50.55-10.15,75.6-16.14,34.63-8.3,67.84-20.22,96.62-42.12A55.4,55.4,0,0,0,1416.81,801c6.46-8.81,4.51-15.05-5.94-18.26-12.92-4-26.41-4.48-39.74-5.2-34.83-1.91-69.7-3.2-104.54-4.82-26.49-1.24-52-7-76.81-16.32-29.38-11-57.71-24.51-86-38-41.24-19.72-68.38-53.54-89.69-92.75-7.13-13.11-14.29-26.19-21.21-39.4-14.19-27.12-36-45.08-64.81-55-22.7-7.83-45.37-15.87-66.52-27.46-16.52-9.05-32-19.47-43.34-35-16.56-22.56-14.67-48,5.15-67.9,10.54-10.56,20.8-21.44,31.91-31.37,27.28-24.39,59.61-29.21,94.4-22.7,40.36,7.56,74,27.68,103.1,56,3.81,3.7,7.6,7.42,11.48,11.05,19.71,18.46,38.55,20.78,62.21,7.49,17.71-9.94,33.08-23.24,49.6-34.88,15.12-10.64,30.37-21.07,48.74-25.49,22.56-5.43,41,2.88,52.51,23,9.91,17.38,13,36.64,15.41,55.91,11.06,86.44,56.4,148.6,132.62,189.36,17.38,9.3,34.37,19.35,51.56,29,4.41,2.48,8.94,4.73,13.37,7.17,18.26,10.06,35.35,7.44,51.82-4.4,21.08-15.16,36.68-35.33,51.83-55.94,16.16-22,29.86-45.8,49.21-65.33,3.79-3.83,6.83-8.86,12.75-10.08q0,198.06.14,396.14c0,5.19-1,6.22-6.22,6.21Q1367.52,931.81,1085.21,931.92Z" transform="translate(287.01 161.03)"/><path class="b" d="M761.92-160.88c-.18.72-.14,1.66-.59,2.12-24.16,25.12-47,51.75-78.63,68.3-10,5.21-20.23,9.21-31.79,8.61-11.76-.61-17-6-16.71-17.52.1-4.3.47-8.6.32-12.89-.29-7.74-4.73-11.89-12.45-12.35-6.57-.39-12.36,1.89-18.15,4.58A2134.56,2134.56,0,0,1,377-30.39c-47.92,15.89-97.61,23.54-147.67,29-38.65,4.19-77.26,8.86-116,12.68C91.73,13.4,69.93,14.47,48.51,9,31,4.54,16.51-4.94,9.34-21.8-1.33-46.93-20.36-63.49-42.86-77c-15.87-9.5-32.26-18-50.47-22.2-23.24-5.42-37.38,1.33-47.56,22.78a174.06,174.06,0,0,0-12.93,38.77c-9.67,45.95-32.15,85.14-61,121.49-24.21,30.51-47.2,61.95-64.14,97.34-2.58,5.38-3.66,11.54-7.91,16.1q0-176.05-.15-352.12c0-5.2,1-6.22,6.22-6.22Q240.57-160.79,761.92-160.88Z" transform="translate(287.01 161.03)"/><path class="b" d="M-286.86,252c19.9,28.59,47.91,49.62,70.46,75.76,28.46,33,46.58,71.34,58.61,112.75,10.21,35.16,19.16,70.68,29.54,105.78C-115.12,590.66-96,632.85-78,675.41A806.67,806.67,0,0,1-17,917.55c.44,4.76.24,9.58.33,14.37-87.7,0-175.41-.1-263.12.19-6.5,0-7.19-1.75-7.19-7.56Q-286.74,588.25-286.86,252Z" transform="translate(287.01 161.03)"/><path class="b" d="M1655.9,21.25c-7.64-9.36-15-18.9-24.06-27.09C1618-18.35,1602-20.52,1584.55-17.61c-22.7,3.78-45.08,5.07-66.38-6.57-14.3-7.82-24.84-19.42-32-33.37-10.25-19.88-27.09-30.58-46.82-38.33-55.37-21.73-112.32-38-170.59-49.87-17.54-3.57-34.85-8.35-52.23-12.68-1.86-.46-4.15-.33-5.3-2.45q219.32,0,438.63-.15c5.2,0,6.25,1,6.23,6.22C1655.81-96.12,1655.9-37.44,1655.9,21.25Z" transform="translate(287.01 161.03)"/></svg>