<svg xmlns="http://www.w3.org/2000/svg" viewBox="0 0 1943.64 1093.69"><defs><style>.a{opacity:0;fill:#ffffff;}.b{fill:#ffffff;}</style></defs><title>1800f_00338</title><path class="a" d="M-286.86,629.88v-129C-222,486.6-157,472.75-91.25,463.07c33.51-4.93,65.15-14.13,92.16-35.69,18.45-14.73,34.67-31.74,50.46-49.18,18.16-20,35.53-40.83,54.92-59.73,18.75-18.29,39.43-33.19,66.27-37.24,20.47-3.08,40.87-1.13,61.27.42,30.24,2.29,60.62,6.06,90.78,1.46,46.54-7.09,91.95-19.37,136.49-34.52,28.44-9.67,51.89-26.76,65.48-54.3,11.89-24.08,25.84-46.93,38.86-70.34,13.44-24.13,21.83-49.62,18.6-77.6-2.35-20.33-4.3-40.67-6-61.06-.76-9-1.8-18.11-6.44-26.31-4.54-8-10.21-10.52-18.93-7.74a85.42,85.42,0,0,0-19.07,9.22C492.25-14,449.24,8.32,405.65,29.79,350.38,57,291.82,63.62,231.6,62.05,203.05,61.31,184,45.86,173,20.12c-12.33-28.66-12-58.56-8.16-88.72,4.05-32.12,14.53-62.41,26.45-92.28H928.88a9,9,0,0,1,.11,2.25c-5.48,25.89-3.59,51.8-.24,77.72,2.07,16,4.28,32,2.3,48.32-2.68,22.06-10.31,42.68-17.49,63.46-5.53,16-12.31,31.72-13.6,48.8-1.69,22.3,10.8,33.06,32.78,29.1,13.17-2.36,24.89-8.21,36.42-14.62,12.37-6.88,24-15,36.85-21.1,15.91-7.6,31.49-7.84,47.18.93,10.19,5.69,19.75,12.29,29.32,18.89a89.18,89.18,0,0,0,40.73,15.28c16,1.93,32.12,3.93,48,6.82,44.06,8,87,20.66,130.34,31.74,50,12.78,100.29,23.88,152.09,26.34,24.22,1.15,48.57.69,72.59,4.68,20.9,3.47,41.28,8.72,57.27,23.77,16.3,15.34,12.23,32.95-9.13,39.81-9.6,3.09-19.58,5-29.32,7.68-22.09,6.07-38.88,18.83-49.46,39.43-4.28,8.34-8.56,16.69-11.45,25.6a513.91,513.91,0,0,1-64.11,130.2,859.19,859.19,0,0,0-87.82,166.83c-23.21,58.78-47.43,117.24-58.26,180-8.13,47.09-14,94.16,2.45,140.84H-50.09c-4.1-6.68-8.29-13.3-12.29-20-15.42-26-25.07-54.66-37.54-82-14.2-31.13-29-61.92-50.73-88.64C-187.28,696.11-232.38,661-282,631.2-283.45,630.3-284.91,629.14-286.86,629.88Z" transform="translate(287.01 161.04)"/><path class="b" d="M191.24-160.88c-11.92,29.87-22.4,60.16-26.45,92.28C161-38.44,160.62-8.54,173,20.12,184,45.86,203.05,61.31,231.6,62.05c60.22,1.57,118.78-5,174-32.26C449.24,8.32,492.25-14,533.58-39.54a85.42,85.42,0,0,1,19.07-9.22C561.37-51.54,567-49,571.58-41c4.64,8.2,5.68,17.33,6.44,26.31,1.72,20.39,3.67,40.73,6,61.06,3.23,28-5.16,53.47-18.6,77.6-13,23.41-27,46.26-38.86,70.34-13.59,27.54-37,44.63-65.48,54.3-44.54,15.15-90,27.43-136.49,34.52-30.16,4.6-60.54.83-90.78-1.46-20.4-1.55-40.8-3.5-61.27-.42-26.84,4-47.52,18.95-66.27,37.24-19.39,18.9-36.76,39.69-54.92,59.73-15.79,17.44-32,34.45-50.46,49.18-27,21.56-58.65,30.76-92.16,35.69C-157,472.75-222,486.6-286.86,500.87q0-327.63-.13-655.24c0-5.31.88-6.68,6.52-6.67Q-44.62-160.74,191.24-160.88Z" transform="translate(287.01 161.04)"/><path class="b" d="M1276.45,931.92c-16.48-46.68-10.58-93.75-2.45-140.84,10.83-62.79,35-121.25,58.26-180a859.19,859.19,0,0,1,87.82-166.83A513.91,513.91,0,0,0,1484.19,314c2.89-8.91,7.17-17.26,11.45-25.6,10.58-20.6,27.37-33.36,49.46-39.43,9.74-2.68,19.72-4.59,29.32-7.68,21.36-6.86,25.43-24.47,9.13-39.81-16-15.05-36.37-20.3-57.27-23.77-24-4-48.37-3.53-72.59-4.68-51.8-2.46-102.09-13.56-152.09-26.34-43.33-11.08-86.28-23.73-130.34-31.74-15.9-2.89-32-4.89-48-6.82a89.18,89.18,0,0,1-40.73-15.28c-9.57-6.6-19.13-13.2-29.32-18.89-15.69-8.77-31.27-8.53-47.18-.93-12.81,6.13-24.48,14.22-36.85,21.1-11.53,6.41-23.25,12.26-36.42,14.62-22,4-34.47-6.8-32.78-29.1,1.29-17.08,8.07-32.81,13.6-48.8,7.18-20.78,14.81-41.4,17.49-63.46,2-16.29-.23-32.28-2.3-48.32-3.35-25.92-5.24-51.83.24-77.72a9,9,0,0,0-.11-2.25q360.09,0,720.19-.14c5.69,0,7,1.28,7,7q-.27,239.43-.14,478.86c-3.59-1.93-4.62-5.82-6.71-8.87-8.6-12.52-17-25.24-29.47-34.35-12.69-9.26-22.12-8.72-32.94,2.42-17.63,18.14-26.69,40.18-28.08,65.35-1,18.33,4.33,35.57,10.45,52.45,12.51,34.46,12.8,68.21-4,101.4-7.65,15.11-15.05,30.36-23,45.31-29.8,56-60.41,111.62-87.19,169.19-18.78,40.37-29.78,82.12-22.1,127.12,4.29,25.16,11.47,40.17,42.52,43.32,26.59,2.69,53.14,5.81,78.74,14.54,33,11.24,66.44,19.72,101.8,14,0,5.06,2,12.09-.56,14.62s-9.56.56-14.62.56Z" transform="translate(287.01 161.04)"/><path class="a" d="M1655.9,916.74c-35.36,5.67-68.85-2.81-101.8-14-25.6-8.73-52.15-11.85-78.74-14.54-31-3.15-38.23-18.16-42.52-43.32-7.68-45,3.32-86.75,22.1-127.12,26.78-57.57,57.39-113.17,87.19-169.19,8-14.95,15.36-30.2,23-45.31,16.81-33.19,16.52-66.94,4-101.4-6.12-16.88-11.46-34.12-10.45-52.45,1.39-25.17,10.45-47.21,28.08-65.35,10.82-11.14,20.25-11.68,32.94-2.42,12.49,9.11,20.87,21.83,29.47,34.35,2.09,3.05,3.12,6.94,6.71,8.87Z" transform="translate(287.01 161.04)"/><path class="b" d="M-286.86,629.88c1.95-.74,3.41.42,4.9,1.32,49.58,29.75,94.68,64.91,131.31,110C-129,768-114.12,798.74-99.92,829.87c12.47,27.35,22.12,56,37.54,82,4,6.74,8.19,13.36,12.29,20q-115.35,0-230.7.15c-5.2,0-6.23-1-6.22-6.22Q-286.71,777.86-286.86,629.88Z" transform="translate(287.01 161.04)"/></svg>