<svg xmlns="http://www.w3.org/2000/svg" viewBox="0 0 1943.05 1093.09"><defs><style>.a{opacity:0;fill:#ffffff;}.b{fill:#ffffff;}</style></defs><title>1800f_00126</title><path class="a" d="M-286.86,431.05V180.62c27.37-3.86,54.85-4.29,82.44-3.24C-141.64,179.77-80,192-17.63,198.22c24.91,2.48,49.81,6.18,74.86,4.51C109.61,199.24,159,184.3,206,161.32c34.84-17,66.88-38.84,100.33-58.26,24.7-14.34,49.16-29.17,76.32-38.71,23.57-8.29,46.17-6.67,68,5.47a208.94,208.94,0,0,1,53.53,41.94c34.4,37.75,76.71,51.77,127.19,45.59,35.87-4.4,71.38-11,107.22-15.46,32.18-4,64.4-6,96.6-.47,26.74,4.6,52.15,14.23,78.23,21.34a568.51,568.51,0,0,1,104.1,39.34c19.8,9.84,31.08,25.57,34.49,47.63,3.51,22.76,4.44,45.78,8,68.5,6.46,41,21.55,79.44,34.66,118.46a227.89,227.89,0,0,0,24.85,51c12,18.63,25.74,35.73,45.61,46.75,18.44,10.24,36.4,7.68,51.23-7.18,10.7-10.73,16.4-24.19,20.7-38.32a852.61,852.61,0,0,1,32.73-90.53c29.7-68.65,61.84-136.21,84.06-208,10.75-34.72,33.56-61.85,63.79-82.57,19.91-13.65,41.57-24,62.86-35.1,17.27-9,34.6-17.95,53.07-24.29,16.13-5.53,28.74-1.13,38.15,13a59.46,59.46,0,0,1,6.76,12.68c16.17,44.89,22.64,91.76,25.38,139,3.18,54.64-8,107.64-23.68,159.73-22.39,74.15-37,149.63-38.27,227.32-.65,40.44-1.61,80.86,5.84,121,8.25,44.46,31.17,77.21,72.88,96,11.76,5.29,23.45,10.73,35.17,16.1,0,31.12-.12,62.23.13,93.34,0,4.54-.92,5.45-5.45,5.44q-160.5-.24-321-.12H481.14c-.94-2.58.1-5,.69-7.4,7.16-29.5,5.37-58.59-3.9-87.36-8.13-25.25-23.44-42.75-50.83-47.15a147.05,147.05,0,0,0-18.76-2.26c-23-.68-43.43-7.62-61.56-22-15.44-12.26-29.29-26.28-44.4-38.88-10.09-8.42-20.32-16.61-32.9-21.21s-21.42-.38-25.16,12.29c-2.13,7.19-1.79,14.47-.29,21.71,5.1,24.54,18.56,45.14,31.56,65.87,16.7,26.6,32.16,53.76,40.57,84.32,3.81,13.83,7.75,27.65,8.64,42.09q-302.42,0-604.83.14c-5.69,0-7-1.28-7-7q.33-122.57.15-245.12c3.95-9.54,8-19.06,11.84-28.63,15.49-38.13,32.09-75.89,40.13-116.56,5.07-25.66,7.9-51.43,1.1-77.26-3.94-15-12.59-24.74-29-26.87C-270.94,429.58-278.84,430.52-286.86,431.05Z" transform="translate(287.01 161.03)"/><path class="b" d="M1655.9,833.26c-11.72-5.37-23.41-10.81-35.17-16.1-41.71-18.8-64.63-51.55-72.88-96-7.45-40.14-6.49-80.56-5.84-121,1.24-77.69,15.88-153.17,38.27-227.32C1596,320.74,1607.14,267.74,1604,213.1c-2.74-47.2-9.21-94.07-25.38-139a59.46,59.46,0,0,0-6.76-12.68c-9.41-14.08-22-18.48-38.15-13-18.47,6.34-35.8,15.31-53.07,24.29-21.29,11.07-42.95,21.45-62.86,35.1-30.23,20.72-53,47.85-63.79,82.57-22.22,71.77-54.36,139.33-84.06,208A852.61,852.61,0,0,0,1237.16,489c-4.3,14.13-10,27.59-20.7,38.32-14.83,14.86-32.79,17.42-51.23,7.18-19.87-11-33.57-28.12-45.61-46.75a227.89,227.89,0,0,1-24.85-51c-13.11-39-28.2-77.47-34.66-118.46-3.59-22.72-4.52-45.74-8-68.5-3.41-22.06-14.69-37.79-34.49-47.63a568.51,568.51,0,0,0-104.1-39.34C887.41,155.65,862,146,835.26,141.42c-32.2-5.54-64.42-3.51-96.6.47-35.84,4.43-71.35,11.06-107.22,15.46-50.48,6.18-92.79-7.84-127.19-45.59a208.94,208.94,0,0,0-53.53-41.94c-21.87-12.14-44.47-13.76-68-5.47-27.16,9.54-51.62,24.37-76.32,38.71-33.45,19.42-65.49,41.25-100.33,58.26-47.05,23-96.42,37.92-148.8,41.41-25,1.67-49.95-2-74.86-4.51-62.34-6.2-124-18.45-186.79-20.84-27.59-1-55.07-.62-82.44,3.24V-25.8c21.63-9.36,41.62-21.52,60.61-35.4,26.05-19,52.47-37.7,74.72-61.34,10.22-10.86,19.29-22.67,21-38.34H33.39c2.5,6.85,8,11.54,12.59,16.78,12.59,14.39,27,26.66,44.71,34.38,21.37,9.28,39.26,5.54,53.85-11.8,10-11.84,17.48-25.31,23.93-39.36h1111c-11.14,6.41-22.14,12.89-31.77,21.63-29.8,27-54.7,58.06-76.12,92-19.35,30.65-37.24,62.06-46.1,97.58-4.64,18.61-8.26,37.53-8.26,56.84,0,12.08,4.93,16.29,17,15.82,8.26-.31,15.74-3.56,23.29-6.36,41.92-15.58,83.63-31.74,125.71-46.84,44.91-16.12,84.61-39.34,114.26-77.79,12.66-16.42,25.92-32.41,34.93-51.25,9.1-19,5.71-31.07-11.45-43.11-8.72-6.12-18.18-10.94-27.63-15.77q-41.78-21.36-83.55-42.75,170,0,340-.15c5.2,0,6.22,1,6.22,6.22Q1655.8,339.23,1655.9,833.26Z" transform="translate(287.01 161.03)"/><path class="a" d="M1309.84-160.88q41.78,21.38,83.55,42.75c9.45,4.83,18.91,9.65,27.63,15.77,17.16,12,20.55,24.09,11.45,43.11-9,18.84-22.27,34.83-34.93,51.25-29.65,38.45-69.35,61.67-114.26,77.79-42.08,15.1-83.79,31.26-125.71,46.84-7.55,2.8-15,6.05-23.29,6.36-12.11.47-17-3.74-17-15.82,0-19.31,3.62-38.23,8.26-56.84,8.86-35.52,26.75-66.93,46.1-97.58,21.42-33.94,46.32-65,76.12-92,9.63-8.74,20.63-15.22,31.77-21.63Z" transform="translate(287.01 161.03)"/><path class="b" d="M324.8,931.92c-.89-14.44-4.83-28.26-8.64-42.09-8.41-30.56-23.87-57.72-40.57-84.32-13-20.73-26.46-41.33-31.56-65.87-1.5-7.24-1.84-14.52.29-21.71,3.74-12.67,12.55-16.9,25.16-12.29s22.81,12.79,32.9,21.21c15.11,12.6,29,26.62,44.4,38.88,18.13,14.4,38.6,21.34,61.56,22A147.05,147.05,0,0,1,427.1,790c27.39,4.4,42.7,21.9,50.83,47.15,9.27,28.77,11.06,57.86,3.9,87.36-.59,2.42-1.63,4.82-.69,7.4Z" transform="translate(287.01 161.03)"/><path class="a" d="M-130.53-160.88c-1.71,15.67-10.78,27.48-21,38.34-22.25,23.64-48.67,42.3-74.72,61.34-19,13.88-39,26-60.61,35.4,0-43.4.08-86.79-.12-130.19,0-4.26.93-5,5.07-5C-231.45-160.82-181-160.88-130.53-160.88Z" transform="translate(287.01 161.03)"/><path class="b" d="M-286.86,431.05c8-.53,15.92-1.47,24.1-.4,16.38,2.13,25,11.89,29,26.87,6.8,25.83,4,51.6-1.1,77.26-8,40.67-24.64,78.43-40.13,116.56-3.88,9.57-7.89,19.09-11.84,28.63Z" transform="translate(287.01 161.03)"/><path class="a" d="M168.47-160.88c-6.45,14-14,27.52-23.93,39.36-14.59,17.34-32.48,21.08-53.85,11.8-17.76-7.72-32.12-20-44.71-34.38-4.59-5.24-10.09-9.93-12.59-16.78Z" transform="translate(287.01 161.03)"/></svg>