<svg xmlns="http://www.w3.org/2000/svg" viewBox="0 0 1943.11 1093.11"><defs><style>.a{opacity:0;fill:#ffffff;}.b{fill:#ffffff;}</style></defs><title>1800f_00180</title><path class="a" d="M-286.86,752.82V634.43c24-12.51,48.24-24.41,73.88-33.35,37.8-13.18,76.89-19.09,116.66-21.28,21.69-1.19,39.88-8.79,51.92-27.75,26.2-41.25,33.88-84.82,13.62-130.59-17-38.36-34.6-76.4-49.45-115.67-8.53-22.56-19.35-44.39-35.67-62.19-19.35-21.1-27.33-46.2-31.21-73.34-5-35-9.45-70.11-14.37-105.14C-165.34,37.67-159.37,13-142.14-9-109.59-50.4-66.93-71-14.4-72.79c32.56-1.1,65.22-1.83,97.42-7.63,61.11-11,116.57-34.58,164.32-74.93,1.8-1.51,4.66-2.39,4.61-5.53h889.42c-.33,2.4,1.58,3.59,2.85,5.07,32.93,38.33,59.59,80.52,76.68,128.2,18.15,50.65,47.86,92.75,89.94,126.16,34.51,27.4,66.6,57.45,98.57,87.73,43.14,40.87,86.36,81.67,142.45,105.5,19.36,8.22,21.53,17.5,14.65,37.46-.74,2.15-1.52,4.29-2.36,6.4-10.22,25.62-22.2,50.44-34.48,75.11-47,94.39-107,179.15-185.34,250.31-19.87,18.05-40.57,35.14-65,46.9-21.28,10.23-43.54,14.69-67,9.78-18.35-3.83-24.93-13.47-21-31.59,3.41-15.54,7.54-30.92,11.64-46.3,15.7-59-15-102.63-49.78-125.48-16.79-11-34.21-11.42-51.36-.69-10.71,6.7-21,14-31.57,21-17.21,11.32-35.07,12.84-54,4.11a224.56,224.56,0,0,1-47.49-29.68c-26-21.11-56.16-31.46-88.5-37-29.92-5.15-60.15-7.46-90.31-10.55-17.08-1.75-34.1-4.37-51.37-3.19-18.22,1.24-27.38,10.83-25.18,26.61a33.81,33.81,0,0,0,5.29,13.27c16,25.49,38.73,43.77,64,59.16,30.75,18.73,63.89,32.64,96.63,47.39C916.06,621.29,954,633,994.16,637c16.93,1.68,34.09,3.74,48.67,13.07a655.64,655.64,0,0,1,83.08,63.47c11.34,10.12,12.9,20,6.09,33.52-12.13,24.14-31.6,39.13-58.44,43.54-26.25,4.32-52.59,8.67-76.85,19.89-51.33,23.73-105.33,38.19-160.52,49.26-28.19,5.66-55,15.54-78.58,32.66-13.44,9.76-23.26,21.75-23,39.54H179.1c-3-2.95-7-2.34-10.55-3-18.16-3.32-36.23-6.94-53.36-14.1-15.44-6.45-25.84-17.36-29.76-33.92-1.23-5.16-2.72-10.3-3.46-15.53-6.73-47.92-25.72-90.45-54.9-128.92-17.86-23.54-34.48-48-51.66-72.09A111.79,111.79,0,0,0-41,645.57c-7.68-6.83-16.43-9.79-26.6-7-36,9.89-72.34,19-107.19,32.76-23.73,9.39-45.3,21.46-61.93,42A140.45,140.45,0,0,1-286.86,752.82Z" transform="translate(287.06 161.05)"/><path class="b" d="M734.6,931.92c-.25-17.79,9.57-29.78,23-39.54,23.58-17.12,50.39-27,78.58-32.66,55.19-11.07,109.19-25.53,160.52-49.26,24.26-11.22,50.6-15.57,76.85-19.89,26.84-4.41,46.31-19.4,58.44-43.54,6.81-13.56,5.25-23.4-6.09-33.52A655.64,655.64,0,0,0,1042.83,650c-14.58-9.33-31.74-11.39-48.67-13.07-40.18-4-78.1-15.68-114.82-32.21C846.6,590,813.46,576.1,782.71,557.37c-25.27-15.39-48-33.67-64-59.16a33.81,33.81,0,0,1-5.29-13.27c-2.2-15.78,7-25.37,25.18-26.61,17.27-1.18,34.29,1.44,51.37,3.19,30.16,3.09,60.39,5.4,90.31,10.55,32.34,5.56,62.51,15.91,88.5,37a224.56,224.56,0,0,0,47.49,29.68c18.91,8.73,36.77,7.21,54-4.11,10.55-6.95,20.86-14.28,31.57-21,17.15-10.73,34.57-10.32,51.36.69,34.81,22.85,65.48,66.45,49.78,125.48-4.1,15.38-8.23,30.76-11.64,46.3-4,18.12,2.62,27.76,21,31.59,23.5,4.91,45.76.45,67-9.78,24.43-11.76,45.13-28.85,65-46.9,78.33-71.16,138.36-155.92,185.34-250.31,12.28-24.67,24.26-49.49,34.48-75.11.84-2.11,1.62-4.25,2.36-6.4,6.88-20,4.71-29.24-14.65-37.46-56.09-23.83-99.31-64.63-142.45-105.5-32-30.28-64.06-60.33-98.57-87.73C1268.76,65.14,1239.05,23,1220.9-27.61c-17.09-47.68-43.75-89.87-76.68-128.2-1.27-1.48-3.18-2.67-2.85-5.07h211a135.79,135.79,0,0,0,.68,40.7c6.25,38.3,29.11,64.68,61.08,84.14,41.88,25.49,87.83,40.57,135.35,51.27,28.38,6.38,56.56,5.86,84.45-3.22,7.36-2.4,14-6.94,22-7.45q0,460.26.14,920.53c0,5.69-1.28,7-7,7Q1191.84,931.82,734.6,931.92Z" transform="translate(287.06 161.05)"/><path class="b" d="M252-160.88c.05,3.14-2.81,4-4.61,5.53C199.59-115,144.13-91.42,83-80.42c-32.2,5.8-64.86,6.53-97.42,7.63C-66.93-71-109.59-50.4-142.14-9c-17.23,21.94-23.2,46.63-19.34,74.08,4.92,35,9.37,70.12,14.37,105.14,3.88,27.14,11.86,52.24,31.21,73.34,16.32,17.8,27.14,39.63,35.67,62.19,14.85,39.27,32.47,77.31,49.45,115.67C-10.52,467.23-18.2,510.8-44.4,552.05c-12,19-30.23,26.56-51.92,27.75-39.77,2.19-78.86,8.1-116.66,21.28-25.64,8.94-49.89,20.84-73.88,33.35q0-394.39-.13-788.79c0-5.28.83-6.69,6.5-6.69Q-14.27-160.75,252-160.88Z" transform="translate(287.06 161.05)"/><path class="b" d="M-286.86,752.82a140.45,140.45,0,0,0,50.13-39.49c16.63-20.54,38.2-32.61,61.93-42,34.85-13.79,71.15-22.87,107.19-32.76,10.17-2.79,18.92.17,26.6,7a111.79,111.79,0,0,1,16.42,18.8c17.18,24.06,33.8,48.55,51.66,72.09,29.18,38.47,48.17,81,54.9,128.92.74,5.23,2.23,10.37,3.46,15.53,3.92,16.56,14.32,27.47,29.76,33.92,17.13,7.16,35.2,10.78,53.36,14.1,3.57.65,7.59,0,10.55,3q-229.29,0-458.59.14c-5.8,0-7.61-.66-7.57-7.18C-286.72,867.53-286.86,810.18-286.86,752.82Z" transform="translate(287.06 161.05)"/><path class="a" d="M1655.9,4.56c-8,.51-14.64,5.05-22,7.45-27.89,9.08-56.07,9.6-84.45,3.22C1501.93,4.53,1456-10.55,1414.1-36c-32-19.46-54.83-45.84-61.08-84.14a135.79,135.79,0,0,1-.68-40.7q148.74,0,297.48-.15c5.2,0,6.25,1,6.23,6.22C1655.8-101.69,1655.9-48.57,1655.9,4.56Z" transform="translate(287.06 161.05)"/></svg>