<svg xmlns="http://www.w3.org/2000/svg" viewBox="0 0 1943.08 1093.07"><defs><style>.a{opacity:0;fill:#ffffff;}.b{fill:#ffffff;}</style></defs><title>1800f_00124</title><path class="a" d="M-286.86,449.26V170c1.77-.09,3.54-.08,5.29-.29,45-5.33,89.85-3,134.71,1.42,37.81,3.76,74.53,13.77,112,19.44,24.26,3.66,48.53,7.22,73.07,7.77,29.44.67,57.62-6.49,85.46-15.2,45.68-14.31,87.51-36.87,129-60.08,42.39-23.7,85.19-46.57,129.09-67.39C409.94,42.32,436.73,43,463,60.53a275.12,275.12,0,0,1,51.23,43.66c16.25,17.89,36,30.1,60.17,34.25,20.44,3.52,40.85,1.28,61.2-1.11C682,131.89,728,123,774.79,121.24c34.36-1.28,68.13.86,100.94,12.4,26.46,9.3,53.24,17.69,79.77,26.8,21.77,7.47,43.35,15.46,64,25.82,14.49,7.28,23.39,18.79,27,34.63,2.15,9.46,2.26,19,2.76,28.63,1.27,24.21.32,48.53,4.79,72.56,5.94,31.91,19.53,61,31.92,90.64,10.58,25.25,22.15,50,39.06,71.74,11.91,15.33,25.15,29.22,44.26,35.59,15.6,5.19,30.39.61,40.87-12,7.26-8.75,11.72-18.83,14.93-29.58,13.88-46.56,29.47-92.5,50-136.59,23.9-51.2,44.37-103.49,56.72-158.92,10.54-47.31,40.48-76.07,88.41-85.86,32.44-6.63,64.57-14.44,95.64-26.3,22.5-8.59,37.14-2.35,48.2,19,6.31,12.2,10.27,25.3,13.43,38.59,8.32,34.88,18.23,69.54,15.75,106-3,44.16-12.53,87-26.25,128.94-19.82,60.64-32.53,122.55-32.88,186.68-.18,31.9,1.15,63.71,3.66,95.48,2,24.7,4.8,49.26,11.59,73.26,9.68,34.24,28.31,61.13,60.77,77.52,14.93,7.53,30.48,13.57,45.78,20.22,0,36.68-.11,73.36.13,110,0,4.54-.92,5.47-5.45,5.45-48.82-.21-97.64-.13-146.46-.13-15.18-5-30.36-3.75-45.54,0H475.06a25.34,25.34,0,0,1,.43-3.73c9.48-35.29,6.86-69.91-4.76-104.33-9.33-27.64-27.48-43.19-56.94-45.33A111.07,111.07,0,0,1,355,756.44c-14.19-10.5-27.88-21.69-41.88-32.45-12-9.23-23.86-18.75-38.84-23-12.6-3.57-22.87,1.91-26.46,14.44a51.57,51.57,0,0,0-1.89,11.92c-.89,18.85,4,36.6,10.69,53.84,11.88,30.6,24.55,60.88,36.41,91.49C300.48,892,307,911.6,311.14,931.92q-295.71,0-591.43.11c-5.11,0-6.76-.6-6.75-6.43q.38-144.06.18-288.13a7.1,7.1,0,0,0,1.41-1.73c11.9-31.7,24.25-63.29,31.08-96.58,4-19.59,6.58-39.47.6-59.23C-258.8,463.36-269.54,452.7-286.86,449.26Zm418.67,10.36c-1.13-7.19-5.21-11.85-11-15-4.31-2.35-5.69.55-5.12,4.15,1,6.7,5.37,11.27,11.16,14.32C130.91,465.23,131.58,462.29,131.81,459.62Z" transform="translate(287.04 161.03)"/><path class="b" d="M1655.9,816.57c-15.3-6.65-30.85-12.69-45.78-20.22-32.46-16.39-51.09-43.28-60.77-77.52-6.79-24-9.64-48.56-11.59-73.26-2.51-31.77-3.84-63.58-3.66-95.48.35-64.13,13.06-126,32.88-186.68,13.72-42,23.25-84.78,26.25-128.94,2.48-36.5-7.43-71.16-15.75-106-3.16-13.29-7.12-26.39-13.43-38.59-11.06-21.39-25.7-27.63-48.2-19-31.07,11.86-63.2,19.67-95.64,26.3-47.93,9.79-77.87,38.55-88.41,85.86-12.35,55.43-32.82,107.72-56.72,158.92-20.58,44.09-36.17,90-50,136.59-3.21,10.75-7.67,20.83-14.93,29.58-10.48,12.61-25.27,17.19-40.87,12-19.11-6.37-32.35-20.26-44.26-35.59-16.91-21.77-28.48-46.49-39.06-71.74-12.39-29.6-26-58.73-31.92-90.64-4.47-24-3.52-48.35-4.79-72.56-.5-9.59-.61-19.17-2.76-28.63-3.59-15.84-12.49-27.35-27-34.63-20.61-10.36-42.19-18.35-64-25.82-26.53-9.11-53.31-17.5-79.77-26.8-32.81-11.54-66.58-13.68-100.94-12.4C728,123,682,131.89,635.63,137.33c-20.35,2.39-40.76,4.63-61.2,1.11-24.14-4.15-43.92-16.36-60.17-34.25A275.12,275.12,0,0,0,463,60.53c-26.3-17.57-53.09-18.21-81.22-4.87-43.9,20.82-86.7,43.69-129.09,67.39-41.53,23.21-83.36,45.77-129,60.08-27.84,8.71-56,15.87-85.46,15.2-24.54-.55-48.81-4.11-73.07-7.77-37.48-5.67-74.2-15.68-112-19.44-44.86-4.46-89.74-6.75-134.71-1.42-1.75.21-3.52.2-5.29.29V-33.39c53.49-22.15,93.49-60.44,126.9-106.46,4.52-6.22,8.75-13,9.7-21H33.39c12.67,16.73,28,30.41,47.19,39.11,31.75,14.35,67.17-4.42,74.23-39.11h1109.5a210.21,210.21,0,0,0-38.22,35.43c-38.67,45.47-68.95,96.58-98.46,148.09C1114,46.43,1108,72.91,1107.89,100.42c-.05,11.87,7,17.52,18.73,15.81a97,97,0,0,0,21.24-5.47c34.12-13.32,68.93-24.76,103-38.25,47.85-18.94,90.83-44.05,120.61-87.81,11.51-16.91,24.46-32.89,31.82-52.27,5.7-15,2.44-26.46-9.78-36.51A148.88,148.88,0,0,0,1372.77-118c-22.79-13.06-44.13-28.33-66-42.86q171.51,0,343-.15c5.2,0,6.22,1,6.22,6.22Q1655.8,330.87,1655.9,816.57Z" transform="translate(287.04 161.03)"/><path class="a" d="M1306.81-160.88c21.83,14.53,43.17,29.8,66,42.86a148.88,148.88,0,0,1,20.74,13.94c12.22,10,15.48,21.53,9.78,36.51-7.36,19.38-20.31,35.36-31.82,52.27-29.78,43.76-72.76,68.87-120.61,87.81-34.07,13.49-68.88,24.93-103,38.25a97,97,0,0,1-21.24,5.47c-11.7,1.71-18.78-3.94-18.73-15.81.12-27.51,6.11-54,19.74-77.78,29.51-51.51,59.79-102.62,98.46-148.09a210.21,210.21,0,0,1,38.22-35.43Z" transform="translate(287.04 161.03)"/><path class="b" d="M311.14,931.92C307,911.6,300.48,892,293,872.67c-11.86-30.61-24.53-60.89-36.41-91.49-6.7-17.24-11.58-35-10.69-53.84a51.57,51.57,0,0,1,1.89-11.92c3.59-12.53,13.86-18,26.46-14.44,15,4.26,26.83,13.78,38.84,23,14,10.76,27.69,22,41.88,32.45a111.07,111.07,0,0,0,58.82,22.09c29.46,2.14,47.61,17.69,56.94,45.33,11.62,34.42,14.24,69,4.76,104.33a25.34,25.34,0,0,0-.43,3.73Z" transform="translate(287.04 161.03)"/><path class="a" d="M-150.26-160.88c-1,8-5.18,14.81-9.7,21-33.41,46-73.41,84.31-126.9,106.46,0-40.86.08-81.72-.12-122.59,0-4.22.88-5,5.05-5C-238-160.81-194.15-160.88-150.26-160.88Z" transform="translate(287.04 161.03)"/><path class="b" d="M-286.86,449.26c17.32,3.44,28.06,14.1,33.09,30.67,6,19.76,3.42,39.64-.6,59.23-6.83,33.29-19.18,64.88-31.08,96.58a7.1,7.1,0,0,1-1.41,1.73Z" transform="translate(287.04 161.03)"/><path class="a" d="M154.81-160.88c-7.06,34.69-42.48,53.46-74.23,39.11-19.24-8.7-34.52-22.38-47.19-39.11Z" transform="translate(287.04 161.03)"/><path class="b" d="M1458.58,931.92c15.18-3.75,30.36-5,45.54,0Z" transform="translate(287.04 161.03)"/><path class="b" d="M131.81,459.62c-.23,2.67-.9,5.61-4.93,3.49-5.79-3.05-10.12-7.62-11.16-14.32-.57-3.6.81-6.5,5.12-4.15C126.6,447.77,130.68,452.43,131.81,459.62Z" transform="translate(287.04 161.03)"/></svg>