<svg xmlns="http://www.w3.org/2000/svg" viewBox="0 0 1943.08 1093.09"><defs><style>.a{opacity:0;fill:#ffffff;}.b{fill:#ffffff;}</style></defs><title>1800f_00352</title><path class="a" d="M1405.46,931.92H276.24c-2.74-5.38-4.95-11.1-8.33-16-4.58-6.69-10-13.12-19.46-12-8.59,1.06-12.7,7.32-15.56,14.69-1.72,4.45-3.48,8.87-5.22,13.31q-253.57,0-507.15.14c-5.77,0-7.62-.62-7.58-7.16.35-57.87.2-115.73.2-173.6,7.47-.72,13.69-4.85,20.38-7.63,35.53-14.75,70.51-30.58,101.72-53.59,46.5-34.27,83.58-77.51,117.8-123.5,9.18-12.35,18.35-24.72,27.94-36.75,9.19-11.51,20.54-11.17,29.41.47,2,2.6,3.43,5.6,5.3,8.29,6,8.61,9,19.09,18,25.92,11.84,9,25.3,13.76,39.33,17,22,5.13,44.24,7.56,66.92,5,29.67-3.39,50.36-20.61,67.85-43,14.48-18.51,28.36-37.5,47-52.34,29.94-23.85,62.89-38.39,102.14-34.3a223.25,223.25,0,0,1,67.12,18c27.26,12,55.29,14.2,83.74,6.59,51.34-13.74,89.26-45.57,115.16-91.14,26.5-46.64,18-94.88-21.1-131.57-25.35-23.78-52.73-24.11-78.35-.69-9.51,8.69-18.69,17.74-27.88,26.79-10.05,9.89-21.43,17.86-34.6,22.78a385.16,385.16,0,0,1-113,23.93C314.81,333.5,284.1,323,254,310.71A118.56,118.56,0,0,0,206,302c-18.27.32-34.74,7.23-52.13,10.57-22.88,4.4-41,15.9-54.92,34.57-18.94,25.44-41.75,47.13-66.08,67.31C20.66,424.6,6.63,420.54-.44,406.34c-7.42-14.91-10.6-30.86-14.67-46.66-2.57-10-5.24-19.93-7.54-30-2.12-9.25.87-12.62,10.18-12.84,8.91-.2,17.36,2.91,26.21,3.16,22.25.62,44.4-1,66.48-3.27,17.48-1.77,33.51-7.41,44.45-22.37a425.66,425.66,0,0,0,28.4-43.8c17.23-30.91,32.78-62.69,47.72-94.77a263.91,263.91,0,0,1,41-62.49C267,64.54,282.14,30,294.53-5.81c10.68-30.86,15.92-63.2,25.65-94.33,6.41-20.51,14.51-40.39,21.32-60.74h828.71a72.69,72.69,0,0,1,0,7.53c-2.5,23.51-1.17,47,1,70.41,4.06,43.46,1.48,86.24-10.07,128.52-8.83,32.34-26,56.92-58,70.29-18.68,7.82-35.64,19.08-52.39,30.45-19.18,13-39.6,23.22-62.18,29.1-11.73,3.06-23.25,7-33.39,14.08-27.7,19.3-28.51,57.07-1.57,77.26,12,9,25.72,14,40.14,17.19,37.24,8.28,74,4.88,110-6.27,23.49-7.27,44.28-3.75,63.54,11.13q23.71,18.3,47.63,36.35c36.27,27.23,78,43.41,120,59,51.66,19.11,103.36,38.16,154.87,57.69,24.33,9.23,44.51,23.94,56.31,48.08,7.15,14.63,11.21,30.29,14.91,46.06,9.69,41.26,2.91,78.76-25,111.63-9,10.61-17.49,21.63-26.5,32.22-32.6,38.28-62.25,78.45-81.07,125.61C1412.32,846,1403.1,887.92,1405.46,931.92ZM894.92,600.21c5.46.44,14.12-.57,22.48-2,49.28-8.64,99.11-13.37,148.51-21,46.42-7.2,89.8-22.21,126.19-53.31,21.83-18.66,40.12-40,48.59-68.22,7.83-26.1-1-45.84-25.73-57.43a71.62,71.62,0,0,0-29.32-6.87c-20.09-.39-39,5.34-57.81,11.23-75.29,23.62-149.18,51.23-223.16,78.58-43.84,16.2-87.09,34.17-132.66,45.35-20.64,5.07-41.24,10.52-59.82,21.3-17.48,10.14-31.74,22.87-31.54,45.37.1,11.51,6.38,16.62,17.69,14.42a163.22,163.22,0,0,0,30.48-8.88c34.34-14,69-19.9,105.53-7.79C852.81,597,872.18,599.67,894.92,600.21ZM690,918c4,0,8.12.34,12.12-.07,10.76-1.09,15.4-7.87,12.68-18.42-3.25-12.57-11-22.69-19-32.43-23.44-28.67-41.94-59.88-52.24-95.75-2.56-8.92-6.64-17.49-10.75-25.86-14.49-29.53-31.73-39.16-64.48-36.48a69.22,69.22,0,0,0-9.73,1.46c-31,7-59,19.53-80.75,43.46-17.34,19.07-18.87,41.8-4.64,62.44a118.33,118.33,0,0,0,24.61,25.59c27.39,21.51,57.71,38.31,89.48,52.14C619.89,908.26,654.57,915.09,690,918Z" transform="translate(287.06 161.03)"/><path class="b" d="M341.5-160.88c-6.81,20.35-14.91,40.23-21.32,60.74-9.73,31.13-15,63.47-25.65,94.33C282.14,30,267,64.54,241.81,93.34a263.91,263.91,0,0,0-41,62.49c-14.94,32.08-30.49,63.86-47.72,94.77a425.66,425.66,0,0,1-28.4,43.8c-10.94,15-27,20.6-44.45,22.37C58.14,319,36,320.66,13.74,320c-8.85-.25-17.3-3.36-26.21-3.16-9.31.22-12.3,3.59-10.18,12.84,2.3,10,5,20,7.54,30,4.07,15.8,7.25,31.75,14.67,46.66,7.07,14.2,21.1,18.26,33.35,8.11C57.24,394.27,80.05,372.58,99,347.14c13.9-18.67,32-30.17,54.92-34.57C171.3,309.23,187.77,302.32,206,302A118.56,118.56,0,0,1,254,310.71c30.12,12.33,60.83,22.79,93.94,20.88A385.16,385.16,0,0,0,461,307.66c13.17-4.92,24.55-12.89,34.6-22.78,9.19-9.05,18.37-18.1,27.88-26.79,25.62-23.42,53-23.09,78.35.69,39.11,36.69,47.6,84.93,21.1,131.57-25.9,45.57-63.82,77.4-115.16,91.14-28.45,7.61-56.48,5.43-83.74-6.59a223.25,223.25,0,0,0-67.12-18c-39.25-4.09-72.2,10.45-102.14,34.3-18.63,14.84-32.51,33.83-47,52.34-17.49,22.36-38.18,39.58-67.85,43-22.68,2.58-44.93.15-66.92-5-14-3.27-27.49-8.07-39.33-17-9-6.83-12-17.31-18-25.92-1.87-2.69-3.32-5.69-5.3-8.29-8.87-11.64-20.22-12-29.41-.47-9.59,12-18.76,24.4-27.94,36.75-34.22,46-71.3,89.23-117.8,123.5-31.21,23-66.19,38.84-101.72,53.59-6.69,2.78-12.91,6.91-20.38,7.63V145.71c3.73-1.15,6.31,1.49,8.92,3.15,8.74,5.55,17.56,11.06,25.79,17.32,33.39,25.38,66.71,50.85,101.91,73.72,20.81,13.51,42.51,25.45,66.24,33,11.92,3.79,16.23-1.05,12.69-13.29-2.17-7.52-5-14.83-7.26-22.33C-87,209-79.67,184.62-57,166.85c8.14-6.39,16.57-12.46,25.27-18.07C4.47,125.42,35.59,96.41,63.09,63.41,84,38.33,90,10.18,78.82-20.89c-8.61-24-18.11-47.73-26.31-71.89-7.47-22-13.5-44.49-13-68.1Z" transform="translate(287.06 161.03)"/><path class="b" d="M1405.46,931.92c-2.36-44,6.86-85.9,23.06-126.51,18.82-47.16,48.47-87.33,81.07-125.61,9-10.59,17.51-21.61,26.5-32.22,27.87-32.87,34.65-70.37,25-111.63-3.7-15.77-7.76-31.43-14.91-46.06-11.8-24.14-32-38.85-56.31-48.08-51.51-19.53-103.21-38.58-154.87-57.69-42-15.55-83.75-31.73-120-59q-24-18-47.63-36.35c-19.26-14.88-40-18.4-63.54-11.13-36,11.15-72.78,14.55-110,6.27-14.42-3.21-28.17-8.21-40.14-17.19-26.94-20.19-26.13-58,1.57-77.26,10.14-7.06,21.66-11,33.39-14.08,22.58-5.88,43-16.07,62.18-29.1,16.75-11.37,33.71-22.63,52.39-30.45,31.94-13.37,49.14-37.95,58-70.29,11.55-42.28,14.13-85.06,10.07-128.52-2.19-23.41-3.52-46.9-1-70.41a72.69,72.69,0,0,0,0-7.53h232.22c-4.24,23.61-3.83,47.3-.37,70.91,5.52,37.76,13.2,75.11,22,112.21,8.39,35.21,18.26,69.91,37.2,101.33,41.69,69.15,131.6,87.17,194.6,38.83V887.9l-6.81,3.25c-28.22,13.32-56.86,25.75-84.26,40.77Z" transform="translate(287.06 161.03)"/><path class="a" d="M39.46-160.88c-.45,23.61,5.58,46.08,13,68.1,8.2,24.16,17.7,47.87,26.31,71.89C90,10.18,84,38.33,63.09,63.41c-27.5,33-58.62,62-94.85,85.37-8.7,5.61-17.13,11.68-25.27,18.07C-79.67,184.62-87,209-78.57,237.29c2.24,7.5,5.09,14.81,7.26,22.33,3.54,12.24-.77,17.08-12.69,13.29-23.73-7.56-45.43-19.5-66.24-33-35.2-22.87-68.52-48.34-101.91-73.72-8.23-6.26-17-11.77-25.79-17.32-2.61-1.66-5.19-4.3-8.92-3.15q0-150.08-.15-300.16c0-5.5,1.17-6.59,6.6-6.58Q-120.46-160.73,39.46-160.88Z" transform="translate(287.06 161.03)"/><path class="a" d="M1655.9,162.4c-63,48.34-152.91,30.32-194.6-38.83-18.94-31.42-28.81-66.12-37.2-101.33-8.84-37.1-16.52-74.45-22-112.21-3.46-23.61-3.87-47.3.37-70.91h139.63c39.61,54,68.74,113.53,93,175.65q10.46,26.75,20.83,53.53Z" transform="translate(287.06 161.03)"/><path class="b" d="M1655.9,68.3q-10.41-26.76-20.83-53.53c-24.27-62.12-53.4-121.66-93-175.65,36.18,0,72.35.1,108.52-.13,4.53,0,5.45.91,5.44,5.44Q1655.75-43.64,1655.9,68.3Z" transform="translate(287.06 161.03)"/><path class="a" d="M1564.83,931.92c27.4-15,56-27.45,84.26-40.77l6.81-3.25c0,13.16-.17,26.31.1,39.46.08,3.81-.86,4.68-4.66,4.66C1622.51,931.83,1593.67,931.92,1564.83,931.92Z" transform="translate(287.06 161.03)"/><path class="b" d="M227.67,931.92c1.74-4.44,3.5-8.86,5.22-13.31,2.86-7.37,7-13.63,15.56-14.69,9.45-1.15,14.88,5.28,19.46,12,3.38,4.93,5.59,10.65,8.33,16Z" transform="translate(287.06 161.03)"/><path class="b" d="M894.92,600.21c-22.74-.54-42.11-3.2-60.57-9.33-36.48-12.11-71.19-6.19-105.53,7.79a163.22,163.22,0,0,1-30.48,8.88c-11.31,2.2-17.59-2.91-17.69-14.42-.2-22.5,14.06-35.23,31.54-45.37,18.58-10.78,39.18-16.23,59.82-21.3,45.57-11.18,88.82-29.15,132.66-45.35,74-27.35,147.87-55,223.16-78.58,18.77-5.89,37.72-11.62,57.81-11.23a71.62,71.62,0,0,1,29.32,6.87c24.71,11.59,33.56,31.33,25.73,57.43-8.47,28.21-26.76,49.56-48.59,68.22-36.39,31.1-79.77,46.11-126.19,53.31-49.4,7.67-99.23,12.4-148.51,21C909,599.64,900.38,600.65,894.92,600.21Z" transform="translate(287.06 161.03)"/><path class="b" d="M690,918c-35.38-2.91-70.06-9.74-102.67-23.92-31.77-13.83-62.09-30.63-89.48-52.14a118.33,118.33,0,0,1-24.61-25.59c-14.23-20.64-12.7-43.37,4.64-62.44,21.75-23.93,49.79-36.5,80.75-43.46a69.22,69.22,0,0,1,9.73-1.46c32.75-2.68,50,7,64.48,36.48,4.11,8.37,8.19,16.94,10.75,25.86,10.3,35.87,28.8,67.08,52.24,95.75,8,9.74,15.72,19.86,19,32.43,2.72,10.55-1.92,17.33-12.68,18.42C698.07,918.34,694,918,690,918Z" transform="translate(287.06 161.03)"/></svg>