<svg xmlns="http://www.w3.org/2000/svg" viewBox="0 0 1943.02 1093.08"><defs><style>.a{opacity:0;fill:#ffffff;}.b{fill:#ffffff;}</style></defs><title>1800f_00310</title><path class="a" d="M-15.18,931.92h-145.7c-.69-4,1.15-7.44,2.31-11,5.31-16.33,11.63-32.33,16-49,6.76-25.75,9.92-52.09,12.74-78.45,4.08-38.19,13.39-75.61,16.52-113.93C-109,626.67-124.4,581.8-166.93,548a125.82,125.82,0,0,1-18.22-18.19c-23.29-28-36.55-60.9-46.92-95.23-11-36.54-16.82-74.45-28.86-110.72-7-21.11-14.21-42.14-25.93-61.25V-116.87l19.73-44h299c1.92,1.17,3.75,2.5,5.76,3.48,53.53,25.92,109.31,33.85,168.16,23.34,37.07-6.63,73.48-16.2,110.5-23,6.39-1.17,13.14-.71,19.14-3.86H1573.94c6.69,30.93,17.28,60.62,28.75,90C1616.27-36,1629.13-1,1635.45,36c5,29.41,4.91,59.3,8.38,88.86,2.11,18,4.26,36,12.07,52.68V516.05c-3-1.42-4-4.52-5.61-7C1642,497,1633.73,484.87,1623.86,474c-33.22-36.69-72.75-65.55-114.44-91.67-3.85-2.41-8.09-4.18-12.1-6.34-32-17.23-61.92-14.58-90.19,8.52a227.31,227.31,0,0,1-23.64,16.41c-21,13.14-43.68,17-68.29,12.5-20-3.63-39.48-8.22-58.37-15.62-31.81-12.45-51.87-36.2-63.63-67.28-10.18-26.93-28.59-44.6-55.39-54.34A245.94,245.94,0,0,0,1098.46,265c-19.94-3.67-37.23-12.48-53.07-24.72A177,177,0,0,0,968.56,206c-28.31-5.29-56.66-10.48-84.48-18-32-8.69-64-17.4-92.82-34.47-13.7-8.1-26.22-18.13-40.72-24.92-18.8-8.79-35-3.34-44.58,15a74.58,74.58,0,0,0-7.7,26.83,343,343,0,0,0,12.41,135.75C721.24,341.71,741,370.46,774,389a333.53,333.53,0,0,0,32.54,16.27c30,12.81,61,23.06,92,33.14,26.46,8.62,50.09,21.06,69,42.14,28.77,32.09,65.08,51.41,106.71,61.62q66.25,16.26,132.29,33.4c40.09,10.44,79.65,22.92,120.38,30.94,20.82,4.09,41.86,7.17,62.33,12.9,9.75,2.72,19.52,5.69,27.12,12.89,5.82,5.53,5.73,10.71.08,16.39-4,4-9,6.49-14.05,8.82-15.66,7.21-32.16,12.1-48.47,17.48-61,20.11-118,47.42-167.18,89.86-47.37,40.9-100.27,50.82-158.71,25.44A77.94,77.94,0,0,0,987.27,784c-24.18,2.83-45.62,12.68-66.27,24.69-31.2,18.15-58.26,41.86-86,64.63-22.15,18.18-45.67,33.68-75,37.19-37.83,4.51-75.77,2.82-113.61.66-33.31-1.89-66.51-4.86-100-2.59-24.19,1.64-48.47,2.5-72.72,3-31.48.6-59.94-10-87.35-24.52-26.57-14.08-52.61-29.18-80.28-41.18-37.22-16.16-74.81-20.12-113.56-5.81-16.83,6.22-34,11.48-50.87,17.63-46.33,16.89-92.54,34.12-135,59.69C-.88,921.85-9.14,925.26-15.18,931.92ZM654.2,452.07c0-23.92-3.6-37.64-11.5-51.63-17.78-31.51-43.4-56.28-69.52-80.59a40,40,0,0,0-14-8.85c-6.09-2.11-11.55-2-16.59,3.23-7.33,7.6-9,17.36-11.08,26.87-9.33,43-12.74,86.85-19.68,130.19-3.67,22.89-9.19,44.95-22.1,64.7-13,20-29.87,36.82-44.76,55.26-9.2,11.4-18.65,22.7-22.08,37.47-3.29,14.14,3,22.08,17.47,22.22,18.88.17,34.58-9,50-18,37.28-21.95,72.23-47.42,106-74.33C632.79,529.57,650.83,490.68,654.2,452.07Z" transform="translate(286.96 161.06)"/><path class="b" d="M-15.18,931.92c6-6.66,14.3-10.07,21.77-14.56,42.49-25.57,88.7-42.8,135-59.69,16.86-6.15,34-11.41,50.87-17.63,38.75-14.31,76.34-10.35,113.56,5.81,27.67,12,53.71,27.1,80.28,41.18,27.41,14.52,55.87,25.12,87.35,24.52,24.25-.46,48.53-1.32,72.72-3,33.45-2.27,66.65.7,100,2.59,37.84,2.16,75.78,3.85,113.61-.66,29.36-3.51,52.88-19,75-37.19,27.74-22.77,54.8-46.48,86-64.63,20.65-12,42.09-21.86,66.27-24.69A77.94,77.94,0,0,1,1028,790.3c58.44,25.38,111.34,15.46,158.71-25.44,49.16-42.44,106.15-69.75,167.18-89.86,16.31-5.38,32.81-10.27,48.47-17.48,5.07-2.33,10.06-4.81,14.05-8.82,5.65-5.68,5.74-10.86-.08-16.39-7.6-7.2-17.37-10.17-27.12-12.89-20.47-5.73-41.51-8.81-62.33-12.9-40.73-8-80.29-20.5-120.38-30.94q-66-17.19-132.29-33.4c-41.63-10.21-77.94-29.53-106.71-61.62-18.88-21.08-42.51-33.52-69-42.14-31-10.08-62-20.33-92-33.14A333.53,333.53,0,0,1,774,389c-33-18.55-52.74-47.3-63.31-82.8a343,343,0,0,1-12.41-135.75,74.58,74.58,0,0,1,7.7-26.83c9.58-18.36,25.78-23.81,44.58-15,14.5,6.79,27,16.82,40.72,24.92,28.87,17.07,60.86,25.78,92.82,34.47,27.82,7.56,56.17,12.75,84.48,18a177,177,0,0,1,76.83,34.25c15.84,12.24,33.13,21,53.07,24.72a245.94,245.94,0,0,1,39.35,11.14c26.8,9.74,45.21,27.41,55.39,54.34,11.76,31.08,31.82,54.83,63.63,67.28,18.89,7.4,38.42,12,58.37,15.62,24.61,4.47,47.24.64,68.29-12.5a227.31,227.31,0,0,0,23.64-16.41c28.27-23.1,58.23-25.75,90.19-8.52,4,2.16,8.25,3.93,12.1,6.34,41.69,26.12,81.22,55,114.44,91.67,9.87,10.9,18.15,23,26.43,35.12,1.66,2.44,2.64,5.54,5.61,7V837.82c-13.72-1-25.76,3.93-37.19,10.78a462.77,462.77,0,0,0-102.45,83.32Z" transform="translate(286.96 161.06)"/><path class="b" d="M-286.86,262.58c11.72,19.11,18.93,40.14,25.93,61.25,12,36.27,17.84,74.18,28.86,110.72,10.37,34.33,23.63,67.26,46.92,95.23A125.82,125.82,0,0,0-166.93,548c42.53,33.83,57.94,78.7,53.62,131.59-3.13,38.32-12.44,75.74-16.52,113.93-2.82,26.36-6,52.7-12.74,78.45-4.37,16.65-10.69,32.65-16,49-1.16,3.56-3,7-2.31,11h-71.34c-3.16-17.37-7-34.64-7.94-52.35-.63-11.67-2.11-23.23-8-33.63-8.71-15.49-20.22-27.63-38.74-30.89Z" transform="translate(286.96 161.06)"/><path class="b" d="M1655.9,177.58c-7.81-16.69-10-34.71-12.07-52.68-3.47-29.56-3.36-59.45-8.38-88.86-6.32-37-19.18-72.08-32.76-106.9-11.47-29.4-22.06-59.09-28.75-90,25,0,50,.17,75-.14,5.41-.06,7.15.79,7.13,6.81Q1655.72,11.69,1655.9,177.58Z" transform="translate(286.96 161.06)"/><path class="a" d="M1516.26,931.92a462.77,462.77,0,0,1,102.45-83.32c11.43-6.85,23.47-11.75,37.19-10.78,0,29.85-.09,59.7.1,89.54,0,3.8-.86,4.67-4.66,4.66C1606.32,931.86,1561.29,931.92,1516.26,931.92Z" transform="translate(286.96 161.06)"/><path class="b" d="M335.43-160.88c-6,3.15-12.75,2.69-19.14,3.86-37,6.76-73.43,16.33-110.5,23-58.85,10.51-114.63,2.58-168.16-23.34-2-1-3.84-2.31-5.76-3.48Z" transform="translate(286.96 161.06)"/><path class="a" d="M-286.86,815.05c18.52,3.26,30,15.4,38.74,30.89,5.85,10.4,7.33,22,8,33.63,1,17.71,4.78,35,7.94,52.35-16.7,0-33.39-.14-50.09.1-3.8.06-4.67-.86-4.65-4.66C-286.79,889.93-286.86,852.49-286.86,815.05Z" transform="translate(286.96 161.06)"/><path class="b" d="M-267.13-160.88l-19.73,44c0-13.25.1-26.5-.07-39.74,0-3.15.08-4.78,4.06-4.4C-277.67-160.5-272.38-160.88-267.13-160.88Z" transform="translate(286.96 161.06)"/><path class="b" d="M654.2,452.07c-3.37,38.61-21.41,77.5-57.85,106.51-33.8,26.91-68.75,52.38-106,74.33-15.4,9.06-31.1,18.2-50,18-14.44-.14-20.76-8.08-17.47-22.22C426.3,614,435.75,602.65,445,591.25,459.84,572.81,476.66,556,489.71,536c12.91-19.75,18.43-41.81,22.1-64.7,6.94-43.34,10.35-87.22,19.68-130.19,2.06-9.51,3.75-19.27,11.08-26.87,5-5.22,10.5-5.34,16.59-3.23a40,40,0,0,1,14,8.85c26.12,24.31,51.74,49.08,69.52,80.59C650.6,414.43,654.24,428.15,654.2,452.07Z" transform="translate(286.96 161.06)"/></svg>