<svg xmlns="http://www.w3.org/2000/svg" viewBox="0 0 1943.07 1093.09"><defs><style>.a{opacity:0;fill:#ffffff;}.b{fill:#ffffff;}</style></defs><title>1800f_00330</title><path class="a" d="M1344.75,931.92H71.34c-12-25.66-25.6-50.51-39.5-75.18-9.56-17-19.21-33.91-31.77-48.91-13.15-15.71-29.51-22.74-49.86-16.74-14.53,4.27-28.74,9.64-43.3,13.76-15,4.26-28.16.31-39.68-10.53-13.87-13.05-23.21-29.16-32.83-45.23-24-40.12-50.58-78.68-72.83-119.9-13.84-25.63-25.06-52.47-38-78.49-2.89-5.8-5.34-12-10.41-16.44v-170c3.52-.23,7.05-.4,10.56-.71,20.63-1.86,41.23-4.66,62-3.39,13.13.81,26.26,1.11,39.4,1.4,25,.54,44.86-9.56,59.49-29.21,31.24-42,58.93-86.41,86.71-130.72C-15.27,180.23-10,156.57-11.86,131.3c-.83-11.59-1.47-23.22-1.35-34.83s1.7-23.24,7.76-33.61c7.64-13.07,19.9-17,33.69-10.87A69,69,0,0,1,48.59,66.33C70.3,87.7,81.51,114.48,87.83,143.62c3.43,15.84,12.92,25.79,27.78,31.35,21.89,8.17,44.55,8.34,67.35,6.43,30.44-2.55,60.56-8,91-10.43,33.06-2.7,65.66-8.24,97.05-19.44C427.93,131.23,477.82,98.85,525,61.86A158.26,158.26,0,0,0,573.59-1.08c18-42,15-81.15-14.06-117.4-13.57-16.93-29.92-30.65-48-42.4H830.22c1.08,3.14-1.12,5.33-2.45,7.62-22.89,39.38-42.85,80.29-63.12,121C757.11-17.07,749.76-1.75,746.19,15c-3.31,15.48,3.51,26.37,18.73,30.31a56,56,0,0,0,21.83,1.14c15-2.07,28.83-7.39,41.88-14.89,21-12,39.3-27.54,57.62-43.1C892.42-16.8,898.83-21.75,905-27c22.55-19.31,47.15-23.74,74.67-11.38,13.68,6.15,28.14,10.09,43.36,9.57,56-1.92,110.77,7.37,165.48,17.51,69.06,12.8,137.06,30.72,206.36,42.38,26,4.38,51.17,11.9,73.3,27.31,16.28,11.34,26.08,26.4,28.45,46.24a187,187,0,0,0,12.68,48.25A569.61,569.61,0,0,0,1539,215.1c15.44,27.8,33.08,53.91,58.77,73.49,17.6,13.43,36.79,23.89,58.14,30.15v487.2c-3-.05-5.19,1.87-7.63,3.08a306.72,306.72,0,0,1-42.92,17.1c-21.29,6.8-40.87,3.86-59.1-8.84-7.67-5.35-15.48-10.52-22.94-16.14-20.59-15.52-42-30.53-57.08-51.74-21.31-29.93-34.6-63.91-45.35-98.82-8.64-28.08-13.37-56.93-15.59-86.21-1.38-18.11-8.72-27.17-24.42-31.41-32.77-8.83-63.65-3.75-92.53,13.31-34.24,20.22-65.89,44.2-96.57,69.4-15.84,13-31.47,26.51-39,46.58C1130.41,722,1137.2,806.52,1214.6,850c21,11.78,41.1,24.86,60.9,38.47C1298,903.91,1321.37,917.91,1344.75,931.92ZM-9.08,601.52c-.17-3.79-.3-7.58-.55-11.36-.1-1.51-.49-3-.74-4.48-5.75-33.38-26-57.41-50.77-78.47a73.85,73.85,0,0,0-23.3-13.87c-15.17-5.32-28.35,3.74-29.11,19.64-.65,13.3,4.25,24.71,10.9,35.59,12.66,20.72,28.09,39.47,42.47,59,6.62,9,14.48,16.87,24.18,22.67,11.6,6.95,20.37,3.7,24.6-9.19C-9.32,614.69-8.94,608.13-9.08,601.52ZM1003.7,40.27c-.18-8.58-1.16-16.78-9.14-21.47s-15.71-.81-22.78,3.29a68.87,68.87,0,0,0-21.45,20.06c-12.48,17.54-21.14,36.53-17.12,58.68,3.44,19,16.92,24,33,13.1a28.62,28.62,0,0,0,3.63-2.72C990.39,92,998.89,67,1003.7,40.27Z" transform="translate(287.01 161.03)"/><path class="b" d="M511.49-160.88c18.12,11.75,34.47,25.47,48,42.4C588.58-82.23,591.62-43,573.59-1.08A158.26,158.26,0,0,1,525,61.86c-47.15,37-97,69.37-153.92,89.67-31.39,11.2-64,16.74-97.05,19.44-30.48,2.48-60.6,7.88-91,10.43-22.8,1.91-45.46,1.74-67.35-6.43-14.86-5.56-24.35-15.51-27.78-31.35C81.51,114.48,70.3,87.7,48.59,66.33A69,69,0,0,0,28.24,52c-13.79-6.12-26-2.2-33.69,10.87-6.06,10.37-7.63,22-7.76,33.61s.52,23.24,1.35,34.83c1.82,25.27-3.41,48.93-16.84,70.34C-56.48,246-84.17,290.36-115.41,332.36-130,352-149.95,362.11-174.9,361.57c-13.14-.29-26.27-.59-39.4-1.4-20.77-1.27-41.37,1.53-62,3.39-3.51.31-7,.48-10.56.71q0-259.54-.14-519.08c0-5.2,1-6.23,6.21-6.22q197.31.28,394.62.15c.28,19.94,7.46,37.44,21.55,51.1C167.44-78.7,206.69-69.48,250-75.17c24.12-3.18,45.87-13.4,67.76-23.42,42.07-19.25,82.29-42.1,123.87-62.29Z" transform="translate(287.01 161.03)"/><path class="b" d="M1655.9,318.74c-21.35-6.26-40.54-16.72-58.14-30.15C1572.07,269,1554.43,242.9,1539,215.1a569.61,569.61,0,0,1-29.72-62.24,187,187,0,0,1-12.68-48.25c-2.37-19.84-12.17-34.9-28.45-46.24C1446,43,1420.88,35.44,1394.84,31.06c-69.3-11.66-137.3-29.58-206.36-42.38C1133.77-21.46,1079-30.75,1023-28.83c-15.22.52-29.68-3.42-43.36-9.57C952.12-50.76,927.52-46.33,905-27c-6.14,5.27-12.55,10.22-18.72,15.45C867.93,4,849.58,19.5,828.63,31.53c-13,7.5-26.89,12.82-41.88,14.89a56,56,0,0,1-21.83-1.14c-15.22-3.94-22-14.83-18.73-30.31,3.57-16.72,10.92-32,18.46-47.2,20.27-40.74,40.23-81.65,63.12-121,1.33-2.29,3.53-4.48,2.45-7.62q409.58,0,819.13-.13c5.2,0,6.72.73,6.71,6.47Q1655.75,82.1,1655.9,318.74Z" transform="translate(287.01 161.03)"/><path class="b" d="M1344.75,931.92c-23.38-14-46.76-28-69.25-43.46-19.8-13.61-39.94-26.69-60.9-38.47-77.4-43.47-84.19-128-61.81-187.74,7.51-20.07,23.14-33.57,39-46.58,30.68-25.2,62.33-49.18,96.57-69.4,28.88-17.06,59.76-22.14,92.53-13.31,15.7,4.24,23,13.3,24.42,31.41,2.22,29.28,7,58.13,15.59,86.21,10.75,34.91,24,68.89,45.35,98.82,15.11,21.21,36.49,36.22,57.08,51.74,7.46,5.62,15.27,10.79,22.94,16.14,18.23,12.7,37.81,15.64,59.1,8.84a306.72,306.72,0,0,0,42.92-17.1c2.44-1.21,4.66-3.13,7.63-3.08,0,40.22-.1,80.45.13,120.66,0,4.54-.92,5.45-5.45,5.44Q1497.67,931.8,1344.75,931.92Z" transform="translate(287.01 161.03)"/><path class="b" d="M-286.86,534.26c5.07,4.46,7.52,10.64,10.41,16.44,13,26,24.18,52.86,38,78.49,22.25,41.22,48.82,79.78,72.83,119.9,9.62,16.07,19,32.18,32.83,45.23,11.52,10.84,24.64,14.79,39.68,10.53,14.56-4.12,28.77-9.49,43.3-13.76,20.35-6,36.71,1,49.86,16.74,12.56,15,22.21,31.95,31.77,48.91,13.9,24.67,27.48,49.52,39.5,75.18q-176.07,0-352.13.14c-5.2,0-6.22-1-6.22-6.21Q-286.73,730.06-286.86,534.26Z" transform="translate(287.01 161.03)"/><path class="a" d="M441.67-160.88c-41.58,20.19-81.8,43-123.87,62.29-21.89,10-43.64,20.24-67.76,23.42-43.35,5.69-82.6-3.53-114.66-34.61-14.09-13.66-21.27-31.16-21.55-51.1Z" transform="translate(287.01 161.03)"/><path class="b" d="M-9.08,601.52c.14,6.61-.24,13.17-2.32,19.49-4.23,12.89-13,16.14-24.6,9.19-9.7-5.8-17.56-13.7-24.18-22.67-14.38-19.49-29.81-38.24-42.47-59-6.65-10.88-11.55-22.29-10.9-35.59.76-15.9,13.94-25,29.11-19.64a73.85,73.85,0,0,1,23.3,13.87c24.75,21.06,45,45.09,50.77,78.47.25,1.49.64,3,.74,4.48C-9.38,593.94-9.25,597.73-9.08,601.52Z" transform="translate(287.01 161.03)"/><path class="b" d="M1003.7,40.27C998.89,67,990.39,92,969.8,111.21a28.62,28.62,0,0,1-3.63,2.72c-16,10.91-29.52,5.89-33-13.1-4-22.15,4.64-41.14,17.12-58.68a68.87,68.87,0,0,1,21.45-20.06c7.07-4.1,14.65-8.06,22.78-3.29S1003.52,31.69,1003.7,40.27Z" transform="translate(287.01 161.03)"/></svg>