<svg xmlns="http://www.w3.org/2000/svg" viewBox="0 0 1366.29 768.29"><defs><style>.a{opacity:0;fill:#ffffff;}.b{fill:#ffffff;}</style></defs><title>1800f_00044</title><path class="a" d="M1367.52,411.32v69.82a22.11,22.11,0,0,0-4.35.92c-33,14.06-65.51,29.19-97.12,46.19-16.51,8.88-32,19.25-45.32,32.67-16.28,16.48-23.13,37.35-28.4,59.28-11.82,49.12-18.32,98.72-16,149.32H335.43c-12-12.86-25.9-23.3-40.8-32.44-32.62-20-68.51-32.21-104.8-43.41-11.82-3.65-23.76-7-35.39-11.22-8.54-3.09-9.17-7.24-2-12.87,7.34-5.76,15.31-10.71,23.14-15.82,29.86-19.49,60-38.59,87.07-62,18.92-16.32,31.69-36,33.05-61.7,1.19-22.5,1-45-2.08-67.38-4.35-31.49-6-62.56,3-93.9,8-27.86,6.42-56.57.77-84.9-2-10.17-5.2-12.24-15.72-12.4-8-.12-15.56,1.54-23.1,3.73-16.66,4.83-31.23,14.28-46.9,21.29-28.32,12.67-42.92,5.74-47.87-24.83-5.13-31.63-8.08-63.49-17.86-94.39-11.51-36.35-19.48-73.8-32.78-109.64C105.47,46.8,107.83,42.51,130,39.47c25.49-3.48,50-10.22,73.12-21.56,9.21-4.52,18.72-8.77,26-16.39H904.6c1.62,8.56,7.93,14.36,12.72,21,22.52,31.07,52.52,54.5,81.32,79.16,23,19.73,47.23,38.24,66.94,61.54,17.63,20.85,34.24,42.54,50.12,64.76,8.7,12.18,13.48,25.91,15.26,40.76,2.39,20.06,4.63,40.15,7.51,60.14,3.87,26.78,15.25,48.73,39.76,62.94,30.13,17.48,62.35,24,96.82,21.89C1305.83,411.83,1336.65,410.16,1367.52,411.32Zm-518,112.26c2.35-.12,4.38-.11,6.38-.33,22.19-2.48,36.84-17.74,35.21-36.91-1.08-12.68-9.21-21.1-18.58-28.26a312,312,0,0,0-52.35-31.83c-20.88-10.24-41.88-12-63.64-2.74-8.81,3.74-18,6.75-27.61,7.85-24.57,2.82-49.19,5.32-73.12,12-7.78,2.16-15.7,4.05-22.37,9-6,4.41-6.68,9.93-1.9,15.58,3.49,4.12,8.11,6.8,12.9,9.14,17.79,8.67,36.84,12.05,56.38,13.31,12.58.81,25.29.7,37.74,2.45,22.42,3.15,42.93,12.94,64.19,20.14C818,518.1,833.46,522.86,849.49,523.58Zm-56.36,90.75c-.29-21.19-14.43-38.13-35.29-42.18-16.49-3.2-29.51,4.81-41.69,14-13.38,10-11.61,21,4.15,26.53,13.12,4.58,26.05,9.46,38.45,15.75a82.07,82.07,0,0,0,11.32,4.21C787.46,638.36,792.59,627,793.13,614.33Z" transform="translate(-1.38 -1.37)"/><path class="b" d="M229.18,1.52c-7.31,7.62-16.82,11.87-26,16.39C180,29.25,155.52,36,130,39.47c-22.2,3-24.56,7.33-16.81,28.21C126.52,103.52,134.49,141,146,177.32c9.78,30.9,12.73,62.76,17.86,94.39,4.95,30.57,19.55,37.5,47.87,24.83,15.67-7,30.24-16.46,46.9-21.29,7.54-2.19,15.15-3.85,23.1-3.73,10.52.16,13.69,2.23,15.72,12.4,5.65,28.33,7.25,57-.77,84.9-9,31.34-7.39,62.41-3,93.9,3.08,22.36,3.27,44.88,2.08,67.38-1.36,25.69-14.13,45.38-33.05,61.7-27.08,23.37-57.21,42.47-87.07,62-7.83,5.11-15.8,10.06-23.14,15.82-7.19,5.63-6.56,9.78,2,12.87,11.63,4.2,23.57,7.57,35.39,11.22,36.29,11.2,72.18,23.41,104.8,43.41,14.9,9.14,28.82,19.58,40.8,32.44H1.52q0-380.59-.14-761.17c0-5.69,1.27-7,7-7C82,1.6,155.57,1.52,229.18,1.52Z" transform="translate(-1.38 -1.37)"/><path class="b" d="M1367.52,411.32c-30.87-1.16-61.69.51-92.47,2.35-34.47,2.07-66.69-4.41-96.82-21.89-24.51-14.21-35.89-36.16-39.76-62.94-2.88-20-5.12-40.08-7.51-60.14-1.78-14.85-6.56-28.58-15.26-40.76-15.88-22.22-32.49-43.91-50.12-64.76-19.71-23.3-43.91-41.81-66.94-61.54-28.8-24.66-58.8-48.09-81.32-79.16-4.79-6.6-11.1-12.4-12.72-21h340c1,2.54,3.44,3.58,5.37,5.15,13.15,10.64,26.83,20.66,38.91,32.58,12.5,12.33,17.49,27,15.61,44.7-2.06,19.26-5.72,38.52-2.18,58.06s6.79,39.42,18.21,56.49c9,13.48,20.9,18,36.68,14.47,3.43-.76,6.89-1.33,10.34-2Z" transform="translate(-1.38 -1.37)"/><path class="b" d="M1176.28,769.52c-2.27-50.6,4.23-100.2,16-149.32,5.27-21.93,12.12-42.8,28.4-59.28,13.27-13.42,28.81-23.79,45.32-32.67,31.61-17,64.11-32.13,97.12-46.19a22.11,22.11,0,0,1,4.35-.92q0,141.15.14,282.3c0,5.2-1,6.24-6.21,6.22C1299.72,769.43,1238,769.52,1176.28,769.52Z" transform="translate(-1.38 -1.37)"/><path class="a" d="M1367.52,211c-3.45.67-6.91,1.24-10.34,2-15.78,3.54-27.66-1-36.68-14.47-11.42-17.07-14.64-36.83-18.21-56.49s.12-38.8,2.18-58.06c1.88-17.66-3.11-32.37-15.61-44.7C1276.78,27.33,1263.1,17.31,1250,6.67c-1.93-1.57-4.38-2.61-5.37-5.15,39.21,0,78.42.1,117.62-.13,4.54,0,5.46.91,5.44,5.44Q1367.37,108.9,1367.52,211Z" transform="translate(-1.38 -1.37)"/><path class="b" d="M849.49,523.58c-16-.72-31.45-5.48-46.77-10.67-21.26-7.2-41.77-17-64.19-20.14-12.45-1.75-25.16-1.64-37.74-2.45-19.54-1.26-38.59-4.64-56.38-13.31-4.79-2.34-9.41-5-12.9-9.14-4.78-5.65-4.08-11.17,1.9-15.58,6.67-4.91,14.59-6.8,22.37-9,23.93-6.65,48.55-9.15,73.12-12,9.62-1.1,18.8-4.11,27.61-7.85,21.76-9.22,42.76-7.5,63.64,2.74a312,312,0,0,1,52.35,31.83c9.37,7.16,17.5,15.58,18.58,28.26,1.63,19.17-13,34.43-35.21,36.91C853.87,523.47,851.84,523.46,849.49,523.58Z" transform="translate(-1.38 -1.37)"/><path class="b" d="M793.13,614.33c-.54,12.63-5.67,24-23.06,18.26a82.07,82.07,0,0,1-11.32-4.21c-12.4-6.29-25.33-11.17-38.45-15.75-15.76-5.49-17.53-16.49-4.15-26.53,12.18-9.14,25.2-17.15,41.69-14C778.7,576.2,792.84,593.14,793.13,614.33Z" transform="translate(-1.38 -1.37)"/></svg>