<svg xmlns="http://www.w3.org/2000/svg" viewBox="0 0 1943.06 1093.1"><defs><style>.a{fill:#fcfdfd;}.b{fill:#42c7f6;}</style></defs><title>1800f_00240</title><path class="a" d="M930.4,931.92H423.46a7.81,7.81,0,0,0-1.35-1.77c-31.18-23.06-59.85-49-87.82-75.78-26.27-25.12-54.72-47.17-86.62-64.76-12.61-7-24.7-14.86-36.86-22.59C184.49,750.28,164,727,142,705.41c-27.92-27.45-60.12-47.7-97.72-59-29-8.73-58.16-17.2-87.23-25.83-26.18-7.78-52.12-16.15-76.87-28C-139.41,583.26-150,569-148.6,546.54c1-16.23-4.28-30.81-13.35-44.2-37.79-55.83-55.51-117.93-57.87-184.9-1.49-42,.9-83.89,3.82-125.79,2.72-39.05-.07-77.65-10.57-115.73C-239.77,28-240.41-21.52-242.29-70.75c-1.15-30-1.14-60.17,2.48-90.13H425c-1.11,6.51-6.31,11.13-7.65,17.73-4.69,23.06,2.35,43.49,13.44,63,13,22.79,29.73,42.78,47.76,61.57C506.25,10.32,529.26,41.75,538,81.78a45.82,45.82,0,0,0,2.22,6.44c11.49,30.17,28.59,56.27,55.25,75.24,16.3,11.6,33.88,15.26,53,7.18a364,364,0,0,0,66.37-36.36c33.26-23.16,63-50.69,93.68-77,11.51-9.85,24.68-17.67,35-29,9.75-10.74,13.08-22.88,9.31-37.11-12.07-45.51-61.62-79.09-108-72.85-6.5.88-13,2.1-19.37,3.53-31.54,7.06-62.38,16.84-94.19,23-30.83,6-59.27,4.23-84.37-16.85C537-80.24,527.64-89,518.47-98.12c-22.45-22.18-44.32-45-70.73-62.76h1111c-.68,5,3.25,7.73,5.76,10.94,27.85,35.5,42.93,75.33,41,120.85-.94,21.76-4.47,42.75-20.51,59.5-12.49,13-22.45,28-31.08,43.79-10.73,19.67-19.86,40.13-20.58,62.85-.93,29.7,11.73,55,29,78.09,14.3,19.22,33,32,57.33,34.68,12,1.3,24.21,1.46,36.32,2.13V273.2a13.38,13.38,0,0,0-3.67.29c-25.25,9.31-49.52,20.51-71,37-35.4,27.25-64.1,60.86-90.84,96.27-18.63,24.66-36.14,50.06-46.9,79.39-13.58,37-11.29,75.14-6.93,113.2,4.73,41.19,5.94,82.16-3.32,122.93-3.31,14.59-7.09,29-14.53,42.15-6,10.6-14.5,16.35-21.83,14.47a40.81,40.81,0,0,1-15.58-7.56c-18.54-14.88-36.38-30.53-51.63-48.87s-29.11-37.27-33-61.36c-3.75-23.07-2.86-46.38-1.13-69.62,1.7-22.93,4.29-45.85,3.17-68.87a345.12,345.12,0,0,1,4.72-73.22c3.49-21.16,10.5-42.09,8.72-63.65-2.91-35.09,2.21-69,10.61-102.8,2.07-8.28,2.91-16.91,3.83-25.44,3.11-29.17-10.4-48.9-36.43-59.89-64.45-27.21-130.95-39.25-200.73-25.32-23,4.59-45.91,10.45-69.65,9.63-28.78-1-51.06-12.68-64-39.62a227.77,227.77,0,0,1-10.54-25.14c-5-14.8-8.55-30.23-16.87-43.71-3.89-6.3-7.72-14.65-16.92-12.34-9,2.25-8.06,11.21-8.37,18.35-.53,11.86,1.14,23.78.82,35.56-.78,29.37-11.44,55.74-28.46,79.43-14.59,20.31-33.59,32.88-59.68,33.71-14.56.47-29.32.85-43.5,5.38-27.4,8.75-35.77,30.47-21.22,55.19,10,17,23.52,31,38.37,43.68C818.5,357.33,851,377.55,882,399.85c27.67,19.94,57.52,36.92,82.93,59.91,16.36,14.8,35.3,18.42,56.34,16.14,19.43-2.11,38.16-7.48,57.1-11.85,10.84-2.51,21.7-5.13,33-4.26,8.8.69,12.51,5.76,10.9,14.4a54.12,54.12,0,0,1-6.76,17.63C1083,546.68,1041.5,593,986,625.46,947.5,648,905.92,664.2,865.65,683.11a227.88,227.88,0,0,1-78.58,21c-22.59,1.88-45.23,3.2-67.85,4.81-3.57.26-7.84.62-8.4,4.84s3.69,5.63,6.94,6.85a127.51,127.51,0,0,0,41.38,7.83,489.92,489.92,0,0,0,49.2-1.21c27.6-1.9,54.89,1.89,82.19,5.94,22.29,3.31,35.75,16.15,43.9,36a86.08,86.08,0,0,1,3.66,11.55c7.8,31.1,4.28,62.32.53,93.47C936.3,893.49,933.17,912.68,930.4,931.92ZM218,568c15.79.31,36.25-.68,56.68-2,31.33-2.09,62.51-5.85,92.47-15.57q60.93-19.76,122.35-37.92c42.63-12.62,71.87-39.92,88.34-81,8.71-21.71,15.14-44,14-67.74-.65-13.75-7.92-19-21.19-15.31-8.83,2.49-16.84,6.81-24.77,11.3-11.86,6.72-23.58,13.66-36.31,18.79-31.37,12.66-63.51,9.26-95.62,4.72-31.36-4.44-60.07.29-85.64,20.51-19.24,15.22-37,32.1-56.1,47.49-21.16,17.07-43.52,31.41-71.78,32.82-21,1.05-41.89-1.15-62.73-3.64-25.8-3.08-51.44-7.81-77.63-7a62.2,62.2,0,0,0-31.5,9.62c-20.37,12.72-20.83,34.34-1.2,48,10.88,7.59,23,12.61,35.55,16.75C111.82,564,162.27,568.3,218,568Z" transform="translate(287 161.06)"/><path class="b" d="M930.4,931.92c2.77-19.24,5.9-38.43,8.22-57.72,3.75-31.15,7.27-62.37-.53-93.47a86.08,86.08,0,0,0-3.66-11.55c-8.15-19.86-21.61-32.7-43.9-36-27.3-4-54.59-7.84-82.19-5.94a489.92,489.92,0,0,1-49.2,1.21,127.51,127.51,0,0,1-41.38-7.83c-3.25-1.22-7.51-2.55-6.94-6.85s4.83-4.58,8.4-4.84c22.62-1.61,45.26-2.93,67.85-4.81a227.88,227.88,0,0,0,78.58-21C905.92,664.2,947.5,648,986,625.46c55.5-32.42,97-78.78,129.44-133.64a54.12,54.12,0,0,0,6.76-17.63c1.61-8.64-2.1-13.71-10.9-14.4-11.26-.87-22.12,1.75-33,4.26-18.94,4.37-37.67,9.74-57.1,11.85-21,2.28-40-1.34-56.34-16.14-25.41-23-55.26-40-82.93-59.91-31-22.3-63.47-42.52-92.55-67.39-14.85-12.7-28.36-26.66-38.37-43.68-14.55-24.72-6.18-46.44,21.22-55.19,14.18-4.53,28.94-4.91,43.5-5.38,26.09-.83,45.09-13.4,59.68-33.71,17-23.69,27.68-50.06,28.46-79.43.32-11.78-1.35-23.7-.82-35.56.31-7.14-.64-16.1,8.37-18.35,9.2-2.31,13,6,16.92,12.34,8.32,13.48,11.85,28.91,16.87,43.71a227.77,227.77,0,0,0,10.54,25.14c12.89,26.94,35.17,38.61,64,39.62,23.74.82,46.65-5,69.65-9.63,69.78-13.93,136.28-1.89,200.73,25.32,26,11,39.54,30.72,36.43,59.89-.92,8.53-1.76,17.16-3.83,25.44-8.4,33.79-13.52,67.71-10.61,102.8,1.78,21.56-5.23,42.49-8.72,63.65a345.12,345.12,0,0,0-4.72,73.22c1.12,23-1.47,45.94-3.17,68.87-1.73,23.24-2.62,46.55,1.13,69.62,3.92,24.09,17.88,43.16,33,61.36s33.09,34,51.63,48.87a40.81,40.81,0,0,0,15.58,7.56c7.33,1.88,15.84-3.87,21.83-14.47,7.44-13.16,11.22-27.56,14.53-42.15,9.26-40.77,8-81.74,3.32-122.93-4.36-38.06-6.65-76.18,6.93-113.2,10.76-29.33,28.27-54.73,46.9-79.39,26.74-35.41,55.44-69,90.84-96.27,21.49-16.53,45.76-27.73,71-37a13.38,13.38,0,0,1,3.67-.29V890.94c-3.07.85-5.31-1.22-7.76-2.33a593.6,593.6,0,0,0-64.2-25.09c-20.44-6.58-42-9-61.78-18-20.48-9.28-40.94-18.63-61.46-27.82-22.36-10-44.42-16.19-69.07-5.13-38.5,17.27-79.42,28.22-119,42.82-34.14,12.61-68.48,24.75-100.51,42.36-15.66,8.61-29.79,19-39.9,34.15Z" transform="translate(287 161.06)"/><path class="b" d="M-239.81-160.88c-3.62,30-3.63,60.08-2.48,90.13,1.88,49.23,2.52,98.74,15.72,146.67C-216.07,114-213.28,152.6-216,191.65c-2.92,41.9-5.31,83.76-3.82,125.79,2.36,67,20.08,129.07,57.87,184.9,9.07,13.39,14.39,28,13.35,44.2-1.43,22.46,9.19,36.72,28.76,46.07,24.75,11.81,50.69,20.18,76.87,28,29.07,8.63,58.19,17.1,87.23,25.83,37.6,11.31,69.8,31.56,97.72,59C164,727,184.49,750.28,210.81,767c12.16,7.73,24.25,15.64,36.86,22.59,31.9,17.59,60.35,39.64,86.62,64.76,28,26.75,56.64,52.72,87.82,75.78a7.81,7.81,0,0,1,1.35,1.77H211c-9.92-5.11-20.46-8.5-31.24-11.2C161,916,143.68,918,129,931.92H-103.21c-1.55-5.81-5.64-10.06-9.29-14.46-25.6-30.83-56.78-55.24-89.66-77.71-25.81-17.63-53.84-29.84-84.7-35.33q0-479.23-.14-958.47c0-5.69,1.25-7.2,7-7C-266.64-160.55-253.22-160.88-239.81-160.88Z" transform="translate(287 161.06)"/><path class="b" d="M447.74-160.88c26.41,17.73,48.28,40.58,70.73,62.76C527.64-89,537-80.24,546.91-71.94c25.1,21.08,53.54,22.85,84.37,16.85,31.81-6.18,62.65-16,94.19-23,6.4-1.43,12.87-2.65,19.37-3.53,46.34-6.24,95.89,27.34,108,72.85,3.77,14.23.44,26.37-9.31,37.11-10.29,11.33-23.46,19.15-35,29-30.72,26.27-60.42,53.8-93.68,77a364,364,0,0,1-66.37,36.36c-19.09,8.08-36.67,4.42-53-7.18-26.66-19-43.76-45.07-55.25-75.24A45.82,45.82,0,0,1,538,81.78c-8.77-40-31.78-71.46-59.5-100.35-18-18.79-34.81-38.78-47.76-61.57-11.09-19.52-18.13-39.95-13.44-63,1.34-6.6,6.54-11.22,7.65-17.73Z" transform="translate(287 161.06)"/><path class="a" d="M1132.26,931.92c10.11-15.11,24.24-25.54,39.9-34.15,32-17.61,66.37-29.75,100.51-42.36,39.54-14.6,80.46-25.55,119-42.82,24.65-11.06,46.71-4.88,69.07,5.13,20.52,9.19,41,18.54,61.46,27.82,19.73,9,41.34,11.4,61.78,18a593.6,593.6,0,0,1,64.2,25.09c2.45,1.11,4.69,3.18,7.76,2.33,0,11.89-.27,23.79.13,35.66.15,4.55-.92,5.47-5.45,5.45-48.57-.21-97.13-.13-145.7-.13Z" transform="translate(287 161.06)"/><path class="b" d="M1655.9,252c-12.11-.67-24.28-.83-36.32-2.13-24.36-2.64-43-15.46-57.33-34.68-17.22-23.13-29.88-48.39-29-78.09.72-22.72,9.85-43.18,20.58-62.85,8.63-15.81,18.59-30.75,31.08-43.79,16-16.75,19.57-37.74,20.51-59.5,2-45.52-13.1-85.35-41-120.85-2.51-3.21-6.44-5.95-5.76-10.94,30.06,0,60.11.14,90.17-.14,5.42,0,7.14.8,7.13,6.81Q1655.75,48.88,1655.9,252Z" transform="translate(287 161.06)"/><path class="a" d="M-286.86,804.42c30.86,5.49,58.89,17.7,84.7,35.33,32.88,22.47,64.06,46.88,89.66,77.71,3.65,4.4,7.74,8.65,9.29,14.46q-88.95,0-177.9.11c-4.57,0-5.92-.82-5.89-5.72C-286.75,885.68-286.86,845.05-286.86,804.42Z" transform="translate(287 161.06)"/><path class="a" d="M129,931.92c14.67-13.88,32-15.91,50.72-11.2,10.78,2.7,21.32,6.09,31.24,11.2Z" transform="translate(287 161.06)"/><path class="b" d="M218,568c-55.76.34-106.21-4-155-20.12-12.51-4.14-24.67-9.16-35.55-16.75-19.63-13.7-19.17-35.32,1.2-48a62.2,62.2,0,0,1,31.5-9.62c26.19-.85,51.83,3.88,77.63,7,20.84,2.49,41.69,4.69,62.73,3.64,28.26-1.41,50.62-15.75,71.78-32.82,19.07-15.39,36.86-32.27,56.1-47.49,25.57-20.22,54.28-25,85.64-20.51,32.11,4.54,64.25,7.94,95.62-4.72,12.73-5.13,24.45-12.07,36.31-18.79,7.93-4.49,15.94-8.81,24.77-11.3,13.27-3.74,20.54,1.56,21.19,15.31,1.11,23.78-5.32,46-14,67.74-16.47,41.06-45.71,68.36-88.34,81q-61.41,18.2-122.35,37.92c-30,9.72-61.14,13.48-92.47,15.57C254.28,567.28,233.82,568.27,218,568Z" transform="translate(287 161.06)"/></svg>