<svg xmlns="http://www.w3.org/2000/svg" viewBox="0 0 1943.05 1093.14"><defs><style>.a{opacity:0;fill:#ffffff;}.b{fill:#ffffff;}</style></defs><title>1800f_00235</title><path class="a" d="M-244.36-160.88H374.89c1.83,6.82,3.34,13.75,5.55,20.45,13,39.45,34.83,74.57,55,110.48C455.2,5.31,476.35,39.84,490.58,78c7.79,20.88,12,42.84,19.51,63.77,19.37,54.09,73.09,70.17,119.11,36,13.89-10.31,25.9-22.57,37.41-35.37,15-16.73,28.38-35,45.17-50.11,13.91-12.54,27.92-25,45.47-32.42,19-8,34.66-4.65,46,12.35,31.42,47,39.43,97.21,14.6,149.35-12.08,25.37-10.64,47.55,6.24,69.25,16,20.54,32.17,40.9,48.24,61.38,37.76,48.13,87.64,67,147.72,61.07,20.93-2.06,41.19-7.75,61.8-11.57,11.87-2.21,23.78-5.29,36-2.77,9.93,2,12.46,7.64,7.48,16.56a68.64,68.64,0,0,1-11.16,14.32c-14.44,14.76-31.12,26.68-48.88,36.95C1016.53,495,968,523.65,921,554.84c-15,9.94-30,19.76-42.74,32.59C861.89,603.91,856,623,863.33,645.66c4.68,14.52,11.58,28,18.64,41.42,11.28,21.46,23.42,42.51,28.85,66.58,8.47,37.56,5.83,75.38,3.63,113.25-1.26,21.67-4.43,43.23-3.78,65H513c-10-35.06-25.42-67.06-53.38-91.59-11.86-10.41-25.28-13-40.74-7.94-11.4,3.72-20.48,11-29.85,17.48-11.08,7.64-20.78,7-31.5.91-21.72-12.26-44.08-23.3-66.4-34.41-20.1-10-40.3-19.8-60.18-30.21-26.59-13.94-49.3-32.55-66.46-57.5-8.6-12.5-17.58-24.74-25.94-37.39-23.62-35.81-54.5-63.54-92.12-84-59.8-32.45-123.62-53.69-189.77-68.59-17-3.82-34.37-6.4-50.3-13.92-15.59-7.34-19.05-16-12.3-31.82,3.66-8.58,8.31-16.76,12.83-24.94,9.63-17.4,9.63-34.63-.24-51.91-3.63-6.36-7-12.9-10.59-19.27-51.89-91.22-74.12-188.7-64.24-293.67,4.35-46.31,3.75-92.94,1.66-139.47-1-21.77-.3-43.36,6.25-64.55C-254.14-120.61-248.2-140.48-244.36-160.88ZM351.49,500.36c17.72.29,44.35-5.28,70.13-14.9,27-10.07,52.76-22.61,72.26-44.54,20.27-22.8,27.13-40.3,10.46-68.25-19.11-32-27.53-67.55-33.29-104-3.82-24.12-10.27-47.57-26.19-67-24.39-29.78-53.55-54.26-85.79-75.07-25.18-16.25-49.68-16.18-73.13,4.11-11.7,10.12-25.62,16.24-40.81,18.9-35.2,6.17-61.37,25.7-82,54-23.43,32.1-48.3,63-77.91,89.78-24.36,22-51.08,40.38-81.12,53.92-24.21,10.92-48.24,22.27-70,37.73-15.07,10.7-30,21.6-40.18,37.54-7.15,11.22-6.19,20,3.21,29.25,7.15,7,15.9,11.58,24.9,15.66,56.92,25.78,116.49,30,177.46,21.06,27.15-4,52.9-11.76,71.58-34.1,6.14-7.34,14.3-12.07,23-15.54,15.64-6.2,31.58-9.5,47.64-1.49,12.65,6.32,17.27,18.66,21.51,30.84,3.58,10.25,10.09,17.16,19.79,21.68C301.65,498.61,321.45,500.16,351.49,500.36Z" transform="translate(287 161.07)"/><path class="b" d="M910.67,931.92c-.65-21.78,2.52-43.34,3.78-65,2.2-37.87,4.84-75.69-3.63-113.25-5.43-24.07-17.57-45.12-28.85-66.58-7.06-13.43-14-26.9-18.64-41.42-7.32-22.64-1.44-41.75,14.94-58.23C891,574.6,906,564.78,921,554.84c47-31.19,95.52-59.88,144.33-88.1,17.76-10.27,34.44-22.19,48.88-36.95a68.64,68.64,0,0,0,11.16-14.32c5-8.92,2.45-14.51-7.48-16.56-12.25-2.52-24.16.56-36,2.77-20.61,3.82-40.87,9.51-61.8,11.57-60.08,5.89-110-12.94-147.72-61.07-16.07-20.48-32.27-40.84-48.24-61.38-16.88-21.7-18.32-43.88-6.24-69.25,24.83-52.14,16.82-102.39-14.6-149.35-11.36-17-27-20.37-46-12.35-17.55,7.39-31.56,19.88-45.47,32.42-16.79,15.13-30.14,33.38-45.17,50.11-11.51,12.8-23.52,25.06-37.41,35.37-46,34.16-99.74,18.08-119.11-36C502.6,120.81,498.37,98.85,490.58,78,476.35,39.84,455.2,5.31,435.42-29.95c-20.15-35.91-41.95-71-55-110.48-2.21-6.7-3.72-13.63-5.55-20.45H475.06c9.78,7.95,21.44,12.14,33,16.52,49,18.56,93.71.52,138.5-16.52h132a262.82,262.82,0,0,1,39.71,43.55c13.4,18.26,31.35,28.91,52.94,34.31,5.88,1.47,11.57,3.66,17.44,5.19,36.41,9.49,63.5,30.86,82.76,63.08,13.92,23.29,25.15,47.92,37.54,72,15.88,30.8,39.43,52,73,61.81a360.21,360.21,0,0,0,83.51,14.24c54,2.63,106.85-6,159.12-18.61,31.9-7.68,63.83-10.81,96-2.15,19.27,5.2,38.36,11.08,57.53,16.66,8.5,2.47,17,4.92,25.85,5.77,28.78,2.81,44.12-6.52,57.23-34.71,16-34.39,18.41-71.21,14.76-108.43-5-50.94-23.15-97.06-52.38-139-2.92-4.19-7-8-7.37-13.69,44.45,0,88.91.16,133.36-.19,5.92-.05,6.39,1.77,6.39,6.79q-.23,171.24-.11,342.49c-29.22.43-57.93,3.82-85.39,14.56-13.41,5.24-26.88,10.5-41,13.3-26.78,5.31-53.31,11.42-78.82,21.27-26.92,10.4-55.48,12.91-83.47,18.31-25.26,4.87-48.22,14.8-66.43,33.94-17.85,18.77-19,33.23-3.85,53.9,1.49,2,2.91,4.13,4.43,6.15,10.76,14.31,12.44,29.85,6.8,46.64-7.38,21.93-20.89,40.29-33.87,58.94-16.46,23.65-34.21,46.36-49.6,70.79-27.36,43.39-28.94,86.48-1.22,130.4,11.17,17.7,23.45,34.86,31.29,54.49,7.76,19.44,11.72,39.1-1,58-8.12,12.12-19.55,21-31.9,28.69-24.9,15.45-51.23,28.56-75,45.81-19.37,14-37.31,29.43-49.77,50.3-7.18,12-11.17,25.39-16.45,38.21Z" transform="translate(287 161.07)"/><path class="b" d="M-244.36-160.88c-3.84,20.4-9.78,40.27-15.9,60.05-6.55,21.19-7.23,42.78-6.25,64.55,2.09,46.53,2.69,93.16-1.66,139.47-9.88,105,12.35,202.45,64.24,293.67,3.62,6.37,7,12.91,10.59,19.27,9.87,17.28,9.87,34.51.24,51.91-4.52,8.18-9.17,16.36-12.83,24.94-6.75,15.82-3.29,24.48,12.3,31.82,15.93,7.52,33.32,10.1,50.3,13.92,66.15,14.9,130,36.14,189.77,68.59,37.62,20.42,68.5,48.15,92.12,84,8.36,12.65,17.34,24.89,25.94,37.39,17.16,25,39.87,43.56,66.46,57.5,19.88,10.41,40.08,20.21,60.18,30.21,22.32,11.11,44.68,22.15,66.4,34.41,10.72,6,20.42,6.73,31.5-.91,9.37-6.47,18.45-13.76,29.85-17.48,15.46-5,28.88-2.47,40.74,7.94,28,24.53,43.34,56.53,53.38,91.59H443.19c-.31-.9-.36-2-1-2.67-14.13-14.85-28.7-29.07-47.72-37.87-8.77-4.06-17.48-4.38-25.38.34-11.41,6.81-23.72,11-36.23,14.79-17.63,5.37-35.66,6.28-53.93,4.28-27-3-51.74-12.94-76.12-24.31-21-9.8-41.44-21.56-64.84-24.9-28.52-4.08-63.62,3.62-80.62,39C52.45,910.84,48,921.26,44,931.92h-179.1c-.27-1.49-.43-3-.83-4.46-8.83-32.47-24.62-61.85-39.79-91.61-20-39.29-49.8-67-91.58-81.54-6.62-2.3-12.36-6.85-19.58-7.56q0-450.4-.14-900.8c0-5.69,1.25-7.23,7-7C-268.16-160.53-256.25-160.88-244.36-160.88Z" transform="translate(287 161.07)"/><path class="a" d="M1516.26-160.88c.35,5.68,4.45,9.5,7.37,13.69,29.23,41.92,47.38,88,52.38,139,3.65,37.22,1.24,74-14.76,108.43-13.11,28.19-28.45,37.52-57.23,34.71-8.81-.85-17.35-3.3-25.85-5.77-19.17-5.58-38.26-11.46-57.53-16.66-32.15-8.66-64.08-5.53-96,2.15-52.27,12.59-105.11,21.24-159.12,18.61A360.21,360.21,0,0,1,1082,119c-33.59-9.82-57.14-31-73-61.81-12.39-24-23.62-48.67-37.54-72C952.21-47,925.12-68.34,888.71-77.83c-5.87-1.53-11.56-3.72-17.44-5.19-21.59-5.4-39.54-16-52.94-34.31a262.82,262.82,0,0,0-39.71-43.55Z" transform="translate(287 161.07)"/><path class="a" d="M1080.66,931.92c5.28-12.82,9.27-26.19,16.45-38.21,12.46-20.87,30.4-36.26,49.77-50.3,23.81-17.25,50.14-30.36,75-45.81,12.35-7.66,23.78-16.57,31.9-28.69,12.67-18.91,8.71-38.57,1-58-7.84-19.63-20.12-36.79-31.29-54.49-27.72-43.92-26.14-87,1.22-130.4,15.39-24.43,33.14-47.14,49.6-70.79,13-18.65,26.49-37,33.87-58.94,5.64-16.79,4-32.33-6.8-46.64-1.52-2-2.94-4.11-4.43-6.15-15.17-20.67-14-35.13,3.85-53.9,18.21-19.14,41.17-29.07,66.43-33.94,28-5.4,56.55-7.91,83.47-18.31,25.51-9.85,52-16,78.82-21.27,14.12-2.8,27.59-8.06,41-13.3,27.46-10.74,56.17-14.13,85.39-14.56v36.42c-23.46-1.15-46.9-2.34-70.4-2.16-30.55.23-55.7,12.3-76.87,33.67-62.21,62.76-102.38,136.59-112.88,225.24-5.26,44.36-4,88.12,10.34,131.09a1135.59,1135.59,0,0,0,51.29,127.94c18.86,39.75,47.58,71.94,85.1,95.61,15.3,9.65,31.89,13.27,50,9.66,25-5,45.24-18.07,63.38-35.18,0,38.45-.13,76.9.15,115.35,0,5.2-1,6.22-6.23,6.21Q1365.24,931.81,1080.66,931.92Z" transform="translate(287 161.07)"/><path class="b" d="M1655.9,810.5c-18.14,17.11-38.4,30.21-63.38,35.18-18.15,3.61-34.74,0-50-9.66-37.52-23.67-66.24-55.86-85.1-95.61a1135.59,1135.59,0,0,1-51.29-127.94c-14.31-43-15.6-86.73-10.34-131.09,10.5-88.65,50.67-162.48,112.88-225.24,21.17-21.37,46.32-33.44,76.87-33.67,23.5-.18,46.94,1,70.4,2.16Z" transform="translate(287 161.07)"/><path class="a" d="M-286.86,746.75c7.22.71,13,5.26,19.58,7.56,41.78,14.54,71.54,42.25,91.58,81.54,15.17,29.76,31,59.14,39.79,91.61.4,1.45.56,3,.83,4.46-48.71,0-97.43-.09-146.14.13-4.83,0-5.77-1.21-5.76-5.85C-286.8,866.38-286.86,806.57-286.86,746.75Z" transform="translate(287 161.07)"/><path class="a" d="M44,931.92c4-10.66,8.43-21.08,13.37-31.34,17-35.38,52.1-43.08,80.62-39,23.4,3.34,43.83,15.1,64.84,24.9,24.38,11.37,49.09,21.35,76.12,24.31,18.27,2,36.3,1.09,53.93-4.28,12.51-3.81,24.82-8,36.23-14.79,7.9-4.72,16.61-4.4,25.38-.34,19,8.8,33.59,23,47.72,37.87.6.62.65,1.77,1,2.67Z" transform="translate(287 161.07)"/><path class="a" d="M646.57-160.88c-44.79,17-89.46,35.08-138.5,16.52-11.57-4.38-23.23-8.57-33-16.52Z" transform="translate(287 161.07)"/><path class="b" d="M351.49,500.36c-30-.2-49.84-1.75-68.45-10.4-9.7-4.52-16.21-11.43-19.79-21.68-4.24-12.18-8.86-24.52-21.51-30.84-16.06-8-32-4.71-47.64,1.49-8.75,3.47-16.91,8.2-23,15.54-18.68,22.34-44.43,30.1-71.58,34.1-61,9-120.54,4.72-177.46-21.06-9-4.08-17.75-8.64-24.9-15.66-9.4-9.23-10.36-18-3.21-29.25,10.17-15.94,25.11-26.84,40.18-37.54,21.76-15.46,45.79-26.81,70-37.73,30-13.54,56.76-31.89,81.12-53.92,29.61-26.78,54.48-57.68,77.91-89.78,20.65-28.3,46.82-47.83,82-54,15.19-2.66,29.11-8.78,40.81-18.9,23.45-20.29,47.95-20.36,73.13-4.11,32.24,20.81,61.4,45.29,85.79,75.07,15.92,19.43,22.37,42.88,26.19,67,5.76,36.43,14.18,72,33.29,104,16.67,27.95,9.81,45.45-10.46,68.25-19.5,21.93-45.28,34.47-72.26,44.54C395.84,495.08,369.21,500.65,351.49,500.36Z" transform="translate(287 161.07)"/></svg>