<svg xmlns="http://www.w3.org/2000/svg" viewBox="0 0 1943.09 1093.12"><defs><style>.a{opacity:0;fill:#ffffff;}.b{fill:#ffffff;}</style></defs><title>1800f_00326</title><path class="a" d="M561.58-160.88h188.2a18.5,18.5,0,0,1-1.31,3.45c-19.13,30.34-18.69,46.17,3.17,74.36C762.93-68.51,775.41-54.94,783-37.73c3.07,6.95,10,8.78,18.29,6.74,8-2,15-6,21.7-10.57C838.57-52,852.46-64.64,866.81-76.62c21.38-17.84,45.71-23.59,72.42-18.19a469.43,469.43,0,0,0,122.19,8.93,407.06,407.06,0,0,1,56.1.93c49.26,3.82,97.5,13.9,145.54,25,44.62,10.27,88.86,21.84,130.94,40.35,19,8.37,37.52,17.63,52.74,32.34,12.33,11.92,16.11,25.7,11,42.14a271.29,271.29,0,0,0-7.55,27.77c-6,30.21,6.21,48.63,36.31,54.38,23.59,4.51,41.76,17.09,56.38,35.58,14.35,18.14,22.88,39.24,30.7,60.63,8.42,23,16.23,46.38,30.53,66.68,13.51,19.18,28.16,37.19,51.83,44.65v381c-9,6.54-17.77,13.41-27,19.54-27.86,18.43-57,22.85-89.41,11.49-48.14-16.85-91.09-42.37-131.17-73.18-26.1-20.07-46.85-44.65-57.65-76.38-6.35-18.65-12.06-37.53-18.08-56.3-7.48-23.33-13.81-47.15-28.45-67.45-11.73-16.29-27.69-22.17-47.13-17.65A123.59,123.59,0,0,0,1227.35,477c-43.12,22.7-82.86,50.32-119.84,82.07-28.67,24.63-39.72,54.74-32.29,92.08,10.6,53.32,32.88,101.73,60.6,147.93,15.79,26.33,39.35,40.56,69.94,43.5,24.29,2.33,47.83,7.67,70,18.37,30.51,14.71,61.14,29.16,91.68,43.79,6.84,3.28,13.62,6.77,19.54,11.57,4.86,3.94,8.73,8.56,6.34,15.59H57.68c-2.07-10.53-7.56-19.7-11.79-29.34C18,839.17-13.41,777.37-39.17,713c-9.51-23.76-21.15-46.59-39.31-65.18-26-26.64-44.6-56.6-49.95-94.59-6.14-43.58-19.27-85.68-31.44-127.92-5.1-17.71-10-35.46-7.77-54.34,3.51-29.64,12.6-57.73,23.5-85.26,10.33-26.08,23.82-50.28,45.4-69.07,15.13-13.18,32.06-23.74,49.21-34,19.5-11.69,39.71-22.36,55.74-39,19-19.69,22.91-44,10.9-68.33-3-6.11-6.51-12-9.83-17.95-2.38-4.26-7.49-9-2.63-13.38,4.23-3.77,9.13,1.23,12.73,3.73C30,56.44,42.11,66,54.62,75c25.91,18.61,53.13,34,85.77,37.67,43.11,4.9,85.71,2.5,128.13-6.16,69.44-14.19,136.14-36,199.62-68,40.46-20.33,65.2-51.64,73.68-96Q551.7-109.14,561.58-160.88Z" transform="translate(287.01 161.04)"/><path class="b" d="M561.58-160.88q-9.89,51.73-19.76,103.46c-8.48,44.34-33.22,75.65-73.68,96-63.48,31.91-130.18,53.77-199.62,68-42.42,8.66-85,11.06-128.13,6.16C107.75,109,80.53,93.62,54.62,75,42.11,66,30,56.44,17.38,47.67c-3.6-2.5-8.5-7.5-12.73-3.73-4.86,4.33.25,9.12,2.63,13.38,3.32,6,6.81,11.84,9.83,17.95,12,24.34,8.05,48.64-10.9,68.33-16,16.66-36.24,27.33-55.74,39-17.15,10.28-34.08,20.84-49.21,34-21.58,18.79-35.07,43-45.4,69.07-10.9,27.53-20,55.62-23.5,85.26-2.24,18.88,2.67,36.63,7.77,54.34,12.17,42.24,25.3,84.34,31.44,127.92,5.35,38,23.91,67.95,50,94.59,18.16,18.59,29.8,41.42,39.31,65.18C-13.41,777.37,18,839.17,45.89,902.58c4.23,9.64,9.72,18.81,11.79,29.34q-169.08,0-338.16.16c-5.67,0-6.52-1.4-6.51-6.68q.24-246.4.13-492.83c1.26-.07,2.53-.12,3.79-.23,28-2.3,48.68-29.27,44.77-54.57a96.6,96.6,0,0,0-18.18-43.62,52.11,52.11,0,0,0-30.38-20q0-234.31-.15-468.63c0-5.49,1.16-6.58,6.61-6.58q246.43.27,492.89.15A248.56,248.56,0,0,0,291.44-156c7.21-.68,14.64-1.11,21.22-4.84Z" transform="translate(287.01 161.04)"/><path class="b" d="M1393.32,931.92c2.39-7-1.48-11.65-6.34-15.59-5.92-4.8-12.7-8.29-19.54-11.57-30.54-14.63-61.17-29.08-91.68-43.79-22.17-10.7-45.71-16-70-18.37-30.59-2.94-54.15-17.17-69.94-43.5-27.72-46.2-50-94.61-60.6-147.93-7.43-37.34,3.62-67.45,32.29-92.08,37-31.75,76.72-59.37,119.84-82.07A123.59,123.59,0,0,1,1257,465.57c19.44-4.52,35.4,1.36,47.13,17.65,14.64,20.3,21,44.12,28.45,67.45,6,18.77,11.73,37.65,18.08,56.3,10.8,31.73,31.55,56.31,57.65,76.38,40.08,30.81,83,56.33,131.17,73.18,32.44,11.36,61.55,6.94,89.41-11.49,9.26-6.13,18-13,27-19.54q0,100.56.12,201.11c0,4.52-.91,5.44-5.44,5.43Q1522,931.79,1393.32,931.92Z" transform="translate(287.01 161.04)"/><path class="b" d="M1655.9,344.54c-23.67-7.46-38.32-25.47-51.83-44.65-14.3-20.3-22.11-43.63-30.53-66.68-7.82-21.39-16.35-42.49-30.7-60.63-14.62-18.49-32.79-31.07-56.38-35.58-30.1-5.75-42.32-24.17-36.31-54.38a271.29,271.29,0,0,1,7.55-27.77c5.15-16.44,1.37-30.22-11-42.14C1431.52-2,1413-11.26,1394-19.63c-42.08-18.51-86.32-30.08-130.94-40.35-48-11.07-96.28-21.15-145.54-25a407.06,407.06,0,0,0-56.1-.93,469.43,469.43,0,0,1-122.19-8.93c-26.71-5.4-51,.35-72.42,18.19C852.46-64.64,838.57-52,823-41.56,816.24-37,809.28-33,801.29-31c-8.25,2-15.22.21-18.29-6.74-7.59-17.21-20.07-30.78-31.36-45.34-21.86-28.19-22.3-44-3.17-74.36a18.5,18.5,0,0,0,1.31-3.45q449.4,0,898.8-.16c5.93,0,7.51.87,7.5,7.26Q1655.74,95.37,1655.9,344.54Z" transform="translate(287.01 161.04)"/><path class="a" d="M-286.86,314.18a52.11,52.11,0,0,1,30.38,20,96.6,96.6,0,0,1,18.18,43.62c3.91,25.3-16.76,52.27-44.77,54.57-1.26.11-2.53.16-3.79.23Z" transform="translate(287.01 161.04)"/><path class="a" d="M312.66-160.88c-6.58,3.73-14,4.16-21.22,4.84a248.56,248.56,0,0,1-78.95-4.84Z" transform="translate(287.01 161.04)"/></svg>