<svg xmlns="http://www.w3.org/2000/svg" viewBox="0 0 1943.03 1093.11"><defs><style>.a{opacity:0;fill:#ffffff;}.b{fill:#ffffff;}</style></defs><title>1800f_00231</title><path class="a" d="M-286.86,311.15V104.73c3.3-10.42,4.05-21.3,4.93-32,1.62-19.88,2.16-39.82-4.93-59,0-55.85.08-111.7-.13-167.56,0-5.39.74-7.15,6.79-7.15q319.2.3,638.4.17c7.13,13.14,15.81,25.28,24.31,37.54,18.1,26.14,34.93,52.91,38.83,85.42,3.07,25.59,5.49,51.26,8.19,76.89,1.14,10.82,2.05,21.67,1.33,32.55C429.76,88,422,93.84,406.21,89.35c-23.45-6.66-44-19-63-34C324.66,40.79,307.72,24.5,291.44,7.47c-12.76-13.34-25.64-26.6-39.05-39.28-8.85-8.36-18.89-16.79-32.24-12.57C206.28-40,202.63-27.32,200.07-14.57c-4.27,21.21-3.35,42.78-4.24,64.2-1.22,29.29-9,56.18-26,80.34a526.32,526.32,0,0,1-80.81,91.19C46.85,258.73.28,289.66-51.33,312.94c-25.38,11.44-50.11,24.23-72.77,40.58-13.3,9.61-26.84,19.08-36.63,32.62-9.35,12.92-8.65,22.29,3.07,33.45A145.71,145.71,0,0,0-108,451c61.4,23,124.55,26,189,17.61a819.28,819.28,0,0,0,136.15-29.52,389.21,389.21,0,0,1,149.67-16.25c50.36,4.28,88.28-16,112.27-61.29C493,335.35,500.6,307.15,507,278.48c4.38-19.46,7-39.32,13.28-58.35,5.36-16.24,15.65-27.43,32.33-32.37,6.54-1.94,13-4.3,19.46-6.36C611.7,168.89,642.26,145,663.05,109c13.81-23.94,32-44.15,52.19-62.75,7.46-6.87,15.38-13.18,24.89-17.1,10.32-4.26,19.25-2.41,27.08,5.48,6.21,6.27,9.82,14.08,12.88,22.14,9.77,25.7,14.44,52.67,18,79.7,5.24,39.66,20,74.31,48,103.27,22.87,23.62,44.69,48.2,63.09,75.62,15,22.33,36.63,34.93,62.28,41.53,20.73,5.34,41.83,7,63.11,7.37,14.4.26,28.88-.61,43.13,2,5,.93,11.44,1.27,13,7.51,1.4,5.74-3.74,8.92-7.27,12.43a40.64,40.64,0,0,1-4.16,3.29c-9.66,7.41-20.15,13.55-30.66,19.6-59.61,34.33-119.3,68.5-175.87,107.8-10.41,7.24-20.64,14.63-29.08,24.2-10.91,12.35-13.41,26.17-7.45,41.59,4.31,11.17,10.49,21.35,16.88,31.34,24.76,38.72,37,80.59,33.14,126.79-1.43,17.12-2.29,34.29-3.44,51.44a560.5,560.5,0,0,0,8.13,139.69H520.6c-1.59-11.52-3.47-22.93-7.82-33.86-11.23-28.22-29.4-51.83-49.6-73.9-17.56-19.19-35.26-38.43-58.47-51.28C384.2,761.53,366,766.61,355,787.3s-10.14,42-.25,62.72c13.88,29.13,36.79,51,59.81,72.77,3.1,2.93,6.75,5.3,8.93,9.13H7.59c3.69-21.48,10.19-42.18,18.3-62.32,12.08-30,32-54.94,52.72-79.14,19.83-23.13,34.43-48,32.24-79.92-1.36-19.9-1.92-39.86-3.34-59.76-2.51-35.14-18.2-62.46-48.61-81.07C6,537.32-51,518.07-113.39,515.68c-24.49-.94-49,0-73.46-2.67-19.65-2.17-39-5.82-57.2-13.94-19.93-8.9-24.41-21.42-14.48-40.86,4.93-9.65,10.85-18.8,16.38-28.15,10.6-17.94,10.12-29.19-2.69-45.91-9.07-11.83-18.4-23.41-25.77-36.46C-277.21,336-281.15,323.19-286.86,311.15Z" transform="translate(286.99 161.05)"/><path class="b" d="M890.94,931.92a560.5,560.5,0,0,1-8.13-139.69c1.15-17.15,2-34.32,3.44-51.44,3.87-46.2-8.38-88.07-33.14-126.79-6.39-10-12.57-20.17-16.88-31.34-6-15.42-3.46-29.24,7.45-41.59,8.44-9.57,18.67-17,29.08-24.2,56.57-39.3,116.26-73.47,175.87-107.8,10.51-6.05,21-12.19,30.66-19.6a40.64,40.64,0,0,0,4.16-3.29c3.53-3.51,8.67-6.69,7.27-12.43-1.52-6.24-7.92-6.58-13-7.51-14.25-2.63-28.73-1.76-43.13-2-21.28-.39-42.38-2-63.11-7.37-25.65-6.6-47.29-19.2-62.28-41.53-18.4-27.42-40.22-52-63.09-75.62-28-29-42.81-63.61-48-103.27-3.57-27-8.24-54-18-79.7-3.06-8.06-6.67-15.87-12.88-22.14-7.83-7.89-16.76-9.74-27.08-5.48-9.51,3.92-17.43,10.23-24.89,17.1C695.07,64.81,676.86,85,663.05,109c-20.79,36-51.35,59.93-90.94,72.44-6.51,2.06-12.92,4.42-19.46,6.36-16.68,4.94-27,16.13-32.33,32.37-6.28,19-8.9,38.89-13.28,58.35-6.44,28.67-14.05,56.87-27.94,83.09-24,45.29-61.91,65.57-112.27,61.29a389.21,389.21,0,0,0-149.67,16.25A819.28,819.28,0,0,1,81,468.63C16.54,477.05-46.61,474-108,451a145.71,145.71,0,0,1-49.65-31.43c-11.72-11.16-12.42-20.53-3.07-33.45,9.79-13.54,23.33-23,36.63-32.62,22.66-16.35,47.39-29.14,72.77-40.58C.28,289.66,46.85,258.73,89.06,221.16A526.32,526.32,0,0,0,169.87,130c17-24.16,24.74-51,26-80.34.89-21.42,0-43,4.24-64.2,2.56-12.75,6.21-25.42,20.08-29.81,13.35-4.22,23.39,4.21,32.24,12.57C265.8-19.13,278.68-5.87,291.44,7.47c16.28,17,33.22,33.32,51.74,47.89,19,15,39.58,27.33,63,34C422,93.84,429.76,88,430.86,71.52c.72-10.88-.19-21.73-1.33-32.55-2.7-25.63-5.12-51.3-8.19-76.89-3.9-32.51-20.73-59.28-38.83-85.42-8.5-12.26-17.18-24.4-24.31-37.54H836.3c1.77,2.6,4.7,2.68,7.36,3.3,12.76,3,25.69,1,38.54,1.28,16.42.37,31.31,5.08,44.46,15,19.69,14.87,33.64,34.75,47.68,54.57,21.48,30.34,38.54,63.66,61.25,93.07,56.76,73.51,128.85,109.12,223.33,88,27.24-6.07,53.32-15.5,79.7-24.2,36.92-12.17,73.57-13.94,109.9,3.37,37.28,17.78,64.63,45.51,83.74,81.56,10.54,19.88,26.83,28.16,48.65,28.8,25.55.76,50.28-4,75-9.36V683c-1,2-2,4-2.84,6.13-10.44,27.47-17.42,55.94-24.25,84.44-2.14,8.91-5.09,17.45-10.15,25.18-11.45,17.49-27.25,23.19-47.2,16.62-15.89-5.23-29.26-14.85-41.81-25.54-35.21-30-64.72-65.28-94-100.81-30.44-36.91-49.05-78.4-53.65-126.38-5.57-58.09-15.1-115.7-23.33-173.46-3.3-23.2-7.39-46.52-1.53-70,3.36-13.48,7-26.92,9.67-40.53,4.16-20.86-3.16-35.24-21.1-42.67a68.33,68.33,0,0,0-37.91-4.38c-30.23,5-53.91,21.74-75.61,42.17-13,12.24-20.67,27.21-24.62,44.38-2.16,9.38-.92,18,4.88,25.9A211.18,211.18,0,0,0,1228.72,363c15.28,16.35,20.14,35.17,12.92,56.66-2.25,6.7-4.33,13.53-7.35,19.89-18.43,38.82-37.55,77.32-55.55,116.33-12.82,27.8-25.58,55.57-42,81.49-11,17.32-21.69,34.83-29.47,53.81-12.08,29.48-25.44,58.36-39.13,87.11-10.33,21.71-19.7,43.89-22.46,68.08-3.25,28.49-1.25,57,0,85.56Z" transform="translate(286.99 161.05)"/><path class="a" d="M1045.75,931.92c-1.3-28.52-3.3-57.07,0-85.56,2.76-24.19,12.13-46.37,22.46-68.08,13.69-28.75,27-57.63,39.13-87.11,7.78-19,18.51-36.49,29.47-53.81,16.4-25.92,29.16-53.69,42-81.49,18-39,37.12-77.51,55.55-116.33,3-6.36,5.1-13.19,7.35-19.89,7.22-21.49,2.36-40.31-12.92-56.66a211.18,211.18,0,0,1-16.29-18.94c-5.8-7.89-7-16.52-4.88-25.9,4-17.17,11.63-32.14,24.62-44.38,21.7-20.43,45.38-37.15,75.61-42.17a68.33,68.33,0,0,1,37.91,4.38c17.94,7.43,25.26,21.81,21.1,42.67-2.71,13.61-6.31,27.05-9.67,40.53-5.86,23.48-1.77,46.8,1.53,70,8.23,57.76,17.76,115.37,23.33,173.46,4.6,48,23.21,89.47,53.65,126.38,29.3,35.53,58.81,70.83,94,100.81,12.55,10.69,25.92,20.31,41.81,25.54,20,6.57,35.75.87,47.2-16.62,5.06-7.73,8-16.27,10.15-25.18,6.83-28.5,13.81-57,24.25-84.44.8-2.1,1.89-4.09,2.84-6.13q0,121.43.14,242.85c0,5.19-1,6.22-6.22,6.21Q1347.8,931.81,1045.75,931.92Z" transform="translate(286.99 161.05)"/><path class="a" d="M1655.9,174.55c-24.71,5.39-49.44,10.12-75,9.36-21.82-.64-38.11-8.92-48.65-28.8-19.11-36.05-46.46-63.78-83.74-81.56-36.33-17.31-73-15.54-109.9-3.37-26.38,8.7-52.46,18.13-79.7,24.2-94.48,21.08-166.57-14.53-223.33-88-22.71-29.41-39.77-62.73-61.25-93.07-14-19.82-28-39.7-47.68-54.57-13.15-9.92-28-14.63-44.46-15-12.85-.29-25.78,1.73-38.54-1.28-2.66-.62-5.59-.7-7.36-3.3h657.19c24.23,38.52,39,80.77,49.26,124.81,6.3,27.05,13.67,53.77,21.78,80.36,14.54,47.65,47.22,77.49,91.37,96.87Z" transform="translate(286.99 161.05)"/><path class="b" d="M-286.86,311.15c5.71,12,9.65,24.86,16.25,36.54,7.37,13.05,16.7,24.63,25.77,36.46,12.81,16.72,13.29,28,2.69,45.91-5.53,9.35-11.45,18.5-16.38,28.15-9.93,19.44-5.45,32,14.48,40.86,18.17,8.12,37.55,11.77,57.2,13.94,24.41,2.7,49,1.73,73.46,2.67C-51,518.07,6,537.32,58.9,569.71c30.41,18.61,46.1,45.93,48.61,81.07,1.42,19.9,2,39.86,3.34,59.76,2.19,31.94-12.41,56.79-32.24,79.92C57.86,814.66,38,839.62,25.89,869.6c-8.11,20.14-14.61,40.84-18.3,62.32H-170c0-2-.13-4,0-6a759.25,759.25,0,0,0-4.68-123.21c-2.66-22.94-11.11-43.12-29.75-57.67-24.62-19.21-54-29.13-82.41-40.75Z" transform="translate(286.99 161.05)"/><path class="b" d="M1655.9,141.16c-44.15-19.38-76.83-49.22-91.37-96.87-8.11-26.59-15.48-53.31-21.78-80.36-10.25-44-25-86.29-49.26-124.81,52.37,0,104.73.07,157.09-.13,4.53,0,5.45.91,5.44,5.44Q1655.78-7.2,1655.9,141.16Z" transform="translate(286.99 161.05)"/><path class="a" d="M-286.86,704.25c28.45,11.62,57.79,21.54,82.41,40.75,18.64,14.55,27.09,34.73,29.75,57.67A759.25,759.25,0,0,1-170,925.88c-.1,2,0,4,0,6-37.1,0-74.21-.13-111.31.15-5,0-5.67-1.52-5.66-6Q-286.75,815.18-286.86,704.25Z" transform="translate(286.99 161.05)"/><path class="b" d="M423.46,931.92c-2.18-3.83-5.83-6.2-8.93-9.13-23-21.73-45.93-43.64-59.81-72.77-9.89-20.76-10.74-42,.25-62.72s29.23-25.77,49.74-14.42c23.21,12.85,40.91,32.09,58.47,51.28,20.2,22.07,38.37,45.68,49.6,73.9,4.35,10.93,6.23,22.34,7.82,33.86Z" transform="translate(286.99 161.05)"/><path class="b" d="M-286.86,13.66c7.09,19.22,6.55,39.16,4.93,59-.88,10.73-1.63,21.61-4.93,32Z" transform="translate(286.99 161.05)"/></svg>