<svg xmlns="http://www.w3.org/2000/svg" viewBox="0 0 1943.05 1093.15"><defs><style>.a{opacity:0;fill:#ffffff;}.b{fill:#ffffff;}</style></defs><title>1800f_00130</title><path class="a" d="M-286.86,396.14V203.38c18.9-1.42,37.77-3.34,56.69-4.18,43.28-1.93,86.4,2.21,129.58,4.18,36.36,1.65,72.8,2.47,109.07,5.3,50.59,3.95,100.37.14,149.93-10.31C206.57,188.21,248.05,165,287,136c21.06-15.71,42.12-31.62,66.34-42.42,15.89-7.09,32.37-11.26,50.06-9.1,27.77,3.37,50.52,17.34,71.38,34.54,20.25,16.7,38.58,35.62,61.36,49.33,33.48,20.15,68.71,31.14,108.31,26.37,32.16-3.89,63.69-11.09,95.59-16.29,28-4.57,56-8.28,84.36-3.4,21.66,3.73,43.16,8.45,64.87,11.8A495.6,495.6,0,0,1,1021,226c28.24,12.95,44.27,34.75,50.64,64.77,7.45,35.16,10.64,70.95,16.33,106.36,5.17,32.1,11.53,63.69,27.33,92.58,12.73,23.26,27.47,45,49.26,60.79,27.87,20.24,63.71,12.59,81.21-16.93,5.72-9.65,9.44-20.11,12.44-30.85a1006.35,1006.35,0,0,1,36.91-109.12c22.54-55.23,48.13-109.18,69.28-165,25.51-67.3,65.8-124.42,119.22-172.32,19-17,40-30.73,65.4-36.86,16-3.86,28.27,1.42,38.2,13.65s15.76,26.46,20,41.38c14.17,50.05,15.73,101.78,19.3,153.14,3.26,46.81-3.34,92.84-15.86,138-15.94,57.46-34.21,114.27-47.07,172.59-11.51,52.22-20.52,104.71-18.33,158.47,1.19,29.2,5.54,57.81,17.27,85,18.58,43,54.39,67.9,93.35,89.6,0,19-.11,37.94.09,56.91,0,3.27-.62,4.48-3.89,3.83a15.32,15.32,0,0,0-3,0H481.14c8.51-21.36,9.14-43.24,4.25-65.46-6.7-30.48-23.17-51.41-55.3-57.9-24.29-4.91-47.68-.9-70.83,5.8-9.25,2.68-12.33,11.2-12.62,19.74a487.44,487.44,0,0,0,2.16,64.26c1.11,11.29,4.77,22.16,4.84,33.56q-316.83,0-633.67.14c-5.69,0-7-1.28-7-7,.26-49.33.15-98.66.15-148,.86-1.8,1.88-3.55,2.56-5.42,14.61-40.36,28.79-80.87,40.53-122.17,16.07-56.56,33.53-112.86,36.52-172.17,1.16-23.11-.09-46-11.14-67.16-8.74-16.71-23.69-23.55-42.26-20.54C-269.62,391.09-277.7,395.75-286.86,396.14ZM244.37,731.91a18.49,18.49,0,0,0,2,9.66c10.81,21.07,28.44,33.61,50.78,39.68,8.45,2.29,12.24-2.48,10.26-11.25-2.17-9.6-7.5-17.68-13.5-25-9.27-11.33-19.24-22.25-34.5-25.77C249.87,717,244.43,721.43,244.37,731.91Z" transform="translate(287.01 161.03)"/><path class="b" d="M1655.9,871.21c-39-21.7-74.77-46.61-93.35-89.6-11.73-27.14-16.08-55.75-17.27-85-2.19-53.76,6.82-106.25,18.33-158.47,12.86-58.32,31.13-115.13,47.07-172.59,12.52-45.15,19.12-91.18,15.86-138-3.57-51.36-5.13-103.09-19.3-153.14-4.23-14.92-10.07-29.19-20-41.38s-22.19-17.51-38.2-13.65c-25.37,6.13-46.44,19.86-65.4,36.86-53.42,47.9-93.71,105-119.22,172.32-21.15,55.82-46.74,109.77-69.28,165a1006.35,1006.35,0,0,0-36.91,109.12c-3,10.74-6.72,21.2-12.44,30.85-17.5,29.52-53.34,37.17-81.21,16.93-21.79-15.82-36.53-37.53-49.26-60.79-15.8-28.89-22.16-60.48-27.33-92.58-5.69-35.41-8.88-71.2-16.33-106.36-6.37-30-22.4-51.82-50.64-64.77a495.6,495.6,0,0,0-131.8-39.21c-21.71-3.35-43.21-8.07-64.87-11.8C796,170.13,768,173.84,740,178.41c-31.9,5.2-63.43,12.4-95.59,16.29-39.6,4.77-74.83-6.22-108.31-26.37C513.32,154.62,495,135.7,474.74,119c-20.86-17.2-43.61-31.17-71.38-34.54-17.69-2.16-34.17,2-50.06,9.1C329.08,104.36,308,120.27,287,136c-38.91,29.05-80.39,52.23-128.55,62.39-49.56,10.45-99.34,14.26-149.93,10.31-36.27-2.83-72.71-3.65-109.07-5.3-43.18-2-86.3-6.11-129.58-4.18-18.92.84-37.79,2.76-56.69,4.18V-19.73c6.52-3.34,13.08-6.59,19.55-10,32.33-17.18,63.79-36,97.71-50.16,16.54-6.88,33.28-13.37,48.38-23.33,12.88-8.5,21.38-19.88,24-35.2,1.29-7.43,2.06-15,3.07-22.43H27.32c9.52,17.11,21.76,32.18,35.21,46.29C73.41-103.18,85.47-93.25,100-86.71c18.94,8.52,43.62,6.22,56.45-18.09,6.28-11.88,11.53-24.16,16.67-36.51,2.68-6.44,7-12.29,7.49-19.57h239.8c.64,2.69,1.31,5.38,1.92,8.08,4,17.64,16.77,29.51,34.53,32.89,9.7,1.85,19.09.22,28.57-1,52.39-6.79,100.84-28.59,152-40h658.71c-6.87,3.58-14.09,6.64-20.57,10.84-40.33,26.13-73.84,59.56-102.76,97.69-19.65,25.9-28.95,55-27.34,87.83,1.11,22.7.36,45.49.49,68.24a75.25,75.25,0,0,0,.46,11.35c1.39,8.79,6.09,12.51,15,12.65,7.7.11,15.07-1.68,22.28-4,34.09-11.18,68-23,102.24-33.62,49.74-15.43,94.59-39.34,133.67-73.88,19.33-17.07,39-33.8,53.4-55.61,11.7-17.77,9.15-32.64-7.36-45.82a191,191,0,0,0-25.18-16.87c-36.44-20.61-71.45-43.93-111-58.76q160.13,0,320.25-.15c5.2,0,6.22,1,6.22,6.22Q1655.8,358.19,1655.9,871.21Z" transform="translate(287.01 161.03)"/><path class="a" d="M1329.57-160.88c39.5,14.83,74.51,38.15,111,58.76a191,191,0,0,1,25.18,16.87c16.51,13.18,19.06,28.05,7.36,45.82-14.35,21.81-34.07,38.54-53.4,55.61-39.08,34.54-83.93,58.45-133.67,73.88-34.26,10.62-68.15,22.44-102.24,33.62-7.21,2.36-14.58,4.15-22.28,4-8.92-.14-13.62-3.86-15-12.65a75.25,75.25,0,0,1-.46-11.35c-.13-22.75.62-45.54-.49-68.24-1.61-32.84,7.69-61.93,27.34-87.83,28.92-38.13,62.43-71.56,102.76-97.69,6.48-4.2,13.7-7.26,20.57-10.84Z" transform="translate(287.01 161.03)"/><path class="b" d="M-286.86,396.14c9.16-.39,17.24-5.05,26.21-6.5,18.57-3,33.52,3.83,42.26,20.54,11,21.14,12.3,44.05,11.14,67.16-3,59.31-20.45,115.61-36.52,172.17-11.74,41.3-25.92,81.81-40.53,122.17-.68,1.87-1.7,3.62-2.56,5.42Z" transform="translate(287.01 161.03)"/><path class="a" d="M-94.1-160.88c-1,7.48-1.78,15-3.07,22.43-2.67,15.32-11.17,26.7-24,35.2-15.1,10-31.84,16.45-48.38,23.33-33.92,14.11-65.38,33-97.71,50.16-6.47,3.44-13,6.69-19.55,10,0-45.18.09-90.35-.14-135.53,0-4.88,1.29-5.75,5.88-5.73Q-187.61-160.75-94.1-160.88Z" transform="translate(287.01 161.03)"/><path class="b" d="M353.64,931.92c-.07-11.4-3.73-22.27-4.84-33.56a487.44,487.44,0,0,1-2.16-64.26c.29-8.54,3.37-17.06,12.62-19.74,23.15-6.7,46.54-10.71,70.83-5.8,32.13,6.49,48.6,27.42,55.3,57.9,4.89,22.22,4.26,44.1-4.25,65.46Z" transform="translate(287.01 161.03)"/><path class="a" d="M180.62-160.88c-.49,7.28-4.81,13.13-7.49,19.57C168-129,162.74-116.68,156.46-104.8,143.63-80.49,119-78.19,100-86.71c-14.54-6.54-26.6-16.47-37.48-27.88-13.45-14.11-25.69-29.18-35.21-46.29Z" transform="translate(287.01 161.03)"/><path class="a" d="M637.47-160.88c-51.19,11.38-99.64,33.18-152,40-9.48,1.22-18.87,2.85-28.57,1-17.76-3.38-30.56-15.25-34.53-32.89-.61-2.7-1.28-5.39-1.92-8.08Z" transform="translate(287.01 161.03)"/><path class="b" d="M244.37,731.91c.06-10.48,5.5-14.89,15-12.7,15.26,3.52,25.23,14.44,34.5,25.77,6,7.34,11.33,15.42,13.5,25,2,8.77-1.81,13.54-10.26,11.25-22.34-6.07-40-18.61-50.78-39.68A18.49,18.49,0,0,1,244.37,731.91Z" transform="translate(287.01 161.03)"/></svg>