<svg xmlns="http://www.w3.org/2000/svg" viewBox="0 0 1943.04 1093.15"><defs><style>.a{opacity:0;fill:#ffffff;}.b{fill:#ffffff;}</style></defs><title>1800f_00273</title><path class="a" d="M1655.9,276.24V840.85c-11.05.69-22,2.57-33.16,1.71-22.49-1.72-35.17-13.33-38.25-35.45-.49-3.49-1-7-1.59-10.47-2.64-14.37-4.18-29-11.3-42.21s-16.6-18-29.79-14.69a57.3,57.3,0,0,0-19.11,9c-24.13,17-47.84,34.67-72.28,51.23-46.82,31.71-63.67,79.5-72.28,132H-47c0-10-1.81-19.74-7-28.38-15.91-26.71-25.8-55.89-35.39-85.19C-105.9,768-120.6,717-137.83,666.79c-13.7-39.89-32-77-64-105.79-20.09-18.06-40-36.36-60.51-53.93-7.71-6.6-14.59-14.59-24.52-18.34V333.91c.53-.52,1.3-.94,1.56-1.57,10.74-26.14,32-37.8,58.34-42.73,29.77-5.59,59.77-10.08,88.86-19a76.8,76.8,0,0,1,24-3.29c20.1.4,29.64,11.54,25.39,31-5.52,25.24-7.06,50.42-2.35,75.93,4.64,25.11,8.51,50.44,21.16,73.21,17.24,31,40.53,55,76.45,63.22,33.6,7.65,61.33-.84,81.14-30.81a277.67,277.67,0,0,0,27.79-54.61c9.64-25.33,13.17-51.15,8.06-78.13-4.41-23.23-.47-45.73,8.15-67.6,8.37-21.25,21-39.77,36-56.71,28.46-32.14,58.24-62.92,80.13-100.61C270.6,83,297.22,45.9,318.52,5.55c11.72-22.2,27.53-41.73,45-59.82C387-78.55,414.74-87.48,447.77-78.49,464.43-74,481.54-72.25,498.7-71c31.25,2.27,62.54,4.2,93.75,7,30.78,2.79,58.63-3.93,83.76-22.22,13.28-9.67,26.79-19,40.8-27.66,23.48-14.5,47.49-16.86,73-5.86a250.1,250.1,0,0,0,55,16.81c30.33,5.44,61,9.37,91,16.38,51.92,12.15,102.84,28.15,153.84,43.73,33.61,10.27,64.07,26.22,90.89,48.88,35,29.6,72.2,56.24,110.5,81.37,29.86,19.59,56.86,42.47,76.93,72.23,11.17,16.56,25.52,20.11,43.86,17.13,30-4.88,59.44-4.42,86.74,11.77,12.19,7.23,24.34,14.54,35.6,23.1,32.35,24.58,66,46.76,105.28,58.88C1645.13,272.24,1649.83,276.19,1655.9,276.24Z" transform="translate(287.01 161.08)"/><path class="b" d="M1655.9,276.24c-6.07-.05-10.77-4-16.24-5.69-39.31-12.12-72.93-34.3-105.28-58.88-11.26-8.56-23.41-15.87-35.6-23.1-27.3-16.19-56.75-16.65-86.74-11.77-18.34,3-32.69-.57-43.86-17.13-20.07-29.76-47.07-52.64-76.93-72.23-38.3-25.13-75.48-51.77-110.5-81.37-26.82-22.66-57.28-38.61-90.89-48.88-51-15.58-101.92-31.58-153.84-43.73-30-7-60.65-10.94-91-16.38a250.1,250.1,0,0,1-55-16.81c-25.53-11-49.54-8.64-73,5.86-14,8.65-27.52,18-40.8,27.66-25.13,18.29-53,25-83.76,22.22-31.21-2.82-62.5-4.75-93.75-7-17.16-1.24-34.27-3-50.93-7.48-33-9-60.73-.06-84.21,24.22-17.51,18.09-33.32,37.62-45,59.82C297.22,45.9,270.6,83,247.78,122.27c-21.89,37.69-51.67,68.47-80.13,100.61-15,16.94-27.63,35.46-36,56.71-8.62,21.87-12.56,44.37-8.15,67.6,5.11,27,1.58,52.8-8.06,78.13a277.67,277.67,0,0,1-27.79,54.61c-19.81,30-47.54,38.46-81.14,30.81-35.92-8.18-59.21-32.21-76.45-63.22-12.65-22.77-16.52-48.1-21.16-73.21-4.71-25.51-3.17-50.69,2.35-75.93,4.25-19.49-5.29-30.63-25.39-31a76.8,76.8,0,0,0-24,3.29c-29.09,8.89-59.09,13.38-88.86,19-26.32,4.93-47.6,16.59-58.34,42.73-.26.63-1,1.05-1.56,1.57q0-244.1-.11-488.21c0-5.08.55-6.79,6.42-6.76,74.29.27,148.58.18,222.87.18,10.63,5.32,21.25,3.74,31.88,0q837.13,0,1674.27-.2c6.84,0,7.57,1.94,7.56,7.94Q1655.78,61.56,1655.9,276.24Z" transform="translate(287.01 161.08)"/><path class="b" d="M-286.86,488.73c9.93,3.75,16.81,11.74,24.52,18.34,20.53,17.57,40.42,35.87,60.51,53.93,32,28.79,50.3,65.9,64,105.79C-120.6,717-105.9,768-89.4,818.35c9.59,29.3,19.48,58.48,35.39,85.19,5.15,8.64,6.95,18.35,7,28.38q-116.86,0-233.74.15c-5.2,0-6.22-1-6.22-6.22Q-286.73,707.29-286.86,488.73Z" transform="translate(287.01 161.08)"/><path class="b" d="M1378.14,931.92c8.61-52.46,25.46-100.25,72.28-132,24.44-16.56,48.15-34.2,72.28-51.23a57.3,57.3,0,0,1,19.11-9c13.19-3.27,22.7,1.56,29.79,14.69s8.66,27.84,11.3,42.21c.64,3.47,1.1,7,1.59,10.47,3.08,22.12,15.76,33.73,38.25,35.45,11.16.86,22.11-1,33.16-1.71,0,28.59-.13,57.17.13,85.75,0,4.54-.92,5.45-5.45,5.44Q1514.37,931.8,1378.14,931.92Z" transform="translate(287.01 161.08)"/><path class="a" d="M-25.8-160.88c-10.63,3.74-21.25,5.32-31.88,0Z" transform="translate(287.01 161.08)"/></svg>