<svg xmlns="http://www.w3.org/2000/svg" viewBox="0 0 1943.07 1093.09"><defs><style>.a{opacity:0;fill:#ffffff;}.b{fill:#ffffff;}</style></defs><title>1800f_00254</title><path class="a" d="M1655.9,340V511.49c-6.55,4.84-11.69,11.12-17.21,17-26.32,27.92-50.2,57.54-64.63,93.69-6.55,16.42-11.89,33.37-20.15,49.07-6.67,12.65-14.83,24.1-27.61,31.51s-26.22,6.09-37.18-3.57a46.19,46.19,0,0,1-13-18.44c-9.33-25.25-26-45.46-43.3-65.36-17.53-20.2-32.62-41.75-40.71-67.73-4.22-13.58-12.33-25.36-19.82-37.41-19.52-31.37-48.9-49.89-82.13-62.83-21.09-8.21-42.35-2.57-63.07,3.51-25.12,7.37-47.93,20.22-71.62,30.95-19.45,8.8-39,15.52-60.67,8.28-5.5-1.84-11.21-3.06-16.69-5-55.24-19.15-95.87,24.29-105.79,61.54-5.22,19.61-2,39.3,4,58.26,10.49,33,29.08,59.5,63,72.1,43.06,16,93.45-2.13,121.59-33.71,21.83-24.51,39.22-52.7,61-77.34,7.7-8.71,15.36-17.49,25.23-23.91,2.87-1.87,6.2-3,9.34-1.44,3.46,1.71,2.16,5.43,1.89,8.21-.9,8.91-4.39,17.13-7.88,25.23-20.44,47.39-43.69,93.41-68.23,138.79-14.9,27.57-30.61,54.74-40.75,84.61-6.67,19.62-13.27,39.28-23,57.66-4.41,8.29-9.22,16.32-16.2,22.75-10.63,9.79-21,10.9-33.15,3.32a94.87,94.87,0,0,1-13.43-9.87c-17-15.33-36.68-25.79-58.59-32.32a249.05,249.05,0,0,0-48.21-9.74c-30.85-2.86-61.09-.74-90,11.93-37.58,16.5-53,56.63-34.72,90.67H274.72c-22.66-16-40.55-37.14-60-56.6-7.68-7.69-15.25-15.61-23.69-22.4-44.9-36.1-94.86-63.41-148.67-83.69-30.11-11.34-61-13-92.48-6.22-41.33,8.92-81.64,21.24-121.45,35.34-15.72,5.57-30.81,12.88-47,17-13.91,3.53-18.63-.79-16.49-14.86a55.13,55.13,0,0,1,2.28-8.79c3.71-11.32,9.08-21.91,14.45-32.52,11.66-23,26.79-44.08,37.92-67.4,9.3-19.49,8.43-38.66-2-57.42a194.66,194.66,0,0,0-21.3-31.3,160.15,160.15,0,0,1-26-43.39c-14.15-34.81-16.59-71.17-14.31-108.06,2.83-45.91,23.73-80.47,65-102.3,17.84-9.43,35.74-19.09,50.29-33.52C-101,288.41-85.22,254.21-76,217.35c12.26-49,7.26-97.84-6.61-146-5.31-18.44-13.53-36-16.65-55.09C-102.1-1.21-97.72-16.24-85.36-29c8.88-9.14,19.26-16.38,30.08-22.93C9.77-91.26,76.82-126.34,150-148.52c10.06-3,20.3-6.15,29.11-12.36H1270.38c.91,2.35,3.27,2.27,5.08,2.67A563,563,0,0,0,1344.79-147c9.48.87,19.21,1.37,28.41-2.33,5.22-2.1,10.36-4.41,9.5-11.56q133.56,0,267.12-.15c5.2,0,6.23,1,6.22,6.22q-.29,185.16-.14,370.34c-2.17,11.89-4.66,23.73-6.44,35.68C1645,281.24,1644.83,311,1655.9,340ZM1646.07-3.8a130.22,130.22,0,0,0-1.89-22.64c-8.2-52.35-41.07-89-91.26-100.52-32.33-7.41-64.88-2.68-97.17,1-12.84,1.46-17.07,9.68-13.78,21a35.46,35.46,0,0,0,4.07,8.9c12.31,19.49,26.32,37.59,43.63,53,27.13,24.16,56.22,45.51,89.15,61.09,14.37,6.8,29.37,12.51,45.64,12.91,10.48.26,17-5,19.84-15.15C1646.15,9.32,1646,2.76,1646.07-3.8Z" transform="translate(287.03 161.03)"/><path class="b" d="M824.15,931.92c-18.29-34-2.86-74.17,34.72-90.67,28.86-12.67,59.1-14.79,90-11.93A249.05,249.05,0,0,1,997,839.06c21.91,6.53,41.54,17,58.59,32.32a94.87,94.87,0,0,0,13.43,9.87c12.2,7.58,22.52,6.47,33.15-3.32,7-6.43,11.79-14.46,16.2-22.75,9.78-18.38,16.38-38,23-57.66,10.14-29.87,25.85-57,40.75-84.61,24.54-45.38,47.79-91.4,68.23-138.79,3.49-8.1,7-16.32,7.88-25.23.27-2.78,1.57-6.5-1.89-8.21-3.14-1.56-6.47-.43-9.34,1.44-9.87,6.42-17.53,15.2-25.23,23.91-21.78,24.64-39.17,52.83-61,77.34-28.14,31.58-78.53,49.73-121.59,33.71-33.87-12.6-52.46-39.09-63-72.1-6-19-9.24-38.65-4-58.26,9.92-37.25,50.55-80.69,105.79-61.54,5.48,1.9,11.19,3.12,16.69,5,21.62,7.24,41.22.52,60.67-8.28,23.69-10.73,46.5-23.58,71.62-30.95,20.72-6.08,42-11.72,63.07-3.51,33.23,12.94,62.61,31.46,82.13,62.83,7.49,12,15.6,23.83,19.82,37.41,8.09,26,23.18,47.53,40.71,67.73,17.27,19.9,34,40.11,43.3,65.36a46.19,46.19,0,0,0,13,18.44c11,9.66,24.52,10.93,37.18,3.57s20.94-18.86,27.61-31.51c8.26-15.7,13.6-32.65,20.15-49.07,14.43-36.15,38.31-65.77,64.63-93.69,5.52-5.86,10.66-12.14,17.21-17q0,207.18.14,414.36c0,5.19-1,6.21-6.22,6.21Q1237,931.82,824.15,931.92Z" transform="translate(287.03 161.03)"/><path class="b" d="M179.1-160.88c-8.81,6.21-19,9.31-29.11,12.36C76.82-126.34,9.77-91.26-55.28-51.89-66.1-45.34-76.48-38.1-85.36-29-97.72-16.24-102.1-1.21-99.25,16.27c3.12,19.12,11.34,36.65,16.65,55.09,13.87,48.15,18.87,97,6.61,146-9.23,36.86-25.06,71.06-52.69,98.44-14.55,14.43-32.45,24.09-50.29,33.52-41.28,21.83-62.18,56.39-65,102.3-2.28,36.89.16,73.25,14.31,108.06a160.15,160.15,0,0,0,26,43.39,194.66,194.66,0,0,1,21.3,31.3c10.4,18.76,11.27,37.93,2,57.42-11.13,23.32-26.26,44.38-37.92,67.4-5.37,10.61-10.74,21.2-14.45,32.52a55.13,55.13,0,0,0-2.28,8.79c-2.14,14.07,2.58,18.39,16.49,14.86,16.22-4.12,31.31-11.43,47-17,39.81-14.1,80.12-26.42,121.45-35.34,31.5-6.81,62.37-5.12,92.48,6.22C96.18,789.51,146.14,816.82,191,852.92c8.44,6.79,16,14.71,23.69,22.4,19.44,19.46,37.33,40.55,60,56.6q-277.28,0-554.55.12c-5.32,0-7.2-.62-7.2-6.75q.28-539.76,0-1079.51c0-6.06,1.79-6.79,7.16-6.79Q-50.38-160.77,179.1-160.88Z" transform="translate(287.03 161.03)"/><path class="b" d="M1382.7-160.88c.86,7.15-4.28,9.46-9.5,11.56-9.2,3.7-18.93,3.2-28.41,2.33a563,563,0,0,1-69.33-11.22c-1.81-.4-4.17-.32-5.08-2.67Z" transform="translate(287.03 161.03)"/><path class="b" d="M1655.9,340c-11.07-28.94-10.9-58.74-6.44-88.77,1.78-12,4.27-23.79,6.44-35.68Z" transform="translate(287.03 161.03)"/><path class="b" d="M1646.07-3.8c0,6.56.08,13.12-1.77,19.55-2.89,10.1-9.36,15.41-19.84,15.15-16.27-.4-31.27-6.11-45.64-12.91-32.93-15.58-62-36.93-89.15-61.09-17.31-15.42-31.32-33.52-43.63-53A35.46,35.46,0,0,1,1442-105c-3.29-11.29.94-19.51,13.78-21,32.29-3.66,64.84-8.39,97.17-1,50.19,11.48,83.06,48.17,91.26,100.52A130.22,130.22,0,0,1,1646.07-3.8Z" transform="translate(287.03 161.03)"/></svg>