<svg xmlns="http://www.w3.org/2000/svg" viewBox="0 0 1943.04 1093.09"><defs><style>.a{opacity:0;fill:#ffffff;}.b{fill:#ffffff;}</style></defs><title>1800f_00239</title><path class="a" d="M925.84,931.92H420.42c-6.69-8.3-15.9-13.85-23.37-21.31q-32.73-32.7-65.52-65.35c-17.27-17.21-36.11-32.38-57.4-44.41-15.4-8.71-30.66-17.68-46.18-26.18-30.87-16.9-55.5-41.18-79.21-66.54-30.87-33-67.61-56.61-110.65-70.61Q-21.37,618.17-80.56,598c-18.88-6.45-37.49-13.69-55-23.58-15-8.47-24.34-20.66-24.87-38.1-.58-19.49-6.86-37.26-15.3-54.3-32.8-66.19-48.19-136.28-49.45-210-.49-28.31-.52-56.62-.95-84.93-.35-23.78-1.83-47.46-5.81-70.94C-236,92-240.72,68-242.7,43.48a1009.5,1009.5,0,0,1-1.2-150c1.22-18.12,1.16-36.36,4.09-54.36H409.8A69,69,0,0,0,406.28-140c-.66,20.65,5.66,39.36,15.49,57.1C436.11-57.09,455.58-35,475-13.13c26,29.33,47,61,56.33,99.94,7.2,30.14,23.25,55.79,46.83,76.45,24.08,21.09,45.51,23.17,72.6,6.41,26.69-16.52,51.87-35.19,76.85-54.13C752.42,96.75,776.07,76.48,802,59.17a88.89,88.89,0,0,1,28.91-13c17-4,28.92.36,35.47,14,17.8,37,22.06,75,6.34,113.76-12.1,29.85-31.23,51-66.25,52.81a110.32,110.32,0,0,0-35.51,7.3c-22.61,9-30.21,28.8-19.25,50.48,7.92,15.68,20.32,27.6,33.35,38.91,19.13,16.62,40.64,30.05,61,45.08,40,29.64,80.06,59.29,124.3,82.65,16.28,8.6,33.25,11.24,51.33,9.51,20.48-2,40.2-7.58,60.18-11.94,10.37-2.27,20.76-4.67,31.49-3.89,10,.73,13.39,5.64,10.64,15.35a55.88,55.88,0,0,1-8.65,17.64c-44.3,60.9-94,115.86-163.57,149.1-23.72,11.32-47.48,22.71-69.28,37.59-8.53,5.82-17.26,11.58-22.88,20.67-5.09,8.24-4.41,14.18,2.31,21.1,8.11,8.35,18.17,14,28.79,17.89,24.62,9.08,37.12,27.63,43,51.89,7.62,31.61,4.15,63.35.47,95C931.7,891.42,928.61,911.65,925.84,931.92ZM234.6,560.1c43-.19,76.75-.54,109.58-8.6,52.09-12.79,102.74-30.5,152.75-49.68,43.26-16.6,70.06-49.31,83.24-93.3,4.06-13.55,7.32-27.35,4.15-41.76-2-9.1-6.52-12.95-15.59-13.09-9.79-.16-18.27,4-26.48,8.33-27.07,14.23-55.3,18.59-85.14,11.45-16.24-3.88-31.88-9.66-47.74-14.77-13.18-4.24-26.52-8.58-40.77-5.52-17.31,3.72-29.21,15.37-40.47,27.78-21.72,23.95-41.15,49.95-65,72-10.82,10-22.22,19.18-35.82,25.17-16.43,7.23-33.76,8-51.31,6.44-36.12-3.29-70.69-11.58-101.92-31.1-17.4-10.86-43-9.73-59.5,2.6-18.65,14-21.64,33.3-3.86,50,13.79,13,30.49,20.64,48,26.71C118.68,553.56,181,559.11,234.6,560.1Z" transform="translate(287 161.06)"/><path class="a" d="M1655.9,238.29V264.1a32.2,32.2,0,0,0-4.51.11c-36,5.61-67.27,20.57-94,45.55-39.61,37-72.32,79.5-101.63,124.93-30.41,47.15-40.71,97.68-29.69,152.81,8.8,44,13.54,88.37,11.22,133.34-.7,13.62-2.21,27.21-1.62,40.89.56,13.16,4.91,24.5,14.46,33.93,11.61,11.48,25.12,20.34,38.81,28.93,22.55,14.15,45.7,27,72.57,31.3,21.71,3.48,43.15,8.26,64.48,13.57,10,2.5,19.53,6.81,29.91,7.82,0,16.69-.14,33.39.1,50.08,0,3.81-.86,4.67-4.66,4.66-42.5-.16-85-.1-127.49-.1H1112.53c12.84-23.58,32.85-39.44,56.16-51.49,38.32-19.81,79.12-33.4,119.86-47.06,17.72-6,35.73-11,53-18.43,24.36-10.48,28.57-24.32,14-46.25C1345,752.85,1332,739,1320,724.36c-35.11-42.56-49.76-92-45.74-146.08a578.33,578.33,0,0,1,29-143c7.55-22.3,11.87-44.9,8.3-68.54a135.5,135.5,0,0,1-1.32-15.85c-.82-25.44,7.61-48.68,17.17-71.66,7.47-17.95,16.46-35.3,22-54,3.88-13.06-.75-25.41-11.92-33.16-7.18-5-15.2-8-23.6-10-29.74-7.21-60.09-11.07-90.22-16.13-46-7.71-92-7.49-138.14-1.06-21.46,3-43,6.83-64.85,3.64-20.51-3-36.68-11.91-46.17-31.3-5.94-12.12-10.07-24.78-13.59-37.73-5.17-19-9.47-38.27-16.91-56.6C934.49,19.47,920.59.57,895.35-7.88c-18.15-6.07-32.74-17.71-45.92-31.31Q831-58.27,812.11-77a93.79,93.79,0,0,0-11.45-9.9c-22.1-15.83-46.76-15.68-72-11-26,4.81-50.45,14.6-75.49,22.54-14.23,4.51-28.62,8.45-43.54,9.82-27.23,2.49-49.84-8.64-70.5-24.72-28.54-22.22-55-46.87-82.25-70.63H1540.54c.26,3.08,2.7,4.77,4.5,6.81,30.78,34.92,51.66,74,52.45,121.91.39,23.09-2.23,45.08-15.79,65-15.49,22.79-28.63,47-40.51,71.95-13.82,29-17.58,58-.31,86.86,19.3,32.22,45.18,53.64,85.65,49.51C1636.32,240.2,1646,238.12,1655.9,238.29Z" transform="translate(287 161.06)"/><path class="b" d="M456.85-160.88c27.23,23.76,53.71,48.41,82.25,70.63C559.76-74.17,582.37-63,609.6-65.53c14.92-1.37,29.31-5.31,43.54-9.82,25-7.94,49.53-17.73,75.49-22.54,25.27-4.67,49.93-4.82,72,11A93.79,93.79,0,0,1,812.11-77q18.81,18.75,37.32,37.79c13.18,13.6,27.77,25.24,45.92,31.31C920.59.57,934.49,19.47,944,42.86c7.44,18.33,11.74,37.6,16.91,56.6,3.52,13,7.65,25.61,13.59,37.73,9.49,19.39,25.66,28.31,46.17,31.3,21.89,3.19,43.39-.64,64.85-3.64,46.14-6.43,92.18-6.65,138.14,1.06,30.13,5.06,60.48,8.92,90.22,16.13,8.4,2,16.42,5,23.6,10,11.17,7.75,15.8,20.1,11.92,33.16-5.57,18.72-14.56,36.07-22,54-9.56,23-18,46.22-17.17,71.66a135.5,135.5,0,0,0,1.32,15.85c3.57,23.64-.75,46.24-8.3,68.54a578.33,578.33,0,0,0-29,143c-4,54.12,10.63,103.52,45.74,146.08,12,14.6,25,28.49,35.52,44.33,14.58,21.93,10.37,35.77-14,46.25-17.23,7.41-35.24,12.48-53,18.43-40.74,13.66-81.54,27.25-119.86,47.06-23.31,12.05-43.32,27.91-56.16,51.49H925.84c2.77-20.27,5.86-40.5,8.23-60.81,3.68-31.66,7.15-63.4-.47-95-5.85-24.26-18.35-42.81-43-51.89-10.62-3.92-20.68-9.54-28.79-17.89-6.72-6.92-7.4-12.86-2.31-21.1,5.62-9.09,14.35-14.85,22.88-20.67,21.8-14.88,45.56-26.27,69.28-37.59,69.62-33.24,119.27-88.2,163.57-149.1a55.88,55.88,0,0,0,8.65-17.64c2.75-9.71-.61-14.62-10.64-15.35-10.73-.78-21.12,1.62-31.49,3.89-20,4.36-39.7,10-60.18,11.94-18.08,1.73-35.05-.91-51.33-9.51C926,427.83,886,398.18,846,368.54c-20.31-15-41.82-28.46-61-45.08-13-11.31-25.43-23.23-33.35-38.91-11-21.68-3.36-41.45,19.25-50.48a110.32,110.32,0,0,1,35.51-7.3c35-1.77,54.15-23,66.25-52.81,15.72-38.8,11.46-76.79-6.34-113.76-6.55-13.62-18.52-18-35.47-14a88.89,88.89,0,0,0-28.91,13c-25.89,17.31-49.54,37.58-74.31,56.37-25,18.94-50.16,37.61-76.85,54.13-27.09,16.76-48.52,14.68-72.6-6.41C554.62,142.6,538.57,117,531.37,86.81c-9.31-39-30.31-70.61-56.33-99.94-19.46-21.92-38.93-44-53.27-69.82-9.83-17.74-16.15-36.45-15.49-57.1a69,69,0,0,1,3.52-20.83Z" transform="translate(287 161.06)"/><path class="b" d="M-239.81-160.88c-2.93,18-2.87,36.24-4.09,54.36a1009.5,1009.5,0,0,0,1.2,150c2,24.48,6.69,48.53,10.79,72.68,4,23.48,5.46,47.16,5.81,70.94.43,28.31.46,56.62.95,84.93,1.26,73.69,16.65,143.78,49.45,210,8.44,17,14.72,34.81,15.3,54.3.53,17.44,9.89,29.63,24.87,38.1,17.48,9.89,36.09,17.13,55,23.58q59.18,20.22,118.65,39.54c43,14,79.78,37.59,110.65,70.61,23.71,25.36,48.34,49.64,79.21,66.54,15.52,8.5,30.78,17.47,46.18,26.18,21.29,12,40.13,27.2,57.4,44.41q32.78,32.67,65.52,65.35c7.47,7.46,16.68,13,23.37,21.31H223.11c-15.42-9.31-32-16-49.18-21.17a111.12,111.12,0,0,0-23.78-4.39C129,904.82,115,916.3,103.21,931.92H-106.24c-3.42-5.3-6.35-11-10.32-15.83-45.75-55.76-95.88-105.42-170.3-120.77q0-474.69-.14-949.37c0-5.69,1.25-7.2,7-7C-266.64-160.55-253.22-160.88-239.81-160.88Z" transform="translate(287 161.06)"/><path class="b" d="M1655.9,877.28c-10.38-1-19.91-5.32-29.91-7.82-21.33-5.31-42.77-10.09-64.48-13.57-26.87-4.31-50-17.15-72.57-31.3-13.69-8.59-27.2-17.45-38.81-28.93-9.55-9.43-13.9-20.77-14.46-33.93-.59-13.68.92-27.27,1.62-40.89,2.32-45-2.42-89.36-11.22-133.34-11-55.13-.72-105.66,29.69-152.81,29.31-45.43,62-87.9,101.63-124.93,26.73-25,58-39.94,94-45.55a32.2,32.2,0,0,1,4.51-.11Z" transform="translate(287 161.06)"/><path class="b" d="M1655.9,238.29c-9.91-.17-19.58,1.91-29.37,2.91-40.47,4.13-66.35-17.29-85.65-49.51-17.27-28.84-13.51-57.86.31-86.86,11.88-24.92,25-49.16,40.51-71.95,13.56-20,16.18-41.95,15.79-65-.79-47.87-21.67-87-52.45-121.91-1.8-2-4.24-3.73-4.5-6.81,36.43,0,72.86.13,109.28-.16,5.21,0,6.23,1,6.22,6.23Q1655.77,41.74,1655.9,238.29Z" transform="translate(287 161.06)"/><path class="a" d="M-286.86,795.32c74.42,15.35,124.55,65,170.3,120.77,4,4.84,6.9,10.53,10.32,15.83q-87.45,0-174.89.11c-4.6,0-5.89-.87-5.86-5.74C-286.76,882.63-286.86,839-286.86,795.32Z" transform="translate(287 161.06)"/><path class="a" d="M103.21,931.92C115,916.3,129,904.82,150.15,906.36a111.12,111.12,0,0,1,23.78,4.39c17.22,5.14,33.76,11.86,49.18,21.17Z" transform="translate(287 161.06)"/><path class="b" d="M234.6,560.1c-53.64-1-115.92-6.54-175.91-27.36-17.5-6.07-34.2-13.74-48-26.71-17.78-16.72-14.79-36,3.86-50,16.46-12.33,42.1-13.46,59.5-2.6,31.23,19.52,65.8,27.81,101.92,31.1,17.55,1.6,34.88.79,51.31-6.44,13.6-6,25-15.18,35.82-25.17,23.87-22,43.3-48,65-72,11.26-12.41,23.16-24.06,40.47-27.78,14.25-3.06,27.59,1.28,40.77,5.52,15.86,5.11,31.5,10.89,47.74,14.77,29.84,7.14,58.07,2.78,85.14-11.45,8.21-4.31,16.69-8.49,26.48-8.33,9.07.14,13.59,4,15.59,13.09,3.17,14.41-.09,28.21-4.15,41.76-13.18,44-40,76.7-83.24,93.3-50,19.18-100.66,36.89-152.75,49.68C311.35,559.56,277.56,559.91,234.6,560.1Z" transform="translate(287 161.06)"/></svg>