<svg xmlns="http://www.w3.org/2000/svg" viewBox="0 0 1943.07 1093.09"><defs><style>.a{opacity:0;fill:#ffffff;}.b{fill:#ffffff;}</style></defs><title>1800f_00196</title><path class="a" d="M1293.15,931.92q-786.63,0-1573.25.15c-5.85,0-6.93-1.47-6.9-7.05.25-48.29.14-96.59.14-144.88a33.92,33.92,0,0,0,2.77-3.49,215.6,215.6,0,0,1,39.92-48.27c12.51-11.37,24.72-23.08,35.29-36.4,24.36-30.67,24.92-68.27,9.1-94.35-19.54-32.22-50.65-48-87.08-54.26v-258c1.35,2.12,2.79,4.18,4,6.35,21.12,36.84,46.44,69.83,83.39,92.43,17,10.42,34.66,19.82,51.21,31,25.76,17.44,42.59,40.48,46.93,71.88,1.63,11.75,3.75,23.43,5.87,35.1,6,32.91,20.36,60.65,51.48,76.11,25.77,12.81,52.28,24.14,78.72,35.54a36.86,36.86,0,0,0,20,2.9c14.93-2.23,23.28-12.55,29.82-24.51,18.82-34.41,26.1-72.08,29-110.62,3.45-46.36-.59-92.42-8.92-138.07-5.87-32.15-16-62.66-36.44-88.94-14.46-18.63-33.39-32.13-51.9-46.25-19-14.45-36.58-30.49-48.12-51.88-8.14-15.09-5.82-29.28,5-42.22,6.75-8,15.17-14.07,24.29-19.15,30.58-17,64-25.95,97.64-34.42,31.57-8,63.84-13.28,94.21-25.74C269.71,21.93,337.2-28.95,395.07-93a339,339,0,0,0,48.12-67.83h343c.16,2.63-2,4-3.27,5.75-20,27.53-12.15,54.46,19.55,66.76,1.42.55,2.85,1.06,4.29,1.52,21,6.69,42.44,6.45,63.87,4.1,24.35-2.66,48.5-7.54,72.89-9.36,45.82-3.43,90,7.44,133.61,19.5,27.34,7.54,36.81,21.67,36.93,50,0,7.57-.09,15.12,1.52,22.62,3.15,14.67,13.49,19.52,25.66,11a139.82,139.82,0,0,0,22.33-19.23c22.83-24.6,58.35-22.17,78.8-4.52A203.89,203.89,0,0,1,1266,10.75c24.52,29.33,42.56,62.66,59.49,96.66a368.62,368.62,0,0,0,47,71.46c24,28.84,51.27,54.49,77.37,81.3,40.26,41.36,81.53,81.53,127.88,116.18,25.29,18.9,51.56,36.32,78.23,53.18V543.37a30.91,30.91,0,0,0-2,3.12c-39.57,79.73-87.33,154.4-141.53,224.82-40.87,53.09-92.68,88.89-162,94.3-15.9,1.24-30.68,6.52-40,21.32C1301.67,900.82,1296.54,916,1293.15,931.92Z" transform="translate(287.03 161.02)"/><path class="b" d="M443.19-160.88A339,339,0,0,1,395.07-93c-57.87,64.1-125.36,115-205.73,147.94C159,67.35,126.7,72.67,95.13,80.63,61.53,89.1,28.07,98-2.51,115.05c-9.12,5.08-17.54,11.1-24.29,19.15-10.84,12.94-13.16,27.13-5,42.22,11.54,21.39,29.15,37.43,48.12,51.88,18.51,14.12,37.44,27.62,51.9,46.25,20.4,26.28,30.57,56.79,36.44,88.94C113,409.14,117,455.2,113.56,501.56c-2.87,38.54-10.15,76.21-29,110.62-6.54,12-14.89,22.28-29.82,24.51a36.86,36.86,0,0,1-20-2.9c-26.44-11.4-52.95-22.73-78.72-35.54-31.12-15.46-45.49-43.2-51.48-76.11-2.12-11.67-4.24-23.35-5.87-35.1-4.34-31.4-21.17-54.44-46.93-71.88-16.55-11.22-34.18-20.62-51.21-31-36.95-22.6-62.27-55.59-83.39-92.43-1.24-2.17-2.68-4.23-4-6.35q0-219.93-.17-439.87c0-5.72,1.49-6.48,6.71-6.48Q81.44-160.79,443.19-160.88Z" transform="translate(287.03 161.02)"/><path class="b" d="M1655.9,429.53c-26.67-16.86-52.94-34.28-78.23-53.18-46.35-34.65-87.62-74.82-127.88-116.18-26.1-26.81-53.4-52.46-77.37-81.3a368.62,368.62,0,0,1-47-71.46c-16.93-34-35-67.33-59.49-96.66a203.89,203.89,0,0,0-23.58-23.53c-20.45-17.65-56-20.08-78.8,4.52A139.82,139.82,0,0,1,1141.26,11c-12.17,8.54-22.51,3.69-25.66-11-1.61-7.5-1.5-15-1.52-22.62-.12-28.31-9.59-42.44-36.93-50-43.65-12.06-87.79-22.93-133.61-19.5-24.39,1.82-48.54,6.7-72.89,9.36-21.43,2.35-42.92,2.59-63.87-4.1-1.44-.46-2.87-1-4.29-1.52-31.7-12.3-39.58-39.23-19.55-66.76,1.3-1.79,3.43-3.12,3.27-5.75h778.62c-9.54,3.11-19.22,5.88-28.6,9.41-47.29,17.77-65.87,56.59-49.94,104.51,6.26,18.81,15.54,36.26,26,53,35.43,56.45,86.57,95.31,143.57,127.54Z" transform="translate(287.03 161.02)"/><path class="b" d="M1293.15,931.92c3.39-15.9,8.52-31.1,17.24-45,9.29-14.8,24.07-20.08,40-21.32,69.29-5.41,121.1-41.21,162-94.3,54.2-70.42,102-145.09,141.53-224.82a30.91,30.91,0,0,1,2-3.12q0,191.24.14,382.48c0,5.19-1,6.22-6.22,6.21Q1471.49,931.78,1293.15,931.92Z" transform="translate(287.03 161.02)"/><path class="a" d="M1655.9,133.57c-57-32.23-108.14-71.09-143.57-127.54-10.5-16.73-19.78-34.18-26-53-15.93-47.92,2.65-86.74,49.94-104.51,9.38-3.53,19.06-6.3,28.6-9.41,28.58,0,57.17.13,85.75-.13,4.54-.05,5.45.91,5.44,5.44Q1655.78-11,1655.9,133.57Z" transform="translate(287.03 161.02)"/><path class="b" d="M-286.86,543.37c36.43,6.23,67.54,22,87.08,54.26,15.82,26.08,15.26,63.68-9.1,94.35-10.57,13.32-22.78,25-35.29,36.4a215.6,215.6,0,0,0-39.92,48.27,33.92,33.92,0,0,1-2.77,3.49Z" transform="translate(287.03 161.02)"/></svg>