<svg xmlns="http://www.w3.org/2000/svg" viewBox="0 0 1943.05 1093.11"><defs><style>.a{opacity:0;fill:#ffffff;}.b{fill:#ffffff;}</style></defs><title>1800f_00152</title><path class="a" d="M-286.86,180.62q0-167.34-.15-334.67c0-5.69,1.29-7,7-7q843.51.22,1687,.14c-7.4,7.67-17,11.65-26.47,15.88-9,4-18.15,7.71-26.13,13.62-38.73,28.68-80.78,50.61-127.56,63-20.64,5.46-42,5.5-63,8.59C1122-53.61,1084.23-20.43,1075,18.32c-4.34,18.25,2,32.91,15.85,44.44,17.85,14.88,39.44,20.11,62,21.28,27.88,1.46,54.2-7.91,81.18-12.88,26.41-4.87,48.77-17.06,69.65-33.15,14.69-11.31,25.91-26.1,39.78-38.28,22.69-19.92,47.69-28.13,77.59-20.67,31.94,8,62.48,20.28,94,29.44,21.84,6.34,43.52,13.27,64.52,22.09,13.87,5.83,26.88,13.05,36.83,24.69,6.53,7.63,6,13.92-1.82,20.15a76.62,76.62,0,0,1-12.19,7.62c-19,10-38.38,19.35-57.13,29.81-37.54,20.91-73.17,45.1-111,65.63-61.52,33.43-119.59,71.35-170.52,120.22-30,28.84-52.4,60.58-59.73,102-3,16.91-5.73,33.88-8.91,50.76-7,37.21-16.63,73.93-19.82,111.86-1.82,21.55.82,41,16.43,57.69,12.83,13.68,27.17,25.68,40.53,38.74,48.16,47.07,105.4,78.32,170.07,95.41,36.17,9.56,61.81,30.59,80.3,62.13,21.42,36.55,38.72,75,53.33,114.67H211c-.35-2.68,1.17-4.85,2-7.22,10.41-30.88,9.77-60.8-9.17-88.45-20.25-29.55-49.63-46.9-82.33-59.42-31.68-12.13-64.81-14.67-98.35-15.36-25-.52-50-1.48-74.36-8.56C-76,745.72-92.82,730.7-99.7,705.39a152.84,152.84,0,0,1-5-26.79,831.07,831.07,0,0,1-2.5-98.53c1-33.39-13.36-58.22-38.23-78.57-14.53-11.89-31.58-20.1-46-32-20.88-17.25-40.41-36-60.13-54.51-5.9-5.54-11.55-11.39-15.51-18.56-5.16-9.37-4-17.15,3.57-24.76,6.58-6.64,14.82-10.49,23.48-13.48,18.7-6.45,38.13-9.86,57.5-13.52,34-6.44,68.24-11.62,101.66-20.93,31-8.63,58.74-24.48,87.26-38.61,17.45-8.64,35.58-12.71,55-10a509.81,509.81,0,0,1,70.9,15.76c47.28,13.79,94.6,17.66,142.83,5.1,39-10.15,76.79-22.76,107.37-50.34,18.11-16.32,32.38-35.61,37-60.31,2.56-13.59,2.14-27-9.46-37-10.91-9.47-24-8.3-36.8-6.11-27.81,4.76-51.65,18.93-74.77,33.95-35.26,22.9-73,38.27-115.35,39.9-43.74,1.68-85.59,10.5-125,30-13.91,6.86-28.46,10.59-43.53,3.5-41.31-19.44-76.29-45.58-94.4-89.56-7.87-19.11-21.39-27.83-42.1-27-14.86.57-28.74,5.59-42.41,10.89-28.52,11.05-56.86,22.57-86,31.9C-262.24,179.52-274.25,182.32-286.86,180.62Zm944.61-47.23a336,336,0,0,0-35.61,1c-27.88,2.35-53.34,11.09-75.64,28.2-24.08,18.5-29.52,41.51-15.21,68.17,16.29,30.33,41,53.12,69,72.28,36.18,24.77,75.94,43.32,114.62,63.68C734.6,377,756,380.77,778.13,379.28c19.39-1.3,38.82-2.66,58.11-5,24.74-3,45.28,4.72,62.67,21.93,8.45,8.36,16.29,17.36,25.08,25.33,13.35,12.1,20.65,12.81,36.1,3.71,42.41-25,86.77-46.8,125.16-78.35,16.14-13.26,34.76-23.51,47.67-40.6,17.29-22.89,19-50.62,1.78-69.63-10.27-11.35-15.89-24.4-21.21-38-13.41-34.2-29.29-67.13-49.24-98-9-13.92-21.16-22.53-37.71-25.34-39.53-6.71-79-7.13-118.29,1.26-45.76,9.78-90.48,23.49-135.08,37.61C735.66,126,697.43,134.2,657.75,133.39Zm119.44,604c0,22.47,2.26,36.11,6.36,44.85,6.42,13.69,16,17.23,29.65,10.71a74.19,74.19,0,0,0,15.63-10.65c13.74-11.62,26.13-24.63,38.38-37.76,24.87-26.67,53.62-46.68,89.9-54.72,20.81-4.61,42-5.79,63.07-8.3,20.67-2.48,40.42-7.66,56.4-21.77,20.55-18.15,25.52-37.63,7.72-60.24-2-2.58-4-5.24-6.13-7.71-19.76-22.66-39.65-45.09-56.5-70.22-14.32-21.36-35.19-36-57.89-47.86-9.64-5-18.62-4-26.37,3.83a108.46,108.46,0,0,0-11.54,13c-17.22,24.19-36.38,46.59-58.65,66.35a291.82,291.82,0,0,0-32.71,34.79C798.39,636.17,779.58,687.17,777.19,737.35Z" transform="translate(287.01 161.03)"/><path class="b" d="M1536,931.92c-14.61-39.7-31.91-78.12-53.33-114.67-18.49-31.54-44.13-52.57-80.3-62.13-64.67-17.09-121.91-48.34-170.07-95.41-13.36-13.06-27.7-25.06-40.53-38.74-15.61-16.65-18.25-36.14-16.43-57.69,3.19-37.93,12.82-74.65,19.82-111.86,3.18-16.88,5.91-33.85,8.91-50.76,7.33-41.37,29.69-73.11,59.73-102,50.93-48.87,109-86.79,170.52-120.22,37.78-20.53,73.41-44.72,111-65.63C1564,102.4,1583.37,93,1602.39,83.05a76.62,76.62,0,0,0,12.19-7.62c7.84-6.23,8.35-12.52,1.82-20.15-10-11.64-23-18.86-36.83-24.69-21-8.82-42.68-15.75-64.52-22.09C1483.5-.66,1453-13,1421-20.94c-29.9-7.46-54.9.75-77.59,20.67-13.87,12.18-25.09,27-39.78,38.28-20.88,16.09-43.24,28.28-69.65,33.15-27,5-53.3,14.34-81.18,12.88-22.51-1.17-44.1-6.4-62-21.28C1077,51.23,1070.68,36.57,1075,18.32c9.21-38.75,47-71.93,88.84-78.11,21-3.09,42.32-3.13,63-8.59,46.78-12.39,88.83-34.32,127.56-63,8-5.91,17.14-9.6,26.13-13.62,9.46-4.23,19.07-8.21,26.47-15.88q121.43,0,242.84-.15c5.2,0,6.23,1,6.22,6.22q-.3,143.43-.14,286.86c-4,7.3-7.83,14.68-12,21.9-21.43,37.38-47.55,71.5-73.72,105.58-29.55,38.47-60.91,75.58-87.53,116.25-15.29,23.38-28.93,47.66-35.36,75.07a376.52,376.52,0,0,0-8,125c2.27,22.23,6.79,44.15,18.17,63.7,15.64,26.89,37.76,44.14,70.7,41.86,16.63-1.15,30.74-9.45,44.06-18.82,21.81-15.33,40.53-34.17,59.33-52.91,8-8,16.22-15.86,24.34-23.79q0,170,.14,340c0,5.19-1,6.26-6.22,6.22C1611.88,931.79,1573.94,931.92,1536,931.92Z" transform="translate(287.01 161.03)"/><path class="b" d="M-286.86,180.62c12.61,1.7,24.62-1.1,36.5-4.9,29.16-9.33,57.5-20.85,86-31.9,13.67-5.3,27.55-10.32,42.41-10.89,20.71-.8,34.23,7.92,42.1,27,18.11,44,53.09,70.12,94.4,89.56,15.07,7.09,29.62,3.36,43.53-3.5,39.44-19.46,81.29-28.28,125-30,42.37-1.63,80.09-17,115.35-39.9,23.12-15,47-29.19,74.77-33.95,12.76-2.19,25.89-3.36,36.8,6.11,11.6,10.06,12,23.43,9.46,37-4.66,24.7-18.93,44-37,60.31C351.89,273.23,314.09,285.84,275.1,296c-48.23,12.56-95.55,8.69-142.83-5.1a509.81,509.81,0,0,0-70.9-15.76c-19.41-2.75-37.54,1.32-55,10-28.52,14.13-56.27,30-87.26,38.61-33.42,9.31-67.66,14.49-101.66,20.93-19.37,3.66-38.8,7.07-57.5,13.52-8.66,3-16.9,6.84-23.48,13.48-7.56,7.61-8.73,15.39-3.57,24.76,4,7.17,9.61,13,15.51,18.56,19.72,18.52,39.25,37.26,60.13,54.51,14.47,11.94,31.52,20.15,46,32,24.87,20.35,39.25,45.18,38.23,78.57a831.07,831.07,0,0,0,2.5,98.53,152.84,152.84,0,0,0,5,26.79c6.88,25.31,23.68,40.33,48.42,47.52,24.33,7.08,49.37,8,74.36,8.56,33.54.69,66.67,3.23,98.35,15.36,32.7,12.52,62.08,29.87,82.33,59.42,18.94,27.65,19.58,57.57,9.17,88.45-.79,2.37-2.31,4.54-2,7.22q-245.73,0-491.46.16c-5.68,0-6.5-1.43-6.5-6.69Q-286.76,553-286.86,180.62Z" transform="translate(287.01 161.03)"/><path class="a" d="M1655.9,585.86c-8.12,7.93-16.3,15.78-24.34,23.79-18.8,18.74-37.52,37.58-59.33,52.91-13.32,9.37-27.43,17.67-44.06,18.82-32.94,2.28-55.06-15-70.7-41.86-11.38-19.55-15.9-41.47-18.17-63.7a376.52,376.52,0,0,1,8-125c6.43-27.41,20.07-51.69,35.36-75.07,26.62-40.67,58-77.78,87.53-116.25,26.17-34.08,52.29-68.2,73.72-105.58,4.14-7.22,8-14.6,12-21.9Z" transform="translate(287.01 161.03)"/><path class="b" d="M657.75,133.39c39.68.81,77.91-7.38,115.42-19.25,44.6-14.12,89.32-27.83,135.08-37.61,39.24-8.39,78.76-8,118.29-1.26,16.55,2.81,28.73,11.42,37.71,25.34,20,30.92,35.83,63.85,49.24,98.05,5.32,13.59,10.94,26.64,21.21,38,17.19,19,15.51,46.74-1.78,69.63-12.91,17.09-31.53,27.34-47.67,40.6-38.39,31.55-82.75,53.36-125.16,78.35-15.45,9.1-22.75,8.39-36.1-3.71-8.79-8-16.63-17-25.08-25.33-17.39-17.21-37.93-25-62.67-21.93-19.29,2.36-38.72,3.72-58.11,5-22.14,1.49-43.53-2.24-63.21-12.6C676.24,346.32,636.48,327.77,600.3,303c-28-19.16-52.72-41.95-69-72.28-14.31-26.66-8.87-49.67,15.21-68.17,22.3-17.11,47.76-25.85,75.64-28.2A336,336,0,0,1,657.75,133.39Z" transform="translate(287.01 161.03)"/><path class="b" d="M777.19,737.35c2.39-50.18,21.2-101.18,57.32-145.69a291.82,291.82,0,0,1,32.71-34.79c22.27-19.76,41.43-42.16,58.65-66.35a108.46,108.46,0,0,1,11.54-13c7.75-7.82,16.73-8.85,26.37-3.83,22.7,11.84,43.57,26.5,57.89,47.86,16.85,25.13,36.74,47.56,56.5,70.22,2.15,2.47,4.1,5.13,6.13,7.71,17.8,22.61,12.83,42.09-7.72,60.24-16,14.11-35.73,19.29-56.4,21.77-21.06,2.51-42.26,3.69-63.07,8.3-36.28,8-65,28.05-89.9,54.72-12.25,13.13-24.64,26.14-38.38,37.76a74.19,74.19,0,0,1-15.63,10.65c-13.64,6.52-23.23,3-29.65-10.71C779.45,773.46,777.16,759.82,777.19,737.35Z" transform="translate(287.01 161.03)"/></svg>