<svg xmlns="http://www.w3.org/2000/svg" viewBox="0 0 1366.34 768.27"><defs><style>.a{opacity:0;fill:#ffffff;}.b{fill:#ffffff;}</style></defs><title>1800f_00081</title><path class="a" d="M1367.52,525.15v78.93c-27.24,11.08-53.12,24.63-76.43,42.71-13.73,10.65-19.43,24.89-17,42.08,3.71,26.77,7,53.56,7,80.65H173c1.52-2.53,4.28-3.41,6.6-4.85a149.46,149.46,0,0,1,56.59-20.77c46.54-7.13,84.73-28.51,115.3-64.14,25.41-29.6,38.36-61.42,27.68-101.78-10.28-38.86-15.36-78.89-10.27-119.42a225.35,225.35,0,0,0,1.36-38.6c-.51-10.91-2.22-21.63-7-31.61-9-18.7-25.71-22.14-41.43-8.49-9,7.77-15.25,17.39-20,28.21-7.09,16.19-12.75,33.07-22.17,48.16-10.18,16.29-23.15,20.34-40.91,12.92a81.68,81.68,0,0,1-12.69-6.76C209,451.31,194.33,437.5,181.4,421.74c-17.54-21.37-22.88-45.12-14.59-71.63q6-19.17,12.54-38.16c4.56-13.2,8.21-26.61,8.73-40.61,2.38-64-36.91-119.94-97.87-139.84-8.4-2.74-16.63-6-24.84-9.28-2.76-1.1-6.06-2.56-6-6.1,0-3.88,3.57-5.3,6.6-6.49,9.67-3.82,19.71-4.06,29.85-2.64,15.42,2.14,29.46,8.92,44.23,13.26,28.83,8.47,57.24,10,84.89-3.81C266.36,95.77,307.06,73.77,344,45.67,360.77,33,376.24,18.78,388.55,1.52H520.6a152.72,152.72,0,0,0,64.49,9.71C622.36,9,659.51,4.77,697,6.22c24.93,1,49.86,3.66,74.85,1.33C784.34,6.39,797,6.09,809,1.52H966.82c1.87,11.79,7.89,22.23,10.92,33.66,9.67,36.56,29.72,67.18,54.59,95.06q60,67.33,120,134.78c23.91,26.77,40.49,57,46.84,92.76A301.4,301.4,0,0,0,1214,412.57c7.27,19.09,18.27,35.16,35.23,47.23,19.58,13.95,39.54,27.25,60.72,38.61C1328.59,508.43,1347.41,518.21,1367.52,525.15ZM705.69,747.09c5.78-.49,11.57-.91,17.34-1.48,21.29-2.1,41.07-10.35,61.72-15.08,14.49-3.31,29.51-4.28,43.56-9.55,9.41-3.53,11.52-9.23,5.12-16.49-11.9-13.53-25.75-24.23-44.65-26.09-39-3.85-76.34,3.83-112.89,16.63a51.79,51.79,0,0,0-19.84,12.24c-8.14,8.14-8.14,17.14-.13,25.25a34.47,34.47,0,0,0,9.89,6.9C678.45,745.39,691.88,747,705.69,747.09Zm382.78-14.47a45.5,45.5,0,0,0,17.62-4.17c32-14.4,62.31-31.38,87.49-56.3,4.76-4.72,11.7-10.06,8.46-17.14-3.68-8-12.76-6.4-20.32-6-.5,0-1,.24-1.49.31-28.84,4.09-55.46,15.2-82.18,26-11.79,4.76-22.9,10.61-31.84,20-11.83,12.47-9.44,26.2,6.13,33.8A35.61,35.61,0,0,0,1088.47,732.62ZM738.55,568.4c1-.12,3.52.17,5.48-.72,3.26-1.48,4.6-3.91,1.3-7-3.93-3.7-15.29-5.59-20.14-3.3-3.73,1.76-4.36,3.93-1.24,6.88C727.73,567.8,732.42,568.4,738.55,568.4Z" transform="translate(-1.31 -1.38)"/><path class="b" d="M388.55,1.52C376.24,18.78,360.77,33,344,45.67c-37,28.1-77.68,50.1-119.11,70.77-27.65,13.8-56.06,12.28-84.89,3.81-14.77-4.34-28.81-11.12-44.23-13.26-10.14-1.42-20.18-1.18-29.85,2.64-3,1.19-6.55,2.61-6.6,6.49,0,3.54,3.25,5,6,6.1,8.21,3.26,16.44,6.54,24.84,9.28,61,19.9,100.25,75.82,97.87,139.84-.52,14-4.17,27.41-8.73,40.61q-6.54,19-12.54,38.16c-8.29,26.51-2.95,50.26,14.59,71.63,12.93,15.76,27.57,29.57,44.69,40.65a81.68,81.68,0,0,0,12.69,6.76c17.76,7.42,30.73,3.37,40.91-12.92,9.42-15.09,15.08-32,22.17-48.16,4.74-10.82,11-20.44,20-28.21,15.72-13.65,32.46-10.21,41.43,8.49,4.79,10,6.5,20.7,7,31.61a225.35,225.35,0,0,1-1.36,38.6c-5.09,40.53,0,80.56,10.27,119.42,10.68,40.36-2.27,72.18-27.68,101.78-30.57,35.63-68.76,57-115.3,64.14a149.46,149.46,0,0,0-56.59,20.77c-2.32,1.44-5.08,2.32-6.6,4.85-55.25,0-110.49-.06-165.73.1-4.48,0-6-.68-5.93-5.68.29-30.52.15-61,.15-91.56,1.71.32,2.84-.79,4-1.68C27,654.9,50.81,644.27,76.45,637.33c14.86-4,29.7-8.22,43.37-15.7,26.18-14.34,35-36.08,25.6-64.37a292.27,292.27,0,0,0-14.88-35.64c-14.51-30-25.7-61.61-43.77-89.87C76.07,415,62.83,401,44.43,392.83A320.73,320.73,0,0,1,1.52,370.34V252c2.28-3.92,4.7-7.77,6.82-11.78,11-20.74,15.59-41.78,5.36-64.56A59.5,59.5,0,0,1,9.81,137.8c1.48-6.65-1.55-10.67-8.29-11.82,0-39.15.21-78.31-.21-117.45C1.24,2,3.17,1.37,8.91,1.38Q198.74,1.65,388.55,1.52Z" transform="translate(-1.31 -1.38)"/><path class="b" d="M1367.52,525.15c-20.11-6.94-38.93-16.72-57.6-26.74-21.18-11.36-41.14-24.66-60.72-38.61-17-12.07-28-28.14-35.23-47.23a301.4,301.4,0,0,1-14.84-54.79c-6.35-35.75-22.93-66-46.84-92.76q-60.09-67.29-120-134.78c-24.87-27.88-44.92-58.5-54.59-95.06-3-11.43-9-21.87-10.92-33.66H1144.4c7.38,14.42,19.31,24.78,31.66,34.55,7.44,5.88,12.79,4.19,16.69-4.4,4.37-9.62,6.45-20,9.33-30.15h100.17c2.51,2.44,4.86,5.08,7.56,7.28,19.29,15.72,39.22,30.66,57.71,47.36ZM1217.44,95.84c.26-10.06-4.94-17-13.3-22-3.44-2-7.54-1.44-7.31,2.82.47,8.63.57,17.66,7.11,24.77,2.94,3.2,6.33,4.21,10.2,2.92C1218.29,103,1217.12,99.12,1217.44,95.84Z" transform="translate(-1.31 -1.38)"/><path class="a" d="M1.52,370.34a320.73,320.73,0,0,0,42.91,22.49C62.83,401,76.07,415,86.77,431.75,104.84,460,116,491.62,130.54,521.62a292.27,292.27,0,0,1,14.88,35.64c9.35,28.29.58,50-25.6,64.37-13.67,7.48-28.51,11.68-43.37,15.7C50.81,644.27,27,654.9,5.56,670.7c-1.2.89-2.33,2-4,1.68Z" transform="translate(-1.31 -1.38)"/><path class="b" d="M1281,769.52c.07-27.09-3.25-53.88-7-80.65-2.38-17.19,3.32-31.43,17-42.08,23.31-18.08,49.19-31.63,76.43-42.71,0,53.37-.07,106.75.13,160.12,0,4.53-.91,5.49-5.45,5.45C1335.14,769.38,1308.07,769.52,1281,769.52Z" transform="translate(-1.31 -1.38)"/><path class="b" d="M809,1.52c-12,4.57-24.64,4.87-37.15,6-25,2.33-49.92-.36-74.85-1.33-37.47-1.45-74.62,2.75-111.89,5A152.72,152.72,0,0,1,520.6,1.52Z" transform="translate(-1.31 -1.38)"/><path class="a" d="M1367.52,56.16C1349,39.46,1329.1,24.52,1309.81,8.8c-2.7-2.2-5-4.84-7.56-7.28,20.49,0,41,.1,61.47-.1,3.27,0,3.94.63,3.9,3.9C1367.4,22.26,1367.52,39.21,1367.52,56.16Z" transform="translate(-1.31 -1.38)"/><path class="a" d="M1.52,126c6.74,1.15,9.77,5.17,8.29,11.82a59.5,59.5,0,0,0,3.89,37.81c10.23,22.78,5.6,43.82-5.36,64.56C6.22,244.18,3.8,248,1.52,252Z" transform="translate(-1.31 -1.38)"/><path class="a" d="M1202.08,1.52c-2.88,10.13-5,20.53-9.33,30.15-3.9,8.59-9.25,10.28-16.69,4.4-12.35-9.77-24.28-20.13-31.66-34.55Z" transform="translate(-1.31 -1.38)"/><path class="b" d="M705.69,747.09c-13.81-.06-27.24-1.7-39.88-7.67a34.47,34.47,0,0,1-9.89-6.9c-8-8.11-8-17.11.13-25.25A51.79,51.79,0,0,1,675.89,695c36.55-12.8,73.87-20.48,112.89-16.63,18.9,1.86,32.75,12.56,44.65,26.09,6.4,7.26,4.29,13-5.12,16.49-14,5.27-29.07,6.24-43.56,9.55-20.65,4.73-40.43,13-61.72,15.08C717.26,746.18,711.47,746.6,705.69,747.09Z" transform="translate(-1.31 -1.38)"/><path class="b" d="M1088.47,732.62a35.61,35.61,0,0,1-16.13-3.48c-15.57-7.6-18-21.33-6.13-33.8,8.94-9.41,20-15.26,31.84-20,26.72-10.79,53.34-21.9,82.18-26,.5-.07,1-.28,1.49-.31,7.56-.41,16.64-2.06,20.32,6,3.24,7.08-3.7,12.42-8.46,17.14-25.18,24.92-55.53,41.9-87.49,56.3A45.5,45.5,0,0,1,1088.47,732.62Z" transform="translate(-1.31 -1.38)"/><path class="b" d="M738.55,568.4c-6.13,0-10.82-.6-14.6-4.17-3.12-3-2.49-5.12,1.24-6.88,4.85-2.29,16.21-.4,20.14,3.3,3.3,3.12,2,5.55-1.3,7C742.07,568.57,739.58,568.28,738.55,568.4Z" transform="translate(-1.31 -1.38)"/><path class="a" d="M1217.44,95.84c-.32,3.28.85,7.17-3.3,8.56-3.87,1.29-7.26.28-10.2-2.92-6.54-7.11-6.64-16.14-7.11-24.77-.23-4.26,3.87-4.85,7.31-2.82C1212.5,78.83,1217.7,85.78,1217.44,95.84Z" transform="translate(-1.31 -1.38)"/></svg>