<svg xmlns="http://www.w3.org/2000/svg" viewBox="0 0 1366.29 768.29"><defs><style>.a{opacity:0;fill:#ffffff;}.b{fill:#ffffff;}</style></defs><title>1800f_00045</title><path class="a" d="M1367.52,412.84v71.33c-1.81-.95-3.48-.12-5.06.55-37.65,16-75.29,32.11-110.53,53-24.61,14.62-45.63,33.1-53.93,61.88-9.6,33.28-15.52,67.32-18.81,101.82-2.16,22.64-2.47,45.34-2.91,68H333.91c-11.23-11.8-24.33-21.23-38.12-29.69-35.71-21.93-75.24-34.41-115.06-46.14-9.21-2.71-18.5-5.23-27.5-8.54-8.77-3.22-9.34-6.91-2.23-12.69a151.54,151.54,0,0,1,15-10.26c33.44-21,66.68-42.21,97-67.58,20.09-16.8,34.49-36.9,35.86-64.23a422.88,422.88,0,0,0-3.67-77.91c-2.67-19.78-5.92-39.55-2.22-59.58,2.33-12.67,5.17-25.28,6.72-38A154.09,154.09,0,0,0,295,292.52c-3.71-12.67-8.93-16.27-22-16.48-11.35-.18-21.93,2.78-32.29,7.17-14.63,6.19-28.33,14.72-44.26,17.62C184.63,303,176.35,299,170.86,288.3c-4-7.75-5.78-16.19-6.89-24.72-3.39-26.07-7-52-15.17-77.2-12.92-39.89-21.54-81.11-37.21-120.17-7.26-18.09-4.52-22.9,15.11-25.35,30.64-3.81,60.07-11.44,87.2-26.52,6.5-3.61,13.7-6.43,18.32-12.82H903.08c2.53,6.71,7.16,12.11,11.26,17.81C936.28,49.88,965.45,73,993.87,97c28,23.59,57.5,45.62,80.23,74.85,12.88,16.55,25.5,33.31,38.27,50,11.69,15.25,18,32.53,20.07,51.58,1.73,16.07,4,32.07,5.89,48.12,3.94,34.08,18.81,60.85,50.25,77.11,20.56,10.63,42.19,17,65.31,17.44C1291.8,416.77,1329.61,412.91,1367.52,412.84ZM784.23,419c-6.27.06-15.45,2.84-24.42,6.34a159.39,159.39,0,0,1-46.32,10.71A330.36,330.36,0,0,0,645,448.41c-6.66,2-14.89,4.39-15.83,12.39-1,8.25,7,11.6,13.06,15.05a91.51,91.51,0,0,0,14.53,6.42c16.07,5.76,32.84,9.16,49.75,9,28.69-.23,55.38,7.21,81.78,17.22,18.41,7,36.91,14,56.75,15.93,14.22,1.37,27.37-1.55,37.5-12.31,15.07-16,11.62-36.87-8.82-52.87a256.38,256.38,0,0,0-53.19-31.92C810.14,422.64,799.38,419,784.23,419Zm-31,155.6c-12.06.79-22,6.19-31.42,12.74-13.74,9.62-12.71,19.89,2.66,26.83,7.61,3.44,15,7.2,22.25,11.37,9.18,5.29,18.2,11,28.62,13.67,12.89,3.36,21-2.67,20.79-16.07a54.21,54.21,0,0,0-4.88-22.82C783.62,584.4,770.58,576,753.24,574.61Z" transform="translate(-1.38 -1.37)"/><path class="b" d="M232.22,1.52c-4.62,6.39-11.82,9.21-18.32,12.82-27.13,15.08-56.56,22.71-87.2,26.52-19.63,2.45-22.37,7.26-15.11,25.35,15.67,39.06,24.29,80.28,37.21,120.17,8.16,25.2,11.78,51.13,15.17,77.2,1.11,8.53,2.92,17,6.89,24.72,5.49,10.7,13.77,14.68,25.62,12.53,15.93-2.9,29.63-11.43,44.26-17.62,10.36-4.39,20.94-7.35,32.29-7.17,13,.21,18.25,3.81,22,16.48a154.09,154.09,0,0,1,4.72,62.33c-1.55,12.77-4.39,25.38-6.72,38-3.7,20-.45,39.8,2.22,59.58a422.88,422.88,0,0,1,3.67,77.91c-1.37,27.33-15.77,47.43-35.86,64.23-30.34,25.37-63.58,46.62-97,67.58a151.54,151.54,0,0,0-15,10.26c-7.11,5.78-6.54,9.47,2.23,12.69,9,3.31,18.29,5.83,27.5,8.54,39.82,11.73,79.35,24.21,115.06,46.14,13.79,8.46,26.89,17.89,38.12,29.69H1.52q0-380.59-.14-761.17c0-5.69,1.27-7,7-7Q120.28,1.7,232.22,1.52Z" transform="translate(-1.38 -1.37)"/><path class="b" d="M1367.52,412.84c-37.91.07-75.72,3.93-113.63,3.2-23.12-.45-44.75-6.81-65.31-17.44-31.44-16.26-46.31-43-50.25-77.11-1.86-16.05-4.16-32.05-5.89-48.12-2-19.05-8.38-36.33-20.07-51.58-12.77-16.65-25.39-33.41-38.27-50-22.73-29.23-52.23-51.26-80.23-74.85C965.45,73,936.28,49.88,914.34,19.33c-4.1-5.7-8.73-11.1-11.26-17.81h341.5c13.3,11.21,26.7,22.3,39.88,33.65,14,12,22.19,26.79,20.5,45.8-.84,9.54-2.46,19-3.32,28.57-2.76,30.84,1.8,60.5,16.11,88.15,9.09,17.54,22.09,22.63,41.07,17.38,2.92-.8,5.8-1.72,8.7-2.58Z" transform="translate(-1.38 -1.37)"/><path class="b" d="M1176.28,769.52c.44-22.71.75-45.41,2.91-68,3.29-34.5,9.21-68.54,18.81-101.82,8.3-28.78,29.32-47.26,53.93-61.88,35.24-20.94,72.88-37,110.53-53,1.58-.67,3.25-1.5,5.06-.55q0,139.63.14,279.27c0,5.2-1,6.24-6.21,6.22C1299.72,769.43,1238,769.52,1176.28,769.52Z" transform="translate(-1.38 -1.37)"/><path class="a" d="M1367.52,212.49c-2.9.86-5.78,1.78-8.7,2.58-19,5.25-32,.16-41.07-17.38-14.31-27.65-18.87-57.31-16.11-88.15.86-9.55,2.48-19,3.32-28.57,1.69-19-6.55-33.79-20.5-45.8-13.18-11.35-26.58-22.44-39.88-33.65,39.21,0,78.42.1,117.62-.13,4.54,0,5.46.91,5.44,5.44Q1367.37,109.67,1367.52,212.49Z" transform="translate(-1.38 -1.37)"/><path class="b" d="M784.23,419c15.15,0,25.91,3.63,36.32,8.32a256.38,256.38,0,0,1,53.19,31.92c20.44,16,23.89,36.88,8.82,52.87-10.13,10.76-23.28,13.68-37.5,12.31-19.84-1.92-38.34-8.95-56.75-15.93-26.4-10-53.09-17.45-81.78-17.22-16.91.15-33.68-3.25-49.75-9a91.51,91.51,0,0,1-14.53-6.42c-6.07-3.45-14-6.8-13.06-15.05.94-8,9.17-10.43,15.83-12.39a330.36,330.36,0,0,1,68.47-12.35,159.39,159.39,0,0,0,46.32-10.71C768.78,421.85,778,419.07,784.23,419Z" transform="translate(-1.38 -1.37)"/><path class="b" d="M753.24,574.61c17.34,1.43,30.38,9.79,38,25.72a54.21,54.21,0,0,1,4.88,22.82c.17,13.4-7.9,19.43-20.79,16.07-10.42-2.72-19.44-8.38-28.62-13.67-7.24-4.17-14.64-7.93-22.25-11.37-15.37-6.94-16.4-17.21-2.66-26.83C731.2,580.8,741.18,575.4,753.24,574.61Z" transform="translate(-1.38 -1.37)"/></svg>