<svg xmlns="http://www.w3.org/2000/svg" viewBox="0 0 1943.15 1093.11"><defs><style>.a{opacity:0;fill:#ffffff;}.b{fill:#ffffff;}</style></defs><title>1800f_00107</title><path class="a" d="M1294.66,931.92H966.82c-11.53-10.45-25.31-16.45-40.28-19.75-46-10.17-92.13-10-138.14-.62a646.81,646.81,0,0,0-76.56,20.37q-495.73,0-991.46.16c-6.08,0-7.42-1.11-7.41-7.34q.3-414.55.17-829.12a44.59,44.59,0,0,1,5.2-1c53.39-3.92,106.58-3.3,159.45,6.35,22.9,4.17,46,7.84,69.2,2.19,36.94-9,74.38-14.28,112.27-17,48.24-3.49,94.1-15.63,136.65-39.23C228.19,29,260.48,11.09,293-6.4c21.8-11.73,43.52-23.75,67.08-31.84,20.23-6.95,39.47-6,56.48,8.12,10.65,8.83,22.76,13.91,36.08,16.61C474.75-9,497.33-9,519.7-6.88c40.24,3.81,80.47,7.94,120.87,9.42q59.49,2.17,119.06,1.69c12.89-.11,25.81-.1,38.67.68,52,3.13,101.49,17,149.57,36.28,22.13,8.9,42.48,20.58,55.07,42,18.61,31.66,30.08,65.69,32,102.52,1.08,21.2.77,42.47,1.77,63.68.88,18.6,4.38,36.72,15.21,52.49,7.84,11.42,19.13,14.59,31.86,9.26a89.56,89.56,0,0,0,19.63-11.39c21.38-16.27,40.11-35.53,60.07-53.4,29.38-26.3,47.44-59.12,52.18-98.28,4.17-34.49-.2-69.19-.29-103.79,0-12.6-7.3-21.7-19.77-26Q1160,6.17,1124.62-6.24c-6.68-2.34-13.38-4.7-19.78-7.69-17.6-8.23-26.5-22-25.5-41.72.84-16.44,6.36-31.58,12.92-46.47,9.57-21.74,23.25-40.75,38.48-58.76h129c.37,19.56-2.5,38.77-5.72,58-4.67,27.87-11.69,55.45-11.24,84,.27,17.08,5.48,24.71,21.3,31.21,18.05,7.41,36.87,12.44,55.48,18.15,24.8,7.62,49.26,15.75,67.29,36,7.4,8.3,15,16.47,22.32,24.8,44.82,50.64,60.74,110.7,57.47,177-1.07,21.71-3,43.4-3.37,65.12-1,57.69,8.82,114.28,18.87,170.78,6.31,35.56,17.22,69.6,35,101.31,23,41.16,58.71,68.94,97.61,93.35,13.2,8.28,26.28,16.93,41.17,22.15V871.21a429.07,429.07,0,0,1-72.66,1.06c-19-1.4-37.93-.5-56.72,1.17-46.5,4.12-93,8.27-139.65,10-27.2,1-51.49,9.75-72.37,27.12C1307.06,916.75,1299.12,922.8,1294.66,931.92Zm-1072-2.2c5.11-.24,14.69,0,24.28-1.09,34.33-3.89,67.16-14.33,100.39-22.87,30.67-7.88,49.88-28.41,59.46-58.31,7.13-22.27,7-44.87,2.19-67.41-13.17-61.33-28.88-121.94-52.47-180.26-4.92-12.17-9.39-24.54-14.63-36.57-1.8-4.14-3.83-9.61-9.45-9.72-6.44-.13-7.24,6.12-9.43,10.46a32,32,0,0,0-1.92,5.74c-3.57,12.64-6.85,25.36-10.7,37.91-6.51,21.24-12.46,42.77-25.44,61.34-12.63,18.08-30.8,22.71-50.33,13-10.32-5.11-19.14-12.28-27.54-19.92a633,633,0,0,0-86.47-66.33c-12.35-7.84-24.62-16-38.89-20.19-13.22-3.91-22.09,1.91-23.17,15.54A62.54,62.54,0,0,0,61.17,615a137.91,137.91,0,0,0,19,37.76c21.55,30.78,38.63,64,53.9,98.2,12.11,27.13,18,55.09,10.63,84.74-4.06,16.37-8.61,32.61-11.57,49.27-3.28,18.5,1.48,28.51,18.78,35.12C173.24,928.23,195.55,930.25,222.64,929.72ZM70.23,393.35c1.93-35.08-3.15-69.09-16.29-101.68-15.8-39.2-39.57-73.19-69.37-103A90.52,90.52,0,0,0-48.88,167c-15.58-5.63-31-1-41.39,11.69-10.71,13.15-11,28.37-9.46,43.92,6.24,62,22.92,121.51,42.56,180.27,11.53,34.49,31.56,64.3,55.24,91.59,8.71,10,17.84,20,31,24.77,5.46,2,9.76.77,13.8-3.11,4.56-4.36,6.84-9.94,8.82-15.68C63.7,465.75,68.51,429.82,70.23,393.35Z" transform="translate(287.03 161.03)"/><path class="b" d="M1130.74-160.88c-15.23,18-28.91,37-38.48,58.76-6.56,14.89-12.08,30-12.92,46.47-1,19.67,7.9,33.49,25.5,41.72,6.4,3,13.1,5.35,19.78,7.69Q1160,6.16,1195.55,18.32c12.47,4.27,19.74,13.37,19.77,26,.09,34.6,4.46,69.3.29,103.79-4.74,39.16-22.8,72-52.18,98.28-20,17.87-38.69,37.13-60.07,53.4a89.56,89.56,0,0,1-19.63,11.39c-12.73,5.33-24,2.16-31.86-9.26-10.83-15.77-14.33-33.89-15.21-52.49-1-21.21-.69-42.48-1.77-63.68-1.87-36.83-13.34-70.86-32-102.52-12.59-21.43-32.94-33.11-55.07-42C899.79,21.87,850.3,8,798.3,4.91c-12.86-.78-25.78-.79-38.67-.68q-59.55.52-119.06-1.69c-40.4-1.48-80.63-5.61-120.87-9.42C497.33-9,474.75-9,452.62-13.51c-13.32-2.7-25.43-7.78-36.08-16.61-17-14.1-36.25-15.07-56.48-8.12C336.5-30.15,314.78-18.13,293-6.4,260.48,11.09,228.19,29,195.91,46.89,153.36,70.49,107.5,82.63,59.26,86.12c-37.89,2.75-75.33,8-112.27,17-23.19,5.65-46.3,2-69.2-2.19-52.87-9.65-106.06-10.27-159.45-6.35a44.59,44.59,0,0,0-5.2,1q0-124.83-.15-249.67c0-5.69,1.29-7,7-7Q425.36-160.8,1130.74-160.88Z" transform="translate(287.03 161.03)"/><path class="b" d="M1655.9,721c-14.89-5.22-28-13.87-41.17-22.15-38.9-24.41-74.6-52.19-97.61-93.35-17.74-31.71-28.65-65.75-35-101.31-10.05-56.5-19.9-113.09-18.87-170.78.39-21.72,2.3-43.41,3.37-65.12,3.27-66.26-12.65-126.32-57.47-177-7.37-8.33-14.92-16.5-22.32-24.8-18-20.24-42.49-28.37-67.29-36-18.61-5.71-37.43-10.74-55.48-18.15-15.82-6.5-21-14.13-21.3-31.21-.45-28.56,6.57-56.14,11.24-84,3.22-19.23,6.09-38.44,5.72-58q195,0,390.06-.15c5.2,0,6.68,1,6.21,6.23-.57,6.53-.13,13.14-.13,19.72a172.48,172.48,0,0,0-44.12,61.43c-10,23.62-5.69,45.27,9.48,65.31a123.31,123.31,0,0,0,34.64,31.11Z" transform="translate(287.03 161.03)"/><path class="b" d="M1294.66,931.92c4.46-9.12,12.4-15.17,19.84-21.35,20.88-17.37,45.17-26.1,72.37-27.12,46.66-1.74,93.15-5.89,139.65-10,18.79-1.67,37.72-2.57,56.72-1.17a429.07,429.07,0,0,0,72.66-1.06c0,18.46-.19,36.93.13,55.39.08,4.54-.92,5.45-5.45,5.44q-154-.24-308.11-.12Z" transform="translate(287.03 161.03)"/><path class="a" d="M1655.9,22.77a123.31,123.31,0,0,1-34.64-31.11c-15.17-20-19.52-41.69-9.48-65.31a172.48,172.48,0,0,1,44.12-61.43Z" transform="translate(287.03 161.03)"/><path class="b" d="M711.84,931.92a646.81,646.81,0,0,1,76.56-20.37c46-9.37,92.16-9.55,138.14.62,15,3.3,28.75,9.3,40.28,19.75Z" transform="translate(287.03 161.03)"/><path class="b" d="M222.64,929.72c-27.09.53-49.4-1.49-70.7-9.62-17.3-6.61-22.06-16.62-18.78-35.12,3-16.66,7.51-32.9,11.57-49.27,7.36-29.65,1.48-57.61-10.63-84.74-15.27-34.2-32.35-67.42-53.9-98.2a137.91,137.91,0,0,1-19-37.76,62.54,62.54,0,0,1-2.65-23.93c1.08-13.63,9.95-19.45,23.17-15.54,14.27,4.22,26.54,12.35,38.89,20.19a633,633,0,0,1,86.47,66.33c8.4,7.64,17.22,14.81,27.54,19.92,19.53,9.67,37.7,5,50.33-13,13-18.57,18.93-40.1,25.44-61.34,3.85-12.55,7.13-25.27,10.7-37.91A32,32,0,0,1,323,564c2.19-4.34,3-10.59,9.43-10.46,5.62.11,7.65,5.58,9.45,9.72,5.24,12,9.71,24.4,14.63,36.57C380.08,658.1,395.79,718.71,409,780c4.84,22.54,4.94,45.14-2.19,67.41-9.58,29.9-28.79,50.43-59.46,58.31-33.23,8.54-66.06,19-100.39,22.87C237.33,929.71,227.75,929.48,222.64,929.72Z" transform="translate(287.03 161.03)"/><path class="b" d="M70.23,393.35c-1.72,36.47-6.53,72.4-18.53,107.09-2,5.74-4.26,11.32-8.82,15.68-4,3.88-8.34,5.09-13.8,3.11-13.17-4.76-22.3-14.73-31-24.77-23.68-27.29-43.71-57.1-55.24-91.59C-76.81,344.11-93.49,284.55-99.73,222.6c-1.57-15.55-1.25-30.77,9.46-43.92C-79.92,166-64.46,161.36-48.88,167a90.52,90.52,0,0,1,33.45,21.68c29.8,29.81,53.57,63.8,69.37,103C67.08,324.26,72.16,358.27,70.23,393.35Z" transform="translate(287.03 161.03)"/></svg>