<svg xmlns="http://www.w3.org/2000/svg" viewBox="0 0 1943.05 1093.16"><defs><style>.a{opacity:0;fill:#ffffff;}.b{fill:#ffffff;}</style></defs><title>1800f_00314</title><path class="a" d="M853,931.92H393.1c-12.8-7.7-26.61-13.32-40.28-19.17-37.51-16.07-76.07-27.47-117.55-24.72-32.85,2.17-64.09,11.38-94.81,22.47-17.76,6.41-35.77,12.28-52.43,21.42H-68.3c.17-2.52.2-5.06.53-7.55A366.56,366.56,0,0,0-69,817.86c-9.72-61.35-19.18-122.69-27-184.33-6-47.75-20-93.56-47.68-133.72-21.82-31.61-39.06-65.46-54-100.65-21.74-51.19-43.66-102.3-76.6-147.68-4.27-5.87-7.12-12.75-12.62-17.74V78.93c2.52-1.63,3.1-4.52,4.37-6.92,21.64-40.66,34.82-84.32,45.94-128.76,8.94-35.77,18.31-71.45,36.2-104.13H-60.71c2.33,1.47,4.57,3.12,7,4.38,15.93,8.27,32,16.31,47.84,24.7,26.18,13.84,52,28.07,73.21,49.47,8,8,18.32,12.35,29.59,14.37,11.58,2.08,23.22,1.78,34.78.73,51.85-4.69,103.43-11.49,154.43-22,56.29-11.54,112.75-20.7,170.49-20.61,23.74,0,47.21-4.5,70.51-9.41,34.58-7.28,66.71-21.83,100-32.85,7.61-2.51,15.63-4.19,22.43-8.83h913.7c.59,4.25,1.2,8.49,1.77,12.74,4.59,34.14,18.85,63.09,45.51,85.53,9.54,8,17.29,17.63,24.1,28.1,9.16,14.09,14.93,29.72,21.21,45.14V510c-23.13-11.82-47-12.14-71.45-4.87-16.94,5-32,13.89-46.5,23.56-33.4,22.26-69.79,30.14-109.11,23.1A302.26,302.26,0,0,1,1333,517.1c-23.76-13.42-43.74-30.74-57.2-55-6.51-11.7-13.47-23.15-20.23-34.71-12.9-22-25.64-44.2-45-61.5-10.94-9.78-23.43-15.36-38.37-15.67-14.59-.3-28.58,2.93-42.72,5.6-10.17,1.92-20.34,4-30.61,5.18-29.73,3.37-50.67-9.42-64.23-35.61-13.78-26.63-35.67-42.53-65.36-46.18C926.36,274,889.72,256.54,858.13,227c-17.67-16.54-35.51-33.13-55.82-46.59-19.92-13.21-29.92-9.24-35.86,13.93-4.62,18-5.9,36.38-6.77,54.81-2.34,49.05.2,97.46,17.22,144.3,12.63,34.75,34.94,59.7,69.26,74,22.27,9.31,45.56,15.12,68.81,21s41.94,18.26,56.09,37.59c6.12,8.37,12.48,16.56,18.55,25,14.22,19.68,32.64,33.61,55.78,41.19,24.25,7.94,48.61,15.58,72.72,24,42.83,14.88,82.93,36.1,124.31,54.36,43.07,19,87.32,33.21,135,34.42,10.55.27,21.26,0,31.73,2.22,3.43.73,7.51.85,8.59,5s-2.37,6.42-5,8.66a61.42,61.42,0,0,1-8.62,6.16c-24.66,14.53-52.1,21.89-79.1,30.31-36,11.21-71.84,22.6-104.4,42.36-20.1,12.2-40.48,23.93-61,35.49-31.79,18-64.3,34.26-100.64,41-25.4,4.75-50.22,5.42-73.19-9.53-5.25-3.42-11.67-4.49-18.13-4.88-18.17-1.08-34.3,4.91-49.69,13.71C892.63,890,872.87,911,853,931.92ZM646.47,564.22c32.76.21,55.08-17.88,61.49-46.09,5.31-23.36-3.15-45.09-22.66-58.23-19-12.8-45.59-13.41-62.88-1-13.43,9.62-19.95,23.7-24.1,39.2-3.33,12.44-5.3,25,.68,37C609.64,556.32,629.16,562.6,646.47,564.22Z" transform="translate(287.01 161.1)"/><path class="b" d="M853,931.92C872.87,911,892.63,890,918,875.48c15.39-8.8,31.52-14.79,49.69-13.71,6.46.39,12.88,1.46,18.13,4.88,23,15,47.79,14.28,73.19,9.53,36.34-6.79,68.85-23.1,100.64-41,20.47-11.56,40.85-23.29,61-35.49,32.56-19.76,68.4-31.15,104.4-42.36,27-8.42,54.44-15.78,79.1-30.31a61.42,61.42,0,0,0,8.62-6.16c2.63-2.24,6.08-4.54,5-8.66s-5.16-4.26-8.59-5c-10.47-2.21-21.18-1.95-31.73-2.22-47.7-1.21-92-15.41-135-34.42-41.38-18.26-81.48-39.48-124.31-54.36-24.11-8.38-48.47-16-72.72-24-23.14-7.58-41.56-21.51-55.78-41.19-6.07-8.4-12.43-16.59-18.55-25-14.15-19.33-32.75-31.69-56.09-37.59s-46.54-11.69-68.81-21c-34.32-14.35-56.63-39.3-69.26-74-17-46.84-19.56-95.25-17.22-144.3.87-18.43,2.15-36.83,6.77-54.81,5.94-23.17,15.94-27.14,35.86-13.93,20.31,13.46,38.15,30,55.82,46.59,31.59,29.58,68.23,47,111.16,52.3,29.69,3.65,51.58,19.55,65.36,46.18,13.56,26.19,34.5,39,64.23,35.61,10.27-1.17,20.44-3.26,30.61-5.18,14.14-2.67,28.13-5.9,42.72-5.6,14.94.31,27.43,5.89,38.37,15.67,19.38,17.3,32.12,39.46,45,61.5,6.76,11.56,13.72,23,20.23,34.71,13.46,24.21,33.44,41.53,57.2,55a302.26,302.26,0,0,0,95.81,34.67c39.32,7,75.71-.84,109.11-23.1,14.5-9.67,29.56-18.52,46.5-23.56,24.44-7.27,48.32-6.95,71.45,4.87q0,207.93.14,415.87c0,5.19-1,6.21-6.22,6.21Q1251.41,931.82,853,931.92Z" transform="translate(287.01 161.1)"/><path class="b" d="M-286.86,233.74c5.5,5,8.35,11.87,12.62,17.74,32.94,45.38,54.86,96.49,76.6,147.68,14.94,35.19,32.18,69,54,100.65C-115.91,540-102,585.78-96,633.53c7.78,61.64,17.24,123,27,184.33a366.56,366.56,0,0,1,1.23,106.51c-.33,2.49-.36,5-.53,7.55H-242.84c-8.12-17.34-14.66-35.49-25.94-51.18-5.08-7-9.74-14.68-18.08-18.64Z" transform="translate(287.01 161.1)"/><path class="b" d="M649.61-160.88c-6.8,4.64-14.82,6.32-22.43,8.83-33.32,11-65.45,25.57-100,32.85-23.3,4.91-46.77,9.44-70.51,9.41-57.74-.09-114.2,9.07-170.49,20.61-51,10.46-102.58,17.26-154.43,22-11.56,1-23.2,1.35-34.78-.73C85.67-70,75.3-74.29,67.35-82.33c-21.17-21.4-47-35.63-73.21-49.47-15.87-8.39-31.91-16.43-47.84-24.7-2.44-1.26-4.68-2.91-7-4.38Z" transform="translate(287.01 161.1)"/><path class="b" d="M-200.35-160.88c-17.89,32.68-27.26,68.36-36.2,104.13-11.12,44.44-24.3,88.1-45.94,128.76-1.27,2.4-1.85,5.29-4.37,6.92q0-116.22-.15-232.44c0-5.77.62-7.7,7.17-7.58C-253.35-160.59-226.85-160.88-200.35-160.88Z" transform="translate(287.01 161.1)"/><path class="b" d="M1655.9,10.63c-6.28-15.42-12.05-31.05-21.21-45.14-6.81-10.47-14.56-20.08-24.1-28.1-26.66-22.44-40.92-51.39-45.51-85.53-.57-4.25-1.18-8.49-1.77-12.74,29,0,58,.15,87-.15,5-.05,5.68,1.48,5.67,5.94C1655.84-99.85,1655.9-44.61,1655.9,10.63Z" transform="translate(287.01 161.1)"/><path class="b" d="M88,931.92c16.66-9.14,34.67-15,52.43-21.42,30.72-11.09,62-20.3,94.81-22.47,41.48-2.75,80,8.65,117.55,24.72,13.67,5.85,27.48,11.47,40.28,19.17Z" transform="translate(287.01 161.1)"/><path class="a" d="M-286.86,862.1c8.34,4,13,11.59,18.08,18.64,11.28,15.69,17.82,33.84,25.94,51.18-13.41,0-26.82-.14-40.22.1-3.27.06-3.92-.63-3.9-3.9C-286.77,906.12-286.86,884.11-286.86,862.1Z" transform="translate(287.01 161.1)"/><path class="b" d="M646.47,564.22c-17.31-1.62-36.83-7.9-47.47-29.15-6-12-4-24.56-.68-37,4.15-15.5,10.67-29.58,24.1-39.2,17.29-12.38,43.87-11.77,62.88,1,19.51,13.14,28,34.87,22.66,58.23C701.55,546.34,679.23,564.43,646.47,564.22Z" transform="translate(287.01 161.1)"/></svg>