<svg xmlns="http://www.w3.org/2000/svg" viewBox="0 0 1943.04 1093.15"><defs><style>.a{opacity:0;fill:#ffffff;}.b{fill:#ffffff;}</style></defs><title>1800f_00131</title><path class="a" d="M-286.86,387V209.46c3.52-.24,7.05-.38,10.56-.71,29-2.73,58-5.07,87-4.73,30.08.36,60.14,1.82,90.21,2.84,18.19.61,36.37,1.57,54.56,1.91,54,1,107.88,6.49,162.05-.37,61.21-7.74,117.75-25.31,166.54-64.7,20.6-16.63,41.83-32.74,66.11-44.12,26-12.18,52.09-13,78.45-1.35a184.4,184.4,0,0,1,54,36,286,286,0,0,0,66.05,48c29.83,15.64,60.83,25.5,95.31,21.63,29.94-3.37,59.33-9.58,88.88-15.05,34-6.3,68-10.25,102.32-3.33,21.8,4.39,43.82,7.47,65.83,10.58,44.6,6.31,87.42,18.62,128,38.39,25,12.19,40.38,32,47.15,58.89,8.11,32.29,10,65.4,13.34,98.3,3.7,36,9.87,71.09,28.19,103,12.81,22.31,27.14,43.39,48.21,58.81,25,18.33,66.18,19.34,86.63-17.95a149.44,149.44,0,0,0,11.83-28.66c6.32-20.79,12.78-41.54,19-62.36,16.45-54.84,39-107.34,61.59-159.8,16.71-38.73,29.76-79.09,51.17-115.73,26.89-46,57.3-89.39,97-125.5,14.15-12.87,29.88-23.27,48.65-28.45,23.19-6.41,38.05-1.17,51.87,18.59C1603.11,47,1609,62,1613.35,77.7c14.12,51.37,15.33,104.39,19.24,157,3.56,47.9-4.46,94.76-18,140.68-16.1,54.52-33.93,108.52-47.72,163.74-14,56.13-24.54,112.58-20.4,170.86,2,28.23,7.6,55.54,19.53,81.37,19,41.08,52,68.25,89.91,90.5,0,15.43-.13,30.86.09,46.29,0,3.27-.62,4.48-3.89,3.83a15.32,15.32,0,0,0-3,0H478.1c6.79-18.28,9.66-37,5.76-56.32-3.7-18.4-9.84-35.53-25.44-47.55-17.36-13.37-37.58-17.14-58.61-15.12-15.83,1.52-30.88,6.51-38.34,22.89-4.14,9.07-5.33,18.86-5.86,28.67-1.24,22.84,2.23,45.22,7.14,67.43q-321.45,0-642.91.16c-6,0-6.87-1.65-6.84-7.11.26-39.67.14-79.35.14-119,2.19-1.3,2.46-3.72,3.22-5.79,6.65-18,13.45-36,19.77-54.08,20.75-59.54,33.07-121.26,46.81-182.6,8-35.77,15.42-71.68,13.51-108.67-.91-17.78-4-35.12-12.78-51-10.59-19.23-26.45-26.95-48-22.78C-271.93,382.5-279.35,385-286.86,387ZM784.51,471.4a16,16,0,0,0-3.82.71c-11.2,4.12-24.68,29.79-21.87,41.48,1.85,7.68,7.06,10.24,14.31,6.26,13.1-7.21,21.39-18.26,24-33.12C798.54,478.41,793.09,471.31,784.51,471.4Zm-531,266.45c.13,9,16.78,22.82,25.32,20.67,5-1.26,6.41-5.66,4.06-9.46-4.86-7.86-10.43-15.33-20.15-18.1C256.87,729.28,253.42,731.69,253.51,737.85Z" transform="translate(287 161.03)"/><path class="b" d="M1655.9,881.83C1618,859.58,1585,832.41,1566,791.33c-11.93-25.83-17.53-53.14-19.53-81.37-4.14-58.28,6.38-114.73,20.4-170.86,13.79-55.22,31.62-109.22,47.72-163.74,13.55-45.92,21.57-92.78,18-140.68-3.91-52.59-5.12-105.61-19.24-157C1609,62,1603.11,47,1593.72,33.57,1579.9,13.81,1565,8.57,1541.85,15c-18.77,5.18-34.5,15.58-48.65,28.45-39.7,36.11-70.11,79.48-97,125.5-21.41,36.64-34.46,77-51.17,115.73-22.64,52.46-45.14,105-61.59,159.8-6.25,20.82-12.71,41.57-19,62.36a149.44,149.44,0,0,1-11.83,28.66c-20.45,37.29-61.59,36.28-86.63,17.95-21.07-15.42-35.4-36.5-48.21-58.81-18.32-31.92-24.49-67-28.19-103-3.38-32.9-5.23-66-13.34-98.3-6.77-26.91-22.12-46.7-47.15-58.89-40.57-19.77-83.39-32.08-128-38.39-22-3.11-44-6.19-65.83-10.58-34.37-6.92-68.36-3-102.32,3.33C703.37,194.25,674,200.46,644,203.83c-34.48,3.87-65.48-6-95.31-21.63a286,286,0,0,1-66.05-48,184.4,184.4,0,0,0-54-36c-26.36-11.64-52.46-10.83-78.45,1.35-24.28,11.38-45.51,27.49-66.11,44.12-48.79,39.39-105.33,57-166.54,64.7-54.17,6.86-108,1.39-162,.37-18.19-.34-36.37-1.3-54.56-1.91-30.07-1-60.13-2.48-90.21-2.84-29.07-.34-58.08,2-87,4.73-3.51.33-7,.47-10.56.71V-18.21c35.37-18.86,70-39.17,107.74-53.27,18.18-6.8,36.89-12.21,54.5-20.5,20.33-9.57,33.56-24.33,35.64-47.78.62-7.06.5-14.09,1-21.12H24.28c13.86,23,29.79,44.45,49.85,62.54C86.27-87.4,99.5-78.3,116-75.22a38.27,38.27,0,0,0,41.09-19.09,153.9,153.9,0,0,0,11.53-26.32c4.61-13.58,11.37-26.34,15-40.25H420.42c.27,1.23.55,2.46.8,3.69,6.7,33,25,48.08,58.91,47.68,30.1-.36,59.74-5.75,87.32-17.14,46.29-19.13,93.31-30.77,143.82-27.36,23.38,1.58,47,3.28,70.45.47,15.25-1.83,30.67-2.65,45.47-7.34H1297.7c-6.9,3.6-14,6.91-20.68,10.85-18.19,10.67-34.31,24.15-49.72,38.41-22.46,20.78-44.58,42-61.32,67.94-13.84,21.49-21.21,44.59-17.18,70.49,1.28,8.23,2.2,16.52,3.28,24.78,2.63,20.09,2.5,40.32,3,60.52.31,12.23,7.28,17.85,19.42,16.37a99,99,0,0,0,12.66-2.35c33.29-8.66,65.68-20.2,98.26-31.1,25.43-8.5,50.67-17.51,74-30.9,35.2-20.17,67.94-43.88,99-69.89,11.58-9.7,23-19.8,30.46-33.45,5.72-10.51,4.64-20.24-2.63-29.65-7.76-10-18-17-28.68-23.29-40.2-23.72-78.27-51.23-122-68.73q157.09,0,314.18-.15c5.2,0,6.22,1,6.22,6.22Q1655.8,363.52,1655.9,881.83Z" transform="translate(287 161.03)"/><path class="a" d="M1335.64-160.88c43.7,17.5,81.77,45,122,68.73,10.64,6.28,20.92,13.26,28.68,23.29,7.27,9.41,8.35,19.14,2.63,29.65-7.42,13.65-18.88,23.75-30.46,33.45-31,26-63.79,49.72-99,69.89-23.38,13.39-48.62,22.4-74,30.9-32.58,10.9-65,22.44-98.26,31.1a99,99,0,0,1-12.66,2.35c-12.14,1.48-19.11-4.14-19.42-16.37-.5-20.2-.37-40.43-3-60.52-1.08-8.26-2-16.55-3.28-24.78-4-25.9,3.34-49,17.18-70.49,16.74-26,38.86-47.16,61.32-67.94,15.41-14.26,31.53-27.74,49.72-38.41,6.7-3.94,13.78-7.25,20.68-10.85Z" transform="translate(287 161.03)"/><path class="b" d="M-286.86,387c7.51-2,14.93-4.54,22.54-6,21.54-4.17,37.4,3.55,48,22.78,8.76,15.88,11.87,33.22,12.78,51,1.91,37-5.49,72.9-13.51,108.67-13.74,61.34-26.06,123.06-46.81,182.6-6.32,18.12-13.12,36.08-19.77,54.08-.76,2.07-1,4.49-3.22,5.79Z" transform="translate(287 161.03)"/><path class="a" d="M-88-160.88c-.45,7-.33,14.06-1,21.12-2.08,23.45-15.31,38.21-35.64,47.78-17.61,8.29-36.32,13.7-54.5,20.5-37.72,14.1-72.37,34.41-107.74,53.27,0-45.69.09-91.37-.14-137,0-4.89,1.3-5.74,5.88-5.73Q-184.58-160.75-88-160.88Z" transform="translate(287 161.03)"/><path class="b" d="M362.75,931.92c-4.91-22.21-8.38-44.59-7.14-67.43.53-9.81,1.72-19.6,5.86-28.67,7.46-16.38,22.51-21.37,38.34-22.89,21-2,41.25,1.75,58.61,15.12,15.6,12,21.74,29.15,25.44,47.55,3.9,19.36,1,38-5.76,56.32Z" transform="translate(287 161.03)"/><path class="a" d="M827.19-160.88c-14.8,4.69-30.22,5.51-45.47,7.34-23.49,2.81-47.07,1.11-70.45-.47-50.51-3.41-97.53,8.23-143.82,27.36-27.58,11.39-57.22,16.78-87.32,17.14-33.91.4-52.21-14.69-58.91-47.68-.25-1.23-.53-2.46-.8-3.69Z" transform="translate(287 161.03)"/><path class="a" d="M183.65-160.88c-3.66,13.91-10.42,26.67-15,40.25a153.9,153.9,0,0,1-11.53,26.32A38.27,38.27,0,0,1,116-75.22C99.5-78.3,86.27-87.4,74.13-98.34c-20.06-18.09-36-39.49-49.85-62.54Z" transform="translate(287 161.03)"/><path class="b" d="M784.51,471.4c8.58-.09,14,7,12.59,15.33-2.58,14.86-10.87,25.91-24,33.12-7.25,4-12.46,1.42-14.31-6.26-2.81-11.69,10.67-37.36,21.87-41.48A16,16,0,0,1,784.51,471.4Z" transform="translate(287 161.03)"/><path class="b" d="M253.51,737.85c-.09-6.16,3.36-8.57,9.23-6.89,9.72,2.77,15.29,10.24,20.15,18.1,2.35,3.8.91,8.2-4.06,9.46C270.29,760.67,253.64,746.86,253.51,737.85Z" transform="translate(287 161.03)"/></svg>