<svg xmlns="http://www.w3.org/2000/svg" viewBox="0 0 1943.56 1093.63"><defs><style>.a{opacity:0;fill:#ffffff;}.b{fill:#ffffff;}</style></defs><title>1800f_00242</title><path class="a" d="M939.5,931.92h-516a9.08,9.08,0,0,0-1.54-1.61C350,884.91,286.6,827.56,215.09,781.5c-27.22-17.53-48.36-42.12-71.29-64.56C113.33,687.1,78,666.05,36.06,656.63c-38.46-8.63-76.82-17.71-115.13-27-15.73-3.8-31.28-8.52-44.91-17.74-9.62-6.52-12.64-14.35-10-25.57a141.38,141.38,0,0,1,4.82-16c5.74-15.8,3.25-30.25-6.47-43.76a187.44,187.44,0,0,0-19.86-22.89,149.64,149.64,0,0,1-24.82-32.44C-212.16,414.74-218.82,353.35-214.7,290c2.33-35.92,10.75-70.91,16.79-106.25,6.09-35.66,7.8-71.29.69-107-3.18-16-9.53-30.83-15.17-46-11.88-31.91-16-65.72-22.79-98.86-4.31-21-8.06-42.18-4.7-63.91,1.62-10.44,7.12-19.21,10.7-28.8h1832c3.84,11.76,7.78,23.5,11.5,35.3,12.45,39.51,13.79,79.42,3.66,119.59-3.87,15.37-12.39,27.58-26.58,35.27-39.08,21.18-54.58,71.5-50,107.15,3.59,28,16.43,52.31,30.19,76.26,13.48,23.49,31.84,41.46,57.41,51.71,9.78,3.92,19.62,8.22,27,16.39v7.59c-4.92,7.51-11.53,13.33-18.69,18.59-38.44,28.23-74.42,59.19-105.3,95.72-26.25,31.05-50.38,63.43-62.26,103.15-9.26,31-12.28,62.91-14.4,95-1.56,23.7-2.49,47.5-9,70.54-5.85,20.57-13.1,40.53-29.23,55.69-10,9.39-21.62,12.73-34.9,8-18.67-6.61-32.08-19.78-43.29-35.46-17.56-24.54-19.41-51.88-11.51-79.75,11.61-41,11.12-81.2-3.06-121.45a185.46,185.46,0,0,1-9.82-41.25c-3.85-35.05.11-70.18-.49-105.28-.33-18.93,1.68-37.94.34-56.87-1.61-22.73-10.11-42.65-26.81-58.62-19-18.16-41.87-29.93-66.11-39.18-30.6-11.68-62-18.29-95-13.66-23,3.23-44.77,10.69-65.75,20.16C1024,220.24,986.42,227.19,947,216.8c-17.28-4.56-33.58-3.26-49.25,4.82-26.37,13.6-54.36,18.21-83.74,16.55a94.39,94.39,0,0,0-32.23,3.9c-22,6.51-29.86,21.39-22.82,43A84.54,84.54,0,0,0,763.83,297c13.64,26.94,34.29,48,57.11,67.11,27.79,23.3,58.78,42.05,89,61.9,19.65,12.92,34.36,29.43,41.56,52.29,7.61,24.14,19.88,32.86,45.14,33.34,19.17.37,37.61-4.1,56.09-8.33,16.24-3.72,32.25-8.85,49-9.56,13.77-.58,20,7.17,17.6,20.74-2.09,11.59-6.74,22.23-12.69,32.3-15.12,25.61-35.42,46.87-58.17,65.5-65.81,53.89-138.37,89.89-226.63,84.23-40.35-2.6-80.81-4.26-121.29-2.79-16.45.6-32.95,2.29-48.16,9-17.2,7.66-20.53,17.22-5.77,29.57a95.39,95.39,0,0,0,10.45,7.48c12.68,8,26.4,13.84,40.25,19.42C744.65,778.3,793,784,842.66,769.43c17.46-5.13,34.75-10.84,52.32-15.52,16.81-4.49,30.88.38,41.48,14.56,6,8,9.64,17.13,12.07,26.77,4.34,17.15,4.08,34.63,3.13,52A499.62,499.62,0,0,1,939.5,931.92ZM657.27,168.47c29.57-.3,52.11-7.2,72-22.26,24.9-18.88,46.53-41.22,67.43-64.27C809.08,68.27,820.88,54,829.81,37.73c15.94-29.1,8.49-61.1-17.9-76.11C798-46.28,782.59-47.76,767-46.22c-24.87,2.48-49.65,5.94-74.53,8.43-29.67,3-59.49,4-89.27,5.52-26.63,1.32-50-5.27-68.08-26.22q-21.3-24.66-43.24-48.78c-7-7.64-14.64-14.73-24.23-19.13-11.35-5.19-19.24-1.18-22.05,11a29.55,29.55,0,0,0-.06,12c2.13,11.86,6.82,22.7,12.93,33,11.95,20.16,27.67,37.3,43.56,54.31,17.77,19,32.29,39.94,40.5,65.1,9.55,29.26,22.39,57,43.48,80.05C606.53,151.43,629.2,169.84,657.27,168.47Zm-489,410.9c4-.24,8.07-.59,12.1-.69,73.85-1.76,145.84-13.43,214.92-40.41,31.35-12.24,64.46-16.54,97.26-22.36,27.09-4.81,50.42-16,66.17-39.84,15-22.66,22.43-47.83,25.61-74.53,1.17-9.86,1.29-19.61-1.77-29.16-2.07-6.46-6.13-9.95-13.45-9.74a48.48,48.48,0,0,0-19.67,4.79C527.1,378,508.09,393.7,487.8,407.37c-31,20.91-64.8,32.21-102.22,32.86-31.68.55-62,7.59-91.21,19.77-20.73,8.63-41,18.58-63.33,22.89-29.93,5.78-60,.93-90,.67-26.9-.24-53.64.31-79.44,8.64-17.7,5.72-34.4,13.72-45.53,29.7-6.47,9.28-5.53,16.37,2.7,24.23,7.31,7,16.5,10.7,25.76,14.08C84.48,574.79,126,579.34,168.25,579.37Z" transform="translate(287 161.05)"/><path class="b" d="M939.5,931.92a499.62,499.62,0,0,0,12.16-84.63c1-17.42,1.21-34.9-3.13-52-2.43-9.64-6-18.72-12.07-26.77-10.6-14.18-24.67-19.05-41.48-14.56-17.57,4.68-34.86,10.39-52.32,15.52-49.71,14.61-98,8.87-145.35-10.22-13.85-5.58-27.57-11.44-40.25-19.42a95.39,95.39,0,0,1-10.45-7.48c-14.76-12.35-11.43-21.91,5.77-29.57,15.21-6.76,31.71-8.45,48.16-9,40.48-1.47,80.94.19,121.29,2.79,88.26,5.66,160.82-30.34,226.63-84.23,22.75-18.63,43-39.89,58.17-65.5,5.95-10.07,10.6-20.71,12.69-32.3,2.44-13.57-3.83-21.32-17.6-20.74-16.77.71-32.78,5.84-49,9.56-18.48,4.23-36.92,8.7-56.09,8.33-25.26-.48-37.53-9.2-45.14-33.34-7.2-22.86-21.91-39.37-41.56-52.29-30.19-19.85-61.18-38.6-89-61.9C798.12,345,777.47,323.9,763.83,297A84.54,84.54,0,0,1,759,285.05c-7-21.59.85-36.47,22.82-43a94.39,94.39,0,0,1,32.23-3.9c29.38,1.66,57.37-2.95,83.74-16.55,15.67-8.08,32-9.38,49.25-4.82,39.42,10.39,77,3.44,113.56-13.07,21-9.47,42.73-16.93,65.75-20.16,33-4.63,64.41,2,95,13.66,24.24,9.25,47.11,21,66.11,39.18,16.7,16,25.2,35.89,26.81,58.62,1.34,18.93-.67,37.94-.34,56.87.6,35.1-3.36,70.23.49,105.28a185.46,185.46,0,0,0,9.82,41.25c14.18,40.25,14.67,80.44,3.06,121.45-7.9,27.87-6,55.21,11.51,79.75,11.21,15.68,24.62,28.85,43.29,35.46,13.28,4.7,24.9,1.36,34.9-8,16.13-15.16,23.38-35.12,29.23-55.69,6.56-23,7.49-46.84,9-70.54,2.12-32.08,5.14-64,14.4-95,11.88-39.72,36-72.1,62.26-103.15,30.88-36.53,66.86-67.49,105.3-95.72,7.16-5.26,13.77-11.08,18.69-18.59V918.26c-3.26-.25-5.47-2.56-7.82-4.32-49-36.6-103.55-61.31-162.28-77.93-35.48-10-69-8.83-101.94,8.69-18.74,10-37.11,20.51-55.51,31.06-29.19,16.73-60.54,29.17-90.1,45.16-6.16,3.34-12.76,6.06-18,11Z" transform="translate(287 161.05)"/><path class="b" d="M-229.18-160.88c-3.58,9.59-9.08,18.36-10.7,28.8-3.36,21.73.39,42.86,4.7,63.91,6.79,33.14,10.91,67,22.79,98.86,5.64,15.16,12,30,15.17,46,7.11,35.75,5.4,71.38-.69,107-6,35.34-14.46,70.33-16.79,106.25-4.12,63.38,2.54,124.77,34.39,181.33a149.64,149.64,0,0,0,24.82,32.44,187.44,187.44,0,0,1,19.86,22.89c9.72,13.51,12.21,28,6.47,43.76a141.38,141.38,0,0,0-4.82,16c-2.64,11.22.38,19,10,25.57,13.63,9.22,29.18,13.94,44.91,17.74,38.31,9.27,76.67,18.35,115.13,27,42,9.42,77.27,30.47,107.74,60.31,22.93,22.44,44.07,47,71.29,64.56C286.6,827.56,350,884.91,421.92,930.31a9.08,9.08,0,0,1,1.54,1.61H-98.66c-1.21-3.8-4.22-6.26-7-8.75-46.32-42-98.49-74.44-157.14-96.22-7.72-2.87-15.55-6-24.08-5.83q0-487.59-.14-975.17c0-5.69,1.26-7.14,7-7C-263.09-160.6-246.13-160.88-229.18-160.88Z" transform="translate(287 161.05)"/><path class="b" d="M1655.9,280.79c-7.34-8.17-17.18-12.47-27-16.39-25.57-10.25-43.93-28.22-57.41-51.71-13.76-23.95-26.6-48.27-30.19-76.26-4.57-35.65,10.93-86,50-107.15,14.19-7.69,22.71-19.9,26.58-35.27,10.13-40.17,8.79-80.08-3.66-119.59-3.72-11.8-7.66-23.54-11.5-35.3,15.94,0,31.88.21,47.81-.14,4.54-.1,5.45.92,5.44,5.45q-.27,113.83-.12,227.67Z" transform="translate(287 161.05)"/><path class="a" d="M1220.29,931.92c5.2-4.94,11.8-7.66,18-11,29.56-16,60.91-28.43,90.1-45.16,18.4-10.55,36.77-21.1,55.51-31.06,33-17.52,66.46-18.74,101.94-8.69,58.73,16.62,113.28,41.33,162.28,77.93,2.35,1.76,4.56,4.07,7.82,4.32,0,4.55,1.77,10.88-.5,13.16s-8.61.5-13.16.5Z" transform="translate(287 161.05)"/><path class="a" d="M-286.86,821.12c8.53-.17,16.36,3,24.08,5.83,58.65,21.78,110.82,54.25,157.14,96.22,2.76,2.49,5.77,5,7,8.75q-91.21,0-182.42.1c-4.5,0-6-.7-5.92-5.68C-286.73,891.27-286.86,856.19-286.86,821.12Z" transform="translate(287 161.05)"/><path class="b" d="M657.27,168.47c-28.07,1.37-50.74-17-71.22-39.42C565,106,552.12,78.26,542.57,49c-8.21-25.16-22.73-46.07-40.5-65.1-15.89-17-31.61-34.15-43.56-54.31-6.11-10.3-10.8-21.14-12.93-33a29.55,29.55,0,0,1,.06-12c2.81-12.14,10.7-16.15,22.05-11,9.59,4.4,17.26,11.49,24.23,19.13q22,24.09,43.24,48.78c18.09,21,41.45,27.54,68.08,26.22,29.78-1.48,59.6-2.56,89.27-5.52,24.88-2.49,49.66-6,74.53-8.43,15.55-1.54,31-.06,44.87,7.84,26.39,15,33.84,47,17.9,76.11C820.88,54,809.08,68.27,796.67,81.94c-20.9,23-42.53,45.39-67.43,64.27C709.38,161.27,686.84,168.17,657.27,168.47Z" transform="translate(287 161.05)"/><path class="b" d="M168.25,579.37c-42.24,0-83.77-4.58-123.73-19.16-9.26-3.38-18.45-7.1-25.76-14.08-8.23-7.86-9.17-15-2.7-24.23,11.13-16,27.83-24,45.53-29.7,25.8-8.33,52.54-8.88,79.44-8.64,30,.26,60.08,5.11,90-.67,22.29-4.31,42.6-14.26,63.33-22.89,29.24-12.18,59.53-19.22,91.21-19.77,37.42-.65,71.2-12,102.22-32.86,20.29-13.67,39.3-29.38,61.62-39.94a48.48,48.48,0,0,1,19.67-4.79c7.32-.21,11.38,3.28,13.45,9.74,3.06,9.55,2.94,19.3,1.77,29.16-3.18,26.7-10.63,51.87-25.61,74.53-15.75,23.83-39.08,35-66.17,39.84-32.8,5.82-65.91,10.12-97.26,22.36-69.08,27-141.07,38.65-214.92,40.41C176.32,578.78,172.28,579.13,168.25,579.37Z" transform="translate(287 161.05)"/></svg>