<svg xmlns="http://www.w3.org/2000/svg" viewBox="0 0 1943.07 1093.08"><defs><style>.a{opacity:0;fill:#ffffff;}.b{fill:#ffffff;}</style></defs><title>1800f_00253</title><path class="a" d="M1655.9,337V488.73a7.08,7.08,0,0,0-2,1c-48,48.71-93.49,99.07-114.83,166.27-4.14,13-11,25-21.59,34.31-12.25,10.83-26.28,10.78-38-.38-2.56-2.44-5.28-4.86-7.24-7.75-14-20.54-30.84-38.78-46.16-58.24-17.22-21.87-31.56-45-36.86-73-2.8-14.82-10-28-18.66-40.35-13.35-19.07-28.67-36.59-43-54.89-6.84-8.72-12.65-18.44-21.49-25.36-17-13.34-36.49-13.08-56.42-9.25-23.49,4.52-45.4,13.84-67.58,22.3-21.84,8.34-43.84,13.39-67.38,7.71-14-3.36-28-6.55-42.42-7.65-34-2.6-60.11,12.18-80.7,38-13.21,16.57-24.28,34.54-26.17,56.23-2.74,31.35,6.47,59.64,25.25,84.54,22.16,29.38,51.34,44.13,88.85,39.79,31.18-3.6,57.62-17.8,82.11-36.48,14.26-10.89,27.73-22.82,42.83-32.6,3.92-2.54,8.31-6.85,12.92-4.09,5.67,3.4,2.07,9.51.85,13.91-6.91,24.91-15.75,49.24-28.41,71.78-28.58,50.87-60,100.22-78.47,156.22a81.24,81.24,0,0,1-19.63,32.17c-9.73,9.7-19.65,11.42-31.64,4.77a117.81,117.81,0,0,1-15.57-10.75,129,129,0,0,0-27.77-17c-38.41-16.94-78.35-25.17-120.41-20.27C882,821.34,868,824.89,855,831.48c-32.92,16.62-40.25,60-14.61,86.95,4.48,4.71,9.41,9,14.13,13.49H285.34c-16.81-9.32-33-19.39-46.56-33.37-12.48-12.9-25-25.76-37.86-38.31C160.62,820.85,114.51,789.6,64.51,764,25.06,743.72-15.83,739.18-59,750.66c-47,12.46-93.3,26.56-138.38,44.73-9.83,4-19.5,8.54-30,10.42-10.12,1.8-14.32-2.06-13.91-12.23.24-5.89,2-11.44,3.91-16.94a271.08,271.08,0,0,1,20.41-44c9.84-17.38,20.12-34.5,30.22-51.72q21-35.76-1-70.92c-5.23-8.35-10.39-16.78-16.17-24.74a141.06,141.06,0,0,1-22.14-47.9c-7.56-29.16-8.49-58.85-6.15-88.76A227.34,227.34,0,0,1-192.18,335.7c13.69-19.91,32-35.68,48.43-53.18,22.89-24.42,42-51.52,51.44-83.94,11.88-41,8.79-82.56,2-124-3.46-21-10.83-41-15.06-61.83-5.31-26.12,2.15-47.36,23-63.88,3.77-3,7.47-6.09,11.48-8.72,56.53-37,116.16-67.55,181.07-87.23,14.43-4.38,29.46-7,43.13-13.77q747.89,0,1495.77-.14c5.69,0,7,1.27,7,7q-.32,120.29-.14,240.57c-.85,7.73-2,15.45-2.5,23.21-1.37,19.88-2.74,39.76-3.66,59.67-1.77,38.57-6,77.09-3.9,115.76C1646.8,302.8,1649.15,320.35,1655.9,337ZM1524.14-115.24c-15.75.43-29.2.09-41.56,6.51-9.4,4.88-10.72,7.92-8.55,18.09a47.63,47.63,0,0,0,7,16.59c16.18,24.38,38.44,42.65,61,60.64,26.38,21.07,54.39,39.43,86.76,50.18,13.81,4.59,19.46.58,18.87-14.27-.52-12.83-1.63-25.69-4.51-38.25-4.91-21.48-10.38-42.72-25.83-59.79C1591.66-103.89,1559.09-115.18,1524.14-115.24Z" transform="translate(287.03 161.02)"/><path class="b" d="M854.51,931.92c-4.72-4.49-9.65-8.78-14.13-13.49-25.64-27-18.31-70.33,14.61-86.95,13-6.59,27-10.14,41.36-11.82,42.06-4.9,82,3.33,120.41,20.27a129,129,0,0,1,27.77,17,117.81,117.81,0,0,0,15.57,10.75c12,6.65,21.91,4.93,31.64-4.77a81.24,81.24,0,0,0,19.63-32.17c18.48-56,49.89-105.35,78.47-156.22,12.66-22.54,21.5-46.87,28.41-71.78,1.22-4.4,4.82-10.51-.85-13.91-4.61-2.76-9,1.55-12.92,4.09-15.1,9.78-28.57,21.71-42.83,32.6-24.49,18.68-50.93,32.88-82.11,36.48-37.51,4.34-66.69-10.41-88.85-39.79-18.78-24.9-28-53.19-25.25-84.54,1.89-21.69,13-39.66,26.17-56.23,20.59-25.82,46.69-40.6,80.7-38,14.37,1.1,28.46,4.29,42.42,7.65,23.54,5.68,45.54.63,67.38-7.71,22.18-8.46,44.09-17.78,67.58-22.3,19.93-3.83,39.41-4.09,56.42,9.25,8.84,6.92,14.65,16.64,21.49,25.36,14.33,18.3,29.65,35.82,43,54.89,8.64,12.35,15.86,25.53,18.66,40.35,5.3,28,19.64,51.17,36.86,73,15.32,19.46,32.18,37.7,46.16,58.24,2,2.89,4.68,5.31,7.24,7.75,11.72,11.16,25.75,11.21,38,.38C1528.1,681,1535,669,1539.11,656c21.34-67.2,66.85-117.56,114.83-166.27a7.08,7.08,0,0,1,2-1q0,218.55.14,437.12c0,5.19-1,6.21-6.22,6.21Q1252.17,931.82,854.51,931.92Z" transform="translate(287.03 161.02)"/><path class="b" d="M153.3-160.88c-13.67,6.8-28.7,9.39-43.13,13.77C45.26-127.43-14.37-96.87-70.9-59.88c-4,2.63-7.71,5.74-11.48,8.72-20.88,16.52-28.34,37.76-23,63.88,4.23,20.81,11.6,40.84,15.06,61.83,6.83,41.47,9.92,83.07-2,124-9.41,32.42-28.55,59.52-51.44,83.94-16.4,17.5-34.74,33.27-48.43,53.18a227.34,227.34,0,0,0-40.07,112.94c-2.34,29.91-1.41,59.6,6.15,88.76A141.06,141.06,0,0,0-204,585.3c5.78,8,10.94,16.39,16.17,24.74q21.94,35.12,1,70.92c-10.1,17.22-20.38,34.34-30.22,51.72a271.08,271.08,0,0,0-20.41,44c-1.92,5.5-3.67,11.05-3.91,16.94-.41,10.17,3.79,14,13.91,12.23,10.53-1.88,20.2-6.46,30-10.42C-152.35,777.22-106,763.12-59,750.66c43.22-11.48,84.11-6.94,123.56,13.29,50,25.65,96.11,56.9,136.41,96.29,12.83,12.55,25.38,25.41,37.86,38.31,13.51,14,29.75,24.05,46.56,33.37q-282.58,0-565.17.12c-5.31,0-7.2-.6-7.2-6.74q.28-539.76,0-1079.51c0-6,1.75-6.8,7.15-6.8Q-63.28-160.77,153.3-160.88Z" transform="translate(287.03 161.02)"/><path class="b" d="M1655.9,337c-6.75-16.6-9.1-34.15-10.06-51.79-2.1-38.67,2.13-77.19,3.9-115.76.92-19.91,2.29-39.79,3.66-59.67.54-7.76,1.65-15.48,2.5-23.21Z" transform="translate(287.03 161.02)"/><path class="b" d="M1524.14-115.24c34.95.06,67.52,11.35,93.17,39.7,15.45,17.07,20.92,38.31,25.83,59.79,2.88,12.56,4,25.42,4.51,38.25.59,14.85-5.06,18.86-18.87,14.27C1596.41,26,1568.4,7.66,1542-13.41c-22.51-18-44.77-36.26-61-60.64a47.63,47.63,0,0,1-7-16.59c-2.17-10.17-.85-13.21,8.55-18.09C1494.94-115.15,1508.39-114.81,1524.14-115.24Z" transform="translate(287.03 161.02)"/></svg>