<svg xmlns="http://www.w3.org/2000/svg" viewBox="0 0 1943.83 1093.81"><defs><style>.a{opacity:0;fill:#ffffff;}.b{fill:#ffffff;}</style></defs><title>1800f_00096</title><path class="a" d="M573.72,931.92H179.1c1-2.08,3.2-2.28,5-3,34.19-14.18,64.24-34.19,87.69-63.18,41.54-51.36,63-109.58,58.74-176.17-1-15.17-3.62-30.3-10.61-44-12.09-23.62-23.87-27.27-43.65-20-3.56,1.32-7.18,2.43-10.75,3.7a71.93,71.93,0,0,1-43.31,1.92c-43.67-11.71-84.11-29.9-118.93-59.63-31.5-26.9-55-58.67-67.52-98.68-11.06-35.45-23.14-70.66-38.54-104.5-12.95-28.47-14.39-56.73-2.9-85.82,2.51-6.34,3.18-13.19,3.41-20.07,1.1-33-9.64-62.67-26.06-90.54-10.82-18.37-23.6-35.32-41.32-47.78-11-7.71-23-11.75-36.43-7.79-14.67,4.32-27.32,12.24-36.93,24-14.62,17.91-15.12,30-2.85,49.61,8.43,13.47,17.75,26.38,26,39.94,15.53,25.42,32.16,50.19,44.93,77.24,8.69,18.42,13.34,37.61,11.61,57.94-1.55,18.12-5.35,35.91-10,53.51C-90,482.46-80.6,542.91-49.82,600.56c12.42,23.26,30.75,41.85,48.63,60.79C11.81,675.13,25,688.79,35.12,705c19.68,31.28,13.41,62.1-17,83-9.23,6.34-19.36,10.89-29.69,15-20,8-40.12,15.5-58.61,26.62-37.7,22.67-75.42,45.29-112.88,68.34-16.95,10.42-34,20.81-49.11,34-16.95,0-33.9-.12-50.84.1-3.27,0-4.48-.63-3.83-3.9a16.12,16.12,0,0,0,0-3V41a416.34,416.34,0,0,1,56.69-3.56c24.25,0,47.79,3.45,70.56,12.16,14.4,5.51,29,10.46,43.69,15.17,9.86,3.16,20,5.14,30.53,4.13,25.3-2.41,49.55-9.7,74-15.75C37.44,41.07,86.84,31.29,134.19,13.85,192.16-7.5,246-35.54,290.57-79.44c16.56-16.3,32.33-33.46,50.32-48.31,15.67-12.93,32.48-15.26,50.86-6.64,23.56,11,43.48,26.56,58.88,47.67,3.43,4.7,7,9.22,11.59,12.94,14.85,12.05,32.46,13.47,50.31,12.46,51.19-2.9,102.24-8.92,153.65-5.85,22.42,1.34,44.89,2,67.26,4,45.75,3.93,90.85,13.68,136.86,15.51,17,.67,33.91,1,50.61-2.46,11.58-2.37,22.92-7,25.57-19.69C952-96.3,968.33-114.95,988-131.52c11.94-10.08,24.35-19.59,36.55-29.36h107.76c-2.25,41.2-14.5,79.34-35.12,114.94-9.83,17-21.25,32.51-37.08,44.58S1036,27,1033.92,46.54a146.06,146.06,0,0,0,.09,32.58c1.19,10.06,3.4,20,8.87,28.77,7.69,12.37,21.36,16.74,40.53,12.81,31.21-6.39,58.77-21.17,85.89-37.12,44.82-26.33,91.78-44.34,145.34-38.25,33.31,3.78,58.28,18.35,74.44,48.69,20.33,38.18,30.68,79.12,35.84,121.48,7.42,61,15.52,121.83,27.47,182.11,7.78,39.26,17.51,77.9,34.57,114.39,35.15,75.22,99.25,119.25,168.94,157.34V790.76a323.58,323.58,0,0,0-45.18,21.07c-46,26.51-64.79,67.28-59.55,120.09h-258c4.71-4.72,11.36-6.18,16.66-10.06,18.91-13.8,34.31-31.22,50.18-48.15,8.46-9,16.67-18.39,21.22-30.14,6.29-16.26.41-25.85-16.86-28.06a43.62,43.62,0,0,0-6-.27c-33.87.4-63.47,13-90.48,32.38C1251.94,859,1237.41,872,1228.66,890c-6.16,12.71-4.08,22,5.66,32.27,3.93,4.13,9.6,5.43,13.29,9.63H1076.1c-1.37-9.08-6.72-15.67-13.67-21-17.48-13.49-37.55-21.64-58.56-27.65-36.53-10.46-74.13-12.63-111.78-13.12A1366.07,1366.07,0,0,0,706.15,880.5C657.74,886.51,612.7,901.48,573.72,931.92Z" transform="translate(287.06 161.76)"/><path class="b" d="M1655.9,669.34C1586.21,631.25,1522.11,587.22,1487,512c-17.06-36.49-26.79-75.13-34.57-114.39-12-60.28-20.05-121.13-27.47-182.11-5.16-42.36-15.51-83.3-35.84-121.48-16.16-30.34-41.13-44.91-74.44-48.69-53.56-6.09-100.52,11.92-145.34,38.25-27.12,16-54.68,30.73-85.89,37.12-19.17,3.93-32.84-.44-40.53-12.81-5.47-8.8-7.68-18.71-8.87-28.77a146.06,146.06,0,0,1-.09-32.58c2.08-19.51,10.42-35.91,26.14-47.9s27.25-27.59,37.08-44.58c20.62-35.6,32.87-73.74,35.12-114.94h255c2.68,8,8,14.47,12.47,21.4,8,12.45,16,25.1,28.81,33.4,8,5.21,16,2,18.77-7a72.69,72.69,0,0,0,3.07-20c.17-9.26-1.29-18.57.63-27.78h186.68c.1,3.51.11,7,.32,10.53,1.46,24.45,5,48.39,17.9,69.91Z" transform="translate(287.06 161.76)"/><path class="b" d="M1024.5-160.88c-12.2,9.77-24.61,19.28-36.55,29.36C968.33-114.95,952-96.3,946.48-69.86c-2.65,12.67-14,17.32-25.57,19.69-16.7,3.42-33.66,3.13-50.61,2.46-46-1.83-91.11-11.58-136.86-15.51-22.37-1.92-44.84-2.61-67.26-4-51.41-3.07-102.46,3-153.65,5.85-17.85,1-35.46-.41-50.31-12.46-4.6-3.72-8.16-8.24-11.59-12.94-15.4-21.11-35.32-36.62-58.88-47.67-18.38-8.62-35.19-6.29-50.86,6.64-18,14.85-33.76,32-50.32,48.31C246-35.54,192.16-7.5,134.19,13.85,86.84,31.29,37.44,41.07-11.35,53.13c-24.49,6-48.74,13.34-74,15.75-10.56,1-20.67-1-30.53-4.13-14.68-4.71-29.29-9.66-43.69-15.17-22.77-8.71-46.31-12.13-70.56-12.16A416.34,416.34,0,0,0-286.86,41c0-65,.08-130-.15-195,0-5.7,1.29-7,7-7Q372.23-160.8,1024.5-160.88Z" transform="translate(287.06 161.76)"/><path class="b" d="M-232.22,931.92c15.1-13.16,32.16-23.55,49.11-34,37.46-23.05,75.18-45.67,112.88-68.34C-51.74,818.49-31.57,811-11.62,803c10.33-4.12,20.46-8.67,29.69-15,30.46-20.91,36.73-51.73,17-83C25,688.79,11.81,675.13-1.19,661.35c-17.88-18.94-36.21-37.53-48.63-60.79C-80.6,542.91-90,482.46-73.25,418.68c4.62-17.6,8.42-35.39,10-53.51,1.73-20.33-2.92-39.52-11.61-57.94-12.77-27.05-29.4-51.82-44.93-77.24-8.28-13.56-17.6-26.47-26-39.94-12.27-19.61-11.77-31.7,2.85-49.61,9.61-11.79,22.26-19.71,36.93-24,13.46-4,25.47.08,36.43,7.79,17.72,12.46,30.5,29.41,41.32,47.78C-11.9,199.85-1.16,229.5-2.26,262.52c-.23,6.88-.9,13.73-3.41,20.07-11.49,29.09-10,57.35,2.9,85.82,15.4,33.84,27.48,69,38.54,104.5,12.48,40,36,71.78,67.52,98.68,34.82,29.73,75.26,47.92,118.93,59.63a71.93,71.93,0,0,0,43.31-1.92c3.57-1.27,7.19-2.38,10.75-3.7,19.78-7.3,31.56-3.65,43.65,20,7,13.67,9.65,28.8,10.61,44,4.23,66.59-17.2,124.81-58.74,176.17-23.45,29-53.5,49-87.69,63.18-1.81.75-4,1-5,3Z" transform="translate(287.06 161.76)"/><path class="b" d="M573.72,931.92c39-30.44,84-45.41,132.43-51.42a1366.07,1366.07,0,0,1,185.94-10.39c37.65.49,75.25,2.66,111.78,13.12,21,6,41.08,14.16,58.56,27.65,7,5.37,12.3,12,13.67,21Z" transform="translate(287.06 161.76)"/><path class="b" d="M1247.61,931.92c-3.69-4.2-9.36-5.5-13.29-9.63-9.74-10.23-11.82-19.56-5.66-32.27,8.75-18,23.28-31,39.16-42.4,27-19.41,56.61-32,90.48-32.38a43.62,43.62,0,0,1,6,.27c17.27,2.21,23.15,11.8,16.86,28.06-4.55,11.75-12.76,21.12-21.22,30.14-15.87,16.93-31.27,34.35-50.18,48.15-5.3,3.88-12,5.34-16.66,10.06Z" transform="translate(287.06 161.76)"/><path class="b" d="M1551.17,931.92c-5.24-52.81,13.52-93.58,59.55-120.09a323.58,323.58,0,0,1,45.18-21.07c0,45.28-.09,90.57.12,135.84,0,4.53-.91,5.48-5.44,5.45C1617.45,931.81,1584.31,931.92,1551.17,931.92Z" transform="translate(287.06 161.76)"/><path class="a" d="M1451-160.88c-1.92,9.21-.46,18.52-.63,27.78a72.69,72.69,0,0,1-3.07,20c-2.75,9.06-10.72,12.22-18.77,7-12.82-8.3-20.81-21-28.81-33.4-4.46-6.93-9.79-13.41-12.47-21.4Z" transform="translate(287.06 161.76)"/><path class="a" d="M1655.9-80.44C1643-102,1639.46-125.9,1638-150.35c-.21-3.51-.22-7-.32-10.53,6.07,0,14.51-2.37,17.55.66s.67,11.48.67,17.55Z" transform="translate(287.06 161.76)"/></svg>