<svg xmlns="http://www.w3.org/2000/svg" viewBox="0 0 1943.06 1093.12"><defs><style>.a{opacity:0;fill:#ffffff;}.b{fill:#ffffff;}</style></defs><title>1800f_00186</title><path class="a" d="M-286.86,818.08V672.38c7.3-5,14.35-10.44,21.95-14.91,33.13-19.49,66.51-38.53,99.62-58,34.18-20.14,69.75-31.85,109.92-21.37,18.18,4.74,32.78-1.66,43.69-16.63A311,311,0,0,0,23,501c11.38-26.46,17-53.8,13.67-82.78-2.4-21.19-8.14-41.62-13-62.26C20.58,342.62,18,329.08,20,315.46a245.29,245.29,0,0,0,1.13-65.73C17.5,218,8,188.48-12.58,163.37c-11-13.43-23.82-23.8-42.8-20.55C-62.32,144-69,146.49-75.93,148c-14.64,3.22-26.66-.28-36-12.95-17.21-23.34-16.31-50.91,3.38-72.93,15.8-17.66,34.77-31.6,54.11-45C-32.19,1.64-8.52-10.67,18.67-14.58c17.5-2.51,35.12-4.17,52.64-6.59,78.72-10.9,149.1-40,207.09-95.7,14.37-13.8,29-27.43,40.33-44H1111c5.76,10,13.26,18.87,18.65,29.18,13,24.87,25.58,50,39.84,74.16,16.77,28.47,35,55.65,62.18,75.61,16.74,12.32,35,22.26,52.59,33.16,35.4,21.9,62.92,52.2,89.14,83.81,45.45,54.8,94.19,106.39,147.84,153.27C1539,303.78,1558,317.62,1575,334c11.76,11.4,17.55,25.2,17,41.5-1.38,37.57-11,73.41-24.2,108.27-13.07,34.58-34,64.88-55.3,94.73-42.56,59.52-90.54,114.15-148.68,159-39.54,30.51-82.64,52.7-134.54,52.18-23.37-.24-43.25,8.6-59.51,25.66-8.72,9.14-17.91,17.85-27.1,26.54-16.78,15.88-36.06,27.67-58.23,34.46-27.6,8.46-55.83,14.35-84.27,18.9-34,5.45-68.46,5.66-102.83,6.65-30.29.87-60.73.2-90.55,7.09-21.94,5.06-43.71,10.55-63,22.9H97.14c-2.17-6-2.51-12.35-3-18.61-2.55-34.93-9.73-68.73-27.5-99.22-23-39.37-50.82-75.41-79.24-110.9-11.94-14.92-18.59-14.5-32-.7-15.85,16.3-31.34,33-47.22,49.24-14.39,14.74-22.69,31.52-22.43,52.78a114,114,0,0,1-7,41.64c-8.32,22.14-27.51,33.41-50.79,30-21.82-3.16-40.44-13.83-59.15-24.4C-250.07,841.11-267.44,827.91-286.86,818.08ZM878.33,534.56c-5.81,0-11.65-.36-17.43.07-13.41,1-26.6,3.18-38.56,9.92-12.25,6.9-14,17.75-4.44,28a90,90,0,0,0,17.19,14.8,312.63,312.63,0,0,0,112.64,44.89c17.21,3.23,34.67,4.23,51.63-2.13,15.86-5.94,23.68-19.45,20.53-35.92-4.18-21.84-19.28-34.56-38.3-42.71C948.69,537.43,913.42,536.05,878.33,534.56ZM1177.1,682.72c.42-5.17-1.07-10.3-2.95-15.25-4.06-10.72-14.34-17.12-24.18-15.43s-16.92,11.2-17.13,22.88c-.18,9.62,3.58,17.82,9.34,25,4.89,6.11,11.49,10.55,19.68,8.95,8.78-1.71,12.22-8.86,14.15-16.94A32.73,32.73,0,0,0,1177.1,682.72Z" transform="translate(287.02 161.06)"/><path class="b" d="M743.71,931.92c19.29-12.35,41.06-17.84,63-22.9,29.82-6.89,60.26-6.22,90.55-7.09,34.37-1,68.81-1.2,102.83-6.65,28.44-4.55,56.67-10.44,84.27-18.9,22.17-6.79,41.45-18.58,58.23-34.46,9.19-8.69,18.38-17.4,27.1-26.54,16.26-17.06,36.14-25.9,59.51-25.66,51.9.52,95-21.67,134.54-52.18,58.14-44.88,106.12-99.51,148.68-159,21.35-29.85,42.23-60.15,55.3-94.73,13.18-34.86,22.82-70.7,24.2-108.27.6-16.3-5.19-30.1-17-41.5-16.93-16.39-36-30.23-53.72-45.7-53.65-46.88-102.39-98.47-147.84-153.27-26.22-31.61-53.74-61.91-89.14-83.81-17.62-10.9-35.85-20.84-52.59-33.16-27.13-20-45.41-47.14-62.18-75.61-14.26-24.19-26.84-49.29-39.84-74.16-5.39-10.31-12.89-19.16-18.65-29.18h302c1.06,2.84-.17,5.45-.82,8.11-4.13,16.9-1.87,33.09,5.73,48.57,7.42,15.14,18.25,27.74,30,39.72,58.76,60.21,131.82,97.46,208,129.75q0,429.9.14,859.82c0,5.69-1.28,7-7,7Q1196.39,931.82,743.71,931.92Z" transform="translate(287.02 161.06)"/><path class="b" d="M318.73-160.88c-11.35,16.58-26,30.21-40.33,44-58,55.71-128.37,84.8-207.09,95.7-17.52,2.42-35.14,4.08-52.64,6.59C-8.52-10.67-32.19,1.64-54.43,17.09c-19.34,13.44-38.31,27.38-54.11,45-19.69,22-20.59,49.59-3.38,72.93,9.33,12.67,21.35,16.17,36,12.95,6.9-1.52,13.61-4,20.55-5.19,19-3.25,31.81,7.12,42.8,20.55C8,188.48,17.5,218,21.17,249.73A245.29,245.29,0,0,1,20,315.46C18,329.08,20.58,342.62,23.7,356c4.82,20.64,10.56,41.07,13,62.26,3.28,29-2.29,56.32-13.67,82.78a311,311,0,0,1-34.67,60.39c-10.91,15-25.51,21.37-43.69,16.63-40.17-10.48-75.74,1.23-109.92,21.37-33.11,19.51-66.49,38.55-99.62,58-7.6,4.47-14.65,9.91-21.95,14.91q0-413-.16-826c0-6,1-7.45,7.31-7.44Q19.51-160.73,318.73-160.88Z" transform="translate(287.02 161.06)"/><path class="b" d="M-286.86,818.08c19.42,9.83,36.79,23,55.69,33.71,18.71,10.57,37.33,21.24,59.15,24.4,23.28,3.37,42.47-7.9,50.79-30a114,114,0,0,0,7-41.64c-.26-21.26,8-38,22.43-52.78,15.88-16.28,31.37-32.94,47.22-49.24,13.41-13.8,20.06-14.22,32,.7,28.42,35.49,56.29,71.53,79.24,110.9,17.77,30.49,25,64.29,27.5,99.22.46,6.26.8,12.59,3,18.61q-189,0-377.93.14c-5.2,0-6.27-1-6.22-6.21C-286.72,889.93-286.86,854-286.86,818.08Z" transform="translate(287.02 161.06)"/><path class="a" d="M1655.9,65.27c-76.17-32.29-149.23-69.54-208-129.75-11.7-12-22.53-24.58-30-39.72-7.6-15.48-9.86-31.67-5.73-48.57.65-2.66,1.88-5.27.82-8.11q118.58,0,237.15-.12c4.7,0,5.83,1,5.82,5.79Q1655.75-45,1655.9,65.27Z" transform="translate(287.02 161.06)"/><path class="b" d="M878.33,534.56c35.09,1.49,70.36,2.87,103.26,17,19,8.15,34.12,20.87,38.3,42.71,3.15,16.47-4.67,30-20.53,35.92-17,6.36-34.42,5.36-51.63,2.13a312.63,312.63,0,0,1-112.64-44.89,90,90,0,0,1-17.19-14.8c-9.52-10.28-7.81-21.13,4.44-28,12-6.74,25.15-8.91,38.56-9.92C866.68,534.2,872.52,534.56,878.33,534.56Z" transform="translate(287.02 161.06)"/><path class="b" d="M1177.1,682.72A32.73,32.73,0,0,1,1176,692c-1.93,8.08-5.37,15.23-14.15,16.94-8.19,1.6-14.79-2.84-19.68-8.95-5.76-7.2-9.52-15.4-9.34-25,.21-11.68,7.22-21.18,17.13-22.88s20.12,4.71,24.18,15.43C1176,672.42,1177.52,677.55,1177.1,682.72Z" transform="translate(287.02 161.06)"/></svg>