<svg xmlns="http://www.w3.org/2000/svg" viewBox="0 0 1943.04 1093.14"><defs><style>.a{opacity:0;fill:#ffffff;}.b{fill:#ffffff;}</style></defs><title>1800f_00132</title><path class="a" d="M-286.86,376.41V217a691.21,691.21,0,0,1,83-7.14c60.18-1.53,120.35,1.09,180.5,2.46,56.87,1.3,113.57,3.31,170.24-5.5,49.29-7.67,94.34-23.52,133.63-55,18.53-14.83,37.21-29.61,57.94-41.46,30-17.15,60.48-19.69,92-4.08,17.81,8.82,34.34,19.5,48.69,33.21,24.23,23.13,51.92,40.93,82.06,55.24C591,209,621.81,216.26,655.22,211.47c23.53-3.37,46.83-7.77,70.19-12,27.84-5,55.72-11.27,84.17-8,39.38,4.46,78.78,9.24,117.88,15.63,36.51,6,71.83,16.64,105.27,33,27.59,13.5,44.27,35.08,50.72,65.05,6.41,29.82,7.64,60.15,9,90.41,1.72,38.58,9.74,75.1,30.59,108.14,13.56,21.5,27.72,42.79,50.26,55.83,27.71,16,63.1,16.44,85-19.18,7.64-12.4,12.57-25.91,16.65-39.74,10.57-35.87,20.89-71.82,31.35-107.72,12.77-43.82,33.14-84.71,49.08-127.28A745.71,745.71,0,0,1,1470.94,61.94c13.84-17.42,27.83-34.85,47.29-46.57,22-13.25,58.64-17.83,79.47,16.57a189.52,189.52,0,0,1,20.22,45.6c15.12,52.19,16.15,106.3,20.73,159.82s-6.51,105.15-23.08,155.76c-18.32,56-36.83,111.86-51.69,168.89-14.78,56.72-22.85,114-14.23,172.61,10.23,69.43,46,122,106.25,157.84,0,11.88-.15,23.76.09,35.64.07,3.21-.56,4.48-3.87,3.86a19.86,19.86,0,0,0-3.78,0H472c-.7-2.23.88-3.83,1.59-5.66,9.9-25.61,8.47-50.76-5.1-74.41-13.08-22.8-34.91-31.79-60.06-31.34-22.09.4-35.42,11.25-40.52,29.94-3.76,13.8-3.63,27.88-2.68,42.08.89,13.4,4.52,26.24,6.6,39.39q-326,0-652,.16c-5.91,0-6.92-1.57-6.86-7.09.29-30.57.14-61.15.14-91.73,2.52-2.32,3.41-5.57,4.77-8.52,19.29-41.93,34.42-85.34,43.8-130.53,10.52-50.69,18.17-101.94,28.85-152.63,6.32-30,11.37-60.14,8.95-91-1.74-22.25-6.86-43.56-21-61.48-10.75-13.57-24.63-20.22-42.51-17.81C-271.86,372.36-279,375.8-286.86,376.41ZM806.77,483a33.46,33.46,0,0,0,0-5.3c-.94-5.8-2-11.76-8.11-14.51s-11.61-.94-16.7,3.28c-7.78,6.45-13.32,14.52-17.52,23.5s-7.48,18.23-6.46,28.47c.78,7.83,5.94,11.69,13.44,9.73C790.45,523.15,806.83,502.3,806.77,483Z" transform="translate(287 161.03)"/><path class="b" d="M1655.9,892.46c-60.28-35.88-96-88.41-106.25-157.84-8.62-58.57-.55-115.89,14.23-172.61,14.86-57,33.37-112.93,51.69-168.89,16.57-50.61,27.64-102.29,23.08-155.76S1633,129.73,1617.92,77.54a189.52,189.52,0,0,0-20.22-45.6c-20.83-34.4-57.47-29.82-79.47-16.57-19.46,11.72-33.45,29.15-47.29,46.57a745.71,745.71,0,0,0-115.53,203.63c-15.94,42.57-36.31,83.46-49.08,127.28-10.46,35.9-20.78,71.85-31.35,107.72-4.08,13.83-9,27.34-16.65,39.74-21.95,35.62-57.34,35.23-85,19.18-22.54-13-36.7-34.33-50.26-55.83-20.85-33-28.87-69.56-30.59-108.14-1.34-30.26-2.57-60.59-9-90.41-6.45-30-23.13-51.55-50.72-65.05C999.29,223.68,964,213,927.46,207c-39.1-6.39-78.5-11.17-117.88-15.63-28.45-3.23-56.33,3-84.17,8-23.36,4.25-46.66,8.65-70.19,12-33.41,4.79-64.2-2.46-94.08-16.65-30.14-14.31-57.83-32.11-82.06-55.24-14.35-13.71-30.88-24.39-48.69-33.21-31.49-15.61-62-13.07-92,4.08-20.73,11.85-39.41,26.63-57.94,41.46-39.29,31.43-84.34,47.28-133.63,55-56.67,8.81-113.37,6.8-170.24,5.5-60.15-1.37-120.32-4-180.5-2.46a691.21,691.21,0,0,0-83,7.14V-18.21c4.83-.92,8.67-3.94,12.87-6.17,35.92-19.09,72-37.65,111.79-47.78C-147-76-131.92-80-117.61-86.57-99-95.08-86.23-108-83.08-129.17c1.57-10.59,1.1-21.13,1.12-31.71H21.25c15.25,27,33.61,51.63,56.84,72.32C89.88-78,102.82-69.34,118.73-66.12c17.29,3.5,33.85-3.48,41.36-19.27,11.5-24.18,17.48-50.41,26.6-75.49H421.94c1.44,32.65,23.53,57,55.85,62,25.41,4,49.73-1.43,73.93-8.08,22.25-6.12,42.87-16.53,64.23-25,36.17-14.32,74-15.41,112-13.39,33.22,1.77,66.12.65,98.86-5.31,19.33-3.52,38.7-6.85,58-10.26h411.32c-.45.57-.79,1.4-1.39,1.67-26.61,12.1-48.77,30.57-70,50.05s-42.14,39.32-58.39,63.46c-15.87,23.55-21.38,48.85-12.9,76.37,7.73,25.13,10.55,50.82,10.62,77,.06,18.24,6.47,23.46,24.58,21.09,1.25-.16,2.47-.5,3.71-.74,22.65-4.35,44.4-11.88,66.23-19.06,35.52-11.69,71.24-23,103.84-41.91,38-22.06,75-45.86,112.15-69.43,8.51-5.4,16.77-11.33,23.7-18.8,13.74-14.79,13.51-28.25-.72-42.47a149.36,149.36,0,0,0-30.88-23.11c-41.88-24.34-80.24-54.62-125-74.11q154,0,308.1-.15c5.2,0,6.22,1,6.22,6.22Q1655.8,368.83,1655.9,892.46Z" transform="translate(287 161.03)"/><path class="a" d="M1341.72-160.88c44.74,19.49,83.1,49.77,125,74.11a149.36,149.36,0,0,1,30.88,23.11c14.23,14.22,14.46,27.68.72,42.47-6.93,7.47-15.19,13.4-23.7,18.8C1437.48,21.18,1400.5,45,1362.45,67c-32.6,18.9-68.32,30.22-103.84,41.91-21.83,7.18-43.58,14.71-66.23,19.06-1.24.24-2.46.58-3.71.74-18.11,2.37-24.52-2.85-24.58-21.09-.07-26.17-2.89-51.86-10.62-77-8.48-27.52-3-52.82,12.9-76.37,16.25-24.14,37.16-44,58.39-63.46s43.42-38,70-50.05c.6-.27.94-1.1,1.39-1.67Z" transform="translate(287 161.03)"/><path class="b" d="M-286.86,376.41c7.84-.61,15-4.05,22.81-5.1,17.88-2.41,31.76,4.24,42.51,17.81,14.19,17.92,19.31,39.23,21,61.48,2.42,30.84-2.63,61-8.95,91-10.68,50.69-18.33,101.94-28.85,152.63-9.38,45.19-24.51,88.6-43.8,130.53-1.36,3-2.25,6.2-4.77,8.52Z" transform="translate(287 161.03)"/><path class="a" d="M-82-160.88c0,10.58.45,21.12-1.12,31.71-3.15,21.16-16,34.09-34.53,42.6C-131.92-80-147-76-162.2-72.16-201.95-62-238.07-43.47-274-24.38c-4.2,2.23-8,5.25-12.87,6.17,0-45.69.09-91.37-.14-137.06,0-4.9,1.32-5.73,5.89-5.72Q-181.54-160.75-82-160.88Z" transform="translate(287 161.03)"/><path class="a" d="M884.86-160.88c-19.34,3.41-38.71,6.74-58,10.26-32.74,6-65.64,7.08-98.86,5.31-38-2-75.84-.93-112,13.39-21.36,8.45-42,18.86-64.23,25-24.2,6.65-48.52,12-73.93,8.08-32.32-5-54.41-29.37-55.85-62Z" transform="translate(287 161.03)"/><path class="b" d="M371.86,931.92c-2.08-13.15-5.71-26-6.6-39.39-.95-14.2-1.08-28.28,2.68-42.08,5.1-18.69,18.43-29.54,40.52-29.94,25.15-.45,47,8.54,60.06,31.34,13.57,23.65,15,48.8,5.1,74.41-.71,1.83-2.29,3.43-1.59,5.66Z" transform="translate(287 161.03)"/><path class="a" d="M186.69-160.88c-9.12,25.08-15.1,51.31-26.6,75.49C152.58-69.6,136-62.62,118.73-66.12,102.82-69.34,89.88-78,78.09-88.56c-23.23-20.69-41.59-45.31-56.84-72.32Z" transform="translate(287 161.03)"/><path class="b" d="M806.77,483c.06,19.34-16.32,40.19-35.39,45.17-7.5,2-12.66-1.9-13.44-9.73-1-10.24,2.26-19.52,6.46-28.47s9.74-17.05,17.52-23.5c5.09-4.22,10.51-6.07,16.7-3.28s7.17,8.71,8.11,14.51A33.46,33.46,0,0,1,806.77,483Z" transform="translate(287 161.03)"/></svg>