<svg xmlns="http://www.w3.org/2000/svg" viewBox="0 0 1943.05 1093.12"><defs><style>.a{opacity:0;fill:#ffffff;}.b{fill:#ffffff;}</style></defs><title>1800f_00142</title><path class="a" d="M-286.86,329.36V296c65.16-21.13,131.92-34.24,200.06-41C-43,250.69.6,245.42,44.44,241.93c45.17-3.6,90.38-4.47,135.59-1.17,42.18,3.09,82.08-3.39,118.83-25.53,15.58-9.39,31.4-18.44,48-26,21.07-9.53,43-12.42,65.88-9.21,31.85,4.47,60.66,17,88.56,32.24,30.84,16.86,61.19,34.58,91.78,51.87,45.59,25.77,95.38,32.27,146.74,28.55,42.62-3.09,85.21-5.56,128-4.8a194,194,0,0,0,27.94-2c33.63-4.32,67.23-8,101.26-6.62,38.75,1.54,75.23,12,110.65,26.79,16.09,6.73,25.7,18.94,28.19,36.63,2,14,.91,27.71-1.37,41.48-3.12,18.78-9.86,36.58-15,54.82-4.36,15.58-2.6,30,6,43.63,3.77,6,7.54,12,11.59,17.78,15.66,22.4,30.46,45.32,44,69.06,11.69,20.44,24.38,40.25,40.74,57.39,24.33,25.48,52.7,40.86,89.45,38,39-3,61.39-19.63,70-57.49,13-57.33,14-115.29,3.65-173.17-6.9-38.67-8.64-77.19-2.42-116.1s17.65-76.23,30.49-113.29c6.85-19.8,13.83-39.71,13.8-61.08,0-19.51-9.44-28.59-29-28.91-16.86-.27-32.38,5.16-47.6,11.38-27,11-51.88,26.25-78.26,38.48-7.8,3.62-15.62,7.28-24,9.33-11.83,2.89-16.53-2.24-12.91-13.8,2.91-9.29,8.5-17.16,13.56-25.32,11.83-19.12,24.65-37.81,29.89-60.15,3.6-15.33,1.74-29.86-9.49-41.81-24.06-25.62-48.08-51.32-73.8-75.3-12.91-12-28-20.71-46-23.2-16.14-2.23-32.22-1.76-48.35.06-48,5.42-93.63,19-136,42.13C928.75-3.65,891.2,8.61,849.64,5.8,828.7,4.38,808,1.18,787.3-2.38,756.67-7.65,726-12.56,694.94-14.76c-32.39-2.3-63.94,3.56-95.27,11C570.19,3.2,540.86,11.6,510,7.73c-50.66-6.37-79.61-34-80.95-86.75-.6-23.47,6.74-44.74,15.8-65.76,2.26-5.25,5.9-10,5.93-16.1h897c-.32,3.79,2.93,4.57,5.27,5.53,29.31,12.07,52.88,32.14,75.86,53.31,29,26.78,61.61,48.23,98.76,62.4A435.76,435.76,0,0,1,1570-20.95c17.86,9.1,30.94,22.25,37.89,41.42,5.52,15.2,11.05,30.46,19.16,44.53,8.41,14.58,16.33,29.55,28.89,41.25V438.64c-2,1-2.46,3.12-3.43,4.84-15.31,27.08-29,55-43.61,82.46-38.93,73.33-50.32,153.1-55.64,234.21-2.27,34.65,5.46,68.33,15.12,101.51,7.33,25.16,16.38,49.44,32.92,70.26H-253.47c17.25-22.14,34.94-43.81,56.44-62.16,16.33-13.94,32-28.59,44.92-46,10.55-14.25,13.94-29.29,7.38-46.28-4.74-12.24-9.31-24.58-13.14-37.13-11.52-37.76-20.29-76.13-23.64-115.58-3.06-36.09-4.31-72.11,3.15-107.94a93.45,93.45,0,0,0,1.6-29.4c-3.83-34.76-19.32-64.56-39.17-92.47C-235,368.17-260.59,348.38-286.86,329.36Zm1180.7,84.41a34.87,34.87,0,0,0-3.59-17c-7-13.94-22.61-15.14-31.72-2.43-6.89,9.6-9,20.7-9.88,32.17s-1,22.74-2.65,33.94c-3.16,21.57-16.39,38.27-28.38,55.48-14.08,20.21-26.62,41.24-33.4,65.17-6.88,24.29-7.77,48.47,3.86,71.68,13.28,26.48,37.28,34.48,63.52,20.79,26.59-13.86,46.91-34.83,63.74-59.33,17.19-25,21-52.1,11.58-80.92-5-15.3-13.44-28.88-22.49-42-10.62-15.38-16.44-31.75-13.55-50.61C892.14,432.45,893.76,424.26,893.84,413.77Zm-832,310c-16.88-.1-32.48,4-45.47,14.6-23.74,19.34-27,36.44.87,54,13.54,8.51,27.86,15.43,42.48,21.74,21.1,9.1,42.13,18.71,65,22.63,13.09,2.25,26.36,2.93,37.25-7.16,17.05-15.78,17.51-41.94.2-60.52C135.06,740,100.68,726.7,61.8,723.75Z" transform="translate(287.01 161.03)"/><path class="b" d="M450.78-160.88c0,6.07-3.67,10.85-5.93,16.1-9.06,21-16.4,42.29-15.8,65.76C430.39-26.3,459.34,1.36,510,7.73c30.86,3.87,60.19-4.53,89.67-11.51,31.33-7.42,62.88-13.28,95.27-11,31,2.2,61.73,7.11,92.36,12.38C808,1.18,828.7,4.38,849.64,5.8c41.56,2.81,79.11-9.45,115.2-29.14,42.37-23.13,88-36.71,136-42.13,16.13-1.82,32.21-2.29,48.35-.06,18,2.49,33.06,11.16,46,23.2,25.72,24,49.74,49.68,73.8,75.3,11.23,12,13.09,26.48,9.49,41.81-5.24,22.34-18.06,41-29.89,60.15-5.06,8.16-10.65,16-13.56,25.32-3.62,11.56,1.08,16.69,12.91,13.8,8.37-2.05,16.19-5.71,24-9.33,26.38-12.23,51.3-27.47,78.26-38.48,15.22-6.22,30.74-11.65,47.6-11.38,19.61.32,29,9.4,29,28.91,0,21.37-7,41.28-13.8,61.08-12.84,37.06-24.29,74.42-30.49,113.29s-4.48,77.43,2.42,116.1c10.33,57.88,9.39,115.84-3.65,173.17-8.61,37.86-31,54.49-70,57.49-36.75,2.83-65.12-12.55-89.45-38-16.36-17.14-29-37-40.74-57.39-13.56-23.74-28.36-46.66-44-69.06-4-5.79-7.82-11.79-11.59-17.78-8.57-13.63-10.33-28.05-6-43.63,5.1-18.24,11.84-36,15-54.82,2.28-13.77,3.32-27.52,1.37-41.48-2.49-17.69-12.1-29.9-28.19-36.63-35.42-14.8-71.9-25.25-110.65-26.79-34-1.36-67.63,2.3-101.26,6.62a194,194,0,0,1-27.94,2c-42.76-.76-85.35,1.71-128,4.8-51.36,3.72-101.15-2.78-146.74-28.55-30.59-17.29-60.94-35-91.78-51.87-27.9-15.24-56.71-27.77-88.56-32.24-22.91-3.21-44.81-.32-65.88,9.21-16.62,7.52-32.44,16.57-48,26-36.75,22.14-76.65,28.62-118.83,25.53-45.21-3.3-90.42-2.43-135.59,1.17C.6,245.42-43,250.69-86.8,255c-68.14,6.72-134.9,19.83-200.06,41V48.57c13-.93,25.65,1.8,38.29,4,44,7.74,87.41,18.62,131.83,24.14,28.12,3.5,55.93,4,82.87-6.5C-17.44,63.83-1.74,63.7,14,72.89c7.79,4.55,16.47,7.65,24.94,10.93C82,100.52,123.47,98.63,162.37,71.9c24.36-16.73,48.71-33.5,72.72-50.74,11.16-8,20.74-17.76,25-31.5a208.65,208.65,0,0,0,8.4-44.55c3.09-35.32,1.53-70.66.11-106Z" transform="translate(287.01 161.03)"/><path class="a" d="M268.65-160.88c1.42,35.33,3,70.67-.11,106a208.65,208.65,0,0,1-8.4,44.55c-4.31,13.74-13.89,23.49-25,31.5-24,17.24-48.36,34-72.72,50.74C123.47,98.63,82,100.52,38.93,83.82,30.46,80.54,21.78,77.44,14,72.89c-15.73-9.19-31.43-9.06-47.86-2.66-26.94,10.5-54.75,10-82.87,6.5-44.42-5.52-87.84-16.4-131.83-24.14-12.64-2.22-25.29-5-38.29-4,0-67.79.08-135.59-.15-203.38,0-5.2,1-6.22,6.22-6.22Q-6.06-160.76,268.65-160.88Z" transform="translate(287.01 161.03)"/><path class="b" d="M-286.86,329.36c26.27,19,51.88,38.81,70.93,65.6,19.85,27.91,35.34,57.71,39.17,92.47a93.45,93.45,0,0,1-1.6,29.4c-7.46,35.83-6.21,71.85-3.15,107.94,3.35,39.45,12.12,77.82,23.64,115.58,3.83,12.55,8.4,24.89,13.14,37.13,6.56,17,3.17,32-7.38,46.28-12.89,17.41-28.59,32.06-44.92,46-21.5,18.35-39.19,40-56.44,62.16-9.61,0-19.23-.21-28.83.1-3.82.13-4.7-.86-4.66-4.66.2-22.76.1-45.53.1-68.3Z" transform="translate(287.01 161.03)"/><path class="b" d="M1601.26,931.92c-16.54-20.82-25.59-45.1-32.92-70.26-9.66-33.18-17.39-66.86-15.12-101.51,5.32-81.11,16.71-160.88,55.64-234.21,14.58-27.46,28.3-55.38,43.61-82.46,1-1.72,1.45-3.82,3.43-4.84q0,243.6.14,487.21c0,5.19-1,6.37-6.22,6.23C1633.64,931.64,1617.45,931.92,1601.26,931.92Z" transform="translate(287.01 161.03)"/><path class="b" d="M1655.9,106.25C1643.34,94.55,1635.42,79.58,1627,65c-8.11-14.07-13.64-29.33-19.16-44.53-6.95-19.17-20-32.32-37.89-41.42a435.76,435.76,0,0,0-42.28-18.69c-37.15-14.17-69.71-35.62-98.76-62.4-23-21.17-46.55-41.24-75.86-53.31-2.34-1-5.59-1.74-5.27-5.53q151,0,302-.15c5.2,0,6.24,1,6.22,6.22Q1655.74-24.28,1655.9,106.25Z" transform="translate(287.01 161.03)"/><path class="b" d="M893.84,413.77c-.08,10.49-1.7,18.68-3,26.91-2.89,18.86,2.93,35.23,13.55,50.61,9.05,13.1,17.51,26.68,22.49,42,9.38,28.82,5.61,55.89-11.58,80.92-16.83,24.5-37.15,45.47-63.74,59.33-26.24,13.69-50.24,5.69-63.52-20.79-11.63-23.21-10.74-47.39-3.86-71.68,6.78-23.93,19.32-45,33.4-65.17,12-17.21,25.22-33.91,28.38-55.48,1.64-11.2,1.79-22.62,2.65-33.94s3-22.57,9.88-32.17c9.11-12.71,24.67-11.51,31.72,2.43A34.87,34.87,0,0,1,893.84,413.77Z" transform="translate(287.01 161.03)"/><path class="b" d="M61.8,723.75c38.88,3,73.26,16.27,100.31,45.29,17.31,18.58,16.85,44.74-.2,60.52-10.89,10.09-24.16,9.41-37.25,7.16-22.85-3.92-43.88-13.53-65-22.63-14.62-6.31-28.94-13.23-42.48-21.74-27.92-17.56-24.61-34.66-.87-54C29.32,727.77,44.92,723.65,61.8,723.75Z" transform="translate(287.01 161.03)"/></svg>