<svg xmlns="http://www.w3.org/2000/svg" viewBox="0 0 1943.3 1093.43"><defs><style>.a{opacity:0;fill:#ffffff;}.b{fill:#ffffff;}</style></defs><title>1800f_00157</title><path class="a" d="M1487.42,931.92H252c1-14.24,0-28.27-4.16-42-8.59-28.41-28.68-47-53.08-61.75C158.13,806,117.54,796,75.89,789.23c-24.43-4-48.95-7.36-73-13.66-31-8.14-51.47-26.92-60.27-57.93-2.34-8.25-4.53-16.57-6.34-25-6.6-30.62-9.52-62-18.06-92.19-15.83-56-48.12-98.4-102.65-122-20.41-8.84-41.08-17.26-59.41-30.14-6.56-4.61-14.24-9.82-13.36-18.93,1-9.76,9.63-13.58,17.7-16.9,19.39-8,40.05-10.41,60.56-13.15,40.17-5.38,78.74-15.74,114.65-34.95,20.91-11.19,40.49-24,53.81-44.38,10.79-16.51,9.92-28.25-4.14-42-9.93-9.7-20.73-18.49-31.13-27.71C-69,229.72-87.76,206-96.53,175.51A103.11,103.11,0,0,0-106.66,151c-9.92-16.62-23-20.51-40.6-12.32-13,6-24.1,14.82-35.3,23.44-31,23.86-65.34,40.06-104.3,45.78v-343l9.11-25.8H1479.83a34.94,34.94,0,0,1-1.86,4.08c-15.43,25-38,37.29-67.24,38.59-28,1.25-55.23-5.4-82.93-7-25.07-1.44-49.09,2-69.67,17.65-14.8,11.27-25.61,25.21-24.36,45.34,1,16.07,10.06,27.7,21.4,37.84,23.37,20.88,51.49,33.58,79.93,45.61,44.76,18.93,92.1,24.21,140.05,25.42a521.12,521.12,0,0,1,122.63,17.82,296.47,296.47,0,0,0,58.12,9.89v546.4c-2.93,0-4.27,2.47-6.14,4a190.33,190.33,0,0,1-23.84,17.47c-16.42,9.87-33.72,16.22-53.34,12.38-23.25-4.55-39.83-18.72-53.4-37.18-16.91-23-25-49.46-29.56-77.16-6.68-40.55-8.62-80.85,6.2-120.43,10-26.64,23-51.69,37.31-76.17,25.74-44.15,55-86.09,82.41-129.15,12-18.75,24.1-37.54,29-59.72,4.43-20-5-35.12-24.85-40.07-8.72-2.17-17.59-1.8-26.33.09-27.07,5.85-50.26,19.84-72.09,36-53.31,39.36-106,79.61-155.24,124-45,40.49-82.5,86.67-107.43,142.5-12.56,28.13-24,56.85-39.76,83.49-13.75,23.3-27.13,46.87-46.67,66.09-10,9.8-21.61,13.27-35.41,10.35-18.53-3.92-35.38-12-52-20.6-23.36-12.1-44.27-27.37-60.91-48-7.47-9.27-7.2-14.64,1.33-22.95,9-8.75,20-14.6,30.54-21,16.4-10,33.52-18.79,47.55-32.32,10.59-10.22,13.8-22.17,11.62-36.55-3.23-21.31-13.11-39.82-23.77-57.86-14-23.76-25.38-48.09-27.64-76.18-1.34-16.72-5.63-33.25-15.6-47.05-29.36-40.61-68.3-64.63-119.47-65.82C891,148,856.07,158.92,822.07,173.25c-27.16,11.45-55.12,18.56-84.82,16.16-16.87-1.36-33.66-3.7-50.52-5.07-37.35-3-72.64,2.93-103.84,25.23-25.86,18.48-31.83,42.77-17.69,71.11,8.18,16.4,20.76,29.18,34.33,41,26.36,23,56,41.6,84.29,62,42.89,30.94,90.62,42.22,142.8,35.73,31.3-3.9,59.71,2.63,85,22.08,16,12.34,32.15,24.56,47.39,37.89,14.6,12.78,16,20.7,5.27,36.59-17.19,25.44-36.49,49.06-60.22,68.87-22.14,18.48-43.72,37.61-62.2,59.92-21.37,25.81-38.61,53.82-45.83,87.05-2.93,13.5-3.86,27,.41,40.48,5.31,16.72,17.22,22.58,33.71,16.57a78.15,78.15,0,0,0,18.7-10q14.49-10.36,28.76-21c34.14-25.44,71.11-32.43,111.63-17.59,9.72,3.56,19.65,6.59,29.53,9.71,15.9,5,30.3,2.21,43.48-8.09,7.63-5.95,14.23-12.9,20.88-19.82,19.79-20.57,38.3-42.39,59.81-61.31,20.67-18.19,37.82-19.73,61.24-5.37,18.5,11.34,34.46,25.8,48.75,41.86,28.87,32.43,62,59.77,99.51,81.12,44,25,79.16,58.34,104.94,101.7C1467.56,897.26,1477.41,914.64,1487.42,931.92ZM295.87,265.78c15.53-.88,30.17-5.13,41.83-16.95,6.87-7,8.76-13.82,5.55-20.25-2.48-5-12.55-9.13-19.92-7.92-18.11,3-33.08,11.73-44.88,25.67-6.88,8.13-4,16.23,6.37,18.54C288.21,265.62,291.81,265.47,295.87,265.78Z" transform="translate(287.26 161.35)"/><path class="b" d="M1487.42,931.92c-10-17.28-19.86-34.66-30.06-51.82-25.78-43.36-61-76.69-104.94-101.7-37.54-21.35-70.64-48.69-99.51-81.12-14.29-16.06-30.25-30.52-48.75-41.86-23.42-14.36-40.57-12.82-61.24,5.37-21.51,18.92-40,40.74-59.81,61.31-6.65,6.92-13.25,13.87-20.88,19.82-13.18,10.3-27.58,13.11-43.48,8.09-9.88-3.12-19.81-6.15-29.53-9.71-40.52-14.84-77.49-7.85-111.63,17.59q-14.28,10.65-28.76,21a78.15,78.15,0,0,1-18.7,10c-16.49,6-28.4.15-33.71-16.57-4.27-13.43-3.34-27-.41-40.48,7.22-33.23,24.46-61.24,45.83-87.05,18.48-22.31,40.06-41.44,62.2-59.92,23.73-19.81,43-43.43,60.22-68.87,10.73-15.89,9.33-23.81-5.27-36.59-15.24-13.33-31.35-25.55-47.39-37.89-25.27-19.45-53.68-26-85-22.08-52.18,6.49-99.91-4.79-142.8-35.73-28.29-20.4-57.93-39-84.29-62-13.57-11.85-26.15-24.63-34.33-41-14.14-28.34-8.17-52.63,17.69-71.11,31.2-22.3,66.49-28.26,103.84-25.23,16.86,1.37,33.65,3.71,50.52,5.07,29.7,2.4,57.66-4.71,84.82-16.16,34-14.33,68.89-25.25,106.35-24.39,51.17,1.19,90.11,25.21,119.47,65.82,10,13.8,14.26,30.33,15.6,47.05,2.26,28.09,13.62,52.42,27.64,76.18,10.66,18,20.54,36.55,23.77,57.86,2.18,14.38-1,26.33-11.62,36.55-14,13.53-31.15,22.36-47.55,32.32-10.59,6.42-21.57,12.27-30.54,21-8.53,8.31-8.8,13.68-1.33,22.95,16.64,20.66,37.55,35.93,60.91,48,16.62,8.62,33.47,16.68,52,20.6,13.8,2.92,25.44-.55,35.41-10.35,19.54-19.22,32.92-42.79,46.67-66.09,15.73-26.64,27.2-55.36,39.76-83.49,24.93-55.83,62.47-102,107.43-142.5,49.28-44.38,101.93-84.63,155.24-124,21.83-16.13,45-30.12,72.09-36,8.74-1.89,17.61-2.26,26.33-.09,19.87,4.95,29.28,20.1,24.85,40.07-4.91,22.18-17,41-29,59.72-27.45,43.06-56.67,85-82.41,129.15-14.28,24.48-27.33,49.53-37.31,76.17-14.82,39.58-12.88,79.88-6.2,120.43,4.57,27.7,12.65,54.15,29.56,77.16,13.57,18.46,30.15,32.63,53.4,37.18,19.62,3.84,36.92-2.51,53.34-12.38a190.33,190.33,0,0,0,23.84-17.47c1.87-1.55,3.21-4,6.14-4q0,152.54.14,305.08c0,5.19-1,6.24-6.22,6.22C1595.69,931.82,1541.56,931.92,1487.42,931.92Z" transform="translate(287.26 161.35)"/><path class="b" d="M-286.86,207.94c39-5.72,73.28-21.92,104.3-45.78,11.2-8.62,22.33-17.41,35.3-23.44,17.59-8.19,30.68-4.3,40.6,12.32a103.11,103.11,0,0,1,10.13,24.47C-87.76,206-69,229.72-45.71,250.36c10.4,9.22,21.2,18,31.13,27.71C-.52,291.79.35,303.53-10.44,320c-13.32,20.37-32.9,33.19-53.81,44.38-35.91,19.21-74.48,29.57-114.65,34.95-20.51,2.74-41.17,5.16-60.56,13.15-8.07,3.32-16.75,7.14-17.7,16.9-.88,9.11,6.8,14.32,13.36,18.93,18.33,12.88,39,21.3,59.41,30.14,54.53,23.6,86.82,66,102.65,122,8.54,30.19,11.46,61.57,18.06,92.19,1.81,8.39,4,16.71,6.34,25,8.8,31,29.26,49.79,60.27,57.93,24,6.3,48.53,9.69,73,13.66C117.54,796,158.13,806,194.71,828.18c24.4,14.79,44.49,33.34,53.08,61.75,4.15,13.72,5.19,27.75,4.16,42q-266.2,0-532.42.16c-5.62,0-6.53-1.35-6.52-6.66Q-286.76,566.68-286.86,207.94Z" transform="translate(287.26 161.35)"/><path class="b" d="M1655.9,74.37a296.47,296.47,0,0,1-58.12-9.89,521.12,521.12,0,0,0-122.63-17.82c-48-1.21-95.29-6.49-140.05-25.42-28.44-12-56.56-24.73-79.93-45.61-11.34-10.14-20.4-21.77-21.4-37.84-1.25-20.13,9.56-34.07,24.36-45.34,20.58-15.67,44.6-19.09,69.67-17.65,27.7,1.59,54.94,8.24,82.93,7,29.2-1.3,51.81-13.56,67.24-38.59a34.94,34.94,0,0,0,1.86-4.08c56.92,0,113.84.06,170.75-.13,4.53,0,5.45.91,5.44,5.44Q1655.77-40.59,1655.9,74.37Z" transform="translate(287.26 161.35)"/><path class="b" d="M-277.75-160.88l-9.11,25.8c0-5.57.63-11.22-.15-16.67C-288.14-159.62-285.54-162.6-277.75-160.88Z" transform="translate(287.26 161.35)"/><path class="b" d="M295.87,265.78c-4.06-.31-7.66-.16-11.05-.91-10.4-2.31-13.25-10.41-6.37-18.54,11.8-13.94,26.77-22.67,44.88-25.67,7.37-1.21,17.44,3,19.92,7.92,3.21,6.43,1.32,13.29-5.55,20.25C326,260.65,311.4,264.9,295.87,265.78Z" transform="translate(287.26 161.35)"/></svg>