<svg xmlns="http://www.w3.org/2000/svg" viewBox="0 0 1943.04 1093.09"><defs><style>.a{opacity:0;fill:#ffffff;}.b{fill:#ffffff;}</style></defs><title>1800f_00159</title><path class="a" d="M-286.86,211V-97.14Q-277-129-267.13-160.88H1507.15a76.53,76.53,0,0,1-71.26,53.14c-30.25.73-59-7.41-88-14.52-17.69-4.34-35.41-8.68-53.79-8.08-16.36.53-31.83,4.48-43,17.45-16.94,19.75-16.57,45.07-.06,68.55,15.34,21.8,36.24,37.17,58.53,50.88,54.95,33.8,114.16,54.68,178.9,59.08,32.26,2.19,64.48,5,96.45,10.14A525.79,525.79,0,0,0,1655.9,82V631.4c-8.91,6.09-17.58,12.58-26.78,18.19-26.37,16-50.61,14.19-74.14-5.46-13.13-11-21.64-25.29-28.06-40.86-11.29-27.37-15.61-56.42-19.74-85.46-3-20.81-4.82-41.72-2.28-62.73,4.1-33.82,16.5-65,30.65-95.64,22.25-48.08,50.34-92.88,77.48-138.22,9.86-16.48,19.53-33.16,22.42-52.69,2.24-15.06-4.92-27.78-19.07-33.27a52.62,52.62,0,0,0-28.36-2.49c-23.66,4-43.3,16.53-62.39,29.93-40,28.09-77.17,59.78-114.59,91.1-44.94,37.62-83.69,80.79-112.51,132.17-17.31,30.87-33.47,62.38-50.87,93.2-15.71,27.83-34.29,53.65-56.92,76.45-18.07,18.2-39.12,24.23-63.79,17.09-7.28-2.11-14.65-4.09-21.66-6.9-19.75-7.9-39.49-16.06-55.26-30.93-13-12.21-12.22-21.66,1.67-32.48,8.6-6.69,17.82-12.44,27.09-18.13,14-8.6,28.3-16.83,40.67-27.77,18.48-16.35,20.71-28,10.45-50.28-8-17.35-18.84-32.93-30.38-48-23.06-30.05-43.82-61.17-54.63-98.12-4.28-14.61-12.4-27.6-22.9-38.93-24.29-26.21-54.74-38-90-38.9s-69.88,3.29-103.25,14c-34.28,11-68.56,16.3-104.5,11.93-21.53-2.61-43.29-3.93-65.07-1.84-26.45,2.53-51,10.38-72.44,26.39C563,250.5,556.92,277.89,571,304c5.43,10.1,12.65,18.91,20.62,27.07,22.06,22.56,48.11,40.09,73.59,58.37,35.23,25.29,74.3,40.66,117.08,47,23.41,3.46,47,1.41,70.45,1.8,17.15.28,33.75,3.25,49.3,10.58,26.52,12.49,50.16,29.42,71.84,49,14.73,13.29,15.28,21.93,3.79,38.17-20.67,29.22-44,56-71,79.67-25.71,22.48-50.81,45.65-72.7,72-13.5,16.25-25.4,33.46-30.3,54.52-4.52,19.4.84,37.57,13.76,45.59,12.41,7.72,25.29,5.15,38,.77,10.52-3.61,20.81-7.88,31.38-11.32,32.7-10.66,65-10.9,96.72,4.08,12.09,5.7,24,11.92,36.87,15.93,21.42,6.68,35.56,2.45,49.81-14.73,9.92-12,17-25.7,25-38.86,15.1-24.82,32.55-47.62,56.82-64.28,16-11,32.7-11.92,50.2-3.34,17,8.33,30.71,20.86,42.09,35.35,25.61,32.6,56.52,59,90.44,82.38,26.67,18.34,53.59,36.32,75,61.23,20.8,24.24,39.16,50.22,56.52,77h-1199c-1.27-29.38-7.8-56.63-31-77.22-14-12.39-29.91-21.54-46.94-28.94-34.9-15.16-72-21.68-109.22-27.57-25.95-4.1-52-7.6-77-16.37-22.4-7.85-38-22.4-46.12-44.91a246.52,246.52,0,0,1-8.31-28.35c-6-25.85-9.32-52.29-16.66-77.82C-90.26,553.94-131.19,493.79-212,469c-9.64-2.95-19.09-6.82-27.42-12.75-9.44-6.72-9.1-13.47,1-19,9-5,18.92-7.18,28.83-9.07,46-8.79,90.24-22.39,131.34-45.31,18.59-10.36,37-20.94,51.65-36.81,18.5-20,19.24-40.93,2.07-61.91-11.23-13.74-24.9-25.14-36.85-38.2-17.74-19.37-32.75-40.43-41.47-65.55-3.4-9.78-7.31-19.39-13.14-28.1-10.9-16.27-24.19-19-40.8-8.22-10,6.52-18.68,14.75-27.17,23C-212.69,195-247.28,208.69-286.86,211Z" transform="translate(287 161.01)"/><path class="b" d="M1466.17,931.92c-17.36-26.74-35.72-52.72-56.52-77-21.36-24.91-48.28-42.89-75-61.23-33.92-23.33-64.83-49.78-90.44-82.38-11.38-14.49-25.08-27-42.09-35.35-17.5-8.58-34.25-7.61-50.2,3.34-24.27,16.66-41.72,39.46-56.82,64.28-8,13.16-15.05,26.91-25,38.86-14.25,17.18-28.39,21.41-49.81,14.73-12.86-4-24.78-10.23-36.87-15.93-31.76-15-64-14.74-96.72-4.08-10.57,3.44-20.86,7.71-31.38,11.32-12.71,4.38-25.59,7-38-.77-12.92-8-18.28-26.19-13.76-45.59,4.9-21.06,16.8-38.27,30.3-54.52,21.89-26.36,47-49.53,72.7-72,27-23.62,50.35-50.45,71-79.67,11.49-16.24,10.94-24.88-3.79-38.17-21.68-19.54-45.32-36.47-71.84-49-15.55-7.33-32.15-10.3-49.3-10.58-23.49-.39-47,1.66-70.45-1.8-42.78-6.33-81.85-21.7-117.08-47-25.48-18.28-51.53-35.81-73.59-58.37-8-8.16-15.19-17-20.62-27.07-14.07-26.13-8-53.52,15.79-71.28,21.48-16,46-23.86,72.44-26.39,21.78-2.09,43.54-.77,65.07,1.84,35.94,4.37,70.22-1,104.5-11.93,33.37-10.67,68.08-14.85,103.25-14s65.67,12.69,90,38.9c10.5,11.33,18.62,24.32,22.9,38.93,10.81,36.95,31.57,68.07,54.63,98.12,11.54,15,22.39,30.62,30.38,48,10.26,22.28,8,33.93-10.45,50.28-12.37,10.94-26.66,19.17-40.67,27.77-9.27,5.69-18.49,11.44-27.09,18.13-13.89,10.82-14.63,20.27-1.67,32.48,15.77,14.87,35.51,23,55.26,30.93,7,2.81,14.38,4.79,21.66,6.9,24.67,7.14,45.72,1.11,63.79-17.09,22.63-22.8,41.21-48.62,56.92-76.45,17.4-30.82,33.56-62.33,50.87-93.2,28.82-51.38,67.57-94.55,112.51-132.17,37.42-31.32,74.6-63,114.59-91.1,19.09-13.4,38.73-25.92,62.39-29.93a52.62,52.62,0,0,1,28.36,2.49c14.15,5.49,21.31,18.21,19.07,33.27-2.89,19.53-12.56,36.21-22.42,52.69-27.14,45.34-55.23,90.14-77.48,138.22-14.15,30.61-26.55,61.82-30.65,95.64-2.54,21-.68,41.92,2.28,62.73,4.13,29,8.45,58.09,19.74,85.46,6.42,15.57,14.93,29.89,28.06,40.86,23.53,19.65,47.77,21.51,74.14,5.46,9.2-5.61,17.87-12.1,26.78-18.19q0,147.23.14,294.45c0,5.19-1,6.24-6.22,6.22C1588.61,931.83,1527.39,931.92,1466.17,931.92Z" transform="translate(287 161.01)"/><path class="b" d="M-286.86,211c39.58-2.28,74.17-16,102.92-43.92,8.49-8.25,17.14-16.48,27.17-23,16.61-10.79,29.9-8.05,40.8,8.22,5.83,8.71,9.74,18.32,13.14,28.1,8.72,25.12,23.73,46.18,41.47,65.55,12,13.06,25.62,24.46,36.85,38.2C-7.34,305.1-8.08,326-26.58,346c-14.65,15.87-33.06,26.45-51.65,36.81-41.1,22.92-85.36,36.52-131.34,45.31-9.91,1.89-19.86,4.12-28.83,9.07-10.1,5.58-10.44,12.33-1,19,8.33,5.93,17.78,9.8,27.42,12.75,80.79,24.77,121.72,84.92,143.83,161.72,7.34,25.53,10.7,52,16.66,77.82a246.52,246.52,0,0,0,8.31,28.35c8.12,22.51,23.72,37.06,46.12,44.91,25,8.77,51.06,12.27,77,16.37,37.25,5.89,74.32,12.41,109.22,27.57,17,7.4,33,16.55,46.94,28.94,23.22,20.59,29.75,47.84,31,77.22q-273.79,0-547.59.16c-5.61,0-6.54-1.32-6.54-6.66Q-286.76,568.19-286.86,211Z" transform="translate(287 161.01)"/><path class="b" d="M1655.9,82a525.79,525.79,0,0,1-70.89-6.2c-32-5.16-64.19-8-96.45-10.14-64.74-4.4-124-25.28-178.9-59.08-22.29-13.71-43.19-29.08-58.53-50.88-16.51-23.48-16.88-48.8.06-68.55,11.13-13,26.6-16.92,43-17.45,18.38-.6,36.1,3.74,53.79,8.08,28.94,7.11,57.7,15.25,88,14.52a76.53,76.53,0,0,0,71.26-53.14c47.81,0,95.62.08,143.43-.13,4.53,0,5.45.91,5.44,5.44Q1655.77-36.8,1655.9,82Z" transform="translate(287 161.01)"/><path class="b" d="M-267.13-160.88Q-277-129-286.86-97.14v-63.74Z" transform="translate(287 161.01)"/></svg>