<svg xmlns="http://www.w3.org/2000/svg" viewBox="0 0 1943.19 1093.24"><defs><style>.a{opacity:0;fill:#ffffff;}.b{fill:#ffffff;}</style></defs><title>1800f_00364</title><path class="a" d="M364.27,931.92H-203.38c-.22-2.87,2-4.59,3.36-6.58,18.75-27,37.58-53.92,57.39-80.17C-124,820.41-99.92,805-69.2,799.54c22.23-4,44.55-5.59,67.08-6.07C13,793.15,28.2,793,43,789.11c27.33-7.2,47.26-31.77,46.44-57.45-.32-9.89-4.88-18.52-9-27.11C56.7,655.6,34.57,606,14.7,555.35c-19-48.46-50.14-86.93-95.68-112.9-18-10.27-36.39-19.82-53.14-32.21-29.88-22.11-57.8-46.73-88-68.44-19.4-13.95-39.44-25.84-64.75-23.06v-472c4.77-1.38,8.59-4.27,12.14-7.59H308.11c24.39,24.15,33.66,54.94,38.74,87.67a185.3,185.3,0,0,0,8.42,34.53C364.83-12.11,383.58-.27,409.42-5,420.85-7,432-10.55,442.94-14.35c26.25-9.06,52.24-18.84,78.86-26.93C560.37-53,597.64-53.64,634.18-34c13.08,7,27,12.72,41.74,15.67C697.63-14,706-21.71,701.44-43.49s.63-39.61,15.5-55.74c14.5-15.72,31.31-28.54,48.28-41.29,9-6.78,19.16-12.09,27.06-20.36h611.66c.42,23,.1,46-2.29,68.93-4.3,41.3-13,81.82-20.63,122.55-15.71,83.72-32.5,167.2-56.29,249.08-6.48,22.34-13.4,44.65-27.65,63.65-12.62,16.83-27.25,21.4-47.4,15.09a139.89,139.89,0,0,1-30.22-14,835.35,835.35,0,0,0-99.15-50.84c-32.29-13.93-60.78-32.78-83.49-60.14q-24.45-29.46-50.56-57.52c-17.17-18.52-36.3-34.34-62-40.17-35.22-8-62.14,6.58-73.82,40.81a170,170,0,0,0-9.48,54.31c-.24,52.93,8.88,104.18,29.59,153C889.24,428,915.36,467,952.49,498c20,16.73,42.34,23.34,68.45,17.26a379.92,379.92,0,0,1,108.4-9.75c20.27,1.18,40.17,4.55,59.24,11.87,13.11,5,25.33,11.55,34.82,22.24,12.32,13.9,11.44,28.21-2.39,40.45-5.75,5.09-12.49,8.56-19.42,11.7-23.75,10.73-49.09,15.45-74.56,19.62-32.16,5.27-64.75,7.89-96.63,14.87-54.24,11.89-106.23,30.94-158,50.69a245.92,245.92,0,0,0-76.28,45.94c-30.68,27.26-52.65,59.37-55.32,101.81-1.87,29.66-14.08,54.37-34.65,75.43-13.63,14-29.87,23.84-47.48,31.76H578.27c-1.65-.55-3.28-1.2-5-1.62-37.86-9.35-71.53-25.74-97.08-56.43a142,142,0,0,0-27.36-24.94c-16.93-11.94-35.39-19.52-56.48-18.46-20.87,1-37.37,11-36,37.11a211.77,211.77,0,0,0,2.85,24C361.48,905,366.23,918,364.27,931.92ZM762,487.82a132.11,132.11,0,0,0-1.88-25.7c-2.54-16.37-6.94-32.11-17.47-45.45-9.84-12.46-20.88-13.15-31.92-1.59a67.68,67.68,0,0,0-9.64,12.6c-18.94,32.68-42.93,61.78-65,92.27-13.16,18.23-26.47,36.43-33.62,58.14-4.45,13.55-3.88,26.75,5.55,37.95,14.8,17.61,34.56,23.89,57,22,26.09-2.23,45-17.08,60.22-36.89C750.83,567.8,761,529.22,762,487.82ZM335.71,41.69c-7.73-.78-15.71,1.47-23.45,4.75-9.29,3.93-18.65,7.74-27.76,12.07-21.13,10-43.88,14.8-66.17,21.21-16.76,4.81-23.65,17.91-19.19,34.8,8.23,31.22,35.72,43.61,65.39,41.87,11.29-.66,22.49-2.83,33.76-4,26-2.67,44.67-15.29,56-39.22a103.6,103.6,0,0,0,10.19-41.58C365,53.46,356.91,40.08,335.71,41.69Z" transform="translate(287.14 161.18)"/><path class="b" d="M658.72,931.92c17.61-7.92,33.85-17.81,47.48-31.76,20.57-21.06,32.78-45.77,34.65-75.43,2.67-42.44,24.64-74.55,55.32-101.81A245.92,245.92,0,0,1,872.45,677c51.72-19.75,103.71-38.8,158-50.69,31.88-7,64.47-9.6,96.63-14.87,25.47-4.17,50.81-8.89,74.56-19.62,6.93-3.14,13.67-6.61,19.42-11.7,13.83-12.24,14.71-26.55,2.39-40.45-9.49-10.69-21.71-17.2-34.82-22.24-19.07-7.32-39-10.69-59.24-11.87a379.92,379.92,0,0,0-108.4,9.75c-26.11,6.08-48.42-.53-68.45-17.26-37.13-31-63.25-70-82-114.13-20.71-48.85-29.83-100.1-29.59-153a170,170,0,0,1,9.48-54.31c11.68-34.23,38.6-48.79,73.82-40.81,25.72,5.83,44.85,21.65,62,40.17q26,28.07,50.56,57.52c22.71,27.36,51.2,46.21,83.49,60.14a835.35,835.35,0,0,1,99.15,50.84,139.89,139.89,0,0,0,30.22,14c20.15,6.31,34.78,1.74,47.4-15.09,14.25-19,21.17-41.31,27.65-63.65,23.79-81.88,40.58-165.36,56.29-249.08,7.64-40.73,16.33-81.25,20.63-122.55,2.39-22.94,2.71-45.92,2.29-68.93q122.94,0,245.88-.15c5.2,0,6.27,1,6.23,6.22-.28,39.46-.15,78.92-.15,118.39-24.62-3.27-36.64,3.43-48,26.82a120.37,120.37,0,0,0-10.88,39.21c-7.8,68.36-8,137-7.48,205.69.15,17.89,2.5,35.86,11.69,51.91,12.27,21.42,32.28,32.66,54.64,40.63V689.07a4.8,4.8,0,0,1-1.23-.85c-30.7-39.09-70.27-65.84-116.55-82.9-53.31-19.64-107.46-25.49-162.85-8.88-23.54,7.06-40,21.19-46.74,45.3-8.87,32-22.27,62.34-33.67,93.41-9.11,24.81-14.28,50.15-9.37,76.57,2.8,15.12,7,30,9.77,45.1,2.88,15.71-.86,29.15-14.24,39.68-8.86,7-19,11.45-28.27,17.49-8.57,5.58-18.46,9.35-24.87,17.93Z" transform="translate(287.14 161.18)"/><path class="b" d="M-286.86,318.74c25.31-2.78,45.35,9.11,64.75,23.06,30.19,21.71,58.11,46.33,88,68.44C-117.37,422.63-99,432.18-81,442.45c45.54,26,76.68,64.44,95.68,112.9C34.57,606,56.7,655.6,80.4,704.55c4.16,8.59,8.72,17.22,9,27.11.82,25.68-19.11,50.25-46.44,57.45-14.8,3.91-30,4-45.12,4.36-22.53.48-44.85,2.09-67.08,6.07C-99.92,805-124,820.41-142.63,845.17c-19.81,26.25-38.64,53.18-57.39,80.17-1.38,2-3.58,3.71-3.36,6.58-26.06,0-52.11-.14-78.17.13-4.53.05-5.45-.92-5.44-5.44q.27-113.46.13-226.91c7.89-10.53,12-22.81,14.75-35.31,12.05-55.51,14.23-111.51,5.69-167.7A255.52,255.52,0,0,0-286.86,428Z" transform="translate(287.14 161.18)"/><path class="a" d="M1227.88,931.92c6.41-8.58,16.3-12.35,24.87-17.93,9.27-6,19.41-10.52,28.27-17.49,13.38-10.53,17.12-24,14.24-39.68-2.78-15.12-7-30-9.77-45.1-4.91-26.42.26-51.76,9.37-76.57,11.4-31.07,24.8-61.41,33.67-93.41,6.69-24.11,23.2-38.24,46.74-45.3,55.39-16.61,109.54-10.76,162.85,8.88,46.28,17.06,85.85,43.81,116.55,82.9a4.8,4.8,0,0,0,1.23.85V807.46c-3.26,1.93-6.41,4.06-9.77,5.76-40.08,20.24-80,40.74-120.34,60.53-32.42,15.92-65.71,29.72-101.2,37.59a93.2,93.2,0,0,0-28.8,11.21c-3.89,2.39-9.06,3.74-10.06,9.37Z" transform="translate(287.14 161.18)"/><path class="b" d="M792.28-160.88c-7.9,8.27-18,13.58-27.06,20.36-17,12.75-33.78,25.57-48.28,41.29-14.87,16.13-20,34.05-15.5,55.74S697.63-14,675.92-18.37C661.2-21.32,647.26-27,634.18-34c-36.54-19.6-73.81-19-112.38-7.24-26.62,8.09-52.61,17.87-78.86,26.93C432-10.55,420.85-7,409.42-5c-25.84,4.69-44.59-7.15-54.15-33.72a185.3,185.3,0,0,1-8.42-34.53c-5.08-32.73-14.35-63.52-38.74-87.67Z" transform="translate(287.14 161.18)"/><path class="a" d="M1655.9,327.84c-22.36-8-42.37-19.21-54.64-40.63-9.19-16-11.54-34-11.69-51.91-.55-68.66-.32-137.33,7.48-205.69A120.37,120.37,0,0,1,1607.93-9.6c11.33-23.39,23.35-30.09,48-26.82Z" transform="translate(287.14 161.18)"/><path class="b" d="M1385.73,931.92c1-5.63,6.17-7,10.06-9.37a93.2,93.2,0,0,1,28.8-11.21c35.49-7.87,68.78-21.67,101.2-37.59,40.3-19.79,80.26-40.29,120.34-60.53,3.36-1.7,6.51-3.83,9.77-5.76,0,39.72-.1,79.43.13,119.14,0,4.54-.92,5.45-5.45,5.44Q1518.16,931.79,1385.73,931.92Z" transform="translate(287.14 161.18)"/><path class="b" d="M364.27,931.92c2-13.9-2.79-27-5-40.34a211.77,211.77,0,0,1-2.85-24c-1.36-26.1,15.14-36.06,36-37.11,21.09-1.06,39.55,6.52,56.48,18.46a142,142,0,0,1,27.36,24.94c25.55,30.69,59.22,47.08,97.08,56.43,1.68.42,3.31,1.07,5,1.62Z" transform="translate(287.14 161.18)"/><path class="a" d="M-286.86,428a255.52,255.52,0,0,1,20.44,68.67c8.54,56.19,6.36,112.19-5.69,167.7-2.71,12.5-6.86,24.78-14.75,35.31Z" transform="translate(287.14 161.18)"/><path class="b" d="M-274.72-160.88c-3.55,3.32-7.37,6.21-12.14,7.59C-288.89-165.54-279.48-159.5-274.72-160.88Z" transform="translate(287.14 161.18)"/><path class="b" d="M762,487.82c-1,41.4-11.15,80-36.74,113.3C710,620.93,691.11,635.78,665,638c-22.41,1.92-42.17-4.36-57-22-9.43-11.2-10-24.4-5.55-37.95,7.15-21.71,20.46-39.91,33.62-58.14,22-30.49,46-59.59,65-92.27a67.68,67.68,0,0,1,9.64-12.6c11-11.56,22.08-10.87,31.92,1.59,10.53,13.34,14.93,29.08,17.47,45.45A132.11,132.11,0,0,1,762,487.82Z" transform="translate(287.14 161.18)"/><path class="b" d="M335.71,41.69c21.2-1.61,29.29,11.77,28.75,29.9a103.6,103.6,0,0,1-10.19,41.58c-11.31,23.93-30,36.55-56,39.22-11.27,1.17-22.47,3.34-33.76,4-29.67,1.74-57.16-10.65-65.39-41.87-4.46-16.89,2.43-30,19.19-34.8,22.29-6.41,45-11.18,66.17-21.21,9.11-4.33,18.47-8.14,27.76-12.07C320,43.16,328,40.91,335.71,41.69Z" transform="translate(287.14 161.18)"/></svg>