<svg xmlns="http://www.w3.org/2000/svg" viewBox="0 0 1943.17 1093.11"><defs><style>.a{opacity:0;fill:#ffffff;}.b{fill:#ffffff;}</style></defs><title>1800f_00113</title><path class="a" d="M256.5,931.92q-268.48,0-537,.16c-5.67,0-6.5-1.42-6.5-6.68q.23-401.23.13-802.46c12.17.43,24.21-1.28,36.26-2.36a662.37,662.37,0,0,1,126.41.38c25.14,2.54,50.06,6.93,75.33,8.34,27.84,1.56,55.58-.86,83.32-2.26a491.69,491.69,0,0,0,58.78-6.15c29.77-5.12,57-16.84,83.65-30.63,34.78-18,69.29-36.68,106.13-50.39C324.58,24.42,367.81,14.81,410.5,3.34c22.6-6.08,45.1-4,67.26,2.93a456.49,456.49,0,0,1,63.33,25.28c12.87,6.27,26.18,10.7,40.45,12.14,17.9,1.82,35.84,1.62,53.81,1.11,55.31-1.55,110.57-5.26,165.94-4.18,19,.37,37.9,1.73,56.44,5.74,48.58,10.51,93.62,30.45,137.46,53.21,18.42,9.57,30.5,25.23,38.58,44.29,10.86,25.63,8.91,52,4.93,78.39-4.34,28.84-8.42,57.6-2.06,86.64,4.62,21.07,12.17,40.76,28.39,55.9,12.43,11.6,25.52,12,38.9,1.8a118.43,118.43,0,0,0,17.78-17.54c20.72-24.24,38.9-50.45,58.81-75.31,36.68-45.78,59.68-96.86,63-156.25,1-17.8,4.53-35.56,12.14-52.15,4.1-8.93,11-13.42,20.25-15.24,20.25-4,40.75-2.81,61.2-3.31s37.41,7,52.55,19.95c28.06,24,50.43,53,72.38,82.46,29.64,39.74,42,84,37.33,133.31-1.8,18.92-6.45,37.35-9,56.1-10.37,75.56-8.3,150.81,7.75,225.41,15.63,72.65,53.46,129.8,119.6,166.27,12.31,6.79,24.35,14.28,38.15,18V927.36c-7.33,0-14.67.32-22,0-22.57-1.05-42.65-8.52-58.28-25.22-12.87-13.75-28.9-21-46.73-24.78-40.87-8.74-80.37-2.48-118.86,12.12-26.6,10.09-50.78,24.55-72.89,42.46H418.91c3.06-5.76,6.6-11.32,9.1-17.31,21.26-51,22.22-102.62.05-153.23-15.81-36.08-34.45-70.92-52.18-106.13-5.56-11-12.11-21.64-21.12-30.36-8.77-8.49-18.65-8.81-27.66-.68-4.87,4.39-9.87,8.9-13.62,14.2-14.66,20.73-31.78,39.21-49.89,56.87-7.69,7.5-12.86,16.75-17.12,26.56-6,13.8-8.43,28.5-11.23,43.12-6.67,34.79-11.67,69.72-8.2,105.29C229.39,894.35,236.35,916.3,256.5,931.92ZM77.2,401.11a187.63,187.63,0,0,0-3.89-33.94c-7-32.91-23.46-61.8-39.06-90.94C23.6,256.36,10.4,238-7.81,224.11c-13-9.9-26.95-17.42-44-13.45-19.94,4.63-28.45,19.84-32.71,37.9-7.44,31.5.91,60.54,15.48,88.24,17.54,33.33,42.41,60.85,69.91,86.07,11.51,10.56,23.54,21,38.71,26,16.18,5.34,24.92,1,30.76-11.71C75.58,425.64,76.67,413.38,77.2,401.11Z" transform="translate(287.01 161.03)"/><path class="b" d="M1655.9,748.27c-13.8-3.7-25.84-11.19-38.15-18-66.14-36.47-104-93.62-119.6-166.27-16.05-74.6-18.12-149.85-7.75-225.41,2.57-18.75,7.22-37.18,9-56.1,4.7-49.29-7.69-93.57-37.33-133.31-21.95-29.44-44.32-58.42-72.38-82.46-15.14-13-32.12-20.44-52.55-19.95s-41-.69-61.2,3.31c-9.2,1.82-16.15,6.31-20.25,15.24-7.61,16.59-11.13,34.35-12.14,52.15-3.37,59.39-26.37,110.47-63,156.25-19.91,24.86-38.09,51.07-58.81,75.31a118.43,118.43,0,0,1-17.78,17.54c-13.38,10.23-26.47,9.8-38.9-1.8-16.22-15.14-23.77-34.83-28.39-55.9-6.36-29-2.28-57.8,2.06-86.64,4-26.4,5.93-52.76-4.93-78.39-8.08-19.06-20.16-34.72-38.58-44.29-43.84-22.76-88.88-42.7-137.46-53.21-18.54-4-37.47-5.37-56.44-5.74-55.37-1.08-110.63,2.63-165.94,4.18-18,.51-35.91.71-53.81-1.11-14.27-1.44-27.58-5.87-40.45-12.14A456.49,456.49,0,0,0,477.76,6.27c-22.16-6.94-44.66-9-67.26-2.93C367.81,14.81,324.58,24.42,283,39.87c-36.84,13.71-71.35,32.36-106.13,50.39-26.62,13.79-53.88,25.51-83.65,30.63A491.69,491.69,0,0,1,34.46,127c-27.74,1.4-55.48,3.82-83.32,2.26-25.27-1.41-50.19-5.8-75.33-8.34a662.37,662.37,0,0,0-126.41-.38c-12,1.08-24.09,2.79-36.26,2.36q0-138.49-.15-277c0-5.69,1.29-7,7-7q726.63.22,1453.27.14c-1.16,3.26-4,5.11-6.29,7.43-17.28,17.84-31.14,37.63-37.9,62-3,10.67-7.5,20.9-11.18,31.38-6.19,17.59-14.56,34.43-17.92,53-3.79,21,4,36.11,23.51,44.74a111.06,111.06,0,0,0,42.6,9.46c16.22.42,32.19-2.86,48.31-3.24,24.8-.59,39.91-11.61,47.38-36.06,10.1-33.1,18.84-66.53,27.91-99.89a121.85,121.85,0,0,0,3.19-45.12c-.86-8-2.8-15.81-4.26-23.71q180.62,0,361.23-.15c5.2,0,6.31,1,6.23,6.22-.35,24.79-.15,49.58-.15,74.37-3.94.76-7.89,1.43-11.8,2.29-18.65,4.11-32.34,14.59-38.59,32.79-8.16,23.79,11,49.23,38.62,52.2,4,.43,8,.63,11.77,2.27Z" transform="translate(287.01 161.03)"/><path class="b" d="M256.5,931.92c-20.15-15.62-27.11-37.57-29.46-61.67-3.47-35.57,1.53-70.5,8.2-105.29,2.8-14.62,5.24-29.32,11.23-43.12,4.26-9.81,9.43-19.06,17.12-26.56,18.11-17.66,35.23-36.14,49.89-56.87,3.75-5.3,8.75-9.81,13.62-14.2,9-8.13,18.89-7.81,27.66.68,9,8.72,15.56,19.32,21.12,30.36,17.73,35.21,36.37,70,52.18,106.13C450.23,812,449.27,863.57,428,914.61c-2.5,6-6,11.55-9.1,17.31Z" transform="translate(287.01 161.03)"/><path class="a" d="M1288.59-160.88c1.46,7.9,3.4,15.74,4.26,23.71A121.85,121.85,0,0,1,1289.66-92c-9.07,33.36-17.81,66.79-27.91,99.89-7.47,24.45-22.58,35.47-47.38,36.06-16.12.38-32.09,3.66-48.31,3.24a111.06,111.06,0,0,1-42.6-9.46C1104,29.05,1096.16,13.91,1100-7.06c3.36-18.57,11.73-35.41,17.92-53,3.68-10.48,8.22-20.71,11.18-31.38,6.76-24.38,20.62-44.17,37.9-62,2.25-2.32,5.13-4.17,6.29-7.43Z" transform="translate(287.01 161.03)"/><path class="b" d="M1337.16,931.92c22.11-17.91,46.29-32.37,72.89-42.46,38.49-14.6,78-20.86,118.86-12.12,17.83,3.81,33.86,11,46.73,24.78,15.63,16.7,35.71,24.17,58.28,25.22,7.31.34,14.65,0,22,0,1.41,6.1-3,4.54-6.08,4.54Q1493.49,931.93,1337.16,931.92Z" transform="translate(287.01 161.03)"/><path class="a" d="M1655.9,9.11c-3.76-1.64-7.77-1.84-11.77-2.27-27.63-3-46.78-28.41-38.62-52.2,6.25-18.2,19.94-28.68,38.59-32.79,3.91-.86,7.86-1.53,11.8-2.29Z" transform="translate(287.01 161.03)"/><path class="b" d="M77.2,401.11c-.53,12.27-1.62,24.53-6.91,36.06-5.84,12.72-14.58,17.05-30.76,11.71-15.17-5-27.2-15.45-38.71-26-27.5-25.22-52.37-52.74-69.91-86.07C-83.66,309.1-92,280.06-84.57,248.56c4.26-18.06,12.77-33.27,32.71-37.9,17.1-4,31.1,3.55,44.05,13.45C10.4,238,23.6,256.36,34.25,276.23c15.6,29.14,32.08,58,39.06,90.94A187.63,187.63,0,0,1,77.2,401.11Z" transform="translate(287.01 161.03)"/></svg>