<svg xmlns="http://www.w3.org/2000/svg" viewBox="0 0 1943.06 1093.09"><defs><style>.a{opacity:0;fill:#ffffff;}.b{fill:#ffffff;}</style></defs><title>1800f_00383</title><path class="a" d="M1253.68,931.92H74.37c-5.64-13.53-10.9-27.21-17.73-40.22C34.94,850.4,8.77,812-18.31,774.08-64.14,710-118.82,656-191.18,621.88a342.29,342.29,0,0,1-53-31c-18.55-13.26-31.51-31.13-42.7-50.55V364.27c1.3-1.53,2.68-3,3.88-4.61,45.11-60.4,101.35-106.07,172.89-132,23.29-8.44,46-18.32,66.47-32.79C-21.2,179-4.49,157.73,12.27,136.47c18.65-23.68,38.83-46.24,68.4-55.75,62-19.93,124.85-22.53,188.19-6,22.77,6,37.45,20.41,44,42.58,12.86,43.31,33.64,82.68,58,120.42a99.16,99.16,0,0,0,31.55,31.17c28.35,17.54,59.86,24,92.52,25.63A331.67,331.67,0,0,0,626,274.67c25.93-9.4,51.82-18.91,73.76-36.44,17-13.57,25.2-30.5,20.86-52.58a166.42,166.42,0,0,0-7.08-26.34,202.86,202.86,0,0,1-13-78.78,138,138,0,0,0-4.37-41.24C687.68,8,665.21-5.62,633.83,1.84c-17.44,4.14-33,12.47-48.26,21.48-30.23,17.86-59.25,37.88-91.48,52.17-36.13,16-73.12,24.1-112.43,12C357.36,80,340.49,65.9,335.87,39.89c-5-28-9.25-56.17-15.52-83.95-8.72-38.66-8.67-77.66-4.65-116.82h733.08c8.09,7.65,17.92,12.93,26.65,19.74,33.7,26.26,66.13,54.09,99.93,80.25,41.67,32.23,87.4,53.5,140.28,60.12,43.55,5.44,87.08,7.12,130.83,7.11,40.69,0,81.38-1.69,122.06,1.2,36.86,2.62,63.79,17.49,74.09,55.46,3.82,14.07,8.81,27.83,13.28,41.73V212.49c-1.58.75-1.77,2.38-2.28,3.76-10.23,27.56-23.51,53.64-38.29,79-12.33,21.16-26.9,41-37.13,63.39-17.51,38.36-16.84,74.92,11,108.56q23.17,28,47.11,55.29c5.59,6.41,11.7,12.48,19.55,16.33v91.07c-21.41-21.65-48.59-25.91-77.27-25.71-30,.21-59.31,5.31-88.15,13-33.32,8.9-66.33,9.56-99.37-1.08-31.78-10.23-63.61-20.07-91.1-40.29-30-22-49.45-50.13-54.17-87.61-3.61-28.67-1.71-57.19,4.41-85.18a692.12,692.12,0,0,0,15.89-152c-.11-20.2,1.77-40.38,3.71-60.52,1.76-18.35.91-36.48-8.22-53.17-15.71-28.75-47.1-33.33-70.27-10.29-10.55,10.5-17.93,23.23-24.15,36.54A857.92,857.92,0,0,1,1112,263c-20.29,31.7-33.25,65.75-30.25,104.46,1.76,22.78,6.7,45,10.93,67.3,10.09,53.22,22.59,105.76,42.48,156.34,10.94,27.83,25.73,53.82,38,81,19.79,44,36,89.6,58.84,132.3a139.69,139.69,0,0,1,13.91,40.78C1251.14,873.85,1252.33,902.89,1253.68,931.92Z" transform="translate(287.01 161.03)"/><path class="b" d="M315.7-160.88c-4,39.16-4.07,78.16,4.65,116.82,6.27,27.78,10.53,55.93,15.52,84,4.62,26,21.49,40.1,45.79,47.59,39.31,12.11,76.3,4,112.43-12,32.23-14.29,61.25-34.31,91.48-52.17,15.25-9,30.82-17.34,48.26-21.48C665.21-5.62,687.68,8,696.21,39.29a138,138,0,0,1,4.37,41.24,202.86,202.86,0,0,0,13,78.78,166.42,166.42,0,0,1,7.08,26.34c4.34,22.08-3.88,39-20.86,52.58-21.94,17.53-47.83,27-73.76,36.44a331.67,331.67,0,0,1-131.08,19.9c-32.66-1.66-64.17-8.09-92.52-25.63a99.16,99.16,0,0,1-31.55-31.17c-24.32-37.74-45.1-77.11-58-120.42-6.58-22.17-21.26-36.62-44-42.58-63.34-16.58-126.22-14-188.19,6-29.57,9.51-49.75,32.07-68.4,55.75C-4.49,157.73-21.2,179-43.62,194.9-64,209.37-86.8,219.25-110.09,227.69c-71.54,25.9-127.78,71.57-172.89,132-1.2,1.6-2.58,3.08-3.88,4.61q0-259.36-.15-518.73c0-5.54,1.22-6.57,6.62-6.56Q17.66-160.78,315.7-160.88Z" transform="translate(287.01 161.03)"/><path class="b" d="M1253.68,931.92c-1.35-29-2.54-58.07-7.81-86.75A139.69,139.69,0,0,0,1232,804.39c-22.83-42.7-39-88.29-58.84-132.3-12.23-27.18-27-53.17-38-81-19.89-50.58-32.39-103.12-42.48-156.34-4.23-22.34-9.17-44.52-10.93-67.3-3-38.71,10-72.76,30.25-104.46a857.92,857.92,0,0,0,55.21-99.37c6.22-13.31,13.6-26,24.15-36.54,23.17-23,54.56-18.46,70.27,10.29,9.13,16.69,10,34.82,8.22,53.17-1.94,20.14-3.82,40.32-3.71,60.52a692.12,692.12,0,0,1-15.89,152c-6.12,28-8,56.51-4.41,85.18,4.72,37.48,24.18,65.57,54.17,87.61,27.49,20.22,59.32,30.06,91.1,40.29,33,10.64,66.05,10,99.37,1.08,28.84-7.71,58.16-12.81,88.15-13,28.68-.2,55.86,4.06,77.27,25.71q0,148,.14,296c0,5.19-1,6.22-6.22,6.21Q1451.76,931.79,1253.68,931.92Z" transform="translate(287.01 161.03)"/><path class="b" d="M1655.9,104.73c-4.47-13.9-9.46-27.66-13.28-41.73-10.3-38-37.23-52.84-74.09-55.46-40.68-2.89-81.37-1.22-122.06-1.2-43.75,0-87.28-1.67-130.83-7.11-52.88-6.62-98.61-27.89-140.28-60.12-33.8-26.16-66.23-54-99.93-80.25-8.73-6.81-18.56-12.09-26.65-19.74q300.15,0,600.29-.15c5.69,0,7,1.29,7,7Q1655.73-24.66,1655.9,104.73Z" transform="translate(287.01 161.03)"/><path class="b" d="M-286.86,540.33c11.19,19.42,24.15,37.29,42.7,50.55a342.29,342.29,0,0,0,53,31c72.36,34.13,127,88.1,172.87,152.2C8.77,812,34.94,850.4,56.64,891.7c6.83,13,12.09,26.69,17.73,40.22q-177.59,0-355.16.14c-5.2,0-6.22-1-6.22-6.21Q-286.73,733.09-286.86,540.33Z" transform="translate(287.01 161.03)"/><path class="b" d="M1655.9,538.81c-7.85-3.85-14-9.92-19.55-16.33q-23.85-27.39-47.11-55.29c-27.88-33.64-28.55-70.2-11-108.56,10.23-22.39,24.8-42.23,37.13-63.39,14.78-25.35,28.06-51.43,38.29-79,.51-1.38.7-3,2.28-3.76Z" transform="translate(287.01 161.03)"/></svg>