<svg xmlns="http://www.w3.org/2000/svg" viewBox="0 0 1943.12 1093.15"><defs><style>.a{opacity:0;fill:#ffffff;}.b{fill:#ffffff;}</style></defs><title>1800f_00247</title><path class="a" d="M1655.9,311.15V367.3c-12.83,16.88-26.2,33.32-40.5,49-42.3,46.32-77,97.5-100.72,155.89-10.17,25.05-20,50.28-32.42,74.36-7.68,14.9-16.57,29-30.27,39.33s-28.91,10.71-43.1,1.35c-13.35-8.81-22.17-21.27-27.9-36-10.47-26.89-11.6-54.91-7.82-83,3.91-28.92-.34-55.33-17.94-79.08-3-4.06-5.56-8.45-8.47-12.59a111.38,111.38,0,0,1-20.55-60.12c-.93-20-4.19-39.76-12-58.39-14.08-33.6-41.66-51.63-74.36-63.47-26-9.44-51.25-8.58-76,5.15-20.79,11.52-41.35,23.4-61.36,36.18-38.4,24.52-79.6,44.06-118.82,67.08-15.94,9.35-32.47,18.61-42.51,34.6C926,461.79,921.66,488.8,925,517c2.73,23.22,16.16,38,37.5,46.25,15.78,6.12,32.31,8.08,49,8.84,30.65,1.41,61.09-2.63,91.65-3.74,10.66-.39,21.28-.6,31.63,2.13,11.34,3,16,11.14,13.44,22.53-1.53,6.76-4.83,12.75-8.93,18.28-9.09,12.28-20.25,22.56-31.71,32.53-25.76,22.4-52.39,43.9-73.31,71.24-13,17.07-25.53,34.58-38.79,51.48-10.69,13.63-23.51,16-39.07,8.37-2.71-1.34-5.32-2.91-7.93-4.44-16.38-9.57-32.59-19.42-51.33-24A364.89,364.89,0,0,0,776,738c-13.08,1.23-26.11,3.46-37.85,10-14.65,8.22-16.16,18.51-4.3,30.28,8,7.93,17.55,13.63,27.41,18.82A424.2,424.2,0,0,0,932,845.55c20.26,1.38,30.69,9.5,37.12,28.94,6.16,18.63,7,38.21,9.83,57.43H399.18c-1.74-2.84-4.95-3.33-7.6-4.56-28.51-13.23-57.89-24.41-88.37-31.71-46.07-11-81.66-36.23-108.92-74.35-11.32-15.83-23-31.38-34.8-46.89-32.68-43.16-73.79-73.94-127.68-85.17s-107.94-10.44-162.12-2.45c-29.64,4.37-58,13.53-86.41,22.65-8.16,2.63-16.34,5.46-25.06,5.59-9.37.14-11.87-3.48-8.48-12.32,2.48-6.48,6.58-11.92,11.38-16.86,13.59-14,30.23-23.55,47-32.92,22.48-12.54,46.16-23.06,65.94-40.09,21.34-18.36,23.88-35.59,8.25-59.16-9.67-14.58-21.34-27.57-33-40.49C-162.81,499.8-173.28,485.37-181,469-199.26,430-205.71,388.46-207.48,346c-1.56-37.3,7.59-72.77,21.23-107.06,21.85-54.9,41.32-110.18,42.92-170.27C-142.2,26.43-146-14.68-165.44-53c-6.57-12.89-5.46-24.3,4-34.93,4.37-4.9,8.93-9.66,13.74-14.12A656.9,656.9,0,0,1-81-155.86c1.93-1.38,4.8-2,5.16-5q862.13,0,1724.26-.18c6.59,0,7.73,1.57,7.69,7.83-.3,49.56-.16,99.12-.16,148.68-14.86,15.2-32.78,25.81-51.59,35.32-10.53,5.31-17.45,14.33-21.35,25.56-6.83,19.65-6.25,39.75-3.69,59.94,4.55,35.92,15.43,69.94,30.36,102.85C1623.83,250.43,1638.76,281.33,1655.9,311.15ZM829,61.53c.08-19.79-9.55-32-28.31-35.34a102.84,102.84,0,0,0-26.42-1.11c-25.18,2.08-50.36,4-75.5-.95-17.84-3.48-35.74-6.7-53.69-9.55-13.22-2.09-26.61-3.39-39.78.61s-19.4,12.7-19.57,26.33a53.41,53.41,0,0,0,3.82,20c15.29,39.84,38.3,74.52,70.54,102.59,16,14,35.26,20.92,56.7,18.94a98.32,98.32,0,0,0,53.86-22.2C791.37,143.93,807,123,818.85,99.22,824.72,87.43,829.32,75.09,829,61.53Z" transform="translate(287.06 161.06)"/><path class="b" d="M979,931.92c-2.83-19.22-3.67-38.8-9.83-57.43-6.43-19.44-16.86-27.56-37.12-28.94a424.2,424.2,0,0,1-170.81-48.41c-9.86-5.19-19.44-10.89-27.41-18.82-11.86-11.77-10.35-22.06,4.3-30.28,11.74-6.59,24.77-8.82,37.85-10a364.89,364.89,0,0,1,121.2,8.49c18.74,4.56,35,14.41,51.33,24,2.61,1.53,5.22,3.1,7.93,4.44,15.56,7.65,28.38,5.26,39.07-8.37,13.26-16.9,25.74-34.41,38.79-51.48,20.92-27.34,47.55-48.84,73.31-71.24,11.46-10,22.62-20.25,31.71-32.53,4.1-5.53,7.4-11.52,8.93-18.28,2.57-11.39-2.1-19.52-13.44-22.53-10.35-2.73-21-2.52-31.63-2.13-30.56,1.11-61,5.15-91.65,3.74-16.71-.76-33.24-2.72-49-8.84-21.34-8.28-34.77-23-37.5-46.25-3.32-28.19,1-55.2,16.17-79.36,10-16,26.57-25.25,42.51-34.6,39.22-23,80.42-42.56,118.82-67.08,20-12.78,40.57-24.66,61.36-36.18,24.77-13.73,50-14.59,76-5.15,32.7,11.84,60.28,29.87,74.36,63.47,7.8,18.63,11.06,38.36,12,58.39a111.38,111.38,0,0,0,20.55,60.12c2.91,4.14,5.47,8.53,8.47,12.59,17.6,23.75,21.85,50.16,17.94,79.08-3.78,28-2.65,56.06,7.82,83,5.73,14.72,14.55,27.18,27.9,36,14.19,9.36,29.51,8.86,43.1-1.35s22.59-24.43,30.27-39.33c12.42-24.08,22.25-49.31,32.42-74.36,23.72-58.39,58.42-109.57,100.72-155.89,14.3-15.66,27.67-32.1,40.5-49q0,278.89.14,557.79c0,5.69-1.27,7.1-7,7-19.47-.4-39-.15-58.43-.15-6.63-6.21-13.14-12.57-19.93-18.61-19.25-17.12-38-34.84-60.28-48.23-19-11.44-38.19-10.57-53.91,3.67-19.53,17.69-33,40-45,63.17Z" transform="translate(287.06 161.06)"/><path class="b" d="M-75.89-160.88c-.36,3.06-3.23,3.64-5.16,5A656.9,656.9,0,0,0-147.66-102c-4.81,4.46-9.37,9.22-13.74,14.12-9.5,10.63-10.61,22-4,34.93C-146-14.68-142.2,26.43-143.33,68.7c-1.6,60.09-21.07,115.37-42.92,170.27C-199.89,273.26-209,308.73-207.48,346c1.77,42.43,8.22,84,26.5,122.92,7.7,16.42,18.17,30.85,30.29,44.24,11.7,12.92,23.37,25.91,33,40.49,15.63,23.57,13.09,40.8-8.25,59.16-19.78,17-43.46,27.55-65.94,40.09-16.81,9.37-33.45,19-47,32.92-4.8,4.94-8.9,10.38-11.38,16.86-3.39,8.84-.89,12.46,8.48,12.32,8.72-.13,16.9-3,25.06-5.59,28.4-9.12,56.77-18.28,86.41-22.65,54.18-8,108.29-8.76,162.12,2.45s95,42,127.68,85.17c11.76,15.51,23.48,31.06,34.8,46.89,27.26,38.12,62.85,63.32,108.92,74.35,30.48,7.3,59.86,18.48,88.37,31.71,2.65,1.23,5.86,1.72,7.6,4.56h-520.6a35.22,35.22,0,0,0-3.53-1.24c-26.61-6.22-53.54-4.94-80.29-2.08-6.29.67-13.29.3-19.39,3.32-19.48,0-39-.1-58.43.1-3.27,0-4.48-.63-3.83-3.9a16.12,16.12,0,0,0,0-3q0-539.58-.14-1079.14c0-5.69,1.28-7,7-7C-212-160.8-143.94-160.88-75.89-160.88Z" transform="translate(287.06 161.06)"/><path class="b" d="M1655.9,311.15c-17.14-29.82-32.07-60.72-46.27-92-14.93-32.91-25.81-66.93-30.36-102.85-2.56-20.19-3.14-40.29,3.69-59.94,3.9-11.23,10.82-20.25,21.35-25.56,18.81-9.51,36.73-20.12,51.59-35.32Z" transform="translate(287.06 161.06)"/><path class="a" d="M1411.53,931.92c12-23.21,25.45-45.48,45-63.17,15.72-14.24,34.91-15.11,53.91-3.67,22.24,13.39,41,31.11,60.28,48.23,6.79,6,13.3,12.4,19.93,18.61Z" transform="translate(287.06 161.06)"/><path class="a" d="M-224.63,931.92c6.1-3,13.1-2.65,19.39-3.32,26.75-2.86,53.68-4.14,80.29,2.08a35.22,35.22,0,0,1,3.53,1.24Z" transform="translate(287.06 161.06)"/><path class="b" d="M829,61.53c.34,13.56-4.26,25.9-10.13,37.69C807,123,791.37,143.93,770.64,160.82A98.32,98.32,0,0,1,716.78,183c-21.44,2-40.66-5-56.7-18.94C627.84,136,604.83,101.33,589.54,61.49a53.41,53.41,0,0,1-3.82-20c.17-13.63,6.39-22.32,19.57-26.33s26.56-2.7,39.78-.61c17.95,2.85,35.85,6.07,53.69,9.55,25.14,4.91,50.32,3,75.5.95a102.84,102.84,0,0,1,26.42,1.11C819.44,29.49,829.07,41.74,829,61.53Z" transform="translate(287.06 161.06)"/></svg>