<svg xmlns="http://www.w3.org/2000/svg" viewBox="0 0 1366.95 768.95"><defs><style>.a{opacity:0;fill:#ffffff;}.b{fill:#ffffff;}</style></defs><title>1800f_00024</title><path class="a" d="M1367.52,362.75v80.44c-2.82-.85-4.85,1.05-7,2.21-36,19.48-71.2,40.3-104.59,64.07-25.4,18.08-46.41,39.84-57.76,69.46-5.86,15.32-10.31,31.18-16.27,46.46-18.13,46.43-24.49,94.6-22.34,144.13h-812c.49-1.69-.54-2.9-1.31-4.18-14.07-23.41-31.28-44-53.19-60.59-35.91-27.15-76.69-43.57-119.76-55.1-7.07-1.89-14.14-3.88-21.05-6.27-4.92-1.71-11.16-3.09-12.07-9.09s4.61-9.3,8.73-12.41c7.45-5.62,15.25-10.82,23.12-15.85,15.75-10.07,32-19.35,46.83-30.85C242.33,557,255.76,534.09,254,503.5c-.66-11.35-.21-22.76-.62-34.13-1.44-38.88,7.13-75.16,27.12-108.75,18.1-30.4,29-63.9,40.55-97.07,3.15-9,5.67-18.39,5.19-28.18-.57-11.38-6.94-15.88-17.76-12.59-6.63,2-12.42,5.6-18,9.51-14.77,10.27-27.65,22.85-41.61,34.11-16.51,13.31-32.44,27.51-51.84,36.72s-36.15,4.11-47.42-14.3c-7.25-11.85-8.28-24.91-6-38.11,5.51-32.32,5.65-64.39-3.39-96.12Q125,101.39,109.35,48.31c-3.22-11-2-14.58,8.31-19.15,9-4,18.41-7.06,27.43-11,10.76-4.69,22-8.57,31-16.65H928.88A49.27,49.27,0,0,0,931,6.26c19.92,34.13,43.14,65.93,68,96.61,29.89,36.92,60.6,73.27,80.38,117.18,3.22,7.14,8.69,12.94,14.93,17.91,12,9.62,18.73,22,20.16,37.56,1.49,16.16.8,32.33,1.44,48.47.62,15.38.33,30.84,2.8,46.1,2.18,13.42,8.28,16.82,20.69,11.26,9.68-4.32,18.81-9.89,28.58-13.93,30.91-12.77,63.78-16.89,96.56-21.55,30.64-4.36,59.87-.66,88,12.24C1357.26,360.25,1361.89,363.34,1367.52,362.75Zm-665,111c18.18-1.32,38.24,1.4,57.89,8.3,14.53,5.11,29.3,9.65,44.58,12.08,17.58,2.79,35.23,4.83,52.31-2.26,17.64-7.31,21.45-20.85,9.43-35.36-15.48-18.7-31.76-36.75-49.83-53-19.22-17.32-41.75-24.54-67.32-19.65-23.59,4.5-46.62,11.52-69.21,19.54-15.08,5.36-26.75,16.26-35.9,29.36-7.54,10.79-5.53,21.95,4.73,30.18a47.85,47.85,0,0,0,14.74,7.62C675.66,474.58,687.82,473.94,702.47,473.76Zm3.21,133.31c19.6-.06,39.73-6.61,54.51-17.74,16.6-12.5,16.27-32.06-2-42-37.48-20.34-70.32-2.11-86.29,32.36-4.24,9.17-.65,16.68,8.17,21.78C688,606.07,696.72,607.21,705.68,607.07Zm388.4-86c-3.27.07-6.49-.05-9.67,1.28-18.37,7.69-30.11,21.75-37.25,39.74-4.34,10.92,2.4,21.32,12.62,19.73,22.08-3.42,39.9-14,50.65-34.2C1118.07,533.27,1110.37,521.19,1094.08,521.09Zm-87.19-173.81a33.14,33.14,0,0,0,3.84-1c14.22-5.23,34.22-33.52,34.27-48.43,0-6.52-4.27-9.26-10.81-6.91-13.85,5-34.23,33.24-34.66,48.27C999.41,343.72,1000.87,347.28,1006.89,347.28Z" transform="translate(-0.71 -0.71)"/><path class="b" d="M176.06,1.52c-9,8.08-20.21,12-31,16.65-9,3.93-18.43,7-27.43,11-10.34,4.57-11.53,8.15-8.31,19.15q15.5,53.1,30.78,106.28c9,31.73,8.9,63.8,3.39,96.12-2.25,13.2-1.22,26.26,6,38.11,11.27,18.41,28,23.53,47.42,14.3s35.33-23.41,51.84-36.72c14-11.26,26.84-23.84,41.61-34.11,5.62-3.91,11.41-7.5,18-9.51,10.82-3.29,17.19,1.21,17.76,12.59.48,9.79-2,19.14-5.19,28.18-11.54,33.17-22.45,66.67-40.55,97.07-20,33.59-28.56,69.87-27.12,108.75.41,11.37,0,22.78.62,34.13,1.78,30.59-11.65,53.47-35.11,71.68C204,586.68,187.79,596,172,606c-7.87,5-15.67,10.23-23.12,15.85-4.12,3.11-9.63,6.46-8.73,12.41s7.15,7.38,12.07,9.09c6.91,2.39,14,4.38,21.05,6.27,43.07,11.53,83.85,28,119.76,55.1,21.91,16.56,39.12,37.18,53.19,60.59.77,1.28,1.8,2.49,1.31,4.18q-170,0-340,.14c-5.2,0-6.22-1-6.22-6.22q.25-372.62.15-745.22C22.11,39.78,47.62,39.3,73.9,33.78c12.41-2.61,14.06-7.93,6.52-18-3.73-5-8.06-9.53-12.12-14.27Z" transform="translate(-0.71 -0.71)"/><path class="b" d="M1367.52,362.75c-5.63.59-10.26-2.5-14.94-4.64-28.17-12.9-57.4-16.6-88-12.24-32.78,4.66-65.65,8.78-96.56,21.55-9.77,4-18.9,9.61-28.58,13.93-12.41,5.56-18.51,2.16-20.69-11.26-2.47-15.26-2.18-30.72-2.8-46.1-.64-16.14,0-32.31-1.44-48.47-1.43-15.59-8.12-27.94-20.16-37.56-6.24-5-11.71-10.77-14.93-17.91-19.78-43.91-50.49-80.26-80.38-117.18-24.85-30.68-48.07-62.48-68-96.61a49.27,49.27,0,0,1-2.13-4.74h85c1.15,4.39,1.92,8.91,3.51,13.13,7.72,20.54,34.39,28.46,51.58,15.17a52.68,52.68,0,0,0,19.28-28.3h156.33c3.06,2.23,6,4.64,9.2,6.65,26.71,16.76,42.2,39.34,41.56,72.4-.4,20.42,5.88,39.85,16.8,57.52,13.41,21.7,30.7,38.69,55.38,47.08Z" transform="translate(-0.71 -0.71)"/><path class="b" d="M1159.58,769.52c-2.15-49.53,4.21-97.7,22.34-144.13,6-15.28,10.41-31.14,16.27-46.46,11.35-29.62,32.36-51.38,57.76-69.46,33.39-23.77,68.58-44.59,104.59-64.07,2.13-1.16,4.16-3.06,7-2.21q0,160.13.14,320.25c0,5.2-1,6.24-6.21,6.22C1294.16,769.44,1226.87,769.52,1159.58,769.52Z" transform="translate(-0.71 -0.71)"/><path class="a" d="M1367.52,185.17c-24.68-8.39-42-25.38-55.38-47.08-10.92-17.67-17.2-37.1-16.8-57.52.64-33.06-14.85-55.64-41.56-72.4-3.2-2-6.14-4.42-9.2-6.65,39.21,0,78.42.1,117.62-.13,4.54,0,5.46.91,5.45,5.44C1367.45,66.28,1367.52,125.72,1367.52,185.17Z" transform="translate(-0.71 -0.71)"/><path class="a" d="M68.3,1.52c4.06,4.74,8.39,9.28,12.12,14.27,7.54,10.06,5.89,15.38-6.52,18-26.28,5.52-51.79,6-72.38-15.56,0-5.57-2.17-13.31.61-16.09s10.52-.61,16.08-.61Z" transform="translate(-0.71 -0.71)"/><path class="a" d="M1088.25,1.52A52.68,52.68,0,0,1,1069,29.82c-17.19,13.29-43.86,5.37-51.58-15.17-1.59-4.22-2.36-8.74-3.51-13.13Z" transform="translate(-0.71 -0.71)"/><path class="b" d="M702.47,473.76c-14.65.18-26.81.82-38.58-3.23a47.85,47.85,0,0,1-14.74-7.62c-10.26-8.23-12.27-19.39-4.73-30.18,9.15-13.1,20.82-24,35.9-29.36,22.59-8,45.62-15,69.21-19.54,25.57-4.89,48.1,2.33,67.32,19.65,18.07,16.29,34.35,34.34,49.83,53,12,14.51,8.21,28.05-9.43,35.36-17.08,7.09-34.73,5.05-52.31,2.26-15.28-2.43-30.05-7-44.58-12.08C740.71,475.16,720.65,472.44,702.47,473.76Z" transform="translate(-0.71 -0.71)"/><path class="b" d="M705.68,607.07c-9,.14-17.69-1-25.57-5.56-8.82-5.1-12.41-12.61-8.17-21.78,16-34.47,48.81-52.7,86.29-32.36,18.23,9.9,18.56,29.46,2,42C745.41,600.46,725.28,607,705.68,607.07Z" transform="translate(-0.71 -0.71)"/><path class="b" d="M1094.08,521.09c16.29.1,24,12.18,16.35,26.55-10.75,20.22-28.57,30.78-50.65,34.2-10.22,1.59-17-8.81-12.62-19.73,7.14-18,18.88-32.05,37.25-39.74C1087.59,521,1090.81,521.16,1094.08,521.09Z" transform="translate(-0.71 -0.71)"/><path class="b" d="M1006.89,347.28c-6,0-7.48-3.56-7.36-8,.43-15,20.81-43.29,34.66-48.27,6.54-2.35,10.83.39,10.81,6.91,0,14.91-20,43.2-34.27,48.43A33.14,33.14,0,0,1,1006.89,347.28Z" transform="translate(-0.71 -0.71)"/></svg>