<svg xmlns="http://www.w3.org/2000/svg" viewBox="0 0 1943.05 1093.19"><defs><style>.a{opacity:0;fill:#ffffff;}.b{fill:#ffffff;}</style></defs><title>1800f_00216</title><path class="a" d="M-286.86,374.89V282.31c11.15,10.62,21.93,21.65,34.51,30.66,22,15.72,42.88,33.11,69.79,40.42A282.5,282.5,0,0,0-122,362.71c36.4,1.77,72-4.33,107.67-10.38C31.5,344.56,76.26,334,118.21,313.18a334.94,334.94,0,0,1,50.57-20.49c15.12-4.64,29.6-5.91,44.92,1.17s31.65,5.55,47.09-1.49c20.56-9.38,35.79-25.4,50.29-42a726.84,726.84,0,0,1,84-82.12c36.9-30.49,70.93-64,105-97.56,29.55-29.08,52.31-63.6,76.51-96.95,13.22-18.21,26-36.89,44-50.91,14.91-11.62,26.45-9.48,36.94,6.22,7.08,10.59,11.48,22.49,16.1,34.25,12.69,32.29,24.93,65.16,46.72,92.44,47.38,59.31,110.32,89.6,185.82,93,49.6,2.27,98.94-4.42,148.41-6.86,21.19-1,42.33-3.19,63.6-.76,18.88,2.16,32.24,11.05,38.73,29.22,3.23,9,6.4,18.12,9.16,27.31q13.26,44.33,54.84,64.4c16.28,7.89,29.22,19.83,40.36,33.83,24,30.19,36.47,65.57,45.36,102.48,8.57,35.55,20.2,70,38.66,101.71,14.47,24.87,31.32,47.77,55.17,64.75,21.46,15.28,43,15.67,64.95,1.2,10.54-7,21-14.09,31.62-20.93,18.26-11.74,38.17-16.95,59.92-15,20.19,1.83,39.92,6,59.59,10.8,13.52,3.3,26.12,9.11,39.4,13q0,185.1.14,370.21c0,6.07-.83,7.92-7.6,7.91Q743,931.8-162.4,931.92c21.39-59,22.87-121.41,30.22-182.76,3.82-31.92,1.56-64.16,2.88-96.24,1.45-35.41,9.35-68.18,31.61-97,17.63-22.8,33.83-46.73,55.22-66.31,11.75-10.75,24.42-20,41.94-16.2A70.37,70.37,0,0,1,28,487c32.26,25.09,60,54.94,88.15,84.35s49.75,63.61,68.6,99.62c13.25,25.33,27.38,50.18,44.07,73.45,13.64,19,28.64,36.82,50,47.72s38.88,4.09,47.74-18c8.54-21.27,7.48-43.16,3.42-65-7.4-39.74-16-79.25-22.38-119.2-5.08-31.71-12.36-63-23.79-93.13-16.55-43.69-45.13-74.89-90.4-89.5-13.48-4.35-27-8.39-40.77-11.77-37.11-9.12-73.12-6.77-108.16,9.14C29.25,411.6,14.7,419.76-.15,427.37c-13.61,7-27.71,8.89-42.64,5.36a275.91,275.91,0,0,1-44.78-14.19C-151.28,391.34-219.55,385.37-286.86,374.89ZM885.82,438.94c8.22-.53,19.84-1.05,31.41-2.09,22.85-2,45-6.81,64.79-19.18,17.8-11.1,35.74-22,53.41-33.27,26.64-17,52.58-35.09,76.93-55.26,10.74-8.89,17.58-20.81,14.46-35.41-3.07-14.33-14.72-20.32-27.47-24.44-1-.31-2-.47-2.95-.72-17.76-4.37-35.59-3.71-53.43-.55-20.78,3.68-40.14,12.07-60.09,18.5-38,12.26-76.88,21.73-114,36.87-16.63,6.79-31.52,16-43.37,29.73-28.79,33.31-14.19,75.58,28.91,84.07C863.76,439,873.08,438.75,885.82,438.94Z" transform="translate(287.01 161.08)"/><path class="b" d="M1655.9,554c-13.28-3.9-25.88-9.71-39.4-13-19.67-4.82-39.4-9-59.59-10.8-21.75-2-41.66,3.25-59.92,15-10.63,6.84-21.08,14-31.62,20.93-21.92,14.47-43.49,14.08-64.95-1.2-23.85-17-40.7-39.88-55.17-64.75-18.46-31.75-30.09-66.16-38.66-101.71-8.89-36.91-21.31-72.29-45.36-102.48-11.14-14-24.08-25.94-40.36-33.83Q1179.28,242,1166,197.73c-2.76-9.19-5.93-18.27-9.16-27.31-6.49-18.17-19.85-27.06-38.73-29.22-21.27-2.43-42.41-.28-63.6.76-49.47,2.44-98.81,9.13-148.41,6.86-75.5-3.45-138.44-33.74-185.82-93-21.79-27.28-34-60.15-46.72-92.44-4.62-11.76-9-23.66-16.1-34.25-10.49-15.7-22-17.84-36.94-6.22-18,14-30.78,32.7-44,50.91-24.2,33.35-47,67.87-76.51,97-34.06,33.52-68.09,67.07-105,97.56a726.84,726.84,0,0,0-84,82.12c-14.5,16.57-29.73,32.59-50.29,42-15.44,7-31.76,8.59-47.09,1.49s-29.8-5.81-44.92-1.17a334.94,334.94,0,0,0-50.57,20.49C76.26,334,31.5,344.56-14.33,352.33-50,358.38-85.6,364.48-122,362.71a282.5,282.5,0,0,1-60.56-9.32c-26.91-7.31-47.83-24.7-69.79-40.42-12.58-9-23.36-20-34.51-30.66V223.12c7-6.56,13.73-13.37,21-19.64,16.06-13.9,35.68-21.81,54.16-31.68,35-18.71,64-44.31,84.49-78.44,21.07-35.11,42.71-69.81,65.78-103.63a333.47,333.47,0,0,0,46-97.68C-10.59-125.4-4.76-142.66-3-160.88h221.6c1.74,4.73,3.28,9.55,5.26,14.19,8.44,19.86,18.23,38.91,34.55,53.69,18,16.29,34.9,16,52-1,14.69-14.64,24.66-32.52,33.83-50.85,2.56-5.11,6.12-9.92,6.42-16h856q9.8,7.69,19.6,15.41c19.79,15.55,38.28,32.8,59.74,46.19,6.42,4,13,7.65,20.41,9.67,25.44,7,42-2.83,48.79-28.46,3.76-14.14,2.84-28.49,3.24-42.81q145.21,0,290.44-.2c6.48,0,7.2,1.73,7.19,7.56Q1655.79,200.24,1655.9,554ZM1364.84,93.86c30.23-2.28,57-12.93,78.62-34.49,11.12-11.07,13.13-24.6,5.86-37.44-9.58-16.92-23.76-28.69-42.61-34.22-16.55-4.84-30.92-.66-43.06,11.36-16.07,15.92-25.44,35.77-31.81,57-6.54,21.8,4.09,36.15,26.94,37.77C1360.79,94,1362.82,93.86,1364.84,93.86Z" transform="translate(287.01 161.08)"/><path class="b" d="M-286.86,374.89c67.31,10.48,135.58,16.45,199.29,43.65a275.91,275.91,0,0,0,44.78,14.19c14.93,3.53,29,1.62,42.64-5.36,14.85-7.61,29.4-15.77,44.62-22.68,35-15.91,71.05-18.26,108.16-9.14,13.75,3.38,27.29,7.42,40.77,11.77,45.27,14.61,73.85,45.81,90.4,89.5C295.23,527,302.51,558.24,307.59,590c6.4,39.95,15,79.46,22.38,119.2,4.06,21.82,5.12,43.71-3.42,65-8.86,22.08-26.44,28.86-47.74,18s-36.35-28.69-50-47.72C212.13,721.13,198,696.28,184.75,671c-18.85-36-40.38-70.11-68.6-99.62S60.26,512.07,28,487A70.37,70.37,0,0,0-.53,473.44c-17.52-3.81-30.19,5.45-41.94,16.2C-63.86,509.22-80.06,533.15-97.69,556c-22.26,28.79-30.16,61.56-31.61,97-1.32,32.08.94,64.32-2.88,96.24-7.35,61.35-8.83,123.72-30.22,182.76-39.63,0-79.26-.12-118.88.14-5,0-5.69-1.44-5.68-5.92q.21-105.63.1-211.26c8.24-9.3,14.47-20,20.19-30.86,23.2-44.08,19.49-93.78-20.19-128.51Z" transform="translate(287.01 161.08)"/><path class="a" d="M-3-160.88c-1.72,18.22-7.55,35.48-12.48,52.93A333.47,333.47,0,0,1-61.47-10.27c-23.07,33.82-44.71,68.52-65.78,103.63-20.48,34.13-49.49,59.73-84.49,78.44-18.48,9.87-38.1,17.78-54.16,31.68-7.23,6.27-14,13.08-21,19.64q0-189-.15-377.93c0-5.2,1-6.23,6.22-6.22Q-141.9-160.73-3-160.88Z" transform="translate(287.01 161.08)"/><path class="a" d="M1358.41-160.88c-.4,14.32.52,28.67-3.24,42.81-6.83,25.63-23.35,35.45-48.79,28.46-7.38-2-14-5.67-20.41-9.67-21.46-13.39-40-30.64-59.74-46.19q-9.81-7.69-19.6-15.41Z" transform="translate(287.01 161.08)"/><path class="a" d="M350.61-160.88c-.3,6.06-3.86,10.87-6.42,16C335-126.57,325.05-108.69,310.36-94c-17.09,17-34,17.34-52,1-16.32-14.78-26.11-33.83-34.55-53.69-2-4.64-3.52-9.46-5.26-14.19Z" transform="translate(287.01 161.08)"/><path class="a" d="M-286.86,555.51c39.68,34.73,43.39,84.43,20.19,128.51-5.72,10.88-11.95,21.56-20.19,30.86Z" transform="translate(287.01 161.08)"/><path class="b" d="M885.82,438.94c-12.74-.19-22.06.08-31.35-1.75-43.1-8.49-57.7-50.76-28.91-84.07,11.85-13.72,26.74-22.94,43.37-29.73,37.07-15.14,76-24.61,114-36.87,20-6.43,39.31-14.82,60.09-18.5,17.84-3.16,35.67-3.82,53.43.55,1,.25,2,.41,2.95.72,12.75,4.12,24.4,10.11,27.47,24.44,3.12,14.6-3.72,26.52-14.46,35.41-24.35,20.17-50.29,38.23-76.93,55.26-17.67,11.29-35.61,22.17-53.41,33.27-19.83,12.37-41.94,17.14-64.79,19.18C905.66,437.89,894,438.41,885.82,438.94Z" transform="translate(287.01 161.08)"/><path class="a" d="M1364.84,93.86c-2,0-4,.12-6.06,0-22.85-1.62-33.48-16-26.94-37.77,6.37-21.23,15.74-41.08,31.81-57,12.14-12,26.51-16.2,43.06-11.36,18.85,5.53,33,17.3,42.61,34.22,7.27,12.84,5.26,26.37-5.86,37.44C1421.81,80.93,1395.07,91.58,1364.84,93.86Z" transform="translate(287.01 161.08)"/></svg>