<svg xmlns="http://www.w3.org/2000/svg" viewBox="0 0 1943.04 1093.11"><defs><style>.a{opacity:0;fill:#ffffff;}.b{fill:#ffffff;}</style></defs><title>1800f_00340</title><path class="a" d="M-286.86,652.65V543.37c13-2.27,25.27-7,37.54-11.49,63.12-23.16,127.58-40.29,194.78-46.55,32.8-3.05,63.19-13.59,88.83-35.31C51,435.9,65.35,419.62,78.77,402.45c17.59-22.51,33.55-46.24,51.55-68.46,19.2-23.72,43.09-35.88,74.1-33q44.93,4.22,89.48,11.2c37.24,5.91,73.36,3.78,108.92-9.53,21-7.88,42.7-14.11,64.07-21.11,16.59-5.43,33.11-11,48.5-19.42,23-12.6,39.56-30.54,45.66-56.64,3.75-16,8.56-31.7,13.84-47.26a257.2,257.2,0,0,0,10.27-38.8c5.87-33.87-9.73-64.08-40.1-75.86-18.3-7.11-37.41-5.06-56.15-1.81A502.25,502.25,0,0,0,339.61,92.9c-16.77,8.84-33.76,17.26-51.48,24.09-20.18,7.77-40.67,13.75-62.72,12.32-20.54-1.34-34.47-12.65-39.17-32.82a86.07,86.07,0,0,1-1.85-27.86c1.35-14.34,2.4-28.71,3.92-43,4.48-42,8.92-83.94,17.7-125.27,4.35-20.48,9.36-40.82,14.07-61.22H963.79c-16.15,24.29-17.85,51.26-15.85,79.37,1.66,23.36,3.54,46.92-5.51,69.69-9.38,23.61-22.16,45.38-34.78,67.28C898.84,70.75,888.4,85.32,884.7,103c-3.52,16.92,3.12,28.08,19.65,33a61.2,61.2,0,0,0,13.41,2.22c22.91,1.5,43.13-6.73,62.5-17.77,11.2-6.39,22.3-12.94,33.46-19.39,17.18-9.94,33.71-8.2,50,2.49a234.69,234.69,0,0,1,30.2,24.1,83.39,83.39,0,0,0,44.27,21.46c63.56,10.62,126.71,23.31,189.31,38.64,46.93,11.49,94.09,21.41,142.62,22.95,22,.7,44,.84,65.86,3.37,16.13,1.87,32.14,4.52,46,13.78,13.59,9.05,17,20.46,10.71,35.41a114.8,114.8,0,0,1-23.28,35.18c-6.79,7-11.18,15.66-7.8,24.64,3.07,8.14,6,16.39,9,24.58,7.16,19.7.67,32.52-19.75,36.37-15.56,2.93-29.11,9.39-41.66,18.41-35,25.18-64.37,56.16-89.41,91-59.78,83.16-97.75,176-118.92,275.81a655.16,655.16,0,0,0-13.74,162.65H-69.82C-87.64,901.56-101,869.07-115.28,837c-13.35-30-26.26-60.28-46.15-86.77-25.77-34.31-59.28-59.73-95.53-81.81C-266.57,662.57-275.82,655.87-286.86,652.65Z" transform="translate(286.99 161.04)"/><path class="b" d="M220.08-160.88c-4.71,20.4-9.72,40.74-14.07,61.22-8.78,41.33-13.22,83.31-17.7,125.27-1.52,14.31-2.57,28.68-3.92,43a86.07,86.07,0,0,0,1.85,27.86c4.7,20.17,18.63,31.48,39.17,32.82,22.05,1.43,42.54-4.55,62.72-12.32,17.72-6.83,34.71-15.25,51.48-24.09a502.25,502.25,0,0,1,149.3-51.11c18.74-3.25,37.85-5.3,56.15,1.81,30.37,11.78,46,42,40.1,75.86a257.2,257.2,0,0,1-10.27,38.8c-5.28,15.56-10.09,31.23-13.84,47.26-6.1,26.1-22.64,44-45.66,56.64-15.39,8.41-31.91,14-48.5,19.42-21.37,7-43,13.23-64.07,21.11-35.56,13.31-71.68,15.44-108.92,9.53q-44.52-7.07-89.48-11.2c-31-2.91-54.9,9.25-74.1,33-18,22.22-34,45.95-51.55,68.46C65.35,419.62,51,435.9,34.29,450c-25.64,21.72-56,32.26-88.83,35.31-67.2,6.26-131.66,23.39-194.78,46.55-12.27,4.5-24.55,9.22-37.54,11.49q0-348.87-.13-697.74c0-5.31.87-6.68,6.51-6.67Q-30.19-160.74,220.08-160.88Z" transform="translate(286.99 161.04)"/><path class="b" d="M1287.08,931.92a655.16,655.16,0,0,1,13.74-162.65C1322,669.49,1360,576.62,1419.74,493.46c25-34.83,54.39-65.81,89.41-91,12.55-9,26.1-15.48,41.66-18.41,20.42-3.85,26.91-16.67,19.75-36.37-3-8.19-5.9-16.44-9-24.58-3.38-9,1-17.6,7.8-24.64a114.8,114.8,0,0,0,23.28-35.18c6.34-15,2.88-26.36-10.71-35.41-13.89-9.26-29.9-11.91-46-13.78-21.88-2.53-43.89-2.67-65.86-3.37-48.53-1.54-95.69-11.46-142.62-22.95-62.6-15.33-125.75-28-189.31-38.64a83.39,83.39,0,0,1-44.27-21.46,234.69,234.69,0,0,0-30.2-24.1c-16.24-10.69-32.77-12.43-50-2.49-11.16,6.45-22.26,13-33.46,19.39-19.37,11-39.59,19.27-62.5,17.77A61.2,61.2,0,0,1,904.35,136c-16.53-4.91-23.17-16.07-19.65-33,3.7-17.72,14.14-32.29,22.95-47.58,12.62-21.9,25.4-43.67,34.78-67.28,9.05-22.77,7.17-46.33,5.51-69.69-2-28.11-.3-55.08,15.85-79.37q342.63,0,685.28-.14c5.69,0,7,1.28,7,7q-.26,370-.14,739.91c-2.13,1.36-4.28,2.68-6.39,4.06-40.34,26.38-82.87,49.27-122.06,77.5-43.76,31.53-80.61,69-102.75,118.87-18.38,41.41-40.56,80.75-62.34,120.35-4.45,8.09-9.92,15.84-11.54,25.28Z" transform="translate(286.99 161.04)"/><path class="a" d="M1350.82,931.92c1.62-9.44,7.09-17.19,11.54-25.28,21.78-39.6,44-78.94,62.34-120.35,22.14-49.89,59-87.34,102.75-118.87,39.19-28.23,81.72-51.12,122.06-77.5,2.11-1.38,4.26-2.7,6.39-4.06q0,170,.14,340c0,5.19-1,6.22-6.22,6.21Q1500.33,931.78,1350.82,931.92Z" transform="translate(286.99 161.04)"/><path class="b" d="M-286.86,652.65c11,3.22,20.29,9.92,29.9,15.78,36.25,22.08,69.76,47.5,95.53,81.81,19.89,26.49,32.8,56.76,46.15,86.77,14.26,32.06,27.64,64.55,45.46,94.91q-105.85,0-211.73.12c-4.53,0-5.44-.91-5.44-5.43Q-286.73,789.63-286.86,652.65Z" transform="translate(286.99 161.04)"/></svg>