<svg xmlns="http://www.w3.org/2000/svg" viewBox="0 0 1367.19 769.17"><defs><style>.a{opacity:0;fill:#ffffff;}.b{fill:#ffffff;}</style></defs><title>1800f_00090</title><path class="a" d="M645.06,769.52H273.2c2.17-2.53,5.4-2.41,8.23-3.2,18-5.05,36.25-9.7,52.49-19.31,44.17-26.12,68.35-66.24,78.78-115.33,3.71-17.49,3.71-35.28-4.08-52a179.2,179.2,0,0,0-20.85-34.27c-12.3-15.86-28.5-23.49-48.35-21.08-20.68,2.5-38.89-3-56.23-13.58-22.35-13.63-40-32.28-56.83-51.94Q201.43,429.68,173.88,403c-22.11-21.41-35.2-8.07-40.82,12.42-4.87,17.76-4.54,36.06-2,54.2,4,28.55,16.42,54,29.86,79,8.37,15.57,18.09,30.41,24.66,47,8.36,21.07,5.06,39.51-11.54,55.36-9.55,9.11-20.27,16.69-31,24.26-44.41,31.3-95.48,50.69-141.48,79.15V129c5.24-.73,10.47-1.66,15.73-2.17,29.13-2.8,58.44-4.54,85.1,10.33,23.85,13.31,48.6,13.37,74.29,9.11C203,141.91,227.6,132,252.56,123c71.37-25.6,134.33-63.85,184.56-121.5h36.43c2.38,1.37,4.7,2.9,7.17,4.08,15.56,7.4,31.08,15.12,44.52,25.87,17.58,14.06,37.54,16,58.69,14.85,23.21-1.27,46.35-3.5,69.6-4,41.61-.91,82.5,6.8,123.77,9.85,18.44,1.36,37.39,1,51.76-12.07,15-13.63,30.46-26.53,46.7-38.58H982c3,21.71,1.48,43.29-1,65-1.51,13-1.28,26.26,2.58,39.08,5.69,18.86,19.83,30.25,36.06,39.07,34.17,18.58,67.52,38.76,103.13,54.57,15.43,6.84,26.6,17.63,35.64,31.62A394.22,394.22,0,0,1,1216,378.67c5.26,30.13,13.77,59.46,31.22,85.51,29.57,44.14,72,72.23,118.07,95.88.58.3,1.46,0,2.2,0v83.48c-14,4.58-26.64,11.72-39,19.47-20.7,12.94-31.36,31.29-31,55.91.23,16.86.18,33.73.25,50.6H948.61c4.76-10.85.62-18.9-7.92-25.7-15.51-12.36-33.84-17.73-52.85-21.24-24.39-4.5-49.21-4.68-73.82-7-30.69-2.89-61.4-5.48-92.25-3.46-18.93,1.23-37.68,3.83-55.66,10.29-9.58,3.44-18.61,7.91-25.44,15.83s-6.91,17.47-.36,25.5C641.89,765.68,643.47,767.59,645.06,769.52ZM186,269.24c-1.87-33.81-13.43-64-34.78-90.27-11.95-14.7-27.3-22-46.78-18.68C87.42,163.23,71,168,55.88,176.6,47,181.65,39.11,188,33.56,196.7c-14.2,22.39-25.78,46.05-28.85,72.64-4.62,40.07,8.44,64.46,49.78,71.51,8.31,1.42,16.61,1.23,24.9,1.82,16.93,1.19,32.46,7.06,47.71,13.91,14.14,6.36,19.36,5.21,27.79-7.78,9-13.8,15-29.2,22.61-43.74A71.33,71.33,0,0,0,186,269.24Zm897.87,494.14c12,.56,22.66-3.74,31.62-11,20.78-16.89,42.11-33.17,61-52.22a50,50,0,0,0,9.83-13.39c4.32-8.94,1-15.61-8.84-17.11a63.79,63.79,0,0,0-21.18.24c-34.17,6.28-65.39,19.23-92.16,41.82-6,5.07-11.3,10.93-14.85,18-4,7.93-2.75,15.38,3.58,21.48C1061.56,759.52,1072.13,763.11,1083.91,763.38Z" transform="translate(-1.1 -0.56)"/><path class="b" d="M1367.52,560.06c-.74,0-1.62.3-2.2,0-46.1-23.65-88.5-51.74-118.07-95.88-17.45-26.05-26-55.38-31.22-85.51a394.22,394.22,0,0,0-57.65-147.86c-9-14-20.21-24.78-35.64-31.62-35.61-15.81-69-36-103.13-54.57-16.23-8.82-30.37-20.21-36.06-39.07-3.86-12.82-4.09-26-2.58-39.08,2.51-21.66,4-43.24,1-64.95h162.4c-.61,3.05,1.34,5.3,2.56,7.72,8.18,16.24,16.06,32.62,23.38,49.27,5,11.31,9.64,22.8,16.68,33.09,7.86,11.49,16.21,12.93,27.12,4.12a45.51,45.51,0,0,0,7.7-8.28c10.17-13.66,14-29.44,14.89-46.13.71-13.49-2.82-26.53-4.29-39.79h115.35c4.26,16.18,10.22,31.63,19.73,45.53Z" transform="translate(-1.1 -0.56)"/><path class="b" d="M1.52,754.34c46-28.46,97.07-47.85,141.48-79.15,10.74-7.57,21.46-15.15,31-24.26,16.6-15.85,19.9-34.29,11.54-55.36-6.57-16.54-16.29-31.38-24.66-47-13.44-25-25.9-50.44-29.86-79-2.51-18.14-2.84-36.44,2-54.2,5.62-20.49,18.71-33.83,40.82-12.42q27.51,26.67,52.48,55.75c16.84,19.66,34.48,38.31,56.83,51.94,17.34,10.58,35.55,16.08,56.23,13.58,19.85-2.41,36.05,5.22,48.35,21.08a179.2,179.2,0,0,1,20.85,34.27c7.79,16.77,7.79,34.56,4.08,52-10.43,49.09-34.61,89.21-78.78,115.33-16.24,9.61-34.48,14.26-52.49,19.31-2.83.79-6.06.67-8.23,3.2-87.8,0-175.6-.12-263.4.2-7.2,0-9.7-1.52-8.35-8.58C1.87,759,1.52,756.61,1.52,754.34Z" transform="translate(-1.1 -0.56)"/><path class="b" d="M437.12,1.52C386.89,59.17,323.93,97.42,252.56,123c-25,8.94-49.56,18.89-75.92,23.26-25.69,4.26-50.44,4.2-74.29-9.11-26.66-14.87-56-13.13-85.1-10.33C12,127.35,6.76,128.28,1.52,129c0-40.47.12-80.95-.15-121.42,0-5.2,1-6.22,6.22-6.22Q222.36,1.66,437.12,1.52Z" transform="translate(-1.1 -0.56)"/><path class="b" d="M645.06,769.52c-1.59-1.93-3.17-3.84-4.75-5.77-6.55-8-6.43-17.62.36-25.5s15.86-12.39,25.44-15.83c18-6.46,36.73-9.06,55.66-10.29,30.85-2,61.56.57,92.25,3.46,24.61,2.31,49.43,2.49,73.82,7,19,3.51,37.34,8.88,52.85,21.24,8.54,6.8,12.68,14.85,7.92,25.7Z" transform="translate(-1.1 -0.56)"/><path class="b" d="M875.76,1.52c-16.24,12.05-31.7,25-46.7,38.58-14.37,13.06-33.32,13.43-51.76,12.07C736,49.12,695.14,41.41,653.53,42.32c-23.25.5-46.39,2.73-69.6,4-21.15,1.17-41.11-.79-58.69-14.85C511.8,20.72,496.28,13,480.72,5.6c-2.47-1.18-4.79-2.71-7.17-4.08Z" transform="translate(-1.1 -0.56)"/><path class="b" d="M1297.7,769.52c-.07-16.87,0-33.74-.25-50.6-.34-24.62,10.32-43,31-55.91,12.41-7.75,25.08-14.89,39-19.47,0,40.47-.06,81,.1,121.42,0,3.8-.86,4.69-4.66,4.66C1341.21,769.41,1319.45,769.52,1297.7,769.52Z" transform="translate(-1.1 -0.56)"/><path class="a" d="M1232.44,1.52c1.47,13.26,5,26.3,4.29,39.79-.89,16.69-4.72,32.47-14.89,46.13a45.51,45.51,0,0,1-7.7,8.28c-10.91,8.81-19.26,7.37-27.12-4.12-7-10.29-11.72-21.78-16.68-33.09-7.32-16.65-15.2-33-23.38-49.27-1.22-2.42-3.17-4.67-2.56-7.72Z" transform="translate(-1.1 -0.56)"/><path class="a" d="M1367.52,47.05c-9.51-13.9-15.47-29.35-19.73-45.53,6.5,0,16.07-2.55,18.72.65,3.32,4,1,12.7,1,19.38C1367.55,30.05,1367.52,38.55,1367.52,47.05Z" transform="translate(-1.1 -0.56)"/><path class="b" d="M186,269.24a71.33,71.33,0,0,1-8.54,35.82c-7.63,14.54-13.64,29.94-22.61,43.74-8.43,13-13.65,14.14-27.79,7.78-15.25-6.85-30.78-12.72-47.71-13.91-8.29-.59-16.59-.4-24.9-1.82C13.15,333.8.09,309.41,4.71,269.34c3.07-26.59,14.65-50.25,28.85-72.64,5.55-8.75,13.47-15,22.32-20.1C71,168,87.42,163.23,104.48,160.29c19.48-3.35,34.83,4,46.78,18.68C172.61,205.23,184.17,235.43,186,269.24Z" transform="translate(-1.1 -0.56)"/><path class="b" d="M1083.91,763.38c-11.78-.27-22.35-3.86-31-12.14-6.33-6.1-7.53-13.55-3.58-21.48,3.55-7.12,8.84-13,14.85-18,26.77-22.59,58-35.54,92.16-41.82a63.79,63.79,0,0,1,21.18-.24c9.82,1.5,13.16,8.17,8.84,17.11a50,50,0,0,1-9.83,13.39c-18.94,19.05-40.27,35.33-61,52.22C1106.57,759.64,1096,763.94,1083.91,763.38Z" transform="translate(-1.1 -0.56)"/></svg>