<svg xmlns="http://www.w3.org/2000/svg" viewBox="0 0 1943.06 1093.14"><defs><style>.a{opacity:0;fill:#ffffff;}.b{fill:#ffffff;}</style></defs><title>1800f_00248</title><path class="a" d="M1655.9,314.18v71.34c-9.84,12.18-19.19,24.79-29.59,36.47-42.27,47.51-78.64,98.86-105,157-9,19.79-18.49,39.35-28.21,58.79-7.83,15.66-17.17,30.39-30.43,42.21-14.71,13.12-30.78,14.24-47.13,3.23-10.1-6.8-17.58-16-23.2-26.61-14.65-27.65-18.91-57.34-16.31-88.2,1.1-13.1,2.31-26.12-.18-39.25-3.62-19.09-14.76-34.16-25.75-49.29s-19.22-31.47-21.66-50.28c-1.21-9.26-1.94-18.6-3.43-27.82-6.41-39.49-27.24-66.59-66.83-77.79-21.53-6.09-42.84-5.22-64.23.32-43.21,11.17-84.34,28-125.11,45.83-34.06,14.93-67.81,30.24-98.4,51.84-20,14.14-34,32.34-40.45,55.85-7,25.34-7.2,50.22,10,72.13,12.16,15.48,29.7,22.3,48.15,26.77,37.44,9.07,75.36,5.92,113.22,3.93,13.86-.72,27.8-2.28,41.59.31,12.78,2.41,17.46,10,14.54,22.59-1.69,7.27-5.41,13.57-9.81,19.51-11.37,15.38-25.59,28-40,40.3-26,22.19-48.9,46.84-65.93,76.66-6.9,12.08-13.74,24.19-21.87,35.51-14.41,20.06-27.75,24.15-50.36,14.36-14.36-6.22-27.95-14.24-42.35-20.34-45.87-19.43-93.29-22.92-141.81-12.2-6.67,1.48-13,4-18.27,8.76-6.85,6.17-7.76,10.57-3.68,18.67,3.52,7,9.29,12,15.27,16.6,20.91,16.23,44.4,28.07,68.11,39.47q51.26,24.64,102.88,48.51c18.2,8.36,31,22.2,35.36,42.56h-595c-2.14-2.82-5.56-3.31-8.51-4.54-31.65-13.15-64.95-20.76-98.07-28.91-27.41-6.74-49.94-21-68.9-41.84-22.91-25.13-41.29-53.7-62.31-80.25-36.53-46.14-83-75.52-142.06-83.31-49.59-6.54-98.32-1.45-146.61,10.31-29.29,7.12-57.29,18.26-86,27.21-7.49,2.34-15,4.46-23,4.19-6.72-.23-10.29-3.29-10-10.38A35.32,35.32,0,0,1-252,710.52a94.1,94.1,0,0,1,23-30.76c17.49-15.67,37.87-26.88,58.3-38,13.54-7.39,27.09-14.76,39.25-24.38,19.63-15.53,23.21-34.85,10.14-56.13a238.86,238.86,0,0,0-13.65-20c-10-13.05-20.73-25.52-30.35-38.82-18.44-25.5-28.22-54.67-33.84-85.29-6.6-35.94-10.3-72.07-4.09-108.52,5.31-31.18,16.7-60.45,29.9-88.87,26-55.93,39.67-114.4,39.4-176.09-.13-26.89-3.7-53.48-9.51-79.65s.78-47.68,19.79-66.27a372.65,372.65,0,0,1,43.54-36.51c10.43-7.47,21-14.71,31.56-22q848.48,0,1697-.18c6.59,0,7.72,1.58,7.68,7.83-.29,52.09-.16,104.18-.16,156.27-12.14,6.18-24.33,12.27-36.4,18.58-16.56,8.66-26.11,22.14-29.25,40.78-3.67,21.78-1.58,43.29,1.27,64.83,5.38,40.65,18.42,79.09,34,116.79C1635.3,267.56,1644.28,291.44,1655.9,314.18ZM731.5,179.42c36.47.09,90.78-48.49,96.92-100.94,2.64-22.57-8-37.58-30-41.44a90.4,90.4,0,0,0-23.38-1.25c-36.36,3.06-72.56,3.46-108.56-4.56-13-2.89-26.35-4.3-39.86-2.39-16.25,2.31-24.65,11.88-24,28.22a52.78,52.78,0,0,0,4.2,17.6,277.19,277.19,0,0,0,35.72,64C660.87,163.16,683.57,179.58,731.5,179.42Z" transform="translate(287 161.06)"/><path class="b" d="M985,931.92c-4.35-20.36-17.16-34.2-35.36-42.56Q898,865.6,846.8,840.85c-23.71-11.4-47.2-23.24-68.11-39.47-6-4.64-11.75-9.62-15.27-16.6-4.08-8.1-3.17-12.5,3.68-18.67,5.25-4.73,11.6-7.28,18.27-8.76,48.52-10.72,95.94-7.23,141.81,12.2,14.4,6.1,28,14.12,42.35,20.34,22.61,9.79,36,5.7,50.36-14.36,8.13-11.32,15-23.43,21.87-35.51,17-29.82,40-54.47,65.93-76.66,14.41-12.32,28.63-24.92,40-40.3,4.4-5.94,8.12-12.24,9.81-19.51,2.92-12.6-1.76-20.18-14.54-22.59-13.79-2.59-27.73-1-41.59-.31-37.86,2-75.78,5.14-113.22-3.93-18.45-4.47-36-11.29-48.15-26.77-17.22-21.91-17-46.79-10-72.13,6.49-23.51,20.43-41.71,40.45-55.85,30.59-21.6,64.34-36.91,98.4-51.84,40.77-17.87,81.9-34.66,125.11-45.83,21.39-5.54,42.7-6.41,64.23-.32,39.59,11.2,60.42,38.3,66.83,77.79,1.49,9.22,2.22,18.56,3.43,27.82,2.44,18.81,10.63,35.1,21.66,50.28s22.13,30.2,25.75,49.29c2.49,13.13,1.28,26.15.18,39.25-2.6,30.86,1.66,60.55,16.31,88.2,5.62,10.6,13.1,19.81,23.2,26.61,16.35,11,32.42,9.89,47.13-3.23,13.26-11.82,22.6-26.55,30.43-42.21,9.72-19.44,19.23-39,28.21-58.79,26.37-58.14,62.74-109.49,105-157,10.4-11.68,19.75-24.29,29.59-36.47q0,269.78.14,539.57c0,5.69-1.27,7.06-7,7-25.54-.35-51.09-.15-76.64-.15-2.51-2.11-5-4.23-7.53-6.32-18.84-15.57-37-32.18-59.41-42.7-9-4.23-18.59-5.88-27.67-.89-20.35,11.16-32.27,29.67-42,49.91Z" transform="translate(287 161.06)"/><path class="b" d="M-48.57-160.88c-10.53,7.34-21.13,14.58-31.56,22a372.65,372.65,0,0,0-43.54,36.51c-19,18.59-25.6,40.15-19.79,66.27s9.38,52.76,9.51,79.65c.27,61.69-13.42,120.16-39.4,176.09-13.2,28.42-24.59,57.69-29.9,88.87-6.21,36.45-2.51,72.58,4.09,108.52,5.62,30.62,15.4,59.79,33.84,85.29,9.62,13.3,20.38,25.77,30.35,38.82a238.86,238.86,0,0,1,13.65,20c13.07,21.28,9.49,40.6-10.14,56.13-12.16,9.62-25.71,17-39.25,24.38-20.43,11.14-40.81,22.35-58.3,38a94.1,94.1,0,0,0-23,30.76,35.32,35.32,0,0,0-3.44,13.88c-.25,7.09,3.32,10.15,10,10.38,8,.27,15.52-1.85,23-4.19,28.7-9,56.7-20.09,86-27.21,48.29-11.76,97-16.85,146.61-10.31,59.09,7.79,105.53,37.17,142.06,83.31,21,26.55,39.4,55.12,62.31,80.25,19,20.81,41.49,35.1,68.9,41.84,33.12,8.15,66.42,15.76,98.07,28.91,2.95,1.23,6.37,1.72,8.51,4.54q-335.05,0-670.1.14c-5.69,0-7-1.28-7-7q.24-539.58,0-1079.14c0-5.69,1.28-7,7-7Q-164.3-160.7-48.57-160.88Z" transform="translate(287 161.06)"/><path class="b" d="M1655.9,314.18c-11.62-22.74-20.6-46.62-30.35-70.16-15.61-37.7-28.65-76.14-34-116.79-2.85-21.54-4.94-43-1.27-64.83,3.14-18.64,12.69-32.12,29.25-40.78,12.07-6.31,24.26-12.4,36.4-18.58Z" transform="translate(287 161.06)"/><path class="a" d="M1435.82,931.92c9.72-20.24,21.64-38.75,42-49.91,9.08-5,18.62-3.34,27.67.89,22.46,10.52,40.57,27.13,59.41,42.7,2.52,2.09,5,4.21,7.53,6.32Z" transform="translate(287 161.06)"/><path class="b" d="M731.5,179.42c-47.93.16-70.63-16.26-89-40.75a277.19,277.19,0,0,1-35.72-64,52.78,52.78,0,0,1-4.2-17.6c-.61-16.34,7.79-25.91,24-28.22,13.51-1.91,26.9-.5,39.86,2.39,36,8,72.2,7.62,108.56,4.56A90.4,90.4,0,0,1,798.46,37c21.95,3.86,32.6,18.87,30,41.44C822.28,130.93,768,179.51,731.5,179.42Z" transform="translate(287 161.06)"/></svg>