<svg xmlns="http://www.w3.org/2000/svg" viewBox="0 0 1943.05 1093.11"><defs><style>.a{opacity:0;fill:#ffffff;}.b{fill:#ffffff;}</style></defs><title>1800f_00151</title><path class="a" d="M-286.86,173q0-163.55-.15-327.08c0-5.69,1.29-7,7-7q829.08.22,1658.17.14a18.4,18.4,0,0,1-3.19,3.06c-13.89,8.12-24.84,18.84-31.2,33.94a53,53,0,0,1-11.61,17.6c-15.51,15.16-35.3,22.19-55.19,28.75-32.06,10.57-65.25,12.63-98.76,12.7-23.51,0-46.22,4.57-66.93,16.6C1082.94-31.78,1061.61-8.43,1046,20c-8.56,15.57-21.16,23.7-37.89,27.22-17.58,3.7-35.42,5.55-53.17,8.07-30.39,4.33-59.36,14.69-89.31,20.65-37.42,7.45-75,14-111.57,25.17-27.57,8.42-55.48,15.51-84.35,18.06-19,1.67-37.93-.25-56.87.77-30.17,1.62-58.15,10.1-83.15,27.39-20.94,14.5-26.72,33.93-17.6,57.62a102.81,102.81,0,0,0,15.13,27c23.07,29.2,49.76,54.51,81.64,74,34.16,20.87,70.5,37.57,106.66,54.54,19.34,9.08,40,12.23,61.36,10.35,20.12-1.77,40.28-3.25,60.38-5.2,23-2.24,43.06,3.76,59.78,20,4.71,4.58,9.44,9.16,13.87,14,18.42,20.11,24.63,20.7,48.14,7,38.67-22.5,77.25-45.22,117.92-64,16.74-7.73,34.57-12.95,50.94-21.63,14.75-7.82,28.64-16.75,33.63-34,5.24-18.1,6.07-36.7,4.62-55.45-.94-12.2-5.72-21.61-17-27.55-4.15-2.19-7.12-6.29-9.27-10.78-6.16-12.82-8.34-26.31-7.76-40.46.55-13.53,8.26-25.16,21.12-29.49,15.79-5.31,32.45-7.94,48.44-3.47,20.62,5.78,37.54.11,54-11.44A196.43,196.43,0,0,0,1309,52.15c6.87-10.85,12.92-22.43,13.6-35.69A163.76,163.76,0,0,1,1332.27-30c5.22-14.77,11.15-29.26,23.28-40.1,5.88-5.27,12.23-7.49,20.11-4.62a71.56,71.56,0,0,1,17.92,9.63c7.31,5.34,14.11,11.47,21.58,16.39A460.42,460.42,0,0,0,1524.53,4.68c21.35,7.05,42.72,14.24,62.76,24.65,10.18,5.29,19.6,11.68,26.13,21.42,5.36,8,4.61,15-1.94,22a53.84,53.84,0,0,1-13.28,10c-49.14,27.11-98.11,54.55-147.55,81.13-34.06,18.31-69.67,33.68-102.69,54-45.59,28.09-84.44,64.26-122,101.92-13.54,13.58-20.51,31.06-25.48,49.35-7.66,28.16-9.85,57.23-14.65,85.87-6.41,38.22-11.2,76.52-9.82,115.4.64,18,5.58,34.36,17.06,48.42,18.81,23,40.8,42.87,64,61.22,46.55,36.79,99.33,60.22,157.92,69.55,30.54,4.86,52.49,20.55,67.85,46.86a484.66,484.66,0,0,1,23.56,45.85c13.26,29.51,26.38,59.07,37.15,89.61H197.31c26.23-40.69,21.56-85.38-12.35-119.67-22.08-22.32-48.93-36.33-78.48-45.75-27.39-8.72-55.58-9.76-84-9.15-25,.53-50,1.48-74.88-3-33.89-6.1-52.22-22.94-58.75-56.61-6.79-35-4-70.55-4.87-105.88-.32-13.86,2.36-27.84-.11-41.62C-120,528.61-133.56,513-150,499.68c-11.39-9.2-24-17-34.91-26.71-26.37-23.26-50.31-49.07-75.31-73.77A54.91,54.91,0,0,1-268.1,389c-6-9.74-4.65-18.85,3.77-26.59,4.91-4.51,10.77-7.5,16.88-10A179.06,179.06,0,0,1-217,343.14c33.36-7.11,66.69-14.41,100.16-20.94,41.26-8.05,79.62-24.39,118.31-39.92,18.08-7.26,36.9-10.79,56.35-8.63,28.19,3.14,55.45,10.81,82.76,18.13,26.33,7.07,52.44,15.58,80.34,12.84,35.73-3.51,70-12.76,103.31-25.91,35.85-14.15,66.1-35.56,89.34-66.71,14.29-19.15,24.27-40.78,36.7-61,7.31-11.87,8-23.65,3.09-36.11C443.13,89,419.63,86.3,405.06,104.25c-7.81,9.63-17.94,16.09-29.13,21.23-27.39,12.59-53.31,27.77-78.59,44.2-31.53,20.5-66.07,32.16-103.93,34.1-19.13,1-38.33,1.93-57.29,5.14-23.25,3.94-45.68,10.8-67.9,18.52-19.29,6.7-38.59,11.92-58.93,3.29-35.83-15.21-64.75-38.22-82.87-73.19-9.83-18.95-24.8-28-46-26.85a123.11,123.11,0,0,0-31.93,6.08q-46.11,15.1-92.1,30.6C-257.65,172.09-272,174.33-286.86,173ZM775.52,737.08a121.56,121.56,0,0,0,3.76,32.33c6.88,25.66,21.54,30.84,43,15.15,17.87-13.09,32.29-29.81,47.54-45.61,19.68-20.38,41.2-38.06,67.82-48.75,19.56-7.84,40-12.3,60.6-16.47,18-3.65,36.36-6.64,52.19-17.16,20-13.26,25.2-30.36,15.63-52.28a116.48,116.48,0,0,0-7.67-13.92c-10.43-17-23.16-32.7-31.7-50.75-13.06-27.64-34.09-47.29-59.37-63.13-21.1-13.22-31.16-11.42-46.59,8-.31.4-.61.8-.9,1.22A424.21,424.21,0,0,1,859.91,554a274.89,274.89,0,0,0-20.24,21.54Q779.22,645,775.52,737.08Z" transform="translate(287.01 161.03)"/><path class="b" d="M1543.58,931.92c-10.77-30.54-23.89-60.1-37.15-89.61a484.66,484.66,0,0,0-23.56-45.85c-15.36-26.31-37.31-42-67.85-46.86-58.59-9.33-111.37-32.76-157.92-69.55-23.21-18.35-45.2-38.18-64-61.22-11.48-14.06-16.42-30.42-17.06-48.42-1.38-38.88,3.41-77.18,9.82-115.4,4.8-28.64,7-57.71,14.65-85.87,5-18.29,11.94-35.77,25.48-49.35,37.54-37.66,76.39-73.83,122-101.92,33-20.33,68.63-35.7,102.69-54,49.44-26.58,98.41-54,147.55-81.13a53.84,53.84,0,0,0,13.28-10c6.55-6.93,7.3-14,1.94-22-6.53-9.74-16-16.13-26.13-21.42-20-10.41-41.41-17.6-62.76-24.65a460.42,460.42,0,0,1-109.37-53.36c-7.47-4.92-14.27-11-21.58-16.39a71.56,71.56,0,0,0-17.92-9.63c-7.88-2.87-14.23-.65-20.11,4.62-12.13,10.84-18.06,25.33-23.28,40.1a163.76,163.76,0,0,0-9.65,46.44c-.68,13.26-6.73,24.84-13.6,35.69a196.43,196.43,0,0,1-53.37,56.2c-16.43,11.55-33.35,17.22-54,11.44-16-4.47-32.65-1.84-48.44,3.47-12.86,4.33-20.57,16-21.12,29.49-.58,14.15,1.6,27.64,7.76,40.46,2.15,4.49,5.12,8.59,9.27,10.78,11.3,5.94,16.08,15.35,17,27.55,1.45,18.75.62,37.35-4.62,55.45-5,17.21-18.88,26.14-33.63,34-16.37,8.68-34.2,13.9-50.94,21.63-40.67,18.8-79.25,41.52-117.92,64-23.51,13.68-29.72,13.09-48.14-7-4.43-4.85-9.16-9.43-13.87-14-16.72-16.22-36.8-22.22-59.78-20-20.1,2-40.26,3.43-60.38,5.2-21.37,1.88-42-1.27-61.36-10.35-36.16-17-72.5-33.67-106.66-54.54-31.88-19.46-58.57-44.77-81.64-74a102.81,102.81,0,0,1-15.13-27c-9.12-23.69-3.34-43.12,17.6-57.62,25-17.29,53-25.77,83.15-27.39,18.94-1,37.92.9,56.87-.77,28.87-2.55,56.78-9.64,84.35-18.06,36.59-11.17,74.15-17.72,111.57-25.17,30-6,58.92-16.32,89.31-20.65,17.75-2.52,35.59-4.37,53.17-8.07,16.73-3.52,29.33-11.65,37.89-27.22,15.6-28.38,36.93-51.73,65.25-68.18,20.71-12,43.42-16.55,66.93-16.6,33.51-.07,66.7-2.13,98.76-12.7,19.89-6.56,39.68-13.59,55.19-28.75a53,53,0,0,0,11.61-17.6c6.36-15.1,17.31-25.82,31.2-33.94a18.4,18.4,0,0,0,3.19-3.06q135.84,0,271.68-.15c5.2,0,6.23,1,6.22,6.22q-.3,141.92-.14,283.82a10.64,10.64,0,0,0-1.52,1.64c-27.49,47.38-60.48,90.84-94.66,133.49-28.92,36.09-58.48,71.72-83.45,110.79-13.52,21.14-26.22,42.81-32.81,67.22-12.79,47.4-15.19,95.74-10.16,144.38,3,28.48,11.27,55.44,28,79.25,24,34.28,59.85,39.94,93.21,14.7a198,198,0,0,0,25.93-23.25q37.86-40.9,75.51-82,0,175.31.14,350.61c0,5.19-1,6.26-6.22,6.22C1614.41,931.78,1579,931.92,1543.58,931.92Z" transform="translate(287.01 161.03)"/><path class="b" d="M-286.86,173c14.85,1.3,29.21-.94,43.29-5.66q46-15.44,92.1-30.6a123.11,123.11,0,0,1,31.93-6.08c21.16-1.11,36.13,7.9,46,26.85,18.12,35,47,58,82.87,73.19,20.34,8.63,39.64,3.41,58.93-3.29,22.22-7.72,44.65-14.58,67.9-18.52,19-3.21,38.16-4.16,57.29-5.14,37.86-1.94,72.4-13.6,103.93-34.1,25.28-16.43,51.2-31.61,78.59-44.2,11.19-5.14,21.32-11.6,29.13-21.23,14.57-18,38.07-15.22,48.26,10.67,4.91,12.46,4.22,24.24-3.09,36.11-12.43,20.19-22.41,41.82-36.7,61-23.24,31.15-53.49,52.56-89.34,66.71-33.31,13.15-67.58,22.4-103.31,25.91-27.9,2.74-54-5.77-80.34-12.84-27.31-7.32-54.57-15-82.76-18.13-19.45-2.16-38.27,1.37-56.35,8.63-38.69,15.53-77.05,31.87-118.31,39.92-33.47,6.53-66.8,13.83-100.16,20.94a179.06,179.06,0,0,0-30.41,9.29c-6.11,2.5-12,5.49-16.88,10-8.42,7.74-9.8,16.85-3.77,26.59a54.91,54.91,0,0,0,7.87,10.18c25,24.7,48.94,50.51,75.31,73.77,11,9.67,23.52,17.51,34.91,26.71,16.45,13.3,30,28.93,33.86,50.57,2.47,13.78-.21,27.76.11,41.62.82,35.33-1.92,70.89,4.87,105.88,6.53,33.67,24.86,50.51,58.75,56.61,24.87,4.47,49.88,3.52,74.88,3,28.44-.61,56.63.43,84,9.15,29.55,9.42,56.4,23.43,78.48,45.75,33.91,34.29,38.58,79,12.35,119.67q-238.91,0-477.81.16c-5.7,0-6.49-1.45-6.49-6.69Q-286.76,549.21-286.86,173Z" transform="translate(287.01 161.03)"/><path class="a" d="M1655.9,575.24q-37.74,41-75.51,82a198,198,0,0,1-25.93,23.25c-33.36,25.24-69.19,19.58-93.21-14.7-16.68-23.81-25-50.77-28-79.25-5-48.64-2.63-97,10.16-144.38,6.59-24.41,19.29-46.08,32.81-67.22,25-39.07,54.53-74.7,83.45-110.79,34.18-42.65,67.17-86.11,94.66-133.49a10.64,10.64,0,0,1,1.52-1.64Z" transform="translate(287.01 161.03)"/><path class="b" d="M775.52,737.08q3.79-92,64.15-161.54A274.89,274.89,0,0,1,859.91,554a424.21,424.21,0,0,0,59.89-68.27c.29-.42.59-.82.9-1.22,15.43-19.44,25.49-21.24,46.59-8,25.28,15.84,46.31,35.49,59.37,63.13,8.54,18,21.27,33.74,31.7,50.75a116.48,116.48,0,0,1,7.67,13.92c9.57,21.92,4.33,39-15.63,52.28-15.83,10.52-34.15,13.51-52.19,17.16-20.58,4.17-41,8.63-60.6,16.47C911,700.89,889.47,718.57,869.79,739c-15.25,15.8-29.67,32.52-47.54,45.61-21.43,15.69-36.09,10.51-43-15.15A121.56,121.56,0,0,1,775.52,737.08Z" transform="translate(287.01 161.03)"/></svg>