<svg xmlns="http://www.w3.org/2000/svg" viewBox="0 0 1943.05 1093.11"><defs><style>.a{opacity:0;fill:#ffffff;}.b{fill:#ffffff;}</style></defs><title>1800f_00208</title><path class="a" d="M1529.92,931.92H-233.74c2.67-8.43,5.11-16.94,8-25.28,13.12-37.46,34.11-71,52.69-105.77,15.27-28.59,29.32-57.7,39.39-88.58A318.09,318.09,0,0,0-118.23,604c-.42-15.2-.1-30.45,4.55-45,11.31-35.48,35.64-59.3,69-74.21a75,75,0,0,1,40.05-5.89c32.48,3.94,56.51,21.66,76.17,46.54,23.75,30.08,36.15,65.24,45.16,101.81,6.47,26.24,11.12,52.94,21.46,78.13,10.81,26.36,24,51.26,43.13,72.68,21.39,23.93,43.17,21.08,56.67-8,10.18-21.92,13.38-45.45,14.17-69.36,1-31.31-4.92-61.94-10-92.56C232.6,550.8,220.2,494,212.19,436.39c-5.07-36.44-20.34-67.57-50.55-90.13-18.18-13.57-38.62-22.94-59.18-32.17-12.19-5.48-25-10-35.45-18.63C58.78,288.64,58.54,282,65.59,274a53.71,53.71,0,0,1,6.14-5.62c11.52-9.65,24.65-16.8,37.88-23.66,49.15-25.49,98-51.62,151.37-67.77,50.11-15.16,91.1-44.13,124.42-84.21,19-22.81,33.49-48.73,50.68-72.81,42.62-59.74,89.8-115.95,134-174.43,1.46-1.93,3.93-3.36,3.6-6.33h74.37c1.89,2,3.66,4.14,5.7,6,19.13,17.32,37.94,35,55.13,54.25,9.12,10.22,17.4,21,22.07,34.18,3.86,10.9,2,22,2,33.11,0,21.91,8.85,39.07,27,51.37a126.21,126.21,0,0,0,19.83,11.1C808.49,41.73,838.76,47,869.67,49.34c35.59,2.76,71.13,4,106.63-1.79,25.71-4.22,51-10.48,76.53-15.39,36.3-7,73.13-9.47,109.89-12.61,8.32-.71,16.59-1.13,24.93.11,11.57,1.71,15.77,7.61,13.13,18.89-2,8.44-5.91,16.1-9.3,24-3.59,8.33-8.87,16-10.73,25-3.58,17.44,1.27,33.88,7.92,49.44,24.54,57.4,49.53,114.63,78.24,170.13,19.16,37.06,38,74.23,52.51,113.48,5,13.49,11.34,26.57,22,36.84,9,8.69,19.17,10.51,30.64,5.5a76.39,76.39,0,0,0,19.08-12.27c27.86-23.84,54.93-48.54,80.71-74.65,8.89-9,18.24-17.5,29-24.27,16.65-10.45,40.66-10.57,55.46,4,10.32,10.19,19.21,21.46,28.08,32.78,23.06,29.47,46,59.05,71.47,86.5v350.6c-2.5.5-3.53,2.75-5,4.36a493,493,0,0,1-68.73,61.73C1564.48,904.79,1546.38,917.31,1529.92,931.92ZM886.58,333.61c5.15.26,10-1.11,14.71-2.94,18.89-7.34,33.46-20.56,46.49-35.43,12.68-14.46,24.3-29.85,29.34-48.91,5.75-21.78-7.86-35.79-30-31.32-15.39,3.1-28,11.3-39.17,21.83C887,256.53,871.7,279.4,867.63,308.6,865.62,323.12,873.41,333.56,886.58,333.61Z" transform="translate(287.01 161.05)"/><path class="b" d="M573.72-160.88c.33,3-2.14,4.4-3.6,6.33-44.24,58.48-91.42,114.69-134,174.43-17.19,24.08-31.72,50-50.68,72.81C352.08,132.77,311.09,161.74,261,176.9c-53.37,16.15-102.22,42.28-151.37,67.77-13.23,6.86-26.36,14-37.88,23.66A53.71,53.71,0,0,0,65.59,274c-7.05,8-6.81,14.69,1.42,21.51,10.46,8.66,23.26,13.15,35.45,18.63,20.56,9.23,41,18.6,59.18,32.17,30.21,22.56,45.48,53.69,50.55,90.13,8,57.6,20.41,114.41,29.94,171.73,5.09,30.62,11,61.25,10,92.56-.79,23.91-4,47.44-14.17,69.36-13.5,29-35.28,31.89-56.67,8-19.15-21.42-32.32-46.32-43.13-72.68-10.34-25.19-15-51.89-21.46-78.13-9-36.57-21.41-71.73-45.16-101.81-19.66-24.88-43.69-42.6-76.17-46.54a75,75,0,0,0-40.05,5.89c-33.37,14.91-57.7,38.73-69,74.21-4.65,14.59-5,29.84-4.55,45a318.09,318.09,0,0,1-15.4,108.31c-10.07,30.88-24.12,60-39.39,88.58-18.58,34.75-39.57,68.31-52.69,105.77-2.92,8.34-5.36,16.85-8,25.28-15.93,0-31.88-.22-47.8.13-4.55.1-5.46-.92-5.45-5.44q.27-124.85.13-249.68c12.62-11.67,25-23.6,37.9-35,27.48-24.27,55.2-48.24,81.15-74.2,10.72-10.73,15.38-23.26,15.7-38.08.43-19.9-8.31-36.06-20-51.12-13.64-17.53-29.52-33.25-41.58-52.07-14.48-22.57-16.81-45.43-3.25-69.34,5.5-9.7,12.2-18.58,18.16-28,7.33-11.54,6.24-19.76-4-28.73-6.52-5.71-14.15-9.72-22-13.28-18.23-8.25-37.15-14.6-56.17-20.72-1.92-.62-3.81-1.39-5.9-.85V-107.76c2.12-.85,3.92.31,5.8.94,36.2,12.14,73.21,15.57,111.13,11.16,41-4.77,68-26.71,81.9-65.22H215.52c5.19,17.29,22.77,32.68,37.9,32.38,16.41-.32,28.33-9.69,38.59-21.27,2.83-3.19,7.36-5.75,7-11.11Z" transform="translate(287.01 161.05)"/><path class="b" d="M1655.9,475.07c-25.51-27.45-48.41-57-71.47-86.5-8.87-11.32-17.76-22.59-28.08-32.78-14.8-14.61-38.81-14.49-55.46-4-10.78,6.77-20.13,15.26-29,24.27-25.78,26.11-52.85,50.81-80.71,74.65a76.39,76.39,0,0,1-19.08,12.27c-11.47,5-21.6,3.19-30.64-5.5-10.68-10.27-17-23.35-22-36.84-14.51-39.25-33.35-76.42-52.51-113.48-28.71-55.5-53.7-112.73-78.24-170.13-6.65-15.56-11.5-32-7.92-49.44,1.86-9,7.14-16.68,10.73-25,3.39-7.89,7.33-15.55,9.3-24,2.64-11.28-1.56-17.18-13.13-18.89-8.34-1.24-16.61-.82-24.93-.11-36.76,3.14-73.59,5.63-109.89,12.61-25.55,4.91-50.82,11.17-76.53,15.39-35.5,5.82-71,4.55-106.63,1.79-30.91-2.39-61.18-7.61-89.79-20.23A126.21,126.21,0,0,1,760.05,18c-18.17-12.3-27-29.46-27-51.37,0-11.06,1.82-22.21-2-33.11-4.67-13.18-13-24-22.07-34.18-17.19-19.29-36-36.93-55.13-54.25-2-1.84-3.81-4-5.7-6q500.49,0,1001-.14c5.69,0,7,1.27,7,7-.27,46.29-.15,92.58-.15,138.87-11.45,11.74-13.39,23-6.28,37.57,1.84,3.79,4.17,7.34,6.28,11Z" transform="translate(287.01 161.05)"/><path class="a" d="M-286.86,265.61c2.09-.54,4,.23,5.9.85,19,6.12,37.94,12.47,56.17,20.72,7.85,3.56,15.48,7.57,22,13.28,10.22,9,11.31,17.19,4,28.73-6,9.38-12.66,18.26-18.16,28-13.56,23.91-11.23,46.77,3.25,69.34,12.06,18.82,27.94,34.54,41.58,52.07,11.72,15.06,20.46,31.22,20,51.12-.32,14.82-5,27.35-15.7,38.08-25.95,26-53.67,49.93-81.15,74.2-12.88,11.37-25.28,23.3-37.9,35Z" transform="translate(287.01 161.05)"/><path class="a" d="M-88-160.88c-13.94,38.51-40.9,60.45-81.9,65.22-37.92,4.41-74.93,1-111.13-11.16-1.88-.63-3.68-1.79-5.8-.94,0-15.38.25-30.78-.14-46.15-.13-5.4.75-7.17,6.79-7.14C-216.15-160.78-152.09-160.88-88-160.88Z" transform="translate(287.01 161.05)"/><path class="b" d="M1529.92,931.92c16.46-14.61,34.56-27.13,52.22-40.16A493,493,0,0,0,1650.87,830c1.5-1.61,2.53-3.86,5-4.36,0,33.9-.08,67.8.1,101.69,0,3.8-.86,4.67-4.66,4.66C1610.87,931.86,1570.39,931.92,1529.92,931.92Z" transform="translate(287.01 161.05)"/><path class="a" d="M299-160.88c.37,5.36-4.16,7.92-7,11.11-10.26,11.58-22.18,21-38.59,21.27-15.13.3-32.71-15.09-37.9-32.38Z" transform="translate(287.01 161.05)"/><path class="a" d="M1655.9,33.39c-2.11-3.66-4.44-7.21-6.28-11-7.11-14.58-5.17-25.83,6.28-37.57Z" transform="translate(287.01 161.05)"/><path class="b" d="M886.58,333.61c-13.17-.05-21-10.49-19-25,4.07-29.2,19.4-52.07,40.27-71.76,11.17-10.53,23.78-18.73,39.17-21.83,22.19-4.47,35.8,9.54,30,31.32-5,19.06-16.66,34.45-29.34,48.91-13,14.87-27.6,28.09-46.49,35.43C896.57,332.5,891.73,333.87,886.58,333.61Z" transform="translate(287.01 161.05)"/></svg>