<svg xmlns="http://www.w3.org/2000/svg" viewBox="0 0 1943.05 1093.09"><defs><style>.a{opacity:0;fill:#ffffff;}.b{fill:#ffffff;}</style></defs><title>1800f_00394</title><path class="a" d="M1655.9,206.42V482.66c-8.47,2.87-15.45,8.41-23,13-39.46,24-71.77,54.82-93,96.46-14.41,28.26-25.29,57.86-34.42,88.17-15,49.83-28.8,100.06-49.25,148.11-14.28,33.54-26.2,67.9-34.13,103.55H78.92C31.56,871.9-27.2,827.72-99.87,802.6c-22-7.59-44.21-14.55-64.72-25.86-21.52-11.86-31.56-29.86-29.37-54.42a88.88,88.88,0,0,1,5.28-22.85c10.8-29.45,25.67-56.9,45.57-81,24.81-30,44-63.14,58.61-98.78,18.09-44,47.87-76.78,89.26-99.59,19.26-10.61,38.32-21.6,57.52-32.33,38.51-21.53,73.33-47.6,101.52-81.92,18.16-22.1,34.83-45.32,50.81-69C239.18,200.49,270,169.17,297,134.81c24.59-31.27,44.72-65,52.94-104.63,4.22-20.31,5.35-40.61-2-60.55C341.38-48.2,329.76-55.92,310.77-55c-12.65.58-24.14,5.37-35.37,10.61-20.13,9.39-41.12,14-63.31,12.22a259.73,259.73,0,0,1-45.47-8.15c-25-6.55-49.43-6.75-73.41,3.94-3.69,1.65-7.6,2.82-11.25,4.53C47.35-15.74,11.4-9.37-26.53-16.51c-31.16-5.88-59.58.73-85.79,18.53a259.26,259.26,0,0,1-34.24,19.53,110.37,110.37,0,0,1-51.36,11.16c-18.85-.56-36.93-5.39-55-10.41-11.14-3.11-22.1-7.36-34-7.12,0-56.41.1-112.82-.15-169.23,0-5.7,1.29-7,7-7q607.48.22,1215,.14c-.14,3.52,2,6.24,3.57,9C987.66-65.33,1050.31,8.4,1138,58.38c59.47,33.87,111.45,76.67,155.38,129.39,27.42,32.93,43.2,68.86,37.75,112.8-6.3,50.82-25.88,94.15-66.48,126.84-12.61,10.16-24.59,21.1-33.7,34.72-8.91,13.31-12.1,27.5-7.11,43.23,11.19,35.2,40.35,45.76,70.18,45,27.12-.7,51.89-10.29,74.82-24.51,21.24-13.19,39-29.64,48.67-53.45,5.84-14.39,6.25-29.51,6.42-44.73.21-19.66,4.69-37.69,21.24-50.48,6-4.64,12.08-9.21,18.48-13.23,32.74-20.58,66-40.35,95.11-66.19,24-21.29,49.52-40.95,71.18-64.8C1638.31,223.79,1646.11,214.14,1655.9,206.42ZM635.77,428a186,186,0,0,0,38.5-3c20.92-3.95,40.71-10.44,55.85-26.56,14.74-15.7,14.37-35.54-.86-50.65a66.94,66.94,0,0,0-23.55-14.92C656.28,314.06,609,319,564,346.39c-11.68,7.1-22.4,15.53-29.6,27.71-9.09,15.41-5.36,30,10.21,38.51a88.21,88.21,0,0,0,20.46,7.88C588.27,426.5,612.05,427,635.77,428ZM287,565.27c-10.9.61-20.79.51-30.2,4.13-14.2,5.45-20.09,16.85-16,31.5a61.83,61.83,0,0,0,12.87,23.84c25.64,29.82,58.07,48.82,96.42,56.08,33.51,6.33,61.74-5.38,83.42-31.69,8.72-10.58,7.81-22-1.13-32.29-7.41-8.54-16.42-15-26.39-20.07C368.26,577.5,328.05,567.76,287,565.27Zm372.8,68.55a53.58,53.58,0,0,0-12.85,1.32c-8.4,1.93-18,3.08-20.27,13.09S632,664.42,639,669.94c18.4,14.48,39.66,23,62.16,28.35,10.16,2.41,20.54,5.06,31.33,2.09,13.54-3.72,17.94-15.21,8.77-25.91C719.87,649.54,692.59,636,659.79,633.82Z" transform="translate(287.01 161.02)"/><path class="b" d="M-286.86,15.18c11.86-.24,22.82,4,34,7.12,18.05,5,36.13,9.85,55,10.41a110.37,110.37,0,0,0,51.36-11.16A259.26,259.26,0,0,0-112.32,2c26.21-17.8,54.63-24.41,85.79-18.53C11.4-9.37,47.35-15.74,82-31.9c3.65-1.71,7.56-2.88,11.25-4.53,24-10.69,48.45-10.49,73.41-3.94a259.73,259.73,0,0,0,45.47,8.15c22.19,1.74,43.18-2.83,63.31-12.22,11.23-5.24,22.72-10,35.37-10.61,19-.87,30.61,6.85,37.17,24.68,7.34,19.94,6.21,40.24,2,60.55C341.71,69.8,321.58,103.54,297,134.81c-27,34.36-57.81,65.68-82.38,102.08-16,23.68-32.65,46.9-50.81,69-28.19,34.32-63,60.39-101.52,81.92C43.08,398.54,24,409.53,4.76,420.14-36.63,443-66.41,475.69-84.5,519.73c-14.64,35.64-33.8,68.79-58.61,98.78-19.9,24.06-34.77,51.51-45.57,81A88.88,88.88,0,0,0-194,722.32c-2.19,24.56,7.85,42.56,29.37,54.42,20.51,11.31,42.76,18.27,64.72,25.86C-27.2,827.72,31.56,871.9,78.92,931.92q-179.85,0-359.71.14c-5.2,0-6.22-1-6.21-6.21Q-286.76,470.51-286.86,15.18Z" transform="translate(287.01 161.02)"/><path class="b" d="M1655.9,206.42c-9.79,7.72-17.59,17.37-25.92,26.53-21.66,23.85-47.15,43.51-71.18,64.8-29.15,25.84-62.37,45.61-95.11,66.19-6.4,4-12.49,8.59-18.48,13.23-16.55,12.79-21,30.82-21.24,50.48-.17,15.22-.58,30.34-6.42,44.73-9.66,23.81-27.43,40.26-48.67,53.45-22.93,14.22-47.7,23.81-74.82,24.51-29.83.78-59-9.78-70.18-45-5-15.73-1.8-29.92,7.11-43.23,9.11-13.62,21.09-24.56,33.7-34.72,40.6-32.69,60.18-76,66.48-126.84,5.45-43.94-10.33-79.87-37.75-112.8-43.93-52.72-95.91-95.52-155.38-129.39-87.73-50-150.38-123.71-199.52-210.25-1.57-2.77-3.71-5.49-3.57-9q357.06,0,714.12-.14c5.69,0,7,1.28,7,7Q1655.76,26.19,1655.9,206.42Z" transform="translate(287.01 161.02)"/><path class="b" d="M1422.16,931.92c7.93-35.65,19.85-70,34.13-103.55,20.45-48,34.23-98.28,49.25-148.11,9.13-30.31,20-59.91,34.42-88.17,21.22-41.64,53.53-72.49,93-96.46,7.5-4.56,14.48-10.1,23-13q0,221.59.14,443.19c0,5.19-1,6.23-6.22,6.22Q1536,931.74,1422.16,931.92Z" transform="translate(287.01 161.02)"/><path class="b" d="M635.77,428c-23.72-1-47.5-1.54-70.7-7.55a88.21,88.21,0,0,1-20.46-7.88c-15.57-8.53-19.3-23.1-10.21-38.51,7.2-12.18,17.92-20.61,29.6-27.71,45-27.36,92.28-32.33,141.71-13.51a66.94,66.94,0,0,1,23.55,14.92c15.23,15.11,15.6,34.95.86,50.65C715,414.57,695.19,421.06,674.27,425A186,186,0,0,1,635.77,428Z" transform="translate(287.01 161.02)"/><path class="b" d="M287,565.27c41.06,2.49,81.27,12.23,119,31.5,10,5.1,19,11.53,26.39,20.07,8.94,10.32,9.85,21.71,1.13,32.29-21.68,26.31-49.91,38-83.42,31.69-38.35-7.26-70.78-26.26-96.42-56.08a61.83,61.83,0,0,1-12.87-23.84c-4.08-14.65,1.81-26,16-31.5C266.2,565.78,276.09,565.88,287,565.27Z" transform="translate(287.01 161.02)"/><path class="b" d="M659.79,633.82c32.8,2.16,60.08,15.72,81.45,40.65,9.17,10.7,4.77,22.19-8.77,25.91-10.79,3-21.17.32-31.33-2.09-22.5-5.34-43.76-13.87-62.16-28.35-7-5.52-14.58-11.66-12.31-21.71s11.87-11.16,20.27-13.09A53.58,53.58,0,0,1,659.79,633.82Z" transform="translate(287.01 161.02)"/></svg>