<svg xmlns="http://www.w3.org/2000/svg" viewBox="0 0 1943.09 1093.12"><defs><style>.a{opacity:0;fill:#ffffff;}.b{fill:#ffffff;}</style></defs><title>1800f_00110</title><path class="a" d="M1315.91,931.92H927.36c-4.11-3.19-9.14-4.25-14-5.58-29.32-8.17-59.25-9.76-89.39-7.18-21.64,1.85-43.07,5.25-63.61,12.76H359.71a10.37,10.37,0,0,1,2.69-1.17c24.5-2.91,41.25-16.39,52.06-38,18.93-37.91,21.16-77.54,8.5-117.23-13.2-41.39-28.73-82-43.73-122.84a380.3,380.3,0,0,0-29.56-62.25c-7.11-12-18.67-11.29-24.36,1.45-9.37,21-19.45,41.65-29.23,62.45a81.82,81.82,0,0,1-37.21,38.57c-18.55,9.58-31.4,10.74-48.48-6.41-14.62-14.68-26.67-31.75-42.31-45.44-12.78-11.18-26-21.84-43.25-25.34-9.81-2-16.82,3.79-17.16,13.63-.28,7.74,1.58,14.86,4.57,22,11.6,27.71,31.51,48.57,54.73,66.56,15.4,11.93,28.09,25.46,31.47,45.46,3.22,19.07,2.05,38.28,1.17,57.46-.77,16.63-3.19,33.22-2.2,49.91,1.09,18.36,7.45,34.35,22.08,46.44,8.32,6.88,18.27,10.51,27.91,14.8q-264,0-527.89.16c-5.7,0-6.5-1.44-6.5-6.69q.23-408.06.13-816.11c13.94.79,27.77-1,41.59-2.11,43.31-3.31,86.36-1.41,129.33,4.53,24,3.32,48.15,6.59,72.46,3,32.28-4.72,64.72-7.79,97.26-10C78,103,102,100,125.59,93.63c30.84-8.37,58.35-24,86.17-39C252.11,32.93,293.18,12.79,337.11-.81c21.3-6.6,42.92-13.06,65.42-10.86,35.43,3.48,71.19,6.15,105.52,16,56.09,16.11,113.25,20,171.14,18.79,35.4-.72,70.82-.32,106.23-.78,66.13-.85,127.05,18.38,185.25,47.91a112.3,112.3,0,0,1,48.48,46.63c15.72,28.41,20.75,58.67,18.18,90.79-1.68,20.88-5.06,41.73-3.58,62.79,1.63,23.15,5.52,45.75,19.27,65.33,10.66,15.17,23.7,17.76,39.29,7.9,8.16-5.16,15.3-11.62,22-18.48,24.13-24.54,46.7-50.52,68.83-76.82a190,190,0,0,0,39.61-77.79c9.25-37.79,6.35-76.4,6.32-114.76,0-10.36-7.25-16.33-16.74-19.1-7.52-2.2-15.3-3-23.16-3.59A178.73,178.73,0,0,1,1117.48,13c-15.93-8.41-24.15-21.59-23.41-40.08a116.23,116.23,0,0,1,3.33-24c8.18-32.42,16.88-64.68,38.13-91.68,4.83-6.14,10-12.06,15-18.08h126c.48,5.78,1.19,11.56,1.39,17.36.76,22.21-3.54,43.75-9,65.12-6.77,26.73-12.8,53.61-13.69,81.29-.45,13.89,5.26,20.61,18.74,24.56,17,5,34.57,7.36,52,10.5,20.84,3.75,40.9,8.73,57.25,23.69a349.87,349.87,0,0,1,69.48,87.56c25.16,44.9,30.28,93.73,26.32,144.05-1.41,17.88-4.65,35.6-5.14,53.57-1.7,62.15,4.37,123.71,15.28,184.8,13.8,77.33,52.14,138.31,120.65,178.82,15,8.85,29.64,18.28,46.17,24.17V897c-25,1.37-49.54.2-72.74-10.5a138.81,138.81,0,0,0-27.26-9.11c-34-7.78-68.25-6.73-102.49-2.6-33.81,4.07-66.7,11.82-96.73,28.69C1342.2,911.63,1327.68,919.84,1315.91,931.92ZM74.91,392.11c-.49-8.32-.45-16.71-1.56-24.94A273.69,273.69,0,0,0,14.23,229.72c-13.39-16.62-28-32.06-47.73-41.29-27-12.62-51.48-.6-57.69,28.53-3.94,18.48-3.51,37.26-.82,55.8,7.76,53.42,27.45,102.33,58.29,146.51C-18.32,441.33-.06,461,23.54,474.78,40.89,484.91,53.22,481,62,463.2a69.82,69.82,0,0,0,3.73-9.1C72.27,434,74.69,413.23,74.91,392.11Z" transform="translate(287.01 161.04)"/><path class="b" d="M1150.48-160.88c-5,6-10.12,11.94-15,18.08-21.25,27-30,59.26-38.13,91.68a116.23,116.23,0,0,0-3.33,24c-.74,18.49,7.48,31.67,23.41,40.08a178.73,178.73,0,0,0,71.74,20.21c7.86.55,15.64,1.39,23.16,3.59,9.49,2.77,16.73,8.74,16.74,19.1,0,38.36,2.93,77-6.32,114.76a190,190,0,0,1-39.61,77.79c-22.13,26.3-44.7,52.28-68.83,76.82-6.75,6.86-13.89,13.32-22,18.48-15.59,9.86-28.63,7.27-39.29-7.9-13.75-19.58-17.64-42.18-19.27-65.33-1.48-21.06,1.9-41.91,3.58-62.79,2.57-32.12-2.46-62.38-18.18-90.79a112.3,112.3,0,0,0-48.48-46.63C912.47,40.73,851.55,21.5,785.42,22.35c-35.41.46-70.83.06-106.23.78C621.3,24.31,564.14,20.45,508.05,4.34,473.72-5.52,438-8.19,402.53-11.67,380-13.87,358.41-7.41,337.11-.81c-43.93,13.6-85,33.74-125.35,55.46-27.82,15-55.33,30.61-86.17,39C102,100,78,103,53.78,104.69c-32.54,2.26-65,5.33-97.26,10-24.31,3.55-48.42.28-72.46-3-43-5.94-86-7.84-129.33-4.53-13.82,1.06-27.65,2.9-41.59,2.11q0-131.67-.15-263.33c0-5.69,1.29-7,7-7Q435.23-160.8,1150.48-160.88Z" transform="translate(287.01 161.04)"/><path class="b" d="M1655.9,734.61c-16.53-5.89-31.2-15.32-46.17-24.17-68.51-40.51-106.85-101.49-120.65-178.82-10.91-61.09-17-122.65-15.28-184.8.49-18,3.73-35.69,5.14-53.57,4-50.32-1.16-99.15-26.32-144a349.87,349.87,0,0,0-69.48-87.56c-16.35-15-36.41-19.94-57.25-23.69-17.39-3.14-34.93-5.52-52-10.5-13.48-3.95-19.19-10.67-18.74-24.56.89-27.68,6.92-54.56,13.69-81.29,5.42-21.37,9.72-42.91,9-65.12-.2-5.8-.91-11.58-1.39-17.36q186.73,0,373.47-.16c5.37,0,6.26,1.29,6.12,6.31-.41,14.64-.14,29.29-.14,43.93-2.44-.34-4.4.91-6.42,1.93a103.07,103.07,0,0,0-39.69,35.41C1598-55.83,1593.52-36.7,1604.05-17c11.13,20.84,28.8,34,51.85,39.76Z" transform="translate(287.01 161.04)"/><path class="b" d="M247.4,931.92c-9.64-4.29-19.59-7.92-27.91-14.8-14.63-12.09-21-28.08-22.08-46.44-1-16.69,1.43-33.28,2.2-49.91.88-19.18,2-38.39-1.17-57.46-3.38-20-16.07-33.53-31.47-45.46-23.22-18-43.13-38.85-54.73-66.56-3-7.14-4.85-14.26-4.57-22,.34-9.84,7.35-15.62,17.16-13.63,17.27,3.5,30.47,14.16,43.25,25.34,15.64,13.69,27.69,30.76,42.31,45.44,17.08,17.15,29.93,16,48.48,6.41a81.82,81.82,0,0,0,37.21-38.57c9.78-20.8,19.86-41.47,29.23-62.45,5.69-12.74,17.25-13.49,24.36-1.45a380.3,380.3,0,0,1,29.56,62.25c15,40.8,30.53,81.45,43.73,122.84,12.66,39.69,10.43,79.32-8.5,117.23-10.81,21.66-27.56,35.14-52.06,38a10.37,10.37,0,0,0-2.69,1.17Z" transform="translate(287.01 161.04)"/><path class="b" d="M1315.91,931.92c11.77-12.08,26.29-20.29,40.77-28.43,30-16.87,62.92-24.62,96.73-28.69,34.24-4.13,68.51-5.18,102.49,2.6a138.81,138.81,0,0,1,27.26,9.11c23.2,10.7,47.79,11.87,72.74,10.5,0,9.61-.39,19.25.15,28.83.29,5.24-1,6.23-6.23,6.22q-163.92-.28-327.84-.14Z" transform="translate(287.01 161.04)"/><path class="a" d="M1655.9,22.77C1632.85,17,1615.18,3.85,1604.05-17c-10.53-19.71-6.06-38.84,5.74-56.47a103.07,103.07,0,0,1,39.69-35.41c2-1,4-2.27,6.42-1.93Z" transform="translate(287.01 161.04)"/><path class="b" d="M760.41,931.92c20.54-7.51,42-10.91,63.61-12.76,30.14-2.58,60.07-1,89.39,7.18,4.81,1.33,9.84,2.39,14,5.58Z" transform="translate(287.01 161.04)"/><path class="b" d="M74.91,392.11c-.22,21.12-2.64,41.86-9.22,62A69.82,69.82,0,0,1,62,463.2C53.22,481,40.89,484.91,23.54,474.78-.06,461-18.32,441.33-33.72,419.27-64.56,375.09-84.25,326.18-92,272.76c-2.69-18.54-3.12-37.32.82-55.8,6.21-29.13,30.64-41.15,57.69-28.53,19.75,9.23,34.34,24.67,47.73,41.29A273.69,273.69,0,0,1,73.35,367.17C74.46,375.4,74.42,383.79,74.91,392.11Z" transform="translate(287.01 161.04)"/></svg>