<svg xmlns="http://www.w3.org/2000/svg" viewBox="0 0 1943.06 1093.13"><defs><style>.a{opacity:0;fill:#ffffff;}.b{fill:#ffffff;}</style></defs><title>1800f_00251</title><path class="a" d="M1655.9,326.32V446.23c-3.11,3.29-6.27,6.54-9.31,9.89-43,47.52-82.92,97.4-115.12,153.09-11,19-19.91,39.28-33.32,56.88-16.27,21.37-34.91,24.67-55.34,7.58-34.9-29.18-55.65-66.68-58-112.54-1.22-23.44-7.33-44.51-22.14-62.37a212.5,212.5,0,0,1-40.47-76.41c-8.39-28.29-27.33-40.65-56.92-40.08-21.09.4-40.74,7.44-60.22,14.3-28.64,10.09-57.7,11.11-87.47,7.89-17.08-1.85-34.44-2.43-51.48,0-39.33,5.72-71.64,25-95.62,56.13-29.66,38.56-32.54,76.27-2.13,116.16,21.65,28.39,51.94,42.78,87.46,45.68,25.82,2.11,50.79-3.1,75.61-9.53,14.64-3.79,28.86-9.6,44.16-10.45,9.33-.51,13,3.31,12.71,12.69-.32,11.12-4.43,21.2-9.4,30.94-8.9,17.45-20.45,33.18-33,48.09-25.1,29.88-45.67,62.31-59.4,99a128.37,128.37,0,0,1-17.26,32c-10.34,13.83-19.49,16.48-35.57,10.42-3.78-1.43-7.48-3.08-11.16-4.76-34.35-15.74-69.18-30-107.36-33.25-23.63-2-47.12-1.66-69.12,8.75-20.88,9.87-26.28,26.33-15.85,46.94,9,17.75,23.08,31.15,38,43.82,16.26,13.82,34.89,24,53.11,34.84H335.43c-9.5-4.33-19.84-5.58-29.9-7.49-34-6.45-62.73-21.9-86-47.53q-19.38-21.33-39.1-42.36c-29.42-31.4-59.42-62-96.3-85.14-44-27.53-90.55-36.69-141.5-24.85a939.2,939.2,0,0,0-130.13,40.58c-14.8,5.8-29.1,13-44.73,16.56-13.52,3-19.22-2-18-15.78a37.71,37.71,0,0,1,1.08-5.95c6.28-24.86,17.68-47.25,32.9-67.76,13.29-17.91,29.32-33.44,44.05-50.09,16.1-18.19,21.35-38,10.52-60.7-3.59-7.52-7.09-15.18-11.58-22.16-13.95-21.67-24.53-44.68-30.13-69.93-8.12-36.63-9-73.62-5.76-110.82,3-34.25,9.57-67.59,26.67-98,9.67-17.18,18.8-34.77,29.78-51.09,33.83-50.26,46.49-105.76,43.79-165.6-1-23.06-5.38-45.65-8.69-68.38-4.38-30.11,3.17-55.36,27.47-75,36.32-29.38,77.07-50.88,119.91-68.85,11.61-4.87,24.19-6.86,35.5-12.47q791.57,0,1583.13-.19c6.62,0,7.7,1.63,7.67,7.85-.28,56.13-.16,112.27-.16,168.4-4.45.75-6.76-2.58-9.58-5-12.22-10.33-19-24.74-28-37.47a52.2,52.2,0,0,0-27-19.68c-4.74-1.58-9.57-1.4-14.27-.82-7.11.87-10.36,8.55-7.59,17.5,4.69,15.16,15.24,26.71,25.14,38.36,12.71,15,22.64,31,24.93,50.79,1.5,13,2.58,26.13,3.21,39.23,2.26,47,5.75,93.82,13.78,140.24C1641.57,268,1646,297.76,1655.9,326.32ZM773.36,70a153.5,153.5,0,0,0-30.86,3.29c-17.37,3.49-34.71,7.34-49.69,17.6-8.62,5.91-14.81,13.79-13.42,24.65A46.75,46.75,0,0,0,699.48,149c12.6,8.89,26.75,12.44,41.88,14,33.91,3.4,71.13-23.86,77.43-57.25,2.36-12.51-3.21-23.89-14.47-29.73C794.57,70.91,784.05,70.09,773.36,70Z" transform="translate(287 161.07)"/><path class="b" d="M921.29,931.92c-18.22-10.82-36.85-21-53.11-34.84-14.9-12.67-29-26.07-38-43.82-10.43-20.61-5-37.07,15.85-46.94,22-10.41,45.49-10.79,69.12-8.75,38.18,3.29,73,17.51,107.36,33.25,3.68,1.68,7.38,3.33,11.16,4.76,16.08,6.06,25.23,3.41,35.57-10.42a128.37,128.37,0,0,0,17.26-32c13.73-36.68,34.3-69.11,59.4-99,12.51-14.91,24.06-30.64,33-48.09,5-9.74,9.08-19.82,9.4-30.94.27-9.38-3.38-13.2-12.71-12.69-15.3.85-29.52,6.66-44.16,10.45-24.82,6.43-49.79,11.64-75.61,9.53-35.52-2.9-65.81-17.29-87.46-45.68-30.41-39.89-27.53-77.6,2.13-116.16,24-31.17,56.29-50.41,95.62-56.13,17-2.47,34.4-1.89,51.48,0,29.77,3.22,58.83,2.2,87.47-7.89,19.48-6.86,39.13-13.9,60.22-14.3,29.59-.57,48.53,11.79,56.92,40.08a212.5,212.5,0,0,0,40.47,76.41c14.81,17.86,20.92,38.93,22.14,62.37,2.37,45.86,23.12,83.36,58,112.54,20.43,17.09,39.07,13.79,55.34-7.58,13.41-17.6,22.32-37.86,33.32-56.88,32.2-55.69,72.08-105.57,115.12-153.09,3-3.35,6.2-6.6,9.31-9.89q0,239.81.14,479.62c0,5.19-1,6.22-6.22,6.21Q1285.56,931.82,921.29,931.92Z" transform="translate(287 161.07)"/><path class="b" d="M65.26-160.88c-11.31,5.61-23.89,7.6-35.5,12.47-42.84,18-83.59,39.47-119.91,68.85-24.3,19.66-31.85,44.91-27.47,75,3.31,22.73,7.65,45.32,8.69,68.38,2.7,59.84-10,115.34-43.79,165.6-11,16.32-20.11,33.91-29.78,51.09-17.1,30.38-23.68,63.72-26.67,98-3.26,37.2-2.36,74.19,5.76,110.82,5.6,25.25,16.18,48.26,30.13,69.93,4.49,7,8,14.64,11.58,22.16,10.83,22.66,5.58,42.51-10.52,60.7-14.73,16.65-30.76,32.18-44.05,50.09-15.22,20.51-26.62,42.9-32.9,67.76a37.71,37.71,0,0,0-1.08,5.95c-1.22,13.74,4.48,18.82,18,15.78,15.63-3.52,29.93-10.76,44.73-16.56A939.2,939.2,0,0,1-57.39,724.55c51-11.84,97.54-2.68,141.5,24.85,36.88,23.1,66.88,53.74,96.3,85.14q19.71,21,39.1,42.36c23.29,25.63,52.06,41.08,86,47.53,10.06,1.91,20.4,3.16,29.9,7.49q-307.73,0-615.46.14c-5.69,0-7-1.28-7-7q.24-539.58,0-1079.14c0-5.69,1.28-7,7-7Q-107.38-160.73,65.26-160.88Z" transform="translate(287 161.07)"/><path class="b" d="M1655.9,326.32c-9.93-28.56-14.33-58.34-19.45-88-8-46.42-11.52-93.26-13.78-140.24C1622,85,1621,71.9,1619.46,58.88c-2.29-19.8-12.22-35.82-24.93-50.79-9.9-11.65-20.45-23.2-25.14-38.36-2.77-8.95.48-16.63,7.59-17.5,4.7-.58,9.53-.76,14.27.82a52.2,52.2,0,0,1,27,19.68c9,12.73,15.81,27.14,28,37.47,2.82,2.4,5.13,5.73,9.58,5Z" transform="translate(287 161.07)"/><path class="b" d="M773.36,70c10.69.09,21.21.91,31,6,11.26,5.84,16.83,17.22,14.47,29.73-6.3,33.39-43.52,60.65-77.43,57.25-15.13-1.52-29.28-5.07-41.88-14a46.75,46.75,0,0,1-20.09-33.44c-1.39-10.86,4.8-18.74,13.42-24.65,15-10.26,32.32-14.11,49.69-17.6A153.5,153.5,0,0,1,773.36,70Z" transform="translate(287 161.07)"/></svg>