<svg xmlns="http://www.w3.org/2000/svg" viewBox="0 0 1943.06 1093.1"><defs><style>.a{opacity:0;fill:#ffffff;}.b{fill:#ffffff;}</style></defs><title>1800f_00356</title><path class="a" d="M-286.86,154.82q0-154.66-.16-309.33c0-5.65,1.39-6.51,6.67-6.51q222.9.26,445.79.14c-1.2,2.77-2.25,5.62-3.63,8.3-22.79,44.24-34.07,91.15-32.62,141,1,34.35,1.79,68.71,3.32,103,1,22.68,2.53,45.38,7.3,67.69,4.71,22,13.05,42.37,27.52,60,14.33,17.45,31.82,18.68,48.3,3.12a129.34,129.34,0,0,0,19.05-22.55c29-43.84,57.44-88.08,82.87-134.12C338.85,27,356.9-13,368.45-55.79c9.31-34.49,10.63-70.37,18.58-105.09h854.51c.55,2.84-.41,5.49-1,8.2a472.38,472.38,0,0,0-8.36,58.48c-3.35,40.05-2.91,80.31-7.38,120.3C1220.47,65,1216.4,104,1206.39,142c-6.69,25.4-13,51-27.31,73.63-7.79,12.28-18.73,19.4-33.41,20.9-15.77,1.61-31.3-.42-46.76-2.75-39.57-5.95-78-16.95-116.49-27.52-22.75-6.24-42.78-16.58-58.25-34.88-2.58-3-5.95-5.46-9.11-8-3.69-2.93-7.37-2.62-11,.44-3.81,3.23-5.84,7.55-7.64,12a279.61,279.61,0,0,0-12.94,42.75c-2.66,11.92-3.55,24-1.62,36.13,4.5,28.42,19.68,48.84,46.13,60.42,44.86,19.65,92.1,30.2,140.58,35.19,25.6,2.64,51.12-.82,76-6.48,28.2-6.41,51.48.19,72,20.6,27.12,27,58.42,48.24,93.14,64.39,35.3,16.42,70.19,33.75,105.92,49.16,66.07,28.49,125.65,66,174.38,119.63,8.42,9.27,16,18.88,20.84,30.5,9.4,22.78,4.31,43.61-14.39,59.46-9.69,8.22-20.41,14.9-31.45,21.1-27.31,15.35-55.88,28.46-81.61,46.61-45.32,32-65.56,75.88-63.4,130.9.61,15.52,3.49,30.58,6.63,45.66H713.36c16.92-21.28,24.16-45.48,23.18-72.63-.69-19.29-3.86-38.16-7.46-57-7.26-38.06,12.26-64.73,50.32-69.54,15.92-2,31.8-1,47.69-1.14,11.39-.08,22.69-.35,33.93-2.52,29.73-5.73,55.48-19.78,79.58-37.44,25.33-18.56,51.21-36.2,80.57-48,18.77-7.52,37.69-14.66,56.44-22.22,45.62-18.4,87.42-44.35,131-66.79a100.21,100.21,0,0,0,27.84-20.76c18.6-20,16.5-44.85-5.32-61.09-13.91-10.36-30-14.07-47-14.72-32-1.22-62.16,7.34-91.49,18.69-49,18.95-99,33.47-151.35,39.75-30.13,3.61-60,8.72-88.43,20.16-26.36,10.62-50.35,25.81-75.36,39-42.34,22.4-79,51.67-109.63,88.51-16.65,20-33.51,40-54.48,55.75-34.79,26.12-70.72,50.61-107.32,74.11-16.56,10.63-34.11,19.28-54.33,19.14-35.93-.24-64.3-16-85.36-44.57C352.58,750,340,730.4,326.82,711.23c-7.17-10.45-14.81-20.52-24.57-28.73-10.41-8.75-19.94-7.43-27.58,3.76-6.32,9.28-10.29,19.64-13.61,30.31-10.39,33.39-9,67.52-5,101.47,4.52,38.41-.11,76.1-5.61,113.88q-265.3,0-530.61.16c-6,0-6.85-1.7-6.81-7.13.25-38.65.13-77.31.13-116,3.89-.3,7.13-2.39,10.59-3.86,42.19-18,85.18-33.06,131.31-37.55,30.17-2.94,58.57-11.59,82.37-31.35,31.22-25.9,59-55.21,84.15-87,14.29-18.09,27.4-37,34.5-59.25,1.83-5.72,3.33-11.65,2.31-17.75-1.78-10.58-9.35-16.4-18.16-20.79-9.75-4.86-19-10.08-27-17.89-18.24-18-32-39.2-44.11-61.34q-48.28-88.1-100.57-173.87c-24.74-40.55-51.62-79.21-88.06-110.28C-239.11,171.32-259.71,156.35-286.86,154.82Zm820.18,376.6c37.61.45,52.23-4.1,71.08-19.61a166.64,166.64,0,0,0,32.07-35.21c26.79-39.39,38.82-83.67,41.33-130.62,1.08-20.18-3.28-39.8-14.76-57.1-16.37-24.66-41.18-29.56-65.42-12.78-13.66,9.47-24.33,22-34.47,35-19.1,24.39-39.45,47.39-65.82,64.38-39.5,25.44-82.7,41.36-128.74,49.25-39.15,6.72-78,6.52-115.26-10.46-14.47-6.6-28.78-13.62-44.08-18.28-19.45-5.93-36.64-2.19-50.67,12.59-28.11,29.64-42.12,66.11-48.79,105.59-1.94,11.49.7,22.84,12.45,29.39a114,114,0,0,0,24.43,10.19c25.79,7.31,52.46,10.53,78.46,16.81,22.91,5.53,44,2,64.06-10a92.21,92.21,0,0,1,13.64-6.61c47.56-18.76,96.77-28.5,148-27.63C480.72,526.78,510.35,530.79,533.32,531.42Z" transform="translate(287.02 161.02)"/><path class="b" d="M1426.71,931.92c-3.14-15.08-6-30.14-6.63-45.66-2.16-55,18.08-98.93,63.4-130.9,25.73-18.15,54.3-31.26,81.61-46.61,11-6.2,21.76-12.88,31.45-21.1,18.7-15.85,23.79-36.68,14.39-59.46-4.8-11.62-12.42-21.23-20.84-30.5-48.73-53.63-108.31-91.14-174.38-119.63-35.73-15.41-70.62-32.74-105.92-49.16-34.72-16.15-66-37.43-93.14-64.39-20.52-20.41-43.8-27-72-20.6-24.92,5.66-50.44,9.12-76,6.48-48.48-5-95.72-15.54-140.58-35.19-26.45-11.58-41.63-32-46.13-60.42-1.93-12.13-1-24.21,1.62-36.13a279.61,279.61,0,0,1,12.94-42.75c1.8-4.48,3.83-8.8,7.64-12,3.59-3.06,7.27-3.37,11-.44,3.16,2.5,6.53,4.91,9.11,8,15.47,18.3,35.5,28.64,58.25,34.88,38.51,10.57,76.92,21.57,116.49,27.52,15.46,2.33,31,4.36,46.76,2.75,14.68-1.5,25.62-8.62,33.41-20.9,14.33-22.59,20.62-48.23,27.31-73.63,10-38,14.08-77,18.42-115.91,4.47-40,4-80.25,7.38-120.3a472.38,472.38,0,0,1,8.36-58.48c.58-2.71,1.54-5.36,1-8.2h191.24c.36,3.18-1.33,5.87-2.19,8.74a203.47,203.47,0,0,0-7.51,83.3c6.93,57.25,19.13,113.58,32.68,169.61a329.61,329.61,0,0,0,14.42,46.3c15.88,39.15,48.51,57.32,86.62,68.24,32.36,9.27,66,8.79,99.1,12.36q0,348.71.14,697.42c0,5.69-1.28,7-7,7C1575,931.84,1500.83,931.92,1426.71,931.92Z" transform="translate(287.02 161.02)"/><path class="b" d="M250.43,931.92c5.5-37.78,10.13-75.47,5.61-113.88-4-33.95-5.37-68.08,5-101.47,3.32-10.67,7.29-21,13.61-30.31,7.64-11.19,17.17-12.51,27.58-3.76,9.76,8.21,17.4,18.28,24.57,28.73C340,730.4,352.58,750,366.37,768.68c21.06,28.56,49.43,44.33,85.36,44.57,20.22.14,37.77-8.51,54.33-19.14,36.6-23.5,72.53-48,107.32-74.11,21-15.76,37.83-35.73,54.48-55.75,30.67-36.84,67.29-66.11,109.63-88.51,25-13.23,49-28.42,75.36-39,28.39-11.44,58.3-16.55,88.43-20.16,52.33-6.28,102.35-20.8,151.35-39.75,29.33-11.35,59.48-19.91,91.49-18.69,17,.65,33.1,4.36,47,14.72,21.82,16.24,23.92,41.08,5.32,61.09a100.21,100.21,0,0,1-27.84,20.76c-43.58,22.44-85.38,48.39-131,66.79-18.75,7.56-37.67,14.7-56.44,22.22-29.36,11.76-55.24,29.4-80.57,48-24.1,17.66-49.85,31.71-79.58,37.44-11.24,2.17-22.54,2.44-33.93,2.52-15.89.12-31.77-.87-47.69,1.14-38.06,4.81-57.58,31.48-50.32,69.54,3.6,18.85,6.77,37.72,7.46,57,1,27.15-6.26,51.35-23.18,72.63Z" transform="translate(287.02 161.02)"/><path class="b" d="M-286.86,154.82c27.15,1.53,47.75,16.5,67.36,33.22,36.44,31.07,63.32,69.73,88.06,110.28q52.35,85.77,100.57,173.87C-18.74,494.33-5,515.56,13.24,533.53c7.93,7.81,17.22,13,27,17.89,8.81,4.39,16.38,10.21,18.16,20.79,1,6.1-.48,12-2.31,17.75-7.1,22.28-20.21,41.16-34.5,59.25-25.13,31.8-52.93,61.11-84.15,87-23.8,19.76-52.2,28.41-82.37,31.35-46.13,4.49-89.12,19.53-131.31,37.55-3.46,1.47-6.7,3.56-10.59,3.86Z" transform="translate(287.02 161.02)"/><path class="b" d="M387-160.88c-7.95,34.72-9.27,70.6-18.58,105.09C356.9-13,338.85,27,317.55,65.58c-25.43,46-53.84,90.28-82.87,134.12a129.34,129.34,0,0,1-19.05,22.55c-16.48,15.56-34,14.33-48.3-3.12-14.47-17.62-22.81-37.95-27.52-60-4.77-22.31-6.29-45-7.3-67.69-1.53-34.33-2.32-68.69-3.32-103-1.45-49.84,9.83-96.75,32.62-141,1.38-2.68,2.43-5.53,3.63-8.3Z" transform="translate(287.02 161.02)"/><path class="a" d="M1655.9,227.67c-33.11-3.57-66.74-3.09-99.1-12.36-38.11-10.92-70.74-29.09-86.62-68.24a329.61,329.61,0,0,1-14.42-46.3c-13.55-56-25.75-112.36-32.68-169.61a203.47,203.47,0,0,1,7.51-83.3c.86-2.87,2.55-5.56,2.19-8.74h101.69a13,13,0,0,0,1.46,2.59c32.54,35.1,61.39,73.06,88,112.84,10.06,15,20,30.26,32,43.93Z" transform="translate(287.02 161.02)"/><path class="b" d="M1655.9-1.52c-12-13.67-21.93-28.89-32-43.93-26.59-39.78-55.44-77.74-88-112.84a13,13,0,0,1-1.46-2.59c38.71,0,77.41.09,116.11-.13,4.53,0,5.46.91,5.44,5.44C1655.82-104.22,1655.9-52.87,1655.9-1.52Z" transform="translate(287.02 161.02)"/><path class="b" d="M533.32,531.42c-23-.63-52.6-4.64-82.45-5.15-51.27-.87-100.48,8.87-148,27.63a92.21,92.21,0,0,0-13.64,6.61c-20,12.06-41.15,15.58-64.06,10-26-6.28-52.67-9.5-78.46-16.81a114,114,0,0,1-24.43-10.19c-11.75-6.55-14.39-17.9-12.45-29.39,6.67-39.48,20.68-75.95,48.79-105.59,14-14.78,31.22-18.52,50.67-12.59,15.3,4.66,29.61,11.68,44.08,18.28,37.25,17,76.11,17.18,115.26,10.46,46-7.89,89.24-23.81,128.74-49.25,26.37-17,46.72-40,65.82-64.38,10.14-13,20.81-25.53,34.47-35,24.24-16.78,49-11.88,65.42,12.78,11.48,17.3,15.84,36.92,14.76,57.1-2.51,46.95-14.54,91.23-41.33,130.62a166.64,166.64,0,0,1-32.07,35.21C585.55,527.32,570.93,531.87,533.32,531.42Z" transform="translate(287.02 161.02)"/></svg>