<svg xmlns="http://www.w3.org/2000/svg" viewBox="0 0 1366.3 768.29"><defs><style>.a{opacity:0;fill:#ffffff;}.b{fill:#ffffff;}</style></defs><title>1800f_00058</title><path class="a" d="M1367.52,447.75v74.37c-19,5.14-38,10.14-57,15.47-29.43,8.29-58.72,17-85.52,32.3-30.49,17.44-41.6,38.16-35.23,72.19,7,37.5,8.77,75.12,7.53,113.07-.15,4.78.12,9.58.2,14.37h-900c-9.3-5.21-19.42-8.47-29.4-12C229.46,744,189.44,737.07,148.85,733c-10.3-1-20.65-2.11-30.54-5.38-3.74-1.24-8.39-2.4-8.83-7.23-.39-4.29,3.4-6.46,6.52-8.63a71.28,71.28,0,0,1,19-9.25C190.59,684.84,239.64,656,283.67,618c31.22-26.93,49.61-59.43,50.84-101.72,1-35.51-1.91-70.72-4.08-106-1.15-18.62-9.17-33-32.28-35.67-6-.7-11.59-3.48-17-6.3-22-11.47-38.11-29.75-54.66-47.5-9-9.68-16.61-20.33-21.49-32.76a419.13,419.13,0,0,0-32-65.28c-11.73-19.23-22.21-39.13-32.22-59.3-14.26-28.76-27.39-58.11-44.25-85.54a71.79,71.79,0,0,1-5.85-11.45c-3.23-8.24-1.24-11.84,7.26-13.62a36.55,36.55,0,0,1,9-1c11.87.51,23.73,1.15,35.57,2,45.65,3.25,88.07-5.81,125.38-33.45,7.14-5.29,14.9-10.36,19-18.89H903.08c1.21,5.2,5.36,8.36,8.58,12.09,20.7,23.94,46.65,41.67,71.57,60.67,34.4,26.21,68.33,52.93,95,87.65,35.6,46.4,64.82,95.59,75.11,154.48,4.48,25.65,13.79,50.16,26.54,73.1,14.66,26.39,34.41,46.35,66,50.34a679.51,679.51,0,0,0,68.71,5.39C1332.21,445.67,1350,445,1367.52,447.75Zm-479.7,51.68c.37-4-1-8.87-2.71-13.65-12.74-34.8-58.53-50-90.7-29.47-16.09,10.27-32.75,18.95-50.86,24.91a50.32,50.32,0,0,0-15.5,7.83c-7.69,6-7.16,13.11,1.17,18.16,6.2,3.76,13.06,5.36,20.2,5.82,20,1.29,39.63,4,58.67,10.65,12.61,4.4,25.13,9.27,38.44,11.38C868.81,538.59,887.5,523,887.82,499.43ZM783.81,686c13.76.26,26.64-2.54,37.77-11.07,12.16-9.31,14.44-23.45,5.1-35.22-31.22-39.36-86-26.85-106.76-1.76-7.63,9.22-6.81,19.39,1.72,27.79a45.74,45.74,0,0,0,12.5,8.42A121.47,121.47,0,0,0,783.81,686Z" transform="translate(-1.37 -1.37)"/><path class="b" d="M286.86,1.52c-4.1,8.53-11.86,13.6-19,18.89-37.31,27.64-79.73,36.7-125.38,33.45-11.84-.85-23.7-1.49-35.57-2a36.55,36.55,0,0,0-9,1c-8.5,1.78-10.49,5.38-7.26,13.62A71.79,71.79,0,0,0,96.5,77.89c16.86,27.43,30,56.78,44.25,85.54,10,20.17,20.49,40.07,32.22,59.3A419.13,419.13,0,0,1,205,288c4.88,12.43,12.46,23.08,21.49,32.76,16.55,17.75,32.65,36,54.66,47.5,5.41,2.82,11,5.6,17,6.3,23.11,2.68,31.13,17.05,32.28,35.67,2.17,35.29,5.1,70.5,4.08,106C333.28,558.54,314.89,591,283.67,618c-44,38-93.08,66.87-148.63,84.51a71.28,71.28,0,0,0-19,9.25c-3.12,2.17-6.91,4.34-6.52,8.63.44,4.83,5.09,6,8.83,7.23,9.89,3.27,20.24,4.34,30.54,5.38,40.59,4.1,80.61,11,119.23,24.57,10,3.51,20.1,6.77,29.4,12q-144.95,0-289.89.14c-5.2,0-6.24-1-6.22-6.22.23-62.22.15-124.45.15-186.68,12.22-20.14,17.16-42.28,18.11-65.54,1.06-25.81-2.47-51.33-5.17-76.86C13,420.85,9.63,407.59,1.52,396.14q0-194.26-.15-388.55c0-5.2,1-6.23,6.22-6.22Q147.23,1.69,286.86,1.52Z" transform="translate(-1.37 -1.37)"/><path class="b" d="M1367.52,447.75c-17.55-2.79-35.31-2.08-53-2.51a679.51,679.51,0,0,1-68.71-5.39c-31.59-4-51.34-24-66-50.34-12.75-22.94-22.06-47.45-26.54-73.1-10.29-58.89-39.51-108.08-75.11-154.48-26.65-34.72-60.58-61.44-95-87.65-24.92-19-50.87-36.73-71.57-60.67-3.22-3.73-7.37-6.89-8.58-12.09h349.09c10.4,13.4,22.42,25.33,34,37.7,12.54,13.45,20.74,28.75,18.6,47.8a235.93,235.93,0,0,1-4.89,29.1c-9.72,40.35-1.5,76.58,24.19,109,12.9,16.28,25,20.31,43.49,14.72Z" transform="translate(-1.37 -1.37)"/><path class="b" d="M1197.53,769.52c-.08-4.79-.35-9.59-.2-14.37,1.24-37.95-.49-75.57-7.53-113.07-6.37-34,4.74-54.75,35.23-72.19,26.8-15.33,56.09-24,85.52-32.3,18.94-5.33,38-10.33,57-15.47q0,120.66.15,241.32c0,5.2-1,6.25-6.22,6.23C1306.81,769.42,1252.17,769.52,1197.53,769.52Z" transform="translate(-1.37 -1.37)"/><path class="a" d="M1367.52,239.81c-18.51,5.59-30.59,1.56-43.49-14.72-25.69-32.39-33.91-68.62-24.19-109a235.93,235.93,0,0,0,4.89-29.1c2.14-19-6.06-34.35-18.6-47.8-11.54-12.37-23.56-24.3-34-37.7,36.68,0,73.36.1,110-.13,4.54,0,5.45.92,5.44,5.44Q1367.39,123.32,1367.52,239.81Z" transform="translate(-1.37 -1.37)"/><path class="a" d="M1.52,396.14C9.63,407.59,13,420.85,14.46,434.36c2.7,25.53,6.23,51.05,5.17,76.86-.95,23.26-5.89,45.4-18.11,65.54Z" transform="translate(-1.37 -1.37)"/><path class="b" d="M887.82,499.43c-.32,23.56-19,39.16-41.29,35.63-13.31-2.11-25.83-7-38.44-11.38-19-6.64-38.7-9.36-58.67-10.65-7.14-.46-14-2.06-20.2-5.82-8.33-5-8.86-12.13-1.17-18.16a50.32,50.32,0,0,1,15.5-7.83c18.11-6,34.77-14.64,50.86-24.91,32.17-20.52,78-5.33,90.7,29.47C886.86,490.56,888.19,495.42,887.82,499.43Z" transform="translate(-1.37 -1.37)"/><path class="b" d="M783.81,686a121.47,121.47,0,0,1-49.67-11.84,45.74,45.74,0,0,1-12.5-8.42c-8.53-8.4-9.35-18.57-1.72-27.79,20.78-25.09,75.54-37.6,106.76,1.76,9.34,11.77,7.06,25.91-5.1,35.22C810.45,683.5,797.57,686.3,783.81,686Z" transform="translate(-1.37 -1.37)"/></svg>