<svg xmlns="http://www.w3.org/2000/svg" viewBox="0 0 1366.3 768.29"><defs><style>.a{opacity:0;fill:#ffffff;}.b{fill:#ffffff;}</style></defs><title>1800f_00055</title><path class="a" d="M1367.52,438.64V513c-2.59-1-5,.12-7.32.84-28.25,8.59-56.56,17-84.2,27.44-19.89,7.53-39.15,16.26-56.41,28.94-16.52,12.15-26.41,27.86-28.44,48.68-1.5,15.43-.26,30.72,0,46.09.5,34.83.28,69.68.35,104.52H309.63c-.79-1.84-2.66-2.23-4.18-3-45.52-24-94.34-37-145-44.16-12.25-1.72-24.66-2.44-36.62-5.87-3.16-.91-7-1.85-7.66-5.41-.75-4.11,3.13-6.18,6.07-7.83a109.49,109.49,0,0,1,17.08-8.15C188.47,678,230.86,649.43,271.9,618.2c39.15-29.8,58.92-67.68,56.21-117.6-1.56-28.84-5.81-57.26-9-85.86-2.14-19.13-9-35.34-23.47-48.58-8.34-7.65-15.16-16.93-22.95-25.21-14-14.88-27-31.2-47-38.64-15.8-5.88-27.19-15.9-34.29-31.2-14.59-31.4-29.63-62.6-44.1-94.06-16.67-36.26-29.84-74.13-50.22-108.68a28.79,28.79,0,0,1-2.23-4.81c-3-8.09-.73-12.06,7.63-13.51a83.24,83.24,0,0,1,21.15-.88c28.5,2.37,56.62.25,83.93-8.52,24.8-8,47.65-19.53,65.61-39.13H901.56c3,8.34,9.65,14,15.21,20.36,21.29,24.43,47.94,42.57,73.51,62,37.35,28.33,73,58.07,100.72,96.8,27,37.71,49.27,76.68,55.88,123.62,3.73,26.53,11.77,52.21,25.09,75.92,16,28.48,37.67,49.48,71.33,54.54a332,332,0,0,0,49.12,3.74Q1330,438.49,1367.52,438.64Zm-551.19-.38c-13.18-.23-24.35,5.22-35,11.63a205.56,205.56,0,0,1-43.44,19.56A261.2,261.2,0,0,0,712.34,479c-7.74,3.42-8.14,7.14-2.42,13.17,8.2,8.66,18.61,13.2,30.11,14.65,29,3.64,56.85,11.66,84.31,21.35a129.32,129.32,0,0,0,19.76,5.17c16.25,3,30.3-.78,39.79-15.28s8.64-29.83-1.29-43.32C866.3,452.6,843.23,441.59,816.33,438.26Zm-40.23,170c-19.28.1-33.22,4.68-44.7,15.22-12.92,11.86-12.23,26,1.84,36.61a95.16,95.16,0,0,0,58.57,19.56A40.61,40.61,0,0,0,816,672.1c10.9-7.8,14.44-19.52,8.18-31.28C813.22,620.23,795.68,609.49,776.1,608.27Z" transform="translate(-1.37 -1.37)"/><path class="b" d="M273.2,1.52c-18,19.6-40.81,31.17-65.61,39.13-27.31,8.77-55.43,10.89-83.93,8.52a83.24,83.24,0,0,0-21.15.88c-8.36,1.45-10.61,5.42-7.63,13.51a28.79,28.79,0,0,0,2.23,4.81c20.38,34.55,33.55,72.42,50.22,108.68,14.47,31.46,29.51,62.66,44.1,94.06,7.1,15.3,18.49,25.32,34.29,31.2,19.95,7.44,33,23.76,47,38.64,7.79,8.28,14.61,17.56,22.95,25.21,14.43,13.24,21.33,29.45,23.47,48.58,3.19,28.6,7.44,57,9,85.86,2.71,49.92-17.06,87.8-56.21,117.6-41,31.23-83.43,59.75-132.57,76.87a109.49,109.49,0,0,0-17.08,8.15c-2.94,1.65-6.82,3.72-6.07,7.83.65,3.56,4.5,4.5,7.66,5.41,12,3.43,24.37,4.15,36.62,5.87,50.65,7.11,99.47,20.21,145,44.16,1.52.8,3.39,1.19,4.18,3q-151,0-302,.14c-5.2,0-6.24-1-6.22-6.22.22-69.31.15-138.62.15-207.93,1.42-4.56,3.19-9,4.22-13.69,7.7-34.64,6.87-69.77,5.38-104.85-.54-12.58-3-25.09-9.6-36.27q0-196.56-.15-393.11c0-5.2,1-6.23,6.22-6.22Q140.4,1.69,273.2,1.52Z" transform="translate(-1.37 -1.37)"/><path class="b" d="M1367.52,438.64q-37.56-.09-75.1-.18a332,332,0,0,1-49.12-3.74c-33.66-5.06-55.33-26.06-71.33-54.54-13.32-23.71-21.36-49.39-25.09-75.92-6.61-46.94-28.91-85.91-55.88-123.62-27.68-38.73-63.37-68.47-100.72-96.8-25.57-19.39-52.22-37.53-73.51-62-5.56-6.37-12.23-12-15.21-20.36h349.09c9.7,12.68,21.35,23.55,32.91,34.4,18.46,17.33,24.63,37.68,19.5,62.48-4.48,21.71-8.84,43.55-5.36,66.08,3.75,24.29,11.85,46.57,28.76,64.77,10.11,10.87,22.24,15.68,36.74,8,1.34-.72,2.78-1.26,4.32-.43Z" transform="translate(-1.37 -1.37)"/><path class="b" d="M1191.46,769.52c-.07-34.84.15-69.69-.35-104.52-.22-15.37-1.46-30.66,0-46.09,2-20.82,11.92-36.53,28.44-48.68,17.26-12.68,36.52-21.41,56.41-28.94,27.64-10.47,56-18.85,84.2-27.44,2.37-.72,4.73-1.86,7.32-.84q0,125.22.15,250.43c0,5.2-1,6.25-6.22,6.23C1304.78,769.43,1248.12,769.52,1191.46,769.52Z" transform="translate(-1.37 -1.37)"/><path class="a" d="M1367.52,236.78c-1.54-.83-3-.29-4.32.43-14.5,7.72-26.63,2.91-36.74-8-16.91-18.2-25-40.48-28.76-64.77-3.48-22.53.88-44.37,5.36-66.08,5.13-24.8-1-45.15-19.5-62.48-11.56-10.85-23.21-21.72-32.91-34.4,37.18,0,74.37.1,111.55-.13,4.54,0,5.45.92,5.44,5.44Q1367.39,121.81,1367.52,236.78Z" transform="translate(-1.37 -1.37)"/><path class="a" d="M1.52,400.7c6.6,11.18,9.06,23.69,9.6,36.27,1.49,35.08,2.32,70.21-5.38,104.85-1,4.64-2.8,9.13-4.22,13.69Z" transform="translate(-1.37 -1.37)"/><path class="b" d="M816.33,438.26c26.9,3.33,50,14.34,66.27,36.47,9.93,13.49,10.83,28.73,1.29,43.32s-23.54,18.26-39.79,15.28a129.32,129.32,0,0,1-19.76-5.17c-27.46-9.69-55.3-17.71-84.31-21.35-11.5-1.45-21.91-6-30.11-14.65-5.72-6-5.32-9.75,2.42-13.17a261.2,261.2,0,0,1,25.54-9.54,205.56,205.56,0,0,0,43.44-19.56C792,443.48,803.15,438,816.33,438.26Z" transform="translate(-1.37 -1.37)"/><path class="b" d="M776.1,608.27c19.58,1.22,37.12,12,48.09,32.55,6.26,11.76,2.72,23.48-8.18,31.28a40.61,40.61,0,0,1-24.2,7.56,95.16,95.16,0,0,1-58.57-19.56c-14.07-10.66-14.76-24.75-1.84-36.61C742.88,613,756.82,608.37,776.1,608.27Z" transform="translate(-1.37 -1.37)"/></svg>