<svg xmlns="http://www.w3.org/2000/svg" viewBox="0 0 1943.04 1093.09"><defs><style>.a{opacity:0;fill:#ffffff;}.b{fill:#ffffff;}</style></defs><title>1800f_00355</title><path class="a" d="M-286.86,151.78q0-153.3-.15-306.59c0-5.2,1-6.22,6.22-6.22q213.26.27,426.5.15c.46,3.69-2.3,6-3.92,8.73a138.9,138.9,0,0,0-12.91,27.38C117-88.83,117.74-52,122.36-15.2c5,39.39,5.54,78.52-1.78,117.68-3.49,18.65-6.37,37.72-2.71,56.47,6.31,32.41,28.14,53.24,55.67,68.87,8.23,4.67,16.94,4.1,25.42-.17,9.28-4.67,16.61-11.71,22.53-19.92a1259,1259,0,0,0,94.76-153.4c35.39-67.64,54.59-140,64.71-215.21h845.4c-5.82,25.47-8.5,51.32-9.48,77.39-1.5,39.64-1.49,79.34-7.17,118.77-6.24,43.39-14.11,86.31-29.83,127.44-4.25,11.11-8.81,22.07-15.83,31.82-7.8,10.82-18,17.18-31.6,15.88A486.27,486.27,0,0,0,1078,208c-11.88.2-23.76.34-35.62-.92-34.72-3.69-69.08-9.32-102.9-18.15-10.06-2.62-19.55-.64-25.62,8.43-14.32,21.41-17.63,44.36-6.9,68.31,9.93,22.17,28.62,34.87,50.1,43.93,54.64,23,111,26.85,168.76,14.7,12.58-2.65,25.3-5.25,38.33-3.24,17.25,2.66,31.19,11.86,43.39,23.47,34.53,32.84,74,57.57,117.88,76.07,43.08,18.19,85.73,37.38,128.53,56.23,39.25,17.29,74.09,40.41,99.71,75.7,12.2,16.8,24.19,33.74,33,52.62,12.88,27.6,8.34,50.73-13.84,71.49-4.25,4-8.68,7.76-13.24,11.36-26,20.54-54.13,38.25-78.72,60.6-46.81,42.55-68.45,95.33-64.43,158.5.53,8.28,1.81,16.52,2.74,24.78H714.87a16.56,16.56,0,0,1,2.12-3c12.07-11,16.61-24.85,16.24-40.86-.4-17.54-6.09-33.73-12.27-49.78-8.08-21-17.6-41.34-24.64-62.78-13-39.6,26.73-94.26,78.72-84,17.92,3.55,35.25,9,52.48,14.72,28.44,9.39,55.3,7.06,80.77-8.7,10.08-6.25,20-12.84,29.56-19.86,28.33-20.77,58.26-38.35,92.3-48.07,59.72-17.05,115.34-43.49,169-74.32,18.28-10.51,35.54-22.5,46.75-41.15,10.7-17.77,8.42-37.4-6.16-52.13-14.19-14.35-32.23-19.49-51.69-20.19-31.77-1.13-61.43,8.33-90.52,19.6-50.57,19.6-102.22,35.19-155.78,44.3-31.14,5.3-62.31,10.73-91.81,22.69-27.53,11.17-52.35,27.41-78.12,41.91-40.54,22.81-76.38,51-105.53,87.58-18.36,23-38.41,44.44-64.27,59.36C562.55,740,524.51,764.94,487.17,791c-20.26,14.15-41.85,25.88-67.17,27.83-26,2-59.27-7.86-71.22-41.21-6.38-17.81-12.69-35.74-21-52.83-6.72-13.89-13.42-27.83-24.93-38.63-9.58-9-19-8.62-27.37,1.4-6.07,7.24-9.85,15.83-13.26,24.58-11.73,30.11-12.56,61.45-8.08,92.67,6.18,43.14-.1,85.09-8.29,127.1H-51.6c-1.29-2.7-2.1-5.8-4-8-6-7.16-12.35-14.8-23.16-12.09-10.11,2.53-11.55,11.35-12.35,20.11q-95,0-190,.11c-4.57,0-5.91-.82-5.89-5.72.24-43.67.14-87.33.14-131,2.61-.87,5.31-1.54,7.83-2.64,45.06-19.66,91.46-35.31,139.5-45.86a161.94,161.94,0,0,0,70.62-34.91c11.23-9.45,21.67-19.75,32.68-29.41,30.1-26.41,57.05-55.74,82.28-86.76,11.16-13.72,22.69-27.68,42.1-29.45A298.06,298.06,0,0,1,125.22,565a447.9,447.9,0,0,0,65-2c26.18-2.93,52-7.62,75.81-19.92,49.73-25.74,103.2-30.17,157.88-27.78,30.8,1.35,61.52,4.84,92.41,3.7,26.31-1,51.24-6.76,72.46-23.21,47.38-36.73,73.89-85.65,81.76-144.58,3.08-23.05-.78-45.44-14.43-65.22-17.66-25.56-44.41-30.42-69.76-12.58a128.23,128.23,0,0,0-25.09,23c-27.43,33.13-58.48,61.48-99,78.09-24.34,10-48.85,19.44-73.94,27.34a341.78,341.78,0,0,1-36.68,9.41c-33.15,6.56-62.27-3.42-89.87-21-16.4-10.43-31.56-22.85-49.25-31.24-13.37-6.34-26.33-5.81-38.87,2.39-9.61,6.28-17.67,14.19-25.11,22.87-19.43,22.67-33,49-46.55,75.24-11.15,21.55-21.06,43.7-32.37,65.19-12,22.89-38.54,24.55-52.33,15.86C10.4,536.24,4.9,530.19,0,523.74c-16.89-22.3-29.18-47.24-41.13-72.37-8.47-17.81-16.29-35.92-25.82-53.22-16.72-30.34-34.82-59.87-52.77-89.49-25.37-41.87-52.58-82.26-89.63-115C-231.94,173.65-255.84,156.15-286.86,151.78Z" transform="translate(287.01 161.03)"/><path class="b" d="M1419.12,931.92c-.93-8.26-2.21-16.5-2.74-24.78-4-63.17,17.62-115.95,64.43-158.5,24.59-22.35,52.74-40.06,78.72-60.6,4.56-3.6,9-7.39,13.24-11.36,22.18-20.76,26.72-43.89,13.84-71.49-8.81-18.88-20.8-35.82-33-52.62-25.62-35.29-60.46-58.41-99.71-75.7-42.8-18.85-85.45-38-128.53-56.23-43.83-18.5-83.35-43.23-117.88-76.07-12.2-11.61-26.14-20.81-43.39-23.47-13-2-25.75.59-38.33,3.24-57.77,12.15-114.12,8.34-168.76-14.7-21.48-9.06-40.17-21.76-50.1-43.93-10.73-23.95-7.42-46.9,6.9-68.31,6.07-9.07,15.56-11.05,25.62-8.43,33.82,8.83,68.18,14.46,102.9,18.15,11.86,1.26,23.74,1.12,35.62.92a486.27,486.27,0,0,1,54.5,2.38c13.61,1.3,23.8-5.06,31.6-15.88,7-9.75,11.58-20.71,15.83-31.82,15.72-41.13,23.59-84,29.83-127.44,5.68-39.43,5.67-79.13,7.17-118.77,1-26.07,3.66-51.92,9.48-77.39h198.83c-8,26.13-10.33,52.93-9.33,80.1,1.25,33.94,7.74,67.16,14.1,100.37,7.6,39.69,16.39,79.07,31.78,116.7,12.61,30.82,33.88,52,65.47,63,29.1,10.12,59,13.19,89.52,10.62,13.06-1.1,26.11-2.33,39.17-3.5q0,359.34.14,718.67c0,5.69-1.28,7-7,7Q1534.1,931.75,1419.12,931.92Z" transform="translate(287.01 161.03)"/><path class="b" d="M-286.86,151.78c31,4.37,54.92,21.87,77.53,41.85,37.05,32.77,64.26,73.16,89.63,115,18,29.62,36.05,59.15,52.77,89.49,9.53,17.3,17.35,35.41,25.82,53.22,12,25.13,24.24,50.07,41.13,72.37,4.88,6.45,10.38,12.5,17.28,16.85,13.79,8.69,40.29,7,52.33-15.86,11.31-21.49,21.22-43.64,32.37-65.19,13.6-26.27,27.12-52.57,46.55-75.24,7.44-8.68,15.5-16.59,25.11-22.87,12.54-8.2,25.5-8.73,38.87-2.39,17.69,8.39,32.85,20.81,49.25,31.24,27.6,17.56,56.72,27.54,89.87,21a341.78,341.78,0,0,0,36.68-9.41c25.09-7.9,49.6-17.36,73.94-27.34,40.53-16.61,71.58-45,99-78.09a128.23,128.23,0,0,1,25.09-23c25.35-17.84,52.1-13,69.76,12.58,13.65,19.78,17.51,42.17,14.43,65.22-7.87,58.93-34.38,107.85-81.76,144.58C567.58,512.23,542.65,518,516.34,519c-30.89,1.14-61.61-2.35-92.41-3.7-54.68-2.39-108.15,2-157.88,27.78-23.77,12.3-49.63,17-75.81,19.92a447.9,447.9,0,0,1-65,2,298.06,298.06,0,0,0-37.07,1.27c-19.41,1.77-30.94,15.73-42.1,29.45-25.23,31-52.18,60.35-82.28,86.76-11,9.66-21.45,20-32.68,29.41a161.94,161.94,0,0,1-70.62,34.91c-48,10.55-94.44,26.2-139.5,45.86-2.52,1.1-5.22,1.77-7.83,2.64Z" transform="translate(287.01 161.03)"/><path class="b" d="M245.88,931.92c8.19-42,14.47-84,8.29-127.1-4.48-31.22-3.65-62.56,8.08-92.67,3.41-8.75,7.19-17.34,13.26-24.58,8.39-10,17.79-10.4,27.37-1.4,11.51,10.8,18.21,24.74,24.93,38.63,8.28,17.09,14.59,35,21,52.83C360.73,811,394,820.85,420,818.84c25.32-2,46.91-13.68,67.17-27.83,37.34-26.07,75.38-51,114.83-73.77,25.86-14.92,45.91-36.34,64.27-59.36,29.15-36.54,65-64.77,105.53-87.58,25.77-14.5,50.59-30.74,78.12-41.91,29.5-12,60.67-17.39,91.81-22.69,53.56-9.11,105.21-24.7,155.78-44.3,29.09-11.27,58.75-20.73,90.52-19.6,19.46.7,37.5,5.84,51.69,20.19,14.58,14.73,16.86,34.36,6.16,52.13-11.21,18.65-28.47,30.64-46.75,41.15-53.64,30.83-109.26,57.27-169,74.32-34,9.72-64,27.3-92.3,48.07-9.56,7-19.48,13.61-29.56,19.86-25.47,15.76-52.33,18.09-80.77,8.7C810.29,700.52,793,695.05,775,691.5c-52-10.29-91.71,44.37-78.72,84,7,21.44,16.56,41.81,24.64,62.78,6.18,16,11.87,32.24,12.27,49.78.37,16-4.17,29.88-16.24,40.86a16.56,16.56,0,0,0-2.12,3h-211c-25.8-15.23-51.6-15.86-77.4,0Z" transform="translate(287.01 161.03)"/><path class="b" d="M381-160.88C370.84-85.71,351.64-13.31,316.25,54.33a1259,1259,0,0,1-94.76,153.4c-5.92,8.21-13.25,15.25-22.53,19.92-8.48,4.27-17.19,4.84-25.42.17C146,212.19,124.18,191.36,117.87,159c-3.66-18.75-.78-37.82,2.71-56.47,7.32-39.16,6.73-78.29,1.78-117.68C117.74-52,117-88.83,128.88-124.77a138.9,138.9,0,0,1,12.91-27.38c1.62-2.71,4.38-5,3.92-8.73Z" transform="translate(287.01 161.03)"/><path class="a" d="M1655.9,206.42c-13.06,1.17-26.11,2.4-39.17,3.5-30.56,2.57-60.42-.5-89.52-10.62-31.59-11-52.86-32.19-65.47-63-15.39-37.63-24.18-77-31.78-116.7-6.36-33.21-12.85-66.43-14.1-100.37-1-27.17,1.33-54,9.33-80.1h112.32c28.63,34.44,55.58,70.08,78.51,108.66,12.89,21.7,25.51,43.57,39.88,64.36Z" transform="translate(287.01 161.03)"/><path class="b" d="M1655.9,12.14c-14.37-20.79-27-42.66-39.88-64.36-22.93-38.58-49.88-74.22-78.51-108.66,37.69,0,75.38.1,113.07-.13,4.53,0,5.46.91,5.44,5.44C1655.83-99.67,1655.9-43.76,1655.9,12.14Z" transform="translate(287.01 161.03)"/><path class="b" d="M-91.07,931.92c.8-8.76,2.24-17.58,12.35-20.11,10.81-2.71,17.16,4.93,23.16,12.09,1.86,2.22,2.67,5.32,4,8Z" transform="translate(287.01 161.03)"/><path class="a" d="M426.5,931.92c25.8-15.86,51.6-15.23,77.4,0Z" transform="translate(287.01 161.03)"/></svg>