<svg xmlns="http://www.w3.org/2000/svg" viewBox="0 0 1943.03 1093.11"><defs><style>.a{opacity:0;fill:#ffffff;}.b{fill:#ffffff;}</style></defs><title>1800f_00117</title><path class="a" d="M1655.9,769.52c0,52.36-.08,104.72.12,157.09,0,4.52-.9,5.48-5.44,5.44-28.58-.26-57.17-.13-85.75-.13-4.87-18-14.81-31.83-32.27-39.72a93.11,93.11,0,0,0-38.92-8.7c-49,.12-90.12,21.56-129.16,48.42H446.23a23.58,23.58,0,0,1,.68-4.41c13.27-38.22,14.71-77.15,6.75-116.55-4.33-21.49-10.74-42.44-26-58.92-18.17-19.66-37.07-38.65-56.1-57.49-22.57-22.35-48.72-29.93-79.68-19-20.39,7.21-33.93,19.77-39.38,41.12-4.89,19.21-6.85,38.77-7.77,58.39a485.18,485.18,0,0,0,4.45,95.2c3.25,21.53,7.54,42.8,19.43,61.64q-274.57,0-549.13.16c-5.65,0-6.52-1.39-6.51-6.68q.23-392.88.13-785.76c3.27-.11,6.57,0,9.82-.36,40-4.28,80.06-6.39,120.32-4.6,34,1.52,67.48,5.2,100.16,15.08,19.39,5.86,39.18,10.29,59.49,11,49.07,1.61,96-7.39,140.39-29,37.06-18,73.1-38.08,111-54.43C306.06,55,361.1,41.23,411.92,16.39c17-8.31,34.84-7,52.32-.08,26.87,10.66,50.6,26.35,72.48,45a65.13,65.13,0,0,0,28.87,14.43,133.67,133.67,0,0,0,40,2.46c19.62-1.72,39.26-3.25,58.86-5.2,26.13-2.59,52.32-4.12,78.54-5.34,32.59-1.53,65.12-2.27,97.62,1.57a253.6,253.6,0,0,1,65.8,17.22c33,13.42,66.88,24.44,100.77,35.46,24.3,7.9,35.55,26.77,38.72,51.38,2.6,20.15-.58,39.84-4.1,59.49-5.48,30.57-9,61.14-.59,91.69,7.69,27.85,20.45,52.87,44,70.81,16.8,12.78,34.28,10.85,48.72-4.64A135.18,135.18,0,0,0,1149.29,370c21.18-33.86,42.59-67.59,63.32-101.72,20-33,35.77-68,46.12-105.26,4.8-17.26,7.84-35,14.73-51.7C1287.58,77,1329.18,53,1364.21,59.14c13.26,2.34,24.77,8.62,35.55,16.3,31.5,22.42,60.32,48.28,92.32,70.19,34.8,23.82,49.72,58.51,47.45,100.78-1.51,28-8,55-17,81.35-18.92,55.15-27.64,111.67-24.72,170,2.4,47.69,9.19,94.55,25.81,139.59,12.22,33.09,28.54,63.65,55.23,87.67C1601.36,745.28,1628.15,758.22,1655.9,769.52ZM69.43,398.5c.59-3.6-.94-7.88-2.77-12.09-6.19-14.23-15.26-26.55-25-38.49-13-15.87-28.36-29.5-42.53-44.25-6.94-7.21-13-16.15-24.23-18.48-9.18-1.91-15.7,2.61-15.34,12a22.83,22.83,0,0,0,7.94,16.6c23.31,21.08,42.17,46.18,62.69,69.77,7.79,9,16.36,17.37,26.93,23C65.23,410.78,69.37,408.05,69.43,398.5Z" transform="translate(286.99 161.03)"/><path class="b" d="M1655.9,769.52c-27.75-11.3-54.54-24.24-77.1-44.53-26.69-24-43-54.58-55.23-87.67-16.62-45-23.41-91.9-25.81-139.59-2.92-58.3,5.8-114.82,24.72-170,9-26.35,15.54-53.3,17-81.35,2.27-42.27-12.65-77-47.45-100.78-32-21.91-60.82-47.77-92.32-70.19-10.78-7.68-22.29-14-35.55-16.3-35-6.19-76.63,17.89-90.75,52.15-6.89,16.72-9.93,34.44-14.73,51.7-10.35,37.27-26.1,72.27-46.12,105.26-20.73,34.13-42.14,67.86-63.32,101.72a135.18,135.18,0,0,1-15.36,20.66c-14.44,15.49-31.92,17.42-48.72,4.64-23.59-17.94-36.35-43-44-70.81-8.44-30.55-4.89-61.12.59-91.69,3.52-19.65,6.7-39.34,4.1-59.49-3.17-24.61-14.42-43.48-38.72-51.38-33.89-11-67.73-22-100.77-35.46a253.6,253.6,0,0,0-65.8-17.22c-32.5-3.84-65-3.1-97.62-1.57-26.22,1.22-52.41,2.75-78.54,5.34-19.6,2-39.24,3.48-58.86,5.2a133.67,133.67,0,0,1-40-2.46A65.13,65.13,0,0,1,536.72,61.3c-21.88-18.64-45.61-34.33-72.48-45-17.48-6.93-35.33-8.23-52.32.08C361.1,41.23,306.06,55,254.3,77.33c-37.88,16.35-73.92,36.42-111,54.43-44.4,21.57-91.32,30.57-140.39,29-20.31-.67-40.1-5.1-59.49-11-32.68-9.88-66.21-13.56-100.16-15.08C-197,132.89-237,135-277,139.28c-3.25.35-6.55.25-9.82.36V-113.83c18.81-6.49,35.28-16.94,50.22-29.9,5.76-5,12.46-9.31,15-17.15H1208.15c.48,2.47-1.52,3.59-2.84,5-21.4,22.55-39.41,47-49.52,77.08C1148.92-58.37,1135.13-41.29,1124-23c-9.31,15.34-18.7,30.67-22.61,48.52-4.73,21.56,5.56,37.68,27.09,42.08a89.76,89.76,0,0,0,17.29,1.84c24.83.16,48.29-7.24,71.9-13.66,28.29-7.68,49.59-24,63.21-50.31,13.91-26.83,24.06-55,31.91-84.11,6.69-24.82,3.77-48.55-8.9-71-2.11-3.74-4.13-7.52-6.19-11.28q176.05,0,352.12-.15c5.2,0,6.22,1,6.22,6.22Q1655.8,307.36,1655.9,769.52Z" transform="translate(286.99 161.03)"/><path class="b" d="M268.65,931.92c-11.89-18.84-16.18-40.11-19.43-61.64a485.18,485.18,0,0,1-4.45-95.2c.92-19.62,2.88-39.18,7.77-58.39,5.45-21.35,19-33.91,39.38-41.12,31-11,57.11-3.37,79.68,19,19,18.84,37.93,37.83,56.1,57.49,15.22,16.48,21.63,37.43,26,58.92,8,39.4,6.52,78.33-6.75,116.55a23.58,23.58,0,0,0-.68,4.41Z" transform="translate(286.99 161.03)"/><path class="a" d="M1297.7-160.88c2.06,3.76,4.08,7.54,6.19,11.28,12.67,22.45,15.59,46.18,8.9,71-7.85,29.08-18,57.28-31.91,84.11-13.62,26.28-34.92,42.63-63.21,50.31-23.61,6.42-47.07,13.82-71.9,13.66a89.76,89.76,0,0,1-17.29-1.84c-21.53-4.4-31.82-20.52-27.09-42.08C1105.3,7.71,1114.69-7.62,1124-23c11.13-18.33,24.92-35.41,31.79-55.85,10.11-30.07,28.12-54.53,49.52-77.08,1.32-1.4,3.32-2.52,2.84-5Z" transform="translate(286.99 161.03)"/><path class="b" d="M1364.48,931.92c39-26.86,80.15-48.3,129.16-48.42a93.11,93.11,0,0,1,38.92,8.7c17.46,7.89,27.4,21.7,32.27,39.72Z" transform="translate(286.99 161.03)"/><path class="a" d="M-221.6-160.88c-2.58,7.84-9.28,12.15-15,17.15-14.94,13-31.41,23.41-50.22,29.9,0-14.42.13-28.84-.1-43.26-.05-3.26.63-3.92,3.9-3.89C-262.58-160.79-242.09-160.88-221.6-160.88Z" transform="translate(286.99 161.03)"/><path class="b" d="M69.43,398.5c-.06,9.55-4.2,12.28-12.36,8-10.57-5.58-19.14-14-26.93-23C9.62,359.94-9.24,334.84-32.55,313.76a22.83,22.83,0,0,1-7.94-16.6c-.36-9.36,6.16-13.88,15.34-12,11.21,2.33,17.29,11.27,24.23,18.48,14.17,14.75,29.51,28.38,42.53,44.25,9.79,11.94,18.86,24.26,25,38.49C68.49,390.62,70,394.9,69.43,398.5Z" transform="translate(286.99 161.03)"/></svg>