<svg xmlns="http://www.w3.org/2000/svg" viewBox="0 0 1943.06 1093.09"><defs><style>.a{opacity:0;fill:#ffffff;}.b{fill:#ffffff;}</style></defs><title>1800f_00269</title><path class="a" d="M1306.81,931.92h-1407c3.13-6.34,6.39-12.62,9.37-19,11.27-24.32,19.91-49.52,17.38-76.7-3.93-42.38-20.34-80.08-47-113.06a266.9,266.9,0,0,1-39.12-65.4c-14-33.5-21.46-68.85-30.21-103.87-9-36.06-24.27-69.17-51.26-95.52-12.6-12.3-27.63-21.09-45.85-22.74V289.9c33.63,7.71,57.41,28.27,74.91,57.16,11.67,19.27,26.33,35.8,45.52,47.89,35.8,22.53,75.09,37.15,115.15,49.77,38.32,12.07,71.21,2.73,98.44-26.81,20.33-22.07,36.13-47.39,52.13-72.54,2.23-3.51,3.15-8,4.11-12.14,3.4-14.72.56-29.31-2.4-43.58-8.68-41.86-2.11-80.46,20.56-117C150.8,125.51,184.1,82.05,226.07,45.4c23.12-20.18,43.5-42.93,59.39-69.51C296.73-43,308.63-61.46,321.74-79.18c26.34-35.58,61.68-52.89,105.55-52.61,18.88.12,34.86,7.18,42.93,25.67,5.07,11.62,13.54,18.9,25.26,22.21,36.25,10.26,71.68,8.5,104.91-10.34,29.1-16.49,49.52-42.76,72-66.63H936.47c2.06,2.17,4.95,2.35,7.57,3.12,17.51,5.11,34.62,11.3,50.71,19.9,36,19.23,73.06,35.88,111.81,48.53,40,13.08,73.26,35.71,100.56,67.62,13.14,15.35,27,30.09,40.52,45.11,28.66,31.85,62.07,58.65,93.22,87.83,6.83,6.4,14,12.45,22.24,17,10.71,5.88,21.28,5.81,31.47-1.12,6.88-4.69,13.59-9.64,20.31-14.57,34.32-25.16,68.77-26.66,105.31-4.78,27.71,16.6,52,37.59,75.68,59.23,20.49,18.71,41.09,37.33,60,57.66V786.21c-2,.21-4,.3-6,.64-19.32,3.33-36.65,1.66-49.18-16.39-4.38-6.31-10.8-11.34-16.77-16.39-23.4-19.79-49.23-36.19-74.42-53.52-14.25-9.81-27-9.4-40.36.26-2,1.47-4.22,2.8-6.15,4.42-31.21,26.12-62.87,51.72-93.46,78.54C1325,822.86,1307.6,874,1306.81,931.92Z" transform="translate(287.01 161.03)"/><path class="b" d="M672.38-160.88c-22.47,23.87-42.89,50.14-72,66.63-33.23,18.84-68.66,20.6-104.91,10.34-11.72-3.31-20.19-10.59-25.26-22.21-8.07-18.49-24.05-25.55-42.93-25.67-43.87-.28-79.21,17-105.55,52.61-13.11,17.72-25,36.2-36.28,55.07C269.57,2.47,249.19,25.22,226.07,45.4c-42,36.65-75.27,80.11-104.51,127.24-22.67,36.55-29.24,75.15-20.56,117,3,14.27,5.8,28.86,2.4,43.58-1,4.16-1.88,8.63-4.11,12.14-16,25.15-31.8,50.47-52.13,72.54C19.93,447.45-13,456.79-51.28,444.72-91.34,432.1-130.63,417.48-166.43,395c-19.19-12.09-33.85-28.62-45.52-47.89-17.5-28.89-41.28-49.45-74.91-57.16q0-222.36-.15-444.71c0-5.2,1-6.22,6.22-6.22Q195.79-160.79,672.38-160.88Z" transform="translate(287.01 161.03)"/><path class="b" d="M1655.9,224.63c-18.94-20.33-39.54-38.95-60-57.66-23.72-21.64-48-42.63-75.68-59.23-36.54-21.88-71-20.38-105.31,4.78-6.72,4.93-13.43,9.88-20.31,14.57-10.19,6.93-20.76,7-31.47,1.12-8.27-4.53-15.41-10.58-22.24-17-31.15-29.18-64.56-56-93.22-87.83-13.52-15-27.38-29.76-40.52-45.11-27.3-31.91-60.51-54.54-100.56-67.62-38.75-12.65-75.85-29.3-111.81-48.53-16.09-8.6-33.2-14.79-50.71-19.9-2.62-.77-5.51-1-7.57-3.12q356.29,0,712.6-.14c5.69,0,7.1,1.26,7,7-.4,20-.15,40-.15,60-2.6.63-5-.43-7.42-1-29.19-6.17-58.6-10.51-88.56-9.35-12.66.5-25.12,2.42-36.84,7.57-23.42,10.31-27.35,30.58-9.57,48.91,7.82,8.06,17,14.19,26.73,19.68C1576.1-7.95,1612.69-.52,1650.91-22c1.53-.86,3.14-1.71,5-.76Z" transform="translate(287.01 161.03)"/><path class="b" d="M-286.86,435.6c18.22,1.65,33.25,10.44,45.85,22.74,27,26.35,42.24,59.46,51.26,95.52,8.75,35,16.22,70.37,30.21,103.87a266.9,266.9,0,0,0,39.12,65.4c26.66,33,43.07,70.68,47,113.06,2.53,27.18-6.11,52.38-17.38,76.7-3,6.41-6.24,12.69-9.37,19-60.21,0-120.41-.09-180.62.15-5.2,0-6.22-1-6.21-6.22Q-286.74,680.72-286.86,435.6Z" transform="translate(287.01 161.03)"/><path class="b" d="M1306.81,931.92c.79-57.93,18.2-109.06,62.79-148.15,30.59-26.82,62.25-52.42,93.46-78.54,1.93-1.62,4.1-3,6.15-4.42,13.39-9.66,26.11-10.07,40.36-.26,25.19,17.33,51,33.73,74.42,53.52,6,5,12.39,10.08,16.77,16.39,12.53,18,29.86,19.72,49.18,16.39,2-.34,4-.43,6-.64,0,46.55-.11,93.09.15,139.64,0,5.2-1,6.22-6.23,6.21Q1478.33,931.78,1306.81,931.92Z" transform="translate(287.01 161.03)"/><path class="a" d="M1655.9-22.76c-1.85-.95-3.46-.1-5,.76-38.22,21.48-74.81,14.05-110.67-6.24-9.7-5.49-18.91-11.62-26.73-19.68-17.78-18.33-13.85-38.6,9.57-48.91,11.72-5.15,24.18-7.07,36.84-7.57,30-1.16,59.37,3.18,88.56,9.35,2.46.52,4.82,1.58,7.42,1Z" transform="translate(287.01 161.03)"/></svg>