<svg xmlns="http://www.w3.org/2000/svg" viewBox="0 0 1366.3 768.29"><defs><style>.a{opacity:0;fill:#ffffff;}.b{fill:#ffffff;}</style></defs><title>1800f_00053</title><path class="a" d="M1186.9,769.52H317.22c-1.68-1.12-3.31-2.31-5-3.33-49.79-29.41-104.36-44.23-161-52.79-6.74-1-13.51-2-20.15-3.48-3.51-.8-8.37-1.31-8.92-5.75-.49-4,3.76-5.67,6.75-7.37a96,96,0,0,1,12.92-6.34c47.76-18.35,88.86-47.59,129.47-77.91s56-70.14,51.27-119.85c-2.31-24.45-7.44-48.46-9.61-72.8-3.19-35.64-17.2-66.25-39.37-93.48C260.73,310.67,246,297.53,223.8,296.8S189.22,283,182,263.16c-11.5-31.31-24.68-62-37.5-92.75C129.7,135,117.9,98.29,99,64.62a17.52,17.52,0,0,1-1.46-3.49c-2.25-7.39-.09-11,7.54-12.51,9.25-1.82,18.63-1.55,28-1.31a201.49,201.49,0,0,0,62.89-8c25.47-7.56,49.07-18.65,68.11-37.84H901.56c-.59,3.55,2.26,5.42,4,7.74,20.53,27.79,47.17,49,74.6,69.46,44.48,33.12,87.06,67.88,118.88,114.57,21.84,32,39.55,64.84,44.34,104,2.42,19.74,6.83,39.31,14.38,57.92,19.1,47.08,50.89,76.1,104.53,78.08,35.16,1.3,70.17-1,105.26-.69v72.85c-26.33,8.08-52.42,16.85-78.14,26.7-19.86,7.6-39.36,15.9-57.34,27.42-19.16,12.28-34.39,27.59-38.34,51.1a238.19,238.19,0,0,0-3.44,31.59c-1,33.59-1.5,67.21-2.26,100.82C1187.8,751.87,1187.28,760.69,1186.9,769.52ZM851.71,532.82c16.31,0,28-6.13,35.14-19.78,7.28-14,5.35-27.55-3.6-40-11.66-16.18-28.79-25-46.48-32.77-19.83-8.73-39.34-8-58.11,3.07-23,13.59-48.31,20.11-74.34,24.55a92.16,92.16,0,0,0-17.58,4.32c-7.23,2.77-7.53,6.52-1.63,11.32a21.11,21.11,0,0,0,3.8,2.46c16.27,8.28,33.09,15.08,51.25,17.93A364.9,364.9,0,0,1,806,521C821.21,526.35,836.32,532.33,851.71,532.82ZM822.66,647.7c-.17-11.11-8.26-21.06-17.9-29.94-21.8-20.1-54.06-19.13-72.72,1.93-7,7.93-7.69,17.14-1.88,25.7,12.74,18.76,49.59,33.3,71.51,28.22C813.84,670.79,822.22,661.61,822.66,647.7Z" transform="translate(-1.37 -1.37)"/><path class="b" d="M264.09,1.52c-19,19.19-42.64,30.28-68.11,37.84a201.49,201.49,0,0,1-62.89,8c-9.34-.24-18.72-.51-28,1.31-7.63,1.5-9.79,5.12-7.54,12.51A17.52,17.52,0,0,0,99,64.62C117.9,98.29,129.7,135,144.45,170.41c12.82,30.8,26,61.44,37.5,92.75,7.27,19.83,19.71,32.92,41.85,33.64s36.93,13.87,49.75,29.62c22.17,27.23,36.18,57.84,39.37,93.48,2.17,24.34,7.3,48.35,9.61,72.8,4.71,49.71-10.74,89.59-51.27,119.85s-81.71,59.56-129.47,77.91a96,96,0,0,0-12.92,6.34c-3,1.7-7.24,3.39-6.75,7.37.55,4.44,5.41,5,8.92,5.75,6.64,1.51,13.41,2.47,20.15,3.48,56.63,8.56,111.2,23.38,161,52.79,1.73,1,3.36,2.21,5,3.33q-154.82,0-309.63.14c-5.2,0-6.23-1-6.22-6.22q.31-117.62.15-235.25c5.85-32,8.53-64.3,6.66-96.82-.51-8.95-2.15-18-6.66-26.12q0-198.82-.15-397.66c0-5.2,1-6.23,6.22-6.22Q135.84,1.69,264.09,1.52Z" transform="translate(-1.37 -1.37)"/><path class="b" d="M1367.52,432.57c-35.09-.34-70.1,2-105.26.69-53.64-2-85.43-31-104.53-78.08-7.55-18.61-12-38.18-14.38-57.92-4.79-39.13-22.5-71.94-44.34-104-31.82-46.69-74.4-81.45-118.88-114.57-27.43-20.43-54.07-41.67-74.6-69.46-1.71-2.32-4.56-4.19-4-7.74h347.57c10.16,11.93,21.83,22.35,33.41,32.81,19.35,17.5,26.22,38.36,20.52,64.1-5.09,22.95-7.82,46.29-3.69,69.85,4,23,11.39,44.54,28.61,61.34,8.49,8.28,18.38,10.85,29.86,6.11,3.13-1.29,5.69-4.52,9.68-3.51Z" transform="translate(-1.37 -1.37)"/><path class="b" d="M1186.9,769.52c.38-8.83.9-17.65,1.1-26.47.76-33.61,1.21-67.23,2.26-100.82a238.19,238.19,0,0,1,3.44-31.59c4-23.51,19.18-38.82,38.34-51.1,18-11.52,37.48-19.82,57.34-27.42,25.72-9.85,51.81-18.62,78.14-26.7q0,129,.15,258c0,5.2-1,6.25-6.22,6.23C1303.27,769.43,1245.08,769.52,1186.9,769.52Z" transform="translate(-1.37 -1.37)"/><path class="a" d="M1367.52,232.22c-4-1-6.55,2.22-9.68,3.51-11.48,4.74-21.37,2.17-29.86-6.11-17.22-16.8-24.59-38.32-28.61-61.34-4.13-23.56-1.4-46.9,3.69-69.85,5.7-25.74-1.17-46.6-20.52-64.1-11.58-10.46-23.25-20.88-33.41-32.81,37.69,0,75.38.1,113.07-.13,4.54,0,5.45.92,5.44,5.44Q1367.39,119.53,1367.52,232.22Z" transform="translate(-1.37 -1.37)"/><path class="a" d="M1.52,405.25c4.51,8.12,6.15,17.17,6.66,26.12,1.87,32.52-.81,64.8-6.66,96.82Z" transform="translate(-1.37 -1.37)"/><path class="b" d="M851.71,532.82c-15.39-.49-30.5-6.47-45.68-11.87a364.9,364.9,0,0,0-65.87-17c-18.16-2.85-35-9.65-51.25-17.93a21.11,21.11,0,0,1-3.8-2.46c-5.9-4.8-5.6-8.55,1.63-11.32a92.16,92.16,0,0,1,17.58-4.32c26-4.44,51.32-11,74.34-24.55,18.77-11.08,38.28-11.8,58.11-3.07,17.69,7.78,34.82,16.59,46.48,32.77,9,12.43,10.88,26,3.6,40C879.75,526.69,868,532.87,851.71,532.82Z" transform="translate(-1.37 -1.37)"/><path class="b" d="M822.66,647.7c-.44,13.91-8.82,23.09-21,25.91-21.92,5.08-58.77-9.46-71.51-28.22-5.81-8.56-5.14-17.77,1.88-25.7,18.66-21.06,50.92-22,72.72-1.93C814.4,626.64,822.49,636.59,822.66,647.7Z" transform="translate(-1.37 -1.37)"/></svg>