<svg xmlns="http://www.w3.org/2000/svg" viewBox="0 0 1943.05 1093.19"><defs><style>.a{opacity:0;fill:#ffffff;}.b{fill:#ffffff;}</style></defs><title>1800f_00217</title><path class="a" d="M-286.86,382.48q0-268.65-.14-537.29c0-5.2,1-6.23,6.21-6.22q142.68.3,285.34.15c.87,2.53.15,5-.35,7.47-5.44,26.49-10.74,53-16.48,79.41C-28.4.18-61.67,65.35-115.8,119c-29.27,29-63.11,52-99.86,70.69-20.56,10.45-38.66,23.92-51.59,43.45-12.51,18.89-14.56,38.69-.95,57.33,25.36,34.72,58,59.56,100.91,69a327.52,327.52,0,0,0,71.45,7.84c24.87,0,49.36-3.45,73.82-7.51,32.39-5.37,65.28-8.29,96.68-18.52,23.78-7.75,47.19-16.64,70.85-24.77,18.46-6.34,36.65-8.38,56.35-2.68,30.18,8.72,58.69,3.18,83.28-17.45A181.07,181.07,0,0,0,315.77,264c34.31-47.49,75.31-88.22,121.45-124.3C472.1,112.36,504.55,82.08,531.88,47,554,18.68,574.79-10.58,596.39-39.27c7.92-10.51,16.65-20.39,27.4-28.2,15-10.91,26.77-8.82,37.29,6.6,5.87,8.61,10,18.15,14,27.73,9.75,23.62,20.17,46.92,32.21,69.48,9.56,17.91,20.29,35.08,34.8,49.45C789.32,132.58,845.64,159,912.7,160.64c45.32,1.1,90.37-4.11,135.53-6.52,23.7-1.27,47.29-4.64,71.13-2.49,21,1.89,31.7,10.05,37.64,30.34,2.83,9.68,4.88,19.61,7.22,29.44,5,21.16,17.4,36.14,37.59,44.5,5.14,2.12,10.13,4.79,15.45,6.26,23.55,6.51,40,21.9,53.16,41.58,17.56,26.25,27.94,55.45,34.74,86,10.93,49,27.88,95.59,55.93,137.58,15.9,23.81,32.72,46.92,56.56,63.75,17.7,12.49,35.72,13,53.73,1,12-8,23.51-16.64,35.4-24.77,18.94-12.95,39.68-19.5,62.9-18.23,17.17.94,34.24,2.74,51.34,4.45,11.85,1.18,23.07,5.36,34.88,6.56q0,182.07.14,364.14c0,6.08-.83,7.91-7.6,7.91q-899.36-.32-1798.7-.19c.76-2.67,1.42-5.37,2.28-8a312.49,312.49,0,0,0,15.27-103c-.86-52.83-2.08-105.66.82-158.44,1.53-27.73,7-55.12,22-78.84,20-31.65,42.92-61.29,70-87.33,21.2-20.39,36.35-22.11,61.05-6s47.13,35.62,70.58,53.61c39.17,30,72.7,64.85,94.64,109.86,14.29,29.3,29,58.46,46.89,85.81,15.35,23.42,32.82,45,57,60,23.11,14.32,42.87,7.22,51.1-18.58,6.16-19.3,4.86-39,.83-58.46-7.66-37.11-16.63-73.95-23.3-111.26-5.93-33.11-12-66.16-24.13-97.72-10.65-27.76-25-53.13-48.62-72-20.54-16.44-44.91-24.94-69.76-32.25-32-9.4-64.19-13.66-97.23-6.16-27.26,6.19-51.53,19.24-75.5,32.86-14.56,8.28-29.34,10.82-45.83,6.51C-70.57,434.93-98,424.57-126,415.77-178.5,399.24-233.75,396.06-286.86,382.48Zm1203.23,65.2c6.58,0,13.17.33,19.72-.06,19.46-1.16,38.19-5.39,54.45-16.6,38.26-26.41,77.3-51.75,112.63-82.21,12.54-10.8,24.88-21.5,31.14-37.47,8.67-22.13.24-38.81-22.77-44.4-21.7-5.27-43.21-2.61-64.58,2.18-20.34,4.56-39.23,13.28-58.48,20.94-35.28,14-72.12,23.39-107.85,36.08-19,6.76-36.85,15.37-50.93,30.39-18.63,19.85-21.26,45.34-6.23,64.83,9,11.71,21.51,18.28,35.63,21.61C877.91,447.42,897.17,447.54,916.37,447.68Z" transform="translate(287 161.08)"/><path class="b" d="M1655.9,560.06c-11.81-1.2-23-5.38-34.88-6.56-17.1-1.71-34.17-3.51-51.34-4.45-23.22-1.27-44,5.28-62.9,18.23-11.89,8.13-23.42,16.78-35.4,24.77-18,12-36,11.52-53.73-1-23.84-16.83-40.66-39.94-56.56-63.75-28-42-45-88.55-55.93-137.58-6.8-30.55-17.18-59.75-34.74-86-13.16-19.68-29.61-35.07-53.16-41.58-5.32-1.47-10.31-4.14-15.45-6.26-20.19-8.36-32.54-23.34-37.59-44.5-2.34-9.83-4.39-19.76-7.22-29.44-5.94-20.29-16.65-28.45-37.64-30.34-23.84-2.15-47.43,1.22-71.13,2.49-45.16,2.41-90.21,7.62-135.53,6.52C845.64,159,789.32,132.58,742.06,85.79c-14.51-14.37-25.24-31.54-34.8-49.45-12-22.56-22.46-45.86-32.21-69.48-3.95-9.58-8.1-19.12-14-27.73-10.52-15.42-22.3-17.51-37.29-6.6-10.75,7.81-19.48,17.69-27.4,28.2C574.79-10.58,554,18.68,531.88,47c-27.33,35.08-59.78,65.36-94.66,92.65-46.14,36.08-87.14,76.81-121.45,124.3a181.07,181.07,0,0,1-30.63,32.51c-24.59,20.63-53.1,26.17-83.28,17.45-19.7-5.7-37.89-3.66-56.35,2.68-23.66,8.13-47.07,17-70.85,24.77C43.26,351.59,10.37,354.51-22,359.88c-24.46,4.06-48.95,7.48-73.82,7.51a327.52,327.52,0,0,1-71.45-7.84c-42.89-9.48-75.55-34.32-100.91-69-13.61-18.64-11.56-38.44.95-57.33,12.93-19.53,31-33,51.59-43.45C-178.91,171-145.07,148.08-115.8,119-61.67,65.35-28.4.18-12.28-74c5.74-26.41,11-52.92,16.48-79.41.5-2.43,1.22-4.94.35-7.47H221.6c4.46,17,12.83,32.24,22.07,47,8.5,13.58,18.51,25.89,32.52,34.27,12.64,7.56,25.3,6.48,36.28-3.27a60.15,60.15,0,0,0,9.6-10.63c14.14-20.59,23.62-43.31,30.05-67.36h818.09c7.88,5,16.06,9.54,23.61,15,21.27,15.33,42.09,31.29,63.46,46.48,17.56,12.49,36,23.69,58.15,25.7,29.15,2.65,48.5-6.83,55-37.59,3.5-16.54,3.16-33,.09-49.58,92.77,0,185.54.09,278.31-.2,6.5,0,7.19,1.76,7.18,7.57Q1655.79,203.27,1655.9,560.06ZM1366.16,109.41c34.12-3.72,64.5-16.45,89.64-39.94,14.07-13.16,14-27.81,2.21-43.41-10.35-13.64-23.85-23.32-39.58-29.66-15.41-6.2-30.73-5-43.72,5.57-23.09,18.76-37.29,43.77-45.79,71.83-4.29,14.16,2.17,25.31,15.66,31.45C1351.39,108.35,1358.62,109.24,1366.16,109.41Z" transform="translate(287 161.08)"/><path class="b" d="M-286.86,382.48c53.11,13.58,108.36,16.76,160.89,33.29,28,8.8,55.4,19.16,83.81,26.59,16.49,4.31,31.27,1.77,45.83-6.51,24-13.62,48.24-26.67,75.5-32.86,33-7.5,65.28-3.24,97.23,6.16,24.85,7.31,49.22,15.81,69.76,32.25,23.62,18.91,38,44.28,48.62,72C306.9,545,313,578.05,318.91,611.16c6.67,37.31,15.64,74.15,23.3,111.26,4,19.47,5.33,39.16-.83,58.46-8.23,25.8-28,32.9-51.1,18.58-24.2-15-41.67-36.53-57-60-17.92-27.35-32.6-56.51-46.89-85.81-21.94-45-55.47-79.81-94.64-109.86-23.45-18-45.79-37.5-70.58-53.61s-39.85-14.34-61,6c-27.09,26-50,55.68-70,87.33-15,23.72-20.45,51.11-22,78.84-2.9,52.78-1.68,105.61-.82,158.44a312.49,312.49,0,0,1-15.27,103c-.86,2.64-1.52,5.34-2.28,8-43.67,0-87.33-.1-131,.14-4.93,0-5.72-1.36-5.71-5.9q.24-101.85.11-203.7c10.88-12.05,18.82-26,26-40.45,5.44-11,8-22.77,8.53-35,1.48-32.49-12.46-58.42-34.5-80.89Z" transform="translate(287 161.08)"/><path class="a" d="M1370.55-160.88c3.07,16.53,3.41,33-.09,49.58-6.53,30.76-25.88,40.24-55,37.59-22.17-2-40.59-13.21-58.15-25.7-21.37-15.19-42.19-31.15-63.46-46.48-7.55-5.45-15.73-10-23.61-15Z" transform="translate(287 161.08)"/><path class="a" d="M352.12-160.88c-6.43,24-15.91,46.77-30.05,67.36a60.15,60.15,0,0,1-9.6,10.63c-11,9.75-23.64,10.83-36.28,3.27-14-8.38-24-20.69-32.52-34.27-9.24-14.75-17.61-30-22.07-47Z" transform="translate(287 161.08)"/><path class="a" d="M-286.86,566.13c22,22.47,36,48.4,34.5,80.89-.55,12.22-3.09,24-8.53,35-7.15,14.43-15.09,28.4-26,40.45Z" transform="translate(287 161.08)"/><path class="b" d="M916.37,447.68c-19.2-.14-38.46-.26-57.27-4.71-14.12-3.33-26.6-9.9-35.63-21.61-15-19.49-12.4-45,6.23-64.83,14.08-15,31.9-23.63,50.93-30.39,35.73-12.69,72.57-22.05,107.85-36.08,19.25-7.66,38.14-16.38,58.48-20.94,21.37-4.79,42.88-7.45,64.58-2.18,23,5.59,31.44,22.27,22.77,44.4-6.26,16-18.6,26.67-31.14,37.47-35.33,30.46-74.37,55.8-112.63,82.21-16.26,11.21-35,15.44-54.45,16.6C929.54,448,923,447.68,916.37,447.68Z" transform="translate(287 161.08)"/><path class="a" d="M1366.16,109.41c-7.54-.17-14.77-1.06-21.58-4.16-13.49-6.14-19.95-17.29-15.66-31.45,8.5-28.06,22.7-53.07,45.79-71.83,13-10.56,28.31-11.77,43.72-5.57,15.73,6.34,29.23,16,39.58,29.66,11.84,15.6,11.86,30.25-2.21,43.41C1430.66,93,1400.28,105.69,1366.16,109.41Z" transform="translate(287 161.08)"/></svg>