<svg xmlns="http://www.w3.org/2000/svg" viewBox="0 0 1943.34 1093.14"><defs><style>.a{opacity:0;fill:#ffffff;}.b{fill:#ffffff;}</style></defs><title>1800f_00199</title><path class="a" d="M1320.47,931.92q-800.25,0-1600.5.14c-5.69,0-7.08-1.27-7-7,.38-23.52.16-47.05.16-70.58C-270.3,812-239,781.72-204.55,753.7c17.67-14.39,33.21-31.1,45.14-50.71,9.74-16,18.69-32.48,18.26-52.11-.23-10.12-4.13-14.39-14.21-16.35-13.73-2.67-27.23.17-40.49,2.57-27.28,4.94-52.64,1.43-76.46-13.12-4.65-2.84-8.94-6.62-14.55-7.76V264.1c2.27,1.48,2.87,4.09,4.07,6.26,17.1,30.9,38.36,58.3,67.47,78.85,19,13.41,38.46,26.16,57.63,39.34,40.2,27.63,64,64.05,64.3,114.58.13,19.62-.23,39.4,2.2,59,1.91,15.46,10.41,24.71,26,26.75a341.51,341.51,0,0,0,41.52,3.2c21.27.18,40.66,6.39,59,17,13.75,8,26.74,17.31,41.53,23.48,11.68,4.87,21.42,2.16,28.38-8.27s10.62-22.34,13.14-34.51A485.23,485.23,0,0,0,128,519.35c3-50.36,2.6-100.61-6.77-150.36-6-32.12-17.91-61.57-42.2-84.83C64.21,270,47,259.44,29.2,249.81c-17.51-9.46-33.7-20.49-46.72-35.72-6.14-7.16-11.58-14.82-12.84-24.5-2.14-16.42,6.91-27.39,18.81-36.5,16.77-12.82,36.49-19.38,56.42-25.29,26-7.72,53.12-10.17,79.35-16.44C177.15,98.72,227.06,77.79,273.83,50,352.4,3.36,413.34-61.28,462-138c4.7-7.4,10.19-14.41,13-22.89H769.51c.72,11.67-.54,23.12-2.72,34.62-3.29,17.34-4.56,34.66,5.38,50.75C783-57.91,800.24-50.73,819.34-47c32.81,6.49,65.68,3.63,98-2.51a400.26,400.26,0,0,1,146.15-1.06c15,2.66,30.11,6.88,45.77,3.77,13.13-2.6,24.42-9.56,36.48-14.66,13.93-5.89,28.16-10.14,43.44-8.09,22.32,3,34.12,18,41.47,37.58a368.73,368.73,0,0,0,23.46,50.08c18.52,33.16,35.75,67,47.32,103.26,12.41,38.87,35.78,69,68.23,93.13,26.16,19.44,53.56,37.34,77.37,59.78,47.91,45.14,98.06,87.54,151.57,125.93,18.48,13.26,37.24,26.07,57.31,36.87V613.18c-2.1.86-2.62,3-3.59,4.67-26,45.12-54.68,88.54-83.55,131.83-21.78,32.65-45.3,63.93-76.45,88.54-34.27,27.06-71.77,45.85-116.64,46.7C1345.18,885.49,1327,901.35,1320.47,931.92ZM1143.89,25.63a28.65,28.65,0,0,0,0-4.54c-1.85-11.14-6.92-20-18.16-23.93-9.76-3.44-19.69-1.18-26,6.94-8.55,11.08-13.23,23.7-11.25,38,2.14,15.49,13.8,23,28.9,18.7C1133.91,56.16,1144.07,42.72,1143.89,25.63Z" transform="translate(287.03 161.08)"/><path class="b" d="M475.06-160.88c-2.83,8.48-8.32,15.49-13,22.89C413.34-61.28,352.4,3.36,273.83,50c-46.77,27.77-96.68,48.7-149.61,61.34C98,117.63,70.86,120.08,44.87,127.8c-19.93,5.91-39.65,12.47-56.42,25.29-11.9,9.11-20.95,20.08-18.81,36.5,1.26,9.68,6.7,17.34,12.84,24.5,13,15.23,29.21,26.26,46.72,35.72C47,259.44,64.21,270,79,284.16c24.29,23.26,36.15,52.71,42.2,84.83,9.37,49.75,9.73,100,6.77,150.36a485.23,485.23,0,0,1-9.62,70.52c-2.52,12.17-6.15,24-13.14,34.51s-16.7,13.14-28.38,8.27C62,626.48,49,617.16,35.29,609.17c-18.33-10.66-37.72-16.87-59-17a341.51,341.51,0,0,1-41.52-3.2c-15.56-2-24.06-11.29-26-26.75-2.43-19.64-2.07-39.42-2.2-59-.34-50.53-24.1-86.95-64.3-114.58-19.17-13.18-38.63-25.93-57.63-39.34-29.11-20.55-50.37-47.95-67.47-78.85-1.2-2.17-1.8-4.78-4.07-6.26q0-209.32-.17-418.64c0-5.77,1.55-6.47,6.72-6.47Q97.38-160.79,475.06-160.88Z" transform="translate(287.03 161.08)"/><path class="b" d="M1655.9,437.12c-20.07-10.8-38.83-23.61-57.31-36.87-53.51-38.39-103.66-80.79-151.57-125.93-23.81-22.44-51.21-40.34-77.37-59.78-32.45-24.1-55.82-54.26-68.23-93.13-11.57-36.25-28.8-70.1-47.32-103.26a368.73,368.73,0,0,1-23.46-50.08c-7.35-19.6-19.15-34.58-41.47-37.58-15.28-2-29.51,2.2-43.44,8.09-12.06,5.1-23.35,12.06-36.48,14.66-15.66,3.11-30.76-1.11-45.77-3.77a400.26,400.26,0,0,0-146.15,1.06c-32.31,6.14-65.18,9-98,2.51-19.1-3.77-36.3-10.95-47.17-28.55-9.94-16.09-8.67-33.41-5.38-50.75,2.18-11.5,3.44-23,2.72-34.62q439,0,878-.2c7.14,0,9.76,1.38,8.43,8.56-.5,2.69-.08,5.55-.08,8.33-16.28,2.12-32.6,3.95-48.81,6.44-23.78,3.65-47.39,8.27-68.81,20-19.15,10.46-33.87,24.75-37.78,47.44-3.52,20.39,2.32,39.16,10.85,57.17,25.92,54.74,64.62,99.93,107.52,141.77a101.07,101.07,0,0,0,37,23.18Z" transform="translate(287.03 161.08)"/><path class="b" d="M1320.47,931.92c6.5-30.57,24.71-46.43,55.2-47,44.87-.85,82.37-19.64,116.64-46.7,31.15-24.61,54.67-55.89,76.45-88.54,28.87-43.29,57.56-86.71,83.55-131.83,1-1.69,1.49-3.81,3.59-4.67q0,156.35.14,312.67c0,5.19-1,6.22-6.22,6.21Q1485.15,931.78,1320.47,931.92Z" transform="translate(287.03 161.08)"/><path class="a" d="M1655.9,151.78a101.07,101.07,0,0,1-37-23.18c-42.9-41.84-81.6-87-107.52-141.77-8.53-18-14.37-36.78-10.85-57.17,3.91-22.69,18.63-37,37.78-47.44,21.42-11.7,45-16.32,68.81-20,16.21-2.49,32.53-4.32,48.81-6.44Z" transform="translate(287.03 161.08)"/><path class="b" d="M-286.86,616.22c5.61,1.14,9.9,4.92,14.55,7.76,23.82,14.55,49.18,18.06,76.46,13.12,13.26-2.4,26.76-5.24,40.49-2.57,10.08,2,14,6.23,14.21,16.35.43,19.63-8.52,36.09-18.26,52.11-11.93,19.61-27.47,36.32-45.14,50.71-34.42,28-65.75,58.32-82.31,100.81Z" transform="translate(287.03 161.08)"/><path class="b" d="M1143.89,25.63c.18,17.09-10,30.53-26.5,35.2-15.1,4.26-26.76-3.21-28.9-18.7-2-14.33,2.7-26.95,11.25-38,6.27-8.12,16.2-10.38,26-6.94,11.24,4,16.31,12.79,18.16,23.93A28.65,28.65,0,0,1,1143.89,25.63Z" transform="translate(287.03 161.08)"/></svg>