<svg xmlns="http://www.w3.org/2000/svg" viewBox="0 0 1366.33 768.28"><defs><style>.a{opacity:0;fill:#ffffff;}.b{fill:#ffffff;}</style></defs><title>1800f_00083</title><path class="a" d="M1.52,250.44v-129c14,0,27.63-2.45,41.17-5.38,22.5-4.86,44.8-7.62,67.06,1.22,7.5,3,15.31,5.17,23,7.68,34.36,11.24,67.48,8.94,99.76-8,21-11,42.26-21.68,63-33.3,34.31-19.23,67-40.64,93.61-70.11,3.28-3.64,7.52-6.72,8.57-12H505.42c31.43,14.6,64.31,20.29,98.82,16.33,34.2-3.93,68.49-4.38,102.85-2.58,23.17,1.22,46.29,3.85,69.58,1.68,19.81-1.86,38.74-6.57,56.59-15.43h136.6c3.51,13.68,7.62,27.23,10.41,41.05a164.25,164.25,0,0,0,36.38,74.89c20.77,24.53,44.54,46.24,66,70.12,24,26.68,50.39,51.14,73.75,78.49,21.93,25.68,38.5,53.62,44.52,87.36,2.57,14.4,6.53,28.57,10.36,42.71,5.53,20.42,12.8,40.3,28.34,55.4,36.94,35.9,80.51,61.58,127.87,81.2v80.44a13.47,13.47,0,0,0-3.65.58c-21.06,9.77-41.83,20-60.78,33.69-17.82,12.9-24.77,29.74-21.73,51.25a563.26,563.26,0,0,1,5.72,70.82H191.24c2.35-3.25,6.09-4.31,9.44-5.92a165,165,0,0,1,44.76-13.85c56.53-9.42,99.79-38.32,129.46-87.34,15.34-25.36,21.76-52,11-81.07-3.07-8.25-4.75-17-7-25.57-7.41-27.94-13.45-56.1-11.22-85.26,1.12-14.64,2-29.26,1.2-43.92-.54-10.39-2.27-20.62-6.55-30.21-10.21-22.92-30.74-25.18-45.82-5.14a79.62,79.62,0,0,0-11.28,22.2c-5.53,16-9.69,32.5-17.39,47.67-7.89,15.56-18.42,20-35,14.91a67.58,67.58,0,0,1-15.22-6.69c-26.21-16-48.48-36.39-65.92-61.73a58.14,58.14,0,0,1-9.44-46.19c4.24-20.93,13.4-40.26,19.14-60.66,13.35-47.48,2.66-90.43-27.92-127.93-26.58-32.6-63.64-41.26-103.78-38.77-18.52,1.15-30,11.48-33.61,26.84-1.63,6.9-.48,13.69,1.29,20.23C24.32,207.1,14.61,229.12,1.52,250.44ZM828.78,735.75c13.59,0,24,0,34.33,0,3.27,0,6.29-.68,7.27-4.13.86-3-1.91-4.3-3.9-5.8-13.25-9.93-28.83-15.62-43.11-23.69-12.48-7.06-24.86-14.68-39.78-16-37.08-3.26-73,2.6-108.26,13.64a57.53,57.53,0,0,0-19.92,10.74c-10.92,9.16-11.17,20.12-.81,29.88,7.46,7,16.72,10.38,26.5,12.21,23.36,4.34,46.43,2,68.92-4.86C776.8,739.6,803.75,733.39,828.78,735.75ZM1083.89,742c10.48.68,19.59-3.21,28-8.32,21.41-12.91,43-25.67,62.49-41.36,8.25-6.63,16.52-13.42,21.8-22.89,4.45-8,2.1-13.26-6.9-14.76a62.56,62.56,0,0,0-21.87.39c-27.47,5.18-53.55,14.61-79,26-10.9,4.88-21,11.28-29.13,20.1C1048,713.4,1050,727.47,1064,736.35,1070.07,740.22,1076.68,742.54,1083.89,742Z" transform="translate(-1.32 -1.37)"/><path class="b" d="M1.52,250.44c13.09-21.32,22.8-43.34,15.78-69.32-1.77-6.54-2.92-13.33-1.29-20.23,3.62-15.36,15.09-25.69,33.61-26.84,40.14-2.49,77.2,6.17,103.78,38.77,30.58,37.5,41.27,80.45,27.92,127.93-5.74,20.4-14.9,39.73-19.14,60.66a58.14,58.14,0,0,0,9.44,46.19c17.44,25.34,39.71,45.72,65.92,61.73A67.58,67.58,0,0,0,252.76,476c16.6,5.12,27.13.65,35-14.91,7.7-15.17,11.86-31.68,17.39-47.67a79.62,79.62,0,0,1,11.28-22.2c15.08-20,35.61-17.78,45.82,5.14,4.28,9.59,6,19.82,6.55,30.21.76,14.66-.08,29.28-1.2,43.92-2.23,29.16,3.81,57.32,11.22,85.26,2.26,8.55,3.94,17.32,7,25.57,10.81,29.09,4.39,55.71-11,81.07-29.67,49-72.93,77.92-129.46,87.34a165,165,0,0,0-44.76,13.85c-3.35,1.61-7.09,2.67-9.44,5.92-61,0-122.09-.07-183.13.11-5,0-6.9-.48-6.79-6.39.47-24.21.2-48.43.2-72.65C11,686,20.45,681.08,30.09,676.72,53,666.4,77.63,661.1,100.67,651.24a136.5,136.5,0,0,0,27.21-14.92c29.65-21.67,36.5-45.39,22.88-79.41-10.25-25.58-23.37-49.92-33-75.79-7-18.95-13.34-38.19-22.35-56.36s-22.31-32.07-42-38.26C35.6,380.86,18,374.83,1.52,365.79Z" transform="translate(-1.32 -1.37)"/><path class="b" d="M1367.52,532.74c-47.36-19.62-90.93-45.3-127.87-81.2-15.54-15.1-22.81-35-28.34-55.4-3.83-14.14-7.79-28.31-10.36-42.71-6-33.74-22.59-61.68-44.52-87.36-23.36-27.35-49.73-51.81-73.75-78.49-21.49-23.88-45.26-45.59-66-70.12a164.25,164.25,0,0,1-36.38-74.89c-2.79-13.82-6.9-27.37-10.41-41h170a62.37,62.37,0,0,0,3,6.08,362.65,362.65,0,0,1,33.92,69.23c4.15,11.36,8.39,22.79,15.4,32.83,5.75,8.23,15.49,12,23.77,9.55,7.13-2.1,11.67-9.54,11.74-20.1.1-16.47-3.26-32.58-5.62-48.77s-5.31-32.33-3.28-48.82H1319c14.36,18.47,31.63,34.12,48.57,50.09Z" transform="translate(-1.32 -1.37)"/><path class="b" d="M397.66,1.52c-1.05,5.29-5.29,8.37-8.57,12C362.47,43,329.79,64.41,295.48,83.64c-20.72,11.62-42,22.27-63,33.3-32.28,16.94-65.4,19.24-99.76,8-7.68-2.51-15.49-4.71-23-7.68-22.26-8.84-44.56-6.08-67.06-1.22-13.54,2.93-27.22,5.38-41.17,5.38,0-37.94.13-75.89-.16-113.83,0-5.2,1-6.22,6.23-6.22Q202.62,1.66,397.66,1.52Z" transform="translate(-1.32 -1.37)"/><path class="a" d="M1.52,365.79c16.46,9,34.08,15.07,52,20.71,19.65,6.19,32.93,20.06,42,38.26s15.31,37.41,22.35,56.36c9.61,25.87,22.73,50.21,33,75.79,13.62,34,6.77,57.74-22.88,79.41a136.5,136.5,0,0,1-27.21,14.92c-23,9.86-47.72,15.16-70.58,25.48C20.45,681.08,11,686,1.52,690.59Z" transform="translate(-1.32 -1.37)"/><path class="b" d="M1287.08,769.52a563.26,563.26,0,0,0-5.72-70.82c-3-21.51,3.91-38.35,21.73-51.25,19-13.71,39.72-23.92,60.78-33.69a13.47,13.47,0,0,1,3.65-.58c0,50.34-.08,100.68.13,151,0,4.53-.91,5.5-5.45,5.45C1337.16,769.37,1312.12,769.52,1287.08,769.52Z" transform="translate(-1.32 -1.37)"/><path class="a" d="M1218.78,1.52c-2,16.49.92,32.6,3.28,48.82s5.72,32.3,5.62,48.77c-.07,10.56-4.61,18-11.74,20.1-8.28,2.43-18-1.32-23.77-9.55-7-10-11.25-21.47-15.4-32.83A362.65,362.65,0,0,0,1142.85,7.6a62.37,62.37,0,0,1-3-6.08Z" transform="translate(-1.32 -1.37)"/><path class="b" d="M833.26,1.52C815.41,10.38,796.48,15.09,776.67,17c-23.29,2.17-46.41-.46-69.58-1.68-34.36-1.8-68.65-1.35-102.85,2.58-34.51,4-67.39-1.73-98.82-16.33Z" transform="translate(-1.32 -1.37)"/><path class="a" d="M1367.52,51.61c-16.94-16-34.21-31.62-48.57-50.09,14.81,0,29.62.15,44.43-.11,3.58-.06,4.3.72,4.24,4.26C1367.38,21,1367.52,36.29,1367.52,51.61Z" transform="translate(-1.32 -1.37)"/><path class="b" d="M828.78,735.75c-25-2.36-52,3.85-78.76,12-22.49,6.85-45.56,9.2-68.92,4.86-9.78-1.83-19-5.19-26.5-12.21-10.36-9.76-10.11-20.72.81-29.88a57.53,57.53,0,0,1,19.92-10.74c35.25-11,71.18-16.9,108.26-13.64,14.92,1.32,27.3,8.94,39.78,16,14.28,8.07,29.86,13.76,43.11,23.69,2,1.5,4.76,2.76,3.9,5.8-1,3.45-4,4.14-7.27,4.13C852.74,735.72,842.37,735.75,828.78,735.75Z" transform="translate(-1.32 -1.37)"/><path class="b" d="M1083.89,742c-7.21.52-13.82-1.8-19.91-5.67-14-8.88-15.94-23-4.61-35.17,8.17-8.82,18.23-15.22,29.13-20.1,25.41-11.39,51.49-20.82,79-26a62.56,62.56,0,0,1,21.87-.39c9,1.5,11.35,6.77,6.9,14.76-5.28,9.47-13.55,16.26-21.8,22.89-19.54,15.69-41.08,28.45-62.49,41.36C1103.48,738.81,1094.37,742.7,1083.89,742Z" transform="translate(-1.32 -1.37)"/></svg>