<svg xmlns="http://www.w3.org/2000/svg" viewBox="0 0 1943.05 1093.09"><defs><style>.a{opacity:0;fill:#ffffff;}.b{fill:#ffffff;}</style></defs><title>1800f_00397</title><path class="a" d="M1655.9,352.13v217c-16.14,7.79-32.22,15.72-48.43,23.36-28.83,13.59-43.94,36.37-47.27,67.9-3.54,33.38-9.09,66.41-18.74,98.71-12.18,40.73-29.39,79.5-45.13,118.85-7.11,17.75-14.91,35.27-19.53,53.93H44c-6-9.4-11.94-18.78-17.83-28.21-15.36-24.61-36.91-41.08-64.45-50.17-20.92-6.9-42.38-11.71-63.61-17.42-17.32-4.66-34.87-8.89-50.21-18.81-14.31-9.26-20.64-22.14-18.21-39.4,2.23-15.87,10-29,19.14-41.56,16.88-23.15,36.69-43.82,56-64.86,21.78-23.72,36.79-50.46,42.47-82.36,2.48-13.92,6.38-27.59,8.78-41.52,6.75-39.24,28.24-66.43,64.38-83.17,38.41-17.79,78.55-29.38,120.1-36.3,32.88-5.48,61.53-17.66,81.6-45.83a206.33,206.33,0,0,0,29.54-58.7c6.23-20,11.89-40.22,17.51-60.43,11.08-39.85,32.52-74.35,55-108.43,24.76-37.52,45.38-76.68,45.44-123.4,0-19.91-1.73-39.43-10.72-57.58-11.93-24.09-30.33-30.41-54.61-19-10.35,4.88-19.5,11.7-29.06,17.86-13.8,8.89-26.89,18.92-42,25.75C211,8.52,187.46,10.75,163.54,9.25,127.61,7,94.55,15,63.18,32.68,35.24,48.39,5,58.68-26.58,64.25c-24.62,4.34-49.38,8-74,12.2-43,7.42-84.75,21.44-128.89,23-17.26.6-31,9.67-40.85,24.29-5.33,7.95-11,15.68-16.53,23.51q0-150.64-.15-301.28c0-5.69,1.29-7,7-7q609,.22,1218,.14c4.6,14.85,12.53,28.11,20.58,41.18,48.07,78,103.7,148.18,184.13,196.8,72.18,43.63,131.16,103.64,187.3,166,30.64,34,47.69,72.81,40.81,120.65-6.31,43.81-24.39,78.1-65.08,98.54-14,7-27.67,14.77-41.18,22.71-15.92,9.37-31.77,19-42,35.2-8.22,13-7.5,28.16,1.82,40.39,7.15,9.39,16.9,15,27.57,19.37,25.33,10.25,51.74,11,78.4,8.26,27.29-2.76,52-14,77.25-23.8,32.67-12.67,55.23-34.35,65.84-68.36,11.14-35.74,34.9-61.87,64.63-83.75C1574.12,385.75,1615.2,369.43,1655.9,352.13ZM824.92,646c-6.3.46-12.65.58-18.89,1.45-41.64,5.77-82.24,16.47-122.89,26.79-19.87,5-39.39,11.44-56.74,22.87-14.45,9.5-17.39,18.35-10.35,34.17,11.33,25.47,26.78,48.66,41.61,72.14,6.93,11,18.36,16.31,30.58,19.66,13.9,3.8,28,3.36,42.16,1.69,33.4-4,65.73-11.29,94.82-29.29,33.13-20.51,57.32-47.8,66.34-86.69,6.36-27.4-4.54-47.18-30.9-56.83A100.3,100.3,0,0,0,824.92,646ZM331.4,614.76A96.12,96.12,0,0,0,302.88,618c-21.56,5.91-32,22.38-24.84,43.29,10,29.2,27,54,55.59,68,41.8,20.46,85.75,27.26,131.88,18.2,28.21-5.55,55.51-13.31,79.86-29.17,21.56-14,16.09-31.12,1.25-44.89-7.45-6.92-16.8-11.27-26.25-14.88-33.55-12.82-68.06-22.53-103-30.57C389,621.52,360.59,615.59,331.4,614.76Zm344.76-167a110.8,110.8,0,0,0,23.17-1.75c20.3-3.91,38.62-11.53,52.72-27.37,17.1-19.21,10.25-41.47-14.84-46.78-19.65-4.17-38.68.18-57.16,6.65-19.91,7-38.77,15.95-53,32.29-8.56,9.8-7.49,18.83,3.26,26.08a46.89,46.89,0,0,0,9.38,4.8A93.49,93.49,0,0,0,676.16,447.8Z" transform="translate(287.01 161.03)"/><path class="b" d="M-286.86,147.23c5.52-7.83,11.2-15.56,16.53-23.51,9.8-14.62,23.59-23.69,40.85-24.29,44.14-1.54,85.9-15.56,128.89-23,24.63-4.25,49.39-7.86,74-12.2C5,58.68,35.24,48.39,63.18,32.68,94.55,15,127.61,7,163.54,9.25c23.92,1.5,47.5-.73,69.78-10.83,15.09-6.83,28.18-16.86,42-25.75,9.56-6.16,18.71-13,29.06-17.86,24.28-11.45,42.68-5.13,54.61,19,9,18.15,10.75,37.67,10.72,57.58-.06,46.72-20.68,85.88-45.44,123.4-22.5,34.08-43.94,68.58-55,108.43-5.62,20.21-11.28,40.41-17.51,60.43a206.33,206.33,0,0,1-29.54,58.7c-20.07,28.17-48.72,40.35-81.6,45.83-41.55,6.92-81.69,18.51-120.1,36.3-36.14,16.74-57.63,43.93-64.38,83.17-2.4,13.93-6.3,27.6-8.78,41.52-5.68,31.9-20.69,58.64-42.47,82.36-19.31,21-39.12,41.71-56,64.86-9.14,12.55-16.91,25.69-19.14,41.56-2.43,17.26,3.9,30.14,18.21,39.4,15.34,9.92,32.89,14.15,50.21,18.81,21.23,5.71,42.69,10.52,63.61,17.42,27.54,9.09,49.09,25.56,64.45,50.17,5.89,9.43,11.88,18.81,17.83,28.21q-162.41,0-324.81.14c-5.2,0-6.22-1-6.21-6.21Q-286.76,536.54-286.86,147.23Z" transform="translate(287.01 161.03)"/><path class="b" d="M1655.9,352.13c-40.7,17.3-81.78,33.62-117.87,60.18-29.73,21.88-53.49,48-64.63,83.75-10.61,34-33.17,55.69-65.84,68.36-25.22,9.77-50,21-77.25,23.8-26.66,2.7-53.07,2-78.4-8.26-10.67-4.32-20.42-10-27.57-19.37-9.32-12.23-10-27.43-1.82-40.39,10.26-16.2,26.11-25.83,42-35.2,13.51-7.94,27.18-15.68,41.18-22.71,40.69-20.44,58.77-54.73,65.08-98.54,6.88-47.84-10.17-86.62-40.81-120.65-56.14-62.36-115.12-122.37-187.3-166-80.43-48.62-136.06-118.81-184.13-196.8-8.05-13.07-16-26.33-20.58-41.18h593.45c21.26,19.88,56.36,19.88,75.89,0,14.42,0,28.84.23,43.25-.14,4.55-.11,5.46.92,5.44,5.45-.2,52.11-.12,104.22-.12,156.33Z" transform="translate(287.01 161.03)"/><path class="b" d="M1476.8,931.92c4.62-18.66,12.42-36.18,19.53-53.93,15.74-39.35,33-78.12,45.13-118.85,9.65-32.3,15.2-65.33,18.74-98.71,3.33-31.53,18.44-54.31,47.27-67.9,16.21-7.64,32.29-15.57,48.43-23.36q0,178.33.14,356.68c0,5.19-1,6.24-6.22,6.22C1592.15,931.83,1534.47,931.92,1476.8,931.92Z" transform="translate(287.01 161.03)"/><path class="a" d="M1607.33-160.88c-19.53,19.88-54.63,19.88-75.89,0Z" transform="translate(287.01 161.03)"/><path class="b" d="M824.92,646a100.3,100.3,0,0,1,35.74,6c26.36,9.65,37.26,29.43,30.9,56.83-9,38.89-33.21,66.18-66.34,86.69-29.09,18-61.42,25.32-94.82,29.29-14.16,1.67-28.26,2.11-42.16-1.69-12.22-3.35-23.65-8.68-30.58-19.66-14.83-23.48-30.28-46.67-41.61-72.14-7-15.82-4.1-24.67,10.35-34.17,17.35-11.43,36.87-17.83,56.74-22.87,40.65-10.32,81.25-21,122.89-26.79C812.27,646.56,818.62,646.44,824.92,646Z" transform="translate(287.01 161.03)"/><path class="b" d="M331.4,614.76c29.19.83,57.61,6.76,85.93,13.27,35,8,69.49,17.75,103,30.57,9.45,3.61,18.8,8,26.25,14.88,14.84,13.77,20.31,30.85-1.25,44.89C521,734.23,493.72,742,465.51,747.54c-46.13,9.06-90.08,2.26-131.88-18.2-28.63-14-45.6-38.84-55.59-68-7.15-20.91,3.28-37.38,24.84-43.29A96.12,96.12,0,0,1,331.4,614.76Z" transform="translate(287.01 161.03)"/><path class="b" d="M676.16,447.8a93.49,93.49,0,0,1-36.52-6.08,46.89,46.89,0,0,1-9.38-4.8c-10.75-7.25-11.82-16.28-3.26-26.08,14.28-16.34,33.14-25.33,53-32.29,18.48-6.47,37.51-10.82,57.16-6.65,25.09,5.31,31.94,27.57,14.84,46.78-14.1,15.84-32.42,23.46-52.72,27.37A110.8,110.8,0,0,1,676.16,447.8Z" transform="translate(287.01 161.03)"/></svg>