<svg xmlns="http://www.w3.org/2000/svg" viewBox="0 0 1943.06 1093.12"><defs><style>.a{opacity:0;fill:#ffffff;}.b{fill:#ffffff;}</style></defs><title>1800f_00185</title><path class="a" d="M-286.86,810.5V664.79a15.44,15.44,0,0,0,3.4-1.24c38.2-25.92,79.41-46.43,120.75-66.6,29.83-14.57,61.15-22.4,94.72-16.45,7.68,1.35,15.42,3.16,23.22,2.5,12.79-1.08,20.64-10,27.54-19.44,12.67-17.43,22.94-36.31,31.79-55.92C30.09,473.25,34,438.11,22.71,401.4c-8.63-28.15-21.25-54.51-33.9-80.88-4.38-9.12-3.66-17.3,2.62-23.69,9.13-9.3,12.64-20.19,14-32.51C9,231.54,3.26,200.94-15.95,173.61c-7.19-10.23-16.5-17.14-30.07-14.9-6,1-11.56,3.45-17.09,5.95C-81.5,173-99.38,169.88-112,155.25c-14.48-16.72-22.93-36.41-24.08-58.55-1.34-25.8,12.52-44.7,30.52-60.88C-63.51-2-15.22-24.9,42.44-27.46c42.62-1.9,84-11.52,123.89-27.11,57.4-22.45,104.29-59.07,143.3-106.31h807.45c2,6.14,7,10.35,10.27,15.68,17.84,28.86,33.35,59,48.85,89.13,23.46,45.6,55,83.27,100.07,109,37.08,21.21,68,49.82,95.76,82,40.5,47,82.94,92,129.17,133.5,21.87,19.61,45.7,36.78,67.83,56.05,13.8,12,20.54,26.95,18,45.15-6.84,49.24-20.17,96.64-45.44,139.72-46,78.39-104.7,146.22-173.63,205.27a357.6,357.6,0,0,1-50.71,35.91c-30.84,18.24-64.18,26.65-99.89,26.55-18.9,0-35.13,6.26-47.6,21.05-5.54,6.57-11.59,12.71-17,19.38-22.55,27.81-50.14,47.45-85.92,54.43-17.35,3.39-34.57,7.5-51.88,11.13-47,9.86-94.74,11.77-142.55,12.41-27.68.37-55,2.9-81.7,10.66-19.93,5.81-39.59,12.38-56.13,25.7H98.66c-3.45-9.86-5-20.09-6-30.42-4-44.59-18.64-85.15-44.94-121.49-21.49-29.7-43.06-59.34-63-90.12a51.44,51.44,0,0,0-5.58-7.15c-8.72-9.34-14.25-9.61-24.74-1.9-12.35,9.07-21.28,21.55-32.26,32-11.55,11-23.09,21.95-34.35,33.22s-17.62,24.91-16.89,41.52a230.48,230.48,0,0,1-1.36,34.82c-2.48,23.1-14.28,36.39-36,39.18-9.7,1.25-19.1-1.37-28.25-4.3-25.75-8.24-48.68-22.14-71.64-36C-272.93,817.28-278.91,812-286.86,810.5ZM866.48,522.28c-8.92-.4-17.73.83-26.48,1.85-12.85,1.5-25.31,4.76-36.53,11.62-12.23,7.48-14.13,19.22-4.75,29.89a85.3,85.3,0,0,0,18,16.12c44.78,28.52,92.76,49.19,145.37,57.91,18.3,3,36.75,3,54.49-4,16.72-6.62,24.41-20.83,20-38.26-7.15-28.19-26.66-45.38-52.65-55.36C946.2,527.56,906.27,525,866.48,522.28Zm320.35,151.15c1.59-24.94-16.91-55.06-49.24-51.08-21.2,2.62-36.8,19.71-33.44,39,1.67,9.58,5.7,18.31,11.06,26.4,7.63,11.5,16.52,21.84,29.06,28.19,14.45,7.31,26.72,3.46,34.79-10.5C1184.79,695.54,1187,684.77,1186.83,673.43Z" transform="translate(287.02 161.06)"/><path class="b" d="M734.6,931.92c16.54-13.32,36.2-19.89,56.13-25.7,26.65-7.76,54-10.29,81.7-10.66C920.24,894.92,968,893,1015,883.15c17.31-3.63,34.53-7.74,51.88-11.13,35.78-7,63.37-26.62,85.92-54.43,5.41-6.67,11.46-12.81,17-19.38,12.47-14.79,28.7-21.1,47.6-21.05,35.71.1,69-8.31,99.89-26.55A357.6,357.6,0,0,0,1368,714.7c68.93-59.05,127.67-126.88,173.63-205.27,25.27-43.08,38.6-90.48,45.44-139.72,2.52-18.2-4.22-33.14-18-45.15-22.13-19.27-46-36.44-67.83-56.05C1455,227.05,1412.53,182,1372,135c-27.78-32.22-58.68-60.83-95.76-82-45-25.77-76.61-63.44-100.07-109-15.5-30.12-31-60.27-48.85-89.13-3.29-5.33-8.26-9.54-10.27-15.68h286.86c-2.22,10.6-4.9,21-3.75,32.14,2.18,21,12.88,37.56,27,52.17,28.49,29.49,62,52.45,96.57,74.17,41.23,26,87.29,40.88,132.15,58.56q0,434.46.14,868.93c0,5.69-1.28,7-7,7Q1191.84,931.82,734.6,931.92Z" transform="translate(287.02 161.06)"/><path class="b" d="M309.63-160.88c-39,47.24-85.9,83.86-143.3,106.31C126.46-39,85.06-29.36,42.44-27.46-15.22-24.9-63.51-2-105.61,35.82c-18,16.18-31.86,35.08-30.52,60.88,1.15,22.14,9.6,41.83,24.08,58.55,12.67,14.63,30.55,17.72,48.94,9.41,5.53-2.5,11.06-5,17.09-5.95,13.57-2.24,22.88,4.67,30.07,14.9C3.26,200.94,9,231.54,5.4,264.32c-1.33,12.32-4.84,23.21-14,32.51-6.28,6.39-7,14.57-2.62,23.69,12.65,26.37,25.27,52.73,33.9,80.88,11.26,36.71,7.38,71.85-8.15,106.24-8.85,19.61-19.12,38.49-31.79,55.92C-24.13,573.05-32,581.92-44.77,583c-7.8.66-15.54-1.15-23.22-2.5-33.57-6-64.89,1.88-94.72,16.45-41.34,20.17-82.55,40.68-120.75,66.6a15.44,15.44,0,0,1-3.4,1.24q0-409.2-.16-818.41c0-6,1-7.45,7.3-7.44Q15-160.73,309.63-160.88Z" transform="translate(287.02 161.06)"/><path class="b" d="M-286.86,810.5c7.95,1.45,13.93,6.78,20.52,10.76,23,13.86,45.89,27.76,71.64,36,9.15,2.93,18.55,5.55,28.25,4.3,21.73-2.79,33.53-16.08,36-39.18a230.48,230.48,0,0,0,1.36-34.82c-.73-16.61,5.5-30.13,16.89-41.52s22.8-22.25,34.35-33.22c11-10.43,19.91-22.91,32.26-32,10.49-7.71,16-7.44,24.74,1.9a51.44,51.44,0,0,1,5.58,7.15c20,30.78,41.53,60.42,63,90.12,26.3,36.34,41,76.9,44.94,121.49.91,10.33,2.51,20.56,6,30.42q-189.73,0-379.45.14c-5.2,0-6.26-1-6.22-6.21C-286.73,887.4-286.86,849-286.86,810.5Z" transform="translate(287.02 161.06)"/><path class="a" d="M1655.9,56.16C1611,38.48,1565,23.55,1523.75-2.4c-34.52-21.72-68.08-44.68-96.57-74.17-14.11-14.61-24.81-31.15-27-52.17-1.15-11.09,1.53-21.54,3.75-32.14q122.94,0,245.88-.15c5.2,0,6.24,1,6.22,6.22C1655.82-84.49,1655.9-14.16,1655.9,56.16Z" transform="translate(287.02 161.06)"/><path class="b" d="M866.48,522.28c39.79,2.73,79.72,5.28,117.45,19.77,26,10,45.5,27.17,52.65,55.36,4.42,17.43-3.27,31.64-20,38.26-17.74,7-36.19,7-54.49,4-52.61-8.72-100.59-29.39-145.37-57.91a85.3,85.3,0,0,1-18-16.12c-9.38-10.67-7.48-22.41,4.75-29.89,11.22-6.86,23.68-10.12,36.53-11.62C848.75,523.11,857.56,521.88,866.48,522.28Z" transform="translate(287.02 161.06)"/><path class="b" d="M1186.84,673.43c.16,11.34-2,22.11-7.78,32-8.07,14-20.34,17.81-34.79,10.5-12.54-6.35-21.43-16.69-29.06-28.19-5.36-8.09-9.39-16.82-11.06-26.4-3.36-19.29,12.24-36.38,33.44-39C1169.92,618.37,1188.42,648.49,1186.84,673.43Z" transform="translate(287.02 161.06)"/></svg>