<svg xmlns="http://www.w3.org/2000/svg" viewBox="0 0 1943.3 1093.09"><defs><style>.a{opacity:0;fill:#ffffff;}.b{fill:#ffffff;}</style></defs><title>1800f_00202</title><path class="a" d="M1384.21,931.92H-285.34c6.48-24.33,16.89-47,28.85-69,16.09-29.62,38.64-54.33,60.9-79.21,33.24-37.14,59.77-78.35,76.51-125.48,5-14,9.1-28.37,13.18-42.7,6.23-21.87,19.94-36.26,41.55-43.29,15.64-5.09,31.59-9,48-9.79,15.11-.74,30.39-1.44,44.82,4.84,26.12,11.36,45.19,30.91,61.93,53.2,10.74,14.29,19.87,29.52,22.52,47.45,3.16,21.44,5,43.07,8,64.54,1.59,11.45,3.69,23,10.26,33,2.46,3.74,4.83,7.72,10.35,7.7,5.92,0,8.56-4.2,10.54-8.48,3.07-6.66,4.27-13.93,4.73-21.25,1.33-21-1.06-41.9-3.36-62.7-3.74-33.88-6.91-67.79-7.28-101.89-.52-48.56,3.16-97.07,1.6-145.64-.54-16.68-1.33-33.37-4.3-49.83-8.31-46.13-29.6-83.55-71.95-106.77C56,268,39.49,261.48,23.08,254.85c-13.54-5.48-26-12.58-34.88-24.58-7.45-10-7.61-19.88-.8-30.26A43.46,43.46,0,0,1-1.72,188.48c26.57-19.13,56.53-27.29,88.77-23.88,16.86,1.78,32.31.14,47-7.63,39.11-20.7,78.81-40.18,118.83-59.06,43.63-20.59,82-48.68,115.68-83.4C417.38-35.8,459.83-91,497-150.31c2.08-3.31,5.47-6.1,5.34-10.57H730.05c0,3.06,2.72,4,4.44,5.73,12.52,12.42,21.8,26.62,23.94,44.53,1,8.53,1.62,17.12,2,25.69,1.31,28.58,12.92,50,41,60.41a180.3,180.3,0,0,0,37.41,9.44C876.6-9.72,914-14.52,951.39-19c34.6-4.13,69-10.16,104.05-10a164.55,164.55,0,0,0,72.65-16.08c4.78-2.29,9.71-4.29,14.62-6.3,20.28-8.31,40.92-14.73,63.31-12.38,23,2.41,34.64,15.23,34.34,38a125.35,125.35,0,0,1-.64,15.15c-2.75,20.19.3,39.77,5.56,59.2,4.21,15.61,9.55,31,11.32,47.13,3.46,31.62,5.69,63.38,9.28,95,3.22,28.36,10.43,55.71,26.15,80,12.65,19.55,28.68,26,51.44,21.35,12.36-2.54,24.66-5.43,37-8,26.3-5.53,49.56,2.91,71.24,16.6,44.49,28.12,86.79,59.39,128.34,91.64,24.75,19.22,49.14,38.9,75.84,55.46V690.59c-1.73,2.48-3.52,4.92-5.19,7.44-27.69,41.74-57.23,82.08-91.74,118.54-41.87,44.24-92.67,75.35-147.78,100.08A153.31,153.31,0,0,0,1384.21,931.92ZM969,183.7c.18-4.59-1-7.94-6.51-8.07-12-.28-29.15,15.41-29.48,27.19-.15,5.14,2.32,8.29,7.47,8.48C951.94,211.73,970.6,194.27,969,183.7Z" transform="translate(287.23 161.03)"/><path class="b" d="M502.38-160.88c.13,4.47-3.26,7.26-5.34,10.57C459.83-91,417.38-35.8,368.54,14.51c-33.7,34.72-72.05,62.81-115.68,83.4-40,18.88-79.72,38.36-118.83,59.06-14.67,7.77-30.12,9.41-47,7.63-32.24-3.41-62.2,4.75-88.77,23.88A43.46,43.46,0,0,0-12.6,200c-6.81,10.38-6.65,20.22.8,30.26,8.9,12,21.34,19.1,34.88,24.58C39.49,261.48,56,268,71.51,276.54c42.35,23.22,63.64,60.64,72,106.77,3,16.46,3.76,33.15,4.3,49.83,1.56,48.57-2.12,97.08-1.6,145.64.37,34.1,3.54,68,7.28,101.89,2.3,20.8,4.69,41.68,3.36,62.7-.46,7.32-1.66,14.59-4.73,21.25-2,4.28-4.62,8.47-10.54,8.48-5.52,0-7.89-4-10.35-7.7-6.57-10-8.67-21.51-10.26-33-3-21.47-4.82-43.1-8-64.54-2.65-17.93-11.78-33.16-22.52-47.45-16.74-22.29-35.81-41.84-61.93-53.2-14.43-6.28-29.71-5.58-44.82-4.84-16.43.8-32.38,4.7-48,9.79-21.61,7-35.32,21.42-41.55,43.29-4.08,14.33-8.19,28.68-13.18,42.7-16.74,47.13-43.27,88.34-76.51,125.48-22.26,24.88-44.81,49.59-60.9,79.21-12,22-22.37,44.71-28.85,69-3.14-1.37-1.43-4.11-1.43-6.07q-.15-138.89-.09-277.76a6.45,6.45,0,0,1,2.24,0c25.34,10,49,4.78,72-7.6,27.6-14.85,55.32-29.45,82.94-44.26,17-9.09,27.86-22.22,30.74-42.17A248.92,248.92,0,0,0-98,493c-3.37-33.12-15.82-61.81-39.71-85.46A518.71,518.71,0,0,0-180.54,369c-31.51-24.9-60.35-52.23-82.53-86.09a187.15,187.15,0,0,0-23.79-29.45q0-204.13-.15-408.28c0-5.2,1-6.22,6.22-6.22Q110.8-160.78,502.38-160.88Z" transform="translate(287.23 161.03)"/><path class="b" d="M1655.9,447.75c-26.7-16.56-51.09-36.24-75.84-55.46-41.55-32.25-83.85-63.52-128.34-91.64-21.68-13.69-44.94-22.13-71.24-16.6-12.35,2.59-24.65,5.48-37,8-22.76,4.66-38.79-1.8-51.44-21.35-15.72-24.32-22.93-51.67-26.15-80-3.59-31.61-5.82-63.37-9.28-95-1.77-16.1-7.11-31.52-11.32-47.13-5.26-19.43-8.31-39-5.56-59.2a125.35,125.35,0,0,0,.64-15.15c.3-22.78-11.38-35.6-34.34-38-22.39-2.35-43,4.07-63.31,12.38-4.91,2-9.84,4-14.62,6.3A164.55,164.55,0,0,1,1055.44-29c-35-.12-69.45,5.91-104.05,10C914-14.52,876.6-9.72,838.86-15.08a180.3,180.3,0,0,1-37.41-9.44c-28.09-10.4-39.7-31.83-41-60.41-.39-8.57-1-17.16-2-25.69-2.14-17.91-11.42-32.11-23.94-44.53-1.72-1.7-4.45-2.67-4.44-5.73q459.51,0,919-.14c5.69,0,7.16,1.25,7,7-.46,14.91-.15,29.85-.15,44.77-10.8,1.1-21.65,1.88-32.4,3.37-22.87,3.18-45.25,8.21-65.54,19.93-24.87,14.38-33.73,36-26,63.59A123.36,123.36,0,0,0,1544,6.18q34.15,59.07,72.87,115.26c9.88,14.36,21.3,27.76,39,33.38Z" transform="translate(287.23 161.03)"/><path class="a" d="M-286.86,253.47a187.15,187.15,0,0,1,23.79,29.45c22.18,33.86,51,61.19,82.53,86.09a518.71,518.71,0,0,1,42.84,38.51C-113.81,431.17-101.36,459.86-98,493a248.92,248.92,0,0,1-.92,61.1c-2.88,19.95-13.77,33.08-30.74,42.17-27.62,14.81-55.34,29.41-82.94,44.26-23,12.38-46.69,17.63-72,7.6a6.45,6.45,0,0,0-2.24,0Z" transform="translate(287.23 161.03)"/><path class="b" d="M1384.21,931.92a153.31,153.31,0,0,1,27-15.27c55.11-24.73,105.91-55.84,147.78-100.08,34.51-36.46,64-76.8,91.74-118.54,1.67-2.52,3.46-5,5.19-7.44q0,117.63.14,235.26c0,5.2-1,6.23-6.22,6.21Q1517,931.76,1384.21,931.92Z" transform="translate(287.23 161.03)"/><path class="a" d="M1655.9,154.82c-17.72-5.62-29.14-19-39-33.38Q1578.23,65.24,1544,6.18a123.36,123.36,0,0,1-12.08-28.57c-7.7-27.62,1.16-49.21,26-63.59,20.29-11.72,42.67-16.75,65.54-19.93,10.75-1.49,21.6-2.27,32.4-3.37Z" transform="translate(287.23 161.03)"/><path class="b" d="M969,183.69c1.64,10.58-17,28-28.53,27.61-5.15-.19-7.62-3.34-7.47-8.48.33-11.78,17.46-27.47,29.48-27.19C968,175.76,969.13,179.11,969,183.69Z" transform="translate(287.23 161.03)"/></svg>