<svg xmlns="http://www.w3.org/2000/svg" viewBox="0 0 1943.11 1093.11"><defs><style>.a{opacity:0;fill:#ffffff;}.b{fill:#ffffff;}</style></defs><title>1800f_00178</title><path class="a" d="M218.56-160.88H1149c2,2.61,3.85,5.3,5.94,7.81,36.62,43.79,66.4,91.67,86.77,145.17,16.81,44.19,41.36,83.36,76.5,115.21,41.6,37.69,81.76,77,124.95,112.88,21.38,17.78,43.09,35.31,69.6,45.33,14.74,5.57,30.29,7.86,45.62,11,22.64,4.71,25.75,12.65,11.18,30.47a310,310,0,0,0-35.41,54.62c-30.26,58.7-62.3,116.33-100.08,170.63-31.9,45.86-67.67,88.29-110.08,124.83-19.48,16.78-40.39,31.38-65.54,38.51-17.32,4.92-34.82,6.52-52.2.21-12.78-4.63-17.74-13.31-15.48-26.65,2.33-13.74,6.46-27,10.39-40.36,5.76-19.5,11.37-39.2,5.78-59.53-11.84-43.13-40.62-72.59-78.79-93.51-13-7.11-26.46-4.76-38.9,3.2-9.65,6.19-17.9,14-26,22-7.91,7.83-15.77,15.78-25.3,21.65-13.58,8.38-27.13,8.4-40.51-.8C985.2,513.43,978,501.52,973,488c-4.28-11.62-8.2-23.39-12.88-34.84-8.34-20.42-21.05-26.94-42.7-22.59-2.47.49-5,.86-7.41,1.5-34.15,9-68.5,9.33-102.87,1.83C785.6,429.17,765,421.09,744,414.71c-18.9-5.72-37.89-10.87-58-9.56-22.59,1.47-33,16.44-26.1,38,4.25,13.35,12.53,24.19,21.78,34.28,24.38,26.57,53.7,46.8,84.82,64.46,40,22.71,83.48,37.25,126.34,53.23,27.33,10.19,55.11,18.42,84.06,22.41,17.12,2.36,34.19,5.55,49.21,14.37,30.16,17.72,58,38.87,84.13,62,15.67,13.86,15.37,30.3,1.31,45.87-10.64,11.78-24.5,18-39.4,21.46-40.23,9.22-77.9,24.77-114.43,43.69a283.62,283.62,0,0,1-89.12,28.57c-34.83,5.21-68,15.52-97.21,36.11-13.44,9.49-24.75,20.6-28.5,37.74-1.91,8.69,2.24,16.35,2.34,24.59H311.14c-1.26-1.57-3.15-1.4-4.85-1.73-27.85-5.38-56.09-7.09-84.31-9.14-33-2.4-65.74-6.8-97.83-15.62C96.24,897.76,79.35,881,74.09,852,66.7,811.35,52.61,773.26,29.5,738.56,8.59,707.17-13,676.41-38.95,648.91c-10.35-11-22.76-18.2-38.27-19.49-9-.76-18.06-2.1-27-3.59-35.63-5.9-70.46-5-103.68,11.3-22.41,11-42.07,24.77-53.42,48.29-6.89,14.28-15,28-25.52,40.08V617.74c6.51-2,13-4,19.53-6,46.77-14.94,95.14-23.59,142.45-36.41C-107.14,570.49-90,564-76.79,550.76c29.13-29.26,37.55-65.89,33.62-105.43-3.59-36-12.94-71-24.92-105.24s-31-63.65-60.42-85.25c-14.51-10.64-21.74-24.58-25.12-41.6-3.88-19.49-4.55-39.14-4.3-58.88a506.92,506.92,0,0,0-8.41-99.56c-3.78-20.25-6.28-41,3.13-60.36C-143-46.94-111.29-75.5-66.42-87.86c26-7.17,53-7.45,79.71-8.89,52.94-2.85,104.48-11.54,153.05-33.81C184.7-139,203-147.67,218.56-160.88Z" transform="translate(287.06 161.05)"/><path class="b" d="M745.23,931.92c-.1-8.24-4.25-15.9-2.34-24.59,3.75-17.14,15.06-28.25,28.5-37.74,29.18-20.59,62.38-30.9,97.21-36.11a283.62,283.62,0,0,0,89.12-28.57c36.53-18.92,74.2-34.47,114.43-43.69,14.9-3.41,28.76-9.68,39.4-21.46,14.06-15.57,14.36-32-1.31-45.87-26.16-23.13-54-44.28-84.13-62-15-8.82-32.09-12-49.21-14.37-28.95-4-56.73-12.22-84.06-22.41-42.86-16-86.35-30.52-126.34-53.23-31.12-17.66-60.44-37.89-84.82-64.46-9.25-10.09-17.53-20.93-21.78-34.28-6.86-21.55,3.51-36.52,26.1-38,20.11-1.31,39.1,3.84,58,9.56,21,6.38,41.6,14.46,63.11,19.16C841.48,441.37,875.83,441,910,432c2.43-.64,4.94-1,7.41-1.5,21.65-4.35,34.36,2.17,42.7,22.59,4.68,11.45,8.6,23.22,12.88,34.84,5,13.55,12.23,25.46,24.44,33.87,13.38,9.2,26.93,9.18,40.51.8,9.53-5.87,17.39-13.82,25.3-21.65,8.09-8,16.34-15.82,26-22,12.44-8,25.94-10.31,38.9-3.2,38.17,20.92,67,50.38,78.79,93.51,5.59,20.33,0,40-5.78,59.53-3.93,13.33-8.06,26.62-10.39,40.36-2.26,13.34,2.7,22,15.48,26.65,17.38,6.31,34.88,4.71,52.2-.21,25.15-7.13,46.06-21.73,65.54-38.51,42.41-36.54,78.18-79,110.08-124.83,37.78-54.3,69.82-111.93,100.08-170.63A310,310,0,0,1,1569.52,307c14.57-17.82,11.46-25.76-11.18-30.47-15.33-3.18-30.88-5.47-45.62-11-26.51-10-48.22-27.55-69.6-45.33-43.19-35.91-83.35-75.19-124.95-112.88-35.14-31.85-59.69-71-76.5-115.21-20.37-53.5-50.15-101.38-86.77-145.17-2.09-2.51-4-5.2-5.94-7.81h189.72c1,7.5,1.77,15.07,3.22,22.49,11.64,59.69,43.78,103.62,100.15,128.27,33.59,14.69,69,22.59,105.34,27.21,35.53,4.52,67.81-2.7,96.43-24.82,4-3.06,7.12-7.24,12.08-9q0,470.88.14,941.78c0,5.69-1.28,7-7,7Q1197.15,931.82,745.23,931.92Z" transform="translate(287.06 161.05)"/><path class="b" d="M218.56-160.88C203-147.67,184.7-139,166.34-130.56c-48.57,22.27-100.11,31-153,33.81-26.7,1.44-53.71,1.72-79.71,8.89C-111.29-75.5-143-46.94-163.21-5.56c-9.41,19.31-6.91,40.11-3.13,60.36a506.92,506.92,0,0,1,8.41,99.56c-.25,19.74.42,39.39,4.3,58.88,3.38,17,10.61,31,25.12,41.6,29.45,21.6,48.44,51,60.42,85.25s21.33,69.2,24.92,105.24c3.93,39.54-4.49,76.17-33.62,105.43C-90,564-107.14,570.49-124.88,575.3c-47.31,12.82-95.68,21.47-142.45,36.41-6.49,2.07-13,4-19.53,6q0-386.05-.13-772.09c0-5.26.8-6.7,6.5-6.7Q-31-160.74,218.56-160.88Z" transform="translate(287.06 161.05)"/><path class="b" d="M-286.86,725.5c10.55-12.06,18.63-25.8,25.52-40.08,11.35-23.52,31-37.25,53.42-48.29,33.22-16.34,68-17.2,103.68-11.3,9,1.49,18,2.83,27,3.59,15.51,1.29,27.92,8.5,38.27,19.49C-13,676.41,8.59,707.17,29.5,738.56,52.61,773.26,66.7,811.35,74.09,852c5.26,28.93,22.15,45.74,50.06,53.41,32.09,8.82,64.78,13.22,97.83,15.62,28.22,2.05,56.46,3.76,84.31,9.14,1.7.33,3.59.16,4.85,1.73q-295.3,0-590.61.14c-5.77,0-7.62-.61-7.59-7.16C-286.73,858.43-286.86,792-286.86,725.5Z" transform="translate(287.06 161.05)"/><path class="a" d="M1655.9-16.69c-5,1.72-8.12,5.9-12.08,9-28.62,22.12-60.9,29.34-96.43,24.82-36.29-4.62-71.75-12.52-105.34-27.21-56.37-24.65-88.51-68.58-100.15-128.27-1.45-7.42-2.17-15-3.22-22.49q155.57,0,311.14-.15c5.2,0,6.26,1,6.23,6.22C1655.79-108.77,1655.9-62.73,1655.9-16.69Z" transform="translate(287.06 161.05)"/></svg>