<svg xmlns="http://www.w3.org/2000/svg" viewBox="0 0 1366.28 768.29"><defs><style>.a{opacity:0;fill:#ffffff;}.b{fill:#ffffff;}</style></defs><title>1800f_00062</title><path class="a" d="M1367.52,459.89v75.89c-35.94,9.33-71.9,18.58-107.82,28a182.91,182.91,0,0,0-44.91,18.07c-12.46,7.15-23.77,15.68-29.1,29.74-6.51,17.19-1.5,33.14,7.49,47.61,8.87,14.27,12.33,29.53,13.75,45.88,1.86,21.52.13,42.95-.3,64.42H267.13c-.92-1.52-2.54-1.43-4-1.8-27-7-54.53-10.48-82.16-13.51-21.07-2.31-42.32-3.67-62.86-9.42-5.93-1.66-13.54-3.08-14.37-10.49-.77-6.89,5.88-10.1,10.94-13.31,12.29-7.79,26.05-12.26,39.79-16.55,48.7-15.17,92.85-38.46,130.66-73,24.42-22.29,45.17-47.11,52.61-80.55a229.68,229.68,0,0,0,5.09-45.11c.58-28.3.87-56.61,2.79-84.87a81.38,81.38,0,0,0-2.1-25.59c-4.24-16.83-14.74-23.15-31.72-19.05A73.85,73.85,0,0,0,301,379.72c-8.7,3.62-17.72,6.36-27,7.07-17.88,1.36-35.61,3.08-52.91,8.25-7.51,2.24-13.08-1.22-15.66-8.7a61.14,61.14,0,0,1-2.08-8.82c-3.85-20.68-.25-41.3.88-61.9,1.67-30.52-2.15-59.54-20.32-85.25-8.6-12.18-17.74-24-25.56-36.7-23-37.2-44.06-75.55-67.95-112.2-2.47-3.79-4.68-7.81-5.56-12.38-1.13-5.91.9-9.8,6.92-11.48a40.36,40.36,0,0,1,10.48-1.37c13.7-.15,27.22,1.86,40.7,3.87,24.93,3.71,49.81,4.89,74.53-1C253.85,50.33,284,31.74,306.59,1.52h601c-.48,2.46,1.49,3.63,2.81,5a268.34,268.34,0,0,0,23.47,22.64c28.78,23.9,59.82,45,87.19,70.67,64.08,60.13,112.88,129.8,136.95,215.4,7.92,28.2,15.83,56.45,29.49,82.7,14.48,27.82,35.17,45.48,67.79,49.37C1292.7,451.78,1330.12,455.67,1367.52,459.89Zm-593,233.86c18.89-.16,36.65-3.17,51.82-14.84,12.9-9.93,14.14-23,3.65-35.47A44,44,0,0,0,817,633.2c-27.37-14.7-55-12.43-82.55-.7-9.61,4.09-18.41,9.61-25.09,17.88-7.81,9.65-6.9,19.39,2.65,27.2a42.55,42.55,0,0,0,9.71,5.8C738.61,690.84,756.54,693.4,774.55,693.75ZM881.8,503c0-26.26-27.39-48.92-52-42.81-11.39,2.82-20.12,10.39-28.73,17.82-12,10.34-25.16,17.47-41.25,18.95a53.69,53.69,0,0,0-19.64,5.35c-3.37,1.73-7.16,3.8-6.58,8.3.55,4.25,4.13,5.83,8,6.93a38.11,38.11,0,0,0,18.77.64c17.18-3.85,33.56-1.12,49.86,4.36,11.48,3.86,22.63,8.8,34.64,10.95C865.52,537.23,881.82,523.72,881.8,503Z" transform="translate(-1.37 -1.37)"/><path class="b" d="M306.59,1.52C284,31.74,253.85,50.33,217.44,59.06c-24.72,5.94-49.6,4.76-74.53,1-13.48-2-27-4-40.7-3.87a40.36,40.36,0,0,0-10.48,1.37c-6,1.68-8,5.57-6.92,11.48.88,4.57,3.09,8.59,5.56,12.38,23.89,36.65,45,75,67.95,112.2,7.82,12.67,17,24.52,25.56,36.7,18.17,25.71,22,54.73,20.32,85.25-1.13,20.6-4.73,41.22-.88,61.9a61.14,61.14,0,0,0,2.08,8.82c2.58,7.48,8.15,10.94,15.66,8.7,17.3-5.17,35-6.89,52.91-8.25,9.32-.71,18.34-3.45,27-7.07a73.85,73.85,0,0,1,10.81-3.44c17-4.1,27.48,2.22,31.72,19.05a81.38,81.38,0,0,1,2.1,25.59c-1.92,28.26-2.21,56.57-2.79,84.87a229.68,229.68,0,0,1-5.09,45.11c-7.44,33.44-28.19,58.26-52.61,80.55-37.81,34.53-82,57.82-130.66,73C140.75,708.73,127,713.2,114.7,721c-5.06,3.21-11.71,6.42-10.94,13.31.83,7.41,8.44,8.83,14.37,10.49,20.54,5.75,41.79,7.11,62.86,9.42,27.63,3,55.18,6.5,82.16,13.51,1.44.37,3.06.28,4,1.8q-129.76,0-259.54.14c-5.2,0-6.24-1-6.22-6.22.24-57.16.15-114.33.15-171.5,23-26.57,34.84-56.86,30.92-92.41-2.74-24.9-9.66-49-15-73.34-2.73-12.45-7-24.73-15.92-34.6q0-192-.15-384c0-5.2,1-6.23,6.22-6.22Q157.1,1.67,306.59,1.52Z" transform="translate(-1.37 -1.37)"/><path class="b" d="M1367.52,459.89c-37.4-4.22-74.82-8.11-112.19-12.57-32.62-3.89-53.31-21.55-67.79-49.37-13.66-26.25-21.57-54.5-29.49-82.7C1134,229.65,1085.18,160,1021.1,99.85c-27.37-25.69-58.41-46.77-87.19-70.67A268.34,268.34,0,0,1,910.44,6.54c-1.32-1.39-3.29-2.56-2.81-5H1255.2c8.33,13.37,18.93,24.92,29.67,36.28,18.76,19.85,26.08,42.4,19.37,69.48-3.14,12.68-7.73,25.22-8,38.43-.77,32.52,15,57.88,36.08,80.72,9.46,10.26,20.92,16.48,35.25,16.42Z" transform="translate(-1.37 -1.37)"/><path class="b" d="M1206.63,769.52c.43-21.47,2.16-42.9.3-64.42-1.42-16.35-4.88-31.61-13.75-45.88-9-14.47-14-30.42-7.49-47.61,5.33-14.06,16.64-22.59,29.1-29.74a182.91,182.91,0,0,1,44.91-18.07c35.92-9.44,71.88-18.69,107.82-28q0,114.21.12,228.42c0,4.53-.91,5.46-5.43,5.44C1310.35,769.44,1258.49,769.52,1206.63,769.52Z" transform="translate(-1.37 -1.37)"/><path class="a" d="M1367.52,242.85c-14.33.06-25.79-6.16-35.25-16.42-21.08-22.84-36.85-48.2-36.08-80.72.32-13.21,4.91-25.75,8-38.43,6.71-27.08-.61-49.63-19.37-69.48-10.74-11.36-21.34-22.91-29.67-36.28,35.67,0,71.34.1,107-.13,4.54,0,5.45.92,5.44,5.44Q1367.39,124.84,1367.52,242.85Z" transform="translate(-1.37 -1.37)"/><path class="a" d="M1.52,391.59c8.9,9.87,13.19,22.15,15.92,34.6,5.34,24.37,12.26,48.44,15,73.34,3.92,35.55-7.95,65.84-30.92,92.41Z" transform="translate(-1.37 -1.37)"/><path class="b" d="M774.55,693.75c-18-.35-35.94-2.91-52.87-10.37a42.55,42.55,0,0,1-9.71-5.8c-9.55-7.81-10.46-17.55-2.65-27.2,6.68-8.27,15.48-13.79,25.09-17.88,27.58-11.73,55.18-14,82.55.7A44,44,0,0,1,830,643.44c10.49,12.42,9.25,25.54-3.65,35.47C811.2,690.58,793.44,693.59,774.55,693.75Z" transform="translate(-1.37 -1.37)"/><path class="b" d="M881.8,503c0,20.68-16.28,34.19-36.89,30.49-12-2.15-23.16-7.09-34.64-10.95-16.3-5.48-32.68-8.21-49.86-4.36a38.11,38.11,0,0,1-18.77-.64c-3.9-1.1-7.48-2.68-8-6.93-.58-4.5,3.21-6.57,6.58-8.3A53.69,53.69,0,0,1,759.83,497c16.09-1.48,29.29-8.61,41.25-18.95,8.61-7.43,17.34-15,28.73-17.82C854.41,454.12,881.77,476.78,881.8,503Z" transform="translate(-1.37 -1.37)"/></svg>