<svg xmlns="http://www.w3.org/2000/svg" viewBox="0 0 1366.31 768.3"><defs><style>.a{opacity:0;fill:#ffffff;}.b{fill:#ffffff;}</style></defs><title>1800f_00088</title><path class="a" d="M1296.18,769.52H935c8.58-14.42,7.16-21.42-6.85-31.73-12.73-9.37-27.57-13.62-42.76-16.68C860,716,834,715.8,808.75,710.77,770.87,703.23,733,702.27,695,709c-16.49,2.9-32.82,6.68-46.21,17.72-11.88,9.79-12.06,21.78-1.18,32.56,4.6,4.56,11,6,15.69,10.29H245.88c12.19-4.91,25.06-7.52,37.75-10.57,53.05-12.76,89.38-45.22,111.6-94.21,10.93-24.11,18.56-49.47,9.79-75.65a249.93,249.93,0,0,0-35.56-68.39c-14.6-19.88-19.45-21.08-42.95-14-7.74,2.33-15.6,3.64-23.88,2.5-16.36-2.23-30.41-9.65-42.93-19.64-34.07-27.19-63.93-58.79-93.27-90.9-8.2-9-13.85-18.58-11.79-31.31a85.13,85.13,0,0,1,4.93-17.44c7.37-18.81,17.44-37,21.85-56.45,11.12-49.15-4.33-91.73-38.4-127.75-10.11-10.69-23.44-15-38.58-14.34-21,.88-40.14,7.42-58.07,17.83-10.73,6.22-17.12,15.7-20.92,27.67C19,217.32,10.53,237.05,1.52,256.51V126c21.9-4.74,44.08-5.77,66.34-4.21a86.35,86.35,0,0,1,32.77,8.61c8.79,4.38,17.72,8.69,27.4,10.93a132.69,132.69,0,0,0,71.84-3.52C257.25,119.07,312,94.23,362.12,60.34,386.07,44.16,406.51,23.78,425,1.52h57.67c15.35,8.17,31,15.75,45.93,24.67a83.84,83.84,0,0,0,43.88,12.06c19.46.09,38.8-1.72,58.17-3.09,43.27-3.07,86.11,2.57,129,6.44,19.45,1.76,39.48,3.19,56.94-7.16C833,24.71,848,12.59,863.62,1.52H979c1.95,20.09,3.51,40.16,3.08,60.4-.65,31.28,12,56.4,37,75.14,26.68,20,53.63,39.69,80.35,59.66,14.95,11.18,32.15,19.79,44.16,34.38,28.26,34.33,54,70.23,62.6,115.33,1.9,9.91,4.37,19.72,6.65,29.56,5.78,24.88,10.92,50.1,24.84,72,31.4,49.45,78.11,80.15,129.86,104.45v82c-14.6,5.2-28.08,12.57-41.26,20.63-21.57,13.21-33.14,31.38-32,57.65C1295.16,731.62,1297.16,750.53,1296.18,769.52Zm-213.24-10.6c9,.46,17.58-2.21,25.48-7.18,16.29-10.23,30-23.76,45.58-35,12-8.73,23.67-18.11,32.64-30.24,8.84-11.93,5.75-19.69-8.74-21.85a31.88,31.88,0,0,0-8.26-.44,217.47,217.47,0,0,0-97.19,35.33c-8.67,5.74-16.61,12.38-22.34,21.25-7.26,11.25-5.31,21.79,5.55,29.65A43.46,43.46,0,0,0,1082.94,758.92Z" transform="translate(-1.34 -1.37)"/><path class="b" d="M1367.52,552.47c-51.75-24.3-98.46-55-129.86-104.45-13.92-21.93-19.06-47.15-24.84-72-2.28-9.84-4.75-19.65-6.65-29.56-8.64-45.1-34.34-81-62.6-115.33-12-14.59-29.21-23.2-44.16-34.38-26.72-20-53.67-39.64-80.35-59.66-25-18.74-37.66-43.86-37-75.14.43-20.24-1.13-40.31-3.08-60.4h160.88c9.78,20.24,19.49,40.51,27.08,61.72,5.11,14.27,10.43,28.46,18.09,41.61,6.31,10.83,17.77,13.44,27.73,6.1,4.26-3.14,8.35-6.79,10.57-11.72a144,144,0,0,0,12.67-67c-.5-10.32-4.14-20.26-3.55-30.7h110.79a161.44,161.44,0,0,0,24.29,45.53Z" transform="translate(-1.34 -1.37)"/><path class="b" d="M1.52,256.51c9-19.46,17.44-39.19,23.93-59.62,3.8-12,10.19-21.45,20.92-27.67,17.93-10.41,37-16.95,58.07-17.83,15.14-.63,28.47,3.65,38.58,14.34,34.07,36,49.52,78.6,38.4,127.75-4.41,19.46-14.48,37.64-21.85,56.45a85.13,85.13,0,0,0-4.93,17.44c-2.06,12.73,3.59,22.34,11.79,31.31,29.34,32.11,59.2,63.71,93.27,90.9,12.52,10,26.57,17.41,42.93,19.64,8.28,1.14,16.14-.17,23.88-2.5,23.5-7.1,28.35-5.9,42.95,14A249.93,249.93,0,0,1,405,589.09c8.77,26.18,1.14,51.54-9.79,75.65-22.22,49-58.55,81.45-111.6,94.21-12.69,3-25.56,5.66-37.75,10.57q-119.2,0-238.4.15c-5.37,0-6.37-1.28-6.1-6.31.49-9.05.14-18.15.14-27.24C17.65,729,33.68,721.58,50,714.75c35.32-14.83,69.15-32.28,99.15-56.36,13.71-11,26.1-23.25,29.17-41.89,2.19-13.31-1.21-25.75-6.56-37.52-9-19.76-18.67-39.22-28.39-58.64-18.94-37.84-23.75-78.22-19.75-119.53,1.49-15.46-4.5-23.94-16.34-30.62-14.16-8-29.67-10.92-45.74-11.9-22-1.35-43.14-5.36-60-21.34Z" transform="translate(-1.34 -1.37)"/><path class="a" d="M1.52,337c16.83,16,38,20,60,21.34,16.07,1,31.58,3.9,45.74,11.9,11.84,6.68,17.83,15.16,16.34,30.62-4,41.31.81,81.69,19.75,119.53,9.72,19.42,19.39,38.88,28.39,58.64,5.35,11.77,8.75,24.21,6.56,37.52-3.07,18.64-15.46,30.88-29.17,41.89-30,24.08-63.83,41.53-99.15,56.36C33.68,721.58,17.65,729,1.52,736.12Z" transform="translate(-1.34 -1.37)"/><path class="b" d="M425,1.52c-18.47,22.26-38.91,42.64-62.86,58.82C312,94.23,257.25,119.07,199.87,137.79A132.69,132.69,0,0,1,128,141.31c-9.68-2.24-18.61-6.55-27.4-10.93a86.35,86.35,0,0,0-32.77-8.61c-22.26-1.56-44.44-.53-66.34,4.21,0-39.46.12-78.93-.15-118.39,0-5.2,1-6.22,6.22-6.22Q216.29,1.66,425,1.52Z" transform="translate(-1.34 -1.37)"/><path class="b" d="M663.27,769.52c-4.69-4.25-11.09-5.73-15.69-10.29-10.88-10.78-10.7-22.77,1.18-32.56,13.39-11,29.72-14.82,46.21-17.72,38-6.68,75.9-5.72,113.78,1.82,25.29,5,51.29,5.23,76.59,10.34,15.19,3.06,30,7.31,42.76,16.68,14,10.31,15.43,17.31,6.85,31.73H831.74c-5.89-3.62-12.55-1.28-18.83-2.24-16.51-2.52-33,0-49.47,2.24Z" transform="translate(-1.34 -1.37)"/><path class="b" d="M863.62,1.52C848,12.59,833,24.71,816.62,34.44c-17.46,10.35-37.49,8.92-56.94,7.16-42.94-3.87-85.78-9.51-129-6.44-19.37,1.37-38.71,3.18-58.17,3.09a83.84,83.84,0,0,1-43.88-12.06C513.69,17.27,498,9.69,482.65,1.52Z" transform="translate(-1.34 -1.37)"/><path class="b" d="M1296.18,769.52c1-19-1-37.9-1.87-56.81-1.19-26.27,10.38-44.44,32-57.65,13.18-8.06,26.66-15.43,41.26-20.63,0,43.26-.09,86.52.13,129.77,0,4.53-.91,5.51-5.45,5.45C1340.2,769.35,1318.19,769.52,1296.18,769.52Z" transform="translate(-1.34 -1.37)"/><path class="a" d="M1232.44,1.52c-.59,10.44,3,20.38,3.55,30.7a144,144,0,0,1-12.67,67c-2.22,4.93-6.31,8.58-10.57,11.72-10,7.34-21.42,4.73-27.73-6.1-7.66-13.15-13-27.34-18.09-41.61-7.59-21.21-17.3-41.48-27.08-61.72Z" transform="translate(-1.34 -1.37)"/><path class="a" d="M1367.52,47.05a161.44,161.44,0,0,1-24.29-45.53h24c.08,8.17.2,16.34.25,24.51C1367.55,33,1367.52,40.05,1367.52,47.05Z" transform="translate(-1.34 -1.37)"/><path class="a" d="M763.44,769.52c16.43-2.29,33-4.76,49.47-2.24,6.28,1,12.94-1.38,18.83,2.24Z" transform="translate(-1.34 -1.37)"/><path class="b" d="M1082.94,758.92a43.46,43.46,0,0,1-27.28-8.48c-10.86-7.86-12.81-18.4-5.55-29.65,5.73-8.87,13.67-15.51,22.34-21.25a217.47,217.47,0,0,1,97.19-35.33,31.88,31.88,0,0,1,8.26.44c14.49,2.16,17.58,9.92,8.74,21.85-9,12.13-20.59,21.51-32.64,30.24-15.53,11.24-29.29,24.77-45.58,35C1100.52,756.71,1092,759.38,1082.94,758.92Z" transform="translate(-1.34 -1.37)"/></svg>