<svg xmlns="http://www.w3.org/2000/svg" viewBox="0 0 1943.02 1093.12"><defs><style>.a{opacity:0;fill:#ffffff;}.b{fill:#ffffff;}</style></defs><title>1800f_00219</title><path class="a" d="M-286.86,408.28q0-281.29-.12-562.61c0-5.16.68-6.74,6.45-6.73q152.41.36,304.81.18A59.94,59.94,0,0,0,23-153.44c-1.31,30.35-.3,60.7.32,91.05.41,20,.05,39.93-4.52,59.52-11,47.14-39.69,83-74.45,114.57C-92.73,145.39-133.52,174.51-173.2,205c-19.31,14.83-38.27,29.81-51.47,50.83-16.38,26.1-15.07,51.77,3.91,75,9,11.07,20.34,18.82,33.34,24.36,31.55,13.44,64.65,19.65,98.74,21.6,24.09,1.37,48-1.29,71.87-3.24C19,370.64,54.81,368.13,89.9,360.09c32-7.33,64.12-11.35,97-9.27a222.4,222.4,0,0,0,41.64-1.74c33.08-4.16,62.34-16.2,86.15-40.39,17.2-17.47,30.51-37.69,42.95-58.56,19.21-32.21,41.23-62.19,73-83,42.12-27.61,75.53-63.77,106-103.2C559.48,34.31,581,3.65,605.85-24.43c8.89-10.07,18.27-19.69,30.41-26,13.7-7.07,25.3-4.85,35.21,7A93.39,93.39,0,0,1,681-29.78a807.77,807.77,0,0,1,38.31,77.49c11,25.17,23.61,49.28,43.42,68.87,43.37,42.89,96,64.12,156.5,67.4,37.45,2,74.83.41,112.23-.72,12.85-.39,25.68-1.82,38.48-3.49,18.52-2.42,37-6.21,55.79-5.19,11.22.61,21.15,3.82,25.5,15.52,9.74,26.19-4.68,54.69-31.28,61.86-28.83,7.76-57.76,15.4-84.64,28.65-46.78,23.05-94.51,43.69-144.14,59.87a137.92,137.92,0,0,0-38.47,19.38c-21.1,15.27-29.85,35.19-23.85,55.27,4.38,14.65,13.94,25.82,26.24,34.34a203.61,203.61,0,0,0,80.8,33c33.34,6,61.77-2.43,82.79-30.11,13.25-17.45,29.26-32.11,45.14-47,20-18.64,40.21-37,58.35-57.46,16.41-18.53,26.72-40.44,35.16-63.29,5.73-15.51,16.59-22.93,32.71-23.36,9.86-.26,19.78.25,29.58-.6,24.5-2.11,41,9.64,53.1,29.48,12.88,21.12,21.45,44.06,27.86,67.82,7.77,28.77,12.15,58.37,21.9,86.69,18.58,54,46.48,103.16,76.32,151.37a131,131,0,0,0,32.23,36c20.23,15.29,37.44,15.61,57.42.26,10.22-7.84,19.84-16.46,29.68-24.79,25-21.17,53.23-34.29,86.61-35.78,17.09-.76,34.39-1,51.12-5.62q0,179.86.14,359.72c0,5.19-1,6.21-6.22,6.21q-393.85-.24-787.72-.14c-.48-3.2,1.51-5.76,2.28-8.63,5.58-21,6.13-41.9-1.93-62.41-4.87-12.4-12.81-19.08-21.6-18-11.66,1.39-15.26,11.07-19.21,20.13a9,9,0,0,0-.35,1.47c-5.6,21.3-4.4,42,5.59,61.87.88,1.75,2.4,3.34,1.83,5.59H-124.46c-.19-3.42,1.47-6.37,2.49-9.46,10.31-31.23,16.22-63.16,14.57-96.15-.93-18.7-5-36.31-22.51-47.16-15.68-9.72-25.58-24.15-33.23-40.33a35.35,35.35,0,0,1-.05-30.84c16.2-35,37.27-67.1,60.46-97.69C-82.1,583.06-57,559.82-32.12,536.48c9.5-8.91,20.79-16.51,34.18-16,16.3.62,32.73,1.94,48.8,5.39,51.08,11,94.75,34.44,127.15,76.46,18,23.27,29.38,50.06,40.59,76.91,17.22,41.25,37.17,80.89,67,114.79,12.06,13.72,24.64,26.86,41.8,34.42,15.82,7,30.48,2.06,37.79-12.89a54.89,54.89,0,0,0,3.78-10.68c5.65-22.66,1.36-44.75-4.8-66.48-7.22-25.53-15.54-50.72-21.35-76.66-7.45-33.29-12.12-67.16-21.06-100.12-9.49-35-24.78-66.9-52.27-91.58-36.94-33.15-82-45.6-130.09-49.49-40.69-3.29-78.64,7.08-115,24.76-12.22,5.94-24.29,12.4-38,14.79-19,3.33-37.43-.82-55.31-5.9C-140.55,433.85-214.3,423.91-286.86,408.28Z" transform="translate(286.98 161.06)"/><path class="b" d="M1655.9,566.13c-16.73,4.66-34,4.86-51.12,5.62-33.38,1.49-61.56,14.61-86.61,35.78-9.84,8.33-19.46,17-29.68,24.79-20,15.35-37.19,15-57.42-.26a131,131,0,0,1-32.23-36c-29.84-48.21-57.74-97.41-76.32-151.37-9.75-28.32-14.13-57.92-21.9-86.69-6.41-23.76-15-46.7-27.86-67.82-12.09-19.84-28.6-31.59-53.1-29.48-9.8.85-19.72.34-29.58.6-16.12.43-27,7.85-32.71,23.36-8.44,22.85-18.75,44.76-35.16,63.29-18.14,20.49-38.4,38.82-58.35,57.46-15.88,14.85-31.89,29.51-45.14,47-21,27.68-49.45,36.11-82.79,30.11a203.61,203.61,0,0,1-80.8-33c-12.3-8.52-21.86-19.69-26.24-34.34-6-20.08,2.75-40,23.85-55.27a137.92,137.92,0,0,1,38.47-19.38c49.63-16.18,97.36-36.82,144.14-59.87,26.88-13.25,55.81-20.89,84.64-28.65,26.6-7.17,41-35.67,31.28-61.86-4.35-11.7-14.28-14.91-25.5-15.52-18.84-1-37.27,2.77-55.79,5.19-12.8,1.67-25.63,3.1-38.48,3.49-37.4,1.13-74.78,2.74-112.23.72-60.55-3.28-113.13-24.51-156.5-67.4C743,97,730.34,72.88,719.35,47.71A807.77,807.77,0,0,0,681-29.78a93.39,93.39,0,0,0-9.57-13.64c-9.91-11.82-21.51-14-35.21-7-12.14,6.27-21.52,15.89-30.41,26C581,3.65,559.48,34.31,536.6,63.93c-30.45,39.43-63.86,75.59-106,103.2-31.76,20.81-53.78,50.79-73,83-12.44,20.87-25.75,41.09-42.95,58.56-23.81,24.19-53.07,36.23-86.15,40.39a222.4,222.4,0,0,1-41.64,1.74c-32.87-2.08-65,1.94-97,9.27-35.09,8-70.94,10.55-106.71,13.48-23.91,1.95-47.78,4.61-71.87,3.24-34.09-1.95-67.19-8.16-98.74-21.6-13-5.54-24.31-13.29-33.34-24.36-19-23.27-20.29-48.94-3.91-75,13.2-21,32.16-36,51.47-50.83,39.68-30.47,80.47-59.59,117.56-93.28C-20.88,80.13,7.81,44.27,18.81-2.87c4.57-19.59,4.93-39.52,4.52-59.52-.62-30.35-1.63-60.7-.32-91a59.94,59.94,0,0,1,1.27-7.44H226.15a74,74,0,0,0,2.33,7.12c10.71,24.11,23.66,46.93,39.77,67.84,12.64,16.41,25.16,33,42.21,45.29q31.85,22.86,41.63-14.86c7.76-29.73,6.91-60,5.08-90.33-.3-5-1.45-10-.49-15.06h699.69c14.43,11.4,31.2,18.6,47.94,25.49,43.93,18.1,88.53,34.55,131.89,54.06,30.93,13.92,62.91,23.16,97.46,22,38.57-1.32,59-21.49,59.9-60.24.32-14-1.77-27.69-4.79-41.29q130.53,0,261-.15c5.2,0,6.23,1,6.22,6.22q-.27,251.19-.14,502.38c-4.58,7.86-9,15.79-12.09,24.38-14.33,40.34-2.73,78,12.09,115.26Zm-330.82-460c-.08,12.34,6.42,21.31,18.68,25.62,11.37,4,22.94,3.14,34.42.84,30.13-6,57.34-19.39,84-34,8.42-4.62,16.5-9.77,23.26-16.82,9.69-10.11,10.72-19.53,2.18-30.4-13.89-17.68-32.93-28-53.39-36-21.87-8.52-41.21-3.12-58.23,12-17.37,15.44-30.73,34.17-42.74,53.87C1328.65,88.75,1325,96.87,1325.08,106.09Z" transform="translate(286.98 161.06)"/><path class="b" d="M-286.86,408.28c72.56,15.63,146.31,25.57,217.91,45.92,17.88,5.08,36.26,9.23,55.31,5.9,13.71-2.39,25.78-8.85,38-14.79,36.35-17.68,74.3-28.05,115-24.76,48.05,3.89,93.15,16.34,130.09,49.49,27.49,24.68,42.78,56.57,52.27,91.58,8.94,33,13.61,66.83,21.06,100.12,5.81,25.94,14.13,51.13,21.35,76.66,6.16,21.73,10.45,43.82,4.8,66.48a54.89,54.89,0,0,1-3.78,10.68c-7.31,15-22,19.87-37.79,12.89-17.16-7.56-29.74-20.7-41.8-34.42-29.78-33.9-49.73-73.54-67-114.79C207.39,652.39,196,625.6,178,602.33c-32.4-42-76.07-65.46-127.15-76.46-16.07-3.45-32.5-4.77-48.8-5.39-13.39-.51-24.68,7.09-34.18,16-24.85,23.34-50,46.58-70.61,73.81C-125.92,640.88-147,673-163.19,708a35.35,35.35,0,0,0,.05,30.84c7.65,16.18,17.55,30.61,33.23,40.33,17.5,10.85,21.58,28.46,22.51,47.16,1.65,33-4.26,64.92-14.57,96.15-1,3.09-2.68,6-2.49,9.46-52.25,0-104.49-.08-156.74.12-4.78,0-5.79-1.13-5.78-5.82.18-57.8.12-115.6.12-173.4,11.87-16.65,25.27-32.18,36.19-49.51,6-9.52,9.22-20,6.91-31.08-6.46-30.91-21-57.68-43.1-80.29Z" transform="translate(286.98 161.06)"/><path class="a" d="M1388.77-160.88c3,13.6,5.11,27.25,4.79,41.29-.88,38.75-21.33,58.92-59.9,60.24-34.55,1.18-66.53-8.06-97.46-22-43.36-19.51-88-36-131.89-54.06-16.74-6.89-33.51-14.09-47.94-25.49Z" transform="translate(286.98 161.06)"/><path class="a" d="M356.68-160.88c-1,5.06.19,10,.49,15.06,1.83,30.31,2.68,60.6-5.08,90.33q-9.84,37.76-41.63,14.86c-17-12.25-29.57-28.88-42.21-45.29-16.11-20.91-29.06-43.73-39.77-67.84a74,74,0,0,1-2.33-7.12Z" transform="translate(286.98 161.06)"/><path class="a" d="M-286.86,591.94c22.1,22.61,36.64,49.38,43.1,80.29,2.31,11.06-.91,21.56-6.91,31.08-10.92,17.33-24.32,32.86-36.19,49.51Z" transform="translate(286.98 161.06)"/><path class="b" d="M828.71,931.92c.57-2.25-1-3.84-1.83-5.59-10-19.9-11.19-40.57-5.59-61.87a9,9,0,0,1,.35-1.47c4-9.06,7.55-18.74,19.21-20.13,8.79-1.06,16.73,5.62,21.6,18,8.06,20.51,7.51,41.41,1.93,62.41-.77,2.87-2.76,5.43-2.28,8.63Z" transform="translate(286.98 161.06)"/><path class="a" d="M1655.9,487.21c-14.82-37.29-26.42-74.92-12.09-115.26,3-8.59,7.51-16.52,12.09-24.38Z" transform="translate(286.98 161.06)"/><path class="a" d="M1325.07,106.08c-.06-9.21,3.58-17.33,8.2-24.9,12-19.7,25.37-38.43,42.74-53.87,17-15.13,36.36-20.53,58.23-12,20.46,8,39.5,18.34,53.39,36,8.54,10.87,7.51,20.29-2.18,30.4-6.76,7-14.84,12.2-23.26,16.82-26.67,14.62-53.88,28-84,34-11.48,2.3-23,3.15-34.42-.84C1331.5,127.4,1325,118.43,1325.07,106.08Z" transform="translate(286.98 161.06)"/></svg>