<svg xmlns="http://www.w3.org/2000/svg" viewBox="0 0 1943.05 1093.09"><defs><style>.a{opacity:0;fill:#ffffff;}.b{fill:#ffffff;}</style></defs><title>1800f_00388</title><path class="a" d="M1655.9,126V393.11c-1,.74-2.07,1.41-3,2.24-51.57,45.76-89.87,100.95-117.07,164.13-18.29,42.51-39.92,82.67-75.08,114.43-42,38-76.76,83.26-120.08,120-18.55,15.74-23.61,37.07-21.22,60.43,2.64,25.88,5.72,51.71,8.61,77.57H101.69c-.23-2.79-2.48-4.3-4.06-6.16a1113,1113,0,0,0-77.44-82.29C-22,803.05-64.59,763.09-104.5,720.37c-17.82-19.08-37.94-35.64-59.32-50.67-13.65-9.59-27.44-19-40.72-29.1C-235.63,617-246.92,585.31-242,547c4.11-31.82,16.72-60.78,29.29-89.76,10.71-24.68,23.38-48.2,41.59-68.39,25.53-28.28,57.83-46.12,92.3-60.9,31.45-13.48,64.59-21.92,96.76-33.26,29.94-10.55,55.78-27.2,76.41-51.56,14-16.56,24.46-35.38,33.3-55,15-33.33,38.09-57.63,72.73-71.18,38.49-15.06,71.13-39.12,99.61-69,23.89-25,34.86-54.41,31.31-89.12-2.75-26.81-12-51.62-22.78-75.92-4.6-10.34-12.29-18.4-22-24.51-12.34-7.79-26-11.06-40.3-11.74-30.71-1.47-59.51,7-87.93,17.3-24.81,9-50.14,13.85-76.62,10-26.64-3.9-49.73-14.74-68-34.88H942.54c-.44,2.67,1.63,4.17,3,5.84,8.48,10.36,16.79,20.9,25.74,30.86,22.51,25.06,50.78,42.2,80.34,57.53,23.78,12.33,48.2,23.54,70.33,38.84,39,26.93,72,60.42,104.31,94.64,18.92,20,37.41,40.49,57.82,59.08a132.86,132.86,0,0,1,16.76,18.54c6.71,9,7.35,18.5,2.87,28.61-3.4,7.68-8,14.62-12.93,21.37-21.19,29.06-46.43,54.79-68.33,83.24-25.81,33.52-49.88,68.24-67,107.14-18.66,42.31-12.06,81.37,17.81,110.47,20.59,20.06,39.37,21.41,62.22,4.19,17.78-13.39,29.39-31.78,40.53-50.56,30.42-51.31,52.73-106.38,75.5-161.26,13.35-32.17,22.72-64.94,19.11-100.21-2.12-20.82,7.89-34.63,24.72-44.94,17.28-10.58,36.14-17,55.84-20.85,43.47-8.5,87.11-4.89,130.7-.87C1606.49,123.05,1631.07,126.3,1655.9,126ZM430.72,193c-5.31,0-10.66-.42-15.93.07-18.15,1.73-36.25,4-52.79,12.45-17.46,8.93-22.39,21.62-16.74,40.3,6.86,22.7,20.43,40.87,39.05,54.67,60.68,45,129.13,65.21,204.41,58.85,41.94-3.55,77.64-21.77,104.75-54.78,34-41.41,57.53-88.41,72.9-139.59,2.91-9.68,5.34-19.51,4.73-29.81-.57-9.75-5.35-14.2-15.17-13.53-6.37.43-12.33,2.54-18.15,5.1-18.84,8.3-35.81,19.81-53.17,30.66-13.94,8.71-28.09,17.1-41.77,26.2-37.92,25.23-78.93,29.83-122.79,20.65C490.64,198.09,461,192.71,430.72,193Zm28.51,297.19c-4.8,0-9.63-.34-14.4.06-17.21,1.46-34.22,3.81-48.75,14.36-10.79,7.83-11.94,18.47-3.11,28.59a72.55,72.55,0,0,0,16.89,13.91c20.18,12.45,42.52,19.82,64.63,27.76,24.7,8.87,48.74,19.71,74.62,25,13.2,2.72,26.47,4.23,39.71.22,15.44-4.69,21.12-16,15.65-31.11-3.86-10.65-10.29-19.67-18.2-27.63C551.26,506.16,508.42,490.17,459.23,490.19Z" transform="translate(287 161.02)"/><path class="b" d="M13.66-160.88c18.31,20.14,41.4,31,68,34.88,26.48,3.87,51.81-1,76.62-10,28.42-10.31,57.22-18.77,87.93-17.3,14.33.68,28,3.95,40.3,11.74,9.69,6.11,17.38,14.17,22,24.51,10.81,24.3,20,49.11,22.78,75.92C334.86-6.4,323.89,23,300,48c-28.48,29.85-61.12,53.91-99.61,69-34.64,13.55-57.69,37.85-72.73,71.18-8.84,19.61-19.28,38.43-33.3,55-20.63,24.36-46.47,41-76.41,51.56C-14.22,306.05-47.36,314.49-78.81,328c-34.47,14.78-66.77,32.62-92.3,60.9-18.21,20.19-30.88,43.71-41.59,68.39-12.57,29-25.18,57.94-29.29,89.76-4.93,38.29,6.36,70,37.45,93.58,13.28,10.09,27.07,19.51,40.72,29.1,21.38,15,41.5,31.59,59.32,50.67C-64.59,763.09-22,803.05,20.19,843.47a1113,1113,0,0,1,77.44,82.29c1.58,1.86,3.83,3.37,4.06,6.16q-191.23,0-382.48.14c-5.2,0-6.22-1-6.21-6.21q.24-504.66.14-1009.33c3.54-.32,5.93-2.68,8.29-4.92,22.52-21.38,38.48-47.93,57-72.48Z" transform="translate(287 161.02)"/><path class="b" d="M1655.9,126c-24.83.32-49.41-2.93-74.05-5.2-43.59-4-87.23-7.63-130.7.87-19.7,3.85-38.56,10.27-55.84,20.85-16.83,10.31-26.84,24.12-24.72,44.94,3.61,35.27-5.76,68-19.11,100.21-22.77,54.88-45.08,110-75.5,161.26-11.14,18.78-22.75,37.17-40.53,50.56-22.85,17.22-41.63,15.87-62.22-4.19-29.87-29.1-36.47-68.16-17.81-110.47,17.15-38.9,41.22-73.62,67-107.14,21.9-28.45,47.14-54.18,68.33-83.24,4.92-6.75,9.53-13.69,12.93-21.37,4.48-10.11,3.84-19.63-2.87-28.61a132.86,132.86,0,0,0-16.76-18.54c-20.41-18.59-38.9-39-57.82-59.08C1193.94,32.61,1160.9-.88,1122-27.81c-22.13-15.3-46.55-26.51-70.33-38.84-29.56-15.33-57.83-32.47-80.34-57.53-8.95-10-17.26-20.5-25.74-30.86-1.37-1.67-3.44-3.17-3-5.84q353.26,0,706.53-.14c5.69,0,7,1.28,7,7Q1655.74-14,1655.9,126Z" transform="translate(287 161.02)"/><path class="b" d="M1328.06,931.92c-2.89-25.86-6-51.69-8.61-77.57-2.39-23.36,2.67-44.69,21.22-60.43,43.32-36.75,78.06-82.06,120.08-120,35.16-31.76,56.79-71.92,75.08-114.43,27.2-63.18,65.5-118.37,117.07-164.13.93-.83,2-1.5,3-2.24q0,266.37.14,532.74c0,5.19-1,6.22-6.22,6.21Q1488.95,931.78,1328.06,931.92Z" transform="translate(287 161.02)"/><path class="a" d="M-221.6-160.88c-18.49,24.55-34.45,51.1-57,72.48-2.36,2.24-4.75,4.6-8.29,4.92,0-24.4.09-48.81-.1-73.22,0-3.47.57-4.34,4.22-4.3C-262.36-160.76-242-160.88-221.6-160.88Z" transform="translate(287 161.02)"/><path class="b" d="M430.72,193c30.27-.29,59.92,5.09,89.33,11.24,43.86,9.18,84.87,4.58,122.79-20.65,13.68-9.1,27.83-17.49,41.77-26.2C702,146.54,718.94,135,737.78,126.73c5.82-2.56,11.78-4.67,18.15-5.1,9.82-.67,14.6,3.78,15.17,13.53.61,10.3-1.82,20.13-4.73,29.81-15.37,51.18-38.88,98.18-72.9,139.59-27.11,33-62.81,51.23-104.75,54.78C513.44,365.7,445,345.5,384.31,300.49c-18.62-13.8-32.19-32-39.05-54.67-5.65-18.68-.72-31.37,16.74-40.3,16.54-8.45,34.64-10.72,52.79-12.45C420.06,192.58,425.41,193,430.72,193Z" transform="translate(287 161.02)"/><path class="b" d="M459.23,490.19c49.19,0,92,16,127,51.2,7.91,8,14.34,17,18.2,27.63,5.47,15.12-.21,26.42-15.65,31.11-13.24,4-26.51,2.5-39.71-.22-25.88-5.33-49.92-16.17-74.62-25-22.11-7.94-44.45-15.31-64.63-27.76A72.55,72.55,0,0,1,393,533.2c-8.83-10.12-7.68-20.76,3.11-28.59,14.53-10.55,31.54-12.9,48.75-14.36C449.6,489.85,454.43,490.19,459.23,490.19Z" transform="translate(287 161.02)"/></svg>