<svg xmlns="http://www.w3.org/2000/svg" viewBox="0 0 1943.04 1093.09"><defs><style>.a{opacity:0;fill:#ffffff;}.b{fill:#ffffff;}</style></defs><title>1800f_00223</title><path class="a" d="M-286.86,466q0-310-.14-620c0-5.69,1.28-7,7-7q179.47.28,359,.15a387.9,387.9,0,0,0,2.46,57.51C84.7-75.26,88-47.12,86.49-18.69c-1.23,23.56-7.91,45.16-21.9,64.37A264.39,264.39,0,0,1,27.28,86.47C2.27,109-23.2,130.93-47.95,153.7c-37.63,34.62-71.13,73.32-106.69,110-12,12.35-22.81,25.77-31,41.08-12.45,23.38-8.65,41.08,12.13,57.28,15.95,12.43,34.27,20.37,52.84,27.82,50.12,20.12,101.91,29,155.91,23.39,26.64-2.75,53.27-6,80-7.56a667,667,0,0,0,210.59-47.35c36.25-14.6,70.51-31.83,97.3-61.25,23.29-25.59,39.33-55.62,53.4-86.86,7.89-17.52,14.56-35.69,24.72-52,34.61-55.65,79.08-102.91,127.08-147,14.55-13.36,30.95-24.53,50-31,21.31-7.23,40.23-1.55,54.22,16a101.13,101.13,0,0,1,14.13,24.14c10.25,24.25,11.71,50.1,13.41,75.79,2.09,31.7,15.52,57.05,39.84,77.1,24.59,20.26,53,33.13,82.63,43.93,36.91,13.48,75.27,21.53,113.42,30.42,14.75,3.44,29.67,6.74,42.94,14.49,11.14,6.51,13.09,14,7.28,25.59-5.12,10.18-13.09,17.92-21.76,25-18.67,15.23-39.18,27.77-59.61,40.41-24.06,14.89-49.2,28.1-71.19,46.22-31.88,26.25-46.57,59.88-37.14,100.25,10.88,46.58,38.7,82.84,77.91,110a34.77,34.77,0,0,0,27.5,5.58,637.07,637.07,0,0,0,106.32-32.69c21.66-8.73,27.85-21.94,22.88-44.82a202.91,202.91,0,0,0-8.72-29c-10.7-28.07-7.53-54.6,7.92-79.94,6.18-10.14,12.4-20.28,19.17-30,23-33.1,44.18-67.14,59.47-104.62,8-19.72,10.79-39.38,2.2-59.64-5.43-12.81-2-23.66,7.8-33,17.71-16.94,39.54-26.68,62.61-32.59a306.64,306.64,0,0,0,104.31-49.08c17.21-12.4,35-24.07,52.54-36,25-17,52.66-25.63,83-24.16,26.43,1.29,51.94,7.51,76.72,16.73,6.89,2.56,13.62,5.55,19.46,10.08,7.54,5.86,7.26,10.07-.83,14.9-5,3-10.56,4.8-16.17,6.35-23.43,6.49-47.65,8.9-71.4,13.73-46.29,9.41-91.23,22.87-132.48,46.51-23.55,13.48-42.24,31.32-47.91,59.45a183.61,183.61,0,0,0-3.87,32.31c-1.17,55,7.49,109,21.16,161.91,15.81,61.2,40.39,119.68,60.85,179.44,10.38,30.32,29.37,55.93,55.42,75.41,23.75,17.75,44.25,19.11,68.63,2.43,38.38-26.25,75.91-53.75,113.82-80.69,12.7-9,18.42-21.58,19.3-36.85,1.15-20-3.22-39.24-7.17-58.53-6.51-31.77-12.24-63.64-9.66-96.26,2.24-28.33,12.14-54,28.66-77.16q0,297.87.14,595.73c0,5.69-1.28,7-7,7q-370-.25-739.92-.14a17.93,17.93,0,0,1,.47-3.7c11.15-31.65,12.7-64.18,8.39-97.1-2-15.54-5.55-30.82-14.68-44.12-8.62-12.53-21.27-16.1-35.06-9.84a50.27,50.27,0,0,0-19.6,15.11c-32.49,42.8-36.8,89.74-20,139.65H-77.41c1.59-4,3.2-8,4.78-12,13.49-34.31,25.36-69.3,46.64-100.09,10.9-15.78,20.56-32.45,30.26-49,22.17-37.87,38-77.88,43.35-122,5-40.61,11.82-81,26.93-119.46C81,513,78.41,507.58,62.72,498.85c-38-21.18-78.56-28.23-121.58-21.56-24,3.72-47.79,8.46-72.08,9.63-29.81,1.44-58.85-4.39-87.95-9.63C-241.5,473.23-263.9,467.89-286.86,466Zm489.1,15.36c-20.27.41-36.71,2.94-52.66,8.19a110.47,110.47,0,0,0-25.38,11.78c-8.29,5.32-8.93,10.87-2.15,17.6a89.58,89.58,0,0,0,9.09,8c21.2,16,42.41,31.79,61.88,50,31.69,29.6,54.54,63.82,63.86,106.88,12,55.38,33.84,106.43,71.3,149.77,13,15,27.41,28.43,46.3,35.9,17.7,7,30.39.26,34.59-18.34,2.38-10.52,1.61-21.11-.19-31.59-4.79-27.88-14.34-54.37-26.36-79.72-22.2-46.85-37.2-95.39-41.47-147.29-2.15-26.26-10.3-50.82-31.06-68.82C278.18,496.06,240.41,483.49,202.24,481.32Z" transform="translate(287 161.03)"/><path class="b" d="M1655.9,329.36c-16.52,23.13-26.42,48.83-28.66,77.16-2.58,32.62,3.15,64.49,9.66,96.26,3.95,19.29,8.32,38.56,7.17,58.53-.88,15.27-6.6,27.82-19.3,36.85-37.91,26.94-75.44,54.44-113.82,80.69-24.38,16.68-44.88,15.32-68.63-2.43-26-19.48-45-45.09-55.42-75.41-20.46-59.76-45-118.24-60.85-179.44-13.67-52.88-22.33-106.86-21.16-161.91a183.61,183.61,0,0,1,3.87-32.31c5.67-28.13,24.36-46,47.91-59.45,41.25-23.64,86.19-37.1,132.48-46.51,23.75-4.83,48-7.24,71.4-13.73,5.61-1.55,11.15-3.35,16.17-6.35,8.09-4.83,8.37-9,.83-14.9-5.84-4.53-12.57-7.52-19.46-10.08-24.78-9.22-50.29-15.44-76.72-16.73-30.3-1.47-57.92,7.19-83,24.16-17.57,11.91-35.33,23.58-52.54,36a306.64,306.64,0,0,1-104.31,49.08c-23.07,5.91-44.9,15.65-62.61,32.59-9.75,9.32-13.23,20.17-7.8,33,8.59,20.26,5.84,39.92-2.2,59.64-15.29,37.48-36.5,71.52-59.47,104.62-6.77,9.76-13,19.9-19.17,30-15.45,25.34-18.62,51.87-7.92,79.94a202.91,202.91,0,0,1,8.72,29c5,22.88-1.22,36.09-22.88,44.82a637.07,637.07,0,0,1-106.32,32.69,34.77,34.77,0,0,1-27.5-5.58c-39.21-27.19-67-63.45-77.91-110-9.43-40.37,5.26-74,37.14-100.25,22-18.12,47.13-31.33,71.19-46.22,20.43-12.64,40.94-25.18,59.61-40.41,8.67-7.07,16.64-14.81,21.76-25,5.81-11.58,3.86-19.08-7.28-25.59-13.27-7.75-28.19-11-42.94-14.49-38.15-8.89-76.51-16.94-113.42-30.42-29.59-10.8-58-23.67-82.63-43.93-24.32-20.05-37.75-45.4-39.84-77.1-1.7-25.69-3.16-51.54-13.41-75.79A101.13,101.13,0,0,0,732.55-3.79c-14-17.5-32.91-23.18-54.22-15.95-19,6.45-35.42,17.62-50,31-48,44.06-92.47,91.32-127.08,147-10.16,16.34-16.83,34.51-24.72,52-14.07,31.24-30.11,61.27-53.4,86.86-26.79,29.42-61.05,46.65-97.3,61.25A667,667,0,0,1,115.27,405.7c-26.72,1.6-53.35,4.81-80,7.56-54,5.58-105.79-3.27-155.91-23.39-18.57-7.45-36.89-15.39-52.84-27.82-20.78-16.2-24.58-33.9-12.13-57.28,8.15-15.31,19-28.73,31-41.08,35.56-36.67,69.06-75.37,106.69-110C-23.2,130.93,2.27,109,27.28,86.47A264.39,264.39,0,0,0,64.59,45.68c14-19.21,20.67-40.81,21.9-64.37C88-47.12,84.7-75.26,81.38-103.37a387.9,387.9,0,0,1-2.46-57.51h153.3c-.12,3,1.81,5.19,3.07,7.6C252-121.54,269.6-90.29,284-57.39c8.73,19.94,18.95,39.09,31.58,56.85,9.55,13.44,19.85,26.24,34.61,34.44,13.94,7.76,26.06,5.75,36.82-6,5.15-5.62,9-12.17,12.38-19,12.27-24.54,19.59-50.83,27-77.08,4.22-15.06.74-29-7.52-41.91-7.71-12.06-18.3-21.43-28.69-31.05-7.11-6.58-16-11.24-21.3-19.77H998.7c8.55,8.6,17,17.33,25.66,25.79A300.14,300.14,0,0,0,1158-59c42.13,11.34,84.92,18.79,128.51,20.34,30.85,1.1,62.16,1,91-11.87,43.64-19.46,53.9-43.18,45.73-82.32-2-9.54-5.7-18.72-8.62-28.06q117.63,0,235.25-.15c5.2,0,6.23,1,6.22,6.22Q1655.77,87.28,1655.9,329.36Z" transform="translate(287 161.03)"/><path class="b" d="M-286.86,466c23,1.93,45.36,7.27,68,11.33,29.1,5.24,58.14,11.07,87.95,9.63,24.29-1.17,48.13-5.91,72.08-9.63,43-6.67,83.54.38,121.58,21.56C78.41,507.58,81,513,74.55,529.42,59.44,567.91,52.6,608.27,47.62,648.88,42.22,693,26.44,733,4.27,770.84c-9.7,16.57-19.36,33.24-30.26,49C-47.27,850.65-59.14,885.64-72.63,920c-1.58,4-3.19,8-4.78,12H-274.72c4-8.45,8-16.91,12.06-25.33,6.05-12.51,12.27-24.93,19.14-37,15.06-26.55,37.78-44.95,63-61,18-11.43,34.87-24.2,45.71-43.37,14.65-25.91,10.07-67.43-30.58-78.15a276.26,276.26,0,0,0-38.7-6.94c-19.31-2.25-38.59-4.45-56.78-12.19-9.09-3.87-17-9.78-26-13.74Z" transform="translate(287 161.03)"/><path class="a" d="M1414.57-160.88c2.92,9.34,6.62,18.52,8.62,28.06,8.17,39.14-2.09,62.86-45.73,82.32-28.81,12.85-60.12,13-91,11.87-43.59-1.55-86.38-9-128.51-20.34a300.14,300.14,0,0,1-133.62-76.12c-8.68-8.46-17.11-17.19-25.66-25.79Z" transform="translate(287 161.03)"/><path class="a" d="M-286.86,654.16c9,4,16.93,9.87,26,13.74,18.19,7.74,37.47,9.94,56.78,12.19a276.26,276.26,0,0,1,38.7,6.94c40.65,10.72,45.23,52.24,30.58,78.15-10.84,19.17-27.73,31.94-45.71,43.37-25.25,16.05-48,34.45-63,61-6.87,12.11-13.09,24.53-19.14,37-4.08,8.42-8,16.88-12.06,25.33-12.14,0-12.14,0-12.14-12.14Z" transform="translate(287 161.03)"/><path class="a" d="M368.82-160.88c5.28,8.53,14.19,13.19,21.3,19.77,10.39,9.62,21,19,28.69,31.05,8.26,12.93,11.74,26.85,7.52,41.91-7.37,26.25-14.69,52.54-27,77.08-3.39,6.8-7.23,13.35-12.38,19-10.76,11.75-22.88,13.76-36.82,6-14.76-8.2-25.06-21-34.61-34.44C302.93-18.3,292.71-37.45,284-57.39c-14.38-32.9-32-64.15-48.69-95.89-1.26-2.41-3.19-4.61-3.07-7.6Z" transform="translate(287 161.03)"/><path class="b" d="M828.71,931.92c-16.84-49.91-12.53-96.85,20-139.65a50.27,50.27,0,0,1,19.6-15.11c13.79-6.26,26.44-2.69,35.06,9.84,9.13,13.3,12.64,28.58,14.68,44.12,4.31,32.92,2.76,65.45-8.39,97.1a17.93,17.93,0,0,0-.47,3.7Z" transform="translate(287 161.03)"/><path class="b" d="M202.24,481.32c38.17,2.17,75.94,14.74,107.75,42.34,20.76,18,28.91,42.56,31.06,68.82,4.27,51.9,19.27,100.44,41.47,147.29,12,25.35,21.57,51.84,26.36,79.72,1.8,10.48,2.57,21.07.19,31.59-4.2,18.6-16.89,25.34-34.59,18.34-18.89-7.47-33.34-20.9-46.3-35.9-37.46-43.34-59.32-94.39-71.3-149.77-9.32-43.06-32.17-77.28-63.86-106.88-19.47-18.2-40.68-34-61.88-50a89.58,89.58,0,0,1-9.09-8c-6.78-6.73-6.14-12.28,2.15-17.6a110.47,110.47,0,0,1,25.38-11.78C165.53,484.26,182,481.73,202.24,481.32Z" transform="translate(287 161.03)"/></svg>