<svg xmlns="http://www.w3.org/2000/svg" viewBox="0 0 1943.08 1093.1"><defs><style>.a{opacity:0;fill:#ffffff;}.b{fill:#ffffff;}</style></defs><title>1800f_00377</title><path class="a" d="M-286.86,560.06V167c2.06-1.43,4.2-2.74,6.16-4.29C-209.62,106.48-133.76,57.9-51.45,19.78-4.77-1.84,43.89-15.09,96-12,151.56-8.66,204.66,5.38,256.43,25c23.13,8.75,45.28,20,61.3,39.31,29.35,35.46,63.88,64.66,102.52,89.27,17.67,11.26,34.81,23.54,55.64,28.78,29.1,7.32,58.3,6.22,87.18-.18,49.33-10.93,91.65-33.26,122.45-75.23,20.36-27.76,44.56-52.35,70.26-75.34,15.49-13.85,33-24,53.16-29.59,16.32-4.54,33.26-6.48,49.27-12.17,17.39-6.17,23.52-17.44,19.36-35.46C874.06-60.82,867-74.58,860.28-88.44c-11.14-23.14-17.89-47.67-24-72.44h289.89c.71,3,3.46,4.22,5.44,6.07,37.6,35.06,82.51,51.4,133.54,53.34,46.21,1.75,92.5,2.4,138.54,7.47,37.67,4.16,75.39,7.87,112.65,15.15,33.11,6.46,55.05,25.12,64.32,57.92a135.86,135.86,0,0,1,5.17,34.4c.9,47.05-5.72,93.26-15.95,139-15.28,68.27-39,133.9-63.24,199.31-16.22,43.71-34.4,86.41-64.49,123-19.91,24.2-38.14,49.85-62.11,70.42-18,15.46-38.14,25.9-62.78,23.66-16.56-1.5-32-7-47-14-46.32-21.76-83-55.39-115.53-94.08-13-15.53-24.79-32.11-31.17-51.66-10-30.6-6.22-60.92,3.08-90.9,7.73-24.94,20.24-47.95,29.77-72.17,4.93-12.53,8.68-25.3,7.85-39.07-1.12-18.82-14.43-31.9-33.23-32.64-11.72-.47-22.58,2.5-32.92,7.54a370,370,0,0,0-71,45c-20.73,16.78-34.19,38.26-40.93,64.06-3.8,14.5-5.22,29.29-6.35,44.19-5.8,76.56,6.92,149,50.37,213.58,29,43.17,54.6,88,75.31,135.71,10.72,24.68,27.6,44.56,50.08,59.6,7.35,4.92,14.44,10.24,21.51,15.56,15.42,11.59,20.72,26.85,16,45.52a317.35,317.35,0,0,1-32.1,79.17c-10.49,18.52-25.89,31.44-45.82,39-7.06,2.68-14,5.77-21,8.68H252c-4.61-8-12-12.8-20-16.45-9.38-4.31-15.38-.77-17.61,9.26-.54,2.41-1.24,4.79-1.86,7.19H10.62c.83-19.17,1.69-38.34,2.47-57.52.92-22.92,4.15-45.77.74-68.8C4.37,741.84-29.24,696.83-88.94,671.73c-19.55-8.22-39.89-14.45-58.69-24.54-33.7-18.09-64.78-40.3-97-60.76C-258.6,577.52-272.77,568.84-286.86,560.06Z" transform="translate(287.04 161.03)"/><path class="b" d="M1094.32,931.92c7-2.91,13.89-6,21-8.68,19.93-7.59,35.33-20.51,45.82-39a317.35,317.35,0,0,0,32.1-79.17c4.69-18.67-.61-33.93-16-45.52-7.07-5.32-14.16-10.64-21.51-15.56-22.48-15-39.36-34.92-50.08-59.6-20.71-47.71-46.28-92.54-75.31-135.71-43.45-64.62-56.17-137-50.37-213.58,1.13-14.9,2.55-29.69,6.35-44.19,6.74-25.8,20.2-47.28,40.93-64.06a370,370,0,0,1,71-45c10.34-5,21.2-8,32.92-7.54,18.8.74,32.11,13.82,33.23,32.64.83,13.77-2.92,26.54-7.85,39.07-9.53,24.22-22,47.23-29.77,72.17-9.3,30-13.07,60.3-3.08,90.9,6.38,19.55,18.12,36.13,31.17,51.66,32.5,38.69,69.21,72.32,115.53,94.08,15,7,30.44,12.55,47,14,24.64,2.24,44.76-8.2,62.78-23.66,24-20.57,42.2-46.22,62.11-70.42,30.09-36.59,48.27-79.29,64.49-123,24.27-65.41,48-131,63.24-199.31,10.23-45.76,16.85-92,15.95-139a135.86,135.86,0,0,0-5.17-34.4c-9.27-32.8-31.21-51.46-64.32-57.92-37.26-7.28-75-11-112.65-15.15-46-5.07-92.33-5.72-138.54-7.47-51-1.94-95.94-18.28-133.54-53.34-2-1.85-4.73-3.06-5.44-6.07q261.82,0,523.63-.15c5.2,0,6.22,1,6.22,6.22q-.26,289.14-.14,578.27c-21.39,13.72-40.88,29.58-57.39,49.06-27.18,32.08-43,67.92-39.82,111,2.23,30.61,9,60.38,14.63,90.38,7.3,39,14.84,78.07,12.69,118-2.32,43-19.07,79.19-53.92,105.79-15.23,11.63-30.78,22.84-46.19,34.24Z" transform="translate(287.04 161.03)"/><path class="b" d="M836.3-160.88c6.09,24.77,12.84,49.3,24,72.44,6.68,13.86,13.78,27.62,17.29,42.79,4.16,18-2,29.29-19.36,35.46-16,5.69-33,7.63-49.27,12.17-20.2,5.63-37.67,15.74-53.16,29.59-25.7,23-49.9,47.58-70.26,75.34-30.8,42-73.12,64.3-122.45,75.23-28.88,6.4-58.08,7.5-87.18.18-20.83-5.24-38-17.52-55.64-28.78-38.64-24.61-73.17-53.81-102.52-89.27-16-19.34-38.17-30.56-61.3-39.31C204.66,5.38,151.56-8.66,96-12,43.89-15.09-4.77-1.84-51.45,19.78c-82.31,38.12-158.17,86.7-229.25,142.89-2,1.55-4.1,2.86-6.16,4.29q0-160.77-.18-321.53c0-5.84,1.66-6.43,6.76-6.43q335.92.21,671.87.12a32.1,32.1,0,0,0,3.14,3.24c27.53,21.66,57.5,39.13,89.47,53.44,41.34,18.5,82.09,18.74,122.27-2.87,28.31-15.23,53.2-35.64,79.57-53.81Z" transform="translate(287.04 161.03)"/><path class="b" d="M-286.86,560.06c14.09,8.78,28.26,17.46,42.27,26.37,32.18,20.46,63.26,42.67,97,60.76,18.8,10.09,39.14,16.32,58.69,24.54,59.7,25.1,93.31,70.11,102.77,133.87,3.41,23,.18,45.88-.74,68.8-.78,19.18-1.64,38.35-2.47,57.52H-223.11c-4.2-27.83-15.81-52-36.39-71.34-7.84-7.36-16.19-14.51-27.36-16.69Z" transform="translate(287.04 161.03)"/><path class="a" d="M1485.9,931.92c15.41-11.4,31-22.61,46.19-34.24,34.85-26.6,51.6-62.84,53.92-105.79,2.15-39.89-5.39-79-12.69-118-5.62-30-12.4-59.77-14.63-90.38-3.15-43.11,12.64-78.95,39.82-111,16.51-19.48,36-35.34,57.39-49.06q0,251.19.14,502.39c0,5.19-1,6.24-6.22,6.22C1595.18,931.82,1540.54,931.92,1485.9,931.92Z" transform="translate(287.04 161.03)"/><path class="a" d="M686-160.88c-26.37,18.17-51.26,38.58-79.57,53.81C566.29-85.46,525.54-85.7,484.2-104.2c-32-14.31-61.94-31.78-89.47-53.44a32.1,32.1,0,0,1-3.14-3.24Z" transform="translate(287.04 161.03)"/><path class="a" d="M-286.86,843.89c11.17,2.18,19.52,9.33,27.36,16.69,20.58,19.34,32.19,43.51,36.39,71.34-19.73,0-39.47-.12-59.2.1-3.8,0-4.68-.86-4.65-4.66C-286.77,899.54-286.86,871.71-286.86,843.89Z" transform="translate(287.04 161.03)"/><path class="b" d="M212.49,931.92c.62-2.4,1.32-4.78,1.86-7.19,2.23-10,8.23-13.57,17.61-9.26,7.95,3.65,15.38,8.48,20,16.45Z" transform="translate(287.04 161.03)"/></svg>