<svg xmlns="http://www.w3.org/2000/svg" viewBox="0 0 1943.05 1093.14"><defs><style>.a{opacity:0;fill:#ffffff;}.b{fill:#ffffff;}</style></defs><title>1800f_00318</title><path class="a" d="M-286.86,245.88V173c.55-.47,1.35-.84,1.6-1.44,15.09-34.85,36.62-65.81,59.29-95.9,30.15-40,51.66-83.64,61.09-133.12A152.53,152.53,0,0,1-152-97c9.09-18.26,21.8-24.83,42-22,26.05,3.59,49.24,14.77,72,26.89,26.64,14.15,49.58,31.64,61,61.5C28.89-15,42.74-6.93,58.82-3c18,4.4,36.17,3,54.27.8C150.93-6.81,188.49-13.56,226.48-17c51.16-4.7,101.86-12.48,151-27.78,75.25-23.43,151.09-45.06,225.4-71.52,7-2.48,13.94-4.3,21.46-3.8,7,.47,11.24,4.44,13,10.7,3.39,11.89,9,15.62,21,13.12,10-2.09,19-6.71,27.65-12.06,21.5-13.31,38.86-31.39,56.49-49.16.9-.9,1.65-1.91,1.19-3.33h522.12c2.29,2.34,5.48,2.41,8.36,3.14,60,15.28,119.5,32.17,180.06,45.06,24.37,5.19,40.53,19.34,49.34,43.24,6.64,18,20.21,30.42,38.86,36.84,16.9,5.81,33.89,4,50.9,1.36,14.6-2.28,27.34.79,38.75,10.54,9.55,8.17,16.41,18.41,23.8,28.29V525.15c-6.2,1.22-10.89,5.17-15.65,8.87-16.12,12.56-28.4,28.66-40.82,44.64-16.29,21-32.09,42.32-52.54,59.62-21,17.81-35.4,19.29-59.43,5.79q-30.78-17.3-63.07-31.54c-21.12-9.35-41-20.68-58.7-35.83-40.37-34.58-70-75.5-78.08-129.5-2.86-19-6.4-38-14.55-55.56-15.57-33.59-41.68-46.92-77.12-29-9.28,4.7-17.87,10.46-26.37,16.42-15.71,11-30.28,23.67-47.59,32.39-20.8,10.48-40,8.6-57.69-6.64-9.76-8.42-19.24-17.18-28.84-25.78-44.19-39.6-96.43-56.9-155.22-55.7-17.13.35-31.19,7.31-41.9,21-13.47,17.17-24.9,35.73-35.14,54.85-12.41,23.15-9.72,46,6.34,66.81,14.23,18.41,34.25,28.81,55,37.89,21.15,9.25,43.54,14.76,65.54,21.42,23,7,41.21,20.2,53.24,41.2q11.68,20.38,22.52,41.27c20.47,39.41,47.64,72.15,89.59,90.05,12.54,5.35,25.5,9.73,38.28,14.51,30.77,11.5,61.08,24.26,92.85,33,41.28,11.32,83.83,12.76,126.06,16.81,18.35,1.77,36.86,2.17,55,5.87,12.78,2.61,15.28,10,6.74,19.86-6.87,8-15.77,13.38-24.85,18.45-27.42,15.3-57.1,24.38-87.46,31.52-42.06,9.88-84.52,18.32-123.64,37.92-24.41,12.23-49.13,23.84-73.72,35.71-14.09,6.79-28.73,12.47-42.24,20.47H-27.32c.08-3,.31-6,.21-9.07-2.24-68.42-14.43-135.13-37.36-199.53-31.27-87.81-62.13-175.68-87.39-265.48-11.45-40.69-27.77-79.61-52.14-114.74S-262,280.64-286.86,245.88ZM809.78,1.88a22.8,22.8,0,0,0,.75-4.43c0-2.33-.83-4.57-3.21-5.47-2.08-.79-3.8.29-5.47,1.64C794,0,789.68,18.11,793.76,26.87c1.72,3.69,3.3,4.65,6.39,1.26C807,20.67,809.17,11.58,809.78,1.88Z" transform="translate(287.01 161.03)"/><path class="b" d="M1062.44,931.92c13.51-8,28.15-13.68,42.24-20.47,24.59-11.87,49.31-23.48,73.72-35.71,39.12-19.6,81.58-28,123.64-37.92,30.36-7.14,60-16.22,87.46-31.52,9.08-5.07,18-10.49,24.85-18.45,8.54-9.89,6-17.25-6.74-19.86-18.13-3.7-36.64-4.1-55-5.87-42.23-4-84.78-5.49-126.06-16.81-31.77-8.71-62.08-21.47-92.85-33-12.78-4.78-25.74-9.16-38.28-14.51-42-17.9-69.12-50.64-89.59-90.05Q995,586.92,983.32,566.51c-12-21-30.23-34.24-53.24-41.2-22-6.66-44.39-12.17-65.54-21.42-20.76-9.08-40.78-19.48-55-37.89-16.06-20.77-18.75-43.66-6.34-66.81,10.24-19.12,21.67-37.68,35.14-54.85,10.71-13.67,24.77-20.63,41.9-21,58.79-1.2,111,16.1,155.22,55.7,9.6,8.6,19.08,17.36,28.84,25.78,17.66,15.24,36.89,17.12,57.69,6.64,17.31-8.72,31.88-21.37,47.59-32.39,8.5-6,17.09-11.72,26.37-16.42,35.44-17.95,61.55-4.62,77.12,29,8.15,17.59,11.69,36.53,14.55,55.56,8.1,54,37.71,94.92,78.08,129.5,17.68,15.15,37.58,26.48,58.7,35.83q32.29,14.28,63.07,31.54c24,13.5,38.39,12,59.43-5.79,20.45-17.3,36.25-38.67,52.54-59.62,12.42-16,24.7-32.08,40.82-44.64,4.76-3.7,9.45-7.65,15.65-8.87q0,200.36.14,400.7c0,5.19-1,6.22-6.22,6.21Q1356.14,931.81,1062.44,931.92Z" transform="translate(287.01 161.03)"/><path class="b" d="M743.71-160.88c.46,1.42-.29,2.43-1.19,3.33-17.63,17.77-35,35.85-56.49,49.16-8.64,5.35-17.6,10-27.65,12.06-12,2.5-17.66-1.23-21-13.12-1.78-6.26-6-10.23-13-10.7-7.52-.5-14.5,1.32-21.46,3.8C528.54-89.89,452.7-68.26,377.45-44.83c-49.11,15.3-99.81,23.08-151,27.78-38,3.49-75.55,10.24-113.39,14.85C95,0,76.86,1.4,58.82-3,42.74-6.93,28.89-15,22.94-30.65,11.56-60.51-11.38-78-38-92.15c-22.8-12.12-46-23.3-72-26.89-20.19-2.79-32.9,3.78-42,22a152.53,152.53,0,0,0-12.83,39.57C-174.31-7.95-195.82,35.68-226,75.69c-22.67,30.09-44.2,61.05-59.29,95.9-.25.6-1.05,1-1.6,1.44q0-163.92-.15-327.84c0-5.2,1-6.22,6.22-6.22Q231.46-160.79,743.71-160.88Z" transform="translate(287.01 161.03)"/><path class="b" d="M-286.86,245.88c24.85,34.76,58.45,62,82.86,97.22s40.69,74,52.14,114.74c25.26,89.8,56.12,177.67,87.39,265.48,22.93,64.4,35.12,131.11,37.36,199.53.1,3-.13,6-.21,9.07-84.17,0-168.34-.1-252.51.19-6.52,0-7.18-1.77-7.17-7.57Q-286.74,585.21-286.86,245.88Z" transform="translate(287.01 161.03)"/><path class="b" d="M1655.9,7.59c-7.39-9.88-14.25-20.12-23.8-28.29-11.41-9.75-24.15-12.82-38.75-10.54-17,2.66-34,4.45-50.9-1.36-18.65-6.42-32.22-18.82-38.86-36.84-8.81-23.9-25-38-49.34-43.24-60.56-12.89-120.11-29.78-180.06-45.06-2.88-.73-6.07-.8-8.36-3.14q192,0,384-.15c5.2,0,6.25,1,6.23,6.22C1655.8-100.68,1655.9-46.54,1655.9,7.59Z" transform="translate(287.01 161.03)"/><path class="b" d="M809.78,1.88c-.61,9.7-2.81,18.79-9.63,26.25-3.09,3.39-4.67,2.43-6.39-1.26C789.68,18.11,794,0,801.85-6.38c1.67-1.35,3.39-2.43,5.47-1.64,2.38.9,3.16,3.14,3.21,5.47A22.8,22.8,0,0,1,809.78,1.88Z" transform="translate(287.01 161.03)"/></svg>