<svg xmlns="http://www.w3.org/2000/svg" viewBox="0 0 1943.03 1093.09"><defs><style>.a{fill:#ffffff;}.b{opacity:0;fill:#ffffff;}</style></defs><title>1800f_00225</title><path class="a" d="M1431.26-160.88q109.29,0,218.56-.15c5.2,0,6.23,1,6.22,6.22q-.27,242.09-.14,484.17a183.65,183.65,0,0,0-19.61,36.71c-14.32,35-13.57,71.21-8.33,107.6,4,27.52,9.47,54.82,13.55,82.32,2.43,16.4,2.56,33.06-6.06,48.08a385,385,0,0,1-51.21,70.33c-38.6,41.73-113.37,42.31-153.56.5-27.3-28.4-45.43-61-53.79-99.29-6.49-29.68-14.92-58.8-24-87.76-13.22-42.22-26.81-84.28-32-128.59-6.61-57-2.16-112.09,25.19-163.8A138.08,138.08,0,0,0,1353.6,178c4.93-13.47.48-20.93-13.47-23.32a83.18,83.18,0,0,0-22.67-.58,327.1,327.1,0,0,0-61.6,12.61c-26.85,8.09-50.53,21.76-70.28,41.88-14.35,14.62-21.38,31.59-17.06,52.41a87.64,87.64,0,0,1,.22,33.2c-2.79,15.8-8.28,30.74-14.84,45.29q-17.16,38-34.56,76-24.73,54.25-.47,108.71a148.28,148.28,0,0,1,10.43,31.65c3.56,18.18-2.62,32.21-17.67,42.66-10.26,7.13-21.53,12.37-33.12,16.7-43.29,16.17-78.77,42.75-107.93,78.42-16.93,20.7-28.74,43.08-30.37,70.41-1.3,21.82,1.25,43.44,1.67,65.17.67,34.75-.07,69.32-11.48,102.72H839.33a68.33,68.33,0,0,1-7.65-21.33C820,850.69,835.26,798,874.54,751.82c8.53-10,17.51-19.72,22.63-32.08,10.67-25.75,10-51.81,1.24-77.84-6.18-18.29-15.77-35-24.85-52-8.72-16.26-17.79-32.35-23.71-50-7.82-23.23-5.21-45.34,6.63-66.57a139.57,139.57,0,0,1,21.94-28.93c22.48-23.28,49.13-41.24,75.66-59.36,21.09-14.39,42.65-28.16,62-45,8.21-7.16,16.29-14.54,21-24.65,5.35-11.47,2.78-20-7.93-26.59-8-5-16.85-8.12-25.79-10.88-38.44-11.87-76.55-24.49-112.75-42.39-28.36-14-56.8-27.74-81.71-47.66-24.25-19.4-37-44.14-36.81-75.52.1-14.65-.27-29.35-1.29-44-1.56-22.23-6.93-43.47-19.69-62.2-12.33-18.1-27.58-23-48.06-15.46a104.84,104.84,0,0,0-17.09,8.12c-22.91,13.61-44.76,29-63.12,48.25Q584.32,87.62,543,125a149.39,149.39,0,0,0-45.16,74,454.25,454.25,0,0,1-19.52,58.22c-24,57.39-64.69,95.58-126,110.48C324,374.53,296.17,383,268.44,391.73c-24.85,7.84-49.88,15.08-75.51,19.84C137.7,421.83,81.67,426.32,26.17,434.51c-66.41,9.8-123.48-12.2-176.28-49.87a100.67,100.67,0,0,1-18.52-16.76C-179.9,354.63-183,339.83-177,323.3c4.19-11.56,10.78-21.71,18.1-31.44,12-16,26.12-30.21,39.41-45.12,49.82-55.87,104-107,165-150.54A276.64,276.64,0,0,0,79.13,67.86c17.17-17,26.06-37.32,27.4-61.49,1.54-27.84,0-55.62-.6-83.42-.62-28.41-.77-56.68,9.42-83.83H229.18a20.31,20.31,0,0,0,1.3,3.5c20.8,34.23,38,70.24,54,106.92,10.53,24.21,24,46.81,41.12,67.05,7.71,9.1,16.16,17.48,26.64,23.45,16.68,9.49,30.21,6.82,42.06-8.23,6.64-8.43,11.41-17.95,15.2-27.89,8.19-21.5,16-43.16,24-64.71q12-32-11.24-56.83c-8.51-9.15-18.68-16.22-28.87-23.3-9.33-6.47-19.34-12-27.6-20H985c6.27,7.27,12.5,14.58,18.81,21.81,23,26.43,48.24,50.37,78.05,69.24C1118-47,1158.28-35.63,1199.43-26.45c77.69,17.33,151.31,7.21,220.48-32.58,25.75-14.81,32.64-30.82,26.93-60.12a129.85,129.85,0,0,0-12.5-34.88C1433.19-156.25,1432.28-158.59,1431.26-160.88Zm112.83,292.32c25.46-1.32,52.37-3.76,78.16-12.87,5.11-1.81,11.78-3.39,12.59-9.63.9-6.82-5.62-9.79-10.54-12.51-28.41-15.7-58.56-26.37-91.1-28.71-23.72-1.71-45.32,4.36-62,22.33-14.78,15.9-11.59,27.4,9.1,33.81C1500.51,130.14,1521.4,131.74,1544.09,131.44Z" transform="translate(286.99 161.03)"/><path class="b" d="M115.35-160.88c-10.19,27.15-10,55.42-9.42,83.83.6,27.8,2.14,55.58.6,83.42-1.34,24.17-10.23,44.5-27.4,61.49A276.64,276.64,0,0,1,45.52,96.2c-61,43.59-115.17,94.67-165,150.54-13.29,14.91-27.37,29.12-39.41,45.12-7.32,9.73-13.91,19.88-18.1,31.44-6,16.53-2.92,31.33,8.35,44.58a100.67,100.67,0,0,0,18.52,16.76c52.8,37.67,109.87,59.67,176.28,49.87,55.5-8.19,111.53-12.68,166.76-22.94,25.63-4.76,50.66-12,75.51-19.84,27.73-8.75,55.56-17.2,83.82-24.07,61.32-14.9,102-53.09,126-110.48A454.25,454.25,0,0,0,497.79,199,149.39,149.39,0,0,1,543,125q41.35-37.39,79.86-77.78C641.17,27.9,663,12.55,685.93-1.06A104.84,104.84,0,0,1,703-9.18c20.48-7.56,35.73-2.64,48.06,15.46,12.76,18.73,18.13,40,19.69,62.2,1,14.62,1.39,29.32,1.29,44-.22,31.38,12.56,56.12,36.81,75.52,24.91,19.92,53.35,33.64,81.71,47.66,36.2,17.9,74.31,30.52,112.75,42.39,8.94,2.76,17.78,5.92,25.79,10.88,10.71,6.62,13.28,15.12,7.93,26.59-4.72,10.11-12.8,17.49-21,24.65-19.31,16.82-40.87,30.59-62,45-26.53,18.12-53.18,36.08-75.66,59.36a139.57,139.57,0,0,0-21.94,28.93C844.64,494.64,842,516.75,849.85,540c5.92,17.61,15,33.7,23.71,50,9.08,16.94,18.67,33.67,24.85,52,8.8,26,9.43,52.09-1.24,77.84-5.12,12.36-14.1,22-22.63,32.08C835.26,798,820,850.69,831.68,910.59a68.33,68.33,0,0,0,7.65,21.33h-894c.48-2.19.78-4.44,1.46-6.57,13-40.55,29.3-79.64,52.28-115.74,7.05-11.07,13.28-22.68,19.59-34.2,15.32-28,30.33-56.27,36.77-87.8,8.14-39.86,13.43-80.23,18.83-120.55,3.29-24.5-6.25-42.5-26.68-55.91-38.14-25-79-35-124.2-25.08-21.46,4.69-42.89,9.69-64.87,11.63-32,2.83-62.87-3.8-93.91-9.85-17-3.32-33.95-7.85-51.49-8.23v-640.5ZM234.49,519.2c-14.08.09-26.38,1.4-37.49,7.76-9.61,5.5-11.72,13.46-6.38,23.11a73.7,73.7,0,0,0,14.06,17.8c16.53,15.65,33.16,31.19,49.68,46.83,16,15.13,24.79,33.45,25.46,55.71.31,10.35,1.57,20.68,2.73,31,7.5,66.23,35.36,122.36,84,168,10.93,10.25,22.88,19.29,37.81,23.14,13.16,3.41,23.07-2.57,26.47-15.7a52.39,52.39,0,0,0,.79-20.34c-3.23-24.17-13-46.12-23.07-68-17-37.05-38.22-71.9-57-108-11.07-21.27-19.15-43.51-20.57-67.74a316,316,0,0,0-3.27-33.19c-3.36-20.21-14.35-34.72-32.16-44.34A135.92,135.92,0,0,0,234.49,519.2Z" transform="translate(286.99 161.03)"/><path class="b" d="M930.4,931.92c11.41-33.4,12.15-68,11.48-102.72-.42-21.73-3-43.35-1.67-65.17,1.63-27.33,13.44-49.71,30.37-70.41,29.16-35.67,64.64-62.25,107.93-78.42,11.59-4.33,22.86-9.57,33.12-16.7,15-10.45,21.23-24.48,17.67-42.66a148.28,148.28,0,0,0-10.43-31.65q-24.28-54.54.47-108.71,17.31-38,34.56-76c6.56-14.55,12-29.49,14.84-45.29a87.64,87.64,0,0,0-.22-33.2c-4.32-20.82,2.71-37.79,17.06-52.41,19.75-20.12,43.43-33.79,70.28-41.88a327.1,327.1,0,0,1,61.6-12.61,83.18,83.18,0,0,1,22.67.58c13.95,2.39,18.4,9.85,13.47,23.32a138.08,138.08,0,0,1-7.46,17.42c-27.35,51.71-31.8,106.76-25.19,163.8,5.14,44.31,18.73,86.37,32,128.59,9.07,29,17.5,58.08,24,87.76,8.36,38.24,26.49,70.89,53.79,99.29,40.19,41.81,115,41.23,153.56-.5a385,385,0,0,0,51.21-70.33c8.62-15,8.49-31.68,6.06-48.08-4.08-27.5-9.59-54.8-13.55-82.32-5.24-36.39-6-72.62,8.33-107.6a183.65,183.65,0,0,1,19.61-36.71q0,297.87.14,595.73c0,5.69-1.28,7-7,7Q1289.73,931.81,930.4,931.92Z" transform="translate(286.99 161.03)"/><path class="a" d="M-286.86,479.62c17.54.38,34.44,4.91,51.49,8.23,31,6,62,12.68,93.91,9.85,22-1.94,43.41-6.94,64.87-11.63,45.18-9.89,86.06.05,124.2,25.08,20.43,13.41,30,31.41,26.68,55.91-5.4,40.32-10.69,80.69-18.83,120.55C49,719.14,34,747.43,18.69,775.41,12.38,786.93,6.15,798.54-.9,809.61c-23,36.1-39.23,75.19-52.28,115.74-.68,2.13-1,4.38-1.46,6.57H-238.29c1.09-2.27,2.12-4.56,3.27-6.79,21.17-41.14,44.87-80.8,69.47-120,9-14.36,16.81-29.41,20.58-46.17,5.56-24.66-3.26-43.18-25.87-54.42-11-5.45-22.73-8.39-34.63-10.78-26-5.21-52.17-9.73-77-19.55-1.3-.51-2.91-.25-4.38-.35Z" transform="translate(286.99 161.03)"/><path class="b" d="M1431.26-160.88c1,2.29,1.93,4.63,3.08,6.85a129.85,129.85,0,0,1,12.5,34.88c5.71,29.3-1.18,45.31-26.93,60.12-69.17,39.79-142.79,49.91-220.48,32.58C1158.28-35.63,1118-47,1081.9-69.83c-29.81-18.87-55-42.81-78.05-69.24-6.31-7.23-12.54-14.54-18.81-21.81Z" transform="translate(286.99 161.03)"/><path class="b" d="M365.78-160.88c8.26,7.95,18.27,13.49,27.6,20,10.19,7.08,20.36,14.15,28.87,23.3q23.22,24.95,11.24,56.83c-8.06,21.55-15.84,43.21-24,64.71-3.79,9.94-8.56,19.46-15.2,27.89C382.41,46.86,368.88,49.53,352.2,40c-10.48-6-18.93-14.35-26.64-23.45-17.13-20.24-30.59-42.84-41.12-67-16-36.68-33.16-72.69-54-106.92a20.31,20.31,0,0,1-1.3-3.5Z" transform="translate(286.99 161.03)"/><path class="b" d="M-286.86,673.9c1.47.1,3.08-.16,4.38.35,24.84,9.82,51,14.34,77,19.55,11.9,2.39,23.67,5.33,34.63,10.78,22.61,11.24,31.43,29.76,25.87,54.42-3.77,16.76-11.56,31.81-20.58,46.17-24.6,39.16-48.3,78.82-69.47,120-1.15,2.23-2.18,4.52-3.27,6.79-14.42,0-28.84-.23-43.25.13-4.55.12-5.45-.92-5.45-5.44Q-286.72,800.25-286.86,673.9Z" transform="translate(286.99 161.03)"/><path class="b" d="M1544.09,131.44c-22.69.3-43.58-1.3-63.81-7.58-20.69-6.41-23.88-17.91-9.1-33.81,16.7-18,38.3-24,62-22.33,32.54,2.34,62.69,13,91.1,28.71,4.92,2.72,11.44,5.69,10.54,12.51-.81,6.24-7.48,7.82-12.59,9.63C1596.46,127.68,1569.55,130.12,1544.09,131.44Z" transform="translate(286.99 161.03)"/><path class="a" d="M234.49,519.2a135.92,135.92,0,0,1,61.08,16c17.81,9.62,28.8,24.13,32.16,44.34A316,316,0,0,1,331,612.71c1.42,24.23,9.5,46.47,20.57,67.74,18.78,36.12,40,71,57,108,10.06,21.86,19.84,43.81,23.07,68a52.39,52.39,0,0,1-.79,20.34c-3.4,13.13-13.31,19.11-26.47,15.7-14.93-3.85-26.88-12.89-37.81-23.14-48.66-45.6-76.52-101.73-84-168-1.16-10.3-2.42-20.63-2.73-31-.67-22.26-9.47-40.58-25.46-55.71-16.52-15.64-33.15-31.18-49.68-46.83a73.7,73.7,0,0,1-14.06-17.8c-5.34-9.65-3.23-17.61,6.38-23.11C208.11,520.6,220.41,519.29,234.49,519.2Z" transform="translate(286.99 161.03)"/></svg>