<svg xmlns="http://www.w3.org/2000/svg" viewBox="0 0 1943.05 1093.09"><defs><style>.a{opacity:0;fill:#ffffff;}.b{fill:#ffffff;}</style></defs><title>1800f_00260</title><path class="a" d="M866.65,931.92H239.81c-20.59-24.1-43.5-45.13-73.81-56.59-20.95-7.92-42.95-8.83-64.91-9.92-52.32-2.59-104.67-2.65-157-2a564.58,564.58,0,0,0-59,4.16c-13.55,1.58-27.13,3.48-40.82,2.34-11.74-1-16.1-7.45-13-18.64a60.79,60.79,0,0,1,6.42-14.52c10.77-18.25,25.36-33.36,39.71-48.69,9.67-10.34,19.59-20.53,25.94-33.44,7.86-16,4.45-30.08-9.62-40.91a60.91,60.91,0,0,0-11-6.64c-9-4.32-17.24-9.8-23.89-17.19-38.77-43.1-58.93-93.56-59.5-151.69-.2-19.22,7.65-34.37,23.4-45.08,35-23.78,64.71-52.69,86.79-88.85,27.35-44.79,45-93.82,60.21-143.73,14-45.93,11.82-92.95,8.25-139.95C-23.54,100.23-18,82.65-3.68,68A139,139,0,0,1,19.08,49.11c27-17.88,52.38-38,78.59-57,38.79-28.1,76.12-57.82,107.24-94.65a397.65,397.65,0,0,1,49.86-49.81c3.23-2.68,7.49-4.29,9.32-8.51h898.53a25.2,25.2,0,0,0,2.07,3.92c18.24,23.41,38.3,45,61.72,63.41,48.17,37.8,101.71,59.68,164.07,55.31,7.8-.55,15.57-1.49,23.35-2.33,13.89-1.51,26.13,1.21,34.94,13.21,3.87,5.29,8,10.36,11.86,15.68,22,30.63,51.19,46.23,89.48,43.7,22.68-1.49,45.12-4.92,67.6-7.83,20.51-2.66,29.52-14.51,30.36-35.12.51-12.45-1.25-24.66-3-36.93-4.75-34.23-19.14-63.17-46.84-84.55-20.39-15.74-42.93-25.25-69.52-22.47-17,1.78-32,8.78-46.63,16.92-11.42,6.33-22.28,14.37-35.94,15.12-17.81,1-31.07-9.31-44-19.43-6.75-5.29-14.68-9.83-18-18.61q132.81,0,265.61-.15c5.2,0,6.22,1,6.22,6.22q-.24,407.52-.14,815.05c-7,4.67-12.07,11.36-18.17,17-16.94,15.54-33.13,32-54.6,41.65-27.32,12.29-53.88,6.79-71-15.12-8.8-11.23-13.59-24.31-15.26-38.29-2.67-22.37-8.84-43.56-19.48-63.38-12.23-22.79-22.51-46.34-29.9-71.17a95.72,95.72,0,0,0-15-30.46c-15.33-20.43-37.92-20.59-53.27-.4-10.06,13.23-15,28.48-17.71,44.62-2.86,17.15-2.9,34.85-9.64,51.24-18.07,43.94-39.86,85.69-72.08,121.23-21,23.12-40.38,47.28-53.19,76.12A355.3,355.3,0,0,0,1211,834.36c-10.19,33.7-17.27,68.64-39.32,97.56H1059.41c-32.9-12.92-65.92-25.47-102-25.09C925,907.17,893.31,910.61,866.65,931.92ZM1114,630c-16.53.12-32.83,1.8-48,9-24,11.38-30.49,37.2-14.93,58.88,24.53,34.16,85.89,42.56,118.71,16.24,30-24.08,24.9-60.81-10.68-75.64C1144.76,632.48,1129.62,630,1114,630Z" transform="translate(287.01 161.03)"/><path class="b" d="M264.09-160.88c-1.83,4.22-6.09,5.83-9.32,8.51a397.65,397.65,0,0,0-49.86,49.81C173.79-65.73,136.46-36,97.67-7.91c-26.21,19-51.57,39.14-78.59,57A139,139,0,0,0-3.68,68C-18,82.65-23.54,100.23-22,120.57c3.57,47,5.79,94-8.25,140C-45.5,310.43-63.1,359.46-90.45,404.25c-22.08,36.16-51.84,65.07-86.79,88.85-15.75,10.71-23.6,25.86-23.4,45.08.57,58.13,20.73,108.59,59.5,151.69,6.65,7.39,14.91,12.87,23.89,17.19a60.91,60.91,0,0,1,11,6.64c14.07,10.83,17.48,24.93,9.62,40.91-6.35,12.91-16.27,23.1-25.94,33.44-14.35,15.33-28.94,30.44-39.71,48.69a60.79,60.79,0,0,0-6.42,14.52c-3.14,11.19,1.22,17.66,13,18.64,13.69,1.14,27.27-.76,40.82-2.34a564.58,564.58,0,0,1,59-4.16c52.36-.64,104.71-.58,157,2,22,1.09,44,2,64.91,9.92,30.31,11.46,53.22,32.49,73.81,56.59q-260.11,0-520.21.14c-5.45,0-6.62-1.08-6.61-6.58q.27-246.45.15-492.91a61.16,61.16,0,0,1,6.74-.37c7.43.35,11.84-3.14,13.78-10.2a37.87,37.87,0,0,0,1.75-10.37c-.18-24.33-9.91-45.39-22.27-65.57q0-250.26-.15-500.51c0-5.52,1.18-6.58,6.61-6.58Q-8.15-160.76,264.09-160.88Z" transform="translate(287.01 161.03)"/><path class="b" d="M1171.72,931.92c22-28.92,29.13-63.86,39.32-97.56a355.3,355.3,0,0,1,15.51-41.11c12.81-28.84,32.23-53,53.19-76.12,32.22-35.54,54-77.29,72.08-121.23,6.74-16.39,6.78-34.09,9.64-51.24,2.69-16.14,7.65-31.39,17.71-44.62,15.35-20.19,37.94-20,53.27.4a95.72,95.72,0,0,1,15,30.46c7.39,24.83,17.67,48.38,29.9,71.17,10.64,19.82,16.81,41,19.48,63.38,1.67,14,6.46,27.06,15.26,38.29,17.16,21.91,43.72,27.41,71,15.12,21.47-9.65,37.66-26.11,54.6-41.65,6.1-5.61,11.19-12.3,18.17-17q0,132.79.14,265.61c0,5.19-1,6.22-6.22,6.21Q1410.78,931.81,1171.72,931.92Z" transform="translate(287.01 161.03)"/><path class="b" d="M1384.21-160.88c3.31,8.78,11.24,13.32,18,18.61,12.92,10.12,26.18,20.41,44,19.43,13.66-.75,24.52-8.79,35.94-15.12,14.66-8.14,29.59-15.14,46.63-16.92,26.59-2.78,49.13,6.73,69.52,22.47,27.7,21.38,42.09,50.32,46.84,84.55,1.7,12.27,3.46,24.48,3,36.93-.84,20.61-9.85,32.46-30.36,35.12-22.48,2.91-44.92,6.34-67.6,7.83-38.29,2.53-67.47-13.07-89.48-43.7-3.82-5.32-8-10.39-11.86-15.68-8.81-12-21-14.72-34.94-13.21-7.78.84-15.55,1.78-23.35,2.33-62.36,4.37-115.9-17.51-164.07-55.31-23.42-18.38-43.48-40-61.72-63.41a25.2,25.2,0,0,1-2.07-3.92Z" transform="translate(287.01 161.03)"/><path class="b" d="M866.65,931.92c26.66-21.31,58.3-24.75,90.72-25.09,36.12-.38,69.14,12.17,102,25.09Z" transform="translate(287.01 161.03)"/><path class="a" d="M-286.86,346.06c12.36,20.18,22.09,41.24,22.27,65.57A37.87,37.87,0,0,1-266.34,422c-1.94,7.06-6.35,10.55-13.78,10.2a61.16,61.16,0,0,0-6.74.37Z" transform="translate(287.01 161.03)"/><path class="b" d="M1114,630c15.59-.07,30.73,2.45,45.12,8.45,35.58,14.83,40.71,51.56,10.68,75.64-32.82,26.32-94.18,17.92-118.71-16.24-15.56-21.68-9.12-47.5,14.93-58.88C1081.2,631.83,1097.5,630.15,1114,630Z" transform="translate(287.01 161.03)"/></svg>