<svg xmlns="http://www.w3.org/2000/svg" viewBox="0 0 1943.05 1093.11"><defs><style>.a{opacity:0;fill:#ffffff;}.b{fill:#ffffff;}</style></defs><title>1800f_00143</title><path class="a" d="M-286.86,332.4V305.08c5.57-2.38,11-5.35,16.75-7C-232.26,287-194,277.18-155.2,270.4c55-9.6,110.61-15.33,166.06-21.91,59.56-7.07,119-6.12,178.54-.25,28.41,2.8,56.45.74,83.67-9.4,24.78-9.23,47.26-23,70.92-34.42,44.22-21.32,88.56-22.39,133.15-1.74a650.07,650.07,0,0,1,87.79,49.55c56.94,38,119,54.5,187,49.38,43.62-3.28,87.25-5.47,131-4.48,1.76,0,3.52-.35,5.28-.45,25.26-1.48,50.07-6.64,75.26-9,52.84-4.88,103.22,4.57,152.12,23.79,15.83,6.23,24,18.58,25.9,35.38,1.19,10.63.41,21.15-.87,31.71-2.54,21-9.25,40.88-15,61-4.67,16.23-3.26,31.5,5.73,45.9q12.85,20.58,25.89,41.06c14.76,23.32,25.36,49,40.17,72.24,26.9,42.3,60.2,75,114.63,76.05,12.74.25,25.28-.3,37.51-3.88,25-7.32,34.52-27,39.24-50.23,4.6-22.61,6-45.59,6.88-68.57,1.47-37.37,3.69-74.78-1.76-112-5.63-38.48-6.36-76.94-.85-115.57,5.81-40.66,16-80.23,27.45-119.57,4.65-16,9.43-32.08,9.13-49-.37-20.84-11.36-31.64-32.17-32a82.82,82.82,0,0,0-16.62,1.17c-22.65,4.25-43.34,13.57-63.49,24.3s-39.92,22.92-60.72,32.81c-5.9,2.8-11.76,6-18.58,6.07-6.64.06-9.43-2.86-8.36-9.4a44,44,0,0,1,3.31-10c4.63-10.78,11.68-20.05,18.49-29.49,13.91-19.3,27.63-38.77,34.78-61.87,5.69-18.37,2.61-35-10.67-49.28-18.23-19.65-36.47-39.28-55.59-58.08C1194.6-54.7,1164.46-67,1128.78-64.95c-30.44,1.76-60,8.14-89.09,17-33.61,10.26-64.37,26.66-95.4,42.64-28.4,14.63-58.67,21.8-90.74,20.13-20.23-1.05-40.15-4.59-60.07-8C761.36,1.26,729.26-4.52,696.62-6.08,656.8-8,618.22.38,579.61,8.47,553.27,14,526.86,17.83,500,12.1c-50.12-10.67-77.28-41.53-76.15-95.7.43-20.63,10.05-38.9,19.36-57,3.39-6.58,8.7-12.39,9.13-20.32h890.93c3.28,6.33,9.44,9.07,15.44,11.51C1383-139.5,1403.18-124,1422-106c31.3,29.86,66,54.87,106.79,70.52,14.37,5.52,28.38,11.93,42.19,18.8,19.58,9.73,33.09,24.43,39.61,45.46,2.09,6.75,4.6,13.38,7.22,19.94,8.71,21.8,20.42,41.65,38.07,57.57V452.3c-9.21,13.31-16.62,27.67-24.35,41.82-22,40.15-43,80.74-55.29,125.19-10,36.12-13.63,73.44-21,110-6.63,33-6.84,65.72.42,98.46,8.13,36.58,17.2,72.87,39.48,104.11H-244.36c15.71-19.82,31.76-39.42,52.39-54.39,17.54-12.73,34.08-26.61,50.32-40.89A107.66,107.66,0,0,0-127,821.32c12.58-16.4,12.94-24.85-.2-41.08-15.33-19-25.39-40.27-32.19-63.6-9.32-31.93-14.53-64.53-17.68-97.48-3.09-32.47-4.54-65,1.26-97.44,3.42-19.1,1.41-37.74-4.74-56C-199.88,408.41-239.12,367-286.86,332.4Zm1064.51,301c.44,17,3.55,35.25,14.84,51.17,9.31,13.14,21.51,20.68,38.19,17.83,9.08-1.55,17.32-5.61,24.88-10.78A288.85,288.85,0,0,0,924.38,626c27.77-37,29.19-78.3,4-117.21-7.56-11.65-15.94-22.75-23.74-34.24-7.19-10.59-10.33-21.88-8.43-35.11,1.52-10.57,3.89-21.46.72-32.32-2.15-7.39-5.29-13.88-13.8-15.3-7.28-1.21-13.4,2.91-17.73,11.49-5.41,10.72-6.34,22.38-5.85,34,1,23.64-6.82,44.07-20.8,62.65-11.54,15.35-23.61,30.3-33.77,46.66C788.8,572.61,778,600.29,777.65,633.38ZM63.85,724c-30.49,1.07-53.12,11.44-70,33.26-10.55,13.62-8.75,23.88,5.55,33.64q2.81,1.92,5.75,3.65c23.16,13.61,48,23.66,72.5,34.5,19.15,8.48,38.44,17,59.47,19.82,11.18,1.49,21.6-1.1,30-9.24,17.49-16.93,18.19-44.95.39-65.15C139.3,742.48,102.54,727.76,63.85,724Z" transform="translate(287.01 161.03)"/><path class="b" d="M452.3-160.88c-.43,7.93-5.74,13.74-9.13,20.32-9.31,18.06-18.93,36.33-19.36,57-1.13,54.17,26,85,76.15,95.7,26.9,5.73,53.31,1.89,79.65-3.63C618.22.38,656.8-8,696.62-6.08c32.64,1.56,64.74,7.34,96.86,12.89,19.92,3.44,39.84,7,60.07,8,32.07,1.67,62.34-5.5,90.74-20.13,31-16,61.79-32.38,95.4-42.64,29.12-8.88,58.65-15.26,89.09-17,35.68-2.06,65.82,10.25,91.15,35.16,19.12,18.8,37.36,38.43,55.59,58.08,13.28,14.32,16.36,30.91,10.67,49.28-7.15,23.1-20.87,42.57-34.78,61.87-6.81,9.44-13.86,18.71-18.49,29.49a44,44,0,0,0-3.31,10c-1.07,6.54,1.72,9.46,8.36,9.4,6.82-.07,12.68-3.27,18.58-6.07,20.8-9.89,40.42-22,60.72-32.81s40.84-20,63.49-24.3a82.82,82.82,0,0,1,16.62-1.17c20.81.35,31.8,11.15,32.17,32,.3,16.91-4.48,33-9.13,49C1409,244.33,1398.78,283.9,1393,324.56c-5.51,38.63-4.78,77.09.85,115.57,5.45,37.27,3.23,74.68,1.76,112-.91,23-2.28,46-6.88,68.57-4.72,23.19-14.22,42.91-39.24,50.23-12.23,3.58-24.77,4.13-37.51,3.88-54.43-1.06-87.73-33.75-114.63-76.05-14.81-23.28-25.41-48.92-40.17-72.24q-13-20.51-25.89-41.06c-9-14.4-10.4-29.67-5.73-45.9,5.8-20.14,12.51-40.06,15-61,1.28-10.56,2.06-21.08.87-31.71-1.89-16.8-10.07-29.15-25.9-35.38-48.9-19.22-99.28-28.67-152.12-23.79-25.19,2.33-50,7.49-75.26,9-1.76.1-3.52.49-5.28.45-43.75-1-87.38,1.2-131,4.48-67.94,5.12-130-11.35-187-49.38a650.07,650.07,0,0,0-87.79-49.55C432.55,182,388.21,183.1,344,204.42c-23.66,11.42-46.14,25.19-70.92,34.42-27.22,10.14-55.26,12.2-83.67,9.4-59.56-5.87-119-6.82-178.54.25-55.45,6.58-111,12.31-166.06,21.91C-194,277.18-232.26,287-270.11,298c-5.78,1.69-11.18,4.66-16.75,7V65.27c2.48.38,5,.66,7.44,1.17,24.74,5.13,49.49,10.24,74.67,12.69,25.64,2.5,51.28,5.06,77,7.06C-99.6,88.38-71.43,91.11-43,88.32c9-.89,18.12-1,27.19.67,17.9,3.39,35.21,9,52.72,13.8C80,114.58,121,112,158.92,86.57c27.51-18.45,55.36-36.26,84.48-52.09,18.38-10,29.48-25.43,33.11-46.39,8.53-49.31,16.05-98.66,11.87-149Z" transform="translate(287.01 161.03)"/><path class="a" d="M288.38-160.88c4.18,50.31-3.34,99.66-11.87,149-3.63,21-14.73,36.4-33.11,46.39-29.12,15.83-57,33.64-84.48,52.09C121,112,80,114.58,36.86,102.79,19.35,98,2,92.38-15.86,89c-9.07-1.71-18.23-1.56-27.19-.67-28.38,2.79-56.55.06-84.74-2.13-25.68-2-51.32-4.56-77-7.06-25.18-2.45-49.93-7.56-74.67-12.69-2.45-.51-5-.79-7.44-1.17q0-110-.15-220.08c0-5.2,1-6.22,6.22-6.22Q3.79-160.76,288.38-160.88Z" transform="translate(287.01 161.03)"/><path class="b" d="M-286.86,332.4c47.74,34.62,87,76,106.28,133.3,6.15,18.28,8.16,36.92,4.74,56-5.8,32.4-4.35,65-1.26,97.44,3.15,33,8.36,65.55,17.68,97.48,6.8,23.33,16.86,44.64,32.19,63.6,13.14,16.23,12.78,24.68.2,41.08a107.66,107.66,0,0,1-14.62,15.32c-16.24,14.28-32.78,28.16-50.32,40.89-20.63,15-36.68,34.57-52.39,54.39-12.65,0-25.3-.17-37.94.1-3.81.09-4.69-.86-4.66-4.66.2-23.77.1-47.55.1-71.33Z" transform="translate(287.01 161.03)"/><path class="b" d="M1595.18,931.92c-22.28-31.24-31.35-67.53-39.48-104.11-7.26-32.74-7-65.48-.42-98.46,7.35-36.6,11-73.92,21-110,12.31-44.45,33.33-85,55.29-125.19,7.73-14.15,15.14-28.51,24.35-41.82q0,236.77.14,473.55c0,5.19-1,6.34-6.22,6.23C1631.62,931.67,1613.4,931.92,1595.18,931.92Z" transform="translate(287.01 161.03)"/><path class="b" d="M1655.9,106.25c-17.65-15.92-29.36-35.77-38.07-57.57-2.62-6.56-5.13-13.19-7.22-19.94-6.52-21-20-35.73-39.61-45.46-13.81-6.87-27.82-13.28-42.19-18.8C1488-51.17,1453.32-76.18,1422-106c-18.84-18-39.06-33.46-63.35-43.33-6-2.44-12.16-5.18-15.44-11.51q153.3,0,306.59-.15c5.2,0,6.24,1,6.22,6.22Q1655.74-24.28,1655.9,106.25Z" transform="translate(287.01 161.03)"/><path class="b" d="M777.65,633.38c.33-33.09,11.15-60.77,27.3-86.77,10.16-16.36,22.23-31.31,33.77-46.66,14-18.58,21.8-39,20.8-62.65-.49-11.61.44-23.27,5.85-34,4.33-8.58,10.45-12.7,17.73-11.49,8.51,1.42,11.65,7.91,13.8,15.3,3.17,10.86.8,21.75-.72,32.32-1.9,13.23,1.24,24.52,8.43,35.11,7.8,11.49,16.18,22.59,23.74,34.24,25.22,38.91,23.8,80.17-4,117.21a288.85,288.85,0,0,1-68.82,65.6c-7.56,5.17-15.8,9.23-24.88,10.78-16.68,2.85-28.88-4.69-38.19-17.83C781.2,668.63,778.09,650.35,777.65,633.38Z" transform="translate(287.01 161.03)"/><path class="b" d="M63.85,724c38.69,3.74,75.45,18.46,103.67,50.48,17.8,20.2,17.1,48.22-.39,65.15-8.42,8.14-18.84,10.73-30,9.24-21-2.8-40.32-11.34-59.47-19.82-24.47-10.84-49.34-20.89-72.5-34.5q-2.94-1.73-5.75-3.65c-14.3-9.76-16.1-20-5.55-33.64C10.73,735.46,33.36,725.09,63.85,724Z" transform="translate(287.01 161.03)"/></svg>