<svg xmlns="http://www.w3.org/2000/svg" viewBox="0 0 1943.06 1093.09"><defs><style>.a{opacity:0;fill:#ffffff;}.b{fill:#ffffff;}</style></defs><title>1800f_00270</title><path class="a" d="M1322,931.92H-89.55c12.81-25.91,19.76-53.21,16-82.08-6.13-46.76-22.61-89.9-48.55-129.35a407.19,407.19,0,0,1-23.23-39.92c-16.37-32.33-28.69-66.31-39.48-100.76-14.68-46.87-39.06-87.41-75.07-120.8-8-7.47-16-15.35-26.95-18.85V292.93c8.07.31,16.15-.54,24.21.76,23.22,3.73,40.94,16.91,56,33.69,11.6,12.91,24.83,23.7,38.54,34,27.84,21,56.45,40.94,82.42,64.31,15.5,14,32.35,25.85,51.4,34.54C-1,475.43,25.57,471,51.84,445.7c24.14-23.21,39.72-52.05,54.29-81.64,6.79-13.79,7.61-28.14,5.86-42.91-1-8.78-2.59-17.49-3.72-26.26-4.48-34.76.68-67.57,20.45-97.17,14.45-21.65,30.43-42.37,43.69-64.71,16-27,35.6-50.87,57.75-72.87C256.6,33.87,280.93,5.94,300-26.37c7.56-12.82,16.14-25.1,24.92-37.14,20.25-27.77,44.15-50.15,81-52.75,20.64-1.46,40.49.39,55,17,8.68,9.92,19.14,15.52,31.37,18.48,22.82,5.5,46.06,6.32,69.34,4.52,22.34-1.72,43.17-8.45,61.5-21.6,25.74-18.47,46.37-42.72,70.52-63h72.86c1.67,3,4.94,3.33,7.68,4.3,9.62,3.4,19.6,4.68,29.79,4.85,16.46.27,32.78-2.4,49.19-2.56,40.39-.37,79.79,6.36,116.8,22.47,44.72,19.49,89,39.94,135.61,54.68,35.33,11.17,65.22,30.55,90.34,57.66C1208.77-5.57,1222,8,1235.25,21.58c28.8,29.63,61.87,54.41,92.76,81.65,12.5,11,23.67,23.54,37.49,33.08,10.55,7.28,21,7.53,31.66.24,7.29-5,14.61-10,22-14.75,29.77-19.13,60.43-21,92-4.43,19.09,10.06,36.55,22.6,53.24,36.16,31,25.16,62.17,50.06,91.5,77.17V804.42c-10.15,2.16-20.31,4.12-30.77,3.13-13.48-1.28-24.25-6.67-29.75-19.92-9.84-23.73-25.45-42.7-46.35-57.66-28-20.07-51.51-21.18-80.64-2.85-21.85,13.75-41.61,30.37-62.49,45.45-12.11,8.74-23.72,18-33.93,29C1337.78,838.31,1325.92,883.59,1322,931.92Z" transform="translate(287.01 161.03)"/><path class="b" d="M693.62-160.88c-24.15,20.29-44.78,44.54-70.52,63C604.77-84.72,583.94-78,561.6-76.27c-23.28,1.8-46.52,1-69.34-4.52-12.23-3-22.69-8.56-31.37-18.48-14.53-16.6-34.38-18.45-55-17-36.82,2.6-60.72,25-81,52.75-8.78,12-17.36,24.32-24.92,37.14C280.93,5.94,256.6,33.87,230.16,60.14,208,82.14,188.45,106,172.41,133c-13.26,22.34-29.24,43.06-43.69,64.71-19.77,29.6-24.93,62.41-20.45,97.17,1.13,8.77,2.69,17.48,3.72,26.26,1.75,14.77.93,29.12-5.86,42.91C91.56,393.65,76,422.49,51.84,445.7,25.57,471-1,475.43-34.27,460.25c-19-8.69-35.9-20.59-51.4-34.54-26-23.37-54.58-43.33-82.42-64.31-13.71-10.32-26.94-21.11-38.54-34-15.08-16.78-32.8-30-56-33.69-8.06-1.3-16.14-.45-24.21-.76q0-223.86-.15-447.74c0-5.2,1-6.22,6.22-6.22Q206.43-160.79,693.62-160.88Z" transform="translate(287.01 161.03)"/><path class="b" d="M1655.9,230.7c-29.33-27.11-60.53-52-91.5-77.17-16.69-13.56-34.15-26.1-53.24-36.16-31.52-16.62-62.18-14.7-92,4.43-7.44,4.78-14.76,9.76-22,14.75-10.65,7.29-21.11,7-31.66-.24-13.82-9.54-25-22.06-37.49-33.08-30.89-27.24-64-52-92.76-81.65C1222,8,1208.77-5.57,1195.89-19.48c-25.12-27.11-55-46.49-90.34-57.66-46.6-14.74-90.89-35.19-135.61-54.68-37-16.11-76.41-22.84-116.8-22.47-16.41.16-32.73,2.83-49.19,2.56-10.19-.17-20.17-1.45-29.79-4.85-2.74-1-6-1.31-7.68-4.3q441.29,0,882.59-.14c5.69,0,7.07,1.26,7,7-.36,24.53-.15,49.07-.15,73.61-1.81.79-3.43,0-5.13-.5A233.08,233.08,0,0,0,1574.31-89c-12.37.7-24.68,2.56-35.37,9.67-8.92,5.93-11,14.1-6.21,23.61,5.48,10.91,15.19,17.41,25.18,23.38,27.35,16.37,55.76,21.49,85.91,7.59,4-1.86,7.1-5.82,12.08-5.58Z" transform="translate(287.01 161.03)"/><path class="b" d="M-286.86,440.16c10.93,3.5,18.9,11.38,26.95,18.85,36,33.39,60.39,73.93,75.07,120.8,10.79,34.45,23.11,68.43,39.48,100.76a407.19,407.19,0,0,0,23.23,39.92c25.94,39.45,42.42,82.59,48.55,129.35,3.79,28.87-3.16,56.17-16,82.08-63.75,0-127.49-.08-191.24.15-5.2,0-6.22-1-6.21-6.22Q-286.74,683-286.86,440.16Z" transform="translate(287.01 161.03)"/><path class="b" d="M1322,931.92c3.94-48.33,15.8-93.61,50-130.37,10.21-11,21.82-20.24,33.93-29,20.88-15.08,40.64-31.7,62.49-45.45C1497.52,708.79,1521,709.9,1549,730c20.9,15,36.51,33.93,46.35,57.66,5.5,13.25,16.27,18.64,29.75,19.92,10.46,1,20.62-1,30.77-3.13,0,40.48-.13,81,.15,121.43,0,5.2-1,6.22-6.23,6.21Q1485.9,931.78,1322,931.92Z" transform="translate(287.01 161.03)"/><path class="a" d="M1655.9-30.35c-5-.24-8.06,3.72-12.08,5.58-30.15,13.9-58.56,8.78-85.91-7.59-10-6-19.7-12.47-25.18-23.38-4.79-9.51-2.71-17.68,6.21-23.61,10.69-7.11,23-9,35.37-9.67a233.08,233.08,0,0,1,76.46,8.08c1.7.47,3.32,1.29,5.13.5Z" transform="translate(287.01 161.03)"/></svg>