<svg xmlns="http://www.w3.org/2000/svg" viewBox="0 0 1943.11 1093.11"><defs><style>.a{opacity:0;fill:#ffffff;}.b{fill:#ffffff;}</style></defs><title>1800f_00176</title><path class="a" d="M173-160.88h983.52c.87,1.23,1.7,2.5,2.63,3.68,38.84,48.9,72.52,101,98.74,157.81,13.68,29.62,26.53,59.82,46.73,85.74,41,52.59,89.86,97.13,142.8,137.37,30.18,22.94,63.56,33,101.75,27.25,17.63-2.68,35.59-5.16,53.6-2.55,7.69,1.12,17.16,1.11,19.46,10.17,2.36,9.27-6,14.26-12.24,19.24-11.48,9.22-24.45,16.19-37.31,23.22-18.64,10.19-35.48,22.25-47.62,40.18-11.8,17.42-22,35.75-31.87,54.26-34.08,63.87-69.85,126.69-115.46,183.25-24.36,30.2-50.75,58.51-83.68,79.73-25.63,16.51-53.24,25.8-84.18,19.81-19.45-3.77-26.05-14.46-22.17-34,3.32-16.7,10.24-32.25,14.89-48.53,7.3-25.5,4.84-49.6-9.52-72-19.78-30.93-46-55.71-76.11-76.22-17.4-11.85-35.7-11-53.13,1.31-12.07,8.5-22.06,19.28-32.48,29.58-4.5,4.46-9,9-14.66,11.91-8,4.13-14.26,2-18-6.08s-4.64-17-4.75-25.89c-.25-21,1-42-1.22-62.91-1.22-11.37-2.88-22.59-9.52-32.36-5.72-8.41-13.76-11.44-23.61-10.22-7.65.94-14.6,3.88-21.4,7.35-18.05,9.24-34.36,21.31-51.6,31.87-30.75,18.83-62.64,24.09-97.11,11.28q-43.35-16.11-87.23-30.76c-19-6.38-38.38-11.1-58.73-9.8-24,1.53-35.9,18.44-29,41.43a83.73,83.73,0,0,0,9.58,20.56c12,19.05,27.82,34.7,45.23,48.7,86.29,69.43,185.3,104.68,295.56,109.14,16.37.67,30.56,5.69,43.09,16.12,18.27,15.21,35.8,31.28,54.71,45.73,12.84,9.82,26.48,18.66,38,30.13,14.86,14.77,15.11,29.08.85,44.49-9.62,10.4-22.11,16-35.23,20-38.24,11.59-74,28.53-108.25,48.86-31,18.42-63.88,29.24-100.82,27.62-31.17-1.36-59.17,9.71-83.22,29.57-16.42,13.57-29.6,29.25-27.44,52.79,1.17,12.8,7.16,23.51,13.81,34H340c-3.57-3.44-8.26-4.7-12.68-6.43-28.57-11.17-58.59-15.27-88.86-17.9-35.26-3.07-70.35-6.9-105.17-13.65-39.57-7.66-65.19-27.79-74.62-69.05-12.85-56.18-37.85-107-75.42-151.32-19-22.38-39.35-42.55-66.76-54.86-15.15-6.81-30-14.68-43.35-24.86-11.81-9-12.66-16.84-2.5-27.74,6.72-7.21,13.91-14,20.9-21a159.33,159.33,0,0,0,39-62.5c15.11-44.58,15.67-89.84,4.79-135.26-9.74-40.71-33-70.68-72.91-85.83-13.45-5.11-20.67-14.73-24.91-27.51-7.16-21.57-7.27-43.77-5-66,2-19.86,5.08-39.59,5.27-59.62.26-27.07-6.21-53.12-11.29-79.4-3.4-17.58-4.9-35.38,2.67-52.21,16.59-36.88,43.05-64.68,79.89-81.64C-64.51-117-35.51-117.31-7.1-119.56c40.08-3.17,80.19-6,119.1-17C133.14-142.59,154.08-149.29,173-160.88Z" transform="translate(287.06 161.05)"/><path class="b" d="M760.41,931.92c-6.65-10.51-12.64-21.22-13.81-34-2.16-23.54,11-39.22,27.44-52.79,24.05-19.86,52.05-30.93,83.22-29.57,36.94,1.62,69.78-9.2,100.82-27.62,34.27-20.33,70-37.27,108.25-48.86,13.12-4,25.61-9.58,35.23-20,14.26-15.41,14-29.72-.85-44.49-11.54-11.47-25.18-20.31-38-30.13-18.91-14.45-36.44-30.52-54.71-45.73-12.53-10.43-26.72-15.45-43.09-16.12-110.26-4.46-209.27-39.71-295.56-109.14-17.41-14-33.19-29.65-45.23-48.7a83.73,83.73,0,0,1-9.58-20.56c-6.9-23,5-39.9,29-41.43,20.35-1.3,39.76,3.42,58.73,9.8q43.83,14.73,87.23,30.76c34.47,12.81,66.36,7.55,97.11-11.28,17.24-10.56,33.55-22.63,51.6-31.87,6.8-3.47,13.75-6.41,21.4-7.35,9.85-1.22,17.89,1.81,23.61,10.22,6.64,9.77,8.3,21,9.52,32.36,2.24,20.94,1,41.94,1.22,62.91.11,8.92.95,17.7,4.75,25.89s10.08,10.21,18,6.08c5.69-2.95,10.16-7.45,14.66-11.91,10.42-10.3,20.41-21.08,32.48-29.58,17.43-12.29,35.73-13.16,53.13-1.31,30.11,20.51,56.33,45.29,76.11,76.22,14.36,22.44,16.82,46.54,9.52,72-4.65,16.28-11.57,31.83-14.89,48.53-3.88,19.53,2.72,30.22,22.17,34,30.94,6,58.55-3.3,84.18-19.81,32.93-21.22,59.32-49.53,83.68-79.73,45.61-56.56,81.38-119.38,115.46-183.25,9.88-18.51,20.07-36.84,31.87-54.26,12.14-17.93,29-30,47.62-40.18,12.86-7,25.83-14,37.31-23.22,6.2-5,14.6-10,12.24-19.24-2.3-9.06-11.77-9-19.46-10.17-18-2.61-36-.13-53.6,2.55-38.19,5.79-71.57-4.31-101.75-27.25-52.94-40.24-101.82-84.78-142.8-137.37-20.2-25.92-33.05-56.12-46.73-85.74C1231.7-56.18,1198-108.3,1159.18-157.2c-.93-1.18-1.76-2.45-2.63-3.68h174.54c.36,2.23.53,4.51,1.1,6.68A278.83,278.83,0,0,0,1373-65.82c24,34.29,55.57,58.32,96.31,69.64a364.16,364.16,0,0,0,71.63,12c32.72,2.35,62-5.49,87.51-26.73,9.93-8.28,17.84-18.48,27.45-27V510c-13.81,27.37-26.29,55.25-29.42,86.2-2.45,24.17,5.06,49.69,29.42,58q0,135.86.14,271.69c0,5.19-1,6.21-6.22,6.21Q1205.11,931.82,760.41,931.92Z" transform="translate(287.06 161.05)"/><path class="b" d="M173-160.88c-18.95,11.59-39.89,18.29-61,24.28-38.91,11-79,13.87-119.1,17C-35.51-117.31-64.51-117-91-104.84c-36.84,17-63.3,44.76-79.89,81.64C-178.48-6.37-177,11.43-173.58,29c5.08,26.28,11.55,52.33,11.29,79.4-.19,20-3.26,39.76-5.27,59.62-2.25,22.26-2.14,44.46,5,66,4.24,12.78,11.46,22.4,24.91,27.51,39.87,15.15,63.17,45.12,72.91,85.83,10.88,45.42,10.32,90.68-4.79,135.26a159.33,159.33,0,0,1-39,62.5c-7,7-14.18,13.74-20.9,21-10.16,10.9-9.31,18.76,2.5,27.74,13.37,10.18,28.2,18,43.35,24.86,27.41,12.31,47.78,32.48,66.76,54.86C20.8,717.88,45.8,768.71,58.65,824.89c9.43,41.26,35.05,61.39,74.62,69.05,34.82,6.75,69.91,10.58,105.17,13.65,30.27,2.63,60.29,6.73,88.86,17.9,4.42,1.73,9.11,3,12.68,6.43q-309.73,0-619.47.14c-5.8,0-7.59-.67-7.57-7.18.31-79.11.2-158.22.2-237.32,1-3.65,2.37-7.24,2.87-10.95,2.69-19.81,8.8-38.34,19.7-55.22a33.78,33.78,0,0,0,3.61-8.33c2.53-8.1.31-12.3-7.53-15.43-6-2.4-12.31-2.65-18.65-2.66q0-374.66-.13-749.31c0-5.22.76-6.72,6.48-6.71Q-53.74-160.74,173-160.88Z" transform="translate(287.06 161.05)"/><path class="a" d="M1655.9-37.94c-9.61,8.53-17.52,18.73-27.45,27-25.51,21.24-54.79,29.08-87.51,26.73a364.16,364.16,0,0,1-71.63-12C1428.57-7.5,1397-31.53,1373-65.82a278.83,278.83,0,0,1-40.81-88.38c-.57-2.17-.74-4.45-1.1-6.68q159.38,0,318.73-.15c5.2,0,6.27,1,6.23,6.22C1655.77-115.86,1655.9-76.9,1655.9-37.94Z" transform="translate(287.06 161.05)"/><path class="a" d="M1655.9,654.16c-24.36-8.29-31.87-33.81-29.42-58,3.13-30.95,15.61-58.83,29.42-86.2Z" transform="translate(287.06 161.05)"/><path class="a" d="M-286.86,595c6.34,0,12.62.26,18.65,2.66,7.84,3.13,10.06,7.33,7.53,15.43a33.78,33.78,0,0,1-3.61,8.33c-10.9,16.88-17,35.41-19.7,55.22-.5,3.71-1.89,7.3-2.87,10.95Z" transform="translate(287.06 161.05)"/></svg>