<svg xmlns="http://www.w3.org/2000/svg" viewBox="0 0 1943.07 1093.11"><defs><style>.a{opacity:0;fill:#ffffff;}.b{fill:#ffffff;}</style></defs><title>1800f_00348</title><path class="a" d="M-286.86,913.7V667.82c28-11.68,54.75-26,81.15-41,33-18.68,63.89-40.87,97.15-59.15,24.68-13.56,50.5-23.24,79.23-22.64,20.68.43,39.43,7.85,58.16,15.69,25.38,10.64,50.18,23,77.33,28.82,28.56,6.15,48.05-2.69,62.32-28.15a104.5,104.5,0,0,0,6.19-13c4.67-12,9.59-24,13.5-36.22,11.63-36.47,35.93-61.11,69.61-78.07,30.42-15.33,62.5-22.83,96.29-24,32.12-1.16,64.24,0,96.35.21,18.82.14,35.86-5.16,51.93-14.43A202.07,202.07,0,0,0,542,365.47c32.58-31.61,54.5-70.07,71.33-111.69,7.58-18.74,14.6-37.66,13.64-58.58-1.54-33.48-18.44-53.59-50.47-58.24-13.65-2-27.23-.44-40.55,3.3-27.31,7.67-50.46,23.05-72.93,39.56-40.11,29.46-84.21,47.24-134.49,49.74a273.51,273.51,0,0,0-82.1,17c-16.73,6.24-33.78,12.25-52.22,11.62-10.91-.38-18.74-5.11-23.41-15.05-3.62-7.7-5-15.85-5.42-24.24-1.33-28.1,4-55.32,10.6-82.41,9.73-39.88,24.52-78.09,38.14-116.69,20.82-59,35.46-119.64,48.5-180.71H1092.8c-.92,11.12-.27,22.21.73,33.29,3,32.81,4.12,65.62-.87,98.35-4.79,31.46-16.18,59.05-42.54,79.36-16.19,12.47-31,26.77-45.07,41.71-15,16-28.28,32.89-34.21,54.7-8.94,32.89,3.48,76.2,52.84,80.27a205.65,205.65,0,0,0,55.07-3c28.3-5.32,52.48,1.3,73.16,21.32,7.45,7.21,15.39,13.9,22.95,21,13,12.21,27.11,22.75,44.27,28.56,29.44,10,58.8,20.22,88.67,28.86,45.22,13.08,91.67,20.79,137.36,31.8,21.14,5.09,42.16,10.53,62.61,18.07,22.52,8.3,37.28,23.4,43.53,46.82,2.87,10.77,4.91,21.67,6.82,32.63,6.88,39.43.4,76-23.34,108.85-7.26,10-14.19,20.34-21.86,30.06-37,46.91-66.84,97.5-82.75,155.65-9.91,36.21-18.72,72.52-16.92,110.44.7,14.69,2.48,29.27,9.8,42.48q9.2,16.57,27.35,11.72c7.92-2.13,14.88-6.24,21.6-10.82,24.74-16.86,46.83-37,68.9-57,35.35-32.1,73.46-60.27,115-83.8,0,54.87-.09,109.74.13,164.62,0,5.53-1,7-6.9,7q-705.12-.26-1410.24-.15H-183.65c-11.75-4-24-5.49-36.19-7.31C-242.23,921.26-264.92,919.81-286.86,913.7ZM946.54,499.53c41.39,1.52,81.62-8.62,119.59-28.42a904.07,904.07,0,0,0,82.4-48.32,176.94,176.94,0,0,0,32.24-27.48c14-15.2,15.5-32.09,7.64-50.58-7.66-18-21.89-25.52-40.67-26.33a85.08,85.08,0,0,0-46.51,11.41c-57,32.31-115.26,62.17-174.54,90-18.31,8.61-36.54,17.33-55.4,24.72-32.54,12.76-66.12,10.16-99.64,7.08-65.64-6-120.7,16.3-166.87,62C591.28,527,581.94,543.44,580,562.82c-1.53,15,6.17,21.76,21,19.43,15.5-2.43,31.08-3.47,46.72-4.41,19.89-1.19,39.85-2,59.41-6.52,29.79-6.93,55.13-22.49,78.84-40.88,31.33-24.29,65.39-39,106.06-34A406.88,406.88,0,0,0,946.54,499.53ZM537.36,690.4c-.34-4-.44-8.07-1.09-12a69.08,69.08,0,0,0-2.85-11.74c-4.91-14-13.67-20.33-28.57-20.15-24.88.31-45,11.93-63,27.84-10,8.82-17.86,19.24-21.75,32.25-5,16.61.37,31.46,15,40.68,14.51,9.11,30.54,10.48,46.76,6.75C516.6,746,536.7,727.29,537.36,690.4ZM195.61,894.25c-2.17-25.5-11.1-47.42-34-61.45-8-4.88-16.91-6.23-25-.75-9.13,6.16-11.15,15.64-9.57,26.15,2,13.4,8.55,24.7,16.6,35.19,8.67,11.27,18.19,21.54,32.42,26.15,5,1.62,8.7.52,12.36-2.86C195,910.54,195.59,902.61,195.61,894.25Z" transform="translate(287.03 161.04)"/><path class="b" d="M262.58-160.88c-13,61.07-27.68,121.73-48.5,180.71-13.62,38.6-28.41,76.81-38.14,116.69-6.6,27.09-11.93,54.31-10.6,82.41.39,8.39,1.8,16.54,5.42,24.24,4.67,9.94,12.5,14.67,23.41,15.05,18.44.63,35.49-5.38,52.22-11.62a273.51,273.51,0,0,1,82.1-17c50.28-2.5,94.38-20.28,134.49-49.74,22.47-16.51,45.62-31.89,72.93-39.56,13.32-3.74,26.9-5.27,40.55-3.3,32,4.65,48.93,24.76,50.47,58.24,1,20.92-6.06,39.84-13.64,58.58C596.46,295.4,574.54,333.86,542,365.47a202.07,202.07,0,0,1-39.61,30.4c-16.07,9.27-33.11,14.57-51.93,14.43-32.11-.22-64.23-1.37-96.35-.21-33.79,1.21-65.87,8.71-96.29,24-33.68,17-58,41.6-69.61,78.07-3.91,12.26-8.83,24.21-13.5,36.22a104.5,104.5,0,0,1-6.19,13c-14.27,25.46-33.76,34.3-62.32,28.15C79,583.72,54.21,571.39,28.83,560.75c-18.73-7.84-37.48-15.26-58.16-15.69-28.73-.6-54.55,9.08-79.23,22.64-33.26,18.28-64.14,40.47-97.15,59.15-26.4,14.94-53.11,29.29-81.15,41V106.25c1.71-1,2.88.13,4,1.09,21.47,18.43,43.25,36.51,60.3,59.46A108.67,108.67,0,0,0-208.95,182c15.71,14.42,30.7,13,44.12-3.65A133,133,0,0,0-149,153.52C-131.14,117.24-113.13,81-95.53,44.63c9.8-20.27,17.38-41.29,20.61-63.82,2.28-15.9,4.2-31.9,10.55-47.06,9.83-23.48,24-44.32,37.86-65.42,6.22-9.48,12.94-18.68,17.4-29.21Z" transform="translate(287.03 161.04)"/><path class="b" d="M1655.9,760.41c-41.54,23.53-79.65,51.7-115,83.8-22.07,20-44.16,40.16-68.9,57-6.72,4.58-13.68,8.69-21.6,10.82q-18.12,4.86-27.35-11.72c-7.32-13.21-9.1-27.79-9.8-42.48-1.8-37.92,7-74.23,16.92-110.44,15.91-58.15,45.77-108.74,82.75-155.65,7.67-9.72,14.6-20,21.86-30.06,23.74-32.86,30.22-69.42,23.34-108.85-1.91-11-3.95-21.86-6.82-32.63-6.25-23.42-21-38.52-43.53-46.82-20.45-7.54-41.47-13-62.61-18.07-45.69-11-92.14-18.72-137.36-31.8-29.87-8.64-59.23-18.88-88.67-28.86-17.16-5.81-31.23-16.35-44.27-28.56-7.56-7.09-15.5-13.78-22.95-21-20.68-20-44.86-26.64-73.16-21.32a205.65,205.65,0,0,1-55.07,3c-49.36-4.07-61.78-47.38-52.84-80.27,5.93-21.81,19.22-38.75,34.21-54.7,14.05-14.94,28.88-29.24,45.07-41.71,26.36-20.31,37.75-47.9,42.54-79.36,5-32.73,3.84-65.54.87-98.35-1-11.08-1.65-22.17-.73-33.29h211c-.39,3,1.43,5.3,2.8,7.66,27.65,47.59,56.4,94.53,82.14,143.23,19.72,37.33,50.63,59.65,92.81,65.12,20.5,2.66,41.22-1.81,48.8-27.38,11.29-38,18.68-76.55,15.7-116.32-1.77-23.68-5.62-47.17-18.46-68-.8-1.3-1.39-2.71-.68-4.28,41,0,82,.12,122.94-.15,5.21,0,6.22,1,6.22,6.22q-.26,286.49-.14,573Z" transform="translate(287.03 161.04)"/><path class="a" d="M-9.11-160.88c-4.46,10.53-11.18,19.73-17.4,29.21-13.85,21.1-28,41.94-37.86,65.42-6.35,15.16-8.27,31.16-10.55,47.06C-78.15,3.34-85.73,24.36-95.53,44.63-113.13,81-131.14,117.24-149,153.52a133,133,0,0,1-15.82,24.84c-13.42,16.61-28.41,18.07-44.12,3.65a108.67,108.67,0,0,1-13.62-15.21c-17.05-23-38.83-41-60.3-59.46-1.11-1-2.28-2.13-4-1.09q0-130.73-.12-261.46c0-4.75,1.09-5.8,5.81-5.79Q-145.13-160.76-9.11-160.88Z" transform="translate(287.03 161.04)"/><path class="a" d="M1526.88-160.88c-.71,1.57-.12,3,.68,4.28,12.84,20.86,16.69,44.35,18.46,68,3,39.77-4.41,78.3-15.7,116.32-7.58,25.57-28.3,30-48.8,27.38-42.18-5.47-73.09-27.79-92.81-65.12-25.74-48.7-54.49-95.64-82.14-143.23-1.37-2.36-3.19-4.63-2.8-7.66Z" transform="translate(287.03 161.04)"/><path class="b" d="M-286.86,913.7c21.94,6.11,44.63,7.56,67,10.91,12.18,1.82,24.44,3.31,36.19,7.31-32.68,0-65.36-.15-98,.15-4.83,0-5.64-1.34-5.25-5.55S-286.86,918-286.86,913.7Z" transform="translate(287.03 161.04)"/><path class="b" d="M946.54,499.53A406.88,406.88,0,0,1,892,496.41c-40.67-4.94-74.73,9.74-106.06,34-23.71,18.39-49.05,33.95-78.84,40.88-19.56,4.55-39.52,5.33-59.41,6.52-15.64.94-31.22,2-46.72,4.41-14.85,2.33-22.55-4.44-21-19.43,2-19.38,11.32-35.87,24.82-49.22,46.17-45.65,101.23-68,166.87-62,33.52,3.08,67.1,5.68,99.64-7.08,18.86-7.39,37.09-16.11,55.4-24.72,59.28-27.87,117.55-57.73,174.54-90a85.08,85.08,0,0,1,46.51-11.41c18.78.81,33,8.33,40.67,26.33,7.86,18.49,6.41,35.38-7.64,50.58a176.94,176.94,0,0,1-32.24,27.48,904.07,904.07,0,0,1-82.4,48.32C1028.16,490.91,987.93,501.05,946.54,499.53Z" transform="translate(287.03 161.04)"/><path class="b" d="M537.36,690.4C536.7,727.29,516.6,746,481.91,754c-16.22,3.73-32.25,2.36-46.76-6.75-14.68-9.22-20-24.07-15-40.68,3.89-13,11.75-23.43,21.75-32.25,18-15.91,38.12-27.53,63-27.84,14.9-.18,23.66,6.16,28.57,20.15a69.08,69.08,0,0,1,2.85,11.74C536.92,682.33,537,686.38,537.36,690.4Z" transform="translate(287.03 161.04)"/><path class="b" d="M195.61,894.25c0,8.36-.57,16.29-7.22,22.43-3.66,3.38-7.32,4.48-12.36,2.86-14.23-4.61-23.75-14.88-32.42-26.15C135.56,882.9,129,871.6,127,858.2c-1.58-10.51.44-20,9.57-26.15,8.12-5.48,17.06-4.13,25,.75C184.51,846.83,193.44,868.75,195.61,894.25Z" transform="translate(287.03 161.04)"/></svg>