<svg xmlns="http://www.w3.org/2000/svg" viewBox="0 0 1366.31 768.26"><defs><style>.a{opacity:0;fill:#ffffff;}.b{fill:#ffffff;}</style></defs><title>1800f_00068</title><path class="a" d="M1367.52,481.14v74.37c-18.32,4.86-36,11.54-53.8,18-20.42,7.45-40.84,14.31-63.1,14.38-11.8,0-23.55,3-34.63,7.44-15.68,6.28-30,14.55-39.24,29.5-8,13-6.5,24.53,4.24,33a29,29,0,0,0,16.77,6.33c16,.48,22.57,10.39,25.78,24,6.35,26.91,5.29,54.11,2.82,81.34H109.28c-12.61-9.86-12.54-16.53.31-26.52,1.79-1.39,3.68-2.66,5.59-3.91a160.37,160.37,0,0,1,27-13.76c25.27-10.4,51.79-17.15,77.35-26.73,63-23.6,133.69-82.22,133.13-183.27a499,499,0,0,1,5.29-73.27c2.32-16.22,4.18-32.53,1.82-49.05-3.47-24.29-18.42-32.13-39.81-20.23a91,91,0,0,0-12.56,8.45C294.11,391.85,282.29,404,271,416.67c-8.38,9.45-16.31,19.33-25.68,27.86-15.49,14.11-30.75,14-45.29-1C179,421.78,174.62,395,178.3,366.17c2.18-17.14,8.06-33.36,13.44-49.67A157.3,157.3,0,0,0,199.93,275c1.1-22.24-6.3-42-20.22-58.91C153,183.67,130.65,148,102.91,116.4c-7.17-8.16-14.07-16.59-19.51-26.07-8.05-14-3.3-22.78,13-23.72a101.45,101.45,0,0,1,21.17,1,209.42,209.42,0,0,1,31.62,7.69c40.53,12.78,79.21,9.62,115.66-13.36,18.92-11.93,36.4-25.57,51.61-42,5.3-5.72,10.8-11.33,14.41-18.4H922.81c2,2.22,3.91,4.61,6.13,6.63,14.57,13.26,29.56,26.08,43.78,39.72,50.46,48.39,96.34,100.52,135,159.17,30.37,46.1,57.59,93.23,71,147.26,5,19.91,11.23,39.3,20.7,57.6,11.58,22.37,28.39,37.32,54,42,19.09,3.51,37.85,8.81,56.74,13.35Q1338.86,474.18,1367.52,481.14ZM748.81,705.52a162.59,162.59,0,0,0,61.6-8.86c8.59-3,16.94-6.6,23.44-13.39,7.2-7.54,8.26-15,3.27-24.12S823.36,645.31,813.93,642c-20.38-7.14-41.16-6.66-62-2.32-19.71,4.11-38.55,10.5-53.87,24.27-6.82,6.13-13.8,13.27-11.25,23.35,2.68,10.55,12.8,12.87,21.87,15.09C721.52,705.54,734.67,705.94,748.81,705.52Z" transform="translate(-1.34 -1.39)"/><path class="b" d="M330.88,1.52c-3.61,7.07-9.11,12.68-14.41,18.4-15.21,16.43-32.69,30.07-51.61,42-36.45,23-75.13,26.14-115.66,13.36a209.42,209.42,0,0,0-31.62-7.69,101.45,101.45,0,0,0-21.17-1c-16.31.94-21.06,9.69-13,23.72,5.44,9.48,12.34,17.91,19.51,26.07,27.74,31.57,50.12,67.27,76.8,99.68C193.63,233,201,252.75,199.93,275a157.3,157.3,0,0,1-8.19,41.51c-5.38,16.31-11.26,32.53-13.44,49.67-3.68,28.81.67,55.61,21.77,77.38,14.54,15,29.8,15.09,45.29,1,9.37-8.53,17.3-18.41,25.68-27.86,11.25-12.7,23.07-24.82,36.33-35.44a91,91,0,0,1,12.56-8.45c21.39-11.9,36.34-4.06,39.81,20.23,2.36,16.52.5,32.83-1.82,49.05a499,499,0,0,0-5.29,73.27c.56,101-70.13,159.67-133.13,183.27-25.56,9.58-52.08,16.33-77.35,26.73a160.37,160.37,0,0,0-27,13.76c-1.91,1.25-3.8,2.52-5.59,3.91-12.85,10-12.92,16.66-.31,26.52-34.31,0-68.61-.11-102.92.13-4.35,0-5-1.08-4.95-5.13.16-51.45.11-102.91.11-154.37,13.83-14.36,26.58-29.67,39.59-44.76,21.42-24.86,24-51.62,10.51-81C41.9,463.33,33,441.85,23.51,420.65c-5.69-12.7-12.29-24.91-22-35.13V242.85c15.59-20.11,15.59-43.26,0-65.27,0-56.58.12-113.16-.18-169.73,0-5.79,1.58-6.46,6.73-6.45Q169.47,1.64,330.88,1.52Z" transform="translate(-1.34 -1.39)"/><path class="b" d="M1367.52,481.14q-28.66-6.93-57.34-13.86c-18.89-4.54-37.65-9.84-56.74-13.35-25.63-4.71-42.44-19.66-54-42-9.47-18.3-15.75-37.69-20.7-57.6-13.44-54-40.66-101.16-71-147.26-38.63-58.65-84.51-110.78-135-159.17C958.5,34.23,943.51,21.41,928.94,8.15c-2.22-2-4.1-4.41-6.13-6.63h337c7,14.29,18,25.57,28.7,37,9.34,10,19.27,19.61,25.78,31.71,13.83,25.69,18.89,51.71-.68,77.19-5.19,6.75-3.24,13.45-.72,20.09,7.05,18.57,19.89,33.29,33,47.63,6.42,7,12.67,14.45,21.64,18.59Z" transform="translate(-1.34 -1.39)"/><path class="b" d="M1226.36,769.52c2.47-27.23,3.53-54.43-2.82-81.34-3.21-13.62-9.77-23.53-25.78-24a29,29,0,0,1-16.77-6.33c-10.74-8.45-12.22-20-4.24-33,9.19-15,23.56-23.22,39.24-29.5,11.08-4.44,22.83-7.41,34.63-7.44,22.26-.07,42.68-6.93,63.1-14.38,17.77-6.49,35.48-13.17,53.8-18q0,104.34.12,208.69c0,4.53-.91,5.47-5.44,5.44C1316.93,769.43,1271.64,769.52,1226.36,769.52Z" transform="translate(-1.34 -1.39)"/><path class="a" d="M1367.52,233.74c-9-4.14-15.22-11.59-21.64-18.59-13.15-14.34-26-29.06-33-47.63-2.52-6.64-4.47-13.34.72-20.09,19.57-25.48,14.51-51.5.68-77.19-6.51-12.1-16.44-21.75-25.78-31.71-10.73-11.44-21.65-22.72-28.7-37,34.15,0,68.3.11,102.44-.13,4.54,0,5.45.92,5.44,5.44Q1367.39,120.29,1367.52,233.74Z" transform="translate(-1.34 -1.39)"/><path class="a" d="M1.52,385.52c9.7,10.22,16.3,22.43,22,35.13,9.49,21.2,18.39,42.68,28.11,63.77,13.54,29.35,10.91,56.11-10.51,81-13,15.09-25.76,30.4-39.59,44.76Z" transform="translate(-1.34 -1.39)"/><path class="a" d="M1.52,177.58c15.59,22,15.59,45.16,0,65.27Z" transform="translate(-1.34 -1.39)"/><path class="b" d="M748.81,705.52c-14.14.42-27.29,0-40.1-3.12-9.07-2.22-19.19-4.54-21.87-15.09-2.55-10.08,4.43-17.22,11.25-23.35,15.32-13.77,34.16-20.16,53.87-24.27,20.81-4.34,41.59-4.82,62,2.32,9.43,3.3,18.12,7.86,23.19,17.14s3.93,16.58-3.27,24.12c-6.5,6.79-14.85,10.36-23.44,13.39A162.59,162.59,0,0,1,748.81,705.52Z" transform="translate(-1.34 -1.39)"/></svg>