<svg xmlns="http://www.w3.org/2000/svg" viewBox="0 0 1943.07 1093.09"><defs><style>.a{opacity:0;fill:#ffffff;}.b{fill:#ffffff;}</style></defs><title>1800f_00298</title><path class="a" d="M42.5,931.92q-161.44,0-322.87.14c-5.35,0-6.67-.95-6.65-6.54q.34-126.57.16-253.14c1.57-2.56,3.29-5,4.69-7.7,14.37-27.31,26.13-55.79,37.84-84.3,9.6-23.39,19-47,38.7-64.3,15.28-13.46,33.46-22.52,50.86-32.74,29-17,54.66-37.29,68.5-69.35,24.25-56.15-11.6-113.06-75.6-112.77-18.68.08-37.32,1-56-.64-18.29-1.66-35.87-5.81-51.69-15.57-5.94-3.67-11.57-7.86-17.34-11.81q0-214-.15-428c0-5.2,1-6.23,6.22-6.22q133.56.32,267.13.15c22.77,7.89,45.53,7.1,68.3,0h1408.5a371.17,371.17,0,0,1,9.82,42.05c5.3,32.86,3.07,64.19-14.9,93.65-11.31,18.54-19.74,38.73-27.59,59-9.51,24.6-10.66,48.34,7.32,70q7.5,9,15.57,17.59c11.65,12.29,24.31,23.64,35.16,36.69,20.9,25.13,33.32,53.09,27.66,86.61-5.08,30.07-24.8,55.19-64,48.29-17.7-3.12-33.88-10-49.54-18.37-52.27-27.95-89.33-67.28-97-128.92-3.42-27.39-14.53-51.47-34-71.28-28-28.49-50.88-60.81-72.8-94a539.32,539.32,0,0,0-43.92-58c-12.18-13.91-24.73-27.47-42-35.47q-24.17-11.2-45.89,4.07c-10,7.05-18.07,16.16-25.91,25.45-8,9.47-15.62,19.27-25,27.41-11.68,10.09-21.92,11.4-35.6,4.34-4.92-2.55-9.52-5.74-14.19-8.76C949.57-71.32,931.68-75.07,912-70.31c-13.88,3.36-26.81,9-39.64,15-22,10.27-44,20.6-68,25.69-19.31,4.09-38.57,5.84-57.21-3-11.76-5.56-21.81-13.64-31.67-22-11.36-9.62-22.15-20.05-35.74-26.69-15.48-7.56-28-5.46-40,6.71s-18.58,27.18-23.31,42.93C592,49.86,578.68,132.72,588.16,218.15c2,18.12,5.61,22.42,23.73,25.61,10,1.75,20,3.27,29.93,4.83,43,6.73,86.1,11.77,129.81,7.66,35-3.28,69.61-9.2,104.09-15.79,33-6.31,64.19-4.15,93.5,14.11a216.62,216.62,0,0,0,34,16.7c38.59,15.46,73.6,36.79,106.42,62.11,43.73,33.73,89,65,139.67,87.84,27.68,12.47,56.23,22.74,84.3,34.23,12.64,5.18,25.31,10.49,35.3,20.26,13.51,13.24,11.27,30.26-5.05,39.94-7.77,4.62-16.35,6.9-25.17,7.82-21.86,2.26-43.78,4-65.65,6.15-27.65,2.68-49.58,13.67-59.63,41.62-5.46,15.22-14.32,28.42-24.63,40.67-10.09,12-20.54,23.68-30.78,35.55-19.67,22.8-39.48,45.53-52.21,73.24-9.5,20.67-14.42,42-8.38,64.76,7.4,27.88,29.25,44.33,56.16,41.62,14.14-1.43,26.56-8,38.58-15.06,38.8-22.69,79.46-40.92,122.64-53.69,57.44-17,112.65-39.05,163.32-71.74,23.21-15,48.11-26.93,75.4-32.91,20.16-4.41,36.89.72,49.46,17.86,10.63,14.5,17.46,30.74,22.44,47.8,8.29,28.36,13.54,57.6,24.31,85.25,1.79,4.6,2.33,9.82,6.17,13.49,0,35.93-.14,71.85.15,107.77,0,5.2-1,6.22-6.23,6.21q-245.49-.25-491-.14H652.64c3-13.27,7.55-26.12,10-39.57,4.52-24.88-.27-46.48-19.75-64-10-9-19.11-18.78-28.76-28.09-34.64-33.42-75.32-52.38-124.11-54.1-37.84-1.33-75.71-2.87-113.32-8.32-68.15-9.88-132.66-29-189.33-70-19.25-13.92-39.37-26.7-61.83-35.09-19-7.08-38-14-58.7-13.44-19.85.54-31.25,10.4-35.29,29.82-1.73,8.28-1.41,16.6-1.49,24.91a122.11,122.11,0,0,1-11.51,51.33C9.37,745-3.08,762.47-14.72,780.51c-10,15.54-19.7,31.32-23.82,49.64-3.22,14.28-.93,27.46,8.37,39.33,8.1,10.34,18.6,17.74,29,25.33C14.3,906.1,30.75,916.24,42.5,931.92ZM432,27c-17.83-.69-35.29,4.6-52.76,9.76C364,41.25,353.28,51.11,346.29,65.1c-6.16,12.31-9.49,25.57-12.31,39-6.84,32.37-11.78,65.22-24.59,96.06-8.53,20.55-17.15,41.06-25.51,61.68C272,291.13,265.21,322.15,254.76,352,241.4,390.08,222.64,425,192.81,453.12c-9.6,9.05-21.14,15.55-31.22,24-16.77,14-28.56,35-17.27,59.17,24.34,52.05,55.3,71.34,108.45,70.2,27.26-.58,52.84-8.7,76.68-21.67,52.68-28.64,99.16-65.43,139.8-109.38,32.64-35.31,55.25-77.17,75.41-120.41,13.78-29.56,27.48-59.17,35.91-90.86,4-15.1,2.46-28.9-8.35-41.06-30.25-34-46.41-74.82-56.14-118.61a145.16,145.16,0,0,0-9.47-28.77C492.18,44,468.91,25.62,432,27Z" transform="translate(287.02 161.03)"/><path class="b" d="M1655.9,818.08c-3.84-3.67-4.38-8.89-6.17-13.49-10.77-27.65-16-56.89-24.31-85.25-5-17.06-11.81-33.3-22.44-47.8-12.57-17.14-29.3-22.27-49.46-17.86-27.29,6-52.19,17.94-75.4,32.91-50.67,32.69-105.88,54.75-163.32,71.74-43.18,12.77-83.84,31-122.64,53.69-12,7-24.44,13.63-38.58,15.06-26.91,2.71-48.76-13.74-56.16-41.62-6-22.74-1.12-44.09,8.38-64.76,12.73-27.71,32.54-50.44,52.21-73.24,10.24-11.87,20.69-23.56,30.78-35.55,10.31-12.25,19.17-25.45,24.63-40.67,10-28,32-38.94,59.63-41.62,21.87-2.12,43.79-3.89,65.65-6.15,8.82-.92,17.4-3.2,25.17-7.82,16.32-9.68,18.56-26.7,5.05-39.94-10-9.77-22.66-15.08-35.3-20.26-28.07-11.49-56.62-21.76-84.3-34.23-50.65-22.83-95.94-54.11-139.67-87.84-32.82-25.32-67.83-46.65-106.42-62.11a216.62,216.62,0,0,1-34-16.7c-29.31-18.26-60.51-20.42-93.5-14.11-34.48,6.59-69.07,12.51-104.09,15.79-43.71,4.11-86.79-.93-129.81-7.66-10-1.56-20-3.08-29.93-4.83-18.12-3.19-21.71-7.49-23.73-25.61C578.68,132.72,592,49.86,616.48-31.67c4.73-15.75,11.41-30.89,23.31-42.93s24.54-14.27,40-6.71c13.59,6.64,24.38,17.07,35.74,26.69,9.86,8.35,19.91,16.43,31.67,22,18.64,8.82,37.9,7.07,57.21,3,24-5.09,45.94-15.42,68-25.69,12.83-6,25.76-11.61,39.64-15,19.66-4.76,37.55-1,54.28,9.82,4.67,3,9.27,6.21,14.19,8.76,13.68,7.06,23.92,5.75,35.6-4.34,9.42-8.14,17.05-17.94,25-27.41,7.84-9.29,15.89-18.4,25.91-25.45q21.74-15.27,45.89-4.07c17.25,8,29.8,21.56,42,35.47a539.32,539.32,0,0,1,43.92,58c21.92,33.17,44.83,65.49,72.8,94,19.45,19.81,30.56,43.89,34,71.28,7.7,61.64,44.76,101,97,128.92,15.66,8.38,31.84,15.25,49.54,18.37,39.2,6.9,58.92-18.22,64-48.29,5.66-33.52-6.76-61.48-27.66-86.61-10.85-13-23.51-24.4-35.16-36.69q-8.07-8.53-15.57-17.59c-18-21.68-16.83-45.42-7.32-70,7.85-20.31,16.28-40.5,27.59-59,18-29.46,20.2-60.79,14.9-93.65a371.17,371.17,0,0,0-9.82-42c62.23,0,124.46.08,186.68-.15,5.2,0,6.22,1,6.22,6.22Q1655.8,331.64,1655.9,818.08Z" transform="translate(287.02 161.03)"/><path class="b" d="M42.5,931.92C30.75,916.24,14.3,906.1-1.18,894.81c-10.39-7.59-20.89-15-29-25.33-9.3-11.87-11.59-25.05-8.37-39.33,4.12-18.32,13.79-34.1,23.82-49.64,11.64-18,24.09-35.55,33.26-55.12a122.11,122.11,0,0,0,11.51-51.33c.08-8.31-.24-16.63,1.49-24.91,4-19.42,15.44-29.28,35.29-29.82,20.71-.56,39.75,6.36,58.7,13.44,22.46,8.39,42.58,21.17,61.83,35.09,56.67,41,121.18,60.11,189.33,70,37.61,5.45,75.48,7,113.32,8.32,48.79,1.72,89.47,20.68,124.11,54.1,9.65,9.31,18.8,19.14,28.76,28.09,19.48,17.51,24.27,39.11,19.75,64-2.44,13.45-7,26.3-10,39.57H464.44c-1.62-3.44-5.15-4.71-7.91-6.8C420.2,897.58,380.25,878,334.92,870.47c-18.12-3-35.82-2.4-51.55,8.69-18.8,13.25-30.17,32.09-39,52.76Z" transform="translate(287.02 161.03)"/><path class="b" d="M-286.86,273.2c5.77,3.95,11.4,8.14,17.34,11.81,15.82,9.76,33.4,13.91,51.69,15.57,18.64,1.69,37.28.72,56,.64,64-.29,99.85,56.62,75.6,112.77-13.84,32.06-39.49,52.33-68.5,69.35-17.4,10.22-35.58,19.28-50.86,32.74-19.67,17.33-29.1,40.91-38.7,64.3-11.71,28.51-23.47,57-37.84,84.3-1.4,2.65-3.12,5.14-4.69,7.7Z" transform="translate(287.02 161.03)"/><path class="a" d="M244.36,931.92c8.84-20.67,20.21-39.51,39-52.76,15.73-11.09,33.43-11.69,51.55-8.69,45.33,7.5,85.28,27.11,121.61,54.65,2.76,2.09,6.29,3.36,7.91,6.8Z" transform="translate(287.02 161.03)"/><path class="b" d="M54.64-160.88c-22.77,7.1-45.53,7.89-68.3,0Z" transform="translate(287.02 161.03)"/><path class="b" d="M432,27c36.94-1.38,60.21,17,74.64,48.72a145.16,145.16,0,0,1,9.47,28.77c9.73,43.79,25.89,84.56,56.14,118.61,10.81,12.16,12.37,26,8.35,41.06-8.43,31.69-22.13,61.3-35.91,90.86-20.16,43.24-42.77,85.1-75.41,120.41-40.64,43.95-87.12,80.74-139.8,109.38-23.84,13-49.42,21.09-76.68,21.67-53.15,1.14-84.11-18.15-108.45-70.2-11.29-24.14.5-45.14,17.27-59.17,10.08-8.44,21.62-14.94,31.22-24,29.83-28.1,48.59-63,61.95-101.16,10.45-29.81,17.22-60.83,29.12-90.17,8.36-20.62,17-41.13,25.51-61.68,12.81-30.84,17.75-63.69,24.59-96.06,2.82-13.38,6.15-26.64,12.31-38.95,7-14,17.69-23.85,32.92-28.34C396.68,31.6,414.14,26.31,432,27Z" transform="translate(287.02 161.03)"/></svg>