<svg xmlns="http://www.w3.org/2000/svg" viewBox="0 0 1943.05 1093.14"><defs><style>.a{opacity:0;fill:#ffffff;}.b{fill:#ffffff;}</style></defs><title>1800f_00139</title><path class="a" d="M-286.86,327.84V270.17c1.24-.21,2.49-.38,3.72-.64,42.51-9.08,84.81-19.62,128.08-24.17,34.67-3.64,69.57-5.06,104.38-7.33,79-5.14,157.89-10.84,237-13.06,39-1.1,73.91-11.94,105.15-35.48,16.33-12.3,32.89-24.42,51.49-33.36,19.07-9.16,38.6-11.17,59-5.35A176.38,176.38,0,0,1,443.53,169c44.61,26.5,91.4,48.91,136.88,73.75,43.73,23.87,89.78,29,138.1,23.55,35.09-4,70-10.28,105.62-7.19,30.87,2.68,61.62-1.16,92.41-2.56,56.29-2.57,110.86,4.28,162.74,28.33,28.78,13.35,42.49,34.53,43,66,.37,24.76-6,48.08-12.3,71.45-6.39,23.54-2.56,44.89,10.76,65.09A900.7,900.7,0,0,0,1175,561.36c14.09,17.26,28.69,34.11,46.54,47.65,21.44,16.27,45.08,25.58,72.27,18.21,36.79-10,57.8-36,67.31-71.44,9-33.58,5.46-67.74,1-101.71-3.1-23.79-8.76-47.27-9.68-71.33-1.57-41.17,8.17-80.36,22.67-118.38,15.39-40.38,32.13-80.26,47.91-120.5,4.8-12.21,8.94-24.78,8.34-38.26-.48-11-6.52-17.16-17.6-17.84a68.17,68.17,0,0,0-21.77,2.4c-20.43,5.45-39.16,14.91-58,24.19-27,13.31-54,26.58-83.54,33.61-6.56,1.57-14.13,3.46-19.5-2-5.65-5.77-2.08-12.9-.11-19.34,1.4-4.59,3.22-9,4.93-13.53,4-10.38,8.34-20.6,10.72-31.55,2.91-13.42.58-25.37-7.61-36.55-10.56-14.42-24.47-25.5-36.69-38.26-14.82-15.48-28.31-31.83-31.48-54.09-1.65-11.57-.2-23.23-.61-34.85-.56-15.65-8.59-23.44-24.16-24.12-15.1-.66-29.47,2.79-44.06,6-61.07,13.56-120.36,33-179.18,53.9a242.4,242.4,0,0,1-85.5,14c-32.64-.49-64.93-5.38-97.27-9.42-30.67-3.83-61.39-5.93-92.16-.7-22.79,3.89-44.32,12.16-66.28,18.93-26,8-52.25,14.56-79.75,9.84-28.13-4.82-48.28-19.08-56.91-47.73-10-33.1-10.81-66.11-1.72-99.42h912.19a15.88,15.88,0,0,0,2.89,2.33c21.56,10.57,40.07,25.39,58.07,41,23,19.93,46.83,38.66,74,52.65,21.39,11,44.37,18.36,66.14,28.52,17.59,8.21,33,18.91,41.32,37.27,15.56,34.33,33.38,67.55,49.88,101.43,2.63,5.4,4.15,11.37,8.2,16V400.7a10.44,10.44,0,0,0-1.92,2.15c-21.42,44.64-43.25,89.07-62.73,134.66-36.78,86-47.56,174.67-27.71,266.17,10.09,46.47,22.31,92.67,57.45,128.24H-276.24a10.89,10.89,0,0,1,1-2.76c17.05-23.52,33.71-47.33,52.36-69.66,17.46-20.9,32.26-43.44,39.46-70.13,8.48-31.44,4.08-62.62-2.25-93.77-11.07-54.47-13.4-109.19-3.92-164.15,2.57-14.91,7.37-29.54,7.26-44.78-.4-55.68-25.07-100-65.67-136.26C-259.27,340.33-272,332.11-286.86,327.84Zm1107,266.59c36.7.11,64.18-31.56,56.31-67.76C869,492.3,865,458.2,870,423.2a47.38,47.38,0,0,0-3.54-24.49c-2.42-5.91-5.55-11.52-12.83-12.57-8.07-1.17-13.48,3-17.69,9.26-5.61,8.3-8.22,17.81-10.74,27.33-4.65,17.54-7.75,35.54-15.08,52.31-8.18,18.72-18.29,36.61-24.36,56.26-3.6,11.69-6.12,23.57-4.32,35.79C784,584.63,798.1,594.36,820.12,594.43ZM104.44,796.63c7.44,0,14.66-.32,21.63-3.29,10-4.25,15.38-11.15,14.31-19.78-.63-5.08-3.23-9.37-6.72-13.16-15-16.24-34.46-23.13-55.48-26.83-13.5-2.38-26.44-1.34-39.07,4.75C23.87,745.69,25,763.85,35.79,772.6,55.93,789,79.36,795,104.44,796.63Z" transform="translate(287.01 161.03)"/><path class="b" d="M443.19-160.88c-9.09,33.31-8.26,66.32,1.72,99.42,8.63,28.65,28.78,42.91,56.91,47.73,27.5,4.72,53.76-1.83,79.75-9.84,22-6.77,43.49-15,66.28-18.93,30.77-5.23,61.49-3.13,92.16.7,32.34,4,64.63,8.93,97.27,9.42a242.4,242.4,0,0,0,85.5-14c58.82-20.87,118.11-40.34,179.18-53.9,14.59-3.24,29-6.69,44.06-6,15.57.68,23.6,8.47,24.16,24.12.41,11.62-1,23.28.61,34.85,3.17,22.26,16.66,38.61,31.48,54.09C1214.49,19.47,1228.4,30.55,1239,45c8.19,11.18,10.52,23.13,7.61,36.55-2.38,11-6.74,21.17-10.72,31.55-1.71,4.48-3.53,8.94-4.93,13.53-2,6.44-5.54,13.57.11,19.34,5.37,5.48,12.94,3.59,19.5,2,29.5-7,56.54-20.3,83.54-33.61,18.83-9.28,37.56-18.74,58-24.19a68.17,68.17,0,0,1,21.77-2.4c11.08.68,17.12,6.81,17.6,17.84.6,13.48-3.54,26.05-8.34,38.26-15.78,40.24-32.52,80.12-47.91,120.5-14.5,38-24.24,77.21-22.67,118.38.92,24.06,6.58,47.54,9.68,71.33,4.43,34,8,68.13-1,101.71-9.51,35.43-30.52,61.47-67.31,71.44-27.19,7.37-50.83-1.94-72.27-18.21-17.85-13.54-32.45-30.39-46.54-47.65a900.7,900.7,0,0,1-54.34-73.94c-13.32-20.2-17.15-41.55-10.76-65.09,6.34-23.37,12.67-46.69,12.3-71.45-.47-31.5-14.18-52.68-43-66C1027.4,260.8,972.83,254,916.54,256.52c-30.79,1.4-61.54,5.24-92.41,2.56-35.62-3.09-70.53,3.2-105.62,7.19-48.32,5.5-94.37.32-138.1-23.55-45.48-24.84-92.27-47.25-136.88-73.75a176.38,176.38,0,0,0-41.61-18.19c-20.38-5.82-39.91-3.81-59,5.35-18.6,8.94-35.16,21.06-51.49,33.36C260.21,213,225.31,223.87,186.3,225c-79.09,2.22-158,7.92-237,13.06-34.81,2.27-69.71,3.69-104.38,7.33-43.27,4.55-85.57,15.09-128.08,24.17-1.23.26-2.48.43-3.72.64V9.11c42.59-15.78,84.71-13.82,126.46,3.31C-149,17.12-137.82,22.57-125.84,26c26.74,7.62,47.68.27,63.27-22.63,6.29-9.22,10.74-19.45,15.33-29.59C-39.65-43-33.1-60.3-24.16-76.48c7.24-13.1,17-15.48,29.52-7.14,5.54,3.69,10,8.44,14.27,13.49C36.9-49.56,47.06-25.76,53.45.23c10,40.7,46.05,59.84,85.4,45.5,25.31-9.23,46.23-25.62,66.08-43.51C221.87-13,229.56-32,228.68-54.49c-.74-18.68-2.07-37.33-3.34-56a172.49,172.49,0,0,1,3.84-50.41Z" transform="translate(287.01 161.03)"/><path class="a" d="M229.18-160.88a172.49,172.49,0,0,0-3.84,50.41c1.27,18.65,2.6,37.3,3.34,56C229.56-32,221.87-13,204.93,2.22c-19.85,17.89-40.77,34.28-66.08,43.51C99.5,60.07,63.44,40.93,53.45.23c-6.39-26-16.55-49.79-33.82-70.36-4.23-5.05-8.73-9.8-14.27-13.49-12.53-8.34-22.28-6-29.52,7.14C-33.1-60.3-39.65-43-47.24-26.24c-4.59,10.14-9,20.37-15.33,29.59C-78.16,26.25-99.1,33.6-125.84,26c-12-3.41-23.12-8.86-34.56-13.56C-202.15-4.71-244.27-6.67-286.86,9.11c0-54.64.09-109.28-.15-163.92,0-5.2,1-6.22,6.22-6.22Q-25.81-160.76,229.18-160.88Z" transform="translate(287.01 161.03)"/><path class="b" d="M-286.86,327.84c14.84,4.27,27.59,12.49,38.86,22.57,40.6,36.29,65.27,80.58,65.67,136.26.11,15.24-4.69,29.87-7.26,44.78-9.48,55-7.15,109.68,3.92,164.15,6.33,31.15,10.73,62.33,2.25,93.77-7.2,26.69-22,49.23-39.46,70.13-18.65,22.33-35.31,46.14-52.36,69.66a10.89,10.89,0,0,0-1,2.76c-10.62,0-10.62,0-10.62-10.63Z" transform="translate(287.01 161.03)"/><path class="b" d="M1621,931.92c-35.14-35.57-47.36-81.77-57.45-128.24-19.85-91.5-9.07-180.15,27.71-266.17,19.48-45.59,41.31-90,62.73-134.66a10.44,10.44,0,0,1,1.92-2.15q0,262.58.14,525.15c0,5.19-1,6.51-6.22,6.22C1640.23,931.53,1630.6,931.92,1621,931.92Z" transform="translate(287.01 161.03)"/><path class="b" d="M1655.9,118.39c-4.05-4.68-5.57-10.65-8.2-16-16.5-33.88-34.32-67.1-49.88-101.43-8.32-18.36-23.73-29.06-41.32-37.27-21.77-10.16-44.75-17.52-66.14-28.52-27.19-14-51.06-32.72-74-52.65-18-15.63-36.51-30.45-58.07-41a15.88,15.88,0,0,1-2.89-2.33q147.22,0,294.44-.15c5.2,0,6.23,1,6.22,6.22Q1655.74-18.21,1655.9,118.39Z" transform="translate(287.01 161.03)"/><path class="b" d="M820.12,594.43c-22-.07-36.13-9.8-38.7-27.34-1.8-12.22.72-24.1,4.32-35.79,6.07-19.65,16.18-37.54,24.36-56.26,7.33-16.77,10.43-34.77,15.08-52.31,2.52-9.52,5.13-19,10.74-27.33,4.21-6.24,9.62-10.43,17.69-9.26,7.28,1.05,10.41,6.66,12.83,12.57A47.38,47.38,0,0,1,870,423.2c-5,35-1,69.1,6.45,103.47C884.3,562.87,856.82,594.54,820.12,594.43Z" transform="translate(287.01 161.03)"/><path class="b" d="M104.44,796.63C79.36,795,55.93,789,35.79,772.6c-10.75-8.75-11.92-26.91,3.32-34.28,12.63-6.09,25.57-7.13,39.07-4.75,21,3.7,40.5,10.59,55.48,26.83,3.49,3.79,6.09,8.08,6.72,13.16,1.07,8.63-4.32,15.53-14.31,19.78C119.1,796.31,111.88,796.62,104.44,796.63Z" transform="translate(287.01 161.03)"/></svg>