<svg xmlns="http://www.w3.org/2000/svg" viewBox="0 0 1366.29 768.29"><defs><style>.a{opacity:0;fill:#ffffff;}.b{fill:#ffffff;}</style></defs><title>1800f_00047</title><path class="a" d="M1367.52,418.91v69.82c-2.45-.58-4.42.79-6.48,1.64-16.13,6.63-32.38,13-48.3,20.07-25.86,11.49-51.77,22.92-75.27,39.06-22.93,15.75-37.52,36.55-43.29,64.18a687.57,687.57,0,0,0-14.87,155.84H330.88c-18.3-16.66-39.26-29.21-61.62-39.5-33.66-15.48-69.07-25.75-104.86-34.88a149,149,0,0,1-18-5.74c-5.19-2-5.51-5.86-1.3-9.25a105.94,105.94,0,0,1,13.19-8.87c40.25-23.46,79.38-48.55,114.63-79.18,17.95-15.6,30.37-34.74,32-59.12a323.58,323.58,0,0,0-3.81-76.32c-4.79-27.79-7.33-55.46-2.59-83.64,3.34-19.86,1.6-39.81-4.14-59.26-4.7-15.93-12.31-29.07-30.92-31.06-9.24-1-18.09,1.11-26.74,4.17C225,291,213.63,296,201.4,298.34s-21.14-2-26.92-13.14a65.92,65.92,0,0,1-6.09-18.67c-5.38-29.33-11.16-58.48-21.09-86.77-13.14-37.41-21.79-76.31-37.68-112.83-7.77-17.85-4.77-22.68,15.14-24.39,26.88-2.3,53.06-7.35,77.82-18.34C215.93,18.28,229.2,12,239.81,1.52H901.56c3.33,5.06,6.48,10.24,10,15.15C932.2,45.34,958.79,68,986.49,89.27c46.8,36,89.44,75.7,122.66,125,12.49,18.56,22.72,37.49,25.08,60.12,1.47,14.06,4,28,5.56,42.05,6.92,60.36,43.06,91.67,95.26,101.86,24.55,4.79,49.41,2.29,74.14,1.37C1328.63,419,1348.06,417.87,1367.52,418.91ZM845.81,526.77c26.87.08,42.54-11.45,45.68-30.38,2.58-15.57-5.61-26.83-16.84-35.9-16.82-13.58-35.61-24-55.63-32.14a66.63,66.63,0,0,0-25.83-5.26c-6.91.05-13.85.43-20.05,3.36-26.85,12.71-55.8,15.15-84.67,18.6-16,1.91-32.34,2.8-47.4,9.41-11.65,5.12-12.16,11.75-1.62,19.08,11.88,8.26,25.61,11.86,39.44,15a235.32,235.32,0,0,0,41.3,5.31c28,1.26,53.71,11.34,79.65,20.58C816.49,520.33,833.15,526.42,845.81,526.77Zm-89.46,55.91a48.81,48.81,0,0,0-30.27,14.54c-5,5.19-5,11.63-.11,16.83a134.12,134.12,0,0,0,11.43,11.07c13.84,11.46,27.82,22.82,46.14,26.43,11.55,2.28,21-5.74,20.1-17.36-1.24-15.32-6.94-29-18-39.86C778.19,587,769.21,582.65,756.35,582.68Z" transform="translate(-1.37 -1.37)"/><path class="b" d="M239.81,1.52C229.2,12,215.93,18.28,202.58,24.2c-24.76,11-50.94,16-77.82,18.34-19.91,1.71-22.91,6.54-15.14,24.39,15.89,36.52,24.54,75.42,37.68,112.83,9.93,28.29,15.71,57.44,21.09,86.77a65.92,65.92,0,0,0,6.09,18.67c5.78,11.14,14.65,15.53,26.92,13.14S225,291,236.69,286.87c8.65-3.06,17.5-5.15,26.74-4.17,18.61,2,26.22,15.13,30.92,31.06,5.74,19.45,7.48,39.4,4.14,59.26-4.74,28.18-2.2,55.85,2.59,83.64A323.58,323.58,0,0,1,304.89,533c-1.61,24.38-14,43.52-32,59.12-35.25,30.63-74.38,55.72-114.63,79.18a105.94,105.94,0,0,0-13.19,8.87c-4.21,3.39-3.89,7.2,1.3,9.25a149,149,0,0,0,18,5.74c35.79,9.13,71.2,19.4,104.86,34.88,22.36,10.29,43.32,22.84,61.62,39.5q-161.65,0-323.29.14c-5.2,0-6.22-1-6.22-6.22q.25-377.93,0-755.85c0-5.2,1-6.23,6.22-6.22Q123.71,1.7,239.81,1.52Z" transform="translate(-1.37 -1.37)"/><path class="b" d="M1367.52,418.91c-19.46-1-38.89.06-58.33.79-24.73.92-49.59,3.42-74.14-1.37-52.2-10.19-88.34-41.5-95.26-101.86-1.61-14-4.09-28-5.56-42.05-2.36-22.63-12.59-41.56-25.08-60.12-33.22-49.33-75.86-89.08-122.66-125C958.79,68,932.2,45.34,911.57,16.67c-3.53-4.91-6.68-10.09-10-15.15H1246.1c1.39,3.51,4.74,5.1,7.38,7.35,12.1,10.31,24.53,20.24,35.86,31.46,13.25,13.11,18,28.69,15.17,47-3.56,23.24-6.18,46.53-2.18,70.06,3,17.78,6.93,35.21,17.24,50.45,10.12,15,22.55,18.86,39.35,12.55,2.77-1,5.34-3.07,8.6-1.81Z" transform="translate(-1.37 -1.37)"/><path class="b" d="M1179.31,769.52a687.57,687.57,0,0,1,14.87-155.84c5.77-27.63,20.36-48.43,43.29-64.18,23.5-16.14,49.41-27.57,75.27-39.06,15.92-7.08,32.17-13.44,48.3-20.07,2.06-.85,4-2.22,6.48-1.64q0,137.35.14,274.71c0,5.2-1,6.24-6.21,6.22C1300.74,769.43,1240,769.52,1179.31,769.52Z" transform="translate(-1.37 -1.37)"/><path class="a" d="M1367.52,218.56c-3.26-1.26-5.83.77-8.6,1.81-16.8,6.31-29.23,2.4-39.35-12.55-10.31-15.24-14.21-32.67-17.24-50.45-4-23.53-1.38-46.82,2.18-70.06,2.8-18.29-1.92-33.87-15.17-47-11.33-11.22-23.76-21.15-35.86-31.46-2.64-2.25-6-3.84-7.38-7.35,38.7,0,77.4.1,116.1-.13,4.54,0,5.46.91,5.44,5.44Q1367.37,112.7,1367.52,218.56Z" transform="translate(-1.37 -1.37)"/><path class="b" d="M845.81,526.77c-12.66-.35-29.32-6.44-46-12.38-25.94-9.24-51.65-19.32-79.65-20.58a235.32,235.32,0,0,1-41.3-5.31c-13.83-3.1-27.56-6.7-39.44-15-10.54-7.33-10-14,1.62-19.08,15.06-6.61,31.43-7.5,47.4-9.41,28.87-3.45,57.82-5.89,84.67-18.6,6.2-2.93,13.14-3.31,20.05-3.36A66.63,66.63,0,0,1,819,428.35c20,8.12,38.81,18.56,55.63,32.14,11.23,9.07,19.42,20.33,16.84,35.9C888.35,515.32,872.68,526.85,845.81,526.77Z" transform="translate(-1.37 -1.37)"/><path class="b" d="M756.35,582.68c12.86,0,21.84,4.32,29.28,11.65,11.07,10.9,16.77,24.54,18,39.86.94,11.62-8.55,19.64-20.1,17.36-18.32-3.61-32.3-15-46.14-26.43A134.12,134.12,0,0,1,726,614.05c-4.92-5.2-4.93-11.64.11-16.83A48.81,48.81,0,0,1,756.35,582.68Z" transform="translate(-1.37 -1.37)"/></svg>