<svg xmlns="http://www.w3.org/2000/svg" viewBox="0 0 1943.1 1093.14"><defs><style>.a{opacity:0;fill:#ffffff;}.b{fill:#ffffff;}</style></defs><title>1800f_00399</title><path class="a" d="M-286.86,283.83q0-218.85-.19-437.69c0-6.53,1.8-7.17,7.58-7.16q617.84.22,1235.67.14c-1,3.25.89,5.89,1.94,8.66,12,31.58,28.4,60.9,46.43,89.35,32.29,50.94,69.21,97.9,118.14,134.13,44.12,32.67,86.62,67.31,128,103.38,32.8,28.58,65.9,56.8,93.11,91.09a321.54,321.54,0,0,1,30.58,45.14c16,29.22,14.89,60.25,10.4,91.67-5.34,37.37-24.32,65.23-58.21,82.63Q1305,496.26,1283.79,508c-16.83,9.35-33.11,19.49-46.27,33.93-21.78,23.9-12.15,49.57,7.16,64.56,17.5,13.58,38.58,17.26,59.91,18.67,35,2.33,69.57-3.22,104.21-6.84,18.91-2,37.56-5.59,54.61-14.52,16.14-8.45,26.6-21.05,28.92-39.93,1.76-14.41.44-28.79,1.13-43.16,1.28-26.55,12.5-47.52,34.55-62.53a147.85,147.85,0,0,1,32.41-16.36c30.85-11.35,62.91-14.33,95.48-13.84V640.5c-10.52,11.22-16.9,25-23.13,38.7-17.52,38.59-34.71,77.34-51.89,116.1-20.25,45.66-42.75,90.31-61.58,136.62H-7.59c-4.49-10.47-12.75-18-20.84-25.38-15.4-14.07-34.3-22.07-53.49-29.43-18.39-7.06-37.32-12.82-54.6-22.57-22-12.39-28.38-28.88-20.7-52.95a111.3,111.3,0,0,1,16.83-32.09c20.74-28.25,45.83-52.56,70.52-77.21,13.6-13.58,27.54-26.78,38.85-42.47,20.92-29,31.51-62,37-96.81,3.65-23,15.28-40.34,35.41-51.89A173.19,173.19,0,0,1,59.71,492c28.88-12.33,58.8-21.74,88.92-30.36,34.15-9.77,65.6-23.54,88.73-52.05a315.48,315.48,0,0,0,45.08-75.21c9.64-22.59,16.91-46,23.34-69.68C317,223.48,335,185.05,352.51,146.35,368.6,110.72,380,74,375,34.1c-2.76-22.32-7.76-43.79-21.15-62.48-12.34-17.25-29.29-21.06-47.62-10.4A382.5,382.5,0,0,0,248,3.4c-37,32.08-78.69,54.9-126.44,66C82,78.62,43.32,89.75,7,108.45c-28.45,14.65-59.11,18.62-90.69,15.72-18.38-1.69-36.71-3.64-55.22-3-27.21,1-49.09,12.31-66,33.52-20,25-34.44,53.51-51,80.72C-265.78,251.81-274.91,268.72-286.86,283.83ZM397.33,653c-4.81,0-9.62-.23-14.41,0-19.48,1.09-38.95,2.36-56.67,11.8-13.1,7-21.89,17.2-22.59,32.65a259.86,259.86,0,0,0,.11,28c1.09,17.13,8.28,31,23.22,40.36,20.09,12.58,42.56,18.42,65.37,23.21,39.94,8.38,80.73,9.46,121.15,13.75,31.22,3.31,60.24,12.63,85.36,32.29,9.4,7.35,17,16.58,26.17,24.16,24.44,20.33,52.8,22.26,81.76,14.11,51.36-14.46,99.07-37.8,145.33-64,19-10.78,36.71-24,48.73-42.58,18.44-28.44,23.24-60.79,20.87-93.8-1.64-22.87-12.9-32.77-35.72-36.33-13.84-2.15-27.17,1.12-40.29,5-24.7,7.36-48.74,16.76-73.51,24C737.06,676,702.89,689.48,667,697.33c-33.25,7.26-65.71,7-97.18-7.4-13.32-6.1-26.06-13.46-40.15-17.87C486.56,658.58,442.21,654,397.33,653Z" transform="translate(287.05 161.02)"/><path class="b" d="M-286.86,283.83c11.95-15.11,21.08-32,31-48.4,16.51-27.21,31-55.69,51-80.72,16.92-21.21,38.8-32.54,66-33.52,18.51-.66,36.84,1.29,55.22,3,31.58,2.9,62.24-1.07,90.69-15.72,36.28-18.7,75-29.83,114.49-39C169.28,58.3,211,35.48,248,3.4a382.5,382.5,0,0,1,58.29-42.18c18.33-10.66,35.28-6.85,47.62,10.4C367.27-9.69,372.27,11.78,375,34.1,380,74,368.6,110.72,352.51,146.35,335,185.05,317,223.48,305.78,264.67c-6.43,23.66-13.7,47.09-23.34,69.68a315.48,315.48,0,0,1-45.08,75.21c-23.13,28.51-54.58,42.28-88.73,52.05-30.12,8.62-60,18-88.92,30.36a173.19,173.19,0,0,0-18.28,9.15C21.3,512.67,9.67,530,6,553c-5.53,34.82-16.12,67.8-37,96.81-11.31,15.69-25.25,28.89-38.85,42.47-24.69,24.65-49.78,49-70.52,77.21a111.3,111.3,0,0,0-16.83,32.09c-7.68,24.07-1.27,40.56,20.7,52.95,17.28,9.75,36.21,15.51,54.6,22.57,19.19,7.36,38.09,15.36,53.49,29.43,8.09,7.41,16.35,14.91,20.84,25.38-90.74,0-181.48-.09-272.22.19-6.47,0-7.2-1.71-7.2-7.55Q-286.74,604.19-286.86,283.83Z" transform="translate(287.05 161.02)"/><path class="b" d="M1655.9,428c-32.57-.49-64.63,2.49-95.48,13.84A147.85,147.85,0,0,0,1528,458.22c-22,15-33.27,36-34.55,62.53-.69,14.37.63,28.75-1.13,43.16-2.32,18.88-12.78,31.48-28.92,39.93-17.05,8.93-35.7,12.54-54.61,14.52-34.64,3.62-69.22,9.17-104.21,6.84-21.33-1.41-42.41-5.09-59.91-18.67-19.31-15-28.94-40.66-7.16-64.56,13.16-14.44,29.44-24.58,46.27-33.93q21.2-11.79,42.8-22.87c33.89-17.4,52.87-45.26,58.21-82.63,4.49-31.42,5.64-62.45-10.4-91.67a321.54,321.54,0,0,0-30.58-45.14c-27.21-34.29-60.31-62.51-93.11-91.09-41.38-36.07-83.88-70.71-128-103.38C1073.78,35,1036.86-11.93,1004.57-62.87c-18-28.45-34.43-57.77-46.43-89.35-1-2.77-2.92-5.41-1.94-8.66q346.44,0,692.87-.14c5.69,0,7,1.28,7,7Q1655.79,137,1655.9,428Z" transform="translate(287.05 161.02)"/><path class="b" d="M1519.3,931.92c18.83-46.31,41.33-91,61.58-136.62,17.18-38.76,34.37-77.51,51.89-116.1,6.23-13.72,12.61-27.48,23.13-38.7q0,142.68.14,285.35c0,5.19-1,6.25-6.22,6.22C1606.32,931.8,1562.81,931.92,1519.3,931.92Z" transform="translate(287.05 161.02)"/><path class="b" d="M397.33,653c44.88,1,89.23,5.57,132.32,19,14.09,4.41,26.83,11.77,40.15,17.87,31.47,14.41,63.93,14.66,97.18,7.4,35.91-7.85,70.08-21.34,105.23-31.6,24.77-7.23,48.81-16.63,73.51-24,13.12-3.91,26.45-7.18,40.29-5,22.82,3.56,34.08,13.46,35.72,36.33,2.37,33-2.43,65.36-20.87,93.8-12,18.56-29.71,31.8-48.73,42.58-46.26,26.21-94,49.55-145.33,64-29,8.15-57.32,6.22-81.76-14.11-9.12-7.58-16.77-16.81-26.17-24.16-25.12-19.66-54.14-29-85.36-32.29-40.42-4.29-81.21-5.37-121.15-13.75-22.81-4.79-45.28-10.63-65.37-23.21-14.94-9.36-22.13-23.23-23.22-40.36a259.86,259.86,0,0,1-.11-28c.7-15.45,9.49-25.67,22.59-32.65,17.72-9.44,37.19-10.71,56.67-11.8C387.71,652.78,392.52,653,397.33,653Z" transform="translate(287.05 161.02)"/></svg>