<?xml version="1.0" encoding="utf-8"?>
<!-- Generator: Adobe Illustrator 22.1.0, SVG Export Plug-In . SVG Version: 6.00 Build 0)  -->
<svg version="1.1" id="レイヤー_1" xmlns="http://www.w3.org/2000/svg" xmlns:xlink="http://www.w3.org/1999/xlink" x="0px"
	 y="0px" viewBox="0 0 1367.2 769.1" style="enable-background:new 0 0 1367.2 769.1;" xml:space="preserve">
<style type="text/css">
	.st0{opacity:0;opacity:0;fill:#ffffff;}
	.st1{fill:#ffffff;}
	.st2{opacity:0;fill:#ffffff;}
</style>
<title>1800f_00020</title>
<path class="st0" d="M1367,356.1v80.4c-2.5-0.8-4.4,0.9-6.3,1.9c-39.6,21.4-77.9,44.9-113.8,72.2c-21.2,16.2-38.8,35.6-48.8,60.7
	c-11.3,28.4-21,57.4-30.2,86.5c-4.9,15.4-7,31.5-9.1,47.5c-2.7,21.1-2.5,42.3-2.8,63.5H348.5c-0.1-1-0.4-1.9-0.8-2.9
	c-13.6-24.3-30.4-45.9-52-63.6c-34.5-28.2-74.2-45.7-117.1-56.6c-11-2.8-22.1-5.6-32.8-9.2c-13.2-4.5-14.3-10.9-3.5-19.5
	c6-4.7,12.1-9.1,18.5-13.1c19.7-12.7,40.9-23.3,58.9-38.7c18.8-15.9,29.6-35.5,28.9-60.7c-0.4-15.7-0.7-31.3-0.8-47
	c-0.3-33.3,8.7-66,26-94.5c12.1-20.2,23.2-40.9,31.1-63.2c6.5-18,14.3-35.8,14.7-55.4c0.4-18.5-8.7-24.3-25.5-16.6
	c-1.8,0.9-3.6,1.9-5.3,3c-10.2,6.2-19,14.2-27.9,22.1c-18.8,16.6-37.5,33.2-59.4,45.6c-8.7,4.9-17.9,8.5-28.2,6.4
	c-17.6-3.5-31.9-20.4-33-38.8c-0.4-9.4,0.5-18.8,2.7-27.9c6.7-29.2,6.6-58.1-2.8-86.8c-6.5-19.9-13.6-39.7-20-59.7
	c-3.7-11.5-6.6-23.3-11.9-34.3c-8.2-17-13-19.5-31.7-16.8c-14.4,2.1-28.7,1.2-43-0.9C20.1,37.9,10.9,28.7,1,20.7
	C1,14.1-1.6,5,1.7,1.7S14.1,1,20.7,1h54.7c7.1,7.1,14,14.3,21.4,21.2c2.9,2.7,6.8,4.8,11,3.9c22.2-4.4,42.9-12.5,61.7-25.1h765
	c-0.6,2,0.8,3.3,1.7,4.8c24.5,38.9,49.7,77.4,77.1,114.4c21.3,28.8,43.7,57.1,56.1,91.4c4.9,13.5,12.1,24.7,24.3,32.8
	c11,7.4,16,18.6,17.1,31.6c2.3,26.5,1,53,0.5,79.5c-0.2,8.4-0.1,16.7,2.1,24.8c2.4,8.9,6.9,10.9,15.3,6.9c7.3-3.5,13.6-8.7,20-13.6
	c34.4-26.3,73.7-39.5,116.4-42.8c25.5-2,49.4,5.8,73,14.7C1347.6,349,1356.8,353.9,1367,356.1z M821.5,491.1
	c8.1,0.2,16.2-0.7,24-2.8c22.6-6,28-20,14.2-38.6c-10-13.6-20.5-27-31.2-40c-20-24.2-45.2-36.3-77.3-32.5
	c-21.8,2.6-42.1,10.4-62.9,16.6c-17.1,5.1-30.2,16-40.2,30.7c-11.9,17.4-6.8,33.3,12.8,41.2c11.1,4.5,22.6,5.1,34.3,4.5
	c22.5-1.1,45,2,66.3,9.3C780.9,486.1,800.8,490.7,821.5,491.1L821.5,491.1z M705,604.8c19.8-1,39-7,54.7-21.7
	c11.6-10.9,11.3-25-0.3-35.7c-3.9-3.6-8.6-6.3-13.7-7.8c-35.9-11-56.5,2-73.9,34.8c-5.6,10.6-1,20.6,9.8,25.8
	C688.6,603.5,696.1,604.5,705,604.8z M1052.4,585c23.7,0.1,54.6-21.1,63.1-43.2c5.2-13.5-0.3-26.2-13.8-31.5
	c-8.9-3.5-18.1-3.5-26.4,1.3c-19.9,11.7-34.1,28.3-40.6,50.7C1030.8,576.3,1038,584.9,1052.4,585z M1003,329.9
	c0.1,2.5-0.6,5.6,2.3,6.7s6-0.5,8.4-2.4c9.1-6.9,16.2-16.1,20.6-26.6c1.3-3.2,2.8-6.4,2.8-10.1c0-5.2-2.2-6.9-7.2-5
	C1018.7,296.9,1003.3,318.2,1003,329.9z"/>
<path class="st1" d="M1,20.7c10,8,19.1,17.2,32.8,19.3c14.3,2.2,28.6,3,43,0.9c18.7-2.7,23.5-0.1,31.7,16.8
	c5.3,11,8.2,22.8,11.9,34.3c6.4,20,13.5,39.7,20,59.7c9.4,28.6,9.5,57.6,2.8,86.8c-2.2,9.1-3.1,18.5-2.7,27.8
	c1.1,18.4,15.4,35.2,33,38.8c10.3,2.1,19.5-1.5,28.2-6.4c21.9-12.4,40.7-29,59.4-45.6c8.9-7.9,17.7-15.9,27.9-22.1
	c1.7-1.1,3.5-2.1,5.3-3c16.8-7.7,26-1.9,25.5,16.6c-0.4,19.6-8.3,37.4-14.7,55.4c-8,22.2-19,43-31.1,63.2
	c-17.3,28.5-26.3,61.2-26,94.5c0.1,15.7,0.3,31.3,0.8,47c0.7,25.2-10.2,44.8-28.9,60.7c-18,15.3-39.2,25.9-58.9,38.7
	c-6.4,4.1-12.6,8.4-18.5,13.1c-10.8,8.7-9.8,15,3.5,19.5c10.8,3.6,21.8,6.4,32.8,9.2c42.9,10.9,82.6,28.4,117.2,56.6
	c21.6,17.7,38.5,39.3,52,63.6c0.4,0.9,0.6,1.9,0.8,2.9c-113.8,0-227.7,0-341.5,0.1c-5.2,0-6.2-1-6.2-6.2C1,515.5,1,268.1,1,20.7z"/>
<path class="st1" d="M1367,356.1c-10.2-2.3-19.4-7.1-29-10.7c-23.6-8.9-47.5-16.6-73-14.7c-42.7,3.3-82,16.5-116.4,42.8
	c-6.4,4.9-12.7,10.1-20,13.6c-8.4,4-12.9,2-15.3-6.9c-2.2-8.1-2.2-16.5-2.1-24.8c0.6-26.5,1.8-53-0.5-79.5
	c-1.1-13-6.1-24.2-17.1-31.6c-12.2-8.1-19.4-19.3-24.3-32.8c-12.4-34.3-34.8-62.6-56.1-91.4c-27.3-37-52.6-75.5-77.1-114.4
	c-0.9-1.4-2.3-2.8-1.7-4.8h82c0.8,3.2,1.5,6.4,2.3,9.5c4.1,14.4,14.5,21.4,29.5,22.3c17,1,36-16.8,41-31.8h156.2
	c1.5,1.3,3.1,2.6,4.7,3.7c26.2,16.1,40.6,38.3,41.5,70.2c1.1,34.2,16.7,62.6,41.5,85.8c9.8,9.1,20.4,17.3,33.7,20.9V356.1z"/>
<path class="st1" d="M1156,769c0.3-21.2,0.1-42.4,2.8-63.5c2.1-16,4.3-32.1,9.1-47.5c9.2-29.1,18.8-58.1,30.2-86.5
	c10-25.1,27.6-44.5,48.8-60.7c35.8-27.4,74.2-50.8,113.8-72.2c1.9-1,3.8-2.7,6.3-1.9c0,108.8,0,217.6,0.1,326.3c0,5.2-1,6.2-6.2,6.2
	C1292.6,768.9,1224.3,769,1156,769z"/>
<path class="st2" d="M1367,181.6c-13.3-3.7-23.9-11.8-33.7-20.9c-24.8-23.2-40.5-51.6-41.5-85.8c-1-31.8-15.3-54.1-41.5-70.2
	c-1.6-1.2-3.2-2.4-4.7-3.7h116.9c0.8,7.2,1.4,14.5,4.6,21.2L1367,181.6z"/>
<path class="st2" d="M1089.2,0.9c-5,15.1-23.9,32.9-41,31.8c-15-0.9-25.4-7.9-29.5-22.3c-0.9-3.1-1.6-6.3-2.3-9.5L1089.2,0.9z"/>
<path class="st1" d="M169.4,0.9c-18.8,12.6-39.5,20.7-61.7,25.1c-4.3,0.9-8.1-1.2-11-3.9C89.4,15.3,82.4,8,75.3,0.9H169.4z"/>
<path class="st1" d="M1367,22.2c-3.2-6.7-3.8-14-4.6-21.2c2.5,0.1,5.3-1,4.7,3.8C1366.4,10.5,1367,16.4,1367,22.2z"/>
<path class="st1" d="M821.5,491.1c-20.7-0.4-40.6-5-60-11.6c-21.3-7.3-43.8-10.5-66.4-9.4c-11.7,0.5-23.2,0-34.3-4.5
	c-19.6-7.9-24.6-23.8-12.8-41.2c10-14.7,23.1-25.6,40.2-30.7c20.8-6.2,41.1-14,62.9-16.6c32.1-3.8,57.3,8.2,77.3,32.5
	c10.8,13,21.2,26.4,31.2,40c13.7,18.6,8.4,32.6-14.2,38.6C837.7,490.3,829.6,491.3,821.5,491.1z"/>
<path class="st1" d="M705,604.8c-8.9-0.3-16.4-1.3-23.3-4.7c-10.8-5.3-15.4-15.3-9.8-25.8c17.3-32.8,38-45.7,73.9-34.8
	c5.1,1.5,9.8,4.2,13.7,7.8c11.7,10.7,12,24.8,0.3,35.7C744.1,597.8,724.8,603.8,705,604.8z"/>
<path class="st1" d="M1052.4,585c-14.5-0.1-21.7-8.7-17.6-22.7c6.5-22.4,20.7-39,40.6-50.7c8.3-4.8,17.5-4.8,26.4-1.3
	c13.5,5.2,18.9,18,13.8,31.5C1107.1,564,1076.2,585.1,1052.4,585z"/>
<path class="st1" d="M1003,329.9c0.3-11.7,15.6-33,26.8-37.4c5-1.9,7.1-0.2,7.2,5c0,3.7-1.4,6.9-2.8,10.1
	c-4.4,10.5-11.5,19.7-20.6,26.6c-2.4,1.8-5.3,3.5-8.4,2.4S1003.2,332.4,1003,329.9z"/>
</svg>
