<svg xmlns="http://www.w3.org/2000/svg" viewBox="0 0 1943.06 1093.07"><defs><style>.a{opacity:0;fill:#ffffff;}.b{fill:#ffffff;}</style></defs><title>1800f_00361</title><path class="a" d="M1655.9,661.75v97.14c-12.37,6.65-24.17,14.35-37.25,19.71-19.38,7.94-39,15.51-57.85,24.52-35.48,16.91-69.51,36.23-94.74,67.55-14.68,18.22-26.14,38.26-31.76,61.25H757.37c-.54-4.72-1.58-9.26-.8-14.24,2.17-13.93,9.49-25,18.79-34.79,20.63-21.79,45.42-37.82,72.63-50,24.69-11,49.39-11.62,73.15,3.34a133.88,133.88,0,0,1,27.5,23.68A179.39,179.39,0,0,0,995,896.32c37.75,20.84,59.25,20.21,90.26-5.64,16.76-14,35.62-24.79,54.91-35,27.66-14.6,57.15-24.54,86.62-34.37,35.91-12,56.17-35.85,60.58-73.51,3.61-30.82,8.2-61.53,11.51-92.38,3.19-29.8-7.88-53.38-33.32-69.82-13.56-8.76-28.57-13.85-44-18-36.67-9.87-73.24-5.88-109.77.65-53.24,9.52-106.38,19.37-160.7,21.09a277.44,277.44,0,0,0-83.84,16.1c-46.13,16.3-89.9,36.64-125.35,71.69-24.68,24.41-44.74,52.33-61.4,82.51C654.35,807,616,840.68,567.17,862c-34.66,15.12-67.29,9.73-95.19-17.17-4-3.86-8.18-7.59-11.82-11.78-35.37-40.7-83.33-55.91-133.85-64.49-33.48-5.69-51.42,13.65-47.42,47.39,2.05,17.28,7.77,33.42,14.13,49.4,8.52,21.39,13.48,43.41,12.05,66.59H-276.24c-10.62,0-10.62,0-10.62-10.63,2.05.17,3.17-1.34,4.44-2.52,25.63-23.75,53.32-45,81.42-65.63,33.26-24.46,68.5-44.83,109.86-52.53,14.89-2.78,29.66-6.26,44.36-9.91,29-7.19,50.78-24,65.8-49.79,15.2-26.14,22.43-55.09,30-83.93,7.35-28,3.85-55-6.92-81.53-21.43-52.92-56.91-95.52-99.71-131.79-51.11-43.31-98.68-89.75-140.09-142.48-15.81-20.13-33.15-38.88-55.78-51.79-10.46-6-21.41-8.92-33.38-5q0-199.57-.15-399.17c0-5.2,1-6.22,6.22-6.22q258.78.27,517.56.15a41.5,41.5,0,0,1-10.86,4.72c-19.19,6.08-32.11,19-38.84,37.63a427.42,427.42,0,0,0-15.59,53.06c-7.73,35.21-10.7,71.3-21.69,106-6.39,20.18-2.4,41.67.54,62.47,3.64,25.68,9.81,50.65,23.49,73.1,8.79,14.43,20.48,24.12,38.77,23.07,12.71-.73,23.26-6.46,33.3-13.36,20.84-14.32,36.79-33.72,53.7-52.16C334.26,95.86,358.9,52.8,371,2.65c4.8-19.86,10.29-39.61,18.75-58.39,9.08-20.15,24.42-30.62,46.41-32.48,25-2.12,50-.58,75,0,33.78.86,66.93,5.49,99.18,16,11,3.59,22.15,7.15,34,7,9.17-.1,16.07-3.71,19.89-12.4a130.49,130.49,0,0,1,5.79-12.32c10-17.47,25.23-30.09,39.83-43.33,10.23-9.27,22.25-16.54,30.8-27.68h604.07c.27,9.42-2,18.55-3.21,27.8-6.44,50.13-10.91,100.45-15.62,150.77-7.86,83.79-30.27,164.31-56.61,243.85-4.69,14.17-10.38,28-19.52,40.06-10,13.23-20.39,16.4-35.82,11a85.14,85.14,0,0,1-9.1-3.79,421.65,421.65,0,0,0-76.58-28.67,433.33,433.33,0,0,1-149.86-72.63c-19.28-14.42-35.81-31.19-43.26-55.14-4.21-13.54-7.54-27.27-10.9-41C921.46,99.87,919,88.13,913,77.74c-7-11.95-17-14.14-28.86-7C873.41,77.25,865.74,86.66,859.32,97c-23.93,38.5-34,81.48-37.94,125.85-2.75,30.65,2,61,8.85,91,9.85,42.94,26.93,82.63,54.68,117.17,13.07,16.26,29.65,24.74,51.33,19.92a307.76,307.76,0,0,1,72.17-7.78c43.23.73,86.47,1,129.69,2,32.14.75,62.35,9,90.22,25.45,19.42,11.48,37.44,24.94,55.33,38.58,36.86,28.1,76.55,50.52,122.93,57.82,33.92,5.33,68.17,8.58,102.23,13C1568.56,587.89,1620.26,610.4,1655.9,661.75ZM753.61,471.43c-1.11-36.21-13.79-68.17-37.44-95.38-18.87-21.73-34.67-19.57-49.35,5.37-9.6,16.31-17.5,33.61-29.06,48.8-19.63,25.79-42,49.16-63.22,73.6-23,26.61-39.64,55.13-35.88,92.38,2.35,23.25,15.45,39.16,38.51,43,17.73,3,34.36-1.27,50-8.91C675,606.88,711.92,571.42,739,525.73A102.89,102.89,0,0,0,753.61,471.43Zm-426.94,8.06c-17.09-.05-33.12,4.13-47.6,13.11-29.22,18.1-51.14,43.27-68,72.88-4.47,7.84-7.85,16.61-6.75,26,2,17.29,14.1,27.8,32.19,29.32,15.69,1.32,30.15-2.59,43.77-9.76,26.59-14,53-28.33,79.48-42.58a99.71,99.71,0,0,0,25.32-19.05c16.07-16.86,14.84-36.73-3.56-51A87.84,87.84,0,0,0,326.67,479.49Z" transform="translate(287.01 161.03)"/><path class="b" d="M1655.9,661.75c-35.64-51.35-87.34-73.86-147.09-81.72-34.06-4.47-68.31-7.72-102.23-13-46.38-7.3-86.07-29.72-122.93-57.82-17.89-13.64-35.91-27.1-55.33-38.58-27.87-16.48-58.08-24.7-90.22-25.45-43.22-1-86.46-1.26-129.69-2a307.76,307.76,0,0,0-72.17,7.78c-21.68,4.82-38.26-3.66-51.33-19.92-27.75-34.54-44.83-74.23-54.68-117.17-6.87-29.94-11.6-60.34-8.85-91,4-44.37,14-87.35,37.94-125.85,6.42-10.33,14.09-19.74,24.78-26.22,11.84-7.17,21.87-5,28.86,7,6.07,10.39,8.5,22.13,11.31,33.66,3.36,13.74,6.69,27.47,10.9,41,7.45,24,24,40.72,43.26,55.14a433.33,433.33,0,0,0,149.86,72.63,421.65,421.65,0,0,1,76.58,28.67,85.14,85.14,0,0,0,9.1,3.79c15.43,5.36,25.81,2.19,35.82-11,9.14-12.05,14.83-25.89,19.52-40.06,26.34-79.54,48.75-160.06,56.61-243.85,4.71-50.32,9.18-100.64,15.62-150.77,1.19-9.25,3.48-18.38,3.21-27.8q152.54,0,305.07-.15c5.2,0,6.27,1,6.23,6.22-.29,35.41-.15,70.83-.15,106.24-3-.44-4.69-2.81-6.81-4.52-9.28-7.47-19-14.25-29.94-19.08-11.41-5-23.2-7-35.44-3.64-17.71,4.86-26.37,18.47-32.51,34.32-7.38,19.06-9,39.25-11.35,59.29-5,41.64-9.56,83.31-7.94,125.32,1,27,4,53.91,13.07,79.64,7.65,21.64,17.69,42.2,35,57.66,21.42,19.08,48.48,23.51,75.87,26.17Z" transform="translate(287.01 161.03)"/><path class="b" d="M305.07,931.92c1.43-23.18-3.53-45.2-12.05-66.59-6.36-16-12.08-32.12-14.13-49.4-4-33.74,13.94-53.08,47.42-47.39,50.52,8.58,98.48,23.79,133.85,64.49C463.8,837.22,468,841,472,844.81c27.9,26.9,60.53,32.29,95.19,17.17,48.86-21.3,87.18-55,113.27-102.32,16.66-30.18,36.72-58.1,61.4-82.51,35.45-35,79.22-55.39,125.35-71.69A277.44,277.44,0,0,1,951,589.36c54.32-1.72,107.46-11.57,160.7-21.09,36.53-6.53,73.1-10.52,109.77-.65,15.46,4.16,30.47,9.25,44,18,25.44,16.44,36.51,40,33.32,69.82-3.31,30.85-7.9,61.56-11.51,92.38-4.41,37.66-24.67,61.54-60.58,73.51-29.47,9.83-59,19.77-86.62,34.37-19.29,10.18-38.15,21-54.91,35-31,25.85-52.51,26.48-90.26,5.64a179.39,179.39,0,0,1-46.33-36.38,133.88,133.88,0,0,0-27.5-23.68c-23.76-15-48.46-14.36-73.15-3.34-27.21,12.15-52,28.18-72.63,50-9.3,9.83-16.62,20.86-18.79,34.79-.78,5,.26,9.52.8,14.24Z" transform="translate(287.01 161.03)"/><path class="b" d="M-286.86,244.36c12-3.89,22.92-1,33.38,5,22.63,12.91,40,31.66,55.78,51.79,41.41,52.73,89,99.17,140.09,142.48,42.8,36.27,78.28,78.87,99.71,131.79C52.87,602,56.37,629,49,657c-7.57,28.84-14.8,57.79-30,83.93-15,25.83-36.83,42.6-65.8,49.79-14.7,3.65-29.47,7.13-44.36,9.91-41.36,7.7-76.6,28.07-109.86,52.53-28.1,20.67-55.79,41.88-81.42,65.63-1.27,1.18-2.39,2.69-4.44,2.52Z" transform="translate(287.01 161.03)"/><path class="b" d="M740.68-160.88c-8.55,11.14-20.57,18.41-30.8,27.68C695.28-120,680-107.34,670.05-89.87a130.49,130.49,0,0,0-5.79,12.32c-3.82,8.69-10.72,12.3-19.89,12.4-11.85.13-23-3.43-34-7-32.25-10.51-65.4-15.14-99.18-16-25-.63-50-2.17-75,0-22,1.86-37.33,12.33-46.41,32.48C381.3-37,375.81-17.21,371,2.65c-12.11,50.15-36.75,93.21-71.42,131-16.91,18.44-32.86,37.84-53.7,52.16-10,6.9-20.59,12.63-33.3,13.36-18.29,1-30-8.64-38.77-23.07C160.14,153.66,154,128.69,150.33,103c-2.94-20.8-6.93-42.29-.54-62.47,11-34.71,14-70.8,21.69-106a427.42,427.42,0,0,1,15.59-53.06c6.73-18.67,19.65-31.55,38.84-37.63a41.5,41.5,0,0,0,10.86-4.72Z" transform="translate(287.01 161.03)"/><path class="a" d="M1655.9,306.59c-27.39-2.66-54.45-7.09-75.87-26.17-17.36-15.46-27.4-36-35-57.66-9.1-25.73-12-52.6-13.07-79.64-1.62-42,3-83.68,7.94-125.32,2.39-20,4-40.23,11.35-59.29,6.14-15.85,14.8-29.46,32.51-34.32,12.24-3.37,24-1.4,35.44,3.64,10.94,4.83,20.66,11.61,29.94,19.08,2.12,1.71,3.83,4.08,6.81,4.52Z" transform="translate(287.01 161.03)"/><path class="b" d="M1434.3,931.92c5.62-23,17.08-43,31.76-61.25,25.23-31.32,59.26-50.64,94.74-67.55,18.88-9,38.47-16.58,57.85-24.52,13.08-5.36,24.88-13.06,37.25-19.71,0,55.91-.07,111.81.12,167.72,0,4.52-.91,5.45-5.44,5.43Q1542.45,931.77,1434.3,931.92Z" transform="translate(287.01 161.03)"/><path class="b" d="M753.61,471.43A102.89,102.89,0,0,1,739,525.73c-27.12,45.69-64.07,81.15-111.92,104.6-15.59,7.64-32.22,11.89-50,8.91-23.06-3.88-36.16-19.79-38.51-43-3.76-37.25,12.83-65.77,35.88-92.38,21.18-24.44,43.59-47.81,63.22-73.6,11.56-15.19,19.46-32.49,29.06-48.8,14.68-24.94,30.48-27.1,49.35-5.37C739.82,403.26,752.5,435.22,753.61,471.43Z" transform="translate(287.01 161.03)"/><path class="b" d="M326.67,479.49a87.84,87.84,0,0,1,54.83,18.94c18.4,14.25,19.63,34.12,3.56,51a99.71,99.71,0,0,1-25.32,19.05C333.27,582.71,306.85,597,280.26,611c-13.62,7.17-28.08,11.08-43.77,9.76-18.09-1.52-30.15-12-32.19-29.32-1.1-9.39,2.28-18.16,6.75-26,16.88-29.61,38.8-54.78,68-72.88C293.55,483.62,309.58,479.44,326.67,479.49Z" transform="translate(287.01 161.03)"/></svg>