<?xml version="1.0" encoding="utf-8"?>
<!-- Generator: Adobe Illustrator 23.0.1, SVG Export Plug-In . SVG Version: 6.00 Build 0)  -->
<svg version="1.1" id="レイヤー_1" xmlns="http://www.w3.org/2000/svg" xmlns:xlink="http://www.w3.org/1999/xlink" x="0px"
	 y="0px" viewBox="0 0 32 27" style="enable-background:new 0 0 32 27;" xml:space="preserve">
<path d="M10.1,27c12.1,0,18.7-10.4,18.7-19.4c0-0.3,0-0.6,0-0.9c1.3-1,2.4-2.2,3.3-3.5c-1.2,0.6-2.5,0.9-3.8,1.1
	c1.4-0.9,2.4-2.2,2.9-3.8c-1.3,0.8-2.7,1.4-4.2,1.7c-2-2.2-5.3-2.8-7.9-1.3s-4,4.6-3.3,7.6C10.5,8.1,5.6,5.5,2.2,1.2
	c-1.7,3.1-0.9,7.1,2,9.1c-1,0-2.1-0.3-3-0.9v0.1c0,3.2,2.2,6,5.3,6.7c-1,0.3-2,0.3-3,0.1c0.9,2.8,3.3,4.7,6.1,4.7
	C7.4,23,4.5,24,1.6,24c-0.5,0-1,0-1.6-0.1C3,25.9,6.5,27,10.1,27"/>
</svg>
