<?xml version="1.0" encoding="UTF-8"?>
<svg width="293px" height="24px" viewBox="0 0 293 24" version="1.1" xmlns="http://www.w3.org/2000/svg" xmlns:xlink="http://www.w3.org/1999/xlink">
    <!-- Generator: Sketch 51.3 (57544) - http://www.bohemiancoding.com/sketch -->
    <title>Group 2</title>
    <desc>Created with Sketch.</desc>
    <defs></defs>
    <g id="top" stroke="none" stroke-width="1" fill="none" fill-rule="evenodd" fill-opacity="0.878396739">
        <g id="Desktop" transform="translate(-177.000000, -590.000000)" fill="#000000">
            <g id="prof" transform="translate(174.000000, 515.000000)">
                <g id="Group-2" transform="translate(3.000000, 75.000000)">
                    <path d="M167.587,15.869 L169.849,15.869 C171.708,15.869 172.93,14.426 173.255,12.541 C173.58,10.656 172.891,9.174 171.032,9.174 L168.77,9.174 L167.587,15.869 Z M169.654,17 L166.69,17 C166.417,17 166.209,16.766 166.261,16.48 L167.665,8.563 C167.717,8.277 167.99,8.043 168.263,8.043 L171.227,8.043 C173.775,8.043 174.919,9.993 174.464,12.541 C174.009,15.076 172.202,17 169.654,17 Z M177.739,13.49 L181.509,13.49 C181.522,12.476 180.924,11.865 179.949,11.865 C178.948,11.865 178.038,12.476 177.739,13.49 Z M182.588,13.945 C182.536,14.218 182.289,14.413 182.042,14.413 L177.57,14.413 C177.518,15.427 178.207,16.064 179.234,16.064 C179.962,16.064 180.391,15.882 180.885,15.427 C181.158,15.18 181.522,15.102 181.717,15.271 C181.912,15.453 181.912,15.804 181.691,16.012 C180.963,16.766 180.001,17.13 179.013,17.13 C177.284,17.13 176.127,15.869 176.465,13.945 C176.803,12.021 178.402,10.799 180.131,10.799 C181.86,10.799 182.926,12.021 182.588,13.945 Z M185.434,15.362 C185.525,15.804 185.954,16.09 186.565,16.09 C187.176,16.09 187.696,15.765 187.787,15.284 C187.865,14.842 187.54,14.621 187.111,14.517 L186.305,14.322 C185.343,14.049 184.823,13.542 184.992,12.58 C185.161,11.579 186.201,10.799 187.423,10.799 C188.216,10.799 188.931,11.085 189.165,11.787 C189.191,11.878 189.191,11.982 189.178,12.06 C189.1,12.45 188.71,12.593 188.528,12.593 C188.359,12.593 188.229,12.502 188.138,12.333 C187.93,11.969 187.644,11.826 187.267,11.826 C186.695,11.826 186.253,12.164 186.175,12.619 C186.11,13.009 186.435,13.217 186.825,13.321 L187.67,13.542 C188.866,13.854 189.048,14.621 188.931,15.31 C188.736,16.441 187.514,17.13 186.253,17.13 C185.317,17.13 184.368,16.61 184.329,15.674 C184.329,15.284 184.55,15.024 184.992,15.024 C185.2,15.024 185.382,15.128 185.434,15.362 Z M192.31,8.706 C192.388,8.264 192.83,7.939 193.272,7.939 C193.727,7.939 194.026,8.264 193.948,8.706 C193.87,9.148 193.454,9.473 192.999,9.473 C192.557,9.473 192.232,9.148 192.31,8.706 Z M192.362,16.467 C192.297,16.792 191.985,17.065 191.647,17.065 C191.322,17.065 191.114,16.792 191.179,16.467 L192.063,11.462 C192.115,11.137 192.427,10.864 192.752,10.864 C193.09,10.864 193.311,11.137 193.246,11.462 L192.362,16.467 Z M196.144,18.261 C196.456,18.69 196.963,18.911 197.496,18.911 C198.809,18.911 199.784,18.17 200.148,16.155 C200.161,16.103 200.174,16.064 200.174,16.012 C199.68,16.727 198.679,17.13 197.834,17.13 C196.17,17.13 194.974,15.908 195.312,13.984 C195.65,12.047 197.301,10.799 198.965,10.799 C199.81,10.799 200.629,11.176 200.902,11.878 L200.967,11.462 C201.032,11.137 201.344,10.864 201.669,10.864 C202.007,10.864 202.215,11.137 202.15,11.462 L201.344,16.077 C200.824,18.937 199.316,20.029 197.314,20.029 C196.352,20.029 195.507,19.613 195.052,18.794 C194.922,18.56 195.078,18.196 195.377,18.027 C195.65,17.884 195.949,18.001 196.144,18.261 Z M200.512,13.971 C200.746,12.671 199.94,11.956 198.861,11.956 C197.769,11.956 196.729,12.788 196.521,13.971 C196.3,15.206 197.054,15.973 198.146,15.973 C199.121,15.973 200.278,15.258 200.512,13.971 Z M206.231,11.462 L206.166,11.839 C206.66,11.111 207.583,10.799 208.246,10.799 C209.754,10.799 210.43,11.787 210.118,13.49 L209.585,16.467 C209.52,16.792 209.208,17.065 208.87,17.065 C208.545,17.065 208.337,16.792 208.402,16.467 L208.922,13.568 C209.104,12.554 208.701,11.956 207.869,11.956 C207.011,11.956 206.049,12.437 205.828,13.724 L205.347,16.467 C205.282,16.792 204.97,17.065 204.632,17.065 C204.307,17.065 204.099,16.792 204.164,16.467 L205.048,11.462 C205.1,11.137 205.412,10.864 205.737,10.864 C206.075,10.864 206.283,11.137 206.231,11.462 Z M213.757,13.49 L217.527,13.49 C217.54,12.476 216.942,11.865 215.967,11.865 C214.966,11.865 214.056,12.476 213.757,13.49 Z M218.606,13.945 C218.554,14.218 218.307,14.413 218.06,14.413 L213.588,14.413 C213.536,15.427 214.225,16.064 215.252,16.064 C215.98,16.064 216.409,15.882 216.903,15.427 C217.176,15.18 217.54,15.102 217.735,15.271 C217.93,15.453 217.93,15.804 217.709,16.012 C216.981,16.766 216.019,17.13 215.031,17.13 C213.302,17.13 212.145,15.869 212.483,13.945 C212.821,12.021 214.42,10.799 216.149,10.799 C217.878,10.799 218.944,12.021 218.606,13.945 Z M224.494,11.943 C224.403,11.93 224.286,11.93 224.208,11.93 C223.038,11.93 222.323,13.178 222.05,14.79 L221.751,16.467 C221.686,16.792 221.374,17.065 221.036,17.065 C220.711,17.065 220.503,16.792 220.568,16.467 L221.452,11.462 C221.504,11.137 221.816,10.864 222.141,10.864 C222.479,10.864 222.687,11.137 222.635,11.462 L222.479,12.294 C222.999,11.228 223.649,10.799 224.442,10.799 C224.884,10.799 225.586,10.89 225.378,11.527 C225.248,11.904 224.91,11.982 224.494,11.943 Z M236.309,8.706 L230.836,16.792 C230.667,17.039 230.329,17.143 230.095,17.013 C229.861,16.896 229.835,16.584 230.017,16.35 L235.503,8.251 C235.659,8.03 235.971,7.9 236.205,8.03 C236.452,8.147 236.478,8.459 236.309,8.706 Z M246.681,9.174 L244.341,9.174 L243.743,12.515 L246.018,12.515 C247.11,12.515 247.708,11.683 247.851,10.851 C247.994,10.032 247.721,9.174 246.681,9.174 Z M243.535,13.646 L243.041,16.454 C242.976,16.792 242.664,17.065 242.313,17.065 C241.975,17.065 241.767,16.792 241.832,16.454 L243.223,8.563 C243.288,8.277 243.548,8.043 243.821,8.043 L246.889,8.043 C248.787,8.043 249.307,9.447 249.06,10.851 C248.813,12.268 247.799,13.646 245.901,13.646 L243.535,13.646 Z M253.115,8.16 L251.646,16.467 C251.581,16.792 251.269,17.065 250.931,17.065 C250.606,17.065 250.398,16.792 250.463,16.467 L251.932,8.16 C251.984,7.835 252.309,7.562 252.634,7.562 C252.972,7.562 253.167,7.835 253.115,8.16 Z M259.38,16.467 L259.458,16.064 C258.925,16.753 257.976,17.13 257.131,17.13 C255.467,17.13 254.271,15.882 254.609,13.958 C254.96,12.021 256.585,10.799 258.249,10.799 C259.094,10.799 259.926,11.15 260.199,11.839 L260.264,11.462 C260.316,11.137 260.628,10.864 260.953,10.864 C261.291,10.864 261.512,11.137 261.447,11.462 L260.563,16.467 C260.498,16.792 260.199,17.065 259.861,17.065 C259.536,17.065 259.315,16.792 259.38,16.467 Z M259.809,13.945 C260.043,12.645 259.133,11.956 258.158,11.956 C257.066,11.956 256.039,12.736 255.818,13.945 C255.61,15.141 256.338,15.973 257.43,15.973 C258.509,15.973 259.575,15.232 259.809,13.945 Z M265.515,11.462 L265.45,11.839 C265.944,11.111 266.867,10.799 267.53,10.799 C269.038,10.799 269.714,11.787 269.402,13.49 L268.869,16.467 C268.804,16.792 268.492,17.065 268.154,17.065 C267.829,17.065 267.621,16.792 267.686,16.467 L268.206,13.568 C268.388,12.554 267.985,11.956 267.153,11.956 C266.295,11.956 265.333,12.437 265.112,13.724 L264.631,16.467 C264.566,16.792 264.254,17.065 263.916,17.065 C263.591,17.065 263.383,16.792 263.448,16.467 L264.332,11.462 C264.384,11.137 264.696,10.864 265.021,10.864 C265.359,10.864 265.567,11.137 265.515,11.462 Z M273.756,11.462 L273.691,11.839 C274.185,11.111 275.108,10.799 275.771,10.799 C277.279,10.799 277.955,11.787 277.643,13.49 L277.11,16.467 C277.045,16.792 276.733,17.065 276.395,17.065 C276.07,17.065 275.862,16.792 275.927,16.467 L276.447,13.568 C276.629,12.554 276.226,11.956 275.394,11.956 C274.536,11.956 273.574,12.437 273.353,13.724 L272.872,16.467 C272.807,16.792 272.495,17.065 272.157,17.065 C271.832,17.065 271.624,16.792 271.689,16.467 L272.573,11.462 C272.625,11.137 272.937,10.864 273.262,10.864 C273.6,10.864 273.808,11.137 273.756,11.462 Z M281.282,13.49 L285.052,13.49 C285.065,12.476 284.467,11.865 283.492,11.865 C282.491,11.865 281.581,12.476 281.282,13.49 Z M286.131,13.945 C286.079,14.218 285.832,14.413 285.585,14.413 L281.113,14.413 C281.061,15.427 281.75,16.064 282.777,16.064 C283.505,16.064 283.934,15.882 284.428,15.427 C284.701,15.18 285.065,15.102 285.26,15.271 C285.455,15.453 285.455,15.804 285.234,16.012 C284.506,16.766 283.544,17.13 282.556,17.13 C280.827,17.13 279.67,15.869 280.008,13.945 C280.346,12.021 281.945,10.799 283.674,10.799 C285.403,10.799 286.469,12.021 286.131,13.945 Z M292.019,11.943 C291.928,11.93 291.811,11.93 291.733,11.93 C290.563,11.93 289.848,13.178 289.575,14.79 L289.276,16.467 C289.211,16.792 288.899,17.065 288.561,17.065 C288.236,17.065 288.028,16.792 288.093,16.467 L288.977,11.462 C289.029,11.137 289.341,10.864 289.666,10.864 C290.004,10.864 290.212,11.137 290.16,11.462 L290.004,12.294 C290.524,11.228 291.174,10.799 291.967,10.799 C292.409,10.799 293.111,10.89 292.903,11.527 C292.773,11.904 292.435,11.982 292.019,11.943 Z" id="Designer-/-Planner"></path>
                    <path d="M4.44,1.464 L12.048,1.464 C12.84,1.464 13.392,2.16 13.224,3.024 C13.08,3.816 12.312,4.536 11.544,4.56 L6.048,4.56 L5.328,8.352 L9.408,8.352 C10.2,8.352 10.752,9.024 10.608,9.864 C10.464,10.656 9.672,11.376 8.904,11.376 L4.8,11.376 L3.888,16.488 C3.72,17.376 2.832,18.12 1.872,18.12 C0.96,18.12 0.24,17.352 0.384,16.488 L2.832,2.952 C2.976,2.136 3.552,1.464 4.44,1.464 Z M20.032,16.632 L20.056,16.368 C19.24,17.496 17.824,18.216 16.504,18.216 C13.984,18.216 12.568,16.968 13.144,13.776 L14.152,8.16 C14.296,7.32 15.184,6.672 16.096,6.672 C16.984,6.672 17.632,7.344 17.512,8.16 L16.696,12.768 C16.432,14.256 16.84,14.976 18.232,14.976 C19.408,14.976 20.392,14.424 20.704,12.72 L21.52,8.16 C21.664,7.32 22.552,6.672 23.464,6.672 C24.352,6.672 25,7.344 24.88,8.16 L23.392,16.632 C23.176,17.448 22.312,18.12 21.424,18.12 C20.512,18.12 19.84,17.472 20.032,16.632 Z M29.36,2.64 C29.552,1.536 30.68,0.696 31.808,0.696 C32.96,0.696 33.704,1.536 33.512,2.64 C33.32,3.744 32.264,4.608 31.112,4.608 C29.984,4.608 29.168,3.744 29.36,2.64 Z M25.088,20.472 L25.16,20.472 C26.336,20.472 26.768,19.488 26.888,18.696 L28.76,8.16 C28.952,7.344 29.816,6.672 30.704,6.672 C31.616,6.672 32.264,7.32 32.12,8.16 L30.272,18.624 C29.744,21.6 28.328,23.496 25.208,23.496 L24.536,23.496 C23.672,23.496 23.096,22.848 23.24,21.96 C23.384,21.072 24.224,20.496 25.088,20.472 Z M36.576,2.64 C36.768,1.536 37.896,0.696 39.024,0.696 C40.152,0.696 40.896,1.536 40.704,2.64 C40.512,3.744 39.456,4.608 38.328,4.608 C37.2,4.608 36.384,3.744 36.576,2.64 Z M39.36,8.16 L37.872,16.632 C37.704,17.472 36.816,18.12 35.904,18.12 C35.016,18.12 34.368,17.448 34.512,16.632 L36,8.16 C36.192,7.344 37.056,6.672 37.944,6.672 C38.856,6.672 39.528,7.32 39.36,8.16 Z M60.232,11.64 L59.344,16.632 C59.176,17.472 58.288,18.12 57.376,18.12 C56.488,18.12 55.84,17.448 55.984,16.632 L56.776,12.024 C57.04,10.56 56.296,9.792 55.312,9.792 C54.256,9.792 53.296,10.44 53.008,12.072 L52.216,16.632 C52.048,17.472 51.16,18.12 50.248,18.12 C49.36,18.12 48.712,17.448 48.856,16.632 L49.672,11.952 C49.912,10.536 49.168,9.792 48.208,9.792 C47.2,9.792 46.144,10.368 45.856,12.072 L45.064,16.632 C44.92,17.472 44.008,18.12 43.096,18.12 C42.208,18.12 41.56,17.448 41.704,16.632 L43.192,8.16 C43.384,7.344 44.248,6.672 45.136,6.672 C46.048,6.672 46.72,7.32 46.552,8.16 L46.504,8.424 C47.272,7.248 48.568,6.576 49.768,6.576 C51.544,6.576 52.648,7.152 53.104,8.688 C54.208,6.912 55.936,6.552 56.728,6.552 C59.392,6.552 60.784,8.256 60.232,11.64 Z M68.12,18.216 C64.856,18.216 62.624,15.888 63.248,12.36 C63.872,8.832 66.896,6.576 70.16,6.576 C73.424,6.576 75.656,8.832 75.032,12.36 C74.408,15.888 71.384,18.216 68.12,18.216 Z M68.648,14.976 C70.04,14.976 71.408,13.896 71.672,12.36 C71.936,10.848 71,9.816 69.608,9.816 C68.24,9.816 66.872,10.848 66.608,12.36 C66.344,13.896 67.28,14.976 68.648,14.976 Z M79.224,6.792 L80.136,6.792 L80.64,3.864 C80.832,3.048 81.696,2.376 82.584,2.376 C83.496,2.376 84.144,3.024 84,3.864 L83.472,6.792 L84.768,6.792 C85.44,6.792 85.848,7.392 85.728,8.112 C85.608,8.808 84.96,9.408 84.264,9.432 L83.016,9.432 L81.744,16.632 C81.6,17.472 80.712,18.12 79.8,18.12 C78.912,18.12 78.24,17.448 78.408,16.632 L79.632,9.432 L78.72,9.432 C78.072,9.408 77.664,8.808 77.784,8.112 C77.904,7.392 78.552,6.792 79.224,6.792 Z M91.744,18.216 C88.48,18.216 86.248,15.888 86.872,12.36 C87.496,8.832 90.52,6.576 93.784,6.576 C97.048,6.576 99.28,8.832 98.656,12.36 C98.032,15.888 95.008,18.216 91.744,18.216 Z M92.272,14.976 C93.664,14.976 95.032,13.896 95.296,12.36 C95.56,10.848 94.624,9.816 93.232,9.816 C91.864,9.816 90.496,10.848 90.232,12.36 C89.968,13.896 90.904,14.976 92.272,14.976 Z M117.36,4.56 L114.12,4.56 L113.28,9.216 L116.424,9.216 C117.792,9.216 118.728,7.968 118.92,6.888 C119.112,5.856 118.68,4.56 117.36,4.56 Z M122.448,6.792 C121.992,8.952 120.432,11.016 117.864,11.736 L119.856,15.6 C120.216,16.32 119.712,17.4 118.8,17.88 C117.96,18.336 116.952,18.12 116.616,17.4 L114.36,12.168 L112.752,12.168 L112.008,16.488 C111.84,17.376 110.928,18.12 109.968,18.12 C109.056,18.12 108.336,17.352 108.504,16.488 L110.832,3.264 C111.024,2.28 111.768,1.464 112.824,1.464 L117.888,1.464 C121.584,1.464 122.88,4.104 122.448,6.792 Z M126.016,2.64 C126.208,1.536 127.336,0.696 128.464,0.696 C129.592,0.696 130.336,1.536 130.144,2.64 C129.952,3.744 128.896,4.608 127.768,4.608 C126.64,4.608 125.824,3.744 126.016,2.64 Z M128.8,8.16 L127.312,16.632 C127.144,17.472 126.256,18.12 125.344,18.12 C124.456,18.12 123.808,17.448 123.952,16.632 L125.44,8.16 C125.632,7.344 126.496,6.672 127.384,6.672 C128.296,6.672 128.968,7.32 128.8,8.16 Z M136.184,18.216 C132.92,18.216 130.688,15.888 131.312,12.36 C131.936,8.832 134.96,6.576 138.224,6.576 C141.488,6.576 143.72,8.832 143.096,12.36 C142.472,15.888 139.448,18.216 136.184,18.216 Z M136.712,14.976 C138.104,14.976 139.472,13.896 139.736,12.36 C140,10.848 139.064,9.816 137.672,9.816 C136.304,9.816 134.936,10.848 134.672,12.36 C134.408,13.896 135.344,14.976 136.712,14.976 Z" id="Fujimoto-Rio"></path>
                </g>
            </g>
        </g>
    </g>
</svg>